<?xml version="1.0" encoding="UTF-8" standalone="no"?>
<!DOCTYPE svg PUBLIC "-//W3C//DTD SVG 1.1//EN"
 "http://www.w3.org/Graphics/SVG/1.1/DTD/svg11.dtd">
<!-- Generated by graphviz version 2.43.0 (0)
 -->
<!-- Title: PHV::ClusterStats Pages: 1 -->
<svg width="389pt" height="82pt"
 viewBox="0.00 0.00 388.50 82.00" xmlns="http://www.w3.org/2000/svg" xmlns:xlink="http://www.w3.org/1999/xlink">
<g id="graph0" class="graph" transform="scale(1 1) rotate(0) translate(4 78)">
<title>PHV::ClusterStats</title>
<!-- Node1 -->
<g id="Node000001" class="node">
<title>Node1</title>
<g id="a_Node000001"><a xlink:title="An interface for gathering statistics common across each kind of cluster.">
<polygon fill="#999999" stroke="#666666" points="245,-74 144,-74 144,-55 245,-55 245,-74"/>
<text text-anchor="middle" x="194.5" y="-62" font-family="Helvetica,sans-Serif" font-size="10.00">PHV::ClusterStats</text>
</a>
</g>
</g>
<!-- Node2 -->
<g id="Node000002" class="node">
<title>Node2</title>
<g id="a_Node000002"><a xlink:href="class_p_h_v_1_1_aligned_cluster.html" target="_top" xlink:title=" ">
<polygon fill="white" stroke="#666666" points="113,-19 0,-19 0,0 113,0 113,-19"/>
<text text-anchor="middle" x="56.5" y="-7" font-family="Helvetica,sans-Serif" font-size="10.00">PHV::AlignedCluster</text>
</a>
</g>
</g>
<!-- Node1&#45;&gt;Node2 -->
<g id="edge1_Node000001_Node000002" class="edge">
<title>Node1&#45;&gt;Node2</title>
<g id="a_edge1_Node000001_Node000002"><a xlink:title=" ">
<path fill="none" stroke="#63b8ff" d="M162.71,-51.29C137.13,-41.47 101.83,-27.91 79.08,-19.17"/>
<polygon fill="#63b8ff" stroke="#63b8ff" points="161.74,-54.67 172.33,-54.98 164.25,-48.13 161.74,-54.67"/>
</a>
</g>
</g>
<!-- Node3 -->
<g id="Node000003" class="node">
<title>Node3</title>
<g id="a_Node000003"><a xlink:href="class_p_h_v_1_1_rotational_cluster.html" target="_top" xlink:title=" ">
<polygon fill="white" stroke="#666666" points="258,-19 131,-19 131,0 258,0 258,-19"/>
<text text-anchor="middle" x="194.5" y="-7" font-family="Helvetica,sans-Serif" font-size="10.00">PHV::RotationalCluster</text>
</a>
</g>
</g>
<!-- Node1&#45;&gt;Node3 -->
<g id="edge2_Node000001_Node000003" class="edge">
<title>Node1&#45;&gt;Node3</title>
<g id="a_edge2_Node000001_Node000003"><a xlink:title=" ">
<path fill="none" stroke="#63b8ff" d="M194.5,-44.66C194.5,-35.93 194.5,-25.99 194.5,-19.09"/>
<polygon fill="#63b8ff" stroke="#63b8ff" points="191,-44.75 194.5,-54.75 198,-44.75 191,-44.75"/>
</a>
</g>
</g>
<!-- Node4 -->
<g id="Node000004" class="node">
<title>Node4</title>
<g id="a_Node000004"><a xlink:href="class_p_h_v_1_1_super_cluster.html" target="_top" xlink:title=" ">
<polygon fill="white" stroke="#666666" points="380.5,-19 276.5,-19 276.5,0 380.5,0 380.5,-19"/>
<text text-anchor="middle" x="328.5" y="-7" font-family="Helvetica,sans-Serif" font-size="10.00">PHV::SuperCluster</text>
</a>
</g>
</g>
<!-- Node1&#45;&gt;Node4 -->
<g id="edge3_Node000001_Node000004" class="edge">
<title>Node1&#45;&gt;Node4</title>
<g id="a_edge3_Node000001_Node000004"><a xlink:title=" ">
<path fill="none" stroke="#63b8ff" d="M225.37,-51.29C250.2,-41.47 284.49,-27.91 306.58,-19.17"/>
<polygon fill="#63b8ff" stroke="#63b8ff" points="224.04,-48.05 216.03,-54.98 226.62,-54.56 224.04,-48.05"/>
</a>
</g>
</g>
</g>
</svg>
