<?xml version="1.0" encoding="UTF-8" standalone="no"?>
<!DOCTYPE svg PUBLIC "-//W3C//DTD SVG 1.1//EN"
 "http://www.w3.org/Graphics/SVG/1.1/DTD/svg11.dtd">
<!-- Generated by graphviz version 2.43.0 (0)
 -->
<!-- Title: P4::KeyIsSimple Pages: 1 -->
<svg width="540pt" height="212pt"
 viewBox="0.00 0.00 540.00 212.00" xmlns="http://www.w3.org/2000/svg" xmlns:xlink="http://www.w3.org/1999/xlink">
<g id="graph0" class="graph" transform="scale(1 1) rotate(0) translate(4 208)">
<title>P4::KeyIsSimple</title>
<!-- Node1 -->
<g id="Node000001" class="node">
<title>Node1</title>
<g id="a_Node000001"><a xlink:title=" ">
<polygon fill="#999999" stroke="#666666" points="95,-111 0,-111 0,-92 95,-92 95,-111"/>
<text text-anchor="middle" x="47.5" y="-99" font-family="Helvetica,sans-Serif" font-size="10.00">P4::KeyIsSimple</text>
</a>
</g>
</g>
<!-- Node2 -->
<g id="Node000002" class="node">
<title>Node2</title>
<g id="a_Node000002"><a xlink:href="class_b_f_n_1_1_is_phase0.html" target="_top" xlink:title=" ">
<polygon fill="white" stroke="#bfbfbf" points="253.5,-204 167.5,-204 167.5,-185 253.5,-185 253.5,-204"/>
<text text-anchor="middle" x="210.5" y="-192" font-family="Helvetica,sans-Serif" font-size="10.00">BFN::IsPhase0</text>
</a>
</g>
</g>
<!-- Node1&#45;&gt;Node2 -->
<g id="edge1_Node000001_Node000002" class="edge">
<title>Node1&#45;&gt;Node2</title>
<g id="a_edge1_Node000001_Node000002"><a xlink:title=" ">
<path fill="none" stroke="#63b8ff" d="M62.82,-118.95C77.96,-136.22 103.43,-162.09 131,-176.5 142.15,-182.33 155.17,-186.28 167.35,-188.96"/>
<polygon fill="#63b8ff" stroke="#63b8ff" points="65.41,-116.59 56.26,-111.25 60.09,-121.13 65.41,-116.59"/>
</a>
</g>
</g>
<!-- Node3 -->
<g id="Node000003" class="node">
<title>Node3</title>
<g id="a_Node000003"><a xlink:href="class_b_f_n_1_1_is_slice.html" target="_top" xlink:title=" ">
<polygon fill="white" stroke="#bfbfbf" points="247.5,-167 173.5,-167 173.5,-148 247.5,-148 247.5,-167"/>
<text text-anchor="middle" x="210.5" y="-155" font-family="Helvetica,sans-Serif" font-size="10.00">BFN::IsSlice</text>
</a>
</g>
</g>
<!-- Node1&#45;&gt;Node3 -->
<g id="edge2_Node000001_Node000003" class="edge">
<title>Node1&#45;&gt;Node3</title>
<g id="a_edge2_Node000001_Node000003"><a xlink:title=" ">
<path fill="none" stroke="#63b8ff" d="M75.6,-115.7C91.42,-123.56 111.96,-133.01 131,-139.5 144.5,-144.1 159.7,-147.89 173.11,-150.79"/>
<polygon fill="#63b8ff" stroke="#63b8ff" points="76.91,-112.45 66.41,-111.06 73.75,-118.69 76.91,-112.45"/>
</a>
</g>
</g>
<!-- Node4 -->
<g id="Node000004" class="node">
<title>Node4</title>
<g id="a_Node000004"><a xlink:href="class_p4_1_1_is_like_left_value.html" target="_top" xlink:title=" ">
<polygon fill="white" stroke="#666666" points="264,-130 157,-130 157,-111 264,-111 264,-130"/>
<text text-anchor="middle" x="210.5" y="-118" font-family="Helvetica,sans-Serif" font-size="10.00">P4::IsLikeLeftValue</text>
</a>
</g>
</g>
<!-- Node1&#45;&gt;Node4 -->
<g id="edge3_Node000001_Node000004" class="edge">
<title>Node1&#45;&gt;Node4</title>
<g id="a_edge3_Node000001_Node000004"><a xlink:title=" ">
<path fill="none" stroke="#63b8ff" d="M105.28,-108.2C122.05,-110.18 140.32,-112.34 156.81,-114.28"/>
<polygon fill="#63b8ff" stroke="#63b8ff" points="105.41,-104.69 95.07,-107 104.59,-111.64 105.41,-104.69"/>
</a>
</g>
</g>
<!-- Node7 -->
<g id="Node000007" class="node">
<title>Node7</title>
<g id="a_Node000007"><a xlink:href="class_p4_1_1_is_non_constant_array_index.html" target="_top" xlink:title=" ">
<polygon fill="white" stroke="#666666" points="290,-93 131,-93 131,-74 290,-74 290,-93"/>
<text text-anchor="middle" x="210.5" y="-81" font-family="Helvetica,sans-Serif" font-size="10.00">P4::IsNonConstantArrayIndex</text>
</a>
</g>
</g>
<!-- Node1&#45;&gt;Node7 -->
<g id="edge6_Node000001_Node000007" class="edge">
<title>Node1&#45;&gt;Node7</title>
<g id="a_edge6_Node000001_Node000007"><a xlink:title=" ">
<path fill="none" stroke="#63b8ff" d="M105.06,-95.18C113.42,-94.24 122.17,-93.26 130.88,-92.29"/>
<polygon fill="#63b8ff" stroke="#63b8ff" points="104.62,-91.7 95.07,-96.29 105.39,-98.66 104.62,-91.7"/>
</a>
</g>
</g>
<!-- Node8 -->
<g id="Node000008" class="node">
<title>Node8</title>
<g id="a_Node000008"><a xlink:href="class_p4_1_1_is_valid.html" target="_top" xlink:title=" ">
<polygon fill="white" stroke="#666666" points="244,-56 177,-56 177,-37 244,-37 244,-56"/>
<text text-anchor="middle" x="210.5" y="-44" font-family="Helvetica,sans-Serif" font-size="10.00">P4::IsValid</text>
</a>
</g>
</g>
<!-- Node1&#45;&gt;Node8 -->
<g id="edge7_Node000001_Node000008" class="edge">
<title>Node1&#45;&gt;Node8</title>
<g id="a_edge7_Node000001_Node000008"><a xlink:title=" ">
<path fill="none" stroke="#63b8ff" d="M76.95,-87.62C92.63,-80.35 112.6,-71.69 131,-65.5 145.75,-60.54 162.47,-56.31 176.67,-53.11"/>
<polygon fill="#63b8ff" stroke="#63b8ff" points="75.35,-84.51 67.79,-91.94 78.33,-90.84 75.35,-84.51"/>
</a>
</g>
</g>
<!-- Node9 -->
<g id="Node000009" class="node">
<title>Node9</title>
<g id="a_Node000009"><a xlink:href="class_p4_1_1_or_policy.html" target="_top" xlink:title=" ">
<polygon fill="white" stroke="#666666" points="248,-19 173,-19 173,0 248,0 248,-19"/>
<text text-anchor="middle" x="210.5" y="-7" font-family="Helvetica,sans-Serif" font-size="10.00">P4::OrPolicy</text>
</a>
</g>
</g>
<!-- Node1&#45;&gt;Node9 -->
<g id="edge8_Node000001_Node000009" class="edge">
<title>Node1&#45;&gt;Node9</title>
<g id="a_edge8_Node000001_Node000009"><a xlink:title=" ">
<path fill="none" stroke="#63b8ff" d="M63.2,-84.33C78.48,-67.58 103.9,-42.64 131,-28.5 143.8,-21.82 159.01,-17.44 172.62,-14.59"/>
<polygon fill="#63b8ff" stroke="#63b8ff" points="60.59,-82 56.56,-91.8 65.82,-86.65 60.59,-82"/>
</a>
</g>
</g>
<!-- Node5 -->
<g id="Node000005" class="node">
<title>Node5</title>
<g id="a_Node000005"><a xlink:href="class_p4_1_1_is_mask.html" target="_top" xlink:title=" ">
<polygon fill="white" stroke="#666666" points="395,-130 326,-130 326,-111 395,-111 395,-130"/>
<text text-anchor="middle" x="360.5" y="-118" font-family="Helvetica,sans-Serif" font-size="10.00">P4::IsMask</text>
</a>
</g>
</g>
<!-- Node4&#45;&gt;Node5 -->
<g id="edge4_Node000004_Node000005" class="edge">
<title>Node4&#45;&gt;Node5</title>
<g id="a_edge4_Node000004_Node000005"><a xlink:title=" ">
<path fill="none" stroke="#63b8ff" d="M274.4,-120.5C292.13,-120.5 310.73,-120.5 326,-120.5"/>
<polygon fill="#63b8ff" stroke="#63b8ff" points="274.1,-117 264.1,-120.5 274.1,-124 274.1,-117"/>
</a>
</g>
</g>
<!-- Node6 -->
<g id="Node000006" class="node">
<title>Node6</title>
<g id="a_Node000006"><a xlink:href="class_b_f_n_1_1_is_slice_mask.html" target="_top" xlink:title=" ">
<polygon fill="white" stroke="#bfbfbf" points="532,-130 431,-130 431,-111 532,-111 532,-130"/>
<text text-anchor="middle" x="481.5" y="-118" font-family="Helvetica,sans-Serif" font-size="10.00">BFN::IsSliceMask</text>
</a>
</g>
</g>
<!-- Node5&#45;&gt;Node6 -->
<g id="edge5_Node000005_Node000006" class="edge">
<title>Node5&#45;&gt;Node6</title>
<g id="a_edge5_Node000005_Node000006"><a xlink:title=" ">
<path fill="none" stroke="#63b8ff" d="M405.41,-120.5C413.62,-120.5 422.26,-120.5 430.64,-120.5"/>
<polygon fill="#63b8ff" stroke="#63b8ff" points="405.28,-117 395.28,-120.5 405.28,-124 405.28,-117"/>
</a>
</g>
</g>
</g>
</svg>
