<?xml version="1.0" encoding="UTF-8" standalone="no"?>
<!DOCTYPE svg PUBLIC "-//W3C//DTD SVG 1.1//EN"
 "http://www.w3.org/Graphics/SVG/1.1/DTD/svg11.dtd">
<!-- Generated by graphviz version 2.43.0 (0)
 -->
<!-- Title: P4::GeneralInliner Pages: 1 -->
<svg width="234pt" height="203pt"
 viewBox="0.00 0.00 234.00 203.00" xmlns="http://www.w3.org/2000/svg" xmlns:xlink="http://www.w3.org/1999/xlink">
<g id="graph0" class="graph" transform="scale(1 1) rotate(0) translate(4 199)">
<title>P4::GeneralInliner</title>
<!-- Node1 -->
<g id="Node000001" class="node">
<title>Node1</title>
<g id="a_Node000001"><a xlink:title="Performs actual inlining work.">
<polygon fill="#999999" stroke="#666666" points="154.5,-19 50.5,-19 50.5,0 154.5,0 154.5,-19"/>
<text text-anchor="middle" x="102.5" y="-7" font-family="Helvetica,sans-Serif" font-size="10.00">P4::GeneralInliner</text>
</a>
</g>
</g>
<!-- Node2 -->
<g id="Node000002" class="node">
<title>Node2</title>
<g id="a_Node000002"><a xlink:href="class_p4_1_1_abstract_inliner.html" target="_top" xlink:title=" ">
<polygon fill="white" stroke="#bfbfbf" points="184.5,-85 20.5,-85 20.5,-55 184.5,-55 184.5,-85"/>
<text text-anchor="start" x="28.5" y="-73" font-family="Helvetica,sans-Serif" font-size="10.00">P4::AbstractInliner</text>
<text text-anchor="middle" x="102.5" y="-62" font-family="Helvetica,sans-Serif" font-size="10.00">&lt; InlineList, InlineSummary &gt;</text>
</a>
</g>
</g>
<!-- Node2&#45;&gt;Node1 -->
<g id="edge1_Node000001_Node000002" class="edge">
<title>Node2&#45;&gt;Node1</title>
<g id="a_edge1_Node000001_Node000002"><a xlink:title=" ">
<path fill="none" stroke="#63b8ff" d="M102.5,-44.75C102.5,-35.72 102.5,-26.03 102.5,-19.27"/>
<polygon fill="#63b8ff" stroke="#63b8ff" points="99,-44.84 102.5,-54.84 106,-44.84 99,-44.84"/>
</a>
</g>
</g>
<!-- Node3 -->
<g id="Node000003" class="node">
<title>Node3</title>
<g id="a_Node000003"><a xlink:href="class_p4_1_1_transform.html" target="_top" xlink:title=" ">
<polygon fill="white" stroke="#bfbfbf" points="83,-140 0,-140 0,-121 83,-121 83,-140"/>
<text text-anchor="middle" x="41.5" y="-128" font-family="Helvetica,sans-Serif" font-size="10.00">P4::Transform</text>
</a>
</g>
</g>
<!-- Node3&#45;&gt;Node2 -->
<g id="edge2_Node000002_Node000003" class="edge">
<title>Node3&#45;&gt;Node2</title>
<g id="a_edge2_Node000002_Node000003"><a xlink:title=" ">
<path fill="none" stroke="#63b8ff" d="M57.98,-113.7C67.27,-104.78 78.79,-93.74 87.78,-85.11"/>
<polygon fill="#63b8ff" stroke="#63b8ff" points="55.3,-111.42 50.5,-120.87 60.14,-116.47 55.3,-111.42"/>
</a>
</g>
</g>
<!-- Node4 -->
<g id="Node000004" class="node">
<title>Node4</title>
<g id="a_Node000004"><a xlink:href="class_p4_1_1_visitor.html" target="_top" xlink:title=" ">
<polygon fill="white" stroke="#bfbfbf" points="78.5,-195 12.5,-195 12.5,-176 78.5,-176 78.5,-195"/>
<text text-anchor="middle" x="45.5" y="-183" font-family="Helvetica,sans-Serif" font-size="10.00">P4::Visitor</text>
</a>
</g>
</g>
<!-- Node4&#45;&gt;Node3 -->
<g id="edge3_Node000003_Node000004" class="edge">
<title>Node4&#45;&gt;Node3</title>
<g id="a_edge3_Node000003_Node000004"><a xlink:title=" ">
<path fill="none" stroke="#63b8ff" d="M44.08,-165.66C43.42,-156.93 42.67,-146.99 42.15,-140.09"/>
<polygon fill="#63b8ff" stroke="#63b8ff" points="40.6,-166.04 44.84,-175.75 47.58,-165.51 40.6,-166.04"/>
</a>
</g>
</g>
<!-- Node5 -->
<g id="Node000005" class="node">
<title>Node5</title>
<g id="a_Node000005"><a xlink:href="class_p4_1_1_resolution_context.html" target="_top" xlink:title="Visitor mixin for looking up names in enclosing scopes from the Visitor::Context.">
<polygon fill="white" stroke="#666666" points="226,-140 101,-140 101,-121 226,-121 226,-140"/>
<text text-anchor="middle" x="163.5" y="-128" font-family="Helvetica,sans-Serif" font-size="10.00">P4::ResolutionContext</text>
</a>
</g>
</g>
<!-- Node4&#45;&gt;Node5 -->
<g id="edge5_Node000005_Node000004" class="edge">
<title>Node4&#45;&gt;Node5</title>
<g id="a_edge5_Node000005_Node000004"><a xlink:title=" ">
<path fill="none" stroke="#63b8ff" d="M73.85,-171.77C95.62,-161.99 125.09,-148.75 144.2,-140.17"/>
<polygon fill="#63b8ff" stroke="#63b8ff" points="72.15,-168.69 64.46,-175.98 75.01,-175.08 72.15,-168.69"/>
</a>
</g>
</g>
<!-- Node5&#45;&gt;Node2 -->
<g id="edge4_Node000002_Node000005" class="edge">
<title>Node5&#45;&gt;Node2</title>
<g id="a_edge4_Node000002_Node000005"><a xlink:title=" ">
<path fill="none" stroke="#63b8ff" d="M147.02,-113.7C137.73,-104.78 126.21,-93.74 117.22,-85.11"/>
<polygon fill="#63b8ff" stroke="#63b8ff" points="144.86,-116.47 154.5,-120.87 149.7,-111.42 144.86,-116.47"/>
</a>
</g>
</g>
<!-- Node6 -->
<g id="Node000006" class="node">
<title>Node6</title>
<g id="a_Node000006"><a xlink:href="class_p4_1_1_declaration_lookup.html" target="_top" xlink:title=" ">
<polygon fill="white" stroke="#bfbfbf" points="226,-195 101,-195 101,-176 226,-176 226,-195"/>
<text text-anchor="middle" x="163.5" y="-183" font-family="Helvetica,sans-Serif" font-size="10.00">P4::DeclarationLookup</text>
</a>
</g>
</g>
<!-- Node6&#45;&gt;Node5 -->
<g id="edge6_Node000005_Node000006" class="edge">
<title>Node6&#45;&gt;Node5</title>
<g id="a_edge6_Node000005_Node000006"><a xlink:title=" ">
<path fill="none" stroke="#63b8ff" d="M163.5,-165.66C163.5,-156.93 163.5,-146.99 163.5,-140.09"/>
<polygon fill="#63b8ff" stroke="#63b8ff" points="160,-165.75 163.5,-175.75 167,-165.75 160,-165.75"/>
</a>
</g>
</g>
</g>
</svg>
