<?xml version="1.0" encoding="UTF-8" standalone="no"?>
<!DOCTYPE svg PUBLIC "-//W3C//DTD SVG 1.1//EN"
 "http://www.w3.org/Graphics/SVG/1.1/DTD/svg11.dtd">
<!-- Generated by graphviz version 2.43.0 (0)
 -->
<!-- Title: P4::DeclarationLookup Pages: 1 -->
<!--zoomable 1609 -->

<svg id="main" version="1.1" xmlns="http://www.w3.org/2000/svg" xmlns:xlink="http://www.w3.org/1999/xlink" xml:space="preserve" onload="init(evt)">

<style type="text/css"><![CDATA[
.node, .edge {opacity: 0.7;}
.node.selected, .edge.selected {opacity: 1;}
.edge:hover path { stroke: red; }
.edge:hover polygon { stroke: red; fill: red; }
]]></style>

<defs>
  <circle id="rim" cx="0" cy="0" r="7"/>
  <circle id="rim2" cx="0" cy="0" r="3.5"/>
  <g id="zoomPlus">
    <use xlink:href="#rim" fill="#404040"><set attributeName="fill" to="#808080" begin="zoomplus.mouseover" end="zoomplus.mouseout"/></use>
    <path d="M-4,0h8M0,-4v8" fill="none" stroke="white" stroke-width="1.5" pointer-events="none"/>
  </g>
  <g id="zoomMin">
    <use xlink:href="#rim" fill="#404040"><set attributeName="fill" to="#808080" begin="zoomminus.mouseover" end="zoomminus.mouseout"/></use>
    <path d="M-4,0h8" fill="none" stroke="white" stroke-width="1.5" pointer-events="none"/>
  </g>
  <g id="arrowUp" transform="translate(30 24)">
    <use xlink:href="#rim"/>
    <path pointer-events="none" fill="none" stroke="white" stroke-width="1.5" d="M0,-3.0v7 M-2.5,-0.5L0,-3.0L2.5,-0.5"/>
  </g>
  <g id="arrowRight" transform="rotate(90) translate(36 -43)">
    <use xlink:href="#rim"/>
    <path pointer-events="none" fill="none" stroke="white" stroke-width="1.5" d="M0,-3.0v7 M-2.5,-0.5L0,-3.0L2.5,-0.5"/>
  </g>
  <g id="arrowDown" transform="rotate(180) translate(-30 -48)">
    <use xlink:href="#rim"/>
    <path pointer-events="none" fill="none" stroke="white" stroke-width="1.5" d="M0,-3.0v7 M-2.5,-0.5L0,-3.0L2.5,-0.5"/>
  </g>
  <g id="arrowLeft" transform="rotate(270) translate(-36 17)">
    <use xlink:href="#rim"/>
    <path pointer-events="none" fill="none" stroke="white" stroke-width="1.5" d="M0,-3.0v7 M-2.5,-0.5L0,-3.0L2.5,-0.5"/>
  </g>
  <g id="resetDef">
    <use xlink:href="#rim2" fill="#404040"><set attributeName="fill" to="#808080" begin="reset.mouseover" end="reset.mouseout"/></use>
  </g>
</defs>
<script type="application/ecmascript">
var viewWidth = 711;
var viewHeight = 1609;
var sectionId = 'dynsection-0';
</script>
<script type="application/ecmascript" xlink:href="svg.min.js"/>
<svg id="graph" class="graph">
<g id="viewport">
<title>P4::DeclarationLookup</title>
<!-- Node1 -->
<g id="Node000001" class="node">
<title>Node1</title>
<g id="a_Node000001"><a xlink:title=" ">
<polygon fill="#999999" stroke="#666666" points="125,-777 0,-777 0,-758 125,-758 125,-777"/>
<text text-anchor="middle" x="62.5" y="-765" font-family="Helvetica,sans-Serif" font-size="10.00">P4::DeclarationLookup</text>
</a>
</g>
</g>
<!-- Node2 -->
<g id="Node000002" class="node">
<title>Node2</title>
<g id="a_Node000002"><a xlink:href="class_p4_1_1_reference_map.html" target="_top" xlink:title="Class used to encode maps from paths to declarations.">
<polygon fill="white" stroke="#666666" points="276,-796 171,-796 171,-777 276,-777 276,-796"/>
<text text-anchor="middle" x="223.5" y="-784" font-family="Helvetica,sans-Serif" font-size="10.00">P4::ReferenceMap</text>
</a>
</g>
</g>
<!-- Node1&#45;&gt;Node2 -->
<g id="edge1_Node000001_Node000002" class="edge">
<title>Node1&#45;&gt;Node2</title>
<g id="a_edge1_Node000001_Node000002"><a xlink:title=" ">
<path fill="none" stroke="#63b8ff" d="M135.37,-776.09C147.31,-777.51 159.47,-778.97 170.77,-780.32"/>
<polygon fill="#63b8ff" stroke="#63b8ff" points="135.77,-772.61 125.43,-774.9 134.94,-779.56 135.77,-772.61"/>
</a>
</g>
</g>
<!-- Node3 -->
<g id="Node000003" class="node">
<title>Node3</title>
<g id="a_Node000003"><a xlink:href="class_p4_1_1_resolution_context.html" target="_top" xlink:title="Visitor mixin for looking up names in enclosing scopes from the Visitor::Context.">
<polygon fill="white" stroke="#666666" points="286,-759 161,-759 161,-740 286,-740 286,-759"/>
<text text-anchor="middle" x="223.5" y="-747" font-family="Helvetica,sans-Serif" font-size="10.00">P4::ResolutionContext</text>
</a>
</g>
</g>
<!-- Node1&#45;&gt;Node3 -->
<g id="edge2_Node000001_Node000003" class="edge">
<title>Node1&#45;&gt;Node3</title>
<g id="a_edge2_Node000001_Node000003"><a xlink:title=" ">
<path fill="none" stroke="#63b8ff" d="M135.59,-759.34C143.99,-758.39 152.5,-757.42 160.74,-756.49"/>
<polygon fill="#63b8ff" stroke="#63b8ff" points="134.97,-755.89 125.43,-760.49 135.76,-762.84 134.97,-755.89"/>
</a>
</g>
</g>
<!-- Node4 -->
<g id="Node000004" class="node">
<title>Node4</title>
<g id="a_Node000004"><a xlink:href="class_p4_1_1_abstract_inliner.html" target="_top" xlink:title=" ">
<polygon fill="white" stroke="#bfbfbf" points="471.5,-1601 360.5,-1601 360.5,-1560 471.5,-1560 471.5,-1601"/>
<text text-anchor="start" x="368.5" y="-1589" font-family="Helvetica,sans-Serif" font-size="10.00">P4::AbstractInliner</text>
<text text-anchor="start" x="368.5" y="-1578" font-family="Helvetica,sans-Serif" font-size="10.00">&lt; ActionsInlineList,</text>
<text text-anchor="middle" x="416" y="-1567" font-family="Helvetica,sans-Serif" font-size="10.00"> AInlineWorkList &gt;</text>
</a>
</g>
</g>
<!-- Node3&#45;&gt;Node4 -->
<g id="edge3_Node000003_Node000004" class="edge">
<title>Node3&#45;&gt;Node4</title>
<g id="a_edge3_Node000003_Node000004"><a xlink:title=" ">
<path fill="none" stroke="#63b8ff" d="M282.96,-765.08C284.04,-766.15 285.06,-767.28 286,-768.5 392.6,-906.26 215.59,-1413.6 322,-1551.5 331.3,-1563.55 345.55,-1570.71 360.13,-1574.93"/>
<polygon fill="#63b8ff" stroke="#63b8ff" points="285.06,-762.28 274.98,-759.01 280.82,-767.85 285.06,-762.28"/>
</a>
</g>
</g>
<!-- Node6 -->
<g id="Node000006" class="node">
<title>Node6</title>
<g id="a_Node000006"><a xlink:href="class_p4_1_1_abstract_inliner.html" target="_top" xlink:title=" ">
<polygon fill="white" stroke="#bfbfbf" points="489,-1542 343,-1542 343,-1501 489,-1501 489,-1542"/>
<text text-anchor="start" x="351" y="-1530" font-family="Helvetica,sans-Serif" font-size="10.00">P4::AbstractInliner</text>
<text text-anchor="start" x="351" y="-1519" font-family="Helvetica,sans-Serif" font-size="10.00">&lt; FunctionsInlineList,</text>
<text text-anchor="middle" x="416" y="-1508" font-family="Helvetica,sans-Serif" font-size="10.00"> FunctionsInlineWorkList &gt;</text>
</a>
</g>
</g>
<!-- Node3&#45;&gt;Node6 -->
<g id="edge5_Node000003_Node000006" class="edge">
<title>Node3&#45;&gt;Node6</title>
<g id="a_edge5_Node000003_Node000006"><a xlink:title=" ">
<path fill="none" stroke="#63b8ff" d="M282.95,-765.08C284.04,-766.15 285.06,-767.29 286,-768.5 384.69,-895.54 224.1,-1363.85 322,-1491.5 327.47,-1498.63 334.66,-1504.1 342.63,-1508.28"/>
<polygon fill="#63b8ff" stroke="#63b8ff" points="285.05,-762.28 274.97,-759.02 280.82,-767.85 285.05,-762.28"/>
</a>
</g>
</g>
<!-- Node8 -->
<g id="Node000008" class="node">
<title>Node8</title>
<g id="a_Node000008"><a xlink:href="class_p4_1_1_abstract_inliner.html" target="_top" xlink:title=" ">
<polygon fill="white" stroke="#bfbfbf" points="498,-1482.5 334,-1482.5 334,-1452.5 498,-1452.5 498,-1482.5"/>
<text text-anchor="start" x="342" y="-1470.5" font-family="Helvetica,sans-Serif" font-size="10.00">P4::AbstractInliner</text>
<text text-anchor="middle" x="416" y="-1459.5" font-family="Helvetica,sans-Serif" font-size="10.00">&lt; InlineList, InlineSummary &gt;</text>
</a>
</g>
</g>
<!-- Node3&#45;&gt;Node8 -->
<g id="edge7_Node000003_Node000008" class="edge">
<title>Node3&#45;&gt;Node8</title>
<g id="a_edge7_Node000003_Node000008"><a xlink:title=" ">
<path fill="none" stroke="#63b8ff" d="M282.95,-765.09C284.03,-766.15 285.06,-767.29 286,-768.5 378.36,-886.96 226.88,-1327.24 322,-1443.5 325.38,-1447.63 329.37,-1451.1 333.76,-1454.02"/>
<polygon fill="#63b8ff" stroke="#63b8ff" points="285.04,-762.28 274.95,-759.03 280.81,-767.86 285.04,-762.28"/>
</a>
</g>
</g>
<!-- Node10 -->
<g id="Node000010" class="node">
<title>Node10</title>
<g id="a_Node000010"><a xlink:href="class_p4_1_1_abstract_inliner.html" target="_top" xlink:title=" ">
<polygon fill="white" stroke="#bfbfbf" points="490,-1434 342,-1434 342,-1393 490,-1393 490,-1434"/>
<text text-anchor="start" x="350" y="-1422" font-family="Helvetica,sans-Serif" font-size="10.00">P4::AbstractInliner</text>
<text text-anchor="start" x="350" y="-1411" font-family="Helvetica,sans-Serif" font-size="10.00">&lt; P4::InlineList, InlineWork</text>
<text text-anchor="middle" x="416" y="-1400" font-family="Helvetica,sans-Serif" font-size="10.00">List &gt;</text>
</a>
</g>
</g>
<!-- Node3&#45;&gt;Node10 -->
<g id="edge9_Node000003_Node000010" class="edge">
<title>Node3&#45;&gt;Node10</title>
<g id="a_edge9_Node000003_Node000010"><a xlink:title=" ">
<path fill="none" stroke="#63b8ff" d="M282.94,-765.09C284.03,-766.16 285.05,-767.29 286,-768.5 370.46,-876.25 238.21,-1275.23 322,-1383.5 327.3,-1390.34 334.17,-1395.65 341.79,-1399.76"/>
<polygon fill="#63b8ff" stroke="#63b8ff" points="285.02,-762.28 274.93,-759.05 280.81,-767.87 285.02,-762.28"/>
</a>
</g>
</g>
<!-- Node11 -->
<g id="Node000011" class="node">
<title>Node11</title>
<g id="a_Node000011"><a xlink:href="class_p4_1_1_abstract_inliner.html" target="_top" xlink:title=" ">
<polygon fill="white" stroke="#bfbfbf" points="495,-1374.5 337,-1374.5 337,-1344.5 495,-1344.5 495,-1374.5"/>
<text text-anchor="start" x="345" y="-1362.5" font-family="Helvetica,sans-Serif" font-size="10.00">P4::AbstractInliner</text>
<text text-anchor="middle" x="416" y="-1351.5" font-family="Helvetica,sans-Serif" font-size="10.00">&lt; InlineList, InlineWorkList &gt;</text>
</a>
</g>
</g>
<!-- Node3&#45;&gt;Node11 -->
<g id="edge10_Node000003_Node000011" class="edge">
<title>Node3&#45;&gt;Node11</title>
<g id="a_edge10_Node000003_Node000011"><a xlink:title=" ">
<path fill="none" stroke="#63b8ff" d="M282.93,-765.1C284.02,-766.16 285.05,-767.29 286,-768.5 364.13,-867.67 241.55,-1238.19 322,-1335.5 326.14,-1340.51 331.18,-1344.55 336.75,-1347.81"/>
<polygon fill="#63b8ff" stroke="#63b8ff" points="285.01,-762.28 274.91,-759.06 280.8,-767.87 285.01,-762.28"/>
</a>
</g>
</g>
<!-- Node12 -->
<g id="Node000012" class="node">
<title>Node12</title>
<g id="a_Node000012"><a xlink:href="class_p4_1_1_compute_def_use.html" target="_top" xlink:title="Compute defuse info within P4Parser and P4Control blocks in the midend.">
<polygon fill="white" stroke="#666666" points="473.5,-1326 358.5,-1326 358.5,-1307 473.5,-1307 473.5,-1326"/>
<text text-anchor="middle" x="416" y="-1314" font-family="Helvetica,sans-Serif" font-size="10.00">P4::ComputeDefUse</text>
</a>
</g>
</g>
<!-- Node3&#45;&gt;Node12 -->
<g id="edge11_Node000003_Node000012" class="edge">
<title>Node3&#45;&gt;Node12</title>
<g id="a_edge11_Node000003_Node000012"><a xlink:title=" ">
<path fill="none" stroke="#63b8ff" d="M282.92,-765.1C284.02,-766.16 285.05,-767.3 286,-768.5 359.13,-860.89 244.43,-1208.81 322,-1297.5 331.22,-1308.04 344.57,-1313.68 358.29,-1316.51"/>
<polygon fill="#63b8ff" stroke="#63b8ff" points="284.99,-762.28 274.9,-759.08 280.79,-767.88 284.99,-762.28"/>
</a>
</g>
</g>
<!-- Node13 -->
<g id="Node000013" class="node">
<title>Node13</title>
<g id="a_Node000013"><a xlink:href="class_p4_1_1_compute_def_use_1_1_setup_join_points.html" target="_top" xlink:title=" ">
<polygon fill="white" stroke="#bfbfbf" points="476.5,-1288.5 355.5,-1288.5 355.5,-1258.5 476.5,-1258.5 476.5,-1288.5"/>
<text text-anchor="start" x="363.5" y="-1276.5" font-family="Helvetica,sans-Serif" font-size="10.00">P4::ComputeDefUse::</text>
<text text-anchor="middle" x="416" y="-1265.5" font-family="Helvetica,sans-Serif" font-size="10.00">SetupJoinPoints</text>
</a>
</g>
</g>
<!-- Node3&#45;&gt;Node13 -->
<g id="edge12_Node000003_Node000013" class="edge">
<title>Node3&#45;&gt;Node13</title>
<g id="a_edge12_Node000003_Node000013"><a xlink:title=" ">
<path fill="none" stroke="#63b8ff" d="M282.91,-765.11C284.01,-766.17 285.04,-767.3 286,-768.5 352.81,-852.32 253.24,-1167.28 322,-1249.5 330.45,-1259.61 342.54,-1265.76 355.22,-1269.44"/>
<polygon fill="#63b8ff" stroke="#63b8ff" points="284.97,-762.28 274.87,-759.1 280.78,-767.89 284.97,-762.28"/>
</a>
</g>
</g>
<!-- Node14 -->
<g id="Node000014" class="node">
<title>Node14</title>
<g id="a_Node000014"><a xlink:href="class_p4_1_1_constant_type_substitution.html" target="_top" xlink:title=" ">
<polygon fill="white" stroke="#bfbfbf" points="495.5,-1240 336.5,-1240 336.5,-1221 495.5,-1221 495.5,-1240"/>
<text text-anchor="middle" x="416" y="-1228" font-family="Helvetica,sans-Serif" font-size="10.00">P4::ConstantTypeSubstitution</text>
</a>
</g>
</g>
<!-- Node3&#45;&gt;Node14 -->
<g id="edge13_Node000003_Node000014" class="edge">
<title>Node3&#45;&gt;Node14</title>
<g id="a_edge13_Node000003_Node000014"><a xlink:title=" ">
<path fill="none" stroke="#8b1a1a" d="M282.9,-765.12C284,-766.18 285.04,-767.3 286,-768.5 347.94,-845.72 255.97,-1138.75 322,-1212.5 326.06,-1217.03 330.89,-1220.63 336.18,-1223.47"/>
<polygon fill="#8b1a1a" stroke="#8b1a1a" points="284.95,-762.28 274.84,-759.12 280.77,-767.9 284.95,-762.28"/>
</a>
</g>
</g>
<!-- Node15 -->
<g id="Node000015" class="node">
<title>Node15</title>
<g id="a_Node000015"><a xlink:href="class_p4_1_1_create_struct_initializers.html" target="_top" xlink:title="Converts some list expressions into struct initializers.">
<polygon fill="white" stroke="#666666" points="489,-1203 343,-1203 343,-1184 489,-1184 489,-1203"/>
<text text-anchor="middle" x="416" y="-1191" font-family="Helvetica,sans-Serif" font-size="10.00">P4::CreateStructInitializers</text>
</a>
</g>
</g>
<!-- Node3&#45;&gt;Node15 -->
<g id="edge14_Node000003_Node000015" class="edge">
<title>Node3&#45;&gt;Node15</title>
<g id="a_edge14_Node000003_Node000015"><a xlink:title=" ">
<path fill="none" stroke="#63b8ff" d="M282.89,-765.13C283.99,-766.18 285.03,-767.3 286,-768.5 343.07,-839.12 261.19,-1108.08 322,-1175.5 327.73,-1181.85 334.97,-1186.36 342.86,-1189.52"/>
<polygon fill="#63b8ff" stroke="#63b8ff" points="284.93,-762.29 274.82,-759.14 280.76,-767.91 284.93,-762.29"/>
</a>
</g>
</g>
<!-- Node16 -->
<g id="Node000016" class="node">
<title>Node16</title>
<g id="a_Node000016"><a xlink:href="class_p4_1_1_deprecated.html" target="_top" xlink:title=" ">
<polygon fill="white" stroke="#666666" points="461.5,-1166 370.5,-1166 370.5,-1147 461.5,-1147 461.5,-1166"/>
<text text-anchor="middle" x="416" y="-1154" font-family="Helvetica,sans-Serif" font-size="10.00">P4::Deprecated</text>
</a>
</g>
</g>
<!-- Node3&#45;&gt;Node16 -->
<g id="edge15_Node000003_Node000016" class="edge">
<title>Node3&#45;&gt;Node16</title>
<g id="a_edge15_Node000003_Node000016"><a xlink:title=" ">
<path fill="none" stroke="#63b8ff" d="M282.8,-765.07C283.94,-766.14 285.01,-767.28 286,-768.5 338.21,-832.52 266.4,-1077.4 322,-1138.5 334.06,-1151.76 352.72,-1156.99 370.16,-1158.63"/>
<polygon fill="#63b8ff" stroke="#63b8ff" points="284.63,-762.07 274.49,-759 280.5,-767.73 284.63,-762.07"/>
</a>
</g>
</g>
<!-- Node17 -->
<g id="Node000017" class="node">
<title>Node17</title>
<g id="a_Node000017"><a xlink:href="class_p4_1_1_discover_actions_inlining.html" target="_top" xlink:title=" ">
<polygon fill="white" stroke="#bfbfbf" points="490.5,-1129 341.5,-1129 341.5,-1110 490.5,-1110 490.5,-1129"/>
<text text-anchor="middle" x="416" y="-1117" font-family="Helvetica,sans-Serif" font-size="10.00">P4::DiscoverActionsInlining</text>
</a>
</g>
</g>
<!-- Node3&#45;&gt;Node17 -->
<g id="edge16_Node000003_Node000017" class="edge">
<title>Node3&#45;&gt;Node17</title>
<g id="a_edge16_Node000003_Node000017"><a xlink:title=" ">
<path fill="none" stroke="#63b8ff" d="M282.79,-765.09C283.93,-766.15 285,-767.29 286,-768.5 380.69,-883.36 221.22,-991.94 322,-1101.5 327.34,-1107.31 333.95,-1111.57 341.17,-1114.67"/>
<polygon fill="#63b8ff" stroke="#63b8ff" points="284.6,-762.08 274.45,-759.04 280.49,-767.74 284.6,-762.08"/>
</a>
</g>
</g>
<!-- Node18 -->
<g id="Node000018" class="node">
<title>Node18</title>
<g id="a_Node000018"><a xlink:href="class_p4_1_1_discover_functions_inlining.html" target="_top" xlink:title=" ">
<polygon fill="white" stroke="#bfbfbf" points="496,-1092 336,-1092 336,-1073 496,-1073 496,-1092"/>
<text text-anchor="middle" x="416" y="-1080" font-family="Helvetica,sans-Serif" font-size="10.00">P4::DiscoverFunctionsInlining</text>
</a>
</g>
</g>
<!-- Node3&#45;&gt;Node18 -->
<g id="edge17_Node000003_Node000018" class="edge">
<title>Node3&#45;&gt;Node18</title>
<g id="a_edge17_Node000003_Node000018"><a xlink:title=" ">
<path fill="none" stroke="#63b8ff" d="M282.76,-765.1C283.91,-766.16 284.99,-767.29 286,-768.5 370.98,-870.19 231.63,-967.56 322,-1064.5 326.04,-1068.83 330.78,-1072.3 335.94,-1075.06"/>
<polygon fill="#63b8ff" stroke="#63b8ff" points="284.56,-762.08 274.4,-759.08 280.47,-767.76 284.56,-762.08"/>
</a>
</g>
</g>
<!-- Node19 -->
<g id="Node000019" class="node">
<title>Node19</title>
<g id="a_Node000019"><a xlink:href="class_p4_1_1_do_check_constants.html" target="_top" xlink:title=" ">
<polygon fill="white" stroke="#666666" points="479.5,-1055 352.5,-1055 352.5,-1036 479.5,-1036 479.5,-1055"/>
<text text-anchor="middle" x="416" y="-1043" font-family="Helvetica,sans-Serif" font-size="10.00">P4::DoCheckConstants</text>
</a>
</g>
</g>
<!-- Node3&#45;&gt;Node19 -->
<g id="edge18_Node000003_Node000019" class="edge">
<title>Node3&#45;&gt;Node19</title>
<g id="a_edge18_Node000003_Node000019"><a xlink:title=" ">
<path fill="none" stroke="#63b8ff" d="M282.74,-765.13C283.89,-766.18 284.98,-767.3 286,-768.5 361.28,-857.04 242.03,-943.17 322,-1027.5 330.03,-1035.97 340.77,-1041.13 352.08,-1044.16"/>
<polygon fill="#63b8ff" stroke="#63b8ff" points="284.5,-762.09 274.33,-759.14 280.44,-767.79 284.5,-762.09"/>
</a>
</g>
</g>
<!-- Node20 -->
<g id="Node000020" class="node">
<title>Node20</title>
<g id="a_Node000020"><a xlink:href="class_p4_1_1_do_check_core_methods.html" target="_top" xlink:title="Check types for arguments of core.p4 methods.">
<polygon fill="white" stroke="#666666" points="487.5,-1018 344.5,-1018 344.5,-999 487.5,-999 487.5,-1018"/>
<text text-anchor="middle" x="416" y="-1006" font-family="Helvetica,sans-Serif" font-size="10.00">P4::DoCheckCoreMethods</text>
</a>
</g>
</g>
<!-- Node3&#45;&gt;Node20 -->
<g id="edge19_Node000003_Node000020" class="edge">
<title>Node3&#45;&gt;Node20</title>
<g id="a_edge19_Node000003_Node000020"><a xlink:title=" ">
<path fill="none" stroke="#63b8ff" d="M282.26,-764.77C283.59,-765.93 284.84,-767.17 286,-768.5 351.6,-843.91 252.4,-918.75 322,-990.5 328.18,-996.87 335.9,-1001.36 344.22,-1004.47"/>
<polygon fill="#63b8ff" stroke="#63b8ff" points="284.17,-761.83 273.95,-759.05 280.2,-767.6 284.17,-761.83"/>
</a>
</g>
</g>
<!-- Node21 -->
<g id="Node000021" class="node">
<title>Node21</title>
<g id="a_Node000021"><a xlink:href="class_p4_1_1_do_constant_folding.html" target="_top" xlink:title="statically evaluates many constant expressions.">
<polygon fill="white" stroke="#666666" points="479.5,-981 352.5,-981 352.5,-962 479.5,-962 479.5,-981"/>
<text text-anchor="middle" x="416" y="-969" font-family="Helvetica,sans-Serif" font-size="10.00">P4::DoConstantFolding</text>
</a>
</g>
</g>
<!-- Node3&#45;&gt;Node21 -->
<g id="edge20_Node000003_Node000021" class="edge">
<title>Node3&#45;&gt;Node21</title>
<g id="a_edge20_Node000003_Node000021"><a xlink:title=" ">
<path fill="none" stroke="#63b8ff" d="M282.21,-764.82C283.55,-765.96 284.82,-767.19 286,-768.5 341.96,-830.83 262.74,-894.3 322,-953.5 330.26,-961.75 341.09,-966.81 352.43,-969.81"/>
<polygon fill="#63b8ff" stroke="#63b8ff" points="284.07,-761.85 273.82,-759.16 280.15,-767.66 284.07,-761.85"/>
</a>
</g>
</g>
<!-- Node22 -->
<g id="Node000022" class="node">
<title>Node22</title>
<g id="a_Node000022"><a xlink:href="class_p4_1_1_do_default_arguments.html" target="_top" xlink:title=" ">
<polygon fill="white" stroke="#666666" points="484.5,-944 347.5,-944 347.5,-925 484.5,-925 484.5,-944"/>
<text text-anchor="middle" x="416" y="-932" font-family="Helvetica,sans-Serif" font-size="10.00">P4::DoDefaultArguments</text>
</a>
</g>
</g>
<!-- Node3&#45;&gt;Node22 -->
<g id="edge21_Node000003_Node000022" class="edge">
<title>Node3&#45;&gt;Node22</title>
<g id="a_edge21_Node000003_Node000022"><a xlink:title=" ">
<path fill="none" stroke="#63b8ff" d="M281.56,-764.43C283.13,-765.68 284.62,-767.03 286,-768.5 332.39,-817.81 273.01,-869.78 322,-916.5 329.14,-923.31 338.04,-927.92 347.49,-930.98"/>
<polygon fill="#63b8ff" stroke="#63b8ff" points="283.36,-761.43 273.05,-759.01 279.6,-767.33 283.36,-761.43"/>
</a>
</g>
</g>
<!-- Node23 -->
<g id="Node000023" class="node">
<title>Node23</title>
<g id="a_Node000023"><a xlink:href="class_p4_1_1_do_remove_exits.html" target="_top" xlink:title=" ">
<polygon fill="white" stroke="#666666" points="472.5,-907 359.5,-907 359.5,-888 472.5,-888 472.5,-907"/>
<text text-anchor="middle" x="416" y="-895" font-family="Helvetica,sans-Serif" font-size="10.00">P4::DoRemoveExits</text>
</a>
</g>
</g>
<!-- Node3&#45;&gt;Node23 -->
<g id="edge22_Node000003_Node000023" class="edge">
<title>Node3&#45;&gt;Node23</title>
<g id="a_edge22_Node000003_Node000023"><a xlink:title=" ">
<path fill="none" stroke="#63b8ff" d="M281.32,-764.49C282.97,-765.73 284.54,-767.06 286,-768.5 322.93,-804.92 283.15,-845.14 322,-879.5 332.35,-888.65 345.92,-893.74 359.48,-896.44"/>
<polygon fill="#63b8ff" stroke="#63b8ff" points="282.82,-761.32 272.46,-759.14 279.2,-767.31 282.82,-761.32"/>
</a>
</g>
</g>
<!-- Node24 -->
<g id="Node000024" class="node">
<title>Node24</title>
<g id="a_Node000024"><a xlink:href="class_p4_1_1_do_simplify_control_flow.html" target="_top" xlink:title="Replace complex control flow nodes with simpler ones where possible.">
<polygon fill="white" stroke="#666666" points="489,-870 343,-870 343,-851 489,-851 489,-870"/>
<text text-anchor="middle" x="416" y="-858" font-family="Helvetica,sans-Serif" font-size="10.00">P4::DoSimplifyControlFlow</text>
</a>
</g>
</g>
<!-- Node3&#45;&gt;Node24 -->
<g id="edge23_Node000003_Node000024" class="edge">
<title>Node3&#45;&gt;Node24</title>
<g id="a_edge23_Node000003_Node000024"><a xlink:title=" ">
<path fill="none" stroke="#63b8ff" d="M279.7,-763.88C281.92,-765.28 284.03,-766.81 286,-768.5 313.76,-792.31 292.99,-820.23 322,-842.5 328.26,-847.31 335.45,-850.94 342.98,-853.68"/>
<polygon fill="#63b8ff" stroke="#63b8ff" points="281.18,-760.7 270.7,-759.12 277.91,-766.89 281.18,-760.7"/>
</a>
</g>
</g>
<!-- Node25 -->
<g id="Node000025" class="node">
<title>Node25</title>
<g id="a_Node000025"><a xlink:href="class_p4_1_1_do_simplify_expressions.html" target="_top" xlink:title="Convert expressions so that each expression contains at most one side effect.">
<polygon fill="white" stroke="#666666" points="489,-833 343,-833 343,-814 489,-814 489,-833"/>
<text text-anchor="middle" x="416" y="-821" font-family="Helvetica,sans-Serif" font-size="10.00">P4::DoSimplifyExpressions</text>
</a>
</g>
</g>
<!-- Node3&#45;&gt;Node25 -->
<g id="edge24_Node000003_Node000025" class="edge">
<title>Node3&#45;&gt;Node25</title>
<g id="a_edge24_Node000003_Node000025"><a xlink:title=" ">
<path fill="none" stroke="#63b8ff" d="M275.24,-762.89C278.98,-764.56 282.61,-766.43 286,-768.5 305.57,-780.48 301.81,-794.6 322,-805.5 328.51,-809.02 335.61,-811.85 342.88,-814.14"/>
<polygon fill="#63b8ff" stroke="#63b8ff" points="276.36,-759.57 265.77,-759.11 273.76,-766.07 276.36,-759.57"/>
</a>
</g>
</g>
<!-- Node26 -->
<g id="Node000026" class="node">
<title>Node26</title>
<g id="a_Node000026"><a xlink:href="class_p4_1_1_do_static_assert.html" target="_top" xlink:title=" ">
<polygon fill="white" stroke="#666666" points="469.5,-796 362.5,-796 362.5,-777 469.5,-777 469.5,-796"/>
<text text-anchor="middle" x="416" y="-784" font-family="Helvetica,sans-Serif" font-size="10.00">P4::DoStaticAssert</text>
</a>
</g>
</g>
<!-- Node3&#45;&gt;Node26 -->
<g id="edge25_Node000003_Node000026" class="edge">
<title>Node3&#45;&gt;Node26</title>
<g id="a_edge25_Node000003_Node000026"><a xlink:title=" ">
<path fill="none" stroke="#63b8ff" d="M283.59,-761.03C296.26,-763.5 309.58,-766.09 322,-768.5 336.21,-771.26 351.64,-774.25 365.77,-776.98"/>
<polygon fill="#63b8ff" stroke="#63b8ff" points="284.08,-757.56 273.6,-759.08 282.74,-764.43 284.08,-757.56"/>
</a>
</g>
</g>
<!-- Node27 -->
<g id="Node000027" class="node">
<title>Node27</title>
<g id="a_Node000027"><a xlink:href="class_p4_1_1_dontcare_args.html" target="_top" xlink:title=" ">
<polygon fill="white" stroke="#666666" points="466.5,-759 365.5,-759 365.5,-740 466.5,-740 466.5,-759"/>
<text text-anchor="middle" x="416" y="-747" font-family="Helvetica,sans-Serif" font-size="10.00">P4::DontcareArgs</text>
</a>
</g>
</g>
<!-- Node3&#45;&gt;Node27 -->
<g id="edge26_Node000003_Node000027" class="edge">
<title>Node3&#45;&gt;Node27</title>
<g id="a_edge26_Node000003_Node000027"><a xlink:title=" ">
<path fill="none" stroke="#63b8ff" d="M296.18,-749.5C319.23,-749.5 344.26,-749.5 365.37,-749.5"/>
<polygon fill="#63b8ff" stroke="#63b8ff" points="296.09,-746 286.09,-749.5 296.09,-753 296.09,-746"/>
</a>
</g>
</g>
<!-- Node28 -->
<g id="Node000028" class="node">
<title>Node28</title>
<g id="a_Node000028"><a xlink:href="class_p4_1_1_entry_priorities.html" target="_top" xlink:title="Assigns priorities to table entries if they are not &#39;const&#39;.">
<polygon fill="white" stroke="#666666" points="468,-722 364,-722 364,-703 468,-703 468,-722"/>
<text text-anchor="middle" x="416" y="-710" font-family="Helvetica,sans-Serif" font-size="10.00">P4::EntryPriorities</text>
</a>
</g>
</g>
<!-- Node3&#45;&gt;Node28 -->
<g id="edge27_Node000003_Node000028" class="edge">
<title>Node3&#45;&gt;Node28</title>
<g id="a_edge27_Node000003_Node000028"><a xlink:title=" ">
<path fill="none" stroke="#63b8ff" d="M283.44,-738.05C309.85,-732.92 340.63,-726.94 365.78,-722.06"/>
<polygon fill="#63b8ff" stroke="#63b8ff" points="282.71,-734.63 273.56,-739.97 284.04,-741.5 282.71,-734.63"/>
</a>
</g>
</g>
<!-- Node29 -->
<g id="Node000029" class="node">
<title>Node29</title>
<g id="a_Node000029"><a xlink:href="class_p4_1_1_find_action_parameters.html" target="_top" xlink:title=" ">
<polygon fill="white" stroke="#bfbfbf" points="486.5,-685 345.5,-685 345.5,-666 486.5,-666 486.5,-685"/>
<text text-anchor="middle" x="416" y="-673" font-family="Helvetica,sans-Serif" font-size="10.00">P4::FindActionParameters</text>
</a>
</g>
</g>
<!-- Node3&#45;&gt;Node29 -->
<g id="edge28_Node000003_Node000029" class="edge">
<title>Node3&#45;&gt;Node29</title>
<g id="a_edge28_Node000003_Node000029"><a xlink:title=" ">
<path fill="none" stroke="#63b8ff" d="M246.94,-734.15C266.09,-721.73 294.78,-704.67 322,-694.5 332.19,-690.69 343.3,-687.59 354.19,-685.07"/>
<polygon fill="#63b8ff" stroke="#63b8ff" points="244.76,-731.39 238.35,-739.83 248.62,-737.23 244.76,-731.39"/>
</a>
</g>
</g>
<!-- Node30 -->
<g id="Node000030" class="node">
<title>Node30</title>
<g id="a_Node000030"><a xlink:href="class_p4_1_1_find_function_specializations.html" target="_top" xlink:title=" ">
<polygon fill="white" stroke="#666666" points="501,-648 331,-648 331,-629 501,-629 501,-648"/>
<text text-anchor="middle" x="416" y="-636" font-family="Helvetica,sans-Serif" font-size="10.00">P4::FindFunctionSpecializations</text>
</a>
</g>
</g>
<!-- Node3&#45;&gt;Node30 -->
<g id="edge29_Node000003_Node000030" class="edge">
<title>Node3&#45;&gt;Node30</title>
<g id="a_edge29_Node000003_Node000030"><a xlink:title=" ">
<path fill="none" stroke="#63b8ff" d="M237.81,-732.02C254.9,-710.89 286.6,-675.88 322,-657.5 329.46,-653.63 337.64,-650.54 345.95,-648.09"/>
<polygon fill="#63b8ff" stroke="#63b8ff" points="235.05,-729.86 231.61,-739.88 240.55,-734.2 235.05,-729.86"/>
</a>
</g>
</g>
<!-- Node31 -->
<g id="Node000031" class="node">
<title>Node31</title>
<g id="a_Node000031"><a xlink:href="class_p4_1_1_find_global_action_uses.html" target="_top" xlink:title=" ">
<polygon fill="white" stroke="#bfbfbf" points="486.5,-611 345.5,-611 345.5,-592 486.5,-592 486.5,-611"/>
<text text-anchor="middle" x="416" y="-599" font-family="Helvetica,sans-Serif" font-size="10.00">P4::FindGlobalActionUses</text>
</a>
</g>
</g>
<!-- Node3&#45;&gt;Node31 -->
<g id="edge30_Node000003_Node000031" class="edge">
<title>Node3&#45;&gt;Node31</title>
<g id="a_edge30_Node000003_Node000031"><a xlink:title=" ">
<path fill="none" stroke="#63b8ff" d="M233.26,-730.5C247.54,-701.8 278.64,-647.84 322,-620.5 329.11,-616.02 337.08,-612.57 345.28,-609.91"/>
<polygon fill="#63b8ff" stroke="#63b8ff" points="229.95,-729.31 228.77,-739.84 236.26,-732.34 229.95,-729.31"/>
</a>
</g>
</g>
<!-- Node32 -->
<g id="Node000032" class="node">
<title>Node32</title>
<g id="a_Node000032"><a xlink:href="class_p4_1_1_find_repeated_action_uses.html" target="_top" xlink:title=" ">
<polygon fill="white" stroke="#bfbfbf" points="494,-574 338,-574 338,-555 494,-555 494,-574"/>
<text text-anchor="middle" x="416" y="-562" font-family="Helvetica,sans-Serif" font-size="10.00">P4::FindRepeatedActionUses</text>
</a>
</g>
</g>
<!-- Node3&#45;&gt;Node32 -->
<g id="edge31_Node000003_Node000032" class="edge">
<title>Node3&#45;&gt;Node32</title>
<g id="a_edge31_Node000003_Node000032"><a xlink:title=" ">
<path fill="none" stroke="#63b8ff" d="M230.08,-730.13C241.29,-694.93 270.01,-620.67 322,-583.5 327.36,-579.67 333.32,-576.57 339.55,-574.07"/>
<polygon fill="#63b8ff" stroke="#63b8ff" points="226.73,-729.13 227.16,-739.72 233.42,-731.17 226.73,-729.13"/>
</a>
</g>
</g>
<!-- Node33 -->
<g id="Node000033" class="node">
<title>Node33</title>
<g id="a_Node000033"><a xlink:href="class_p4_1_1_find_specializations.html" target="_top" xlink:title=" ">
<polygon fill="white" stroke="#666666" points="480,-537 352,-537 352,-518 480,-518 480,-537"/>
<text text-anchor="middle" x="416" y="-525" font-family="Helvetica,sans-Serif" font-size="10.00">P4::FindSpecializations</text>
</a>
</g>
</g>
<!-- Node3&#45;&gt;Node33 -->
<g id="edge32_Node000003_Node000033" class="edge">
<title>Node3&#45;&gt;Node33</title>
<g id="a_edge32_Node000003_Node000033"><a xlink:title=" ">
<path fill="none" stroke="#63b8ff" d="M227.92,-729.94C236.16,-688.96 261.13,-593.97 322,-546.5 330.58,-539.81 340.91,-535.31 351.53,-532.31"/>
<polygon fill="#63b8ff" stroke="#63b8ff" points="224.44,-729.51 226.02,-739.98 231.31,-730.81 224.44,-729.51"/>
</a>
</g>
</g>
<!-- Node34 -->
<g id="Node000034" class="node">
<title>Node34</title>
<g id="a_Node000034"><a xlink:href="class_p4_1_1_has_table_apply.html" target="_top" xlink:title="Checks to see whether an IR node includes a table.apply() sub&#45;expression.">
<polygon fill="white" stroke="#666666" points="469.5,-500 362.5,-500 362.5,-481 469.5,-481 469.5,-500"/>
<text text-anchor="middle" x="416" y="-488" font-family="Helvetica,sans-Serif" font-size="10.00">P4::HasTableApply</text>
</a>
</g>
</g>
<!-- Node3&#45;&gt;Node34 -->
<g id="edge33_Node000003_Node000034" class="edge">
<title>Node3&#45;&gt;Node34</title>
<g id="a_edge33_Node000003_Node000034"><a xlink:title=" ">
<path fill="none" stroke="#63b8ff" d="M226.37,-729.64C231.84,-683.29 252.16,-567.52 322,-509.5 333.28,-500.13 347.96,-494.98 362.31,-492.24"/>
<polygon fill="#63b8ff" stroke="#63b8ff" points="222.86,-729.54 225.27,-739.85 229.82,-730.28 222.86,-729.54"/>
</a>
</g>
</g>
<!-- Node35 -->
<g id="Node000035" class="node">
<title>Node35</title>
<g id="a_Node000035"><a xlink:href="class_p4_1_1_instantiate_direct_calls.html" target="_top" xlink:title=" ">
<polygon fill="white" stroke="#bfbfbf" points="486,-463 346,-463 346,-444 486,-444 486,-463"/>
<text text-anchor="middle" x="416" y="-451" font-family="Helvetica,sans-Serif" font-size="10.00">P4::InstantiateDirectCalls</text>
</a>
</g>
</g>
<!-- Node3&#45;&gt;Node35 -->
<g id="edge34_Node000003_Node000035" class="edge">
<title>Node3&#45;&gt;Node35</title>
<g id="a_edge34_Node000003_Node000035"><a xlink:title=" ">
<path fill="none" stroke="#63b8ff" d="M225.15,-729.77C227.95,-678.72 242.86,-541.48 322,-472.5 328.83,-466.54 337.02,-462.27 345.67,-459.23"/>
<polygon fill="#63b8ff" stroke="#63b8ff" points="221.65,-729.66 224.7,-739.81 228.64,-729.97 221.65,-729.66"/>
</a>
</g>
</g>
<!-- Node36 -->
<g id="Node000036" class="node">
<title>Node36</title>
<g id="a_Node000036"><a xlink:href="class_p4_1_1_key_side_effect.html" target="_top" xlink:title=" ">
<polygon fill="white" stroke="#666666" points="466.5,-426 365.5,-426 365.5,-407 466.5,-407 466.5,-426"/>
<text text-anchor="middle" x="416" y="-414" font-family="Helvetica,sans-Serif" font-size="10.00">P4::KeySideEffect</text>
</a>
</g>
</g>
<!-- Node3&#45;&gt;Node36 -->
<g id="edge35_Node000003_Node000036" class="edge">
<title>Node3&#45;&gt;Node36</title>
<g id="a_edge35_Node000003_Node000036"><a xlink:title=" ">
<path fill="none" stroke="#63b8ff" d="M224.21,-729.46C224.57,-673.66 233.69,-515.43 322,-435.5 333.73,-424.88 349.74,-419.56 365.17,-417.05"/>
<polygon fill="#63b8ff" stroke="#63b8ff" points="220.71,-729.75 224.24,-739.74 227.71,-729.73 220.71,-729.75"/>
</a>
</g>
</g>
<!-- Node38 -->
<g id="Node000038" class="node">
<title>Node38</title>
<g id="a_Node000038"><a xlink:href="class_p4_1_1_localize_actions.html" target="_top" xlink:title=" ">
<polygon fill="white" stroke="#bfbfbf" points="471,-389 361,-389 361,-370 471,-370 471,-389"/>
<text text-anchor="middle" x="416" y="-377" font-family="Helvetica,sans-Serif" font-size="10.00">P4::LocalizeActions</text>
</a>
</g>
</g>
<!-- Node3&#45;&gt;Node38 -->
<g id="edge37_Node000003_Node000038" class="edge">
<title>Node3&#45;&gt;Node38</title>
<g id="a_edge37_Node000003_Node000038"><a xlink:title=" ">
<path fill="none" stroke="#63b8ff" d="M227.24,-729.89C236.98,-662.95 272.05,-445.09 322,-398.5 332.48,-388.72 346.58,-383.39 360.63,-380.62"/>
<polygon fill="#63b8ff" stroke="#63b8ff" points="223.75,-729.53 225.8,-739.93 230.68,-730.52 223.75,-729.53"/>
</a>
</g>
</g>
<!-- Node39 -->
<g id="Node000039" class="node">
<title>Node39</title>
<g id="a_Node000039"><a xlink:href="class_p4_1_1_move_initializers.html" target="_top" xlink:title=" ">
<polygon fill="white" stroke="#666666" points="472.5,-352 359.5,-352 359.5,-333 472.5,-333 472.5,-352"/>
<text text-anchor="middle" x="416" y="-340" font-family="Helvetica,sans-Serif" font-size="10.00">P4::MoveInitializers</text>
</a>
</g>
</g>
<!-- Node3&#45;&gt;Node39 -->
<g id="edge38_Node000003_Node000039" class="edge">
<title>Node3&#45;&gt;Node39</title>
<g id="a_edge38_Node000003_Node000039"><a xlink:title=" ">
<path fill="none" stroke="#63b8ff" d="M226.71,-729.7C235.1,-658.05 267.32,-413.79 322,-361.5 332,-351.93 345.46,-346.6 359.02,-343.75"/>
<polygon fill="#63b8ff" stroke="#63b8ff" points="223.23,-729.33 225.57,-739.66 230.18,-730.12 223.23,-729.33"/>
</a>
</g>
</g>
<!-- Node40 -->
<g id="Node000040" class="node">
<title>Node40</title>
<g id="a_Node000040"><a xlink:href="class_p4_1_1_p4_fmt_1_1_p4_formatter.html" target="_top" xlink:title=" ">
<polygon fill="white" stroke="#666666" points="482,-315 350,-315 350,-296 482,-296 482,-315"/>
<text text-anchor="middle" x="416" y="-303" font-family="Helvetica,sans-Serif" font-size="10.00">P4::P4Fmt::P4Formatter</text>
</a>
</g>
</g>
<!-- Node3&#45;&gt;Node40 -->
<g id="edge39_Node000003_Node000040" class="edge">
<title>Node3&#45;&gt;Node40</title>
<g id="a_edge39_Node000003_Node000040"><a xlink:title=" ">
<path fill="none" stroke="#8b1a1a" d="M226.23,-729.81C233.31,-654.04 262.49,-382.6 322,-324.5 329.66,-317.02 339.43,-312.11 349.74,-308.95"/>
<polygon fill="#8b1a1a" stroke="#8b1a1a" points="222.74,-729.6 225.32,-739.88 229.71,-730.24 222.74,-729.6"/>
</a>
</g>
</g>
<!-- Node41 -->
<g id="Node000041" class="node">
<title>Node41</title>
<g id="a_Node000041"><a xlink:href="class_p4_1_1_p4_tools_1_1_p4_program_d_c_g_creator.html" target="_top" xlink:title="The main class for building control flow DCG.">
<polygon fill="white" stroke="#666666" points="510,-278 322,-278 322,-259 510,-259 510,-278"/>
<text text-anchor="middle" x="416" y="-266" font-family="Helvetica,sans-Serif" font-size="10.00">P4::P4Tools::P4ProgramDCGCreator</text>
</a>
</g>
</g>
<!-- Node3&#45;&gt;Node41 -->
<g id="edge40_Node000003_Node000041" class="edge">
<title>Node3&#45;&gt;Node41</title>
<g id="a_edge40_Node000003_Node000041"><a xlink:title=" ">
<path fill="none" stroke="#8b1a1a" d="M225.86,-729.67C231.74,-649.6 257.71,-351.38 322,-287.5 325.74,-283.78 330,-280.7 334.59,-278.15"/>
<polygon fill="#8b1a1a" stroke="#8b1a1a" points="222.35,-729.62 225.13,-739.85 229.33,-730.12 222.35,-729.62"/>
</a>
</g>
</g>
<!-- Node42 -->
<g id="Node000042" class="node">
<title>Node42</title>
<g id="a_Node000042"><a xlink:href="class_p4_1_1_reads_writes.html" target="_top" xlink:title="Computes the SetOfLocations read and written by an expression.">
<polygon fill="white" stroke="#666666" points="464,-241 368,-241 368,-222 464,-222 464,-241"/>
<text text-anchor="middle" x="416" y="-229" font-family="Helvetica,sans-Serif" font-size="10.00">P4::ReadsWrites</text>
</a>
</g>
</g>
<!-- Node3&#45;&gt;Node42 -->
<g id="edge41_Node000003_Node000042" class="edge">
<title>Node3&#45;&gt;Node42</title>
<g id="a_edge41_Node000003_Node000042"><a xlink:title=" ">
<path fill="none" stroke="#63b8ff" d="M225.52,-729.72C230.25,-645.8 252.85,-320.25 322,-250.5 333.95,-238.45 351.34,-233.02 367.86,-230.83"/>
<polygon fill="#63b8ff" stroke="#63b8ff" points="222.01,-729.73 224.97,-739.91 229,-730.11 222.01,-729.73"/>
</a>
</g>
</g>
<!-- Node43 -->
<g id="Node000043" class="node">
<title>Node43</title>
<g id="a_Node000043"><a xlink:href="class_p4_1_1_rename_symbols.html" target="_top" xlink:title=" ">
<polygon fill="white" stroke="#bfbfbf" points="474.5,-204 357.5,-204 357.5,-185 474.5,-185 474.5,-204"/>
<text text-anchor="middle" x="416" y="-192" font-family="Helvetica,sans-Serif" font-size="10.00">P4::RenameSymbols</text>
</a>
</g>
</g>
<!-- Node3&#45;&gt;Node43 -->
<g id="edge42_Node000003_Node000043" class="edge">
<title>Node3&#45;&gt;Node43</title>
<g id="a_edge42_Node000003_Node000043"><a xlink:title=" ">
<path fill="none" stroke="#63b8ff" d="M225.24,-729.39C228.92,-641.12 248.08,-289.03 322,-213.5 331.34,-203.96 344.07,-198.55 357.13,-195.62"/>
<polygon fill="#63b8ff" stroke="#63b8ff" points="221.74,-729.5 224.84,-739.64 228.73,-729.78 221.74,-729.5"/>
</a>
</g>
</g>
<!-- Node44 -->
<g id="Node000044" class="node">
<title>Node44</title>
<g id="a_Node000044"><a xlink:href="class_p4_1_1_resolve_references.html" target="_top" xlink:title=" ">
<polygon fill="white" stroke="#666666" points="480,-167 352,-167 352,-148 480,-148 480,-167"/>
<text text-anchor="middle" x="416" y="-155" font-family="Helvetica,sans-Serif" font-size="10.00">P4::ResolveReferences</text>
</a>
</g>
</g>
<!-- Node3&#45;&gt;Node44 -->
<g id="edge43_Node000003_Node000044" class="edge">
<title>Node3&#45;&gt;Node44</title>
<g id="a_edge43_Node000003_Node000044"><a xlink:title=" ">
<path fill="none" stroke="#8b1a1a" d="M224.97,-729.77C227.58,-638.49 243.1,-258.04 322,-176.5 330.02,-168.21 340.61,-163.03 351.76,-159.89"/>
<polygon fill="#8b1a1a" stroke="#8b1a1a" points="221.47,-729.76 224.71,-739.85 228.47,-729.95 221.47,-729.76"/>
</a>
</g>
</g>
<!-- Node45 -->
<g id="Node000045" class="node">
<title>Node45</title>
<g id="a_Node000045"><a xlink:href="class_p4_1_1_substitute_parameters.html" target="_top" xlink:title=" ">
<polygon fill="white" stroke="#bfbfbf" points="486,-130 346,-130 346,-111 486,-111 486,-130"/>
<text text-anchor="middle" x="416" y="-118" font-family="Helvetica,sans-Serif" font-size="10.00">P4::SubstituteParameters</text>
</a>
</g>
</g>
<!-- Node3&#45;&gt;Node45 -->
<g id="edge44_Node000003_Node000045" class="edge">
<title>Node3&#45;&gt;Node45</title>
<g id="a_edge44_Node000003_Node000045"><a xlink:title=" ">
<path fill="none" stroke="#63b8ff" d="M224.76,-729.42C226.41,-633.94 238.32,-226.86 322,-139.5 328.5,-132.72 336.71,-128.01 345.56,-124.8"/>
<polygon fill="#63b8ff" stroke="#63b8ff" points="221.25,-729.64 224.6,-739.7 228.25,-729.75 221.25,-729.64"/>
</a>
</g>
</g>
<!-- Node46 -->
<g id="Node000046" class="node">
<title>Node46</title>
<g id="a_Node000046"><a xlink:href="class_p4_1_1_to_p4.html" target="_top" xlink:title=" ">
<polygon fill="white" stroke="#666666" points="444.5,-93 387.5,-93 387.5,-74 444.5,-74 444.5,-93"/>
<text text-anchor="middle" x="416" y="-81" font-family="Helvetica,sans-Serif" font-size="10.00">P4::ToP4</text>
</a>
</g>
</g>
<!-- Node3&#45;&gt;Node46 -->
<g id="edge45_Node000003_Node000046" class="edge">
<title>Node3&#45;&gt;Node46</title>
<g id="a_edge45_Node000003_Node000046"><a xlink:title=" ">
<path fill="none" stroke="#8b1a1a" d="M224.56,-729.46C225.26,-630.6 233.42,-195.81 322,-102.5 338.57,-85.05 366.48,-81.32 387.42,-81.34"/>
<polygon fill="#8b1a1a" stroke="#8b1a1a" points="221.06,-729.57 224.5,-739.58 228.06,-729.6 221.06,-729.57"/>
</a>
</g>
</g>
<!-- Node47 -->
<g id="Node000047" class="node">
<title>Node47</title>
<g id="a_Node000047"><a xlink:href="class_p4_1_1_type_inference_base.html" target="_top" xlink:title=" ">
<polygon fill="white" stroke="orangered" points="479.5,-56 352.5,-56 352.5,-37 479.5,-37 479.5,-56"/>
<text text-anchor="middle" x="416" y="-44" font-family="Helvetica,sans-Serif" font-size="10.00">P4::TypeInferenceBase</text>
</a>
</g>
</g>
<!-- Node3&#45;&gt;Node47 -->
<g id="edge46_Node000003_Node000047" class="edge">
<title>Node3&#45;&gt;Node47</title>
<g id="a_edge46_Node000003_Node000047"><a xlink:title=" ">
<path fill="none" stroke="#63b8ff" d="M224.36,-729.9C224.02,-628.42 227.72,-163.59 322,-64.5 330.05,-56.04 340.79,-50.89 352.1,-47.86"/>
<polygon fill="#63b8ff" stroke="#63b8ff" points="220.86,-729.99 224.41,-739.97 227.86,-729.96 220.86,-729.99"/>
</a>
</g>
</g>
<!-- Node50 -->
<g id="Node000050" class="node">
<title>Node50</title>
<g id="a_Node000050"><a xlink:href="class_p4_1_1_unroll_loops.html" target="_top" xlink:title=" ">
<polygon fill="white" stroke="#bfbfbf" points="462,-19 370,-19 370,0 462,0 462,-19"/>
<text text-anchor="middle" x="416" y="-7" font-family="Helvetica,sans-Serif" font-size="10.00">P4::UnrollLoops</text>
</a>
</g>
</g>
<!-- Node3&#45;&gt;Node50 -->
<g id="edge48_Node000003_Node000050" class="edge">
<title>Node3&#45;&gt;Node50</title>
<g id="a_edge48_Node000003_Node000050"><a xlink:title=" ">
<path fill="none" stroke="#63b8ff" d="M224.2,-729.84C223,-625.01 222.8,-132.52 322,-27.5 334.2,-14.59 352.65,-9.37 369.92,-7.65"/>
<polygon fill="#63b8ff" stroke="#63b8ff" points="220.7,-730.01 224.33,-739.96 227.7,-729.91 220.7,-730.01"/>
</a>
</g>
</g>
<!-- Node5 -->
<g id="Node000005" class="node">
<title>Node5</title>
<g id="a_Node000005"><a xlink:href="class_p4_1_1_actions_inliner.html" target="_top" xlink:title=" ">
<polygon fill="white" stroke="#bfbfbf" points="675,-1590 574,-1590 574,-1571 675,-1571 675,-1590"/>
<text text-anchor="middle" x="624.5" y="-1578" font-family="Helvetica,sans-Serif" font-size="10.00">P4::ActionsInliner</text>
</a>
</g>
</g>
<!-- Node4&#45;&gt;Node5 -->
<g id="edge4_Node000004_Node000005" class="edge">
<title>Node4&#45;&gt;Node5</title>
<g id="a_edge4_Node000004_Node000005"><a xlink:title=" ">
<path fill="none" stroke="#63b8ff" d="M481.83,-1580.5C511.6,-1580.5 546.35,-1580.5 573.98,-1580.5"/>
<polygon fill="#63b8ff" stroke="#63b8ff" points="481.53,-1577 471.53,-1580.5 481.53,-1584 481.53,-1577"/>
</a>
</g>
</g>
<!-- Node7 -->
<g id="Node000007" class="node">
<title>Node7</title>
<g id="a_Node000007"><a xlink:href="class_p4_1_1_functions_inliner.html" target="_top" xlink:title=" ">
<polygon fill="white" stroke="#666666" points="680.5,-1531 568.5,-1531 568.5,-1512 680.5,-1512 680.5,-1531"/>
<text text-anchor="middle" x="624.5" y="-1519" font-family="Helvetica,sans-Serif" font-size="10.00">P4::FunctionsInliner</text>
</a>
</g>
</g>
<!-- Node6&#45;&gt;Node7 -->
<g id="edge6_Node000006_Node000007" class="edge">
<title>Node6&#45;&gt;Node7</title>
<g id="a_edge6_Node000006_Node000007"><a xlink:title=" ">
<path fill="none" stroke="#63b8ff" d="M499.38,-1521.5C522.51,-1521.5 547.1,-1521.5 568.24,-1521.5"/>
<polygon fill="#63b8ff" stroke="#63b8ff" points="499.22,-1518 489.22,-1521.5 499.22,-1525 499.22,-1518"/>
</a>
</g>
</g>
<!-- Node9 -->
<g id="Node000009" class="node">
<title>Node9</title>
<g id="a_Node000009"><a xlink:href="class_p4_1_1_general_inliner.html" target="_top" xlink:title="Performs actual inlining work.">
<polygon fill="white" stroke="#666666" points="676.5,-1477 572.5,-1477 572.5,-1458 676.5,-1458 676.5,-1477"/>
<text text-anchor="middle" x="624.5" y="-1465" font-family="Helvetica,sans-Serif" font-size="10.00">P4::GeneralInliner</text>
</a>
</g>
</g>
<!-- Node8&#45;&gt;Node9 -->
<g id="edge8_Node000008_Node000009" class="edge">
<title>Node8&#45;&gt;Node9</title>
<g id="a_edge8_Node000008_Node000009"><a xlink:title=" ">
<path fill="none" stroke="#63b8ff" d="M508.1,-1467.5C530.18,-1467.5 553.01,-1467.5 572.48,-1467.5"/>
<polygon fill="#63b8ff" stroke="#63b8ff" points="508.02,-1464 498.02,-1467.5 508.02,-1471 508.02,-1464"/>
</a>
</g>
</g>
<!-- Node37 -->
<g id="Node000037" class="node">
<title>Node37</title>
<g id="a_Node000037"><a xlink:href="class_p4_1_1_d_p_d_k_1_1_copy_match_keys_to_single_struct.html" target="_top" xlink:title=" ">
<polygon fill="white" stroke="#bfbfbf" points="703,-431.5 546,-431.5 546,-401.5 703,-401.5 703,-431.5"/>
<text text-anchor="start" x="554" y="-419.5" font-family="Helvetica,sans-Serif" font-size="10.00">P4::DPDK::CopyMatchKeysTo</text>
<text text-anchor="middle" x="624.5" y="-408.5" font-family="Helvetica,sans-Serif" font-size="10.00">SingleStruct</text>
</a>
</g>
</g>
<!-- Node36&#45;&gt;Node37 -->
<g id="edge36_Node000036_Node000037" class="edge">
<title>Node36&#45;&gt;Node37</title>
<g id="a_edge36_Node000036_Node000037"><a xlink:title=" ">
<path fill="none" stroke="#63b8ff" d="M476.74,-416.5C498.35,-416.5 523.07,-416.5 545.99,-416.5"/>
<polygon fill="#63b8ff" stroke="#63b8ff" points="476.72,-413 466.72,-416.5 476.72,-420 476.72,-413"/>
</a>
</g>
</g>
<!-- Node48 -->
<g id="Node000048" class="node">
<title>Node48</title>
<g id="a_Node000048"><a xlink:href="class_p4_1_1_read_only_type_inference.html" target="_top" xlink:title=" ">
<polygon fill="white" stroke="#bfbfbf" points="699.5,-56 549.5,-56 549.5,-37 699.5,-37 699.5,-56"/>
<text text-anchor="middle" x="624.5" y="-44" font-family="Helvetica,sans-Serif" font-size="10.00">P4::ReadOnlyTypeInference</text>
</a>
</g>
</g>
<!-- Node47&#45;&gt;Node48 -->
<g id="edge47_Node000047_Node000048" class="edge">
<title>Node47&#45;&gt;Node48</title>
<g id="a_edge47_Node000047_Node000048"><a xlink:title=" ">
<path fill="none" stroke="#63b8ff" d="M489.74,-46.5C509.01,-46.5 529.85,-46.5 549.2,-46.5"/>
<polygon fill="#63b8ff" stroke="#63b8ff" points="489.52,-43 479.52,-46.5 489.52,-50 489.52,-43"/>
</a>
</g>
</g>
</g>
</svg>

<g id="navigator" transform="translate(0 0)" fill="#404254">
  <rect fill="#f2f5e9" fill-opacity="0.5" stroke="#606060" stroke-width=".5" x="0" y="0" width="60" height="60"/>
  <use id="zoomplus" xlink:href="#zoomPlus" x="17" y="9" onmousedown="handleZoom(evt,'in')"/>
  <use id="zoomminus" xlink:href="#zoomMin" x="42" y="9" onmousedown="handleZoom(evt,'out')"/>
  <use id="reset" xlink:href="#resetDef" x="30" y="36" onmousedown="handleReset()"/>
   <use id="arrowup" xlink:href="#arrowUp" x="0" y="0" onmousedown="handlePan(0,-1)"/>
  <use id="arrowright" xlink:href="#arrowRight" x="0" y="0" onmousedown="handlePan(1,0)"/>
  <use id="arrowdown" xlink:href="#arrowDown" x="0" y="0" onmousedown="handlePan(0,1)"/>
  <use id="arrowleft" xlink:href="#arrowLeft" x="0" y="0" onmousedown="handlePan(-1,0)"/>
</g>
<svg viewBox="0 0 15 15" width="100%" height="30px" preserveAspectRatio="xMaxYMin meet">
 <g id="arrow_out" transform="scale(0.3 0.3)">
  <a xlink:href="class_p4_1_1_declaration_lookup__inherit__graph_org.svg" target="_base">
   <rect id="button" ry="5" rx="5" y="6" x="6" height="38" width="38"
        fill="#f2f5e9" fill-opacity="0.5" stroke="#606060" stroke-width="1.0"/>
   <path id="arrow"
     d="M 11.500037,31.436501 C 11.940474,20.09759 22.043105,11.32322 32.158766,21.979434 L 37.068811,17.246167 C 37.068811,17.246167 37.088388,32 37.088388,32 L 22.160133,31.978069 C 22.160133,31.978069 26.997745,27.140456 26.997745,27.140456 C 18.528582,18.264221 13.291696,25.230495 11.500037,31.436501 z"
     style="fill:#404040;"/>
  </a>
 </g>
</svg>

<style type='text/css'>
<![CDATA[
[data-mouse-over-selected='false'] { opacity: 0.7; }
[data-mouse-over-selected='true']  { opacity: 1.0; }
]]>
</style>
<script type="application/ecmascript"><![CDATA[
document.addEventListener('DOMContentLoaded', (event) => {
  highlightEdges();
  highlightAdjacentNodes();
});
]]></script>
</svg>
