<?xml version="1.0" encoding="UTF-8" standalone="no"?>
<!DOCTYPE svg PUBLIC "-//W3C//DTD SVG 1.1//EN"
 "http://www.w3.org/Graphics/SVG/1.1/DTD/svg11.dtd">
<!-- Generated by graphviz version 2.43.0 (0)
 -->
<!-- Title: P4::ParserOptions Pages: 1 -->
<!--zoomable 384 -->

<svg id="main" version="1.1" xmlns="http://www.w3.org/2000/svg" xmlns:xlink="http://www.w3.org/1999/xlink" xml:space="preserve" onload="init(evt)">

<style type="text/css"><![CDATA[
.node, .edge {opacity: 0.7;}
.node.selected, .edge.selected {opacity: 1;}
.edge:hover path { stroke: red; }
.edge:hover polygon { stroke: red; fill: red; }
]]></style>

<defs>
  <circle id="rim" cx="0" cy="0" r="7"/>
  <circle id="rim2" cx="0" cy="0" r="3.5"/>
  <g id="zoomPlus">
    <use xlink:href="#rim" fill="#404040"><set attributeName="fill" to="#808080" begin="zoomplus.mouseover" end="zoomplus.mouseout"/></use>
    <path d="M-4,0h8M0,-4v8" fill="none" stroke="white" stroke-width="1.5" pointer-events="none"/>
  </g>
  <g id="zoomMin">
    <use xlink:href="#rim" fill="#404040"><set attributeName="fill" to="#808080" begin="zoomminus.mouseover" end="zoomminus.mouseout"/></use>
    <path d="M-4,0h8" fill="none" stroke="white" stroke-width="1.5" pointer-events="none"/>
  </g>
  <g id="arrowUp" transform="translate(30 24)">
    <use xlink:href="#rim"/>
    <path pointer-events="none" fill="none" stroke="white" stroke-width="1.5" d="M0,-3.0v7 M-2.5,-0.5L0,-3.0L2.5,-0.5"/>
  </g>
  <g id="arrowRight" transform="rotate(90) translate(36 -43)">
    <use xlink:href="#rim"/>
    <path pointer-events="none" fill="none" stroke="white" stroke-width="1.5" d="M0,-3.0v7 M-2.5,-0.5L0,-3.0L2.5,-0.5"/>
  </g>
  <g id="arrowDown" transform="rotate(180) translate(-30 -48)">
    <use xlink:href="#rim"/>
    <path pointer-events="none" fill="none" stroke="white" stroke-width="1.5" d="M0,-3.0v7 M-2.5,-0.5L0,-3.0L2.5,-0.5"/>
  </g>
  <g id="arrowLeft" transform="rotate(270) translate(-36 17)">
    <use xlink:href="#rim"/>
    <path pointer-events="none" fill="none" stroke="white" stroke-width="1.5" d="M0,-3.0v7 M-2.5,-0.5L0,-3.0L2.5,-0.5"/>
  </g>
  <g id="resetDef">
    <use xlink:href="#rim2" fill="#404040"><set attributeName="fill" to="#808080" begin="reset.mouseover" end="reset.mouseout"/></use>
  </g>
</defs>
<script type="application/ecmascript">
var viewWidth = 969;
var viewHeight = 384;
var sectionId = 'dynsection-0';
</script>
<script type="application/ecmascript" xlink:href="svg.min.js"/>
<svg id="graph" class="graph">
<g id="viewport">
<title>P4::ParserOptions</title>
<!-- Node1 -->
<g id="Node000001" class="node">
<title>Node1</title>
<g id="a_Node000001"><a xlink:title=" ">
<polygon fill="#999999" stroke="#666666" points="233,-184 131,-184 131,-165 233,-165 233,-184"/>
<text text-anchor="middle" x="182" y="-172" font-family="Helvetica,sans-Serif" font-size="10.00">P4::ParserOptions</text>
</a>
</g>
</g>
<!-- Node3 -->
<g id="Node000003" class="node">
<title>Node3</title>
<g id="a_Node000003"><a xlink:href="class_p4_1_1_compiler_options.html" target="_top" xlink:title=" ">
<polygon fill="white" stroke="#bfbfbf" points="385,-184 269,-184 269,-165 385,-165 385,-184"/>
<text text-anchor="middle" x="327" y="-172" font-family="Helvetica,sans-Serif" font-size="10.00">P4::CompilerOptions</text>
</a>
</g>
</g>
<!-- Node1&#45;&gt;Node3 -->
<g id="edge2_Node000001_Node000003" class="edge">
<title>Node1&#45;&gt;Node3</title>
<g id="a_edge2_Node000001_Node000003"><a xlink:title=" ">
<path fill="none" stroke="#63b8ff" d="M243.25,-174.5C251.75,-174.5 260.47,-174.5 268.92,-174.5"/>
<polygon fill="#63b8ff" stroke="#63b8ff" points="243.01,-171 233.01,-174.5 243.01,-178 243.01,-171"/>
</a>
</g>
</g>
<!-- Node2 -->
<g id="Node000002" class="node">
<title>Node2</title>
<g id="a_Node000002"><a xlink:href="class_p4_1_1_util_1_1_options.html" target="_top" xlink:title=" ">
<polygon fill="white" stroke="#bfbfbf" points="95,-184 0,-184 0,-165 95,-165 95,-184"/>
<text text-anchor="middle" x="47.5" y="-172" font-family="Helvetica,sans-Serif" font-size="10.00">P4::Util::Options</text>
</a>
</g>
</g>
<!-- Node2&#45;&gt;Node1 -->
<g id="edge1_Node000001_Node000002" class="edge">
<title>Node2&#45;&gt;Node1</title>
<g id="a_edge1_Node000001_Node000002"><a xlink:title=" ">
<path fill="none" stroke="#63b8ff" d="M105.34,-174.5C113.76,-174.5 122.38,-174.5 130.66,-174.5"/>
<polygon fill="#63b8ff" stroke="#63b8ff" points="105.21,-171 95.21,-174.5 105.21,-178 105.21,-171"/>
</a>
</g>
</g>
<!-- Node4 -->
<g id="Node000004" class="node">
<title>Node4</title>
<g id="a_Node000004"><a xlink:href="class_p4_1_1_b_m_v2_1_1_b_m_v2_options.html" target="_top" xlink:title=" ">
<polygon fill="white" stroke="#bfbfbf" points="558,-338 423,-338 423,-319 558,-319 558,-338"/>
<text text-anchor="middle" x="490.5" y="-326" font-family="Helvetica,sans-Serif" font-size="10.00">P4::BMV2::BMV2Options</text>
</a>
</g>
</g>
<!-- Node3&#45;&gt;Node4 -->
<g id="edge3_Node000003_Node000004" class="edge">
<title>Node3&#45;&gt;Node4</title>
<g id="a_edge3_Node000003_Node000004"><a xlink:title=" ">
<path fill="none" stroke="#63b8ff" d="M335.92,-193.57C349.14,-222.99 378.47,-279.2 421,-309.5 426.43,-313.37 432.61,-316.45 439,-318.9"/>
<polygon fill="#63b8ff" stroke="#63b8ff" points="338.98,-191.83 331.79,-184.04 332.56,-194.61 338.98,-191.83"/>
</a>
</g>
</g>
<!-- Node9 -->
<g id="Node000009" class="node">
<title>Node9</title>
<g id="a_Node000009"><a xlink:href="class_p4_1_1_d_p_d_k_1_1_dpdk_options.html" target="_top" xlink:title=" ">
<polygon fill="white" stroke="#bfbfbf" points="556,-301 425,-301 425,-282 556,-282 556,-301"/>
<text text-anchor="middle" x="490.5" y="-289" font-family="Helvetica,sans-Serif" font-size="10.00">P4::DPDK::DpdkOptions</text>
</a>
</g>
</g>
<!-- Node3&#45;&gt;Node9 -->
<g id="edge8_Node000003_Node000009" class="edge">
<title>Node3&#45;&gt;Node9</title>
<g id="a_edge8_Node000003_Node000009"><a xlink:title=" ">
<path fill="none" stroke="#63b8ff" d="M340.22,-192.42C356.23,-214.51 386.37,-251.69 421,-272.5 427.45,-276.38 434.72,-279.49 442.05,-281.97"/>
<polygon fill="#63b8ff" stroke="#63b8ff" points="343.07,-190.37 334.44,-184.22 337.35,-194.41 343.07,-190.37"/>
</a>
</g>
</g>
<!-- Node10 -->
<g id="Node000010" class="node">
<title>Node10</title>
<g id="a_Node000010"><a xlink:href="class_p4_1_1_ebpf_options.html" target="_top" xlink:title=" ">
<polygon fill="white" stroke="#bfbfbf" points="537.5,-264 443.5,-264 443.5,-245 537.5,-245 537.5,-264"/>
<text text-anchor="middle" x="490.5" y="-252" font-family="Helvetica,sans-Serif" font-size="10.00">P4::EbpfOptions</text>
</a>
</g>
</g>
<!-- Node3&#45;&gt;Node10 -->
<g id="edge9_Node000003_Node000010" class="edge">
<title>Node3&#45;&gt;Node10</title>
<g id="a_edge9_Node000003_Node000010"><a xlink:title=" ">
<path fill="none" stroke="#63b8ff" d="M347.99,-190.26C366.14,-203.91 394.1,-223.31 421,-235.5 429.21,-239.22 438.3,-242.36 447.11,-244.96"/>
<polygon fill="#63b8ff" stroke="#63b8ff" points="349.99,-187.38 339.92,-184.09 345.74,-192.94 349.99,-187.38"/>
</a>
</g>
</g>
<!-- Node11 -->
<g id="Node000011" class="node">
<title>Node11</title>
<g id="a_Node000011"><a xlink:href="class_p4_1_1_p4_fmt_1_1_p4fmt_options.html" target="_top" xlink:title=" ">
<polygon fill="white" stroke="#bfbfbf" points="560,-227 421,-227 421,-208 560,-208 560,-227"/>
<text text-anchor="middle" x="490.5" y="-215" font-family="Helvetica,sans-Serif" font-size="10.00">P4::P4Fmt::P4fmtOptions</text>
</a>
</g>
</g>
<!-- Node3&#45;&gt;Node11 -->
<g id="edge10_Node000003_Node000011" class="edge">
<title>Node3&#45;&gt;Node11</title>
<g id="a_edge10_Node000003_Node000011"><a xlink:title=" ">
<path fill="none" stroke="#63b8ff" d="M373.62,-186.65C399.01,-193.41 430.15,-201.7 453.76,-207.98"/>
<polygon fill="#63b8ff" stroke="#63b8ff" points="374.41,-183.23 363.84,-184.04 372.6,-190 374.41,-183.23"/>
</a>
</g>
</g>
<!-- Node12 -->
<g id="Node000012" class="node">
<title>Node12</title>
<g id="a_Node000012"><a xlink:href="class_p4_1_1_p4_tools_1_1_test_1_1_p4_reachability_options.html" target="_top" xlink:title=" ">
<polygon fill="white" stroke="#bfbfbf" points="554,-189.5 427,-189.5 427,-159.5 554,-159.5 554,-189.5"/>
<text text-anchor="start" x="435" y="-177.5" font-family="Helvetica,sans-Serif" font-size="10.00">P4::P4Tools::Test::</text>
<text text-anchor="middle" x="490.5" y="-166.5" font-family="Helvetica,sans-Serif" font-size="10.00">P4ReachabilityOptions</text>
</a>
</g>
</g>
<!-- Node3&#45;&gt;Node12 -->
<g id="edge11_Node000003_Node000012" class="edge">
<title>Node3&#45;&gt;Node12</title>
<g id="a_edge11_Node000003_Node000012"><a xlink:title=" ">
<path fill="none" stroke="#63b8ff" d="M395.61,-174.5C405.95,-174.5 416.58,-174.5 426.81,-174.5"/>
<polygon fill="#63b8ff" stroke="#63b8ff" points="395.39,-171 385.39,-174.5 395.39,-178 395.39,-171"/>
</a>
</g>
</g>
<!-- Node13 -->
<g id="Node000013" class="node">
<title>Node13</title>
<g id="a_Node000013"><a xlink:href="class_p4_1_1_p4_tools_1_1_test_1_1_p4_test_options.html" target="_top" xlink:title=" ">
<polygon fill="white" stroke="#bfbfbf" points="542,-141.5 439,-141.5 439,-111.5 542,-111.5 542,-141.5"/>
<text text-anchor="start" x="447" y="-129.5" font-family="Helvetica,sans-Serif" font-size="10.00">P4::P4Tools::Test::</text>
<text text-anchor="middle" x="490.5" y="-118.5" font-family="Helvetica,sans-Serif" font-size="10.00">P4TestOptions</text>
</a>
</g>
</g>
<!-- Node3&#45;&gt;Node13 -->
<g id="edge12_Node000003_Node000013" class="edge">
<title>Node3&#45;&gt;Node13</title>
<g id="a_edge12_Node000003_Node000013"><a xlink:title=" ">
<path fill="none" stroke="#63b8ff" d="M369.92,-162.04C390.98,-155.78 416.66,-148.15 438.82,-141.56"/>
<polygon fill="#63b8ff" stroke="#63b8ff" points="368.88,-158.7 360.29,-164.9 370.88,-165.41 368.88,-158.7"/>
</a>
</g>
</g>
<!-- Node14 -->
<g id="Node000014" class="node">
<title>Node14</title>
<g id="a_Node000014"><a xlink:href="class_p4_1_1_t_c_1_1_t_c_options.html" target="_top" xlink:title=" ">
<polygon fill="white" stroke="#bfbfbf" points="541.5,-93 439.5,-93 439.5,-74 541.5,-74 541.5,-93"/>
<text text-anchor="middle" x="490.5" y="-81" font-family="Helvetica,sans-Serif" font-size="10.00">P4::TC::TCOptions</text>
</a>
</g>
</g>
<!-- Node3&#45;&gt;Node14 -->
<g id="edge13_Node000003_Node000014" class="edge">
<title>Node3&#45;&gt;Node14</title>
<g id="a_edge13_Node000003_Node000014"><a xlink:title=" ">
<path fill="none" stroke="#63b8ff" d="M345.44,-157.58C363.14,-141.3 391.98,-117.05 421,-102.5 428.5,-98.74 436.85,-95.64 445.07,-93.11"/>
<polygon fill="#63b8ff" stroke="#63b8ff" points="342.59,-155.46 337.7,-164.86 347.38,-160.56 342.59,-155.46"/>
</a>
</g>
</g>
<!-- Node15 -->
<g id="Node000015" class="node">
<title>Node15</title>
<g id="a_Node000015"><a xlink:href="class_p4_1_1graphs_1_1_options.html" target="_top" xlink:title=" ">
<polygon fill="white" stroke="#bfbfbf" points="546,-56 435,-56 435,-37 546,-37 546,-56"/>
<text text-anchor="middle" x="490.5" y="-44" font-family="Helvetica,sans-Serif" font-size="10.00">P4::graphs::Options</text>
</a>
</g>
</g>
<!-- Node3&#45;&gt;Node15 -->
<g id="edge14_Node000003_Node000015" class="edge">
<title>Node3&#45;&gt;Node15</title>
<g id="a_edge14_Node000003_Node000015"><a xlink:title=" ">
<path fill="none" stroke="#63b8ff" d="M338.52,-156.11C353.59,-131.45 383.66,-88.06 421,-64.5 426.41,-61.09 432.44,-58.32 438.63,-56.07"/>
<polygon fill="#63b8ff" stroke="#63b8ff" points="335.43,-154.46 333.33,-164.84 341.45,-158.03 335.43,-154.46"/>
</a>
</g>
</g>
<!-- Node16 -->
<g id="Node000016" class="node">
<title>Node16</title>
<g id="a_Node000016"><a xlink:href="class_p4_test_options.html" target="_top" xlink:title=" ">
<polygon fill="white" stroke="#bfbfbf" points="533.5,-19 447.5,-19 447.5,0 533.5,0 533.5,-19"/>
<text text-anchor="middle" x="490.5" y="-7" font-family="Helvetica,sans-Serif" font-size="10.00">P4TestOptions</text>
</a>
</g>
</g>
<!-- Node3&#45;&gt;Node16 -->
<g id="edge15_Node000003_Node000016" class="edge">
<title>Node3&#45;&gt;Node16</title>
<g id="a_edge15_Node000003_Node000016"><a xlink:title=" ">
<path fill="none" stroke="#63b8ff" d="M334.72,-155.43C346.85,-123.83 375.46,-60.83 421,-27.5 428.74,-21.84 438.12,-17.95 447.43,-15.29"/>
<polygon fill="#63b8ff" stroke="#63b8ff" points="331.42,-154.25 331.24,-164.85 337.99,-156.68 331.42,-154.25"/>
</a>
</g>
</g>
<!-- Node5 -->
<g id="Node000005" class="node">
<title>Node5</title>
<g id="a_Node000005"><a xlink:href="class_p4_1_1_b_m_v2_1_1_portable_options.html" target="_top" xlink:title=" ">
<polygon fill="white" stroke="#bfbfbf" points="756,-357 609,-357 609,-338 756,-338 756,-357"/>
<text text-anchor="middle" x="682.5" y="-345" font-family="Helvetica,sans-Serif" font-size="10.00">P4::BMV2::PortableOptions</text>
</a>
</g>
</g>
<!-- Node4&#45;&gt;Node5 -->
<g id="edge4_Node000004_Node000005" class="edge">
<title>Node4&#45;&gt;Node5</title>
<g id="a_edge4_Node000004_Node000005"><a xlink:title=" ">
<path fill="none" stroke="#63b8ff" d="M568.32,-336.18C581.69,-337.52 595.55,-338.9 608.8,-340.23"/>
<polygon fill="#63b8ff" stroke="#63b8ff" points="568.52,-332.68 558.22,-335.17 567.82,-339.65 568.52,-332.68"/>
</a>
</g>
</g>
<!-- Node8 -->
<g id="Node000008" class="node">
<title>Node8</title>
<g id="a_Node000008"><a xlink:href="class_p4_1_1_b_m_v2_1_1_simple_switch_options.html" target="_top" xlink:title=" ">
<polygon fill="white" stroke="#bfbfbf" points="769,-320 596,-320 596,-301 769,-301 769,-320"/>
<text text-anchor="middle" x="682.5" y="-308" font-family="Helvetica,sans-Serif" font-size="10.00">P4::BMV2::SimpleSwitchOptions</text>
</a>
</g>
</g>
<!-- Node4&#45;&gt;Node8 -->
<g id="edge7_Node000004_Node000008" class="edge">
<title>Node4&#45;&gt;Node8</title>
<g id="a_edge7_Node000004_Node000008"><a xlink:title=" ">
<path fill="none" stroke="#63b8ff" d="M568.35,-321.22C577.43,-320.36 586.74,-319.48 595.93,-318.61"/>
<polygon fill="#63b8ff" stroke="#63b8ff" points="567.85,-317.75 558.22,-322.18 568.51,-324.72 567.85,-317.75"/>
</a>
</g>
</g>
<!-- Node6 -->
<g id="Node000006" class="node">
<title>Node6</title>
<g id="a_Node000006"><a xlink:href="class_p4_1_1_b_m_v2_1_1_pna_nic_options.html" target="_top" xlink:title=" ">
<polygon fill="white" stroke="#bfbfbf" points="953,-376 813,-376 813,-357 953,-357 953,-376"/>
<text text-anchor="middle" x="883" y="-364" font-family="Helvetica,sans-Serif" font-size="10.00">P4::BMV2::PnaNicOptions</text>
</a>
</g>
</g>
<!-- Node5&#45;&gt;Node6 -->
<g id="edge5_Node000005_Node000006" class="edge">
<title>Node5&#45;&gt;Node6</title>
<g id="a_edge5_Node000005_Node000006"><a xlink:title=" ">
<path fill="none" stroke="#63b8ff" d="M766.15,-355.41C781.74,-356.9 797.88,-358.45 813,-359.9"/>
<polygon fill="#63b8ff" stroke="#63b8ff" points="766.29,-351.91 756.01,-354.44 765.63,-358.88 766.29,-351.91"/>
</a>
</g>
</g>
<!-- Node7 -->
<g id="Node000007" class="node">
<title>Node7</title>
<g id="a_Node000007"><a xlink:href="class_p4_1_1_b_m_v2_1_1_psa_switch_options.html" target="_top" xlink:title=" ">
<polygon fill="white" stroke="#bfbfbf" points="961,-339 805,-339 805,-320 961,-320 961,-339"/>
<text text-anchor="middle" x="883" y="-327" font-family="Helvetica,sans-Serif" font-size="10.00">P4::BMV2::PsaSwitchOptions</text>
</a>
</g>
</g>
<!-- Node5&#45;&gt;Node7 -->
<g id="edge6_Node000005_Node000007" class="edge">
<title>Node5&#45;&gt;Node7</title>
<g id="a_edge6_Node000005_Node000007"><a xlink:title=" ">
<path fill="none" stroke="#63b8ff" d="M766.14,-340.01C778.9,-338.85 792.04,-337.66 804.68,-336.51"/>
<polygon fill="#63b8ff" stroke="#63b8ff" points="765.65,-336.54 756.01,-340.93 766.28,-343.51 765.65,-336.54"/>
</a>
</g>
</g>
</g>
</svg>

<g id="navigator" transform="translate(0 0)" fill="#404254">
  <rect fill="#f2f5e9" fill-opacity="0.5" stroke="#606060" stroke-width=".5" x="0" y="0" width="60" height="60"/>
  <use id="zoomplus" xlink:href="#zoomPlus" x="17" y="9" onmousedown="handleZoom(evt,'in')"/>
  <use id="zoomminus" xlink:href="#zoomMin" x="42" y="9" onmousedown="handleZoom(evt,'out')"/>
  <use id="reset" xlink:href="#resetDef" x="30" y="36" onmousedown="handleReset()"/>
   <use id="arrowup" xlink:href="#arrowUp" x="0" y="0" onmousedown="handlePan(0,-1)"/>
  <use id="arrowright" xlink:href="#arrowRight" x="0" y="0" onmousedown="handlePan(1,0)"/>
  <use id="arrowdown" xlink:href="#arrowDown" x="0" y="0" onmousedown="handlePan(0,1)"/>
  <use id="arrowleft" xlink:href="#arrowLeft" x="0" y="0" onmousedown="handlePan(-1,0)"/>
</g>
<svg viewBox="0 0 15 15" width="100%" height="30px" preserveAspectRatio="xMaxYMin meet">
 <g id="arrow_out" transform="scale(0.3 0.3)">
  <a xlink:href="class_p4_1_1_parser_options__inherit__graph_org.svg" target="_base">
   <rect id="button" ry="5" rx="5" y="6" x="6" height="38" width="38"
        fill="#f2f5e9" fill-opacity="0.5" stroke="#606060" stroke-width="1.0"/>
   <path id="arrow"
     d="M 11.500037,31.436501 C 11.940474,20.09759 22.043105,11.32322 32.158766,21.979434 L 37.068811,17.246167 C 37.068811,17.246167 37.088388,32 37.088388,32 L 22.160133,31.978069 C 22.160133,31.978069 26.997745,27.140456 26.997745,27.140456 C 18.528582,18.264221 13.291696,25.230495 11.500037,31.436501 z"
     style="fill:#404040;"/>
  </a>
 </g>
</svg>

<style type='text/css'>
<![CDATA[
[data-mouse-over-selected='false'] { opacity: 0.7; }
[data-mouse-over-selected='true']  { opacity: 1.0; }
]]>
</style>
<script type="application/ecmascript"><![CDATA[
document.addEventListener('DOMContentLoaded', (event) => {
  highlightEdges();
  highlightAdjacentNodes();
});
]]></script>
</svg>
