<?xml version="1.0" encoding="UTF-8" standalone="no"?>
<!DOCTYPE svg PUBLIC "-//W3C//DTD SVG 1.1//EN"
 "http://www.w3.org/Graphics/SVG/1.1/DTD/svg11.dtd">
<!-- Generated by graphviz version 2.43.0 (0)
 -->
<!-- Title: P4::EBPF::EBPFObject Pages: 1 -->
<!--zoomable 1197 -->

<svg id="main" version="1.1" xmlns="http://www.w3.org/2000/svg" xmlns:xlink="http://www.w3.org/1999/xlink" xml:space="preserve" onload="init(evt)">

<style type="text/css"><![CDATA[
.node, .edge {opacity: 0.7;}
.node.selected, .edge.selected {opacity: 1;}
.edge:hover path { stroke: red; }
.edge:hover polygon { stroke: red; fill: red; }
]]></style>

<defs>
  <circle id="rim" cx="0" cy="0" r="7"/>
  <circle id="rim2" cx="0" cy="0" r="3.5"/>
  <g id="zoomPlus">
    <use xlink:href="#rim" fill="#404040"><set attributeName="fill" to="#808080" begin="zoomplus.mouseover" end="zoomplus.mouseout"/></use>
    <path d="M-4,0h8M0,-4v8" fill="none" stroke="white" stroke-width="1.5" pointer-events="none"/>
  </g>
  <g id="zoomMin">
    <use xlink:href="#rim" fill="#404040"><set attributeName="fill" to="#808080" begin="zoomminus.mouseover" end="zoomminus.mouseout"/></use>
    <path d="M-4,0h8" fill="none" stroke="white" stroke-width="1.5" pointer-events="none"/>
  </g>
  <g id="arrowUp" transform="translate(30 24)">
    <use xlink:href="#rim"/>
    <path pointer-events="none" fill="none" stroke="white" stroke-width="1.5" d="M0,-3.0v7 M-2.5,-0.5L0,-3.0L2.5,-0.5"/>
  </g>
  <g id="arrowRight" transform="rotate(90) translate(36 -43)">
    <use xlink:href="#rim"/>
    <path pointer-events="none" fill="none" stroke="white" stroke-width="1.5" d="M0,-3.0v7 M-2.5,-0.5L0,-3.0L2.5,-0.5"/>
  </g>
  <g id="arrowDown" transform="rotate(180) translate(-30 -48)">
    <use xlink:href="#rim"/>
    <path pointer-events="none" fill="none" stroke="white" stroke-width="1.5" d="M0,-3.0v7 M-2.5,-0.5L0,-3.0L2.5,-0.5"/>
  </g>
  <g id="arrowLeft" transform="rotate(270) translate(-36 17)">
    <use xlink:href="#rim"/>
    <path pointer-events="none" fill="none" stroke="white" stroke-width="1.5" d="M0,-3.0v7 M-2.5,-0.5L0,-3.0L2.5,-0.5"/>
  </g>
  <g id="resetDef">
    <use xlink:href="#rim2" fill="#404040"><set attributeName="fill" to="#808080" begin="reset.mouseover" end="reset.mouseout"/></use>
  </g>
</defs>
<script type="application/ecmascript">
var viewWidth = 1042;
var viewHeight = 1197;
var sectionId = 'dynsection-0';
</script>
<script type="application/ecmascript" xlink:href="svg.min.js"/>
<svg id="graph" class="graph">
<g id="viewport">
<title>P4::EBPF::EBPFObject</title>
<!-- Node1 -->
<g id="Node000001" class="node">
<title>Node1</title>
<g id="a_Node000001"><a xlink:title="Base class for EBPF objects.">
<polygon fill="#999999" stroke="#666666" points="359,-722 238,-722 238,-703 359,-703 359,-722"/>
<text text-anchor="middle" x="298.5" y="-710" font-family="Helvetica,sans-Serif" font-size="10.00">P4::EBPF::EBPFObject</text>
</a>
</g>
</g>
<!-- Node4 -->
<g id="Node000004" class="node">
<title>Node4</title>
<g id="a_Node000004"><a xlink:href="class_p4_1_1_e_b_p_f_1_1_e_b_p_f_checksum_p_s_a.html" target="_top" xlink:title=" ">
<polygon fill="white" stroke="#bfbfbf" points="566,-1133 406,-1133 406,-1114 566,-1114 566,-1133"/>
<text text-anchor="middle" x="486" y="-1121" font-family="Helvetica,sans-Serif" font-size="10.00">P4::EBPF::EBPFChecksumPSA</text>
</a>
</g>
</g>
<!-- Node1&#45;&gt;Node4 -->
<g id="edge3_Node000001_Node000004" class="edge">
<title>Node1&#45;&gt;Node4</title>
<g id="a_edge3_Node000001_Node000004"><a xlink:title=" ">
<path fill="none" stroke="#63b8ff" d="M302.04,-732.22C309.44,-784.32 334.41,-928.71 395,-1031.5 415.76,-1066.72 452.83,-1098.6 472.28,-1113.92"/>
<polygon fill="#63b8ff" stroke="#63b8ff" points="305.47,-731.47 300.66,-722.04 298.54,-732.42 305.47,-731.47"/>
</a>
</g>
</g>
<!-- Node9 -->
<g id="Node000009" class="node">
<title>Node9</title>
<g id="a_Node000009"><a xlink:href="class_p4_1_1_e_b_p_f_1_1_e_b_p_f_control.html" target="_top" xlink:title=" ">
<polygon fill="white" stroke="#bfbfbf" points="548.5,-1022 423.5,-1022 423.5,-1003 548.5,-1003 548.5,-1022"/>
<text text-anchor="middle" x="486" y="-1010" font-family="Helvetica,sans-Serif" font-size="10.00">P4::EBPF::EBPFControl</text>
</a>
</g>
</g>
<!-- Node1&#45;&gt;Node9 -->
<g id="edge8_Node000001_Node000009" class="edge">
<title>Node1&#45;&gt;Node9</title>
<g id="a_edge8_Node000001_Node000009"><a xlink:title=" ">
<path fill="none" stroke="#63b8ff" d="M303.4,-732.11C312.78,-775.3 340.02,-880.32 395,-949.5 414.11,-973.54 444.78,-992.26 464.91,-1002.84"/>
<polygon fill="#63b8ff" stroke="#63b8ff" points="306.77,-731.15 301.3,-722.08 299.92,-732.58 306.77,-731.15"/>
</a>
</g>
</g>
<!-- Node23 -->
<g id="Node000023" class="node">
<title>Node23</title>
<g id="a_Node000023"><a xlink:href="class_p4_1_1_e_b_p_f_1_1_e_b_p_f_digest_p_s_a.html" target="_top" xlink:title=" ">
<polygon fill="white" stroke="#bfbfbf" points="556,-940 416,-940 416,-921 556,-921 556,-940"/>
<text text-anchor="middle" x="486" y="-928" font-family="Helvetica,sans-Serif" font-size="10.00">P4::EBPF::EBPFDigestPSA</text>
</a>
</g>
</g>
<!-- Node1&#45;&gt;Node23 -->
<g id="edge12_Node000001_Node000023" class="edge">
<title>Node1&#45;&gt;Node23</title>
<g id="a_edge12_Node000001_Node000023"><a xlink:title=" ">
<path fill="none" stroke="#63b8ff" d="M307.44,-731.69C321.43,-763.76 352.99,-829.03 395,-872.5 415.54,-893.75 445.28,-910.98 464.87,-920.98"/>
<polygon fill="#63b8ff" stroke="#63b8ff" points="310.52,-729.99 303.38,-722.16 304.08,-732.73 310.52,-729.99"/>
</a>
</g>
</g>
<!-- Node25 -->
<g id="Node000025" class="node">
<title>Node25</title>
<g id="a_Node000025"><a xlink:href="class_p4_1_1_e_b_p_f_1_1_e_b_p_f_hash_algorithm_p_s_a.html" target="_top" xlink:title=" ">
<polygon fill="white" stroke="#bfbfbf" points="577,-863 395,-863 395,-844 577,-844 577,-863"/>
<text text-anchor="middle" x="486" y="-851" font-family="Helvetica,sans-Serif" font-size="10.00">P4::EBPF::EBPFHashAlgorithmPSA</text>
</a>
</g>
</g>
<!-- Node1&#45;&gt;Node25 -->
<g id="edge14_Node000001_Node000025" class="edge">
<title>Node1&#45;&gt;Node25</title>
<g id="a_edge14_Node000001_Node000025"><a xlink:title=" ">
<path fill="none" stroke="#63b8ff" d="M314.47,-729.78C332.29,-749.68 363.61,-782.56 395,-805.5 416.59,-821.28 444.02,-835.14 462.89,-843.86"/>
<polygon fill="#63b8ff" stroke="#63b8ff" points="316.94,-727.29 307.7,-722.12 311.69,-731.93 316.94,-727.29"/>
</a>
</g>
</g>
<!-- Node34 -->
<g id="Node000034" class="node">
<title>Node34</title>
<g id="a_Node000034"><a xlink:href="class_p4_1_1_e_b_p_f_1_1_e_b_p_f_method_declaration.html" target="_top" xlink:title="Methods are function signatures.">
<polygon fill="white" stroke="#666666" points="577,-796 395,-796 395,-777 577,-777 577,-796"/>
<text text-anchor="middle" x="486" y="-784" font-family="Helvetica,sans-Serif" font-size="10.00">P4::EBPF::EBPFMethodDeclaration</text>
</a>
</g>
</g>
<!-- Node1&#45;&gt;Node34 -->
<g id="edge18_Node000001_Node000034" class="edge">
<title>Node1&#45;&gt;Node34</title>
<g id="a_edge18_Node000001_Node000034"><a xlink:title=" ">
<path fill="none" stroke="#63b8ff" d="M321.45,-727.82C340.19,-740.23 368.28,-757.28 395,-767.5 404.99,-771.32 415.92,-774.44 426.61,-776.97"/>
<polygon fill="#63b8ff" stroke="#63b8ff" points="323.29,-724.85 313.05,-722.15 319.38,-730.65 323.29,-724.85"/>
</a>
</g>
</g>
<!-- Node35 -->
<g id="Node000035" class="node">
<title>Node35</title>
<g id="a_Node000035"><a xlink:href="class_p4_1_1_e_b_p_f_1_1_e_b_p_f_parser.html" target="_top" xlink:title=" ">
<polygon fill="white" stroke="#bfbfbf" points="545.5,-759 426.5,-759 426.5,-740 545.5,-740 545.5,-759"/>
<text text-anchor="middle" x="486" y="-747" font-family="Helvetica,sans-Serif" font-size="10.00">P4::EBPF::EBPFParser</text>
</a>
</g>
</g>
<!-- Node1&#45;&gt;Node35 -->
<g id="edge19_Node000001_Node000035" class="edge">
<title>Node1&#45;&gt;Node35</title>
<g id="a_edge19_Node000001_Node000035"><a xlink:title=" ">
<path fill="none" stroke="#63b8ff" d="M357.24,-724.02C382.87,-729.13 412.69,-735.08 437.07,-739.94"/>
<polygon fill="#63b8ff" stroke="#63b8ff" points="357.76,-720.55 347.27,-722.03 356.39,-727.42 357.76,-720.55"/>
</a>
</g>
</g>
<!-- Node39 -->
<g id="Node000039" class="node">
<title>Node39</title>
<g id="a_Node000039"><a xlink:href="class_p4_1_1_e_b_p_f_1_1_e_b_p_f_parser_state.html" target="_top" xlink:title=" ">
<polygon fill="white" stroke="#bfbfbf" points="558.5,-722 413.5,-722 413.5,-703 558.5,-703 558.5,-722"/>
<text text-anchor="middle" x="486" y="-710" font-family="Helvetica,sans-Serif" font-size="10.00">P4::EBPF::EBPFParserState</text>
</a>
</g>
</g>
<!-- Node1&#45;&gt;Node39 -->
<g id="edge22_Node000001_Node000039" class="edge">
<title>Node1&#45;&gt;Node39</title>
<g id="a_edge22_Node000001_Node000039"><a xlink:title=" ">
<path fill="none" stroke="#63b8ff" d="M369.51,-712.5C383.87,-712.5 399,-712.5 413.41,-712.5"/>
<polygon fill="#63b8ff" stroke="#63b8ff" points="369.21,-709 359.21,-712.5 369.21,-716 369.21,-709"/>
</a>
</g>
</g>
<!-- Node41 -->
<g id="Node000041" class="node">
<title>Node41</title>
<g id="a_Node000041"><a xlink:href="class_p4_1_1_e_b_p_f_1_1_e_b_p_f_program.html" target="_top" xlink:title=" ">
<polygon fill="white" stroke="#bfbfbf" points="551.5,-685 420.5,-685 420.5,-666 551.5,-666 551.5,-685"/>
<text text-anchor="middle" x="486" y="-673" font-family="Helvetica,sans-Serif" font-size="10.00">P4::EBPF::EBPFProgram</text>
</a>
</g>
</g>
<!-- Node1&#45;&gt;Node41 -->
<g id="edge24_Node000001_Node000041" class="edge">
<title>Node1&#45;&gt;Node41</title>
<g id="a_edge24_Node000001_Node000041"><a xlink:title=" ">
<path fill="none" stroke="#63b8ff" d="M357.24,-700.98C382.87,-695.87 412.69,-689.92 437.07,-685.06"/>
<polygon fill="#63b8ff" stroke="#63b8ff" points="356.39,-697.58 347.27,-702.97 357.76,-704.45 356.39,-697.58"/>
</a>
</g>
</g>
<!-- Node53 -->
<g id="Node000053" class="node">
<title>Node53</title>
<g id="a_Node000053"><a xlink:href="class_p4_1_1_e_b_p_f_1_1_e_b_p_f_random_p_s_a.html" target="_top" xlink:title=" ">
<polygon fill="white" stroke="#bfbfbf" points="560.5,-648 411.5,-648 411.5,-629 560.5,-629 560.5,-648"/>
<text text-anchor="middle" x="486" y="-636" font-family="Helvetica,sans-Serif" font-size="10.00">P4::EBPF::EBPFRandomPSA</text>
</a>
</g>
</g>
<!-- Node1&#45;&gt;Node53 -->
<g id="edge28_Node000001_Node000053" class="edge">
<title>Node1&#45;&gt;Node53</title>
<g id="a_edge28_Node000001_Node000053"><a xlink:title=" ">
<path fill="none" stroke="#63b8ff" d="M321.06,-697.02C339.75,-684.31 367.99,-666.79 395,-656.5 403.93,-653.1 413.63,-650.3 423.23,-648.01"/>
<polygon fill="#63b8ff" stroke="#63b8ff" points="318.92,-694.25 312.69,-702.82 322.9,-700 318.92,-694.25"/>
</a>
</g>
</g>
<!-- Node54 -->
<g id="Node000054" class="node">
<title>Node54</title>
<g id="a_Node000054"><a xlink:href="class_p4_1_1_e_b_p_f_1_1_e_b_p_f_table_base.html" target="_top" xlink:title="Also used to represent counters.">
<polygon fill="white" stroke="#666666" points="555,-500 417,-500 417,-481 555,-481 555,-500"/>
<text text-anchor="middle" x="486" y="-488" font-family="Helvetica,sans-Serif" font-size="10.00">P4::EBPF::EBPFTableBase</text>
</a>
</g>
</g>
<!-- Node1&#45;&gt;Node54 -->
<g id="edge29_Node000001_Node000054" class="edge">
<title>Node1&#45;&gt;Node54</title>
<g id="a_edge29_Node000001_Node000054"><a xlink:title=" ">
<path fill="none" stroke="#63b8ff" d="M314.06,-695.08C351.2,-650.62 448.57,-534.1 477.06,-500"/>
<polygon fill="#63b8ff" stroke="#63b8ff" points="311.2,-693.04 307.47,-702.96 316.57,-697.53 311.2,-693.04"/>
</a>
</g>
</g>
<!-- Node69 -->
<g id="Node000069" class="node">
<title>Node69</title>
<g id="a_Node000069"><a xlink:href="class_p4_1_1_e_b_p_f_1_1_e_b_p_f_type.html" target="_top" xlink:title="Base class for EBPF types.">
<polygon fill="white" stroke="#666666" points="541.5,-260 430.5,-260 430.5,-241 541.5,-241 541.5,-260"/>
<text text-anchor="middle" x="486" y="-248" font-family="Helvetica,sans-Serif" font-size="10.00">P4::EBPF::EBPFType</text>
</a>
</g>
</g>
<!-- Node1&#45;&gt;Node69 -->
<g id="edge36_Node000001_Node000069" class="edge">
<title>Node1&#45;&gt;Node69</title>
<g id="a_edge36_Node000001_Node000069"><a xlink:title=" ">
<path fill="none" stroke="#63b8ff" d="M307.02,-693.33C323.07,-652.5 361.89,-553.92 395,-471.5 427.89,-389.62 468.36,-291 481.02,-260.18"/>
<polygon fill="#63b8ff" stroke="#63b8ff" points="303.69,-692.26 303.29,-702.84 310.2,-694.82 303.69,-692.26"/>
</a>
</g>
</g>
<!-- Node84 -->
<g id="Node000084" class="node">
<title>Node84</title>
<g id="a_Node000084"><a xlink:href="class_p4_1_1_u_b_p_f_1_1_u_b_p_f_deparser.html" target="_top" xlink:title=" ">
<polygon fill="white" stroke="#bfbfbf" points="554.5,-223 417.5,-223 417.5,-204 554.5,-204 554.5,-223"/>
<text text-anchor="middle" x="486" y="-211" font-family="Helvetica,sans-Serif" font-size="10.00">P4::UBPF::UBPFDeparser</text>
</a>
</g>
</g>
<!-- Node1&#45;&gt;Node84 -->
<g id="edge45_Node000001_Node000084" class="edge">
<title>Node1&#45;&gt;Node84</title>
<g id="a_edge45_Node000001_Node000084"><a xlink:title=" ">
<path fill="none" stroke="#63b8ff" d="M300.6,-692.4C305.53,-609.86 328.34,-298.25 395,-231.5 401.19,-225.3 408.88,-220.93 417.13,-217.9"/>
<polygon fill="#63b8ff" stroke="#63b8ff" points="297.08,-692.67 300,-702.85 304.07,-693.07 297.08,-692.67"/>
</a>
</g>
</g>
<!-- Node85 -->
<g id="Node000085" class="node">
<title>Node85</title>
<g id="a_Node000085"><a xlink:href="class_p4_1_1_u_b_p_f_1_1_u_b_p_f_table_base.html" target="_top" xlink:title=" ">
<polygon fill="white" stroke="#bfbfbf" points="556.5,-56 415.5,-56 415.5,-37 556.5,-37 556.5,-56"/>
<text text-anchor="middle" x="486" y="-44" font-family="Helvetica,sans-Serif" font-size="10.00">P4::UBPF::UBPFTableBase</text>
</a>
</g>
</g>
<!-- Node1&#45;&gt;Node85 -->
<g id="edge46_Node000001_Node000085" class="edge">
<title>Node1&#45;&gt;Node85</title>
<g id="a_edge46_Node000001_Node000085"><a xlink:title=" ">
<path fill="none" stroke="#63b8ff" d="M300.56,-692.93C304.85,-623.02 324.32,-379.85 395,-194.5 416.54,-138.02 459.74,-78.99 477.3,-56.24"/>
<polygon fill="#63b8ff" stroke="#63b8ff" points="297.06,-692.77 299.97,-702.96 304.05,-693.18 297.06,-692.77"/>
</a>
</g>
</g>
<!-- Node2 -->
<g id="Node000002" class="node">
<title>Node2</title>
<g id="a_Node000002"><a xlink:href="class_p4_1_1_i_castable.html" target="_top" xlink:title=" ">
<polygon fill="white" stroke="#666666" points="202,-722 122,-722 122,-703 202,-703 202,-722"/>
<text text-anchor="middle" x="162" y="-710" font-family="Helvetica,sans-Serif" font-size="10.00">P4::ICastable</text>
</a>
</g>
</g>
<!-- Node2&#45;&gt;Node1 -->
<g id="edge1_Node000001_Node000002" class="edge">
<title>Node2&#45;&gt;Node1</title>
<g id="a_edge1_Node000001_Node000002"><a xlink:title=" ">
<path fill="none" stroke="#63b8ff" d="M212.5,-712.5C220.77,-712.5 229.44,-712.5 237.93,-712.5"/>
<polygon fill="#63b8ff" stroke="#63b8ff" points="212.26,-709 202.26,-712.5 212.26,-716 212.26,-709"/>
</a>
</g>
</g>
<!-- Node3 -->
<g id="Node000003" class="node">
<title>Node3</title>
<g id="a_Node000003"><a xlink:href="struct_p4_1_1_r_t_t_i_1_1_base.html" target="_top" xlink:title=" ">
<polygon fill="white" stroke="#bfbfbf" points="86,-722 0,-722 0,-703 86,-703 86,-722"/>
<text text-anchor="middle" x="43" y="-710" font-family="Helvetica,sans-Serif" font-size="10.00">P4::RTTI::Base</text>
</a>
</g>
</g>
<!-- Node3&#45;&gt;Node2 -->
<g id="edge2_Node000002_Node000003" class="edge">
<title>Node3&#45;&gt;Node2</title>
<g id="a_edge2_Node000002_Node000003"><a xlink:title=" ">
<path fill="none" stroke="#63b8ff" d="M96.25,-712.5C104.88,-712.5 113.7,-712.5 121.94,-712.5"/>
<polygon fill="#63b8ff" stroke="#63b8ff" points="96.24,-709 86.24,-712.5 96.24,-716 96.24,-709"/>
</a>
</g>
</g>
<!-- Node5 -->
<g id="Node000005" class="node">
<title>Node5</title>
<g id="a_Node000005"><a xlink:href="class_p4_1_1_e_b_p_f_1_1_e_b_p_f_hash_p_s_a.html" target="_top" xlink:title=" ">
<polygon fill="white" stroke="#bfbfbf" points="779,-1189 645,-1189 645,-1170 779,-1170 779,-1189"/>
<text text-anchor="middle" x="712" y="-1177" font-family="Helvetica,sans-Serif" font-size="10.00">P4::EBPF::EBPFHashPSA</text>
</a>
</g>
</g>
<!-- Node4&#45;&gt;Node5 -->
<g id="edge4_Node000004_Node000005" class="edge">
<title>Node4&#45;&gt;Node5</title>
<g id="a_edge4_Node000004_Node000005"><a xlink:title=" ">
<path fill="none" stroke="#63b8ff" d="M525.04,-1136.18C549.88,-1144.16 583.14,-1154.28 613,-1161.5 625.95,-1164.63 639.97,-1167.51 653.25,-1170"/>
<polygon fill="#63b8ff" stroke="#63b8ff" points="525.87,-1132.77 515.28,-1133.01 523.71,-1139.43 525.87,-1132.77"/>
</a>
</g>
</g>
<!-- Node6 -->
<g id="Node000006" class="node">
<title>Node6</title>
<g id="a_Node000006"><a xlink:href="class_p4_1_1_e_b_p_f_1_1_e_b_p_f_internet_checksum_p_s_a.html" target="_top" xlink:title=" ">
<polygon fill="white" stroke="#bfbfbf" points="811,-1152 613,-1152 613,-1133 811,-1133 811,-1152"/>
<text text-anchor="middle" x="712" y="-1140" font-family="Helvetica,sans-Serif" font-size="10.00">P4::EBPF::EBPFInternetChecksumPSA</text>
</a>
</g>
</g>
<!-- Node4&#45;&gt;Node6 -->
<g id="edge5_Node000004_Node000006" class="edge">
<title>Node4&#45;&gt;Node6</title>
<g id="a_edge5_Node000004_Node000006"><a xlink:title=" ">
<path fill="none" stroke="#63b8ff" d="M576.31,-1131.08C588.36,-1132.1 600.78,-1133.15 612.97,-1134.18"/>
<polygon fill="#63b8ff" stroke="#63b8ff" points="576.55,-1127.58 566.29,-1130.23 575.96,-1134.56 576.55,-1127.58"/>
</a>
</g>
</g>
<!-- Node7 -->
<g id="Node000007" class="node">
<title>Node7</title>
<g id="a_Node000007"><a xlink:href="class_p4_1_1_t_c_1_1_e_b_p_f_checksum_p_n_a.html" target="_top" xlink:title=" ">
<polygon fill="white" stroke="#bfbfbf" points="786.5,-1115 637.5,-1115 637.5,-1096 786.5,-1096 786.5,-1115"/>
<text text-anchor="middle" x="712" y="-1103" font-family="Helvetica,sans-Serif" font-size="10.00">P4::TC::EBPFChecksumPNA</text>
</a>
</g>
</g>
<!-- Node4&#45;&gt;Node7 -->
<g id="edge6_Node000004_Node000007" class="edge">
<title>Node4&#45;&gt;Node7</title>
<g id="a_edge6_Node000004_Node000007"><a xlink:title=" ">
<path fill="none" stroke="#63b8ff" d="M576.44,-1116.31C596.68,-1114.69 617.94,-1112.98 637.44,-1111.41"/>
<polygon fill="#63b8ff" stroke="#63b8ff" points="575.98,-1112.84 566.29,-1117.13 576.54,-1119.82 575.98,-1112.84"/>
</a>
</g>
</g>
<!-- Node8 -->
<g id="Node000008" class="node">
<title>Node8</title>
<g id="a_Node000008"><a xlink:href="class_p4_1_1_t_c_1_1_e_b_p_f_internet_checksum_p_n_a.html" target="_top" xlink:title=" ">
<polygon fill="white" stroke="#bfbfbf" points="1034,-1115 847,-1115 847,-1096 1034,-1096 1034,-1115"/>
<text text-anchor="middle" x="940.5" y="-1103" font-family="Helvetica,sans-Serif" font-size="10.00">P4::TC::EBPFInternetChecksumPNA</text>
</a>
</g>
</g>
<!-- Node7&#45;&gt;Node8 -->
<g id="edge7_Node000007_Node000008" class="edge">
<title>Node7&#45;&gt;Node8</title>
<g id="a_edge7_Node000007_Node000008"><a xlink:title=" ">
<path fill="none" stroke="#63b8ff" d="M796.6,-1105.5C812.98,-1105.5 830.24,-1105.5 846.88,-1105.5"/>
<polygon fill="#63b8ff" stroke="#63b8ff" points="796.54,-1102 786.54,-1105.5 796.54,-1109 796.54,-1102"/>
</a>
</g>
</g>
<!-- Node10 -->
<g id="Node000010" class="node">
<title>Node10</title>
<g id="a_Node000010"><a xlink:href="class_p4_1_1_e_b_p_f_1_1_e_b_p_f_control_p_s_a.html" target="_top" xlink:title=" ">
<polygon fill="white" stroke="orangered" points="784,-1078 640,-1078 640,-1059 784,-1059 784,-1078"/>
<text text-anchor="middle" x="712" y="-1066" font-family="Helvetica,sans-Serif" font-size="10.00">P4::EBPF::EBPFControlPSA</text>
</a>
</g>
</g>
<!-- Node9&#45;&gt;Node10 -->
<g id="edge9_Node000009_Node000010" class="edge">
<title>Node9&#45;&gt;Node10</title>
<g id="a_edge9_Node000009_Node000010"><a xlink:title=" ">
<path fill="none" stroke="#63b8ff" d="M525.04,-1025.18C549.88,-1033.16 583.14,-1043.28 613,-1050.5 625.95,-1053.63 639.97,-1056.51 653.25,-1059"/>
<polygon fill="#63b8ff" stroke="#63b8ff" points="525.87,-1021.77 515.28,-1022.01 523.71,-1028.43 525.87,-1021.77"/>
</a>
</g>
</g>
<!-- Node12 -->
<g id="Node000012" class="node">
<title>Node12</title>
<g id="a_Node000012"><a xlink:href="class_p4_1_1_e_b_p_f_1_1_e_b_p_f_deparser.html" target="_top" xlink:title=" ">
<polygon fill="white" stroke="orangered" points="779,-1041 645,-1041 645,-1022 779,-1022 779,-1041"/>
<text text-anchor="middle" x="712" y="-1029" font-family="Helvetica,sans-Serif" font-size="10.00">P4::EBPF::EBPFDeparser</text>
</a>
</g>
</g>
<!-- Node9&#45;&gt;Node12 -->
<g id="edge10_Node000009_Node000012" class="edge">
<title>Node9&#45;&gt;Node12</title>
<g id="a_edge10_Node000009_Node000012"><a xlink:title=" ">
<path fill="none" stroke="#63b8ff" d="M558.53,-1018.57C586.23,-1020.92 617.76,-1023.59 644.92,-1025.9"/>
<polygon fill="#63b8ff" stroke="#63b8ff" points="558.77,-1015.07 548.51,-1017.72 558.17,-1022.05 558.77,-1015.07"/>
</a>
</g>
</g>
<!-- Node22 -->
<g id="Node000022" class="node">
<title>Node22</title>
<g id="a_Node000022"><a xlink:href="class_p4_1_1_u_b_p_f_1_1_u_b_p_f_control.html" target="_top" xlink:title=" ">
<polygon fill="white" stroke="#bfbfbf" points="776,-1004 648,-1004 648,-985 776,-985 776,-1004"/>
<text text-anchor="middle" x="712" y="-992" font-family="Helvetica,sans-Serif" font-size="10.00">P4::UBPF::UBPFControl</text>
</a>
</g>
</g>
<!-- Node9&#45;&gt;Node22 -->
<g id="edge11_Node000009_Node000022" class="edge">
<title>Node9&#45;&gt;Node22</title>
<g id="a_edge11_Node000009_Node000022"><a xlink:title=" ">
<path fill="none" stroke="#63b8ff" d="M558.83,-1006.73C587.41,-1004.43 620.01,-1001.81 647.68,-999.59"/>
<polygon fill="#63b8ff" stroke="#63b8ff" points="558.19,-1003.27 548.51,-1007.56 558.75,-1010.25 558.19,-1003.27"/>
</a>
</g>
</g>
<!-- Node24 -->
<g id="Node000024" class="node">
<title>Node24</title>
<g id="a_Node000024"><a xlink:href="class_p4_1_1_t_c_1_1_e_b_p_f_digest_p_n_a.html" target="_top" xlink:title=" ">
<polygon fill="white" stroke="#bfbfbf" points="776.5,-967 647.5,-967 647.5,-948 776.5,-948 776.5,-967"/>
<text text-anchor="middle" x="712" y="-955" font-family="Helvetica,sans-Serif" font-size="10.00">P4::TC::EBPFDigestPNA</text>
</a>
</g>
</g>
<!-- Node23&#45;&gt;Node24 -->
<g id="edge13_Node000023_Node000024" class="edge">
<title>Node23&#45;&gt;Node24</title>
<g id="a_edge13_Node000023_Node000024"><a xlink:title=" ">
<path fill="none" stroke="#63b8ff" d="M566.07,-940.03C592.63,-943.23 621.91,-946.76 647.15,-949.8"/>
<polygon fill="#63b8ff" stroke="#63b8ff" points="566.38,-936.54 556.04,-938.82 565.54,-943.49 566.38,-936.54"/>
</a>
</g>
</g>
<!-- Node26 -->
<g id="Node000026" class="node">
<title>Node26</title>
<g id="a_Node000026"><a xlink:href="class_p4_1_1_e_b_p_f_1_1_c_r_c_checksum_algorithm.html" target="_top" xlink:title=" ">
<polygon fill="white" stroke="orangered" points="804,-930 620,-930 620,-911 804,-911 804,-930"/>
<text text-anchor="middle" x="712" y="-918" font-family="Helvetica,sans-Serif" font-size="10.00">P4::EBPF::CRCChecksumAlgorithm</text>
</a>
</g>
</g>
<!-- Node25&#45;&gt;Node26 -->
<g id="edge15_Node000025_Node000026" class="edge">
<title>Node25&#45;&gt;Node26</title>
<g id="a_edge15_Node000025_Node000026"><a xlink:title=" ">
<path fill="none" stroke="#63b8ff" d="M518.31,-867.16C543.5,-877.73 580.01,-892.09 613,-901.5 625.83,-905.16 639.81,-908.34 653.09,-910.99"/>
<polygon fill="#63b8ff" stroke="#63b8ff" points="519.49,-863.86 508.91,-863.18 516.75,-870.3 519.49,-863.86"/>
</a>
</g>
</g>
<!-- Node32 -->
<g id="Node000032" class="node">
<title>Node32</title>
<g id="a_Node000032"><a xlink:href="class_p4_1_1_e_b_p_f_1_1_internet_checksum_algorithm.html" target="_top" xlink:title=" ">
<polygon fill="white" stroke="#bfbfbf" points="789,-892.5 635,-892.5 635,-862.5 789,-862.5 789,-892.5"/>
<text text-anchor="start" x="643" y="-880.5" font-family="Helvetica,sans-Serif" font-size="10.00">P4::EBPF::InternetChecksum</text>
<text text-anchor="middle" x="712" y="-869.5" font-family="Helvetica,sans-Serif" font-size="10.00">Algorithm</text>
</a>
</g>
</g>
<!-- Node25&#45;&gt;Node32 -->
<g id="edge16_Node000025_Node000032" class="edge">
<title>Node25&#45;&gt;Node32</title>
<g id="a_edge16_Node000025_Node000032"><a xlink:title=" ">
<path fill="none" stroke="#63b8ff" d="M586,-864.11C602.41,-865.86 619.19,-867.66 634.91,-869.35"/>
<polygon fill="#63b8ff" stroke="#63b8ff" points="586.17,-860.61 575.85,-863.02 585.42,-867.57 586.17,-860.61"/>
</a>
</g>
</g>
<!-- Node33 -->
<g id="Node000033" class="node">
<title>Node33</title>
<g id="a_Node000033"><a xlink:href="class_p4_1_1_t_c_1_1_internet_checksum_algorithm_p_n_a.html" target="_top" xlink:title=" ">
<polygon fill="white" stroke="#bfbfbf" points="783,-844.5 641,-844.5 641,-814.5 783,-814.5 783,-844.5"/>
<text text-anchor="start" x="649" y="-832.5" font-family="Helvetica,sans-Serif" font-size="10.00">P4::TC::InternetChecksum</text>
<text text-anchor="middle" x="712" y="-821.5" font-family="Helvetica,sans-Serif" font-size="10.00">AlgorithmPNA</text>
</a>
</g>
</g>
<!-- Node25&#45;&gt;Node33 -->
<g id="edge17_Node000025_Node000033" class="edge">
<title>Node25&#45;&gt;Node33</title>
<g id="a_edge17_Node000025_Node000033"><a xlink:title=" ">
<path fill="none" stroke="#63b8ff" d="M585.81,-842.91C604.38,-840.92 623.44,-838.88 640.91,-837.01"/>
<polygon fill="#63b8ff" stroke="#63b8ff" points="585.42,-839.43 575.85,-843.98 586.17,-846.39 585.42,-839.43"/>
</a>
</g>
</g>
<!-- Node36 -->
<g id="Node000036" class="node">
<title>Node36</title>
<g id="a_Node000036"><a xlink:href="class_p4_1_1_e_b_p_f_1_1_e_b_p_f_psa_parser.html" target="_top" xlink:title=" ">
<polygon fill="white" stroke="orangered" points="780.5,-796 643.5,-796 643.5,-777 780.5,-777 780.5,-796"/>
<text text-anchor="middle" x="712" y="-784" font-family="Helvetica,sans-Serif" font-size="10.00">P4::EBPF::EBPFPsaParser</text>
</a>
</g>
</g>
<!-- Node35&#45;&gt;Node36 -->
<g id="edge20_Node000035_Node000036" class="edge">
<title>Node35&#45;&gt;Node36</title>
<g id="a_edge20_Node000035_Node000036"><a xlink:title=" ">
<path fill="none" stroke="#63b8ff" d="M554.67,-760.68C586.08,-765.87 623.03,-771.97 653.12,-776.94"/>
<polygon fill="#63b8ff" stroke="#63b8ff" points="555.12,-757.2 544.69,-759.03 553.98,-764.11 555.12,-757.2"/>
</a>
</g>
</g>
<!-- Node38 -->
<g id="Node000038" class="node">
<title>Node38</title>
<g id="a_Node000038"><a xlink:href="class_p4_1_1_u_b_p_f_1_1_u_b_p_f_parser.html" target="_top" xlink:title=" ">
<polygon fill="white" stroke="#bfbfbf" points="773,-759 651,-759 651,-740 773,-740 773,-759"/>
<text text-anchor="middle" x="712" y="-747" font-family="Helvetica,sans-Serif" font-size="10.00">P4::UBPF::UBPFParser</text>
</a>
</g>
</g>
<!-- Node35&#45;&gt;Node38 -->
<g id="edge21_Node000035_Node000038" class="edge">
<title>Node35&#45;&gt;Node38</title>
<g id="a_edge21_Node000035_Node000038"><a xlink:title=" ">
<path fill="none" stroke="#63b8ff" d="M555.66,-749.5C586.06,-749.5 621.49,-749.5 650.83,-749.5"/>
<polygon fill="#63b8ff" stroke="#63b8ff" points="555.56,-746 545.56,-749.5 555.56,-753 555.56,-746"/>
</a>
</g>
</g>
<!-- Node40 -->
<g id="Node000040" class="node">
<title>Node40</title>
<g id="a_Node000040"><a xlink:href="class_p4_1_1_u_b_p_f_1_1_u_b_p_f_parser_state.html" target="_top" xlink:title=" ">
<polygon fill="white" stroke="#bfbfbf" points="786,-722 638,-722 638,-703 786,-703 786,-722"/>
<text text-anchor="middle" x="712" y="-710" font-family="Helvetica,sans-Serif" font-size="10.00">P4::UBPF::UBPFParserState</text>
</a>
</g>
</g>
<!-- Node39&#45;&gt;Node40 -->
<g id="edge23_Node000039_Node000040" class="edge">
<title>Node39&#45;&gt;Node40</title>
<g id="a_edge23_Node000039_Node000040"><a xlink:title=" ">
<path fill="none" stroke="#63b8ff" d="M569,-712.5C591.48,-712.5 615.72,-712.5 637.68,-712.5"/>
<polygon fill="#63b8ff" stroke="#63b8ff" points="568.8,-709 558.8,-712.5 568.8,-716 568.8,-709"/>
</a>
</g>
</g>
<!-- Node42 -->
<g id="Node000042" class="node">
<title>Node42</title>
<g id="a_Node000042"><a xlink:href="class_p4_1_1_e_b_p_f_1_1_e_b_p_f_pipeline.html" target="_top" xlink:title="EBPFPipeline represents a single eBPF program in the TC/XDP hook.">
<polygon fill="#fff0f0" stroke="red" points="776,-685 648,-685 648,-666 776,-666 776,-685"/>
<text text-anchor="middle" x="712" y="-673" font-family="Helvetica,sans-Serif" font-size="10.00">P4::EBPF::EBPFPipeline</text>
</a>
</g>
</g>
<!-- Node41&#45;&gt;Node42 -->
<g id="edge25_Node000041_Node000042" class="edge">
<title>Node41&#45;&gt;Node42</title>
<g id="a_edge25_Node000041_Node000042"><a xlink:title=" ">
<path fill="none" stroke="#63b8ff" d="M561.9,-675.5C589.8,-675.5 621.16,-675.5 647.9,-675.5"/>
<polygon fill="#63b8ff" stroke="#63b8ff" points="561.79,-672 551.79,-675.5 561.79,-679 561.79,-672"/>
</a>
</g>
</g>
<!-- Node51 -->
<g id="Node000051" class="node">
<title>Node51</title>
<g id="a_Node000051"><a xlink:href="class_p4_1_1_e_b_p_f_1_1_x_d_p_help_program.html" target="_top" xlink:title=" ">
<polygon fill="white" stroke="#bfbfbf" points="786.5,-648 637.5,-648 637.5,-629 786.5,-629 786.5,-648"/>
<text text-anchor="middle" x="712" y="-636" font-family="Helvetica,sans-Serif" font-size="10.00">P4::EBPF::XDPHelpProgram</text>
</a>
</g>
</g>
<!-- Node41&#45;&gt;Node51 -->
<g id="edge26_Node000041_Node000051" class="edge">
<title>Node41&#45;&gt;Node51</title>
<g id="a_edge26_Node000041_Node000051"><a xlink:title=" ">
<path fill="none" stroke="#63b8ff" d="M554.67,-664.32C586.08,-659.13 623.03,-653.03 653.12,-648.06"/>
<polygon fill="#63b8ff" stroke="#63b8ff" points="553.98,-660.89 544.69,-665.97 555.12,-667.8 553.98,-660.89"/>
</a>
</g>
</g>
<!-- Node52 -->
<g id="Node000052" class="node">
<title>Node52</title>
<g id="a_Node000052"><a xlink:href="class_p4_1_1_u_b_p_f_1_1_u_b_p_f_program.html" target="_top" xlink:title=" ">
<polygon fill="white" stroke="#bfbfbf" points="779,-611 645,-611 645,-592 779,-592 779,-611"/>
<text text-anchor="middle" x="712" y="-599" font-family="Helvetica,sans-Serif" font-size="10.00">P4::UBPF::UBPFProgram</text>
</a>
</g>
</g>
<!-- Node41&#45;&gt;Node52 -->
<g id="edge27_Node000041_Node000052" class="edge">
<title>Node41&#45;&gt;Node52</title>
<g id="a_edge27_Node000041_Node000052"><a xlink:title=" ">
<path fill="none" stroke="#63b8ff" d="M561.47,-663.5C566.87,-661.51 572.1,-659.2 577,-656.5 597.1,-645.43 592.76,-630.31 613,-619.5 622.77,-614.29 633.77,-610.55 644.79,-607.89"/>
<polygon fill="#63b8ff" stroke="#63b8ff" points="560.03,-660.29 551.62,-666.73 562.21,-666.94 560.03,-660.29"/>
</a>
</g>
</g>
<!-- Node55 -->
<g id="Node000055" class="node">
<title>Node55</title>
<g id="a_Node000055"><a xlink:href="class_p4_1_1_e_b_p_f_1_1_e_b_p_f_counter_table.html" target="_top" xlink:title=" ">
<polygon fill="white" stroke="orangered" points="788.5,-574 635.5,-574 635.5,-555 788.5,-555 788.5,-574"/>
<text text-anchor="middle" x="712" y="-562" font-family="Helvetica,sans-Serif" font-size="10.00">P4::EBPF::EBPFCounterTable</text>
</a>
</g>
</g>
<!-- Node54&#45;&gt;Node55 -->
<g id="edge30_Node000054_Node000055" class="edge">
<title>Node54&#45;&gt;Node55</title>
<g id="a_edge30_Node000054_Node000055"><a xlink:title=" ">
<path fill="none" stroke="#63b8ff" d="M514.54,-504.63C539.63,-516.99 577.99,-534.61 613,-545.5 625,-549.23 638.06,-552.37 650.62,-554.96"/>
<polygon fill="#63b8ff" stroke="#63b8ff" points="515.81,-501.35 505.29,-500.02 512.68,-507.61 515.81,-501.35"/>
</a>
</g>
</g>
<!-- Node58 -->
<g id="Node000058" class="node">
<title>Node58</title>
<g id="a_Node000058"><a xlink:href="class_p4_1_1_e_b_p_f_1_1_e_b_p_f_meter_p_s_a.html" target="_top" xlink:title=" ">
<polygon fill="white" stroke="orangered" points="780.5,-537 643.5,-537 643.5,-518 780.5,-518 780.5,-537"/>
<text text-anchor="middle" x="712" y="-525" font-family="Helvetica,sans-Serif" font-size="10.00">P4::EBPF::EBPFMeterPSA</text>
</a>
</g>
</g>
<!-- Node54&#45;&gt;Node58 -->
<g id="edge31_Node000054_Node000058" class="edge">
<title>Node54&#45;&gt;Node58</title>
<g id="a_edge31_Node000054_Node000058"><a xlink:title=" ">
<path fill="none" stroke="#63b8ff" d="M554.67,-501.68C586.08,-506.87 623.03,-512.97 653.12,-517.94"/>
<polygon fill="#63b8ff" stroke="#63b8ff" points="555.12,-498.2 544.69,-500.03 553.98,-505.11 555.12,-498.2"/>
</a>
</g>
</g>
<!-- Node60 -->
<g id="Node000060" class="node">
<title>Node60</title>
<g id="a_Node000060"><a xlink:href="class_p4_1_1_e_b_p_f_1_1_e_b_p_f_register_p_s_a.html" target="_top" xlink:title=" ">
<polygon fill="white" stroke="#bfbfbf" points="786.5,-500 637.5,-500 637.5,-481 786.5,-481 786.5,-500"/>
<text text-anchor="middle" x="712" y="-488" font-family="Helvetica,sans-Serif" font-size="10.00">P4::EBPF::EBPFRegisterPSA</text>
</a>
</g>
</g>
<!-- Node54&#45;&gt;Node60 -->
<g id="edge32_Node000054_Node000060" class="edge">
<title>Node54&#45;&gt;Node60</title>
<g id="a_edge32_Node000054_Node000060"><a xlink:title=" ">
<path fill="none" stroke="#63b8ff" d="M565.35,-490.5C588.74,-490.5 614.28,-490.5 637.36,-490.5"/>
<polygon fill="#63b8ff" stroke="#63b8ff" points="565.12,-487 555.12,-490.5 565.12,-494 565.12,-487"/>
</a>
</g>
</g>
<!-- Node61 -->
<g id="Node000061" class="node">
<title>Node61</title>
<g id="a_Node000061"><a xlink:href="class_p4_1_1_e_b_p_f_1_1_e_b_p_f_table.html" target="_top" xlink:title=" ">
<polygon fill="white" stroke="orangered" points="769,-463 655,-463 655,-444 769,-444 769,-463"/>
<text text-anchor="middle" x="712" y="-451" font-family="Helvetica,sans-Serif" font-size="10.00">P4::EBPF::EBPFTable</text>
</a>
</g>
</g>
<!-- Node54&#45;&gt;Node61 -->
<g id="edge33_Node000054_Node000061" class="edge">
<title>Node54&#45;&gt;Node61</title>
<g id="a_edge33_Node000054_Node000061"><a xlink:title=" ">
<path fill="none" stroke="#63b8ff" d="M554.83,-479.3C586.75,-474.02 624.36,-467.81 654.67,-462.8"/>
<polygon fill="#63b8ff" stroke="#63b8ff" points="553.98,-475.89 544.69,-480.97 555.12,-482.8 553.98,-475.89"/>
</a>
</g>
</g>
<!-- Node67 -->
<g id="Node000067" class="node">
<title>Node67</title>
<g id="a_Node000067"><a xlink:href="class_p4_1_1_e_b_p_f_1_1_e_b_p_f_value_set.html" target="_top" xlink:title=" ">
<polygon fill="white" stroke="#bfbfbf" points="778,-426 646,-426 646,-407 778,-407 778,-426"/>
<text text-anchor="middle" x="712" y="-414" font-family="Helvetica,sans-Serif" font-size="10.00">P4::EBPF::EBPFValueSet</text>
</a>
</g>
</g>
<!-- Node54&#45;&gt;Node67 -->
<g id="edge34_Node000054_Node000067" class="edge">
<title>Node54&#45;&gt;Node67</title>
<g id="a_edge34_Node000054_Node000067"><a xlink:title=" ">
<path fill="none" stroke="#63b8ff" d="M514.06,-476.22C539.09,-463.56 577.67,-445.43 613,-434.5 623.82,-431.15 635.53,-428.34 646.95,-426.01"/>
<polygon fill="#63b8ff" stroke="#63b8ff" points="512.14,-473.27 504.84,-480.95 515.34,-479.5 512.14,-473.27"/>
</a>
</g>
</g>
<!-- Node68 -->
<g id="Node000068" class="node">
<title>Node68</title>
<g id="a_Node000068"><a xlink:href="class_p4_1_1_t_c_1_1_e_b_p_f_register_p_n_a.html" target="_top" xlink:title=" ">
<polygon fill="white" stroke="#bfbfbf" points="781,-389 643,-389 643,-370 781,-370 781,-389"/>
<text text-anchor="middle" x="712" y="-377" font-family="Helvetica,sans-Serif" font-size="10.00">P4::TC::EBPFRegisterPNA</text>
</a>
</g>
</g>
<!-- Node54&#45;&gt;Node68 -->
<g id="edge35_Node000054_Node000068" class="edge">
<title>Node54&#45;&gt;Node68</title>
<g id="a_edge35_Node000054_Node000068"><a xlink:title=" ">
<path fill="none" stroke="#63b8ff" d="M504.27,-473.65C527.14,-452.37 569.67,-416.27 613,-397.5 622.37,-393.44 632.62,-390.3 642.85,-387.87"/>
<polygon fill="#63b8ff" stroke="#63b8ff" points="501.62,-471.35 496.77,-480.76 506.43,-476.43 501.62,-471.35"/>
</a>
</g>
</g>
<!-- Node70 -->
<g id="Node000070" class="node">
<title>Node70</title>
<g id="a_Node000070"><a xlink:href="class_p4_1_1_e_b_p_f_1_1_e_b_p_f_bool_type.html" target="_top" xlink:title=" ">
<polygon fill="white" stroke="orangered" points="779,-352 645,-352 645,-333 779,-333 779,-352"/>
<text text-anchor="middle" x="712" y="-340" font-family="Helvetica,sans-Serif" font-size="10.00">P4::EBPF::EBPFBoolType</text>
</a>
</g>
</g>
<!-- Node69&#45;&gt;Node70 -->
<g id="edge37_Node000069_Node000070" class="edge">
<title>Node69&#45;&gt;Node70</title>
<g id="a_edge37_Node000069_Node000070"><a xlink:title=" ">
<path fill="none" stroke="#63b8ff" d="M508.67,-266.09C532.92,-282.8 573.95,-308.88 613,-323.5 623.31,-327.36 634.53,-330.47 645.58,-332.97"/>
<polygon fill="#63b8ff" stroke="#63b8ff" points="510.43,-263.05 500.23,-260.19 506.42,-268.79 510.43,-263.05"/>
</a>
</g>
</g>
<!-- Node72 -->
<g id="Node000072" class="node">
<title>Node72</title>
<g id="a_Node000072"><a xlink:href="class_p4_1_1_e_b_p_f_1_1_e_b_p_f_enum_type.html" target="_top" xlink:title=" ">
<polygon fill="white" stroke="orangered" points="782,-315 642,-315 642,-296 782,-296 782,-315"/>
<text text-anchor="middle" x="712" y="-303" font-family="Helvetica,sans-Serif" font-size="10.00">P4::EBPF::EBPFEnumType</text>
</a>
</g>
</g>
<!-- Node69&#45;&gt;Node72 -->
<g id="edge38_Node000069_Node000072" class="edge">
<title>Node69&#45;&gt;Node72</title>
<g id="a_edge38_Node000069_Node000072"><a xlink:title=" ">
<path fill="none" stroke="#63b8ff" d="M527.33,-262.99C551.94,-270.37 584.12,-279.59 613,-286.5 627.33,-289.93 642.94,-293.18 657.41,-295.98"/>
<polygon fill="#63b8ff" stroke="#63b8ff" points="528.2,-259.59 517.61,-260.05 526.17,-266.3 528.2,-259.59"/>
</a>
</g>
</g>
<!-- Node74 -->
<g id="Node000074" class="node">
<title>Node74</title>
<g id="a_Node000074"><a xlink:href="class_p4_1_1_e_b_p_f_1_1_e_b_p_f_error_type.html" target="_top" xlink:title=" ">
<polygon fill="white" stroke="orangered" points="779.5,-278 644.5,-278 644.5,-259 779.5,-259 779.5,-278"/>
<text text-anchor="middle" x="712" y="-266" font-family="Helvetica,sans-Serif" font-size="10.00">P4::EBPF::EBPFErrorType</text>
</a>
</g>
</g>
<!-- Node69&#45;&gt;Node74 -->
<g id="edge39_Node000069_Node000074" class="edge">
<title>Node69&#45;&gt;Node74</title>
<g id="a_edge39_Node000069_Node000074"><a xlink:title=" ">
<path fill="none" stroke="#63b8ff" d="M551.55,-255.69C580.62,-258.02 614.9,-260.78 644.22,-263.13"/>
<polygon fill="#63b8ff" stroke="#63b8ff" points="551.76,-252.19 541.51,-254.88 551.2,-259.17 551.76,-252.19"/>
</a>
</g>
</g>
<!-- Node76 -->
<g id="Node000076" class="node">
<title>Node76</title>
<g id="a_Node000076"><a xlink:href="class_p4_1_1_e_b_p_f_1_1_e_b_p_f_scalar_type.html" target="_top" xlink:title=" ">
<polygon fill="white" stroke="orangered" points="782.5,-241 641.5,-241 641.5,-222 782.5,-222 782.5,-241"/>
<text text-anchor="middle" x="712" y="-229" font-family="Helvetica,sans-Serif" font-size="10.00">P4::EBPF::EBPFScalarType</text>
</a>
</g>
</g>
<!-- Node69&#45;&gt;Node76 -->
<g id="edge40_Node000069_Node000076" class="edge">
<title>Node69&#45;&gt;Node76</title>
<g id="a_edge40_Node000069_Node000076"><a xlink:title=" ">
<path fill="none" stroke="#63b8ff" d="M551.62,-245.02C579.72,-242.64 612.69,-239.84 641.33,-237.41"/>
<polygon fill="#63b8ff" stroke="#63b8ff" points="551.18,-241.54 541.51,-245.88 551.77,-248.52 551.18,-241.54"/>
</a>
</g>
</g>
<!-- Node79 -->
<g id="Node000079" class="node">
<title>Node79</title>
<g id="a_Node000079"><a xlink:href="class_p4_1_1_e_b_p_f_1_1_e_b_p_f_stack_type.html" target="_top" xlink:title=" ">
<polygon fill="white" stroke="#bfbfbf" points="781,-204 643,-204 643,-185 781,-185 781,-204"/>
<text text-anchor="middle" x="712" y="-192" font-family="Helvetica,sans-Serif" font-size="10.00">P4::EBPF::EBPFStackType</text>
</a>
</g>
</g>
<!-- Node69&#45;&gt;Node79 -->
<g id="edge41_Node000069_Node000079" class="edge">
<title>Node69&#45;&gt;Node79</title>
<g id="a_edge41_Node000069_Node000079"><a xlink:title=" ">
<path fill="none" stroke="#63b8ff" d="M551.92,-239.06C560.46,-236.89 569.01,-234.39 577,-231.5 594.01,-225.35 595.91,-218.42 613,-212.5 622.81,-209.1 633.4,-206.31 643.87,-204.02"/>
<polygon fill="#63b8ff" stroke="#63b8ff" points="550.85,-235.71 541.94,-241.44 552.47,-242.52 550.85,-235.71"/>
</a>
</g>
</g>
<!-- Node80 -->
<g id="Node000080" class="node">
<title>Node80</title>
<g id="a_Node000080"><a xlink:href="class_p4_1_1_e_b_p_f_1_1_e_b_p_f_struct_type.html" target="_top" xlink:title="Also represents headers and unions.">
<polygon fill="#fff0f0" stroke="red" points="782,-167 642,-167 642,-148 782,-148 782,-167"/>
<text text-anchor="middle" x="712" y="-155" font-family="Helvetica,sans-Serif" font-size="10.00">P4::EBPF::EBPFStructType</text>
</a>
</g>
</g>
<!-- Node69&#45;&gt;Node80 -->
<g id="edge42_Node000069_Node000080" class="edge">
<title>Node69&#45;&gt;Node80</title>
<g id="a_edge42_Node000069_Node000080"><a xlink:title=" ">
<path fill="none" stroke="#63b8ff" d="M551.54,-243.42C560.58,-240.61 569.37,-236.76 577,-231.5 601.36,-214.7 588.42,-191.98 613,-175.5 621.62,-169.72 631.58,-165.66 641.79,-162.83"/>
<polygon fill="#63b8ff" stroke="#63b8ff" points="550.43,-240.1 541.68,-246.08 552.25,-246.86 550.43,-240.1"/>
</a>
</g>
</g>
<!-- Node82 -->
<g id="Node000082" class="node">
<title>Node82</title>
<g id="a_Node000082"><a xlink:href="class_p4_1_1_e_b_p_f_1_1_e_b_p_f_type_name.html" target="_top" xlink:title="This should not always implement IHasWidth, but it may...">
<polygon fill="white" stroke="#666666" points="782,-130 642,-130 642,-111 782,-111 782,-130"/>
<text text-anchor="middle" x="712" y="-118" font-family="Helvetica,sans-Serif" font-size="10.00">P4::EBPF::EBPFTypeName</text>
</a>
</g>
</g>
<!-- Node69&#45;&gt;Node82 -->
<g id="edge43_Node000069_Node000082" class="edge">
<title>Node69&#45;&gt;Node82</title>
<g id="a_edge43_Node000069_Node000082"><a xlink:title=" ">
<path fill="none" stroke="#63b8ff" d="M551.6,-245.08C560.85,-242.07 569.69,-237.72 577,-231.5 610.76,-202.79 578.86,-166.77 613,-138.5 621.33,-131.61 631.43,-127 641.94,-123.99"/>
<polygon fill="#63b8ff" stroke="#63b8ff" points="550.57,-241.73 541.86,-247.75 552.43,-248.48 550.57,-241.73"/>
</a>
</g>
</g>
<!-- Node83 -->
<g id="Node000083" class="node">
<title>Node83</title>
<g id="a_Node000083"><a xlink:href="class_p4_1_1_u_b_p_f_1_1_u_b_p_f_list_type.html" target="_top" xlink:title=" ">
<polygon fill="white" stroke="#bfbfbf" points="778,-93 646,-93 646,-74 778,-74 778,-93"/>
<text text-anchor="middle" x="712" y="-81" font-family="Helvetica,sans-Serif" font-size="10.00">P4::UBPF::UBPFListType</text>
</a>
</g>
</g>
<!-- Node69&#45;&gt;Node83 -->
<g id="edge44_Node000069_Node000083" class="edge">
<title>Node69&#45;&gt;Node83</title>
<g id="a_edge44_Node000069_Node000083"><a xlink:title=" ">
<path fill="none" stroke="#63b8ff" d="M551.17,-246.02C560.71,-242.93 569.76,-238.31 577,-231.5 620.69,-190.44 568.77,-141.98 613,-101.5 622.12,-93.15 633.8,-88.06 645.88,-85.06"/>
<polygon fill="#63b8ff" stroke="#63b8ff" points="550.26,-242.64 541.52,-248.63 552.09,-249.4 550.26,-242.64"/>
</a>
</g>
</g>
<!-- Node86 -->
<g id="Node000086" class="node">
<title>Node86</title>
<g id="a_Node000086"><a xlink:href="class_p4_1_1_u_b_p_f_1_1_u_b_p_f_register.html" target="_top" xlink:title=" ">
<polygon fill="white" stroke="#bfbfbf" points="778.5,-56 645.5,-56 645.5,-37 778.5,-37 778.5,-56"/>
<text text-anchor="middle" x="712" y="-44" font-family="Helvetica,sans-Serif" font-size="10.00">P4::UBPF::UBPFRegister</text>
</a>
</g>
</g>
<!-- Node85&#45;&gt;Node86 -->
<g id="edge47_Node000085_Node000086" class="edge">
<title>Node85&#45;&gt;Node86</title>
<g id="a_edge47_Node000085_Node000086"><a xlink:title=" ">
<path fill="none" stroke="#63b8ff" d="M566.74,-46.5C592.45,-46.5 620.64,-46.5 645.22,-46.5"/>
<polygon fill="#63b8ff" stroke="#63b8ff" points="566.65,-43 556.65,-46.5 566.65,-50 566.65,-43"/>
</a>
</g>
</g>
<!-- Node87 -->
<g id="Node000087" class="node">
<title>Node87</title>
<g id="a_Node000087"><a xlink:href="class_p4_1_1_u_b_p_f_1_1_u_b_p_f_table.html" target="_top" xlink:title=" ">
<polygon fill="white" stroke="#bfbfbf" points="770.5,-19 653.5,-19 653.5,0 770.5,0 770.5,-19"/>
<text text-anchor="middle" x="712" y="-7" font-family="Helvetica,sans-Serif" font-size="10.00">P4::UBPF::UBPFTable</text>
</a>
</g>
</g>
<!-- Node85&#45;&gt;Node87 -->
<g id="edge48_Node000085_Node000087" class="edge">
<title>Node85&#45;&gt;Node87</title>
<g id="a_edge48_Node000085_Node000087"><a xlink:title=" ">
<path fill="none" stroke="#63b8ff" d="M554.67,-35.32C586.08,-30.13 623.03,-24.03 653.12,-19.06"/>
<polygon fill="#63b8ff" stroke="#63b8ff" points="553.98,-31.89 544.69,-36.97 555.12,-38.8 553.98,-31.89"/>
</a>
</g>
</g>
</g>
</svg>

<g id="navigator" transform="translate(0 0)" fill="#404254">
  <rect fill="#f2f5e9" fill-opacity="0.5" stroke="#606060" stroke-width=".5" x="0" y="0" width="60" height="60"/>
  <use id="zoomplus" xlink:href="#zoomPlus" x="17" y="9" onmousedown="handleZoom(evt,'in')"/>
  <use id="zoomminus" xlink:href="#zoomMin" x="42" y="9" onmousedown="handleZoom(evt,'out')"/>
  <use id="reset" xlink:href="#resetDef" x="30" y="36" onmousedown="handleReset()"/>
   <use id="arrowup" xlink:href="#arrowUp" x="0" y="0" onmousedown="handlePan(0,-1)"/>
  <use id="arrowright" xlink:href="#arrowRight" x="0" y="0" onmousedown="handlePan(1,0)"/>
  <use id="arrowdown" xlink:href="#arrowDown" x="0" y="0" onmousedown="handlePan(0,1)"/>
  <use id="arrowleft" xlink:href="#arrowLeft" x="0" y="0" onmousedown="handlePan(-1,0)"/>
</g>
<svg viewBox="0 0 15 15" width="100%" height="30px" preserveAspectRatio="xMaxYMin meet">
 <g id="arrow_out" transform="scale(0.3 0.3)">
  <a xlink:href="class_p4_1_1_e_b_p_f_1_1_e_b_p_f_object__inherit__graph_org.svg" target="_base">
   <rect id="button" ry="5" rx="5" y="6" x="6" height="38" width="38"
        fill="#f2f5e9" fill-opacity="0.5" stroke="#606060" stroke-width="1.0"/>
   <path id="arrow"
     d="M 11.500037,31.436501 C 11.940474,20.09759 22.043105,11.32322 32.158766,21.979434 L 37.068811,17.246167 C 37.068811,17.246167 37.088388,32 37.088388,32 L 22.160133,31.978069 C 22.160133,31.978069 26.997745,27.140456 26.997745,27.140456 C 18.528582,18.264221 13.291696,25.230495 11.500037,31.436501 z"
     style="fill:#404040;"/>
  </a>
 </g>
</svg>

<style type='text/css'>
<![CDATA[
[data-mouse-over-selected='false'] { opacity: 0.7; }
[data-mouse-over-selected='true']  { opacity: 1.0; }
]]>
</style>
<script type="application/ecmascript"><![CDATA[
document.addEventListener('DOMContentLoaded', (event) => {
  highlightEdges();
  highlightAdjacentNodes();
});
]]></script>
</svg>
