<?xml version="1.0" encoding="UTF-8" standalone="no"?>
<!DOCTYPE svg PUBLIC "-//W3C//DTD SVG 1.1//EN"
 "http://www.w3.org/Graphics/SVG/1.1/DTD/svg11.dtd">
<!-- Generated by graphviz version 2.43.0 (0)
 -->
<!-- Title: P4::ChooseEnumRepresentation Pages: 1 -->
<svg width="376pt" height="249pt"
 viewBox="0.00 0.00 376.00 249.00" xmlns="http://www.w3.org/2000/svg" xmlns:xlink="http://www.w3.org/1999/xlink">

<svg id="main" version="1.1" xmlns="http://www.w3.org/2000/svg" xmlns:xlink="http://www.w3.org/1999/xlink" xml:space="preserve">

<style type="text/css"><![CDATA[
.node, .edge {opacity: 0.7;}
.node.selected, .edge.selected {opacity: 1;}
.edge:hover path { stroke: red; }
.edge:hover polygon { stroke: red; fill: red; }
]]></style>
<script type="application/ecmascript" xlink:href="svg.min.js"/>
<svg id="graph" class="graph">
<g id="graph0" class="graph" transform="scale(1 1) rotate(0) translate(4 245)">
<title>P4::ChooseEnumRepresentation</title>
<!-- Node1 -->
<g id="Node000001" class="node">
<title>Node1</title>
<g id="a_Node000001"><a xlink:title=" ">
<polygon fill="#999999" stroke="#666666" points="173,-130 0,-130 0,-111 173,-111 173,-130"/>
<text text-anchor="middle" x="86.5" y="-118" font-family="Helvetica,sans-Serif" font-size="10.00">P4::ChooseEnumRepresentation</text>
</a>
</g>
</g>
<!-- Node2 -->
<g id="Node000002" class="node">
<title>Node2</title>
<g id="a_Node000002"><a xlink:href="class_p4_1_1_b_m_v2_1_1_enum_on32_bits.html" target="_top" xlink:title=" ">
<polygon fill="white" stroke="#666666" points="359,-241 218,-241 218,-222 359,-222 359,-241"/>
<text text-anchor="middle" x="288.5" y="-229" font-family="Helvetica,sans-Serif" font-size="10.00">P4::BMV2::EnumOn32Bits</text>
</a>
</g>
</g>
<!-- Node1&#45;&gt;Node2 -->
<g id="edge1_Node000001_Node000002" class="edge">
<title>Node1&#45;&gt;Node2</title>
<g id="a_edge1_Node000001_Node000002"><a xlink:title=" ">
<path fill="none" stroke="#63b8ff" d="M104.16,-137.08C126.23,-158.08 167.25,-193.88 209,-213.5 216.21,-216.89 224.11,-219.66 232.02,-221.93"/>
<polygon fill="#63b8ff" stroke="#63b8ff" points="106.54,-134.51 96.92,-130.07 101.67,-139.54 106.54,-134.51"/>
</a>
</g>
</g>
<!-- Node3 -->
<g id="Node000003" class="node">
<title>Node3</title>
<g id="a_Node000003"><a xlink:href="class_p4_1_1_b_m_v2_1_1_pna_enum_on32_bits.html" target="_top" xlink:title=" ">
<polygon fill="white" stroke="#666666" points="368,-204 209,-204 209,-185 368,-185 368,-204"/>
<text text-anchor="middle" x="288.5" y="-192" font-family="Helvetica,sans-Serif" font-size="10.00">P4::BMV2::PnaEnumOn32Bits</text>
</a>
</g>
</g>
<!-- Node1&#45;&gt;Node3 -->
<g id="edge2_Node000001_Node000003" class="edge">
<title>Node1&#45;&gt;Node3</title>
<g id="a_edge2_Node000001_Node000003"><a xlink:title=" ">
<path fill="none" stroke="#63b8ff" d="M114.06,-134.68C138.24,-147.13 175.23,-164.98 209,-176.5 218.4,-179.7 228.62,-182.52 238.49,-184.91"/>
<polygon fill="#63b8ff" stroke="#63b8ff" points="115.62,-131.55 105.14,-130.04 112.39,-137.76 115.62,-131.55"/>
</a>
</g>
</g>
<!-- Node4 -->
<g id="Node000004" class="node">
<title>Node4</title>
<g id="a_Node000004"><a xlink:href="class_p4_1_1_b_m_v2_1_1_psa_enum_on32_bits.html" target="_top" xlink:title=" ">
<polygon fill="white" stroke="#666666" points="367.5,-167 209.5,-167 209.5,-148 367.5,-148 367.5,-167"/>
<text text-anchor="middle" x="288.5" y="-155" font-family="Helvetica,sans-Serif" font-size="10.00">P4::BMV2::PsaEnumOn32Bits</text>
</a>
</g>
</g>
<!-- Node1&#45;&gt;Node4 -->
<g id="edge3_Node000001_Node000004" class="edge">
<title>Node1&#45;&gt;Node4</title>
<g id="a_edge3_Node000001_Node000004"><a xlink:title=" ">
<path fill="none" stroke="#63b8ff" d="M149.02,-131.88C176.82,-137.02 209.3,-143.03 235.82,-147.94"/>
<polygon fill="#63b8ff" stroke="#63b8ff" points="149.47,-128.41 139,-130.03 148.2,-135.29 149.47,-128.41"/>
</a>
</g>
</g>
<!-- Node5 -->
<g id="Node000005" class="node">
<title>Node5</title>
<g id="a_Node000005"><a xlink:href="class_p4_1_1_d_p_d_k_1_1_enum_on32_bits.html" target="_top" xlink:title=" ">
<polygon fill="white" stroke="#666666" points="358.5,-130 218.5,-130 218.5,-111 358.5,-111 358.5,-130"/>
<text text-anchor="middle" x="288.5" y="-118" font-family="Helvetica,sans-Serif" font-size="10.00">P4::DPDK::EnumOn32Bits</text>
</a>
</g>
</g>
<!-- Node1&#45;&gt;Node5 -->
<g id="edge4_Node000001_Node000005" class="edge">
<title>Node1&#45;&gt;Node5</title>
<g id="a_edge4_Node000001_Node000005"><a xlink:title=" ">
<path fill="none" stroke="#63b8ff" d="M183.47,-120.5C195.22,-120.5 207.03,-120.5 218.28,-120.5"/>
<polygon fill="#63b8ff" stroke="#63b8ff" points="183.19,-117 173.19,-120.5 183.19,-124 183.19,-117"/>
</a>
</g>
</g>
<!-- Node6 -->
<g id="Node000006" class="node">
<title>Node6</title>
<g id="a_Node000006"><a xlink:href="class_p4_1_1_e_b_p_f_1_1_enum_on32_bits.html" target="_top" xlink:title=" ">
<polygon fill="white" stroke="#bfbfbf" points="357,-93 220,-93 220,-74 357,-74 357,-93"/>
<text text-anchor="middle" x="288.5" y="-81" font-family="Helvetica,sans-Serif" font-size="10.00">P4::EBPF::EnumOn32Bits</text>
</a>
</g>
</g>
<!-- Node1&#45;&gt;Node6 -->
<g id="edge5_Node000001_Node000006" class="edge">
<title>Node1&#45;&gt;Node6</title>
<g id="a_edge5_Node000001_Node000006"><a xlink:title=" ">
<path fill="none" stroke="#63b8ff" d="M149.02,-109.12C176.82,-103.98 209.3,-97.97 235.82,-93.06"/>
<polygon fill="#63b8ff" stroke="#63b8ff" points="148.2,-105.71 139,-110.97 149.47,-112.59 148.2,-105.71"/>
</a>
</g>
</g>
<!-- Node7 -->
<g id="Node000007" class="node">
<title>Node7</title>
<g id="a_Node000007"><a xlink:href="class_p4_1_1_enum_on32_bits.html" target="_top" xlink:title=" ">
<polygon fill="white" stroke="#666666" points="342,-56 235,-56 235,-37 342,-37 342,-56"/>
<text text-anchor="middle" x="288.5" y="-44" font-family="Helvetica,sans-Serif" font-size="10.00">P4::EnumOn32Bits</text>
</a>
</g>
</g>
<!-- Node1&#45;&gt;Node7 -->
<g id="edge6_Node000001_Node000007" class="edge">
<title>Node1&#45;&gt;Node7</title>
<g id="a_edge6_Node000001_Node000007"><a xlink:title=" ">
<path fill="none" stroke="#63b8ff" d="M114.96,-106.27C139.2,-94.15 175.75,-76.94 209,-65.5 219.48,-61.9 230.96,-58.71 241.84,-56.02"/>
<polygon fill="#63b8ff" stroke="#63b8ff" points="113.34,-103.17 106,-110.81 116.5,-109.42 113.34,-103.17"/>
</a>
</g>
</g>
<!-- Node8 -->
<g id="Node000008" class="node">
<title>Node8</title>
<g id="a_Node000008"><a xlink:href="class_p4_1_1_u_b_p_f_1_1_enum_on32_bits.html" target="_top" xlink:title=" ">
<polygon fill="white" stroke="#bfbfbf" points="357.5,-19 219.5,-19 219.5,0 357.5,0 357.5,-19"/>
<text text-anchor="middle" x="288.5" y="-7" font-family="Helvetica,sans-Serif" font-size="10.00">P4::UBPF::EnumOn32Bits</text>
</a>
</g>
</g>
<!-- Node1&#45;&gt;Node8 -->
<g id="edge7_Node000001_Node000008" class="edge">
<title>Node1&#45;&gt;Node8</title>
<g id="a_edge7_Node000001_Node000008"><a xlink:title=" ">
<path fill="none" stroke="#63b8ff" d="M104.58,-103.86C126.8,-83.14 167.69,-48.09 209,-28.5 217.11,-24.66 226.07,-21.55 234.95,-19.04"/>
<polygon fill="#63b8ff" stroke="#63b8ff" points="102.11,-101.37 97.27,-110.79 106.93,-106.45 102.11,-101.37"/>
</a>
</g>
</g>
</g>
</svg>
</svg>

<style type='text/css'>
<![CDATA[
[data-mouse-over-selected='false'] { opacity: 0.7; }
[data-mouse-over-selected='true']  { opacity: 1.0; }
]]>
</style>
<script type="application/ecmascript"><![CDATA[
document.addEventListener('DOMContentLoaded', (event) => {
  highlightEdges();
  highlightAdjacentNodes();
});
]]></script>
</svg>
