<?xml version="1.0" encoding="UTF-8" standalone="no"?>
<!DOCTYPE svg PUBLIC "-//W3C//DTD SVG 1.1//EN"
 "http://www.w3.org/Graphics/SVG/1.1/DTD/svg11.dtd">
<!-- Generated by graphviz version 2.43.0 (0)
 -->
<!-- Title: P4::P4Tools::P4Smith::SmithTarget Pages: 1 -->
<svg width="899pt" height="254pt"
 viewBox="0.00 0.00 899.00 253.50" xmlns="http://www.w3.org/2000/svg" xmlns:xlink="http://www.w3.org/1999/xlink">
<g id="graph0" class="graph" transform="scale(1 1) rotate(0) translate(4 249.5)">
<title>P4::P4Tools::P4Smith::SmithTarget</title>
<!-- Node1 -->
<g id="Node000001" class="node">
<title>Node1</title>
<g id="a_Node000001"><a xlink:title=" ">
<polygon fill="#999999" stroke="#666666" points="449,-116.5 331,-116.5 331,-86.5 449,-86.5 449,-116.5"/>
<text text-anchor="start" x="339" y="-104.5" font-family="Helvetica,sans-Serif" font-size="10.00">P4::P4Tools::P4Smith</text>
<text text-anchor="middle" x="390" y="-93.5" font-family="Helvetica,sans-Serif" font-size="10.00">::SmithTarget</text>
</a>
</g>
</g>
<!-- Node4 -->
<g id="Node000004" class="node">
<title>Node4</title>
<g id="a_Node000004"><a xlink:href="class_p4_1_1_p4_tools_1_1_p4_smith_1_1_b_mv2_1_1_abstract_b_mv2_smith_target.html" target="_top" xlink:title=" ">
<polygon fill="white" stroke="#bfbfbf" points="668,-197.5 485,-197.5 485,-167.5 668,-167.5 668,-197.5"/>
<text text-anchor="start" x="493" y="-185.5" font-family="Helvetica,sans-Serif" font-size="10.00">P4::P4Tools::P4Smith</text>
<text text-anchor="middle" x="576.5" y="-174.5" font-family="Helvetica,sans-Serif" font-size="10.00">::BMv2::AbstractBMv2SmithTarget</text>
</a>
</g>
</g>
<!-- Node1&#45;&gt;Node4 -->
<g id="edge3_Node000001_Node000004" class="edge">
<title>Node1&#45;&gt;Node4</title>
<g id="a_edge3_Node000001_Node000004"><a xlink:title=" ">
<path fill="none" stroke="#63b8ff" d="M420.4,-122.34C438.37,-134.29 462.21,-148.81 485,-158.5 492.78,-161.81 501.13,-164.76 509.5,-167.37"/>
<polygon fill="#63b8ff" stroke="#63b8ff" points="422.33,-119.42 412.08,-116.71 418.4,-125.21 422.33,-119.42"/>
</a>
</g>
</g>
<!-- Node7 -->
<g id="Node000007" class="node">
<title>Node7</title>
<g id="a_Node000007"><a xlink:href="class_p4_1_1_p4_tools_1_1_p4_smith_1_1_generic_1_1_abstract_generic_smith_target.html" target="_top" xlink:title=" ">
<polygon fill="white" stroke="#bfbfbf" points="663,-149 490,-149 490,-108 663,-108 663,-149"/>
<text text-anchor="start" x="498" y="-137" font-family="Helvetica,sans-Serif" font-size="10.00">P4::P4Tools::P4Smith</text>
<text text-anchor="start" x="498" y="-126" font-family="Helvetica,sans-Serif" font-size="10.00">::Generic::AbstractGenericSmith</text>
<text text-anchor="middle" x="576.5" y="-115" font-family="Helvetica,sans-Serif" font-size="10.00">Target</text>
</a>
</g>
</g>
<!-- Node1&#45;&gt;Node7 -->
<g id="edge6_Node000001_Node000007" class="edge">
<title>Node1&#45;&gt;Node7</title>
<g id="a_edge6_Node000001_Node000007"><a xlink:title=" ">
<path fill="none" stroke="#63b8ff" d="M459.05,-111.46C469.12,-112.93 479.62,-114.47 490,-115.99"/>
<polygon fill="#63b8ff" stroke="#63b8ff" points="459.53,-107.99 449.12,-110.01 458.51,-114.92 459.53,-107.99"/>
</a>
</g>
</g>
<!-- Node9 -->
<g id="Node000009" class="node">
<title>Node9</title>
<g id="a_Node000009"><a xlink:href="class_p4_1_1_p4_tools_1_1_p4_smith_1_1_nic_1_1_abstract_nic_smith_target.html" target="_top" xlink:title=" ">
<polygon fill="white" stroke="#bfbfbf" points="656,-89.5 497,-89.5 497,-59.5 656,-59.5 656,-89.5"/>
<text text-anchor="start" x="505" y="-77.5" font-family="Helvetica,sans-Serif" font-size="10.00">P4::P4Tools::P4Smith</text>
<text text-anchor="middle" x="576.5" y="-66.5" font-family="Helvetica,sans-Serif" font-size="10.00">::Nic::AbstractNicSmithTarget</text>
</a>
</g>
</g>
<!-- Node1&#45;&gt;Node9 -->
<g id="edge8_Node000001_Node000009" class="edge">
<title>Node1&#45;&gt;Node9</title>
<g id="a_edge8_Node000001_Node000009"><a xlink:title=" ">
<path fill="none" stroke="#63b8ff" d="M459.22,-91.52C471.43,-89.73 484.25,-87.85 496.73,-86.03"/>
<polygon fill="#63b8ff" stroke="#63b8ff" points="458.51,-88.08 449.12,-92.99 459.53,-95.01 458.51,-88.08"/>
</a>
</g>
</g>
<!-- Node11 -->
<g id="Node000011" class="node">
<title>Node11</title>
<g id="a_Node000011"><a xlink:href="class_p4_1_1_p4_tools_1_1_p4_smith_1_1_tofino_1_1_abstract_tofino_smith_target.html" target="_top" xlink:title=" ">
<polygon fill="white" stroke="#bfbfbf" points="654,-41 499,-41 499,0 654,0 654,-41"/>
<text text-anchor="start" x="507" y="-29" font-family="Helvetica,sans-Serif" font-size="10.00">P4::P4Tools::P4Smith</text>
<text text-anchor="start" x="507" y="-18" font-family="Helvetica,sans-Serif" font-size="10.00">::Tofino::AbstractTofinoSmith</text>
<text text-anchor="middle" x="576.5" y="-7" font-family="Helvetica,sans-Serif" font-size="10.00">Target</text>
</a>
</g>
</g>
<!-- Node1&#45;&gt;Node11 -->
<g id="edge10_Node000001_Node000011" class="edge">
<title>Node1&#45;&gt;Node11</title>
<g id="a_edge10_Node000001_Node000011"><a xlink:title=" ">
<path fill="none" stroke="#63b8ff" d="M424.69,-81.34C442.28,-71.29 464.4,-59.42 485,-50.5 492.59,-47.21 500.68,-44.06 508.76,-41.13"/>
<polygon fill="#63b8ff" stroke="#63b8ff" points="422.83,-78.37 415.93,-86.4 426.34,-84.43 422.83,-78.37"/>
</a>
</g>
</g>
<!-- Node2 -->
<g id="Node000002" class="node">
<title>Node2</title>
<g id="a_Node000002"><a xlink:href="class_p4_1_1_p4_tools_1_1_compiler_target.html" target="_top" xlink:title="Encapsulates the details of invoking the P4 compiler for a target device and architecture.">
<polygon fill="white" stroke="#666666" points="295,-111 143,-111 143,-92 295,-92 295,-111"/>
<text text-anchor="middle" x="219" y="-99" font-family="Helvetica,sans-Serif" font-size="10.00">P4::P4Tools::CompilerTarget</text>
</a>
</g>
</g>
<!-- Node2&#45;&gt;Node1 -->
<g id="edge1_Node000001_Node000002" class="edge">
<title>Node2&#45;&gt;Node1</title>
<g id="a_edge1_Node000001_Node000002"><a xlink:title=" ">
<path fill="none" stroke="#63b8ff" d="M305.26,-101.5C313.93,-101.5 322.58,-101.5 330.86,-101.5"/>
<polygon fill="#63b8ff" stroke="#63b8ff" points="305.11,-98 295.11,-101.5 305.11,-105 305.11,-98"/>
</a>
</g>
</g>
<!-- Node3 -->
<g id="Node000003" class="node">
<title>Node3</title>
<g id="a_Node000003"><a xlink:href="class_p4_1_1_p4_tools_1_1_target.html" target="_top" xlink:title=" ">
<polygon fill="white" stroke="#666666" points="107,-111 0,-111 0,-92 107,-92 107,-111"/>
<text text-anchor="middle" x="53.5" y="-99" font-family="Helvetica,sans-Serif" font-size="10.00">P4::P4Tools::Target</text>
</a>
</g>
</g>
<!-- Node3&#45;&gt;Node2 -->
<g id="edge2_Node000002_Node000003" class="edge">
<title>Node3&#45;&gt;Node2</title>
<g id="a_edge2_Node000002_Node000003"><a xlink:title=" ">
<path fill="none" stroke="#63b8ff" d="M117.2,-101.5C125.59,-101.5 134.26,-101.5 142.84,-101.5"/>
<polygon fill="#63b8ff" stroke="#63b8ff" points="117.13,-98 107.13,-101.5 117.13,-105 117.13,-98"/>
</a>
</g>
</g>
<!-- Node5 -->
<g id="Node000005" class="node">
<title>Node5</title>
<g id="a_Node000005"><a xlink:href="class_p4_1_1_p4_tools_1_1_p4_smith_1_1_b_mv2_1_1_bmv2_psa_smith_target.html" target="_top" xlink:title=" ">
<polygon fill="white" stroke="#bfbfbf" points="878,-245.5 717,-245.5 717,-215.5 878,-215.5 878,-245.5"/>
<text text-anchor="start" x="725" y="-233.5" font-family="Helvetica,sans-Serif" font-size="10.00">P4::P4Tools::P4Smith</text>
<text text-anchor="middle" x="797.5" y="-222.5" font-family="Helvetica,sans-Serif" font-size="10.00">::BMv2::Bmv2PsaSmithTarget</text>
</a>
</g>
</g>
<!-- Node4&#45;&gt;Node5 -->
<g id="edge4_Node000004_Node000005" class="edge">
<title>Node4&#45;&gt;Node5</title>
<g id="a_edge4_Node000004_Node000005"><a xlink:title=" ">
<path fill="none" stroke="#63b8ff" d="M656.13,-199.73C679.65,-204.89 705.24,-210.5 728.05,-215.5"/>
<polygon fill="#63b8ff" stroke="#63b8ff" points="656.71,-196.28 646.19,-197.56 655.21,-203.12 656.71,-196.28"/>
</a>
</g>
</g>
<!-- Node6 -->
<g id="Node000006" class="node">
<title>Node6</title>
<g id="a_Node000006"><a xlink:href="class_p4_1_1_p4_tools_1_1_p4_smith_1_1_b_mv2_1_1_bmv2_v1model_smith_target.html" target="_top" xlink:title=" ">
<polygon fill="white" stroke="#bfbfbf" points="891,-197.5 704,-197.5 704,-167.5 891,-167.5 891,-197.5"/>
<text text-anchor="start" x="712" y="-185.5" font-family="Helvetica,sans-Serif" font-size="10.00">P4::P4Tools::P4Smith</text>
<text text-anchor="middle" x="797.5" y="-174.5" font-family="Helvetica,sans-Serif" font-size="10.00">::BMv2::Bmv2V1modelSmithTarget</text>
</a>
</g>
</g>
<!-- Node4&#45;&gt;Node6 -->
<g id="edge5_Node000004_Node000006" class="edge">
<title>Node4&#45;&gt;Node6</title>
<g id="a_edge5_Node000004_Node000006"><a xlink:title=" ">
<path fill="none" stroke="#63b8ff" d="M678.42,-182.5C686.88,-182.5 695.4,-182.5 703.79,-182.5"/>
<polygon fill="#63b8ff" stroke="#63b8ff" points="678.16,-179 668.16,-182.5 678.16,-186 678.16,-179"/>
</a>
</g>
</g>
<!-- Node8 -->
<g id="Node000008" class="node">
<title>Node8</title>
<g id="a_Node000008"><a xlink:href="class_p4_1_1_p4_tools_1_1_p4_smith_1_1_generic_1_1_generic_core_smith_target.html" target="_top" xlink:title=" ">
<polygon fill="white" stroke="#bfbfbf" points="875,-149 720,-149 720,-108 875,-108 875,-149"/>
<text text-anchor="start" x="728" y="-137" font-family="Helvetica,sans-Serif" font-size="10.00">P4::P4Tools::P4Smith</text>
<text text-anchor="start" x="728" y="-126" font-family="Helvetica,sans-Serif" font-size="10.00">::Generic::GenericCoreSmith</text>
<text text-anchor="middle" x="797.5" y="-115" font-family="Helvetica,sans-Serif" font-size="10.00">Target</text>
</a>
</g>
</g>
<!-- Node7&#45;&gt;Node8 -->
<g id="edge7_Node000007_Node000008" class="edge">
<title>Node7&#45;&gt;Node8</title>
<g id="a_edge7_Node000007_Node000008"><a xlink:title=" ">
<path fill="none" stroke="#63b8ff" d="M673.28,-128.5C688.86,-128.5 704.82,-128.5 719.86,-128.5"/>
<polygon fill="#63b8ff" stroke="#63b8ff" points="673.11,-125 663.11,-128.5 673.11,-132 673.11,-125"/>
</a>
</g>
</g>
<!-- Node10 -->
<g id="Node000010" class="node">
<title>Node10</title>
<g id="a_Node000010"><a xlink:href="class_p4_1_1_p4_tools_1_1_p4_smith_1_1_nic_1_1_dpdk_pna_smith_target.html" target="_top" xlink:title=" ">
<polygon fill="white" stroke="#bfbfbf" points="870.5,-89.5 724.5,-89.5 724.5,-59.5 870.5,-59.5 870.5,-89.5"/>
<text text-anchor="start" x="732.5" y="-77.5" font-family="Helvetica,sans-Serif" font-size="10.00">P4::P4Tools::P4Smith</text>
<text text-anchor="middle" x="797.5" y="-66.5" font-family="Helvetica,sans-Serif" font-size="10.00">::Nic::DpdkPnaSmithTarget</text>
</a>
</g>
</g>
<!-- Node9&#45;&gt;Node10 -->
<g id="edge9_Node000009_Node000010" class="edge">
<title>Node9&#45;&gt;Node10</title>
<g id="a_edge9_Node000009_Node000010"><a xlink:title=" ">
<path fill="none" stroke="#63b8ff" d="M666.51,-74.5C685.72,-74.5 705.8,-74.5 724.27,-74.5"/>
<polygon fill="#63b8ff" stroke="#63b8ff" points="666.25,-71 656.25,-74.5 666.25,-78 666.25,-71"/>
</a>
</g>
</g>
<!-- Node12 -->
<g id="Node000012" class="node">
<title>Node12</title>
<g id="a_Node000012"><a xlink:href="class_p4_1_1_p4_tools_1_1_p4_smith_1_1_tofino_1_1_tofino_tna_smith_target.html" target="_top" xlink:title=" ">
<polygon fill="white" stroke="#bfbfbf" points="878.5,-35.5 716.5,-35.5 716.5,-5.5 878.5,-5.5 878.5,-35.5"/>
<text text-anchor="start" x="724.5" y="-23.5" font-family="Helvetica,sans-Serif" font-size="10.00">P4::P4Tools::P4Smith</text>
<text text-anchor="middle" x="797.5" y="-12.5" font-family="Helvetica,sans-Serif" font-size="10.00">::Tofino::TofinoTnaSmithTarget</text>
</a>
</g>
</g>
<!-- Node11&#45;&gt;Node12 -->
<g id="edge11_Node000011_Node000012" class="edge">
<title>Node11&#45;&gt;Node12</title>
<g id="a_edge11_Node000011_Node000012"><a xlink:title=" ">
<path fill="none" stroke="#63b8ff" d="M664.11,-20.5C681.29,-20.5 699.27,-20.5 716.23,-20.5"/>
<polygon fill="#63b8ff" stroke="#63b8ff" points="664.1,-17 654.1,-20.5 664.1,-24 664.1,-17"/>
</a>
</g>
</g>
</g>
</svg>
