<?xml version="1.0" encoding="UTF-8" standalone="no"?>
<!DOCTYPE svg PUBLIC "-//W3C//DTD SVG 1.1//EN"
 "http://www.w3.org/Graphics/SVG/1.1/DTD/svg11.dtd">
<!-- Generated by graphviz version 2.43.0 (0)
 -->
<!-- Title: P4::IR::VectorBase Pages: 1 -->
<svg width="986pt" height="1026pt"
 viewBox="0.00 0.00 986.00 1025.50" xmlns="http://www.w3.org/2000/svg" xmlns:xlink="http://www.w3.org/1999/xlink">
<g id="graph0" class="graph" transform="scale(1 1) rotate(0) translate(4 1021.5)">
<title>P4::IR::VectorBase</title>
<!-- Node1 -->
<g id="Node000001" class="node">
<title>Node1</title>
<g id="a_Node000001"><a xlink:title=" ">
<polygon fill="#999999" stroke="#666666" points="621,-508 516,-508 516,-489 621,-489 621,-508"/>
<text text-anchor="middle" x="568.5" y="-496" font-family="Helvetica,sans-Serif" font-size="10.00">P4::IR::VectorBase</text>
</a>
</g>
</g>
<!-- Node8 -->
<g id="Node000008" class="node">
<title>Node8</title>
<g id="a_Node000008"><a xlink:href="class_p4_1_1_i_r_1_1_vector.html" target="_top" xlink:title=" ">
<polygon fill="white" stroke="#bfbfbf" points="774,-1017.5 672,-1017.5 672,-987.5 774,-987.5 774,-1017.5"/>
<text text-anchor="start" x="680" y="-1005.5" font-family="Helvetica,sans-Serif" font-size="10.00">P4::IR::Vector&lt; IR</text>
<text text-anchor="middle" x="723" y="-994.5" font-family="Helvetica,sans-Serif" font-size="10.00">::BFN::Pipe &gt;</text>
</a>
</g>
</g>
<!-- Node1&#45;&gt;Node8 -->
<g id="edge7_Node000001_Node000008" class="edge">
<title>Node1&#45;&gt;Node8</title>
<g id="a_edge7_Node000001_Node000008"><a xlink:title=" ">
<path fill="none" stroke="#63b8ff" d="M570.58,-518.8C575.3,-600.84 596.76,-906.79 657,-978.5 661.1,-983.38 666.29,-987.27 671.94,-990.37"/>
<polygon fill="#63b8ff" stroke="#63b8ff" points="574.05,-518.17 570,-508.38 567.06,-518.56 574.05,-518.17"/>
</a>
</g>
</g>
<!-- Node9 -->
<g id="Node000009" class="node">
<title>Node9</title>
<g id="a_Node000009"><a xlink:href="class_p4_1_1_i_r_1_1_vector.html" target="_top" xlink:title=" ">
<polygon fill="white" stroke="#bfbfbf" points="784,-969.5 662,-969.5 662,-939.5 784,-939.5 784,-969.5"/>
<text text-anchor="start" x="670" y="-957.5" font-family="Helvetica,sans-Serif" font-size="10.00">P4::IR::Vector&lt; IR</text>
<text text-anchor="middle" x="723" y="-946.5" font-family="Helvetica,sans-Serif" font-size="10.00">::NamedExpression &gt;</text>
</a>
</g>
</g>
<!-- Node1&#45;&gt;Node9 -->
<g id="edge8_Node000001_Node000009" class="edge">
<title>Node1&#45;&gt;Node9</title>
<g id="a_edge8_Node000001_Node000009"><a xlink:title=" ">
<path fill="none" stroke="#63b8ff" d="M570.98,-518.22C577.04,-594.17 602.3,-866.66 657,-930.5 659.97,-933.97 663.5,-936.94 667.34,-939.48"/>
<polygon fill="#63b8ff" stroke="#63b8ff" points="574.46,-517.83 570.2,-508.13 567.48,-518.38 574.46,-517.83"/>
</a>
</g>
</g>
<!-- Node11 -->
<g id="Node000011" class="node">
<title>Node11</title>
<g id="a_Node000011"><a xlink:href="class_p4_1_1_i_r_1_1_vector.html" target="_top" xlink:title=" ">
<polygon fill="white" stroke="#bfbfbf" points="774,-921.5 672,-921.5 672,-891.5 774,-891.5 774,-921.5"/>
<text text-anchor="start" x="680" y="-909.5" font-family="Helvetica,sans-Serif" font-size="10.00">P4::IR::Vector&lt; IR</text>
<text text-anchor="middle" x="723" y="-898.5" font-family="Helvetica,sans-Serif" font-size="10.00">::Expression &gt;</text>
</a>
</g>
</g>
<!-- Node1&#45;&gt;Node11 -->
<g id="edge10_Node000001_Node000011" class="edge">
<title>Node1&#45;&gt;Node11</title>
<g id="a_edge10_Node000001_Node000011"><a xlink:title=" ">
<path fill="none" stroke="#63b8ff" d="M571.52,-518.25C579.11,-588.73 607.96,-826.65 657,-882.5 661.13,-887.2 666.26,-890.98 671.82,-894.02"/>
<polygon fill="#63b8ff" stroke="#63b8ff" points="574.98,-517.68 570.45,-508.1 568.02,-518.41 574.98,-517.68"/>
</a>
</g>
</g>
<!-- Node12 -->
<g id="Node000012" class="node">
<title>Node12</title>
<g id="a_Node000012"><a xlink:href="class_p4_1_1_i_r_1_1_vector.html" target="_top" xlink:title=" ">
<polygon fill="white" stroke="#bfbfbf" points="775,-873.5 671,-873.5 671,-843.5 775,-843.5 775,-873.5"/>
<text text-anchor="start" x="679" y="-861.5" font-family="Helvetica,sans-Serif" font-size="10.00">P4::IR::Vector&lt; P4</text>
<text text-anchor="middle" x="723" y="-850.5" font-family="Helvetica,sans-Serif" font-size="10.00">::IR::Node &gt;</text>
</a>
</g>
</g>
<!-- Node1&#45;&gt;Node12 -->
<g id="edge11_Node000001_Node000012" class="edge">
<title>Node1&#45;&gt;Node12</title>
<g id="a_edge11_Node000001_Node000012"><a xlink:title=" ">
<path fill="none" stroke="#63b8ff" d="M568.72,-518.41C567.6,-575.37 572.2,-740.87 657,-834.5 660.96,-838.87 665.78,-842.44 670.99,-845.37"/>
<polygon fill="#63b8ff" stroke="#63b8ff" points="572.23,-518.34 569.01,-508.25 565.23,-518.14 572.23,-518.34"/>
</a>
</g>
</g>
<!-- Node14 -->
<g id="Node000014" class="node">
<title>Node14</title>
<g id="a_Node000014"><a xlink:href="class_p4_1_1_i_r_1_1_vector.html" target="_top" xlink:title=" ">
<polygon fill="white" stroke="#bfbfbf" points="774,-825.5 672,-825.5 672,-795.5 774,-795.5 774,-825.5"/>
<text text-anchor="start" x="680" y="-813.5" font-family="Helvetica,sans-Serif" font-size="10.00">P4::IR::Vector&lt; IR</text>
<text text-anchor="middle" x="723" y="-802.5" font-family="Helvetica,sans-Serif" font-size="10.00">::StructField &gt;</text>
</a>
</g>
</g>
<!-- Node1&#45;&gt;Node14 -->
<g id="edge13_Node000001_Node000014" class="edge">
<title>Node1&#45;&gt;Node14</title>
<g id="a_edge13_Node000001_Node000014"><a xlink:title=" ">
<path fill="none" stroke="#63b8ff" d="M569.76,-518.26C571.5,-569.52 583.18,-708.21 657,-786.5 661.21,-790.96 666.32,-794.6 671.81,-797.56"/>
<polygon fill="#63b8ff" stroke="#63b8ff" points="573.26,-518.1 569.51,-508.19 566.26,-518.28 573.26,-518.1"/>
</a>
</g>
</g>
<!-- Node16 -->
<g id="Node000016" class="node">
<title>Node16</title>
<g id="a_Node000016"><a xlink:href="class_p4_1_1_i_r_1_1_vector.html" target="_top" xlink:title=" ">
<polygon fill="white" stroke="#bfbfbf" points="774,-777.5 672,-777.5 672,-747.5 774,-747.5 774,-777.5"/>
<text text-anchor="start" x="680" y="-765.5" font-family="Helvetica,sans-Serif" font-size="10.00">P4::IR::Vector&lt; IR</text>
<text text-anchor="middle" x="723" y="-754.5" font-family="Helvetica,sans-Serif" font-size="10.00">::MAU::Table &gt;</text>
</a>
</g>
</g>
<!-- Node1&#45;&gt;Node16 -->
<g id="edge15_Node000001_Node000016" class="edge">
<title>Node1&#45;&gt;Node16</title>
<g id="a_edge15_Node000001_Node000016"><a xlink:title=" ">
<path fill="none" stroke="#63b8ff" d="M571.17,-518.25C576.04,-563.44 594.11,-675.35 657,-738.5 661.24,-742.76 666.31,-746.27 671.71,-749.17"/>
<polygon fill="#63b8ff" stroke="#63b8ff" points="574.65,-517.88 570.2,-508.27 567.69,-518.56 574.65,-517.88"/>
</a>
</g>
</g>
<!-- Node17 -->
<g id="Node000017" class="node">
<title>Node17</title>
<g id="a_Node000017"><a xlink:href="class_p4_1_1_i_r_1_1_vector.html" target="_top" xlink:title=" ">
<polygon fill="white" stroke="#bfbfbf" points="774,-729.5 672,-729.5 672,-699.5 774,-699.5 774,-729.5"/>
<text text-anchor="start" x="680" y="-717.5" font-family="Helvetica,sans-Serif" font-size="10.00">P4::IR::Vector&lt; IR</text>
<text text-anchor="middle" x="723" y="-706.5" font-family="Helvetica,sans-Serif" font-size="10.00">::Type &gt;</text>
</a>
</g>
</g>
<!-- Node1&#45;&gt;Node17 -->
<g id="edge16_Node000001_Node000017" class="edge">
<title>Node1&#45;&gt;Node17</title>
<g id="a_edge16_Node000001_Node000017"><a xlink:title=" ">
<path fill="none" stroke="#63b8ff" d="M573.15,-517.86C581.34,-556.13 604.72,-641.95 657,-690.5 661.32,-694.51 666.37,-697.87 671.7,-700.67"/>
<polygon fill="#63b8ff" stroke="#63b8ff" points="576.57,-517.11 571.15,-508 569.71,-518.5 576.57,-517.11"/>
</a>
</g>
</g>
<!-- Node18 -->
<g id="Node000018" class="node">
<title>Node18</title>
<g id="a_Node000018"><a xlink:href="class_p4_1_1_i_r_1_1_vector.html" target="_top" xlink:title=" ">
<polygon fill="white" stroke="#bfbfbf" points="774,-681.5 672,-681.5 672,-651.5 774,-651.5 774,-681.5"/>
<text text-anchor="start" x="680" y="-669.5" font-family="Helvetica,sans-Serif" font-size="10.00">P4::IR::Vector&lt; IR</text>
<text text-anchor="middle" x="723" y="-658.5" font-family="Helvetica,sans-Serif" font-size="10.00">::Argument &gt;</text>
</a>
</g>
</g>
<!-- Node1&#45;&gt;Node18 -->
<g id="edge17_Node000001_Node000018" class="edge">
<title>Node1&#45;&gt;Node18</title>
<g id="a_edge17_Node000001_Node000018"><a xlink:title=" ">
<path fill="none" stroke="#63b8ff" d="M576.29,-517.56C588.09,-548.1 615.2,-608.05 657,-642.5 661.46,-646.17 666.53,-649.31 671.82,-651.99"/>
<polygon fill="#63b8ff" stroke="#63b8ff" points="579.53,-516.22 572.75,-508.07 572.97,-518.67 579.53,-516.22"/>
</a>
</g>
</g>
<!-- Node19 -->
<g id="Node000019" class="node">
<title>Node19</title>
<g id="a_Node000019"><a xlink:href="class_p4_1_1_i_r_1_1_vector.html" target="_top" xlink:title=" ">
<polygon fill="white" stroke="#bfbfbf" points="774,-633.5 672,-633.5 672,-603.5 774,-603.5 774,-633.5"/>
<text text-anchor="start" x="680" y="-621.5" font-family="Helvetica,sans-Serif" font-size="10.00">P4::IR::Vector&lt; IR</text>
<text text-anchor="middle" x="723" y="-610.5" font-family="Helvetica,sans-Serif" font-size="10.00">::Declaration &gt;</text>
</a>
</g>
</g>
<!-- Node1&#45;&gt;Node19 -->
<g id="edge18_Node000001_Node000019" class="edge">
<title>Node1&#45;&gt;Node19</title>
<g id="a_edge18_Node000001_Node000019"><a xlink:title=" ">
<path fill="none" stroke="#63b8ff" d="M581.76,-516.52C597.1,-537.83 625.23,-573.1 657,-594.5 661.99,-597.86 667.51,-600.82 673.16,-603.42"/>
<polygon fill="#63b8ff" stroke="#63b8ff" points="584.44,-514.24 575.82,-508.07 578.71,-518.27 584.44,-514.24"/>
</a>
</g>
</g>
<!-- Node21 -->
<g id="Node000021" class="node">
<title>Node21</title>
<g id="a_Node000021"><a xlink:href="class_p4_1_1_i_r_1_1_vector.html" target="_top" xlink:title=" ">
<polygon fill="white" stroke="#bfbfbf" points="774,-585.5 672,-585.5 672,-555.5 774,-555.5 774,-585.5"/>
<text text-anchor="start" x="680" y="-573.5" font-family="Helvetica,sans-Serif" font-size="10.00">P4::IR::Vector&lt; IR</text>
<text text-anchor="middle" x="723" y="-562.5" font-family="Helvetica,sans-Serif" font-size="10.00">::StatOrDecl &gt;</text>
</a>
</g>
</g>
<!-- Node1&#45;&gt;Node21 -->
<g id="edge20_Node000001_Node000021" class="edge">
<title>Node1&#45;&gt;Node21</title>
<g id="a_edge20_Node000001_Node000021"><a xlink:title=" ">
<path fill="none" stroke="#63b8ff" d="M594.13,-513.29C611.39,-523.34 635.18,-536.55 657,-546.5 663.79,-549.59 671.1,-552.6 678.28,-555.37"/>
<polygon fill="#63b8ff" stroke="#63b8ff" points="595.66,-510.13 585.26,-508.08 592.11,-516.16 595.66,-510.13"/>
</a>
</g>
</g>
<!-- Node23 -->
<g id="Node000023" class="node">
<title>Node23</title>
<g id="a_Node000023"><a xlink:href="class_p4_1_1_i_r_1_1_vector.html" target="_top" xlink:title=" ">
<polygon fill="white" stroke="#bfbfbf" points="789,-537.5 657,-537.5 657,-507.5 789,-507.5 789,-537.5"/>
<text text-anchor="start" x="665" y="-525.5" font-family="Helvetica,sans-Serif" font-size="10.00">P4::IR::Vector&lt; IR</text>
<text text-anchor="middle" x="723" y="-514.5" font-family="Helvetica,sans-Serif" font-size="10.00">::DpdkAsmStatement &gt;</text>
</a>
</g>
</g>
<!-- Node1&#45;&gt;Node23 -->
<g id="edge22_Node000001_Node000023" class="edge">
<title>Node1&#45;&gt;Node23</title>
<g id="a_edge22_Node000001_Node000023"><a xlink:title=" ">
<path fill="none" stroke="#63b8ff" d="M631.28,-508.22C639.72,-509.55 648.41,-510.92 656.9,-512.26"/>
<polygon fill="#63b8ff" stroke="#63b8ff" points="631.55,-504.72 621.13,-506.63 630.46,-511.64 631.55,-504.72"/>
</a>
</g>
</g>
<!-- Node25 -->
<g id="Node000025" class="node">
<title>Node25</title>
<g id="a_Node000025"><a xlink:href="class_p4_1_1_i_r_1_1_vector.html" target="_top" xlink:title=" ">
<polygon fill="white" stroke="#bfbfbf" points="774,-489.5 672,-489.5 672,-459.5 774,-459.5 774,-489.5"/>
<text text-anchor="start" x="680" y="-477.5" font-family="Helvetica,sans-Serif" font-size="10.00">P4::IR::Vector&lt; IR</text>
<text text-anchor="middle" x="723" y="-466.5" font-family="Helvetica,sans-Serif" font-size="10.00">::DpdkTable &gt;</text>
</a>
</g>
</g>
<!-- Node1&#45;&gt;Node25 -->
<g id="edge24_Node000001_Node000025" class="edge">
<title>Node1&#45;&gt;Node25</title>
<g id="a_edge24_Node000001_Node000025"><a xlink:title=" ">
<path fill="none" stroke="#63b8ff" d="M631.32,-488.77C644.83,-486.64 658.98,-484.42 671.97,-482.37"/>
<polygon fill="#63b8ff" stroke="#63b8ff" points="630.46,-485.36 621.13,-490.37 631.55,-492.28 630.46,-485.36"/>
</a>
</g>
</g>
<!-- Node27 -->
<g id="Node000027" class="node">
<title>Node27</title>
<g id="a_Node000027"><a xlink:href="class_p4_1_1_i_r_1_1_vector.html" target="_top" xlink:title=" ">
<polygon fill="white" stroke="#bfbfbf" points="774,-441.5 672,-441.5 672,-411.5 774,-411.5 774,-441.5"/>
<text text-anchor="start" x="680" y="-429.5" font-family="Helvetica,sans-Serif" font-size="10.00">P4::IR::Vector&lt; IR</text>
<text text-anchor="middle" x="723" y="-418.5" font-family="Helvetica,sans-Serif" font-size="10.00">::DpdkSelector &gt;</text>
</a>
</g>
</g>
<!-- Node1&#45;&gt;Node27 -->
<g id="edge26_Node000001_Node000027" class="edge">
<title>Node1&#45;&gt;Node27</title>
<g id="a_edge26_Node000001_Node000027"><a xlink:title=" ">
<path fill="none" stroke="#63b8ff" d="M594.13,-483.71C611.39,-473.66 635.18,-460.45 657,-450.5 663.79,-447.41 671.1,-444.4 678.28,-441.63"/>
<polygon fill="#63b8ff" stroke="#63b8ff" points="592.11,-480.84 585.26,-488.92 595.66,-486.87 592.11,-480.84"/>
</a>
</g>
</g>
<!-- Node29 -->
<g id="Node000029" class="node">
<title>Node29</title>
<g id="a_Node000029"><a xlink:href="class_p4_1_1_i_r_1_1_vector.html" target="_top" xlink:title=" ">
<polygon fill="white" stroke="#bfbfbf" points="774,-393.5 672,-393.5 672,-363.5 774,-363.5 774,-393.5"/>
<text text-anchor="start" x="680" y="-381.5" font-family="Helvetica,sans-Serif" font-size="10.00">P4::IR::Vector&lt; IR</text>
<text text-anchor="middle" x="723" y="-370.5" font-family="Helvetica,sans-Serif" font-size="10.00">::DpdkLearner &gt;</text>
</a>
</g>
</g>
<!-- Node1&#45;&gt;Node29 -->
<g id="edge28_Node000001_Node000029" class="edge">
<title>Node1&#45;&gt;Node29</title>
<g id="a_edge28_Node000001_Node000029"><a xlink:title=" ">
<path fill="none" stroke="#63b8ff" d="M581.76,-480.48C597.1,-459.17 625.23,-423.9 657,-402.5 661.99,-399.14 667.51,-396.18 673.16,-393.58"/>
<polygon fill="#63b8ff" stroke="#63b8ff" points="578.71,-478.73 575.82,-488.93 584.44,-482.76 578.71,-478.73"/>
</a>
</g>
</g>
<!-- Node31 -->
<g id="Node000031" class="node">
<title>Node31</title>
<g id="a_Node000031"><a xlink:href="class_p4_1_1_i_r_1_1_vector.html" target="_top" xlink:title=" ">
<polygon fill="white" stroke="#bfbfbf" points="774,-345.5 672,-345.5 672,-315.5 774,-315.5 774,-345.5"/>
<text text-anchor="start" x="680" y="-333.5" font-family="Helvetica,sans-Serif" font-size="10.00">P4::IR::Vector&lt; IR</text>
<text text-anchor="middle" x="723" y="-322.5" font-family="Helvetica,sans-Serif" font-size="10.00">::DpdkAction &gt;</text>
</a>
</g>
</g>
<!-- Node1&#45;&gt;Node31 -->
<g id="edge30_Node000001_Node000031" class="edge">
<title>Node1&#45;&gt;Node31</title>
<g id="a_edge30_Node000001_Node000031"><a xlink:title=" ">
<path fill="none" stroke="#63b8ff" d="M576.29,-479.44C588.09,-448.9 615.2,-388.95 657,-354.5 661.46,-350.83 666.53,-347.69 671.82,-345.01"/>
<polygon fill="#63b8ff" stroke="#63b8ff" points="572.97,-478.33 572.75,-488.93 579.53,-480.78 572.97,-478.33"/>
</a>
</g>
</g>
<!-- Node33 -->
<g id="Node000033" class="node">
<title>Node33</title>
<g id="a_Node000033"><a xlink:href="class_p4_1_1_i_r_1_1_vector.html" target="_top" xlink:title=" ">
<polygon fill="white" stroke="#bfbfbf" points="774,-297.5 672,-297.5 672,-267.5 774,-267.5 774,-297.5"/>
<text text-anchor="start" x="680" y="-285.5" font-family="Helvetica,sans-Serif" font-size="10.00">P4::IR::Vector&lt; IR</text>
<text text-anchor="middle" x="723" y="-274.5" font-family="Helvetica,sans-Serif" font-size="10.00">::Parameter &gt;</text>
</a>
</g>
</g>
<!-- Node1&#45;&gt;Node33 -->
<g id="edge32_Node000001_Node000033" class="edge">
<title>Node1&#45;&gt;Node33</title>
<g id="a_edge32_Node000001_Node000033"><a xlink:title=" ">
<path fill="none" stroke="#63b8ff" d="M573.15,-479.14C581.34,-440.87 604.72,-355.05 657,-306.5 661.32,-302.49 666.37,-299.13 671.7,-296.33"/>
<polygon fill="#63b8ff" stroke="#63b8ff" points="569.71,-478.5 571.15,-489 576.57,-479.89 569.71,-478.5"/>
</a>
</g>
</g>
<!-- Node35 -->
<g id="Node000035" class="node">
<title>Node35</title>
<g id="a_Node000035"><a xlink:href="class_p4_1_1_i_r_1_1_vector.html" target="_top" xlink:title=" ">
<polygon fill="white" stroke="#bfbfbf" points="781,-249.5 665,-249.5 665,-219.5 781,-219.5 781,-249.5"/>
<text text-anchor="start" x="673" y="-237.5" font-family="Helvetica,sans-Serif" font-size="10.00">P4::IR::Vector&lt; IR</text>
<text text-anchor="middle" x="723" y="-226.5" font-family="Helvetica,sans-Serif" font-size="10.00">::DpdkDeclaration &gt;</text>
</a>
</g>
</g>
<!-- Node1&#45;&gt;Node35 -->
<g id="edge34_Node000001_Node000035" class="edge">
<title>Node1&#45;&gt;Node35</title>
<g id="a_edge34_Node000001_Node000035"><a xlink:title=" ">
<path fill="none" stroke="#63b8ff" d="M571.17,-478.75C576.04,-433.56 594.11,-321.65 657,-258.5 660.4,-255.09 664.32,-252.16 668.52,-249.64"/>
<polygon fill="#63b8ff" stroke="#63b8ff" points="567.69,-478.44 570.2,-488.73 574.65,-479.12 567.69,-478.44"/>
</a>
</g>
</g>
<!-- Node37 -->
<g id="Node000037" class="node">
<title>Node37</title>
<g id="a_Node000037"><a xlink:href="class_p4_1_1_i_r_1_1_vector.html" target="_top" xlink:title=" ">
<polygon fill="white" stroke="#bfbfbf" points="774,-201.5 672,-201.5 672,-171.5 774,-171.5 774,-201.5"/>
<text text-anchor="start" x="680" y="-189.5" font-family="Helvetica,sans-Serif" font-size="10.00">P4::IR::Vector&lt; IR</text>
<text text-anchor="middle" x="723" y="-178.5" font-family="Helvetica,sans-Serif" font-size="10.00">::ParserState &gt;</text>
</a>
</g>
</g>
<!-- Node1&#45;&gt;Node37 -->
<g id="edge36_Node000001_Node000037" class="edge">
<title>Node1&#45;&gt;Node37</title>
<g id="a_edge36_Node000001_Node000037"><a xlink:title=" ">
<path fill="none" stroke="#63b8ff" d="M569.76,-478.74C571.5,-427.48 583.18,-288.79 657,-210.5 661.21,-206.04 666.32,-202.4 671.81,-199.44"/>
<polygon fill="#63b8ff" stroke="#63b8ff" points="566.26,-478.72 569.51,-488.81 573.26,-478.9 566.26,-478.72"/>
</a>
</g>
</g>
<!-- Node39 -->
<g id="Node000039" class="node">
<title>Node39</title>
<g id="a_Node000039"><a xlink:href="class_p4_1_1_i_r_1_1_vector.html" target="_top" xlink:title=" ">
<polygon fill="white" stroke="#bfbfbf" points="774,-153.5 672,-153.5 672,-123.5 774,-123.5 774,-153.5"/>
<text text-anchor="start" x="680" y="-141.5" font-family="Helvetica,sans-Serif" font-size="10.00">P4::IR::Vector&lt; IR</text>
<text text-anchor="middle" x="723" y="-130.5" font-family="Helvetica,sans-Serif" font-size="10.00">::SelectCase &gt;</text>
</a>
</g>
</g>
<!-- Node1&#45;&gt;Node39 -->
<g id="edge38_Node000001_Node000039" class="edge">
<title>Node1&#45;&gt;Node39</title>
<g id="a_edge38_Node000001_Node000039"><a xlink:title=" ">
<path fill="none" stroke="#63b8ff" d="M568.72,-478.59C567.6,-421.63 572.2,-256.13 657,-162.5 661.2,-157.86 666.37,-154.12 671.96,-151.1"/>
<polygon fill="#63b8ff" stroke="#63b8ff" points="565.23,-478.86 569.01,-488.75 572.23,-478.66 565.23,-478.86"/>
</a>
</g>
</g>
<!-- Node40 -->
<g id="Node000040" class="node">
<title>Node40</title>
<g id="a_Node000040"><a xlink:href="class_p4_1_1_i_r_1_1_vector.html" target="_top" xlink:title=" ">
<polygon fill="white" stroke="#bfbfbf" points="778.5,-105 667.5,-105 667.5,-86 778.5,-86 778.5,-105"/>
<text text-anchor="middle" x="723" y="-93" font-family="Helvetica,sans-Serif" font-size="10.00">P4::IR::Vector&lt; N &gt;</text>
</a>
</g>
</g>
<!-- Node1&#45;&gt;Node40 -->
<g id="edge39_Node000001_Node000040" class="edge">
<title>Node1&#45;&gt;Node40</title>
<g id="a_edge39_Node000001_Node000040"><a xlink:title=" ">
<path fill="none" stroke="#63b8ff" d="M571.39,-478.63C578.53,-407.74 606.05,-168.62 657,-114.5 660.63,-110.65 664.99,-107.56 669.71,-105.09"/>
<polygon fill="#63b8ff" stroke="#63b8ff" points="567.88,-478.55 570.39,-488.84 574.85,-479.23 567.88,-478.55"/>
</a>
</g>
</g>
<!-- Node41 -->
<g id="Node000041" class="node">
<title>Node41</title>
<g id="a_Node000041"><a xlink:href="class_p4_1_1_i_r_1_1_vector.html" target="_top" xlink:title=" ">
<polygon fill="white" stroke="#bfbfbf" points="774,-67.5 672,-67.5 672,-37.5 774,-37.5 774,-67.5"/>
<text text-anchor="start" x="680" y="-55.5" font-family="Helvetica,sans-Serif" font-size="10.00">P4::IR::Vector&lt; IR</text>
<text text-anchor="middle" x="723" y="-44.5" font-family="Helvetica,sans-Serif" font-size="10.00">::Annotation &gt;</text>
</a>
</g>
</g>
<!-- Node1&#45;&gt;Node41 -->
<g id="edge40_Node000001_Node000041" class="edge">
<title>Node1&#45;&gt;Node41</title>
<g id="a_edge40_Node000001_Node000041"><a xlink:title=" ">
<path fill="none" stroke="#63b8ff" d="M571.08,-478.75C577.46,-403.87 603.49,-138.66 657,-76.5 661.08,-71.76 666.19,-67.95 671.73,-64.9"/>
<polygon fill="#63b8ff" stroke="#63b8ff" points="567.6,-478.46 570.26,-488.72 574.57,-479.04 567.6,-478.46"/>
</a>
</g>
</g>
<!-- Node42 -->
<g id="Node000042" class="node">
<title>Node42</title>
<g id="a_Node000042"><a xlink:href="class_p4_1_1_i_r_1_1_vector.html" target="_top" xlink:title=" ">
<polygon fill="white" stroke="#bfbfbf" points="778,-19 668,-19 668,0 778,0 778,-19"/>
<text text-anchor="middle" x="723" y="-7" font-family="Helvetica,sans-Serif" font-size="10.00">P4::IR::Vector&lt; T &gt;</text>
</a>
</g>
</g>
<!-- Node1&#45;&gt;Node42 -->
<g id="edge41_Node000001_Node000042" class="edge">
<title>Node1&#45;&gt;Node42</title>
<g id="a_edge41_Node000001_Node000042"><a xlink:title=" ">
<path fill="none" stroke="#63b8ff" d="M570.5,-478.5C574.95,-397.71 595.45,-96.56 657,-28.5 660.47,-24.66 664.67,-21.58 669.24,-19.12"/>
<polygon fill="#63b8ff" stroke="#63b8ff" points="566.99,-478.59 569.96,-488.76 573.98,-478.96 566.99,-478.59"/>
</a>
</g>
</g>
<!-- Node2 -->
<g id="Node000002" class="node">
<title>Node2</title>
<g id="a_Node000002"><a xlink:href="class_p4_1_1_i_r_1_1_node.html" target="_top" xlink:title=" ">
<polygon fill="white" stroke="#bfbfbf" points="480,-508 404,-508 404,-489 480,-489 480,-508"/>
<text text-anchor="middle" x="442" y="-496" font-family="Helvetica,sans-Serif" font-size="10.00">P4::IR::Node</text>
</a>
</g>
</g>
<!-- Node2&#45;&gt;Node1 -->
<g id="edge1_Node000001_Node000002" class="edge">
<title>Node2&#45;&gt;Node1</title>
<g id="a_edge1_Node000001_Node000002"><a xlink:title=" ">
<path fill="none" stroke="#63b8ff" d="M490.27,-498.5C498.57,-498.5 507.24,-498.5 515.65,-498.5"/>
<polygon fill="#63b8ff" stroke="#63b8ff" points="490.02,-495 480.02,-498.5 490.02,-502 490.02,-495"/>
</a>
</g>
</g>
<!-- Node3 -->
<g id="Node000003" class="node">
<title>Node3</title>
<g id="a_Node000003"><a xlink:href="class_p4_1_1_i_r_1_1_i_node.html" target="_top" xlink:title=" ">
<polygon fill="white" stroke="#bfbfbf" points="368,-508 289,-508 289,-489 368,-489 368,-508"/>
<text text-anchor="middle" x="328.5" y="-496" font-family="Helvetica,sans-Serif" font-size="10.00">P4::IR::INode</text>
</a>
</g>
</g>
<!-- Node3&#45;&gt;Node2 -->
<g id="edge2_Node000002_Node000003" class="edge">
<title>Node3&#45;&gt;Node2</title>
<g id="a_edge2_Node000002_Node000003"><a xlink:title=" ">
<path fill="none" stroke="#63b8ff" d="M378.44,-498.5C386.98,-498.5 395.73,-498.5 403.89,-498.5"/>
<polygon fill="#63b8ff" stroke="#63b8ff" points="378.18,-495 368.18,-498.5 378.18,-502 378.18,-495"/>
</a>
</g>
</g>
<!-- Node4 -->
<g id="Node000004" class="node">
<title>Node4</title>
<g id="a_Node000004"><a xlink:href="class_p4_1_1_util_1_1_i_has_source_info.html" target="_top" xlink:title=" ">
<polygon fill="white" stroke="#bfbfbf" points="253,-545 122,-545 122,-526 253,-526 253,-545"/>
<text text-anchor="middle" x="187.5" y="-533" font-family="Helvetica,sans-Serif" font-size="10.00">P4::Util::IHasSourceInfo</text>
</a>
</g>
</g>
<!-- Node4&#45;&gt;Node3 -->
<g id="edge3_Node000003_Node000004" class="edge">
<title>Node4&#45;&gt;Node3</title>
<g id="a_edge3_Node000003_Node000004"><a xlink:title=" ">
<path fill="none" stroke="#63b8ff" d="M234.03,-523.38C252.63,-518.43 273.84,-512.78 291.34,-508.12"/>
<polygon fill="#63b8ff" stroke="#63b8ff" points="233.06,-520.02 224.3,-525.97 234.86,-526.78 233.06,-520.02"/>
</a>
</g>
</g>
<!-- Node5 -->
<g id="Node000005" class="node">
<title>Node5</title>
<g id="a_Node000005"><a xlink:href="class_p4_1_1_i_has_db_print.html" target="_top" xlink:title=" ">
<polygon fill="white" stroke="#bfbfbf" points="233.5,-508 141.5,-508 141.5,-489 233.5,-489 233.5,-508"/>
<text text-anchor="middle" x="187.5" y="-496" font-family="Helvetica,sans-Serif" font-size="10.00">P4::IHasDbPrint</text>
</a>
</g>
</g>
<!-- Node5&#45;&gt;Node3 -->
<g id="edge4_Node000003_Node000005" class="edge">
<title>Node5&#45;&gt;Node3</title>
<g id="a_edge4_Node000003_Node000005"><a xlink:title=" ">
<path fill="none" stroke="#63b8ff" d="M243.84,-498.5C258.85,-498.5 274.78,-498.5 288.67,-498.5"/>
<polygon fill="#63b8ff" stroke="#63b8ff" points="243.63,-495 233.63,-498.5 243.63,-502 243.63,-495"/>
</a>
</g>
</g>
<!-- Node6 -->
<g id="Node000006" class="node">
<title>Node6</title>
<g id="a_Node000006"><a xlink:href="class_p4_1_1_i_castable.html" target="_top" xlink:title=" ">
<polygon fill="white" stroke="#666666" points="227.5,-471 147.5,-471 147.5,-452 227.5,-452 227.5,-471"/>
<text text-anchor="middle" x="187.5" y="-459" font-family="Helvetica,sans-Serif" font-size="10.00">P4::ICastable</text>
</a>
</g>
</g>
<!-- Node6&#45;&gt;Node3 -->
<g id="edge5_Node000003_Node000006" class="edge">
<title>Node6&#45;&gt;Node3</title>
<g id="a_edge5_Node000003_Node000006"><a xlink:title=" ">
<path fill="none" stroke="#63b8ff" d="M234.03,-473.62C252.63,-478.57 273.84,-484.22 291.34,-488.88"/>
<polygon fill="#63b8ff" stroke="#63b8ff" points="234.86,-470.22 224.3,-471.03 233.06,-476.98 234.86,-470.22"/>
</a>
</g>
</g>
<!-- Node7 -->
<g id="Node000007" class="node">
<title>Node7</title>
<g id="a_Node000007"><a xlink:href="struct_p4_1_1_r_t_t_i_1_1_base.html" target="_top" xlink:title=" ">
<polygon fill="white" stroke="#bfbfbf" points="86,-471 0,-471 0,-452 86,-452 86,-471"/>
<text text-anchor="middle" x="43" y="-459" font-family="Helvetica,sans-Serif" font-size="10.00">P4::RTTI::Base</text>
</a>
</g>
</g>
<!-- Node7&#45;&gt;Node6 -->
<g id="edge6_Node000006_Node000007" class="edge">
<title>Node7&#45;&gt;Node6</title>
<g id="a_edge6_Node000006_Node000007"><a xlink:title=" ">
<path fill="none" stroke="#63b8ff" d="M96.62,-461.5C113.45,-461.5 131.77,-461.5 147.46,-461.5"/>
<polygon fill="#63b8ff" stroke="#63b8ff" points="96.37,-458 86.37,-461.5 96.37,-465 96.37,-458"/>
</a>
</g>
</g>
<!-- Node10 -->
<g id="Node000010" class="node">
<title>Node10</title>
<g id="a_Node000010"><a xlink:href="class_p4_1_1_i_r_1_1_indexed_vector.html" target="_top" xlink:title=" ">
<polygon fill="white" stroke="#666666" points="973,-969.5 830,-969.5 830,-939.5 973,-939.5 973,-969.5"/>
<text text-anchor="start" x="838" y="-957.5" font-family="Helvetica,sans-Serif" font-size="10.00">P4::IR::IndexedVector</text>
<text text-anchor="middle" x="901.5" y="-946.5" font-family="Helvetica,sans-Serif" font-size="10.00">&lt; IR::NamedExpression &gt;</text>
</a>
</g>
</g>
<!-- Node9&#45;&gt;Node10 -->
<g id="edge9_Node000009_Node000010" class="edge">
<title>Node9&#45;&gt;Node10</title>
<g id="a_edge9_Node000009_Node000010"><a xlink:title=" ">
<path fill="none" stroke="#63b8ff" d="M794.38,-954.5C806.07,-954.5 818.19,-954.5 829.88,-954.5"/>
<polygon fill="#63b8ff" stroke="#63b8ff" points="794.25,-951 784.25,-954.5 794.25,-958 794.25,-951"/>
</a>
</g>
</g>
<!-- Node13 -->
<g id="Node000013" class="node">
<title>Node13</title>
<g id="a_Node000013"><a xlink:href="class_p4_1_1_i_r_1_1_indexed_vector.html" target="_top" xlink:title=" ">
<polygon fill="white" stroke="#666666" points="961,-873.5 842,-873.5 842,-843.5 961,-843.5 961,-873.5"/>
<text text-anchor="start" x="850" y="-861.5" font-family="Helvetica,sans-Serif" font-size="10.00">P4::IR::IndexedVector</text>
<text text-anchor="middle" x="901.5" y="-850.5" font-family="Helvetica,sans-Serif" font-size="10.00">&lt; P4::IR::Node &gt;</text>
</a>
</g>
</g>
<!-- Node12&#45;&gt;Node13 -->
<g id="edge12_Node000012_Node000013" class="edge">
<title>Node12&#45;&gt;Node13</title>
<g id="a_edge12_Node000012_Node000013"><a xlink:title=" ">
<path fill="none" stroke="#63b8ff" d="M785.06,-858.5C803.44,-858.5 823.57,-858.5 841.79,-858.5"/>
<polygon fill="#63b8ff" stroke="#63b8ff" points="785.05,-855 775.05,-858.5 785.05,-862 785.05,-855"/>
</a>
</g>
</g>
<!-- Node15 -->
<g id="Node000015" class="node">
<title>Node15</title>
<g id="a_Node000015"><a xlink:href="class_p4_1_1_i_r_1_1_indexed_vector.html" target="_top" xlink:title=" ">
<polygon fill="white" stroke="#666666" points="961,-825.5 842,-825.5 842,-795.5 961,-795.5 961,-825.5"/>
<text text-anchor="start" x="850" y="-813.5" font-family="Helvetica,sans-Serif" font-size="10.00">P4::IR::IndexedVector</text>
<text text-anchor="middle" x="901.5" y="-802.5" font-family="Helvetica,sans-Serif" font-size="10.00">&lt; IR::StructField &gt;</text>
</a>
</g>
</g>
<!-- Node14&#45;&gt;Node15 -->
<g id="edge14_Node000014_Node000015" class="edge">
<title>Node14&#45;&gt;Node15</title>
<g id="a_edge14_Node000014_Node000015"><a xlink:title=" ">
<path fill="none" stroke="#63b8ff" d="M784.23,-810.5C802.85,-810.5 823.33,-810.5 841.84,-810.5"/>
<polygon fill="#63b8ff" stroke="#63b8ff" points="784.11,-807 774.11,-810.5 784.11,-814 784.11,-807"/>
</a>
</g>
</g>
<!-- Node20 -->
<g id="Node000020" class="node">
<title>Node20</title>
<g id="a_Node000020"><a xlink:href="class_p4_1_1_i_r_1_1_indexed_vector.html" target="_top" xlink:title=" ">
<polygon fill="white" stroke="#666666" points="961,-633.5 842,-633.5 842,-603.5 961,-603.5 961,-633.5"/>
<text text-anchor="start" x="850" y="-621.5" font-family="Helvetica,sans-Serif" font-size="10.00">P4::IR::IndexedVector</text>
<text text-anchor="middle" x="901.5" y="-610.5" font-family="Helvetica,sans-Serif" font-size="10.00">&lt; IR::Declaration &gt;</text>
</a>
</g>
</g>
<!-- Node19&#45;&gt;Node20 -->
<g id="edge19_Node000019_Node000020" class="edge">
<title>Node19&#45;&gt;Node20</title>
<g id="a_edge19_Node000019_Node000020"><a xlink:title=" ">
<path fill="none" stroke="#63b8ff" d="M784.23,-618.5C802.85,-618.5 823.33,-618.5 841.84,-618.5"/>
<polygon fill="#63b8ff" stroke="#63b8ff" points="784.11,-615 774.11,-618.5 784.11,-622 784.11,-615"/>
</a>
</g>
</g>
<!-- Node22 -->
<g id="Node000022" class="node">
<title>Node22</title>
<g id="a_Node000022"><a xlink:href="class_p4_1_1_i_r_1_1_indexed_vector.html" target="_top" xlink:title=" ">
<polygon fill="white" stroke="#666666" points="961,-585.5 842,-585.5 842,-555.5 961,-555.5 961,-585.5"/>
<text text-anchor="start" x="850" y="-573.5" font-family="Helvetica,sans-Serif" font-size="10.00">P4::IR::IndexedVector</text>
<text text-anchor="middle" x="901.5" y="-562.5" font-family="Helvetica,sans-Serif" font-size="10.00">&lt; IR::StatOrDecl &gt;</text>
</a>
</g>
</g>
<!-- Node21&#45;&gt;Node22 -->
<g id="edge21_Node000021_Node000022" class="edge">
<title>Node21&#45;&gt;Node22</title>
<g id="a_edge21_Node000021_Node000022"><a xlink:title=" ">
<path fill="none" stroke="#63b8ff" d="M784.23,-570.5C802.85,-570.5 823.33,-570.5 841.84,-570.5"/>
<polygon fill="#63b8ff" stroke="#63b8ff" points="784.11,-567 774.11,-570.5 784.11,-574 784.11,-567"/>
</a>
</g>
</g>
<!-- Node24 -->
<g id="Node000024" class="node">
<title>Node24</title>
<g id="a_Node000024"><a xlink:href="class_p4_1_1_i_r_1_1_indexed_vector.html" target="_top" xlink:title=" ">
<polygon fill="white" stroke="#666666" points="978,-537.5 825,-537.5 825,-507.5 978,-507.5 978,-537.5"/>
<text text-anchor="start" x="833" y="-525.5" font-family="Helvetica,sans-Serif" font-size="10.00">P4::IR::IndexedVector</text>
<text text-anchor="middle" x="901.5" y="-514.5" font-family="Helvetica,sans-Serif" font-size="10.00">&lt; IR::DpdkAsmStatement &gt;</text>
</a>
</g>
</g>
<!-- Node23&#45;&gt;Node24 -->
<g id="edge23_Node000023_Node000024" class="edge">
<title>Node23&#45;&gt;Node24</title>
<g id="a_edge23_Node000023_Node000024"><a xlink:title=" ">
<path fill="none" stroke="#63b8ff" d="M799.39,-522.5C807.81,-522.5 816.39,-522.5 824.81,-522.5"/>
<polygon fill="#63b8ff" stroke="#63b8ff" points="799.22,-519 789.22,-522.5 799.22,-526 799.22,-519"/>
</a>
</g>
</g>
<!-- Node26 -->
<g id="Node000026" class="node">
<title>Node26</title>
<g id="a_Node000026"><a xlink:href="class_p4_1_1_i_r_1_1_indexed_vector.html" target="_top" xlink:title=" ">
<polygon fill="white" stroke="#666666" points="961,-489.5 842,-489.5 842,-459.5 961,-459.5 961,-489.5"/>
<text text-anchor="start" x="850" y="-477.5" font-family="Helvetica,sans-Serif" font-size="10.00">P4::IR::IndexedVector</text>
<text text-anchor="middle" x="901.5" y="-466.5" font-family="Helvetica,sans-Serif" font-size="10.00">&lt; IR::DpdkTable &gt;</text>
</a>
</g>
</g>
<!-- Node25&#45;&gt;Node26 -->
<g id="edge25_Node000025_Node000026" class="edge">
<title>Node25&#45;&gt;Node26</title>
<g id="a_edge25_Node000025_Node000026"><a xlink:title=" ">
<path fill="none" stroke="#63b8ff" d="M784.23,-474.5C802.85,-474.5 823.33,-474.5 841.84,-474.5"/>
<polygon fill="#63b8ff" stroke="#63b8ff" points="784.11,-471 774.11,-474.5 784.11,-478 784.11,-471"/>
</a>
</g>
</g>
<!-- Node28 -->
<g id="Node000028" class="node">
<title>Node28</title>
<g id="a_Node000028"><a xlink:href="class_p4_1_1_i_r_1_1_indexed_vector.html" target="_top" xlink:title=" ">
<polygon fill="white" stroke="#666666" points="961.5,-441.5 841.5,-441.5 841.5,-411.5 961.5,-411.5 961.5,-441.5"/>
<text text-anchor="start" x="849.5" y="-429.5" font-family="Helvetica,sans-Serif" font-size="10.00">P4::IR::IndexedVector</text>
<text text-anchor="middle" x="901.5" y="-418.5" font-family="Helvetica,sans-Serif" font-size="10.00">&lt; IR::DpdkSelector &gt;</text>
</a>
</g>
</g>
<!-- Node27&#45;&gt;Node28 -->
<g id="edge27_Node000027_Node000028" class="edge">
<title>Node27&#45;&gt;Node28</title>
<g id="a_edge27_Node000027_Node000028"><a xlink:title=" ">
<path fill="none" stroke="#63b8ff" d="M784.13,-426.5C802.57,-426.5 822.83,-426.5 841.2,-426.5"/>
<polygon fill="#63b8ff" stroke="#63b8ff" points="784.11,-423 774.11,-426.5 784.11,-430 784.11,-423"/>
</a>
</g>
</g>
<!-- Node30 -->
<g id="Node000030" class="node">
<title>Node30</title>
<g id="a_Node000030"><a xlink:href="class_p4_1_1_i_r_1_1_indexed_vector.html" target="_top" xlink:title=" ">
<polygon fill="white" stroke="#666666" points="961,-393.5 842,-393.5 842,-363.5 961,-363.5 961,-393.5"/>
<text text-anchor="start" x="850" y="-381.5" font-family="Helvetica,sans-Serif" font-size="10.00">P4::IR::IndexedVector</text>
<text text-anchor="middle" x="901.5" y="-370.5" font-family="Helvetica,sans-Serif" font-size="10.00">&lt; IR::DpdkLearner &gt;</text>
</a>
</g>
</g>
<!-- Node29&#45;&gt;Node30 -->
<g id="edge29_Node000029_Node000030" class="edge">
<title>Node29&#45;&gt;Node30</title>
<g id="a_edge29_Node000029_Node000030"><a xlink:title=" ">
<path fill="none" stroke="#63b8ff" d="M784.23,-378.5C802.85,-378.5 823.33,-378.5 841.84,-378.5"/>
<polygon fill="#63b8ff" stroke="#63b8ff" points="784.11,-375 774.11,-378.5 784.11,-382 784.11,-375"/>
</a>
</g>
</g>
<!-- Node32 -->
<g id="Node000032" class="node">
<title>Node32</title>
<g id="a_Node000032"><a xlink:href="class_p4_1_1_i_r_1_1_indexed_vector.html" target="_top" xlink:title=" ">
<polygon fill="white" stroke="#666666" points="961,-345.5 842,-345.5 842,-315.5 961,-315.5 961,-345.5"/>
<text text-anchor="start" x="850" y="-333.5" font-family="Helvetica,sans-Serif" font-size="10.00">P4::IR::IndexedVector</text>
<text text-anchor="middle" x="901.5" y="-322.5" font-family="Helvetica,sans-Serif" font-size="10.00">&lt; IR::DpdkAction &gt;</text>
</a>
</g>
</g>
<!-- Node31&#45;&gt;Node32 -->
<g id="edge31_Node000031_Node000032" class="edge">
<title>Node31&#45;&gt;Node32</title>
<g id="a_edge31_Node000031_Node000032"><a xlink:title=" ">
<path fill="none" stroke="#63b8ff" d="M784.23,-330.5C802.85,-330.5 823.33,-330.5 841.84,-330.5"/>
<polygon fill="#63b8ff" stroke="#63b8ff" points="784.11,-327 774.11,-330.5 784.11,-334 784.11,-327"/>
</a>
</g>
</g>
<!-- Node34 -->
<g id="Node000034" class="node">
<title>Node34</title>
<g id="a_Node000034"><a xlink:href="class_p4_1_1_i_r_1_1_indexed_vector.html" target="_top" xlink:title=" ">
<polygon fill="white" stroke="#666666" points="961,-297.5 842,-297.5 842,-267.5 961,-267.5 961,-297.5"/>
<text text-anchor="start" x="850" y="-285.5" font-family="Helvetica,sans-Serif" font-size="10.00">P4::IR::IndexedVector</text>
<text text-anchor="middle" x="901.5" y="-274.5" font-family="Helvetica,sans-Serif" font-size="10.00">&lt; IR::Parameter &gt;</text>
</a>
</g>
</g>
<!-- Node33&#45;&gt;Node34 -->
<g id="edge33_Node000033_Node000034" class="edge">
<title>Node33&#45;&gt;Node34</title>
<g id="a_edge33_Node000033_Node000034"><a xlink:title=" ">
<path fill="none" stroke="#63b8ff" d="M784.23,-282.5C802.85,-282.5 823.33,-282.5 841.84,-282.5"/>
<polygon fill="#63b8ff" stroke="#63b8ff" points="784.11,-279 774.11,-282.5 784.11,-286 784.11,-279"/>
</a>
</g>
</g>
<!-- Node36 -->
<g id="Node000036" class="node">
<title>Node36</title>
<g id="a_Node000036"><a xlink:href="class_p4_1_1_i_r_1_1_indexed_vector.html" target="_top" xlink:title=" ">
<polygon fill="white" stroke="#666666" points="970,-249.5 833,-249.5 833,-219.5 970,-219.5 970,-249.5"/>
<text text-anchor="start" x="841" y="-237.5" font-family="Helvetica,sans-Serif" font-size="10.00">P4::IR::IndexedVector</text>
<text text-anchor="middle" x="901.5" y="-226.5" font-family="Helvetica,sans-Serif" font-size="10.00">&lt; IR::DpdkDeclaration &gt;</text>
</a>
</g>
</g>
<!-- Node35&#45;&gt;Node36 -->
<g id="edge35_Node000035_Node000036" class="edge">
<title>Node35&#45;&gt;Node36</title>
<g id="a_edge35_Node000035_Node000036"><a xlink:title=" ">
<path fill="none" stroke="#63b8ff" d="M791.48,-234.5C805,-234.5 819.2,-234.5 832.72,-234.5"/>
<polygon fill="#63b8ff" stroke="#63b8ff" points="791.3,-231 781.3,-234.5 791.3,-238 791.3,-231"/>
</a>
</g>
</g>
<!-- Node38 -->
<g id="Node000038" class="node">
<title>Node38</title>
<g id="a_Node000038"><a xlink:href="class_p4_1_1_i_r_1_1_indexed_vector.html" target="_top" xlink:title=" ">
<polygon fill="white" stroke="#666666" points="961,-201.5 842,-201.5 842,-171.5 961,-171.5 961,-201.5"/>
<text text-anchor="start" x="850" y="-189.5" font-family="Helvetica,sans-Serif" font-size="10.00">P4::IR::IndexedVector</text>
<text text-anchor="middle" x="901.5" y="-178.5" font-family="Helvetica,sans-Serif" font-size="10.00">&lt; IR::ParserState &gt;</text>
</a>
</g>
</g>
<!-- Node37&#45;&gt;Node38 -->
<g id="edge37_Node000037_Node000038" class="edge">
<title>Node37&#45;&gt;Node38</title>
<g id="a_edge37_Node000037_Node000038"><a xlink:title=" ">
<path fill="none" stroke="#63b8ff" d="M784.23,-186.5C802.85,-186.5 823.33,-186.5 841.84,-186.5"/>
<polygon fill="#63b8ff" stroke="#63b8ff" points="784.11,-183 774.11,-186.5 784.11,-190 784.11,-183"/>
</a>
</g>
</g>
<!-- Node43 -->
<g id="Node000043" class="node">
<title>Node43</title>
<g id="a_Node000043"><a xlink:href="class_p4_1_1_i_r_1_1_indexed_vector.html" target="_top" xlink:title=" ">
<polygon fill="white" stroke="#666666" points="975.5,-19 827.5,-19 827.5,0 975.5,0 975.5,-19"/>
<text text-anchor="middle" x="901.5" y="-7" font-family="Helvetica,sans-Serif" font-size="10.00">P4::IR::IndexedVector&lt; T &gt;</text>
</a>
</g>
</g>
<!-- Node42&#45;&gt;Node43 -->
<g id="edge42_Node000042_Node000043" class="edge">
<title>Node42&#45;&gt;Node43</title>
<g id="a_edge42_Node000042_Node000043"><a xlink:title=" ">
<path fill="none" stroke="#63b8ff" d="M788.4,-9.5C801.09,-9.5 814.49,-9.5 827.45,-9.5"/>
<polygon fill="#63b8ff" stroke="#63b8ff" points="788.4,-6 778.4,-9.5 788.4,-13 788.4,-6"/>
</a>
</g>
</g>
</g>
</svg>
