<?xml version="1.0" encoding="UTF-8" standalone="no"?>
<!DOCTYPE svg PUBLIC "-//W3C//DTD SVG 1.1//EN"
 "http://www.w3.org/Graphics/SVG/1.1/DTD/svg11.dtd">
<!-- Generated by graphviz version 2.43.0 (0)
 -->
<!-- Title: Graphical Class Hierarchy Pages: 1 -->
<svg width="956pt" height="86pt"
 viewBox="0.00 0.00 956.00 86.00" xmlns="http://www.w3.org/2000/svg" xmlns:xlink="http://www.w3.org/1999/xlink">
<g id="graph0" class="graph" transform="scale(1 1) rotate(0) translate(4 82)">
<title>Graphical Class Hierarchy</title>
<!-- Node0 -->
<g id="Node000000" class="node">
<title>Node0</title>
<g id="a_Node000000"><a xlink:title=" ">
<polygon fill="#e0e0e0" stroke="#999999" points="80,-48.5 0,-48.5 0,-29.5 80,-29.5 80,-48.5"/>
<text text-anchor="middle" x="40" y="-36.5" font-family="Helvetica,sans-Serif" font-size="10.00">std::ios_base</text>
</a>
</g>
</g>
<!-- Node1 -->
<g id="Node000001" class="node">
<title>Node1</title>
<g id="a_Node000001"><a xlink:title=" ">
<polygon fill="#e0e0e0" stroke="#999999" points="244,-48.5 116,-48.5 116,-29.5 244,-29.5 244,-48.5"/>
<text text-anchor="middle" x="180" y="-36.5" font-family="Helvetica,sans-Serif" font-size="10.00">std::basic_ios&lt; Char &gt;</text>
</a>
</g>
</g>
<!-- Node0&#45;&gt;Node1 -->
<g id="edge2464_Node000000_Node000001" class="edge">
<title>Node0&#45;&gt;Node1</title>
<g id="a_edge2464_Node000000_Node000001"><a xlink:title=" ">
<path fill="none" stroke="#63b8ff" d="M90.41,-39C98.7,-39 107.4,-39 115.97,-39"/>
<polygon fill="#63b8ff" stroke="#63b8ff" points="90.18,-35.5 80.18,-39 90.18,-42.5 90.18,-35.5"/>
</a>
</g>
</g>
<!-- Node2 -->
<g id="Node000002" class="node">
<title>Node2</title>
<g id="a_Node000002"><a xlink:title=" ">
<polygon fill="#e0e0e0" stroke="#999999" points="387.5,-78 281.5,-78 281.5,-48 387.5,-48 387.5,-78"/>
<text text-anchor="start" x="289.5" y="-66" font-family="Helvetica,sans-Serif" font-size="10.00">std::basic_istream</text>
<text text-anchor="middle" x="334.5" y="-55" font-family="Helvetica,sans-Serif" font-size="10.00">&lt; Char &gt;</text>
</a>
</g>
</g>
<!-- Node1&#45;&gt;Node2 -->
<g id="edge2465_Node000001_Node000002" class="edge">
<title>Node1&#45;&gt;Node2</title>
<g id="a_edge2465_Node000001_Node000002"><a xlink:title=" ">
<path fill="none" stroke="#63b8ff" d="M251.65,-50.12C261.65,-51.69 271.79,-53.29 281.36,-54.79"/>
<polygon fill="#63b8ff" stroke="#63b8ff" points="252.13,-46.65 241.71,-48.55 251.04,-53.57 252.13,-46.65"/>
</a>
</g>
</g>
<!-- Node7 -->
<g id="Node000007" class="node">
<title>Node7</title>
<g id="a_Node000007"><a xlink:title=" ">
<polygon fill="#e0e0e0" stroke="#999999" points="389,-30 280,-30 280,0 389,0 389,-30"/>
<text text-anchor="start" x="288" y="-18" font-family="Helvetica,sans-Serif" font-size="10.00">std::basic_ostream</text>
<text text-anchor="middle" x="334.5" y="-7" font-family="Helvetica,sans-Serif" font-size="10.00">&lt; Char &gt;</text>
</a>
</g>
</g>
<!-- Node1&#45;&gt;Node7 -->
<g id="edge2470_Node000001_Node000007" class="edge">
<title>Node1&#45;&gt;Node7</title>
<g id="a_edge2470_Node000001_Node000007"><a xlink:title=" ">
<path fill="none" stroke="#63b8ff" d="M251.87,-27.85C261.3,-26.36 270.83,-24.86 279.9,-23.44"/>
<polygon fill="#63b8ff" stroke="#63b8ff" points="251.04,-24.43 241.71,-29.45 252.13,-31.35 251.04,-24.43"/>
</a>
</g>
</g>
<!-- Node3 -->
<g id="Node000003" class="node">
<title>Node3</title>
<g id="a_Node000003"><a xlink:title=" ">
<polygon fill="#e0e0e0" stroke="#999999" points="540.5,-78 428.5,-78 428.5,-48 540.5,-48 540.5,-78"/>
<text text-anchor="start" x="436.5" y="-66" font-family="Helvetica,sans-Serif" font-size="10.00">std::basic_iostream</text>
<text text-anchor="middle" x="484.5" y="-55" font-family="Helvetica,sans-Serif" font-size="10.00">&lt; Char &gt;</text>
</a>
</g>
</g>
<!-- Node2&#45;&gt;Node3 -->
<g id="edge2466_Node000002_Node000003" class="edge">
<title>Node2&#45;&gt;Node3</title>
<g id="a_edge2466_Node000002_Node000003"><a xlink:title=" ">
<path fill="none" stroke="#63b8ff" d="M397.7,-63C407.85,-63 418.31,-63 428.28,-63"/>
<polygon fill="#63b8ff" stroke="#63b8ff" points="397.68,-59.5 387.68,-63 397.68,-66.5 397.68,-59.5"/>
</a>
</g>
</g>
<!-- Node4 -->
<g id="Node000004" class="node">
<title>Node4</title>
<g id="a_Node000004"><a xlink:title=" ">
<polygon fill="#e0e0e0" stroke="#999999" points="711,-78 580,-78 580,-48 711,-48 711,-78"/>
<text text-anchor="start" x="588" y="-66" font-family="Helvetica,sans-Serif" font-size="10.00">std::basic_stringstream</text>
<text text-anchor="middle" x="645.5" y="-55" font-family="Helvetica,sans-Serif" font-size="10.00">&lt; Char &gt;</text>
</a>
</g>
</g>
<!-- Node3&#45;&gt;Node4 -->
<g id="edge2467_Node000003_Node000004" class="edge">
<title>Node3&#45;&gt;Node4</title>
<g id="a_edge2467_Node000003_Node000004"><a xlink:title=" ">
<path fill="none" stroke="#63b8ff" d="M550.91,-63C560.47,-63 570.32,-63 579.87,-63"/>
<polygon fill="#63b8ff" stroke="#63b8ff" points="550.66,-59.5 540.66,-63 550.66,-66.5 550.66,-59.5"/>
</a>
</g>
</g>
<!-- Node5 -->
<g id="Node000005" class="node">
<title>Node5</title>
<g id="a_Node000005"><a xlink:title=" ">
<polygon fill="#e0e0e0" stroke="#999999" points="847,-72.5 747,-72.5 747,-53.5 847,-53.5 847,-72.5"/>
<text text-anchor="middle" x="797" y="-60.5" font-family="Helvetica,sans-Serif" font-size="10.00">std::stringstream</text>
</a>
</g>
</g>
<!-- Node4&#45;&gt;Node5 -->
<g id="edge2468_Node000004_Node000005" class="edge">
<title>Node4&#45;&gt;Node5</title>
<g id="a_edge2468_Node000004_Node000005"><a xlink:title=" ">
<path fill="none" stroke="#63b8ff" d="M721.38,-63C730.07,-63 738.76,-63 746.98,-63"/>
<polygon fill="#63b8ff" stroke="#63b8ff" points="721.2,-59.5 711.2,-63 721.2,-66.5 721.2,-59.5"/>
</a>
</g>
</g>
<!-- Node6 -->
<g id="Node000006" class="node">
<title>Node6</title>
<g id="a_Node000006"><a xlink:href="class_p_h_v_1_1_error.html" target="_top" xlink:title=" ">
<polygon fill="white" stroke="#666666" points="948,-72.5 883,-72.5 883,-53.5 948,-53.5 948,-72.5"/>
<text text-anchor="middle" x="915.5" y="-60.5" font-family="Helvetica,sans-Serif" font-size="10.00">PHV::Error</text>
</a>
</g>
</g>
<!-- Node5&#45;&gt;Node6 -->
<g id="edge2469_Node000005_Node000006" class="edge">
<title>Node5&#45;&gt;Node6</title>
<g id="a_edge2469_Node000005_Node000006"><a xlink:title=" ">
<path fill="none" stroke="#63b8ff" d="M857.33,-63C866.1,-63 874.83,-63 882.74,-63"/>
<polygon fill="#63b8ff" stroke="#63b8ff" points="857.07,-59.5 847.07,-63 857.07,-66.5 857.07,-59.5"/>
</a>
</g>
</g>
<!-- Node7&#45;&gt;Node3 -->
<g id="edge2472_Node000007_Node000003" class="edge">
<title>Node7&#45;&gt;Node3</title>
<g id="a_edge2472_Node000007_Node000003"><a xlink:title=" ">
<path fill="none" stroke="#63b8ff" d="M391.63,-33.21C406.69,-38.09 422.79,-43.31 437.24,-48"/>
<polygon fill="#63b8ff" stroke="#63b8ff" points="392.51,-29.81 381.92,-30.06 390.35,-36.47 392.51,-29.81"/>
</a>
</g>
</g>
<!-- Node8 -->
<g id="Node000008" class="node">
<title>Node8</title>
<g id="a_Node000008"><a xlink:href="class_p4_1_1onullstream.html" target="_top" xlink:title=" ">
<polygon fill="white" stroke="#666666" points="544,-30 425,-30 425,0 544,0 544,-30"/>
<text text-anchor="start" x="433" y="-18" font-family="Helvetica,sans-Serif" font-size="10.00">P4::onullstream&lt; cT,</text>
<text text-anchor="middle" x="484.5" y="-7" font-family="Helvetica,sans-Serif" font-size="10.00"> traits &gt;</text>
</a>
</g>
</g>
<!-- Node7&#45;&gt;Node8 -->
<g id="edge2471_Node000007_Node000008" class="edge">
<title>Node7&#45;&gt;Node8</title>
<g id="a_edge2471_Node000007_Node000008"><a xlink:title=" ">
<path fill="none" stroke="#63b8ff" d="M399.53,-15C407.98,-15 416.6,-15 424.94,-15"/>
<polygon fill="#63b8ff" stroke="#63b8ff" points="399.35,-11.5 389.35,-15 399.35,-18.5 399.35,-11.5"/>
</a>
</g>
</g>
</g>
</svg>
