<?xml version="1.0" encoding="UTF-8" standalone="no"?>
<!DOCTYPE svg PUBLIC "-//W3C//DTD SVG 1.1//EN"
 "http://www.w3.org/Graphics/SVG/1.1/DTD/svg11.dtd">
<!-- Generated by graphviz version 2.43.0 (0)
 -->
<!-- Title: P4::ParserOptions Pages: 1 -->
<!--zoomable 373 -->

<svg id="main" version="1.1" xmlns="http://www.w3.org/2000/svg" xmlns:xlink="http://www.w3.org/1999/xlink" xml:space="preserve" onload="init(evt)">

<style type="text/css"><![CDATA[
.node, .edge {opacity: 0.7;}
.node.selected, .edge.selected {opacity: 1;}
.edge:hover path { stroke: red; }
.edge:hover polygon { stroke: red; fill: red; }
]]></style>

<defs>
  <circle id="rim" cx="0" cy="0" r="7"/>
  <circle id="rim2" cx="0" cy="0" r="3.5"/>
  <g id="zoomPlus">
    <use xlink:href="#rim" fill="#404040"><set attributeName="fill" to="#808080" begin="zoomplus.mouseover" end="zoomplus.mouseout"/></use>
    <path d="M-4,0h8M0,-4v8" fill="none" stroke="white" stroke-width="1.5" pointer-events="none"/>
  </g>
  <g id="zoomMin">
    <use xlink:href="#rim" fill="#404040"><set attributeName="fill" to="#808080" begin="zoomminus.mouseover" end="zoomminus.mouseout"/></use>
    <path d="M-4,0h8" fill="none" stroke="white" stroke-width="1.5" pointer-events="none"/>
  </g>
  <g id="arrowUp" transform="translate(30 24)">
    <use xlink:href="#rim"/>
    <path pointer-events="none" fill="none" stroke="white" stroke-width="1.5" d="M0,-3.0v7 M-2.5,-0.5L0,-3.0L2.5,-0.5"/>
  </g>
  <g id="arrowRight" transform="rotate(90) translate(36 -43)">
    <use xlink:href="#rim"/>
    <path pointer-events="none" fill="none" stroke="white" stroke-width="1.5" d="M0,-3.0v7 M-2.5,-0.5L0,-3.0L2.5,-0.5"/>
  </g>
  <g id="arrowDown" transform="rotate(180) translate(-30 -48)">
    <use xlink:href="#rim"/>
    <path pointer-events="none" fill="none" stroke="white" stroke-width="1.5" d="M0,-3.0v7 M-2.5,-0.5L0,-3.0L2.5,-0.5"/>
  </g>
  <g id="arrowLeft" transform="rotate(270) translate(-36 17)">
    <use xlink:href="#rim"/>
    <path pointer-events="none" fill="none" stroke="white" stroke-width="1.5" d="M0,-3.0v7 M-2.5,-0.5L0,-3.0L2.5,-0.5"/>
  </g>
  <g id="resetDef">
    <use xlink:href="#rim2" fill="#404040"><set attributeName="fill" to="#808080" begin="reset.mouseover" end="reset.mouseout"/></use>
  </g>
</defs>
<script type="application/ecmascript">
var viewWidth = 969;
var viewHeight = 373;
var sectionId = 'dynsection-0';
</script>
<script type="application/ecmascript" xlink:href="svg.min.js"/>
<svg id="graph" class="graph">
<g id="viewport">
<title>P4::ParserOptions</title>
<!-- Node1 -->
<g id="Node000001" class="node">
<title>Node1</title>
<g id="a_Node000001"><a xlink:title=" ">
<polygon fill="#999999" stroke="#666666" points="233,-179 131,-179 131,-160 233,-160 233,-179"/>
<text text-anchor="middle" x="182" y="-167" font-family="Helvetica,sans-Serif" font-size="10.00">P4::ParserOptions</text>
</a>
</g>
</g>
<!-- Node3 -->
<g id="Node000003" class="node">
<title>Node3</title>
<g id="a_Node000003"><a xlink:href="class_p4_1_1_compiler_options.html" target="_top" xlink:title=" ">
<polygon fill="white" stroke="#bfbfbf" points="385,-179 269,-179 269,-160 385,-160 385,-179"/>
<text text-anchor="middle" x="327" y="-167" font-family="Helvetica,sans-Serif" font-size="10.00">P4::CompilerOptions</text>
</a>
</g>
</g>
<!-- Node1&#45;&gt;Node3 -->
<g id="edge2_Node000001_Node000003" class="edge">
<title>Node1&#45;&gt;Node3</title>
<g id="a_edge2_Node000001_Node000003"><a xlink:title=" ">
<path fill="none" stroke="#63b8ff" d="M243.25,-169.5C251.75,-169.5 260.47,-169.5 268.92,-169.5"/>
<polygon fill="#63b8ff" stroke="#63b8ff" points="243.01,-166 233.01,-169.5 243.01,-173 243.01,-166"/>
</a>
</g>
</g>
<!-- Node2 -->
<g id="Node000002" class="node">
<title>Node2</title>
<g id="a_Node000002"><a xlink:href="class_p4_1_1_util_1_1_options.html" target="_top" xlink:title=" ">
<polygon fill="white" stroke="#bfbfbf" points="95,-179 0,-179 0,-160 95,-160 95,-179"/>
<text text-anchor="middle" x="47.5" y="-167" font-family="Helvetica,sans-Serif" font-size="10.00">P4::Util::Options</text>
</a>
</g>
</g>
<!-- Node2&#45;&gt;Node1 -->
<g id="edge1_Node000001_Node000002" class="edge">
<title>Node2&#45;&gt;Node1</title>
<g id="a_edge1_Node000001_Node000002"><a xlink:title=" ">
<path fill="none" stroke="#63b8ff" d="M105.34,-169.5C113.76,-169.5 122.38,-169.5 130.66,-169.5"/>
<polygon fill="#63b8ff" stroke="#63b8ff" points="105.21,-166 95.21,-169.5 105.21,-173 105.21,-166"/>
</a>
</g>
</g>
<!-- Node4 -->
<g id="Node000004" class="node">
<title>Node4</title>
<g id="a_Node000004"><a xlink:href="class_p4_1_1_b_m_v2_1_1_b_m_v2_options.html" target="_top" xlink:title=" ">
<polygon fill="white" stroke="#bfbfbf" points="558,-327 423,-327 423,-308 558,-308 558,-327"/>
<text text-anchor="middle" x="490.5" y="-315" font-family="Helvetica,sans-Serif" font-size="10.00">P4::BMV2::BMV2Options</text>
</a>
</g>
</g>
<!-- Node3&#45;&gt;Node4 -->
<g id="edge3_Node000003_Node000004" class="edge">
<title>Node3&#45;&gt;Node4</title>
<g id="a_edge3_Node000003_Node000004"><a xlink:title=" ">
<path fill="none" stroke="#63b8ff" d="M336.55,-188.55C350.26,-216.88 379.84,-269.83 421,-298.5 426.57,-302.38 432.91,-305.47 439.43,-307.93"/>
<polygon fill="#63b8ff" stroke="#63b8ff" points="339.64,-186.89 332.23,-179.32 333.3,-189.86 339.64,-186.89"/>
</a>
</g>
</g>
<!-- Node9 -->
<g id="Node000009" class="node">
<title>Node9</title>
<g id="a_Node000009"><a xlink:href="class_p4_1_1_d_p_d_k_1_1_dpdk_options.html" target="_top" xlink:title=" ">
<polygon fill="white" stroke="#bfbfbf" points="556,-290 425,-290 425,-271 556,-271 556,-290"/>
<text text-anchor="middle" x="490.5" y="-278" font-family="Helvetica,sans-Serif" font-size="10.00">P4::DPDK::DpdkOptions</text>
</a>
</g>
</g>
<!-- Node3&#45;&gt;Node9 -->
<g id="edge8_Node000003_Node000009" class="edge">
<title>Node3&#45;&gt;Node9</title>
<g id="a_edge8_Node000003_Node000009"><a xlink:title=" ">
<path fill="none" stroke="#63b8ff" d="M341.2,-187.21C357.63,-208.02 387.65,-242.17 421,-261.5 427.62,-265.34 435.05,-268.43 442.51,-270.91"/>
<polygon fill="#63b8ff" stroke="#63b8ff" points="343.89,-184.97 335.01,-179.19 338.35,-189.24 343.89,-184.97"/>
</a>
</g>
</g>
<!-- Node10 -->
<g id="Node000010" class="node">
<title>Node10</title>
<g id="a_Node000010"><a xlink:href="class_p4_1_1_ebpf_options.html" target="_top" xlink:title=" ">
<polygon fill="white" stroke="#bfbfbf" points="537.5,-253 443.5,-253 443.5,-234 537.5,-234 537.5,-253"/>
<text text-anchor="middle" x="490.5" y="-241" font-family="Helvetica,sans-Serif" font-size="10.00">P4::EbpfOptions</text>
</a>
</g>
</g>
<!-- Node3&#45;&gt;Node10 -->
<g id="edge9_Node000003_Node000010" class="edge">
<title>Node3&#45;&gt;Node10</title>
<g id="a_edge9_Node000003_Node000010"><a xlink:title=" ">
<path fill="none" stroke="#63b8ff" d="M350.05,-184.8C368.36,-196.95 395.46,-213.63 421,-224.5 429.63,-228.17 439.17,-231.34 448.33,-233.98"/>
<polygon fill="#63b8ff" stroke="#63b8ff" points="351.82,-181.78 341.57,-179.09 347.91,-187.58 351.82,-181.78"/>
</a>
</g>
</g>
<!-- Node11 -->
<g id="Node000011" class="node">
<title>Node11</title>
<g id="a_Node000011"><a xlink:href="class_p4_1_1_p4_fmt_1_1_p4fmt_options.html" target="_top" xlink:title=" ">
<polygon fill="white" stroke="#bfbfbf" points="560,-216 421,-216 421,-197 560,-197 560,-216"/>
<text text-anchor="middle" x="490.5" y="-204" font-family="Helvetica,sans-Serif" font-size="10.00">P4::P4Fmt::P4fmtOptions</text>
</a>
</g>
</g>
<!-- Node3&#45;&gt;Node11 -->
<g id="edge10_Node000003_Node000011" class="edge">
<title>Node3&#45;&gt;Node11</title>
<g id="a_edge10_Node000003_Node000011"><a xlink:title=" ">
<path fill="none" stroke="#63b8ff" d="M379.45,-181.29C401.5,-186.34 426.92,-192.16 447.77,-196.94"/>
<polygon fill="#63b8ff" stroke="#63b8ff" points="380.12,-177.85 369.59,-179.03 378.56,-184.67 380.12,-177.85"/>
</a>
</g>
</g>
<!-- Node12 -->
<g id="Node000012" class="node">
<title>Node12</title>
<g id="a_Node000012"><a xlink:href="class_p4_1_1_t_c_1_1_t_c_options.html" target="_top" xlink:title=" ">
<polygon fill="white" stroke="#bfbfbf" points="541.5,-179 439.5,-179 439.5,-160 541.5,-160 541.5,-179"/>
<text text-anchor="middle" x="490.5" y="-167" font-family="Helvetica,sans-Serif" font-size="10.00">P4::TC::TCOptions</text>
</a>
</g>
</g>
<!-- Node3&#45;&gt;Node12 -->
<g id="edge11_Node000003_Node000012" class="edge">
<title>Node3&#45;&gt;Node12</title>
<g id="a_edge11_Node000003_Node000012"><a xlink:title=" ">
<path fill="none" stroke="#63b8ff" d="M395.43,-169.5C410.11,-169.5 425.39,-169.5 439.26,-169.5"/>
<polygon fill="#63b8ff" stroke="#63b8ff" points="395.39,-166 385.39,-169.5 395.39,-173 395.39,-166"/>
</a>
</g>
</g>
<!-- Node13 -->
<g id="Node000013" class="node">
<title>Node13</title>
<g id="a_Node000013"><a xlink:href="class_p4_1_1_test_1_1_p4_reachability_options.html" target="_top" xlink:title=" ">
<polygon fill="white" stroke="#bfbfbf" points="557,-141.5 424,-141.5 424,-111.5 557,-111.5 557,-141.5"/>
<text text-anchor="start" x="432" y="-129.5" font-family="Helvetica,sans-Serif" font-size="10.00">P4::Test::P4Reachability</text>
<text text-anchor="middle" x="490.5" y="-118.5" font-family="Helvetica,sans-Serif" font-size="10.00">Options</text>
</a>
</g>
</g>
<!-- Node3&#45;&gt;Node13 -->
<g id="edge12_Node000003_Node000013" class="edge">
<title>Node3&#45;&gt;Node13</title>
<g id="a_edge12_Node000003_Node000013"><a xlink:title=" ">
<path fill="none" stroke="#63b8ff" d="M373.76,-157.32C392.23,-152.4 413.72,-146.68 433.14,-141.51"/>
<polygon fill="#63b8ff" stroke="#63b8ff" points="372.6,-154 363.84,-159.96 374.41,-160.77 372.6,-154"/>
</a>
</g>
</g>
<!-- Node14 -->
<g id="Node000014" class="node">
<title>Node14</title>
<g id="a_Node000014"><a xlink:href="class_p4_1_1_test_1_1_p4_test_options.html" target="_top" xlink:title=" ">
<polygon fill="white" stroke="#bfbfbf" points="555,-93 426,-93 426,-74 555,-74 555,-93"/>
<text text-anchor="middle" x="490.5" y="-81" font-family="Helvetica,sans-Serif" font-size="10.00">P4::Test::P4TestOptions</text>
</a>
</g>
</g>
<!-- Node3&#45;&gt;Node14 -->
<g id="edge13_Node000003_Node000014" class="edge">
<title>Node3&#45;&gt;Node14</title>
<g id="a_edge13_Node000003_Node000014"><a xlink:title=" ">
<path fill="none" stroke="#63b8ff" d="M346.53,-153.08C364.45,-137.99 392.94,-115.97 421,-102.5 428.79,-98.76 437.44,-95.65 445.9,-93.1"/>
<polygon fill="#63b8ff" stroke="#63b8ff" points="343.94,-150.7 338.64,-159.87 348.5,-156.01 343.94,-150.7"/>
</a>
</g>
</g>
<!-- Node15 -->
<g id="Node000015" class="node">
<title>Node15</title>
<g id="a_Node000015"><a xlink:href="class_p4_1_1graphs_1_1_options.html" target="_top" xlink:title=" ">
<polygon fill="white" stroke="#bfbfbf" points="546,-56 435,-56 435,-37 546,-37 546,-56"/>
<text text-anchor="middle" x="490.5" y="-44" font-family="Helvetica,sans-Serif" font-size="10.00">P4::graphs::Options</text>
</a>
</g>
</g>
<!-- Node3&#45;&gt;Node15 -->
<g id="edge14_Node000003_Node000015" class="edge">
<title>Node3&#45;&gt;Node15</title>
<g id="a_edge14_Node000003_Node000015"><a xlink:title=" ">
<path fill="none" stroke="#63b8ff" d="M339.16,-151.28C354.6,-127.65 384.72,-86.81 421,-64.5 426.55,-61.09 432.74,-58.31 439.06,-56.06"/>
<polygon fill="#63b8ff" stroke="#63b8ff" points="336.05,-149.66 333.64,-159.98 341.96,-153.41 336.05,-149.66"/>
</a>
</g>
</g>
<!-- Node16 -->
<g id="Node000016" class="node">
<title>Node16</title>
<g id="a_Node000016"><a xlink:href="class_p4_test_options.html" target="_top" xlink:title=" ">
<polygon fill="white" stroke="#bfbfbf" points="533.5,-19 447.5,-19 447.5,0 533.5,0 533.5,-19"/>
<text text-anchor="middle" x="490.5" y="-7" font-family="Helvetica,sans-Serif" font-size="10.00">P4TestOptions</text>
</a>
</g>
</g>
<!-- Node3&#45;&gt;Node16 -->
<g id="edge15_Node000003_Node000016" class="edge">
<title>Node3&#45;&gt;Node16</title>
<g id="a_edge15_Node000003_Node000016"><a xlink:title=" ">
<path fill="none" stroke="#63b8ff" d="M335.25,-150.23C347.84,-119.43 376.71,-59.38 421,-27.5 428.78,-21.9 438.18,-18.04 447.49,-15.38"/>
<polygon fill="#63b8ff" stroke="#63b8ff" points="331.88,-149.21 331.48,-159.8 338.4,-151.78 331.88,-149.21"/>
</a>
</g>
</g>
<!-- Node5 -->
<g id="Node000005" class="node">
<title>Node5</title>
<g id="a_Node000005"><a xlink:href="class_p4_1_1_b_m_v2_1_1_portable_options.html" target="_top" xlink:title=" ">
<polygon fill="white" stroke="#bfbfbf" points="756,-346 609,-346 609,-327 756,-327 756,-346"/>
<text text-anchor="middle" x="682.5" y="-334" font-family="Helvetica,sans-Serif" font-size="10.00">P4::BMV2::PortableOptions</text>
</a>
</g>
</g>
<!-- Node4&#45;&gt;Node5 -->
<g id="edge4_Node000004_Node000005" class="edge">
<title>Node4&#45;&gt;Node5</title>
<g id="a_edge4_Node000004_Node000005"><a xlink:title=" ">
<path fill="none" stroke="#63b8ff" d="M568.32,-325.18C581.69,-326.52 595.55,-327.9 608.8,-329.23"/>
<polygon fill="#63b8ff" stroke="#63b8ff" points="568.52,-321.68 558.22,-324.17 567.82,-328.65 568.52,-321.68"/>
</a>
</g>
</g>
<!-- Node8 -->
<g id="Node000008" class="node">
<title>Node8</title>
<g id="a_Node000008"><a xlink:href="class_p4_1_1_b_m_v2_1_1_simple_switch_options.html" target="_top" xlink:title=" ">
<polygon fill="white" stroke="#bfbfbf" points="769,-309 596,-309 596,-290 769,-290 769,-309"/>
<text text-anchor="middle" x="682.5" y="-297" font-family="Helvetica,sans-Serif" font-size="10.00">P4::BMV2::SimpleSwitchOptions</text>
</a>
</g>
</g>
<!-- Node4&#45;&gt;Node8 -->
<g id="edge7_Node000004_Node000008" class="edge">
<title>Node4&#45;&gt;Node8</title>
<g id="a_edge7_Node000004_Node000008"><a xlink:title=" ">
<path fill="none" stroke="#63b8ff" d="M568.35,-310.22C577.43,-309.36 586.74,-308.48 595.93,-307.61"/>
<polygon fill="#63b8ff" stroke="#63b8ff" points="567.85,-306.75 558.22,-311.18 568.51,-313.72 567.85,-306.75"/>
</a>
</g>
</g>
<!-- Node6 -->
<g id="Node000006" class="node">
<title>Node6</title>
<g id="a_Node000006"><a xlink:href="class_p4_1_1_b_m_v2_1_1_pna_nic_options.html" target="_top" xlink:title=" ">
<polygon fill="white" stroke="#bfbfbf" points="953,-365 813,-365 813,-346 953,-346 953,-365"/>
<text text-anchor="middle" x="883" y="-353" font-family="Helvetica,sans-Serif" font-size="10.00">P4::BMV2::PnaNicOptions</text>
</a>
</g>
</g>
<!-- Node5&#45;&gt;Node6 -->
<g id="edge5_Node000005_Node000006" class="edge">
<title>Node5&#45;&gt;Node6</title>
<g id="a_edge5_Node000005_Node000006"><a xlink:title=" ">
<path fill="none" stroke="#63b8ff" d="M766.15,-344.41C781.74,-345.9 797.88,-347.45 813,-348.9"/>
<polygon fill="#63b8ff" stroke="#63b8ff" points="766.29,-340.91 756.01,-343.44 765.63,-347.88 766.29,-340.91"/>
</a>
</g>
</g>
<!-- Node7 -->
<g id="Node000007" class="node">
<title>Node7</title>
<g id="a_Node000007"><a xlink:href="class_p4_1_1_b_m_v2_1_1_psa_switch_options.html" target="_top" xlink:title=" ">
<polygon fill="white" stroke="#bfbfbf" points="961,-328 805,-328 805,-309 961,-309 961,-328"/>
<text text-anchor="middle" x="883" y="-316" font-family="Helvetica,sans-Serif" font-size="10.00">P4::BMV2::PsaSwitchOptions</text>
</a>
</g>
</g>
<!-- Node5&#45;&gt;Node7 -->
<g id="edge6_Node000005_Node000007" class="edge">
<title>Node5&#45;&gt;Node7</title>
<g id="a_edge6_Node000005_Node000007"><a xlink:title=" ">
<path fill="none" stroke="#63b8ff" d="M766.14,-329.01C778.9,-327.85 792.04,-326.66 804.68,-325.51"/>
<polygon fill="#63b8ff" stroke="#63b8ff" points="765.65,-325.54 756.01,-329.93 766.28,-332.51 765.65,-325.54"/>
</a>
</g>
</g>
</g>
</svg>

<g id="navigator" transform="translate(0 0)" fill="#404254">
  <rect fill="#f2f5e9" fill-opacity="0.5" stroke="#606060" stroke-width=".5" x="0" y="0" width="60" height="60"/>
  <use id="zoomplus" xlink:href="#zoomPlus" x="17" y="9" onmousedown="handleZoom(evt,'in')"/>
  <use id="zoomminus" xlink:href="#zoomMin" x="42" y="9" onmousedown="handleZoom(evt,'out')"/>
  <use id="reset" xlink:href="#resetDef" x="30" y="36" onmousedown="handleReset()"/>
   <use id="arrowup" xlink:href="#arrowUp" x="0" y="0" onmousedown="handlePan(0,-1)"/>
  <use id="arrowright" xlink:href="#arrowRight" x="0" y="0" onmousedown="handlePan(1,0)"/>
  <use id="arrowdown" xlink:href="#arrowDown" x="0" y="0" onmousedown="handlePan(0,1)"/>
  <use id="arrowleft" xlink:href="#arrowLeft" x="0" y="0" onmousedown="handlePan(-1,0)"/>
</g>
<svg viewBox="0 0 15 15" width="100%" height="30px" preserveAspectRatio="xMaxYMin meet">
 <g id="arrow_out" transform="scale(0.3 0.3)">
  <a xlink:href="class_p4_1_1_parser_options__inherit__graph_org.svg" target="_base">
   <rect id="button" ry="5" rx="5" y="6" x="6" height="38" width="38"
        fill="#f2f5e9" fill-opacity="0.5" stroke="#606060" stroke-width="1.0"/>
   <path id="arrow"
     d="M 11.500037,31.436501 C 11.940474,20.09759 22.043105,11.32322 32.158766,21.979434 L 37.068811,17.246167 C 37.068811,17.246167 37.088388,32 37.088388,32 L 22.160133,31.978069 C 22.160133,31.978069 26.997745,27.140456 26.997745,27.140456 C 18.528582,18.264221 13.291696,25.230495 11.500037,31.436501 z"
     style="fill:#404040;"/>
  </a>
 </g>
</svg>

<style type='text/css'>
<![CDATA[
[data-mouse-over-selected='false'] { opacity: 0.7; }
[data-mouse-over-selected='true']  { opacity: 1.0; }
]]>
</style>
<script type="application/ecmascript"><![CDATA[
document.addEventListener('DOMContentLoaded', (event) => {
  highlightEdges();
  highlightAdjacentNodes();
});
]]></script>
</svg>
