<?xml version="1.0" encoding="UTF-8" standalone="no"?>
<!DOCTYPE svg PUBLIC "-//W3C//DTD SVG 1.1//EN"
 "http://www.w3.org/Graphics/SVG/1.1/DTD/svg11.dtd">
<!-- Generated by graphviz version 2.43.0 (0)
 -->
<!-- Title: P4::RemoveActionParameters Pages: 1 -->
<svg width="169pt" height="192pt"
 viewBox="0.00 0.00 169.00 192.00" xmlns="http://www.w3.org/2000/svg" xmlns:xlink="http://www.w3.org/1999/xlink">

<svg id="main" version="1.1" xmlns="http://www.w3.org/2000/svg" xmlns:xlink="http://www.w3.org/1999/xlink" xml:space="preserve">

<style type="text/css"><![CDATA[
.node, .edge {opacity: 0.7;}
.node.selected, .edge.selected {opacity: 1;}
.edge:hover path { stroke: red; }
.edge:hover polygon { stroke: red; fill: red; }
]]></style>
<script type="application/ecmascript" xlink:href="svg.min.js"/>
<svg id="graph" class="graph">
<g id="graph0" class="graph" transform="scale(1 1) rotate(0) translate(4 188)">
<title>P4::RemoveActionParameters</title>
<!-- Node1 -->
<g id="Node000001" class="node">
<title>Node1</title>
<g id="a_Node000001"><a xlink:title=" ">
<polygon fill="#999999" stroke="#666666" points="161,-19 0,-19 0,0 161,0 161,-19"/>
<text text-anchor="middle" x="80.5" y="-7" font-family="Helvetica,sans-Serif" font-size="10.00">P4::RemoveActionParameters</text>
</a>
</g>
</g>
<!-- Node2 -->
<g id="Node000002" class="node">
<title>Node2</title>
<g id="a_Node000002"><a xlink:href="class_p4_1_1_pass_manager.html" target="_top" xlink:title=" ">
<polygon fill="white" stroke="#bfbfbf" points="130,-74 31,-74 31,-55 130,-55 130,-74"/>
<text text-anchor="middle" x="80.5" y="-62" font-family="Helvetica,sans-Serif" font-size="10.00">P4::PassManager</text>
</a>
</g>
</g>
<!-- Node2&#45;&gt;Node1 -->
<g id="edge1_Node000001_Node000002" class="edge">
<title>Node2&#45;&gt;Node1</title>
<g id="a_edge1_Node000001_Node000002"><a xlink:title=" ">
<path fill="none" stroke="#63b8ff" d="M80.5,-44.66C80.5,-35.93 80.5,-25.99 80.5,-19.09"/>
<polygon fill="#63b8ff" stroke="#63b8ff" points="77,-44.75 80.5,-54.75 84,-44.75 77,-44.75"/>
</a>
</g>
</g>
<!-- Node3 -->
<g id="Node000003" class="node">
<title>Node3</title>
<g id="a_Node000003"><a xlink:href="class_p4_1_1_visitor.html" target="_top" xlink:title=" ">
<polygon fill="white" stroke="#bfbfbf" points="113.5,-184 47.5,-184 47.5,-165 113.5,-165 113.5,-184"/>
<text text-anchor="middle" x="80.5" y="-172" font-family="Helvetica,sans-Serif" font-size="10.00">P4::Visitor</text>
</a>
</g>
</g>
<!-- Node3&#45;&gt;Node2 -->
<g id="edge2_Node000002_Node000003" class="edge">
<title>Node3&#45;&gt;Node2</title>
<g id="a_edge2_Node000002_Node000003"><a xlink:title=" ">
<path fill="none" stroke="#63b8ff" d="M71.84,-155.61C66.74,-142.97 61.79,-125.57 64.5,-110 66.76,-97.06 72.44,-82.91 76.39,-74.12"/>
<polygon fill="#63b8ff" stroke="#63b8ff" points="68.73,-157.24 75.98,-164.96 75.13,-154.4 68.73,-157.24"/>
</a>
</g>
</g>
<!-- Node4 -->
<g id="Node000004" class="node">
<title>Node4</title>
<g id="a_Node000004"><a xlink:href="class_p4_1_1_backtrack.html" target="_top" xlink:title=" ">
<polygon fill="white" stroke="#bfbfbf" points="157,-129 74,-129 74,-110 157,-110 157,-129"/>
<text text-anchor="middle" x="115.5" y="-117" font-family="Helvetica,sans-Serif" font-size="10.00">P4::Backtrack</text>
</a>
</g>
</g>
<!-- Node3&#45;&gt;Node4 -->
<g id="edge4_Node000004_Node000003" class="edge">
<title>Node3&#45;&gt;Node4</title>
<g id="a_edge4_Node000004_Node000003"><a xlink:title=" ">
<path fill="none" stroke="#63b8ff" d="M91.8,-156.39C97.82,-147.27 104.97,-136.45 109.83,-129.09"/>
<polygon fill="#63b8ff" stroke="#63b8ff" points="88.87,-154.47 86.28,-164.75 94.71,-158.33 88.87,-154.47"/>
</a>
</g>
</g>
<!-- Node4&#45;&gt;Node2 -->
<g id="edge3_Node000002_Node000004" class="edge">
<title>Node4&#45;&gt;Node2</title>
<g id="a_edge3_Node000002_Node000004"><a xlink:title=" ">
<path fill="none" stroke="#63b8ff" d="M104.2,-101.39C98.18,-92.27 91.03,-81.45 86.17,-74.09"/>
<polygon fill="#63b8ff" stroke="#63b8ff" points="101.29,-103.33 109.72,-109.75 107.13,-99.47 101.29,-103.33"/>
</a>
</g>
</g>
</g>
</svg>
</svg>

<style type='text/css'>
<![CDATA[
[data-mouse-over-selected='false'] { opacity: 0.7; }
[data-mouse-over-selected='true']  { opacity: 1.0; }
]]>
</style>
<script type="application/ecmascript"><![CDATA[
document.addEventListener('DOMContentLoaded', (event) => {
  highlightEdges();
  highlightAdjacentNodes();
});
]]></script>
</svg>
