<?xml version="1.0" encoding="UTF-8" standalone="no"?>
<!DOCTYPE svg PUBLIC "-//W3C//DTD SVG 1.1//EN"
 "http://www.w3.org/Graphics/SVG/1.1/DTD/svg11.dtd">
<!-- Generated by graphviz version 2.43.0 (0)
 -->
<!-- Title: Backtrack Pages: 1 -->
<svg width="514pt" height="1724pt"
 viewBox="0.00 0.00 514.00 1724.00" xmlns="http://www.w3.org/2000/svg" xmlns:xlink="http://www.w3.org/1999/xlink">
<g id="graph0" class="graph" transform="scale(1 1) rotate(0) translate(4 1720)">
<title>Backtrack</title>
<polygon fill="white" stroke="transparent" points="-4,4 -4,-1720 510,-1720 510,4 -4,4"/>
<!-- Node1 -->
<g id="node1" class="node">
<title>Node1</title>
<g id="a_node1"><a xlink:title=" ">
<polygon fill="#bfbfbf" stroke="black" points="84,-855.5 84,-874.5 149,-874.5 149,-855.5 84,-855.5"/>
<text text-anchor="middle" x="116.5" y="-862.5" font-family="Helvetica,sans-Serif" font-size="10.00">Backtrack</text>
</a>
</g>
</g>
<!-- Node3 -->
<g id="node3" class="node">
<title>Node3</title>
<g id="a_node3"><a xlink:href="class_on_backtrack.html" target="_top" xlink:title=" ">
<polygon fill="white" stroke="black" points="185,-874.5 185,-893.5 292,-893.5 292,-874.5 185,-874.5"/>
<text text-anchor="middle" x="238.5" y="-881.5" font-family="Helvetica,sans-Serif" font-size="10.00">OnBacktrack&lt; T &gt;</text>
</a>
</g>
</g>
<!-- Node1&#45;&gt;Node3 -->
<g id="edge2" class="edge">
<title>Node1&#45;&gt;Node3</title>
<path fill="none" stroke="midnightblue" d="M158.91,-871.56C167.26,-872.88 176.16,-874.29 184.84,-875.66"/>
<polygon fill="midnightblue" stroke="midnightblue" points="159.45,-868.1 149.03,-869.99 158.36,-875.01 159.45,-868.1"/>
</g>
<!-- Node4 -->
<g id="node4" class="node">
<title>Node4</title>
<g id="a_node4"><a xlink:href="class_pass_manager.html" target="_top" xlink:title=" ">
<polygon fill="white" stroke="red" points="198,-836.5 198,-855.5 279,-855.5 279,-836.5 198,-836.5"/>
<text text-anchor="middle" x="238.5" y="-843.5" font-family="Helvetica,sans-Serif" font-size="10.00">PassManager</text>
</a>
</g>
</g>
<!-- Node1&#45;&gt;Node4 -->
<g id="edge3" class="edge">
<title>Node1&#45;&gt;Node4</title>
<path fill="none" stroke="midnightblue" d="M159.16,-858.4C171.62,-856.43 185.24,-854.27 197.58,-852.32"/>
<polygon fill="midnightblue" stroke="midnightblue" points="158.36,-854.99 149.03,-860.01 159.45,-861.9 158.36,-854.99"/>
</g>
<!-- Node2 -->
<g id="node2" class="node">
<title>Node2</title>
<g id="a_node2"><a xlink:href="class_visitor.html" target="_top" xlink:title=" ">
<polygon fill="white" stroke="black" points="0,-855.5 0,-874.5 48,-874.5 48,-855.5 0,-855.5"/>
<text text-anchor="middle" x="24" y="-862.5" font-family="Helvetica,sans-Serif" font-size="10.00">Visitor</text>
</a>
</g>
</g>
<!-- Node2&#45;&gt;Node1 -->
<g id="edge1" class="edge">
<title>Node2&#45;&gt;Node1</title>
<path fill="none" stroke="midnightblue" d="M58.4,-865C66.69,-865 75.54,-865 83.75,-865"/>
<polygon fill="midnightblue" stroke="midnightblue" points="58.31,-861.5 48.31,-865 58.31,-868.5 58.31,-861.5"/>
</g>
<!-- Node5 -->
<g id="node5" class="node">
<title>Node5</title>
<g id="a_node5"><a xlink:href="class_b_m_v2_1_1_mid_end.html" target="_top" xlink:title=" ">
<polygon fill="white" stroke="red" points="373.5,-1696.5 373.5,-1715.5 460.5,-1715.5 460.5,-1696.5 373.5,-1696.5"/>
<text text-anchor="middle" x="417" y="-1703.5" font-family="Helvetica,sans-Serif" font-size="10.00">BMV2::MidEnd</text>
</a>
</g>
</g>
<!-- Node4&#45;&gt;Node5 -->
<g id="edge4" class="edge">
<title>Node4&#45;&gt;Node5</title>
<path fill="none" stroke="midnightblue" d="M287.79,-860.34C289.34,-861.75 290.75,-863.3 292,-865 346.13,-938.67 269.04,-1617.13 328,-1687 338.99,-1700.02 356.57,-1705.4 373.14,-1707.28"/>
<polygon fill="midnightblue" stroke="midnightblue" points="289.38,-857.19 279.16,-854.39 285.4,-862.95 289.38,-857.19"/>
</g>
<!-- Node8 -->
<g id="node6" class="node">
<title>Node8</title>
<g id="a_node6"><a xlink:href="struct_d_p_d_k_1_1_byte_alignment.html" target="_top" xlink:title=" ">
<polygon fill="white" stroke="black" points="355.5,-1658.5 355.5,-1677.5 478.5,-1677.5 478.5,-1658.5 355.5,-1658.5"/>
<text text-anchor="middle" x="417" y="-1665.5" font-family="Helvetica,sans-Serif" font-size="10.00">DPDK::ByteAlignment</text>
</a>
</g>
</g>
<!-- Node4&#45;&gt;Node8 -->
<g id="edge5" class="edge">
<title>Node4&#45;&gt;Node8</title>
<path fill="none" stroke="midnightblue" d="M287.79,-860.35C289.33,-861.76 290.75,-863.3 292,-865 343.71,-935.22 271.69,-1582.42 328,-1649 335.07,-1657.35 344.85,-1662.56 355.33,-1665.71"/>
<polygon fill="midnightblue" stroke="midnightblue" points="289.37,-857.19 279.15,-854.39 285.4,-862.95 289.37,-857.19"/>
</g>
<!-- Node9 -->
<g id="node7" class="node">
<title>Node9</title>
<g id="a_node7"><a xlink:href="class_d_p_d_k_1_1_collect_local_struct_and_flatten.html" target="_top" xlink:title=" ">
<polygon fill="white" stroke="black" points="348,-1609 348,-1639 486,-1639 486,-1609 348,-1609"/>
<text text-anchor="start" x="356" y="-1627" font-family="Helvetica,sans-Serif" font-size="10.00">DPDK::CollectLocalStruct</text>
<text text-anchor="middle" x="417" y="-1616" font-family="Helvetica,sans-Serif" font-size="10.00">AndFlatten</text>
</a>
</g>
</g>
<!-- Node4&#45;&gt;Node9 -->
<g id="edge6" class="edge">
<title>Node4&#45;&gt;Node9</title>
<path fill="none" stroke="midnightblue" d="M287.78,-860.35C289.33,-861.76 290.75,-863.3 292,-865 389.04,-996.35 226.4,-1471.15 328,-1599 333.24,-1605.59 340.08,-1610.52 347.63,-1614.2"/>
<polygon fill="midnightblue" stroke="midnightblue" points="289.36,-857.19 279.14,-854.4 285.39,-862.96 289.36,-857.19"/>
</g>
<!-- Node10 -->
<g id="node8" class="node">
<title>Node10</title>
<g id="a_node8"><a xlink:href="class_d_p_d_k_1_1_collect_program_structure.html" target="_top" xlink:title=" ">
<polygon fill="white" stroke="black" points="332,-1570.5 332,-1589.5 502,-1589.5 502,-1570.5 332,-1570.5"/>
<text text-anchor="middle" x="417" y="-1577.5" font-family="Helvetica,sans-Serif" font-size="10.00">DPDK::CollectProgramStructure</text>
</a>
</g>
</g>
<!-- Node4&#45;&gt;Node10 -->
<g id="edge7" class="edge">
<title>Node4&#45;&gt;Node10</title>
<path fill="none" stroke="midnightblue" d="M287.78,-860.36C289.32,-861.76 290.74,-863.31 292,-865 384.19,-989.44 227.65,-1443.04 328,-1561 331.14,-1564.69 334.81,-1567.77 338.83,-1570.32"/>
<polygon fill="midnightblue" stroke="midnightblue" points="289.35,-857.19 279.13,-854.41 285.39,-862.96 289.35,-857.19"/>
</g>
<!-- Node11 -->
<g id="node9" class="node">
<title>Node11</title>
<g id="a_node9"><a xlink:href="class_d_p_d_k_1_1_convert_action_selector_and_profile.html" target="_top" xlink:title=" ">
<polygon fill="white" stroke="black" points="337.5,-1521 337.5,-1551 496.5,-1551 496.5,-1521 337.5,-1521"/>
<text text-anchor="start" x="345.5" y="-1539" font-family="Helvetica,sans-Serif" font-size="10.00">DPDK::ConvertActionSelector</text>
<text text-anchor="middle" x="417" y="-1528" font-family="Helvetica,sans-Serif" font-size="10.00">AndProfile</text>
</a>
</g>
</g>
<!-- Node4&#45;&gt;Node11 -->
<g id="edge8" class="edge">
<title>Node4&#45;&gt;Node11</title>
<path fill="none" stroke="midnightblue" d="M287.77,-860.36C289.32,-861.77 290.74,-863.31 292,-865 377.82,-980.36 238.17,-1398.74 328,-1511 331.08,-1514.84 334.7,-1518.12 338.69,-1520.92"/>
<polygon fill="midnightblue" stroke="midnightblue" points="289.34,-857.2 279.11,-854.42 285.38,-862.97 289.34,-857.2"/>
</g>
<!-- Node12 -->
<g id="node10" class="node">
<title>Node12</title>
<g id="a_node10"><a xlink:href="class_d_p_d_k_1_1_convert_internet_checksum.html" target="_top" xlink:title=" ">
<polygon fill="white" stroke="black" points="328,-1482.5 328,-1501.5 506,-1501.5 506,-1482.5 328,-1482.5"/>
<text text-anchor="middle" x="417" y="-1489.5" font-family="Helvetica,sans-Serif" font-size="10.00">DPDK::ConvertInternetChecksum</text>
</a>
</g>
</g>
<!-- Node4&#45;&gt;Node12 -->
<g id="edge9" class="edge">
<title>Node4&#45;&gt;Node12</title>
<path fill="none" stroke="midnightblue" d="M287.76,-860.37C289.31,-861.77 290.74,-863.31 292,-865 372.98,-973.45 239.91,-1370.24 328,-1473 331.15,-1476.68 334.83,-1479.75 338.87,-1482.29"/>
<polygon fill="midnightblue" stroke="midnightblue" points="289.33,-857.2 279.1,-854.43 285.37,-862.97 289.33,-857.2"/>
</g>
<!-- Node13 -->
<g id="node11" class="node">
<title>Node13</title>
<g id="a_node11"><a xlink:href="class_d_p_d_k_1_1_convert_logical_expression.html" target="_top" xlink:title=" ">
<polygon fill="white" stroke="black" points="329,-1444.5 329,-1463.5 505,-1463.5 505,-1444.5 329,-1444.5"/>
<text text-anchor="middle" x="417" y="-1451.5" font-family="Helvetica,sans-Serif" font-size="10.00">DPDK::ConvertLogicalExpression</text>
</a>
</g>
</g>
<!-- Node4&#45;&gt;Node13 -->
<g id="edge10" class="edge">
<title>Node4&#45;&gt;Node13</title>
<path fill="none" stroke="midnightblue" d="M287.75,-860.37C289.31,-861.78 290.74,-863.31 292,-865 368.13,-966.55 245.21,-1338.8 328,-1435 331.16,-1438.67 334.85,-1441.73 338.88,-1444.28"/>
<polygon fill="midnightblue" stroke="midnightblue" points="289.31,-857.2 279.08,-854.44 285.36,-862.98 289.31,-857.2"/>
</g>
<!-- Node14 -->
<g id="node12" class="node">
<title>Node14</title>
<g id="a_node12"><a xlink:href="struct_d_p_d_k_1_1_convert_lookahead.html" target="_top" xlink:title=" ">
<polygon fill="white" stroke="black" points="346.5,-1406.5 346.5,-1425.5 487.5,-1425.5 487.5,-1406.5 346.5,-1406.5"/>
<text text-anchor="middle" x="417" y="-1413.5" font-family="Helvetica,sans-Serif" font-size="10.00">DPDK::ConvertLookahead</text>
</a>
</g>
</g>
<!-- Node4&#45;&gt;Node14 -->
<g id="edge11" class="edge">
<title>Node4&#45;&gt;Node14</title>
<path fill="none" stroke="midnightblue" d="M287.74,-860.38C289.3,-861.78 290.73,-863.32 292,-865 363.29,-959.65 250.51,-1307.36 328,-1397 333.01,-1402.79 339.32,-1407.07 346.26,-1410.19"/>
<polygon fill="midnightblue" stroke="midnightblue" points="289.3,-857.21 279.07,-854.46 285.35,-862.99 289.3,-857.21"/>
</g>
<!-- Node15 -->
<g id="node13" class="node">
<title>Node15</title>
<g id="a_node13"><a xlink:href="struct_d_p_d_k_1_1_dpdk_add_pseudo_header.html" target="_top" xlink:title=" ">
<polygon fill="white" stroke="black" points="334.5,-1368.5 334.5,-1387.5 499.5,-1387.5 499.5,-1368.5 334.5,-1368.5"/>
<text text-anchor="middle" x="417" y="-1375.5" font-family="Helvetica,sans-Serif" font-size="10.00">DPDK::DpdkAddPseudoHeader</text>
</a>
</g>
</g>
<!-- Node4&#45;&gt;Node15 -->
<g id="edge12" class="edge">
<title>Node4&#45;&gt;Node15</title>
<path fill="none" stroke="midnightblue" d="M287.73,-860.39C289.29,-861.79 290.73,-863.32 292,-865 358.45,-952.75 255.8,-1275.92 328,-1359 331.28,-1362.78 335.12,-1365.9 339.32,-1368.49"/>
<polygon fill="midnightblue" stroke="midnightblue" points="289.28,-857.21 279.05,-854.47 285.34,-863 289.28,-857.21"/>
</g>
<!-- Node16 -->
<g id="node14" class="node">
<title>Node16</title>
<g id="a_node14"><a xlink:href="class_d_p_d_k_1_1_dpdk_arch_first.html" target="_top" xlink:title=" ">
<polygon fill="white" stroke="black" points="357.5,-1330.5 357.5,-1349.5 476.5,-1349.5 476.5,-1330.5 357.5,-1330.5"/>
<text text-anchor="middle" x="417" y="-1337.5" font-family="Helvetica,sans-Serif" font-size="10.00">DPDK::DpdkArchFirst</text>
</a>
</g>
</g>
<!-- Node4&#45;&gt;Node16 -->
<g id="edge13" class="edge">
<title>Node4&#45;&gt;Node16</title>
<path fill="none" stroke="midnightblue" d="M287.72,-860.4C289.28,-861.79 290.72,-863.32 292,-865 353.61,-945.85 261.09,-1244.48 328,-1321 335.61,-1329.71 346.18,-1334.97 357.35,-1338.05"/>
<polygon fill="midnightblue" stroke="midnightblue" points="289.26,-857.22 279.02,-854.49 285.33,-863.01 289.26,-857.22"/>
</g>
<!-- Node17 -->
<g id="node15" class="node">
<title>Node17</title>
<g id="a_node15"><a xlink:href="class_d_p_d_k_1_1_dpdk_arch_last.html" target="_top" xlink:title=" ">
<polygon fill="white" stroke="black" points="358,-1292.5 358,-1311.5 476,-1311.5 476,-1292.5 358,-1292.5"/>
<text text-anchor="middle" x="417" y="-1299.5" font-family="Helvetica,sans-Serif" font-size="10.00">DPDK::DpdkArchLast</text>
</a>
</g>
</g>
<!-- Node4&#45;&gt;Node17 -->
<g id="edge14" class="edge">
<title>Node4&#45;&gt;Node17</title>
<path fill="none" stroke="midnightblue" d="M287.78,-860.48C289.32,-861.86 290.74,-863.36 292,-865 348.77,-938.95 266.38,-1213.03 328,-1283 335.75,-1291.8 346.51,-1297.07 357.85,-1300.13"/>
<polygon fill="midnightblue" stroke="midnightblue" points="289.48,-857.4 279.25,-854.65 285.53,-863.18 289.48,-857.4"/>
</g>
<!-- Node18 -->
<g id="node16" class="node">
<title>Node18</title>
<g id="a_node16"><a xlink:href="struct_d_p_d_k_1_1_dpdk_handle_i_p_sec.html" target="_top" xlink:title=" ">
<polygon fill="white" stroke="black" points="348.5,-1254.5 348.5,-1273.5 485.5,-1273.5 485.5,-1254.5 348.5,-1254.5"/>
<text text-anchor="middle" x="417" y="-1261.5" font-family="Helvetica,sans-Serif" font-size="10.00">DPDK::DpdkHandleIPSec</text>
</a>
</g>
</g>
<!-- Node4&#45;&gt;Node18 -->
<g id="edge15" class="edge">
<title>Node4&#45;&gt;Node18</title>
<path fill="none" stroke="midnightblue" d="M287.77,-860.5C289.31,-861.86 290.73,-863.36 292,-865 343.94,-932.06 271.67,-1181.58 328,-1245 333.5,-1251.19 340.5,-1255.64 348.13,-1258.79"/>
<polygon fill="midnightblue" stroke="midnightblue" points="289.45,-857.41 279.22,-854.68 285.51,-863.2 289.45,-857.41"/>
</g>
<!-- Node19 -->
<g id="node17" class="node">
<title>Node19</title>
<g id="a_node17"><a xlink:href="class_d_p_d_k_1_1_dpdk_mid_end.html" target="_top" xlink:title=" ">
<polygon fill="white" stroke="black" points="361,-1216.5 361,-1235.5 473,-1235.5 473,-1216.5 361,-1216.5"/>
<text text-anchor="middle" x="417" y="-1223.5" font-family="Helvetica,sans-Serif" font-size="10.00">DPDK::DpdkMidEnd</text>
</a>
</g>
</g>
<!-- Node4&#45;&gt;Node19 -->
<g id="edge16" class="edge">
<title>Node4&#45;&gt;Node19</title>
<path fill="none" stroke="midnightblue" d="M287.74,-860.51C289.29,-861.88 290.72,-863.37 292,-865 386.22,-985.35 225.9,-1093.26 328,-1207 336.46,-1216.42 348.37,-1221.78 360.71,-1224.71"/>
<polygon fill="midnightblue" stroke="midnightblue" points="289.42,-857.42 279.18,-854.71 285.49,-863.21 289.42,-857.42"/>
</g>
<!-- Node20 -->
<g id="node18" class="node">
<title>Node20</title>
<g id="a_node18"><a xlink:href="class_d_p_d_k_1_1_eliminate_header_copy.html" target="_top" xlink:title=" ">
<polygon fill="white" stroke="black" points="338.5,-1178.5 338.5,-1197.5 495.5,-1197.5 495.5,-1178.5 338.5,-1178.5"/>
<text text-anchor="middle" x="417" y="-1185.5" font-family="Helvetica,sans-Serif" font-size="10.00">DPDK::EliminateHeaderCopy</text>
</a>
</g>
</g>
<!-- Node4&#45;&gt;Node20 -->
<g id="edge17" class="edge">
<title>Node4&#45;&gt;Node20</title>
<path fill="none" stroke="midnightblue" d="M287.72,-860.53C289.27,-861.89 290.71,-863.38 292,-865 376.56,-971.58 236.46,-1068.35 328,-1169 331.37,-1172.7 335.26,-1175.77 339.51,-1178.32"/>
<polygon fill="midnightblue" stroke="midnightblue" points="289.37,-857.43 279.13,-854.75 285.46,-863.24 289.37,-857.43"/>
</g>
<!-- Node21 -->
<g id="node19" class="node">
<title>Node21</title>
<g id="a_node19"><a xlink:href="class_d_p_d_k_1_1_eliminate_unused_action.html" target="_top" xlink:title=" ">
<polygon fill="white" stroke="black" points="335,-1140.5 335,-1159.5 499,-1159.5 499,-1140.5 335,-1140.5"/>
<text text-anchor="middle" x="417" y="-1147.5" font-family="Helvetica,sans-Serif" font-size="10.00">DPDK::EliminateUnusedAction</text>
</a>
</g>
</g>
<!-- Node4&#45;&gt;Node21 -->
<g id="edge18" class="edge">
<title>Node4&#45;&gt;Node21</title>
<path fill="none" stroke="midnightblue" d="M287.68,-860.56C289.25,-861.91 290.7,-863.39 292,-865 366.93,-957.84 247,-1043.41 328,-1131 331.5,-1134.79 335.56,-1137.91 339.98,-1140.49"/>
<polygon fill="midnightblue" stroke="midnightblue" points="289.32,-857.45 279.06,-854.8 285.43,-863.27 289.32,-857.45"/>
</g>
<!-- Node22 -->
<g id="node20" class="node">
<title>Node22</title>
<g id="a_node20"><a xlink:href="class_e_b_p_f_1_1_lower.html" target="_top" xlink:title=" ">
<polygon fill="white" stroke="black" points="379,-1102.5 379,-1121.5 455,-1121.5 455,-1102.5 379,-1102.5"/>
<text text-anchor="middle" x="417" y="-1109.5" font-family="Helvetica,sans-Serif" font-size="10.00">EBPF::Lower</text>
</a>
</g>
</g>
<!-- Node4&#45;&gt;Node22 -->
<g id="edge19" class="edge">
<title>Node4&#45;&gt;Node22</title>
<path fill="none" stroke="midnightblue" d="M287.72,-860.67C289.27,-861.99 290.7,-863.43 292,-865 357.31,-944.12 257.52,-1018.45 328,-1093 340.89,-1106.63 361.03,-1111.66 378.79,-1113.15"/>
<polygon fill="midnightblue" stroke="midnightblue" points="289.5,-857.64 279.24,-855.01 285.61,-863.47 289.5,-857.64"/>
</g>
<!-- Node23 -->
<g id="node21" class="node">
<title>Node23</title>
<g id="a_node21"><a xlink:href="class_p4_1_1_add_missing_id_annotations.html" target="_top" xlink:title=" ">
<polygon fill="white" stroke="black" points="338,-1064.5 338,-1083.5 496,-1083.5 496,-1064.5 338,-1064.5"/>
<text text-anchor="middle" x="417" y="-1071.5" font-family="Helvetica,sans-Serif" font-size="10.00">P4::AddMissingIdAnnotations</text>
</a>
</g>
</g>
<!-- Node4&#45;&gt;Node23 -->
<g id="edge20" class="edge">
<title>Node4&#45;&gt;Node23</title>
<path fill="none" stroke="midnightblue" d="M287.66,-860.72C289.22,-862.03 290.68,-863.45 292,-865 347.72,-930.44 268,-993.46 328,-1055 331.6,-1058.69 335.74,-1061.75 340.21,-1064.27"/>
<polygon fill="midnightblue" stroke="midnightblue" points="289.4,-857.67 279.12,-855.1 285.55,-863.52 289.4,-857.67"/>
</g>
<!-- Node24 -->
<g id="node22" class="node">
<title>Node24</title>
<g id="a_node22"><a xlink:href="class_p4_1_1_bind_type_variables.html" target="_top" xlink:title=" ">
<polygon fill="white" stroke="black" points="355,-1026.5 355,-1045.5 479,-1045.5 479,-1026.5 355,-1026.5"/>
<text text-anchor="middle" x="417" y="-1033.5" font-family="Helvetica,sans-Serif" font-size="10.00">P4::BindTypeVariables</text>
</a>
</g>
</g>
<!-- Node4&#45;&gt;Node24 -->
<g id="edge21" class="edge">
<title>Node4&#45;&gt;Node24</title>
<path fill="none" stroke="midnightblue" d="M287.66,-860.87C289.21,-862.13 290.67,-863.51 292,-865 338.2,-916.82 278.42,-968.4 328,-1017 335.37,-1024.22 344.78,-1028.98 354.7,-1032.07"/>
<polygon fill="midnightblue" stroke="midnightblue" points="289.51,-857.89 279.21,-855.39 285.7,-863.76 289.51,-857.89"/>
</g>
<!-- Node25 -->
<g id="node23" class="node">
<title>Node25</title>
<g id="a_node23"><a xlink:href="class_p4_1_1_check_constants.html" target="_top" xlink:title=" ">
<polygon fill="white" stroke="black" points="360.5,-988.5 360.5,-1007.5 473.5,-1007.5 473.5,-988.5 360.5,-988.5"/>
<text text-anchor="middle" x="417" y="-995.5" font-family="Helvetica,sans-Serif" font-size="10.00">P4::CheckConstants</text>
</a>
</g>
</g>
<!-- Node4&#45;&gt;Node25 -->
<g id="edge22" class="edge">
<title>Node4&#45;&gt;Node25</title>
<path fill="none" stroke="midnightblue" d="M287.52,-860.99C289.11,-862.22 290.62,-863.56 292,-865 328.79,-903.34 288.72,-943.22 328,-979 336.9,-987.1 348.4,-992.05 360.14,-995.01"/>
<polygon fill="midnightblue" stroke="midnightblue" points="289.28,-857.96 278.95,-855.63 285.57,-863.9 289.28,-857.96"/>
</g>
<!-- Node26 -->
<g id="node24" class="node">
<title>Node26</title>
<g id="a_node24"><a xlink:href="class_p4_1_1_check_core_methods.html" target="_top" xlink:title=" ">
<polygon fill="white" stroke="black" points="352.5,-950.5 352.5,-969.5 481.5,-969.5 481.5,-950.5 352.5,-950.5"/>
<text text-anchor="middle" x="417" y="-957.5" font-family="Helvetica,sans-Serif" font-size="10.00">P4::CheckCoreMethods</text>
</a>
</g>
</g>
<!-- Node4&#45;&gt;Node26 -->
<g id="edge23" class="edge">
<title>Node4&#45;&gt;Node26</title>
<path fill="none" stroke="midnightblue" d="M286.47,-860.68C288.42,-862 290.28,-863.44 292,-865 319.66,-890.14 298.72,-917.77 328,-941 335.1,-946.63 343.5,-950.69 352.25,-953.59"/>
<polygon fill="midnightblue" stroke="midnightblue" points="287.84,-857.43 277.4,-855.6 284.42,-863.54 287.84,-857.43"/>
</g>
<!-- Node27 -->
<g id="node25" class="node">
<title>Node27</title>
<g id="a_node25"><a xlink:href="class_p4_1_1_constant_folding.html" target="_top" xlink:title=" ">
<polygon fill="white" stroke="black" points="360.5,-912.5 360.5,-931.5 473.5,-931.5 473.5,-912.5 360.5,-912.5"/>
<text text-anchor="middle" x="417" y="-919.5" font-family="Helvetica,sans-Serif" font-size="10.00">P4::ConstantFolding</text>
</a>
</g>
</g>
<!-- Node4&#45;&gt;Node27 -->
<g id="edge24" class="edge">
<title>Node4&#45;&gt;Node27</title>
<path fill="none" stroke="midnightblue" d="M282.55,-859.66C285.84,-861.28 289.03,-863.06 292,-865 311.46,-877.75 307.72,-891.59 328,-903 337.81,-908.52 349.06,-912.44 360.17,-915.22"/>
<polygon fill="midnightblue" stroke="midnightblue" points="283.67,-856.33 273.11,-855.52 280.86,-862.74 283.67,-856.33"/>
</g>
<!-- Node28 -->
<g id="node26" class="node">
<title>Node28</title>
<g id="a_node26"><a xlink:href="class_p4_1_1_convert_enums.html" target="_top" xlink:title=" ">
<polygon fill="white" stroke="black" points="364,-874.5 364,-893.5 470,-893.5 470,-874.5 364,-874.5"/>
<text text-anchor="middle" x="417" y="-881.5" font-family="Helvetica,sans-Serif" font-size="10.00">P4::ConvertEnums</text>
</a>
</g>
</g>
<!-- Node4&#45;&gt;Node28 -->
<g id="edge25" class="edge">
<title>Node4&#45;&gt;Node28</title>
<path fill="none" stroke="midnightblue" d="M289.14,-856.69C315.15,-862.29 346.73,-869.09 371.87,-874.5"/>
<polygon fill="midnightblue" stroke="midnightblue" points="289.62,-853.21 279.11,-854.53 288.15,-860.05 289.62,-853.21"/>
</g>
<!-- Node29 -->
<g id="node27" class="node">
<title>Node29</title>
<g id="a_node27"><a xlink:href="class_p4_1_1_convert_errors.html" target="_top" xlink:title=" ">
<polygon fill="white" stroke="black" points="366.5,-836.5 366.5,-855.5 467.5,-855.5 467.5,-836.5 366.5,-836.5"/>
<text text-anchor="middle" x="417" y="-843.5" font-family="Helvetica,sans-Serif" font-size="10.00">P4::ConvertErrors</text>
</a>
</g>
</g>
<!-- Node4&#45;&gt;Node29 -->
<g id="edge26" class="edge">
<title>Node4&#45;&gt;Node29</title>
<path fill="none" stroke="midnightblue" d="M289.14,-846C313.3,-846 342.27,-846 366.42,-846"/>
<polygon fill="midnightblue" stroke="midnightblue" points="289.11,-842.5 279.11,-846 289.11,-849.5 289.11,-842.5"/>
</g>
<!-- Node30 -->
<g id="node28" class="node">
<title>Node30</title>
<g id="a_node28"><a xlink:href="class_p4_1_1_default_arguments.html" target="_top" xlink:title=" ">
<polygon fill="white" stroke="black" points="355,-798.5 355,-817.5 479,-817.5 479,-798.5 355,-798.5"/>
<text text-anchor="middle" x="417" y="-805.5" font-family="Helvetica,sans-Serif" font-size="10.00">P4::DefaultArguments</text>
</a>
</g>
</g>
<!-- Node4&#45;&gt;Node30 -->
<g id="edge27" class="edge">
<title>Node4&#45;&gt;Node30</title>
<path fill="none" stroke="midnightblue" d="M289.14,-835.31C315.15,-829.71 346.73,-822.91 371.87,-817.5"/>
<polygon fill="midnightblue" stroke="midnightblue" points="288.15,-831.95 279.11,-837.47 289.62,-838.79 288.15,-831.95"/>
</g>
<!-- Node31 -->
<g id="node29" class="node">
<title>Node31</title>
<g id="a_node29"><a xlink:href="class_p4_1_1_default_values.html" target="_top" xlink:title=" ">
<polygon fill="white" stroke="black" points="365.5,-760.5 365.5,-779.5 468.5,-779.5 468.5,-760.5 365.5,-760.5"/>
<text text-anchor="middle" x="417" y="-767.5" font-family="Helvetica,sans-Serif" font-size="10.00">P4::DefaultValues</text>
</a>
</g>
</g>
<!-- Node4&#45;&gt;Node31 -->
<g id="edge28" class="edge">
<title>Node4&#45;&gt;Node31</title>
<path fill="none" stroke="midnightblue" d="M259.47,-830.14C276.68,-817.22 302.69,-799.47 328,-789 339.7,-784.16 352.8,-780.48 365.25,-777.71"/>
<polygon fill="midnightblue" stroke="midnightblue" points="257.13,-827.52 251.32,-836.38 261.38,-833.08 257.13,-827.52"/>
</g>
<!-- Node32 -->
<g id="node30" class="node">
<title>Node32</title>
<g id="a_node30"><a xlink:href="class_p4_1_1_deprecated.html" target="_top" xlink:title=" ">
<polygon fill="white" stroke="black" points="371.5,-722.5 371.5,-741.5 462.5,-741.5 462.5,-722.5 371.5,-722.5"/>
<text text-anchor="middle" x="417" y="-729.5" font-family="Helvetica,sans-Serif" font-size="10.00">P4::Deprecated</text>
</a>
</g>
</g>
<!-- Node4&#45;&gt;Node32 -->
<g id="edge29" class="edge">
<title>Node4&#45;&gt;Node32</title>
<path fill="none" stroke="midnightblue" d="M251.08,-828.02C266.09,-806.24 294.39,-770.1 328,-751 341.05,-743.59 356.68,-739.06 371.13,-736.3"/>
<polygon fill="midnightblue" stroke="midnightblue" points="248.13,-826.13 245.48,-836.39 253.95,-830.03 248.13,-826.13"/>
</g>
<!-- Node33 -->
<g id="node31" class="node">
<title>Node33</title>
<g id="a_node31"><a xlink:href="class_p4_1_1_eliminate_invalid_headers.html" target="_top" xlink:title=" ">
<polygon fill="white" stroke="black" points="339.5,-684.5 339.5,-703.5 494.5,-703.5 494.5,-684.5 339.5,-684.5"/>
<text text-anchor="middle" x="417" y="-691.5" font-family="Helvetica,sans-Serif" font-size="10.00">P4::EliminateInvalidHeaders</text>
</a>
</g>
</g>
<!-- Node4&#45;&gt;Node33 -->
<g id="edge30" class="edge">
<title>Node4&#45;&gt;Node33</title>
<path fill="none" stroke="midnightblue" d="M246.66,-826.92C258.72,-797.55 285.95,-741.65 328,-713 333.68,-709.13 340.01,-706.02 346.6,-703.54"/>
<polygon fill="midnightblue" stroke="midnightblue" points="243.32,-825.86 242.91,-836.44 249.83,-828.42 243.32,-825.86"/>
</g>
<!-- Node34 -->
<g id="node32" class="node">
<title>Node34</title>
<g id="a_node32"><a xlink:href="class_p4_1_1_eliminate_newtype.html" target="_top" xlink:title=" ">
<polygon fill="white" stroke="black" points="354.5,-646.5 354.5,-665.5 479.5,-665.5 479.5,-646.5 354.5,-646.5"/>
<text text-anchor="middle" x="417" y="-653.5" font-family="Helvetica,sans-Serif" font-size="10.00">P4::EliminateNewtype</text>
</a>
</g>
</g>
<!-- Node4&#45;&gt;Node34 -->
<g id="edge31" class="edge">
<title>Node4&#45;&gt;Node34</title>
<path fill="none" stroke="midnightblue" d="M243.75,-826.66C252.7,-790.78 276.99,-714.02 328,-675 335.7,-669.11 344.83,-664.96 354.25,-662.05"/>
<polygon fill="midnightblue" stroke="midnightblue" points="240.34,-825.86 241.46,-836.4 247.16,-827.47 240.34,-825.86"/>
</g>
<!-- Node35 -->
<g id="node33" class="node">
<title>Node35</title>
<g id="a_node33"><a xlink:href="class_p4_1_1_eliminate_ser_enums.html" target="_top" xlink:title=" ">
<polygon fill="white" stroke="black" points="352,-608.5 352,-627.5 482,-627.5 482,-608.5 352,-608.5"/>
<text text-anchor="middle" x="417" y="-615.5" font-family="Helvetica,sans-Serif" font-size="10.00">P4::EliminateSerEnums</text>
</a>
</g>
</g>
<!-- Node4&#45;&gt;Node35 -->
<g id="edge32" class="edge">
<title>Node4&#45;&gt;Node35</title>
<path fill="none" stroke="midnightblue" d="M241.83,-826.25C247.85,-784.43 267.94,-686.71 328,-637 334.86,-631.32 343.03,-627.23 351.59,-624.3"/>
<polygon fill="midnightblue" stroke="midnightblue" points="238.34,-825.89 240.5,-836.26 245.28,-826.81 238.34,-825.89"/>
</g>
<!-- Node36 -->
<g id="node34" class="node">
<title>Node36</title>
<g id="a_node34"><a xlink:href="class_p4_1_1_eliminate_switch.html" target="_top" xlink:title=" ">
<polygon fill="white" stroke="black" points="360.5,-570.5 360.5,-589.5 473.5,-589.5 473.5,-570.5 360.5,-570.5"/>
<text text-anchor="middle" x="417" y="-577.5" font-family="Helvetica,sans-Serif" font-size="10.00">P4::EliminateSwitch</text>
</a>
</g>
</g>
<!-- Node4&#45;&gt;Node36 -->
<g id="edge33" class="edge">
<title>Node4&#45;&gt;Node36</title>
<path fill="none" stroke="midnightblue" d="M240.38,-826.31C243.59,-779.29 258.54,-659.89 328,-599 337.05,-591.07 348.62,-586.19 360.37,-583.24"/>
<polygon fill="midnightblue" stroke="midnightblue" points="236.88,-826.2 239.8,-836.39 243.87,-826.61 236.88,-826.2"/>
</g>
<!-- Node37 -->
<g id="node35" class="node">
<title>Node37</title>
<g id="a_node35"><a xlink:href="class_p4_1_1_eliminate_tuples.html" target="_top" xlink:title=" ">
<polygon fill="white" stroke="black" points="361,-532.5 361,-551.5 473,-551.5 473,-532.5 361,-532.5"/>
<text text-anchor="middle" x="417" y="-539.5" font-family="Helvetica,sans-Serif" font-size="10.00">P4::EliminateTuples</text>
</a>
</g>
</g>
<!-- Node4&#45;&gt;Node37 -->
<g id="edge34" class="edge">
<title>Node4&#45;&gt;Node37</title>
<path fill="none" stroke="midnightblue" d="M239.3,-826.17C239.91,-774.23 249.12,-633.19 328,-561 336.99,-552.77 348.68,-547.79 360.57,-544.85"/>
<polygon fill="midnightblue" stroke="midnightblue" points="235.8,-826.36 239.28,-836.36 242.8,-826.37 235.8,-826.36"/>
</g>
<!-- Node38 -->
<g id="node36" class="node">
<title>Node38</title>
<g id="a_node36"><a xlink:href="class_p4_1_1_eliminate_typedef.html" target="_top" xlink:title=" ">
<polygon fill="white" stroke="black" points="357.5,-494.5 357.5,-513.5 476.5,-513.5 476.5,-494.5 357.5,-494.5"/>
<text text-anchor="middle" x="417" y="-501.5" font-family="Helvetica,sans-Serif" font-size="10.00">P4::EliminateTypedef</text>
</a>
</g>
</g>
<!-- Node4&#45;&gt;Node38 -->
<g id="edge35" class="edge">
<title>Node4&#45;&gt;Node38</title>
<path fill="none" stroke="midnightblue" d="M242.26,-825.96C251.42,-762.19 282.88,-565.71 328,-523 336.06,-515.37 346.42,-510.51 357.18,-507.47"/>
<polygon fill="midnightblue" stroke="midnightblue" points="238.73,-825.86 240.8,-836.25 245.67,-826.84 238.73,-825.86"/>
</g>
<!-- Node39 -->
<g id="node37" class="node">
<title>Node39</title>
<g id="a_node37"><a xlink:href="class_p4_1_1_entry_priorities.html" target="_top" xlink:title=" ">
<polygon fill="white" stroke="black" points="365,-456.5 365,-475.5 469,-475.5 469,-456.5 365,-456.5"/>
<text text-anchor="middle" x="417" y="-463.5" font-family="Helvetica,sans-Serif" font-size="10.00">P4::EntryPriorities</text>
</a>
</g>
</g>
<!-- Node4&#45;&gt;Node39 -->
<g id="edge36" class="edge">
<title>Node4&#45;&gt;Node39</title>
<path fill="none" stroke="midnightblue" d="M241.65,-825.88C249.38,-757.19 278.04,-533.59 328,-485 337.86,-475.41 351.34,-470.17 364.79,-467.42"/>
<polygon fill="midnightblue" stroke="midnightblue" points="238.13,-825.85 240.51,-836.18 245.09,-826.62 238.13,-825.85"/>
</g>
<!-- Node40 -->
<g id="node38" class="node">
<title>Node40</title>
<g id="a_node38"><a xlink:href="class_p4_1_1_evaluator_pass.html" target="_top" xlink:title=" ">
<polygon fill="white" stroke="black" points="365.5,-418.5 365.5,-437.5 468.5,-437.5 468.5,-418.5 365.5,-418.5"/>
<text text-anchor="middle" x="417" y="-425.5" font-family="Helvetica,sans-Serif" font-size="10.00">P4::EvaluatorPass</text>
</a>
</g>
</g>
<!-- Node4&#45;&gt;Node40 -->
<g id="edge37" class="edge">
<title>Node4&#45;&gt;Node40</title>
<path fill="none" stroke="midnightblue" d="M241.12,-826.16C247.47,-753.27 273.08,-501.61 328,-447 337.86,-437.19 351.51,-431.91 365.11,-429.19"/>
<polygon fill="midnightblue" stroke="midnightblue" points="237.62,-826.01 240.26,-836.27 244.59,-826.6 237.62,-826.01"/>
</g>
<!-- Node41 -->
<g id="node39" class="node">
<title>Node41</title>
<g id="a_node39"><a xlink:href="class_p4_1_1_expand_emit.html" target="_top" xlink:title=" ">
<polygon fill="white" stroke="black" points="370.5,-380.5 370.5,-399.5 463.5,-399.5 463.5,-380.5 370.5,-380.5"/>
<text text-anchor="middle" x="417" y="-387.5" font-family="Helvetica,sans-Serif" font-size="10.00">P4::ExpandEmit</text>
</a>
</g>
</g>
<!-- Node4&#45;&gt;Node41 -->
<g id="edge38" class="edge">
<title>Node4&#45;&gt;Node41</title>
<path fill="none" stroke="midnightblue" d="M240.73,-825.8C245.87,-748.07 268.25,-469.52 328,-409 339.09,-397.77 355.13,-392.44 370.48,-390.11"/>
<polygon fill="midnightblue" stroke="midnightblue" points="237.21,-825.93 240.07,-836.13 244.2,-826.37 237.21,-825.93"/>
</g>
<!-- Node42 -->
<g id="node40" class="node">
<title>Node42</title>
<g id="a_node40"><a xlink:href="class_p4_1_1_expand_lookahead.html" target="_top" xlink:title=" ">
<polygon fill="white" stroke="black" points="355.5,-342.5 355.5,-361.5 478.5,-361.5 478.5,-342.5 355.5,-342.5"/>
<text text-anchor="middle" x="417" y="-349.5" font-family="Helvetica,sans-Serif" font-size="10.00">P4::ExpandLookahead</text>
</a>
</g>
</g>
<!-- Node4&#45;&gt;Node42 -->
<g id="edge39" class="edge">
<title>Node4&#45;&gt;Node42</title>
<path fill="none" stroke="midnightblue" d="M240.36,-826.19C244.28,-744.84 263.22,-437.65 328,-371 335.41,-363.38 345.09,-358.47 355.31,-355.36"/>
<polygon fill="midnightblue" stroke="midnightblue" points="236.84,-826.34 239.88,-836.49 243.84,-826.67 236.84,-826.34"/>
</g>
<!-- Node43 -->
<g id="node41" class="node">
<title>Node43</title>
<g id="a_node41"><a xlink:href="class_p4_1_1_flatten_header_union.html" target="_top" xlink:title=" ">
<polygon fill="white" stroke="black" points="350.5,-304.5 350.5,-323.5 483.5,-323.5 483.5,-304.5 350.5,-304.5"/>
<text text-anchor="middle" x="417" y="-311.5" font-family="Helvetica,sans-Serif" font-size="10.00">P4::FlattenHeaderUnion</text>
</a>
</g>
</g>
<!-- Node4&#45;&gt;Node43 -->
<g id="edge40" class="edge">
<title>Node4&#45;&gt;Node43</title>
<path fill="none" stroke="midnightblue" d="M240.06,-825.97C242.9,-740.3 258.32,-405.65 328,-333 334.17,-326.57 341.95,-322.06 350.32,-318.94"/>
<polygon fill="midnightblue" stroke="midnightblue" points="236.56,-826.06 239.75,-836.16 243.56,-826.27 236.56,-826.06"/>
</g>
<!-- Node44 -->
<g id="node42" class="node">
<title>Node44</title>
<g id="a_node42"><a xlink:href="class_p4_1_1_flatten_headers.html" target="_top" xlink:title=" ">
<polygon fill="white" stroke="black" points="362,-266.5 362,-285.5 472,-285.5 472,-266.5 362,-266.5"/>
<text text-anchor="middle" x="417" y="-273.5" font-family="Helvetica,sans-Serif" font-size="10.00">P4::FlattenHeaders</text>
</a>
</g>
</g>
<!-- Node4&#45;&gt;Node44 -->
<g id="edge41" class="edge">
<title>Node4&#45;&gt;Node44</title>
<path fill="none" stroke="midnightblue" d="M239.8,-826.22C241.56,-737.11 253.29,-373.81 328,-295 336.93,-285.59 349.31,-280.28 361.98,-277.4"/>
<polygon fill="midnightblue" stroke="midnightblue" points="236.3,-826.25 239.62,-836.31 243.3,-826.38 236.3,-826.25"/>
</g>
<!-- Node45 -->
<g id="node43" class="node">
<title>Node45</title>
<g id="a_node43"><a xlink:href="class_p4_1_1_flatten_interface_structs.html" target="_top" xlink:title=" ">
<polygon fill="white" stroke="black" points="344,-228.5 344,-247.5 490,-247.5 490,-228.5 344,-228.5"/>
<text text-anchor="middle" x="417" y="-235.5" font-family="Helvetica,sans-Serif" font-size="10.00">P4::FlattenInterfaceStructs</text>
</a>
</g>
</g>
<!-- Node4&#45;&gt;Node45 -->
<g id="edge42" class="edge">
<title>Node4&#45;&gt;Node45</title>
<path fill="none" stroke="midnightblue" d="M239.58,-826.05C240.35,-732.92 248.36,-341.87 328,-257 332.49,-252.21 337.88,-248.49 343.75,-245.6"/>
<polygon fill="midnightblue" stroke="midnightblue" points="236.08,-826.08 239.51,-836.11 243.08,-826.13 236.08,-826.08"/>
</g>
<!-- Node46 -->
<g id="node44" class="node">
<title>Node46</title>
<g id="a_node44"><a xlink:href="class_p4_1_1_flatten_log_msg.html" target="_top" xlink:title=" ">
<polygon fill="white" stroke="black" points="363.5,-190.5 363.5,-209.5 470.5,-209.5 470.5,-190.5 363.5,-190.5"/>
<text text-anchor="middle" x="417" y="-197.5" font-family="Helvetica,sans-Serif" font-size="10.00">P4::FlattenLogMsg</text>
</a>
</g>
</g>
<!-- Node4&#45;&gt;Node46 -->
<g id="edge43" class="edge">
<title>Node4&#45;&gt;Node46</title>
<path fill="none" stroke="midnightblue" d="M239.38,-826.32C239.19,-730.09 243.29,-310.08 328,-219 337.15,-209.16 350.09,-203.78 363.23,-200.99"/>
<polygon fill="midnightblue" stroke="midnightblue" points="235.88,-826.42 239.42,-836.41 242.88,-826.39 235.88,-826.42"/>
</g>
<!-- Node47 -->
<g id="node45" class="node">
<title>Node47</title>
<g id="a_node45"><a xlink:href="class_p4_1_1_global_copy_propagation.html" target="_top" xlink:title=" ">
<polygon fill="white" stroke="black" points="342.5,-152.5 342.5,-171.5 491.5,-171.5 491.5,-152.5 342.5,-152.5"/>
<text text-anchor="middle" x="417" y="-159.5" font-family="Helvetica,sans-Serif" font-size="10.00">P4::GlobalCopyPropagation</text>
</a>
</g>
</g>
<!-- Node4&#45;&gt;Node47 -->
<g id="edge44" class="edge">
<title>Node4&#45;&gt;Node47</title>
<path fill="none" stroke="midnightblue" d="M239.2,-826.09C238.1,-725.93 238.35,-278.16 328,-181 332.13,-176.52 337.05,-172.96 342.42,-170.15"/>
<polygon fill="midnightblue" stroke="midnightblue" points="235.7,-826.35 239.33,-836.31 242.7,-826.26 235.7,-826.35"/>
</g>
<!-- Node48 -->
<g id="node46" class="node">
<title>Node48</title>
<g id="a_node46"><a xlink:href="class_p4_1_1_h_s_index_simplifier.html" target="_top" xlink:title=" ">
<polygon fill="white" stroke="black" points="356,-114.5 356,-133.5 478,-133.5 478,-114.5 356,-114.5"/>
<text text-anchor="middle" x="417" y="-121.5" font-family="Helvetica,sans-Serif" font-size="10.00">P4::HSIndexSimplifier</text>
</a>
</g>
</g>
<!-- Node4&#45;&gt;Node48 -->
<g id="edge45" class="edge">
<title>Node4&#45;&gt;Node48</title>
<path fill="none" stroke="midnightblue" d="M240.65,-826.14C247.1,-717.17 280.39,-194.96 328,-143 335.39,-134.93 345.32,-129.86 355.85,-126.74"/>
<polygon fill="midnightblue" stroke="midnightblue" points="237.14,-826.17 240.05,-836.36 244.13,-826.58 237.14,-826.17"/>
</g>
<!-- Node49 -->
<g id="node47" class="node">
<title>Node49</title>
<g id="a_node47"><a xlink:href="class_p4_1_1_handle_no_match.html" target="_top" xlink:title=" ">
<polygon fill="white" stroke="black" points="360.5,-76.5 360.5,-95.5 473.5,-95.5 473.5,-76.5 360.5,-76.5"/>
<text text-anchor="middle" x="417" y="-83.5" font-family="Helvetica,sans-Serif" font-size="10.00">P4::HandleNoMatch</text>
</a>
</g>
</g>
<!-- Node4&#45;&gt;Node49 -->
<g id="edge46" class="edge">
<title>Node4&#45;&gt;Node49</title>
<path fill="none" stroke="midnightblue" d="M240.51,-826.13C246.41,-713.67 277.88,-160.06 328,-105 336.42,-95.75 348.17,-90.43 360.35,-87.48"/>
<polygon fill="midnightblue" stroke="midnightblue" points="237,-826.2 239.98,-836.37 243.99,-826.56 237,-826.2"/>
</g>
<!-- Node50 -->
<g id="node48" class="node">
<title>Node50</title>
<g id="a_node48"><a xlink:href="class_p4_1_1_inline_actions.html" target="_top" xlink:title=" ">
<polygon fill="white" stroke="black" points="368,-38.5 368,-57.5 466,-57.5 466,-38.5 368,-38.5"/>
<text text-anchor="middle" x="417" y="-45.5" font-family="Helvetica,sans-Serif" font-size="10.00">P4::InlineActions</text>
</a>
</g>
</g>
<!-- Node4&#45;&gt;Node50 -->
<g id="edge47" class="edge">
<title>Node4&#45;&gt;Node50</title>
<path fill="none" stroke="midnightblue" d="M240.39,-826.21C245.75,-710.53 275.35,-125.17 328,-67 338.07,-55.88 352.96,-50.42 367.64,-47.95"/>
<polygon fill="midnightblue" stroke="midnightblue" points="236.88,-826.27 239.92,-836.42 243.87,-826.59 236.88,-826.27"/>
</g>
<!-- Node51 -->
<g id="node49" class="node">
<title>Node51</title>
<g id="a_node49"><a xlink:href="class_p4_1_1_inline_functions.html" target="_top" xlink:title=" ">
<polygon fill="white" stroke="black" points="363,-0.5 363,-19.5 471,-19.5 471,-0.5 363,-0.5"/>
<text text-anchor="middle" x="417" y="-7.5" font-family="Helvetica,sans-Serif" font-size="10.00">P4::InlineFunctions</text>
</a>
</g>
</g>
<!-- Node4&#45;&gt;Node51 -->
<g id="edge48" class="edge">
<title>Node4&#45;&gt;Node51</title>
<path fill="none" stroke="midnightblue" d="M240.29,-825.99C245.16,-706.48 272.86,-90.24 328,-29 336.89,-19.13 349.58,-13.72 362.56,-10.89"/>
<polygon fill="midnightblue" stroke="midnightblue" points="236.78,-826.1 239.88,-836.23 243.77,-826.38 236.78,-826.1"/>
</g>
</g>
</svg>
