<?xml version="1.0" encoding="UTF-8" standalone="no"?>
<!DOCTYPE svg PUBLIC "-//W3C//DTD SVG 1.1//EN"
 "http://www.w3.org/Graphics/SVG/1.1/DTD/svg11.dtd">
<!-- Generated by graphviz version 2.43.0 (0)
 -->
<!-- Title: P4::KeySideEffect Pages: 1 -->
<svg width="216pt" height="203pt"
 viewBox="0.00 0.00 216.00 203.00" xmlns="http://www.w3.org/2000/svg" xmlns:xlink="http://www.w3.org/1999/xlink">
<g id="graph0" class="graph" transform="scale(1 1) rotate(0) translate(4 199)">
<title>P4::KeySideEffect</title>
<!-- Node1 -->
<g id="Node000001" class="node">
<title>Node1</title>
<g id="a_Node000001"><a xlink:title=" ">
<polygon fill="#999999" stroke="#666666" points="139,-85 38,-85 38,-66 139,-66 139,-85"/>
<text text-anchor="middle" x="88.5" y="-73" font-family="Helvetica,sans-Serif" font-size="10.00">P4::KeySideEffect</text>
</a>
</g>
</g>
<!-- Node6 -->
<g id="Node000006" class="node">
<title>Node6</title>
<g id="a_Node000006"><a xlink:href="class_d_p_d_k_1_1_copy_match_keys_to_single_struct.html" target="_top" xlink:title=" ">
<polygon fill="white" stroke="#bfbfbf" points="173,-30 4,-30 4,0 173,0 173,-30"/>
<text text-anchor="start" x="12" y="-18" font-family="Helvetica,sans-Serif" font-size="10.00">DPDK::CopyMatchKeysToSingle</text>
<text text-anchor="middle" x="88.5" y="-7" font-family="Helvetica,sans-Serif" font-size="10.00">Struct</text>
</a>
</g>
</g>
<!-- Node1&#45;&gt;Node6 -->
<g id="edge6_Node000001_Node000006" class="edge">
<title>Node1&#45;&gt;Node6</title>
<g id="a_edge6_Node000001_Node000006"><a xlink:title=" ">
<path fill="none" stroke="#63b8ff" d="M88.5,-55.65C88.5,-47.36 88.5,-37.78 88.5,-30.11"/>
<polygon fill="#63b8ff" stroke="#63b8ff" points="85,-55.87 88.5,-65.87 92,-55.87 85,-55.87"/>
</a>
</g>
</g>
<!-- Node2 -->
<g id="Node000002" class="node">
<title>Node2</title>
<g id="a_Node000002"><a xlink:href="class_transform.html" target="_top" xlink:title=" ">
<polygon fill="white" stroke="#bfbfbf" points="65,-140 0,-140 0,-121 65,-121 65,-140"/>
<text text-anchor="middle" x="32.5" y="-128" font-family="Helvetica,sans-Serif" font-size="10.00">Transform</text>
</a>
</g>
</g>
<!-- Node2&#45;&gt;Node1 -->
<g id="edge1_Node000001_Node000002" class="edge">
<title>Node2&#45;&gt;Node1</title>
<g id="a_edge1_Node000001_Node000002"><a xlink:title=" ">
<path fill="none" stroke="#63b8ff" d="M48.83,-114.04C58.76,-104.64 71.09,-92.98 79.34,-85.17"/>
<polygon fill="#63b8ff" stroke="#63b8ff" points="46.35,-111.57 41.5,-120.98 51.17,-116.65 46.35,-111.57"/>
</a>
</g>
</g>
<!-- Node3 -->
<g id="Node000003" class="node">
<title>Node3</title>
<g id="a_Node000003"><a xlink:href="class_visitor.html" target="_top" xlink:title=" ">
<polygon fill="white" stroke="#bfbfbf" points="60.5,-195 12.5,-195 12.5,-176 60.5,-176 60.5,-195"/>
<text text-anchor="middle" x="36.5" y="-183" font-family="Helvetica,sans-Serif" font-size="10.00">Visitor</text>
</a>
</g>
</g>
<!-- Node3&#45;&gt;Node2 -->
<g id="edge2_Node000002_Node000003" class="edge">
<title>Node3&#45;&gt;Node2</title>
<g id="a_edge2_Node000002_Node000003"><a xlink:title=" ">
<path fill="none" stroke="#63b8ff" d="M35.08,-165.66C34.42,-156.93 33.67,-146.99 33.15,-140.09"/>
<polygon fill="#63b8ff" stroke="#63b8ff" points="31.6,-166.04 35.84,-175.75 38.58,-165.51 31.6,-166.04"/>
</a>
</g>
</g>
<!-- Node4 -->
<g id="Node000004" class="node">
<title>Node4</title>
<g id="a_Node000004"><a xlink:href="class_p4_1_1_resolution_context.html" target="_top" xlink:title="Visitor mixin for looking up names in enclosing scopes from the Visitor::Context.">
<polygon fill="white" stroke="#666666" points="208,-140 83,-140 83,-121 208,-121 208,-140"/>
<text text-anchor="middle" x="145.5" y="-128" font-family="Helvetica,sans-Serif" font-size="10.00">P4::ResolutionContext</text>
</a>
</g>
</g>
<!-- Node3&#45;&gt;Node4 -->
<g id="edge4_Node000004_Node000003" class="edge">
<title>Node3&#45;&gt;Node4</title>
<g id="a_edge4_Node000004_Node000003"><a xlink:title=" ">
<path fill="none" stroke="#63b8ff" d="M63.23,-171.5C83.29,-161.75 110.18,-148.68 127.67,-140.17"/>
<polygon fill="#63b8ff" stroke="#63b8ff" points="61.48,-168.46 54.01,-175.98 64.54,-174.76 61.48,-168.46"/>
</a>
</g>
</g>
<!-- Node4&#45;&gt;Node1 -->
<g id="edge3_Node000001_Node000004" class="edge">
<title>Node4&#45;&gt;Node1</title>
<g id="a_edge3_Node000001_Node000004"><a xlink:title=" ">
<path fill="none" stroke="#63b8ff" d="M128.88,-114.04C118.77,-104.64 106.22,-92.98 97.82,-85.17"/>
<polygon fill="#63b8ff" stroke="#63b8ff" points="126.64,-116.74 136.34,-120.98 131.4,-111.61 126.64,-116.74"/>
</a>
</g>
</g>
<!-- Node5 -->
<g id="Node000005" class="node">
<title>Node5</title>
<g id="a_Node000005"><a xlink:href="class_p4_1_1_declaration_lookup.html" target="_top" xlink:title=" ">
<polygon fill="white" stroke="#bfbfbf" points="208,-195 83,-195 83,-176 208,-176 208,-195"/>
<text text-anchor="middle" x="145.5" y="-183" font-family="Helvetica,sans-Serif" font-size="10.00">P4::DeclarationLookup</text>
</a>
</g>
</g>
<!-- Node5&#45;&gt;Node4 -->
<g id="edge5_Node000004_Node000005" class="edge">
<title>Node5&#45;&gt;Node4</title>
<g id="a_edge5_Node000004_Node000005"><a xlink:title=" ">
<path fill="none" stroke="#63b8ff" d="M145.5,-165.66C145.5,-156.93 145.5,-146.99 145.5,-140.09"/>
<polygon fill="#63b8ff" stroke="#63b8ff" points="142,-165.75 145.5,-175.75 149,-165.75 142,-165.75"/>
</a>
</g>
</g>
</g>
</svg>
