<?xml version="1.0" encoding="UTF-8" standalone="no"?>
<!DOCTYPE svg PUBLIC "-//W3C//DTD SVG 1.1//EN"
 "http://www.w3.org/Graphics/SVG/1.1/DTD/svg11.dtd">
<!-- Generated by graphviz version 2.43.0 (0)
 -->
<!-- Title: P4Tools::P4Testgen::Pna::MetadataCollection Pages: 1 -->
<svg width="150pt" height="218pt"
 viewBox="0.00 0.00 150.00 218.00" xmlns="http://www.w3.org/2000/svg" xmlns:xlink="http://www.w3.org/1999/xlink">
<g id="graph0" class="graph" transform="scale(1 1) rotate(0) translate(4 214)">
<title>P4Tools::P4Testgen::Pna::MetadataCollection</title>
<polygon fill="white" stroke="transparent" points="-4,4 -4,-214 146,-214 146,4 -4,4"/>
<!-- Node1 -->
<g id="node1" class="node">
<title>Node1</title>
<g id="a_node1"><a xlink:title=" ">
<polygon fill="#bfbfbf" stroke="black" points="0,-0.5 0,-30.5 142,-30.5 142,-0.5 0,-0.5"/>
<text text-anchor="start" x="8" y="-18.5" font-family="Helvetica,sans-Serif" font-size="10.00">P4Tools::P4Testgen</text>
<text text-anchor="middle" x="71" y="-7.5" font-family="Helvetica,sans-Serif" font-size="10.00">::Pna::MetadataCollection</text>
</a>
</g>
</g>
<!-- Node2 -->
<g id="node2" class="node">
<title>Node2</title>
<g id="a_node2"><a xlink:href="class_p4_tools_1_1_p4_testgen_1_1_test_object.html" target="_top" xlink:title=" ">
<polygon fill="white" stroke="black" points="16.5,-67.5 16.5,-97.5 125.5,-97.5 125.5,-67.5 16.5,-67.5"/>
<text text-anchor="start" x="24.5" y="-85.5" font-family="Helvetica,sans-Serif" font-size="10.00">P4Tools::P4Testgen</text>
<text text-anchor="middle" x="71" y="-74.5" font-family="Helvetica,sans-Serif" font-size="10.00">::TestObject</text>
</a>
</g>
</g>
<!-- Node2&#45;&gt;Node1 -->
<g id="edge1" class="edge">
<title>Node2&#45;&gt;Node1</title>
<path fill="none" stroke="midnightblue" d="M71,-57.11C71,-48.15 71,-38.32 71,-30.58"/>
<polygon fill="midnightblue" stroke="midnightblue" points="67.5,-57.4 71,-67.4 74.5,-57.4 67.5,-57.4"/>
</g>
<!-- Node3 -->
<g id="node3" class="node">
<title>Node3</title>
<g id="a_node3"><a xlink:href="class_i_castable.html" target="_top" xlink:title=" ">
<polygon fill="white" stroke="black" points="40,-134.5 40,-153.5 102,-153.5 102,-134.5 40,-134.5"/>
<text text-anchor="middle" x="71" y="-141.5" font-family="Helvetica,sans-Serif" font-size="10.00">ICastable</text>
</a>
</g>
</g>
<!-- Node3&#45;&gt;Node2 -->
<g id="edge2" class="edge">
<title>Node3&#45;&gt;Node2</title>
<path fill="none" stroke="midnightblue" d="M71,-124.23C71,-115.59 71,-105.5 71,-97.52"/>
<polygon fill="midnightblue" stroke="midnightblue" points="67.5,-124.48 71,-134.48 74.5,-124.48 67.5,-124.48"/>
</g>
<!-- Node4 -->
<g id="node4" class="node">
<title>Node4</title>
<g id="a_node4"><a xlink:href="struct_r_t_t_i_1_1_base.html" target="_top" xlink:title=" ">
<polygon fill="white" stroke="black" points="37,-190.5 37,-209.5 105,-209.5 105,-190.5 37,-190.5"/>
<text text-anchor="middle" x="71" y="-197.5" font-family="Helvetica,sans-Serif" font-size="10.00">RTTI::Base</text>
</a>
</g>
</g>
<!-- Node4&#45;&gt;Node3 -->
<g id="edge3" class="edge">
<title>Node4&#45;&gt;Node3</title>
<path fill="none" stroke="midnightblue" d="M71,-179.8C71,-170.91 71,-160.78 71,-153.75"/>
<polygon fill="midnightblue" stroke="midnightblue" points="67.5,-180.08 71,-190.08 74.5,-180.08 67.5,-180.08"/>
</g>
</g>
</svg>
