<?xml version="1.0" encoding="UTF-8" standalone="no"?>
<!DOCTYPE svg PUBLIC "-//W3C//DTD SVG 1.1//EN"
 "http://www.w3.org/Graphics/SVG/1.1/DTD/svg11.dtd">
<!-- Generated by graphviz version 2.43.0 (0)
 -->
<!-- Title: IHasDbPrint Pages: 1 -->
<!--zoomable 1264 -->
<svg id="main" version="1.1" xmlns="http://www.w3.org/2000/svg" xmlns:xlink="http://www.w3.org/1999/xlink" xml:space="preserve" onload="init(evt)">
<style type="text/css"><![CDATA[
.edge:hover path { stroke: red; }
.edge:hover polygon { stroke: red; fill: red; }
]]></style>
<script type="text/javascript"><![CDATA[
var edges = document.getElementsByTagName('g');
if (edges && edges.length) {
  for (var i=0;i<edges.length;i++) {
    if (edges[i].id.substr(0,4)=='edge') {
      edges[i].setAttribute('class','edge');
    }
  }
}
]]></script>
        <defs>
                <circle id="rim" cx="0" cy="0" r="7"/>
                <circle id="rim2" cx="0" cy="0" r="3.5"/>
                <g id="zoomPlus">
                        <use xlink:href="#rim" fill="#404040">
                                <set attributeName="fill" to="#808080" begin="zoomplus.mouseover" end="zoomplus.mouseout"/>
                        </use>
                        <path d="M-4,0h8M0,-4v8" fill="none" stroke="white" stroke-width="1.5" pointer-events="none"/>
                </g>
                <g id="zoomMin">
                        <use xlink:href="#rim" fill="#404040">
                                <set attributeName="fill" to="#808080" begin="zoomminus.mouseover" end="zoomminus.mouseout"/>
                        </use>
                        <path d="M-4,0h8" fill="none" stroke="white" stroke-width="1.5" pointer-events="none"/>
                </g>
                <g id="dirArrow">
                        <path fill="none" stroke="white" stroke-width="1.5" d="M0,-3.0v7 M-2.5,-0.5L0,-3.0L2.5,-0.5"/>
                </g>
               <g id="resetDef">
                       <use xlink:href="#rim2" fill="#404040">
                               <set attributeName="fill" to="#808080" begin="reset.mouseover" end="reset.mouseout"/>
                       </use>
               </g>
        </defs>

<script type="text/javascript">
var viewWidth = 488;
var viewHeight = 1264;
var sectionId = 'dynsection-0';
</script>
<script xlink:href="svgpan.js"/>
<svg id="graph" class="graph">
<g id="viewport">
<title>IHasDbPrint</title>
<polygon fill="white" stroke="transparent" points="-4,4 -4,-1259.5 484,-1259.5 484,4 -4,4"/>
<!-- Node1 -->
<g id="node1" class="node">
<title>Node1</title>
<g id="a_node1"><a xlink:title=" ">
<polygon fill="#bfbfbf" stroke="black" points="0,-612.5 0,-631.5 74,-631.5 74,-612.5 0,-612.5"/>
<text text-anchor="middle" x="37" y="-619.5" font-family="Helvetica,sans-Serif" font-size="10.00">IHasDbPrint</text>
</a>
</g>
</g>
<!-- Node2 -->
<g id="node2" class="node">
<title>Node2</title>
<g id="a_node2"><a xlink:href="struct_p4_1_1_struct_type_replacement.html" target="_top" xlink:title=" ">
<polygon fill="white" stroke="black" points="124.5,-1225 124.5,-1255 274.5,-1255 274.5,-1225 124.5,-1225"/>
<text text-anchor="start" x="132.5" y="-1243" font-family="Helvetica,sans-Serif" font-size="10.00">P4::StructTypeReplacement</text>
<text text-anchor="middle" x="199.5" y="-1232" font-family="Helvetica,sans-Serif" font-size="10.00">&lt; IR::Type_Struct &gt;</text>
</a>
</g>
</g>
<!-- Node1&#45;&gt;Node2 -->
<g id="edge1" class="edge">
<title>Node1&#45;&gt;Node2</title>
<path fill="none" stroke="midnightblue" d="M37.55,-642C35.86,-735.36 33.49,-1127.58 110,-1216 114.06,-1220.69 118.94,-1224.52 124.29,-1227.62"/>
<polygon fill="midnightblue" stroke="midnightblue" points="41.05,-641.98 37.75,-631.92 34.05,-641.84 41.05,-641.98"/>
</g>
<!-- Node3 -->
<g id="node3" class="node">
<title>Node3</title>
<g id="a_node3"><a xlink:href="class_p4_1_1_type_substitution.html" target="_top" xlink:title=" ">
<polygon fill="white" stroke="black" points="132.5,-1176 132.5,-1206 266.5,-1206 266.5,-1176 132.5,-1176"/>
<text text-anchor="start" x="140.5" y="-1194" font-family="Helvetica,sans-Serif" font-size="10.00">P4::TypeSubstitution</text>
<text text-anchor="middle" x="199.5" y="-1183" font-family="Helvetica,sans-Serif" font-size="10.00">&lt; const IR::ITypeVar * &gt;</text>
</a>
</g>
</g>
<!-- Node1&#45;&gt;Node3 -->
<g id="edge2" class="edge">
<title>Node1&#45;&gt;Node3</title>
<path fill="none" stroke="midnightblue" d="M37.82,-641.95C37.42,-730.3 40.26,-1085.44 110,-1166 116.06,-1173 123.92,-1178.11 132.45,-1181.83"/>
<polygon fill="midnightblue" stroke="midnightblue" points="41.32,-641.94 37.88,-631.92 34.32,-641.9 41.32,-641.94"/>
</g>
<!-- Node5 -->
<g id="node5" class="node">
<title>Node5</title>
<g id="a_node5"><a xlink:href="class_b_m_v2_1_1_c_f_g.html" target="_top" xlink:title=" ">
<polygon fill="white" stroke="black" points="164,-1137.5 164,-1156.5 235,-1156.5 235,-1137.5 164,-1137.5"/>
<text text-anchor="middle" x="199.5" y="-1144.5" font-family="Helvetica,sans-Serif" font-size="10.00">BMV2::CFG</text>
</a>
</g>
</g>
<!-- Node1&#45;&gt;Node5 -->
<g id="edge4" class="edge">
<title>Node1&#45;&gt;Node5</title>
<path fill="none" stroke="midnightblue" d="M37.92,-641.72C37.98,-726.1 42.61,-1055.71 110,-1128 123.5,-1142.48 145.15,-1147.31 163.66,-1148.48"/>
<polygon fill="midnightblue" stroke="midnightblue" points="41.42,-641.69 37.93,-631.69 34.42,-641.68 41.42,-641.69"/>
</g>
<!-- Node6 -->
<g id="node6" class="node">
<title>Node6</title>
<g id="a_node6"><a xlink:href="class_b_m_v2_1_1_c_f_g_1_1_edge_set.html" target="_top" xlink:title=" ">
<polygon fill="white" stroke="black" points="141,-1099.5 141,-1118.5 258,-1118.5 258,-1099.5 141,-1099.5"/>
<text text-anchor="middle" x="199.5" y="-1106.5" font-family="Helvetica,sans-Serif" font-size="10.00">BMV2::CFG::EdgeSet</text>
</a>
</g>
</g>
<!-- Node1&#45;&gt;Node6 -->
<g id="edge5" class="edge">
<title>Node1&#45;&gt;Node6</title>
<path fill="none" stroke="midnightblue" d="M38.17,-642.01C39.29,-722.81 47.65,-1023.87 110,-1090 118.19,-1098.69 129.32,-1103.89 140.92,-1106.92"/>
<polygon fill="midnightblue" stroke="midnightblue" points="41.67,-641.7 38.05,-631.74 34.67,-641.78 41.67,-641.7"/>
</g>
<!-- Node7 -->
<g id="node7" class="node">
<title>Node7</title>
<g id="a_node7"><a xlink:href="class_b_m_v2_1_1_c_f_g_1_1_node.html" target="_top" xlink:title=" ">
<polygon fill="white" stroke="black" points="148,-1061.5 148,-1080.5 251,-1080.5 251,-1061.5 148,-1061.5"/>
<text text-anchor="middle" x="199.5" y="-1068.5" font-family="Helvetica,sans-Serif" font-size="10.00">BMV2::CFG::Node</text>
</a>
</g>
</g>
<!-- Node1&#45;&gt;Node7 -->
<g id="edge6" class="edge">
<title>Node1&#45;&gt;Node7</title>
<path fill="none" stroke="midnightblue" d="M38.47,-641.84C40.68,-718.2 52.56,-991.88 110,-1052 119.88,-1062.34 133.92,-1067.73 147.91,-1070.38"/>
<polygon fill="midnightblue" stroke="midnightblue" points="41.96,-641.6 38.2,-631.69 34.96,-641.78 41.96,-641.6"/>
</g>
<!-- Node11 -->
<g id="node11" class="node">
<title>Node11</title>
<g id="a_node11"><a xlink:href="class_i_r_1_1_i_node.html" target="_top" xlink:title=" ">
<polygon fill="white" stroke="black" points="169,-1023.5 169,-1042.5 230,-1042.5 230,-1023.5 169,-1023.5"/>
<text text-anchor="middle" x="199.5" y="-1030.5" font-family="Helvetica,sans-Serif" font-size="10.00">IR::INode</text>
</a>
</g>
</g>
<!-- Node1&#45;&gt;Node11 -->
<g id="edge10" class="edge">
<title>Node1&#45;&gt;Node11</title>
<path fill="none" stroke="midnightblue" d="M38.82,-641.9C42.21,-713.96 57.5,-959.91 110,-1014 124.99,-1029.45 149.29,-1033.8 168.63,-1034.51"/>
<polygon fill="midnightblue" stroke="midnightblue" points="42.3,-641.38 38.36,-631.54 35.31,-641.69 42.3,-641.38"/>
</g>
<!-- Node40 -->
<g id="node14" class="node">
<title>Node40</title>
<g id="a_node14"><a xlink:href="class_p4_1_1_all_definitions.html" target="_top" xlink:title=" ">
<polygon fill="white" stroke="black" points="149.5,-985.5 149.5,-1004.5 249.5,-1004.5 249.5,-985.5 149.5,-985.5"/>
<text text-anchor="middle" x="199.5" y="-992.5" font-family="Helvetica,sans-Serif" font-size="10.00">P4::AllDefinitions</text>
</a>
</g>
</g>
<!-- Node1&#45;&gt;Node40 -->
<g id="edge13" class="edge">
<title>Node1&#45;&gt;Node40</title>
<path fill="none" stroke="midnightblue" d="M39.23,-641.7C43.86,-708.93 62.36,-927.85 110,-976 120.28,-986.39 134.77,-991.74 149.05,-994.34"/>
<polygon fill="midnightblue" stroke="midnightblue" points="42.72,-641.36 38.57,-631.61 35.74,-641.82 42.72,-641.36"/>
</g>
<!-- Node41 -->
<g id="node15" class="node">
<title>Node41</title>
<g id="a_node15"><a xlink:href="struct_p4_1_1_call_info.html" target="_top" xlink:title="Describes information about a caller&#45;callee pair.">
<polygon fill="white" stroke="black" points="163.5,-947.5 163.5,-966.5 235.5,-966.5 235.5,-947.5 163.5,-947.5"/>
<text text-anchor="middle" x="199.5" y="-954.5" font-family="Helvetica,sans-Serif" font-size="10.00">P4::CallInfo</text>
</a>
</g>
</g>
<!-- Node1&#45;&gt;Node41 -->
<g id="edge14" class="edge">
<title>Node1&#45;&gt;Node41</title>
<path fill="none" stroke="midnightblue" d="M39.74,-641.57C45.69,-703.84 67.22,-895.76 110,-938 123.86,-951.69 145.06,-956.58 163.24,-957.98"/>
<polygon fill="midnightblue" stroke="midnightblue" points="43.22,-641.15 38.81,-631.52 36.25,-641.8 43.22,-641.15"/>
</g>
<!-- Node42 -->
<g id="node16" class="node">
<title>Node42</title>
<g id="a_node16"><a xlink:href="struct_p4_1_1_complex_values_1_1_component.html" target="_top" xlink:title=" ">
<polygon fill="white" stroke="black" points="141.5,-898 141.5,-928 257.5,-928 257.5,-898 141.5,-898"/>
<text text-anchor="start" x="149.5" y="-916" font-family="Helvetica,sans-Serif" font-size="10.00">P4::ComplexValues::</text>
<text text-anchor="middle" x="199.5" y="-905" font-family="Helvetica,sans-Serif" font-size="10.00">Component</text>
</a>
</g>
</g>
<!-- Node1&#45;&gt;Node42 -->
<g id="edge15" class="edge">
<title>Node1&#45;&gt;Node42</title>
<path fill="none" stroke="midnightblue" d="M37.21,-641.78C36.39,-690.73 41.32,-818.56 110,-888 118.53,-896.63 129.8,-902.34 141.42,-906.1"/>
<polygon fill="midnightblue" stroke="midnightblue" points="40.72,-641.69 37.49,-631.6 33.72,-641.5 40.72,-641.69"/>
</g>
<!-- Node45 -->
<g id="node19" class="node">
<title>Node45</title>
<g id="a_node19"><a xlink:href="class_p4_1_1_compute_write_set.html" target="_top" xlink:title=" ">
<polygon fill="white" stroke="black" points="139,-859.5 139,-878.5 260,-878.5 260,-859.5 139,-859.5"/>
<text text-anchor="middle" x="199.5" y="-866.5" font-family="Helvetica,sans-Serif" font-size="10.00">P4::ComputeWriteSet</text>
</a>
</g>
</g>
<!-- Node1&#45;&gt;Node45 -->
<g id="edge18" class="edge">
<title>Node1&#45;&gt;Node45</title>
<path fill="none" stroke="midnightblue" d="M38,-641.58C39.14,-685.81 48.42,-793.98 110,-850 118.02,-857.3 128.15,-862.04 138.66,-865.08"/>
<polygon fill="midnightblue" stroke="midnightblue" points="41.5,-641.5 37.86,-631.55 34.5,-641.6 41.5,-641.5"/>
</g>
<!-- Node46 -->
<g id="node20" class="node">
<title>Node46</title>
<g id="a_node20"><a xlink:href="class_p4_1_1_definitions.html" target="_top" xlink:title="List of definers for each base storage (at a specific program point).">
<polygon fill="white" stroke="black" points="156,-821.5 156,-840.5 243,-840.5 243,-821.5 156,-821.5"/>
<text text-anchor="middle" x="199.5" y="-828.5" font-family="Helvetica,sans-Serif" font-size="10.00">P4::Definitions</text>
</a>
</g>
</g>
<!-- Node1&#45;&gt;Node46 -->
<g id="edge19" class="edge">
<title>Node1&#45;&gt;Node46</title>
<path fill="none" stroke="midnightblue" d="M39.44,-641.72C43.4,-680.59 57.9,-767.21 110,-812 122.63,-822.86 139.98,-827.98 155.96,-830.26"/>
<polygon fill="midnightblue" stroke="midnightblue" points="42.92,-641.34 38.56,-631.69 35.95,-641.96 42.92,-641.34"/>
</g>
<!-- Node47 -->
<g id="node21" class="node">
<title>Node47</title>
<g id="a_node21"><a xlink:href="struct_p4_1_1_inline_summary.html" target="_top" xlink:title="Summarizes all inline operations to be performed.">
<polygon fill="white" stroke="black" points="145,-783.5 145,-802.5 254,-802.5 254,-783.5 145,-783.5"/>
<text text-anchor="middle" x="199.5" y="-790.5" font-family="Helvetica,sans-Serif" font-size="10.00">P4::InlineSummary</text>
</a>
</g>
</g>
<!-- Node1&#45;&gt;Node47 -->
<g id="edge20" class="edge">
<title>Node1&#45;&gt;Node47</title>
<path fill="none" stroke="midnightblue" d="M41.55,-641.81C48.52,-674.65 67.21,-740.1 110,-774 119.98,-781.9 132.5,-786.71 144.96,-789.58"/>
<polygon fill="midnightblue" stroke="midnightblue" points="44.92,-640.79 39.55,-631.66 38.05,-642.14 44.92,-640.79"/>
</g>
<!-- Node48 -->
<g id="node22" class="node">
<title>Node48</title>
<g id="a_node22"><a xlink:href="struct_p4_1_1_location_path.html" target="_top" xlink:title=" ">
<polygon fill="white" stroke="black" points="151,-745.5 151,-764.5 248,-764.5 248,-745.5 151,-745.5"/>
<text text-anchor="middle" x="199.5" y="-752.5" font-family="Helvetica,sans-Serif" font-size="10.00">P4::LocationPath</text>
</a>
</g>
</g>
<!-- Node1&#45;&gt;Node48 -->
<g id="edge21" class="edge">
<title>Node1&#45;&gt;Node48</title>
<path fill="none" stroke="midnightblue" d="M44.69,-641.24C54.7,-667.04 76.09,-712.33 110,-736 121.85,-744.28 136.62,-749.06 150.67,-751.79"/>
<polygon fill="midnightblue" stroke="midnightblue" points="47.95,-639.96 41.2,-631.8 41.38,-642.39 47.95,-639.96"/>
</g>
<!-- Node49 -->
<g id="node23" class="node">
<title>Node49</title>
<g id="a_node23"><a xlink:href="class_p4_1_1_location_set.html" target="_top" xlink:title=" ">
<polygon fill="white" stroke="black" points="153.5,-707.5 153.5,-726.5 245.5,-726.5 245.5,-707.5 153.5,-707.5"/>
<text text-anchor="middle" x="199.5" y="-714.5" font-family="Helvetica,sans-Serif" font-size="10.00">P4::LocationSet</text>
</a>
</g>
</g>
<!-- Node1&#45;&gt;Node49 -->
<g id="edge22" class="edge">
<title>Node1&#45;&gt;Node49</title>
<path fill="none" stroke="midnightblue" d="M50.06,-640.01C62.84,-657.6 84.63,-683.75 110,-698 123.15,-705.39 138.89,-709.91 153.41,-712.67"/>
<polygon fill="midnightblue" stroke="midnightblue" points="52.84,-637.87 44.24,-631.7 47.11,-641.89 52.84,-637.87"/>
</g>
<!-- Node50 -->
<g id="node24" class="node">
<title>Node50</title>
<g id="a_node24"><a xlink:href="class_p4_1_1_parameter_substitution.html" target="_top" xlink:title=" ">
<polygon fill="white" stroke="black" points="128,-669.5 128,-688.5 271,-688.5 271,-669.5 128,-669.5"/>
<text text-anchor="middle" x="199.5" y="-676.5" font-family="Helvetica,sans-Serif" font-size="10.00">P4::ParameterSubstitution</text>
</a>
</g>
</g>
<!-- Node1&#45;&gt;Node50 -->
<g id="edge23" class="edge">
<title>Node1&#45;&gt;Node50</title>
<path fill="none" stroke="midnightblue" d="M61.92,-636.75C75.58,-644.63 93.27,-653.92 110,-660 120.34,-663.76 131.64,-666.88 142.61,-669.43"/>
<polygon fill="midnightblue" stroke="midnightblue" points="63.55,-633.65 53.16,-631.58 59.99,-639.68 63.55,-633.65"/>
</g>
<!-- Node51 -->
<g id="node25" class="node">
<title>Node51</title>
<g id="a_node25"><a xlink:href="class_p4_1_1_program_map.html" target="_top" xlink:title=" ">
<polygon fill="white" stroke="black" points="151,-631.5 151,-650.5 248,-650.5 248,-631.5 151,-631.5"/>
<text text-anchor="middle" x="199.5" y="-638.5" font-family="Helvetica,sans-Serif" font-size="10.00">P4::ProgramMap</text>
</a>
</g>
</g>
<!-- Node1&#45;&gt;Node51 -->
<g id="edge24" class="edge">
<title>Node1&#45;&gt;Node51</title>
<path fill="none" stroke="midnightblue" d="M84.23,-627.47C105.08,-629.94 129.69,-632.85 150.72,-635.34"/>
<polygon fill="midnightblue" stroke="midnightblue" points="84.36,-623.96 74.02,-626.26 83.54,-630.92 84.36,-623.96"/>
</g>
<!-- Node54 -->
<g id="node28" class="node">
<title>Node54</title>
<g id="a_node28"><a xlink:href="class_p4_1_1_program_point.html" target="_top" xlink:title="Indicates a statement in the program.">
<polygon fill="white" stroke="black" points="149,-593.5 149,-612.5 250,-612.5 250,-593.5 149,-593.5"/>
<text text-anchor="middle" x="199.5" y="-600.5" font-family="Helvetica,sans-Serif" font-size="10.00">P4::ProgramPoint</text>
</a>
</g>
</g>
<!-- Node1&#45;&gt;Node54 -->
<g id="edge27" class="edge">
<title>Node1&#45;&gt;Node54</title>
<path fill="none" stroke="midnightblue" d="M83.97,-616.56C104.28,-614.15 128.2,-611.32 148.91,-608.87"/>
<polygon fill="midnightblue" stroke="midnightblue" points="83.54,-613.08 74.02,-617.74 84.36,-620.04 83.54,-613.08"/>
</g>
<!-- Node55 -->
<g id="node29" class="node">
<title>Node55</title>
<g id="a_node29"><a xlink:href="class_p4_1_1_program_points.html" target="_top" xlink:title=" ">
<polygon fill="white" stroke="black" points="146.5,-555.5 146.5,-574.5 252.5,-574.5 252.5,-555.5 146.5,-555.5"/>
<text text-anchor="middle" x="199.5" y="-562.5" font-family="Helvetica,sans-Serif" font-size="10.00">P4::ProgramPoints</text>
</a>
</g>
</g>
<!-- Node1&#45;&gt;Node55 -->
<g id="edge28" class="edge">
<title>Node1&#45;&gt;Node55</title>
<path fill="none" stroke="midnightblue" d="M61.92,-607.25C75.58,-599.37 93.27,-590.08 110,-584 121.52,-579.81 134.24,-576.41 146.35,-573.71"/>
<polygon fill="midnightblue" stroke="midnightblue" points="59.99,-604.32 53.16,-612.42 63.55,-610.35 59.99,-604.32"/>
</g>
<!-- Node56 -->
<g id="node30" class="node">
<title>Node56</title>
<g id="a_node30"><a xlink:href="class_p4_1_1_set_of_locations.html" target="_top" xlink:title=" ">
<polygon fill="white" stroke="black" points="145.5,-517.5 145.5,-536.5 253.5,-536.5 253.5,-517.5 145.5,-517.5"/>
<text text-anchor="middle" x="199.5" y="-524.5" font-family="Helvetica,sans-Serif" font-size="10.00">P4::SetOfLocations</text>
</a>
</g>
</g>
<!-- Node1&#45;&gt;Node56 -->
<g id="edge29" class="edge">
<title>Node1&#45;&gt;Node56</title>
<path fill="none" stroke="midnightblue" d="M50.06,-603.99C62.84,-586.4 84.63,-560.25 110,-546 120.69,-540 133.08,-535.89 145.14,-533.07"/>
<polygon fill="midnightblue" stroke="midnightblue" points="47.11,-602.11 44.24,-612.3 52.84,-606.13 47.11,-602.11"/>
</g>
<!-- Node57 -->
<g id="node31" class="node">
<title>Node57</title>
<g id="a_node31"><a xlink:href="class_p4_1_1_simple_call_info.html" target="_top" xlink:title=" ">
<polygon fill="white" stroke="black" points="135,-468 135,-498 264,-498 264,-468 135,-468"/>
<text text-anchor="start" x="143" y="-486" font-family="Helvetica,sans-Serif" font-size="10.00">P4::SimpleCallInfo</text>
<text text-anchor="middle" x="199.5" y="-475" font-family="Helvetica,sans-Serif" font-size="10.00">&lt; Callable, CallNode &gt;</text>
</a>
</g>
</g>
<!-- Node1&#45;&gt;Node57 -->
<g id="edge30" class="edge">
<title>Node1&#45;&gt;Node57</title>
<path fill="none" stroke="midnightblue" d="M45.05,-602.73C55.37,-577.23 77.01,-532.63 110,-508 117.42,-502.46 126.02,-498.15 134.89,-494.79"/>
<polygon fill="midnightblue" stroke="midnightblue" points="41.66,-601.78 41.32,-612.37 48.19,-604.31 41.66,-601.78"/>
</g>
<!-- Node58 -->
<g id="node32" class="node">
<title>Node58</title>
<g id="a_node32"><a xlink:href="class_p4_1_1_simple_inline_work_list.html" target="_top" xlink:title=" ">
<polygon fill="white" stroke="black" points="113,-419 113,-449 286,-449 286,-419 113,-419"/>
<text text-anchor="start" x="121" y="-437" font-family="Helvetica,sans-Serif" font-size="10.00">P4::SimpleInlineWorkList</text>
<text text-anchor="middle" x="199.5" y="-426" font-family="Helvetica,sans-Serif" font-size="10.00">&lt; Callable, CallNode, CallInfo &gt;</text>
</a>
</g>
</g>
<!-- Node1&#45;&gt;Node58 -->
<g id="edge31" class="edge">
<title>Node1&#45;&gt;Node58</title>
<path fill="none" stroke="midnightblue" d="M41.18,-602.05C47.71,-567.67 65.93,-497.27 110,-459 114.46,-455.13 119.48,-451.85 124.8,-449.08"/>
<polygon fill="midnightblue" stroke="midnightblue" points="37.67,-601.77 39.39,-612.23 44.57,-602.99 37.67,-601.77"/>
</g>
<!-- Node59 -->
<g id="node33" class="node">
<title>Node59</title>
<g id="a_node33"><a xlink:href="class_p4_1_1_storage_location.html" target="_top" xlink:title="Abstraction for something that is has a left value (variable, parameter)">
<polygon fill="white" stroke="black" points="143,-380.5 143,-399.5 256,-399.5 256,-380.5 143,-380.5"/>
<text text-anchor="middle" x="199.5" y="-387.5" font-family="Helvetica,sans-Serif" font-size="10.00">P4::StorageLocation</text>
</a>
</g>
</g>
<!-- Node1&#45;&gt;Node59 -->
<g id="edge32" class="edge">
<title>Node1&#45;&gt;Node59</title>
<path fill="none" stroke="midnightblue" d="M38.61,-602.12C41.02,-560.01 52.83,-461.45 110,-410 119.13,-401.78 130.92,-396.71 142.89,-393.64"/>
<polygon fill="midnightblue" stroke="midnightblue" points="35.11,-602.06 38.15,-612.2 42.1,-602.37 35.11,-602.06"/>
</g>
<!-- Node66 -->
<g id="node37" class="node">
<title>Node66</title>
<g id="a_node37"><a xlink:href="class_p4_1_1_storage_map.html" target="_top" xlink:title="Maps a declaration to its associated storage.">
<polygon fill="white" stroke="black" points="153,-342.5 153,-361.5 246,-361.5 246,-342.5 153,-342.5"/>
<text text-anchor="middle" x="199.5" y="-349.5" font-family="Helvetica,sans-Serif" font-size="10.00">P4::StorageMap</text>
</a>
</g>
</g>
<!-- Node1&#45;&gt;Node66 -->
<g id="edge36" class="edge">
<title>Node1&#45;&gt;Node66</title>
<path fill="none" stroke="midnightblue" d="M37.33,-602.1C36.9,-554.58 42.83,-433.76 110,-371 121.48,-360.27 137.5,-355.03 152.75,-352.62"/>
<polygon fill="midnightblue" stroke="midnightblue" points="33.84,-602.36 37.54,-612.29 40.84,-602.22 33.84,-602.36"/>
</g>
<!-- Node67 -->
<g id="node38" class="node">
<title>Node67</title>
<g id="a_node38"><a xlink:href="struct_p4_1_1_struct_type_replacement.html" target="_top" xlink:title=" ">
<polygon fill="white" stroke="black" points="110,-304.5 110,-323.5 289,-323.5 289,-304.5 110,-304.5"/>
<text text-anchor="middle" x="199.5" y="-311.5" font-family="Helvetica,sans-Serif" font-size="10.00">P4::StructTypeReplacement&lt; T &gt;</text>
</a>
</g>
</g>
<!-- Node1&#45;&gt;Node67 -->
<g id="edge37" class="edge">
<title>Node1&#45;&gt;Node67</title>
<path fill="none" stroke="midnightblue" d="M40.22,-602.21C47.22,-543.33 70.73,-371.01 110,-333 113.84,-329.28 118.22,-326.22 122.93,-323.7"/>
<polygon fill="midnightblue" stroke="midnightblue" points="36.71,-602.06 39.04,-612.4 43.67,-602.87 36.71,-602.06"/>
</g>
<!-- Node68 -->
<g id="node39" class="node">
<title>Node68</title>
<g id="a_node39"><a xlink:href="class_p4_1_1_symbolic_value.html" target="_top" xlink:title=" ">
<polygon fill="white" stroke="red" points="146,-266.5 146,-285.5 253,-285.5 253,-266.5 146,-266.5"/>
<text text-anchor="middle" x="199.5" y="-273.5" font-family="Helvetica,sans-Serif" font-size="10.00">P4::SymbolicValue</text>
</a>
</g>
</g>
<!-- Node1&#45;&gt;Node68 -->
<g id="edge38" class="edge">
<title>Node1&#45;&gt;Node68</title>
<path fill="none" stroke="midnightblue" d="M39.6,-602.18C45.18,-538.21 65.87,-338.9 110,-295 119.58,-285.47 132.71,-280.2 145.93,-277.4"/>
<polygon fill="midnightblue" stroke="midnightblue" points="36.09,-602.22 38.74,-612.48 43.06,-602.81 36.09,-602.22"/>
</g>
<!-- Node86 -->
<g id="node43" class="node">
<title>Node86</title>
<g id="a_node43"><a xlink:href="class_p4_1_1_type_constraint.html" target="_top" xlink:title=" ">
<polygon fill="white" stroke="red" points="146,-228.5 146,-247.5 253,-247.5 253,-228.5 146,-228.5"/>
<text text-anchor="middle" x="199.5" y="-235.5" font-family="Helvetica,sans-Serif" font-size="10.00">P4::TypeConstraint</text>
</a>
</g>
</g>
<!-- Node1&#45;&gt;Node86 -->
<g id="edge42" class="edge">
<title>Node1&#45;&gt;Node86</title>
<path fill="none" stroke="midnightblue" d="M39.11,-602.15C43.38,-533.39 60.98,-306.85 110,-257 119.48,-247.36 132.57,-242.06 145.79,-239.26"/>
<polygon fill="midnightblue" stroke="midnightblue" points="35.6,-602.25 38.5,-612.44 42.59,-602.66 35.6,-602.25"/>
</g>
<!-- Node90 -->
<g id="node44" class="node">
<title>Node90</title>
<g id="a_node44"><a xlink:href="class_p4_1_1_type_constraints.html" target="_top" xlink:title=" ">
<polygon fill="white" stroke="black" points="143,-190.5 143,-209.5 256,-209.5 256,-190.5 143,-190.5"/>
<text text-anchor="middle" x="199.5" y="-197.5" font-family="Helvetica,sans-Serif" font-size="10.00">P4::TypeConstraints</text>
</a>
</g>
</g>
<!-- Node1&#45;&gt;Node90 -->
<g id="edge43" class="edge">
<title>Node1&#45;&gt;Node90</title>
<path fill="none" stroke="midnightblue" d="M38.72,-602.01C41.77,-528.53 56.1,-274.8 110,-219 118.73,-209.96 130.65,-204.71 142.91,-201.77"/>
<polygon fill="midnightblue" stroke="midnightblue" points="35.21,-602.06 38.32,-612.19 42.21,-602.34 35.21,-602.06"/>
</g>
<!-- Node91 -->
<g id="node45" class="node">
<title>Node91</title>
<g id="a_node45"><a xlink:href="struct_p4_1_1_type_specialization.html" target="_top" xlink:title=" ">
<polygon fill="white" stroke="black" points="137,-152.5 137,-171.5 262,-171.5 262,-152.5 137,-152.5"/>
<text text-anchor="middle" x="199.5" y="-159.5" font-family="Helvetica,sans-Serif" font-size="10.00">P4::TypeSpecialization</text>
</a>
</g>
</g>
<!-- Node1&#45;&gt;Node91 -->
<g id="edge44" class="edge">
<title>Node1&#45;&gt;Node91</title>
<path fill="none" stroke="midnightblue" d="M38.38,-602.17C40.26,-524.58 51.12,-242.87 110,-181 117.26,-173.37 126.78,-168.44 136.88,-165.3"/>
<polygon fill="midnightblue" stroke="midnightblue" points="34.87,-602.37 38.15,-612.44 41.87,-602.52 34.87,-602.37"/>
</g>
<!-- Node92 -->
<g id="node46" class="node">
<title>Node92</title>
<g id="a_node46"><a xlink:href="struct_p4_1_1_type_specialization_map.html" target="_top" xlink:title=" ">
<polygon fill="white" stroke="black" points="126.5,-114.5 126.5,-133.5 272.5,-133.5 272.5,-114.5 126.5,-114.5"/>
<text text-anchor="middle" x="199.5" y="-121.5" font-family="Helvetica,sans-Serif" font-size="10.00">P4::TypeSpecializationMap</text>
</a>
</g>
</g>
<!-- Node1&#45;&gt;Node92 -->
<g id="edge45" class="edge">
<title>Node1&#45;&gt;Node92</title>
<path fill="none" stroke="midnightblue" d="M38.09,-602.06C38.9,-520.17 46.2,-210.91 110,-143 114.63,-138.08 120.2,-134.27 126.26,-131.34"/>
<polygon fill="midnightblue" stroke="midnightblue" points="34.59,-602.41 38.02,-612.43 41.59,-602.46 34.59,-602.41"/>
</g>
<!-- Node93 -->
<g id="node47" class="node">
<title>Node93</title>
<g id="a_node47"><a xlink:href="class_p4_1_1_type_substitution.html" target="_top" xlink:title=" ">
<polygon fill="white" stroke="black" points="127.5,-76.5 127.5,-95.5 271.5,-95.5 271.5,-76.5 127.5,-76.5"/>
<text text-anchor="middle" x="199.5" y="-83.5" font-family="Helvetica,sans-Serif" font-size="10.00">P4::TypeSubstitution&lt; T &gt;</text>
</a>
</g>
</g>
<!-- Node1&#45;&gt;Node93 -->
<g id="edge46" class="edge">
<title>Node1&#45;&gt;Node93</title>
<path fill="none" stroke="midnightblue" d="M37.85,-601.85C37.64,-515.66 41.28,-178.93 110,-105 114.92,-99.71 120.93,-95.7 127.48,-92.69"/>
<polygon fill="midnightblue" stroke="midnightblue" points="34.35,-602.12 37.9,-612.1 41.35,-602.09 34.35,-602.12"/>
</g>
<!-- Node94 -->
<g id="node48" class="node">
<title>Node94</title>
<g id="a_node48"><a xlink:href="class_p4_1_1_value_map.html" target="_top" xlink:title=" ">
<polygon fill="white" stroke="black" points="158,-38.5 158,-57.5 241,-57.5 241,-38.5 158,-38.5"/>
<text text-anchor="middle" x="199.5" y="-45.5" font-family="Helvetica,sans-Serif" font-size="10.00">P4::ValueMap</text>
</a>
</g>
</g>
<!-- Node1&#45;&gt;Node94 -->
<g id="edge47" class="edge">
<title>Node1&#45;&gt;Node94</title>
<path fill="none" stroke="midnightblue" d="M37.64,-602.11C36.45,-512.5 36.23,-147.12 110,-67 122.03,-53.94 140.68,-48.7 157.77,-46.93"/>
<polygon fill="midnightblue" stroke="midnightblue" points="34.14,-602.32 37.8,-612.26 41.14,-602.21 34.14,-602.32"/>
</g>
<!-- Node95 -->
<g id="node49" class="node">
<title>Node95</title>
<g id="a_node49"><a xlink:href="class_util_1_1_comment.html" target="_top" xlink:title=" ">
<polygon fill="white" stroke="black" points="155.5,-0.5 155.5,-19.5 243.5,-19.5 243.5,-0.5 155.5,-0.5"/>
<text text-anchor="middle" x="199.5" y="-7.5" font-family="Helvetica,sans-Serif" font-size="10.00">Util::Comment</text>
</a>
</g>
</g>
<!-- Node1&#45;&gt;Node95 -->
<g id="edge48" class="edge">
<title>Node1&#45;&gt;Node95</title>
<path fill="none" stroke="#8b1a1a" d="M39.07,-601.96C44.5,-503.32 70.39,-72.37 110,-29 121.44,-16.47 138.98,-11.13 155.44,-9.14"/>
<polygon fill="#8b1a1a" stroke="#8b1a1a" points="35.57,-601.89 38.52,-612.07 42.56,-602.27 35.57,-601.89"/>
</g>
<!-- Node4 -->
<g id="node4" class="node">
<title>Node4</title>
<g id="a_node4"><a xlink:href="class_p4_1_1_type_variable_substitution.html" target="_top" xlink:title=" ">
<polygon fill="white" stroke="black" points="325,-1181.5 325,-1200.5 480,-1200.5 480,-1181.5 325,-1181.5"/>
<text text-anchor="middle" x="402.5" y="-1188.5" font-family="Helvetica,sans-Serif" font-size="10.00">P4::TypeVariableSubstitution</text>
</a>
</g>
</g>
<!-- Node3&#45;&gt;Node4 -->
<g id="edge3" class="edge">
<title>Node3&#45;&gt;Node4</title>
<path fill="none" stroke="midnightblue" d="M276.8,-1191C292.55,-1191 309.14,-1191 324.9,-1191"/>
<polygon fill="midnightblue" stroke="midnightblue" points="276.59,-1187.5 266.59,-1191 276.59,-1194.5 276.59,-1187.5"/>
</g>
<!-- Node8 -->
<g id="node8" class="node">
<title>Node8</title>
<g id="a_node8"><a xlink:href="class_b_m_v2_1_1_c_f_g_1_1_dummy_node.html" target="_top" xlink:title=" ">
<polygon fill="white" stroke="black" points="331.5,-1137.5 331.5,-1156.5 473.5,-1156.5 473.5,-1137.5 331.5,-1137.5"/>
<text text-anchor="middle" x="402.5" y="-1144.5" font-family="Helvetica,sans-Serif" font-size="10.00">BMV2::CFG::DummyNode</text>
</a>
</g>
</g>
<!-- Node7&#45;&gt;Node8 -->
<g id="edge7" class="edge">
<title>Node7&#45;&gt;Node8</title>
<path fill="none" stroke="midnightblue" d="M260.84,-1078.84C270.63,-1081.54 280.37,-1085.15 289,-1090 309.28,-1101.4 304.9,-1116.28 325,-1128 331.62,-1131.86 339,-1134.94 346.5,-1137.4"/>
<polygon fill="midnightblue" stroke="midnightblue" points="261.63,-1075.43 251.08,-1076.45 259.96,-1082.23 261.63,-1075.43"/>
</g>
<!-- Node9 -->
<g id="node9" class="node">
<title>Node9</title>
<g id="a_node9"><a xlink:href="class_b_m_v2_1_1_c_f_g_1_1_if_node.html" target="_top" xlink:title=" ">
<polygon fill="white" stroke="black" points="347.5,-1099.5 347.5,-1118.5 457.5,-1118.5 457.5,-1099.5 347.5,-1099.5"/>
<text text-anchor="middle" x="402.5" y="-1106.5" font-family="Helvetica,sans-Serif" font-size="10.00">BMV2::CFG::IfNode</text>
</a>
</g>
</g>
<!-- Node7&#45;&gt;Node9 -->
<g id="edge8" class="edge">
<title>Node7&#45;&gt;Node9</title>
<path fill="none" stroke="midnightblue" d="M260.9,-1082.42C289.66,-1087.86 323.66,-1094.28 351.02,-1099.46"/>
<polygon fill="midnightblue" stroke="midnightblue" points="261.44,-1078.96 250.96,-1080.54 260.14,-1085.84 261.44,-1078.96"/>
</g>
<!-- Node10 -->
<g id="node10" class="node">
<title>Node10</title>
<g id="a_node10"><a xlink:href="class_b_m_v2_1_1_c_f_g_1_1_table_node.html" target="_top" xlink:title=" ">
<polygon fill="white" stroke="black" points="338.5,-1061.5 338.5,-1080.5 466.5,-1080.5 466.5,-1061.5 338.5,-1061.5"/>
<text text-anchor="middle" x="402.5" y="-1068.5" font-family="Helvetica,sans-Serif" font-size="10.00">BMV2::CFG::TableNode</text>
</a>
</g>
</g>
<!-- Node7&#45;&gt;Node10 -->
<g id="edge9" class="edge">
<title>Node7&#45;&gt;Node10</title>
<path fill="none" stroke="midnightblue" d="M261.39,-1071C285.68,-1071 313.66,-1071 338.19,-1071"/>
<polygon fill="midnightblue" stroke="midnightblue" points="261.22,-1067.5 251.22,-1071 261.22,-1074.5 261.22,-1067.5"/>
</g>
<!-- Node12 -->
<g id="node12" class="node">
<title>Node12</title>
<g id="a_node12"><a xlink:href="class_i_r_1_1_i_declaration.html" target="_top" xlink:title="The Declaration interface, representing objects with names.">
<polygon fill="white" stroke="black" points="356.5,-1023.5 356.5,-1042.5 448.5,-1042.5 448.5,-1023.5 356.5,-1023.5"/>
<text text-anchor="middle" x="402.5" y="-1030.5" font-family="Helvetica,sans-Serif" font-size="10.00">IR::IDeclaration</text>
</a>
</g>
</g>
<!-- Node11&#45;&gt;Node12 -->
<g id="edge11" class="edge">
<title>Node11&#45;&gt;Node12</title>
<path fill="none" stroke="midnightblue" d="M240.49,-1033C273.94,-1033 321.66,-1033 356.46,-1033"/>
<polygon fill="midnightblue" stroke="midnightblue" points="240.16,-1029.5 230.16,-1033 240.16,-1036.5 240.16,-1029.5"/>
</g>
<!-- Node13 -->
<g id="node13" class="node">
<title>Node13</title>
<g id="a_node13"><a xlink:href="class_i_r_1_1_node.html" target="_top" xlink:title=" ">
<polygon fill="white" stroke="red" points="373.5,-985.5 373.5,-1004.5 431.5,-1004.5 431.5,-985.5 373.5,-985.5"/>
<text text-anchor="middle" x="402.5" y="-992.5" font-family="Helvetica,sans-Serif" font-size="10.00">IR::Node</text>
</a>
</g>
</g>
<!-- Node11&#45;&gt;Node13 -->
<g id="edge12" class="edge">
<title>Node11&#45;&gt;Node13</title>
<path fill="none" stroke="midnightblue" d="M240.18,-1025.5C279.48,-1018.07 338.65,-1006.88 373.34,-1000.32"/>
<polygon fill="midnightblue" stroke="midnightblue" points="239.33,-1022.1 230.16,-1027.39 240.63,-1028.97 239.33,-1022.1"/>
</g>
<!-- Node43 -->
<g id="node17" class="node">
<title>Node43</title>
<g id="a_node17"><a xlink:href="struct_p4_1_1_complex_values_1_1_fields_map.html" target="_top" xlink:title=" ">
<polygon fill="white" stroke="black" points="344.5,-917 344.5,-947 460.5,-947 460.5,-917 344.5,-917"/>
<text text-anchor="start" x="352.5" y="-935" font-family="Helvetica,sans-Serif" font-size="10.00">P4::ComplexValues::</text>
<text text-anchor="middle" x="402.5" y="-924" font-family="Helvetica,sans-Serif" font-size="10.00">FieldsMap</text>
</a>
</g>
</g>
<!-- Node42&#45;&gt;Node43 -->
<g id="edge16" class="edge">
<title>Node42&#45;&gt;Node43</title>
<path fill="none" stroke="midnightblue" d="M267.64,-919.35C292.49,-921.7 320.41,-924.33 344.3,-926.59"/>
<polygon fill="midnightblue" stroke="midnightblue" points="267.85,-915.85 257.56,-918.39 267.19,-922.82 267.85,-915.85"/>
</g>
<!-- Node44 -->
<g id="node18" class="node">
<title>Node44</title>
<g id="a_node18"><a xlink:href="struct_p4_1_1_complex_values_1_1_final_name.html" target="_top" xlink:title=" ">
<polygon fill="white" stroke="black" points="344.5,-868 344.5,-898 460.5,-898 460.5,-868 344.5,-868"/>
<text text-anchor="start" x="352.5" y="-886" font-family="Helvetica,sans-Serif" font-size="10.00">P4::ComplexValues::</text>
<text text-anchor="middle" x="402.5" y="-875" font-family="Helvetica,sans-Serif" font-size="10.00">FinalName</text>
</a>
</g>
</g>
<!-- Node42&#45;&gt;Node44 -->
<g id="edge17" class="edge">
<title>Node42&#45;&gt;Node44</title>
<path fill="none" stroke="midnightblue" d="M267.64,-902.98C292.49,-899.27 320.41,-895.1 344.3,-891.54"/>
<polygon fill="midnightblue" stroke="midnightblue" points="266.93,-899.55 257.56,-904.48 267.97,-906.47 266.93,-899.55"/>
</g>
<!-- Node52 -->
<g id="node26" class="node">
<title>Node52</title>
<g id="a_node26"><a xlink:href="class_p4_1_1_reference_map.html" target="_top" xlink:title="Class used to encode maps from paths to declarations.">
<polygon fill="white" stroke="black" points="350,-650.5 350,-669.5 455,-669.5 455,-650.5 350,-650.5"/>
<text text-anchor="middle" x="402.5" y="-657.5" font-family="Helvetica,sans-Serif" font-size="10.00">P4::ReferenceMap</text>
</a>
</g>
</g>
<!-- Node51&#45;&gt;Node52 -->
<g id="edge25" class="edge">
<title>Node51&#45;&gt;Node52</title>
<path fill="none" stroke="midnightblue" d="M258.12,-646.45C287.09,-649.18 321.91,-652.48 349.98,-655.13"/>
<polygon fill="midnightblue" stroke="midnightblue" points="258.42,-642.96 248.13,-645.5 257.76,-649.93 258.42,-642.96"/>
</g>
<!-- Node53 -->
<g id="node27" class="node">
<title>Node53</title>
<g id="a_node27"><a xlink:href="class_p4_1_1_type_map.html" target="_top" xlink:title=" ">
<polygon fill="white" stroke="black" points="363.5,-612.5 363.5,-631.5 441.5,-631.5 441.5,-612.5 363.5,-612.5"/>
<text text-anchor="middle" x="402.5" y="-619.5" font-family="Helvetica,sans-Serif" font-size="10.00">P4::TypeMap</text>
</a>
</g>
</g>
<!-- Node51&#45;&gt;Node53 -->
<g id="edge26" class="edge">
<title>Node51&#45;&gt;Node53</title>
<path fill="none" stroke="midnightblue" d="M258.32,-635.53C292.04,-632.35 333.63,-628.42 363.28,-625.61"/>
<polygon fill="midnightblue" stroke="midnightblue" points="257.76,-632.07 248.13,-636.5 258.42,-639.04 257.76,-632.07"/>
</g>
<!-- Node60 -->
<g id="node34" class="node">
<title>Node60</title>
<g id="a_node34"><a xlink:href="class_p4_1_1_base_location.html" target="_top" xlink:title=" ">
<polygon fill="white" stroke="black" points="352.5,-418.5 352.5,-437.5 452.5,-437.5 452.5,-418.5 352.5,-418.5"/>
<text text-anchor="middle" x="402.5" y="-425.5" font-family="Helvetica,sans-Serif" font-size="10.00">P4::BaseLocation</text>
</a>
</g>
</g>
<!-- Node59&#45;&gt;Node60 -->
<g id="edge33" class="edge">
<title>Node59&#45;&gt;Node60</title>
<path fill="none" stroke="midnightblue" d="M261.05,-401.45C290.27,-406.97 324.86,-413.51 352.41,-418.72"/>
<polygon fill="midnightblue" stroke="midnightblue" points="261.44,-397.96 250.96,-399.54 260.14,-404.84 261.44,-397.96"/>
</g>
<!-- Node61 -->
<g id="node35" class="node">
<title>Node61</title>
<g id="a_node35"><a xlink:href="class_p4_1_1_indexed_location.html" target="_top" xlink:title="Interface for locations that support an index operation.">
<polygon fill="white" stroke="red" points="345.5,-380.5 345.5,-399.5 459.5,-399.5 459.5,-380.5 345.5,-380.5"/>
<text text-anchor="middle" x="402.5" y="-387.5" font-family="Helvetica,sans-Serif" font-size="10.00">P4::IndexedLocation</text>
</a>
</g>
</g>
<!-- Node59&#45;&gt;Node61 -->
<g id="edge34" class="edge">
<title>Node59&#45;&gt;Node61</title>
<path fill="none" stroke="midnightblue" d="M266.54,-390C292.02,-390 320.86,-390 345.32,-390"/>
<polygon fill="midnightblue" stroke="midnightblue" points="266.22,-386.5 256.22,-390 266.22,-393.5 266.22,-386.5"/>
</g>
<!-- Node64 -->
<g id="node36" class="node">
<title>Node64</title>
<g id="a_node36"><a xlink:href="class_p4_1_1_with_fields_location.html" target="_top" xlink:title="Base class for location sets that contain fields.">
<polygon fill="white" stroke="red" points="339,-342.5 339,-361.5 466,-361.5 466,-342.5 339,-342.5"/>
<text text-anchor="middle" x="402.5" y="-349.5" font-family="Helvetica,sans-Serif" font-size="10.00">P4::WithFieldsLocation</text>
</a>
</g>
</g>
<!-- Node59&#45;&gt;Node64 -->
<g id="edge35" class="edge">
<title>Node59&#45;&gt;Node64</title>
<path fill="none" stroke="midnightblue" d="M260.9,-378.58C289.66,-373.14 323.66,-366.72 351.02,-361.54"/>
<polygon fill="midnightblue" stroke="midnightblue" points="260.14,-375.16 250.96,-380.46 261.44,-382.04 260.14,-375.16"/>
</g>
<!-- Node69 -->
<g id="node40" class="node">
<title>Node69</title>
<g id="a_node40"><a xlink:href="class_p4_1_1_scalar_value.html" target="_top" xlink:title=" ">
<polygon fill="white" stroke="red" points="356.5,-304.5 356.5,-323.5 448.5,-323.5 448.5,-304.5 356.5,-304.5"/>
<text text-anchor="middle" x="402.5" y="-311.5" font-family="Helvetica,sans-Serif" font-size="10.00">P4::ScalarValue</text>
</a>
</g>
</g>
<!-- Node68&#45;&gt;Node69 -->
<g id="edge39" class="edge">
<title>Node68&#45;&gt;Node69</title>
<path fill="none" stroke="midnightblue" d="M261.08,-287.45C291.63,-293.23 328.07,-300.12 356.17,-305.43"/>
<polygon fill="midnightblue" stroke="midnightblue" points="261.44,-283.96 250.96,-285.54 260.14,-290.84 261.44,-283.96"/>
</g>
<!-- Node74 -->
<g id="node41" class="node">
<title>Node74</title>
<g id="a_node41"><a xlink:href="class_p4_1_1_symbolic_array.html" target="_top" xlink:title=" ">
<polygon fill="white" stroke="black" points="349.5,-266.5 349.5,-285.5 455.5,-285.5 455.5,-266.5 349.5,-266.5"/>
<text text-anchor="middle" x="402.5" y="-273.5" font-family="Helvetica,sans-Serif" font-size="10.00">P4::SymbolicArray</text>
</a>
</g>
</g>
<!-- Node68&#45;&gt;Node74 -->
<g id="edge40" class="edge">
<title>Node68&#45;&gt;Node74</title>
<path fill="none" stroke="midnightblue" d="M263.39,-276C290.98,-276 323,-276 349.26,-276"/>
<polygon fill="midnightblue" stroke="midnightblue" points="263.05,-272.5 253.05,-276 263.05,-279.5 263.05,-272.5"/>
</g>
<!-- Node75 -->
<g id="node42" class="node">
<title>Node75</title>
<g id="a_node42"><a xlink:href="class_p4_1_1_symbolic_error.html" target="_top" xlink:title=" ">
<polygon fill="white" stroke="red" points="351,-228.5 351,-247.5 454,-247.5 454,-228.5 351,-228.5"/>
<text text-anchor="middle" x="402.5" y="-235.5" font-family="Helvetica,sans-Serif" font-size="10.00">P4::SymbolicError</text>
</a>
</g>
</g>
<!-- Node68&#45;&gt;Node75 -->
<g id="edge41" class="edge">
<title>Node68&#45;&gt;Node75</title>
<path fill="none" stroke="midnightblue" d="M260.9,-264.58C289.66,-259.14 323.66,-252.72 351.02,-247.54"/>
<polygon fill="midnightblue" stroke="midnightblue" points="260.14,-261.16 250.96,-266.46 261.44,-268.04 260.14,-261.16"/>
</g>
</g>
</svg>
        <g id="navigator" transform="translate(0 0)" fill="#404254">
                <rect fill="#f2f5e9" fill-opacity="0.5" stroke="#606060" stroke-width=".5" x="0" y="0" width="60" height="60"/>
                <use id="zoomplus" xlink:href="#zoomPlus" x="17" y="9" onmousedown="handleZoom(evt,'in')"/>
                <use id="zoomminus" xlink:href="#zoomMin" x="42" y="9" onmousedown="handleZoom(evt,'out')"/>
                <use id="reset" xlink:href="#resetDef" x="30" y="36" onmousedown="handleReset()"/>
                <g id="arrowUp" xlink:href="#dirArrow" transform="translate(30 24)" onmousedown="handlePan(0,-1)">
                  <use xlink:href="#rim" fill="#404040">
                        <set attributeName="fill" to="#808080" begin="arrowUp.mouseover" end="arrowUp.mouseout"/>
                  </use>
                  <path fill="none" stroke="white" stroke-width="1.5" d="M0,-3.0v7 M-2.5,-0.5L0,-3.0L2.5,-0.5"/>
                </g>
                <g id="arrowRight" xlink:href="#dirArrow" transform="rotate(90) translate(36 -43)" onmousedown="handlePan(1,0)">
                  <use xlink:href="#rim" fill="#404040">
                        <set attributeName="fill" to="#808080" begin="arrowRight.mouseover" end="arrowRight.mouseout"/>
                  </use>
                  <path fill="none" stroke="white" stroke-width="1.5" d="M0,-3.0v7 M-2.5,-0.5L0,-3.0L2.5,-0.5"/>
                </g>
                <g id="arrowDown" xlink:href="#dirArrow" transform="rotate(180) translate(-30 -48)" onmousedown="handlePan(0,1)">
                  <use xlink:href="#rim" fill="#404040">
                        <set attributeName="fill" to="#808080" begin="arrowDown.mouseover" end="arrowDown.mouseout"/>
                  </use>
                  <path fill="none" stroke="white" stroke-width="1.5" d="M0,-3.0v7 M-2.5,-0.5L0,-3.0L2.5,-0.5"/>
                </g>
                <g id="arrowLeft" xlink:href="#dirArrow" transform="rotate(270) translate(-36 17)" onmousedown="handlePan(-1,0)">
                  <use xlink:href="#rim" fill="#404040">
                        <set attributeName="fill" to="#808080" begin="arrowLeft.mouseover" end="arrowLeft.mouseout"/>
                  </use>
                  <path fill="none" stroke="white" stroke-width="1.5" d="M0,-3.0v7 M-2.5,-0.5L0,-3.0L2.5,-0.5"/>
                </g>
        </g>
        <svg viewBox="0 0 15 15" width="100%" height="30px" preserveAspectRatio="xMaxYMin meet">
         <g id="arrow_out" transform="scale(0.3 0.3)">
          <a xlink:href="class_i_has_db_print__inherit__graph_org.svg" target="_base">
           <rect id="button" ry="5" rx="5" y="6" x="6" height="38" width="38"
                fill="#f2f5e9" fill-opacity="0.5" stroke="#606060" stroke-width="1.0"/>
           <path id="arrow"
             d="M 11.500037,31.436501 C 11.940474,20.09759 22.043105,11.32322 32.158766,21.979434 L 37.068811,17.246167 C 37.068811,17.246167 37.088388,32 37.088388,32 L 22.160133,31.978069 C 22.160133,31.978069 26.997745,27.140456 26.997745,27.140456 C 18.528582,18.264221 13.291696,25.230495 11.500037,31.436501 z"
             style="fill:#404040;"/>
          </a>
         </g>
        </svg>
</svg>
