<?xml version="1.0" encoding="UTF-8" standalone="no"?>
<!DOCTYPE svg PUBLIC "-//W3C//DTD SVG 1.1//EN"
 "http://www.w3.org/Graphics/SVG/1.1/DTD/svg11.dtd">
<!-- Generated by graphviz version 2.43.0 (0)
 -->
<!-- Title: P4Tools::P4Smith::SmithTarget Pages: 1 -->
<svg width="851pt" height="235pt"
 viewBox="0.00 0.00 851.00 235.00" xmlns="http://www.w3.org/2000/svg" xmlns:xlink="http://www.w3.org/1999/xlink">
<g id="graph0" class="graph" transform="scale(1 1) rotate(0) translate(4 231)">
<title>P4Tools::P4Smith::SmithTarget</title>
<polygon fill="white" stroke="transparent" points="-4,4 -4,-231 847,-231 847,4 -4,4"/>
<!-- Node1 -->
<g id="node1" class="node">
<title>Node1</title>
<g id="a_node1"><a xlink:title=" ">
<polygon fill="#bfbfbf" stroke="black" points="295,-79 295,-98 459,-98 459,-79 295,-79"/>
<text text-anchor="middle" x="377" y="-86" font-family="Helvetica,sans-Serif" font-size="10.00">P4Tools::P4Smith::SmithTarget</text>
</a>
</g>
</g>
<!-- Node4 -->
<g id="node4" class="node">
<title>Node4</title>
<g id="a_node4"><a xlink:href="class_p4_tools_1_1_p4_smith_1_1_b_mv2_1_1_abstract_b_mv2_smith_target.html" target="_top" xlink:title=" ">
<polygon fill="white" stroke="black" points="500,-147.5 500,-177.5 649,-177.5 649,-147.5 500,-147.5"/>
<text text-anchor="start" x="508" y="-165.5" font-family="Helvetica,sans-Serif" font-size="10.00">P4Tools::P4Smith::BMv2</text>
<text text-anchor="middle" x="574.5" y="-154.5" font-family="Helvetica,sans-Serif" font-size="10.00">::AbstractBMv2SmithTarget</text>
</a>
</g>
</g>
<!-- Node1&#45;&gt;Node4 -->
<g id="edge3" class="edge">
<title>Node1&#45;&gt;Node4</title>
<path fill="none" stroke="midnightblue" d="M407.82,-102.29C431.26,-112.88 464.86,-127.49 495,-138.5 503.43,-141.58 512.47,-144.6 521.3,-147.4"/>
<polygon fill="midnightblue" stroke="midnightblue" points="409,-98.98 398.44,-98.03 406.1,-105.35 409,-98.98"/>
</g>
<!-- Node7 -->
<g id="node7" class="node">
<title>Node7</title>
<g id="a_node7"><a xlink:href="class_p4_tools_1_1_p4_smith_1_1_generic_1_1_abstract_generic_smith_target.html" target="_top" xlink:title=" ">
<polygon fill="white" stroke="black" points="495,-98.5 495,-128.5 654,-128.5 654,-98.5 495,-98.5"/>
<text text-anchor="start" x="503" y="-116.5" font-family="Helvetica,sans-Serif" font-size="10.00">P4Tools::P4Smith::Generic</text>
<text text-anchor="middle" x="574.5" y="-105.5" font-family="Helvetica,sans-Serif" font-size="10.00">::AbstractGenericSmithTarget</text>
</a>
</g>
</g>
<!-- Node1&#45;&gt;Node7 -->
<g id="edge6" class="edge">
<title>Node1&#45;&gt;Node7</title>
<path fill="none" stroke="midnightblue" d="M462.6,-99.32C473.26,-100.68 484.13,-102.07 494.69,-103.42"/>
<polygon fill="midnightblue" stroke="midnightblue" points="462.83,-95.82 452.47,-98.02 461.94,-102.76 462.83,-95.82"/>
</g>
<!-- Node9 -->
<g id="node9" class="node">
<title>Node9</title>
<g id="a_node9"><a xlink:href="class_p4_tools_1_1_p4_smith_1_1_nic_1_1_abstract_nic_smith_target.html" target="_top" xlink:title=" ">
<polygon fill="white" stroke="black" points="506,-49.5 506,-79.5 643,-79.5 643,-49.5 506,-49.5"/>
<text text-anchor="start" x="514" y="-67.5" font-family="Helvetica,sans-Serif" font-size="10.00">P4Tools::P4Smith::Nic</text>
<text text-anchor="middle" x="574.5" y="-56.5" font-family="Helvetica,sans-Serif" font-size="10.00">::AbstractNicSmithTarget</text>
</a>
</g>
</g>
<!-- Node1&#45;&gt;Node9 -->
<g id="edge8" class="edge">
<title>Node1&#45;&gt;Node9</title>
<path fill="none" stroke="midnightblue" d="M465.77,-77.73C479.22,-76.07 492.92,-74.39 505.85,-72.81"/>
<polygon fill="midnightblue" stroke="midnightblue" points="465.05,-74.29 455.55,-78.98 465.9,-81.24 465.05,-74.29"/>
</g>
<!-- Node11 -->
<g id="node11" class="node">
<title>Node11</title>
<g id="a_node11"><a xlink:href="class_p4_tools_1_1_p4_smith_1_1_tofino_1_1_abstract_tofino_smith_target.html" target="_top" xlink:title=" ">
<polygon fill="white" stroke="black" points="499.5,-0.5 499.5,-30.5 649.5,-30.5 649.5,-0.5 499.5,-0.5"/>
<text text-anchor="start" x="507.5" y="-18.5" font-family="Helvetica,sans-Serif" font-size="10.00">P4Tools::P4Smith::Tofino</text>
<text text-anchor="middle" x="574.5" y="-7.5" font-family="Helvetica,sans-Serif" font-size="10.00">::AbstractTofinoSmithTarget</text>
</a>
</g>
</g>
<!-- Node1&#45;&gt;Node11 -->
<g id="edge10" class="edge">
<title>Node1&#45;&gt;Node11</title>
<path fill="none" stroke="midnightblue" d="M408.71,-74.65C432.11,-64.33 465.28,-50.24 495,-39.5 503.58,-36.4 512.77,-33.35 521.74,-30.52"/>
<polygon fill="midnightblue" stroke="midnightblue" points="407.03,-71.56 399.31,-78.82 409.87,-77.96 407.03,-71.56"/>
</g>
<!-- Node2 -->
<g id="node2" class="node">
<title>Node2</title>
<g id="a_node2"><a xlink:href="class_p4_tools_1_1_compiler_target.html" target="_top" xlink:title="Encapsulates the details of invoking the P4 compiler for a target device and architecture.">
<polygon fill="white" stroke="black" points="125,-79 125,-98 259,-98 259,-79 125,-79"/>
<text text-anchor="middle" x="192" y="-86" font-family="Helvetica,sans-Serif" font-size="10.00">P4Tools::CompilerTarget</text>
</a>
</g>
</g>
<!-- Node2&#45;&gt;Node1 -->
<g id="edge1" class="edge">
<title>Node2&#45;&gt;Node1</title>
<path fill="none" stroke="midnightblue" d="M269.23,-88.5C277.65,-88.5 286.24,-88.5 294.72,-88.5"/>
<polygon fill="midnightblue" stroke="midnightblue" points="269.07,-85 259.07,-88.5 269.07,-92 269.07,-85"/>
</g>
<!-- Node3 -->
<g id="node3" class="node">
<title>Node3</title>
<g id="a_node3"><a xlink:href="class_p4_tools_1_1_target.html" target="_top" xlink:title=" ">
<polygon fill="white" stroke="black" points="0,-79 0,-98 89,-98 89,-79 0,-79"/>
<text text-anchor="middle" x="44.5" y="-86" font-family="Helvetica,sans-Serif" font-size="10.00">P4Tools::Target</text>
</a>
</g>
</g>
<!-- Node3&#45;&gt;Node2 -->
<g id="edge2" class="edge">
<title>Node3&#45;&gt;Node2</title>
<path fill="none" stroke="midnightblue" d="M99.4,-88.5C107.67,-88.5 116.28,-88.5 124.77,-88.5"/>
<polygon fill="midnightblue" stroke="midnightblue" points="99.15,-85 89.15,-88.5 99.15,-92 99.15,-85"/>
</g>
<!-- Node5 -->
<g id="node5" class="node">
<title>Node5</title>
<g id="a_node5"><a xlink:href="class_p4_tools_1_1_p4_smith_1_1_b_mv2_1_1_bmv2_psa_smith_target.html" target="_top" xlink:title=" ">
<polygon fill="white" stroke="black" points="699.5,-196.5 699.5,-226.5 833.5,-226.5 833.5,-196.5 699.5,-196.5"/>
<text text-anchor="start" x="707.5" y="-214.5" font-family="Helvetica,sans-Serif" font-size="10.00">P4Tools::P4Smith::BMv2</text>
<text text-anchor="middle" x="766.5" y="-203.5" font-family="Helvetica,sans-Serif" font-size="10.00">::Bmv2PsaSmithTarget</text>
</a>
</g>
</g>
<!-- Node4&#45;&gt;Node5 -->
<g id="edge4" class="edge">
<title>Node4&#45;&gt;Node5</title>
<path fill="none" stroke="midnightblue" d="M643.55,-180.05C664.41,-185.43 687.17,-191.3 707.31,-196.49"/>
<polygon fill="midnightblue" stroke="midnightblue" points="644.35,-176.64 633.8,-177.53 642.61,-183.42 644.35,-176.64"/>
</g>
<!-- Node6 -->
<g id="node6" class="node">
<title>Node6</title>
<g id="a_node6"><a xlink:href="class_p4_tools_1_1_p4_smith_1_1_b_mv2_1_1_bmv2_v1model_smith_target.html" target="_top" xlink:title=" ">
<polygon fill="white" stroke="black" points="690,-147.5 690,-177.5 843,-177.5 843,-147.5 690,-147.5"/>
<text text-anchor="start" x="698" y="-165.5" font-family="Helvetica,sans-Serif" font-size="10.00">P4Tools::P4Smith::BMv2</text>
<text text-anchor="middle" x="766.5" y="-154.5" font-family="Helvetica,sans-Serif" font-size="10.00">::Bmv2V1modelSmithTarget</text>
</a>
</g>
</g>
<!-- Node4&#45;&gt;Node6 -->
<g id="edge5" class="edge">
<title>Node4&#45;&gt;Node6</title>
<path fill="none" stroke="midnightblue" d="M659.34,-162.5C669.52,-162.5 679.88,-162.5 689.93,-162.5"/>
<polygon fill="midnightblue" stroke="midnightblue" points="659.23,-159 649.23,-162.5 659.23,-166 659.23,-159"/>
</g>
<!-- Node8 -->
<g id="node8" class="node">
<title>Node8</title>
<g id="a_node8"><a xlink:href="class_p4_tools_1_1_p4_smith_1_1_generic_1_1_generic_core_smith_target.html" target="_top" xlink:title=" ">
<polygon fill="white" stroke="black" points="695,-98.5 695,-128.5 838,-128.5 838,-98.5 695,-98.5"/>
<text text-anchor="start" x="703" y="-116.5" font-family="Helvetica,sans-Serif" font-size="10.00">P4Tools::P4Smith::Generic</text>
<text text-anchor="middle" x="766.5" y="-105.5" font-family="Helvetica,sans-Serif" font-size="10.00">::GenericCoreSmithTarget</text>
</a>
</g>
</g>
<!-- Node7&#45;&gt;Node8 -->
<g id="edge7" class="edge">
<title>Node7&#45;&gt;Node8</title>
<path fill="none" stroke="midnightblue" d="M664.33,-113.5C674.55,-113.5 684.87,-113.5 694.81,-113.5"/>
<polygon fill="midnightblue" stroke="midnightblue" points="664.15,-110 654.15,-113.5 664.15,-117 664.15,-110"/>
</g>
<!-- Node10 -->
<g id="node10" class="node">
<title>Node10</title>
<g id="a_node10"><a xlink:href="class_p4_tools_1_1_p4_smith_1_1_nic_1_1_dpdk_pna_smith_target.html" target="_top" xlink:title=" ">
<polygon fill="white" stroke="black" points="704,-49.5 704,-79.5 829,-79.5 829,-49.5 704,-49.5"/>
<text text-anchor="start" x="712" y="-67.5" font-family="Helvetica,sans-Serif" font-size="10.00">P4Tools::P4Smith::Nic</text>
<text text-anchor="middle" x="766.5" y="-56.5" font-family="Helvetica,sans-Serif" font-size="10.00">::DpdkPnaSmithTarget</text>
</a>
</g>
</g>
<!-- Node9&#45;&gt;Node10 -->
<g id="edge9" class="edge">
<title>Node9&#45;&gt;Node10</title>
<path fill="none" stroke="midnightblue" d="M653.39,-64.5C670.22,-64.5 687.79,-64.5 703.9,-64.5"/>
<polygon fill="midnightblue" stroke="midnightblue" points="653.02,-61 643.02,-64.5 653.02,-68 653.02,-61"/>
</g>
<!-- Node12 -->
<g id="node12" class="node">
<title>Node12</title>
<g id="a_node12"><a xlink:href="class_p4_tools_1_1_p4_smith_1_1_tofino_1_1_tofino_tna_smith_target.html" target="_top" xlink:title=" ">
<polygon fill="white" stroke="black" points="699.5,-0.5 699.5,-30.5 833.5,-30.5 833.5,-0.5 699.5,-0.5"/>
<text text-anchor="start" x="707.5" y="-18.5" font-family="Helvetica,sans-Serif" font-size="10.00">P4Tools::P4Smith::Tofino</text>
<text text-anchor="middle" x="766.5" y="-7.5" font-family="Helvetica,sans-Serif" font-size="10.00">::TofinoTnaSmithTarget</text>
</a>
</g>
</g>
<!-- Node11&#45;&gt;Node12 -->
<g id="edge11" class="edge">
<title>Node11&#45;&gt;Node12</title>
<path fill="none" stroke="midnightblue" d="M659.63,-15.5C672.96,-15.5 686.59,-15.5 699.43,-15.5"/>
<polygon fill="midnightblue" stroke="midnightblue" points="659.5,-12 649.5,-15.5 659.5,-19 659.5,-12"/>
</g>
</g>
</svg>
