<?xml version="1.0" encoding="UTF-8" standalone="no"?>
<!DOCTYPE svg PUBLIC "-//W3C//DTD SVG 1.1//EN"
 "http://www.w3.org/Graphics/SVG/1.1/DTD/svg11.dtd">
<!-- Generated by graphviz version 2.43.0 (0)
 -->
<!-- Title: P4::ParseAnnotations Pages: 1 -->
<svg width="500pt" height="116pt"
 viewBox="0.00 0.00 500.00 116.00" xmlns="http://www.w3.org/2000/svg" xmlns:xlink="http://www.w3.org/1999/xlink">
<g id="graph0" class="graph" transform="scale(1 1) rotate(0) translate(4 112)">
<title>P4::ParseAnnotations</title>
<polygon fill="white" stroke="transparent" points="-4,4 -4,-112 496,-112 496,4 -4,4"/>
<!-- Node1 -->
<g id="node1" class="node">
<title>Node1</title>
<g id="a_node1"><a xlink:title=" ">
<polygon fill="#bfbfbf" stroke="black" points="176,-44.5 176,-63.5 295,-63.5 295,-44.5 176,-44.5"/>
<text text-anchor="middle" x="235.5" y="-51.5" font-family="Helvetica,sans-Serif" font-size="10.00">P4::ParseAnnotations</text>
</a>
</g>
</g>
<!-- Node4 -->
<g id="node4" class="node">
<title>Node4</title>
<g id="a_node4"><a xlink:href="class_b_m_v2_1_1_parse_annotations.html" target="_top" xlink:title="Parses BMV2&#45;specific annotations.">
<polygon fill="white" stroke="black" points="343.5,-88.5 343.5,-107.5 479.5,-107.5 479.5,-88.5 343.5,-88.5"/>
<text text-anchor="middle" x="411.5" y="-95.5" font-family="Helvetica,sans-Serif" font-size="10.00">BMV2::ParseAnnotations</text>
</a>
</g>
</g>
<!-- Node1&#45;&gt;Node4 -->
<g id="edge3" class="edge">
<title>Node1&#45;&gt;Node4</title>
<path fill="none" stroke="midnightblue" d="M281.81,-66.22C297.38,-70.36 314.93,-74.96 331,-79 343.52,-82.15 357.19,-85.46 369.6,-88.42"/>
<polygon fill="midnightblue" stroke="midnightblue" points="282.46,-62.78 271.9,-63.58 280.66,-69.54 282.46,-62.78"/>
</g>
<!-- Node5 -->
<g id="node5" class="node">
<title>Node5</title>
<g id="a_node5"><a xlink:href="class_p4_1_1_control_plane_a_p_i_1_1_parse_p4_runtime_annotations.html" target="_top" xlink:title="Parses P4Runtime&#45;specific annotations.">
<polygon fill="white" stroke="black" points="331,-39 331,-69 492,-69 492,-39 331,-39"/>
<text text-anchor="start" x="339" y="-57" font-family="Helvetica,sans-Serif" font-size="10.00">P4::ControlPlaneAPI</text>
<text text-anchor="middle" x="411.5" y="-46" font-family="Helvetica,sans-Serif" font-size="10.00">::ParseP4RuntimeAnnotations</text>
</a>
</g>
</g>
<!-- Node1&#45;&gt;Node5 -->
<g id="edge4" class="edge">
<title>Node1&#45;&gt;Node5</title>
<path fill="none" stroke="midnightblue" d="M305.49,-54C313.86,-54 322.47,-54 330.98,-54"/>
<polygon fill="midnightblue" stroke="midnightblue" points="305.41,-50.5 295.41,-54 305.41,-57.5 305.41,-50.5"/>
</g>
<!-- Node6 -->
<g id="node6" class="node">
<title>Node6</title>
<g id="a_node6"><a xlink:href="class_t_c_1_1_parse_t_c_annotations.html" target="_top" xlink:title=" ">
<polygon fill="white" stroke="black" points="346,-0.5 346,-19.5 477,-19.5 477,-0.5 346,-0.5"/>
<text text-anchor="middle" x="411.5" y="-7.5" font-family="Helvetica,sans-Serif" font-size="10.00">TC::ParseTCAnnotations</text>
</a>
</g>
</g>
<!-- Node1&#45;&gt;Node6 -->
<g id="edge5" class="edge">
<title>Node1&#45;&gt;Node6</title>
<path fill="none" stroke="midnightblue" d="M281.81,-41.78C297.38,-37.64 314.93,-33.04 331,-29 343.52,-25.85 357.19,-22.54 369.6,-19.58"/>
<polygon fill="midnightblue" stroke="midnightblue" points="280.66,-38.46 271.9,-44.42 282.46,-45.22 280.66,-38.46"/>
</g>
<!-- Node2 -->
<g id="node2" class="node">
<title>Node2</title>
<g id="a_node2"><a xlink:href="class_modifier.html" target="_top" xlink:title=" ">
<polygon fill="white" stroke="black" points="84,-44.5 84,-63.5 140,-63.5 140,-44.5 84,-44.5"/>
<text text-anchor="middle" x="112" y="-51.5" font-family="Helvetica,sans-Serif" font-size="10.00">Modifier</text>
</a>
</g>
</g>
<!-- Node2&#45;&gt;Node1 -->
<g id="edge1" class="edge">
<title>Node2&#45;&gt;Node1</title>
<path fill="none" stroke="midnightblue" d="M150.34,-54C158.33,-54 166.95,-54 175.53,-54"/>
<polygon fill="midnightblue" stroke="midnightblue" points="150.27,-50.5 140.27,-54 150.27,-57.5 150.27,-50.5"/>
</g>
<!-- Node3 -->
<g id="node3" class="node">
<title>Node3</title>
<g id="a_node3"><a xlink:href="class_visitor.html" target="_top" xlink:title=" ">
<polygon fill="white" stroke="black" points="0,-44.5 0,-63.5 48,-63.5 48,-44.5 0,-44.5"/>
<text text-anchor="middle" x="24" y="-51.5" font-family="Helvetica,sans-Serif" font-size="10.00">Visitor</text>
</a>
</g>
</g>
<!-- Node3&#45;&gt;Node2 -->
<g id="edge2" class="edge">
<title>Node3&#45;&gt;Node2</title>
<path fill="none" stroke="midnightblue" d="M58.09,-54C66.63,-54 75.73,-54 83.92,-54"/>
<polygon fill="midnightblue" stroke="midnightblue" points="58.05,-50.5 48.05,-54 58.05,-57.5 58.05,-50.5"/>
</g>
</g>
</svg>
