<?xml version="1.0" encoding="UTF-8" standalone="no"?>
<!DOCTYPE svg PUBLIC "-//W3C//DTD SVG 1.1//EN"
 "http://www.w3.org/Graphics/SVG/1.1/DTD/svg11.dtd">
<!-- Generated by graphviz version 2.43.0 (0)
 -->
<!-- Title: P4Tools::P4Testgen::Pna::SharedPnaExprStepper Pages: 1 -->
<svg width="166pt" height="352pt"
 viewBox="0.00 0.00 166.00 352.00" xmlns="http://www.w3.org/2000/svg" xmlns:xlink="http://www.w3.org/1999/xlink">
<g id="graph0" class="graph" transform="scale(1 1) rotate(0) translate(4 348)">
<title>P4Tools::P4Testgen::Pna::SharedPnaExprStepper</title>
<polygon fill="white" stroke="transparent" points="-4,4 -4,-348 162,-348 162,4 -4,4"/>
<!-- Node1 -->
<g id="node1" class="node">
<title>Node1</title>
<g id="a_node1"><a xlink:title=" ">
<polygon fill="#bfbfbf" stroke="black" points="0,-67.5 0,-97.5 158,-97.5 158,-67.5 0,-67.5"/>
<text text-anchor="start" x="8" y="-85.5" font-family="Helvetica,sans-Serif" font-size="10.00">P4Tools::P4Testgen</text>
<text text-anchor="middle" x="79" y="-74.5" font-family="Helvetica,sans-Serif" font-size="10.00">::Pna::SharedPnaExprStepper</text>
</a>
</g>
</g>
<!-- Node6 -->
<g id="node6" class="node">
<title>Node6</title>
<g id="a_node6"><a xlink:href="class_p4_tools_1_1_p4_testgen_1_1_pna_1_1_pna_dpdk_expr_stepper.html" target="_top" xlink:title=" ">
<polygon fill="white" stroke="black" points="4.5,-0.5 4.5,-30.5 153.5,-30.5 153.5,-0.5 4.5,-0.5"/>
<text text-anchor="start" x="12.5" y="-18.5" font-family="Helvetica,sans-Serif" font-size="10.00">P4Tools::P4Testgen</text>
<text text-anchor="middle" x="79" y="-7.5" font-family="Helvetica,sans-Serif" font-size="10.00">::Pna::PnaDpdkExprStepper</text>
</a>
</g>
</g>
<!-- Node1&#45;&gt;Node6 -->
<g id="edge5" class="edge">
<title>Node1&#45;&gt;Node6</title>
<path fill="none" stroke="midnightblue" d="M79,-57.11C79,-48.15 79,-38.32 79,-30.58"/>
<polygon fill="midnightblue" stroke="midnightblue" points="75.5,-57.4 79,-67.4 82.5,-57.4 75.5,-57.4"/>
</g>
<!-- Node2 -->
<g id="node2" class="node">
<title>Node2</title>
<g id="a_node2"><a xlink:href="class_p4_tools_1_1_p4_testgen_1_1_expr_stepper.html" target="_top" xlink:title="Implements small&#45;step operational semantics for expressions.">
<polygon fill="white" stroke="black" points="24.5,-134.5 24.5,-164.5 133.5,-164.5 133.5,-134.5 24.5,-134.5"/>
<text text-anchor="start" x="32.5" y="-152.5" font-family="Helvetica,sans-Serif" font-size="10.00">P4Tools::P4Testgen</text>
<text text-anchor="middle" x="79" y="-141.5" font-family="Helvetica,sans-Serif" font-size="10.00">::ExprStepper</text>
</a>
</g>
</g>
<!-- Node2&#45;&gt;Node1 -->
<g id="edge1" class="edge">
<title>Node2&#45;&gt;Node1</title>
<path fill="none" stroke="midnightblue" d="M79,-124.11C79,-115.15 79,-105.32 79,-97.58"/>
<polygon fill="midnightblue" stroke="midnightblue" points="75.5,-124.4 79,-134.4 82.5,-124.4 75.5,-124.4"/>
</g>
<!-- Node3 -->
<g id="node3" class="node">
<title>Node3</title>
<g id="a_node3"><a xlink:href="class_p4_tools_1_1_p4_testgen_1_1_abstract_stepper.html" target="_top" xlink:title=" ">
<polygon fill="white" stroke="black" points="24.5,-201.5 24.5,-231.5 133.5,-231.5 133.5,-201.5 24.5,-201.5"/>
<text text-anchor="start" x="32.5" y="-219.5" font-family="Helvetica,sans-Serif" font-size="10.00">P4Tools::P4Testgen</text>
<text text-anchor="middle" x="79" y="-208.5" font-family="Helvetica,sans-Serif" font-size="10.00">::AbstractStepper</text>
</a>
</g>
</g>
<!-- Node3&#45;&gt;Node2 -->
<g id="edge2" class="edge">
<title>Node3&#45;&gt;Node2</title>
<path fill="none" stroke="midnightblue" d="M79,-191.11C79,-182.15 79,-172.32 79,-164.58"/>
<polygon fill="midnightblue" stroke="midnightblue" points="75.5,-191.4 79,-201.4 82.5,-191.4 75.5,-191.4"/>
</g>
<!-- Node4 -->
<g id="node4" class="node">
<title>Node4</title>
<g id="a_node4"><a xlink:href="class_inspector.html" target="_top" xlink:title=" ">
<polygon fill="white" stroke="black" points="48,-268.5 48,-287.5 110,-287.5 110,-268.5 48,-268.5"/>
<text text-anchor="middle" x="79" y="-275.5" font-family="Helvetica,sans-Serif" font-size="10.00">Inspector</text>
</a>
</g>
</g>
<!-- Node4&#45;&gt;Node3 -->
<g id="edge3" class="edge">
<title>Node4&#45;&gt;Node3</title>
<path fill="none" stroke="midnightblue" d="M79,-258.23C79,-249.59 79,-239.5 79,-231.52"/>
<polygon fill="midnightblue" stroke="midnightblue" points="75.5,-258.48 79,-268.48 82.5,-258.48 75.5,-258.48"/>
</g>
<!-- Node5 -->
<g id="node5" class="node">
<title>Node5</title>
<g id="a_node5"><a xlink:href="class_visitor.html" target="_top" xlink:title=" ">
<polygon fill="white" stroke="black" points="55,-324.5 55,-343.5 103,-343.5 103,-324.5 55,-324.5"/>
<text text-anchor="middle" x="79" y="-331.5" font-family="Helvetica,sans-Serif" font-size="10.00">Visitor</text>
</a>
</g>
</g>
<!-- Node5&#45;&gt;Node4 -->
<g id="edge4" class="edge">
<title>Node5&#45;&gt;Node4</title>
<path fill="none" stroke="midnightblue" d="M79,-313.8C79,-304.91 79,-294.78 79,-287.75"/>
<polygon fill="midnightblue" stroke="midnightblue" points="75.5,-314.08 79,-324.08 82.5,-314.08 75.5,-314.08"/>
</g>
</g>
</svg>
