<?xml version="1.0" encoding="UTF-8" standalone="no"?>
<!DOCTYPE svg PUBLIC "-//W3C//DTD SVG 1.1//EN"
 "http://www.w3.org/Graphics/SVG/1.1/DTD/svg11.dtd">
<!-- Generated by graphviz version 2.43.0 (0)
 -->
<!-- Title: P4::ParseAnnotations Pages: 1 -->
<svg width="536pt" height="150pt"
 viewBox="0.00 0.00 536.00 150.00" xmlns="http://www.w3.org/2000/svg" xmlns:xlink="http://www.w3.org/1999/xlink">
<g id="graph0" class="graph" transform="scale(1 1) rotate(0) translate(4 146)">
<title>P4::ParseAnnotations</title>
<!-- Node1 -->
<g id="Node000001" class="node">
<title>Node1</title>
<g id="a_Node000001"><a xlink:title=" ">
<polygon fill="#999999" stroke="#666666" points="331,-83 212,-83 212,-64 331,-64 331,-83"/>
<text text-anchor="middle" x="271.5" y="-71" font-family="Helvetica,sans-Serif" font-size="10.00">P4::ParseAnnotations</text>
</a>
</g>
</g>
<!-- Node4 -->
<g id="Node000004" class="node">
<title>Node4</title>
<g id="a_Node000004"><a xlink:href="class_b_f_n_1_1_parse_annotations.html" target="_top" xlink:title=" ">
<polygon fill="white" stroke="#666666" points="511.5,-142 383.5,-142 383.5,-123 511.5,-123 511.5,-142"/>
<text text-anchor="middle" x="447.5" y="-130" font-family="Helvetica,sans-Serif" font-size="10.00">BFN::ParseAnnotations</text>
</a>
</g>
</g>
<!-- Node1&#45;&gt;Node4 -->
<g id="edge3_Node000001_Node000004" class="edge">
<title>Node1&#45;&gt;Node4</title>
<g id="a_edge3_Node000001_Node000004"><a xlink:title=" ">
<path fill="none" stroke="#63b8ff" d="M300.68,-87.38C319.2,-96.08 344.13,-107.02 367,-114.5 376.82,-117.71 387.5,-120.55 397.76,-122.98"/>
<polygon fill="#63b8ff" stroke="#63b8ff" points="302.17,-84.21 291.64,-83.06 299.16,-90.53 302.17,-84.21"/>
</a>
</g>
</g>
<!-- Node5 -->
<g id="Node000005" class="node">
<title>Node5</title>
<g id="a_Node000005"><a xlink:href="class_p4_1_1_b_m_v2_1_1_parse_annotations.html" target="_top" xlink:title="Parses BMV2&#45;specific annotations.">
<polygon fill="white" stroke="#666666" points="524.5,-105 370.5,-105 370.5,-86 524.5,-86 524.5,-105"/>
<text text-anchor="middle" x="447.5" y="-93" font-family="Helvetica,sans-Serif" font-size="10.00">P4::BMV2::ParseAnnotations</text>
</a>
</g>
</g>
<!-- Node1&#45;&gt;Node5 -->
<g id="edge4_Node000001_Node000005" class="edge">
<title>Node1&#45;&gt;Node5</title>
<g id="a_edge4_Node000001_Node000005"><a xlink:title=" ">
<path fill="none" stroke="#63b8ff" d="M341.48,-82.22C351.28,-83.46 361.4,-84.74 371.3,-85.99"/>
<polygon fill="#63b8ff" stroke="#63b8ff" points="341.77,-78.73 331.41,-80.95 340.89,-85.68 341.77,-78.73"/>
</a>
</g>
</g>
<!-- Node6 -->
<g id="Node000006" class="node">
<title>Node6</title>
<g id="a_Node000006"><a xlink:href="class_p4_1_1_control_plane_a_p_i_1_1_parse_p4_runtime_annotations.html" target="_top" xlink:title="Parses P4Runtime&#45;specific annotations.">
<polygon fill="white" stroke="#666666" points="528,-67.5 367,-67.5 367,-37.5 528,-37.5 528,-67.5"/>
<text text-anchor="start" x="375" y="-55.5" font-family="Helvetica,sans-Serif" font-size="10.00">P4::ControlPlaneAPI</text>
<text text-anchor="middle" x="447.5" y="-44.5" font-family="Helvetica,sans-Serif" font-size="10.00">::ParseP4RuntimeAnnotations</text>
</a>
</g>
</g>
<!-- Node1&#45;&gt;Node6 -->
<g id="edge5_Node000001_Node000006" class="edge">
<title>Node1&#45;&gt;Node6</title>
<g id="a_edge5_Node000001_Node000006"><a xlink:title=" ">
<path fill="none" stroke="#63b8ff" d="M341.49,-65.17C349.86,-64.16 358.47,-63.12 366.98,-62.1"/>
<polygon fill="#63b8ff" stroke="#63b8ff" points="340.92,-61.72 331.41,-66.39 341.76,-68.67 340.92,-61.72"/>
</a>
</g>
</g>
<!-- Node7 -->
<g id="Node000007" class="node">
<title>Node7</title>
<g id="a_Node000007"><a xlink:href="class_p4_1_1_t_c_1_1_parse_t_c_annotations.html" target="_top" xlink:title=" ">
<polygon fill="white" stroke="#bfbfbf" points="522,-19 373,-19 373,0 522,0 522,-19"/>
<text text-anchor="middle" x="447.5" y="-7" font-family="Helvetica,sans-Serif" font-size="10.00">P4::TC::ParseTCAnnotations</text>
</a>
</g>
</g>
<!-- Node1&#45;&gt;Node7 -->
<g id="edge6_Node000001_Node000007" class="edge">
<title>Node1&#45;&gt;Node7</title>
<g id="a_edge6_Node000001_Node000007"><a xlink:title=" ">
<path fill="none" stroke="#63b8ff" d="M298.83,-59.12C317.44,-49.42 343.22,-36.9 367,-28.5 377.3,-24.86 388.6,-21.69 399.36,-19.04"/>
<polygon fill="#63b8ff" stroke="#63b8ff" points="297,-56.13 289.8,-63.9 300.27,-62.32 297,-56.13"/>
</a>
</g>
</g>
<!-- Node2 -->
<g id="Node000002" class="node">
<title>Node2</title>
<g id="a_Node000002"><a xlink:href="class_p4_1_1_modifier.html" target="_top" xlink:title=" ">
<polygon fill="white" stroke="#bfbfbf" points="176,-83 102,-83 102,-64 176,-64 176,-83"/>
<text text-anchor="middle" x="139" y="-71" font-family="Helvetica,sans-Serif" font-size="10.00">P4::Modifier</text>
</a>
</g>
</g>
<!-- Node2&#45;&gt;Node1 -->
<g id="edge1_Node000001_Node000002" class="edge">
<title>Node2&#45;&gt;Node1</title>
<g id="a_edge1_Node000001_Node000002"><a xlink:title=" ">
<path fill="none" stroke="#63b8ff" d="M186.14,-73.5C194.37,-73.5 203.04,-73.5 211.56,-73.5"/>
<polygon fill="#63b8ff" stroke="#63b8ff" points="186.01,-70 176.01,-73.5 186.01,-77 186.01,-70"/>
</a>
</g>
</g>
<!-- Node3 -->
<g id="Node000003" class="node">
<title>Node3</title>
<g id="a_Node000003"><a xlink:href="class_p4_1_1_visitor.html" target="_top" xlink:title=" ">
<polygon fill="white" stroke="#bfbfbf" points="66,-83 0,-83 0,-64 66,-64 66,-83"/>
<text text-anchor="middle" x="33" y="-71" font-family="Helvetica,sans-Serif" font-size="10.00">P4::Visitor</text>
</a>
</g>
</g>
<!-- Node3&#45;&gt;Node2 -->
<g id="edge2_Node000002_Node000003" class="edge">
<title>Node3&#45;&gt;Node2</title>
<g id="a_edge2_Node000002_Node000003"><a xlink:title=" ">
<path fill="none" stroke="#63b8ff" d="M76.2,-73.5C84.71,-73.5 93.59,-73.5 101.88,-73.5"/>
<polygon fill="#63b8ff" stroke="#63b8ff" points="76.05,-70 66.05,-73.5 76.05,-77 76.05,-70"/>
</a>
</g>
</g>
</g>
</svg>
