<?xml version="1.0" encoding="UTF-8" standalone="no"?>
<!DOCTYPE svg PUBLIC "-//W3C//DTD SVG 1.1//EN"
 "http://www.w3.org/Graphics/SVG/1.1/DTD/svg11.dtd">
<!-- Generated by graphviz version 2.43.0 (0)
 -->
<!-- Title: BMV2::CFG::Node Pages: 1 -->
<svg width="424pt" height="196pt"
 viewBox="0.00 0.00 424.00 196.00" xmlns="http://www.w3.org/2000/svg" xmlns:xlink="http://www.w3.org/1999/xlink">
<g id="graph0" class="graph" transform="scale(1 1) rotate(0) translate(4 192)">
<title>BMV2::CFG::Node</title>
<polygon fill="white" stroke="transparent" points="-4,4 -4,-192 420,-192 420,4 -4,4"/>
<!-- Node1 -->
<g id="node1" class="node">
<title>Node1</title>
<g id="a_node1"><a xlink:title=" ">
<polygon fill="#bfbfbf" stroke="black" points="163.5,-56.5 163.5,-75.5 266.5,-75.5 266.5,-56.5 163.5,-56.5"/>
<text text-anchor="middle" x="215" y="-63.5" font-family="Helvetica,sans-Serif" font-size="10.00">BMV2::CFG::Node</text>
</a>
</g>
</g>
<!-- Node5 -->
<g id="node5" class="node">
<title>Node5</title>
<g id="a_node5"><a xlink:href="class_b_m_v2_1_1_c_f_g_1_1_dummy_node.html" target="_top" xlink:title=" ">
<polygon fill="white" stroke="black" points="0,-0.5 0,-19.5 142,-19.5 142,-0.5 0,-0.5"/>
<text text-anchor="middle" x="71" y="-7.5" font-family="Helvetica,sans-Serif" font-size="10.00">BMV2::CFG::DummyNode</text>
</a>
</g>
</g>
<!-- Node1&#45;&gt;Node5 -->
<g id="edge4" class="edge">
<title>Node1&#45;&gt;Node5</title>
<path fill="none" stroke="midnightblue" d="M182.75,-52.91C155.68,-42.75 117.68,-28.51 93.71,-19.52"/>
<polygon fill="midnightblue" stroke="midnightblue" points="181.59,-56.21 192.18,-56.44 184.05,-49.66 181.59,-56.21"/>
</g>
<!-- Node6 -->
<g id="node6" class="node">
<title>Node6</title>
<g id="a_node6"><a xlink:href="class_b_m_v2_1_1_c_f_g_1_1_if_node.html" target="_top" xlink:title=" ">
<polygon fill="white" stroke="black" points="160,-0.5 160,-19.5 270,-19.5 270,-0.5 160,-0.5"/>
<text text-anchor="middle" x="215" y="-7.5" font-family="Helvetica,sans-Serif" font-size="10.00">BMV2::CFG::IfNode</text>
</a>
</g>
</g>
<!-- Node1&#45;&gt;Node6 -->
<g id="edge5" class="edge">
<title>Node1&#45;&gt;Node6</title>
<path fill="none" stroke="midnightblue" d="M215,-45.8C215,-36.91 215,-26.78 215,-19.75"/>
<polygon fill="midnightblue" stroke="midnightblue" points="211.5,-46.08 215,-56.08 218.5,-46.08 211.5,-46.08"/>
</g>
<!-- Node7 -->
<g id="node7" class="node">
<title>Node7</title>
<g id="a_node7"><a xlink:href="class_b_m_v2_1_1_c_f_g_1_1_table_node.html" target="_top" xlink:title=" ">
<polygon fill="white" stroke="black" points="288,-0.5 288,-19.5 416,-19.5 416,-0.5 288,-0.5"/>
<text text-anchor="middle" x="352" y="-7.5" font-family="Helvetica,sans-Serif" font-size="10.00">BMV2::CFG::TableNode</text>
</a>
</g>
</g>
<!-- Node1&#45;&gt;Node7 -->
<g id="edge6" class="edge">
<title>Node1&#45;&gt;Node7</title>
<path fill="none" stroke="midnightblue" d="M246.02,-52.77C271.76,-42.63 307.69,-28.47 330.39,-19.52"/>
<polygon fill="midnightblue" stroke="midnightblue" points="244.73,-49.52 236.71,-56.44 247.29,-56.03 244.73,-49.52"/>
</g>
<!-- Node2 -->
<g id="node2" class="node">
<title>Node2</title>
<g id="a_node2"><a xlink:href="class_i_has_db_print.html" target="_top" xlink:title=" ">
<polygon fill="white" stroke="black" points="135,-112.5 135,-131.5 209,-131.5 209,-112.5 135,-112.5"/>
<text text-anchor="middle" x="172" y="-119.5" font-family="Helvetica,sans-Serif" font-size="10.00">IHasDbPrint</text>
</a>
</g>
</g>
<!-- Node2&#45;&gt;Node1 -->
<g id="edge1" class="edge">
<title>Node2&#45;&gt;Node1</title>
<path fill="none" stroke="midnightblue" d="M185.42,-104.14C192.91,-94.74 201.94,-83.4 208.03,-75.75"/>
<polygon fill="midnightblue" stroke="midnightblue" points="182.59,-102.08 179.1,-112.08 188.07,-106.44 182.59,-102.08"/>
</g>
<!-- Node3 -->
<g id="node3" class="node">
<title>Node3</title>
<g id="a_node3"><a xlink:href="class_i_castable.html" target="_top" xlink:title=" ">
<polygon fill="white" stroke="black" points="227,-112.5 227,-131.5 289,-131.5 289,-112.5 227,-112.5"/>
<text text-anchor="middle" x="258" y="-119.5" font-family="Helvetica,sans-Serif" font-size="10.00">ICastable</text>
</a>
</g>
</g>
<!-- Node3&#45;&gt;Node1 -->
<g id="edge2" class="edge">
<title>Node3&#45;&gt;Node1</title>
<path fill="none" stroke="midnightblue" d="M244.58,-104.14C237.09,-94.74 228.06,-83.4 221.97,-75.75"/>
<polygon fill="midnightblue" stroke="midnightblue" points="241.93,-106.44 250.9,-112.08 247.41,-102.08 241.93,-106.44"/>
</g>
<!-- Node4 -->
<g id="node4" class="node">
<title>Node4</title>
<g id="a_node4"><a xlink:href="struct_r_t_t_i_1_1_base.html" target="_top" xlink:title=" ">
<polygon fill="white" stroke="black" points="224,-168.5 224,-187.5 292,-187.5 292,-168.5 224,-168.5"/>
<text text-anchor="middle" x="258" y="-175.5" font-family="Helvetica,sans-Serif" font-size="10.00">RTTI::Base</text>
</a>
</g>
</g>
<!-- Node4&#45;&gt;Node3 -->
<g id="edge3" class="edge">
<title>Node4&#45;&gt;Node3</title>
<path fill="none" stroke="midnightblue" d="M258,-157.8C258,-148.91 258,-138.78 258,-131.75"/>
<polygon fill="midnightblue" stroke="midnightblue" points="254.5,-158.08 258,-168.08 261.5,-158.08 254.5,-158.08"/>
</g>
</g>
</svg>
