<?xml version="1.0" encoding="UTF-8" standalone="no"?>
<!DOCTYPE svg PUBLIC "-//W3C//DTD SVG 1.1//EN"
 "http://www.w3.org/Graphics/SVG/1.1/DTD/svg11.dtd">
<!-- Generated by graphviz version 2.43.0 (0)
 -->
<!-- Title: P4::EBPF::CRCChecksumAlgorithm Pages: 1 -->
<svg width="1037pt" height="101pt"
 viewBox="0.00 0.00 1037.00 101.00" xmlns="http://www.w3.org/2000/svg" xmlns:xlink="http://www.w3.org/1999/xlink">
<g id="graph0" class="graph" transform="scale(1 1) rotate(0) translate(4 97)">
<title>P4::EBPF::CRCChecksumAlgorithm</title>
<!-- Node1 -->
<g id="Node000001" class="node">
<title>Node1</title>
<g id="a_Node000001"><a xlink:title=" ">
<polygon fill="#999999" stroke="#666666" points="797,-56 613,-56 613,-37 797,-37 797,-56"/>
<text text-anchor="middle" x="705" y="-44" font-family="Helvetica,sans-Serif" font-size="10.00">P4::EBPF::CRCChecksumAlgorithm</text>
</a>
</g>
</g>
<!-- Node6 -->
<g id="Node000006" class="node">
<title>Node6</title>
<g id="a_Node000006"><a xlink:href="class_p4_1_1_e_b_p_f_1_1_c_r_c16_checksum_algorithm.html" target="_top" xlink:title=" ">
<polygon fill="white" stroke="#666666" points="1029,-93 833,-93 833,-74 1029,-74 1029,-93"/>
<text text-anchor="middle" x="931" y="-81" font-family="Helvetica,sans-Serif" font-size="10.00">P4::EBPF::CRC16ChecksumAlgorithm</text>
</a>
</g>
</g>
<!-- Node1&#45;&gt;Node6 -->
<g id="edge5_Node000001_Node000006" class="edge">
<title>Node1&#45;&gt;Node6</title>
<g id="a_edge5_Node000001_Node000006"><a xlink:title=" ">
<path fill="none" stroke="#63b8ff" d="M773.67,-57.68C805.08,-62.87 842.03,-68.97 872.12,-73.94"/>
<polygon fill="#63b8ff" stroke="#63b8ff" points="774.12,-54.2 763.69,-56.03 772.98,-61.11 774.12,-54.2"/>
</a>
</g>
</g>
<!-- Node7 -->
<g id="Node000007" class="node">
<title>Node7</title>
<g id="a_Node000007"><a xlink:href="class_p4_1_1_e_b_p_f_1_1_c_r_c32_checksum_algorithm.html" target="_top" xlink:title=" ">
<polygon fill="white" stroke="#666666" points="1029,-56 833,-56 833,-37 1029,-37 1029,-56"/>
<text text-anchor="middle" x="931" y="-44" font-family="Helvetica,sans-Serif" font-size="10.00">P4::EBPF::CRC32ChecksumAlgorithm</text>
</a>
</g>
</g>
<!-- Node1&#45;&gt;Node7 -->
<g id="edge6_Node000001_Node000007" class="edge">
<title>Node1&#45;&gt;Node7</title>
<g id="a_edge6_Node000001_Node000007"><a xlink:title=" ">
<path fill="none" stroke="#63b8ff" d="M807.36,-46.5C815.82,-46.5 824.35,-46.5 832.77,-46.5"/>
<polygon fill="#63b8ff" stroke="#63b8ff" points="807.11,-43 797.11,-46.5 807.11,-50 807.11,-43"/>
</a>
</g>
</g>
<!-- Node8 -->
<g id="Node000008" class="node">
<title>Node8</title>
<g id="a_Node000008"><a xlink:href="class_p4_1_1_t_c_1_1_c_r_c_checksum_algorithm_p_n_a.html" target="_top" xlink:title=" ">
<polygon fill="white" stroke="#bfbfbf" points="1027,-19 835,-19 835,0 1027,0 1027,-19"/>
<text text-anchor="middle" x="931" y="-7" font-family="Helvetica,sans-Serif" font-size="10.00">P4::TC::CRCChecksumAlgorithmPNA</text>
</a>
</g>
</g>
<!-- Node1&#45;&gt;Node8 -->
<g id="edge7_Node000001_Node000008" class="edge">
<title>Node1&#45;&gt;Node8</title>
<g id="a_edge7_Node000001_Node000008"><a xlink:title=" ">
<path fill="none" stroke="#63b8ff" d="M773.67,-35.32C805.08,-30.13 842.03,-24.03 872.12,-19.06"/>
<polygon fill="#63b8ff" stroke="#63b8ff" points="772.98,-31.89 763.69,-36.97 774.12,-38.8 772.98,-31.89"/>
</a>
</g>
</g>
<!-- Node2 -->
<g id="Node000002" class="node">
<title>Node2</title>
<g id="a_Node000002"><a xlink:href="class_p4_1_1_e_b_p_f_1_1_e_b_p_f_hash_algorithm_p_s_a.html" target="_top" xlink:title=" ">
<polygon fill="white" stroke="#bfbfbf" points="577,-56 395,-56 395,-37 577,-37 577,-56"/>
<text text-anchor="middle" x="486" y="-44" font-family="Helvetica,sans-Serif" font-size="10.00">P4::EBPF::EBPFHashAlgorithmPSA</text>
</a>
</g>
</g>
<!-- Node2&#45;&gt;Node1 -->
<g id="edge1_Node000001_Node000002" class="edge">
<title>Node2&#45;&gt;Node1</title>
<g id="a_edge1_Node000001_Node000002"><a xlink:title=" ">
<path fill="none" stroke="#63b8ff" d="M587.4,-46.5C595.85,-46.5 604.37,-46.5 612.74,-46.5"/>
<polygon fill="#63b8ff" stroke="#63b8ff" points="587.14,-43 577.14,-46.5 587.14,-50 587.14,-43"/>
</a>
</g>
</g>
<!-- Node3 -->
<g id="Node000003" class="node">
<title>Node3</title>
<g id="a_Node000003"><a xlink:href="class_p4_1_1_e_b_p_f_1_1_e_b_p_f_object.html" target="_top" xlink:title="Base class for EBPF objects.">
<polygon fill="white" stroke="#666666" points="359,-56 238,-56 238,-37 359,-37 359,-56"/>
<text text-anchor="middle" x="298.5" y="-44" font-family="Helvetica,sans-Serif" font-size="10.00">P4::EBPF::EBPFObject</text>
</a>
</g>
</g>
<!-- Node3&#45;&gt;Node2 -->
<g id="edge2_Node000002_Node000003" class="edge">
<title>Node3&#45;&gt;Node2</title>
<g id="a_edge2_Node000002_Node000003"><a xlink:title=" ">
<path fill="none" stroke="#63b8ff" d="M369.49,-46.5C377.72,-46.5 386.21,-46.5 394.67,-46.5"/>
<polygon fill="#63b8ff" stroke="#63b8ff" points="369.21,-43 359.21,-46.5 369.21,-50 369.21,-43"/>
</a>
</g>
</g>
<!-- Node4 -->
<g id="Node000004" class="node">
<title>Node4</title>
<g id="a_Node000004"><a xlink:href="class_p4_1_1_i_castable.html" target="_top" xlink:title=" ">
<polygon fill="white" stroke="#666666" points="202,-56 122,-56 122,-37 202,-37 202,-56"/>
<text text-anchor="middle" x="162" y="-44" font-family="Helvetica,sans-Serif" font-size="10.00">P4::ICastable</text>
</a>
</g>
</g>
<!-- Node4&#45;&gt;Node3 -->
<g id="edge3_Node000003_Node000004" class="edge">
<title>Node4&#45;&gt;Node3</title>
<g id="a_edge3_Node000003_Node000004"><a xlink:title=" ">
<path fill="none" stroke="#63b8ff" d="M212.5,-46.5C220.77,-46.5 229.44,-46.5 237.93,-46.5"/>
<polygon fill="#63b8ff" stroke="#63b8ff" points="212.26,-43 202.26,-46.5 212.26,-50 212.26,-43"/>
</a>
</g>
</g>
<!-- Node5 -->
<g id="Node000005" class="node">
<title>Node5</title>
<g id="a_Node000005"><a xlink:href="struct_p4_1_1_r_t_t_i_1_1_base.html" target="_top" xlink:title=" ">
<polygon fill="white" stroke="#bfbfbf" points="86,-56 0,-56 0,-37 86,-37 86,-56"/>
<text text-anchor="middle" x="43" y="-44" font-family="Helvetica,sans-Serif" font-size="10.00">P4::RTTI::Base</text>
</a>
</g>
</g>
<!-- Node5&#45;&gt;Node4 -->
<g id="edge4_Node000004_Node000005" class="edge">
<title>Node5&#45;&gt;Node4</title>
<g id="a_edge4_Node000004_Node000005"><a xlink:title=" ">
<path fill="none" stroke="#63b8ff" d="M96.25,-46.5C104.88,-46.5 113.7,-46.5 121.94,-46.5"/>
<polygon fill="#63b8ff" stroke="#63b8ff" points="96.24,-43 86.24,-46.5 96.24,-50 96.24,-43"/>
</a>
</g>
</g>
</g>
</svg>
