<?xml version="1.0" encoding="UTF-8" standalone="no"?>
<!DOCTYPE svg PUBLIC "-//W3C//DTD SVG 1.1//EN"
 "http://www.w3.org/Graphics/SVG/1.1/DTD/svg11.dtd">
<!-- Generated by graphviz version 2.43.0 (0)
 -->
<!-- Title: TC::ActionTranslationVisitorPNA Pages: 1 -->
<svg width="352pt" height="308pt"
 viewBox="0.00 0.00 351.50 308.00" xmlns="http://www.w3.org/2000/svg" xmlns:xlink="http://www.w3.org/1999/xlink">
<g id="graph0" class="graph" transform="scale(1 1) rotate(0) translate(4 304)">
<title>TC::ActionTranslationVisitorPNA</title>
<polygon fill="white" stroke="transparent" points="-4,4 -4,-304 347.5,-304 347.5,4 -4,4"/>
<!-- Node1 -->
<g id="node1" class="node">
<title>Node1</title>
<g id="a_node1"><a xlink:title=" ">
<polygon fill="#bfbfbf" stroke="black" points="86,-0.5 86,-19.5 256,-19.5 256,-0.5 86,-0.5"/>
<text text-anchor="middle" x="171" y="-7.5" font-family="Helvetica,sans-Serif" font-size="10.00">TC::ActionTranslationVisitorPNA</text>
</a>
</g>
</g>
<!-- Node2 -->
<g id="node2" class="node">
<title>Node2</title>
<g id="a_node2"><a xlink:href="class_e_b_p_f_1_1_action_translation_visitor.html" target="_top" xlink:title=" ">
<polygon fill="white" stroke="black" points="0,-56.5 0,-75.5 162,-75.5 162,-56.5 0,-56.5"/>
<text text-anchor="middle" x="81" y="-63.5" font-family="Helvetica,sans-Serif" font-size="10.00">EBPF::ActionTranslationVisitor</text>
</a>
</g>
</g>
<!-- Node2&#45;&gt;Node1 -->
<g id="edge1" class="edge">
<title>Node2&#45;&gt;Node1</title>
<path fill="none" stroke="midnightblue" d="M104.04,-51.18C120.6,-41.24 142.42,-28.15 156.58,-19.65"/>
<polygon fill="midnightblue" stroke="midnightblue" points="102.23,-48.18 95.46,-56.32 105.84,-54.18 102.23,-48.18"/>
</g>
<!-- Node3 -->
<g id="node3" class="node">
<title>Node3</title>
<g id="a_node3"><a xlink:href="class_e_b_p_f_1_1_code_gen_inspector.html" target="_top" xlink:title=" ">
<polygon fill="white" stroke="black" points="103,-168.5 103,-187.5 239,-187.5 239,-168.5 103,-168.5"/>
<text text-anchor="middle" x="171" y="-175.5" font-family="Helvetica,sans-Serif" font-size="10.00">EBPF::CodeGenInspector</text>
</a>
</g>
</g>
<!-- Node3&#45;&gt;Node2 -->
<g id="edge2" class="edge">
<title>Node3&#45;&gt;Node2</title>
<path fill="none" stroke="midnightblue" d="M157.57,-160.59C138.17,-136.87 102.98,-93.87 88.03,-75.59"/>
<polygon fill="midnightblue" stroke="midnightblue" points="154.9,-162.85 163.94,-168.37 160.31,-158.41 154.9,-162.85"/>
</g>
<!-- Node7 -->
<g id="node7" class="node">
<title>Node7</title>
<g id="a_node7"><a xlink:href="class_e_b_p_f_1_1_control_body_translator.html" target="_top" xlink:title=" ">
<polygon fill="white" stroke="black" points="165.5,-112.5 165.5,-131.5 320.5,-131.5 320.5,-112.5 165.5,-112.5"/>
<text text-anchor="middle" x="243" y="-119.5" font-family="Helvetica,sans-Serif" font-size="10.00">EBPF::ControlBodyTranslator</text>
</a>
</g>
</g>
<!-- Node3&#45;&gt;Node7 -->
<g id="edge7" class="edge">
<title>Node3&#45;&gt;Node7</title>
<path fill="none" stroke="midnightblue" d="M190.87,-162.1C203.82,-152.38 220.3,-140.03 231.22,-131.83"/>
<polygon fill="midnightblue" stroke="midnightblue" points="188.47,-159.52 182.57,-168.32 192.67,-165.12 188.47,-159.52"/>
</g>
<!-- Node4 -->
<g id="node4" class="node">
<title>Node4</title>
<g id="a_node4"><a xlink:href="class_inspector.html" target="_top" xlink:title=" ">
<polygon fill="white" stroke="black" points="140,-224.5 140,-243.5 202,-243.5 202,-224.5 140,-224.5"/>
<text text-anchor="middle" x="171" y="-231.5" font-family="Helvetica,sans-Serif" font-size="10.00">Inspector</text>
</a>
</g>
</g>
<!-- Node4&#45;&gt;Node3 -->
<g id="edge3" class="edge">
<title>Node4&#45;&gt;Node3</title>
<path fill="none" stroke="midnightblue" d="M171,-213.8C171,-204.91 171,-194.78 171,-187.75"/>
<polygon fill="midnightblue" stroke="midnightblue" points="167.5,-214.08 171,-224.08 174.5,-214.08 167.5,-214.08"/>
</g>
<!-- Node5 -->
<g id="node5" class="node">
<title>Node5</title>
<g id="a_node5"><a xlink:href="class_visitor.html" target="_top" xlink:title=" ">
<polygon fill="white" stroke="black" points="147,-280.5 147,-299.5 195,-299.5 195,-280.5 147,-280.5"/>
<text text-anchor="middle" x="171" y="-287.5" font-family="Helvetica,sans-Serif" font-size="10.00">Visitor</text>
</a>
</g>
</g>
<!-- Node5&#45;&gt;Node4 -->
<g id="edge4" class="edge">
<title>Node5&#45;&gt;Node4</title>
<path fill="none" stroke="midnightblue" d="M171,-269.8C171,-260.91 171,-250.78 171,-243.75"/>
<polygon fill="midnightblue" stroke="midnightblue" points="167.5,-270.08 171,-280.08 174.5,-270.08 167.5,-270.08"/>
</g>
<!-- Node6 -->
<g id="node6" class="node">
<title>Node6</title>
<g id="a_node6"><a xlink:href="class_t_c_1_1_control_body_translator_p_n_a.html" target="_top" xlink:title=" ">
<polygon fill="white" stroke="black" points="180.5,-56.5 180.5,-75.5 343.5,-75.5 343.5,-56.5 180.5,-56.5"/>
<text text-anchor="middle" x="262" y="-63.5" font-family="Helvetica,sans-Serif" font-size="10.00">TC::ControlBodyTranslatorPNA</text>
</a>
</g>
</g>
<!-- Node6&#45;&gt;Node1 -->
<g id="edge5" class="edge">
<title>Node6&#45;&gt;Node1</title>
<path fill="none" stroke="midnightblue" d="M238.71,-51.18C221.96,-41.24 199.9,-28.15 185.58,-19.65"/>
<polygon fill="midnightblue" stroke="midnightblue" points="236.99,-54.23 247.38,-56.32 240.57,-48.21 236.99,-54.23"/>
</g>
<!-- Node7&#45;&gt;Node6 -->
<g id="edge6" class="edge">
<title>Node7&#45;&gt;Node6</title>
<path fill="none" stroke="midnightblue" d="M249.55,-102.4C252.72,-93.36 256.39,-82.94 258.92,-75.75"/>
<polygon fill="midnightblue" stroke="midnightblue" points="246.15,-101.49 246.14,-112.08 252.76,-103.81 246.15,-101.49"/>
</g>
</g>
</svg>
