<?xml version="1.0" encoding="UTF-8" standalone="no"?>
<!DOCTYPE svg PUBLIC "-//W3C//DTD SVG 1.1//EN"
 "http://www.w3.org/Graphics/SVG/1.1/DTD/svg11.dtd">
<!-- Generated by graphviz version 2.43.0 (0)
 -->
<!-- Title: P4::Util::IHasSourceInfo Pages: 1 -->
<svg width="983pt" height="1026pt"
 viewBox="0.00 0.00 983.00 1025.50" xmlns="http://www.w3.org/2000/svg" xmlns:xlink="http://www.w3.org/1999/xlink">
<g id="graph0" class="graph" transform="scale(1 1) rotate(0) translate(4 1021.5)">
<title>P4::Util::IHasSourceInfo</title>
<!-- Node1 -->
<g id="Node000001" class="node">
<title>Node1</title>
<g id="a_Node000001"><a xlink:title=" ">
<polygon fill="#999999" stroke="#666666" points="131,-570 0,-570 0,-551 131,-551 131,-570"/>
<text text-anchor="middle" x="65.5" y="-558" font-family="Helvetica,sans-Serif" font-size="10.00">P4::Util::IHasSourceInfo</text>
</a>
</g>
</g>
<!-- Node2 -->
<g id="Node000002" class="node">
<title>Node2</title>
<g id="a_Node000002"><a xlink:href="struct_p4_1_1_i_r_1_1_i_d.html" target="_top" xlink:title=" ">
<polygon fill="white" stroke="#bfbfbf" points="250.5,-607 189.5,-607 189.5,-588 250.5,-588 250.5,-607"/>
<text text-anchor="middle" x="220" y="-595" font-family="Helvetica,sans-Serif" font-size="10.00">P4::IR::ID</text>
</a>
</g>
</g>
<!-- Node1&#45;&gt;Node2 -->
<g id="edge1_Node000001_Node000002" class="edge">
<title>Node1&#45;&gt;Node2</title>
<g id="a_edge1_Node000001_Node000002"><a xlink:title=" ">
<path fill="none" stroke="#63b8ff" d="M115.57,-572.4C139.93,-578.31 168.54,-585.26 189.49,-590.34"/>
<polygon fill="#63b8ff" stroke="#63b8ff" points="116.32,-568.98 105.77,-570.03 114.67,-575.79 116.32,-568.98"/>
</a>
</g>
</g>
<!-- Node3 -->
<g id="Node000003" class="node">
<title>Node3</title>
<g id="a_Node000003"><a xlink:href="class_p4_1_1_i_r_1_1_i_node.html" target="_top" xlink:title=" ">
<polygon fill="white" stroke="#bfbfbf" points="259.5,-570 180.5,-570 180.5,-551 259.5,-551 259.5,-570"/>
<text text-anchor="middle" x="220" y="-558" font-family="Helvetica,sans-Serif" font-size="10.00">P4::IR::INode</text>
</a>
</g>
</g>
<!-- Node1&#45;&gt;Node3 -->
<g id="edge2_Node000001_Node000003" class="edge">
<title>Node1&#45;&gt;Node3</title>
<g id="a_edge2_Node000001_Node000003"><a xlink:title=" ">
<path fill="none" stroke="#63b8ff" d="M141.43,-560.5C154.89,-560.5 168.41,-560.5 180.31,-560.5"/>
<polygon fill="#63b8ff" stroke="#63b8ff" points="141.17,-557 131.17,-560.5 141.17,-564 141.17,-557"/>
</a>
</g>
</g>
<!-- Node45 -->
<g id="Node000045" class="node">
<title>Node45</title>
<g id="a_Node000045"><a xlink:href="class_p4_1_1_util_1_1_comment.html" target="_top" xlink:title=" ">
<polygon fill="white" stroke="#bfbfbf" points="273,-533 167,-533 167,-514 273,-514 273,-533"/>
<text text-anchor="middle" x="220" y="-521" font-family="Helvetica,sans-Serif" font-size="10.00">P4::Util::Comment</text>
</a>
</g>
</g>
<!-- Node1&#45;&gt;Node45 -->
<g id="edge44_Node000001_Node000045" class="edge">
<title>Node1&#45;&gt;Node45</title>
<g id="a_edge44_Node000001_Node000045"><a xlink:title=" ">
<path fill="none" stroke="#8b1a1a" d="M115.65,-548.57C136.34,-543.56 160.09,-537.79 179.6,-533.06"/>
<polygon fill="#8b1a1a" stroke="#8b1a1a" points="114.67,-545.21 105.77,-550.97 116.32,-552.02 114.67,-545.21"/>
</a>
</g>
</g>
<!-- Node4 -->
<g id="Node000004" class="node">
<title>Node4</title>
<g id="a_Node000004"><a xlink:href="class_p4_1_1_i_r_1_1_i_declaration.html" target="_top" xlink:title="The Declaration interface, representing objects with names.">
<polygon fill="white" stroke="#666666" points="419,-588 309,-588 309,-569 419,-569 419,-588"/>
<text text-anchor="middle" x="364" y="-576" font-family="Helvetica,sans-Serif" font-size="10.00">P4::IR::IDeclaration</text>
</a>
</g>
</g>
<!-- Node3&#45;&gt;Node4 -->
<g id="edge3_Node000003_Node000004" class="edge">
<title>Node3&#45;&gt;Node4</title>
<g id="a_edge3_Node000003_Node000004"><a xlink:title=" ">
<path fill="none" stroke="#63b8ff" d="M270.03,-566.72C282.54,-568.3 296.06,-570.01 308.81,-571.63"/>
<polygon fill="#63b8ff" stroke="#63b8ff" points="270.16,-563.2 259.8,-565.42 269.28,-570.15 270.16,-563.2"/>
</a>
</g>
</g>
<!-- Node5 -->
<g id="Node000005" class="node">
<title>Node5</title>
<g id="a_Node000005"><a xlink:href="class_p4_1_1_i_r_1_1_node.html" target="_top" xlink:title=" ">
<polygon fill="white" stroke="#bfbfbf" points="402,-551 326,-551 326,-532 402,-532 402,-551"/>
<text text-anchor="middle" x="364" y="-539" font-family="Helvetica,sans-Serif" font-size="10.00">P4::IR::Node</text>
</a>
</g>
</g>
<!-- Node3&#45;&gt;Node5 -->
<g id="edge4_Node000003_Node000005" class="edge">
<title>Node3&#45;&gt;Node5</title>
<g id="a_edge4_Node000003_Node000005"><a xlink:title=" ">
<path fill="none" stroke="#63b8ff" d="M269.72,-553.98C288.05,-551.53 308.59,-548.78 325.71,-546.49"/>
<polygon fill="#63b8ff" stroke="#63b8ff" points="269.25,-550.51 259.8,-555.31 270.18,-557.45 269.25,-550.51"/>
</a>
</g>
</g>
<!-- Node6 -->
<g id="Node000006" class="node">
<title>Node6</title>
<g id="a_Node000006"><a xlink:href="class_p4_1_1_i_r_1_1_name_map.html" target="_top" xlink:title=" ">
<polygon fill="white" stroke="#bfbfbf" points="599,-604.5 474,-604.5 474,-574.5 599,-574.5 599,-604.5"/>
<text text-anchor="start" x="482" y="-592.5" font-family="Helvetica,sans-Serif" font-size="10.00">P4::IR::NameMap&lt; T,</text>
<text text-anchor="middle" x="536.5" y="-581.5" font-family="Helvetica,sans-Serif" font-size="10.00"> MAP, COMP, ALLOC &gt;</text>
</a>
</g>
</g>
<!-- Node5&#45;&gt;Node6 -->
<g id="edge5_Node000005_Node000006" class="edge">
<title>Node5&#45;&gt;Node6</title>
<g id="a_edge5_Node000005_Node000006"><a xlink:title=" ">
<path fill="none" stroke="#63b8ff" d="M408.95,-553.87C431.24,-560.15 458.5,-567.82 481.99,-574.44"/>
<polygon fill="#63b8ff" stroke="#63b8ff" points="409.67,-550.44 399.09,-551.1 407.77,-557.18 409.67,-550.44"/>
</a>
</g>
</g>
<!-- Node7 -->
<g id="Node000007" class="node">
<title>Node7</title>
<g id="a_Node000007"><a xlink:href="class_p4_1_1_i_r_1_1_node_map.html" target="_top" xlink:title=" ">
<polygon fill="white" stroke="#bfbfbf" points="618,-556.5 455,-556.5 455,-526.5 618,-526.5 618,-556.5"/>
<text text-anchor="start" x="463" y="-544.5" font-family="Helvetica,sans-Serif" font-size="10.00">P4::IR::NodeMap&lt; KEY,</text>
<text text-anchor="middle" x="536.5" y="-533.5" font-family="Helvetica,sans-Serif" font-size="10.00"> VALUE, MAP, COMP, ALLOC &gt;</text>
</a>
</g>
</g>
<!-- Node5&#45;&gt;Node7 -->
<g id="edge6_Node000005_Node000007" class="edge">
<title>Node5&#45;&gt;Node7</title>
<g id="a_edge6_Node000005_Node000007"><a xlink:title=" ">
<path fill="none" stroke="#63b8ff" d="M412.6,-541.5C425.74,-541.5 440.37,-541.5 454.83,-541.5"/>
<polygon fill="#63b8ff" stroke="#63b8ff" points="412.42,-538 402.42,-541.5 412.42,-545 412.42,-538"/>
</a>
</g>
</g>
<!-- Node8 -->
<g id="Node000008" class="node">
<title>Node8</title>
<g id="a_Node000008"><a xlink:href="class_p4_1_1_i_r_1_1_vector_base.html" target="_top" xlink:title=" ">
<polygon fill="white" stroke="#bfbfbf" points="589,-508 484,-508 484,-489 589,-489 589,-508"/>
<text text-anchor="middle" x="536.5" y="-496" font-family="Helvetica,sans-Serif" font-size="10.00">P4::IR::VectorBase</text>
</a>
</g>
</g>
<!-- Node5&#45;&gt;Node8 -->
<g id="edge7_Node000005_Node000008" class="edge">
<title>Node5&#45;&gt;Node8</title>
<g id="a_edge7_Node000005_Node000008"><a xlink:title=" ">
<path fill="none" stroke="#63b8ff" d="M409.68,-529.31C424.12,-525.45 440.22,-521.21 455,-517.5 467.67,-514.32 481.51,-510.99 494.08,-508.04"/>
<polygon fill="#63b8ff" stroke="#63b8ff" points="408.74,-525.94 399.99,-531.92 410.55,-532.7 408.74,-525.94"/>
</a>
</g>
</g>
<!-- Node9 -->
<g id="Node000009" class="node">
<title>Node9</title>
<g id="a_Node000009"><a xlink:href="class_p4_1_1_i_r_1_1_vector.html" target="_top" xlink:title=" ">
<polygon fill="white" stroke="#bfbfbf" points="771,-1017.5 669,-1017.5 669,-987.5 771,-987.5 771,-1017.5"/>
<text text-anchor="start" x="677" y="-1005.5" font-family="Helvetica,sans-Serif" font-size="10.00">P4::IR::Vector&lt; IR</text>
<text text-anchor="middle" x="720" y="-994.5" font-family="Helvetica,sans-Serif" font-size="10.00">::BFN::Pipe &gt;</text>
</a>
</g>
</g>
<!-- Node8&#45;&gt;Node9 -->
<g id="edge8_Node000008_Node000009" class="edge">
<title>Node8&#45;&gt;Node9</title>
<g id="a_edge8_Node000008_Node000009"><a xlink:title=" ">
<path fill="none" stroke="#63b8ff" d="M598.73,-504.06C606.08,-507.12 612.81,-511.44 618,-517.5 684.86,-595.53 592.02,-896.54 654,-978.5 657.92,-983.68 663.08,-987.74 668.78,-990.93"/>
<polygon fill="#63b8ff" stroke="#63b8ff" points="599.74,-500.71 589.15,-500.83 597.51,-507.35 599.74,-500.71"/>
</a>
</g>
</g>
<!-- Node10 -->
<g id="Node000010" class="node">
<title>Node10</title>
<g id="a_Node000010"><a xlink:href="class_p4_1_1_i_r_1_1_vector.html" target="_top" xlink:title=" ">
<polygon fill="white" stroke="#bfbfbf" points="781,-969.5 659,-969.5 659,-939.5 781,-939.5 781,-969.5"/>
<text text-anchor="start" x="667" y="-957.5" font-family="Helvetica,sans-Serif" font-size="10.00">P4::IR::Vector&lt; IR</text>
<text text-anchor="middle" x="720" y="-946.5" font-family="Helvetica,sans-Serif" font-size="10.00">::NamedExpression &gt;</text>
</a>
</g>
</g>
<!-- Node8&#45;&gt;Node10 -->
<g id="edge9_Node000008_Node000010" class="edge">
<title>Node8&#45;&gt;Node10</title>
<g id="a_edge9_Node000008_Node000010"><a xlink:title=" ">
<path fill="none" stroke="#63b8ff" d="M598.68,-504.11C606.04,-507.16 612.78,-511.47 618,-517.5 678.26,-587.19 598.1,-857.27 654,-930.5 656.63,-933.94 659.8,-936.89 663.32,-939.42"/>
<polygon fill="#63b8ff" stroke="#63b8ff" points="599.69,-500.75 589.09,-500.88 597.45,-507.39 599.69,-500.75"/>
</a>
</g>
</g>
<!-- Node12 -->
<g id="Node000012" class="node">
<title>Node12</title>
<g id="a_Node000012"><a xlink:href="class_p4_1_1_i_r_1_1_vector.html" target="_top" xlink:title=" ">
<polygon fill="white" stroke="#bfbfbf" points="771,-921.5 669,-921.5 669,-891.5 771,-891.5 771,-921.5"/>
<text text-anchor="start" x="677" y="-909.5" font-family="Helvetica,sans-Serif" font-size="10.00">P4::IR::Vector&lt; IR</text>
<text text-anchor="middle" x="720" y="-898.5" font-family="Helvetica,sans-Serif" font-size="10.00">::Expression &gt;</text>
</a>
</g>
</g>
<!-- Node8&#45;&gt;Node12 -->
<g id="edge11_Node000008_Node000012" class="edge">
<title>Node8&#45;&gt;Node12</title>
<g id="a_edge11_Node000008_Node000012"><a xlink:title=" ">
<path fill="none" stroke="#63b8ff" d="M598.62,-504.16C605.99,-507.2 612.75,-511.5 618,-517.5 671.66,-578.85 604.18,-818 654,-882.5 657.97,-887.64 663.16,-891.68 668.87,-894.86"/>
<polygon fill="#63b8ff" stroke="#63b8ff" points="599.62,-500.81 589.02,-500.94 597.39,-507.44 599.62,-500.81"/>
</a>
</g>
</g>
<!-- Node13 -->
<g id="Node000013" class="node">
<title>Node13</title>
<g id="a_Node000013"><a xlink:href="class_p4_1_1_i_r_1_1_vector.html" target="_top" xlink:title=" ">
<polygon fill="white" stroke="#bfbfbf" points="772,-873.5 668,-873.5 668,-843.5 772,-843.5 772,-873.5"/>
<text text-anchor="start" x="676" y="-861.5" font-family="Helvetica,sans-Serif" font-size="10.00">P4::IR::Vector&lt; P4</text>
<text text-anchor="middle" x="720" y="-850.5" font-family="Helvetica,sans-Serif" font-size="10.00">::IR::Node &gt;</text>
</a>
</g>
</g>
<!-- Node8&#45;&gt;Node13 -->
<g id="edge12_Node000008_Node000013" class="edge">
<title>Node8&#45;&gt;Node13</title>
<g id="a_edge12_Node000008_Node000013"><a xlink:title=" ">
<path fill="none" stroke="#63b8ff" d="M599.3,-504.55C606.38,-507.56 612.89,-511.74 618,-517.5 712.14,-623.53 566.49,-722.93 654,-834.5 657.79,-839.33 662.64,-843.18 667.99,-846.26"/>
<polygon fill="#63b8ff" stroke="#63b8ff" points="599.94,-501.07 589.35,-501.14 597.67,-507.69 599.94,-501.07"/>
</a>
</g>
</g>
<!-- Node15 -->
<g id="Node000015" class="node">
<title>Node15</title>
<g id="a_Node000015"><a xlink:href="class_p4_1_1_i_r_1_1_vector.html" target="_top" xlink:title=" ">
<polygon fill="white" stroke="#bfbfbf" points="771,-825.5 669,-825.5 669,-795.5 771,-795.5 771,-825.5"/>
<text text-anchor="start" x="677" y="-813.5" font-family="Helvetica,sans-Serif" font-size="10.00">P4::IR::Vector&lt; IR</text>
<text text-anchor="middle" x="720" y="-802.5" font-family="Helvetica,sans-Serif" font-size="10.00">::StructField &gt;</text>
</a>
</g>
</g>
<!-- Node8&#45;&gt;Node15 -->
<g id="edge14_Node000008_Node000015" class="edge">
<title>Node8&#45;&gt;Node15</title>
<g id="a_edge14_Node000008_Node000015"><a xlink:title=" ">
<path fill="none" stroke="#63b8ff" d="M598.71,-504.45C606,-507.46 612.71,-511.66 618,-517.5 698.98,-606.9 578.62,-692.33 654,-786.5 657.98,-791.48 663.11,-795.42 668.72,-798.55"/>
<polygon fill="#63b8ff" stroke="#63b8ff" points="599.82,-501.13 589.23,-501.24 597.58,-507.76 599.82,-501.13"/>
</a>
</g>
</g>
<!-- Node17 -->
<g id="Node000017" class="node">
<title>Node17</title>
<g id="a_Node000017"><a xlink:href="class_p4_1_1_i_r_1_1_vector.html" target="_top" xlink:title=" ">
<polygon fill="white" stroke="#bfbfbf" points="771,-777.5 669,-777.5 669,-747.5 771,-747.5 771,-777.5"/>
<text text-anchor="start" x="677" y="-765.5" font-family="Helvetica,sans-Serif" font-size="10.00">P4::IR::Vector&lt; IR</text>
<text text-anchor="middle" x="720" y="-754.5" font-family="Helvetica,sans-Serif" font-size="10.00">::MAU::Table &gt;</text>
</a>
</g>
</g>
<!-- Node8&#45;&gt;Node17 -->
<g id="edge16_Node000008_Node000017" class="edge">
<title>Node8&#45;&gt;Node17</title>
<g id="a_edge16_Node000008_Node000017"><a xlink:title=" ">
<path fill="none" stroke="#63b8ff" d="M598.55,-504.59C605.87,-507.57 612.63,-511.74 618,-517.5 685.85,-590.3 590.71,-661.7 654,-738.5 658.05,-743.42 663.22,-747.33 668.85,-750.44"/>
<polygon fill="#63b8ff" stroke="#63b8ff" points="599.65,-501.26 589.06,-501.4 597.42,-507.9 599.65,-501.26"/>
</a>
</g>
</g>
<!-- Node18 -->
<g id="Node000018" class="node">
<title>Node18</title>
<g id="a_Node000018"><a xlink:href="class_p4_1_1_i_r_1_1_vector.html" target="_top" xlink:title=" ">
<polygon fill="white" stroke="#bfbfbf" points="771,-729.5 669,-729.5 669,-699.5 771,-699.5 771,-729.5"/>
<text text-anchor="start" x="677" y="-717.5" font-family="Helvetica,sans-Serif" font-size="10.00">P4::IR::Vector&lt; IR</text>
<text text-anchor="middle" x="720" y="-706.5" font-family="Helvetica,sans-Serif" font-size="10.00">::Type &gt;</text>
</a>
</g>
</g>
<!-- Node8&#45;&gt;Node18 -->
<g id="edge17_Node000008_Node000018" class="edge">
<title>Node8&#45;&gt;Node18</title>
<g id="a_edge17_Node000008_Node000018"><a xlink:title=" ">
<path fill="none" stroke="#63b8ff" d="M599.09,-505.12C606.14,-508.05 612.7,-512.05 618,-517.5 672.79,-573.77 602.74,-631 654,-690.5 658.08,-695.24 663.19,-699.04 668.73,-702.1"/>
<polygon fill="#63b8ff" stroke="#63b8ff" points="599.81,-501.67 589.22,-501.76 597.56,-508.29 599.81,-501.67"/>
</a>
</g>
</g>
<!-- Node19 -->
<g id="Node000019" class="node">
<title>Node19</title>
<g id="a_Node000019"><a xlink:href="class_p4_1_1_i_r_1_1_vector.html" target="_top" xlink:title=" ">
<polygon fill="white" stroke="#bfbfbf" points="771,-681.5 669,-681.5 669,-651.5 771,-651.5 771,-681.5"/>
<text text-anchor="start" x="677" y="-669.5" font-family="Helvetica,sans-Serif" font-size="10.00">P4::IR::Vector&lt; IR</text>
<text text-anchor="middle" x="720" y="-658.5" font-family="Helvetica,sans-Serif" font-size="10.00">::Argument &gt;</text>
</a>
</g>
</g>
<!-- Node8&#45;&gt;Node19 -->
<g id="edge18_Node000008_Node000019" class="edge">
<title>Node8&#45;&gt;Node19</title>
<g id="a_edge18_Node000008_Node000019"><a xlink:title=" ">
<path fill="none" stroke="#63b8ff" d="M598.98,-505.61C606,-508.47 612.57,-512.33 618,-517.5 659.86,-557.37 614.64,-600.15 654,-642.5 658.18,-646.99 663.27,-650.65 668.75,-653.62"/>
<polygon fill="#63b8ff" stroke="#63b8ff" points="599.8,-502.2 589.21,-502.31 597.56,-508.83 599.8,-502.2"/>
</a>
</g>
</g>
<!-- Node20 -->
<g id="Node000020" class="node">
<title>Node20</title>
<g id="a_Node000020"><a xlink:href="class_p4_1_1_i_r_1_1_vector.html" target="_top" xlink:title=" ">
<polygon fill="white" stroke="#bfbfbf" points="771,-633.5 669,-633.5 669,-603.5 771,-603.5 771,-633.5"/>
<text text-anchor="start" x="677" y="-621.5" font-family="Helvetica,sans-Serif" font-size="10.00">P4::IR::Vector&lt; IR</text>
<text text-anchor="middle" x="720" y="-610.5" font-family="Helvetica,sans-Serif" font-size="10.00">::Declaration &gt;</text>
</a>
</g>
</g>
<!-- Node8&#45;&gt;Node20 -->
<g id="edge19_Node000008_Node000020" class="edge">
<title>Node8&#45;&gt;Node20</title>
<g id="a_edge19_Node000008_Node000020"><a xlink:title=" ">
<path fill="none" stroke="#63b8ff" d="M598.81,-506.67C605.74,-509.36 612.33,-512.89 618,-517.5 647.31,-541.33 626.19,-568.93 654,-594.5 658.34,-598.49 663.4,-601.83 668.74,-604.63"/>
<polygon fill="#63b8ff" stroke="#63b8ff" points="599.8,-503.31 589.21,-503.49 597.6,-509.96 599.8,-503.31"/>
</a>
</g>
</g>
<!-- Node22 -->
<g id="Node000022" class="node">
<title>Node22</title>
<g id="a_Node000022"><a xlink:href="class_p4_1_1_i_r_1_1_vector.html" target="_top" xlink:title=" ">
<polygon fill="white" stroke="#bfbfbf" points="771,-585.5 669,-585.5 669,-555.5 771,-555.5 771,-585.5"/>
<text text-anchor="start" x="677" y="-573.5" font-family="Helvetica,sans-Serif" font-size="10.00">P4::IR::Vector&lt; IR</text>
<text text-anchor="middle" x="720" y="-562.5" font-family="Helvetica,sans-Serif" font-size="10.00">::StatOrDecl &gt;</text>
</a>
</g>
</g>
<!-- Node8&#45;&gt;Node22 -->
<g id="edge21_Node000008_Node000022" class="edge">
<title>Node8&#45;&gt;Node22</title>
<g id="a_edge21_Node000008_Node000022"><a xlink:title=" ">
<path fill="none" stroke="#63b8ff" d="M599.01,-509.97C605.57,-512.09 612.02,-514.57 618,-517.5 636.46,-526.53 636.13,-536.36 654,-546.5 659.76,-549.76 666.04,-552.73 672.36,-555.38"/>
<polygon fill="#63b8ff" stroke="#63b8ff" points="599.94,-506.6 589.36,-507.13 597.97,-513.31 599.94,-506.6"/>
</a>
</g>
</g>
<!-- Node24 -->
<g id="Node000024" class="node">
<title>Node24</title>
<g id="a_Node000024"><a xlink:href="class_p4_1_1_i_r_1_1_vector.html" target="_top" xlink:title=" ">
<polygon fill="white" stroke="#bfbfbf" points="786,-537.5 654,-537.5 654,-507.5 786,-507.5 786,-537.5"/>
<text text-anchor="start" x="662" y="-525.5" font-family="Helvetica,sans-Serif" font-size="10.00">P4::IR::Vector&lt; IR</text>
<text text-anchor="middle" x="720" y="-514.5" font-family="Helvetica,sans-Serif" font-size="10.00">::DpdkAsmStatement &gt;</text>
</a>
</g>
</g>
<!-- Node8&#45;&gt;Node24 -->
<g id="edge23_Node000008_Node000024" class="edge">
<title>Node8&#45;&gt;Node24</title>
<g id="a_edge23_Node000008_Node000024"><a xlink:title=" ">
<path fill="none" stroke="#63b8ff" d="M599.16,-506.65C616.74,-508.98 635.95,-511.52 653.73,-513.87"/>
<polygon fill="#63b8ff" stroke="#63b8ff" points="599.4,-503.15 589.03,-505.31 598.48,-510.09 599.4,-503.15"/>
</a>
</g>
</g>
<!-- Node26 -->
<g id="Node000026" class="node">
<title>Node26</title>
<g id="a_Node000026"><a xlink:href="class_p4_1_1_i_r_1_1_vector.html" target="_top" xlink:title=" ">
<polygon fill="white" stroke="#bfbfbf" points="771,-489.5 669,-489.5 669,-459.5 771,-459.5 771,-489.5"/>
<text text-anchor="start" x="677" y="-477.5" font-family="Helvetica,sans-Serif" font-size="10.00">P4::IR::Vector&lt; IR</text>
<text text-anchor="middle" x="720" y="-466.5" font-family="Helvetica,sans-Serif" font-size="10.00">::DpdkTable &gt;</text>
</a>
</g>
</g>
<!-- Node8&#45;&gt;Node26 -->
<g id="edge25_Node000008_Node000026" class="edge">
<title>Node8&#45;&gt;Node26</title>
<g id="a_edge25_Node000008_Node000026"><a xlink:title=" ">
<path fill="none" stroke="#63b8ff" d="M599.24,-490.34C621.95,-487.33 647.36,-483.97 668.91,-481.12"/>
<polygon fill="#63b8ff" stroke="#63b8ff" points="598.48,-486.91 589.03,-491.69 599.4,-493.85 598.48,-486.91"/>
</a>
</g>
</g>
<!-- Node28 -->
<g id="Node000028" class="node">
<title>Node28</title>
<g id="a_Node000028"><a xlink:href="class_p4_1_1_i_r_1_1_vector.html" target="_top" xlink:title=" ">
<polygon fill="white" stroke="#bfbfbf" points="771,-441.5 669,-441.5 669,-411.5 771,-411.5 771,-441.5"/>
<text text-anchor="start" x="677" y="-429.5" font-family="Helvetica,sans-Serif" font-size="10.00">P4::IR::Vector&lt; IR</text>
<text text-anchor="middle" x="720" y="-418.5" font-family="Helvetica,sans-Serif" font-size="10.00">::DpdkSelector &gt;</text>
</a>
</g>
</g>
<!-- Node8&#45;&gt;Node28 -->
<g id="edge27_Node000008_Node000028" class="edge">
<title>Node8&#45;&gt;Node28</title>
<g id="a_edge27_Node000008_Node000028"><a xlink:title=" ">
<path fill="none" stroke="#63b8ff" d="M569.57,-484.91C592.9,-475.12 625.29,-461.71 654,-450.5 661.62,-447.52 669.78,-444.44 677.65,-441.51"/>
<polygon fill="#63b8ff" stroke="#63b8ff" points="568.03,-481.76 560.17,-488.87 570.74,-488.21 568.03,-481.76"/>
</a>
</g>
</g>
<!-- Node30 -->
<g id="Node000030" class="node">
<title>Node30</title>
<g id="a_Node000030"><a xlink:href="class_p4_1_1_i_r_1_1_vector.html" target="_top" xlink:title=" ">
<polygon fill="white" stroke="#bfbfbf" points="771,-393.5 669,-393.5 669,-363.5 771,-363.5 771,-393.5"/>
<text text-anchor="start" x="677" y="-381.5" font-family="Helvetica,sans-Serif" font-size="10.00">P4::IR::Vector&lt; IR</text>
<text text-anchor="middle" x="720" y="-370.5" font-family="Helvetica,sans-Serif" font-size="10.00">::DpdkLearner &gt;</text>
</a>
</g>
</g>
<!-- Node8&#45;&gt;Node30 -->
<g id="edge29_Node000008_Node000030" class="edge">
<title>Node8&#45;&gt;Node30</title>
<g id="a_edge29_Node000008_Node000030"><a xlink:title=" ">
<path fill="none" stroke="#63b8ff" d="M554.26,-481.54C575.75,-460.58 614.91,-424.96 654,-402.5 659.74,-399.2 666.01,-396.22 672.32,-393.56"/>
<polygon fill="#63b8ff" stroke="#63b8ff" points="551.58,-479.27 546.93,-488.79 556.5,-484.25 551.58,-479.27"/>
</a>
</g>
</g>
<!-- Node32 -->
<g id="Node000032" class="node">
<title>Node32</title>
<g id="a_Node000032"><a xlink:href="class_p4_1_1_i_r_1_1_vector.html" target="_top" xlink:title=" ">
<polygon fill="white" stroke="#bfbfbf" points="771,-345.5 669,-345.5 669,-315.5 771,-315.5 771,-345.5"/>
<text text-anchor="start" x="677" y="-333.5" font-family="Helvetica,sans-Serif" font-size="10.00">P4::IR::Vector&lt; IR</text>
<text text-anchor="middle" x="720" y="-322.5" font-family="Helvetica,sans-Serif" font-size="10.00">::DpdkAction &gt;</text>
</a>
</g>
</g>
<!-- Node8&#45;&gt;Node32 -->
<g id="edge31_Node000008_Node000032" class="edge">
<title>Node8&#45;&gt;Node32</title>
<g id="a_edge31_Node000008_Node000032"><a xlink:title=" ">
<path fill="none" stroke="#63b8ff" d="M547.74,-480.29C565.59,-450.09 605.19,-389.5 654,-354.5 658.69,-351.13 663.91,-348.19 669.29,-345.62"/>
<polygon fill="#63b8ff" stroke="#63b8ff" points="544.7,-478.55 542.73,-488.96 550.76,-482.05 544.7,-478.55"/>
</a>
</g>
</g>
<!-- Node34 -->
<g id="Node000034" class="node">
<title>Node34</title>
<g id="a_Node000034"><a xlink:href="class_p4_1_1_i_r_1_1_vector.html" target="_top" xlink:title=" ">
<polygon fill="white" stroke="#bfbfbf" points="771,-297.5 669,-297.5 669,-267.5 771,-267.5 771,-297.5"/>
<text text-anchor="start" x="677" y="-285.5" font-family="Helvetica,sans-Serif" font-size="10.00">P4::IR::Vector&lt; IR</text>
<text text-anchor="middle" x="720" y="-274.5" font-family="Helvetica,sans-Serif" font-size="10.00">::Parameter &gt;</text>
</a>
</g>
</g>
<!-- Node8&#45;&gt;Node34 -->
<g id="edge33_Node000008_Node000034" class="edge">
<title>Node8&#45;&gt;Node34</title>
<g id="a_edge33_Node000008_Node000034"><a xlink:title=" ">
<path fill="none" stroke="#63b8ff" d="M544.25,-479.1C558.54,-440.75 595.41,-354.81 654,-306.5 658.45,-302.83 663.52,-299.69 668.82,-297.01"/>
<polygon fill="#63b8ff" stroke="#63b8ff" points="540.79,-478.38 540.68,-488.98 547.37,-480.76 540.79,-478.38"/>
</a>
</g>
</g>
<!-- Node36 -->
<g id="Node000036" class="node">
<title>Node36</title>
<g id="a_Node000036"><a xlink:href="class_p4_1_1_i_r_1_1_vector.html" target="_top" xlink:title=" ">
<polygon fill="white" stroke="#bfbfbf" points="778,-249.5 662,-249.5 662,-219.5 778,-219.5 778,-249.5"/>
<text text-anchor="start" x="670" y="-237.5" font-family="Helvetica,sans-Serif" font-size="10.00">P4::IR::Vector&lt; IR</text>
<text text-anchor="middle" x="720" y="-226.5" font-family="Helvetica,sans-Serif" font-size="10.00">::DpdkDeclaration &gt;</text>
</a>
</g>
</g>
<!-- Node8&#45;&gt;Node36 -->
<g id="edge35_Node000008_Node000036" class="edge">
<title>Node8&#45;&gt;Node36</title>
<g id="a_edge35_Node000008_Node000036"><a xlink:title=" ">
<path fill="none" stroke="#63b8ff" d="M541.77,-478.66C552.55,-433.28 585.03,-321.01 654,-258.5 657.74,-255.11 662.01,-252.18 666.52,-249.66"/>
<polygon fill="#63b8ff" stroke="#63b8ff" points="538.3,-478.16 539.49,-488.69 545.12,-479.71 538.3,-478.16"/>
</a>
</g>
</g>
<!-- Node38 -->
<g id="Node000038" class="node">
<title>Node38</title>
<g id="a_Node000038"><a xlink:href="class_p4_1_1_i_r_1_1_vector.html" target="_top" xlink:title=" ">
<polygon fill="white" stroke="#bfbfbf" points="771,-201.5 669,-201.5 669,-171.5 771,-171.5 771,-201.5"/>
<text text-anchor="start" x="677" y="-189.5" font-family="Helvetica,sans-Serif" font-size="10.00">P4::IR::Vector&lt; IR</text>
<text text-anchor="middle" x="720" y="-178.5" font-family="Helvetica,sans-Serif" font-size="10.00">::ParserState &gt;</text>
</a>
</g>
</g>
<!-- Node8&#45;&gt;Node38 -->
<g id="edge37_Node000008_Node000038" class="edge">
<title>Node8&#45;&gt;Node38</title>
<g id="a_edge37_Node000008_Node000038"><a xlink:title=" ">
<path fill="none" stroke="#63b8ff" d="M539.98,-478.63C547.43,-427.1 574.27,-287.82 654,-210.5 658.32,-206.31 663.43,-202.85 668.86,-199.98"/>
<polygon fill="#63b8ff" stroke="#63b8ff" points="536.48,-478.37 538.6,-488.75 543.42,-479.31 536.48,-478.37"/>
</a>
</g>
</g>
<!-- Node40 -->
<g id="Node000040" class="node">
<title>Node40</title>
<g id="a_Node000040"><a xlink:href="class_p4_1_1_i_r_1_1_vector.html" target="_top" xlink:title=" ">
<polygon fill="white" stroke="#bfbfbf" points="771,-153.5 669,-153.5 669,-123.5 771,-123.5 771,-153.5"/>
<text text-anchor="start" x="677" y="-141.5" font-family="Helvetica,sans-Serif" font-size="10.00">P4::IR::Vector&lt; IR</text>
<text text-anchor="middle" x="720" y="-130.5" font-family="Helvetica,sans-Serif" font-size="10.00">::SelectCase &gt;</text>
</a>
</g>
</g>
<!-- Node8&#45;&gt;Node40 -->
<g id="edge39_Node000008_Node000040" class="edge">
<title>Node8&#45;&gt;Node40</title>
<g id="a_edge39_Node000008_Node000040"><a xlink:title=" ">
<path fill="none" stroke="#63b8ff" d="M538.64,-478.85C542.98,-421.92 563.23,-255.1 654,-162.5 658.29,-158.12 663.46,-154.53 668.97,-151.59"/>
<polygon fill="#63b8ff" stroke="#63b8ff" points="535.14,-478.77 537.95,-488.99 542.12,-479.25 535.14,-478.77"/>
</a>
</g>
</g>
<!-- Node41 -->
<g id="Node000041" class="node">
<title>Node41</title>
<g id="a_Node000041"><a xlink:href="class_p4_1_1_i_r_1_1_vector.html" target="_top" xlink:title=" ">
<polygon fill="white" stroke="#bfbfbf" points="775.5,-105 664.5,-105 664.5,-86 775.5,-86 775.5,-105"/>
<text text-anchor="middle" x="720" y="-93" font-family="Helvetica,sans-Serif" font-size="10.00">P4::IR::Vector&lt; N &gt;</text>
</a>
</g>
</g>
<!-- Node8&#45;&gt;Node41 -->
<g id="edge40_Node000008_Node000041" class="edge">
<title>Node8&#45;&gt;Node41</title>
<g id="a_edge40_Node000008_Node000041"><a xlink:title=" ">
<path fill="none" stroke="#63b8ff" d="M537.33,-478.68C537.9,-415.83 548.43,-219.01 654,-114.5 657.93,-110.61 662.6,-107.51 667.62,-105.04"/>
<polygon fill="#63b8ff" stroke="#63b8ff" points="533.83,-478.8 537.32,-488.8 540.83,-478.8 533.83,-478.8"/>
</a>
</g>
</g>
<!-- Node42 -->
<g id="Node000042" class="node">
<title>Node42</title>
<g id="a_Node000042"><a xlink:href="class_p4_1_1_i_r_1_1_vector.html" target="_top" xlink:title=" ">
<polygon fill="white" stroke="#bfbfbf" points="771,-67.5 669,-67.5 669,-37.5 771,-37.5 771,-67.5"/>
<text text-anchor="start" x="677" y="-55.5" font-family="Helvetica,sans-Serif" font-size="10.00">P4::IR::Vector&lt; IR</text>
<text text-anchor="middle" x="720" y="-44.5" font-family="Helvetica,sans-Serif" font-size="10.00">::Annotation &gt;</text>
</a>
</g>
</g>
<!-- Node8&#45;&gt;Node42 -->
<g id="edge41_Node000008_Node000042" class="edge">
<title>Node8&#45;&gt;Node42</title>
<g id="a_edge41_Node000008_Node000042"><a xlink:title=" ">
<path fill="none" stroke="#63b8ff" d="M537.08,-478.5C536.76,-412.36 544.64,-198.04 654,-77.5 658.14,-72.93 663.22,-69.19 668.68,-66.13"/>
<polygon fill="#63b8ff" stroke="#63b8ff" points="533.58,-478.8 537.2,-488.76 540.58,-478.72 533.58,-478.8"/>
</a>
</g>
</g>
<!-- Node43 -->
<g id="Node000043" class="node">
<title>Node43</title>
<g id="a_Node000043"><a xlink:href="class_p4_1_1_i_r_1_1_vector.html" target="_top" xlink:title=" ">
<polygon fill="white" stroke="#bfbfbf" points="775,-19 665,-19 665,0 775,0 775,-19"/>
<text text-anchor="middle" x="720" y="-7" font-family="Helvetica,sans-Serif" font-size="10.00">P4::IR::Vector&lt; T &gt;</text>
</a>
</g>
</g>
<!-- Node8&#45;&gt;Node43 -->
<g id="edge42_Node000008_Node000043" class="edge">
<title>Node8&#45;&gt;Node43</title>
<g id="a_edge42_Node000008_Node000043"><a xlink:title=" ">
<path fill="none" stroke="#63b8ff" d="M539.81,-478.44C549.55,-397.44 589.65,-95.57 654,-28.5 657.74,-24.6 662.24,-21.48 667.1,-19"/>
<polygon fill="#63b8ff" stroke="#63b8ff" points="536.3,-478.4 538.6,-488.74 543.25,-479.22 536.3,-478.4"/>
</a>
</g>
</g>
<!-- Node11 -->
<g id="Node000011" class="node">
<title>Node11</title>
<g id="a_Node000011"><a xlink:href="class_p4_1_1_i_r_1_1_indexed_vector.html" target="_top" xlink:title=" ">
<polygon fill="white" stroke="#666666" points="970,-969.5 827,-969.5 827,-939.5 970,-939.5 970,-969.5"/>
<text text-anchor="start" x="835" y="-957.5" font-family="Helvetica,sans-Serif" font-size="10.00">P4::IR::IndexedVector</text>
<text text-anchor="middle" x="898.5" y="-946.5" font-family="Helvetica,sans-Serif" font-size="10.00">&lt; IR::NamedExpression &gt;</text>
</a>
</g>
</g>
<!-- Node10&#45;&gt;Node11 -->
<g id="edge10_Node000010_Node000011" class="edge">
<title>Node10&#45;&gt;Node11</title>
<g id="a_edge10_Node000010_Node000011"><a xlink:title=" ">
<path fill="none" stroke="#63b8ff" d="M791.38,-954.5C803.07,-954.5 815.19,-954.5 826.88,-954.5"/>
<polygon fill="#63b8ff" stroke="#63b8ff" points="791.25,-951 781.25,-954.5 791.25,-958 791.25,-951"/>
</a>
</g>
</g>
<!-- Node14 -->
<g id="Node000014" class="node">
<title>Node14</title>
<g id="a_Node000014"><a xlink:href="class_p4_1_1_i_r_1_1_indexed_vector.html" target="_top" xlink:title=" ">
<polygon fill="white" stroke="#666666" points="958,-873.5 839,-873.5 839,-843.5 958,-843.5 958,-873.5"/>
<text text-anchor="start" x="847" y="-861.5" font-family="Helvetica,sans-Serif" font-size="10.00">P4::IR::IndexedVector</text>
<text text-anchor="middle" x="898.5" y="-850.5" font-family="Helvetica,sans-Serif" font-size="10.00">&lt; P4::IR::Node &gt;</text>
</a>
</g>
</g>
<!-- Node13&#45;&gt;Node14 -->
<g id="edge13_Node000013_Node000014" class="edge">
<title>Node13&#45;&gt;Node14</title>
<g id="a_edge13_Node000013_Node000014"><a xlink:title=" ">
<path fill="none" stroke="#63b8ff" d="M782.06,-858.5C800.44,-858.5 820.57,-858.5 838.79,-858.5"/>
<polygon fill="#63b8ff" stroke="#63b8ff" points="782.05,-855 772.05,-858.5 782.05,-862 782.05,-855"/>
</a>
</g>
</g>
<!-- Node16 -->
<g id="Node000016" class="node">
<title>Node16</title>
<g id="a_Node000016"><a xlink:href="class_p4_1_1_i_r_1_1_indexed_vector.html" target="_top" xlink:title=" ">
<polygon fill="white" stroke="#666666" points="958,-825.5 839,-825.5 839,-795.5 958,-795.5 958,-825.5"/>
<text text-anchor="start" x="847" y="-813.5" font-family="Helvetica,sans-Serif" font-size="10.00">P4::IR::IndexedVector</text>
<text text-anchor="middle" x="898.5" y="-802.5" font-family="Helvetica,sans-Serif" font-size="10.00">&lt; IR::StructField &gt;</text>
</a>
</g>
</g>
<!-- Node15&#45;&gt;Node16 -->
<g id="edge15_Node000015_Node000016" class="edge">
<title>Node15&#45;&gt;Node16</title>
<g id="a_edge15_Node000015_Node000016"><a xlink:title=" ">
<path fill="none" stroke="#63b8ff" d="M781.23,-810.5C799.85,-810.5 820.33,-810.5 838.84,-810.5"/>
<polygon fill="#63b8ff" stroke="#63b8ff" points="781.11,-807 771.11,-810.5 781.11,-814 781.11,-807"/>
</a>
</g>
</g>
<!-- Node21 -->
<g id="Node000021" class="node">
<title>Node21</title>
<g id="a_Node000021"><a xlink:href="class_p4_1_1_i_r_1_1_indexed_vector.html" target="_top" xlink:title=" ">
<polygon fill="white" stroke="#666666" points="958,-633.5 839,-633.5 839,-603.5 958,-603.5 958,-633.5"/>
<text text-anchor="start" x="847" y="-621.5" font-family="Helvetica,sans-Serif" font-size="10.00">P4::IR::IndexedVector</text>
<text text-anchor="middle" x="898.5" y="-610.5" font-family="Helvetica,sans-Serif" font-size="10.00">&lt; IR::Declaration &gt;</text>
</a>
</g>
</g>
<!-- Node20&#45;&gt;Node21 -->
<g id="edge20_Node000020_Node000021" class="edge">
<title>Node20&#45;&gt;Node21</title>
<g id="a_edge20_Node000020_Node000021"><a xlink:title=" ">
<path fill="none" stroke="#63b8ff" d="M781.23,-618.5C799.85,-618.5 820.33,-618.5 838.84,-618.5"/>
<polygon fill="#63b8ff" stroke="#63b8ff" points="781.11,-615 771.11,-618.5 781.11,-622 781.11,-615"/>
</a>
</g>
</g>
<!-- Node23 -->
<g id="Node000023" class="node">
<title>Node23</title>
<g id="a_Node000023"><a xlink:href="class_p4_1_1_i_r_1_1_indexed_vector.html" target="_top" xlink:title=" ">
<polygon fill="white" stroke="#666666" points="958,-585.5 839,-585.5 839,-555.5 958,-555.5 958,-585.5"/>
<text text-anchor="start" x="847" y="-573.5" font-family="Helvetica,sans-Serif" font-size="10.00">P4::IR::IndexedVector</text>
<text text-anchor="middle" x="898.5" y="-562.5" font-family="Helvetica,sans-Serif" font-size="10.00">&lt; IR::StatOrDecl &gt;</text>
</a>
</g>
</g>
<!-- Node22&#45;&gt;Node23 -->
<g id="edge22_Node000022_Node000023" class="edge">
<title>Node22&#45;&gt;Node23</title>
<g id="a_edge22_Node000022_Node000023"><a xlink:title=" ">
<path fill="none" stroke="#63b8ff" d="M781.23,-570.5C799.85,-570.5 820.33,-570.5 838.84,-570.5"/>
<polygon fill="#63b8ff" stroke="#63b8ff" points="781.11,-567 771.11,-570.5 781.11,-574 781.11,-567"/>
</a>
</g>
</g>
<!-- Node25 -->
<g id="Node000025" class="node">
<title>Node25</title>
<g id="a_Node000025"><a xlink:href="class_p4_1_1_i_r_1_1_indexed_vector.html" target="_top" xlink:title=" ">
<polygon fill="white" stroke="#666666" points="975,-537.5 822,-537.5 822,-507.5 975,-507.5 975,-537.5"/>
<text text-anchor="start" x="830" y="-525.5" font-family="Helvetica,sans-Serif" font-size="10.00">P4::IR::IndexedVector</text>
<text text-anchor="middle" x="898.5" y="-514.5" font-family="Helvetica,sans-Serif" font-size="10.00">&lt; IR::DpdkAsmStatement &gt;</text>
</a>
</g>
</g>
<!-- Node24&#45;&gt;Node25 -->
<g id="edge24_Node000024_Node000025" class="edge">
<title>Node24&#45;&gt;Node25</title>
<g id="a_edge24_Node000024_Node000025"><a xlink:title=" ">
<path fill="none" stroke="#63b8ff" d="M796.39,-522.5C804.81,-522.5 813.39,-522.5 821.81,-522.5"/>
<polygon fill="#63b8ff" stroke="#63b8ff" points="796.22,-519 786.22,-522.5 796.22,-526 796.22,-519"/>
</a>
</g>
</g>
<!-- Node27 -->
<g id="Node000027" class="node">
<title>Node27</title>
<g id="a_Node000027"><a xlink:href="class_p4_1_1_i_r_1_1_indexed_vector.html" target="_top" xlink:title=" ">
<polygon fill="white" stroke="#666666" points="958,-489.5 839,-489.5 839,-459.5 958,-459.5 958,-489.5"/>
<text text-anchor="start" x="847" y="-477.5" font-family="Helvetica,sans-Serif" font-size="10.00">P4::IR::IndexedVector</text>
<text text-anchor="middle" x="898.5" y="-466.5" font-family="Helvetica,sans-Serif" font-size="10.00">&lt; IR::DpdkTable &gt;</text>
</a>
</g>
</g>
<!-- Node26&#45;&gt;Node27 -->
<g id="edge26_Node000026_Node000027" class="edge">
<title>Node26&#45;&gt;Node27</title>
<g id="a_edge26_Node000026_Node000027"><a xlink:title=" ">
<path fill="none" stroke="#63b8ff" d="M781.23,-474.5C799.85,-474.5 820.33,-474.5 838.84,-474.5"/>
<polygon fill="#63b8ff" stroke="#63b8ff" points="781.11,-471 771.11,-474.5 781.11,-478 781.11,-471"/>
</a>
</g>
</g>
<!-- Node29 -->
<g id="Node000029" class="node">
<title>Node29</title>
<g id="a_Node000029"><a xlink:href="class_p4_1_1_i_r_1_1_indexed_vector.html" target="_top" xlink:title=" ">
<polygon fill="white" stroke="#666666" points="958.5,-441.5 838.5,-441.5 838.5,-411.5 958.5,-411.5 958.5,-441.5"/>
<text text-anchor="start" x="846.5" y="-429.5" font-family="Helvetica,sans-Serif" font-size="10.00">P4::IR::IndexedVector</text>
<text text-anchor="middle" x="898.5" y="-418.5" font-family="Helvetica,sans-Serif" font-size="10.00">&lt; IR::DpdkSelector &gt;</text>
</a>
</g>
</g>
<!-- Node28&#45;&gt;Node29 -->
<g id="edge28_Node000028_Node000029" class="edge">
<title>Node28&#45;&gt;Node29</title>
<g id="a_edge28_Node000028_Node000029"><a xlink:title=" ">
<path fill="none" stroke="#63b8ff" d="M781.13,-426.5C799.57,-426.5 819.83,-426.5 838.2,-426.5"/>
<polygon fill="#63b8ff" stroke="#63b8ff" points="781.11,-423 771.11,-426.5 781.11,-430 781.11,-423"/>
</a>
</g>
</g>
<!-- Node31 -->
<g id="Node000031" class="node">
<title>Node31</title>
<g id="a_Node000031"><a xlink:href="class_p4_1_1_i_r_1_1_indexed_vector.html" target="_top" xlink:title=" ">
<polygon fill="white" stroke="#666666" points="958,-393.5 839,-393.5 839,-363.5 958,-363.5 958,-393.5"/>
<text text-anchor="start" x="847" y="-381.5" font-family="Helvetica,sans-Serif" font-size="10.00">P4::IR::IndexedVector</text>
<text text-anchor="middle" x="898.5" y="-370.5" font-family="Helvetica,sans-Serif" font-size="10.00">&lt; IR::DpdkLearner &gt;</text>
</a>
</g>
</g>
<!-- Node30&#45;&gt;Node31 -->
<g id="edge30_Node000030_Node000031" class="edge">
<title>Node30&#45;&gt;Node31</title>
<g id="a_edge30_Node000030_Node000031"><a xlink:title=" ">
<path fill="none" stroke="#63b8ff" d="M781.23,-378.5C799.85,-378.5 820.33,-378.5 838.84,-378.5"/>
<polygon fill="#63b8ff" stroke="#63b8ff" points="781.11,-375 771.11,-378.5 781.11,-382 781.11,-375"/>
</a>
</g>
</g>
<!-- Node33 -->
<g id="Node000033" class="node">
<title>Node33</title>
<g id="a_Node000033"><a xlink:href="class_p4_1_1_i_r_1_1_indexed_vector.html" target="_top" xlink:title=" ">
<polygon fill="white" stroke="#666666" points="958,-345.5 839,-345.5 839,-315.5 958,-315.5 958,-345.5"/>
<text text-anchor="start" x="847" y="-333.5" font-family="Helvetica,sans-Serif" font-size="10.00">P4::IR::IndexedVector</text>
<text text-anchor="middle" x="898.5" y="-322.5" font-family="Helvetica,sans-Serif" font-size="10.00">&lt; IR::DpdkAction &gt;</text>
</a>
</g>
</g>
<!-- Node32&#45;&gt;Node33 -->
<g id="edge32_Node000032_Node000033" class="edge">
<title>Node32&#45;&gt;Node33</title>
<g id="a_edge32_Node000032_Node000033"><a xlink:title=" ">
<path fill="none" stroke="#63b8ff" d="M781.23,-330.5C799.85,-330.5 820.33,-330.5 838.84,-330.5"/>
<polygon fill="#63b8ff" stroke="#63b8ff" points="781.11,-327 771.11,-330.5 781.11,-334 781.11,-327"/>
</a>
</g>
</g>
<!-- Node35 -->
<g id="Node000035" class="node">
<title>Node35</title>
<g id="a_Node000035"><a xlink:href="class_p4_1_1_i_r_1_1_indexed_vector.html" target="_top" xlink:title=" ">
<polygon fill="white" stroke="#666666" points="958,-297.5 839,-297.5 839,-267.5 958,-267.5 958,-297.5"/>
<text text-anchor="start" x="847" y="-285.5" font-family="Helvetica,sans-Serif" font-size="10.00">P4::IR::IndexedVector</text>
<text text-anchor="middle" x="898.5" y="-274.5" font-family="Helvetica,sans-Serif" font-size="10.00">&lt; IR::Parameter &gt;</text>
</a>
</g>
</g>
<!-- Node34&#45;&gt;Node35 -->
<g id="edge34_Node000034_Node000035" class="edge">
<title>Node34&#45;&gt;Node35</title>
<g id="a_edge34_Node000034_Node000035"><a xlink:title=" ">
<path fill="none" stroke="#63b8ff" d="M781.23,-282.5C799.85,-282.5 820.33,-282.5 838.84,-282.5"/>
<polygon fill="#63b8ff" stroke="#63b8ff" points="781.11,-279 771.11,-282.5 781.11,-286 781.11,-279"/>
</a>
</g>
</g>
<!-- Node37 -->
<g id="Node000037" class="node">
<title>Node37</title>
<g id="a_Node000037"><a xlink:href="class_p4_1_1_i_r_1_1_indexed_vector.html" target="_top" xlink:title=" ">
<polygon fill="white" stroke="#666666" points="967,-249.5 830,-249.5 830,-219.5 967,-219.5 967,-249.5"/>
<text text-anchor="start" x="838" y="-237.5" font-family="Helvetica,sans-Serif" font-size="10.00">P4::IR::IndexedVector</text>
<text text-anchor="middle" x="898.5" y="-226.5" font-family="Helvetica,sans-Serif" font-size="10.00">&lt; IR::DpdkDeclaration &gt;</text>
</a>
</g>
</g>
<!-- Node36&#45;&gt;Node37 -->
<g id="edge36_Node000036_Node000037" class="edge">
<title>Node36&#45;&gt;Node37</title>
<g id="a_edge36_Node000036_Node000037"><a xlink:title=" ">
<path fill="none" stroke="#63b8ff" d="M788.48,-234.5C802,-234.5 816.2,-234.5 829.72,-234.5"/>
<polygon fill="#63b8ff" stroke="#63b8ff" points="788.3,-231 778.3,-234.5 788.3,-238 788.3,-231"/>
</a>
</g>
</g>
<!-- Node39 -->
<g id="Node000039" class="node">
<title>Node39</title>
<g id="a_Node000039"><a xlink:href="class_p4_1_1_i_r_1_1_indexed_vector.html" target="_top" xlink:title=" ">
<polygon fill="white" stroke="#666666" points="958,-201.5 839,-201.5 839,-171.5 958,-171.5 958,-201.5"/>
<text text-anchor="start" x="847" y="-189.5" font-family="Helvetica,sans-Serif" font-size="10.00">P4::IR::IndexedVector</text>
<text text-anchor="middle" x="898.5" y="-178.5" font-family="Helvetica,sans-Serif" font-size="10.00">&lt; IR::ParserState &gt;</text>
</a>
</g>
</g>
<!-- Node38&#45;&gt;Node39 -->
<g id="edge38_Node000038_Node000039" class="edge">
<title>Node38&#45;&gt;Node39</title>
<g id="a_edge38_Node000038_Node000039"><a xlink:title=" ">
<path fill="none" stroke="#63b8ff" d="M781.23,-186.5C799.85,-186.5 820.33,-186.5 838.84,-186.5"/>
<polygon fill="#63b8ff" stroke="#63b8ff" points="781.11,-183 771.11,-186.5 781.11,-190 781.11,-183"/>
</a>
</g>
</g>
<!-- Node44 -->
<g id="Node000044" class="node">
<title>Node44</title>
<g id="a_Node000044"><a xlink:href="class_p4_1_1_i_r_1_1_indexed_vector.html" target="_top" xlink:title=" ">
<polygon fill="white" stroke="#666666" points="972.5,-19 824.5,-19 824.5,0 972.5,0 972.5,-19"/>
<text text-anchor="middle" x="898.5" y="-7" font-family="Helvetica,sans-Serif" font-size="10.00">P4::IR::IndexedVector&lt; T &gt;</text>
</a>
</g>
</g>
<!-- Node43&#45;&gt;Node44 -->
<g id="edge43_Node000043_Node000044" class="edge">
<title>Node43&#45;&gt;Node44</title>
<g id="a_edge43_Node000043_Node000044"><a xlink:title=" ">
<path fill="none" stroke="#63b8ff" d="M785.4,-9.5C798.09,-9.5 811.49,-9.5 824.45,-9.5"/>
<polygon fill="#63b8ff" stroke="#63b8ff" points="785.4,-6 775.4,-9.5 785.4,-13 785.4,-6"/>
</a>
</g>
</g>
</g>
</svg>
