<?xml version="1.0" encoding="UTF-8" standalone="no"?>
<!DOCTYPE svg PUBLIC "-//W3C//DTD SVG 1.1//EN"
 "http://www.w3.org/Graphics/SVG/1.1/DTD/svg11.dtd">
<!-- Generated by graphviz version 2.43.0 (0)
 -->
<!-- Title: P4Tools::P4Testgen::Bmv2::BMv2V1ModelCompilerResult Pages: 1 -->
<svg width="180pt" height="285pt"
 viewBox="0.00 0.00 180.00 285.00" xmlns="http://www.w3.org/2000/svg" xmlns:xlink="http://www.w3.org/1999/xlink">
<g id="graph0" class="graph" transform="scale(1 1) rotate(0) translate(4 281)">
<title>P4Tools::P4Testgen::Bmv2::BMv2V1ModelCompilerResult</title>
<polygon fill="white" stroke="transparent" points="-4,4 -4,-281 176,-281 176,4 -4,4"/>
<!-- Node1 -->
<g id="node1" class="node">
<title>Node1</title>
<g id="a_node1"><a xlink:title="Extends the CompilerResult with information specific to the V1Model running on BMv2.">
<polygon fill="#bfbfbf" stroke="black" points="0,-0.5 0,-41.5 172,-41.5 172,-0.5 0,-0.5"/>
<text text-anchor="start" x="8" y="-29.5" font-family="Helvetica,sans-Serif" font-size="10.00">P4Tools::P4Testgen</text>
<text text-anchor="start" x="8" y="-18.5" font-family="Helvetica,sans-Serif" font-size="10.00">::Bmv2::BMv2V1ModelCompiler</text>
<text text-anchor="middle" x="86" y="-7.5" font-family="Helvetica,sans-Serif" font-size="10.00">Result</text>
</a>
</g>
</g>
<!-- Node2 -->
<g id="node2" class="node">
<title>Node2</title>
<g id="a_node2"><a xlink:href="class_p4_tools_1_1_p4_testgen_1_1_testgen_compiler_result.html" target="_top" xlink:title="Extends the CompilerResult with the associated P4RuntimeApi.">
<polygon fill="white" stroke="black" points="18.5,-78.5 18.5,-108.5 153.5,-108.5 153.5,-78.5 18.5,-78.5"/>
<text text-anchor="start" x="26.5" y="-96.5" font-family="Helvetica,sans-Serif" font-size="10.00">P4Tools::P4Testgen</text>
<text text-anchor="middle" x="86" y="-85.5" font-family="Helvetica,sans-Serif" font-size="10.00">::TestgenCompilerResult</text>
</a>
</g>
</g>
<!-- Node2&#45;&gt;Node1 -->
<g id="edge1" class="edge">
<title>Node2&#45;&gt;Node1</title>
<path fill="none" stroke="midnightblue" d="M86,-67.98C86,-59.35 86,-49.76 86,-41.59"/>
<polygon fill="midnightblue" stroke="midnightblue" points="82.5,-68.23 86,-78.23 89.5,-68.23 82.5,-68.23"/>
</g>
<!-- Node3 -->
<g id="node3" class="node">
<title>Node3</title>
<g id="a_node3"><a xlink:href="class_p4_tools_1_1_compiler_result.html" target="_top" xlink:title=" ">
<polygon fill="white" stroke="black" points="19,-145.5 19,-164.5 153,-164.5 153,-145.5 19,-145.5"/>
<text text-anchor="middle" x="86" y="-152.5" font-family="Helvetica,sans-Serif" font-size="10.00">P4Tools::CompilerResult</text>
</a>
</g>
</g>
<!-- Node3&#45;&gt;Node2 -->
<g id="edge2" class="edge">
<title>Node3&#45;&gt;Node2</title>
<path fill="none" stroke="midnightblue" d="M86,-135.23C86,-126.59 86,-116.5 86,-108.52"/>
<polygon fill="midnightblue" stroke="midnightblue" points="82.5,-135.48 86,-145.48 89.5,-135.48 82.5,-135.48"/>
</g>
<!-- Node4 -->
<g id="node4" class="node">
<title>Node4</title>
<g id="a_node4"><a xlink:href="class_i_castable.html" target="_top" xlink:title=" ">
<polygon fill="white" stroke="black" points="55,-201.5 55,-220.5 117,-220.5 117,-201.5 55,-201.5"/>
<text text-anchor="middle" x="86" y="-208.5" font-family="Helvetica,sans-Serif" font-size="10.00">ICastable</text>
</a>
</g>
</g>
<!-- Node4&#45;&gt;Node3 -->
<g id="edge3" class="edge">
<title>Node4&#45;&gt;Node3</title>
<path fill="none" stroke="midnightblue" d="M86,-190.8C86,-181.91 86,-171.78 86,-164.75"/>
<polygon fill="midnightblue" stroke="midnightblue" points="82.5,-191.08 86,-201.08 89.5,-191.08 82.5,-191.08"/>
</g>
<!-- Node5 -->
<g id="node5" class="node">
<title>Node5</title>
<g id="a_node5"><a xlink:href="struct_r_t_t_i_1_1_base.html" target="_top" xlink:title=" ">
<polygon fill="white" stroke="black" points="52,-257.5 52,-276.5 120,-276.5 120,-257.5 52,-257.5"/>
<text text-anchor="middle" x="86" y="-264.5" font-family="Helvetica,sans-Serif" font-size="10.00">RTTI::Base</text>
</a>
</g>
</g>
<!-- Node5&#45;&gt;Node4 -->
<g id="edge4" class="edge">
<title>Node5&#45;&gt;Node4</title>
<path fill="none" stroke="midnightblue" d="M86,-246.8C86,-237.91 86,-227.78 86,-220.75"/>
<polygon fill="midnightblue" stroke="midnightblue" points="82.5,-247.08 86,-257.08 89.5,-247.08 82.5,-247.08"/>
</g>
</g>
</svg>
