<?xml version="1.0" encoding="UTF-8" standalone="no"?>
<!DOCTYPE svg PUBLIC "-//W3C//DTD SVG 1.1//EN"
 "http://www.w3.org/Graphics/SVG/1.1/DTD/svg11.dtd">
<!-- Generated by graphviz version 2.43.0 (0)
 -->
<!-- Title: EBPF::ControlBodyTranslator Pages: 1 -->
<!--zoomable 187 -->

<svg id="main" version="1.1" xmlns="http://www.w3.org/2000/svg" xmlns:xlink="http://www.w3.org/1999/xlink" xml:space="preserve" onload="init(evt)">

<style type="text/css"><![CDATA[
.node, .edge {opacity: 0.7;}
.node.selected, .edge.selected {opacity: 1;}
.edge:hover path { stroke: red; }
.edge:hover polygon { stroke: red; fill: red; }
]]></style>

<defs>
  <circle id="rim" cx="0" cy="0" r="7"/>
  <circle id="rim2" cx="0" cy="0" r="3.5"/>
  <g id="zoomPlus">
    <use xlink:href="#rim" fill="#404040"><set attributeName="fill" to="#808080" begin="zoomplus.mouseover" end="zoomplus.mouseout"/></use>
    <path d="M-4,0h8M0,-4v8" fill="none" stroke="white" stroke-width="1.5" pointer-events="none"/>
  </g>
  <g id="zoomMin">
    <use xlink:href="#rim" fill="#404040"><set attributeName="fill" to="#808080" begin="zoomminus.mouseover" end="zoomminus.mouseout"/></use>
    <path d="M-4,0h8" fill="none" stroke="white" stroke-width="1.5" pointer-events="none"/>
  </g>
  <g id="arrowUp" transform="translate(30 24)">
    <use xlink:href="#rim"/>
    <path pointer-events="none" fill="none" stroke="white" stroke-width="1.5" d="M0,-3.0v7 M-2.5,-0.5L0,-3.0L2.5,-0.5"/>
  </g>
  <g id="arrowRight" transform="rotate(90) translate(36 -43)">
    <use xlink:href="#rim"/>
    <path pointer-events="none" fill="none" stroke="white" stroke-width="1.5" d="M0,-3.0v7 M-2.5,-0.5L0,-3.0L2.5,-0.5"/>
  </g>
  <g id="arrowDown" transform="rotate(180) translate(-30 -48)">
    <use xlink:href="#rim"/>
    <path pointer-events="none" fill="none" stroke="white" stroke-width="1.5" d="M0,-3.0v7 M-2.5,-0.5L0,-3.0L2.5,-0.5"/>
  </g>
  <g id="arrowLeft" transform="rotate(270) translate(-36 17)">
    <use xlink:href="#rim"/>
    <path pointer-events="none" fill="none" stroke="white" stroke-width="1.5" d="M0,-3.0v7 M-2.5,-0.5L0,-3.0L2.5,-0.5"/>
  </g>
  <g id="resetDef">
    <use xlink:href="#rim2" fill="#404040"><set attributeName="fill" to="#808080" begin="reset.mouseover" end="reset.mouseout"/></use>
  </g>
</defs>
<script type="application/ecmascript">
var viewWidth = 958;
var viewHeight = 187;
var sectionId = 'dynsection-0';
</script>
<script type="application/ecmascript" xlink:href="svg.min.js"/>
<svg id="graph" class="graph">
<g id="viewport">
<title>EBPF::ControlBodyTranslator</title>
<!-- Node1 -->
<g id="Node000001" class="node">
<title>Node1</title>
<g id="a_Node000001"><a xlink:title=" ">
<polygon fill="#999999" stroke="#666666" points="509,-99 354,-99 354,-80 509,-80 509,-99"/>
<text text-anchor="middle" x="431.5" y="-87" font-family="Helvetica,sans-Serif" font-size="10.00">EBPF::ControlBodyTranslator</text>
</a>
</g>
</g>
<!-- Node5 -->
<g id="Node000005" class="node">
<title>Node5</title>
<g id="a_Node000005"><a xlink:href="class_e_b_p_f_1_1_control_body_translator_p_s_a.html" target="_top" xlink:title=" ">
<polygon fill="white" stroke="#bfbfbf" points="723,-179 549,-179 549,-160 723,-160 723,-179"/>
<text text-anchor="middle" x="636" y="-167" font-family="Helvetica,sans-Serif" font-size="10.00">EBPF::ControlBodyTranslatorPSA</text>
</a>
</g>
</g>
<!-- Node1&#45;&gt;Node5 -->
<g id="edge4_Node000001_Node000005" class="edge">
<title>Node1&#45;&gt;Node5</title>
<g id="a_edge4_Node000001_Node000005"><a xlink:title=" ">
<path fill="none" stroke="#63b8ff" d="M455,-104.62C477.03,-118.75 512.01,-139.44 545,-151.5 554.13,-154.84 564.02,-157.61 573.78,-159.89"/>
<polygon fill="#63b8ff" stroke="#63b8ff" points="456.68,-101.53 446.39,-99 452.86,-107.4 456.68,-101.53"/>
</a>
</g>
</g>
<!-- Node7 -->
<g id="Node000007" class="node">
<title>Node7</title>
<g id="a_Node000007"><a xlink:href="class_e_b_p_f_1_1_deparser_body_translator.html" target="_top" xlink:title="This translator emits deparser externs.">
<polygon fill="white" stroke="#666666" points="718,-142 554,-142 554,-123 718,-123 718,-142"/>
<text text-anchor="middle" x="636" y="-130" font-family="Helvetica,sans-Serif" font-size="10.00">EBPF::DeparserBodyTranslator</text>
</a>
</g>
</g>
<!-- Node1&#45;&gt;Node7 -->
<g id="edge6_Node000001_Node000007" class="edge">
<title>Node1&#45;&gt;Node7</title>
<g id="a_edge6_Node000001_Node000007"><a xlink:title=" ">
<path fill="none" stroke="#63b8ff" d="M487.08,-101.17C505.48,-105.09 526.13,-109.49 545,-113.5 559.53,-116.58 575.38,-119.93 589.67,-122.95"/>
<polygon fill="#63b8ff" stroke="#63b8ff" points="487.62,-97.71 477.11,-99.04 486.16,-104.55 487.62,-97.71"/>
</a>
</g>
</g>
<!-- Node9 -->
<g id="Node000009" class="node">
<title>Node9</title>
<g id="a_Node000009"><a xlink:href="class_e_b_p_f_1_1_deparser_prepare_buffer_translator.html" target="_top" xlink:title="This translator emits buffer preparation (eg. which headers will be emitted)">
<polygon fill="white" stroke="#666666" points="715,-104.5 557,-104.5 557,-74.5 715,-74.5 715,-104.5"/>
<text text-anchor="start" x="565" y="-92.5" font-family="Helvetica,sans-Serif" font-size="10.00">EBPF::DeparserPrepareBuffer</text>
<text text-anchor="middle" x="636" y="-81.5" font-family="Helvetica,sans-Serif" font-size="10.00">Translator</text>
</a>
</g>
</g>
<!-- Node1&#45;&gt;Node9 -->
<g id="edge8_Node000001_Node000009" class="edge">
<title>Node1&#45;&gt;Node9</title>
<g id="a_edge8_Node000001_Node000009"><a xlink:title=" ">
<path fill="none" stroke="#63b8ff" d="M519.08,-89.5C531.67,-89.5 544.58,-89.5 556.99,-89.5"/>
<polygon fill="#63b8ff" stroke="#63b8ff" points="519.06,-86 509.06,-89.5 519.06,-93 519.06,-86"/>
</a>
</g>
</g>
<!-- Node12 -->
<g id="Node000012" class="node">
<title>Node12</title>
<g id="a_Node000012"><a xlink:href="class_t_c_1_1_control_body_translator_p_n_a.html" target="_top" xlink:title=" ">
<polygon fill="white" stroke="#bfbfbf" points="717.5,-56 554.5,-56 554.5,-37 717.5,-37 717.5,-56"/>
<text text-anchor="middle" x="636" y="-44" font-family="Helvetica,sans-Serif" font-size="10.00">TC::ControlBodyTranslatorPNA</text>
</a>
</g>
</g>
<!-- Node1&#45;&gt;Node12 -->
<g id="edge11_Node000001_Node000012" class="edge">
<title>Node1&#45;&gt;Node12</title>
<g id="a_edge11_Node000001_Node000012"><a xlink:title=" ">
<path fill="none" stroke="#63b8ff" d="M487.08,-77.83C505.48,-73.91 526.13,-69.51 545,-65.5 559.53,-62.42 575.38,-59.07 589.67,-56.05"/>
<polygon fill="#63b8ff" stroke="#63b8ff" points="486.16,-74.45 477.11,-79.96 487.62,-81.29 486.16,-74.45"/>
</a>
</g>
</g>
<!-- Node14 -->
<g id="Node000014" class="node">
<title>Node14</title>
<g id="a_Node000014"><a xlink:href="class_u_b_p_f_1_1_u_b_p_f_control_body_translator.html" target="_top" xlink:title=" ">
<polygon fill="white" stroke="#bfbfbf" points="727,-19 545,-19 545,0 727,0 727,-19"/>
<text text-anchor="middle" x="636" y="-7" font-family="Helvetica,sans-Serif" font-size="10.00">UBPF::UBPFControlBodyTranslator</text>
</a>
</g>
</g>
<!-- Node1&#45;&gt;Node14 -->
<g id="edge13_Node000001_Node000014" class="edge">
<title>Node1&#45;&gt;Node14</title>
<g id="a_edge13_Node000001_Node000014"><a xlink:title=" ">
<path fill="none" stroke="#63b8ff" d="M455,-74.38C477.03,-60.25 512.01,-39.56 545,-27.5 554.13,-24.16 564.02,-21.39 573.78,-19.11"/>
<polygon fill="#63b8ff" stroke="#63b8ff" points="452.86,-71.6 446.39,-80 456.68,-77.47 452.86,-71.6"/>
</a>
</g>
</g>
<!-- Node2 -->
<g id="Node000002" class="node">
<title>Node2</title>
<g id="a_Node000002"><a xlink:href="class_e_b_p_f_1_1_code_gen_inspector.html" target="_top" xlink:title=" ">
<polygon fill="white" stroke="#666666" points="318,-99 182,-99 182,-80 318,-80 318,-99"/>
<text text-anchor="middle" x="250" y="-87" font-family="Helvetica,sans-Serif" font-size="10.00">EBPF::CodeGenInspector</text>
</a>
</g>
</g>
<!-- Node2&#45;&gt;Node1 -->
<g id="edge1_Node000001_Node000002" class="edge">
<title>Node2&#45;&gt;Node1</title>
<g id="a_edge1_Node000001_Node000002"><a xlink:title=" ">
<path fill="none" stroke="#63b8ff" d="M328.31,-89.5C336.77,-89.5 345.38,-89.5 353.82,-89.5"/>
<polygon fill="#63b8ff" stroke="#63b8ff" points="328.09,-86 318.09,-89.5 328.09,-93 328.09,-86"/>
</a>
</g>
</g>
<!-- Node3 -->
<g id="Node000003" class="node">
<title>Node3</title>
<g id="a_Node000003"><a xlink:href="class_inspector.html" target="_top" xlink:title=" ">
<polygon fill="white" stroke="#bfbfbf" points="146,-99 84,-99 84,-80 146,-80 146,-99"/>
<text text-anchor="middle" x="115" y="-87" font-family="Helvetica,sans-Serif" font-size="10.00">Inspector</text>
</a>
</g>
</g>
<!-- Node3&#45;&gt;Node2 -->
<g id="edge2_Node000002_Node000003" class="edge">
<title>Node3&#45;&gt;Node2</title>
<g id="a_edge2_Node000002_Node000003"><a xlink:title=" ">
<path fill="none" stroke="#63b8ff" d="M156.37,-89.5C164.42,-89.5 173.08,-89.5 181.76,-89.5"/>
<polygon fill="#63b8ff" stroke="#63b8ff" points="156.18,-86 146.18,-89.5 156.18,-93 156.18,-86"/>
</a>
</g>
</g>
<!-- Node4 -->
<g id="Node000004" class="node">
<title>Node4</title>
<g id="a_Node000004"><a xlink:href="class_visitor.html" target="_top" xlink:title=" ">
<polygon fill="white" stroke="#bfbfbf" points="48,-99 0,-99 0,-80 48,-80 48,-99"/>
<text text-anchor="middle" x="24" y="-87" font-family="Helvetica,sans-Serif" font-size="10.00">Visitor</text>
</a>
</g>
</g>
<!-- Node4&#45;&gt;Node3 -->
<g id="edge3_Node000003_Node000004" class="edge">
<title>Node4&#45;&gt;Node3</title>
<g id="a_edge3_Node000003_Node000004"><a xlink:title=" ">
<path fill="none" stroke="#63b8ff" d="M58.49,-89.5C66.78,-89.5 75.61,-89.5 83.73,-89.5"/>
<polygon fill="#63b8ff" stroke="#63b8ff" points="58.38,-86 48.38,-89.5 58.38,-93 58.38,-86"/>
</a>
</g>
</g>
<!-- Node6 -->
<g id="Node000006" class="node">
<title>Node6</title>
<g id="a_Node000006"><a xlink:href="class_e_b_p_f_1_1_action_translation_visitor_p_s_a.html" target="_top" xlink:title=" ">
<polygon fill="white" stroke="#bfbfbf" points="947.5,-179 765.5,-179 765.5,-160 947.5,-160 947.5,-179"/>
<text text-anchor="middle" x="856.5" y="-167" font-family="Helvetica,sans-Serif" font-size="10.00">EBPF::ActionTranslationVisitorPSA</text>
</a>
</g>
</g>
<!-- Node5&#45;&gt;Node6 -->
<g id="edge5_Node000005_Node000006" class="edge">
<title>Node5&#45;&gt;Node6</title>
<g id="a_edge5_Node000005_Node000006"><a xlink:title=" ">
<path fill="none" stroke="#63b8ff" d="M733.19,-169.5C743.83,-169.5 754.65,-169.5 765.22,-169.5"/>
<polygon fill="#63b8ff" stroke="#63b8ff" points="733.04,-166 723.04,-169.5 733.04,-173 733.04,-166"/>
</a>
</g>
</g>
<!-- Node8 -->
<g id="Node000008" class="node">
<title>Node8</title>
<g id="a_Node000008"><a xlink:href="class_e_b_p_f_1_1_deparser_body_translator_p_s_a.html" target="_top" xlink:title=" ">
<polygon fill="white" stroke="#bfbfbf" points="948,-142 765,-142 765,-123 948,-123 948,-142"/>
<text text-anchor="middle" x="856.5" y="-130" font-family="Helvetica,sans-Serif" font-size="10.00">EBPF::DeparserBodyTranslatorPSA</text>
</a>
</g>
</g>
<!-- Node7&#45;&gt;Node8 -->
<g id="edge7_Node000007_Node000008" class="edge">
<title>Node7&#45;&gt;Node8</title>
<g id="a_edge7_Node000007_Node000008"><a xlink:title=" ">
<path fill="none" stroke="#63b8ff" d="M728.11,-132.5C740.19,-132.5 752.57,-132.5 764.65,-132.5"/>
<polygon fill="#63b8ff" stroke="#63b8ff" points="728.05,-129 718.05,-132.5 728.05,-136 728.05,-129"/>
</a>
</g>
</g>
<!-- Node10 -->
<g id="Node000010" class="node">
<title>Node10</title>
<g id="a_Node000010"><a xlink:href="class_e_b_p_f_1_1_deparser_hdr_emit_translator.html" target="_top" xlink:title="This translator emits headers.">
<polygon fill="white" stroke="#666666" points="946,-105 767,-105 767,-86 946,-86 946,-105"/>
<text text-anchor="middle" x="856.5" y="-93" font-family="Helvetica,sans-Serif" font-size="10.00">EBPF::DeparserHdrEmitTranslator</text>
</a>
</g>
</g>
<!-- Node9&#45;&gt;Node10 -->
<g id="edge9_Node000009_Node000010" class="edge">
<title>Node9&#45;&gt;Node10</title>
<g id="a_edge9_Node000009_Node000010"><a xlink:title=" ">
<path fill="none" stroke="#63b8ff" d="M725.53,-91.93C739.08,-92.3 753.08,-92.69 766.64,-93.06"/>
<polygon fill="#63b8ff" stroke="#63b8ff" points="725.36,-88.43 715.27,-91.65 725.17,-95.42 725.36,-88.43"/>
</a>
</g>
</g>
<!-- Node11 -->
<g id="Node000011" class="node">
<title>Node11</title>
<g id="a_Node000011"><a xlink:href="class_t_c_1_1_deparser_hdr_emit_translator_p_n_a.html" target="_top" xlink:title=" ">
<polygon fill="white" stroke="#bfbfbf" points="950,-68 763,-68 763,-49 950,-49 950,-68"/>
<text text-anchor="middle" x="856.5" y="-56" font-family="Helvetica,sans-Serif" font-size="10.00">TC::DeparserHdrEmitTranslatorPNA</text>
</a>
</g>
</g>
<!-- Node9&#45;&gt;Node11 -->
<g id="edge10_Node000009_Node000011" class="edge">
<title>Node9&#45;&gt;Node11</title>
<g id="a_edge10_Node000009_Node000011"><a xlink:title=" ">
<path fill="none" stroke="#63b8ff" d="M725.17,-76.99C746.21,-74.01 768.33,-70.87 788.26,-68.04"/>
<polygon fill="#63b8ff" stroke="#63b8ff" points="724.68,-73.53 715.27,-78.4 725.66,-80.46 724.68,-73.53"/>
</a>
</g>
</g>
<!-- Node13 -->
<g id="Node000013" class="node">
<title>Node13</title>
<g id="a_Node000013"><a xlink:href="class_t_c_1_1_action_translation_visitor_p_n_a.html" target="_top" xlink:title=" ">
<polygon fill="white" stroke="#bfbfbf" points="941.5,-31 771.5,-31 771.5,-12 941.5,-12 941.5,-31"/>
<text text-anchor="middle" x="856.5" y="-19" font-family="Helvetica,sans-Serif" font-size="10.00">TC::ActionTranslationVisitorPNA</text>
</a>
</g>
</g>
<!-- Node12&#45;&gt;Node13 -->
<g id="edge12_Node000012_Node000013" class="edge">
<title>Node12&#45;&gt;Node13</title>
<g id="a_edge12_Node000012_Node000013"><a xlink:title=" ">
<path fill="none" stroke="#63b8ff" d="M727.82,-36.11C742.52,-34.43 757.66,-32.69 772.17,-31.03"/>
<polygon fill="#63b8ff" stroke="#63b8ff" points="727.28,-32.65 717.74,-37.26 728.07,-39.6 727.28,-32.65"/>
</a>
</g>
</g>
</g>
</svg>

<g id="navigator" transform="translate(0 0)" fill="#404254">
  <rect fill="#f2f5e9" fill-opacity="0.5" stroke="#606060" stroke-width=".5" x="0" y="0" width="60" height="60"/>
  <use id="zoomplus" xlink:href="#zoomPlus" x="17" y="9" onmousedown="handleZoom(evt,'in')"/>
  <use id="zoomminus" xlink:href="#zoomMin" x="42" y="9" onmousedown="handleZoom(evt,'out')"/>
  <use id="reset" xlink:href="#resetDef" x="30" y="36" onmousedown="handleReset()"/>
   <use id="arrowup" xlink:href="#arrowUp" x="0" y="0" onmousedown="handlePan(0,-1)"/>
  <use id="arrowright" xlink:href="#arrowRight" x="0" y="0" onmousedown="handlePan(1,0)"/>
  <use id="arrowdown" xlink:href="#arrowDown" x="0" y="0" onmousedown="handlePan(0,1)"/>
  <use id="arrowleft" xlink:href="#arrowLeft" x="0" y="0" onmousedown="handlePan(-1,0)"/>
</g>
<svg viewBox="0 0 15 15" width="100%" height="30px" preserveAspectRatio="xMaxYMin meet">
 <g id="arrow_out" transform="scale(0.3 0.3)">
  <a xlink:href="class_e_b_p_f_1_1_control_body_translator__inherit__graph_org.svg" target="_base">
   <rect id="button" ry="5" rx="5" y="6" x="6" height="38" width="38"
        fill="#f2f5e9" fill-opacity="0.5" stroke="#606060" stroke-width="1.0"/>
   <path id="arrow"
     d="M 11.500037,31.436501 C 11.940474,20.09759 22.043105,11.32322 32.158766,21.979434 L 37.068811,17.246167 C 37.068811,17.246167 37.088388,32 37.088388,32 L 22.160133,31.978069 C 22.160133,31.978069 26.997745,27.140456 26.997745,27.140456 C 18.528582,18.264221 13.291696,25.230495 11.500037,31.436501 z"
     style="fill:#404040;"/>
  </a>
 </g>
</svg>

<style type='text/css'>
<![CDATA[
[data-mouse-over-selected='false'] { opacity: 0.7; }
[data-mouse-over-selected='true']  { opacity: 1.0; }
]]>
</style>
<script type="application/ecmascript"><![CDATA[
document.addEventListener('DOMContentLoaded', (event) => {
  highlightEdges();
  highlightAdjacentNodes();
});
]]></script>
</svg>
