<?xml version="1.0" encoding="UTF-8" standalone="no"?>
<!DOCTYPE svg PUBLIC "-//W3C//DTD SVG 1.1//EN"
 "http://www.w3.org/Graphics/SVG/1.1/DTD/svg11.dtd">
<!-- Generated by graphviz version 2.43.0 (0)
 -->
<!-- Title: P4::hash_vector_base Pages: 1 -->
<!--zoomable 468 -->

<svg id="main" version="1.1" xmlns="http://www.w3.org/2000/svg" xmlns:xlink="http://www.w3.org/1999/xlink" xml:space="preserve" onload="init(evt)">

<style type="text/css"><![CDATA[
.node, .edge {opacity: 0.7;}
.node.selected, .edge.selected {opacity: 1;}
.edge:hover path { stroke: red; }
.edge:hover polygon { stroke: red; fill: red; }
]]></style>

<defs>
  <circle id="rim" cx="0" cy="0" r="7"/>
  <circle id="rim2" cx="0" cy="0" r="3.5"/>
  <g id="zoomPlus">
    <use xlink:href="#rim" fill="#404040"><set attributeName="fill" to="#808080" begin="zoomplus.mouseover" end="zoomplus.mouseout"/></use>
    <path d="M-4,0h8M0,-4v8" fill="none" stroke="white" stroke-width="1.5" pointer-events="none"/>
  </g>
  <g id="zoomMin">
    <use xlink:href="#rim" fill="#404040"><set attributeName="fill" to="#808080" begin="zoomminus.mouseover" end="zoomminus.mouseout"/></use>
    <path d="M-4,0h8" fill="none" stroke="white" stroke-width="1.5" pointer-events="none"/>
  </g>
  <g id="arrowUp" transform="translate(30 24)">
    <use xlink:href="#rim"/>
    <path pointer-events="none" fill="none" stroke="white" stroke-width="1.5" d="M0,-3.0v7 M-2.5,-0.5L0,-3.0L2.5,-0.5"/>
  </g>
  <g id="arrowRight" transform="rotate(90) translate(36 -43)">
    <use xlink:href="#rim"/>
    <path pointer-events="none" fill="none" stroke="white" stroke-width="1.5" d="M0,-3.0v7 M-2.5,-0.5L0,-3.0L2.5,-0.5"/>
  </g>
  <g id="arrowDown" transform="rotate(180) translate(-30 -48)">
    <use xlink:href="#rim"/>
    <path pointer-events="none" fill="none" stroke="white" stroke-width="1.5" d="M0,-3.0v7 M-2.5,-0.5L0,-3.0L2.5,-0.5"/>
  </g>
  <g id="arrowLeft" transform="rotate(270) translate(-36 17)">
    <use xlink:href="#rim"/>
    <path pointer-events="none" fill="none" stroke="white" stroke-width="1.5" d="M0,-3.0v7 M-2.5,-0.5L0,-3.0L2.5,-0.5"/>
  </g>
  <g id="resetDef">
    <use xlink:href="#rim2" fill="#404040"><set attributeName="fill" to="#808080" begin="reset.mouseover" end="reset.mouseout"/></use>
  </g>
</defs>
<script type="application/ecmascript">
var viewWidth = 342;
var viewHeight = 468;
var sectionId = 'dynsection-0';
</script>
<script type="application/ecmascript" xlink:href="svg.min.js"/>
<svg id="graph" class="graph">
<g id="viewport">
<title>P4::hash_vector_base</title>
<!-- Node1 -->
<g id="Node000001" class="node">
<title>Node1</title>
<g id="a_Node000001"><a xlink:title=" ">
<polygon fill="#999999" stroke="#666666" points="122,-233.5 0,-233.5 0,-214.5 122,-214.5 122,-233.5"/>
<text text-anchor="middle" x="61" y="-221.5" font-family="Helvetica,sans-Serif" font-size="10.00">P4::hash_vector_base</text>
</a>
</g>
</g>
<!-- Node2 -->
<g id="Node000002" class="node">
<title>Node2</title>
<g id="a_Node000002"><a xlink:href="class_p4_1_1hvec__map.html" target="_top" xlink:title=" ">
<polygon fill="white" stroke="#bfbfbf" points="323.5,-460 168.5,-460 168.5,-430 323.5,-430 323.5,-460"/>
<text text-anchor="start" x="176.5" y="-448" font-family="Helvetica,sans-Serif" font-size="10.00">P4::hvec_map&lt; P4::Program</text>
<text text-anchor="middle" x="246" y="-437" font-family="Helvetica,sans-Serif" font-size="10.00">Point, P4::Definitions * &gt;</text>
</a>
</g>
</g>
<!-- Node1&#45;&gt;Node2 -->
<g id="edge1_Node000001_Node000002" class="edge">
<title>Node1&#45;&gt;Node2</title>
<g id="a_edge1_Node000001_Node000002"><a xlink:title=" ">
<path fill="none" stroke="#8b1a1a" d="M65.88,-243.48C74.81,-283.09 100.61,-373.32 158,-421 162.1,-424.4 166.64,-427.33 171.44,-429.84"/>
<polygon fill="#8b1a1a" stroke="#8b1a1a" points="69.27,-242.57 63.76,-233.52 62.42,-244.03 69.27,-242.57"/>
</a>
</g>
</g>
<!-- Node3 -->
<g id="Node000003" class="node">
<title>Node3</title>
<g id="a_Node000003"><a xlink:href="class_p4_1_1hvec__map.html" target="_top" xlink:title=" ">
<polygon fill="white" stroke="#bfbfbf" points="307,-411.5 185,-411.5 185,-370.5 307,-370.5 307,-411.5"/>
<text text-anchor="start" x="193" y="-399.5" font-family="Helvetica,sans-Serif" font-size="10.00">P4::hvec_map&lt; const</text>
<text text-anchor="start" x="193" y="-388.5" font-family="Helvetica,sans-Serif" font-size="10.00"> P4::IR::IDeclaration</text>
<text text-anchor="middle" x="246" y="-377.5" font-family="Helvetica,sans-Serif" font-size="10.00"> *, def_info_t &gt;</text>
</a>
</g>
</g>
<!-- Node1&#45;&gt;Node3 -->
<g id="edge2_Node000001_Node000003" class="edge">
<title>Node1&#45;&gt;Node3</title>
<g id="a_edge2_Node000001_Node000003"><a xlink:title=" ">
<path fill="none" stroke="#8b1a1a" d="M70.24,-242.84C84.13,-272.44 114.94,-329.78 158,-362 166.03,-368.01 175.38,-372.82 184.91,-376.65"/>
<polygon fill="#8b1a1a" stroke="#8b1a1a" points="73.37,-241.27 66.05,-233.61 67,-244.17 73.37,-241.27"/>
</a>
</g>
</g>
<!-- Node4 -->
<g id="Node000004" class="node">
<title>Node4</title>
<g id="a_Node000004"><a xlink:href="class_p4_1_1hvec__map.html" target="_top" xlink:title=" ">
<polygon fill="white" stroke="#bfbfbf" points="307,-352.5 185,-352.5 185,-311.5 307,-311.5 307,-352.5"/>
<text text-anchor="start" x="193" y="-340.5" font-family="Helvetica,sans-Serif" font-size="10.00">P4::hvec_map&lt; const</text>
<text text-anchor="start" x="193" y="-329.5" font-family="Helvetica,sans-Serif" font-size="10.00"> P4::IR::Node *, P4</text>
<text text-anchor="middle" x="246" y="-318.5" font-family="Helvetica,sans-Serif" font-size="10.00">::hvec_set &gt;</text>
</a>
</g>
</g>
<!-- Node1&#45;&gt;Node4 -->
<g id="edge3_Node000001_Node000004" class="edge">
<title>Node1&#45;&gt;Node4</title>
<g id="a_edge3_Node000001_Node000004"><a xlink:title=" ">
<path fill="none" stroke="#8b1a1a" d="M78.97,-240.94C97.16,-258.3 127.56,-285.09 158,-302 166.38,-306.66 175.61,-310.78 184.83,-314.36"/>
<polygon fill="#8b1a1a" stroke="#8b1a1a" points="81.12,-238.15 71.51,-233.69 76.25,-243.17 81.12,-238.15"/>
</a>
</g>
</g>
<!-- Node5 -->
<g id="Node000005" class="node">
<title>Node5</title>
<g id="a_Node000005"><a xlink:href="class_p4_1_1hvec__map.html" target="_top" xlink:title=" ">
<polygon fill="white" stroke="#bfbfbf" points="323.5,-293 168.5,-293 168.5,-263 323.5,-263 323.5,-293"/>
<text text-anchor="start" x="176.5" y="-281" font-family="Helvetica,sans-Serif" font-size="10.00">P4::hvec_map&lt; P4::loc</text>
<text text-anchor="middle" x="246" y="-270" font-family="Helvetica,sans-Serif" font-size="10.00">_t, const P4::LocationSet * &gt;</text>
</a>
</g>
</g>
<!-- Node1&#45;&gt;Node5 -->
<g id="edge4_Node000001_Node000005" class="edge">
<title>Node1&#45;&gt;Node5</title>
<g id="a_edge4_Node000001_Node000005"><a xlink:title=" ">
<path fill="none" stroke="#8b1a1a" d="M101.53,-236.68C118.82,-242.14 139.38,-248.52 158,-254 168.07,-256.96 178.83,-260.02 189.23,-262.91"/>
<polygon fill="#8b1a1a" stroke="#8b1a1a" points="102.35,-233.27 91.76,-233.58 100.23,-239.94 102.35,-233.27"/>
</a>
</g>
</g>
<!-- Node6 -->
<g id="Node000006" class="node">
<title>Node6</title>
<g id="a_Node000006"><a xlink:href="class_p4_1_1hvec__map.html" target="_top" xlink:title=" ">
<polygon fill="white" stroke="#bfbfbf" points="325,-244.5 167,-244.5 167,-203.5 325,-203.5 325,-244.5"/>
<text text-anchor="start" x="175" y="-232.5" font-family="Helvetica,sans-Serif" font-size="10.00">P4::hvec_map&lt; const</text>
<text text-anchor="start" x="175" y="-221.5" font-family="Helvetica,sans-Serif" font-size="10.00"> P4::BaseLocation *,</text>
<text text-anchor="middle" x="246" y="-210.5" font-family="Helvetica,sans-Serif" font-size="10.00"> const P4::ProgramPoints * &gt;</text>
</a>
</g>
</g>
<!-- Node1&#45;&gt;Node6 -->
<g id="edge5_Node000001_Node000006" class="edge">
<title>Node1&#45;&gt;Node6</title>
<g id="a_edge5_Node000001_Node000006"><a xlink:title=" ">
<path fill="none" stroke="#8b1a1a" d="M132.38,-224C143.65,-224 155.38,-224 166.82,-224"/>
<polygon fill="#8b1a1a" stroke="#8b1a1a" points="132.17,-220.5 122.17,-224 132.17,-227.5 132.17,-220.5"/>
</a>
</g>
</g>
<!-- Node7 -->
<g id="Node000007" class="node">
<title>Node7</title>
<g id="a_Node000007"><a xlink:href="class_p4_1_1hvec__map.html" target="_top" xlink:title=" ">
<polygon fill="white" stroke="#bfbfbf" points="334,-185.5 158,-185.5 158,-144.5 334,-144.5 334,-185.5"/>
<text text-anchor="start" x="166" y="-173.5" font-family="Helvetica,sans-Serif" font-size="10.00">P4::hvec_map&lt; const</text>
<text text-anchor="start" x="166" y="-162.5" font-family="Helvetica,sans-Serif" font-size="10.00"> P4::IR::IDeclaration</text>
<text text-anchor="middle" x="246" y="-151.5" font-family="Helvetica,sans-Serif" font-size="10.00"> *, const P4::StorageLocation * &gt;</text>
</a>
</g>
</g>
<!-- Node1&#45;&gt;Node7 -->
<g id="edge6_Node000001_Node000007" class="edge">
<title>Node1&#45;&gt;Node7</title>
<g id="a_edge6_Node000001_Node000007"><a xlink:title=" ">
<path fill="none" stroke="#8b1a1a" d="M101.63,-211.22C124.81,-203.75 154.62,-194.14 181.05,-185.62"/>
<polygon fill="#8b1a1a" stroke="#8b1a1a" points="100.25,-207.99 91.81,-214.39 102.4,-214.65 100.25,-207.99"/>
</a>
</g>
</g>
<!-- Node8 -->
<g id="Node000008" class="node">
<title>Node8</title>
<g id="a_Node000008"><a xlink:href="class_p4_1_1hvec__set.html" target="_top" xlink:title=" ">
<polygon fill="white" stroke="#bfbfbf" points="304,-126 188,-126 188,-96 304,-96 304,-126"/>
<text text-anchor="start" x="196" y="-114" font-family="Helvetica,sans-Serif" font-size="10.00">P4::hvec_set&lt; const</text>
<text text-anchor="middle" x="246" y="-103" font-family="Helvetica,sans-Serif" font-size="10.00"> loc_t * &gt;</text>
</a>
</g>
</g>
<!-- Node1&#45;&gt;Node8 -->
<g id="edge7_Node000001_Node000008" class="edge">
<title>Node1&#45;&gt;Node8</title>
<g id="a_edge7_Node000001_Node000008"><a xlink:title=" ">
<path fill="none" stroke="#8b1a1a" d="M76.49,-206.54C93.88,-186.67 124.87,-154.57 158,-136 167.18,-130.85 177.52,-126.69 187.78,-123.34"/>
<polygon fill="#8b1a1a" stroke="#8b1a1a" points="73.75,-204.36 69.9,-214.23 79.06,-208.91 73.75,-204.36"/>
</a>
</g>
</g>
<!-- Node9 -->
<g id="Node000009" class="node">
<title>Node9</title>
<g id="a_Node000009"><a xlink:href="class_p4_1_1hvec__map.html" target="_top" xlink:title=" ">
<polygon fill="white" stroke="#bfbfbf" points="322,-78 170,-78 170,-48 322,-48 322,-78"/>
<text text-anchor="start" x="178" y="-66" font-family="Helvetica,sans-Serif" font-size="10.00">P4::hvec_map&lt; KEY,</text>
<text text-anchor="middle" x="246" y="-55" font-family="Helvetica,sans-Serif" font-size="10.00"> VAL, HASH, PRED, ALLOC &gt;</text>
</a>
</g>
</g>
<!-- Node1&#45;&gt;Node9 -->
<g id="edge8_Node000001_Node000009" class="edge">
<title>Node1&#45;&gt;Node9</title>
<g id="a_edge8_Node000001_Node000009"><a xlink:title=" ">
<path fill="none" stroke="#8b1a1a" d="M70.09,-205.03C83.75,-175.27 114.27,-117.85 158,-87 162.87,-83.57 168.2,-80.63 173.77,-78.1"/>
<polygon fill="#8b1a1a" stroke="#8b1a1a" points="66.82,-203.75 65.96,-214.31 73.22,-206.59 66.82,-203.75"/>
</a>
</g>
</g>
<!-- Node10 -->
<g id="Node000010" class="node">
<title>Node10</title>
<g id="a_Node000010"><a xlink:href="class_p4_1_1hvec__set.html" target="_top" xlink:title=" ">
<polygon fill="white" stroke="#bfbfbf" points="310,-30 182,-30 182,0 310,0 310,-30"/>
<text text-anchor="start" x="190" y="-18" font-family="Helvetica,sans-Serif" font-size="10.00">P4::hvec_set&lt; KEY,</text>
<text text-anchor="middle" x="246" y="-7" font-family="Helvetica,sans-Serif" font-size="10.00"> HASH, PRED, ALLOC &gt;</text>
</a>
</g>
</g>
<!-- Node1&#45;&gt;Node10 -->
<g id="edge9_Node000001_Node000010" class="edge">
<title>Node1&#45;&gt;Node10</title>
<g id="a_edge9_Node000001_Node000010"><a xlink:title=" ">
<path fill="none" stroke="#8b1a1a" d="M66.59,-204.4C76.48,-166.52 103.48,-83.14 158,-39 164.94,-33.38 173.1,-29.07 181.6,-25.77"/>
<polygon fill="#8b1a1a" stroke="#8b1a1a" points="63.16,-203.65 64.15,-214.2 69.96,-205.34 63.16,-203.65"/>
</a>
</g>
</g>
</g>
</svg>

<g id="navigator" transform="translate(0 0)" fill="#404254">
  <rect fill="#f2f5e9" fill-opacity="0.5" stroke="#606060" stroke-width=".5" x="0" y="0" width="60" height="60"/>
  <use id="zoomplus" xlink:href="#zoomPlus" x="17" y="9" onmousedown="handleZoom(evt,'in')"/>
  <use id="zoomminus" xlink:href="#zoomMin" x="42" y="9" onmousedown="handleZoom(evt,'out')"/>
  <use id="reset" xlink:href="#resetDef" x="30" y="36" onmousedown="handleReset()"/>
   <use id="arrowup" xlink:href="#arrowUp" x="0" y="0" onmousedown="handlePan(0,-1)"/>
  <use id="arrowright" xlink:href="#arrowRight" x="0" y="0" onmousedown="handlePan(1,0)"/>
  <use id="arrowdown" xlink:href="#arrowDown" x="0" y="0" onmousedown="handlePan(0,1)"/>
  <use id="arrowleft" xlink:href="#arrowLeft" x="0" y="0" onmousedown="handlePan(-1,0)"/>
</g>
<svg viewBox="0 0 15 15" width="100%" height="30px" preserveAspectRatio="xMaxYMin meet">
 <g id="arrow_out" transform="scale(0.3 0.3)">
  <a xlink:href="class_p4_1_1hash__vector__base__inherit__graph_org.svg" target="_base">
   <rect id="button" ry="5" rx="5" y="6" x="6" height="38" width="38"
        fill="#f2f5e9" fill-opacity="0.5" stroke="#606060" stroke-width="1.0"/>
   <path id="arrow"
     d="M 11.500037,31.436501 C 11.940474,20.09759 22.043105,11.32322 32.158766,21.979434 L 37.068811,17.246167 C 37.068811,17.246167 37.088388,32 37.088388,32 L 22.160133,31.978069 C 22.160133,31.978069 26.997745,27.140456 26.997745,27.140456 C 18.528582,18.264221 13.291696,25.230495 11.500037,31.436501 z"
     style="fill:#404040;"/>
  </a>
 </g>
</svg>

<style type='text/css'>
<![CDATA[
[data-mouse-over-selected='false'] { opacity: 0.7; }
[data-mouse-over-selected='true']  { opacity: 1.0; }
]]>
</style>
<script type="application/ecmascript"><![CDATA[
document.addEventListener('DOMContentLoaded', (event) => {
  highlightEdges();
  highlightAdjacentNodes();
});
]]></script>
</svg>
