<?xml version="1.0" encoding="UTF-8" standalone="no"?>
<!DOCTYPE svg PUBLIC "-//W3C//DTD SVG 1.1//EN"
 "http://www.w3.org/Graphics/SVG/1.1/DTD/svg11.dtd">
<!-- Generated by graphviz version 2.43.0 (0)
 -->
<!-- Title: P4::EBPF::EBPFProgram Pages: 1 -->
<svg width="1309pt" height="157pt"
 viewBox="0.00 0.00 1309.00 157.00" xmlns="http://www.w3.org/2000/svg" xmlns:xlink="http://www.w3.org/1999/xlink">
<g id="graph0" class="graph" transform="scale(1 1) rotate(0) translate(4 153)">
<title>P4::EBPF::EBPFProgram</title>
<!-- Node1 -->
<g id="Node000001" class="node">
<title>Node1</title>
<g id="a_Node000001"><a xlink:title=" ">
<polygon fill="#999999" stroke="#666666" points="526,-56 395,-56 395,-37 526,-37 526,-56"/>
<text text-anchor="middle" x="460.5" y="-44" font-family="Helvetica,sans-Serif" font-size="10.00">P4::EBPF::EBPFProgram</text>
</a>
</g>
</g>
<!-- Node5 -->
<g id="Node000005" class="node">
<title>Node5</title>
<g id="a_Node000005"><a xlink:href="class_p4_1_1_e_b_p_f_1_1_e_b_p_f_pipeline.html" target="_top" xlink:title="EBPFPipeline represents a single eBPF program in the TC/XDP hook.">
<polygon fill="white" stroke="#666666" points="700.5,-93 572.5,-93 572.5,-74 700.5,-74 700.5,-93"/>
<text text-anchor="middle" x="636.5" y="-81" font-family="Helvetica,sans-Serif" font-size="10.00">P4::EBPF::EBPFPipeline</text>
</a>
</g>
</g>
<!-- Node1&#45;&gt;Node5 -->
<g id="edge4_Node000001_Node000005" class="edge">
<title>Node1&#45;&gt;Node5</title>
<g id="a_edge4_Node000001_Node000005"><a xlink:title=" ">
<path fill="none" stroke="#63b8ff" d="M516.3,-58.15C540.2,-63.23 567.87,-69.12 590.54,-73.94"/>
<polygon fill="#63b8ff" stroke="#63b8ff" points="516.82,-54.68 506.31,-56.03 515.36,-61.53 516.82,-54.68"/>
</a>
</g>
</g>
<!-- Node14 -->
<g id="Node000014" class="node">
<title>Node14</title>
<g id="a_Node000014"><a xlink:href="class_p4_1_1_e_b_p_f_1_1_x_d_p_help_program.html" target="_top" xlink:title=" ">
<polygon fill="white" stroke="#bfbfbf" points="711,-56 562,-56 562,-37 711,-37 711,-56"/>
<text text-anchor="middle" x="636.5" y="-44" font-family="Helvetica,sans-Serif" font-size="10.00">P4::EBPF::XDPHelpProgram</text>
</a>
</g>
</g>
<!-- Node1&#45;&gt;Node14 -->
<g id="edge13_Node000001_Node000014" class="edge">
<title>Node1&#45;&gt;Node14</title>
<g id="a_edge13_Node000001_Node000014"><a xlink:title=" ">
<path fill="none" stroke="#63b8ff" d="M536.47,-46.5C544.89,-46.5 553.46,-46.5 561.87,-46.5"/>
<polygon fill="#63b8ff" stroke="#63b8ff" points="536.29,-43 526.29,-46.5 536.29,-50 536.29,-43"/>
</a>
</g>
</g>
<!-- Node15 -->
<g id="Node000015" class="node">
<title>Node15</title>
<g id="a_Node000015"><a xlink:href="class_p4_1_1_u_b_p_f_1_1_u_b_p_f_program.html" target="_top" xlink:title=" ">
<polygon fill="white" stroke="#bfbfbf" points="703.5,-19 569.5,-19 569.5,0 703.5,0 703.5,-19"/>
<text text-anchor="middle" x="636.5" y="-7" font-family="Helvetica,sans-Serif" font-size="10.00">P4::UBPF::UBPFProgram</text>
</a>
</g>
</g>
<!-- Node1&#45;&gt;Node15 -->
<g id="edge14_Node000001_Node000015" class="edge">
<title>Node1&#45;&gt;Node15</title>
<g id="a_edge14_Node000001_Node000015"><a xlink:title=" ">
<path fill="none" stroke="#63b8ff" d="M516.3,-34.85C540.2,-29.77 567.87,-23.88 590.54,-19.06"/>
<polygon fill="#63b8ff" stroke="#63b8ff" points="515.36,-31.47 506.31,-36.97 516.82,-38.32 515.36,-31.47"/>
</a>
</g>
</g>
<!-- Node2 -->
<g id="Node000002" class="node">
<title>Node2</title>
<g id="a_Node000002"><a xlink:href="class_p4_1_1_e_b_p_f_1_1_e_b_p_f_object.html" target="_top" xlink:title="Base class for EBPF objects.">
<polygon fill="white" stroke="#666666" points="359,-56 238,-56 238,-37 359,-37 359,-56"/>
<text text-anchor="middle" x="298.5" y="-44" font-family="Helvetica,sans-Serif" font-size="10.00">P4::EBPF::EBPFObject</text>
</a>
</g>
</g>
<!-- Node2&#45;&gt;Node1 -->
<g id="edge1_Node000001_Node000002" class="edge">
<title>Node2&#45;&gt;Node1</title>
<g id="a_edge1_Node000001_Node000002"><a xlink:title=" ">
<path fill="none" stroke="#63b8ff" d="M369.3,-46.5C377.76,-46.5 386.38,-46.5 394.77,-46.5"/>
<polygon fill="#63b8ff" stroke="#63b8ff" points="369.08,-43 359.08,-46.5 369.08,-50 369.08,-43"/>
</a>
</g>
</g>
<!-- Node3 -->
<g id="Node000003" class="node">
<title>Node3</title>
<g id="a_Node000003"><a xlink:href="class_p4_1_1_i_castable.html" target="_top" xlink:title=" ">
<polygon fill="white" stroke="#666666" points="202,-56 122,-56 122,-37 202,-37 202,-56"/>
<text text-anchor="middle" x="162" y="-44" font-family="Helvetica,sans-Serif" font-size="10.00">P4::ICastable</text>
</a>
</g>
</g>
<!-- Node3&#45;&gt;Node2 -->
<g id="edge2_Node000002_Node000003" class="edge">
<title>Node3&#45;&gt;Node2</title>
<g id="a_edge2_Node000002_Node000003"><a xlink:title=" ">
<path fill="none" stroke="#63b8ff" d="M212.5,-46.5C220.77,-46.5 229.44,-46.5 237.93,-46.5"/>
<polygon fill="#63b8ff" stroke="#63b8ff" points="212.26,-43 202.26,-46.5 212.26,-50 212.26,-43"/>
</a>
</g>
</g>
<!-- Node4 -->
<g id="Node000004" class="node">
<title>Node4</title>
<g id="a_Node000004"><a xlink:href="struct_p4_1_1_r_t_t_i_1_1_base.html" target="_top" xlink:title=" ">
<polygon fill="white" stroke="#bfbfbf" points="86,-56 0,-56 0,-37 86,-37 86,-56"/>
<text text-anchor="middle" x="43" y="-44" font-family="Helvetica,sans-Serif" font-size="10.00">P4::RTTI::Base</text>
</a>
</g>
</g>
<!-- Node4&#45;&gt;Node3 -->
<g id="edge3_Node000003_Node000004" class="edge">
<title>Node4&#45;&gt;Node3</title>
<g id="a_edge3_Node000003_Node000004"><a xlink:title=" ">
<path fill="none" stroke="#63b8ff" d="M96.25,-46.5C104.88,-46.5 113.7,-46.5 121.94,-46.5"/>
<polygon fill="#63b8ff" stroke="#63b8ff" points="96.24,-43 86.24,-46.5 96.24,-50 96.24,-43"/>
</a>
</g>
</g>
<!-- Node6 -->
<g id="Node000006" class="node">
<title>Node6</title>
<g id="a_Node000006"><a xlink:href="class_p4_1_1_e_b_p_f_1_1_e_b_p_f_egress_pipeline.html" target="_top" xlink:title=" ">
<polygon fill="white" stroke="#666666" points="909.5,-112 748.5,-112 748.5,-93 909.5,-93 909.5,-112"/>
<text text-anchor="middle" x="829" y="-100" font-family="Helvetica,sans-Serif" font-size="10.00">P4::EBPF::EBPFEgressPipeline</text>
</a>
</g>
</g>
<!-- Node5&#45;&gt;Node6 -->
<g id="edge5_Node000005_Node000006" class="edge">
<title>Node5&#45;&gt;Node6</title>
<g id="a_edge5_Node000005_Node000006"><a xlink:title=" ">
<path fill="none" stroke="#63b8ff" d="M710.85,-90.82C723.14,-92.04 735.94,-93.32 748.38,-94.56"/>
<polygon fill="#63b8ff" stroke="#63b8ff" points="710.97,-87.31 700.67,-89.8 710.27,-94.28 710.97,-87.31"/>
</a>
</g>
</g>
<!-- Node9 -->
<g id="Node000009" class="node">
<title>Node9</title>
<g id="a_Node000009"><a xlink:href="class_p4_1_1_e_b_p_f_1_1_e_b_p_f_ingress_pipeline.html" target="_top" xlink:title=" ">
<polygon fill="white" stroke="#666666" points="911,-75 747,-75 747,-56 911,-56 911,-75"/>
<text text-anchor="middle" x="829" y="-63" font-family="Helvetica,sans-Serif" font-size="10.00">P4::EBPF::EBPFIngressPipeline</text>
</a>
</g>
</g>
<!-- Node5&#45;&gt;Node9 -->
<g id="edge8_Node000005_Node000009" class="edge">
<title>Node5&#45;&gt;Node9</title>
<g id="a_edge8_Node000005_Node000009"><a xlink:title=" ">
<path fill="none" stroke="#63b8ff" d="M710.84,-76.57C722.57,-75.46 734.77,-74.31 746.68,-73.18"/>
<polygon fill="#63b8ff" stroke="#63b8ff" points="710.3,-73.11 700.67,-77.53 710.95,-80.07 710.3,-73.11"/>
</a>
</g>
</g>
<!-- Node7 -->
<g id="Node000007" class="node">
<title>Node7</title>
<g id="a_Node000007"><a xlink:href="class_p4_1_1_e_b_p_f_1_1_t_c_egress_pipeline.html" target="_top" xlink:title=" ">
<polygon fill="white" stroke="#bfbfbf" points="1100.5,-149 952.5,-149 952.5,-130 1100.5,-130 1100.5,-149"/>
<text text-anchor="middle" x="1026.5" y="-137" font-family="Helvetica,sans-Serif" font-size="10.00">P4::EBPF::TCEgressPipeline</text>
</a>
</g>
</g>
<!-- Node6&#45;&gt;Node7 -->
<g id="edge6_Node000006_Node000007" class="edge">
<title>Node6&#45;&gt;Node7</title>
<g id="a_edge6_Node000006_Node000007"><a xlink:title=" ">
<path fill="none" stroke="#63b8ff" d="M890.49,-113.95C917.59,-119.08 949.18,-125.06 974.99,-129.94"/>
<polygon fill="#63b8ff" stroke="#63b8ff" points="890.82,-110.45 880.35,-112.03 889.52,-117.33 890.82,-110.45"/>
</a>
</g>
</g>
<!-- Node8 -->
<g id="Node000008" class="node">
<title>Node8</title>
<g id="a_Node000008"><a xlink:href="class_p4_1_1_e_b_p_f_1_1_x_d_p_egress_pipeline.html" target="_top" xlink:title=" ">
<polygon fill="white" stroke="#bfbfbf" points="1104.5,-112 948.5,-112 948.5,-93 1104.5,-93 1104.5,-112"/>
<text text-anchor="middle" x="1026.5" y="-100" font-family="Helvetica,sans-Serif" font-size="10.00">P4::EBPF::XDPEgressPipeline</text>
</a>
</g>
</g>
<!-- Node6&#45;&gt;Node8 -->
<g id="edge7_Node000006_Node000008" class="edge">
<title>Node6&#45;&gt;Node8</title>
<g id="a_edge7_Node000006_Node000008"><a xlink:title=" ">
<path fill="none" stroke="#63b8ff" d="M919.78,-102.5C929.3,-102.5 938.91,-102.5 948.27,-102.5"/>
<polygon fill="#63b8ff" stroke="#63b8ff" points="919.52,-99 909.52,-102.5 919.52,-106 919.52,-99"/>
</a>
</g>
</g>
<!-- Node10 -->
<g id="Node000010" class="node">
<title>Node10</title>
<g id="a_Node000010"><a xlink:href="class_p4_1_1_e_b_p_f_1_1_t_c_ingress_pipeline.html" target="_top" xlink:title=" ">
<polygon fill="white" stroke="#bfbfbf" points="1102,-75 951,-75 951,-56 1102,-56 1102,-75"/>
<text text-anchor="middle" x="1026.5" y="-63" font-family="Helvetica,sans-Serif" font-size="10.00">P4::EBPF::TCIngressPipeline</text>
</a>
</g>
</g>
<!-- Node9&#45;&gt;Node10 -->
<g id="edge9_Node000009_Node000010" class="edge">
<title>Node9&#45;&gt;Node10</title>
<g id="a_edge9_Node000009_Node000010"><a xlink:title=" ">
<path fill="none" stroke="#63b8ff" d="M921.42,-65.5C931.26,-65.5 941.19,-65.5 950.8,-65.5"/>
<polygon fill="#63b8ff" stroke="#63b8ff" points="921.21,-62 911.21,-65.5 921.21,-69 921.21,-62"/>
</a>
</g>
</g>
<!-- Node13 -->
<g id="Node000013" class="node">
<title>Node13</title>
<g id="a_Node000013"><a xlink:href="class_p4_1_1_e_b_p_f_1_1_x_d_p_ingress_pipeline.html" target="_top" xlink:title=" ">
<polygon fill="white" stroke="#bfbfbf" points="1106,-38 947,-38 947,-19 1106,-19 1106,-38"/>
<text text-anchor="middle" x="1026.5" y="-26" font-family="Helvetica,sans-Serif" font-size="10.00">P4::EBPF::XDPIngressPipeline</text>
</a>
</g>
</g>
<!-- Node9&#45;&gt;Node13 -->
<g id="edge12_Node000009_Node000013" class="edge">
<title>Node9&#45;&gt;Node13</title>
<g id="a_edge12_Node000009_Node000013"><a xlink:title=" ">
<path fill="none" stroke="#63b8ff" d="M890.49,-54.05C917.59,-48.92 949.18,-42.94 974.99,-38.06"/>
<polygon fill="#63b8ff" stroke="#63b8ff" points="889.52,-50.67 880.35,-55.97 890.82,-57.55 889.52,-50.67"/>
</a>
</g>
</g>
<!-- Node11 -->
<g id="Node000011" class="node">
<title>Node11</title>
<g id="a_Node000011"><a xlink:href="class_p4_1_1_e_b_p_f_1_1_t_c_traffic_manager_for_x_d_p.html" target="_top" xlink:title=" ">
<polygon fill="white" stroke="#bfbfbf" points="1296,-102.5 1147,-102.5 1147,-72.5 1296,-72.5 1296,-102.5"/>
<text text-anchor="start" x="1155" y="-90.5" font-family="Helvetica,sans-Serif" font-size="10.00">P4::EBPF::TCTrafficManager</text>
<text text-anchor="middle" x="1221.5" y="-79.5" font-family="Helvetica,sans-Serif" font-size="10.00">ForXDP</text>
</a>
</g>
</g>
<!-- Node10&#45;&gt;Node11 -->
<g id="edge10_Node000010_Node000011" class="edge">
<title>Node10&#45;&gt;Node11</title>
<g id="a_edge10_Node000010_Node000011"><a xlink:title=" ">
<path fill="none" stroke="#63b8ff" d="M1112.16,-75.15C1123.67,-76.46 1135.41,-77.8 1146.72,-79.09"/>
<polygon fill="#63b8ff" stroke="#63b8ff" points="1112.45,-71.66 1102.12,-74.01 1111.66,-78.62 1112.45,-71.66"/>
</a>
</g>
</g>
<!-- Node12 -->
<g id="Node000012" class="node">
<title>Node12</title>
<g id="a_Node000012"><a xlink:href="class_p4_1_1_t_c_1_1_t_c_ingress_pipeline_p_n_a.html" target="_top" xlink:title=" ">
<polygon fill="white" stroke="#bfbfbf" points="1301,-54 1142,-54 1142,-35 1301,-35 1301,-54"/>
<text text-anchor="middle" x="1221.5" y="-42" font-family="Helvetica,sans-Serif" font-size="10.00">P4::TC::TCIngressPipelinePNA</text>
</a>
</g>
</g>
<!-- Node10&#45;&gt;Node12 -->
<g id="edge11_Node000010_Node000012" class="edge">
<title>Node10&#45;&gt;Node12</title>
<g id="a_edge11_Node000010_Node000012"><a xlink:title=" ">
<path fill="none" stroke="#63b8ff" d="M1112.3,-56.27C1122.15,-55.2 1132.17,-54.11 1141.93,-53.05"/>
<polygon fill="#63b8ff" stroke="#63b8ff" points="1111.68,-52.82 1102.12,-57.38 1112.44,-59.78 1111.68,-52.82"/>
</a>
</g>
</g>
</g>
</svg>
