<?xml version="1.0" encoding="UTF-8" standalone="no"?>
<!DOCTYPE svg PUBLIC "-//W3C//DTD SVG 1.1//EN"
 "http://www.w3.org/Graphics/SVG/1.1/DTD/svg11.dtd">
<!-- Generated by graphviz version 2.43.0 (0)
 -->
<!-- Title: P4::P4Tools::P4Testgen::CmdStepper Pages: 1 -->
<svg width="926pt" height="230pt"
 viewBox="0.00 0.00 926.00 230.00" xmlns="http://www.w3.org/2000/svg" xmlns:xlink="http://www.w3.org/1999/xlink">
<g id="graph0" class="graph" transform="scale(1 1) rotate(0) translate(4 226)">
<title>P4::P4Tools::P4Testgen::CmdStepper</title>
<!-- Node1 -->
<g id="Node000001" class="node">
<title>Node1</title>
<g id="a_Node000001"><a xlink:title="Implements small&#45;step operational semantics for commands.">
<polygon fill="#999999" stroke="#666666" points="508,-126 381,-126 381,-96 508,-96 508,-126"/>
<text text-anchor="start" x="389" y="-114" font-family="Helvetica,sans-Serif" font-size="10.00">P4::P4Tools::P4Testgen</text>
<text text-anchor="middle" x="444.5" y="-103" font-family="Helvetica,sans-Serif" font-size="10.00">::CmdStepper</text>
</a>
</g>
</g>
<!-- Node5 -->
<g id="Node000005" class="node">
<title>Node5</title>
<g id="a_Node000005"><a xlink:href="class_p4_1_1_p4_tools_1_1_p4_testgen_1_1_bmv2_1_1_bmv2_v1_model_cmd_stepper.html" target="_top" xlink:title=" ">
<polygon fill="white" stroke="#bfbfbf" points="732,-222 544,-222 544,-192 732,-192 732,-222"/>
<text text-anchor="start" x="552" y="-210" font-family="Helvetica,sans-Serif" font-size="10.00">P4::P4Tools::P4Testgen</text>
<text text-anchor="middle" x="638" y="-199" font-family="Helvetica,sans-Serif" font-size="10.00">::Bmv2::Bmv2V1ModelCmdStepper</text>
</a>
</g>
</g>
<!-- Node1&#45;&gt;Node5 -->
<g id="edge4_Node000001_Node000005" class="edge">
<title>Node1&#45;&gt;Node5</title>
<g id="a_edge4_Node000001_Node000005"><a xlink:title=" ">
<path fill="none" stroke="#63b8ff" d="M469.84,-132.88C488.81,-148.88 516.48,-169.98 544,-183 551.24,-186.42 559.03,-189.41 566.91,-191.99"/>
<polygon fill="#63b8ff" stroke="#63b8ff" points="471.88,-130.02 462.01,-126.16 467.32,-135.33 471.88,-130.02"/>
</a>
</g>
</g>
<!-- Node6 -->
<g id="Node000006" class="node">
<title>Node6</title>
<g id="a_Node000006"><a xlink:href="class_p4_1_1_p4_tools_1_1_p4_testgen_1_1_e_b_p_f_1_1_e_b_p_f_cmd_stepper.html" target="_top" xlink:title=" ">
<polygon fill="white" stroke="#bfbfbf" points="706.5,-174 569.5,-174 569.5,-144 706.5,-144 706.5,-174"/>
<text text-anchor="start" x="577.5" y="-162" font-family="Helvetica,sans-Serif" font-size="10.00">P4::P4Tools::P4Testgen</text>
<text text-anchor="middle" x="638" y="-151" font-family="Helvetica,sans-Serif" font-size="10.00">::EBPF::EBPFCmdStepper</text>
</a>
</g>
</g>
<!-- Node1&#45;&gt;Node6 -->
<g id="edge5_Node000001_Node000006" class="edge">
<title>Node1&#45;&gt;Node6</title>
<g id="a_edge5_Node000001_Node000006"><a xlink:title=" ">
<path fill="none" stroke="#63b8ff" d="M515.36,-128.51C535.62,-133.59 557.56,-139.09 577.15,-144"/>
<polygon fill="#63b8ff" stroke="#63b8ff" points="516.12,-125.09 505.57,-126.06 514.42,-131.88 516.12,-125.09"/>
</a>
</g>
</g>
<!-- Node7 -->
<g id="Node000007" class="node">
<title>Node7</title>
<g id="a_Node000007"><a xlink:href="class_p4_1_1_p4_tools_1_1_p4_testgen_1_1_pna_1_1_shared_pna_cmd_stepper.html" target="_top" xlink:title=" ">
<polygon fill="white" stroke="#bfbfbf" points="717,-126 559,-126 559,-96 717,-96 717,-126"/>
<text text-anchor="start" x="567" y="-114" font-family="Helvetica,sans-Serif" font-size="10.00">P4::P4Tools::P4Testgen</text>
<text text-anchor="middle" x="638" y="-103" font-family="Helvetica,sans-Serif" font-size="10.00">::Pna::SharedPnaCmdStepper</text>
</a>
</g>
</g>
<!-- Node1&#45;&gt;Node7 -->
<g id="edge6_Node000001_Node000007" class="edge">
<title>Node1&#45;&gt;Node7</title>
<g id="a_edge6_Node000001_Node000007"><a xlink:title=" ">
<path fill="none" stroke="#63b8ff" d="M518.59,-111C531.73,-111 545.47,-111 558.75,-111"/>
<polygon fill="#63b8ff" stroke="#63b8ff" points="518.2,-107.5 508.2,-111 518.2,-114.5 518.2,-107.5"/>
</a>
</g>
</g>
<!-- Node9 -->
<g id="Node000009" class="node">
<title>Node9</title>
<g id="a_Node000009"><a xlink:href="class_p4_1_1_p4_tools_1_1_p4_testgen_1_1_tofino_1_1_j_bay_cmd_stepper.html" target="_top" xlink:title=" ">
<polygon fill="white" stroke="#bfbfbf" points="707.5,-78 568.5,-78 568.5,-48 707.5,-48 707.5,-78"/>
<text text-anchor="start" x="576.5" y="-66" font-family="Helvetica,sans-Serif" font-size="10.00">P4::P4Tools::P4Testgen</text>
<text text-anchor="middle" x="638" y="-55" font-family="Helvetica,sans-Serif" font-size="10.00">::Tofino::JBayCmdStepper</text>
</a>
</g>
</g>
<!-- Node1&#45;&gt;Node9 -->
<g id="edge8_Node000001_Node000009" class="edge">
<title>Node1&#45;&gt;Node9</title>
<g id="a_edge8_Node000001_Node000009"><a xlink:title=" ">
<path fill="none" stroke="#63b8ff" d="M515.36,-93.49C535.62,-88.41 557.56,-82.91 577.15,-78"/>
<polygon fill="#63b8ff" stroke="#63b8ff" points="514.42,-90.12 505.57,-95.94 516.12,-96.91 514.42,-90.12"/>
</a>
</g>
</g>
<!-- Node10 -->
<g id="Node000010" class="node">
<title>Node10</title>
<g id="a_Node000010"><a xlink:href="class_p4_1_1_p4_tools_1_1_p4_testgen_1_1_tofino_1_1_tofino_cmd_stepper.html" target="_top" xlink:title=" ">
<polygon fill="white" stroke="#bfbfbf" points="711,-30 565,-30 565,0 711,0 711,-30"/>
<text text-anchor="start" x="573" y="-18" font-family="Helvetica,sans-Serif" font-size="10.00">P4::P4Tools::P4Testgen</text>
<text text-anchor="middle" x="638" y="-7" font-family="Helvetica,sans-Serif" font-size="10.00">::Tofino::TofinoCmdStepper</text>
</a>
</g>
</g>
<!-- Node1&#45;&gt;Node10 -->
<g id="edge9_Node000001_Node000010" class="edge">
<title>Node1&#45;&gt;Node10</title>
<g id="a_edge9_Node000001_Node000010"><a xlink:title=" ">
<path fill="none" stroke="#63b8ff" d="M469.84,-89.12C488.81,-73.12 516.48,-52.02 544,-39 551.24,-35.58 559.03,-32.59 566.91,-30.01"/>
<polygon fill="#63b8ff" stroke="#63b8ff" points="467.32,-86.67 462.01,-95.84 471.88,-91.98 467.32,-86.67"/>
</a>
</g>
</g>
<!-- Node2 -->
<g id="Node000002" class="node">
<title>Node2</title>
<g id="a_Node000002"><a xlink:href="class_p4_1_1_p4_tools_1_1_p4_testgen_1_1_abstract_stepper.html" target="_top" xlink:title=" ">
<polygon fill="white" stroke="#666666" points="345,-126 218,-126 218,-96 345,-96 345,-126"/>
<text text-anchor="start" x="226" y="-114" font-family="Helvetica,sans-Serif" font-size="10.00">P4::P4Tools::P4Testgen</text>
<text text-anchor="middle" x="281.5" y="-103" font-family="Helvetica,sans-Serif" font-size="10.00">::AbstractStepper</text>
</a>
</g>
</g>
<!-- Node2&#45;&gt;Node1 -->
<g id="edge1_Node000001_Node000002" class="edge">
<title>Node2&#45;&gt;Node1</title>
<g id="a_edge1_Node000001_Node000002"><a xlink:title=" ">
<path fill="none" stroke="#63b8ff" d="M355.22,-111C363.81,-111 372.53,-111 380.96,-111"/>
<polygon fill="#63b8ff" stroke="#63b8ff" points="355.21,-107.5 345.21,-111 355.21,-114.5 355.21,-107.5"/>
</a>
</g>
</g>
<!-- Node3 -->
<g id="Node000003" class="node">
<title>Node3</title>
<g id="a_Node000003"><a xlink:href="class_p4_1_1_inspector.html" target="_top" xlink:title=" ">
<polygon fill="white" stroke="#bfbfbf" points="182,-120.5 102,-120.5 102,-101.5 182,-101.5 182,-120.5"/>
<text text-anchor="middle" x="142" y="-108.5" font-family="Helvetica,sans-Serif" font-size="10.00">P4::Inspector</text>
</a>
</g>
</g>
<!-- Node3&#45;&gt;Node2 -->
<g id="edge2_Node000002_Node000003" class="edge">
<title>Node3&#45;&gt;Node2</title>
<g id="a_edge2_Node000002_Node000003"><a xlink:title=" ">
<path fill="none" stroke="#63b8ff" d="M192.31,-111C200.63,-111 209.36,-111 217.96,-111"/>
<polygon fill="#63b8ff" stroke="#63b8ff" points="192.03,-107.5 182.03,-111 192.03,-114.5 192.03,-107.5"/>
</a>
</g>
</g>
<!-- Node4 -->
<g id="Node000004" class="node">
<title>Node4</title>
<g id="a_Node000004"><a xlink:href="class_p4_1_1_visitor.html" target="_top" xlink:title=" ">
<polygon fill="white" stroke="#bfbfbf" points="66,-120.5 0,-120.5 0,-101.5 66,-101.5 66,-120.5"/>
<text text-anchor="middle" x="33" y="-108.5" font-family="Helvetica,sans-Serif" font-size="10.00">P4::Visitor</text>
</a>
</g>
</g>
<!-- Node4&#45;&gt;Node3 -->
<g id="edge3_Node000003_Node000004" class="edge">
<title>Node4&#45;&gt;Node3</title>
<g id="a_edge3_Node000003_Node000004"><a xlink:title=" ">
<path fill="none" stroke="#63b8ff" d="M76.13,-111C84.57,-111 93.4,-111 101.73,-111"/>
<polygon fill="#63b8ff" stroke="#63b8ff" points="76.1,-107.5 66.1,-111 76.1,-114.5 76.1,-107.5"/>
</a>
</g>
</g>
<!-- Node8 -->
<g id="Node000008" class="node">
<title>Node8</title>
<g id="a_Node000008"><a xlink:href="class_p4_1_1_p4_tools_1_1_p4_testgen_1_1_pna_1_1_pna_dpdk_cmd_stepper.html" target="_top" xlink:title=" ">
<polygon fill="white" stroke="#bfbfbf" points="918,-126 768,-126 768,-96 918,-96 918,-126"/>
<text text-anchor="start" x="776" y="-114" font-family="Helvetica,sans-Serif" font-size="10.00">P4::P4Tools::P4Testgen</text>
<text text-anchor="middle" x="843" y="-103" font-family="Helvetica,sans-Serif" font-size="10.00">::Pna::PnaDpdkCmdStepper</text>
</a>
</g>
</g>
<!-- Node7&#45;&gt;Node8 -->
<g id="edge7_Node000007_Node000008" class="edge">
<title>Node7&#45;&gt;Node8</title>
<g id="a_edge7_Node000007_Node000008"><a xlink:title=" ">
<path fill="none" stroke="#63b8ff" d="M727.43,-111C740.91,-111 754.71,-111 767.85,-111"/>
<polygon fill="#63b8ff" stroke="#63b8ff" points="727.19,-107.5 717.19,-111 727.19,-114.5 727.19,-107.5"/>
</a>
</g>
</g>
</g>
</svg>
