<?xml version="1.0" encoding="UTF-8" standalone="no"?>
<!DOCTYPE svg PUBLIC "-//W3C//DTD SVG 1.1//EN"
 "http://www.w3.org/Graphics/SVG/1.1/DTD/svg11.dtd">
<!-- Generated by graphviz version 2.43.0 (0)
 -->
<!-- Title: P4::ResolutionContext Pages: 1 -->
<svg width="458pt" height="154pt"
 viewBox="0.00 0.00 458.00 154.00" xmlns="http://www.w3.org/2000/svg" xmlns:xlink="http://www.w3.org/1999/xlink">
<g id="graph0" class="graph" transform="scale(1 1) rotate(0) translate(4 150)">
<title>P4::ResolutionContext</title>
<polygon fill="white" stroke="transparent" points="-4,4 -4,-150 454,-150 454,4 -4,4"/>
<!-- Node1 -->
<g id="node1" class="node">
<title>Node1</title>
<g id="a_node1"><a xlink:title="Visitor mixin for looking up names in enclosing scopes from the Visitor::Context.">
<polygon fill="#bfbfbf" stroke="black" points="161,-60.5 161,-79.5 286,-79.5 286,-60.5 161,-60.5"/>
<text text-anchor="middle" x="223.5" y="-67.5" font-family="Helvetica,sans-Serif" font-size="10.00">P4::ResolutionContext</text>
</a>
</g>
</g>
<!-- Node4 -->
<g id="node4" class="node">
<title>Node4</title>
<g id="a_node4"><a xlink:href="class_p4_1_1_compute_def_use.html" target="_top" xlink:title="Compute defuse info within P4Parser and P4Control blocks in the midend.">
<polygon fill="white" stroke="black" points="328.5,-126.5 328.5,-145.5 443.5,-145.5 443.5,-126.5 328.5,-126.5"/>
<text text-anchor="middle" x="386" y="-133.5" font-family="Helvetica,sans-Serif" font-size="10.00">P4::ComputeDefUse</text>
</a>
</g>
</g>
<!-- Node1&#45;&gt;Node4 -->
<g id="edge3" class="edge">
<title>Node1&#45;&gt;Node4</title>
<path fill="none" stroke="midnightblue" d="M251.19,-84.27C270.51,-94.24 297.43,-107.44 322,-117 330.84,-120.44 340.57,-123.64 349.68,-126.41"/>
<polygon fill="midnightblue" stroke="midnightblue" points="252.58,-81.04 242.1,-79.52 249.34,-87.25 252.58,-81.04"/>
</g>
<!-- Node5 -->
<g id="node5" class="node">
<title>Node5</title>
<g id="a_node5"><a xlink:href="class_p4_1_1_compute_def_use_1_1_setup_join_points.html" target="_top" xlink:title=" ">
<polygon fill="white" stroke="black" points="325.5,-77 325.5,-107 446.5,-107 446.5,-77 325.5,-77"/>
<text text-anchor="start" x="333.5" y="-95" font-family="Helvetica,sans-Serif" font-size="10.00">P4::ComputeDefUse::</text>
<text text-anchor="middle" x="386" y="-84" font-family="Helvetica,sans-Serif" font-size="10.00">SetupJoinPoints</text>
</a>
</g>
</g>
<!-- Node1&#45;&gt;Node5 -->
<g id="edge4" class="edge">
<title>Node1&#45;&gt;Node5</title>
<path fill="none" stroke="midnightblue" d="M296.19,-79.83C305.96,-81.17 315.9,-82.53 325.42,-83.83"/>
<polygon fill="midnightblue" stroke="midnightblue" points="296.48,-76.33 286.09,-78.44 295.53,-83.27 296.48,-76.33"/>
</g>
<!-- Node6 -->
<g id="node6" class="node">
<title>Node6</title>
<g id="a_node6"><a xlink:href="class_p4_1_1_resolve_references.html" target="_top" xlink:title=" ">
<polygon fill="white" stroke="black" points="322,-38.5 322,-57.5 450,-57.5 450,-38.5 322,-38.5"/>
<text text-anchor="middle" x="386" y="-45.5" font-family="Helvetica,sans-Serif" font-size="10.00">P4::ResolveReferences</text>
</a>
</g>
</g>
<!-- Node1&#45;&gt;Node6 -->
<g id="edge5" class="edge">
<title>Node1&#45;&gt;Node6</title>
<path fill="none" stroke="#8b1a1a" d="M296.12,-60.18C304.74,-59 313.49,-57.8 321.98,-56.64"/>
<polygon fill="#8b1a1a" stroke="#8b1a1a" points="295.53,-56.73 286.09,-61.56 296.48,-63.67 295.53,-56.73"/>
</g>
<!-- Node7 -->
<g id="node7" class="node">
<title>Node7</title>
<g id="a_node7"><a xlink:href="class_p4_1_1_unroll_loops.html" target="_top" xlink:title=" ">
<polygon fill="white" stroke="black" points="340,-0.5 340,-19.5 432,-19.5 432,-0.5 340,-0.5"/>
<text text-anchor="middle" x="386" y="-7.5" font-family="Helvetica,sans-Serif" font-size="10.00">P4::UnrollLoops</text>
</a>
</g>
</g>
<!-- Node1&#45;&gt;Node7 -->
<g id="edge6" class="edge">
<title>Node1&#45;&gt;Node7</title>
<path fill="none" stroke="midnightblue" d="M254.92,-56.24C273.99,-47.85 299.19,-37.21 322,-29 331.35,-25.63 341.62,-22.36 351.11,-19.51"/>
<polygon fill="midnightblue" stroke="midnightblue" points="253.27,-53.14 245.55,-60.39 256.11,-59.54 253.27,-53.14"/>
</g>
<!-- Node2 -->
<g id="node2" class="node">
<title>Node2</title>
<g id="a_node2"><a xlink:href="class_visitor.html" target="_top" xlink:title=" ">
<polygon fill="white" stroke="black" points="38.5,-79.5 38.5,-98.5 86.5,-98.5 86.5,-79.5 38.5,-79.5"/>
<text text-anchor="middle" x="62.5" y="-86.5" font-family="Helvetica,sans-Serif" font-size="10.00">Visitor</text>
</a>
</g>
</g>
<!-- Node2&#45;&gt;Node1 -->
<g id="edge1" class="edge">
<title>Node2&#45;&gt;Node1</title>
<path fill="none" stroke="midnightblue" d="M96.64,-85.04C115.23,-82.82 139.01,-79.98 160.89,-77.36"/>
<polygon fill="midnightblue" stroke="midnightblue" points="96.13,-81.58 86.62,-86.24 96.96,-88.53 96.13,-81.58"/>
</g>
<!-- Node3 -->
<g id="node3" class="node">
<title>Node3</title>
<g id="a_node3"><a xlink:href="class_p4_1_1_declaration_lookup.html" target="_top" xlink:title=" ">
<polygon fill="white" stroke="black" points="0,-41.5 0,-60.5 125,-60.5 125,-41.5 0,-41.5"/>
<text text-anchor="middle" x="62.5" y="-48.5" font-family="Helvetica,sans-Serif" font-size="10.00">P4::DeclarationLookup</text>
</a>
</g>
</g>
<!-- Node3&#45;&gt;Node1 -->
<g id="edge2" class="edge">
<title>Node3&#45;&gt;Node1</title>
<path fill="none" stroke="midnightblue" d="M135.59,-59.61C143.99,-60.62 152.5,-61.64 160.74,-62.62"/>
<polygon fill="midnightblue" stroke="midnightblue" points="135.77,-56.11 125.43,-58.4 134.94,-63.06 135.77,-56.11"/>
</g>
</g>
</svg>
