<?xml version="1.0" encoding="UTF-8" standalone="no"?>
<!DOCTYPE svg PUBLIC "-//W3C//DTD SVG 1.1//EN"
 "http://www.w3.org/Graphics/SVG/1.1/DTD/svg11.dtd">
<!-- Generated by graphviz version 2.43.0 (0)
 -->
<!-- Title: P4::CanBeImplicitlyCastConstraint Pages: 1 -->
<svg width="192pt" height="252pt"
 viewBox="0.00 0.00 192.00 252.00" xmlns="http://www.w3.org/2000/svg" xmlns:xlink="http://www.w3.org/1999/xlink">
<g id="graph0" class="graph" transform="scale(1 1) rotate(0) translate(4 248)">
<title>P4::CanBeImplicitlyCastConstraint</title>
<polygon fill="white" stroke="transparent" points="-4,4 -4,-248 188,-248 188,4 -4,4"/>
<!-- Node1 -->
<g id="node1" class="node">
<title>Node1</title>
<g id="a_node1"><a xlink:title="The right type can be implicitly cast to the left type.">
<polygon fill="#bfbfbf" stroke="black" points="0,-0.5 0,-19.5 184,-19.5 184,-0.5 0,-0.5"/>
<text text-anchor="middle" x="92" y="-7.5" font-family="Helvetica,sans-Serif" font-size="10.00">P4::CanBeImplicitlyCastConstraint</text>
</a>
</g>
</g>
<!-- Node2 -->
<g id="node2" class="node">
<title>Node2</title>
<g id="a_node2"><a xlink:href="class_p4_1_1_binary_constraint.html" target="_top" xlink:title="Base class for EqualityConstraint and CanBeImplicitlyCastConstraint.">
<polygon fill="white" stroke="black" points="34,-56.5 34,-75.5 150,-75.5 150,-56.5 34,-56.5"/>
<text text-anchor="middle" x="92" y="-63.5" font-family="Helvetica,sans-Serif" font-size="10.00">P4::BinaryConstraint</text>
</a>
</g>
</g>
<!-- Node2&#45;&gt;Node1 -->
<g id="edge1" class="edge">
<title>Node2&#45;&gt;Node1</title>
<path fill="none" stroke="midnightblue" d="M92,-45.8C92,-36.91 92,-26.78 92,-19.75"/>
<polygon fill="midnightblue" stroke="midnightblue" points="88.5,-46.08 92,-56.08 95.5,-46.08 88.5,-46.08"/>
</g>
<!-- Node3 -->
<g id="node3" class="node">
<title>Node3</title>
<g id="a_node3"><a xlink:href="class_p4_1_1_type_constraint.html" target="_top" xlink:title=" ">
<polygon fill="white" stroke="black" points="38.5,-112.5 38.5,-131.5 145.5,-131.5 145.5,-112.5 38.5,-112.5"/>
<text text-anchor="middle" x="92" y="-119.5" font-family="Helvetica,sans-Serif" font-size="10.00">P4::TypeConstraint</text>
</a>
</g>
</g>
<!-- Node3&#45;&gt;Node2 -->
<g id="edge2" class="edge">
<title>Node3&#45;&gt;Node2</title>
<path fill="none" stroke="midnightblue" d="M92,-101.8C92,-92.91 92,-82.78 92,-75.75"/>
<polygon fill="midnightblue" stroke="midnightblue" points="88.5,-102.08 92,-112.08 95.5,-102.08 88.5,-102.08"/>
</g>
<!-- Node4 -->
<g id="node4" class="node">
<title>Node4</title>
<g id="a_node4"><a xlink:href="class_i_has_db_print.html" target="_top" xlink:title=" ">
<polygon fill="white" stroke="black" points="12,-168.5 12,-187.5 86,-187.5 86,-168.5 12,-168.5"/>
<text text-anchor="middle" x="49" y="-175.5" font-family="Helvetica,sans-Serif" font-size="10.00">IHasDbPrint</text>
</a>
</g>
</g>
<!-- Node4&#45;&gt;Node3 -->
<g id="edge3" class="edge">
<title>Node4&#45;&gt;Node3</title>
<path fill="none" stroke="midnightblue" d="M62.42,-160.14C69.91,-150.74 78.94,-139.4 85.03,-131.75"/>
<polygon fill="midnightblue" stroke="midnightblue" points="59.59,-158.08 56.1,-168.08 65.07,-162.44 59.59,-158.08"/>
</g>
<!-- Node5 -->
<g id="node5" class="node">
<title>Node5</title>
<g id="a_node5"><a xlink:href="class_i_castable.html" target="_top" xlink:title=" ">
<polygon fill="white" stroke="black" points="104,-168.5 104,-187.5 166,-187.5 166,-168.5 104,-168.5"/>
<text text-anchor="middle" x="135" y="-175.5" font-family="Helvetica,sans-Serif" font-size="10.00">ICastable</text>
</a>
</g>
</g>
<!-- Node5&#45;&gt;Node3 -->
<g id="edge4" class="edge">
<title>Node5&#45;&gt;Node3</title>
<path fill="none" stroke="midnightblue" d="M121.58,-160.14C114.09,-150.74 105.06,-139.4 98.97,-131.75"/>
<polygon fill="midnightblue" stroke="midnightblue" points="118.93,-162.44 127.9,-168.08 124.41,-158.08 118.93,-162.44"/>
</g>
<!-- Node6 -->
<g id="node6" class="node">
<title>Node6</title>
<g id="a_node6"><a xlink:href="struct_r_t_t_i_1_1_base.html" target="_top" xlink:title=" ">
<polygon fill="white" stroke="black" points="101,-224.5 101,-243.5 169,-243.5 169,-224.5 101,-224.5"/>
<text text-anchor="middle" x="135" y="-231.5" font-family="Helvetica,sans-Serif" font-size="10.00">RTTI::Base</text>
</a>
</g>
</g>
<!-- Node6&#45;&gt;Node5 -->
<g id="edge5" class="edge">
<title>Node6&#45;&gt;Node5</title>
<path fill="none" stroke="midnightblue" d="M135,-213.8C135,-204.91 135,-194.78 135,-187.75"/>
<polygon fill="midnightblue" stroke="midnightblue" points="131.5,-214.08 135,-224.08 138.5,-214.08 131.5,-214.08"/>
</g>
</g>
</svg>
