<?xml version="1.0" encoding="UTF-8" standalone="no"?>
<!DOCTYPE svg PUBLIC "-//W3C//DTD SVG 1.1//EN"
 "http://www.w3.org/Graphics/SVG/1.1/DTD/svg11.dtd">
<!-- Generated by graphviz version 2.43.0 (0)
 -->
<!-- Title: P4Tools::P4Smith::BMv2::AbstractBMv2SmithTarget Pages: 1 -->
<svg width="841pt" height="86pt"
 viewBox="0.00 0.00 841.00 86.00" xmlns="http://www.w3.org/2000/svg" xmlns:xlink="http://www.w3.org/1999/xlink">
<g id="graph0" class="graph" transform="scale(1 1) rotate(0) translate(4 82)">
<title>P4Tools::P4Smith::BMv2::AbstractBMv2SmithTarget</title>
<!-- Node1 -->
<g id="Node000001" class="node">
<title>Node1</title>
<g id="a_Node000001"><a xlink:title=" ">
<polygon fill="#999999" stroke="#666666" points="644,-54 495,-54 495,-24 644,-24 644,-54"/>
<text text-anchor="start" x="503" y="-42" font-family="Helvetica,sans-Serif" font-size="10.00">P4Tools::P4Smith::BMv2</text>
<text text-anchor="middle" x="569.5" y="-31" font-family="Helvetica,sans-Serif" font-size="10.00">::AbstractBMv2SmithTarget</text>
</a>
</g>
</g>
<!-- Node5 -->
<g id="Node000005" class="node">
<title>Node5</title>
<g id="a_Node000005"><a xlink:href="class_p4_tools_1_1_p4_smith_1_1_b_mv2_1_1_bmv2_psa_smith_target.html" target="_top" xlink:title=" ">
<polygon fill="white" stroke="#bfbfbf" points="823.5,-78 689.5,-78 689.5,-48 823.5,-48 823.5,-78"/>
<text text-anchor="start" x="697.5" y="-66" font-family="Helvetica,sans-Serif" font-size="10.00">P4Tools::P4Smith::BMv2</text>
<text text-anchor="middle" x="756.5" y="-55" font-family="Helvetica,sans-Serif" font-size="10.00">::Bmv2PsaSmithTarget</text>
</a>
</g>
</g>
<!-- Node1&#45;&gt;Node5 -->
<g id="edge4_Node000001_Node000005" class="edge">
<title>Node1&#45;&gt;Node5</title>
<g id="a_edge4_Node000001_Node000005"><a xlink:title=" ">
<path fill="none" stroke="#63b8ff" d="M654.37,-49.88C666.08,-51.4 677.97,-52.94 689.29,-54.41"/>
<polygon fill="#63b8ff" stroke="#63b8ff" points="654.52,-46.37 644.15,-48.55 653.62,-53.31 654.52,-46.37"/>
</a>
</g>
</g>
<!-- Node6 -->
<g id="Node000006" class="node">
<title>Node6</title>
<g id="a_Node000006"><a xlink:href="class_p4_tools_1_1_p4_smith_1_1_b_mv2_1_1_bmv2_v1model_smith_target.html" target="_top" xlink:title=" ">
<polygon fill="white" stroke="#bfbfbf" points="833,-30 680,-30 680,0 833,0 833,-30"/>
<text text-anchor="start" x="688" y="-18" font-family="Helvetica,sans-Serif" font-size="10.00">P4Tools::P4Smith::BMv2</text>
<text text-anchor="middle" x="756.5" y="-7" font-family="Helvetica,sans-Serif" font-size="10.00">::Bmv2V1modelSmithTarget</text>
</a>
</g>
</g>
<!-- Node1&#45;&gt;Node6 -->
<g id="edge5_Node000001_Node000006" class="edge">
<title>Node1&#45;&gt;Node6</title>
<g id="a_edge5_Node000001_Node000006"><a xlink:title=" ">
<path fill="none" stroke="#63b8ff" d="M654.18,-28.14C662.78,-27.03 671.48,-25.9 679.99,-24.8"/>
<polygon fill="#63b8ff" stroke="#63b8ff" points="653.62,-24.69 644.15,-29.45 654.52,-31.63 653.62,-24.69"/>
</a>
</g>
</g>
<!-- Node2 -->
<g id="Node000002" class="node">
<title>Node2</title>
<g id="a_Node000002"><a xlink:href="class_p4_tools_1_1_p4_smith_1_1_smith_target.html" target="_top" xlink:title=" ">
<polygon fill="white" stroke="#bfbfbf" points="459,-48.5 295,-48.5 295,-29.5 459,-29.5 459,-48.5"/>
<text text-anchor="middle" x="377" y="-36.5" font-family="Helvetica,sans-Serif" font-size="10.00">P4Tools::P4Smith::SmithTarget</text>
</a>
</g>
</g>
<!-- Node2&#45;&gt;Node1 -->
<g id="edge1_Node000001_Node000002" class="edge">
<title>Node2&#45;&gt;Node1</title>
<g id="a_edge1_Node000001_Node000002"><a xlink:title=" ">
<path fill="none" stroke="#63b8ff" d="M469.12,-39C477.71,-39 486.35,-39 494.75,-39"/>
<polygon fill="#63b8ff" stroke="#63b8ff" points="469.07,-35.5 459.07,-39 469.07,-42.5 469.07,-35.5"/>
</a>
</g>
</g>
<!-- Node3 -->
<g id="Node000003" class="node">
<title>Node3</title>
<g id="a_Node000003"><a xlink:href="class_p4_tools_1_1_compiler_target.html" target="_top" xlink:title="Encapsulates the details of invoking the P4 compiler for a target device and architecture.">
<polygon fill="white" stroke="#666666" points="259,-48.5 125,-48.5 125,-29.5 259,-29.5 259,-48.5"/>
<text text-anchor="middle" x="192" y="-36.5" font-family="Helvetica,sans-Serif" font-size="10.00">P4Tools::CompilerTarget</text>
</a>
</g>
</g>
<!-- Node3&#45;&gt;Node2 -->
<g id="edge2_Node000002_Node000003" class="edge">
<title>Node3&#45;&gt;Node2</title>
<g id="a_edge2_Node000002_Node000003"><a xlink:title=" ">
<path fill="none" stroke="#63b8ff" d="M269.23,-39C277.65,-39 286.24,-39 294.72,-39"/>
<polygon fill="#63b8ff" stroke="#63b8ff" points="269.07,-35.5 259.07,-39 269.07,-42.5 269.07,-35.5"/>
</a>
</g>
</g>
<!-- Node4 -->
<g id="Node000004" class="node">
<title>Node4</title>
<g id="a_Node000004"><a xlink:href="class_p4_tools_1_1_target.html" target="_top" xlink:title=" ">
<polygon fill="white" stroke="#666666" points="89,-48.5 0,-48.5 0,-29.5 89,-29.5 89,-48.5"/>
<text text-anchor="middle" x="44.5" y="-36.5" font-family="Helvetica,sans-Serif" font-size="10.00">P4Tools::Target</text>
</a>
</g>
</g>
<!-- Node4&#45;&gt;Node3 -->
<g id="edge3_Node000003_Node000004" class="edge">
<title>Node4&#45;&gt;Node3</title>
<g id="a_edge3_Node000003_Node000004"><a xlink:title=" ">
<path fill="none" stroke="#63b8ff" d="M99.4,-39C107.67,-39 116.28,-39 124.77,-39"/>
<polygon fill="#63b8ff" stroke="#63b8ff" points="99.15,-35.5 89.15,-39 99.15,-42.5 99.15,-35.5"/>
</a>
</g>
</g>
</g>
</svg>
