<?xml version="1.0" encoding="UTF-8" standalone="no"?>
<!DOCTYPE svg PUBLIC "-//W3C//DTD SVG 1.1//EN"
 "http://www.w3.org/Graphics/SVG/1.1/DTD/svg11.dtd">
<!-- Generated by graphviz version 2.43.0 (0)
 -->
<!-- Title: Util::JsonObject Pages: 1 -->
<svg width="220pt" height="207pt"
 viewBox="0.00 0.00 220.00 207.00" xmlns="http://www.w3.org/2000/svg" xmlns:xlink="http://www.w3.org/1999/xlink">
<g id="graph0" class="graph" transform="scale(1 1) rotate(0) translate(4 203)">
<title>Util::JsonObject</title>
<polygon fill="white" stroke="transparent" points="-4,4 -4,-203 216,-203 216,4 -4,4"/>
<!-- Node1 -->
<g id="node1" class="node">
<title>Node1</title>
<g id="a_node1"><a xlink:title=" ">
<polygon fill="#bfbfbf" stroke="black" points="45,-0.5 45,-19.5 137,-19.5 137,-0.5 45,-0.5"/>
<text text-anchor="middle" x="91" y="-7.5" font-family="Helvetica,sans-Serif" font-size="10.00">Util::JsonObject</text>
</a>
</g>
</g>
<!-- Node2 -->
<g id="node2" class="node">
<title>Node2</title>
<g id="a_node2"><a xlink:href="class_util_1_1_i_json.html" target="_top" xlink:title=" ">
<polygon fill="white" stroke="black" points="2.5,-62 2.5,-81 65.5,-81 65.5,-62 2.5,-62"/>
<text text-anchor="middle" x="34" y="-69" font-family="Helvetica,sans-Serif" font-size="10.00">Util::IJson</text>
</a>
</g>
</g>
<!-- Node2&#45;&gt;Node1 -->
<g id="edge1" class="edge">
<title>Node2&#45;&gt;Node1</title>
<path fill="none" stroke="midnightblue" d="M49.33,-54.5C60.12,-43.24 74.14,-28.6 82.85,-19.51"/>
<polygon fill="midnightblue" stroke="midnightblue" points="46.56,-52.33 42.17,-61.98 51.61,-57.18 46.56,-52.33"/>
</g>
<!-- Node3 -->
<g id="node3" class="node">
<title>Node3</title>
<g id="a_node3"><a xlink:href="class_i_castable.html" target="_top" xlink:title=" ">
<polygon fill="white" stroke="black" points="3,-123.5 3,-142.5 65,-142.5 65,-123.5 3,-123.5"/>
<text text-anchor="middle" x="34" y="-130.5" font-family="Helvetica,sans-Serif" font-size="10.00">ICastable</text>
</a>
</g>
</g>
<!-- Node3&#45;&gt;Node2 -->
<g id="edge2" class="edge">
<title>Node3&#45;&gt;Node2</title>
<path fill="none" stroke="midnightblue" d="M34,-113.32C34,-102.5 34,-89.4 34,-81.01"/>
<polygon fill="midnightblue" stroke="midnightblue" points="30.5,-113.48 34,-123.48 37.5,-113.48 30.5,-113.48"/>
</g>
<!-- Node4 -->
<g id="node4" class="node">
<title>Node4</title>
<g id="a_node4"><a xlink:href="struct_r_t_t_i_1_1_base.html" target="_top" xlink:title=" ">
<polygon fill="white" stroke="black" points="0,-179.5 0,-198.5 68,-198.5 68,-179.5 0,-179.5"/>
<text text-anchor="middle" x="34" y="-186.5" font-family="Helvetica,sans-Serif" font-size="10.00">RTTI::Base</text>
</a>
</g>
</g>
<!-- Node4&#45;&gt;Node3 -->
<g id="edge3" class="edge">
<title>Node4&#45;&gt;Node3</title>
<path fill="none" stroke="midnightblue" d="M34,-168.8C34,-159.91 34,-149.78 34,-142.75"/>
<polygon fill="midnightblue" stroke="midnightblue" points="30.5,-169.08 34,-179.08 37.5,-169.08 30.5,-169.08"/>
</g>
<!-- Node5 -->
<g id="node5" class="node">
<title>Node5</title>
<g id="a_node5"><a xlink:href="classordered__map.html" target="_top" xlink:title=" ">
<polygon fill="white" stroke="black" points="84,-56.5 84,-86.5 212,-86.5 212,-56.5 84,-56.5"/>
<text text-anchor="start" x="92" y="-74.5" font-family="Helvetica,sans-Serif" font-size="10.00">ordered_map&lt; cstring,</text>
<text text-anchor="middle" x="148" y="-63.5" font-family="Helvetica,sans-Serif" font-size="10.00"> IJson * &gt;</text>
</a>
</g>
</g>
<!-- Node5&#45;&gt;Node1 -->
<g id="edge4" class="edge">
<title>Node5&#45;&gt;Node1</title>
<path fill="none" stroke="midnightblue" d="M127.41,-49C117.69,-38.86 106.65,-27.33 99.29,-19.66"/>
<polygon fill="midnightblue" stroke="midnightblue" points="125.05,-51.6 134.49,-56.4 130.1,-46.76 125.05,-51.6"/>
</g>
</g>
</svg>
