<?xml version="1.0" encoding="UTF-8" standalone="no"?>
<!DOCTYPE svg PUBLIC "-//W3C//DTD SVG 1.1//EN"
 "http://www.w3.org/Graphics/SVG/1.1/DTD/svg11.dtd">
<!-- Generated by graphviz version 2.43.0 (0)
 -->
<!-- Title: P4::P4WriteContext Pages: 1 -->
<svg width="414pt" height="249pt"
 viewBox="0.00 0.00 414.00 249.00" xmlns="http://www.w3.org/2000/svg" xmlns:xlink="http://www.w3.org/1999/xlink">

<svg id="main" version="1.1" xmlns="http://www.w3.org/2000/svg" xmlns:xlink="http://www.w3.org/1999/xlink" xml:space="preserve">

<style type="text/css"><![CDATA[
.node, .edge {opacity: 0.7;}
.node.selected, .edge.selected {opacity: 1;}
.edge:hover path { stroke: red; }
.edge:hover polygon { stroke: red; fill: red; }
]]></style>
<script type="application/ecmascript" xlink:href="svg.min.js"/>
<svg id="graph" class="graph">
<g id="graph0" class="graph" transform="scale(1 1) rotate(0) translate(4 245)">
<title>P4::P4WriteContext</title>
<!-- Node1 -->
<g id="Node000001" class="node">
<title>Node1</title>
<g id="a_Node000001"><a xlink:title=" ">
<polygon fill="#999999" stroke="#666666" points="213,-130 102,-130 102,-111 213,-111 213,-130"/>
<text text-anchor="middle" x="157.5" y="-118" font-family="Helvetica,sans-Serif" font-size="10.00">P4::P4WriteContext</text>
</a>
</g>
</g>
<!-- Node3 -->
<g id="Node000003" class="node">
<title>Node3</title>
<g id="a_Node000003"><a xlink:href="class_p4_1_1_compute_def_use.html" target="_top" xlink:title="Compute defuse info within P4Parser and P4Control blocks in the midend.">
<polygon fill="white" stroke="#666666" points="385,-241 270,-241 270,-222 385,-222 385,-241"/>
<text text-anchor="middle" x="327.5" y="-229" font-family="Helvetica,sans-Serif" font-size="10.00">P4::ComputeDefUse</text>
</a>
</g>
</g>
<!-- Node1&#45;&gt;Node3 -->
<g id="edge2_Node000001_Node000003" class="edge">
<title>Node1&#45;&gt;Node3</title>
<g id="a_edge2_Node000001_Node000003"><a xlink:title=" ">
<path fill="none" stroke="#63b8ff" d="M170.81,-138.33C186.47,-159.59 215.52,-194.61 249,-213.5 255.38,-217.1 262.43,-219.98 269.62,-222.28"/>
<polygon fill="#63b8ff" stroke="#63b8ff" points="173.62,-136.24 164.95,-130.15 167.93,-140.32 173.62,-136.24"/>
</a>
</g>
</g>
<!-- Node4 -->
<g id="Node000004" class="node">
<title>Node4</title>
<g id="a_Node000004"><a xlink:href="class_p4_1_1_do_local_copy_propagation.html" target="_top" xlink:title=" ">
<polygon fill="white" stroke="#666666" points="406,-204 249,-204 249,-185 406,-185 406,-204"/>
<text text-anchor="middle" x="327.5" y="-192" font-family="Helvetica,sans-Serif" font-size="10.00">P4::DoLocalCopyPropagation</text>
</a>
</g>
</g>
<!-- Node1&#45;&gt;Node4 -->
<g id="edge3_Node000001_Node000004" class="edge">
<title>Node1&#45;&gt;Node4</title>
<g id="a_edge3_Node000001_Node000004"><a xlink:title=" ">
<path fill="none" stroke="#8b1a1a" d="M179.37,-136.16C197.06,-148.75 223.55,-166 249,-176.5 257.04,-179.82 265.82,-182.59 274.49,-184.89"/>
<polygon fill="#8b1a1a" stroke="#8b1a1a" points="181.12,-133.11 170.97,-130.07 177.01,-138.78 181.12,-133.11"/>
</a>
</g>
</g>
<!-- Node5 -->
<g id="Node000005" class="node">
<title>Node5</title>
<g id="a_Node000005"><a xlink:href="class_p4_1_1_do_simplify_expressions.html" target="_top" xlink:title="Convert expressions so that each expression contains at most one side effect.">
<polygon fill="white" stroke="#666666" points="400.5,-167 254.5,-167 254.5,-148 400.5,-148 400.5,-167"/>
<text text-anchor="middle" x="327.5" y="-155" font-family="Helvetica,sans-Serif" font-size="10.00">P4::DoSimplifyExpressions</text>
</a>
</g>
</g>
<!-- Node1&#45;&gt;Node5 -->
<g id="edge4_Node000001_Node000005" class="edge">
<title>Node1&#45;&gt;Node5</title>
<g id="a_edge4_Node000001_Node000005"><a xlink:title=" ">
<path fill="none" stroke="#8b1a1a" d="M211.72,-132.22C234.72,-137.29 261.3,-143.14 283.09,-147.94"/>
<polygon fill="#8b1a1a" stroke="#8b1a1a" points="212.28,-128.76 201.76,-130.03 210.78,-135.6 212.28,-128.76"/>
</a>
</g>
</g>
<!-- Node6 -->
<g id="Node000006" class="node">
<title>Node6</title>
<g id="a_Node000006"><a xlink:href="class_p4_1_1_replace_headers.html" target="_top" xlink:title=" ">
<polygon fill="white" stroke="#666666" points="384.5,-130 270.5,-130 270.5,-111 384.5,-111 384.5,-130"/>
<text text-anchor="middle" x="327.5" y="-118" font-family="Helvetica,sans-Serif" font-size="10.00">P4::ReplaceHeaders</text>
</a>
</g>
</g>
<!-- Node1&#45;&gt;Node6 -->
<g id="edge5_Node000001_Node000006" class="edge">
<title>Node1&#45;&gt;Node6</title>
<g id="a_edge5_Node000001_Node000006"><a xlink:title=" ">
<path fill="none" stroke="#8b1a1a" d="M223.09,-120.5C238.62,-120.5 255.09,-120.5 270.21,-120.5"/>
<polygon fill="#8b1a1a" stroke="#8b1a1a" points="223.04,-117 213.04,-120.5 223.04,-124 223.04,-117"/>
</a>
</g>
</g>
<!-- Node7 -->
<g id="Node000007" class="node">
<title>Node7</title>
<g id="a_Node000007"><a xlink:href="class_p4_1_1_replace_index_refs.html" target="_top" xlink:title=" ">
<polygon fill="white" stroke="#bfbfbf" points="388.5,-93 266.5,-93 266.5,-74 388.5,-74 388.5,-93"/>
<text text-anchor="middle" x="327.5" y="-81" font-family="Helvetica,sans-Serif" font-size="10.00">P4::ReplaceIndexRefs</text>
</a>
</g>
</g>
<!-- Node1&#45;&gt;Node7 -->
<g id="edge6_Node000001_Node000007" class="edge">
<title>Node1&#45;&gt;Node7</title>
<g id="a_edge6_Node000001_Node000007"><a xlink:title=" ">
<path fill="none" stroke="#8b1a1a" d="M211.72,-108.78C234.72,-103.71 261.3,-97.86 283.09,-93.06"/>
<polygon fill="#8b1a1a" stroke="#8b1a1a" points="210.78,-105.4 201.76,-110.97 212.28,-112.24 210.78,-105.4"/>
</a>
</g>
</g>
<!-- Node8 -->
<g id="Node000008" class="node">
<title>Node8</title>
<g id="a_Node000008"><a xlink:href="class_p4_1_1_replace_log_msg.html" target="_top" xlink:title=" ">
<polygon fill="white" stroke="#666666" points="383,-56 272,-56 272,-37 383,-37 383,-56"/>
<text text-anchor="middle" x="327.5" y="-44" font-family="Helvetica,sans-Serif" font-size="10.00">P4::ReplaceLogMsg</text>
</a>
</g>
</g>
<!-- Node1&#45;&gt;Node8 -->
<g id="edge7_Node000001_Node000008" class="edge">
<title>Node1&#45;&gt;Node8</title>
<g id="a_edge7_Node000001_Node000008"><a xlink:title=" ">
<path fill="none" stroke="#8b1a1a" d="M179.37,-104.84C197.06,-92.25 223.55,-75 249,-64.5 257.04,-61.18 265.82,-58.41 274.49,-56.11"/>
<polygon fill="#8b1a1a" stroke="#8b1a1a" points="177.01,-102.22 170.97,-110.93 181.12,-107.89 177.01,-102.22"/>
</a>
</g>
</g>
<!-- Node9 -->
<g id="Node000009" class="node">
<title>Node9</title>
<g id="a_Node000009"><a xlink:href="class_p4_1_1_replace_structs.html" target="_top" xlink:title=" ">
<polygon fill="white" stroke="#666666" points="381,-19 274,-19 274,0 381,0 381,-19"/>
<text text-anchor="middle" x="327.5" y="-7" font-family="Helvetica,sans-Serif" font-size="10.00">P4::ReplaceStructs</text>
</a>
</g>
</g>
<!-- Node1&#45;&gt;Node9 -->
<g id="edge8_Node000001_Node000009" class="edge">
<title>Node1&#45;&gt;Node9</title>
<g id="a_edge8_Node000001_Node000009"><a xlink:title=" ">
<path fill="none" stroke="#8b1a1a" d="M170.81,-102.67C186.47,-81.41 215.52,-46.39 249,-27.5 256.58,-23.22 265.12,-19.96 273.69,-17.48"/>
<polygon fill="#8b1a1a" stroke="#8b1a1a" points="167.93,-100.68 164.95,-110.85 173.62,-104.76 167.93,-100.68"/>
</a>
</g>
</g>
<!-- Node2 -->
<g id="Node000002" class="node">
<title>Node2</title>
<g id="a_Node000002"><a xlink:href="class_p4_1_1_visitor.html" target="_top" xlink:title=" ">
<polygon fill="white" stroke="#bfbfbf" points="66,-130 0,-130 0,-111 66,-111 66,-130"/>
<text text-anchor="middle" x="33" y="-118" font-family="Helvetica,sans-Serif" font-size="10.00">P4::Visitor</text>
</a>
</g>
</g>
<!-- Node2&#45;&gt;Node1 -->
<g id="edge1_Node000001_Node000002" class="edge">
<title>Node2&#45;&gt;Node1</title>
<g id="a_edge1_Node000001_Node000002"><a xlink:title=" ">
<path fill="none" stroke="#63b8ff" d="M76.28,-120.5C84.51,-120.5 93.24,-120.5 101.79,-120.5"/>
<polygon fill="#63b8ff" stroke="#63b8ff" points="76.19,-117 66.19,-120.5 76.19,-124 76.19,-117"/>
</a>
</g>
</g>
</g>
</svg>
</svg>

<style type='text/css'>
<![CDATA[
[data-mouse-over-selected='false'] { opacity: 0.7; }
[data-mouse-over-selected='true']  { opacity: 1.0; }
]]>
</style>
<script type="application/ecmascript"><![CDATA[
document.addEventListener('DOMContentLoaded', (event) => {
  highlightEdges();
  highlightAdjacentNodes();
});
]]></script>
</svg>
