<?xml version="1.0" encoding="UTF-8" standalone="no"?>
<!DOCTYPE svg PUBLIC "-//W3C//DTD SVG 1.1//EN"
 "http://www.w3.org/Graphics/SVG/1.1/DTD/svg11.dtd">
<!-- Generated by graphviz version 2.43.0 (0)
 -->
<!-- Title: P4::Modifier Pages: 1 -->
<svg width="573pt" height="144pt"
 viewBox="0.00 0.00 573.00 144.00" xmlns="http://www.w3.org/2000/svg" xmlns:xlink="http://www.w3.org/1999/xlink">
<g id="graph0" class="graph" transform="scale(1 1) rotate(0) translate(4 140)">
<title>P4::Modifier</title>
<!-- Node1 -->
<g id="Node000001" class="node">
<title>Node1</title>
<g id="a_Node000001"><a xlink:title=" ">
<polygon fill="#999999" stroke="#666666" points="176,-80 102,-80 102,-61 176,-61 176,-80"/>
<text text-anchor="middle" x="139" y="-68" font-family="Helvetica,sans-Serif" font-size="10.00">P4::Modifier</text>
</a>
</g>
</g>
<!-- Node3 -->
<g id="Node000003" class="node">
<title>Node3</title>
<g id="a_Node000003"><a xlink:href="class_p4_1_1_check_table_size.html" target="_top" xlink:title="Checks some possible misuses of the table size property.">
<polygon fill="white" stroke="#666666" points="345,-136 235,-136 235,-117 345,-117 345,-136"/>
<text text-anchor="middle" x="290" y="-124" font-family="Helvetica,sans-Serif" font-size="10.00">P4::CheckTableSize</text>
</a>
</g>
</g>
<!-- Node1&#45;&gt;Node3 -->
<g id="edge2_Node000001_Node000003" class="edge">
<title>Node1&#45;&gt;Node3</title>
<g id="a_edge2_Node000001_Node000003"><a xlink:title=" ">
<path fill="none" stroke="#63b8ff" d="M164.22,-85.29C177.86,-93.09 195.43,-102.31 212,-108.5 220.74,-111.77 230.28,-114.57 239.56,-116.92"/>
<polygon fill="#63b8ff" stroke="#63b8ff" points="165.87,-82.19 155.47,-80.16 162.33,-88.23 165.87,-82.19"/>
</a>
</g>
</g>
<!-- Node4 -->
<g id="Node000004" class="node">
<title>Node4</title>
<g id="a_Node000004"><a xlink:href="class_p4_1_1_do_single_argument_select.html" target="_top" xlink:title=" ">
<polygon fill="white" stroke="#666666" points="368,-99 212,-99 212,-80 368,-80 368,-99"/>
<text text-anchor="middle" x="290" y="-87" font-family="Helvetica,sans-Serif" font-size="10.00">P4::DoSingleArgumentSelect</text>
</a>
</g>
</g>
<!-- Node1&#45;&gt;Node4 -->
<g id="edge3_Node000001_Node000004" class="edge">
<title>Node1&#45;&gt;Node4</title>
<g id="a_edge3_Node000001_Node000004"><a xlink:title=" ">
<path fill="none" stroke="#63b8ff" d="M186.25,-76.4C195.2,-77.54 204.8,-78.76 214.39,-79.99"/>
<polygon fill="#63b8ff" stroke="#63b8ff" points="186.43,-72.89 176.07,-75.1 185.55,-79.84 186.43,-72.89"/>
</a>
</g>
</g>
<!-- Node5 -->
<g id="Node000005" class="node">
<title>Node5</title>
<g id="a_Node000005"><a xlink:href="class_p4_1_1_parse_annotations.html" target="_top" xlink:title=" ">
<polygon fill="white" stroke="#bfbfbf" points="349.5,-62 230.5,-62 230.5,-43 349.5,-43 349.5,-62"/>
<text text-anchor="middle" x="290" y="-50" font-family="Helvetica,sans-Serif" font-size="10.00">P4::ParseAnnotations</text>
</a>
</g>
</g>
<!-- Node1&#45;&gt;Node5 -->
<g id="edge4_Node000001_Node000005" class="edge">
<title>Node1&#45;&gt;Node5</title>
<g id="a_edge4_Node000001_Node000005"><a xlink:title=" ">
<path fill="none" stroke="#63b8ff" d="M186.37,-64.9C200.27,-63.22 215.72,-61.35 230.31,-59.59"/>
<polygon fill="#63b8ff" stroke="#63b8ff" points="185.58,-61.47 176.07,-66.14 186.42,-68.42 185.58,-61.47"/>
</a>
</g>
</g>
<!-- Node9 -->
<g id="Node000009" class="node">
<title>Node9</title>
<g id="a_Node000009"><a xlink:href="class_p4_1_1_switch_add_default.html" target="_top" xlink:title=" ">
<polygon fill="white" stroke="#bfbfbf" points="351,-25 229,-25 229,-6 351,-6 351,-25"/>
<text text-anchor="middle" x="290" y="-13" font-family="Helvetica,sans-Serif" font-size="10.00">P4::SwitchAddDefault</text>
</a>
</g>
</g>
<!-- Node1&#45;&gt;Node9 -->
<g id="edge8_Node000001_Node000009" class="edge">
<title>Node1&#45;&gt;Node9</title>
<g id="a_edge8_Node000001_Node000009"><a xlink:title=" ">
<path fill="none" stroke="#63b8ff" d="M164.54,-55.98C178.15,-48.42 195.6,-39.53 212,-33.5 220.89,-30.23 230.58,-27.42 240,-25.05"/>
<polygon fill="#63b8ff" stroke="#63b8ff" points="162.75,-52.97 155.79,-60.95 166.21,-59.06 162.75,-52.97"/>
</a>
</g>
</g>
<!-- Node2 -->
<g id="Node000002" class="node">
<title>Node2</title>
<g id="a_Node000002"><a xlink:href="class_p4_1_1_visitor.html" target="_top" xlink:title=" ">
<polygon fill="white" stroke="#bfbfbf" points="66,-80 0,-80 0,-61 66,-61 66,-80"/>
<text text-anchor="middle" x="33" y="-68" font-family="Helvetica,sans-Serif" font-size="10.00">P4::Visitor</text>
</a>
</g>
</g>
<!-- Node2&#45;&gt;Node1 -->
<g id="edge1_Node000001_Node000002" class="edge">
<title>Node2&#45;&gt;Node1</title>
<g id="a_edge1_Node000001_Node000002"><a xlink:title=" ">
<path fill="none" stroke="#63b8ff" d="M76.2,-70.5C84.71,-70.5 93.59,-70.5 101.88,-70.5"/>
<polygon fill="#63b8ff" stroke="#63b8ff" points="76.05,-67 66.05,-70.5 76.05,-74 76.05,-67"/>
</a>
</g>
</g>
<!-- Node6 -->
<g id="Node000006" class="node">
<title>Node6</title>
<g id="a_Node000006"><a xlink:href="class_b_m_v2_1_1_parse_annotations.html" target="_top" xlink:title="Parses BMV2&#45;specific annotations.">
<polygon fill="white" stroke="#666666" points="552.5,-105 416.5,-105 416.5,-86 552.5,-86 552.5,-105"/>
<text text-anchor="middle" x="484.5" y="-93" font-family="Helvetica,sans-Serif" font-size="10.00">BMV2::ParseAnnotations</text>
</a>
</g>
</g>
<!-- Node5&#45;&gt;Node6 -->
<g id="edge5_Node000005_Node000006" class="edge">
<title>Node5&#45;&gt;Node6</title>
<g id="a_edge5_Node000005_Node000006"><a xlink:title=" ">
<path fill="none" stroke="#63b8ff" d="M343.77,-64.29C374.32,-71.11 412.26,-79.59 440.9,-85.98"/>
<polygon fill="#63b8ff" stroke="#63b8ff" points="344.24,-60.81 333.72,-62.04 342.72,-67.64 344.24,-60.81"/>
</a>
</g>
</g>
<!-- Node7 -->
<g id="Node000007" class="node">
<title>Node7</title>
<g id="a_Node000007"><a xlink:href="class_p4_1_1_control_plane_a_p_i_1_1_parse_p4_runtime_annotations.html" target="_top" xlink:title="Parses P4Runtime&#45;specific annotations.">
<polygon fill="white" stroke="#666666" points="565,-67.5 404,-67.5 404,-37.5 565,-37.5 565,-67.5"/>
<text text-anchor="start" x="412" y="-55.5" font-family="Helvetica,sans-Serif" font-size="10.00">P4::ControlPlaneAPI</text>
<text text-anchor="middle" x="484.5" y="-44.5" font-family="Helvetica,sans-Serif" font-size="10.00">::ParseP4RuntimeAnnotations</text>
</a>
</g>
</g>
<!-- Node5&#45;&gt;Node7 -->
<g id="edge6_Node000005_Node000007" class="edge">
<title>Node5&#45;&gt;Node7</title>
<g id="a_edge6_Node000005_Node000007"><a xlink:title=" ">
<path fill="none" stroke="#63b8ff" d="M359.78,-52.5C374.09,-52.5 389.29,-52.5 403.95,-52.5"/>
<polygon fill="#63b8ff" stroke="#63b8ff" points="359.54,-49 349.54,-52.5 359.54,-56 359.54,-49"/>
</a>
</g>
</g>
<!-- Node8 -->
<g id="Node000008" class="node">
<title>Node8</title>
<g id="a_Node000008"><a xlink:href="class_t_c_1_1_parse_t_c_annotations.html" target="_top" xlink:title=" ">
<polygon fill="white" stroke="#bfbfbf" points="550,-19 419,-19 419,0 550,0 550,-19"/>
<text text-anchor="middle" x="484.5" y="-7" font-family="Helvetica,sans-Serif" font-size="10.00">TC::ParseTCAnnotations</text>
</a>
</g>
</g>
<!-- Node5&#45;&gt;Node8 -->
<g id="edge7_Node000005_Node000008" class="edge">
<title>Node5&#45;&gt;Node8</title>
<g id="a_edge7_Node000005_Node000008"><a xlink:title=" ">
<path fill="none" stroke="#63b8ff" d="M343.77,-40.71C374.32,-33.89 412.26,-25.41 440.9,-19.02"/>
<polygon fill="#63b8ff" stroke="#63b8ff" points="342.72,-37.36 333.72,-42.96 344.24,-44.19 342.72,-37.36"/>
</a>
</g>
</g>
</g>
</svg>
