<?xml version="1.0" encoding="UTF-8" standalone="no"?>
<!DOCTYPE svg PUBLIC "-//W3C//DTD SVG 1.1//EN"
 "http://www.w3.org/Graphics/SVG/1.1/DTD/svg11.dtd">
<!-- Generated by graphviz version 2.43.0 (0)
 -->
<!-- Title: Logging::PassManager Pages: 1 -->
<!--zoomable 360 -->

<svg id="main" version="1.1" xmlns="http://www.w3.org/2000/svg" xmlns:xlink="http://www.w3.org/1999/xlink" xml:space="preserve" onload="init(evt)">

<style type="text/css"><![CDATA[
.node, .edge {opacity: 0.7;}
.node.selected, .edge.selected {opacity: 1;}
.edge:hover path { stroke: red; }
.edge:hover polygon { stroke: red; fill: red; }
]]></style>

<defs>
  <circle id="rim" cx="0" cy="0" r="7"/>
  <circle id="rim2" cx="0" cy="0" r="3.5"/>
  <g id="zoomPlus">
    <use xlink:href="#rim" fill="#404040"><set attributeName="fill" to="#808080" begin="zoomplus.mouseover" end="zoomplus.mouseout"/></use>
    <path d="M-4,0h8M0,-4v8" fill="none" stroke="white" stroke-width="1.5" pointer-events="none"/>
  </g>
  <g id="zoomMin">
    <use xlink:href="#rim" fill="#404040"><set attributeName="fill" to="#808080" begin="zoomminus.mouseover" end="zoomminus.mouseout"/></use>
    <path d="M-4,0h8" fill="none" stroke="white" stroke-width="1.5" pointer-events="none"/>
  </g>
  <g id="arrowUp" transform="translate(30 24)">
    <use xlink:href="#rim"/>
    <path pointer-events="none" fill="none" stroke="white" stroke-width="1.5" d="M0,-3.0v7 M-2.5,-0.5L0,-3.0L2.5,-0.5"/>
  </g>
  <g id="arrowRight" transform="rotate(90) translate(36 -43)">
    <use xlink:href="#rim"/>
    <path pointer-events="none" fill="none" stroke="white" stroke-width="1.5" d="M0,-3.0v7 M-2.5,-0.5L0,-3.0L2.5,-0.5"/>
  </g>
  <g id="arrowDown" transform="rotate(180) translate(-30 -48)">
    <use xlink:href="#rim"/>
    <path pointer-events="none" fill="none" stroke="white" stroke-width="1.5" d="M0,-3.0v7 M-2.5,-0.5L0,-3.0L2.5,-0.5"/>
  </g>
  <g id="arrowLeft" transform="rotate(270) translate(-36 17)">
    <use xlink:href="#rim"/>
    <path pointer-events="none" fill="none" stroke="white" stroke-width="1.5" d="M0,-3.0v7 M-2.5,-0.5L0,-3.0L2.5,-0.5"/>
  </g>
  <g id="resetDef">
    <use xlink:href="#rim2" fill="#404040"><set attributeName="fill" to="#808080" begin="reset.mouseover" end="reset.mouseout"/></use>
  </g>
</defs>
<script type="application/ecmascript">
var viewWidth = 704;
var viewHeight = 360;
var sectionId = 'dynsection-0';
</script>
<script type="application/ecmascript" xlink:href="svg.min.js"/>
<svg id="graph" class="graph">
<g id="viewport">
<title>Logging::PassManager</title>
<!-- Node1 -->
<g id="Node000001" class="node">
<title>Node1</title>
<g id="a_Node000001"><a xlink:title=" ">
<polygon fill="#999999" stroke="#666666" points="481,-185 356,-185 356,-166 481,-166 481,-185"/>
<text text-anchor="middle" x="418.5" y="-173" font-family="Helvetica,sans-Serif" font-size="10.00">Logging::PassManager</text>
</a>
</g>
</g>
<!-- Node5 -->
<g id="Node000005" class="node">
<title>Node5</title>
<g id="a_Node000005"><a xlink:href="class_alias.html" target="_top" xlink:title=" ">
<polygon fill="white" stroke="#666666" points="627,-352 586,-352 586,-333 627,-333 627,-352"/>
<text text-anchor="middle" x="606.5" y="-340" font-family="Helvetica,sans-Serif" font-size="10.00">Alias</text>
</a>
</g>
</g>
<!-- Node1&#45;&gt;Node5 -->
<g id="edge5_Node000001_Node000005" class="edge">
<title>Node1&#45;&gt;Node5</title>
<g id="a_edge5_Node000001_Node000005"><a xlink:title=" ">
<path fill="none" stroke="#63b8ff" d="M426.35,-194.67C438.94,-226.97 468.96,-291.91 517,-324.5 537.63,-338.49 566.77,-342.05 585.9,-342.73"/>
<polygon fill="#63b8ff" stroke="#63b8ff" points="429.53,-193.19 422.75,-185.06 422.98,-195.65 429.53,-193.19"/>
</a>
</g>
</g>
<!-- Node6 -->
<g id="Node000006" class="node">
<title>Node6</title>
<g id="a_Node000006"><a xlink:href="class_allocate_parser_checksums.html" target="_top" xlink:title=" ">
<polygon fill="white" stroke="#bfbfbf" points="678,-315 535,-315 535,-296 678,-296 678,-315"/>
<text text-anchor="middle" x="606.5" y="-303" font-family="Helvetica,sans-Serif" font-size="10.00">AllocateParserChecksums</text>
</a>
</g>
</g>
<!-- Node1&#45;&gt;Node6 -->
<g id="edge6_Node000001_Node000006" class="edge">
<title>Node1&#45;&gt;Node6</title>
<g id="a_edge6_Node000001_Node000006"><a xlink:title=" ">
<path fill="none" stroke="#63b8ff" d="M430.04,-193.82C445.62,-219.16 477.3,-264.37 517,-287.5 522.83,-290.89 529.19,-293.66 535.75,-295.9"/>
<polygon fill="#63b8ff" stroke="#63b8ff" points="433,-191.96 424.87,-185.18 426.99,-195.55 433,-191.96"/>
</a>
</g>
</g>
<!-- Node7 -->
<g id="Node000007" class="node">
<title>Node7</title>
<g id="a_Node000007"><a xlink:href="class_b_f_n_1_1_process_parde.html" target="_top" xlink:title=" ">
<polygon fill="white" stroke="#666666" points="660,-278 553,-278 553,-259 660,-259 660,-278"/>
<text text-anchor="middle" x="606.5" y="-266" font-family="Helvetica,sans-Serif" font-size="10.00">BFN::ProcessParde</text>
</a>
</g>
</g>
<!-- Node1&#45;&gt;Node7 -->
<g id="edge7_Node000001_Node000007" class="edge">
<title>Node1&#45;&gt;Node7</title>
<g id="a_edge7_Node000001_Node000007"><a xlink:title=" ">
<path fill="none" stroke="#63b8ff" d="M436.2,-192.27C454.45,-209.58 485.33,-236.04 517,-250.5 528.13,-255.58 540.69,-259.23 552.78,-261.86"/>
<polygon fill="#63b8ff" stroke="#63b8ff" points="438.37,-189.49 428.75,-185.04 433.49,-194.51 438.37,-189.49"/>
</a>
</g>
</g>
<!-- Node8 -->
<g id="Node000008" class="node">
<title>Node8</title>
<g id="a_Node000008"><a xlink:href="group___deparser_copy_opt.html#class_deparser_copy_opt" target="_top" xlink:title="Top level PassManager.">
<polygon fill="white" stroke="#666666" points="658,-241 555,-241 555,-222 658,-222 658,-241"/>
<text text-anchor="middle" x="606.5" y="-229" font-family="Helvetica,sans-Serif" font-size="10.00">DeparserCopyOpt</text>
</a>
</g>
</g>
<!-- Node1&#45;&gt;Node8 -->
<g id="edge8_Node000001_Node000008" class="edge">
<title>Node1&#45;&gt;Node8</title>
<g id="a_edge8_Node000001_Node000008"><a xlink:title=" ">
<path fill="none" stroke="#63b8ff" d="M450.15,-189C469.12,-196.97 494.14,-206.78 517,-213.5 529.03,-217.04 542.19,-220.13 554.59,-222.69"/>
<polygon fill="#63b8ff" stroke="#63b8ff" points="451.39,-185.73 440.82,-185.03 448.65,-192.17 451.39,-185.73"/>
</a>
</g>
</g>
<!-- Node9 -->
<g id="Node000009" class="node">
<title>Node9</title>
<g id="a_Node000009"><a xlink:href="class_find_dependency_graph.html" target="_top" xlink:title=" ">
<polygon fill="white" stroke="#bfbfbf" points="670,-204 543,-204 543,-185 670,-185 670,-204"/>
<text text-anchor="middle" x="606.5" y="-192" font-family="Helvetica,sans-Serif" font-size="10.00">FindDependencyGraph</text>
</a>
</g>
</g>
<!-- Node1&#45;&gt;Node9 -->
<g id="edge9_Node000001_Node000009" class="edge">
<title>Node1&#45;&gt;Node9</title>
<g id="a_edge9_Node000001_Node000009"><a xlink:title=" ">
<path fill="none" stroke="#63b8ff" d="M491.54,-182.86C508.42,-184.58 526.28,-186.41 542.72,-188.09"/>
<polygon fill="#63b8ff" stroke="#63b8ff" points="491.48,-179.33 481.18,-181.8 490.77,-186.3 491.48,-179.33"/>
</a>
</g>
</g>
<!-- Node10 -->
<g id="Node000010" class="node">
<title>Node10</title>
<g id="a_Node000010"><a xlink:href="class_log_flexible_packing.html" target="_top" xlink:title=" ">
<polygon fill="white" stroke="#bfbfbf" points="661.5,-167 551.5,-167 551.5,-148 661.5,-148 661.5,-167"/>
<text text-anchor="middle" x="606.5" y="-155" font-family="Helvetica,sans-Serif" font-size="10.00">LogFlexiblePacking</text>
</a>
</g>
</g>
<!-- Node1&#45;&gt;Node10 -->
<g id="edge10_Node000001_Node000010" class="edge">
<title>Node1&#45;&gt;Node10</title>
<g id="a_edge10_Node000001_Node000010"><a xlink:title=" ">
<path fill="none" stroke="#63b8ff" d="M491.19,-168.56C511.23,-166.62 532.66,-164.55 551.48,-162.73"/>
<polygon fill="#63b8ff" stroke="#63b8ff" points="490.79,-165.08 481.18,-169.53 491.47,-172.05 490.79,-165.08"/>
</a>
</g>
</g>
<!-- Node11 -->
<g id="Node000011" class="node">
<title>Node11</title>
<g id="a_Node000011"><a xlink:href="class_lower_parser.html" target="_top" xlink:title=" ">
<polygon fill="white" stroke="#666666" points="644.5,-130 568.5,-130 568.5,-111 644.5,-111 644.5,-130"/>
<text text-anchor="middle" x="606.5" y="-118" font-family="Helvetica,sans-Serif" font-size="10.00">LowerParser</text>
</a>
</g>
</g>
<!-- Node1&#45;&gt;Node11 -->
<g id="edge11_Node000001_Node000011" class="edge">
<title>Node1&#45;&gt;Node11</title>
<g id="a_edge11_Node000001_Node000011"><a xlink:title=" ">
<path fill="none" stroke="#63b8ff" d="M450.92,-162.09C469.82,-154.4 494.49,-145.01 517,-138.5 533.57,-133.71 552.24,-129.71 568.14,-126.71"/>
<polygon fill="#63b8ff" stroke="#63b8ff" points="449.52,-158.88 441.61,-165.93 452.19,-165.35 449.52,-158.88"/>
</a>
</g>
</g>
<!-- Node12 -->
<g id="Node000012" class="node">
<title>Node12</title>
<g id="a_Node000012"><a xlink:href="class_p_h_v___analysis_pass.html" target="_top" xlink:title=" ">
<polygon fill="white" stroke="#666666" points="659,-93 554,-93 554,-74 659,-74 659,-93"/>
<text text-anchor="middle" x="606.5" y="-81" font-family="Helvetica,sans-Serif" font-size="10.00">PHV_AnalysisPass</text>
</a>
</g>
</g>
<!-- Node1&#45;&gt;Node12 -->
<g id="edge12_Node000001_Node000012" class="edge">
<title>Node1&#45;&gt;Node12</title>
<g id="a_edge12_Node000001_Node000012"><a xlink:title=" ">
<path fill="none" stroke="#63b8ff" d="M436.54,-158.69C454.86,-141.61 485.6,-115.71 517,-101.5 528.43,-96.33 541.36,-92.63 553.73,-89.99"/>
<polygon fill="#63b8ff" stroke="#63b8ff" points="433.86,-156.41 429.04,-165.84 438.69,-161.47 433.86,-156.41"/>
</a>
</g>
</g>
<!-- Node13 -->
<g id="Node000013" class="node">
<title>Node13</title>
<g id="a_Node000013"><a xlink:href="class_table_alloc_pass.html" target="_top" xlink:title=" ">
<polygon fill="white" stroke="#bfbfbf" points="650.5,-56 562.5,-56 562.5,-37 650.5,-37 650.5,-56"/>
<text text-anchor="middle" x="606.5" y="-44" font-family="Helvetica,sans-Serif" font-size="10.00">TableAllocPass</text>
</a>
</g>
</g>
<!-- Node1&#45;&gt;Node13 -->
<g id="edge13_Node000001_Node000013" class="edge">
<title>Node1&#45;&gt;Node13</title>
<g id="a_edge13_Node000001_Node000013"><a xlink:title=" ">
<path fill="none" stroke="#63b8ff" d="M430.08,-157.34C445.71,-132.23 477.45,-87.43 517,-64.5 530.56,-56.64 547.04,-52.17 562.07,-49.65"/>
<polygon fill="#63b8ff" stroke="#63b8ff" points="427.07,-155.54 424.89,-165.91 433.06,-159.17 427.07,-155.54"/>
</a>
</g>
</g>
<!-- Node14 -->
<g id="Node000014" class="node">
<title>Node14</title>
<g id="a_Node000014"><a xlink:href="class_table_dependency_graph_summary.html" target="_top" xlink:title=" ">
<polygon fill="white" stroke="#bfbfbf" points="696,-19 517,-19 517,0 696,0 696,-19"/>
<text text-anchor="middle" x="606.5" y="-7" font-family="Helvetica,sans-Serif" font-size="10.00">TableDependencyGraphSummary</text>
</a>
</g>
</g>
<!-- Node1&#45;&gt;Node14 -->
<g id="edge14_Node000001_Node000014" class="edge">
<title>Node1&#45;&gt;Node14</title>
<g id="a_edge14_Node000001_Node000014"><a xlink:title=" ">
<path fill="none" stroke="#63b8ff" d="M426.57,-156C439.32,-123.76 469.36,-59.7 517,-27.5 521.94,-24.16 527.36,-21.42 533.01,-19.17"/>
<polygon fill="#63b8ff" stroke="#63b8ff" points="423.19,-155.03 422.91,-165.62 429.73,-157.52 423.19,-155.03"/>
</a>
</g>
</g>
<!-- Node2 -->
<g id="Node000002" class="node">
<title>Node2</title>
<g id="a_Node000002"><a xlink:href="class_p4_1_1_pass_manager.html" target="_top" xlink:title=" ">
<polygon fill="white" stroke="#bfbfbf" points="320,-185 221,-185 221,-166 320,-166 320,-185"/>
<text text-anchor="middle" x="270.5" y="-173" font-family="Helvetica,sans-Serif" font-size="10.00">P4::PassManager</text>
</a>
</g>
</g>
<!-- Node2&#45;&gt;Node1 -->
<g id="edge1_Node000001_Node000002" class="edge">
<title>Node2&#45;&gt;Node1</title>
<g id="a_edge1_Node000001_Node000002"><a xlink:title=" ">
<path fill="none" stroke="#63b8ff" d="M330.24,-175.5C338.67,-175.5 347.36,-175.5 355.85,-175.5"/>
<polygon fill="#63b8ff" stroke="#63b8ff" points="330.12,-172 320.12,-175.5 330.12,-179 330.12,-172"/>
</a>
</g>
</g>
<!-- Node3 -->
<g id="Node000003" class="node">
<title>Node3</title>
<g id="a_Node000003"><a xlink:href="class_p4_1_1_visitor.html" target="_top" xlink:title=" ">
<polygon fill="white" stroke="#bfbfbf" points="66,-185 0,-185 0,-166 66,-166 66,-185"/>
<text text-anchor="middle" x="33" y="-173" font-family="Helvetica,sans-Serif" font-size="10.00">P4::Visitor</text>
</a>
</g>
</g>
<!-- Node3&#45;&gt;Node2 -->
<g id="edge2_Node000002_Node000003" class="edge">
<title>Node3&#45;&gt;Node2</title>
<g id="a_edge2_Node000002_Node000003"><a xlink:title=" ">
<path fill="none" stroke="#63b8ff" d="M76.37,-175.5C117,-175.5 178.29,-175.5 220.89,-175.5"/>
<polygon fill="#63b8ff" stroke="#63b8ff" points="76.25,-172 66.25,-175.5 76.25,-179 76.25,-172"/>
</a>
</g>
</g>
<!-- Node4 -->
<g id="Node000004" class="node">
<title>Node4</title>
<g id="a_Node000004"><a xlink:href="class_p4_1_1_backtrack.html" target="_top" xlink:title=" ">
<polygon fill="white" stroke="#bfbfbf" points="185,-166 102,-166 102,-147 185,-147 185,-166"/>
<text text-anchor="middle" x="143.5" y="-154" font-family="Helvetica,sans-Serif" font-size="10.00">P4::Backtrack</text>
</a>
</g>
</g>
<!-- Node3&#45;&gt;Node4 -->
<g id="edge4_Node000004_Node000003" class="edge">
<title>Node3&#45;&gt;Node4</title>
<g id="a_edge4_Node000004_Node000003"><a xlink:title=" ">
<path fill="none" stroke="#63b8ff" d="M76.22,-168.11C84.59,-166.64 93.37,-165.1 101.69,-163.65"/>
<polygon fill="#63b8ff" stroke="#63b8ff" points="75.51,-164.68 66.26,-169.85 76.71,-171.57 75.51,-164.68"/>
</a>
</g>
</g>
<!-- Node4&#45;&gt;Node2 -->
<g id="edge3_Node000002_Node000004" class="edge">
<title>Node4&#45;&gt;Node2</title>
<g id="a_edge3_Node000002_Node000004"><a xlink:title=" ">
<path fill="none" stroke="#63b8ff" d="M195.21,-164.21C203.67,-165.49 212.43,-166.83 220.84,-168.1"/>
<polygon fill="#63b8ff" stroke="#63b8ff" points="195.5,-160.71 185.08,-162.67 194.44,-167.63 195.5,-160.71"/>
</a>
</g>
</g>
</g>
</svg>

<g id="navigator" transform="translate(0 0)" fill="#404254">
  <rect fill="#f2f5e9" fill-opacity="0.5" stroke="#606060" stroke-width=".5" x="0" y="0" width="60" height="60"/>
  <use id="zoomplus" xlink:href="#zoomPlus" x="17" y="9" onmousedown="handleZoom(evt,'in')"/>
  <use id="zoomminus" xlink:href="#zoomMin" x="42" y="9" onmousedown="handleZoom(evt,'out')"/>
  <use id="reset" xlink:href="#resetDef" x="30" y="36" onmousedown="handleReset()"/>
   <use id="arrowup" xlink:href="#arrowUp" x="0" y="0" onmousedown="handlePan(0,-1)"/>
  <use id="arrowright" xlink:href="#arrowRight" x="0" y="0" onmousedown="handlePan(1,0)"/>
  <use id="arrowdown" xlink:href="#arrowDown" x="0" y="0" onmousedown="handlePan(0,1)"/>
  <use id="arrowleft" xlink:href="#arrowLeft" x="0" y="0" onmousedown="handlePan(-1,0)"/>
</g>
<svg viewBox="0 0 15 15" width="100%" height="30px" preserveAspectRatio="xMaxYMin meet">
 <g id="arrow_out" transform="scale(0.3 0.3)">
  <a xlink:href="class_logging_1_1_pass_manager__inherit__graph_org.svg" target="_base">
   <rect id="button" ry="5" rx="5" y="6" x="6" height="38" width="38"
        fill="#f2f5e9" fill-opacity="0.5" stroke="#606060" stroke-width="1.0"/>
   <path id="arrow"
     d="M 11.500037,31.436501 C 11.940474,20.09759 22.043105,11.32322 32.158766,21.979434 L 37.068811,17.246167 C 37.068811,17.246167 37.088388,32 37.088388,32 L 22.160133,31.978069 C 22.160133,31.978069 26.997745,27.140456 26.997745,27.140456 C 18.528582,18.264221 13.291696,25.230495 11.500037,31.436501 z"
     style="fill:#404040;"/>
  </a>
 </g>
</svg>

<style type='text/css'>
<![CDATA[
[data-mouse-over-selected='false'] { opacity: 0.7; }
[data-mouse-over-selected='true']  { opacity: 1.0; }
]]>
</style>
<script type="application/ecmascript"><![CDATA[
document.addEventListener('DOMContentLoaded', (event) => {
  highlightEdges();
  highlightAdjacentNodes();
});
]]></script>
</svg>
