<?xml version="1.0" encoding="UTF-8" standalone="no"?>
<!DOCTYPE svg PUBLIC "-//W3C//DTD SVG 1.1//EN"
 "http://www.w3.org/Graphics/SVG/1.1/DTD/svg11.dtd">
<!-- Generated by graphviz version 2.43.0 (0)
 -->
<!-- Title: P4::SymbolicError Pages: 1 -->
<svg width="286pt" height="252pt"
 viewBox="0.00 0.00 285.50 252.00" xmlns="http://www.w3.org/2000/svg" xmlns:xlink="http://www.w3.org/1999/xlink">
<g id="graph0" class="graph" transform="scale(1 1) rotate(0) translate(4 248)">
<title>P4::SymbolicError</title>
<polygon fill="white" stroke="transparent" points="-4,4 -4,-248 281.5,-248 281.5,4 -4,4"/>
<!-- Node1 -->
<g id="node1" class="node">
<title>Node1</title>
<g id="a_node1"><a xlink:title=" ">
<polygon fill="#bfbfbf" stroke="black" points="86.5,-56.5 86.5,-75.5 189.5,-75.5 189.5,-56.5 86.5,-56.5"/>
<text text-anchor="middle" x="138" y="-63.5" font-family="Helvetica,sans-Serif" font-size="10.00">P4::SymbolicError</text>
</a>
</g>
</g>
<!-- Node6 -->
<g id="node6" class="node">
<title>Node6</title>
<g id="a_node6"><a xlink:href="class_p4_1_1_symbolic_exception.html" target="_top" xlink:title=" ">
<polygon fill="white" stroke="black" points="0,-0.5 0,-19.5 128,-19.5 128,-0.5 0,-0.5"/>
<text text-anchor="middle" x="64" y="-7.5" font-family="Helvetica,sans-Serif" font-size="10.00">P4::SymbolicException</text>
</a>
</g>
</g>
<!-- Node1&#45;&gt;Node6 -->
<g id="edge5" class="edge">
<title>Node1&#45;&gt;Node6</title>
<path fill="none" stroke="midnightblue" d="M117.97,-50.38C104.59,-40.62 87.44,-28.11 76.11,-19.83"/>
<polygon fill="midnightblue" stroke="midnightblue" points="115.97,-53.26 126.11,-56.32 120.1,-47.6 115.97,-53.26"/>
</g>
<!-- Node7 -->
<g id="node7" class="node">
<title>Node7</title>
<g id="a_node7"><a xlink:href="class_p4_1_1_symbolic_static_error.html" target="_top" xlink:title=" ">
<polygon fill="white" stroke="black" points="146.5,-0.5 146.5,-19.5 277.5,-19.5 277.5,-0.5 146.5,-0.5"/>
<text text-anchor="middle" x="212" y="-7.5" font-family="Helvetica,sans-Serif" font-size="10.00">P4::SymbolicStaticError</text>
</a>
</g>
</g>
<!-- Node1&#45;&gt;Node7 -->
<g id="edge6" class="edge">
<title>Node1&#45;&gt;Node7</title>
<path fill="none" stroke="midnightblue" d="M158.03,-50.38C171.41,-40.62 188.56,-28.11 199.89,-19.83"/>
<polygon fill="midnightblue" stroke="midnightblue" points="155.9,-47.6 149.89,-56.32 160.03,-53.26 155.9,-47.6"/>
</g>
<!-- Node2 -->
<g id="node2" class="node">
<title>Node2</title>
<g id="a_node2"><a xlink:href="class_p4_1_1_symbolic_value.html" target="_top" xlink:title=" ">
<polygon fill="white" stroke="black" points="84.5,-112.5 84.5,-131.5 191.5,-131.5 191.5,-112.5 84.5,-112.5"/>
<text text-anchor="middle" x="138" y="-119.5" font-family="Helvetica,sans-Serif" font-size="10.00">P4::SymbolicValue</text>
</a>
</g>
</g>
<!-- Node2&#45;&gt;Node1 -->
<g id="edge1" class="edge">
<title>Node2&#45;&gt;Node1</title>
<path fill="none" stroke="midnightblue" d="M138,-101.8C138,-92.91 138,-82.78 138,-75.75"/>
<polygon fill="midnightblue" stroke="midnightblue" points="134.5,-102.08 138,-112.08 141.5,-102.08 134.5,-102.08"/>
</g>
<!-- Node3 -->
<g id="node3" class="node">
<title>Node3</title>
<g id="a_node3"><a xlink:href="class_i_has_db_print.html" target="_top" xlink:title=" ">
<polygon fill="white" stroke="black" points="58,-168.5 58,-187.5 132,-187.5 132,-168.5 58,-168.5"/>
<text text-anchor="middle" x="95" y="-175.5" font-family="Helvetica,sans-Serif" font-size="10.00">IHasDbPrint</text>
</a>
</g>
</g>
<!-- Node3&#45;&gt;Node2 -->
<g id="edge2" class="edge">
<title>Node3&#45;&gt;Node2</title>
<path fill="none" stroke="midnightblue" d="M108.42,-160.14C115.91,-150.74 124.94,-139.4 131.03,-131.75"/>
<polygon fill="midnightblue" stroke="midnightblue" points="105.59,-158.08 102.1,-168.08 111.07,-162.44 105.59,-158.08"/>
</g>
<!-- Node4 -->
<g id="node4" class="node">
<title>Node4</title>
<g id="a_node4"><a xlink:href="class_i_castable.html" target="_top" xlink:title=" ">
<polygon fill="white" stroke="black" points="150,-168.5 150,-187.5 212,-187.5 212,-168.5 150,-168.5"/>
<text text-anchor="middle" x="181" y="-175.5" font-family="Helvetica,sans-Serif" font-size="10.00">ICastable</text>
</a>
</g>
</g>
<!-- Node4&#45;&gt;Node2 -->
<g id="edge3" class="edge">
<title>Node4&#45;&gt;Node2</title>
<path fill="none" stroke="midnightblue" d="M167.58,-160.14C160.09,-150.74 151.06,-139.4 144.97,-131.75"/>
<polygon fill="midnightblue" stroke="midnightblue" points="164.93,-162.44 173.9,-168.08 170.41,-158.08 164.93,-162.44"/>
</g>
<!-- Node5 -->
<g id="node5" class="node">
<title>Node5</title>
<g id="a_node5"><a xlink:href="struct_r_t_t_i_1_1_base.html" target="_top" xlink:title=" ">
<polygon fill="white" stroke="black" points="147,-224.5 147,-243.5 215,-243.5 215,-224.5 147,-224.5"/>
<text text-anchor="middle" x="181" y="-231.5" font-family="Helvetica,sans-Serif" font-size="10.00">RTTI::Base</text>
</a>
</g>
</g>
<!-- Node5&#45;&gt;Node4 -->
<g id="edge4" class="edge">
<title>Node5&#45;&gt;Node4</title>
<path fill="none" stroke="midnightblue" d="M181,-213.8C181,-204.91 181,-194.78 181,-187.75"/>
<polygon fill="midnightblue" stroke="midnightblue" points="177.5,-214.08 181,-224.08 184.5,-214.08 177.5,-214.08"/>
</g>
</g>
</svg>
