<?xml version="1.0" encoding="UTF-8" standalone="no"?>
<!DOCTYPE svg PUBLIC "-//W3C//DTD SVG 1.1//EN"
 "http://www.w3.org/Graphics/SVG/1.1/DTD/svg11.dtd">
<!-- Generated by graphviz version 2.43.0 (0)
 -->
<!-- Title: EBPF::EBPFObject Pages: 1 -->
<svg width="947pt" height="1092pt"
 viewBox="0.00 0.00 947.00 1092.00" xmlns="http://www.w3.org/2000/svg" xmlns:xlink="http://www.w3.org/1999/xlink">
<g id="graph0" class="graph" transform="scale(1 1) rotate(0) translate(4 1088)">
<title>EBPF::EBPFObject</title>
<polygon fill="white" stroke="transparent" points="-4,4 -4,-1088 943,-1088 943,4 -4,4"/>
<!-- Node1 -->
<g id="node1" class="node">
<title>Node1</title>
<g id="a_node1"><a xlink:title="Base class for EBPF objects.">
<polygon fill="#bfbfbf" stroke="black" points="202,-722.5 202,-741.5 305,-741.5 305,-722.5 202,-722.5"/>
<text text-anchor="middle" x="253.5" y="-729.5" font-family="Helvetica,sans-Serif" font-size="10.00">EBPF::EBPFObject</text>
</a>
</g>
</g>
<!-- Node4 -->
<g id="node4" class="node">
<title>Node4</title>
<g id="a_node4"><a xlink:href="class_e_b_p_f_1_1_e_b_p_f_checksum_p_s_a.html" target="_top" xlink:title=" ">
<polygon fill="white" stroke="black" points="352,-1026.5 352,-1045.5 494,-1045.5 494,-1026.5 352,-1026.5"/>
<text text-anchor="middle" x="423" y="-1033.5" font-family="Helvetica,sans-Serif" font-size="10.00">EBPF::EBPFChecksumPSA</text>
</a>
</g>
</g>
<!-- Node1&#45;&gt;Node4 -->
<g id="edge3" class="edge">
<title>Node1&#45;&gt;Node4</title>
<path fill="none" stroke="midnightblue" d="M258.78,-751.74C268.41,-793.09 294.62,-890.71 341,-960 359.77,-988.04 390.73,-1013.26 408.44,-1026.41"/>
<polygon fill="midnightblue" stroke="midnightblue" points="262.16,-750.84 256.55,-741.85 255.34,-752.38 262.16,-750.84"/>
</g>
<!-- Node7 -->
<g id="node7" class="node">
<title>Node7</title>
<g id="a_node7"><a xlink:href="class_e_b_p_f_1_1_e_b_p_f_control.html" target="_top" xlink:title=" ">
<polygon fill="white" stroke="black" points="369.5,-931.5 369.5,-950.5 476.5,-950.5 476.5,-931.5 369.5,-931.5"/>
<text text-anchor="middle" x="423" y="-938.5" font-family="Helvetica,sans-Serif" font-size="10.00">EBPF::EBPFControl</text>
</a>
</g>
</g>
<!-- Node1&#45;&gt;Node7 -->
<g id="edge6" class="edge">
<title>Node1&#45;&gt;Node7</title>
<path fill="none" stroke="midnightblue" d="M259.82,-751.74C270.1,-786.49 295.77,-859.09 341,-903 354.49,-916.09 373.32,-925.3 389.43,-931.36"/>
<polygon fill="midnightblue" stroke="midnightblue" points="263.12,-750.53 257.02,-741.87 256.38,-752.44 263.12,-750.53"/>
</g>
<!-- Node21 -->
<g id="node13" class="node">
<title>Node21</title>
<g id="a_node13"><a xlink:href="class_e_b_p_f_1_1_e_b_p_f_digest_p_s_a.html" target="_top" xlink:title=" ">
<polygon fill="white" stroke="black" points="362,-874.5 362,-893.5 484,-893.5 484,-874.5 362,-874.5"/>
<text text-anchor="middle" x="423" y="-881.5" font-family="Helvetica,sans-Serif" font-size="10.00">EBPF::EBPFDigestPSA</text>
</a>
</g>
</g>
<!-- Node1&#45;&gt;Node21 -->
<g id="edge12" class="edge">
<title>Node1&#45;&gt;Node21</title>
<path fill="none" stroke="midnightblue" d="M261.44,-750.98C273.14,-780.23 299.65,-835.96 341,-865 347.26,-869.4 354.41,-872.79 361.8,-875.41"/>
<polygon fill="midnightblue" stroke="midnightblue" points="264.65,-749.59 257.8,-741.51 258.12,-752.1 264.65,-749.59"/>
</g>
<!-- Node22 -->
<g id="node14" class="node">
<title>Node22</title>
<g id="a_node14"><a xlink:href="class_e_b_p_f_1_1_e_b_p_f_hash_algorithm_p_s_a.html" target="_top" xlink:title=" ">
<polygon fill="white" stroke="black" points="341,-836.5 341,-855.5 505,-855.5 505,-836.5 341,-836.5"/>
<text text-anchor="middle" x="423" y="-843.5" font-family="Helvetica,sans-Serif" font-size="10.00">EBPF::EBPFHashAlgorithmPSA</text>
</a>
</g>
</g>
<!-- Node1&#45;&gt;Node22 -->
<g id="edge13" class="edge">
<title>Node1&#45;&gt;Node22</title>
<path fill="none" stroke="midnightblue" d="M265.97,-750.17C280.65,-771.89 308.17,-807.7 341,-827 347.6,-830.88 354.94,-833.97 362.43,-836.42"/>
<polygon fill="midnightblue" stroke="midnightblue" points="268.73,-748 260.32,-741.56 262.87,-751.84 268.73,-748"/>
</g>
<!-- Node30 -->
<g id="node19" class="node">
<title>Node30</title>
<g id="a_node19"><a xlink:href="class_e_b_p_f_1_1_e_b_p_f_method_declaration.html" target="_top" xlink:title="Methods are function signatures.">
<polygon fill="white" stroke="black" points="341,-798.5 341,-817.5 505,-817.5 505,-798.5 341,-798.5"/>
<text text-anchor="middle" x="423" y="-805.5" font-family="Helvetica,sans-Serif" font-size="10.00">EBPF::EBPFMethodDeclaration</text>
</a>
</g>
</g>
<!-- Node1&#45;&gt;Node30 -->
<g id="edge18" class="edge">
<title>Node1&#45;&gt;Node30</title>
<path fill="none" stroke="midnightblue" d="M274.01,-747.77C290.83,-760.63 316.24,-778.34 341,-789 349.89,-792.83 359.67,-795.95 369.28,-798.48"/>
<polygon fill="midnightblue" stroke="midnightblue" points="276.08,-744.95 266.04,-741.55 271.77,-750.47 276.08,-744.95"/>
</g>
<!-- Node31 -->
<g id="node20" class="node">
<title>Node31</title>
<g id="a_node20"><a xlink:href="class_e_b_p_f_1_1_e_b_p_f_parser.html" target="_top" xlink:title=" ">
<polygon fill="white" stroke="black" points="372.5,-760.5 372.5,-779.5 473.5,-779.5 473.5,-760.5 372.5,-760.5"/>
<text text-anchor="middle" x="423" y="-767.5" font-family="Helvetica,sans-Serif" font-size="10.00">EBPF::EBPFParser</text>
</a>
</g>
</g>
<!-- Node1&#45;&gt;Node31 -->
<g id="edge19" class="edge">
<title>Node1&#45;&gt;Node31</title>
<path fill="none" stroke="midnightblue" d="M306.62,-743.82C330.23,-749.18 357.78,-755.43 380.04,-760.48"/>
<polygon fill="midnightblue" stroke="midnightblue" points="307.29,-740.39 296.77,-741.59 305.75,-747.21 307.29,-740.39"/>
</g>
<!-- Node35 -->
<g id="node23" class="node">
<title>Node35</title>
<g id="a_node23"><a xlink:href="class_e_b_p_f_1_1_e_b_p_f_parser_state.html" target="_top" xlink:title=" ">
<polygon fill="white" stroke="black" points="359.5,-722.5 359.5,-741.5 486.5,-741.5 486.5,-722.5 359.5,-722.5"/>
<text text-anchor="middle" x="423" y="-729.5" font-family="Helvetica,sans-Serif" font-size="10.00">EBPF::EBPFParserState</text>
</a>
</g>
</g>
<!-- Node1&#45;&gt;Node35 -->
<g id="edge22" class="edge">
<title>Node1&#45;&gt;Node35</title>
<path fill="none" stroke="midnightblue" d="M315.42,-732C329.71,-732 344.96,-732 359.32,-732"/>
<polygon fill="midnightblue" stroke="midnightblue" points="315.21,-728.5 305.21,-732 315.21,-735.5 315.21,-728.5"/>
</g>
<!-- Node37 -->
<g id="node25" class="node">
<title>Node37</title>
<g id="a_node25"><a xlink:href="class_e_b_p_f_1_1_e_b_p_f_program.html" target="_top" xlink:title=" ">
<polygon fill="white" stroke="black" points="366.5,-684.5 366.5,-703.5 479.5,-703.5 479.5,-684.5 366.5,-684.5"/>
<text text-anchor="middle" x="423" y="-691.5" font-family="Helvetica,sans-Serif" font-size="10.00">EBPF::EBPFProgram</text>
</a>
</g>
</g>
<!-- Node1&#45;&gt;Node37 -->
<g id="edge24" class="edge">
<title>Node1&#45;&gt;Node37</title>
<path fill="none" stroke="midnightblue" d="M306.62,-720.18C330.23,-714.82 357.78,-708.57 380.04,-703.52"/>
<polygon fill="midnightblue" stroke="midnightblue" points="305.75,-716.79 296.77,-722.41 307.29,-723.61 305.75,-716.79"/>
</g>
<!-- Node49 -->
<g id="node29" class="node">
<title>Node49</title>
<g id="a_node29"><a xlink:href="class_e_b_p_f_1_1_e_b_p_f_random_p_s_a.html" target="_top" xlink:title=" ">
<polygon fill="white" stroke="black" points="357.5,-646.5 357.5,-665.5 488.5,-665.5 488.5,-646.5 357.5,-646.5"/>
<text text-anchor="middle" x="423" y="-653.5" font-family="Helvetica,sans-Serif" font-size="10.00">EBPF::EBPFRandomPSA</text>
</a>
</g>
</g>
<!-- Node1&#45;&gt;Node49 -->
<g id="edge28" class="edge">
<title>Node1&#45;&gt;Node49</title>
<path fill="none" stroke="midnightblue" d="M274.01,-716.23C290.83,-703.37 316.24,-685.66 341,-675 349.89,-671.17 359.67,-668.05 369.28,-665.52"/>
<polygon fill="midnightblue" stroke="midnightblue" points="271.77,-713.53 266.04,-722.45 276.08,-719.05 271.77,-713.53"/>
</g>
<!-- Node50 -->
<g id="node30" class="node">
<title>Node50</title>
<g id="a_node30"><a xlink:href="class_e_b_p_f_1_1_e_b_p_f_table_base.html" target="_top" xlink:title="Also used to represent counters.">
<polygon fill="white" stroke="black" points="363,-494.5 363,-513.5 483,-513.5 483,-494.5 363,-494.5"/>
<text text-anchor="middle" x="423" y="-501.5" font-family="Helvetica,sans-Serif" font-size="10.00">EBPF::EBPFTableBase</text>
</a>
</g>
</g>
<!-- Node1&#45;&gt;Node50 -->
<g id="edge29" class="edge">
<title>Node1&#45;&gt;Node50</title>
<path fill="none" stroke="midnightblue" d="M267.61,-714.16C301.19,-668.45 389.45,-548.31 414.99,-513.55"/>
<polygon fill="midnightblue" stroke="midnightblue" points="264.58,-712.36 261.48,-722.49 270.23,-716.51 264.58,-712.36"/>
</g>
<!-- Node64 -->
<g id="node37" class="node">
<title>Node64</title>
<g id="a_node37"><a xlink:href="class_e_b_p_f_1_1_e_b_p_f_type.html" target="_top" xlink:title="Base class for EBPF types.">
<polygon fill="white" stroke="black" points="376.5,-247.5 376.5,-266.5 469.5,-266.5 469.5,-247.5 376.5,-247.5"/>
<text text-anchor="middle" x="423" y="-254.5" font-family="Helvetica,sans-Serif" font-size="10.00">EBPF::EBPFType</text>
</a>
</g>
</g>
<!-- Node1&#45;&gt;Node64 -->
<g id="edge36" class="edge">
<title>Node1&#45;&gt;Node64</title>
<path fill="none" stroke="midnightblue" d="M261.25,-712.64C275.77,-670.98 311.11,-569.75 341,-485 370.9,-400.22 407.41,-297.86 418.59,-266.55"/>
<polygon fill="midnightblue" stroke="midnightblue" points="257.93,-711.52 257.95,-722.11 264.54,-713.82 257.93,-711.52"/>
</g>
<!-- Node79 -->
<g id="node46" class="node">
<title>Node79</title>
<g id="a_node46"><a xlink:href="class_u_b_p_f_1_1_u_b_p_f_deparser.html" target="_top" xlink:title=" ">
<polygon fill="white" stroke="black" points="363.5,-209.5 363.5,-228.5 482.5,-228.5 482.5,-209.5 363.5,-209.5"/>
<text text-anchor="middle" x="423" y="-216.5" font-family="Helvetica,sans-Serif" font-size="10.00">UBPF::UBPFDeparser</text>
</a>
</g>
</g>
<!-- Node1&#45;&gt;Node79 -->
<g id="edge45" class="edge">
<title>Node1&#45;&gt;Node79</title>
<path fill="none" stroke="midnightblue" d="M255.16,-711.95C258.32,-628.32 274.62,-308.28 341,-238 347.05,-231.59 354.82,-227.16 363.14,-224.13"/>
<polygon fill="midnightblue" stroke="midnightblue" points="251.65,-712.02 254.8,-722.14 258.65,-712.27 251.65,-712.02"/>
</g>
<!-- Node80 -->
<g id="node47" class="node">
<title>Node80</title>
<g id="a_node47"><a xlink:href="class_u_b_p_f_1_1_u_b_p_f_table_base.html" target="_top" xlink:title=" ">
<polygon fill="white" stroke="black" points="361.5,-38.5 361.5,-57.5 484.5,-57.5 484.5,-38.5 361.5,-38.5"/>
<text text-anchor="middle" x="423" y="-45.5" font-family="Helvetica,sans-Serif" font-size="10.00">UBPF::UBPFTableBase</text>
</a>
</g>
</g>
<!-- Node1&#45;&gt;Node80 -->
<g id="edge46" class="edge">
<title>Node1&#45;&gt;Node80</title>
<path fill="none" stroke="midnightblue" d="M255.4,-712.04C259.08,-640.7 276.11,-392.33 341,-200 360.31,-142.77 399.58,-81.22 415.29,-57.8"/>
<polygon fill="midnightblue" stroke="midnightblue" points="251.89,-712.11 254.9,-722.27 258.88,-712.45 251.89,-712.11"/>
</g>
<!-- Node2 -->
<g id="node2" class="node">
<title>Node2</title>
<g id="a_node2"><a xlink:href="class_i_castable.html" target="_top" xlink:title=" ">
<polygon fill="white" stroke="black" points="104,-722.5 104,-741.5 166,-741.5 166,-722.5 104,-722.5"/>
<text text-anchor="middle" x="135" y="-729.5" font-family="Helvetica,sans-Serif" font-size="10.00">ICastable</text>
</a>
</g>
</g>
<!-- Node2&#45;&gt;Node1 -->
<g id="edge1" class="edge">
<title>Node2&#45;&gt;Node1</title>
<path fill="none" stroke="midnightblue" d="M176.13,-732C184.41,-732 193.22,-732 201.81,-732"/>
<polygon fill="midnightblue" stroke="midnightblue" points="176,-728.5 166,-732 176,-735.5 176,-728.5"/>
</g>
<!-- Node3 -->
<g id="node3" class="node">
<title>Node3</title>
<g id="a_node3"><a xlink:href="struct_r_t_t_i_1_1_base.html" target="_top" xlink:title=" ">
<polygon fill="white" stroke="black" points="0,-722.5 0,-741.5 68,-741.5 68,-722.5 0,-722.5"/>
<text text-anchor="middle" x="34" y="-729.5" font-family="Helvetica,sans-Serif" font-size="10.00">RTTI::Base</text>
</a>
</g>
</g>
<!-- Node3&#45;&gt;Node2 -->
<g id="edge2" class="edge">
<title>Node3&#45;&gt;Node2</title>
<path fill="none" stroke="midnightblue" d="M78.44,-732C86.95,-732 95.71,-732 103.68,-732"/>
<polygon fill="midnightblue" stroke="midnightblue" points="78.24,-728.5 68.24,-732 78.24,-735.5 78.24,-728.5"/>
</g>
<!-- Node5 -->
<g id="node5" class="node">
<title>Node5</title>
<g id="a_node5"><a xlink:href="class_e_b_p_f_1_1_e_b_p_f_hash_p_s_a.html" target="_top" xlink:title=" ">
<polygon fill="white" stroke="black" points="575,-1064.5 575,-1083.5 691,-1083.5 691,-1064.5 575,-1064.5"/>
<text text-anchor="middle" x="633" y="-1071.5" font-family="Helvetica,sans-Serif" font-size="10.00">EBPF::EBPFHashPSA</text>
</a>
</g>
</g>
<!-- Node4&#45;&gt;Node5 -->
<g id="edge4" class="edge">
<title>Node4&#45;&gt;Node5</title>
<path fill="none" stroke="midnightblue" d="M486.11,-1047.35C515.95,-1052.8 551.32,-1059.26 579.76,-1064.46"/>
<polygon fill="midnightblue" stroke="midnightblue" points="486.68,-1043.89 476.22,-1045.54 485.43,-1050.78 486.68,-1043.89"/>
</g>
<!-- Node6 -->
<g id="node6" class="node">
<title>Node6</title>
<g id="a_node6"><a xlink:href="class_e_b_p_f_1_1_e_b_p_f_internet_checksum_p_s_a.html" target="_top" xlink:title=" ">
<polygon fill="white" stroke="black" points="543,-1026.5 543,-1045.5 723,-1045.5 723,-1026.5 543,-1026.5"/>
<text text-anchor="middle" x="633" y="-1033.5" font-family="Helvetica,sans-Serif" font-size="10.00">EBPF::EBPFInternetChecksumPSA</text>
</a>
</g>
</g>
<!-- Node4&#45;&gt;Node6 -->
<g id="edge5" class="edge">
<title>Node4&#45;&gt;Node6</title>
<path fill="none" stroke="midnightblue" d="M504.19,-1036C516.9,-1036 530.1,-1036 542.99,-1036"/>
<polygon fill="midnightblue" stroke="midnightblue" points="504.13,-1032.5 494.13,-1036 504.13,-1039.5 504.13,-1032.5"/>
</g>
<!-- Node8 -->
<g id="node8" class="node">
<title>Node8</title>
<g id="a_node8"><a xlink:href="class_e_b_p_f_1_1_e_b_p_f_control_p_s_a.html" target="_top" xlink:title=" ">
<polygon fill="white" stroke="black" points="570,-988.5 570,-1007.5 696,-1007.5 696,-988.5 570,-988.5"/>
<text text-anchor="middle" x="633" y="-995.5" font-family="Helvetica,sans-Serif" font-size="10.00">EBPF::EBPFControlPSA</text>
</a>
</g>
</g>
<!-- Node7&#45;&gt;Node8 -->
<g id="edge7" class="edge">
<title>Node7&#45;&gt;Node8</title>
<path fill="none" stroke="midnightblue" d="M460.37,-953.94C483.31,-961.82 513.67,-971.73 541,-979 553.95,-982.44 568.06,-985.65 581.23,-988.41"/>
<polygon fill="midnightblue" stroke="midnightblue" points="461.3,-950.56 450.71,-950.59 459.01,-957.17 461.3,-950.56"/>
</g>
<!-- Node10 -->
<g id="node10" class="node">
<title>Node10</title>
<g id="a_node10"><a xlink:href="class_e_b_p_f_1_1_e_b_p_f_deparser.html" target="_top" xlink:title=" ">
<polygon fill="white" stroke="black" points="575,-950.5 575,-969.5 691,-969.5 691,-950.5 575,-950.5"/>
<text text-anchor="middle" x="633" y="-957.5" font-family="Helvetica,sans-Serif" font-size="10.00">EBPF::EBPFDeparser</text>
</a>
</g>
</g>
<!-- Node7&#45;&gt;Node10 -->
<g id="edge9" class="edge">
<title>Node7&#45;&gt;Node10</title>
<path fill="none" stroke="midnightblue" d="M486.84,-946.74C514.85,-949.3 547.61,-952.29 574.92,-954.79"/>
<polygon fill="midnightblue" stroke="midnightblue" points="487.03,-943.24 476.76,-945.82 486.4,-950.21 487.03,-943.24"/>
</g>
<!-- Node20 -->
<g id="node12" class="node">
<title>Node20</title>
<g id="a_node12"><a xlink:href="class_u_b_p_f_1_1_u_b_p_f_control.html" target="_top" xlink:title=" ">
<polygon fill="white" stroke="black" points="578,-912.5 578,-931.5 688,-931.5 688,-912.5 578,-912.5"/>
<text text-anchor="middle" x="633" y="-919.5" font-family="Helvetica,sans-Serif" font-size="10.00">UBPF::UBPFControl</text>
</a>
</g>
</g>
<!-- Node7&#45;&gt;Node20 -->
<g id="edge11" class="edge">
<title>Node7&#45;&gt;Node20</title>
<path fill="none" stroke="midnightblue" d="M486.79,-935.26C515.83,-932.61 549.97,-929.49 577.85,-926.95"/>
<polygon fill="midnightblue" stroke="midnightblue" points="486.4,-931.79 476.76,-936.18 487.03,-938.76 486.4,-931.79"/>
</g>
<!-- Node9 -->
<g id="node9" class="node">
<title>Node9</title>
<g id="a_node9"><a xlink:href="class_t_c_1_1_e_b_p_f_control_p_n_a.html" target="_top" xlink:title=" ">
<polygon fill="white" stroke="black" points="792.5,-988.5 792.5,-1007.5 907.5,-1007.5 907.5,-988.5 792.5,-988.5"/>
<text text-anchor="middle" x="850" y="-995.5" font-family="Helvetica,sans-Serif" font-size="10.00">TC::EBPFControlPNA</text>
</a>
</g>
</g>
<!-- Node8&#45;&gt;Node9 -->
<g id="edge8" class="edge">
<title>Node8&#45;&gt;Node9</title>
<path fill="none" stroke="midnightblue" d="M706.35,-998C734.43,-998 766.1,-998 792.46,-998"/>
<polygon fill="midnightblue" stroke="midnightblue" points="706.19,-994.5 696.19,-998 706.19,-1001.5 706.19,-994.5"/>
</g>
<!-- Node11 -->
<g id="node11" class="node">
<title>Node11</title>
<g id="a_node11"><a xlink:href="class_e_b_p_f_1_1_e_b_p_f_deparser_p_s_a.html" target="_top" xlink:title=" ">
<polygon fill="white" stroke="red" points="782.5,-950.5 782.5,-969.5 917.5,-969.5 917.5,-950.5 782.5,-950.5"/>
<text text-anchor="middle" x="850" y="-957.5" font-family="Helvetica,sans-Serif" font-size="10.00">EBPF::EBPFDeparserPSA</text>
</a>
</g>
</g>
<!-- Node10&#45;&gt;Node11 -->
<g id="edge10" class="edge">
<title>Node10&#45;&gt;Node11</title>
<path fill="none" stroke="midnightblue" d="M701.12,-960C726.92,-960 756.36,-960 782.14,-960"/>
<polygon fill="midnightblue" stroke="midnightblue" points="701.05,-956.5 691.05,-960 701.05,-963.5 701.05,-956.5"/>
</g>
<!-- Node23 -->
<g id="node15" class="node">
<title>Node23</title>
<g id="a_node15"><a xlink:href="class_e_b_p_f_1_1_c_r_c_checksum_algorithm.html" target="_top" xlink:title=" ">
<polygon fill="white" stroke="red" points="550,-874.5 550,-893.5 716,-893.5 716,-874.5 550,-874.5"/>
<text text-anchor="middle" x="633" y="-881.5" font-family="Helvetica,sans-Serif" font-size="10.00">EBPF::CRCChecksumAlgorithm</text>
</a>
</g>
</g>
<!-- Node22&#45;&gt;Node23 -->
<g id="edge14" class="edge">
<title>Node22&#45;&gt;Node23</title>
<path fill="none" stroke="midnightblue" d="M486.11,-857.35C515.95,-862.8 551.32,-869.26 579.76,-874.46"/>
<polygon fill="midnightblue" stroke="midnightblue" points="486.68,-853.89 476.22,-855.54 485.43,-860.78 486.68,-853.89"/>
</g>
<!-- Node29 -->
<g id="node18" class="node">
<title>Node29</title>
<g id="a_node18"><a xlink:href="class_e_b_p_f_1_1_internet_checksum_algorithm.html" target="_top" xlink:title=" ">
<polygon fill="white" stroke="black" points="541,-836.5 541,-855.5 725,-855.5 725,-836.5 541,-836.5"/>
<text text-anchor="middle" x="633" y="-843.5" font-family="Helvetica,sans-Serif" font-size="10.00">EBPF::InternetChecksumAlgorithm</text>
</a>
</g>
</g>
<!-- Node22&#45;&gt;Node29 -->
<g id="edge17" class="edge">
<title>Node22&#45;&gt;Node29</title>
<path fill="none" stroke="midnightblue" d="M515.29,-846C523.77,-846 532.37,-846 540.86,-846"/>
<polygon fill="midnightblue" stroke="midnightblue" points="515.01,-842.5 505.01,-846 515.01,-849.5 515.01,-842.5"/>
</g>
<!-- Node24 -->
<g id="node16" class="node">
<title>Node24</title>
<g id="a_node16"><a xlink:href="class_e_b_p_f_1_1_c_r_c16_checksum_algorithm.html" target="_top" xlink:title=" ">
<polygon fill="white" stroke="black" points="761,-893.5 761,-912.5 939,-912.5 939,-893.5 761,-893.5"/>
<text text-anchor="middle" x="850" y="-900.5" font-family="Helvetica,sans-Serif" font-size="10.00">EBPF::CRC16ChecksumAlgorithm</text>
</a>
</g>
</g>
<!-- Node23&#45;&gt;Node24 -->
<g id="edge15" class="edge">
<title>Node23&#45;&gt;Node24</title>
<path fill="none" stroke="midnightblue" d="M726.2,-892.15C737.66,-893.16 749.36,-894.19 760.76,-895.2"/>
<polygon fill="midnightblue" stroke="midnightblue" points="726.47,-888.66 716.2,-891.26 725.86,-895.63 726.47,-888.66"/>
</g>
<!-- Node25 -->
<g id="node17" class="node">
<title>Node25</title>
<g id="a_node17"><a xlink:href="class_e_b_p_f_1_1_c_r_c32_checksum_algorithm.html" target="_top" xlink:title=" ">
<polygon fill="white" stroke="black" points="761,-855.5 761,-874.5 939,-874.5 939,-855.5 761,-855.5"/>
<text text-anchor="middle" x="850" y="-862.5" font-family="Helvetica,sans-Serif" font-size="10.00">EBPF::CRC32ChecksumAlgorithm</text>
</a>
</g>
</g>
<!-- Node23&#45;&gt;Node25 -->
<g id="edge16" class="edge">
<title>Node23&#45;&gt;Node25</title>
<path fill="none" stroke="midnightblue" d="M726.2,-875.85C737.66,-874.84 749.36,-873.81 760.76,-872.8"/>
<polygon fill="midnightblue" stroke="midnightblue" points="725.86,-872.37 716.2,-876.74 726.47,-879.34 725.86,-872.37"/>
</g>
<!-- Node32 -->
<g id="node21" class="node">
<title>Node32</title>
<g id="a_node21"><a xlink:href="class_e_b_p_f_1_1_e_b_p_f_psa_parser.html" target="_top" xlink:title=" ">
<polygon fill="white" stroke="red" points="573.5,-798.5 573.5,-817.5 692.5,-817.5 692.5,-798.5 573.5,-798.5"/>
<text text-anchor="middle" x="633" y="-805.5" font-family="Helvetica,sans-Serif" font-size="10.00">EBPF::EBPFPsaParser</text>
</a>
</g>
</g>
<!-- Node31&#45;&gt;Node32 -->
<g id="edge20" class="edge">
<title>Node31&#45;&gt;Node32</title>
<path fill="none" stroke="midnightblue" d="M483.61,-780.89C514.02,-786.45 550.66,-793.14 579.92,-798.49"/>
<polygon fill="midnightblue" stroke="midnightblue" points="484.02,-777.41 473.56,-779.05 482.77,-784.29 484.02,-777.41"/>
</g>
<!-- Node34 -->
<g id="node22" class="node">
<title>Node34</title>
<g id="a_node22"><a xlink:href="class_u_b_p_f_1_1_u_b_p_f_parser.html" target="_top" xlink:title=" ">
<polygon fill="white" stroke="black" points="581,-760.5 581,-779.5 685,-779.5 685,-760.5 581,-760.5"/>
<text text-anchor="middle" x="633" y="-767.5" font-family="Helvetica,sans-Serif" font-size="10.00">UBPF::UBPFParser</text>
</a>
</g>
</g>
<!-- Node31&#45;&gt;Node34 -->
<g id="edge21" class="edge">
<title>Node31&#45;&gt;Node34</title>
<path fill="none" stroke="midnightblue" d="M483.69,-770C514.33,-770 551.29,-770 580.65,-770"/>
<polygon fill="midnightblue" stroke="midnightblue" points="483.56,-766.5 473.56,-770 483.56,-773.5 483.56,-766.5"/>
</g>
<!-- Node36 -->
<g id="node24" class="node">
<title>Node36</title>
<g id="a_node24"><a xlink:href="class_u_b_p_f_1_1_u_b_p_f_parser_state.html" target="_top" xlink:title=" ">
<polygon fill="white" stroke="black" points="568,-722.5 568,-741.5 698,-741.5 698,-722.5 568,-722.5"/>
<text text-anchor="middle" x="633" y="-729.5" font-family="Helvetica,sans-Serif" font-size="10.00">UBPF::UBPFParserState</text>
</a>
</g>
</g>
<!-- Node35&#45;&gt;Node36 -->
<g id="edge23" class="edge">
<title>Node35&#45;&gt;Node36</title>
<path fill="none" stroke="midnightblue" d="M496.77,-732C519.85,-732 545.19,-732 567.64,-732"/>
<polygon fill="midnightblue" stroke="midnightblue" points="496.69,-728.5 486.69,-732 496.69,-735.5 496.69,-728.5"/>
</g>
<!-- Node38 -->
<g id="node26" class="node">
<title>Node38</title>
<g id="a_node26"><a xlink:href="class_e_b_p_f_1_1_e_b_p_f_pipeline.html" target="_top" xlink:title="EBPFPipeline represents a single eBPF program in the TC/XDP hook.">
<polygon fill="white" stroke="red" points="578,-684.5 578,-703.5 688,-703.5 688,-684.5 578,-684.5"/>
<text text-anchor="middle" x="633" y="-691.5" font-family="Helvetica,sans-Serif" font-size="10.00">EBPF::EBPFPipeline</text>
</a>
</g>
</g>
<!-- Node37&#45;&gt;Node38 -->
<g id="edge25" class="edge">
<title>Node37&#45;&gt;Node38</title>
<path fill="none" stroke="midnightblue" d="M489.97,-694C518.31,-694 551.02,-694 577.9,-694"/>
<polygon fill="midnightblue" stroke="midnightblue" points="489.74,-690.5 479.74,-694 489.74,-697.5 489.74,-690.5"/>
</g>
<!-- Node47 -->
<g id="node27" class="node">
<title>Node47</title>
<g id="a_node27"><a xlink:href="class_e_b_p_f_1_1_x_d_p_help_program.html" target="_top" xlink:title=" ">
<polygon fill="white" stroke="black" points="567.5,-646.5 567.5,-665.5 698.5,-665.5 698.5,-646.5 567.5,-646.5"/>
<text text-anchor="middle" x="633" y="-653.5" font-family="Helvetica,sans-Serif" font-size="10.00">EBPF::XDPHelpProgram</text>
</a>
</g>
</g>
<!-- Node37&#45;&gt;Node47 -->
<g id="edge26" class="edge">
<title>Node37&#45;&gt;Node47</title>
<path fill="none" stroke="midnightblue" d="M486.11,-682.65C515.95,-677.2 551.32,-670.74 579.76,-665.54"/>
<polygon fill="midnightblue" stroke="midnightblue" points="485.43,-679.22 476.22,-684.46 486.68,-686.11 485.43,-679.22"/>
</g>
<!-- Node48 -->
<g id="node28" class="node">
<title>Node48</title>
<g id="a_node28"><a xlink:href="class_u_b_p_f_1_1_u_b_p_f_program.html" target="_top" xlink:title=" ">
<polygon fill="white" stroke="black" points="575,-608.5 575,-627.5 691,-627.5 691,-608.5 575,-608.5"/>
<text text-anchor="middle" x="633" y="-615.5" font-family="Helvetica,sans-Serif" font-size="10.00">UBPF::UBPFProgram</text>
</a>
</g>
</g>
<!-- Node37&#45;&gt;Node48 -->
<g id="edge27" class="edge">
<title>Node37&#45;&gt;Node48</title>
<path fill="none" stroke="midnightblue" d="M489.51,-682.2C494.91,-680.17 500.15,-677.79 505,-675 525.17,-663.41 520.69,-648.34 541,-637 551.29,-631.26 563.11,-627.24 574.75,-624.44"/>
<polygon fill="midnightblue" stroke="midnightblue" points="488.04,-679 479.67,-685.49 490.26,-685.64 488.04,-679"/>
</g>
<!-- Node51 -->
<g id="node31" class="node">
<title>Node51</title>
<g id="a_node31"><a xlink:href="class_e_b_p_f_1_1_e_b_p_f_counter_table.html" target="_top" xlink:title=" ">
<polygon fill="white" stroke="red" points="565.5,-570.5 565.5,-589.5 700.5,-589.5 700.5,-570.5 565.5,-570.5"/>
<text text-anchor="middle" x="633" y="-577.5" font-family="Helvetica,sans-Serif" font-size="10.00">EBPF::EBPFCounterTable</text>
</a>
</g>
</g>
<!-- Node50&#45;&gt;Node51 -->
<g id="edge30" class="edge">
<title>Node50&#45;&gt;Node51</title>
<path fill="none" stroke="midnightblue" d="M449.33,-518.62C472.51,-531.44 508.12,-549.75 541,-561 551.99,-564.76 564,-567.91 575.59,-570.49"/>
<polygon fill="midnightblue" stroke="midnightblue" points="450.92,-515.5 440.49,-513.66 447.5,-521.61 450.92,-515.5"/>
</g>
<!-- Node54 -->
<g id="node32" class="node">
<title>Node54</title>
<g id="a_node32"><a xlink:href="class_e_b_p_f_1_1_e_b_p_f_meter_p_s_a.html" target="_top" xlink:title=" ">
<polygon fill="white" stroke="black" points="573.5,-532.5 573.5,-551.5 692.5,-551.5 692.5,-532.5 573.5,-532.5"/>
<text text-anchor="middle" x="633" y="-539.5" font-family="Helvetica,sans-Serif" font-size="10.00">EBPF::EBPFMeterPSA</text>
</a>
</g>
</g>
<!-- Node50&#45;&gt;Node54 -->
<g id="edge31" class="edge">
<title>Node50&#45;&gt;Node54</title>
<path fill="none" stroke="midnightblue" d="M486.11,-515.35C515.95,-520.8 551.32,-527.26 579.76,-532.46"/>
<polygon fill="midnightblue" stroke="midnightblue" points="486.68,-511.89 476.22,-513.54 485.43,-518.78 486.68,-511.89"/>
</g>
<!-- Node55 -->
<g id="node33" class="node">
<title>Node55</title>
<g id="a_node33"><a xlink:href="class_e_b_p_f_1_1_e_b_p_f_register_p_s_a.html" target="_top" xlink:title=" ">
<polygon fill="white" stroke="black" points="567.5,-494.5 567.5,-513.5 698.5,-513.5 698.5,-494.5 567.5,-494.5"/>
<text text-anchor="middle" x="633" y="-501.5" font-family="Helvetica,sans-Serif" font-size="10.00">EBPF::EBPFRegisterPSA</text>
</a>
</g>
</g>
<!-- Node50&#45;&gt;Node55 -->
<g id="edge32" class="edge">
<title>Node50&#45;&gt;Node55</title>
<path fill="none" stroke="midnightblue" d="M493.12,-504C517.05,-504 543.77,-504 567.33,-504"/>
<polygon fill="midnightblue" stroke="midnightblue" points="493.05,-500.5 483.05,-504 493.05,-507.5 493.05,-500.5"/>
</g>
<!-- Node56 -->
<g id="node34" class="node">
<title>Node56</title>
<g id="a_node34"><a xlink:href="class_e_b_p_f_1_1_e_b_p_f_table.html" target="_top" xlink:title=" ">
<polygon fill="white" stroke="red" points="585,-456.5 585,-475.5 681,-475.5 681,-456.5 585,-456.5"/>
<text text-anchor="middle" x="633" y="-463.5" font-family="Helvetica,sans-Serif" font-size="10.00">EBPF::EBPFTable</text>
</a>
</g>
</g>
<!-- Node50&#45;&gt;Node56 -->
<g id="edge33" class="edge">
<title>Node50&#45;&gt;Node56</title>
<path fill="none" stroke="midnightblue" d="M486.24,-492.63C517.82,-486.86 555.57,-479.96 584.74,-474.63"/>
<polygon fill="midnightblue" stroke="midnightblue" points="485.43,-489.22 476.22,-494.46 486.68,-496.11 485.43,-489.22"/>
</g>
<!-- Node62 -->
<g id="node35" class="node">
<title>Node62</title>
<g id="a_node35"><a xlink:href="class_e_b_p_f_1_1_e_b_p_f_value_set.html" target="_top" xlink:title=" ">
<polygon fill="white" stroke="black" points="576,-418.5 576,-437.5 690,-437.5 690,-418.5 576,-418.5"/>
<text text-anchor="middle" x="633" y="-425.5" font-family="Helvetica,sans-Serif" font-size="10.00">EBPF::EBPFValueSet</text>
</a>
</g>
</g>
<!-- Node50&#45;&gt;Node62 -->
<g id="edge34" class="edge">
<title>Node50&#45;&gt;Node62</title>
<path fill="none" stroke="midnightblue" d="M449.33,-489.38C472.51,-476.56 508.12,-458.25 541,-447 551.99,-443.24 564,-440.09 575.59,-437.51"/>
<polygon fill="midnightblue" stroke="midnightblue" points="447.5,-486.39 440.49,-494.34 450.92,-492.5 447.5,-486.39"/>
</g>
<!-- Node63 -->
<g id="node36" class="node">
<title>Node63</title>
<g id="a_node36"><a xlink:href="class_t_c_1_1_e_b_p_f_register_p_n_a.html" target="_top" xlink:title=" ">
<polygon fill="white" stroke="black" points="573,-380.5 573,-399.5 693,-399.5 693,-380.5 573,-380.5"/>
<text text-anchor="middle" x="633" y="-387.5" font-family="Helvetica,sans-Serif" font-size="10.00">TC::EBPFRegisterPNA</text>
</a>
</g>
</g>
<!-- Node50&#45;&gt;Node63 -->
<g id="edge35" class="edge">
<title>Node50&#45;&gt;Node63</title>
<path fill="none" stroke="midnightblue" d="M439.74,-486.95C460.7,-465.33 499.93,-428.53 541,-409 550.91,-404.29 561.98,-400.74 572.89,-398.06"/>
<polygon fill="midnightblue" stroke="midnightblue" points="436.99,-484.76 432.64,-494.42 442.06,-489.58 436.99,-484.76"/>
</g>
<!-- Node65 -->
<g id="node38" class="node">
<title>Node65</title>
<g id="a_node38"><a xlink:href="class_e_b_p_f_1_1_e_b_p_f_bool_type.html" target="_top" xlink:title=" ">
<polygon fill="white" stroke="red" points="575,-342.5 575,-361.5 691,-361.5 691,-342.5 575,-342.5"/>
<text text-anchor="middle" x="633" y="-349.5" font-family="Helvetica,sans-Serif" font-size="10.00">EBPF::EBPFBoolType</text>
</a>
</g>
</g>
<!-- Node64&#45;&gt;Node65 -->
<g id="edge37" class="edge">
<title>Node64&#45;&gt;Node65</title>
<path fill="none" stroke="midnightblue" d="M443.44,-272.9C465.68,-290.28 503.83,-317.68 541,-333 551.59,-337.37 563.31,-340.77 574.71,-343.41"/>
<polygon fill="midnightblue" stroke="midnightblue" points="445.47,-270.05 435.47,-266.57 441.12,-275.53 445.47,-270.05"/>
</g>
<!-- Node67 -->
<g id="node39" class="node">
<title>Node67</title>
<g id="a_node39"><a xlink:href="class_e_b_p_f_1_1_e_b_p_f_enum_type.html" target="_top" xlink:title=" ">
<polygon fill="white" stroke="red" points="572,-304.5 572,-323.5 694,-323.5 694,-304.5 572,-304.5"/>
<text text-anchor="middle" x="633" y="-311.5" font-family="Helvetica,sans-Serif" font-size="10.00">EBPF::EBPFEnumType</text>
</a>
</g>
</g>
<!-- Node64&#45;&gt;Node67 -->
<g id="edge38" class="edge">
<title>Node64&#45;&gt;Node67</title>
<path fill="none" stroke="midnightblue" d="M460.37,-269.94C483.31,-277.82 513.67,-287.73 541,-295 553.95,-298.44 568.06,-301.65 581.23,-304.41"/>
<polygon fill="midnightblue" stroke="midnightblue" points="461.3,-266.56 450.71,-266.59 459.01,-273.17 461.3,-266.56"/>
</g>
<!-- Node69 -->
<g id="node40" class="node">
<title>Node69</title>
<g id="a_node40"><a xlink:href="class_e_b_p_f_1_1_e_b_p_f_error_type.html" target="_top" xlink:title=" ">
<polygon fill="white" stroke="red" points="574.5,-266.5 574.5,-285.5 691.5,-285.5 691.5,-266.5 574.5,-266.5"/>
<text text-anchor="middle" x="633" y="-273.5" font-family="Helvetica,sans-Serif" font-size="10.00">EBPF::EBPFErrorType</text>
</a>
</g>
</g>
<!-- Node64&#45;&gt;Node69 -->
<g id="edge39" class="edge">
<title>Node64&#45;&gt;Node69</title>
<path fill="none" stroke="midnightblue" d="M479.69,-262.09C508.9,-264.76 544.65,-268.02 574.17,-270.72"/>
<polygon fill="midnightblue" stroke="midnightblue" points="479.92,-258.59 469.65,-261.17 479.29,-265.56 479.92,-258.59"/>
</g>
<!-- Node71 -->
<g id="node41" class="node">
<title>Node71</title>
<g id="a_node41"><a xlink:href="class_e_b_p_f_1_1_e_b_p_f_scalar_type.html" target="_top" xlink:title=" ">
<polygon fill="white" stroke="red" points="571.5,-228.5 571.5,-247.5 694.5,-247.5 694.5,-228.5 571.5,-228.5"/>
<text text-anchor="middle" x="633" y="-235.5" font-family="Helvetica,sans-Serif" font-size="10.00">EBPF::EBPFScalarType</text>
</a>
</g>
</g>
<!-- Node64&#45;&gt;Node71 -->
<g id="edge40" class="edge">
<title>Node64&#45;&gt;Node71</title>
<path fill="none" stroke="midnightblue" d="M479.78,-251.91C508.08,-249.32 542.51,-246.17 571.46,-243.53"/>
<polygon fill="midnightblue" stroke="midnightblue" points="479.29,-248.44 469.65,-252.83 479.92,-255.41 479.29,-248.44"/>
</g>
<!-- Node74 -->
<g id="node42" class="node">
<title>Node74</title>
<g id="a_node42"><a xlink:href="class_e_b_p_f_1_1_e_b_p_f_stack_type.html" target="_top" xlink:title=" ">
<polygon fill="white" stroke="black" points="573,-190.5 573,-209.5 693,-209.5 693,-190.5 573,-190.5"/>
<text text-anchor="middle" x="633" y="-197.5" font-family="Helvetica,sans-Serif" font-size="10.00">EBPF::EBPFStackType</text>
</a>
</g>
</g>
<!-- Node64&#45;&gt;Node74 -->
<g id="edge41" class="edge">
<title>Node64&#45;&gt;Node74</title>
<path fill="none" stroke="midnightblue" d="M479.33,-246.02C488.03,-243.72 496.84,-241.05 505,-238 521.94,-231.66 523.98,-225.13 541,-219 551.48,-215.23 562.92,-212.11 574.04,-209.56"/>
<polygon fill="midnightblue" stroke="midnightblue" points="478.45,-242.63 469.59,-248.45 480.14,-249.42 478.45,-242.63"/>
</g>
<!-- Node75 -->
<g id="node43" class="node">
<title>Node75</title>
<g id="a_node43"><a xlink:href="class_e_b_p_f_1_1_e_b_p_f_struct_type.html" target="_top" xlink:title="Also represents headers and unions.">
<polygon fill="white" stroke="red" points="572,-152.5 572,-171.5 694,-171.5 694,-152.5 572,-152.5"/>
<text text-anchor="middle" x="633" y="-159.5" font-family="Helvetica,sans-Serif" font-size="10.00">EBPF::EBPFStructType</text>
</a>
</g>
</g>
<!-- Node64&#45;&gt;Node75 -->
<g id="edge42" class="edge">
<title>Node64&#45;&gt;Node75</title>
<path fill="none" stroke="midnightblue" d="M479.68,-250C488.67,-247.22 497.48,-243.35 505,-238 529.4,-220.62 516.38,-198.08 541,-181 550.15,-174.65 560.98,-170.34 571.91,-167.44"/>
<polygon fill="midnightblue" stroke="midnightblue" points="478.66,-246.65 469.91,-252.62 480.48,-253.42 478.66,-246.65"/>
</g>
<!-- Node77 -->
<g id="node44" class="node">
<title>Node77</title>
<g id="a_node44"><a xlink:href="class_e_b_p_f_1_1_e_b_p_f_type_name.html" target="_top" xlink:title="This should not always implement IHasWidth, but it may...">
<polygon fill="white" stroke="black" points="572,-114.5 572,-133.5 694,-133.5 694,-114.5 572,-114.5"/>
<text text-anchor="middle" x="633" y="-121.5" font-family="Helvetica,sans-Serif" font-size="10.00">EBPF::EBPFTypeName</text>
</a>
</g>
</g>
<!-- Node64&#45;&gt;Node77 -->
<g id="edge43" class="edge">
<title>Node64&#45;&gt;Node77</title>
<path fill="none" stroke="midnightblue" d="M479.44,-251.62C488.76,-248.69 497.74,-244.36 505,-238 538.96,-208.24 506.68,-172.34 541,-143 549.71,-135.56 560.59,-130.78 571.76,-127.76"/>
<polygon fill="midnightblue" stroke="midnightblue" points="478.45,-248.27 469.67,-254.2 480.23,-255.04 478.45,-248.27"/>
</g>
<!-- Node78 -->
<g id="node45" class="node">
<title>Node78</title>
<g id="a_node45"><a xlink:href="class_u_b_p_f_1_1_u_b_p_f_list_type.html" target="_top" xlink:title=" ">
<polygon fill="white" stroke="black" points="576,-76.5 576,-95.5 690,-95.5 690,-76.5 576,-76.5"/>
<text text-anchor="middle" x="633" y="-83.5" font-family="Helvetica,sans-Serif" font-size="10.00">UBPF::UBPFListType</text>
</a>
</g>
</g>
<!-- Node64&#45;&gt;Node78 -->
<g id="edge44" class="edge">
<title>Node64&#45;&gt;Node78</title>
<path fill="none" stroke="midnightblue" d="M479.66,-252.29C489.03,-249.31 497.99,-244.78 505,-238 549.03,-195.44 496.45,-147.02 541,-105 550.51,-96.03 563.11,-90.83 575.9,-87.92"/>
<polygon fill="midnightblue" stroke="midnightblue" points="478.58,-248.96 469.79,-254.88 480.35,-255.73 478.58,-248.96"/>
</g>
<!-- Node81 -->
<g id="node48" class="node">
<title>Node81</title>
<g id="a_node48"><a xlink:href="class_u_b_p_f_1_1_u_b_p_f_register.html" target="_top" xlink:title=" ">
<polygon fill="white" stroke="black" points="575.5,-38.5 575.5,-57.5 690.5,-57.5 690.5,-38.5 575.5,-38.5"/>
<text text-anchor="middle" x="633" y="-45.5" font-family="Helvetica,sans-Serif" font-size="10.00">UBPF::UBPFRegister</text>
</a>
</g>
</g>
<!-- Node80&#45;&gt;Node81 -->
<g id="edge47" class="edge">
<title>Node80&#45;&gt;Node81</title>
<path fill="none" stroke="midnightblue" d="M495,-48C521.27,-48 550.67,-48 575.48,-48"/>
<polygon fill="midnightblue" stroke="midnightblue" points="494.72,-44.5 484.72,-48 494.72,-51.5 494.72,-44.5"/>
</g>
<!-- Node82 -->
<g id="node49" class="node">
<title>Node82</title>
<g id="a_node49"><a xlink:href="class_u_b_p_f_1_1_u_b_p_f_table.html" target="_top" xlink:title=" ">
<polygon fill="white" stroke="black" points="583.5,-0.5 583.5,-19.5 682.5,-19.5 682.5,-0.5 583.5,-0.5"/>
<text text-anchor="middle" x="633" y="-7.5" font-family="Helvetica,sans-Serif" font-size="10.00">UBPF::UBPFTable</text>
</a>
</g>
</g>
<!-- Node80&#45;&gt;Node82 -->
<g id="edge48" class="edge">
<title>Node80&#45;&gt;Node82</title>
<path fill="none" stroke="midnightblue" d="M486.09,-36.66C517.2,-30.97 554.32,-24.19 583.33,-18.89"/>
<polygon fill="midnightblue" stroke="midnightblue" points="485.43,-33.22 476.22,-38.46 486.68,-40.11 485.43,-33.22"/>
</g>
</g>
</svg>
