<?xml version="1.0" encoding="UTF-8" standalone="no"?>
<!DOCTYPE svg PUBLIC "-//W3C//DTD SVG 1.1//EN"
 "http://www.w3.org/Graphics/SVG/1.1/DTD/svg11.dtd">
<!-- Generated by graphviz version 2.43.0 (0)
 -->
<!-- Title: AbstractSolver Pages: 1 -->
<svg width="111pt" height="196pt"
 viewBox="0.00 0.00 111.00 196.00" xmlns="http://www.w3.org/2000/svg" xmlns:xlink="http://www.w3.org/1999/xlink">
<g id="graph0" class="graph" transform="scale(1 1) rotate(0) translate(4 192)">
<title>AbstractSolver</title>
<polygon fill="white" stroke="transparent" points="-4,4 -4,-192 107,-192 107,4 -4,4"/>
<!-- Node1 -->
<g id="node1" class="node">
<title>Node1</title>
<g id="a_node1"><a xlink:title="Provides a higher&#45;level interface for an SMT solver.">
<polygon fill="#bfbfbf" stroke="black" points="7.5,-56.5 7.5,-75.5 95.5,-75.5 95.5,-56.5 7.5,-56.5"/>
<text text-anchor="middle" x="51.5" y="-63.5" font-family="Helvetica,sans-Serif" font-size="10.00">AbstractSolver</text>
</a>
</g>
</g>
<!-- Node4 -->
<g id="node4" class="node">
<title>Node4</title>
<g id="a_node4"><a xlink:href="class_p4_tools_1_1_z3_solver.html" target="_top" xlink:title="A Z3&#45;based implementation of AbstractSolver. Encapsulates a z3::solver and a z3::context.">
<polygon fill="white" stroke="black" points="0,-0.5 0,-19.5 103,-19.5 103,-0.5 0,-0.5"/>
<text text-anchor="middle" x="51.5" y="-7.5" font-family="Helvetica,sans-Serif" font-size="10.00">P4Tools::Z3Solver</text>
</a>
</g>
</g>
<!-- Node1&#45;&gt;Node4 -->
<g id="edge3" class="edge">
<title>Node1&#45;&gt;Node4</title>
<path fill="none" stroke="midnightblue" d="M51.5,-45.8C51.5,-36.91 51.5,-26.78 51.5,-19.75"/>
<polygon fill="midnightblue" stroke="midnightblue" points="48,-46.08 51.5,-56.08 55,-46.08 48,-46.08"/>
</g>
<!-- Node2 -->
<g id="node2" class="node">
<title>Node2</title>
<g id="a_node2"><a xlink:href="class_i_castable.html" target="_top" xlink:title=" ">
<polygon fill="white" stroke="black" points="20.5,-112.5 20.5,-131.5 82.5,-131.5 82.5,-112.5 20.5,-112.5"/>
<text text-anchor="middle" x="51.5" y="-119.5" font-family="Helvetica,sans-Serif" font-size="10.00">ICastable</text>
</a>
</g>
</g>
<!-- Node2&#45;&gt;Node1 -->
<g id="edge1" class="edge">
<title>Node2&#45;&gt;Node1</title>
<path fill="none" stroke="midnightblue" d="M51.5,-101.8C51.5,-92.91 51.5,-82.78 51.5,-75.75"/>
<polygon fill="midnightblue" stroke="midnightblue" points="48,-102.08 51.5,-112.08 55,-102.08 48,-102.08"/>
</g>
<!-- Node3 -->
<g id="node3" class="node">
<title>Node3</title>
<g id="a_node3"><a xlink:href="struct_r_t_t_i_1_1_base.html" target="_top" xlink:title=" ">
<polygon fill="white" stroke="black" points="17.5,-168.5 17.5,-187.5 85.5,-187.5 85.5,-168.5 17.5,-168.5"/>
<text text-anchor="middle" x="51.5" y="-175.5" font-family="Helvetica,sans-Serif" font-size="10.00">RTTI::Base</text>
</a>
</g>
</g>
<!-- Node3&#45;&gt;Node2 -->
<g id="edge2" class="edge">
<title>Node3&#45;&gt;Node2</title>
<path fill="none" stroke="midnightblue" d="M51.5,-157.8C51.5,-148.91 51.5,-138.78 51.5,-131.75"/>
<polygon fill="midnightblue" stroke="midnightblue" points="48,-158.08 51.5,-168.08 55,-158.08 48,-158.08"/>
</g>
</g>
</svg>
