<?xml version="1.0" encoding="UTF-8" standalone="no"?>
<!DOCTYPE svg PUBLIC "-//W3C//DTD SVG 1.1//EN"
 "http://www.w3.org/Graphics/SVG/1.1/DTD/svg11.dtd">
<!-- Generated by graphviz version 2.43.0 (0)
 -->
<!-- Title: P4Tools::P4Testgen::EBPF::EBPFExprStepper Pages: 1 -->
<svg width="145pt" height="285pt"
 viewBox="0.00 0.00 145.00 285.00" xmlns="http://www.w3.org/2000/svg" xmlns:xlink="http://www.w3.org/1999/xlink">
<g id="graph0" class="graph" transform="scale(1 1) rotate(0) translate(4 281)">
<title>P4Tools::P4Testgen::EBPF::EBPFExprStepper</title>
<polygon fill="white" stroke="transparent" points="-4,4 -4,-281 141,-281 141,4 -4,4"/>
<!-- Node1 -->
<g id="node1" class="node">
<title>Node1</title>
<g id="a_node1"><a xlink:title=" ">
<polygon fill="#bfbfbf" stroke="black" points="0,-0.5 0,-30.5 137,-30.5 137,-0.5 0,-0.5"/>
<text text-anchor="start" x="8" y="-18.5" font-family="Helvetica,sans-Serif" font-size="10.00">P4Tools::P4Testgen</text>
<text text-anchor="middle" x="68.5" y="-7.5" font-family="Helvetica,sans-Serif" font-size="10.00">::EBPF::EBPFExprStepper</text>
</a>
</g>
</g>
<!-- Node2 -->
<g id="node2" class="node">
<title>Node2</title>
<g id="a_node2"><a xlink:href="class_p4_tools_1_1_p4_testgen_1_1_expr_stepper.html" target="_top" xlink:title="Implements small&#45;step operational semantics for expressions.">
<polygon fill="white" stroke="black" points="14,-67.5 14,-97.5 123,-97.5 123,-67.5 14,-67.5"/>
<text text-anchor="start" x="22" y="-85.5" font-family="Helvetica,sans-Serif" font-size="10.00">P4Tools::P4Testgen</text>
<text text-anchor="middle" x="68.5" y="-74.5" font-family="Helvetica,sans-Serif" font-size="10.00">::ExprStepper</text>
</a>
</g>
</g>
<!-- Node2&#45;&gt;Node1 -->
<g id="edge1" class="edge">
<title>Node2&#45;&gt;Node1</title>
<path fill="none" stroke="midnightblue" d="M68.5,-57.11C68.5,-48.15 68.5,-38.32 68.5,-30.58"/>
<polygon fill="midnightblue" stroke="midnightblue" points="65,-57.4 68.5,-67.4 72,-57.4 65,-57.4"/>
</g>
<!-- Node3 -->
<g id="node3" class="node">
<title>Node3</title>
<g id="a_node3"><a xlink:href="class_p4_tools_1_1_p4_testgen_1_1_abstract_stepper.html" target="_top" xlink:title=" ">
<polygon fill="white" stroke="black" points="14,-134.5 14,-164.5 123,-164.5 123,-134.5 14,-134.5"/>
<text text-anchor="start" x="22" y="-152.5" font-family="Helvetica,sans-Serif" font-size="10.00">P4Tools::P4Testgen</text>
<text text-anchor="middle" x="68.5" y="-141.5" font-family="Helvetica,sans-Serif" font-size="10.00">::AbstractStepper</text>
</a>
</g>
</g>
<!-- Node3&#45;&gt;Node2 -->
<g id="edge2" class="edge">
<title>Node3&#45;&gt;Node2</title>
<path fill="none" stroke="midnightblue" d="M68.5,-124.11C68.5,-115.15 68.5,-105.32 68.5,-97.58"/>
<polygon fill="midnightblue" stroke="midnightblue" points="65,-124.4 68.5,-134.4 72,-124.4 65,-124.4"/>
</g>
<!-- Node4 -->
<g id="node4" class="node">
<title>Node4</title>
<g id="a_node4"><a xlink:href="class_inspector.html" target="_top" xlink:title=" ">
<polygon fill="white" stroke="black" points="37.5,-201.5 37.5,-220.5 99.5,-220.5 99.5,-201.5 37.5,-201.5"/>
<text text-anchor="middle" x="68.5" y="-208.5" font-family="Helvetica,sans-Serif" font-size="10.00">Inspector</text>
</a>
</g>
</g>
<!-- Node4&#45;&gt;Node3 -->
<g id="edge3" class="edge">
<title>Node4&#45;&gt;Node3</title>
<path fill="none" stroke="midnightblue" d="M68.5,-191.23C68.5,-182.59 68.5,-172.5 68.5,-164.52"/>
<polygon fill="midnightblue" stroke="midnightblue" points="65,-191.48 68.5,-201.48 72,-191.48 65,-191.48"/>
</g>
<!-- Node5 -->
<g id="node5" class="node">
<title>Node5</title>
<g id="a_node5"><a xlink:href="class_visitor.html" target="_top" xlink:title=" ">
<polygon fill="white" stroke="black" points="44.5,-257.5 44.5,-276.5 92.5,-276.5 92.5,-257.5 44.5,-257.5"/>
<text text-anchor="middle" x="68.5" y="-264.5" font-family="Helvetica,sans-Serif" font-size="10.00">Visitor</text>
</a>
</g>
</g>
<!-- Node5&#45;&gt;Node4 -->
<g id="edge4" class="edge">
<title>Node5&#45;&gt;Node4</title>
<path fill="none" stroke="midnightblue" d="M68.5,-246.8C68.5,-237.91 68.5,-227.78 68.5,-220.75"/>
<polygon fill="midnightblue" stroke="midnightblue" points="65,-247.08 68.5,-257.08 72,-247.08 65,-247.08"/>
</g>
</g>
</svg>
