<?xml version="1.0" encoding="UTF-8" standalone="no"?>
<!DOCTYPE svg PUBLIC "-//W3C//DTD SVG 1.1//EN"
 "http://www.w3.org/Graphics/SVG/1.1/DTD/svg11.dtd">
<!-- Generated by graphviz version 2.43.0 (0)
 -->
<!-- Title: IHasDbPrint Pages: 1 -->
<svg width="1015pt" height="762pt"
 viewBox="0.00 0.00 1015.00 761.50" xmlns="http://www.w3.org/2000/svg" xmlns:xlink="http://www.w3.org/1999/xlink">
<g id="graph0" class="graph" transform="scale(1 1) rotate(0) translate(4 757.5)">
<title>IHasDbPrint</title>
<!-- Node1 -->
<g id="Node000001" class="node">
<title>Node1</title>
<g id="a_Node000001"><a xlink:title=" ">
<polygon fill="#999999" stroke="#666666" points="74,-469 0,-469 0,-450 74,-450 74,-469"/>
<text text-anchor="middle" x="37" y="-457" font-family="Helvetica,sans-Serif" font-size="10.00">IHasDbPrint</text>
</a>
</g>
</g>
<!-- Node2 -->
<g id="Node000002" class="node">
<title>Node2</title>
<g id="a_Node000002"><a xlink:href="class_b_m_v2_1_1_c_f_g.html" target="_top" xlink:title=" ">
<polygon fill="white" stroke="#666666" points="204,-543 133,-543 133,-524 204,-524 204,-543"/>
<text text-anchor="middle" x="168.5" y="-531" font-family="Helvetica,sans-Serif" font-size="10.00">BMV2::CFG</text>
</a>
</g>
</g>
<!-- Node1&#45;&gt;Node2 -->
<g id="edge1_Node000001_Node000002" class="edge">
<title>Node1&#45;&gt;Node2</title>
<g id="a_edge1_Node000001_Node000002"><a xlink:title=" ">
<path fill="none" stroke="#63b8ff" d="M55.66,-476.18C69.51,-488.51 89.78,-504.92 110,-515.5 117.14,-519.24 125.18,-522.35 132.94,-524.88"/>
<polygon fill="#63b8ff" stroke="#63b8ff" points="57.66,-473.27 47.92,-469.12 52.95,-478.45 57.66,-473.27"/>
</a>
</g>
</g>
<!-- Node3 -->
<g id="Node000003" class="node">
<title>Node3</title>
<g id="a_Node000003"><a xlink:href="class_b_m_v2_1_1_c_f_g_1_1_edge_set.html" target="_top" xlink:title=" ">
<polygon fill="white" stroke="#bfbfbf" points="227,-506 110,-506 110,-487 227,-487 227,-506"/>
<text text-anchor="middle" x="168.5" y="-494" font-family="Helvetica,sans-Serif" font-size="10.00">BMV2::CFG::EdgeSet</text>
</a>
</g>
</g>
<!-- Node1&#45;&gt;Node3 -->
<g id="edge2_Node000001_Node000003" class="edge">
<title>Node1&#45;&gt;Node3</title>
<g id="a_edge2_Node000001_Node000003"><a xlink:title=" ">
<path fill="none" stroke="#63b8ff" d="M81.14,-471.83C98.29,-476.73 117.73,-482.28 133.81,-486.88"/>
<polygon fill="#63b8ff" stroke="#63b8ff" points="81.93,-468.41 71.35,-469.03 80,-475.14 81.93,-468.41"/>
</a>
</g>
</g>
<!-- Node4 -->
<g id="Node000004" class="node">
<title>Node4</title>
<g id="a_Node000004"><a xlink:href="class_b_m_v2_1_1_c_f_g_1_1_node.html" target="_top" xlink:title=" ">
<polygon fill="white" stroke="#bfbfbf" points="220,-469 117,-469 117,-450 220,-450 220,-469"/>
<text text-anchor="middle" x="168.5" y="-457" font-family="Helvetica,sans-Serif" font-size="10.00">BMV2::CFG::Node</text>
</a>
</g>
</g>
<!-- Node1&#45;&gt;Node4 -->
<g id="edge3_Node000001_Node000004" class="edge">
<title>Node1&#45;&gt;Node4</title>
<g id="a_edge3_Node000001_Node000004"><a xlink:title=" ">
<path fill="none" stroke="#63b8ff" d="M84.28,-459.5C94.76,-459.5 105.96,-459.5 116.62,-459.5"/>
<polygon fill="#63b8ff" stroke="#63b8ff" points="84.07,-456 74.07,-459.5 84.07,-463 84.07,-456"/>
</a>
</g>
</g>
<!-- Node8 -->
<g id="Node000008" class="node">
<title>Node8</title>
<g id="a_Node000008"><a xlink:href="class_i_r_1_1_i_node.html" target="_top" xlink:title=" ">
<polygon fill="white" stroke="#bfbfbf" points="199,-432 138,-432 138,-413 199,-413 199,-432"/>
<text text-anchor="middle" x="168.5" y="-420" font-family="Helvetica,sans-Serif" font-size="10.00">IR::INode</text>
</a>
</g>
</g>
<!-- Node1&#45;&gt;Node8 -->
<g id="edge7_Node000001_Node000008" class="edge">
<title>Node1&#45;&gt;Node8</title>
<g id="a_edge7_Node000001_Node000008"><a xlink:title=" ">
<path fill="none" stroke="#63b8ff" d="M81.08,-447.19C99.69,-441.87 121,-435.79 137.8,-430.99"/>
<polygon fill="#63b8ff" stroke="#63b8ff" points="80,-443.86 71.35,-449.97 81.93,-450.59 80,-443.86"/>
</a>
</g>
</g>
<!-- Node46 -->
<g id="Node000046" class="node">
<title>Node46</title>
<g id="a_Node000046"><a xlink:href="class_util_1_1_comment.html" target="_top" xlink:title=" ">
<polygon fill="white" stroke="#bfbfbf" points="212.5,-395 124.5,-395 124.5,-376 212.5,-376 212.5,-395"/>
<text text-anchor="middle" x="168.5" y="-383" font-family="Helvetica,sans-Serif" font-size="10.00">Util::Comment</text>
</a>
</g>
</g>
<!-- Node1&#45;&gt;Node46 -->
<g id="edge45_Node000001_Node000046" class="edge">
<title>Node1&#45;&gt;Node46</title>
<g id="a_edge45_Node000001_Node000046"><a xlink:title=" ">
<path fill="none" stroke="#8b1a1a" d="M56.24,-442.81C70.13,-430.81 90.19,-414.96 110,-404.5 116.97,-400.82 124.8,-397.66 132.37,-395.04"/>
<polygon fill="#8b1a1a" stroke="#8b1a1a" points="53.61,-440.46 48.44,-449.7 58.25,-445.7 53.61,-440.46"/>
</a>
</g>
</g>
<!-- Node5 -->
<g id="Node000005" class="node">
<title>Node5</title>
<g id="a_Node000005"><a xlink:href="class_b_m_v2_1_1_c_f_g_1_1_dummy_node.html" target="_top" xlink:title=" ">
<polygon fill="white" stroke="#bfbfbf" points="405,-543 263,-543 263,-524 405,-524 405,-543"/>
<text text-anchor="middle" x="334" y="-531" font-family="Helvetica,sans-Serif" font-size="10.00">BMV2::CFG::DummyNode</text>
</a>
</g>
</g>
<!-- Node4&#45;&gt;Node5 -->
<g id="edge4_Node000004_Node000005" class="edge">
<title>Node4&#45;&gt;Node5</title>
<g id="a_edge4_Node000004_Node000005"><a xlink:title=" ">
<path fill="none" stroke="#63b8ff" d="M216.45,-472.87C220.12,-474.55 223.69,-476.43 227,-478.5 246.45,-490.67 243.15,-503.99 263,-515.5 268.86,-518.9 275.37,-521.66 281.98,-523.91"/>
<polygon fill="#63b8ff" stroke="#63b8ff" points="217.76,-469.62 207.18,-469.05 215.1,-476.1 217.76,-469.62"/>
</a>
</g>
</g>
<!-- Node6 -->
<g id="Node000006" class="node">
<title>Node6</title>
<g id="a_Node000006"><a xlink:href="class_b_m_v2_1_1_c_f_g_1_1_if_node.html" target="_top" xlink:title=" ">
<polygon fill="white" stroke="#bfbfbf" points="389,-506 279,-506 279,-487 389,-487 389,-506"/>
<text text-anchor="middle" x="334" y="-494" font-family="Helvetica,sans-Serif" font-size="10.00">BMV2::CFG::IfNode</text>
</a>
</g>
</g>
<!-- Node4&#45;&gt;Node6 -->
<g id="edge5_Node000004_Node000006" class="edge">
<title>Node4&#45;&gt;Node6</title>
<g id="a_edge5_Node000004_Node000006"><a xlink:title=" ">
<path fill="none" stroke="#63b8ff" d="M221.59,-471.29C243.91,-476.34 269.65,-482.16 290.75,-486.94"/>
<polygon fill="#63b8ff" stroke="#63b8ff" points="222.13,-467.82 211.61,-469.03 220.59,-474.65 222.13,-467.82"/>
</a>
</g>
</g>
<!-- Node7 -->
<g id="Node000007" class="node">
<title>Node7</title>
<g id="a_Node000007"><a xlink:href="class_b_m_v2_1_1_c_f_g_1_1_table_node.html" target="_top" xlink:title=" ">
<polygon fill="white" stroke="#bfbfbf" points="398,-469 270,-469 270,-450 398,-450 398,-469"/>
<text text-anchor="middle" x="334" y="-457" font-family="Helvetica,sans-Serif" font-size="10.00">BMV2::CFG::TableNode</text>
</a>
</g>
</g>
<!-- Node4&#45;&gt;Node7 -->
<g id="edge6_Node000004_Node000007" class="edge">
<title>Node4&#45;&gt;Node7</title>
<g id="a_edge6_Node000004_Node000007"><a xlink:title=" ">
<path fill="none" stroke="#63b8ff" d="M230.45,-459.5C243.3,-459.5 256.87,-459.5 269.8,-459.5"/>
<polygon fill="#63b8ff" stroke="#63b8ff" points="230.34,-456 220.34,-459.5 230.34,-463 230.34,-456"/>
</a>
</g>
</g>
<!-- Node9 -->
<g id="Node000009" class="node">
<title>Node9</title>
<g id="a_Node000009"><a xlink:href="class_i_r_1_1_i_declaration.html" target="_top" xlink:title="The Declaration interface, representing objects with names.">
<polygon fill="white" stroke="#666666" points="380,-432 288,-432 288,-413 380,-413 380,-432"/>
<text text-anchor="middle" x="334" y="-420" font-family="Helvetica,sans-Serif" font-size="10.00">IR::IDeclaration</text>
</a>
</g>
</g>
<!-- Node8&#45;&gt;Node9 -->
<g id="edge8_Node000008_Node000009" class="edge">
<title>Node8&#45;&gt;Node9</title>
<g id="a_edge8_Node000008_Node000009"><a xlink:title=" ">
<path fill="none" stroke="#63b8ff" d="M209.19,-422.5C232.94,-422.5 263.21,-422.5 287.88,-422.5"/>
<polygon fill="#63b8ff" stroke="#63b8ff" points="209.11,-419 199.11,-422.5 209.11,-426 209.11,-419"/>
</a>
</g>
</g>
<!-- Node10 -->
<g id="Node000010" class="node">
<title>Node10</title>
<g id="a_Node000010"><a xlink:href="class_i_r_1_1_node.html" target="_top" xlink:title=" ">
<polygon fill="white" stroke="#bfbfbf" points="363,-395 305,-395 305,-376 363,-376 363,-395"/>
<text text-anchor="middle" x="334" y="-383" font-family="Helvetica,sans-Serif" font-size="10.00">IR::Node</text>
</a>
</g>
</g>
<!-- Node8&#45;&gt;Node10 -->
<g id="edge9_Node000008_Node000010" class="edge">
<title>Node8&#45;&gt;Node10</title>
<g id="a_edge9_Node000008_Node000010"><a xlink:title=" ">
<path fill="none" stroke="#63b8ff" d="M209.13,-413.53C238.77,-406.82 278.58,-397.81 304.98,-391.84"/>
<polygon fill="#63b8ff" stroke="#63b8ff" points="208.09,-410.18 199.11,-415.8 209.63,-417.01 208.09,-410.18"/>
</a>
</g>
</g>
<!-- Node11 -->
<g id="Node000011" class="node">
<title>Node11</title>
<g id="a_Node000011"><a xlink:href="class_i_r_1_1_name_map.html" target="_top" xlink:title=" ">
<polygon fill="white" stroke="#bfbfbf" points="581,-448.5 450,-448.5 450,-418.5 581,-418.5 581,-448.5"/>
<text text-anchor="start" x="458" y="-436.5" font-family="Helvetica,sans-Serif" font-size="10.00">IR::NameMap&lt; T, MAP,</text>
<text text-anchor="middle" x="515.5" y="-425.5" font-family="Helvetica,sans-Serif" font-size="10.00"> COMP, ALLOC &gt;</text>
</a>
</g>
</g>
<!-- Node10&#45;&gt;Node11 -->
<g id="edge10_Node000010_Node000011" class="edge">
<title>Node10&#45;&gt;Node11</title>
<g id="a_edge10_Node000010_Node000011"><a xlink:title=" ">
<path fill="none" stroke="#63b8ff" d="M372.78,-395.6C397.51,-402.22 430.28,-410.98 458.07,-418.41"/>
<polygon fill="#63b8ff" stroke="#63b8ff" points="373.61,-392.2 363.05,-393 371.8,-398.96 373.61,-392.2"/>
</a>
</g>
</g>
<!-- Node12 -->
<g id="Node000012" class="node">
<title>Node12</title>
<g id="a_Node000012"><a xlink:href="class_i_r_1_1_node_map.html" target="_top" xlink:title=" ">
<polygon fill="white" stroke="#bfbfbf" points="590,-400.5 441,-400.5 441,-370.5 590,-370.5 590,-400.5"/>
<text text-anchor="start" x="449" y="-388.5" font-family="Helvetica,sans-Serif" font-size="10.00">IR::NodeMap&lt; KEY, VALUE,</text>
<text text-anchor="middle" x="515.5" y="-377.5" font-family="Helvetica,sans-Serif" font-size="10.00"> MAP, COMP, ALLOC &gt;</text>
</a>
</g>
</g>
<!-- Node10&#45;&gt;Node12 -->
<g id="edge11_Node000010_Node000012" class="edge">
<title>Node10&#45;&gt;Node12</title>
<g id="a_edge11_Node000010_Node000012"><a xlink:title=" ">
<path fill="none" stroke="#63b8ff" d="M373.17,-385.5C392.91,-385.5 417.69,-385.5 440.97,-385.5"/>
<polygon fill="#63b8ff" stroke="#63b8ff" points="373.05,-382 363.05,-385.5 373.05,-389 373.05,-382"/>
</a>
</g>
</g>
<!-- Node13 -->
<g id="Node000013" class="node">
<title>Node13</title>
<g id="a_Node000013"><a xlink:href="class_i_r_1_1_vector_base.html" target="_top" xlink:title=" ">
<polygon fill="white" stroke="#bfbfbf" points="559,-352 472,-352 472,-333 559,-333 559,-352"/>
<text text-anchor="middle" x="515.5" y="-340" font-family="Helvetica,sans-Serif" font-size="10.00">IR::VectorBase</text>
</a>
</g>
</g>
<!-- Node10&#45;&gt;Node13 -->
<g id="edge12_Node000010_Node000013" class="edge">
<title>Node10&#45;&gt;Node13</title>
<g id="a_edge12_Node000010_Node000013"><a xlink:title=" ">
<path fill="none" stroke="#63b8ff" d="M373.09,-376.38C402.94,-369.22 444.37,-359.3 474.66,-352.04"/>
<polygon fill="#63b8ff" stroke="#63b8ff" points="371.96,-373.05 363.05,-378.78 373.59,-379.86 371.96,-373.05"/>
</a>
</g>
</g>
<!-- Node14 -->
<g id="Node000014" class="node">
<title>Node14</title>
<g id="a_Node000014"><a xlink:href="class_i_r_1_1_vector.html" target="_top" xlink:title=" ">
<polygon fill="white" stroke="#bfbfbf" points="826,-743 626,-743 626,-724 826,-724 826,-743"/>
<text text-anchor="middle" x="726" y="-731" font-family="Helvetica,sans-Serif" font-size="10.00">IR::Vector&lt; IR::DpdkAsmStatement &gt;</text>
</a>
</g>
</g>
<!-- Node13&#45;&gt;Node14 -->
<g id="edge13_Node000013_Node000014" class="edge">
<title>Node13&#45;&gt;Node14</title>
<g id="a_edge13_Node000013_Node000014"><a xlink:title=" ">
<path fill="none" stroke="#63b8ff" d="M568.97,-347.65C576.99,-350.63 584.43,-355.04 590,-361.5 690.05,-477.62 527.82,-586.79 626,-704.5 633.4,-713.37 643.35,-719.61 654.11,-723.99"/>
<polygon fill="#63b8ff" stroke="#63b8ff" points="569.95,-344.29 559.37,-344.77 567.94,-351 569.95,-344.29"/>
</a>
</g>
</g>
<!-- Node16 -->
<g id="Node000016" class="node">
<title>Node16</title>
<g id="a_Node000016"><a xlink:href="class_i_r_1_1_vector.html" target="_top" xlink:title=" ">
<polygon fill="white" stroke="#bfbfbf" points="789.5,-695 662.5,-695 662.5,-676 789.5,-676 789.5,-695"/>
<text text-anchor="middle" x="726" y="-683" font-family="Helvetica,sans-Serif" font-size="10.00">IR::Vector&lt; IR::Node &gt;</text>
</a>
</g>
</g>
<!-- Node13&#45;&gt;Node16 -->
<g id="edge15_Node000013_Node000016" class="edge">
<title>Node13&#45;&gt;Node16</title>
<g id="a_edge15_Node000013_Node000016"><a xlink:title=" ">
<path fill="none" stroke="#63b8ff" d="M568.88,-347.73C576.91,-350.7 584.38,-355.09 590,-361.5 677.06,-460.83 540.54,-555.79 626,-656.5 635.33,-667.49 648.58,-674.44 662.36,-678.8"/>
<polygon fill="#63b8ff" stroke="#63b8ff" points="569.86,-344.37 559.27,-344.85 567.85,-351.08 569.86,-344.37"/>
</a>
</g>
</g>
<!-- Node18 -->
<g id="Node000018" class="node">
<title>Node18</title>
<g id="a_Node000018"><a xlink:href="class_i_r_1_1_vector.html" target="_top" xlink:title=" ">
<polygon fill="white" stroke="#bfbfbf" points="805,-647 647,-647 647,-628 805,-628 805,-647"/>
<text text-anchor="middle" x="726" y="-635" font-family="Helvetica,sans-Serif" font-size="10.00">IR::Vector&lt; IR::Declaration &gt;</text>
</a>
</g>
</g>
<!-- Node13&#45;&gt;Node18 -->
<g id="edge17_Node000013_Node000018" class="edge">
<title>Node13&#45;&gt;Node18</title>
<g id="a_edge17_Node000013_Node000018"><a xlink:title=" ">
<path fill="none" stroke="#63b8ff" d="M568.75,-347.84C576.8,-350.8 584.31,-355.15 590,-361.5 664.09,-444.07 553.24,-524.75 626,-608.5 633.69,-617.36 643.93,-623.58 654.91,-627.94"/>
<polygon fill="#63b8ff" stroke="#63b8ff" points="569.73,-344.48 559.14,-344.97 567.72,-351.19 569.73,-344.48"/>
</a>
</g>
</g>
<!-- Node20 -->
<g id="Node000020" class="node">
<title>Node20</title>
<g id="a_Node000020"><a xlink:href="class_i_r_1_1_vector.html" target="_top" xlink:title=" ">
<polygon fill="white" stroke="#bfbfbf" points="803,-599 649,-599 649,-580 803,-580 803,-599"/>
<text text-anchor="middle" x="726" y="-587" font-family="Helvetica,sans-Serif" font-size="10.00">IR::Vector&lt; IR::StatOrDecl &gt;</text>
</a>
</g>
</g>
<!-- Node13&#45;&gt;Node20 -->
<g id="edge19_Node000013_Node000020" class="edge">
<title>Node13&#45;&gt;Node20</title>
<g id="a_edge19_Node000013_Node000020"><a xlink:title=" ">
<path fill="none" stroke="#63b8ff" d="M569.1,-348.2C576.97,-351.14 584.33,-355.39 590,-361.5 651.16,-427.36 565.9,-493.67 626,-560.5 633.96,-569.36 644.47,-575.57 655.66,-579.91"/>
<polygon fill="#63b8ff" stroke="#63b8ff" points="569.92,-344.79 559.34,-345.23 567.89,-351.49 569.92,-344.79"/>
</a>
</g>
</g>
<!-- Node22 -->
<g id="Node000022" class="node">
<title>Node22</title>
<g id="a_Node000022"><a xlink:href="class_i_r_1_1_vector.html" target="_top" xlink:title=" ">
<polygon fill="white" stroke="#bfbfbf" points="802,-551 650,-551 650,-532 802,-532 802,-551"/>
<text text-anchor="middle" x="726" y="-539" font-family="Helvetica,sans-Serif" font-size="10.00">IR::Vector&lt; IR::DpdkTable &gt;</text>
</a>
</g>
</g>
<!-- Node13&#45;&gt;Node22 -->
<g id="edge21_Node000013_Node000022" class="edge">
<title>Node13&#45;&gt;Node22</title>
<g id="a_edge21_Node000013_Node000022"><a xlink:title=" ">
<path fill="none" stroke="#63b8ff" d="M568.83,-348.46C576.73,-351.36 584.17,-355.54 590,-361.5 638.85,-411.43 577.48,-464.24 626,-514.5 633.55,-522.32 643.12,-527.94 653.32,-531.98"/>
<polygon fill="#63b8ff" stroke="#63b8ff" points="569.64,-345.04 559.05,-345.5 567.61,-351.74 569.64,-345.04"/>
</a>
</g>
</g>
<!-- Node24 -->
<g id="Node000024" class="node">
<title>Node24</title>
<g id="a_Node000024"><a xlink:href="class_i_r_1_1_vector.html" target="_top" xlink:title=" ">
<polygon fill="white" stroke="#bfbfbf" points="809.5,-505 642.5,-505 642.5,-486 809.5,-486 809.5,-505"/>
<text text-anchor="middle" x="726" y="-493" font-family="Helvetica,sans-Serif" font-size="10.00">IR::Vector&lt; IR::DpdkSelector &gt;</text>
</a>
</g>
</g>
<!-- Node13&#45;&gt;Node24 -->
<g id="edge23_Node000013_Node000024" class="edge">
<title>Node13&#45;&gt;Node24</title>
<g id="a_edge23_Node000013_Node000024"><a xlink:title=" ">
<path fill="none" stroke="#63b8ff" d="M568.69,-348.97C576.54,-351.83 584,-355.85 590,-361.5 627.77,-397.04 587.8,-437.43 626,-472.5 632.24,-478.23 639.62,-482.62 647.49,-485.97"/>
<polygon fill="#63b8ff" stroke="#63b8ff" points="569.59,-345.59 559,-346.04 567.56,-352.29 569.59,-345.59"/>
</a>
</g>
</g>
<!-- Node26 -->
<g id="Node000026" class="node">
<title>Node26</title>
<g id="a_Node000026"><a xlink:href="class_i_r_1_1_vector.html" target="_top" xlink:title=" ">
<polygon fill="white" stroke="#bfbfbf" points="808,-463 644,-463 644,-444 808,-444 808,-463"/>
<text text-anchor="middle" x="726" y="-451" font-family="Helvetica,sans-Serif" font-size="10.00">IR::Vector&lt; IR::DpdkLearner &gt;</text>
</a>
</g>
</g>
<!-- Node13&#45;&gt;Node26 -->
<g id="edge25_Node000013_Node000026" class="edge">
<title>Node13&#45;&gt;Node26</title>
<g id="a_edge25_Node000013_Node000026"><a xlink:title=" ">
<path fill="none" stroke="#63b8ff" d="M568.84,-349.99C576.47,-352.73 583.83,-356.45 590,-361.5 618.31,-384.65 596.86,-413.4 626,-435.5 631.43,-439.62 637.5,-442.9 643.89,-445.5"/>
<polygon fill="#63b8ff" stroke="#63b8ff" points="569.67,-346.58 559.08,-347.02 567.63,-353.28 569.67,-346.58"/>
</a>
</g>
</g>
<!-- Node28 -->
<g id="Node000028" class="node">
<title>Node28</title>
<g id="a_Node000028"><a xlink:href="class_i_r_1_1_vector.html" target="_top" xlink:title=" ">
<polygon fill="white" stroke="#bfbfbf" points="805,-426 647,-426 647,-407 805,-407 805,-426"/>
<text text-anchor="middle" x="726" y="-414" font-family="Helvetica,sans-Serif" font-size="10.00">IR::Vector&lt; IR::DpdkAction &gt;</text>
</a>
</g>
</g>
<!-- Node13&#45;&gt;Node28 -->
<g id="edge27_Node000013_Node000028" class="edge">
<title>Node13&#45;&gt;Node28</title>
<g id="a_edge27_Node000013_Node000028"><a xlink:title=" ">
<path fill="none" stroke="#63b8ff" d="M569.16,-352.34C576.41,-354.76 583.57,-357.77 590,-361.5 609.84,-373.02 605.75,-387.71 626,-398.5 632.55,-401.99 639.66,-404.82 646.95,-407.11"/>
<polygon fill="#63b8ff" stroke="#63b8ff" points="569.84,-348.89 559.25,-349.38 567.83,-355.59 569.84,-348.89"/>
</a>
</g>
</g>
<!-- Node30 -->
<g id="Node000030" class="node">
<title>Node30</title>
<g id="a_Node000030"><a xlink:href="class_i_r_1_1_vector.html" target="_top" xlink:title=" ">
<polygon fill="white" stroke="#bfbfbf" points="802,-389 650,-389 650,-370 802,-370 802,-389"/>
<text text-anchor="middle" x="726" y="-377" font-family="Helvetica,sans-Serif" font-size="10.00">IR::Vector&lt; IR::Parameter &gt;</text>
</a>
</g>
</g>
<!-- Node13&#45;&gt;Node30 -->
<g id="edge29_Node000013_Node000030" class="edge">
<title>Node13&#45;&gt;Node30</title>
<g id="a_edge29_Node000013_Node000030"><a xlink:title=" ">
<path fill="none" stroke="#63b8ff" d="M569.43,-351.89C600.59,-357.42 639.91,-364.4 671.22,-369.96"/>
<polygon fill="#63b8ff" stroke="#63b8ff" points="569.65,-348.38 559.2,-350.08 568.43,-355.27 569.65,-348.38"/>
</a>
</g>
</g>
<!-- Node32 -->
<g id="Node000032" class="node">
<title>Node32</title>
<g id="a_Node000032"><a xlink:href="class_i_r_1_1_vector.html" target="_top" xlink:title=" ">
<polygon fill="white" stroke="#bfbfbf" points="817.5,-352 634.5,-352 634.5,-333 817.5,-333 817.5,-352"/>
<text text-anchor="middle" x="726" y="-340" font-family="Helvetica,sans-Serif" font-size="10.00">IR::Vector&lt; IR::DpdkDeclaration &gt;</text>
</a>
</g>
</g>
<!-- Node13&#45;&gt;Node32 -->
<g id="edge31_Node000013_Node000032" class="edge">
<title>Node13&#45;&gt;Node32</title>
<g id="a_edge31_Node000013_Node000032"><a xlink:title=" ">
<path fill="none" stroke="#63b8ff" d="M569.47,-342.5C589.15,-342.5 612.07,-342.5 634.18,-342.5"/>
<polygon fill="#63b8ff" stroke="#63b8ff" points="569.2,-339 559.2,-342.5 569.2,-346 569.2,-339"/>
</a>
</g>
</g>
<!-- Node34 -->
<g id="Node000034" class="node">
<title>Node34</title>
<g id="a_Node000034"><a xlink:href="class_i_r_1_1_vector.html" target="_top" xlink:title=" ">
<polygon fill="white" stroke="#bfbfbf" points="802.5,-315 649.5,-315 649.5,-296 802.5,-296 802.5,-315"/>
<text text-anchor="middle" x="726" y="-303" font-family="Helvetica,sans-Serif" font-size="10.00">IR::Vector&lt; IR::StructField &gt;</text>
</a>
</g>
</g>
<!-- Node13&#45;&gt;Node34 -->
<g id="edge33_Node000013_Node000034" class="edge">
<title>Node13&#45;&gt;Node34</title>
<g id="a_edge33_Node000013_Node000034"><a xlink:title=" ">
<path fill="none" stroke="#63b8ff" d="M569.43,-333.11C600.59,-327.58 639.91,-320.6 671.22,-315.04"/>
<polygon fill="#63b8ff" stroke="#63b8ff" points="568.43,-329.73 559.2,-334.92 569.65,-336.62 568.43,-329.73"/>
</a>
</g>
</g>
<!-- Node36 -->
<g id="Node000036" class="node">
<title>Node36</title>
<g id="a_Node000036"><a xlink:href="class_i_r_1_1_vector.html" target="_top" xlink:title=" ">
<polygon fill="white" stroke="#bfbfbf" points="788,-278 664,-278 664,-259 788,-259 788,-278"/>
<text text-anchor="middle" x="726" y="-266" font-family="Helvetica,sans-Serif" font-size="10.00">IR::Vector&lt; IR::Type &gt;</text>
</a>
</g>
</g>
<!-- Node13&#45;&gt;Node36 -->
<g id="edge35_Node000013_Node000036" class="edge">
<title>Node13&#45;&gt;Node36</title>
<g id="a_edge35_Node000013_Node000036"><a xlink:title=" ">
<path fill="none" stroke="#63b8ff" d="M541.06,-327.69C562.71,-315.24 595.47,-297.87 626,-287.5 638.01,-283.42 651.16,-280.12 663.84,-277.5"/>
<polygon fill="#63b8ff" stroke="#63b8ff" points="539.09,-324.79 532.22,-332.85 542.62,-330.83 539.09,-324.79"/>
</a>
</g>
</g>
<!-- Node37 -->
<g id="Node000037" class="node">
<title>Node37</title>
<g id="a_Node000037"><a xlink:href="class_i_r_1_1_vector.html" target="_top" xlink:title=" ">
<polygon fill="white" stroke="#bfbfbf" points="804.5,-241 647.5,-241 647.5,-222 804.5,-222 804.5,-241"/>
<text text-anchor="middle" x="726" y="-229" font-family="Helvetica,sans-Serif" font-size="10.00">IR::Vector&lt; IR::ParserState &gt;</text>
</a>
</g>
</g>
<!-- Node13&#45;&gt;Node37 -->
<g id="edge36_Node000013_Node000037" class="edge">
<title>Node13&#45;&gt;Node37</title>
<g id="a_edge36_Node000013_Node000037"><a xlink:title=" ">
<path fill="none" stroke="#63b8ff" d="M531.63,-325.27C551.2,-304.13 587.4,-268.87 626,-250.5 634.22,-246.59 643.18,-243.48 652.25,-241.02"/>
<polygon fill="#63b8ff" stroke="#63b8ff" points="528.86,-323.1 524.74,-332.86 534.05,-327.8 528.86,-323.1"/>
</a>
</g>
</g>
<!-- Node39 -->
<g id="Node000039" class="node">
<title>Node39</title>
<g id="a_Node000039"><a xlink:href="class_i_r_1_1_vector.html" target="_top" xlink:title=" ">
<polygon fill="white" stroke="#bfbfbf" points="800.5,-204 651.5,-204 651.5,-185 800.5,-185 800.5,-204"/>
<text text-anchor="middle" x="726" y="-192" font-family="Helvetica,sans-Serif" font-size="10.00">IR::Vector&lt; IR::Argument &gt;</text>
</a>
</g>
</g>
<!-- Node13&#45;&gt;Node39 -->
<g id="edge38_Node000013_Node000039" class="edge">
<title>Node13&#45;&gt;Node39</title>
<g id="a_edge38_Node000013_Node000039"><a xlink:title=" ">
<path fill="none" stroke="#63b8ff" d="M526.7,-323.8C543.42,-295.1 579.47,-240.65 626,-213.5 633.78,-208.96 642.44,-205.47 651.31,-202.81"/>
<polygon fill="#63b8ff" stroke="#63b8ff" points="523.49,-322.37 521.61,-332.79 529.59,-325.82 523.49,-322.37"/>
</a>
</g>
</g>
<!-- Node40 -->
<g id="Node000040" class="node">
<title>Node40</title>
<g id="a_Node000040"><a xlink:href="class_i_r_1_1_vector.html" target="_top" xlink:title=" ">
<polygon fill="white" stroke="#bfbfbf" points="803.5,-167 648.5,-167 648.5,-148 803.5,-148 803.5,-167"/>
<text text-anchor="middle" x="726" y="-155" font-family="Helvetica,sans-Serif" font-size="10.00">IR::Vector&lt; IR::SelectCase &gt;</text>
</a>
</g>
</g>
<!-- Node13&#45;&gt;Node40 -->
<g id="edge39_Node000013_Node000040" class="edge">
<title>Node13&#45;&gt;Node40</title>
<g id="a_edge39_Node000013_Node000040"><a xlink:title=" ">
<path fill="none" stroke="#63b8ff" d="M523.44,-323.03C537.12,-287.67 571.09,-213.16 626,-176.5 632.84,-171.93 640.51,-168.4 648.46,-165.68"/>
<polygon fill="#63b8ff" stroke="#63b8ff" points="520.06,-322.07 519.84,-332.66 526.62,-324.52 520.06,-322.07"/>
</a>
</g>
</g>
<!-- Node41 -->
<g id="Node000041" class="node">
<title>Node41</title>
<g id="a_Node000041"><a xlink:href="class_i_r_1_1_vector.html" target="_top" xlink:title=" ">
<polygon fill="white" stroke="#bfbfbf" points="803.5,-130 648.5,-130 648.5,-111 803.5,-111 803.5,-130"/>
<text text-anchor="middle" x="726" y="-118" font-family="Helvetica,sans-Serif" font-size="10.00">IR::Vector&lt; IR::Expression &gt;</text>
</a>
</g>
</g>
<!-- Node13&#45;&gt;Node41 -->
<g id="edge40_Node000013_Node000041" class="edge">
<title>Node13&#45;&gt;Node41</title>
<g id="a_edge40_Node000013_Node000041"><a xlink:title=" ">
<path fill="none" stroke="#63b8ff" d="M520.99,-323.1C531.57,-282.05 562.11,-186.36 626,-139.5 632.7,-134.58 640.33,-130.84 648.3,-128"/>
<polygon fill="#63b8ff" stroke="#63b8ff" points="517.56,-322.38 518.58,-332.93 524.36,-324.05 517.56,-322.38"/>
</a>
</g>
</g>
<!-- Node42 -->
<g id="Node000042" class="node">
<title>Node42</title>
<g id="a_Node000042"><a xlink:href="class_i_r_1_1_vector.html" target="_top" xlink:title=" ">
<polygon fill="white" stroke="#bfbfbf" points="772.5,-93 679.5,-93 679.5,-74 772.5,-74 772.5,-93"/>
<text text-anchor="middle" x="726" y="-81" font-family="Helvetica,sans-Serif" font-size="10.00">IR::Vector&lt; N &gt;</text>
</a>
</g>
</g>
<!-- Node13&#45;&gt;Node42 -->
<g id="edge41_Node000013_Node000042" class="edge">
<title>Node13&#45;&gt;Node42</title>
<g id="a_edge41_Node000013_Node000042"><a xlink:title=" ">
<path fill="none" stroke="#63b8ff" d="M519.32,-322.82C527.06,-276.42 553.15,-159.76 626,-102.5 641,-90.71 661.17,-85.52 679.39,-83.44"/>
<polygon fill="#63b8ff" stroke="#63b8ff" points="515.84,-322.37 517.76,-332.79 522.76,-323.45 515.84,-322.37"/>
</a>
</g>
</g>
<!-- Node43 -->
<g id="Node000043" class="node">
<title>Node43</title>
<g id="a_Node000043"><a xlink:href="class_i_r_1_1_vector.html" target="_top" xlink:title=" ">
<polygon fill="white" stroke="#bfbfbf" points="803.5,-56 648.5,-56 648.5,-37 803.5,-37 803.5,-56"/>
<text text-anchor="middle" x="726" y="-44" font-family="Helvetica,sans-Serif" font-size="10.00">IR::Vector&lt; IR::Annotation &gt;</text>
</a>
</g>
</g>
<!-- Node13&#45;&gt;Node43 -->
<g id="edge42_Node000013_Node000043" class="edge">
<title>Node13&#45;&gt;Node43</title>
<g id="a_edge42_Node000013_Node000043"><a xlink:title=" ">
<path fill="none" stroke="#63b8ff" d="M518.02,-322.65C523.07,-271.31 544.01,-133.45 626,-65.5 632.6,-60.03 640.31,-55.96 648.44,-52.95"/>
<polygon fill="#63b8ff" stroke="#63b8ff" points="514.52,-322.48 517.12,-332.75 521.49,-323.09 514.52,-322.48"/>
</a>
</g>
</g>
<!-- Node44 -->
<g id="Node000044" class="node">
<title>Node44</title>
<g id="a_Node000044"><a xlink:href="class_i_r_1_1_vector.html" target="_top" xlink:title=" ">
<polygon fill="white" stroke="#bfbfbf" points="772,-19 680,-19 680,0 772,0 772,-19"/>
<text text-anchor="middle" x="726" y="-7" font-family="Helvetica,sans-Serif" font-size="10.00">IR::Vector&lt; T &gt;</text>
</a>
</g>
</g>
<!-- Node13&#45;&gt;Node44 -->
<g id="edge43_Node000013_Node000044" class="edge">
<title>Node13&#45;&gt;Node44</title>
<g id="a_edge43_Node000013_Node000044"><a xlink:title=" ">
<path fill="none" stroke="#63b8ff" d="M516.92,-322.6C519.25,-266.54 534.03,-106.24 626,-27.5 640.73,-14.89 661.3,-9.83 679.87,-8.15"/>
<polygon fill="#63b8ff" stroke="#63b8ff" points="513.41,-322.81 516.59,-332.92 520.41,-323.04 513.41,-322.81"/>
</a>
</g>
</g>
<!-- Node15 -->
<g id="Node000015" class="node">
<title>Node15</title>
<g id="a_Node000015"><a xlink:href="class_i_r_1_1_indexed_vector.html" target="_top" xlink:title=" ">
<polygon fill="white" stroke="#666666" points="1007,-753.5 862,-753.5 862,-723.5 1007,-723.5 1007,-753.5"/>
<text text-anchor="start" x="870" y="-741.5" font-family="Helvetica,sans-Serif" font-size="10.00">IR::IndexedVector&lt;</text>
<text text-anchor="middle" x="934.5" y="-730.5" font-family="Helvetica,sans-Serif" font-size="10.00"> IR::DpdkAsmStatement &gt;</text>
</a>
</g>
</g>
<!-- Node14&#45;&gt;Node15 -->
<g id="edge14_Node000014_Node000015" class="edge">
<title>Node14&#45;&gt;Node15</title>
<g id="a_edge14_Node000014_Node000015"><a xlink:title=" ">
<path fill="none" stroke="#63b8ff" d="M836.24,-736.14C844.94,-736.36 853.58,-736.56 861.91,-736.77"/>
<polygon fill="#63b8ff" stroke="#63b8ff" points="836.1,-732.64 826.02,-735.9 835.93,-739.64 836.1,-732.64"/>
</a>
</g>
</g>
<!-- Node17 -->
<g id="Node000017" class="node">
<title>Node17</title>
<g id="a_Node000017"><a xlink:href="class_i_r_1_1_indexed_vector.html" target="_top" xlink:title=" ">
<polygon fill="white" stroke="#666666" points="989.5,-705.5 879.5,-705.5 879.5,-675.5 989.5,-675.5 989.5,-705.5"/>
<text text-anchor="start" x="887.5" y="-693.5" font-family="Helvetica,sans-Serif" font-size="10.00">IR::IndexedVector&lt;</text>
<text text-anchor="middle" x="934.5" y="-682.5" font-family="Helvetica,sans-Serif" font-size="10.00"> IR::Node &gt;</text>
</a>
</g>
</g>
<!-- Node16&#45;&gt;Node17 -->
<g id="edge16_Node000016_Node000017" class="edge">
<title>Node16&#45;&gt;Node17</title>
<g id="a_edge16_Node000016_Node000017"><a xlink:title=" ">
<path fill="none" stroke="#63b8ff" d="M799.76,-687.26C825.91,-687.89 854.93,-688.6 879.23,-689.19"/>
<polygon fill="#63b8ff" stroke="#63b8ff" points="799.6,-683.76 789.52,-687.01 799.43,-690.75 799.6,-683.76"/>
</a>
</g>
</g>
<!-- Node19 -->
<g id="Node000019" class="node">
<title>Node19</title>
<g id="a_Node000019"><a xlink:href="class_i_r_1_1_indexed_vector.html" target="_top" xlink:title=" ">
<polygon fill="white" stroke="#666666" points="989.5,-657.5 879.5,-657.5 879.5,-627.5 989.5,-627.5 989.5,-657.5"/>
<text text-anchor="start" x="887.5" y="-645.5" font-family="Helvetica,sans-Serif" font-size="10.00">IR::IndexedVector&lt;</text>
<text text-anchor="middle" x="934.5" y="-634.5" font-family="Helvetica,sans-Serif" font-size="10.00"> IR::Declaration &gt;</text>
</a>
</g>
</g>
<!-- Node18&#45;&gt;Node19 -->
<g id="edge18_Node000018_Node000019" class="edge">
<title>Node18&#45;&gt;Node19</title>
<g id="a_edge18_Node000018_Node000019"><a xlink:title=" ">
<path fill="none" stroke="#63b8ff" d="M815.33,-639.64C837.12,-640.17 859.8,-640.72 879.41,-641.19"/>
<polygon fill="#63b8ff" stroke="#63b8ff" points="815.15,-636.13 805.07,-639.39 814.98,-643.13 815.15,-636.13"/>
</a>
</g>
</g>
<!-- Node21 -->
<g id="Node000021" class="node">
<title>Node21</title>
<g id="a_Node000021"><a xlink:href="class_i_r_1_1_indexed_vector.html" target="_top" xlink:title=" ">
<polygon fill="white" stroke="#666666" points="989.5,-609.5 879.5,-609.5 879.5,-579.5 989.5,-579.5 989.5,-609.5"/>
<text text-anchor="start" x="887.5" y="-597.5" font-family="Helvetica,sans-Serif" font-size="10.00">IR::IndexedVector&lt;</text>
<text text-anchor="middle" x="934.5" y="-586.5" font-family="Helvetica,sans-Serif" font-size="10.00"> IR::StatOrDecl &gt;</text>
</a>
</g>
</g>
<!-- Node20&#45;&gt;Node21 -->
<g id="edge20_Node000020_Node000021" class="edge">
<title>Node20&#45;&gt;Node21</title>
<g id="a_edge20_Node000020_Node000021"><a xlink:title=" ">
<path fill="none" stroke="#63b8ff" d="M813.2,-591.59C835.58,-592.13 859.06,-592.7 879.27,-593.19"/>
<polygon fill="#63b8ff" stroke="#63b8ff" points="813.1,-588.08 803.01,-591.34 812.93,-595.08 813.1,-588.08"/>
</a>
</g>
</g>
<!-- Node23 -->
<g id="Node000023" class="node">
<title>Node23</title>
<g id="a_Node000023"><a xlink:href="class_i_r_1_1_indexed_vector.html" target="_top" xlink:title=" ">
<polygon fill="white" stroke="#666666" points="989.5,-561.5 879.5,-561.5 879.5,-531.5 989.5,-531.5 989.5,-561.5"/>
<text text-anchor="start" x="887.5" y="-549.5" font-family="Helvetica,sans-Serif" font-size="10.00">IR::IndexedVector&lt;</text>
<text text-anchor="middle" x="934.5" y="-538.5" font-family="Helvetica,sans-Serif" font-size="10.00"> IR::DpdkTable &gt;</text>
</a>
</g>
</g>
<!-- Node22&#45;&gt;Node23 -->
<g id="edge22_Node000022_Node000023" class="edge">
<title>Node22&#45;&gt;Node23</title>
<g id="a_edge22_Node000022_Node000023"><a xlink:title=" ">
<path fill="none" stroke="#63b8ff" d="M812.15,-543.56C834.91,-544.11 858.88,-544.69 879.45,-545.19"/>
<polygon fill="#63b8ff" stroke="#63b8ff" points="812.22,-540.06 802.14,-543.32 812.05,-547.06 812.22,-540.06"/>
</a>
</g>
</g>
<!-- Node25 -->
<g id="Node000025" class="node">
<title>Node25</title>
<g id="a_Node000025"><a xlink:href="class_i_r_1_1_indexed_vector.html" target="_top" xlink:title=" ">
<polygon fill="white" stroke="#666666" points="990.5,-513.5 878.5,-513.5 878.5,-483.5 990.5,-483.5 990.5,-513.5"/>
<text text-anchor="start" x="886.5" y="-501.5" font-family="Helvetica,sans-Serif" font-size="10.00">IR::IndexedVector&lt;</text>
<text text-anchor="middle" x="934.5" y="-490.5" font-family="Helvetica,sans-Serif" font-size="10.00"> IR::DpdkSelector &gt;</text>
</a>
</g>
</g>
<!-- Node24&#45;&gt;Node25 -->
<g id="edge24_Node000024_Node000025" class="edge">
<title>Node24&#45;&gt;Node25</title>
<g id="a_edge24_Node000024_Node000025"><a xlink:title=" ">
<path fill="none" stroke="#63b8ff" d="M819.61,-496.85C839.68,-497.14 860.29,-497.44 878.37,-497.7"/>
<polygon fill="#63b8ff" stroke="#63b8ff" points="819.55,-493.34 809.5,-496.7 819.45,-500.34 819.55,-493.34"/>
</a>
</g>
</g>
<!-- Node27 -->
<g id="Node000027" class="node">
<title>Node27</title>
<g id="a_Node000027"><a xlink:href="class_i_r_1_1_indexed_vector.html" target="_top" xlink:title=" ">
<polygon fill="white" stroke="#666666" points="989.5,-465.5 879.5,-465.5 879.5,-435.5 989.5,-435.5 989.5,-465.5"/>
<text text-anchor="start" x="887.5" y="-453.5" font-family="Helvetica,sans-Serif" font-size="10.00">IR::IndexedVector&lt;</text>
<text text-anchor="middle" x="934.5" y="-442.5" font-family="Helvetica,sans-Serif" font-size="10.00"> IR::DpdkLearner &gt;</text>
</a>
</g>
</g>
<!-- Node26&#45;&gt;Node27 -->
<g id="edge26_Node000026_Node000027" class="edge">
<title>Node26&#45;&gt;Node27</title>
<g id="a_edge26_Node000026_Node000027"><a xlink:title=" ">
<path fill="none" stroke="#63b8ff" d="M818.21,-452.17C839.11,-451.87 860.67,-451.56 879.42,-451.29"/>
<polygon fill="#63b8ff" stroke="#63b8ff" points="817.97,-448.68 808.02,-452.32 818.07,-455.68 817.97,-448.68"/>
</a>
</g>
</g>
<!-- Node29 -->
<g id="Node000029" class="node">
<title>Node29</title>
<g id="a_Node000029"><a xlink:href="class_i_r_1_1_indexed_vector.html" target="_top" xlink:title=" ">
<polygon fill="white" stroke="#666666" points="989.5,-417.5 879.5,-417.5 879.5,-387.5 989.5,-387.5 989.5,-417.5"/>
<text text-anchor="start" x="887.5" y="-405.5" font-family="Helvetica,sans-Serif" font-size="10.00">IR::IndexedVector&lt;</text>
<text text-anchor="middle" x="934.5" y="-394.5" font-family="Helvetica,sans-Serif" font-size="10.00"> IR::DpdkAction &gt;</text>
</a>
</g>
</g>
<!-- Node28&#45;&gt;Node29 -->
<g id="edge28_Node000028_Node000029" class="edge">
<title>Node28&#45;&gt;Node29</title>
<g id="a_edge28_Node000028_Node000029"><a xlink:title=" ">
<path fill="none" stroke="#63b8ff" d="M815.33,-410.51C837.12,-409.03 859.8,-407.5 879.41,-406.17"/>
<polygon fill="#63b8ff" stroke="#63b8ff" points="814.81,-407.04 805.07,-411.21 815.28,-414.02 814.81,-407.04"/>
</a>
</g>
</g>
<!-- Node31 -->
<g id="Node000031" class="node">
<title>Node31</title>
<g id="a_Node000031"><a xlink:href="class_i_r_1_1_indexed_vector.html" target="_top" xlink:title=" ">
<polygon fill="white" stroke="#666666" points="989.5,-369.5 879.5,-369.5 879.5,-339.5 989.5,-339.5 989.5,-369.5"/>
<text text-anchor="start" x="887.5" y="-357.5" font-family="Helvetica,sans-Serif" font-size="10.00">IR::IndexedVector&lt;</text>
<text text-anchor="middle" x="934.5" y="-346.5" font-family="Helvetica,sans-Serif" font-size="10.00"> IR::Parameter &gt;</text>
</a>
</g>
</g>
<!-- Node30&#45;&gt;Node31 -->
<g id="edge30_Node000030_Node000031" class="edge">
<title>Node30&#45;&gt;Node31</title>
<g id="a_edge30_Node000030_Node000031"><a xlink:title=" ">
<path fill="none" stroke="#63b8ff" d="M812.15,-369.19C834.91,-366.44 858.88,-363.53 879.45,-361.04"/>
<polygon fill="#63b8ff" stroke="#63b8ff" points="811.64,-365.73 802.14,-370.4 812.48,-372.68 811.64,-365.73"/>
</a>
</g>
</g>
<!-- Node33 -->
<g id="Node000033" class="node">
<title>Node33</title>
<g id="a_Node000033"><a xlink:href="class_i_r_1_1_indexed_vector.html" target="_top" xlink:title=" ">
<polygon fill="white" stroke="#666666" points="998.5,-321.5 870.5,-321.5 870.5,-291.5 998.5,-291.5 998.5,-321.5"/>
<text text-anchor="start" x="878.5" y="-309.5" font-family="Helvetica,sans-Serif" font-size="10.00">IR::IndexedVector&lt;</text>
<text text-anchor="middle" x="934.5" y="-298.5" font-family="Helvetica,sans-Serif" font-size="10.00"> IR::DpdkDeclaration &gt;</text>
</a>
</g>
</g>
<!-- Node32&#45;&gt;Node33 -->
<g id="edge32_Node000032_Node000033" class="edge">
<title>Node32&#45;&gt;Node33</title>
<g id="a_edge32_Node000032_Node000033"><a xlink:title=" ">
<path fill="none" stroke="#63b8ff" d="M791.66,-331.23C816.72,-326.86 845.32,-321.87 870.24,-317.53"/>
<polygon fill="#63b8ff" stroke="#63b8ff" points="790.78,-327.83 781.53,-332.99 791.98,-334.72 790.78,-327.83"/>
</a>
</g>
</g>
<!-- Node35 -->
<g id="Node000035" class="node">
<title>Node35</title>
<g id="a_Node000035"><a xlink:href="class_i_r_1_1_indexed_vector.html" target="_top" xlink:title=" ">
<polygon fill="white" stroke="#666666" points="989.5,-273.5 879.5,-273.5 879.5,-243.5 989.5,-243.5 989.5,-273.5"/>
<text text-anchor="start" x="887.5" y="-261.5" font-family="Helvetica,sans-Serif" font-size="10.00">IR::IndexedVector&lt;</text>
<text text-anchor="middle" x="934.5" y="-250.5" font-family="Helvetica,sans-Serif" font-size="10.00"> IR::StructField &gt;</text>
</a>
</g>
</g>
<!-- Node34&#45;&gt;Node35 -->
<g id="edge34_Node000034_Node000035" class="edge">
<title>Node34&#45;&gt;Node35</title>
<g id="a_edge34_Node000034_Node000035"><a xlink:title=" ">
<path fill="none" stroke="#63b8ff" d="M794.12,-294.08C804.82,-292.04 815.73,-289.81 826,-287.5 844.1,-283.42 863.75,-278.32 881.23,-273.54"/>
<polygon fill="#63b8ff" stroke="#63b8ff" points="793.15,-290.7 783.97,-295.98 794.44,-297.58 793.15,-290.7"/>
</a>
</g>
</g>
<!-- Node38 -->
<g id="Node000038" class="node">
<title>Node38</title>
<g id="a_Node000038"><a xlink:href="class_i_r_1_1_indexed_vector.html" target="_top" xlink:title=" ">
<polygon fill="white" stroke="#666666" points="989.5,-225.5 879.5,-225.5 879.5,-195.5 989.5,-195.5 989.5,-225.5"/>
<text text-anchor="start" x="887.5" y="-213.5" font-family="Helvetica,sans-Serif" font-size="10.00">IR::IndexedVector&lt;</text>
<text text-anchor="middle" x="934.5" y="-202.5" font-family="Helvetica,sans-Serif" font-size="10.00"> IR::ParserState &gt;</text>
</a>
</g>
</g>
<!-- Node37&#45;&gt;Node38 -->
<g id="edge37_Node000037_Node000038" class="edge">
<title>Node37&#45;&gt;Node38</title>
<g id="a_edge37_Node000037_Node000038"><a xlink:title=" ">
<path fill="none" stroke="#63b8ff" d="M814.76,-222.58C836.66,-220.35 859.51,-218.02 879.25,-216.02"/>
<polygon fill="#63b8ff" stroke="#63b8ff" points="814.37,-219.1 804.77,-223.59 815.08,-226.06 814.37,-219.1"/>
</a>
</g>
</g>
<!-- Node45 -->
<g id="Node000045" class="node">
<title>Node45</title>
<g id="a_Node000045"><a xlink:href="class_i_r_1_1_indexed_vector.html" target="_top" xlink:title=" ">
<polygon fill="white" stroke="#666666" points="999.5,-19 869.5,-19 869.5,0 999.5,0 999.5,-19"/>
<text text-anchor="middle" x="934.5" y="-7" font-family="Helvetica,sans-Serif" font-size="10.00">IR::IndexedVector&lt; T &gt;</text>
</a>
</g>
</g>
<!-- Node44&#45;&gt;Node45 -->
<g id="edge44_Node000044_Node000045" class="edge">
<title>Node44&#45;&gt;Node45</title>
<g id="a_edge44_Node000044_Node000045"><a xlink:title=" ">
<path fill="none" stroke="#63b8ff" d="M782.41,-9.5C809.2,-9.5 841.49,-9.5 869.34,-9.5"/>
<polygon fill="#63b8ff" stroke="#63b8ff" points="782.06,-6 772.06,-9.5 782.06,-13 782.06,-6"/>
</a>
</g>
</g>
</g>
</svg>
