<?xml version="1.0" encoding="UTF-8" standalone="no"?>
<!DOCTYPE svg PUBLIC "-//W3C//DTD SVG 1.1//EN"
 "http://www.w3.org/Graphics/SVG/1.1/DTD/svg11.dtd">
<!-- Generated by graphviz version 2.43.0 (0)
 -->
<!-- Title: JsonData Pages: 1 -->
<svg width="510pt" height="192pt"
 viewBox="0.00 0.00 509.50 192.00" xmlns="http://www.w3.org/2000/svg" xmlns:xlink="http://www.w3.org/1999/xlink">
<g id="graph0" class="graph" transform="scale(1 1) rotate(0) translate(4 188)">
<title>JsonData</title>
<!-- Node1 -->
<g id="Node000001" class="node">
<title>Node1</title>
<g id="a_Node000001"><a xlink:title=" ">
<polygon fill="#999999" stroke="#666666" points="282.5,-74 222.5,-74 222.5,-55 282.5,-55 282.5,-74"/>
<text text-anchor="middle" x="252.5" y="-62" font-family="Helvetica,sans-Serif" font-size="10.00">JsonData</text>
</a>
</g>
</g>
<!-- Node4 -->
<g id="Node000004" class="node">
<title>Node4</title>
<g id="a_Node000004"><a xlink:href="class_json_boolean.html" target="_top" xlink:title=" ">
<polygon fill="white" stroke="#bfbfbf" points="77,-19 0,-19 0,0 77,0 77,-19"/>
<text text-anchor="middle" x="38.5" y="-7" font-family="Helvetica,sans-Serif" font-size="10.00">JsonBoolean</text>
</a>
</g>
</g>
<!-- Node1&#45;&gt;Node4 -->
<g id="edge3_Node000001_Node000004" class="edge">
<title>Node1&#45;&gt;Node4</title>
<g id="a_edge3_Node000001_Node000004"><a xlink:title=" ">
<path fill="none" stroke="#63b8ff" d="M212.58,-53.61C172.47,-43.68 111.29,-28.53 73.16,-19.08"/>
<polygon fill="#63b8ff" stroke="#63b8ff" points="211.74,-57.01 222.29,-56.02 213.43,-50.22 211.74,-57.01"/>
</a>
</g>
</g>
<!-- Node5 -->
<g id="Node000005" class="node">
<title>Node5</title>
<g id="a_Node000005"><a xlink:href="class_json_null.html" target="_top" xlink:title=" ">
<polygon fill="white" stroke="#bfbfbf" points="151.5,-19 95.5,-19 95.5,0 151.5,0 151.5,-19"/>
<text text-anchor="middle" x="123.5" y="-7" font-family="Helvetica,sans-Serif" font-size="10.00">JsonNull</text>
</a>
</g>
</g>
<!-- Node1&#45;&gt;Node5 -->
<g id="edge4_Node000001_Node000005" class="edge">
<title>Node1&#45;&gt;Node5</title>
<g id="a_edge4_Node000001_Node000005"><a xlink:title=" ">
<path fill="none" stroke="#63b8ff" d="M222.46,-51.16C198.58,-41.35 165.78,-27.87 144.6,-19.17"/>
<polygon fill="#63b8ff" stroke="#63b8ff" points="221.19,-54.42 231.77,-54.98 223.85,-47.95 221.19,-54.42"/>
</a>
</g>
</g>
<!-- Node6 -->
<g id="Node000006" class="node">
<title>Node6</title>
<g id="a_Node000006"><a xlink:href="class_json_number.html" target="_top" xlink:title=" ">
<polygon fill="white" stroke="#bfbfbf" points="245.5,-19 169.5,-19 169.5,0 245.5,0 245.5,-19"/>
<text text-anchor="middle" x="207.5" y="-7" font-family="Helvetica,sans-Serif" font-size="10.00">JsonNumber</text>
</a>
</g>
</g>
<!-- Node1&#45;&gt;Node6 -->
<g id="edge5_Node000001_Node000006" class="edge">
<title>Node1&#45;&gt;Node6</title>
<g id="a_edge5_Node000001_Node000006"><a xlink:title=" ">
<path fill="none" stroke="#63b8ff" d="M238.45,-46.96C230.61,-37.72 221.17,-26.6 214.79,-19.09"/>
<polygon fill="#63b8ff" stroke="#63b8ff" points="235.93,-49.39 245.07,-54.75 241.26,-44.86 235.93,-49.39"/>
</a>
</g>
</g>
<!-- Node7 -->
<g id="Node000007" class="node">
<title>Node7</title>
<g id="a_Node000007"><a xlink:href="class_json_object.html" target="_top" xlink:title=" ">
<polygon fill="white" stroke="#bfbfbf" points="331.5,-19 263.5,-19 263.5,0 331.5,0 331.5,-19"/>
<text text-anchor="middle" x="297.5" y="-7" font-family="Helvetica,sans-Serif" font-size="10.00">JsonObject</text>
</a>
</g>
</g>
<!-- Node1&#45;&gt;Node7 -->
<g id="edge6_Node000001_Node000007" class="edge">
<title>Node1&#45;&gt;Node7</title>
<g id="a_edge6_Node000001_Node000007"><a xlink:title=" ">
<path fill="none" stroke="#63b8ff" d="M266.55,-46.96C274.39,-37.72 283.83,-26.6 290.21,-19.09"/>
<polygon fill="#63b8ff" stroke="#63b8ff" points="263.74,-44.86 259.93,-54.75 269.07,-49.39 263.74,-44.86"/>
</a>
</g>
</g>
<!-- Node8 -->
<g id="Node000008" class="node">
<title>Node8</title>
<g id="a_Node000008"><a xlink:href="class_json_string.html" target="_top" xlink:title=" ">
<polygon fill="white" stroke="#bfbfbf" points="415,-19 350,-19 350,0 415,0 415,-19"/>
<text text-anchor="middle" x="382.5" y="-7" font-family="Helvetica,sans-Serif" font-size="10.00">JsonString</text>
</a>
</g>
</g>
<!-- Node1&#45;&gt;Node8 -->
<g id="edge7_Node000001_Node000008" class="edge">
<title>Node1&#45;&gt;Node8</title>
<g id="a_edge7_Node000001_Node000008"><a xlink:title=" ">
<path fill="none" stroke="#63b8ff" d="M282.77,-51.16C306.84,-41.35 339.9,-27.87 361.23,-19.17"/>
<polygon fill="#63b8ff" stroke="#63b8ff" points="281.33,-47.97 273.39,-54.98 283.97,-54.45 281.33,-47.97"/>
</a>
</g>
</g>
<!-- Node9 -->
<g id="Node000009" class="node">
<title>Node9</title>
<g id="a_Node000009"><a xlink:href="class_json_vector.html" target="_top" xlink:title=" ">
<polygon fill="white" stroke="#bfbfbf" points="501.5,-19 433.5,-19 433.5,0 501.5,0 501.5,-19"/>
<text text-anchor="middle" x="467.5" y="-7" font-family="Helvetica,sans-Serif" font-size="10.00">JsonVector</text>
</a>
</g>
</g>
<!-- Node1&#45;&gt;Node9 -->
<g id="edge8_Node000001_Node000009" class="edge">
<title>Node1&#45;&gt;Node9</title>
<g id="a_edge8_Node000001_Node000009"><a xlink:title=" ">
<path fill="none" stroke="#63b8ff" d="M292.67,-53.6C333.22,-43.6 395.17,-28.33 433.4,-18.91"/>
<polygon fill="#63b8ff" stroke="#63b8ff" points="291.72,-50.23 282.85,-56.02 293.4,-57.02 291.72,-50.23"/>
</a>
</g>
</g>
<!-- Node2 -->
<g id="Node000002" class="node">
<title>Node2</title>
<g id="a_Node000002"><a xlink:href="class_i_castable.html" target="_top" xlink:title=" ">
<polygon fill="white" stroke="#666666" points="283.5,-129 221.5,-129 221.5,-110 283.5,-110 283.5,-129"/>
<text text-anchor="middle" x="252.5" y="-117" font-family="Helvetica,sans-Serif" font-size="10.00">ICastable</text>
</a>
</g>
</g>
<!-- Node2&#45;&gt;Node1 -->
<g id="edge1_Node000001_Node000002" class="edge">
<title>Node2&#45;&gt;Node1</title>
<g id="a_edge1_Node000001_Node000002"><a xlink:title=" ">
<path fill="none" stroke="#63b8ff" d="M252.5,-99.66C252.5,-90.93 252.5,-80.99 252.5,-74.09"/>
<polygon fill="#63b8ff" stroke="#63b8ff" points="249,-99.75 252.5,-109.75 256,-99.75 249,-99.75"/>
</a>
</g>
</g>
<!-- Node3 -->
<g id="Node000003" class="node">
<title>Node3</title>
<g id="a_Node000003"><a xlink:href="struct_r_t_t_i_1_1_base.html" target="_top" xlink:title=" ">
<polygon fill="white" stroke="#bfbfbf" points="286.5,-184 218.5,-184 218.5,-165 286.5,-165 286.5,-184"/>
<text text-anchor="middle" x="252.5" y="-172" font-family="Helvetica,sans-Serif" font-size="10.00">RTTI::Base</text>
</a>
</g>
</g>
<!-- Node3&#45;&gt;Node2 -->
<g id="edge2_Node000002_Node000003" class="edge">
<title>Node3&#45;&gt;Node2</title>
<g id="a_edge2_Node000002_Node000003"><a xlink:title=" ">
<path fill="none" stroke="#63b8ff" d="M252.5,-154.66C252.5,-145.93 252.5,-135.99 252.5,-129.09"/>
<polygon fill="#63b8ff" stroke="#63b8ff" points="249,-154.75 252.5,-164.75 256,-154.75 249,-154.75"/>
</a>
</g>
</g>
</g>
</svg>
