<?xml version="1.0" encoding="UTF-8" standalone="no"?>
<!DOCTYPE svg PUBLIC "-//W3C//DTD SVG 1.1//EN"
 "http://www.w3.org/Graphics/SVG/1.1/DTD/svg11.dtd">
<!-- Generated by graphviz version 2.43.0 (0)
 -->
<!-- Title: IR::Node Pages: 1 -->
<svg width="1018pt" height="754pt"
 viewBox="0.00 0.00 1018.00 753.50" xmlns="http://www.w3.org/2000/svg" xmlns:xlink="http://www.w3.org/1999/xlink">
<g id="graph0" class="graph" transform="scale(1 1) rotate(0) translate(4 749.5)">
<title>IR::Node</title>
<!-- Node1 -->
<g id="Node000001" class="node">
<title>Node1</title>
<g id="a_Node000001"><a xlink:title=" ">
<polygon fill="#999999" stroke="#666666" points="408,-395 350,-395 350,-376 408,-376 408,-395"/>
<text text-anchor="middle" x="379" y="-383" font-family="Helvetica,sans-Serif" font-size="10.00">IR::Node</text>
</a>
</g>
</g>
<!-- Node7 -->
<g id="Node000007" class="node">
<title>Node7</title>
<g id="a_Node000007"><a xlink:href="class_i_r_1_1_name_map.html" target="_top" xlink:title=" ">
<polygon fill="white" stroke="#bfbfbf" points="584,-448.5 453,-448.5 453,-418.5 584,-418.5 584,-448.5"/>
<text text-anchor="start" x="461" y="-436.5" font-family="Helvetica,sans-Serif" font-size="10.00">IR::NameMap&lt; T, MAP,</text>
<text text-anchor="middle" x="518.5" y="-425.5" font-family="Helvetica,sans-Serif" font-size="10.00"> COMP, ALLOC &gt;</text>
</a>
</g>
</g>
<!-- Node1&#45;&gt;Node7 -->
<g id="edge6_Node000001_Node000007" class="edge">
<title>Node1&#45;&gt;Node7</title>
<g id="a_edge6_Node000001_Node000007"><a xlink:title=" ">
<path fill="none" stroke="#63b8ff" d="M414.41,-398.72C423.96,-402.3 434.36,-406.12 444,-409.5 452.49,-412.48 461.57,-415.54 470.35,-418.44"/>
<polygon fill="#63b8ff" stroke="#63b8ff" points="415.42,-395.36 404.83,-395.1 412.95,-401.9 415.42,-395.36"/>
</a>
</g>
</g>
<!-- Node8 -->
<g id="Node000008" class="node">
<title>Node8</title>
<g id="a_Node000008"><a xlink:href="class_i_r_1_1_node_map.html" target="_top" xlink:title=" ">
<polygon fill="white" stroke="#bfbfbf" points="593,-400.5 444,-400.5 444,-370.5 593,-370.5 593,-400.5"/>
<text text-anchor="start" x="452" y="-388.5" font-family="Helvetica,sans-Serif" font-size="10.00">IR::NodeMap&lt; KEY, VALUE,</text>
<text text-anchor="middle" x="518.5" y="-377.5" font-family="Helvetica,sans-Serif" font-size="10.00"> MAP, COMP, ALLOC &gt;</text>
</a>
</g>
</g>
<!-- Node1&#45;&gt;Node8 -->
<g id="edge7_Node000001_Node000008" class="edge">
<title>Node1&#45;&gt;Node8</title>
<g id="a_edge7_Node000001_Node000008"><a xlink:title=" ">
<path fill="none" stroke="#63b8ff" d="M418.28,-385.5C426.33,-385.5 435.07,-385.5 443.92,-385.5"/>
<polygon fill="#63b8ff" stroke="#63b8ff" points="418.16,-382 408.16,-385.5 418.16,-389 418.16,-382"/>
</a>
</g>
</g>
<!-- Node9 -->
<g id="Node000009" class="node">
<title>Node9</title>
<g id="a_Node000009"><a xlink:href="class_i_r_1_1_vector_base.html" target="_top" xlink:title=" ">
<polygon fill="white" stroke="#bfbfbf" points="562,-352 475,-352 475,-333 562,-333 562,-352"/>
<text text-anchor="middle" x="518.5" y="-340" font-family="Helvetica,sans-Serif" font-size="10.00">IR::VectorBase</text>
</a>
</g>
</g>
<!-- Node1&#45;&gt;Node9 -->
<g id="edge8_Node000001_Node000009" class="edge">
<title>Node1&#45;&gt;Node9</title>
<g id="a_edge8_Node000001_Node000009"><a xlink:title=" ">
<path fill="none" stroke="#63b8ff" d="M413.23,-372.28C423.06,-368.57 433.9,-364.69 444,-361.5 454.68,-358.13 466.37,-354.9 477.23,-352.09"/>
<polygon fill="#63b8ff" stroke="#63b8ff" points="411.89,-369.04 403.8,-375.89 414.39,-375.58 411.89,-369.04"/>
</a>
</g>
</g>
<!-- Node2 -->
<g id="Node000002" class="node">
<title>Node2</title>
<g id="a_Node000002"><a xlink:href="class_i_r_1_1_i_node.html" target="_top" xlink:title=" ">
<polygon fill="white" stroke="#bfbfbf" points="314,-395 253,-395 253,-376 314,-376 314,-395"/>
<text text-anchor="middle" x="283.5" y="-383" font-family="Helvetica,sans-Serif" font-size="10.00">IR::INode</text>
</a>
</g>
</g>
<!-- Node2&#45;&gt;Node1 -->
<g id="edge1_Node000001_Node000002" class="edge">
<title>Node2&#45;&gt;Node1</title>
<g id="a_edge1_Node000001_Node000002"><a xlink:title=" ">
<path fill="none" stroke="#63b8ff" d="M324.33,-385.5C332.93,-385.5 341.85,-385.5 349.88,-385.5"/>
<polygon fill="#63b8ff" stroke="#63b8ff" points="324.08,-382 314.08,-385.5 324.08,-389 324.08,-382"/>
</a>
</g>
</g>
<!-- Node3 -->
<g id="Node000003" class="node">
<title>Node3</title>
<g id="a_Node000003"><a xlink:href="class_util_1_1_i_has_source_info.html" target="_top" xlink:title=" ">
<polygon fill="white" stroke="#bfbfbf" points="217,-432 104,-432 104,-413 217,-413 217,-432"/>
<text text-anchor="middle" x="160.5" y="-420" font-family="Helvetica,sans-Serif" font-size="10.00">Util::IHasSourceInfo</text>
</a>
</g>
</g>
<!-- Node3&#45;&gt;Node2 -->
<g id="edge2_Node000002_Node000003" class="edge">
<title>Node3&#45;&gt;Node2</title>
<g id="a_edge2_Node000002_Node000003"><a xlink:title=" ">
<path fill="none" stroke="#63b8ff" d="M202.57,-409.94C219.01,-404.91 237.59,-399.23 252.7,-394.61"/>
<polygon fill="#63b8ff" stroke="#63b8ff" points="201.2,-406.7 192.66,-412.97 203.25,-413.39 201.2,-406.7"/>
</a>
</g>
</g>
<!-- Node4 -->
<g id="Node000004" class="node">
<title>Node4</title>
<g id="a_Node000004"><a xlink:href="class_i_has_db_print.html" target="_top" xlink:title=" ">
<polygon fill="white" stroke="#bfbfbf" points="197.5,-395 123.5,-395 123.5,-376 197.5,-376 197.5,-395"/>
<text text-anchor="middle" x="160.5" y="-383" font-family="Helvetica,sans-Serif" font-size="10.00">IHasDbPrint</text>
</a>
</g>
</g>
<!-- Node4&#45;&gt;Node2 -->
<g id="edge3_Node000002_Node000004" class="edge">
<title>Node4&#45;&gt;Node2</title>
<g id="a_edge3_Node000002_Node000004"><a xlink:title=" ">
<path fill="none" stroke="#63b8ff" d="M207.97,-385.5C223,-385.5 239.25,-385.5 252.73,-385.5"/>
<polygon fill="#63b8ff" stroke="#63b8ff" points="207.8,-382 197.8,-385.5 207.8,-389 207.8,-382"/>
</a>
</g>
</g>
<!-- Node5 -->
<g id="Node000005" class="node">
<title>Node5</title>
<g id="a_Node000005"><a xlink:href="class_i_castable.html" target="_top" xlink:title=" ">
<polygon fill="white" stroke="#666666" points="191.5,-358 129.5,-358 129.5,-339 191.5,-339 191.5,-358"/>
<text text-anchor="middle" x="160.5" y="-346" font-family="Helvetica,sans-Serif" font-size="10.00">ICastable</text>
</a>
</g>
</g>
<!-- Node5&#45;&gt;Node2 -->
<g id="edge4_Node000002_Node000005" class="edge">
<title>Node5&#45;&gt;Node2</title>
<g id="a_edge4_Node000002_Node000005"><a xlink:title=" ">
<path fill="none" stroke="#63b8ff" d="M201.73,-360.8C218.36,-365.89 237.3,-371.68 252.66,-376.38"/>
<polygon fill="#63b8ff" stroke="#63b8ff" points="202.31,-357.32 191.72,-357.74 200.26,-364.01 202.31,-357.32"/>
</a>
</g>
</g>
<!-- Node6 -->
<g id="Node000006" class="node">
<title>Node6</title>
<g id="a_Node000006"><a xlink:href="struct_r_t_t_i_1_1_base.html" target="_top" xlink:title=" ">
<polygon fill="white" stroke="#bfbfbf" points="68,-358 0,-358 0,-339 68,-339 68,-358"/>
<text text-anchor="middle" x="34" y="-346" font-family="Helvetica,sans-Serif" font-size="10.00">RTTI::Base</text>
</a>
</g>
</g>
<!-- Node6&#45;&gt;Node5 -->
<g id="edge5_Node000005_Node000006" class="edge">
<title>Node6&#45;&gt;Node5</title>
<g id="a_edge5_Node000005_Node000006"><a xlink:title=" ">
<path fill="none" stroke="#63b8ff" d="M78.21,-348.5C95.06,-348.5 113.96,-348.5 129.3,-348.5"/>
<polygon fill="#63b8ff" stroke="#63b8ff" points="78.04,-345 68.04,-348.5 78.04,-352 78.04,-345"/>
</a>
</g>
</g>
<!-- Node10 -->
<g id="Node000010" class="node">
<title>Node10</title>
<g id="a_Node000010"><a xlink:href="class_i_r_1_1_vector.html" target="_top" xlink:title=" ">
<polygon fill="white" stroke="#bfbfbf" points="829,-735 629,-735 629,-716 829,-716 829,-735"/>
<text text-anchor="middle" x="729" y="-723" font-family="Helvetica,sans-Serif" font-size="10.00">IR::Vector&lt; IR::DpdkAsmStatement &gt;</text>
</a>
</g>
</g>
<!-- Node9&#45;&gt;Node10 -->
<g id="edge9_Node000009_Node000010" class="edge">
<title>Node9&#45;&gt;Node10</title>
<g id="a_edge9_Node000009_Node000010"><a xlink:title=" ">
<path fill="none" stroke="#63b8ff" d="M571.96,-347.66C579.98,-350.64 587.43,-355.05 593,-361.5 690.89,-474.82 532.94,-581.63 629,-696.5 636.41,-705.36 646.37,-711.6 657.13,-715.97"/>
<polygon fill="#63b8ff" stroke="#63b8ff" points="572.94,-344.3 562.35,-344.78 570.93,-351.01 572.94,-344.3"/>
</a>
</g>
</g>
<!-- Node12 -->
<g id="Node000012" class="node">
<title>Node12</title>
<g id="a_Node000012"><a xlink:href="class_i_r_1_1_vector.html" target="_top" xlink:title=" ">
<polygon fill="white" stroke="#bfbfbf" points="792.5,-687 665.5,-687 665.5,-668 792.5,-668 792.5,-687"/>
<text text-anchor="middle" x="729" y="-675" font-family="Helvetica,sans-Serif" font-size="10.00">IR::Vector&lt; IR::Node &gt;</text>
</a>
</g>
</g>
<!-- Node9&#45;&gt;Node12 -->
<g id="edge11_Node000009_Node000012" class="edge">
<title>Node9&#45;&gt;Node12</title>
<g id="a_edge11_Node000009_Node000012"><a xlink:title=" ">
<path fill="none" stroke="#63b8ff" d="M571.86,-347.75C579.89,-350.72 587.37,-355.1 593,-361.5 677.89,-458.04 545.66,-550.62 629,-648.5 638.35,-659.48 651.6,-666.42 665.39,-670.78"/>
<polygon fill="#63b8ff" stroke="#63b8ff" points="572.84,-344.39 562.25,-344.87 570.83,-351.09 572.84,-344.39"/>
</a>
</g>
</g>
<!-- Node14 -->
<g id="Node000014" class="node">
<title>Node14</title>
<g id="a_Node000014"><a xlink:href="class_i_r_1_1_vector.html" target="_top" xlink:title=" ">
<polygon fill="white" stroke="#bfbfbf" points="808,-639 650,-639 650,-620 808,-620 808,-639"/>
<text text-anchor="middle" x="729" y="-627" font-family="Helvetica,sans-Serif" font-size="10.00">IR::Vector&lt; IR::Declaration &gt;</text>
</a>
</g>
</g>
<!-- Node9&#45;&gt;Node14 -->
<g id="edge13_Node000009_Node000014" class="edge">
<title>Node9&#45;&gt;Node14</title>
<g id="a_edge13_Node000009_Node000014"><a xlink:title=" ">
<path fill="none" stroke="#63b8ff" d="M571.73,-347.86C579.77,-350.82 587.29,-355.17 593,-361.5 664.93,-441.28 558.36,-519.58 629,-600.5 636.71,-609.34 646.96,-615.55 657.94,-619.9"/>
<polygon fill="#63b8ff" stroke="#63b8ff" points="572.7,-344.5 562.12,-344.99 570.7,-351.21 572.7,-344.5"/>
</a>
</g>
</g>
<!-- Node16 -->
<g id="Node000016" class="node">
<title>Node16</title>
<g id="a_Node000016"><a xlink:href="class_i_r_1_1_vector.html" target="_top" xlink:title=" ">
<polygon fill="white" stroke="#bfbfbf" points="806,-591 652,-591 652,-572 806,-572 806,-591"/>
<text text-anchor="middle" x="729" y="-579" font-family="Helvetica,sans-Serif" font-size="10.00">IR::Vector&lt; IR::StatOrDecl &gt;</text>
</a>
</g>
</g>
<!-- Node9&#45;&gt;Node16 -->
<g id="edge15_Node000009_Node000016" class="edge">
<title>Node9&#45;&gt;Node16</title>
<g id="a_edge15_Node000009_Node000016"><a xlink:title=" ">
<path fill="none" stroke="#63b8ff" d="M572.06,-348.24C579.93,-351.17 587.3,-355.41 593,-361.5 652.01,-424.58 571,-488.48 629,-552.5 637.06,-561.39 647.68,-567.62 658.97,-571.96"/>
<polygon fill="#63b8ff" stroke="#63b8ff" points="572.88,-344.83 562.3,-345.27 570.85,-351.53 572.88,-344.83"/>
</a>
</g>
</g>
<!-- Node18 -->
<g id="Node000018" class="node">
<title>Node18</title>
<g id="a_Node000018"><a xlink:href="class_i_r_1_1_vector.html" target="_top" xlink:title=" ">
<polygon fill="white" stroke="#bfbfbf" points="805,-543 653,-543 653,-524 805,-524 805,-543"/>
<text text-anchor="middle" x="729" y="-531" font-family="Helvetica,sans-Serif" font-size="10.00">IR::Vector&lt; IR::DpdkTable &gt;</text>
</a>
</g>
</g>
<!-- Node9&#45;&gt;Node18 -->
<g id="edge17_Node000009_Node000018" class="edge">
<title>Node9&#45;&gt;Node18</title>
<g id="a_edge17_Node000009_Node000018"><a xlink:title=" ">
<path fill="none" stroke="#63b8ff" d="M571.8,-348.49C579.7,-351.4 587.15,-355.56 593,-361.5 640.52,-409.71 581.11,-461.65 629,-509.5 635.76,-516.25 644.07,-521.22 652.97,-524.86"/>
<polygon fill="#63b8ff" stroke="#63b8ff" points="572.6,-345.08 562.01,-345.54 570.58,-351.78 572.6,-345.08"/>
</a>
</g>
</g>
<!-- Node20 -->
<g id="Node000020" class="node">
<title>Node20</title>
<g id="a_Node000020"><a xlink:href="class_i_r_1_1_vector.html" target="_top" xlink:title=" ">
<polygon fill="white" stroke="#bfbfbf" points="812.5,-500 645.5,-500 645.5,-481 812.5,-481 812.5,-500"/>
<text text-anchor="middle" x="729" y="-488" font-family="Helvetica,sans-Serif" font-size="10.00">IR::Vector&lt; IR::DpdkSelector &gt;</text>
</a>
</g>
</g>
<!-- Node9&#45;&gt;Node20 -->
<g id="edge19_Node000009_Node000020" class="edge">
<title>Node9&#45;&gt;Node20</title>
<g id="a_edge19_Node000009_Node000020"><a xlink:title=" ">
<path fill="none" stroke="#63b8ff" d="M571.69,-348.97C579.54,-351.83 587,-355.85 593,-361.5 630.77,-397.04 589.96,-438.36 629,-472.5 633.87,-476.75 639.39,-480.16 645.29,-482.86"/>
<polygon fill="#63b8ff" stroke="#63b8ff" points="572.59,-345.59 562,-346.04 570.56,-352.29 572.59,-345.59"/>
</a>
</g>
</g>
<!-- Node22 -->
<g id="Node000022" class="node">
<title>Node22</title>
<g id="a_Node000022"><a xlink:href="class_i_r_1_1_vector.html" target="_top" xlink:title=" ">
<polygon fill="white" stroke="#bfbfbf" points="811,-463 647,-463 647,-444 811,-444 811,-463"/>
<text text-anchor="middle" x="729" y="-451" font-family="Helvetica,sans-Serif" font-size="10.00">IR::Vector&lt; IR::DpdkLearner &gt;</text>
</a>
</g>
</g>
<!-- Node9&#45;&gt;Node22 -->
<g id="edge21_Node000009_Node000022" class="edge">
<title>Node9&#45;&gt;Node22</title>
<g id="a_edge21_Node000009_Node000022"><a xlink:title=" ">
<path fill="none" stroke="#63b8ff" d="M571.84,-349.99C579.47,-352.73 586.83,-356.45 593,-361.5 621.31,-384.65 599.86,-413.4 629,-435.5 634.43,-439.62 640.5,-442.9 646.89,-445.5"/>
<polygon fill="#63b8ff" stroke="#63b8ff" points="572.67,-346.58 562.08,-347.02 570.63,-353.28 572.67,-346.58"/>
</a>
</g>
</g>
<!-- Node24 -->
<g id="Node000024" class="node">
<title>Node24</title>
<g id="a_Node000024"><a xlink:href="class_i_r_1_1_vector.html" target="_top" xlink:title=" ">
<polygon fill="white" stroke="#bfbfbf" points="808,-426 650,-426 650,-407 808,-407 808,-426"/>
<text text-anchor="middle" x="729" y="-414" font-family="Helvetica,sans-Serif" font-size="10.00">IR::Vector&lt; IR::DpdkAction &gt;</text>
</a>
</g>
</g>
<!-- Node9&#45;&gt;Node24 -->
<g id="edge23_Node000009_Node000024" class="edge">
<title>Node9&#45;&gt;Node24</title>
<g id="a_edge23_Node000009_Node000024"><a xlink:title=" ">
<path fill="none" stroke="#63b8ff" d="M572.16,-352.34C579.41,-354.76 586.57,-357.77 593,-361.5 612.84,-373.02 608.75,-387.71 629,-398.5 635.55,-401.99 642.66,-404.82 649.95,-407.11"/>
<polygon fill="#63b8ff" stroke="#63b8ff" points="572.84,-348.89 562.25,-349.38 570.83,-355.59 572.84,-348.89"/>
</a>
</g>
</g>
<!-- Node26 -->
<g id="Node000026" class="node">
<title>Node26</title>
<g id="a_Node000026"><a xlink:href="class_i_r_1_1_vector.html" target="_top" xlink:title=" ">
<polygon fill="white" stroke="#bfbfbf" points="805,-389 653,-389 653,-370 805,-370 805,-389"/>
<text text-anchor="middle" x="729" y="-377" font-family="Helvetica,sans-Serif" font-size="10.00">IR::Vector&lt; IR::Parameter &gt;</text>
</a>
</g>
</g>
<!-- Node9&#45;&gt;Node26 -->
<g id="edge25_Node000009_Node000026" class="edge">
<title>Node9&#45;&gt;Node26</title>
<g id="a_edge25_Node000009_Node000026"><a xlink:title=" ">
<path fill="none" stroke="#63b8ff" d="M572.43,-351.89C603.59,-357.42 642.91,-364.4 674.22,-369.96"/>
<polygon fill="#63b8ff" stroke="#63b8ff" points="572.65,-348.38 562.2,-350.08 571.43,-355.27 572.65,-348.38"/>
</a>
</g>
</g>
<!-- Node28 -->
<g id="Node000028" class="node">
<title>Node28</title>
<g id="a_Node000028"><a xlink:href="class_i_r_1_1_vector.html" target="_top" xlink:title=" ">
<polygon fill="white" stroke="#bfbfbf" points="820.5,-352 637.5,-352 637.5,-333 820.5,-333 820.5,-352"/>
<text text-anchor="middle" x="729" y="-340" font-family="Helvetica,sans-Serif" font-size="10.00">IR::Vector&lt; IR::DpdkDeclaration &gt;</text>
</a>
</g>
</g>
<!-- Node9&#45;&gt;Node28 -->
<g id="edge27_Node000009_Node000028" class="edge">
<title>Node9&#45;&gt;Node28</title>
<g id="a_edge27_Node000009_Node000028"><a xlink:title=" ">
<path fill="none" stroke="#63b8ff" d="M572.47,-342.5C592.15,-342.5 615.07,-342.5 637.18,-342.5"/>
<polygon fill="#63b8ff" stroke="#63b8ff" points="572.2,-339 562.2,-342.5 572.2,-346 572.2,-339"/>
</a>
</g>
</g>
<!-- Node30 -->
<g id="Node000030" class="node">
<title>Node30</title>
<g id="a_Node000030"><a xlink:href="class_i_r_1_1_vector.html" target="_top" xlink:title=" ">
<polygon fill="white" stroke="#bfbfbf" points="805.5,-315 652.5,-315 652.5,-296 805.5,-296 805.5,-315"/>
<text text-anchor="middle" x="729" y="-303" font-family="Helvetica,sans-Serif" font-size="10.00">IR::Vector&lt; IR::StructField &gt;</text>
</a>
</g>
</g>
<!-- Node9&#45;&gt;Node30 -->
<g id="edge29_Node000009_Node000030" class="edge">
<title>Node9&#45;&gt;Node30</title>
<g id="a_edge29_Node000009_Node000030"><a xlink:title=" ">
<path fill="none" stroke="#63b8ff" d="M572.43,-333.11C603.59,-327.58 642.91,-320.6 674.22,-315.04"/>
<polygon fill="#63b8ff" stroke="#63b8ff" points="571.43,-329.73 562.2,-334.92 572.65,-336.62 571.43,-329.73"/>
</a>
</g>
</g>
<!-- Node32 -->
<g id="Node000032" class="node">
<title>Node32</title>
<g id="a_Node000032"><a xlink:href="class_i_r_1_1_vector.html" target="_top" xlink:title=" ">
<polygon fill="white" stroke="#bfbfbf" points="791,-278 667,-278 667,-259 791,-259 791,-278"/>
<text text-anchor="middle" x="729" y="-266" font-family="Helvetica,sans-Serif" font-size="10.00">IR::Vector&lt; IR::Type &gt;</text>
</a>
</g>
</g>
<!-- Node9&#45;&gt;Node32 -->
<g id="edge31_Node000009_Node000032" class="edge">
<title>Node9&#45;&gt;Node32</title>
<g id="a_edge31_Node000009_Node000032"><a xlink:title=" ">
<path fill="none" stroke="#63b8ff" d="M543.62,-327.54C565.23,-314.8 598.17,-296.93 629,-286.5 641,-282.44 654.14,-279.24 666.82,-276.73"/>
<polygon fill="#63b8ff" stroke="#63b8ff" points="541.59,-324.68 534.82,-332.83 545.2,-330.68 541.59,-324.68"/>
</a>
</g>
</g>
<!-- Node33 -->
<g id="Node000033" class="node">
<title>Node33</title>
<g id="a_Node000033"><a xlink:href="class_i_r_1_1_vector.html" target="_top" xlink:title=" ">
<polygon fill="white" stroke="#bfbfbf" points="803.5,-241 654.5,-241 654.5,-222 803.5,-222 803.5,-241"/>
<text text-anchor="middle" x="729" y="-229" font-family="Helvetica,sans-Serif" font-size="10.00">IR::Vector&lt; IR::Argument &gt;</text>
</a>
</g>
</g>
<!-- Node9&#45;&gt;Node33 -->
<g id="edge32_Node000009_Node000033" class="edge">
<title>Node9&#45;&gt;Node33</title>
<g id="a_edge32_Node000009_Node000033"><a xlink:title=" ">
<path fill="none" stroke="#63b8ff" d="M534.56,-325.01C554.06,-303.58 590.19,-267.87 629,-249.5 636.97,-245.73 645.65,-242.74 654.45,-240.38"/>
<polygon fill="#63b8ff" stroke="#63b8ff" points="531.73,-322.92 527.7,-332.72 536.96,-327.57 531.73,-322.92"/>
</a>
</g>
</g>
<!-- Node34 -->
<g id="Node000034" class="node">
<title>Node34</title>
<g id="a_Node000034"><a xlink:href="class_i_r_1_1_vector.html" target="_top" xlink:title=" ">
<polygon fill="white" stroke="#bfbfbf" points="807.5,-204 650.5,-204 650.5,-185 807.5,-185 807.5,-204"/>
<text text-anchor="middle" x="729" y="-192" font-family="Helvetica,sans-Serif" font-size="10.00">IR::Vector&lt; IR::ParserState &gt;</text>
</a>
</g>
</g>
<!-- Node9&#45;&gt;Node34 -->
<g id="edge33_Node000009_Node000034" class="edge">
<title>Node9&#45;&gt;Node34</title>
<g id="a_edge33_Node000009_Node000034"><a xlink:title=" ">
<path fill="none" stroke="#63b8ff" d="M529.63,-323.6C546.25,-294.6 582.18,-239.64 629,-212.5 635.65,-208.65 642.94,-205.58 650.45,-203.16"/>
<polygon fill="#63b8ff" stroke="#63b8ff" points="526.38,-322.25 524.57,-332.69 532.5,-325.65 526.38,-322.25"/>
</a>
</g>
</g>
<!-- Node36 -->
<g id="Node000036" class="node">
<title>Node36</title>
<g id="a_Node000036"><a xlink:href="class_i_r_1_1_vector.html" target="_top" xlink:title=" ">
<polygon fill="white" stroke="#bfbfbf" points="806.5,-167 651.5,-167 651.5,-148 806.5,-148 806.5,-167"/>
<text text-anchor="middle" x="729" y="-155" font-family="Helvetica,sans-Serif" font-size="10.00">IR::Vector&lt; IR::SelectCase &gt;</text>
</a>
</g>
</g>
<!-- Node9&#45;&gt;Node36 -->
<g id="edge35_Node000009_Node000036" class="edge">
<title>Node9&#45;&gt;Node36</title>
<g id="a_edge35_Node000009_Node000036"><a xlink:title=" ">
<path fill="none" stroke="#63b8ff" d="M526.18,-323.37C539.62,-287.92 573.47,-212.29 629,-175.5 635.84,-170.97 643.51,-167.49 651.47,-164.83"/>
<polygon fill="#63b8ff" stroke="#63b8ff" points="522.81,-322.4 522.66,-332.99 529.38,-324.8 522.81,-322.4"/>
</a>
</g>
</g>
<!-- Node37 -->
<g id="Node000037" class="node">
<title>Node37</title>
<g id="a_Node000037"><a xlink:href="class_i_r_1_1_vector.html" target="_top" xlink:title=" ">
<polygon fill="white" stroke="#bfbfbf" points="806.5,-130 651.5,-130 651.5,-111 806.5,-111 806.5,-130"/>
<text text-anchor="middle" x="729" y="-118" font-family="Helvetica,sans-Serif" font-size="10.00">IR::Vector&lt; IR::Expression &gt;</text>
</a>
</g>
</g>
<!-- Node9&#45;&gt;Node37 -->
<g id="edge36_Node000009_Node000037" class="edge">
<title>Node9&#45;&gt;Node37</title>
<g id="a_edge36_Node000009_Node000037"><a xlink:title=" ">
<path fill="none" stroke="#63b8ff" d="M523.93,-322.95C534.38,-281.61 564.69,-185.29 629,-138.5 635.71,-133.62 643.34,-129.93 651.31,-127.16"/>
<polygon fill="#63b8ff" stroke="#63b8ff" points="520.48,-322.31 521.54,-332.86 527.29,-323.95 520.48,-322.31"/>
</a>
</g>
</g>
<!-- Node38 -->
<g id="Node000038" class="node">
<title>Node38</title>
<g id="a_Node000038"><a xlink:href="class_i_r_1_1_vector.html" target="_top" xlink:title=" ">
<polygon fill="white" stroke="#bfbfbf" points="775.5,-93 682.5,-93 682.5,-74 775.5,-74 775.5,-93"/>
<text text-anchor="middle" x="729" y="-81" font-family="Helvetica,sans-Serif" font-size="10.00">IR::Vector&lt; N &gt;</text>
</a>
</g>
</g>
<!-- Node9&#45;&gt;Node38 -->
<g id="edge37_Node000009_Node000038" class="edge">
<title>Node9&#45;&gt;Node38</title>
<g id="a_edge37_Node000009_Node000038"><a xlink:title=" ">
<path fill="none" stroke="#63b8ff" d="M522.2,-323.01C529.74,-276.53 555.5,-158.79 629,-101.5 644.02,-89.79 664.2,-84.79 682.42,-82.91"/>
<polygon fill="#63b8ff" stroke="#63b8ff" points="518.73,-322.57 520.69,-332.98 525.65,-323.62 518.73,-322.57"/>
</a>
</g>
</g>
<!-- Node39 -->
<g id="Node000039" class="node">
<title>Node39</title>
<g id="a_Node000039"><a xlink:href="class_i_r_1_1_vector.html" target="_top" xlink:title=" ">
<polygon fill="white" stroke="#bfbfbf" points="806.5,-56 651.5,-56 651.5,-37 806.5,-37 806.5,-56"/>
<text text-anchor="middle" x="729" y="-44" font-family="Helvetica,sans-Serif" font-size="10.00">IR::Vector&lt; IR::Annotation &gt;</text>
</a>
</g>
</g>
<!-- Node9&#45;&gt;Node39 -->
<g id="edge38_Node000009_Node000039" class="edge">
<title>Node9&#45;&gt;Node39</title>
<g id="a_edge38_Node000009_Node000039"><a xlink:title=" ">
<path fill="none" stroke="#63b8ff" d="M520.92,-322.88C525.76,-271.53 546.27,-132.46 629,-64.5 635.61,-59.07 643.32,-55.05 651.47,-52.12"/>
<polygon fill="#63b8ff" stroke="#63b8ff" points="517.43,-322.7 520.07,-332.96 524.4,-323.29 517.43,-322.7"/>
</a>
</g>
</g>
<!-- Node40 -->
<g id="Node000040" class="node">
<title>Node40</title>
<g id="a_Node000040"><a xlink:href="class_i_r_1_1_vector.html" target="_top" xlink:title=" ">
<polygon fill="white" stroke="#bfbfbf" points="775,-19 683,-19 683,0 775,0 775,-19"/>
<text text-anchor="middle" x="729" y="-7" font-family="Helvetica,sans-Serif" font-size="10.00">IR::Vector&lt; T &gt;</text>
</a>
</g>
</g>
<!-- Node9&#45;&gt;Node40 -->
<g id="edge39_Node000009_Node000040" class="edge">
<title>Node9&#45;&gt;Node40</title>
<g id="a_edge39_Node000009_Node000040"><a xlink:title=" ">
<path fill="none" stroke="#63b8ff" d="M519.92,-322.6C522.25,-266.54 537.03,-106.24 629,-27.5 643.73,-14.89 664.3,-9.83 682.87,-8.15"/>
<polygon fill="#63b8ff" stroke="#63b8ff" points="516.41,-322.81 519.59,-332.92 523.41,-323.04 516.41,-322.81"/>
</a>
</g>
</g>
<!-- Node11 -->
<g id="Node000011" class="node">
<title>Node11</title>
<g id="a_Node000011"><a xlink:href="class_i_r_1_1_indexed_vector.html" target="_top" xlink:title=" ">
<polygon fill="white" stroke="#666666" points="1010,-745.5 865,-745.5 865,-715.5 1010,-715.5 1010,-745.5"/>
<text text-anchor="start" x="873" y="-733.5" font-family="Helvetica,sans-Serif" font-size="10.00">IR::IndexedVector&lt;</text>
<text text-anchor="middle" x="937.5" y="-722.5" font-family="Helvetica,sans-Serif" font-size="10.00"> IR::DpdkAsmStatement &gt;</text>
</a>
</g>
</g>
<!-- Node10&#45;&gt;Node11 -->
<g id="edge10_Node000010_Node000011" class="edge">
<title>Node10&#45;&gt;Node11</title>
<g id="a_edge10_Node000010_Node000011"><a xlink:title=" ">
<path fill="none" stroke="#63b8ff" d="M839.24,-728.14C847.94,-728.36 856.58,-728.56 864.91,-728.77"/>
<polygon fill="#63b8ff" stroke="#63b8ff" points="839.1,-724.64 829.02,-727.9 838.93,-731.64 839.1,-724.64"/>
</a>
</g>
</g>
<!-- Node13 -->
<g id="Node000013" class="node">
<title>Node13</title>
<g id="a_Node000013"><a xlink:href="class_i_r_1_1_indexed_vector.html" target="_top" xlink:title=" ">
<polygon fill="white" stroke="#666666" points="992.5,-697.5 882.5,-697.5 882.5,-667.5 992.5,-667.5 992.5,-697.5"/>
<text text-anchor="start" x="890.5" y="-685.5" font-family="Helvetica,sans-Serif" font-size="10.00">IR::IndexedVector&lt;</text>
<text text-anchor="middle" x="937.5" y="-674.5" font-family="Helvetica,sans-Serif" font-size="10.00"> IR::Node &gt;</text>
</a>
</g>
</g>
<!-- Node12&#45;&gt;Node13 -->
<g id="edge12_Node000012_Node000013" class="edge">
<title>Node12&#45;&gt;Node13</title>
<g id="a_edge12_Node000012_Node000013"><a xlink:title=" ">
<path fill="none" stroke="#63b8ff" d="M802.76,-679.26C828.91,-679.89 857.93,-680.6 882.23,-681.19"/>
<polygon fill="#63b8ff" stroke="#63b8ff" points="802.6,-675.76 792.52,-679.01 802.43,-682.75 802.6,-675.76"/>
</a>
</g>
</g>
<!-- Node15 -->
<g id="Node000015" class="node">
<title>Node15</title>
<g id="a_Node000015"><a xlink:href="class_i_r_1_1_indexed_vector.html" target="_top" xlink:title=" ">
<polygon fill="white" stroke="#666666" points="992.5,-649.5 882.5,-649.5 882.5,-619.5 992.5,-619.5 992.5,-649.5"/>
<text text-anchor="start" x="890.5" y="-637.5" font-family="Helvetica,sans-Serif" font-size="10.00">IR::IndexedVector&lt;</text>
<text text-anchor="middle" x="937.5" y="-626.5" font-family="Helvetica,sans-Serif" font-size="10.00"> IR::Declaration &gt;</text>
</a>
</g>
</g>
<!-- Node14&#45;&gt;Node15 -->
<g id="edge14_Node000014_Node000015" class="edge">
<title>Node14&#45;&gt;Node15</title>
<g id="a_edge14_Node000014_Node000015"><a xlink:title=" ">
<path fill="none" stroke="#63b8ff" d="M818.33,-631.64C840.12,-632.17 862.8,-632.72 882.41,-633.19"/>
<polygon fill="#63b8ff" stroke="#63b8ff" points="818.15,-628.13 808.07,-631.39 817.98,-635.13 818.15,-628.13"/>
</a>
</g>
</g>
<!-- Node17 -->
<g id="Node000017" class="node">
<title>Node17</title>
<g id="a_Node000017"><a xlink:href="class_i_r_1_1_indexed_vector.html" target="_top" xlink:title=" ">
<polygon fill="white" stroke="#666666" points="992.5,-601.5 882.5,-601.5 882.5,-571.5 992.5,-571.5 992.5,-601.5"/>
<text text-anchor="start" x="890.5" y="-589.5" font-family="Helvetica,sans-Serif" font-size="10.00">IR::IndexedVector&lt;</text>
<text text-anchor="middle" x="937.5" y="-578.5" font-family="Helvetica,sans-Serif" font-size="10.00"> IR::StatOrDecl &gt;</text>
</a>
</g>
</g>
<!-- Node16&#45;&gt;Node17 -->
<g id="edge16_Node000016_Node000017" class="edge">
<title>Node16&#45;&gt;Node17</title>
<g id="a_edge16_Node000016_Node000017"><a xlink:title=" ">
<path fill="none" stroke="#63b8ff" d="M816.2,-583.59C838.58,-584.13 862.06,-584.7 882.27,-585.19"/>
<polygon fill="#63b8ff" stroke="#63b8ff" points="816.1,-580.08 806.01,-583.34 815.93,-587.08 816.1,-580.08"/>
</a>
</g>
</g>
<!-- Node19 -->
<g id="Node000019" class="node">
<title>Node19</title>
<g id="a_Node000019"><a xlink:href="class_i_r_1_1_indexed_vector.html" target="_top" xlink:title=" ">
<polygon fill="white" stroke="#666666" points="992.5,-553.5 882.5,-553.5 882.5,-523.5 992.5,-523.5 992.5,-553.5"/>
<text text-anchor="start" x="890.5" y="-541.5" font-family="Helvetica,sans-Serif" font-size="10.00">IR::IndexedVector&lt;</text>
<text text-anchor="middle" x="937.5" y="-530.5" font-family="Helvetica,sans-Serif" font-size="10.00"> IR::DpdkTable &gt;</text>
</a>
</g>
</g>
<!-- Node18&#45;&gt;Node19 -->
<g id="edge18_Node000018_Node000019" class="edge">
<title>Node18&#45;&gt;Node19</title>
<g id="a_edge18_Node000018_Node000019"><a xlink:title=" ">
<path fill="none" stroke="#63b8ff" d="M815.15,-535.56C837.91,-536.11 861.88,-536.69 882.45,-537.19"/>
<polygon fill="#63b8ff" stroke="#63b8ff" points="815.22,-532.06 805.14,-535.32 815.05,-539.06 815.22,-532.06"/>
</a>
</g>
</g>
<!-- Node21 -->
<g id="Node000021" class="node">
<title>Node21</title>
<g id="a_Node000021"><a xlink:href="class_i_r_1_1_indexed_vector.html" target="_top" xlink:title=" ">
<polygon fill="white" stroke="#666666" points="993.5,-505.5 881.5,-505.5 881.5,-475.5 993.5,-475.5 993.5,-505.5"/>
<text text-anchor="start" x="889.5" y="-493.5" font-family="Helvetica,sans-Serif" font-size="10.00">IR::IndexedVector&lt;</text>
<text text-anchor="middle" x="937.5" y="-482.5" font-family="Helvetica,sans-Serif" font-size="10.00"> IR::DpdkSelector &gt;</text>
</a>
</g>
</g>
<!-- Node20&#45;&gt;Node21 -->
<g id="edge20_Node000020_Node000021" class="edge">
<title>Node20&#45;&gt;Node21</title>
<g id="a_edge20_Node000020_Node000021"><a xlink:title=" ">
<path fill="none" stroke="#63b8ff" d="M822.61,-490.5C842.68,-490.5 863.29,-490.5 881.37,-490.5"/>
<polygon fill="#63b8ff" stroke="#63b8ff" points="822.5,-487 812.5,-490.5 822.5,-494 822.5,-487"/>
</a>
</g>
</g>
<!-- Node23 -->
<g id="Node000023" class="node">
<title>Node23</title>
<g id="a_Node000023"><a xlink:href="class_i_r_1_1_indexed_vector.html" target="_top" xlink:title=" ">
<polygon fill="white" stroke="#666666" points="992.5,-457.5 882.5,-457.5 882.5,-427.5 992.5,-427.5 992.5,-457.5"/>
<text text-anchor="start" x="890.5" y="-445.5" font-family="Helvetica,sans-Serif" font-size="10.00">IR::IndexedVector&lt;</text>
<text text-anchor="middle" x="937.5" y="-434.5" font-family="Helvetica,sans-Serif" font-size="10.00"> IR::DpdkLearner &gt;</text>
</a>
</g>
</g>
<!-- Node22&#45;&gt;Node23 -->
<g id="edge22_Node000022_Node000023" class="edge">
<title>Node22&#45;&gt;Node23</title>
<g id="a_edge22_Node000022_Node000023"><a xlink:title=" ">
<path fill="none" stroke="#63b8ff" d="M821.21,-448.64C842.11,-447.53 863.67,-446.38 882.42,-445.38"/>
<polygon fill="#63b8ff" stroke="#63b8ff" points="820.82,-445.16 811.02,-449.18 821.19,-452.15 820.82,-445.16"/>
</a>
</g>
</g>
<!-- Node25 -->
<g id="Node000025" class="node">
<title>Node25</title>
<g id="a_Node000025"><a xlink:href="class_i_r_1_1_indexed_vector.html" target="_top" xlink:title=" ">
<polygon fill="white" stroke="#666666" points="992.5,-409.5 882.5,-409.5 882.5,-379.5 992.5,-379.5 992.5,-409.5"/>
<text text-anchor="start" x="890.5" y="-397.5" font-family="Helvetica,sans-Serif" font-size="10.00">IR::IndexedVector&lt;</text>
<text text-anchor="middle" x="937.5" y="-386.5" font-family="Helvetica,sans-Serif" font-size="10.00"> IR::DpdkAction &gt;</text>
</a>
</g>
</g>
<!-- Node24&#45;&gt;Node25 -->
<g id="edge24_Node000024_Node000025" class="edge">
<title>Node24&#45;&gt;Node25</title>
<g id="a_edge24_Node000024_Node000025"><a xlink:title=" ">
<path fill="none" stroke="#63b8ff" d="M818.04,-407.12C839.91,-404.79 862.71,-402.36 882.41,-400.26"/>
<polygon fill="#63b8ff" stroke="#63b8ff" points="817.64,-403.64 808.07,-408.18 818.38,-410.6 817.64,-403.64"/>
</a>
</g>
</g>
<!-- Node27 -->
<g id="Node000027" class="node">
<title>Node27</title>
<g id="a_Node000027"><a xlink:href="class_i_r_1_1_indexed_vector.html" target="_top" xlink:title=" ">
<polygon fill="white" stroke="#666666" points="992.5,-361.5 882.5,-361.5 882.5,-331.5 992.5,-331.5 992.5,-361.5"/>
<text text-anchor="start" x="890.5" y="-349.5" font-family="Helvetica,sans-Serif" font-size="10.00">IR::IndexedVector&lt;</text>
<text text-anchor="middle" x="937.5" y="-338.5" font-family="Helvetica,sans-Serif" font-size="10.00"> IR::Parameter &gt;</text>
</a>
</g>
</g>
<!-- Node26&#45;&gt;Node27 -->
<g id="edge26_Node000026_Node000027" class="edge">
<title>Node26&#45;&gt;Node27</title>
<g id="a_edge26_Node000026_Node000027"><a xlink:title=" ">
<path fill="none" stroke="#63b8ff" d="M799.62,-368.37C826.63,-364.06 857.09,-359.19 882.4,-355.14"/>
<polygon fill="#63b8ff" stroke="#63b8ff" points="798.77,-364.97 789.45,-370 799.88,-371.88 798.77,-364.97"/>
</a>
</g>
</g>
<!-- Node29 -->
<g id="Node000029" class="node">
<title>Node29</title>
<g id="a_Node000029"><a xlink:href="class_i_r_1_1_indexed_vector.html" target="_top" xlink:title=" ">
<polygon fill="white" stroke="#666666" points="1001.5,-313.5 873.5,-313.5 873.5,-283.5 1001.5,-283.5 1001.5,-313.5"/>
<text text-anchor="start" x="881.5" y="-301.5" font-family="Helvetica,sans-Serif" font-size="10.00">IR::IndexedVector&lt;</text>
<text text-anchor="middle" x="937.5" y="-290.5" font-family="Helvetica,sans-Serif" font-size="10.00"> IR::DpdkDeclaration &gt;</text>
</a>
</g>
</g>
<!-- Node28&#45;&gt;Node29 -->
<g id="edge28_Node000028_Node000029" class="edge">
<title>Node28&#45;&gt;Node29</title>
<g id="a_edge28_Node000028_Node000029"><a xlink:title=" ">
<path fill="none" stroke="#63b8ff" d="M791.54,-331.08C803.96,-328.66 816.91,-326.07 829,-323.5 843.53,-320.42 859.11,-316.91 873.78,-313.52"/>
<polygon fill="#63b8ff" stroke="#63b8ff" points="790.87,-327.64 781.71,-332.97 792.2,-334.51 790.87,-327.64"/>
</a>
</g>
</g>
<!-- Node31 -->
<g id="Node000031" class="node">
<title>Node31</title>
<g id="a_Node000031"><a xlink:href="class_i_r_1_1_indexed_vector.html" target="_top" xlink:title=" ">
<polygon fill="white" stroke="#666666" points="992.5,-265.5 882.5,-265.5 882.5,-235.5 992.5,-235.5 992.5,-265.5"/>
<text text-anchor="start" x="890.5" y="-253.5" font-family="Helvetica,sans-Serif" font-size="10.00">IR::IndexedVector&lt;</text>
<text text-anchor="middle" x="937.5" y="-242.5" font-family="Helvetica,sans-Serif" font-size="10.00"> IR::StructField &gt;</text>
</a>
</g>
</g>
<!-- Node30&#45;&gt;Node31 -->
<g id="edge30_Node000030_Node000031" class="edge">
<title>Node30&#45;&gt;Node31</title>
<g id="a_edge30_Node000030_Node000031"><a xlink:title=" ">
<path fill="none" stroke="#63b8ff" d="M796.5,-294C807.42,-291.75 818.57,-289.24 829,-286.5 829.84,-286.28 862.6,-275.3 891.73,-265.53"/>
<polygon fill="#63b8ff" stroke="#63b8ff" points="795.69,-290.6 786.57,-295.99 797.07,-297.46 795.69,-290.6"/>
</a>
</g>
</g>
<!-- Node35 -->
<g id="Node000035" class="node">
<title>Node35</title>
<g id="a_Node000035"><a xlink:href="class_i_r_1_1_indexed_vector.html" target="_top" xlink:title=" ">
<polygon fill="white" stroke="#666666" points="992.5,-209.5 882.5,-209.5 882.5,-179.5 992.5,-179.5 992.5,-209.5"/>
<text text-anchor="start" x="890.5" y="-197.5" font-family="Helvetica,sans-Serif" font-size="10.00">IR::IndexedVector&lt;</text>
<text text-anchor="middle" x="937.5" y="-186.5" font-family="Helvetica,sans-Serif" font-size="10.00"> IR::ParserState &gt;</text>
</a>
</g>
</g>
<!-- Node34&#45;&gt;Node35 -->
<g id="edge34_Node000034_Node000035" class="edge">
<title>Node34&#45;&gt;Node35</title>
<g id="a_edge34_Node000034_Node000035"><a xlink:title=" ">
<path fill="none" stroke="#63b8ff" d="M818.05,-194.5C839.86,-194.5 862.6,-194.5 882.25,-194.5"/>
<polygon fill="#63b8ff" stroke="#63b8ff" points="817.77,-191 807.77,-194.5 817.77,-198 817.77,-191"/>
</a>
</g>
</g>
<!-- Node41 -->
<g id="Node000041" class="node">
<title>Node41</title>
<g id="a_Node000041"><a xlink:href="class_i_r_1_1_indexed_vector.html" target="_top" xlink:title=" ">
<polygon fill="white" stroke="#666666" points="1002.5,-19 872.5,-19 872.5,0 1002.5,0 1002.5,-19"/>
<text text-anchor="middle" x="937.5" y="-7" font-family="Helvetica,sans-Serif" font-size="10.00">IR::IndexedVector&lt; T &gt;</text>
</a>
</g>
</g>
<!-- Node40&#45;&gt;Node41 -->
<g id="edge40_Node000040_Node000041" class="edge">
<title>Node40&#45;&gt;Node41</title>
<g id="a_edge40_Node000040_Node000041"><a xlink:title=" ">
<path fill="none" stroke="#63b8ff" d="M785.41,-9.5C812.2,-9.5 844.49,-9.5 872.34,-9.5"/>
<polygon fill="#63b8ff" stroke="#63b8ff" points="785.06,-6 775.06,-9.5 785.06,-13 785.06,-6"/>
</a>
</g>
</g>
</g>
</svg>
