<?xml version="1.0" encoding="UTF-8" standalone="no"?>
<!DOCTYPE svg PUBLIC "-//W3C//DTD SVG 1.1//EN"
 "http://www.w3.org/Graphics/SVG/1.1/DTD/svg11.dtd">
<!-- Generated by graphviz version 2.43.0 (0)
 -->
<!-- Title: P4::SymbolicValue Pages: 1 -->
<svg width="785pt" height="360pt"
 viewBox="0.00 0.00 785.00 360.00" xmlns="http://www.w3.org/2000/svg" xmlns:xlink="http://www.w3.org/1999/xlink">
<g id="graph0" class="graph" transform="scale(1 1) rotate(0) translate(4 356)">
<title>P4::SymbolicValue</title>
<!-- Node1 -->
<g id="Node000001" class="node">
<title>Node1</title>
<g id="a_Node000001"><a xlink:title=" ">
<polygon fill="#999999" stroke="#666666" points="321,-130 214,-130 214,-111 321,-111 321,-130"/>
<text text-anchor="middle" x="267.5" y="-118" font-family="Helvetica,sans-Serif" font-size="10.00">P4::SymbolicValue</text>
</a>
</g>
</g>
<!-- Node5 -->
<g id="Node000005" class="node">
<title>Node5</title>
<g id="a_Node000005"><a xlink:href="class_p4_1_1_scalar_value.html" target="_top" xlink:title=" ">
<polygon fill="white" stroke="#bfbfbf" points="458.5,-278 366.5,-278 366.5,-259 458.5,-259 458.5,-278"/>
<text text-anchor="middle" x="412.5" y="-266" font-family="Helvetica,sans-Serif" font-size="10.00">P4::ScalarValue</text>
</a>
</g>
</g>
<!-- Node1&#45;&gt;Node5 -->
<g id="edge4_Node000001_Node000005" class="edge">
<title>Node1&#45;&gt;Node5</title>
<g id="a_edge4_Node000001_Node000005"><a xlink:title=" ">
<path fill="none" stroke="#63b8ff" d="M284.5,-137.52C302.15,-156.25 331.44,-187.18 357,-213.5 372.55,-229.51 390.85,-247.88 401.79,-258.82"/>
<polygon fill="#63b8ff" stroke="#63b8ff" points="286.89,-134.95 277.48,-130.07 281.79,-139.75 286.89,-134.95"/>
</a>
</g>
</g>
<!-- Node10 -->
<g id="Node000010" class="node">
<title>Node10</title>
<g id="a_Node000010"><a xlink:href="class_p4_1_1_symbolic_array.html" target="_top" xlink:title=" ">
<polygon fill="white" stroke="#bfbfbf" points="465.5,-204 359.5,-204 359.5,-185 465.5,-185 465.5,-204"/>
<text text-anchor="middle" x="412.5" y="-192" font-family="Helvetica,sans-Serif" font-size="10.00">P4::SymbolicArray</text>
</a>
</g>
</g>
<!-- Node1&#45;&gt;Node10 -->
<g id="edge9_Node000001_Node000010" class="edge">
<title>Node1&#45;&gt;Node10</title>
<g id="a_edge9_Node000001_Node000010"><a xlink:title=" ">
<path fill="none" stroke="#63b8ff" d="M289.71,-136.02C307.13,-148.24 332.78,-165.05 357,-176.5 363.67,-179.65 371.03,-182.48 378.14,-184.92"/>
<polygon fill="#63b8ff" stroke="#63b8ff" points="291.58,-133.05 281.41,-130.1 287.52,-138.76 291.58,-133.05"/>
</a>
</g>
</g>
<!-- Node11 -->
<g id="Node000011" class="node">
<title>Node11</title>
<g id="a_Node000011"><a xlink:href="class_p4_1_1_symbolic_error.html" target="_top" xlink:title=" ">
<polygon fill="white" stroke="#bfbfbf" points="464,-167 361,-167 361,-148 464,-148 464,-167"/>
<text text-anchor="middle" x="412.5" y="-155" font-family="Helvetica,sans-Serif" font-size="10.00">P4::SymbolicError</text>
</a>
</g>
</g>
<!-- Node1&#45;&gt;Node11 -->
<g id="edge10_Node000001_Node000011" class="edge">
<title>Node1&#45;&gt;Node11</title>
<g id="a_edge10_Node000001_Node000011"><a xlink:title=" ">
<path fill="none" stroke="#63b8ff" d="M315.08,-132.55C334.27,-137.52 356.21,-143.19 374.3,-147.88"/>
<polygon fill="#63b8ff" stroke="#63b8ff" points="315.88,-129.14 305.33,-130.03 314.13,-135.92 315.88,-129.14"/>
</a>
</g>
</g>
<!-- Node14 -->
<g id="Node000014" class="node">
<title>Node14</title>
<g id="a_Node000014"><a xlink:href="class_p4_1_1_symbolic_extern.html" target="_top" xlink:title=" ">
<polygon fill="white" stroke="#bfbfbf" points="468,-130 357,-130 357,-111 468,-111 468,-130"/>
<text text-anchor="middle" x="412.5" y="-118" font-family="Helvetica,sans-Serif" font-size="10.00">P4::SymbolicExtern</text>
</a>
</g>
</g>
<!-- Node1&#45;&gt;Node14 -->
<g id="edge13_Node000001_Node000014" class="edge">
<title>Node1&#45;&gt;Node14</title>
<g id="a_edge13_Node000001_Node000014"><a xlink:title=" ">
<path fill="none" stroke="#63b8ff" d="M331.56,-120.5C340.03,-120.5 348.66,-120.5 356.96,-120.5"/>
<polygon fill="#63b8ff" stroke="#63b8ff" points="331.34,-117 321.34,-120.5 331.34,-124 331.34,-117"/>
</a>
</g>
</g>
<!-- Node16 -->
<g id="Node000016" class="node">
<title>Node16</title>
<g id="a_Node000016"><a xlink:href="class_p4_1_1_symbolic_struct.html" target="_top" xlink:title=" ">
<polygon fill="white" stroke="#bfbfbf" points="466.5,-93 358.5,-93 358.5,-74 466.5,-74 466.5,-93"/>
<text text-anchor="middle" x="412.5" y="-81" font-family="Helvetica,sans-Serif" font-size="10.00">P4::SymbolicStruct</text>
</a>
</g>
</g>
<!-- Node1&#45;&gt;Node16 -->
<g id="edge15_Node000001_Node000016" class="edge">
<title>Node1&#45;&gt;Node16</title>
<g id="a_edge15_Node000001_Node000016"><a xlink:title=" ">
<path fill="none" stroke="#63b8ff" d="M315.08,-108.45C334.27,-103.48 356.21,-97.81 374.3,-93.12"/>
<polygon fill="#63b8ff" stroke="#63b8ff" points="314.13,-105.08 305.33,-110.97 315.88,-111.86 314.13,-105.08"/>
</a>
</g>
</g>
<!-- Node20 -->
<g id="Node000020" class="node">
<title>Node20</title>
<g id="a_Node000020"><a xlink:href="class_p4_1_1_symbolic_tuple.html" target="_top" xlink:title=" ">
<polygon fill="white" stroke="#bfbfbf" points="465,-56 360,-56 360,-37 465,-37 465,-56"/>
<text text-anchor="middle" x="412.5" y="-44" font-family="Helvetica,sans-Serif" font-size="10.00">P4::SymbolicTuple</text>
</a>
</g>
</g>
<!-- Node1&#45;&gt;Node20 -->
<g id="edge19_Node000001_Node000020" class="edge">
<title>Node1&#45;&gt;Node20</title>
<g id="a_edge19_Node000001_Node000020"><a xlink:title=" ">
<path fill="none" stroke="#63b8ff" d="M289.71,-104.98C307.13,-92.76 332.78,-75.95 357,-64.5 363.67,-61.35 371.03,-58.52 378.14,-56.08"/>
<polygon fill="#63b8ff" stroke="#63b8ff" points="287.52,-102.24 281.41,-110.9 291.58,-107.95 287.52,-102.24"/>
</a>
</g>
</g>
<!-- Node21 -->
<g id="Node000021" class="node">
<title>Node21</title>
<g id="a_Node000021"><a xlink:href="class_p4_1_1_symbolic_void.html" target="_top" xlink:title=" ">
<polygon fill="white" stroke="#bfbfbf" points="463,-19 362,-19 362,0 463,0 463,-19"/>
<text text-anchor="middle" x="412.5" y="-7" font-family="Helvetica,sans-Serif" font-size="10.00">P4::SymbolicVoid</text>
</a>
</g>
</g>
<!-- Node1&#45;&gt;Node21 -->
<g id="edge20_Node000001_Node000021" class="edge">
<title>Node1&#45;&gt;Node21</title>
<g id="a_edge20_Node000001_Node000021"><a xlink:title=" ">
<path fill="none" stroke="#63b8ff" d="M281.19,-102.56C296.81,-81.73 325.18,-47.65 357,-27.5 362.3,-24.14 368.3,-21.35 374.32,-19.04"/>
<polygon fill="#63b8ff" stroke="#63b8ff" points="278.21,-100.71 275.13,-110.85 283.86,-104.84 278.21,-100.71"/>
</a>
</g>
</g>
<!-- Node2 -->
<g id="Node000002" class="node">
<title>Node2</title>
<g id="a_Node000002"><a xlink:href="class_i_has_db_print.html" target="_top" xlink:title=" ">
<polygon fill="white" stroke="#bfbfbf" points="178,-149 104,-149 104,-130 178,-130 178,-149"/>
<text text-anchor="middle" x="141" y="-137" font-family="Helvetica,sans-Serif" font-size="10.00">IHasDbPrint</text>
</a>
</g>
</g>
<!-- Node2&#45;&gt;Node1 -->
<g id="edge1_Node000001_Node000002" class="edge">
<title>Node2&#45;&gt;Node1</title>
<g id="a_edge1_Node000001_Node000002"><a xlink:title=" ">
<path fill="none" stroke="#63b8ff" d="M188.03,-132.48C196.45,-131.19 205.3,-129.84 213.9,-128.53"/>
<polygon fill="#63b8ff" stroke="#63b8ff" points="187.37,-129.04 178.01,-134 188.42,-135.96 187.37,-129.04"/>
</a>
</g>
</g>
<!-- Node3 -->
<g id="Node000003" class="node">
<title>Node3</title>
<g id="a_Node000003"><a xlink:href="class_i_castable.html" target="_top" xlink:title=" ">
<polygon fill="white" stroke="#666666" points="172,-112 110,-112 110,-93 172,-93 172,-112"/>
<text text-anchor="middle" x="141" y="-100" font-family="Helvetica,sans-Serif" font-size="10.00">ICastable</text>
</a>
</g>
</g>
<!-- Node3&#45;&gt;Node1 -->
<g id="edge2_Node000001_Node000003" class="edge">
<title>Node3&#45;&gt;Node1</title>
<g id="a_edge2_Node000001_Node000003"><a xlink:title=" ">
<path fill="none" stroke="#63b8ff" d="M182.25,-108.32C192.3,-109.77 203.24,-111.35 213.8,-112.88"/>
<polygon fill="#63b8ff" stroke="#63b8ff" points="182.54,-104.82 172.14,-106.86 181.53,-111.75 182.54,-104.82"/>
</a>
</g>
</g>
<!-- Node4 -->
<g id="Node000004" class="node">
<title>Node4</title>
<g id="a_Node000004"><a xlink:href="struct_r_t_t_i_1_1_base.html" target="_top" xlink:title=" ">
<polygon fill="white" stroke="#bfbfbf" points="68,-112 0,-112 0,-93 68,-93 68,-112"/>
<text text-anchor="middle" x="34" y="-100" font-family="Helvetica,sans-Serif" font-size="10.00">RTTI::Base</text>
</a>
</g>
</g>
<!-- Node4&#45;&gt;Node3 -->
<g id="edge3_Node000003_Node000004" class="edge">
<title>Node4&#45;&gt;Node3</title>
<g id="a_edge3_Node000003_Node000004"><a xlink:title=" ">
<path fill="none" stroke="#63b8ff" d="M78.52,-102.5C89.05,-102.5 100.08,-102.5 109.84,-102.5"/>
<polygon fill="#63b8ff" stroke="#63b8ff" points="78.22,-99 68.22,-102.5 78.22,-106 78.22,-99"/>
</a>
</g>
</g>
<!-- Node6 -->
<g id="Node000006" class="node">
<title>Node6</title>
<g id="a_Node000006"><a xlink:href="class_p4_1_1_symbolic_bool.html" target="_top" xlink:title=" ">
<polygon fill="white" stroke="#bfbfbf" points="626,-352 525,-352 525,-333 626,-333 626,-352"/>
<text text-anchor="middle" x="575.5" y="-340" font-family="Helvetica,sans-Serif" font-size="10.00">P4::SymbolicBool</text>
</a>
</g>
</g>
<!-- Node5&#45;&gt;Node6 -->
<g id="edge5_Node000005_Node000006" class="edge">
<title>Node5&#45;&gt;Node6</title>
<g id="a_edge5_Node000005_Node000006"><a xlink:title=" ">
<path fill="none" stroke="#63b8ff" d="M434.73,-284.23C452.46,-296.72 478.81,-313.79 504,-324.5 511.79,-327.81 520.33,-330.62 528.7,-332.97"/>
<polygon fill="#63b8ff" stroke="#63b8ff" points="436.47,-281.17 426.3,-278.18 432.39,-286.86 436.47,-281.17"/>
</a>
</g>
</g>
<!-- Node7 -->
<g id="Node000007" class="node">
<title>Node7</title>
<g id="a_Node000007"><a xlink:href="class_p4_1_1_symbolic_enum.html" target="_top" xlink:title=" ">
<polygon fill="white" stroke="#bfbfbf" points="629,-315 522,-315 522,-296 629,-296 629,-315"/>
<text text-anchor="middle" x="575.5" y="-303" font-family="Helvetica,sans-Serif" font-size="10.00">P4::SymbolicEnum</text>
</a>
</g>
</g>
<!-- Node5&#45;&gt;Node7 -->
<g id="edge6_Node000005_Node000007" class="edge">
<title>Node5&#45;&gt;Node7</title>
<g id="a_edge6_Node000005_Node000007"><a xlink:title=" ">
<path fill="none" stroke="#63b8ff" d="M464.8,-280.29C486.77,-285.34 512.11,-291.16 532.9,-295.94"/>
<polygon fill="#63b8ff" stroke="#63b8ff" points="465.49,-276.86 454.96,-278.03 463.92,-283.68 465.49,-276.86"/>
</a>
</g>
</g>
<!-- Node8 -->
<g id="Node000008" class="node">
<title>Node8</title>
<g id="a_Node000008"><a xlink:href="class_p4_1_1_symbolic_integer.html" target="_top" xlink:title=" ">
<polygon fill="white" stroke="#bfbfbf" points="632.5,-278 518.5,-278 518.5,-259 632.5,-259 632.5,-278"/>
<text text-anchor="middle" x="575.5" y="-266" font-family="Helvetica,sans-Serif" font-size="10.00">P4::SymbolicInteger</text>
</a>
</g>
</g>
<!-- Node5&#45;&gt;Node8 -->
<g id="edge7_Node000005_Node000008" class="edge">
<title>Node5&#45;&gt;Node8</title>
<g id="a_edge7_Node000005_Node000008"><a xlink:title=" ">
<path fill="none" stroke="#63b8ff" d="M469.02,-268.5C484.98,-268.5 502.39,-268.5 518.38,-268.5"/>
<polygon fill="#63b8ff" stroke="#63b8ff" points="468.78,-265 458.78,-268.5 468.78,-272 468.78,-265"/>
</a>
</g>
</g>
<!-- Node9 -->
<g id="Node000009" class="node">
<title>Node9</title>
<g id="a_Node000009"><a xlink:href="class_p4_1_1_symbolic_varbit.html" target="_top" xlink:title=" ">
<polygon fill="white" stroke="#bfbfbf" points="629.5,-241 521.5,-241 521.5,-222 629.5,-222 629.5,-241"/>
<text text-anchor="middle" x="575.5" y="-229" font-family="Helvetica,sans-Serif" font-size="10.00">P4::SymbolicVarbit</text>
</a>
</g>
</g>
<!-- Node5&#45;&gt;Node9 -->
<g id="edge8_Node000005_Node000009" class="edge">
<title>Node5&#45;&gt;Node9</title>
<g id="a_edge8_Node000005_Node000009"><a xlink:title=" ">
<path fill="none" stroke="#63b8ff" d="M464.8,-256.71C486.77,-251.66 512.11,-245.84 532.9,-241.06"/>
<polygon fill="#63b8ff" stroke="#63b8ff" points="463.92,-253.32 454.96,-258.97 465.49,-260.14 463.92,-253.32"/>
</a>
</g>
</g>
<!-- Node12 -->
<g id="Node000012" class="node">
<title>Node12</title>
<g id="a_Node000012"><a xlink:href="class_p4_1_1_symbolic_exception.html" target="_top" xlink:title=" ">
<polygon fill="white" stroke="#bfbfbf" points="639.5,-204 511.5,-204 511.5,-185 639.5,-185 639.5,-204"/>
<text text-anchor="middle" x="575.5" y="-192" font-family="Helvetica,sans-Serif" font-size="10.00">P4::SymbolicException</text>
</a>
</g>
</g>
<!-- Node11&#45;&gt;Node12 -->
<g id="edge11_Node000011_Node000012" class="edge">
<title>Node11&#45;&gt;Node12</title>
<g id="a_edge11_Node000011_Node000012"><a xlink:title=" ">
<path fill="none" stroke="#63b8ff" d="M464.8,-169.29C486.77,-174.34 512.11,-180.16 532.9,-184.94"/>
<polygon fill="#63b8ff" stroke="#63b8ff" points="465.49,-165.86 454.96,-167.03 463.92,-172.68 465.49,-165.86"/>
</a>
</g>
</g>
<!-- Node13 -->
<g id="Node000013" class="node">
<title>Node13</title>
<g id="a_Node000013"><a xlink:href="class_p4_1_1_symbolic_static_error.html" target="_top" xlink:title=" ">
<polygon fill="white" stroke="#bfbfbf" points="641,-167 510,-167 510,-148 641,-148 641,-167"/>
<text text-anchor="middle" x="575.5" y="-155" font-family="Helvetica,sans-Serif" font-size="10.00">P4::SymbolicStaticError</text>
</a>
</g>
</g>
<!-- Node11&#45;&gt;Node13 -->
<g id="edge12_Node000011_Node000013" class="edge">
<title>Node11&#45;&gt;Node13</title>
<g id="a_edge12_Node000011_Node000013"><a xlink:title=" ">
<path fill="none" stroke="#63b8ff" d="M474.76,-157.5C486.19,-157.5 498.18,-157.5 509.71,-157.5"/>
<polygon fill="#63b8ff" stroke="#63b8ff" points="474.44,-154 464.44,-157.5 474.44,-161 474.44,-154"/>
</a>
</g>
</g>
<!-- Node15 -->
<g id="Node000015" class="node">
<title>Node15</title>
<g id="a_Node000015"><a xlink:href="class_p4_1_1_symbolic_packet_in.html" target="_top" xlink:title=" ">
<polygon fill="white" stroke="#bfbfbf" points="635.5,-130 515.5,-130 515.5,-111 635.5,-111 635.5,-130"/>
<text text-anchor="middle" x="575.5" y="-118" font-family="Helvetica,sans-Serif" font-size="10.00">P4::SymbolicPacketIn</text>
</a>
</g>
</g>
<!-- Node14&#45;&gt;Node15 -->
<g id="edge14_Node000014_Node000015" class="edge">
<title>Node14&#45;&gt;Node15</title>
<g id="a_edge14_Node000014_Node000015"><a xlink:title=" ">
<path fill="none" stroke="#63b8ff" d="M478.18,-120.5C490.46,-120.5 503.26,-120.5 515.36,-120.5"/>
<polygon fill="#63b8ff" stroke="#63b8ff" points="478.01,-117 468.01,-120.5 478.01,-124 478.01,-117"/>
</a>
</g>
</g>
<!-- Node17 -->
<g id="Node000017" class="node">
<title>Node17</title>
<g id="a_Node000017"><a xlink:href="class_p4_1_1_symbolic_header.html" target="_top" xlink:title=" ">
<polygon fill="white" stroke="#bfbfbf" points="633,-93 518,-93 518,-74 633,-74 633,-93"/>
<text text-anchor="middle" x="575.5" y="-81" font-family="Helvetica,sans-Serif" font-size="10.00">P4::SymbolicHeader</text>
</a>
</g>
</g>
<!-- Node16&#45;&gt;Node17 -->
<g id="edge16_Node000016_Node000017" class="edge">
<title>Node16&#45;&gt;Node17</title>
<g id="a_edge16_Node000016_Node000017"><a xlink:title=" ">
<path fill="none" stroke="#63b8ff" d="M476.84,-83.5C490.36,-83.5 504.55,-83.5 517.79,-83.5"/>
<polygon fill="#63b8ff" stroke="#63b8ff" points="476.66,-80 466.66,-83.5 476.66,-87 476.66,-80"/>
</a>
</g>
</g>
<!-- Node19 -->
<g id="Node000019" class="node">
<title>Node19</title>
<g id="a_Node000019"><a xlink:href="class_p4_1_1_symbolic_header_union.html" target="_top" xlink:title=" ">
<polygon fill="white" stroke="#bfbfbf" points="647,-56 504,-56 504,-37 647,-37 647,-56"/>
<text text-anchor="middle" x="575.5" y="-44" font-family="Helvetica,sans-Serif" font-size="10.00">P4::SymbolicHeaderUnion</text>
</a>
</g>
</g>
<!-- Node16&#45;&gt;Node19 -->
<g id="edge18_Node000016_Node000019" class="edge">
<title>Node16&#45;&gt;Node19</title>
<g id="a_edge18_Node000016_Node000019"><a xlink:title=" ">
<path fill="none" stroke="#63b8ff" d="M464.8,-71.71C486.77,-66.66 512.11,-60.84 532.9,-56.06"/>
<polygon fill="#63b8ff" stroke="#63b8ff" points="463.92,-68.32 454.96,-73.97 465.49,-75.14 463.92,-68.32"/>
</a>
</g>
</g>
<!-- Node18 -->
<g id="Node000018" class="node">
<title>Node18</title>
<g id="a_Node000018"><a xlink:href="class_p4_1_1_any_element.html" target="_top" xlink:title=" ">
<polygon fill="white" stroke="#bfbfbf" points="777,-93 683,-93 683,-74 777,-74 777,-93"/>
<text text-anchor="middle" x="730" y="-81" font-family="Helvetica,sans-Serif" font-size="10.00">P4::AnyElement</text>
</a>
</g>
</g>
<!-- Node17&#45;&gt;Node18 -->
<g id="edge17_Node000017_Node000018" class="edge">
<title>Node17&#45;&gt;Node18</title>
<g id="a_edge17_Node000017_Node000018"><a xlink:title=" ">
<path fill="none" stroke="#63b8ff" d="M643.32,-83.5C656.58,-83.5 670.23,-83.5 682.62,-83.5"/>
<polygon fill="#63b8ff" stroke="#63b8ff" points="643.29,-80 633.29,-83.5 643.29,-87 643.29,-80"/>
</a>
</g>
</g>
</g>
</svg>
