<?xml version="1.0" encoding="UTF-8" standalone="no"?>
<!DOCTYPE svg PUBLIC "-//W3C//DTD SVG 1.1//EN"
 "http://www.w3.org/Graphics/SVG/1.1/DTD/svg11.dtd">
<!-- Generated by graphviz version 2.43.0 (0)
 -->
<!-- Title: P4::ResolutionContext Pages: 1 -->
<svg width="711pt" height="1658pt"
 viewBox="0.00 0.00 711.00 1658.00" xmlns="http://www.w3.org/2000/svg" xmlns:xlink="http://www.w3.org/1999/xlink">
<g id="graph0" class="graph" transform="scale(1 1) rotate(0) translate(4 1654)">
<title>P4::ResolutionContext</title>
<!-- Node1 -->
<g id="Node000001" class="node">
<title>Node1</title>
<g id="a_Node000001"><a xlink:title="Visitor mixin for looking up names in enclosing scopes from the Visitor::Context.">
<polygon fill="#999999" stroke="#666666" points="286,-789 161,-789 161,-770 286,-770 286,-789"/>
<text text-anchor="middle" x="223.5" y="-777" font-family="Helvetica,sans-Serif" font-size="10.00">P4::ResolutionContext</text>
</a>
</g>
</g>
<!-- Node4 -->
<g id="Node000004" class="node">
<title>Node4</title>
<g id="a_Node000004"><a xlink:href="class_p4_1_1_abstract_inliner.html" target="_top" xlink:title=" ">
<polygon fill="white" stroke="#bfbfbf" points="471.5,-1650 360.5,-1650 360.5,-1609 471.5,-1609 471.5,-1650"/>
<text text-anchor="start" x="368.5" y="-1638" font-family="Helvetica,sans-Serif" font-size="10.00">P4::AbstractInliner</text>
<text text-anchor="start" x="368.5" y="-1627" font-family="Helvetica,sans-Serif" font-size="10.00">&lt; ActionsInlineList,</text>
<text text-anchor="middle" x="416" y="-1616" font-family="Helvetica,sans-Serif" font-size="10.00"> AInlineWorkList &gt;</text>
</a>
</g>
</g>
<!-- Node1&#45;&gt;Node4 -->
<g id="edge3_Node000001_Node000004" class="edge">
<title>Node1&#45;&gt;Node4</title>
<g id="a_edge3_Node000001_Node000004"><a xlink:title=" ">
<path fill="none" stroke="#63b8ff" d="M225.57,-799.17C232.17,-917.98 268.95,-1536.67 322,-1600.5 331.62,-1612.08 345.79,-1619.11 360.19,-1623.36"/>
<polygon fill="#63b8ff" stroke="#63b8ff" points="229.05,-798.8 225.01,-789.01 222.06,-799.18 229.05,-798.8"/>
</a>
</g>
</g>
<!-- Node6 -->
<g id="Node000006" class="node">
<title>Node6</title>
<g id="a_Node000006"><a xlink:href="class_p4_1_1_abstract_inliner.html" target="_top" xlink:title=" ">
<polygon fill="white" stroke="#bfbfbf" points="489,-1591 343,-1591 343,-1550 489,-1550 489,-1591"/>
<text text-anchor="start" x="351" y="-1579" font-family="Helvetica,sans-Serif" font-size="10.00">P4::AbstractInliner</text>
<text text-anchor="start" x="351" y="-1568" font-family="Helvetica,sans-Serif" font-size="10.00">&lt; FunctionsInlineList,</text>
<text text-anchor="middle" x="416" y="-1557" font-family="Helvetica,sans-Serif" font-size="10.00"> FunctionsInlineWorkList &gt;</text>
</a>
</g>
</g>
<!-- Node1&#45;&gt;Node6 -->
<g id="edge5_Node000001_Node000006" class="edge">
<title>Node1&#45;&gt;Node6</title>
<g id="a_edge5_Node000001_Node000006"><a xlink:title=" ">
<path fill="none" stroke="#63b8ff" d="M224.27,-799.32C223.43,-907.22 224.6,-1423.22 322,-1540.5 327.64,-1547.29 334.82,-1552.55 342.69,-1556.64"/>
<polygon fill="#63b8ff" stroke="#63b8ff" points="227.77,-799.23 224.37,-789.19 220.77,-799.16 227.77,-799.23"/>
</a>
</g>
</g>
<!-- Node8 -->
<g id="Node000008" class="node">
<title>Node8</title>
<g id="a_Node000008"><a xlink:href="class_p4_1_1_abstract_inliner.html" target="_top" xlink:title=" ">
<polygon fill="white" stroke="#bfbfbf" points="498,-1531.5 334,-1531.5 334,-1501.5 498,-1501.5 498,-1531.5"/>
<text text-anchor="start" x="342" y="-1519.5" font-family="Helvetica,sans-Serif" font-size="10.00">P4::AbstractInliner</text>
<text text-anchor="middle" x="416" y="-1508.5" font-family="Helvetica,sans-Serif" font-size="10.00">&lt; InlineList, InlineSummary &gt;</text>
</a>
</g>
</g>
<!-- Node1&#45;&gt;Node8 -->
<g id="edge7_Node000001_Node000008" class="edge">
<title>Node1&#45;&gt;Node8</title>
<g id="a_edge7_Node000001_Node000008"><a xlink:title=" ">
<path fill="none" stroke="#63b8ff" d="M224.35,-799.47C223.95,-903.85 227.35,-1386.11 322,-1492.5 325.44,-1496.36 329.4,-1499.64 333.72,-1502.42"/>
<polygon fill="#63b8ff" stroke="#63b8ff" points="227.85,-799.38 224.4,-789.36 220.85,-799.34 227.85,-799.38"/>
</a>
</g>
</g>
<!-- Node10 -->
<g id="Node000010" class="node">
<title>Node10</title>
<g id="a_Node000010"><a xlink:href="class_p4_1_1_abstract_inliner.html" target="_top" xlink:title=" ">
<polygon fill="white" stroke="#bfbfbf" points="490,-1483 342,-1483 342,-1442 490,-1442 490,-1483"/>
<text text-anchor="start" x="350" y="-1471" font-family="Helvetica,sans-Serif" font-size="10.00">P4::AbstractInliner</text>
<text text-anchor="start" x="350" y="-1460" font-family="Helvetica,sans-Serif" font-size="10.00">&lt; P4::InlineList, InlineWork</text>
<text text-anchor="middle" x="416" y="-1449" font-family="Helvetica,sans-Serif" font-size="10.00">List &gt;</text>
</a>
</g>
</g>
<!-- Node1&#45;&gt;Node10 -->
<g id="edge9_Node000001_Node000010" class="edge">
<title>Node1&#45;&gt;Node10</title>
<g id="a_edge9_Node000001_Node000010"><a xlink:title=" ">
<path fill="none" stroke="#63b8ff" d="M224.74,-799.53C226.32,-898.39 238.02,-1333.49 322,-1432.5 327.49,-1438.97 334.38,-1444.06 341.92,-1448.05"/>
<polygon fill="#63b8ff" stroke="#63b8ff" points="228.24,-799.36 224.6,-789.41 221.24,-799.46 228.24,-799.36"/>
</a>
</g>
</g>
<!-- Node11 -->
<g id="Node000011" class="node">
<title>Node11</title>
<g id="a_Node000011"><a xlink:href="class_p4_1_1_abstract_inliner.html" target="_top" xlink:title=" ">
<polygon fill="white" stroke="#bfbfbf" points="495,-1423.5 337,-1423.5 337,-1393.5 495,-1393.5 495,-1423.5"/>
<text text-anchor="start" x="345" y="-1411.5" font-family="Helvetica,sans-Serif" font-size="10.00">P4::AbstractInliner</text>
<text text-anchor="middle" x="416" y="-1400.5" font-family="Helvetica,sans-Serif" font-size="10.00">&lt; InlineList, InlineWorkList &gt;</text>
</a>
</g>
</g>
<!-- Node1&#45;&gt;Node11 -->
<g id="edge10_Node000001_Node000011" class="edge">
<title>Node1&#45;&gt;Node11</title>
<g id="a_edge10_Node000001_Node000011"><a xlink:title=" ">
<path fill="none" stroke="#63b8ff" d="M224.88,-799.33C227.08,-893.62 241.17,-1295.8 322,-1384.5 326.27,-1389.18 331.32,-1393.01 336.82,-1396.12"/>
<polygon fill="#63b8ff" stroke="#63b8ff" points="228.37,-799.1 224.66,-789.18 221.38,-799.25 228.37,-799.1"/>
</a>
</g>
</g>
<!-- Node12 -->
<g id="Node000012" class="node">
<title>Node12</title>
<g id="a_Node000012"><a xlink:href="class_p4_1_1_compute_def_use.html" target="_top" xlink:title="Compute defuse info within P4Parser and P4Control blocks in the midend.">
<polygon fill="white" stroke="#666666" points="473.5,-1375 358.5,-1375 358.5,-1356 473.5,-1356 473.5,-1375"/>
<text text-anchor="middle" x="416" y="-1363" font-family="Helvetica,sans-Serif" font-size="10.00">P4::ComputeDefUse</text>
</a>
</g>
</g>
<!-- Node1&#45;&gt;Node12 -->
<g id="edge11_Node000001_Node000012" class="edge">
<title>Node1&#45;&gt;Node12</title>
<g id="a_edge11_Node000001_Node000012"><a xlink:title=" ">
<path fill="none" stroke="#63b8ff" d="M225.02,-799.3C227.79,-890.13 243.92,-1265.94 322,-1346.5 331.52,-1356.32 344.64,-1361.77 358.03,-1364.65"/>
<polygon fill="#63b8ff" stroke="#63b8ff" points="228.51,-798.94 224.72,-789.05 221.51,-799.14 228.51,-798.94"/>
</a>
</g>
</g>
<!-- Node13 -->
<g id="Node000013" class="node">
<title>Node13</title>
<g id="a_Node000013"><a xlink:href="class_p4_1_1_compute_def_use_1_1_setup_join_points.html" target="_top" xlink:title=" ">
<polygon fill="white" stroke="#bfbfbf" points="476.5,-1337.5 355.5,-1337.5 355.5,-1307.5 476.5,-1307.5 476.5,-1337.5"/>
<text text-anchor="start" x="363.5" y="-1325.5" font-family="Helvetica,sans-Serif" font-size="10.00">P4::ComputeDefUse::</text>
<text text-anchor="middle" x="416" y="-1314.5" font-family="Helvetica,sans-Serif" font-size="10.00">SetupJoinPoints</text>
</a>
</g>
</g>
<!-- Node1&#45;&gt;Node13 -->
<g id="edge12_Node000001_Node000013" class="edge">
<title>Node1&#45;&gt;Node13</title>
<g id="a_edge12_Node000001_Node000013"><a xlink:title=" ">
<path fill="none" stroke="#63b8ff" d="M225.45,-799.15C229.97,-884.71 252.1,-1223.76 322,-1298.5 330.77,-1307.88 342.68,-1313.78 355.04,-1317.46"/>
<polygon fill="#63b8ff" stroke="#63b8ff" points="228.94,-798.82 224.93,-789.01 221.94,-799.18 228.94,-798.82"/>
</a>
</g>
</g>
<!-- Node14 -->
<g id="Node000014" class="node">
<title>Node14</title>
<g id="a_Node000014"><a xlink:href="class_p4_1_1_constant_type_substitution.html" target="_top" xlink:title=" ">
<polygon fill="white" stroke="#bfbfbf" points="495.5,-1289 336.5,-1289 336.5,-1270 495.5,-1270 495.5,-1289"/>
<text text-anchor="middle" x="416" y="-1277" font-family="Helvetica,sans-Serif" font-size="10.00">P4::ConstantTypeSubstitution</text>
</a>
</g>
</g>
<!-- Node1&#45;&gt;Node14 -->
<g id="edge13_Node000001_Node000014" class="edge">
<title>Node1&#45;&gt;Node14</title>
<g id="a_edge13_Node000001_Node000014"><a xlink:title=" ">
<path fill="none" stroke="#8b1a1a" d="M225.64,-799.16C230.79,-881.15 254.69,-1194.76 322,-1261.5 326.2,-1265.67 331.06,-1269.02 336.31,-1271.7"/>
<polygon fill="#8b1a1a" stroke="#8b1a1a" points="229.13,-798.94 225.03,-789.17 222.14,-799.37 229.13,-798.94"/>
</a>
</g>
</g>
<!-- Node15 -->
<g id="Node000015" class="node">
<title>Node15</title>
<g id="a_Node000015"><a xlink:href="class_p4_1_1_create_struct_initializers.html" target="_top" xlink:title="Converts some list expressions into struct initializers.">
<polygon fill="white" stroke="#666666" points="489,-1252 343,-1252 343,-1233 489,-1233 489,-1252"/>
<text text-anchor="middle" x="416" y="-1240" font-family="Helvetica,sans-Serif" font-size="10.00">P4::CreateStructInitializers</text>
</a>
</g>
</g>
<!-- Node1&#45;&gt;Node15 -->
<g id="edge14_Node000001_Node000015" class="edge">
<title>Node1&#45;&gt;Node15</title>
<g id="a_edge14_Node000001_Node000015"><a xlink:title=" ">
<path fill="none" stroke="#63b8ff" d="M226.03,-799.61C232.43,-878.26 259.68,-1163.69 322,-1224.5 327.89,-1230.24 335.02,-1234.43 342.69,-1237.45"/>
<polygon fill="#63b8ff" stroke="#63b8ff" points="229.48,-798.88 225.21,-789.19 222.51,-799.44 229.48,-798.88"/>
</a>
</g>
</g>
<!-- Node16 -->
<g id="Node000016" class="node">
<title>Node16</title>
<g id="a_Node000016"><a xlink:href="class_p4_1_1_deprecated.html" target="_top" xlink:title=" ">
<polygon fill="white" stroke="#666666" points="461.5,-1215 370.5,-1215 370.5,-1196 461.5,-1196 461.5,-1215"/>
<text text-anchor="middle" x="416" y="-1203" font-family="Helvetica,sans-Serif" font-size="10.00">P4::Deprecated</text>
</a>
</g>
</g>
<!-- Node1&#45;&gt;Node16 -->
<g id="edge15_Node000001_Node000016" class="edge">
<title>Node1&#45;&gt;Node16</title>
<g id="a_edge15_Node000001_Node000016"><a xlink:title=" ">
<path fill="none" stroke="#63b8ff" d="M226.43,-799.36C234.05,-873.46 264.45,-1132.4 322,-1187.5 334.71,-1199.67 353.04,-1204.81 370.08,-1206.67"/>
<polygon fill="#63b8ff" stroke="#63b8ff" points="229.89,-798.71 225.4,-789.11 222.92,-799.41 229.89,-798.71"/>
</a>
</g>
</g>
<!-- Node17 -->
<g id="Node000017" class="node">
<title>Node17</title>
<g id="a_Node000017"><a xlink:href="class_p4_1_1_discover_actions_inlining.html" target="_top" xlink:title=" ">
<polygon fill="white" stroke="#bfbfbf" points="490.5,-1178 341.5,-1178 341.5,-1159 490.5,-1159 490.5,-1178"/>
<text text-anchor="middle" x="416" y="-1166" font-family="Helvetica,sans-Serif" font-size="10.00">P4::DiscoverActionsInlining</text>
</a>
</g>
</g>
<!-- Node1&#45;&gt;Node17 -->
<g id="edge16_Node000001_Node000017" class="edge">
<title>Node1&#45;&gt;Node17</title>
<g id="a_edge16_Node000001_Node000017"><a xlink:title=" ">
<path fill="none" stroke="#63b8ff" d="M226.96,-799.27C236.01,-868.72 269.64,-1100 322,-1149.5 327.51,-1154.71 334.04,-1158.66 341.05,-1161.63"/>
<polygon fill="#63b8ff" stroke="#63b8ff" points="230.42,-798.71 225.68,-789.24 223.48,-799.6 230.42,-798.71"/>
</a>
</g>
</g>
<!-- Node18 -->
<g id="Node000018" class="node">
<title>Node18</title>
<g id="a_Node000018"><a xlink:href="class_p4_1_1_discover_functions_inlining.html" target="_top" xlink:title=" ">
<polygon fill="white" stroke="#bfbfbf" points="496,-1141 336,-1141 336,-1122 496,-1122 496,-1141"/>
<text text-anchor="middle" x="416" y="-1129" font-family="Helvetica,sans-Serif" font-size="10.00">P4::DiscoverFunctionsInlining</text>
</a>
</g>
</g>
<!-- Node1&#45;&gt;Node18 -->
<g id="edge17_Node000001_Node000018" class="edge">
<title>Node1&#45;&gt;Node18</title>
<g id="a_edge17_Node000001_Node000018"><a xlink:title=" ">
<path fill="none" stroke="#63b8ff" d="M223.8,-799.57C222.93,-857.59 228.89,-1026.84 322,-1112.5 326.12,-1116.29 330.79,-1119.41 335.79,-1121.97"/>
<polygon fill="#63b8ff" stroke="#63b8ff" points="227.3,-799.31 224.04,-789.23 220.3,-799.14 227.3,-799.31"/>
</a>
</g>
</g>
<!-- Node19 -->
<g id="Node000019" class="node">
<title>Node19</title>
<g id="a_Node000019"><a xlink:href="class_p4_1_1_do_check_constants.html" target="_top" xlink:title=" ">
<polygon fill="white" stroke="#666666" points="479.5,-1104 352.5,-1104 352.5,-1085 479.5,-1085 479.5,-1104"/>
<text text-anchor="middle" x="416" y="-1092" font-family="Helvetica,sans-Serif" font-size="10.00">P4::DoCheckConstants</text>
</a>
</g>
</g>
<!-- Node1&#45;&gt;Node19 -->
<g id="edge18_Node000001_Node000019" class="edge">
<title>Node1&#45;&gt;Node19</title>
<g id="a_edge18_Node000001_Node000019"><a xlink:title=" ">
<path fill="none" stroke="#63b8ff" d="M224.65,-799.47C226.19,-853.06 238.21,-1000.95 322,-1075.5 330.5,-1083.06 341.17,-1087.92 352.23,-1091"/>
<polygon fill="#63b8ff" stroke="#63b8ff" points="228.14,-799.2 224.45,-789.27 221.14,-799.33 228.14,-799.2"/>
</a>
</g>
</g>
<!-- Node20 -->
<g id="Node000020" class="node">
<title>Node20</title>
<g id="a_Node000020"><a xlink:href="class_p4_1_1_do_check_core_methods.html" target="_top" xlink:title="Check types for arguments of core.p4 methods.">
<polygon fill="white" stroke="#666666" points="487.5,-1067 344.5,-1067 344.5,-1048 487.5,-1048 487.5,-1067"/>
<text text-anchor="middle" x="416" y="-1055" font-family="Helvetica,sans-Serif" font-size="10.00">P4::DoCheckCoreMethods</text>
</a>
</g>
</g>
<!-- Node1&#45;&gt;Node20 -->
<g id="edge19_Node000001_Node000020" class="edge">
<title>Node1&#45;&gt;Node20</title>
<g id="a_edge19_Node000001_Node000020"><a xlink:title=" ">
<path fill="none" stroke="#63b8ff" d="M225.7,-799.25C229.77,-848.03 247.38,-974.86 322,-1038.5 328.52,-1044.06 336.23,-1048.15 344.37,-1051.13"/>
<polygon fill="#63b8ff" stroke="#63b8ff" points="229.17,-798.81 224.95,-789.09 222.19,-799.32 229.17,-798.81"/>
</a>
</g>
</g>
<!-- Node21 -->
<g id="Node000021" class="node">
<title>Node21</title>
<g id="a_Node000021"><a xlink:href="class_p4_1_1_do_constant_folding.html" target="_top" xlink:title="statically evaluates many constant expressions.">
<polygon fill="white" stroke="#666666" points="479.5,-1030 352.5,-1030 352.5,-1011 479.5,-1011 479.5,-1030"/>
<text text-anchor="middle" x="416" y="-1018" font-family="Helvetica,sans-Serif" font-size="10.00">P4::DoConstantFolding</text>
</a>
</g>
</g>
<!-- Node1&#45;&gt;Node21 -->
<g id="edge20_Node000001_Node000021" class="edge">
<title>Node1&#45;&gt;Node21</title>
<g id="a_edge20_Node000001_Node000021"><a xlink:title=" ">
<path fill="none" stroke="#63b8ff" d="M227.09,-799.38C233.92,-843.26 256.62,-948.71 322,-1001.5 330.72,-1008.54 341.37,-1013.18 352.31,-1016.2"/>
<polygon fill="#63b8ff" stroke="#63b8ff" points="230.54,-798.79 225.65,-789.39 223.61,-799.79 230.54,-798.79"/>
</a>
</g>
</g>
<!-- Node22 -->
<g id="Node000022" class="node">
<title>Node22</title>
<g id="a_Node000022"><a xlink:href="class_p4_1_1_do_default_arguments.html" target="_top" xlink:title=" ">
<polygon fill="white" stroke="#666666" points="484.5,-993 347.5,-993 347.5,-974 484.5,-974 484.5,-993"/>
<text text-anchor="middle" x="416" y="-981" font-family="Helvetica,sans-Serif" font-size="10.00">P4::DoDefaultArguments</text>
</a>
</g>
</g>
<!-- Node1&#45;&gt;Node22 -->
<g id="edge21_Node000001_Node000022" class="edge">
<title>Node1&#45;&gt;Node22</title>
<g id="a_edge21_Node000001_Node000022"><a xlink:title=" ">
<path fill="none" stroke="#63b8ff" d="M228.86,-798.9C238.5,-837.11 265.44,-922.06 322,-964.5 329.51,-970.14 338.29,-974.21 347.4,-977.13"/>
<polygon fill="#63b8ff" stroke="#63b8ff" points="232.23,-797.95 226.49,-789.04 225.42,-799.58 232.23,-797.95"/>
</a>
</g>
</g>
<!-- Node23 -->
<g id="Node000023" class="node">
<title>Node23</title>
<g id="a_Node000023"><a xlink:href="class_p4_1_1_do_remove_exits.html" target="_top" xlink:title=" ">
<polygon fill="white" stroke="#666666" points="472.5,-956 359.5,-956 359.5,-937 472.5,-937 472.5,-956"/>
<text text-anchor="middle" x="416" y="-944" font-family="Helvetica,sans-Serif" font-size="10.00">P4::DoRemoveExits</text>
</a>
</g>
</g>
<!-- Node1&#45;&gt;Node23 -->
<g id="edge22_Node000001_Node000023" class="edge">
<title>Node1&#45;&gt;Node23</title>
<g id="a_edge22_Node000001_Node000023"><a xlink:title=" ">
<path fill="none" stroke="#63b8ff" d="M231.57,-799C244.33,-831.23 274.38,-895.28 322,-927.5 332.92,-934.89 346.1,-939.51 359.05,-942.38"/>
<polygon fill="#63b8ff" stroke="#63b8ff" points="234.74,-797.48 227.91,-789.38 228.2,-799.97 234.74,-797.48"/>
</a>
</g>
</g>
<!-- Node24 -->
<g id="Node000024" class="node">
<title>Node24</title>
<g id="a_Node000024"><a xlink:href="class_p4_1_1_do_simplify_control_flow.html" target="_top" xlink:title="Replace complex control flow nodes with simpler ones where possible.">
<polygon fill="white" stroke="#666666" points="489,-919 343,-919 343,-900 489,-900 489,-919"/>
<text text-anchor="middle" x="416" y="-907" font-family="Helvetica,sans-Serif" font-size="10.00">P4::DoSimplifyControlFlow</text>
</a>
</g>
</g>
<!-- Node1&#45;&gt;Node24 -->
<g id="edge23_Node000001_Node000024" class="edge">
<title>Node1&#45;&gt;Node24</title>
<g id="a_edge23_Node000001_Node000024"><a xlink:title=" ">
<path fill="none" stroke="#63b8ff" d="M235.08,-797.66C250.72,-822.76 282.46,-867.56 322,-890.5 328.7,-894.39 336.07,-897.49 343.65,-899.96"/>
<polygon fill="#63b8ff" stroke="#63b8ff" points="238.07,-795.83 229.89,-789.09 232.08,-799.45 238.07,-795.83"/>
</a>
</g>
</g>
<!-- Node25 -->
<g id="Node000025" class="node">
<title>Node25</title>
<g id="a_Node000025"><a xlink:href="class_p4_1_1_do_simplify_expressions.html" target="_top" xlink:title="Convert expressions so that each expression contains at most one side effect.">
<polygon fill="white" stroke="#666666" points="489,-882 343,-882 343,-863 489,-863 489,-882"/>
<text text-anchor="middle" x="416" y="-870" font-family="Helvetica,sans-Serif" font-size="10.00">P4::DoSimplifyExpressions</text>
</a>
</g>
</g>
<!-- Node1&#45;&gt;Node25 -->
<g id="edge24_Node000001_Node000025" class="edge">
<title>Node1&#45;&gt;Node25</title>
<g id="a_edge24_Node000001_Node000025"><a xlink:title=" ">
<path fill="none" stroke="#63b8ff" d="M241.54,-796.31C259.87,-813.38 290.61,-839.28 322,-853.5 330.56,-857.38 339.91,-860.47 349.29,-862.93"/>
<polygon fill="#63b8ff" stroke="#63b8ff" points="243.7,-793.52 234.04,-789.16 238.87,-798.59 243.7,-793.52"/>
</a>
</g>
</g>
<!-- Node26 -->
<g id="Node000026" class="node">
<title>Node26</title>
<g id="a_Node000026"><a xlink:href="class_p4_1_1_do_static_assert.html" target="_top" xlink:title=" ">
<polygon fill="white" stroke="#666666" points="469.5,-845 362.5,-845 362.5,-826 469.5,-826 469.5,-845"/>
<text text-anchor="middle" x="416" y="-833" font-family="Helvetica,sans-Serif" font-size="10.00">P4::DoStaticAssert</text>
</a>
</g>
</g>
<!-- Node1&#45;&gt;Node26 -->
<g id="edge25_Node000001_Node000026" class="edge">
<title>Node1&#45;&gt;Node26</title>
<g id="a_edge25_Node000001_Node000026"><a xlink:title=" ">
<path fill="none" stroke="#63b8ff" d="M255.92,-792.9C274.82,-800.59 299.49,-809.98 322,-816.5 334.82,-820.22 348.84,-823.48 362.01,-826.21"/>
<polygon fill="#63b8ff" stroke="#63b8ff" points="257.19,-789.64 246.61,-789.06 254.52,-796.11 257.19,-789.64"/>
</a>
</g>
</g>
<!-- Node27 -->
<g id="Node000027" class="node">
<title>Node27</title>
<g id="a_Node000027"><a xlink:href="class_p4_1_1_dontcare_args.html" target="_top" xlink:title=" ">
<polygon fill="white" stroke="#666666" points="466.5,-808 365.5,-808 365.5,-789 466.5,-789 466.5,-808"/>
<text text-anchor="middle" x="416" y="-796" font-family="Helvetica,sans-Serif" font-size="10.00">P4::DontcareArgs</text>
</a>
</g>
</g>
<!-- Node1&#45;&gt;Node27 -->
<g id="edge26_Node000001_Node000027" class="edge">
<title>Node1&#45;&gt;Node27</title>
<g id="a_edge26_Node000001_Node000027"><a xlink:title=" ">
<path fill="none" stroke="#63b8ff" d="M296.18,-786.65C319.23,-788.95 344.26,-791.44 365.37,-793.55"/>
<polygon fill="#63b8ff" stroke="#63b8ff" points="296.38,-783.15 286.09,-785.64 295.69,-790.12 296.38,-783.15"/>
</a>
</g>
</g>
<!-- Node28 -->
<g id="Node000028" class="node">
<title>Node28</title>
<g id="a_Node000028"><a xlink:href="class_p4_1_1_entry_priorities.html" target="_top" xlink:title="Assigns priorities to table entries if they are not &#39;const&#39;.">
<polygon fill="white" stroke="#666666" points="468,-771 364,-771 364,-752 468,-752 468,-771"/>
<text text-anchor="middle" x="416" y="-759" font-family="Helvetica,sans-Serif" font-size="10.00">P4::EntryPriorities</text>
</a>
</g>
</g>
<!-- Node1&#45;&gt;Node28 -->
<g id="edge27_Node000001_Node000028" class="edge">
<title>Node1&#45;&gt;Node28</title>
<g id="a_edge27_Node000001_Node000028"><a xlink:title=" ">
<path fill="none" stroke="#63b8ff" d="M296.26,-772.72C318.74,-770.6 343.07,-768.3 363.82,-766.34"/>
<polygon fill="#63b8ff" stroke="#63b8ff" points="295.71,-769.26 286.09,-773.68 296.37,-776.22 295.71,-769.26"/>
</a>
</g>
</g>
<!-- Node29 -->
<g id="Node000029" class="node">
<title>Node29</title>
<g id="a_Node000029"><a xlink:href="class_p4_1_1_find_action_parameters.html" target="_top" xlink:title=" ">
<polygon fill="white" stroke="#bfbfbf" points="486.5,-734 345.5,-734 345.5,-715 486.5,-715 486.5,-734"/>
<text text-anchor="middle" x="416" y="-722" font-family="Helvetica,sans-Serif" font-size="10.00">P4::FindActionParameters</text>
</a>
</g>
</g>
<!-- Node1&#45;&gt;Node29 -->
<g id="edge28_Node000001_Node000029" class="edge">
<title>Node1&#45;&gt;Node29</title>
<g id="a_edge28_Node000001_Node000029"><a xlink:title=" ">
<path fill="none" stroke="#63b8ff" d="M255.9,-766.01C274.79,-758.29 299.46,-748.91 322,-742.5 333.39,-739.26 345.73,-736.42 357.58,-734.01"/>
<polygon fill="#63b8ff" stroke="#63b8ff" points="254.49,-762.81 246.59,-769.87 257.17,-769.27 254.49,-762.81"/>
</a>
</g>
</g>
<!-- Node30 -->
<g id="Node000030" class="node">
<title>Node30</title>
<g id="a_Node000030"><a xlink:href="class_p4_1_1_find_function_specializations.html" target="_top" xlink:title=" ">
<polygon fill="white" stroke="#666666" points="501,-697 331,-697 331,-678 501,-678 501,-697"/>
<text text-anchor="middle" x="416" y="-685" font-family="Helvetica,sans-Serif" font-size="10.00">P4::FindFunctionSpecializations</text>
</a>
</g>
</g>
<!-- Node1&#45;&gt;Node30 -->
<g id="edge29_Node000001_Node000030" class="edge">
<title>Node1&#45;&gt;Node30</title>
<g id="a_edge29_Node000001_Node000030"><a xlink:title=" ">
<path fill="none" stroke="#63b8ff" d="M241.51,-762.63C259.81,-745.5 290.54,-719.56 322,-705.5 329.66,-702.08 337.96,-699.31 346.33,-697.06"/>
<polygon fill="#63b8ff" stroke="#63b8ff" points="238.82,-760.36 234.02,-769.8 243.67,-765.41 238.82,-760.36"/>
</a>
</g>
</g>
<!-- Node31 -->
<g id="Node000031" class="node">
<title>Node31</title>
<g id="a_Node000031"><a xlink:href="class_p4_1_1_find_global_action_uses.html" target="_top" xlink:title=" ">
<polygon fill="white" stroke="#bfbfbf" points="486.5,-660 345.5,-660 345.5,-641 486.5,-641 486.5,-660"/>
<text text-anchor="middle" x="416" y="-648" font-family="Helvetica,sans-Serif" font-size="10.00">P4::FindGlobalActionUses</text>
</a>
</g>
</g>
<!-- Node1&#45;&gt;Node31 -->
<g id="edge30_Node000001_Node000031" class="edge">
<title>Node1&#45;&gt;Node31</title>
<g id="a_edge30_Node000001_Node000031"><a xlink:title=" ">
<path fill="none" stroke="#63b8ff" d="M235.05,-761.29C250.65,-736.12 282.34,-691.24 322,-668.5 329.13,-664.41 337.03,-661.23 345.11,-658.76"/>
<polygon fill="#63b8ff" stroke="#63b8ff" points="232.03,-759.51 229.87,-769.88 238.03,-763.12 232.03,-759.51"/>
</a>
</g>
</g>
<!-- Node32 -->
<g id="Node000032" class="node">
<title>Node32</title>
<g id="a_Node000032"><a xlink:href="class_p4_1_1_find_repeated_action_uses.html" target="_top" xlink:title=" ">
<polygon fill="white" stroke="#bfbfbf" points="494,-623 338,-623 338,-604 494,-604 494,-623"/>
<text text-anchor="middle" x="416" y="-611" font-family="Helvetica,sans-Serif" font-size="10.00">P4::FindRepeatedActionUses</text>
</a>
</g>
</g>
<!-- Node1&#45;&gt;Node32 -->
<g id="edge31_Node000001_Node000032" class="edge">
<title>Node1&#45;&gt;Node32</title>
<g id="a_edge31_Node000001_Node000032"><a xlink:title=" ">
<path fill="none" stroke="#63b8ff" d="M231.35,-760.41C243.95,-728.25 273.98,-663.63 322,-631.5 327.06,-628.12 332.59,-625.33 338.37,-623.05"/>
<polygon fill="#63b8ff" stroke="#63b8ff" points="228,-759.39 227.75,-769.98 234.55,-761.86 228,-759.39"/>
</a>
</g>
</g>
<!-- Node33 -->
<g id="Node000033" class="node">
<title>Node33</title>
<g id="a_Node000033"><a xlink:href="class_p4_1_1_find_specializations.html" target="_top" xlink:title=" ">
<polygon fill="white" stroke="#666666" points="480,-586 352,-586 352,-567 480,-567 480,-586"/>
<text text-anchor="middle" x="416" y="-574" font-family="Helvetica,sans-Serif" font-size="10.00">P4::FindSpecializations</text>
</a>
</g>
</g>
<!-- Node1&#45;&gt;Node33 -->
<g id="edge32_Node000001_Node000033" class="edge">
<title>Node1&#45;&gt;Node33</title>
<g id="a_edge32_Node000001_Node000033"><a xlink:title=" ">
<path fill="none" stroke="#63b8ff" d="M228.82,-760.05C238.4,-721.75 265.22,-636.64 322,-594.5 330.72,-588.03 341.12,-583.7 351.76,-580.84"/>
<polygon fill="#63b8ff" stroke="#63b8ff" points="225.38,-759.4 226.47,-769.93 232.19,-761.01 225.38,-759.4"/>
</a>
</g>
</g>
<!-- Node34 -->
<g id="Node000034" class="node">
<title>Node34</title>
<g id="a_Node000034"><a xlink:href="class_p4_1_1_functions_inliner_1_1is_local_expression.html" target="_top" xlink:title=" ">
<polygon fill="white" stroke="#bfbfbf" points="472,-548.5 360,-548.5 360,-518.5 472,-518.5 472,-548.5"/>
<text text-anchor="start" x="368" y="-536.5" font-family="Helvetica,sans-Serif" font-size="10.00">P4::FunctionsInliner</text>
<text text-anchor="middle" x="416" y="-525.5" font-family="Helvetica,sans-Serif" font-size="10.00">::isLocalExpression</text>
</a>
</g>
</g>
<!-- Node1&#45;&gt;Node34 -->
<g id="edge33_Node000001_Node000034" class="edge">
<title>Node1&#45;&gt;Node34</title>
<g id="a_edge33_Node000001_Node000034"><a xlink:title=" ">
<path fill="none" stroke="#8b1a1a" d="M227.34,-759.59C234.62,-716.02 258.12,-611.82 322,-557.5 332.67,-548.43 346.35,-542.72 359.92,-539.15"/>
<polygon fill="#8b1a1a" stroke="#8b1a1a" points="223.84,-759.31 225.75,-769.73 230.75,-760.39 223.84,-759.31"/>
</a>
</g>
</g>
<!-- Node35 -->
<g id="Node000035" class="node">
<title>Node35</title>
<g id="a_Node000035"><a xlink:href="class_p4_1_1_has_table_apply.html" target="_top" xlink:title="Checks to see whether an IR node includes a table.apply() sub&#45;expression.">
<polygon fill="white" stroke="#666666" points="469.5,-500 362.5,-500 362.5,-481 469.5,-481 469.5,-500"/>
<text text-anchor="middle" x="416" y="-488" font-family="Helvetica,sans-Serif" font-size="10.00">P4::HasTableApply</text>
</a>
</g>
</g>
<!-- Node1&#45;&gt;Node35 -->
<g id="edge34_Node000001_Node000035" class="edge">
<title>Node1&#45;&gt;Node35</title>
<g id="a_edge34_Node000001_Node000035"><a xlink:title=" ">
<path fill="none" stroke="#63b8ff" d="M225.36,-759.6C228.68,-709.3 244.7,-576.33 322,-509.5 333.09,-499.91 347.72,-494.69 362.07,-491.96"/>
<polygon fill="#63b8ff" stroke="#63b8ff" points="221.86,-759.6 224.8,-769.78 228.85,-759.99 221.86,-759.6"/>
</a>
</g>
</g>
<!-- Node36 -->
<g id="Node000036" class="node">
<title>Node36</title>
<g id="a_Node000036"><a xlink:href="class_p4_1_1_instantiate_direct_calls.html" target="_top" xlink:title=" ">
<polygon fill="white" stroke="#bfbfbf" points="486,-463 346,-463 346,-444 486,-444 486,-463"/>
<text text-anchor="middle" x="416" y="-451" font-family="Helvetica,sans-Serif" font-size="10.00">P4::InstantiateDirectCalls</text>
</a>
</g>
</g>
<!-- Node1&#45;&gt;Node36 -->
<g id="edge35_Node000001_Node000036" class="edge">
<title>Node1&#45;&gt;Node36</title>
<g id="a_edge35_Node000001_Node000036"><a xlink:title=" ">
<path fill="none" stroke="#63b8ff" d="M224.3,-759.78C224.91,-704.91 234.61,-549.34 322,-471.5 328.88,-465.37 337.2,-461.07 346,-458.08"/>
<polygon fill="#63b8ff" stroke="#63b8ff" points="220.8,-759.89 224.29,-769.9 227.8,-759.9 220.8,-759.89"/>
</a>
</g>
</g>
<!-- Node37 -->
<g id="Node000037" class="node">
<title>Node37</title>
<g id="a_Node000037"><a xlink:href="class_p4_1_1_key_side_effect.html" target="_top" xlink:title=" ">
<polygon fill="white" stroke="#666666" points="466.5,-426 365.5,-426 365.5,-407 466.5,-407 466.5,-426"/>
<text text-anchor="middle" x="416" y="-414" font-family="Helvetica,sans-Serif" font-size="10.00">P4::KeySideEffect</text>
</a>
</g>
</g>
<!-- Node1&#45;&gt;Node37 -->
<g id="edge36_Node000001_Node000037" class="edge">
<title>Node1&#45;&gt;Node37</title>
<g id="a_edge36_Node000001_Node000037"><a xlink:title=" ">
<path fill="none" stroke="#63b8ff" d="M227.34,-759.76C237.28,-693.4 272.62,-479.89 322,-434.5 333.62,-423.82 349.61,-418.61 365.05,-416.28"/>
<polygon fill="#63b8ff" stroke="#63b8ff" points="223.86,-759.34 225.87,-769.74 230.79,-760.36 223.86,-759.34"/>
</a>
</g>
</g>
<!-- Node39 -->
<g id="Node000039" class="node">
<title>Node39</title>
<g id="a_Node000039"><a xlink:href="class_p4_1_1_localize_actions.html" target="_top" xlink:title=" ">
<polygon fill="white" stroke="#bfbfbf" points="471,-389 361,-389 361,-370 471,-370 471,-389"/>
<text text-anchor="middle" x="416" y="-377" font-family="Helvetica,sans-Serif" font-size="10.00">P4::LocalizeActions</text>
</a>
</g>
</g>
<!-- Node1&#45;&gt;Node39 -->
<g id="edge38_Node000001_Node000039" class="edge">
<title>Node1&#45;&gt;Node39</title>
<g id="a_edge38_Node000001_Node000039"><a xlink:title=" ">
<path fill="none" stroke="#63b8ff" d="M226.79,-759.54C235.36,-688.37 267.87,-448.54 322,-397.5 332.41,-387.68 346.48,-382.46 360.53,-379.84"/>
<polygon fill="#63b8ff" stroke="#63b8ff" points="223.28,-759.46 225.58,-769.8 230.23,-760.28 223.28,-759.46"/>
</a>
</g>
</g>
<!-- Node40 -->
<g id="Node000040" class="node">
<title>Node40</title>
<g id="a_Node000040"><a xlink:href="class_p4_1_1_move_initializers.html" target="_top" xlink:title=" ">
<polygon fill="white" stroke="#666666" points="472.5,-352 359.5,-352 359.5,-333 472.5,-333 472.5,-352"/>
<text text-anchor="middle" x="416" y="-340" font-family="Helvetica,sans-Serif" font-size="10.00">P4::MoveInitializers</text>
</a>
</g>
</g>
<!-- Node1&#45;&gt;Node40 -->
<g id="edge39_Node000001_Node000040" class="edge">
<title>Node1&#45;&gt;Node40</title>
<g id="a_edge39_Node000001_Node000040"><a xlink:title=" ">
<path fill="none" stroke="#63b8ff" d="M226.31,-759.58C233.55,-684.13 263.03,-417.3 322,-360.5 332.07,-350.8 345.7,-345.56 359.43,-342.88"/>
<polygon fill="#63b8ff" stroke="#63b8ff" points="222.81,-759.35 225.36,-769.63 229.78,-760 222.81,-759.35"/>
</a>
</g>
</g>
<!-- Node41 -->
<g id="Node000041" class="node">
<title>Node41</title>
<g id="a_Node000041"><a xlink:href="class_p4_1_1_p4_fmt_1_1_p4_formatter.html" target="_top" xlink:title=" ">
<polygon fill="white" stroke="#666666" points="482,-315 350,-315 350,-296 482,-296 482,-315"/>
<text text-anchor="middle" x="416" y="-303" font-family="Helvetica,sans-Serif" font-size="10.00">P4::P4Fmt::P4Formatter</text>
</a>
</g>
</g>
<!-- Node1&#45;&gt;Node41 -->
<g id="edge40_Node000001_Node000041" class="edge">
<title>Node1&#45;&gt;Node41</title>
<g id="a_edge40_Node000001_Node000041"><a xlink:title=" ">
<path fill="none" stroke="#8b1a1a" d="M225.88,-759.91C231.84,-680.8 258.1,-386.17 322,-323.5 329.63,-316.02 339.38,-311.17 349.69,-308.11"/>
<polygon fill="#8b1a1a" stroke="#8b1a1a" points="222.38,-759.73 225.14,-769.96 229.36,-760.24 222.38,-759.73"/>
</a>
</g>
</g>
<!-- Node42 -->
<g id="Node000042" class="node">
<title>Node42</title>
<g id="a_Node000042"><a xlink:href="class_p4_1_1_p4_tools_1_1_p4_program_d_c_g_creator.html" target="_top" xlink:title="The main class for building control flow DCG.">
<polygon fill="white" stroke="#666666" points="510,-278 322,-278 322,-259 510,-259 510,-278"/>
<text text-anchor="middle" x="416" y="-266" font-family="Helvetica,sans-Serif" font-size="10.00">P4::P4Tools::P4ProgramDCGCreator</text>
</a>
</g>
</g>
<!-- Node1&#45;&gt;Node42 -->
<g id="edge41_Node000001_Node000042" class="edge">
<title>Node1&#45;&gt;Node42</title>
<g id="a_edge41_Node000001_Node000042"><a xlink:title=" ">
<path fill="none" stroke="#8b1a1a" d="M225.57,-759.4C230.44,-675.56 253.36,-354.86 322,-286.5 325.26,-283.25 328.92,-280.5 332.86,-278.17"/>
<polygon fill="#8b1a1a" stroke="#8b1a1a" points="222.06,-759.43 225,-769.61 229.05,-759.82 222.06,-759.43"/>
</a>
</g>
</g>
<!-- Node43 -->
<g id="Node000043" class="node">
<title>Node43</title>
<g id="a_Node000043"><a xlink:href="class_p4_1_1_reads_writes.html" target="_top" xlink:title="Computes the SetOfLocations read and written by an expression.">
<polygon fill="white" stroke="#666666" points="464,-241 368,-241 368,-222 464,-222 464,-241"/>
<text text-anchor="middle" x="416" y="-229" font-family="Helvetica,sans-Serif" font-size="10.00">P4::ReadsWrites</text>
</a>
</g>
</g>
<!-- Node1&#45;&gt;Node43 -->
<g id="edge42_Node000001_Node000043" class="edge">
<title>Node1&#45;&gt;Node43</title>
<g id="a_edge42_Node000001_Node000043"><a xlink:title=" ">
<path fill="none" stroke="#63b8ff" d="M225.26,-759.59C229.01,-672.23 248.43,-323.76 322,-249.5 333.92,-237.47 351.31,-232.2 367.83,-230.21"/>
<polygon fill="#63b8ff" stroke="#63b8ff" points="221.76,-759.6 224.85,-769.74 228.75,-759.89 221.76,-759.6"/>
</a>
</g>
</g>
<!-- Node44 -->
<g id="Node000044" class="node">
<title>Node44</title>
<g id="a_Node000044"><a xlink:href="class_p4_1_1_rename_symbols.html" target="_top" xlink:title=" ">
<polygon fill="white" stroke="#bfbfbf" points="474.5,-204 357.5,-204 357.5,-185 474.5,-185 474.5,-204"/>
<text text-anchor="middle" x="416" y="-192" font-family="Helvetica,sans-Serif" font-size="10.00">P4::RenameSymbols</text>
</a>
</g>
</g>
<!-- Node1&#45;&gt;Node44 -->
<g id="edge43_Node000001_Node000044" class="edge">
<title>Node1&#45;&gt;Node44</title>
<g id="a_edge43_Node000001_Node000044"><a xlink:title=" ">
<path fill="none" stroke="#63b8ff" d="M225,-759.68C227.69,-668.77 243.5,-292.66 322,-212.5 331.32,-202.98 344.05,-197.69 357.11,-194.89"/>
<polygon fill="#63b8ff" stroke="#63b8ff" points="221.49,-759.85 224.71,-769.94 228.49,-760.04 221.49,-759.85"/>
</a>
</g>
</g>
<!-- Node45 -->
<g id="Node000045" class="node">
<title>Node45</title>
<g id="a_Node000045"><a xlink:href="class_p4_1_1_resolve_references.html" target="_top" xlink:title=" ">
<polygon fill="white" stroke="#666666" points="480,-167 352,-167 352,-148 480,-148 480,-167"/>
<text text-anchor="middle" x="416" y="-155" font-family="Helvetica,sans-Serif" font-size="10.00">P4::ResolveReferences</text>
</a>
</g>
</g>
<!-- Node1&#45;&gt;Node45 -->
<g id="edge44_Node000001_Node000045" class="edge">
<title>Node1&#45;&gt;Node45</title>
<g id="a_edge44_Node000001_Node000045"><a xlink:title=" ">
<path fill="none" stroke="#8b1a1a" d="M224.77,-759.6C226.48,-664.97 238.61,-261.53 322,-175.5 330.01,-167.23 340.6,-162.14 351.75,-159.11"/>
<polygon fill="#8b1a1a" stroke="#8b1a1a" points="221.27,-759.73 224.61,-769.78 228.27,-759.84 221.27,-759.73"/>
</a>
</g>
</g>
<!-- Node46 -->
<g id="Node000046" class="node">
<title>Node46</title>
<g id="a_Node000046"><a xlink:href="class_p4_1_1_substitute_parameters.html" target="_top" xlink:title=" ">
<polygon fill="white" stroke="#bfbfbf" points="486,-130 346,-130 346,-111 486,-111 486,-130"/>
<text text-anchor="middle" x="416" y="-118" font-family="Helvetica,sans-Serif" font-size="10.00">P4::SubstituteParameters</text>
</a>
</g>
</g>
<!-- Node1&#45;&gt;Node46 -->
<g id="edge45_Node000001_Node000046" class="edge">
<title>Node1&#45;&gt;Node46</title>
<g id="a_edge45_Node000001_Node000046"><a xlink:title=" ">
<path fill="none" stroke="#63b8ff" d="M224.57,-759.63C225.32,-661.59 233.68,-230.45 322,-138.5 328.49,-131.74 336.71,-127.1 345.55,-123.97"/>
<polygon fill="#63b8ff" stroke="#63b8ff" points="221.07,-759.65 224.51,-769.67 228.07,-759.69 221.07,-759.65"/>
</a>
</g>
</g>
<!-- Node47 -->
<g id="Node000047" class="node">
<title>Node47</title>
<g id="a_Node000047"><a xlink:href="class_p4_1_1_to_p4.html" target="_top" xlink:title=" ">
<polygon fill="white" stroke="#666666" points="444.5,-93 387.5,-93 387.5,-74 444.5,-74 444.5,-93"/>
<text text-anchor="middle" x="416" y="-81" font-family="Helvetica,sans-Serif" font-size="10.00">P4::ToP4</text>
</a>
</g>
</g>
<!-- Node1&#45;&gt;Node47 -->
<g id="edge46_Node000001_Node000047" class="edge">
<title>Node1&#45;&gt;Node47</title>
<g id="a_edge46_Node000001_Node000047"><a xlink:title=" ">
<path fill="none" stroke="#8b1a1a" d="M224.39,-759.46C224.23,-657.71 228.8,-199.32 322,-101.5 338.56,-84.12 366.48,-80.71 387.42,-80.99"/>
<polygon fill="#8b1a1a" stroke="#8b1a1a" points="220.89,-759.6 224.42,-769.59 227.89,-759.58 220.89,-759.6"/>
</a>
</g>
</g>
<!-- Node48 -->
<g id="Node000048" class="node">
<title>Node48</title>
<g id="a_Node000048"><a xlink:href="class_p4_1_1_type_inference_base.html" target="_top" xlink:title=" ">
<polygon fill="white" stroke="orangered" points="479.5,-56 352.5,-56 352.5,-37 479.5,-37 479.5,-56"/>
<text text-anchor="middle" x="416" y="-44" font-family="Helvetica,sans-Serif" font-size="10.00">P4::TypeInferenceBase</text>
</a>
</g>
</g>
<!-- Node1&#45;&gt;Node48 -->
<g id="edge47_Node000001_Node000048" class="edge">
<title>Node1&#45;&gt;Node48</title>
<g id="a_edge47_Node000001_Node000048"><a xlink:title=" ">
<path fill="none" stroke="#63b8ff" d="M224.22,-759.37C223.19,-654.15 223.88,-168.24 322,-64.5 330.02,-56.02 340.75,-50.85 352.06,-47.82"/>
<polygon fill="#63b8ff" stroke="#63b8ff" points="220.72,-759.6 224.34,-769.56 227.72,-759.52 220.72,-759.6"/>
</a>
</g>
</g>
<!-- Node51 -->
<g id="Node000051" class="node">
<title>Node51</title>
<g id="a_Node000051"><a xlink:href="class_p4_1_1_unroll_loops.html" target="_top" xlink:title=" ">
<polygon fill="white" stroke="#bfbfbf" points="462,-19 370,-19 370,0 462,0 462,-19"/>
<text text-anchor="middle" x="416" y="-7" font-family="Helvetica,sans-Serif" font-size="10.00">P4::UnrollLoops</text>
</a>
</g>
</g>
<!-- Node1&#45;&gt;Node51 -->
<g id="edge48_Node000001_Node000051" class="edge">
<title>Node1&#45;&gt;Node51</title>
<g id="a_edge48_Node000001_Node000051"><a xlink:title=" ">
<path fill="none" stroke="#63b8ff" d="M225.7,-759.67C232.74,-646.23 270.14,-82.69 322,-27.5 334.16,-14.56 352.61,-9.33 369.89,-7.61"/>
<polygon fill="#63b8ff" stroke="#63b8ff" points="222.19,-759.78 225.07,-769.98 229.17,-760.21 222.19,-759.78"/>
</a>
</g>
</g>
<!-- Node2 -->
<g id="Node000002" class="node">
<title>Node2</title>
<g id="a_Node000002"><a xlink:href="class_p4_1_1_visitor.html" target="_top" xlink:title=" ">
<polygon fill="white" stroke="#bfbfbf" points="95.5,-808 29.5,-808 29.5,-789 95.5,-789 95.5,-808"/>
<text text-anchor="middle" x="62.5" y="-796" font-family="Helvetica,sans-Serif" font-size="10.00">P4::Visitor</text>
</a>
</g>
</g>
<!-- Node2&#45;&gt;Node1 -->
<g id="edge1_Node000001_Node000002" class="edge">
<title>Node2&#45;&gt;Node1</title>
<g id="a_edge1_Node000001_Node000002"><a xlink:title=" ">
<path fill="none" stroke="#63b8ff" d="M105.76,-793.45C122.62,-791.43 142.37,-789.08 160.78,-786.88"/>
<polygon fill="#63b8ff" stroke="#63b8ff" points="105.19,-789.99 95.68,-794.66 106.02,-796.94 105.19,-789.99"/>
</a>
</g>
</g>
<!-- Node3 -->
<g id="Node000003" class="node">
<title>Node3</title>
<g id="a_Node000003"><a xlink:href="class_p4_1_1_declaration_lookup.html" target="_top" xlink:title=" ">
<polygon fill="white" stroke="#bfbfbf" points="125,-771 0,-771 0,-752 125,-752 125,-771"/>
<text text-anchor="middle" x="62.5" y="-759" font-family="Helvetica,sans-Serif" font-size="10.00">P4::DeclarationLookup</text>
</a>
</g>
</g>
<!-- Node3&#45;&gt;Node1 -->
<g id="edge2_Node000001_Node000003" class="edge">
<title>Node3&#45;&gt;Node1</title>
<g id="a_edge2_Node000001_Node000003"><a xlink:title=" ">
<path fill="none" stroke="#63b8ff" d="M135.59,-769.66C143.99,-770.61 152.5,-771.58 160.74,-772.51"/>
<polygon fill="#63b8ff" stroke="#63b8ff" points="135.76,-766.16 125.43,-768.51 134.97,-773.11 135.76,-766.16"/>
</a>
</g>
</g>
<!-- Node5 -->
<g id="Node000005" class="node">
<title>Node5</title>
<g id="a_Node000005"><a xlink:href="class_p4_1_1_actions_inliner.html" target="_top" xlink:title=" ">
<polygon fill="white" stroke="#bfbfbf" points="675,-1639 574,-1639 574,-1620 675,-1620 675,-1639"/>
<text text-anchor="middle" x="624.5" y="-1627" font-family="Helvetica,sans-Serif" font-size="10.00">P4::ActionsInliner</text>
</a>
</g>
</g>
<!-- Node4&#45;&gt;Node5 -->
<g id="edge4_Node000004_Node000005" class="edge">
<title>Node4&#45;&gt;Node5</title>
<g id="a_edge4_Node000004_Node000005"><a xlink:title=" ">
<path fill="none" stroke="#63b8ff" d="M481.83,-1629.5C511.6,-1629.5 546.35,-1629.5 573.98,-1629.5"/>
<polygon fill="#63b8ff" stroke="#63b8ff" points="481.53,-1626 471.53,-1629.5 481.53,-1633 481.53,-1626"/>
</a>
</g>
</g>
<!-- Node7 -->
<g id="Node000007" class="node">
<title>Node7</title>
<g id="a_Node000007"><a xlink:href="class_p4_1_1_functions_inliner.html" target="_top" xlink:title=" ">
<polygon fill="white" stroke="#666666" points="680.5,-1580 568.5,-1580 568.5,-1561 680.5,-1561 680.5,-1580"/>
<text text-anchor="middle" x="624.5" y="-1568" font-family="Helvetica,sans-Serif" font-size="10.00">P4::FunctionsInliner</text>
</a>
</g>
</g>
<!-- Node6&#45;&gt;Node7 -->
<g id="edge6_Node000006_Node000007" class="edge">
<title>Node6&#45;&gt;Node7</title>
<g id="a_edge6_Node000006_Node000007"><a xlink:title=" ">
<path fill="none" stroke="#63b8ff" d="M499.38,-1570.5C522.51,-1570.5 547.1,-1570.5 568.24,-1570.5"/>
<polygon fill="#63b8ff" stroke="#63b8ff" points="499.22,-1567 489.22,-1570.5 499.22,-1574 499.22,-1567"/>
</a>
</g>
</g>
<!-- Node9 -->
<g id="Node000009" class="node">
<title>Node9</title>
<g id="a_Node000009"><a xlink:href="class_p4_1_1_general_inliner.html" target="_top" xlink:title="Performs actual inlining work.">
<polygon fill="white" stroke="#666666" points="676.5,-1526 572.5,-1526 572.5,-1507 676.5,-1507 676.5,-1526"/>
<text text-anchor="middle" x="624.5" y="-1514" font-family="Helvetica,sans-Serif" font-size="10.00">P4::GeneralInliner</text>
</a>
</g>
</g>
<!-- Node8&#45;&gt;Node9 -->
<g id="edge8_Node000008_Node000009" class="edge">
<title>Node8&#45;&gt;Node9</title>
<g id="a_edge8_Node000008_Node000009"><a xlink:title=" ">
<path fill="none" stroke="#63b8ff" d="M508.1,-1516.5C530.18,-1516.5 553.01,-1516.5 572.48,-1516.5"/>
<polygon fill="#63b8ff" stroke="#63b8ff" points="508.02,-1513 498.02,-1516.5 508.02,-1520 508.02,-1513"/>
</a>
</g>
</g>
<!-- Node38 -->
<g id="Node000038" class="node">
<title>Node38</title>
<g id="a_Node000038"><a xlink:href="class_p4_1_1_d_p_d_k_1_1_copy_match_keys_to_single_struct.html" target="_top" xlink:title=" ">
<polygon fill="white" stroke="#bfbfbf" points="703,-431.5 546,-431.5 546,-401.5 703,-401.5 703,-431.5"/>
<text text-anchor="start" x="554" y="-419.5" font-family="Helvetica,sans-Serif" font-size="10.00">P4::DPDK::CopyMatchKeysTo</text>
<text text-anchor="middle" x="624.5" y="-408.5" font-family="Helvetica,sans-Serif" font-size="10.00">SingleStruct</text>
</a>
</g>
</g>
<!-- Node37&#45;&gt;Node38 -->
<g id="edge37_Node000037_Node000038" class="edge">
<title>Node37&#45;&gt;Node38</title>
<g id="a_edge37_Node000037_Node000038"><a xlink:title=" ">
<path fill="none" stroke="#63b8ff" d="M476.74,-416.5C498.35,-416.5 523.07,-416.5 545.99,-416.5"/>
<polygon fill="#63b8ff" stroke="#63b8ff" points="476.72,-413 466.72,-416.5 476.72,-420 476.72,-413"/>
</a>
</g>
</g>
</g>
</svg>
