<?xml version="1.0" encoding="UTF-8" standalone="no"?>
<!DOCTYPE svg PUBLIC "-//W3C//DTD SVG 1.1//EN"
 "http://www.w3.org/Graphics/SVG/1.1/DTD/svg11.dtd">
<!-- Generated by graphviz version 2.43.0 (0)
 -->
<!-- Title: P4::EBPF::ControlBodyTranslator Pages: 1 -->
<svg width="1058pt" height="210pt"
 viewBox="0.00 0.00 1058.00 210.00" xmlns="http://www.w3.org/2000/svg" xmlns:xlink="http://www.w3.org/1999/xlink">
<g id="graph0" class="graph" transform="scale(1 1) rotate(0) translate(4 206)">
<title>P4::EBPF::ControlBodyTranslator</title>
<!-- Node1 -->
<g id="Node000001" class="node">
<title>Node1</title>
<g id="a_Node000001"><a xlink:title=" ">
<polygon fill="#999999" stroke="#666666" points="581,-110.5 408,-110.5 408,-91.5 581,-91.5 581,-110.5"/>
<text text-anchor="middle" x="494.5" y="-98.5" font-family="Helvetica,sans-Serif" font-size="10.00">P4::EBPF::ControlBodyTranslator</text>
</a>
</g>
</g>
<!-- Node5 -->
<g id="Node000005" class="node">
<title>Node5</title>
<g id="a_Node000005"><a xlink:href="class_p4_1_1_e_b_p_f_1_1_control_body_translator_p_s_a.html" target="_top" xlink:title=" ">
<polygon fill="white" stroke="#bfbfbf" points="809,-193.5 617,-193.5 617,-174.5 809,-174.5 809,-193.5"/>
<text text-anchor="middle" x="713" y="-181.5" font-family="Helvetica,sans-Serif" font-size="10.00">P4::EBPF::ControlBodyTranslatorPSA</text>
</a>
</g>
</g>
<!-- Node1&#45;&gt;Node5 -->
<g id="edge4_Node000001_Node000005" class="edge">
<title>Node1&#45;&gt;Node5</title>
<g id="a_edge4_Node000001_Node000005"><a xlink:title=" ">
<path fill="none" stroke="#63b8ff" d="M519.79,-115.74C543.74,-129.7 581.78,-150.35 617,-163 629.88,-167.62 644.12,-171.42 657.57,-174.46"/>
<polygon fill="#63b8ff" stroke="#63b8ff" points="521.43,-112.64 511.04,-110.57 517.87,-118.66 521.43,-112.64"/>
</a>
</g>
</g>
<!-- Node7 -->
<g id="Node000007" class="node">
<title>Node7</title>
<g id="a_Node000007"><a xlink:href="class_p4_1_1_e_b_p_f_1_1_deparser_body_translator.html" target="_top" xlink:title="This translator emits deparser externs.">
<polygon fill="white" stroke="#666666" points="804,-153.5 622,-153.5 622,-134.5 804,-134.5 804,-153.5"/>
<text text-anchor="middle" x="713" y="-141.5" font-family="Helvetica,sans-Serif" font-size="10.00">P4::EBPF::DeparserBodyTranslator</text>
</a>
</g>
</g>
<!-- Node1&#45;&gt;Node7 -->
<g id="edge6_Node000001_Node000007" class="edge">
<title>Node1&#45;&gt;Node7</title>
<g id="a_edge6_Node000001_Node000007"><a xlink:title=" ">
<path fill="none" stroke="#63b8ff" d="M553.51,-112.52C588.09,-119.39 631.46,-128 664.09,-134.48"/>
<polygon fill="#63b8ff" stroke="#63b8ff" points="554.04,-109.06 543.55,-110.54 552.67,-115.92 554.04,-109.06"/>
</a>
</g>
</g>
<!-- Node9 -->
<g id="Node000009" class="node">
<title>Node9</title>
<g id="a_Node000009"><a xlink:href="class_p4_1_1_e_b_p_f_1_1_deparser_prepare_buffer_translator.html" target="_top" xlink:title="This translator emits buffer preparation (eg. which headers will be emitted)">
<polygon fill="white" stroke="#666666" points="786,-116 640,-116 640,-86 786,-86 786,-116"/>
<text text-anchor="start" x="648" y="-104" font-family="Helvetica,sans-Serif" font-size="10.00">P4::EBPF::DeparserPrepare</text>
<text text-anchor="middle" x="713" y="-93" font-family="Helvetica,sans-Serif" font-size="10.00">BufferTranslator</text>
</a>
</g>
</g>
<!-- Node1&#45;&gt;Node9 -->
<g id="edge8_Node000001_Node000009" class="edge">
<title>Node1&#45;&gt;Node9</title>
<g id="a_edge8_Node000001_Node000009"><a xlink:title=" ">
<path fill="none" stroke="#63b8ff" d="M591.2,-101C607.58,-101 624.34,-101 639.97,-101"/>
<polygon fill="#63b8ff" stroke="#63b8ff" points="591.07,-97.5 581.07,-101 591.07,-104.5 591.07,-97.5"/>
</a>
</g>
</g>
<!-- Node12 -->
<g id="Node000012" class="node">
<title>Node12</title>
<g id="a_Node000012"><a xlink:href="class_p4_1_1_t_c_1_1_control_body_translator_p_n_a.html" target="_top" xlink:title=" ">
<polygon fill="white" stroke="#bfbfbf" points="803.5,-67.5 622.5,-67.5 622.5,-48.5 803.5,-48.5 803.5,-67.5"/>
<text text-anchor="middle" x="713" y="-55.5" font-family="Helvetica,sans-Serif" font-size="10.00">P4::TC::ControlBodyTranslatorPNA</text>
</a>
</g>
</g>
<!-- Node1&#45;&gt;Node12 -->
<g id="edge11_Node000001_Node000012" class="edge">
<title>Node1&#45;&gt;Node12</title>
<g id="a_edge11_Node000001_Node000012"><a xlink:title=" ">
<path fill="none" stroke="#63b8ff" d="M553.51,-89.48C588.09,-82.61 631.46,-74 664.09,-67.52"/>
<polygon fill="#63b8ff" stroke="#63b8ff" points="552.67,-86.08 543.55,-91.46 554.04,-92.94 552.67,-86.08"/>
</a>
</g>
</g>
<!-- Node14 -->
<g id="Node000014" class="node">
<title>Node14</title>
<g id="a_Node000014"><a xlink:href="class_p4_1_1_u_b_p_f_1_1_u_b_p_f_control_body_translator.html" target="_top" xlink:title=" ">
<polygon fill="white" stroke="#bfbfbf" points="789,-30 637,-30 637,0 789,0 789,-30"/>
<text text-anchor="start" x="645" y="-18" font-family="Helvetica,sans-Serif" font-size="10.00">P4::UBPF::UBPFControlBody</text>
<text text-anchor="middle" x="713" y="-7" font-family="Helvetica,sans-Serif" font-size="10.00">Translator</text>
</a>
</g>
</g>
<!-- Node1&#45;&gt;Node14 -->
<g id="edge13_Node000001_Node000014" class="edge">
<title>Node1&#45;&gt;Node14</title>
<g id="a_edge13_Node000001_Node000014"><a xlink:title=" ">
<path fill="none" stroke="#63b8ff" d="M520.28,-86.26C544.32,-72.48 582.17,-52.1 617,-39 625.76,-35.71 635.14,-32.72 644.47,-30.06"/>
<polygon fill="#63b8ff" stroke="#63b8ff" points="518.37,-83.33 511.48,-91.37 521.88,-89.38 518.37,-83.33"/>
</a>
</g>
</g>
<!-- Node2 -->
<g id="Node000002" class="node">
<title>Node2</title>
<g id="a_Node000002"><a xlink:href="class_p4_1_1_e_b_p_f_1_1_code_gen_inspector.html" target="_top" xlink:title=" ">
<polygon fill="white" stroke="#666666" points="372,-110.5 218,-110.5 218,-91.5 372,-91.5 372,-110.5"/>
<text text-anchor="middle" x="295" y="-98.5" font-family="Helvetica,sans-Serif" font-size="10.00">P4::EBPF::CodeGenInspector</text>
</a>
</g>
</g>
<!-- Node2&#45;&gt;Node1 -->
<g id="edge1_Node000001_Node000002" class="edge">
<title>Node2&#45;&gt;Node1</title>
<g id="a_edge1_Node000001_Node000002"><a xlink:title=" ">
<path fill="none" stroke="#63b8ff" d="M382.35,-101C390.84,-101 399.45,-101 407.93,-101"/>
<polygon fill="#63b8ff" stroke="#63b8ff" points="382.08,-97.5 372.08,-101 382.08,-104.5 382.08,-97.5"/>
</a>
</g>
</g>
<!-- Node3 -->
<g id="Node000003" class="node">
<title>Node3</title>
<g id="a_Node000003"><a xlink:href="class_p4_1_1_inspector.html" target="_top" xlink:title=" ">
<polygon fill="white" stroke="#bfbfbf" points="182,-110.5 102,-110.5 102,-91.5 182,-91.5 182,-110.5"/>
<text text-anchor="middle" x="142" y="-98.5" font-family="Helvetica,sans-Serif" font-size="10.00">P4::Inspector</text>
</a>
</g>
</g>
<!-- Node3&#45;&gt;Node2 -->
<g id="edge2_Node000002_Node000003" class="edge">
<title>Node3&#45;&gt;Node2</title>
<g id="a_edge2_Node000002_Node000003"><a xlink:title=" ">
<path fill="none" stroke="#63b8ff" d="M192.32,-101C200.48,-101 209.1,-101 217.73,-101"/>
<polygon fill="#63b8ff" stroke="#63b8ff" points="192.28,-97.5 182.28,-101 192.28,-104.5 192.28,-97.5"/>
</a>
</g>
</g>
<!-- Node4 -->
<g id="Node000004" class="node">
<title>Node4</title>
<g id="a_Node000004"><a xlink:href="class_p4_1_1_visitor.html" target="_top" xlink:title=" ">
<polygon fill="white" stroke="#bfbfbf" points="66,-110.5 0,-110.5 0,-91.5 66,-91.5 66,-110.5"/>
<text text-anchor="middle" x="33" y="-98.5" font-family="Helvetica,sans-Serif" font-size="10.00">P4::Visitor</text>
</a>
</g>
</g>
<!-- Node4&#45;&gt;Node3 -->
<g id="edge3_Node000003_Node000004" class="edge">
<title>Node4&#45;&gt;Node3</title>
<g id="a_edge3_Node000003_Node000004"><a xlink:title=" ">
<path fill="none" stroke="#63b8ff" d="M76.13,-101C84.57,-101 93.4,-101 101.73,-101"/>
<polygon fill="#63b8ff" stroke="#63b8ff" points="76.1,-97.5 66.1,-101 76.1,-104.5 76.1,-97.5"/>
</a>
</g>
</g>
<!-- Node6 -->
<g id="Node000006" class="node">
<title>Node6</title>
<g id="a_Node000006"><a xlink:href="class_p4_1_1_e_b_p_f_1_1_action_translation_visitor_p_s_a.html" target="_top" xlink:title=" ">
<polygon fill="white" stroke="#bfbfbf" points="1022,-202 873,-202 873,-172 1022,-172 1022,-202"/>
<text text-anchor="start" x="881" y="-190" font-family="Helvetica,sans-Serif" font-size="10.00">P4::EBPF::ActionTranslation</text>
<text text-anchor="middle" x="947.5" y="-179" font-family="Helvetica,sans-Serif" font-size="10.00">VisitorPSA</text>
</a>
</g>
</g>
<!-- Node5&#45;&gt;Node6 -->
<g id="edge5_Node000005_Node000006" class="edge">
<title>Node5&#45;&gt;Node6</title>
<g id="a_edge5_Node000005_Node000006"><a xlink:title=" ">
<path fill="none" stroke="#63b8ff" d="M819.48,-185.36C837.48,-185.59 855.82,-185.83 872.76,-186.05"/>
<polygon fill="#63b8ff" stroke="#63b8ff" points="819.28,-181.86 809.24,-185.23 819.19,-188.86 819.28,-181.86"/>
</a>
</g>
</g>
<!-- Node8 -->
<g id="Node000008" class="node">
<title>Node8</title>
<g id="a_Node000008"><a xlink:href="class_p4_1_1_e_b_p_f_1_1_deparser_body_translator_p_s_a.html" target="_top" xlink:title=" ">
<polygon fill="white" stroke="#bfbfbf" points="1048,-153.5 847,-153.5 847,-134.5 1048,-134.5 1048,-153.5"/>
<text text-anchor="middle" x="947.5" y="-141.5" font-family="Helvetica,sans-Serif" font-size="10.00">P4::EBPF::DeparserBodyTranslatorPSA</text>
</a>
</g>
</g>
<!-- Node7&#45;&gt;Node8 -->
<g id="edge7_Node000007_Node000008" class="edge">
<title>Node7&#45;&gt;Node8</title>
<g id="a_edge7_Node000007_Node000008"><a xlink:title=" ">
<path fill="none" stroke="#63b8ff" d="M814.41,-144C825.11,-144 835.99,-144 846.68,-144"/>
<polygon fill="#63b8ff" stroke="#63b8ff" points="814.22,-140.5 804.22,-144 814.22,-147.5 814.22,-140.5"/>
</a>
</g>
</g>
<!-- Node10 -->
<g id="Node000010" class="node">
<title>Node10</title>
<g id="a_Node000010"><a xlink:href="class_p4_1_1_e_b_p_f_1_1_deparser_hdr_emit_translator.html" target="_top" xlink:title="This translator emits headers.">
<polygon fill="white" stroke="#666666" points="1022,-116 873,-116 873,-86 1022,-86 1022,-116"/>
<text text-anchor="start" x="881" y="-104" font-family="Helvetica,sans-Serif" font-size="10.00">P4::EBPF::DeparserHdrEmit</text>
<text text-anchor="middle" x="947.5" y="-93" font-family="Helvetica,sans-Serif" font-size="10.00">Translator</text>
</a>
</g>
</g>
<!-- Node9&#45;&gt;Node10 -->
<g id="edge9_Node000009_Node000010" class="edge">
<title>Node9&#45;&gt;Node10</title>
<g id="a_edge9_Node000009_Node000010"><a xlink:title=" ">
<path fill="none" stroke="#63b8ff" d="M796.42,-101C821.28,-101 848.39,-101 872.65,-101"/>
<polygon fill="#63b8ff" stroke="#63b8ff" points="796.29,-97.5 786.29,-101 796.29,-104.5 796.29,-97.5"/>
</a>
</g>
</g>
<!-- Node11 -->
<g id="Node000011" class="node">
<title>Node11</title>
<g id="a_Node000011"><a xlink:href="class_p4_1_1_t_c_1_1_deparser_hdr_emit_translator_p_n_a.html" target="_top" xlink:title=" ">
<polygon fill="white" stroke="#bfbfbf" points="1050,-67.5 845,-67.5 845,-48.5 1050,-48.5 1050,-67.5"/>
<text text-anchor="middle" x="947.5" y="-55.5" font-family="Helvetica,sans-Serif" font-size="10.00">P4::TC::DeparserHdrEmitTranslatorPNA</text>
</a>
</g>
</g>
<!-- Node9&#45;&gt;Node11 -->
<g id="edge10_Node000009_Node000011" class="edge">
<title>Node9&#45;&gt;Node11</title>
<g id="a_edge10_Node000009_Node000011"><a xlink:title=" ">
<path fill="none" stroke="#63b8ff" d="M796.34,-85.77C829.18,-79.7 865.97,-72.89 894.92,-67.54"/>
<polygon fill="#63b8ff" stroke="#63b8ff" points="795.49,-82.37 786.29,-87.63 796.76,-89.25 795.49,-82.37"/>
</a>
</g>
</g>
<!-- Node13 -->
<g id="Node000013" class="node">
<title>Node13</title>
<g id="a_Node000013"><a xlink:href="class_p4_1_1_t_c_1_1_action_translation_visitor_p_n_a.html" target="_top" xlink:title=" ">
<polygon fill="white" stroke="#bfbfbf" points="1016,-30 879,-30 879,0 1016,0 1016,-30"/>
<text text-anchor="start" x="887" y="-18" font-family="Helvetica,sans-Serif" font-size="10.00">P4::TC::ActionTranslation</text>
<text text-anchor="middle" x="947.5" y="-7" font-family="Helvetica,sans-Serif" font-size="10.00">VisitorPNA</text>
</a>
</g>
</g>
<!-- Node12&#45;&gt;Node13 -->
<g id="edge12_Node000012_Node000013" class="edge">
<title>Node12&#45;&gt;Node13</title>
<g id="a_edge12_Node000012_Node000013"><a xlink:title=" ">
<path fill="none" stroke="#63b8ff" d="M775.64,-46.6C807.37,-40.73 846.13,-33.56 878.71,-27.54"/>
<polygon fill="#63b8ff" stroke="#63b8ff" points="774.8,-43.2 765.6,-48.46 776.07,-50.08 774.8,-43.2"/>
</a>
</g>
</g>
</g>
</svg>
