<?xml version="1.0" encoding="UTF-8" standalone="no"?>
<!DOCTYPE svg PUBLIC "-//W3C//DTD SVG 1.1//EN"
 "http://www.w3.org/Graphics/SVG/1.1/DTD/svg11.dtd">
<!-- Generated by graphviz version 2.43.0 (0)
 -->
<!-- Title: P4::TypeConstraint Pages: 1 -->
<svg width="336pt" height="252pt"
 viewBox="0.00 0.00 335.50 252.00" xmlns="http://www.w3.org/2000/svg" xmlns:xlink="http://www.w3.org/1999/xlink">
<g id="graph0" class="graph" transform="scale(1 1) rotate(0) translate(4 248)">
<title>P4::TypeConstraint</title>
<polygon fill="white" stroke="transparent" points="-4,4 -4,-248 331.5,-248 331.5,4 -4,4"/>
<!-- Node1 -->
<g id="node1" class="node">
<title>Node1</title>
<g id="a_node1"><a xlink:title=" ">
<polygon fill="#bfbfbf" stroke="black" points="124.5,-112.5 124.5,-131.5 231.5,-131.5 231.5,-112.5 124.5,-112.5"/>
<text text-anchor="middle" x="178" y="-119.5" font-family="Helvetica,sans-Serif" font-size="10.00">P4::TypeConstraint</text>
</a>
</g>
</g>
<!-- Node5 -->
<g id="node5" class="node">
<title>Node5</title>
<g id="a_node5"><a xlink:href="class_p4_1_1_binary_constraint.html" target="_top" xlink:title="Base class for EqualityConstraint and CanBeImplicitlyCastConstraint.">
<polygon fill="white" stroke="black" points="120,-56.5 120,-75.5 236,-75.5 236,-56.5 120,-56.5"/>
<text text-anchor="middle" x="178" y="-63.5" font-family="Helvetica,sans-Serif" font-size="10.00">P4::BinaryConstraint</text>
</a>
</g>
</g>
<!-- Node1&#45;&gt;Node5 -->
<g id="edge4" class="edge">
<title>Node1&#45;&gt;Node5</title>
<path fill="none" stroke="midnightblue" d="M178,-101.8C178,-92.91 178,-82.78 178,-75.75"/>
<polygon fill="midnightblue" stroke="midnightblue" points="174.5,-102.08 178,-112.08 181.5,-102.08 174.5,-102.08"/>
</g>
<!-- Node2 -->
<g id="node2" class="node">
<title>Node2</title>
<g id="a_node2"><a xlink:href="class_i_has_db_print.html" target="_top" xlink:title=" ">
<polygon fill="white" stroke="black" points="98,-168.5 98,-187.5 172,-187.5 172,-168.5 98,-168.5"/>
<text text-anchor="middle" x="135" y="-175.5" font-family="Helvetica,sans-Serif" font-size="10.00">IHasDbPrint</text>
</a>
</g>
</g>
<!-- Node2&#45;&gt;Node1 -->
<g id="edge1" class="edge">
<title>Node2&#45;&gt;Node1</title>
<path fill="none" stroke="midnightblue" d="M148.42,-160.14C155.91,-150.74 164.94,-139.4 171.03,-131.75"/>
<polygon fill="midnightblue" stroke="midnightblue" points="145.59,-158.08 142.1,-168.08 151.07,-162.44 145.59,-158.08"/>
</g>
<!-- Node3 -->
<g id="node3" class="node">
<title>Node3</title>
<g id="a_node3"><a xlink:href="class_i_castable.html" target="_top" xlink:title=" ">
<polygon fill="white" stroke="black" points="190,-168.5 190,-187.5 252,-187.5 252,-168.5 190,-168.5"/>
<text text-anchor="middle" x="221" y="-175.5" font-family="Helvetica,sans-Serif" font-size="10.00">ICastable</text>
</a>
</g>
</g>
<!-- Node3&#45;&gt;Node1 -->
<g id="edge2" class="edge">
<title>Node3&#45;&gt;Node1</title>
<path fill="none" stroke="midnightblue" d="M207.58,-160.14C200.09,-150.74 191.06,-139.4 184.97,-131.75"/>
<polygon fill="midnightblue" stroke="midnightblue" points="204.93,-162.44 213.9,-168.08 210.41,-158.08 204.93,-162.44"/>
</g>
<!-- Node4 -->
<g id="node4" class="node">
<title>Node4</title>
<g id="a_node4"><a xlink:href="struct_r_t_t_i_1_1_base.html" target="_top" xlink:title=" ">
<polygon fill="white" stroke="black" points="187,-224.5 187,-243.5 255,-243.5 255,-224.5 187,-224.5"/>
<text text-anchor="middle" x="221" y="-231.5" font-family="Helvetica,sans-Serif" font-size="10.00">RTTI::Base</text>
</a>
</g>
</g>
<!-- Node4&#45;&gt;Node3 -->
<g id="edge3" class="edge">
<title>Node4&#45;&gt;Node3</title>
<path fill="none" stroke="midnightblue" d="M221,-213.8C221,-204.91 221,-194.78 221,-187.75"/>
<polygon fill="midnightblue" stroke="midnightblue" points="217.5,-214.08 221,-224.08 224.5,-214.08 217.5,-214.08"/>
</g>
<!-- Node6 -->
<g id="node6" class="node">
<title>Node6</title>
<g id="a_node6"><a xlink:href="class_p4_1_1_can_be_implicitly_cast_constraint.html" target="_top" xlink:title="The right type can be implicitly cast to the left type.">
<polygon fill="white" stroke="black" points="0,-0.5 0,-19.5 184,-19.5 184,-0.5 0,-0.5"/>
<text text-anchor="middle" x="92" y="-7.5" font-family="Helvetica,sans-Serif" font-size="10.00">P4::CanBeImplicitlyCastConstraint</text>
</a>
</g>
</g>
<!-- Node5&#45;&gt;Node6 -->
<g id="edge5" class="edge">
<title>Node5&#45;&gt;Node6</title>
<path fill="none" stroke="midnightblue" d="M155.55,-50.9C139.78,-41 119.19,-28.07 105.78,-19.65"/>
<polygon fill="midnightblue" stroke="midnightblue" points="153.85,-53.97 164.18,-56.32 157.57,-48.04 153.85,-53.97"/>
</g>
<!-- Node7 -->
<g id="node7" class="node">
<title>Node7</title>
<g id="a_node7"><a xlink:href="class_p4_1_1_equality_constraint.html" target="_top" xlink:title="Requires two types to be equal.">
<polygon fill="white" stroke="black" points="202.5,-0.5 202.5,-19.5 327.5,-19.5 327.5,-0.5 202.5,-0.5"/>
<text text-anchor="middle" x="265" y="-7.5" font-family="Helvetica,sans-Serif" font-size="10.00">P4::EqualityConstraint</text>
</a>
</g>
</g>
<!-- Node5&#45;&gt;Node7 -->
<g id="edge6" class="edge">
<title>Node5&#45;&gt;Node7</title>
<path fill="none" stroke="midnightblue" d="M200.72,-50.9C216.67,-41 237.5,-28.07 251.06,-19.65"/>
<polygon fill="midnightblue" stroke="midnightblue" points="198.63,-48.08 191.98,-56.32 202.32,-54.02 198.63,-48.08"/>
</g>
</g>
</svg>
