<?xml version="1.0" encoding="UTF-8" standalone="no"?>
<!DOCTYPE svg PUBLIC "-//W3C//DTD SVG 1.1//EN"
 "http://www.w3.org/Graphics/SVG/1.1/DTD/svg11.dtd">
<!-- Generated by graphviz version 2.43.0 (0)
 -->
<!-- Title: P4::ExpandLookahead Pages: 1 -->
<svg width="133pt" height="196pt"
 viewBox="0.00 0.00 133.00 196.00" xmlns="http://www.w3.org/2000/svg" xmlns:xlink="http://www.w3.org/1999/xlink">
<g id="graph0" class="graph" transform="scale(1 1) rotate(0) translate(4 192)">
<title>P4::ExpandLookahead</title>
<polygon fill="white" stroke="transparent" points="-4,4 -4,-192 129,-192 129,4 -4,4"/>
<!-- Node1 -->
<g id="node1" class="node">
<title>Node1</title>
<g id="a_node1"><a xlink:title=" ">
<polygon fill="#bfbfbf" stroke="black" points="0,-0.5 0,-19.5 123,-19.5 123,-0.5 0,-0.5"/>
<text text-anchor="middle" x="61.5" y="-7.5" font-family="Helvetica,sans-Serif" font-size="10.00">P4::ExpandLookahead</text>
</a>
</g>
</g>
<!-- Node2 -->
<g id="node2" class="node">
<title>Node2</title>
<g id="a_node2"><a xlink:href="class_pass_manager.html" target="_top" xlink:title=" ">
<polygon fill="white" stroke="black" points="21,-56.5 21,-75.5 102,-75.5 102,-56.5 21,-56.5"/>
<text text-anchor="middle" x="61.5" y="-63.5" font-family="Helvetica,sans-Serif" font-size="10.00">PassManager</text>
</a>
</g>
</g>
<!-- Node2&#45;&gt;Node1 -->
<g id="edge1" class="edge">
<title>Node2&#45;&gt;Node1</title>
<path fill="none" stroke="midnightblue" d="M61.5,-45.8C61.5,-36.91 61.5,-26.78 61.5,-19.75"/>
<polygon fill="midnightblue" stroke="midnightblue" points="58,-46.08 61.5,-56.08 65,-46.08 58,-46.08"/>
</g>
<!-- Node3 -->
<g id="node3" class="node">
<title>Node3</title>
<g id="a_node3"><a xlink:href="class_visitor.html" target="_top" xlink:title=" ">
<polygon fill="white" stroke="black" points="37.5,-168.5 37.5,-187.5 85.5,-187.5 85.5,-168.5 37.5,-168.5"/>
<text text-anchor="middle" x="61.5" y="-175.5" font-family="Helvetica,sans-Serif" font-size="10.00">Visitor</text>
</a>
</g>
</g>
<!-- Node3&#45;&gt;Node2 -->
<g id="edge2" class="edge">
<title>Node3&#45;&gt;Node2</title>
<path fill="none" stroke="midnightblue" d="M55.96,-158.66C53.79,-150.57 51.57,-140.89 50.5,-132 48.06,-111.77 54.33,-88.25 58.38,-75.79"/>
<polygon fill="midnightblue" stroke="midnightblue" points="52.66,-159.83 58.77,-168.49 59.39,-157.91 52.66,-159.83"/>
</g>
<!-- Node4 -->
<g id="node4" class="node">
<title>Node4</title>
<g id="a_node4"><a xlink:href="class_backtrack.html" target="_top" xlink:title=" ">
<polygon fill="white" stroke="black" points="60,-112.5 60,-131.5 125,-131.5 125,-112.5 60,-112.5"/>
<text text-anchor="middle" x="92.5" y="-119.5" font-family="Helvetica,sans-Serif" font-size="10.00">Backtrack</text>
</a>
</g>
</g>
<!-- Node3&#45;&gt;Node4 -->
<g id="edge4" class="edge">
<title>Node3&#45;&gt;Node4</title>
<path fill="none" stroke="midnightblue" d="M71.68,-159.27C76.97,-150.05 83.22,-139.17 87.48,-131.75"/>
<polygon fill="midnightblue" stroke="midnightblue" points="68.56,-157.67 66.62,-168.08 74.63,-161.15 68.56,-157.67"/>
</g>
<!-- Node4&#45;&gt;Node2 -->
<g id="edge3" class="edge">
<title>Node4&#45;&gt;Node2</title>
<path fill="none" stroke="midnightblue" d="M82.32,-103.27C77.03,-94.05 70.78,-83.17 66.52,-75.75"/>
<polygon fill="midnightblue" stroke="midnightblue" points="79.37,-105.15 87.38,-112.08 85.44,-101.67 79.37,-105.15"/>
</g>
</g>
</svg>
