<?xml version="1.0" encoding="UTF-8" standalone="no"?>
<!DOCTYPE svg PUBLIC "-//W3C//DTD SVG 1.1//EN"
 "http://www.w3.org/Graphics/SVG/1.1/DTD/svg11.dtd">
<!-- Generated by graphviz version 2.43.0 (0)
 -->
<!-- Title: P4Tools::P4Smith::Nic::AbstractNicSmithTarget Pages: 1 -->
<svg width="172pt" height="274pt"
 viewBox="0.00 0.00 172.00 274.00" xmlns="http://www.w3.org/2000/svg" xmlns:xlink="http://www.w3.org/1999/xlink">
<g id="graph0" class="graph" transform="scale(1 1) rotate(0) translate(4 270)">
<title>P4Tools::P4Smith::Nic::AbstractNicSmithTarget</title>
<polygon fill="white" stroke="transparent" points="-4,4 -4,-270 168,-270 168,4 -4,4"/>
<!-- Node1 -->
<g id="node1" class="node">
<title>Node1</title>
<g id="a_node1"><a xlink:title=" ">
<polygon fill="#bfbfbf" stroke="black" points="13.5,-67.5 13.5,-97.5 150.5,-97.5 150.5,-67.5 13.5,-67.5"/>
<text text-anchor="start" x="21.5" y="-85.5" font-family="Helvetica,sans-Serif" font-size="10.00">P4Tools::P4Smith::Nic</text>
<text text-anchor="middle" x="82" y="-74.5" font-family="Helvetica,sans-Serif" font-size="10.00">::AbstractNicSmithTarget</text>
</a>
</g>
</g>
<!-- Node5 -->
<g id="node5" class="node">
<title>Node5</title>
<g id="a_node5"><a xlink:href="class_p4_tools_1_1_p4_smith_1_1_nic_1_1_dpdk_pna_smith_target.html" target="_top" xlink:title=" ">
<polygon fill="white" stroke="black" points="19.5,-0.5 19.5,-30.5 144.5,-30.5 144.5,-0.5 19.5,-0.5"/>
<text text-anchor="start" x="27.5" y="-18.5" font-family="Helvetica,sans-Serif" font-size="10.00">P4Tools::P4Smith::Nic</text>
<text text-anchor="middle" x="82" y="-7.5" font-family="Helvetica,sans-Serif" font-size="10.00">::DpdkPnaSmithTarget</text>
</a>
</g>
</g>
<!-- Node1&#45;&gt;Node5 -->
<g id="edge4" class="edge">
<title>Node1&#45;&gt;Node5</title>
<path fill="none" stroke="midnightblue" d="M82,-57.11C82,-48.15 82,-38.32 82,-30.58"/>
<polygon fill="midnightblue" stroke="midnightblue" points="78.5,-57.4 82,-67.4 85.5,-57.4 78.5,-57.4"/>
</g>
<!-- Node2 -->
<g id="node2" class="node">
<title>Node2</title>
<g id="a_node2"><a xlink:href="class_p4_tools_1_1_p4_smith_1_1_smith_target.html" target="_top" xlink:title=" ">
<polygon fill="white" stroke="black" points="0,-134.5 0,-153.5 164,-153.5 164,-134.5 0,-134.5"/>
<text text-anchor="middle" x="82" y="-141.5" font-family="Helvetica,sans-Serif" font-size="10.00">P4Tools::P4Smith::SmithTarget</text>
</a>
</g>
</g>
<!-- Node2&#45;&gt;Node1 -->
<g id="edge1" class="edge">
<title>Node2&#45;&gt;Node1</title>
<path fill="none" stroke="midnightblue" d="M82,-124.23C82,-115.59 82,-105.5 82,-97.52"/>
<polygon fill="midnightblue" stroke="midnightblue" points="78.5,-124.48 82,-134.48 85.5,-124.48 78.5,-124.48"/>
</g>
<!-- Node3 -->
<g id="node3" class="node">
<title>Node3</title>
<g id="a_node3"><a xlink:href="class_p4_tools_1_1_compiler_target.html" target="_top" xlink:title="Encapsulates the details of invoking the P4 compiler for a target device and architecture.">
<polygon fill="white" stroke="black" points="15,-190.5 15,-209.5 149,-209.5 149,-190.5 15,-190.5"/>
<text text-anchor="middle" x="82" y="-197.5" font-family="Helvetica,sans-Serif" font-size="10.00">P4Tools::CompilerTarget</text>
</a>
</g>
</g>
<!-- Node3&#45;&gt;Node2 -->
<g id="edge2" class="edge">
<title>Node3&#45;&gt;Node2</title>
<path fill="none" stroke="midnightblue" d="M82,-179.8C82,-170.91 82,-160.78 82,-153.75"/>
<polygon fill="midnightblue" stroke="midnightblue" points="78.5,-180.08 82,-190.08 85.5,-180.08 78.5,-180.08"/>
</g>
<!-- Node4 -->
<g id="node4" class="node">
<title>Node4</title>
<g id="a_node4"><a xlink:href="class_p4_tools_1_1_target.html" target="_top" xlink:title=" ">
<polygon fill="white" stroke="black" points="37.5,-246.5 37.5,-265.5 126.5,-265.5 126.5,-246.5 37.5,-246.5"/>
<text text-anchor="middle" x="82" y="-253.5" font-family="Helvetica,sans-Serif" font-size="10.00">P4Tools::Target</text>
</a>
</g>
</g>
<!-- Node4&#45;&gt;Node3 -->
<g id="edge3" class="edge">
<title>Node4&#45;&gt;Node3</title>
<path fill="none" stroke="midnightblue" d="M82,-235.8C82,-226.91 82,-216.78 82,-209.75"/>
<polygon fill="midnightblue" stroke="midnightblue" points="78.5,-236.08 82,-246.08 85.5,-236.08 78.5,-236.08"/>
</g>
</g>
</svg>
