<?xml version="1.0" encoding="UTF-8" standalone="no"?>
<!DOCTYPE svg PUBLIC "-//W3C//DTD SVG 1.1//EN"
 "http://www.w3.org/Graphics/SVG/1.1/DTD/svg11.dtd">
<!-- Generated by graphviz version 2.43.0 (0)
 -->
<!-- Title: P4Tools::P4Testgen::Bmv2::Bmv2V1ModelProgramInfo Pages: 1 -->
<svg width="196pt" height="218pt"
 viewBox="0.00 0.00 196.00 218.00" xmlns="http://www.w3.org/2000/svg" xmlns:xlink="http://www.w3.org/1999/xlink">
<g id="graph0" class="graph" transform="scale(1 1) rotate(0) translate(4 214)">
<title>P4Tools::P4Testgen::Bmv2::Bmv2V1ModelProgramInfo</title>
<polygon fill="white" stroke="transparent" points="-4,4 -4,-214 192,-214 192,4 -4,4"/>
<!-- Node1 -->
<g id="node1" class="node">
<title>Node1</title>
<g id="a_node1"><a xlink:title=" ">
<polygon fill="#bfbfbf" stroke="black" points="0,-0.5 0,-30.5 188,-30.5 188,-0.5 0,-0.5"/>
<text text-anchor="start" x="8" y="-18.5" font-family="Helvetica,sans-Serif" font-size="10.00">P4Tools::P4Testgen</text>
<text text-anchor="middle" x="94" y="-7.5" font-family="Helvetica,sans-Serif" font-size="10.00">::Bmv2::Bmv2V1ModelProgramInfo</text>
</a>
</g>
</g>
<!-- Node2 -->
<g id="node2" class="node">
<title>Node2</title>
<g id="a_node2"><a xlink:href="class_p4_tools_1_1_p4_testgen_1_1_program_info.html" target="_top" xlink:title="Stores target&#45;specific information about a P4 program.">
<polygon fill="white" stroke="black" points="39.5,-67.5 39.5,-97.5 148.5,-97.5 148.5,-67.5 39.5,-67.5"/>
<text text-anchor="start" x="47.5" y="-85.5" font-family="Helvetica,sans-Serif" font-size="10.00">P4Tools::P4Testgen</text>
<text text-anchor="middle" x="94" y="-74.5" font-family="Helvetica,sans-Serif" font-size="10.00">::ProgramInfo</text>
</a>
</g>
</g>
<!-- Node2&#45;&gt;Node1 -->
<g id="edge1" class="edge">
<title>Node2&#45;&gt;Node1</title>
<path fill="none" stroke="midnightblue" d="M94,-57.11C94,-48.15 94,-38.32 94,-30.58"/>
<polygon fill="midnightblue" stroke="midnightblue" points="90.5,-57.4 94,-67.4 97.5,-57.4 90.5,-57.4"/>
</g>
<!-- Node3 -->
<g id="node3" class="node">
<title>Node3</title>
<g id="a_node3"><a xlink:href="class_i_castable.html" target="_top" xlink:title=" ">
<polygon fill="white" stroke="black" points="63,-134.5 63,-153.5 125,-153.5 125,-134.5 63,-134.5"/>
<text text-anchor="middle" x="94" y="-141.5" font-family="Helvetica,sans-Serif" font-size="10.00">ICastable</text>
</a>
</g>
</g>
<!-- Node3&#45;&gt;Node2 -->
<g id="edge2" class="edge">
<title>Node3&#45;&gt;Node2</title>
<path fill="none" stroke="midnightblue" d="M94,-124.23C94,-115.59 94,-105.5 94,-97.52"/>
<polygon fill="midnightblue" stroke="midnightblue" points="90.5,-124.48 94,-134.48 97.5,-124.48 90.5,-124.48"/>
</g>
<!-- Node4 -->
<g id="node4" class="node">
<title>Node4</title>
<g id="a_node4"><a xlink:href="struct_r_t_t_i_1_1_base.html" target="_top" xlink:title=" ">
<polygon fill="white" stroke="black" points="60,-190.5 60,-209.5 128,-209.5 128,-190.5 60,-190.5"/>
<text text-anchor="middle" x="94" y="-197.5" font-family="Helvetica,sans-Serif" font-size="10.00">RTTI::Base</text>
</a>
</g>
</g>
<!-- Node4&#45;&gt;Node3 -->
<g id="edge3" class="edge">
<title>Node4&#45;&gt;Node3</title>
<path fill="none" stroke="midnightblue" d="M94,-179.8C94,-170.91 94,-160.78 94,-153.75"/>
<polygon fill="midnightblue" stroke="midnightblue" points="90.5,-180.08 94,-190.08 97.5,-180.08 90.5,-180.08"/>
</g>
</g>
</svg>
