<?xml version="1.0" encoding="UTF-8" standalone="no"?>
<!DOCTYPE svg PUBLIC "-//W3C//DTD SVG 1.1//EN"
 "http://www.w3.org/Graphics/SVG/1.1/DTD/svg11.dtd">
<!-- Generated by graphviz version 2.43.0 (0)
 -->
<!-- Title: EBPF::CRCChecksumAlgorithm Pages: 1 -->
<!--zoomable 123 -->
<svg id="main" version="1.1" xmlns="http://www.w3.org/2000/svg" xmlns:xlink="http://www.w3.org/1999/xlink" xml:space="preserve" onload="init(evt)">
<style type="text/css"><![CDATA[
.edge:hover path { stroke: red; }
.edge:hover polygon { stroke: red; fill: red; }
]]></style>
<script type="text/javascript"><![CDATA[
var edges = document.getElementsByTagName('g');
if (edges && edges.length) {
  for (var i=0;i<edges.length;i++) {
    if (edges[i].id.substr(0,4)=='edge') {
      edges[i].setAttribute('class','edge');
    }
  }
}
]]></script>
        <defs>
                <circle id="rim" cx="0" cy="0" r="7"/>
                <circle id="rim2" cx="0" cy="0" r="3.5"/>
                <g id="zoomPlus">
                        <use xlink:href="#rim" fill="#404040">
                                <set attributeName="fill" to="#808080" begin="zoomplus.mouseover" end="zoomplus.mouseout"/>
                        </use>
                        <path d="M-4,0h8M0,-4v8" fill="none" stroke="white" stroke-width="1.5" pointer-events="none"/>
                </g>
                <g id="zoomMin">
                        <use xlink:href="#rim" fill="#404040">
                                <set attributeName="fill" to="#808080" begin="zoomminus.mouseover" end="zoomminus.mouseout"/>
                        </use>
                        <path d="M-4,0h8" fill="none" stroke="white" stroke-width="1.5" pointer-events="none"/>
                </g>
                <g id="dirArrow">
                        <path fill="none" stroke="white" stroke-width="1.5" d="M0,-3.0v7 M-2.5,-0.5L0,-3.0L2.5,-0.5"/>
                </g>
               <g id="resetDef">
                       <use xlink:href="#rim2" fill="#404040">
                               <set attributeName="fill" to="#808080" begin="reset.mouseover" end="reset.mouseout"/>
                       </use>
               </g>
        </defs>

<script type="text/javascript">
var viewWidth = 1151;
var viewHeight = 123;
var sectionId = 'dynsection-0';
</script>
<script xlink:href="svgpan.js"/>
<svg id="graph" class="graph">
<g id="viewport">
<title>EBPF::CRCChecksumAlgorithm</title>
<polygon fill="white" stroke="transparent" points="-4,4 -4,-119 1147,-119 1147,4 -4,4"/>
<!-- Node1 -->
<g id="node1" class="node">
<title>Node1</title>
<g id="a_node1"><a xlink:title=" ">
<polygon fill="#bfbfbf" stroke="black" points="541,-57.5 541,-76.5 707,-76.5 707,-57.5 541,-57.5"/>
<text text-anchor="middle" x="624" y="-64.5" font-family="Helvetica,sans-Serif" font-size="10.00">EBPF::CRCChecksumAlgorithm</text>
</a>
</g>
</g>
<!-- Node6 -->
<g id="node6" class="node">
<title>Node6</title>
<g id="a_node6"><a xlink:href="class_e_b_p_f_1_1_c_r_c16_checksum_algorithm.html" target="_top" xlink:title=" ">
<polygon fill="white" stroke="black" points="743,-95.5 743,-114.5 921,-114.5 921,-95.5 743,-95.5"/>
<text text-anchor="middle" x="832" y="-102.5" font-family="Helvetica,sans-Serif" font-size="10.00">EBPF::CRC16ChecksumAlgorithm</text>
</a>
</g>
</g>
<!-- Node1&#45;&gt;Node6 -->
<g id="edge5" class="edge">
<title>Node1&#45;&gt;Node6</title>
<path fill="none" stroke="midnightblue" d="M686.9,-78.42C716.37,-83.86 751.22,-90.28 779.26,-95.46"/>
<polygon fill="midnightblue" stroke="midnightblue" points="687.19,-74.91 676.72,-76.54 685.92,-81.8 687.19,-74.91"/>
</g>
<!-- Node7 -->
<g id="node7" class="node">
<title>Node7</title>
<g id="a_node7"><a xlink:href="class_e_b_p_f_1_1_c_r_c32_checksum_algorithm.html" target="_top" xlink:title=" ">
<polygon fill="white" stroke="black" points="743,-57.5 743,-76.5 921,-76.5 921,-57.5 743,-57.5"/>
<text text-anchor="middle" x="832" y="-64.5" font-family="Helvetica,sans-Serif" font-size="10.00">EBPF::CRC32ChecksumAlgorithm</text>
</a>
</g>
</g>
<!-- Node1&#45;&gt;Node7 -->
<g id="edge6" class="edge">
<title>Node1&#45;&gt;Node7</title>
<path fill="none" stroke="midnightblue" d="M717.03,-67C725.61,-67 734.3,-67 742.85,-67"/>
<polygon fill="midnightblue" stroke="midnightblue" points="717.01,-63.5 707.01,-67 717.01,-70.5 717.01,-63.5"/>
</g>
<!-- Node8 -->
<g id="node8" class="node">
<title>Node8</title>
<g id="a_node8"><a xlink:href="class_t_c_1_1_c_r_c_checksum_algorithm_p_n_a.html" target="_top" xlink:title=" ">
<polygon fill="white" stroke="black" points="745,-19.5 745,-38.5 919,-38.5 919,-19.5 745,-19.5"/>
<text text-anchor="middle" x="832" y="-26.5" font-family="Helvetica,sans-Serif" font-size="10.00">TC::CRCChecksumAlgorithmPNA</text>
</a>
</g>
</g>
<!-- Node1&#45;&gt;Node8 -->
<g id="edge7" class="edge">
<title>Node1&#45;&gt;Node8</title>
<path fill="none" stroke="midnightblue" d="M686.9,-55.58C716.37,-50.14 751.22,-43.72 779.26,-38.54"/>
<polygon fill="midnightblue" stroke="midnightblue" points="685.92,-52.2 676.72,-57.46 687.19,-59.09 685.92,-52.2"/>
</g>
<!-- Node2 -->
<g id="node2" class="node">
<title>Node2</title>
<g id="a_node2"><a xlink:href="class_e_b_p_f_1_1_e_b_p_f_hash_algorithm_p_s_a.html" target="_top" xlink:title=" ">
<polygon fill="white" stroke="black" points="341,-57.5 341,-76.5 505,-76.5 505,-57.5 341,-57.5"/>
<text text-anchor="middle" x="423" y="-64.5" font-family="Helvetica,sans-Serif" font-size="10.00">EBPF::EBPFHashAlgorithmPSA</text>
</a>
</g>
</g>
<!-- Node2&#45;&gt;Node1 -->
<g id="edge1" class="edge">
<title>Node2&#45;&gt;Node1</title>
<path fill="none" stroke="midnightblue" d="M515.46,-67C523.89,-67 532.4,-67 540.74,-67"/>
<polygon fill="midnightblue" stroke="midnightblue" points="515.23,-63.5 505.23,-67 515.23,-70.5 515.23,-63.5"/>
</g>
<!-- Node3 -->
<g id="node3" class="node">
<title>Node3</title>
<g id="a_node3"><a xlink:href="class_e_b_p_f_1_1_e_b_p_f_object.html" target="_top" xlink:title="Base class for EBPF objects.">
<polygon fill="white" stroke="black" points="202,-57.5 202,-76.5 305,-76.5 305,-57.5 202,-57.5"/>
<text text-anchor="middle" x="253.5" y="-64.5" font-family="Helvetica,sans-Serif" font-size="10.00">EBPF::EBPFObject</text>
</a>
</g>
</g>
<!-- Node3&#45;&gt;Node2 -->
<g id="edge2" class="edge">
<title>Node3&#45;&gt;Node2</title>
<path fill="none" stroke="midnightblue" d="M315.47,-67C323.72,-67 332.3,-67 340.83,-67"/>
<polygon fill="midnightblue" stroke="midnightblue" points="315.21,-63.5 305.21,-67 315.21,-70.5 315.21,-63.5"/>
</g>
<!-- Node4 -->
<g id="node4" class="node">
<title>Node4</title>
<g id="a_node4"><a xlink:href="class_i_castable.html" target="_top" xlink:title=" ">
<polygon fill="white" stroke="black" points="104,-57.5 104,-76.5 166,-76.5 166,-57.5 104,-57.5"/>
<text text-anchor="middle" x="135" y="-64.5" font-family="Helvetica,sans-Serif" font-size="10.00">ICastable</text>
</a>
</g>
</g>
<!-- Node4&#45;&gt;Node3 -->
<g id="edge3" class="edge">
<title>Node4&#45;&gt;Node3</title>
<path fill="none" stroke="midnightblue" d="M176.13,-67C184.41,-67 193.22,-67 201.81,-67"/>
<polygon fill="midnightblue" stroke="midnightblue" points="176,-63.5 166,-67 176,-70.5 176,-63.5"/>
</g>
<!-- Node5 -->
<g id="node5" class="node">
<title>Node5</title>
<g id="a_node5"><a xlink:href="struct_r_t_t_i_1_1_base.html" target="_top" xlink:title=" ">
<polygon fill="white" stroke="black" points="0,-57.5 0,-76.5 68,-76.5 68,-57.5 0,-57.5"/>
<text text-anchor="middle" x="34" y="-64.5" font-family="Helvetica,sans-Serif" font-size="10.00">RTTI::Base</text>
</a>
</g>
</g>
<!-- Node5&#45;&gt;Node4 -->
<g id="edge4" class="edge">
<title>Node5&#45;&gt;Node4</title>
<path fill="none" stroke="midnightblue" d="M78.44,-67C86.95,-67 95.71,-67 103.68,-67"/>
<polygon fill="midnightblue" stroke="midnightblue" points="78.24,-63.5 68.24,-67 78.24,-70.5 78.24,-63.5"/>
</g>
<!-- Node9 -->
<g id="node9" class="node">
<title>Node9</title>
<g id="a_node9"><a xlink:href="class_t_c_1_1_c_r_c16_checksum_algorithm_p_n_a.html" target="_top" xlink:title=" ">
<polygon fill="white" stroke="black" points="957,-38.5 957,-57.5 1143,-57.5 1143,-38.5 957,-38.5"/>
<text text-anchor="middle" x="1050" y="-45.5" font-family="Helvetica,sans-Serif" font-size="10.00">TC::CRC16ChecksumAlgorithmPNA</text>
</a>
</g>
</g>
<!-- Node8&#45;&gt;Node9 -->
<g id="edge8" class="edge">
<title>Node8&#45;&gt;Node9</title>
<path fill="none" stroke="midnightblue" d="M929.5,-37.49C938.58,-38.29 947.77,-39.1 956.82,-39.89"/>
<polygon fill="midnightblue" stroke="midnightblue" points="929.57,-33.98 919.3,-36.59 928.95,-40.95 929.57,-33.98"/>
</g>
<!-- Node10 -->
<g id="node10" class="node">
<title>Node10</title>
<g id="a_node10"><a xlink:href="class_t_c_1_1_c_r_c32_checksum_algorithm_p_n_a.html" target="_top" xlink:title=" ">
<polygon fill="white" stroke="black" points="957,-0.5 957,-19.5 1143,-19.5 1143,-0.5 957,-0.5"/>
<text text-anchor="middle" x="1050" y="-7.5" font-family="Helvetica,sans-Serif" font-size="10.00">TC::CRC32ChecksumAlgorithmPNA</text>
</a>
</g>
</g>
<!-- Node8&#45;&gt;Node10 -->
<g id="edge9" class="edge">
<title>Node8&#45;&gt;Node10</title>
<path fill="none" stroke="midnightblue" d="M929.5,-20.51C938.58,-19.71 947.77,-18.9 956.82,-18.11"/>
<polygon fill="midnightblue" stroke="midnightblue" points="928.95,-17.05 919.3,-21.41 929.57,-24.02 928.95,-17.05"/>
</g>
</g>
</svg>
        <g id="navigator" transform="translate(0 0)" fill="#404254">
                <rect fill="#f2f5e9" fill-opacity="0.5" stroke="#606060" stroke-width=".5" x="0" y="0" width="60" height="60"/>
                <use id="zoomplus" xlink:href="#zoomPlus" x="17" y="9" onmousedown="handleZoom(evt,'in')"/>
                <use id="zoomminus" xlink:href="#zoomMin" x="42" y="9" onmousedown="handleZoom(evt,'out')"/>
                <use id="reset" xlink:href="#resetDef" x="30" y="36" onmousedown="handleReset()"/>
                <g id="arrowUp" xlink:href="#dirArrow" transform="translate(30 24)" onmousedown="handlePan(0,-1)">
                  <use xlink:href="#rim" fill="#404040">
                        <set attributeName="fill" to="#808080" begin="arrowUp.mouseover" end="arrowUp.mouseout"/>
                  </use>
                  <path fill="none" stroke="white" stroke-width="1.5" d="M0,-3.0v7 M-2.5,-0.5L0,-3.0L2.5,-0.5"/>
                </g>
                <g id="arrowRight" xlink:href="#dirArrow" transform="rotate(90) translate(36 -43)" onmousedown="handlePan(1,0)">
                  <use xlink:href="#rim" fill="#404040">
                        <set attributeName="fill" to="#808080" begin="arrowRight.mouseover" end="arrowRight.mouseout"/>
                  </use>
                  <path fill="none" stroke="white" stroke-width="1.5" d="M0,-3.0v7 M-2.5,-0.5L0,-3.0L2.5,-0.5"/>
                </g>
                <g id="arrowDown" xlink:href="#dirArrow" transform="rotate(180) translate(-30 -48)" onmousedown="handlePan(0,1)">
                  <use xlink:href="#rim" fill="#404040">
                        <set attributeName="fill" to="#808080" begin="arrowDown.mouseover" end="arrowDown.mouseout"/>
                  </use>
                  <path fill="none" stroke="white" stroke-width="1.5" d="M0,-3.0v7 M-2.5,-0.5L0,-3.0L2.5,-0.5"/>
                </g>
                <g id="arrowLeft" xlink:href="#dirArrow" transform="rotate(270) translate(-36 17)" onmousedown="handlePan(-1,0)">
                  <use xlink:href="#rim" fill="#404040">
                        <set attributeName="fill" to="#808080" begin="arrowLeft.mouseover" end="arrowLeft.mouseout"/>
                  </use>
                  <path fill="none" stroke="white" stroke-width="1.5" d="M0,-3.0v7 M-2.5,-0.5L0,-3.0L2.5,-0.5"/>
                </g>
        </g>
        <svg viewBox="0 0 15 15" width="100%" height="30px" preserveAspectRatio="xMaxYMin meet">
         <g id="arrow_out" transform="scale(0.3 0.3)">
          <a xlink:href="class_e_b_p_f_1_1_c_r_c_checksum_algorithm__inherit__graph_org.svg" target="_base">
           <rect id="button" ry="5" rx="5" y="6" x="6" height="38" width="38"
                fill="#f2f5e9" fill-opacity="0.5" stroke="#606060" stroke-width="1.0"/>
           <path id="arrow"
             d="M 11.500037,31.436501 C 11.940474,20.09759 22.043105,11.32322 32.158766,21.979434 L 37.068811,17.246167 C 37.068811,17.246167 37.088388,32 37.088388,32 L 22.160133,31.978069 C 22.160133,31.978069 26.997745,27.140456 26.997745,27.140456 C 18.528582,18.264221 13.291696,25.230495 11.500037,31.436501 z"
             style="fill:#404040;"/>
          </a>
         </g>
        </svg>
</svg>
