<?xml version="1.0" encoding="UTF-8" standalone="no"?>
<!DOCTYPE svg PUBLIC "-//W3C//DTD SVG 1.1//EN"
 "http://www.w3.org/Graphics/SVG/1.1/DTD/svg11.dtd">
<!-- Generated by graphviz version 2.43.0 (0)
 -->
<!-- Title: P4::InlinePass Pages: 1 -->
<svg width="113pt" height="196pt"
 viewBox="0.00 0.00 113.00 196.00" xmlns="http://www.w3.org/2000/svg" xmlns:xlink="http://www.w3.org/1999/xlink">
<g id="graph0" class="graph" transform="scale(1 1) rotate(0) translate(4 192)">
<title>P4::InlinePass</title>
<polygon fill="white" stroke="transparent" points="-4,4 -4,-192 109,-192 109,4 -4,4"/>
<!-- Node1 -->
<g id="node1" class="node">
<title>Node1</title>
<g id="a_node1"><a xlink:title="Performs one round of inlining bottoms&#45;up.">
<polygon fill="#bfbfbf" stroke="black" points="0,-0.5 0,-19.5 83,-19.5 83,-0.5 0,-0.5"/>
<text text-anchor="middle" x="41.5" y="-7.5" font-family="Helvetica,sans-Serif" font-size="10.00">P4::InlinePass</text>
</a>
</g>
</g>
<!-- Node2 -->
<g id="node2" class="node">
<title>Node2</title>
<g id="a_node2"><a xlink:href="class_pass_manager.html" target="_top" xlink:title=" ">
<polygon fill="white" stroke="black" points="1,-56.5 1,-75.5 82,-75.5 82,-56.5 1,-56.5"/>
<text text-anchor="middle" x="41.5" y="-63.5" font-family="Helvetica,sans-Serif" font-size="10.00">PassManager</text>
</a>
</g>
</g>
<!-- Node2&#45;&gt;Node1 -->
<g id="edge1" class="edge">
<title>Node2&#45;&gt;Node1</title>
<path fill="none" stroke="midnightblue" d="M41.5,-45.8C41.5,-36.91 41.5,-26.78 41.5,-19.75"/>
<polygon fill="midnightblue" stroke="midnightblue" points="38,-46.08 41.5,-56.08 45,-46.08 38,-46.08"/>
</g>
<!-- Node3 -->
<g id="node3" class="node">
<title>Node3</title>
<g id="a_node3"><a xlink:href="class_visitor.html" target="_top" xlink:title=" ">
<polygon fill="white" stroke="black" points="17.5,-168.5 17.5,-187.5 65.5,-187.5 65.5,-168.5 17.5,-168.5"/>
<text text-anchor="middle" x="41.5" y="-175.5" font-family="Helvetica,sans-Serif" font-size="10.00">Visitor</text>
</a>
</g>
</g>
<!-- Node3&#45;&gt;Node2 -->
<g id="edge2" class="edge">
<title>Node3&#45;&gt;Node2</title>
<path fill="none" stroke="midnightblue" d="M35.96,-158.66C33.79,-150.57 31.57,-140.89 30.5,-132 28.06,-111.77 34.33,-88.25 38.38,-75.79"/>
<polygon fill="midnightblue" stroke="midnightblue" points="32.66,-159.83 38.77,-168.49 39.39,-157.91 32.66,-159.83"/>
</g>
<!-- Node4 -->
<g id="node4" class="node">
<title>Node4</title>
<g id="a_node4"><a xlink:href="class_backtrack.html" target="_top" xlink:title=" ">
<polygon fill="white" stroke="black" points="40,-112.5 40,-131.5 105,-131.5 105,-112.5 40,-112.5"/>
<text text-anchor="middle" x="72.5" y="-119.5" font-family="Helvetica,sans-Serif" font-size="10.00">Backtrack</text>
</a>
</g>
</g>
<!-- Node3&#45;&gt;Node4 -->
<g id="edge4" class="edge">
<title>Node3&#45;&gt;Node4</title>
<path fill="none" stroke="midnightblue" d="M51.68,-159.27C56.97,-150.05 63.22,-139.17 67.48,-131.75"/>
<polygon fill="midnightblue" stroke="midnightblue" points="48.56,-157.67 46.62,-168.08 54.63,-161.15 48.56,-157.67"/>
</g>
<!-- Node4&#45;&gt;Node2 -->
<g id="edge3" class="edge">
<title>Node4&#45;&gt;Node2</title>
<path fill="none" stroke="midnightblue" d="M62.32,-103.27C57.03,-94.05 50.78,-83.17 46.52,-75.75"/>
<polygon fill="midnightblue" stroke="midnightblue" points="59.37,-105.15 67.38,-112.08 65.44,-101.67 59.37,-105.15"/>
</g>
</g>
</svg>
