<?xml version="1.0" encoding="UTF-8" standalone="no"?>
<!DOCTYPE svg PUBLIC "-//W3C//DTD SVG 1.1//EN"
 "http://www.w3.org/Graphics/SVG/1.1/DTD/svg11.dtd">
<!-- Generated by graphviz version 2.43.0 (0)
 -->
<!-- Title: P4::ScalarValue Pages: 1 -->
<svg width="493pt" height="252pt"
 viewBox="0.00 0.00 492.50 252.00" xmlns="http://www.w3.org/2000/svg" xmlns:xlink="http://www.w3.org/1999/xlink">
<g id="graph0" class="graph" transform="scale(1 1) rotate(0) translate(4 248)">
<title>P4::ScalarValue</title>
<polygon fill="white" stroke="transparent" points="-4,4 -4,-248 488.5,-248 488.5,4 -4,4"/>
<!-- Node1 -->
<g id="node1" class="node">
<title>Node1</title>
<g id="a_node1"><a xlink:title=" ">
<polygon fill="#bfbfbf" stroke="black" points="190.5,-56.5 190.5,-75.5 282.5,-75.5 282.5,-56.5 190.5,-56.5"/>
<text text-anchor="middle" x="236.5" y="-63.5" font-family="Helvetica,sans-Serif" font-size="10.00">P4::ScalarValue</text>
</a>
</g>
</g>
<!-- Node6 -->
<g id="node6" class="node">
<title>Node6</title>
<g id="a_node6"><a xlink:href="class_p4_1_1_symbolic_bool.html" target="_top" xlink:title=" ">
<polygon fill="white" stroke="black" points="0,-0.5 0,-19.5 101,-19.5 101,-0.5 0,-0.5"/>
<text text-anchor="middle" x="50.5" y="-7.5" font-family="Helvetica,sans-Serif" font-size="10.00">P4::SymbolicBool</text>
</a>
</g>
</g>
<!-- Node1&#45;&gt;Node6 -->
<g id="edge5" class="edge">
<title>Node1&#45;&gt;Node6</title>
<path fill="none" stroke="midnightblue" d="M197.12,-53.57C162.03,-43.38 111.48,-28.7 79.83,-19.52"/>
<polygon fill="midnightblue" stroke="midnightblue" points="196.45,-57.02 207.03,-56.44 198.4,-50.29 196.45,-57.02"/>
</g>
<!-- Node7 -->
<g id="node7" class="node">
<title>Node7</title>
<g id="a_node7"><a xlink:href="class_p4_1_1_symbolic_enum.html" target="_top" xlink:title=" ">
<polygon fill="white" stroke="black" points="119,-0.5 119,-19.5 226,-19.5 226,-0.5 119,-0.5"/>
<text text-anchor="middle" x="172.5" y="-7.5" font-family="Helvetica,sans-Serif" font-size="10.00">P4::SymbolicEnum</text>
</a>
</g>
</g>
<!-- Node1&#45;&gt;Node7 -->
<g id="edge6" class="edge">
<title>Node1&#45;&gt;Node7</title>
<path fill="none" stroke="midnightblue" d="M218.51,-49.82C207.04,-40.15 192.59,-27.95 182.97,-19.83"/>
<polygon fill="midnightblue" stroke="midnightblue" points="216.32,-52.55 226.22,-56.32 220.83,-47.2 216.32,-52.55"/>
</g>
<!-- Node8 -->
<g id="node8" class="node">
<title>Node8</title>
<g id="a_node8"><a xlink:href="class_p4_1_1_symbolic_integer.html" target="_top" xlink:title=" ">
<polygon fill="white" stroke="black" points="244.5,-0.5 244.5,-19.5 358.5,-19.5 358.5,-0.5 244.5,-0.5"/>
<text text-anchor="middle" x="301.5" y="-7.5" font-family="Helvetica,sans-Serif" font-size="10.00">P4::SymbolicInteger</text>
</a>
</g>
</g>
<!-- Node1&#45;&gt;Node8 -->
<g id="edge7" class="edge">
<title>Node1&#45;&gt;Node8</title>
<path fill="none" stroke="midnightblue" d="M254.77,-49.82C266.42,-40.15 281.1,-27.95 290.87,-19.83"/>
<polygon fill="midnightblue" stroke="midnightblue" points="252.4,-47.24 246.94,-56.32 256.87,-52.63 252.4,-47.24"/>
</g>
<!-- Node9 -->
<g id="node9" class="node">
<title>Node9</title>
<g id="a_node9"><a xlink:href="class_p4_1_1_symbolic_varbit.html" target="_top" xlink:title=" ">
<polygon fill="white" stroke="black" points="376.5,-0.5 376.5,-19.5 484.5,-19.5 484.5,-0.5 376.5,-0.5"/>
<text text-anchor="middle" x="430.5" y="-7.5" font-family="Helvetica,sans-Serif" font-size="10.00">P4::SymbolicVarbit</text>
</a>
</g>
</g>
<!-- Node1&#45;&gt;Node9 -->
<g id="edge8" class="edge">
<title>Node1&#45;&gt;Node9</title>
<path fill="none" stroke="midnightblue" d="M277.1,-53.7C313.72,-43.51 366.76,-28.74 399.9,-19.52"/>
<polygon fill="midnightblue" stroke="midnightblue" points="275.94,-50.39 267.24,-56.44 277.81,-57.13 275.94,-50.39"/>
</g>
<!-- Node2 -->
<g id="node2" class="node">
<title>Node2</title>
<g id="a_node2"><a xlink:href="class_p4_1_1_symbolic_value.html" target="_top" xlink:title=" ">
<polygon fill="white" stroke="black" points="183,-112.5 183,-131.5 290,-131.5 290,-112.5 183,-112.5"/>
<text text-anchor="middle" x="236.5" y="-119.5" font-family="Helvetica,sans-Serif" font-size="10.00">P4::SymbolicValue</text>
</a>
</g>
</g>
<!-- Node2&#45;&gt;Node1 -->
<g id="edge1" class="edge">
<title>Node2&#45;&gt;Node1</title>
<path fill="none" stroke="midnightblue" d="M236.5,-101.8C236.5,-92.91 236.5,-82.78 236.5,-75.75"/>
<polygon fill="midnightblue" stroke="midnightblue" points="233,-102.08 236.5,-112.08 240,-102.08 233,-102.08"/>
</g>
<!-- Node3 -->
<g id="node3" class="node">
<title>Node3</title>
<g id="a_node3"><a xlink:href="class_i_has_db_print.html" target="_top" xlink:title=" ">
<polygon fill="white" stroke="black" points="156.5,-168.5 156.5,-187.5 230.5,-187.5 230.5,-168.5 156.5,-168.5"/>
<text text-anchor="middle" x="193.5" y="-175.5" font-family="Helvetica,sans-Serif" font-size="10.00">IHasDbPrint</text>
</a>
</g>
</g>
<!-- Node3&#45;&gt;Node2 -->
<g id="edge2" class="edge">
<title>Node3&#45;&gt;Node2</title>
<path fill="none" stroke="midnightblue" d="M206.92,-160.14C214.41,-150.74 223.44,-139.4 229.53,-131.75"/>
<polygon fill="midnightblue" stroke="midnightblue" points="204.09,-158.08 200.6,-168.08 209.57,-162.44 204.09,-158.08"/>
</g>
<!-- Node4 -->
<g id="node4" class="node">
<title>Node4</title>
<g id="a_node4"><a xlink:href="class_i_castable.html" target="_top" xlink:title=" ">
<polygon fill="white" stroke="black" points="248.5,-168.5 248.5,-187.5 310.5,-187.5 310.5,-168.5 248.5,-168.5"/>
<text text-anchor="middle" x="279.5" y="-175.5" font-family="Helvetica,sans-Serif" font-size="10.00">ICastable</text>
</a>
</g>
</g>
<!-- Node4&#45;&gt;Node2 -->
<g id="edge3" class="edge">
<title>Node4&#45;&gt;Node2</title>
<path fill="none" stroke="midnightblue" d="M266.08,-160.14C258.59,-150.74 249.56,-139.4 243.47,-131.75"/>
<polygon fill="midnightblue" stroke="midnightblue" points="263.43,-162.44 272.4,-168.08 268.91,-158.08 263.43,-162.44"/>
</g>
<!-- Node5 -->
<g id="node5" class="node">
<title>Node5</title>
<g id="a_node5"><a xlink:href="struct_r_t_t_i_1_1_base.html" target="_top" xlink:title=" ">
<polygon fill="white" stroke="black" points="245.5,-224.5 245.5,-243.5 313.5,-243.5 313.5,-224.5 245.5,-224.5"/>
<text text-anchor="middle" x="279.5" y="-231.5" font-family="Helvetica,sans-Serif" font-size="10.00">RTTI::Base</text>
</a>
</g>
</g>
<!-- Node5&#45;&gt;Node4 -->
<g id="edge4" class="edge">
<title>Node5&#45;&gt;Node4</title>
<path fill="none" stroke="midnightblue" d="M279.5,-213.8C279.5,-204.91 279.5,-194.78 279.5,-187.75"/>
<polygon fill="midnightblue" stroke="midnightblue" points="276,-214.08 279.5,-224.08 283,-214.08 276,-214.08"/>
</g>
</g>
</svg>
