<?xml version="1.0" encoding="UTF-8" standalone="no"?>
<!DOCTYPE svg PUBLIC "-//W3C//DTD SVG 1.1//EN"
 "http://www.w3.org/Graphics/SVG/1.1/DTD/svg11.dtd">
<!-- Generated by graphviz version 2.43.0 (0)
 -->
<!-- Title: P4::ComputeDefUse Pages: 1 -->
<svg width="450pt" height="140pt"
 viewBox="0.00 0.00 449.50 140.00" xmlns="http://www.w3.org/2000/svg" xmlns:xlink="http://www.w3.org/1999/xlink">
<g id="graph0" class="graph" transform="scale(1 1) rotate(0) translate(4 136)">
<title>P4::ComputeDefUse</title>
<polygon fill="white" stroke="transparent" points="-4,4 -4,-136 445.5,-136 445.5,4 -4,4"/>
<!-- Node1 -->
<g id="node1" class="node">
<title>Node1</title>
<g id="a_node1"><a xlink:title="Compute defuse info within P4Parser and P4Control blocks in the midend.">
<polygon fill="#bfbfbf" stroke="black" points="135.5,-0.5 135.5,-19.5 250.5,-19.5 250.5,-0.5 135.5,-0.5"/>
<text text-anchor="middle" x="193" y="-7.5" font-family="Helvetica,sans-Serif" font-size="10.00">P4::ComputeDefUse</text>
</a>
</g>
</g>
<!-- Node2 -->
<g id="node2" class="node">
<title>Node2</title>
<g id="a_node2"><a xlink:href="class_inspector.html" target="_top" xlink:title=" ">
<polygon fill="white" stroke="black" points="0,-56.5 0,-75.5 62,-75.5 62,-56.5 0,-56.5"/>
<text text-anchor="middle" x="31" y="-63.5" font-family="Helvetica,sans-Serif" font-size="10.00">Inspector</text>
</a>
</g>
</g>
<!-- Node2&#45;&gt;Node1 -->
<g id="edge1" class="edge">
<title>Node2&#45;&gt;Node1</title>
<path fill="none" stroke="midnightblue" d="M66.48,-53.17C96.99,-43 140.24,-28.59 167.45,-19.52"/>
<polygon fill="midnightblue" stroke="midnightblue" points="65.05,-49.96 56.67,-56.44 67.26,-56.6 65.05,-49.96"/>
</g>
<!-- Node3 -->
<g id="node3" class="node">
<title>Node3</title>
<g id="a_node3"><a xlink:href="class_visitor.html" target="_top" xlink:title=" ">
<polygon fill="white" stroke="black" points="169,-112.5 169,-131.5 217,-131.5 217,-112.5 169,-112.5"/>
<text text-anchor="middle" x="193" y="-119.5" font-family="Helvetica,sans-Serif" font-size="10.00">Visitor</text>
</a>
</g>
</g>
<!-- Node3&#45;&gt;Node2 -->
<g id="edge2" class="edge">
<title>Node3&#45;&gt;Node2</title>
<path fill="none" stroke="midnightblue" d="M158.97,-109.66C128.48,-99.49 84.41,-84.8 56.76,-75.59"/>
<polygon fill="midnightblue" stroke="midnightblue" points="158.15,-113.07 168.75,-112.92 160.37,-106.43 158.15,-113.07"/>
</g>
<!-- Node4 -->
<g id="node4" class="node">
<title>Node4</title>
<g id="a_node4"><a xlink:href="class_control_flow_visitor.html" target="_top" xlink:title=" ">
<polygon fill="white" stroke="black" points="80.5,-56.5 80.5,-75.5 187.5,-75.5 187.5,-56.5 80.5,-56.5"/>
<text text-anchor="middle" x="134" y="-63.5" font-family="Helvetica,sans-Serif" font-size="10.00">ControlFlowVisitor</text>
</a>
</g>
</g>
<!-- Node3&#45;&gt;Node4 -->
<g id="edge4" class="edge">
<title>Node3&#45;&gt;Node4</title>
<path fill="none" stroke="midnightblue" d="M176.11,-105.54C165.59,-95.91 152.43,-83.87 143.65,-75.83"/>
<polygon fill="midnightblue" stroke="midnightblue" points="173.78,-108.15 183.52,-112.32 178.51,-102.99 173.78,-108.15"/>
</g>
<!-- Node5 -->
<g id="node5" class="node">
<title>Node5</title>
<g id="a_node5"><a xlink:href="class_p4_write_context.html" target="_top" xlink:title=" ">
<polygon fill="white" stroke="black" points="205.5,-56.5 205.5,-75.5 298.5,-75.5 298.5,-56.5 205.5,-56.5"/>
<text text-anchor="middle" x="252" y="-63.5" font-family="Helvetica,sans-Serif" font-size="10.00">P4WriteContext</text>
</a>
</g>
</g>
<!-- Node3&#45;&gt;Node5 -->
<g id="edge6" class="edge">
<title>Node3&#45;&gt;Node5</title>
<path fill="none" stroke="midnightblue" d="M209.89,-105.54C220.41,-95.91 233.57,-83.87 242.35,-75.83"/>
<polygon fill="midnightblue" stroke="midnightblue" points="207.49,-102.99 202.48,-112.32 212.22,-108.15 207.49,-102.99"/>
</g>
<!-- Node6 -->
<g id="node6" class="node">
<title>Node6</title>
<g id="a_node6"><a xlink:href="class_p4_1_1_resolution_context.html" target="_top" xlink:title="Visitor mixin for looking up names in enclosing scopes from the Visitor::Context.">
<polygon fill="white" stroke="black" points="316.5,-56.5 316.5,-75.5 441.5,-75.5 441.5,-56.5 316.5,-56.5"/>
<text text-anchor="middle" x="379" y="-63.5" font-family="Helvetica,sans-Serif" font-size="10.00">P4::ResolutionContext</text>
</a>
</g>
</g>
<!-- Node3&#45;&gt;Node6 -->
<g id="edge8" class="edge">
<title>Node3&#45;&gt;Node6</title>
<path fill="none" stroke="midnightblue" d="M227.1,-111.1C262.16,-100.92 316.18,-85.24 349.46,-75.58"/>
<polygon fill="midnightblue" stroke="midnightblue" points="225.94,-107.79 217.32,-113.94 227.9,-114.51 225.94,-107.79"/>
</g>
<!-- Node4&#45;&gt;Node1 -->
<g id="edge3" class="edge">
<title>Node4&#45;&gt;Node1</title>
<path fill="none" stroke="midnightblue" d="M150.89,-49.54C161.41,-39.91 174.57,-27.87 183.35,-19.83"/>
<polygon fill="midnightblue" stroke="midnightblue" points="148.49,-46.99 143.48,-56.32 153.22,-52.15 148.49,-46.99"/>
</g>
<!-- Node5&#45;&gt;Node1 -->
<g id="edge5" class="edge">
<title>Node5&#45;&gt;Node1</title>
<path fill="none" stroke="midnightblue" d="M235.11,-49.54C224.59,-39.91 211.43,-27.87 202.65,-19.83"/>
<polygon fill="midnightblue" stroke="midnightblue" points="232.78,-52.15 242.52,-56.32 237.51,-46.99 232.78,-52.15"/>
</g>
<!-- Node6&#45;&gt;Node1 -->
<g id="edge7" class="edge">
<title>Node6&#45;&gt;Node1</title>
<path fill="none" stroke="midnightblue" d="M339.62,-53.57C304.53,-43.38 253.98,-28.7 222.33,-19.52"/>
<polygon fill="midnightblue" stroke="midnightblue" points="338.95,-57.02 349.53,-56.44 340.9,-50.29 338.95,-57.02"/>
</g>
<!-- Node7 -->
<g id="node7" class="node">
<title>Node7</title>
<g id="a_node7"><a xlink:href="class_p4_1_1_declaration_lookup.html" target="_top" xlink:title=" ">
<polygon fill="white" stroke="black" points="316.5,-112.5 316.5,-131.5 441.5,-131.5 441.5,-112.5 316.5,-112.5"/>
<text text-anchor="middle" x="379" y="-119.5" font-family="Helvetica,sans-Serif" font-size="10.00">P4::DeclarationLookup</text>
</a>
</g>
</g>
<!-- Node7&#45;&gt;Node6 -->
<g id="edge9" class="edge">
<title>Node7&#45;&gt;Node6</title>
<path fill="none" stroke="midnightblue" d="M379,-101.8C379,-92.91 379,-82.78 379,-75.75"/>
<polygon fill="midnightblue" stroke="midnightblue" points="375.5,-102.08 379,-112.08 382.5,-102.08 375.5,-102.08"/>
</g>
</g>
</svg>
