<?xml version="1.0" encoding="UTF-8" standalone="no"?>
<!DOCTYPE svg PUBLIC "-//W3C//DTD SVG 1.1//EN"
 "http://www.w3.org/Graphics/SVG/1.1/DTD/svg11.dtd">
<!-- Generated by graphviz version 2.43.0 (0)
 -->
<!-- Title: hash_vector_base Pages: 1 -->
<svg width="313pt" height="301pt"
 viewBox="0.00 0.00 313.00 301.00" xmlns="http://www.w3.org/2000/svg" xmlns:xlink="http://www.w3.org/1999/xlink">
<g id="graph0" class="graph" transform="scale(1 1) rotate(0) translate(4 297)">
<title>hash_vector_base</title>
<!-- Node1 -->
<g id="Node000001" class="node">
<title>Node1</title>
<g id="a_Node000001"><a xlink:title=" ">
<polygon fill="#999999" stroke="#666666" points="104,-155.5 0,-155.5 0,-136.5 104,-136.5 104,-155.5"/>
<text text-anchor="middle" x="52" y="-143.5" font-family="Helvetica,sans-Serif" font-size="10.00">hash_vector_base</text>
</a>
</g>
</g>
<!-- Node2 -->
<g id="Node000002" class="node">
<title>Node2</title>
<g id="a_Node000002"><a xlink:href="classhvec__map.html" target="_top" xlink:title=" ">
<polygon fill="white" stroke="#bfbfbf" points="305,-293 140,-293 140,-263 305,-263 305,-293"/>
<text text-anchor="start" x="148" y="-281" font-family="Helvetica,sans-Serif" font-size="10.00">hvec_map&lt; P4::ProgramPoint,</text>
<text text-anchor="middle" x="222.5" y="-270" font-family="Helvetica,sans-Serif" font-size="10.00"> P4::Definitions * &gt;</text>
</a>
</g>
</g>
<!-- Node1&#45;&gt;Node2 -->
<g id="edge1_Node000001_Node000002" class="edge">
<title>Node1&#45;&gt;Node2</title>
<g id="a_edge1_Node000001_Node000002"><a xlink:title=" ">
<path fill="none" stroke="#8b1a1a" d="M63.12,-164.6C77.21,-188.75 105,-230.59 140,-254 145.15,-257.44 150.8,-260.4 156.66,-262.95"/>
<polygon fill="#8b1a1a" stroke="#8b1a1a" points="66.07,-162.7 58.1,-155.72 59.97,-166.14 66.07,-162.7"/>
</a>
</g>
</g>
<!-- Node3 -->
<g id="Node000003" class="node">
<title>Node3</title>
<g id="a_Node000003"><a xlink:href="classhvec__map.html" target="_top" xlink:title=" ">
<polygon fill="white" stroke="#bfbfbf" points="294,-245 151,-245 151,-215 294,-215 294,-245"/>
<text text-anchor="start" x="159" y="-233" font-family="Helvetica,sans-Serif" font-size="10.00">hvec_map&lt; P4::loc_t,</text>
<text text-anchor="middle" x="222.5" y="-222" font-family="Helvetica,sans-Serif" font-size="10.00"> const P4::LocationSet * &gt;</text>
</a>
</g>
</g>
<!-- Node1&#45;&gt;Node3 -->
<g id="edge2_Node000001_Node000003" class="edge">
<title>Node1&#45;&gt;Node3</title>
<g id="a_edge2_Node000001_Node000003"><a xlink:title=" ">
<path fill="none" stroke="#8b1a1a" d="M72.37,-162.05C89.31,-175.41 115.04,-194.09 140,-206 146.92,-209.3 154.4,-212.25 161.91,-214.86"/>
<polygon fill="#8b1a1a" stroke="#8b1a1a" points="74.35,-159.16 64.37,-155.62 69.97,-164.61 74.35,-159.16"/>
</a>
</g>
</g>
<!-- Node4 -->
<g id="Node000004" class="node">
<title>Node4</title>
<g id="a_Node000004"><a xlink:href="classhvec__map.html" target="_top" xlink:title=" ">
<polygon fill="white" stroke="#bfbfbf" points="286.5,-196.5 158.5,-196.5 158.5,-155.5 286.5,-155.5 286.5,-196.5"/>
<text text-anchor="start" x="166.5" y="-184.5" font-family="Helvetica,sans-Serif" font-size="10.00">hvec_map&lt; const P4</text>
<text text-anchor="start" x="166.5" y="-173.5" font-family="Helvetica,sans-Serif" font-size="10.00">::BaseLocation *, const</text>
<text text-anchor="middle" x="222.5" y="-162.5" font-family="Helvetica,sans-Serif" font-size="10.00"> P4::ProgramPoints * &gt;</text>
</a>
</g>
</g>
<!-- Node1&#45;&gt;Node4 -->
<g id="edge3_Node000001_Node000004" class="edge">
<title>Node1&#45;&gt;Node4</title>
<g id="a_edge3_Node000001_Node000004"><a xlink:title=" ">
<path fill="none" stroke="#8b1a1a" d="M113.86,-156.84C128.36,-159.42 143.86,-162.18 158.45,-164.77"/>
<polygon fill="#8b1a1a" stroke="#8b1a1a" points="114.47,-153.39 104.01,-155.08 113.24,-160.28 114.47,-153.39"/>
</a>
</g>
</g>
<!-- Node5 -->
<g id="Node000005" class="node">
<title>Node5</title>
<g id="a_Node000005"><a xlink:href="classhvec__map.html" target="_top" xlink:title=" ">
<polygon fill="white" stroke="#bfbfbf" points="283,-137.5 162,-137.5 162,-96.5 283,-96.5 283,-137.5"/>
<text text-anchor="start" x="170" y="-125.5" font-family="Helvetica,sans-Serif" font-size="10.00">hvec_map&lt; const IR</text>
<text text-anchor="start" x="170" y="-114.5" font-family="Helvetica,sans-Serif" font-size="10.00">::IDeclaration *, P4</text>
<text text-anchor="middle" x="222.5" y="-103.5" font-family="Helvetica,sans-Serif" font-size="10.00">::StorageLocation * &gt;</text>
</a>
</g>
</g>
<!-- Node1&#45;&gt;Node5 -->
<g id="edge4_Node000001_Node000005" class="edge">
<title>Node1&#45;&gt;Node5</title>
<g id="a_edge4_Node000001_Node000005"><a xlink:title=" ">
<path fill="none" stroke="#8b1a1a" d="M114.04,-135.49C129.6,-132.82 146.29,-129.94 161.78,-127.28"/>
<polygon fill="#8b1a1a" stroke="#8b1a1a" points="113.27,-132.07 104.01,-137.22 114.46,-138.97 113.27,-132.07"/>
</a>
</g>
</g>
<!-- Node6 -->
<g id="Node000006" class="node">
<title>Node6</title>
<g id="a_Node000006"><a xlink:href="classhvec__map.html" target="_top" xlink:title=" ">
<polygon fill="white" stroke="#bfbfbf" points="305,-78 140,-78 140,-48 305,-48 305,-78"/>
<text text-anchor="start" x="148" y="-66" font-family="Helvetica,sans-Serif" font-size="10.00">hvec_map&lt; cstring,</text>
<text text-anchor="middle" x="222.5" y="-55" font-family="Helvetica,sans-Serif" font-size="10.00"> const P4::StorageLocation * &gt;</text>
</a>
</g>
</g>
<!-- Node1&#45;&gt;Node6 -->
<g id="edge5_Node000001_Node000006" class="edge">
<title>Node1&#45;&gt;Node6</title>
<g id="a_edge5_Node000001_Node000006"><a xlink:title=" ">
<path fill="none" stroke="#8b1a1a" d="M73.07,-130.15C90.09,-117.34 115.56,-99.59 140,-88 147.76,-84.32 156.18,-81.03 164.57,-78.13"/>
<polygon fill="#8b1a1a" stroke="#8b1a1a" points="70.81,-127.48 65,-136.34 75.06,-133.04 70.81,-127.48"/>
</a>
</g>
</g>
<!-- Node7 -->
<g id="Node000007" class="node">
<title>Node7</title>
<g id="a_Node000007"><a xlink:href="classhvec__map.html" target="_top" xlink:title=" ">
<polygon fill="white" stroke="#bfbfbf" points="286.5,-30 158.5,-30 158.5,0 286.5,0 286.5,-30"/>
<text text-anchor="start" x="166.5" y="-18" font-family="Helvetica,sans-Serif" font-size="10.00">hvec_map&lt; KEY, VAL,</text>
<text text-anchor="middle" x="222.5" y="-7" font-family="Helvetica,sans-Serif" font-size="10.00"> HASH, PRED, ALLOC &gt;</text>
</a>
</g>
</g>
<!-- Node1&#45;&gt;Node7 -->
<g id="edge6_Node000001_Node000007" class="edge">
<title>Node1&#45;&gt;Node7</title>
<g id="a_edge6_Node000001_Node000007"><a xlink:title=" ">
<path fill="none" stroke="#8b1a1a" d="M63.17,-127.57C77.3,-103.65 105.14,-62.2 140,-39 145.65,-35.24 151.9,-32.06 158.35,-29.36"/>
<polygon fill="#8b1a1a" stroke="#8b1a1a" points="60.06,-125.96 58.12,-136.37 66.13,-129.44 60.06,-125.96"/>
</a>
</g>
</g>
</g>
</svg>
