<?xml version="1.0" encoding="UTF-8" standalone="no"?>
<!DOCTYPE svg PUBLIC "-//W3C//DTD SVG 1.1//EN"
 "http://www.w3.org/Graphics/SVG/1.1/DTD/svg11.dtd">
<!-- Generated by graphviz version 2.43.0 (0)
 -->
<!-- Title: P4Tools::P4Testgen::ProgramInfo Pages: 1 -->
<svg width="729pt" height="134pt"
 viewBox="0.00 0.00 729.00 134.00" xmlns="http://www.w3.org/2000/svg" xmlns:xlink="http://www.w3.org/1999/xlink">
<g id="graph0" class="graph" transform="scale(1 1) rotate(0) translate(4 130)">
<title>P4Tools::P4Testgen::ProgramInfo</title>
<!-- Node1 -->
<g id="Node000001" class="node">
<title>Node1</title>
<g id="a_Node000001"><a xlink:title="Stores target&#45;specific information about a P4 program.">
<polygon fill="#999999" stroke="#666666" points="311,-78 202,-78 202,-48 311,-48 311,-78"/>
<text text-anchor="start" x="210" y="-66" font-family="Helvetica,sans-Serif" font-size="10.00">P4Tools::P4Testgen</text>
<text text-anchor="middle" x="256.5" y="-55" font-family="Helvetica,sans-Serif" font-size="10.00">::ProgramInfo</text>
</a>
</g>
</g>
<!-- Node4 -->
<g id="Node000004" class="node">
<title>Node4</title>
<g id="a_Node000004"><a xlink:href="class_p4_tools_1_1_p4_testgen_1_1_bmv2_1_1_bmv2_v1_model_program_info.html" target="_top" xlink:title=" ">
<polygon fill="white" stroke="#bfbfbf" points="535,-126 347,-126 347,-96 535,-96 535,-126"/>
<text text-anchor="start" x="355" y="-114" font-family="Helvetica,sans-Serif" font-size="10.00">P4Tools::P4Testgen</text>
<text text-anchor="middle" x="441" y="-103" font-family="Helvetica,sans-Serif" font-size="10.00">::Bmv2::Bmv2V1ModelProgramInfo</text>
</a>
</g>
</g>
<!-- Node1&#45;&gt;Node4 -->
<g id="edge3_Node000001_Node000004" class="edge">
<title>Node1&#45;&gt;Node4</title>
<g id="a_edge3_Node000001_Node000004"><a xlink:title=" ">
<path fill="none" stroke="#63b8ff" d="M321.15,-80.15C329.84,-82.46 338.64,-84.8 347,-87 358.13,-89.93 370.01,-93.02 381.44,-95.98"/>
<polygon fill="#63b8ff" stroke="#63b8ff" points="322,-76.75 311.43,-77.55 320.19,-83.51 322,-76.75"/>
</a>
</g>
</g>
<!-- Node5 -->
<g id="Node000005" class="node">
<title>Node5</title>
<g id="a_Node000005"><a xlink:href="class_p4_tools_1_1_p4_testgen_1_1_e_b_p_f_1_1_e_b_p_f_program_info.html" target="_top" xlink:title=" ">
<polygon fill="white" stroke="#bfbfbf" points="509.5,-78 372.5,-78 372.5,-48 509.5,-48 509.5,-78"/>
<text text-anchor="start" x="380.5" y="-66" font-family="Helvetica,sans-Serif" font-size="10.00">P4Tools::P4Testgen</text>
<text text-anchor="middle" x="441" y="-55" font-family="Helvetica,sans-Serif" font-size="10.00">::EBPF::EBPFProgramInfo</text>
</a>
</g>
</g>
<!-- Node1&#45;&gt;Node5 -->
<g id="edge4_Node000001_Node000005" class="edge">
<title>Node1&#45;&gt;Node5</title>
<g id="a_edge4_Node000001_Node000005"><a xlink:title=" ">
<path fill="none" stroke="#63b8ff" d="M321.35,-63C337.85,-63 355.67,-63 372.35,-63"/>
<polygon fill="#63b8ff" stroke="#63b8ff" points="321.27,-59.5 311.27,-63 321.27,-66.5 321.27,-59.5"/>
</a>
</g>
</g>
<!-- Node6 -->
<g id="Node000006" class="node">
<title>Node6</title>
<g id="a_Node000006"><a xlink:href="class_p4_tools_1_1_p4_testgen_1_1_pna_1_1_shared_pna_program_info.html" target="_top" xlink:title=" ">
<polygon fill="white" stroke="#bfbfbf" points="520,-30 362,-30 362,0 520,0 520,-30"/>
<text text-anchor="start" x="370" y="-18" font-family="Helvetica,sans-Serif" font-size="10.00">P4Tools::P4Testgen</text>
<text text-anchor="middle" x="441" y="-7" font-family="Helvetica,sans-Serif" font-size="10.00">::Pna::SharedPnaProgramInfo</text>
</a>
</g>
</g>
<!-- Node1&#45;&gt;Node6 -->
<g id="edge5_Node000001_Node000006" class="edge">
<title>Node1&#45;&gt;Node6</title>
<g id="a_edge5_Node000001_Node000006"><a xlink:title=" ">
<path fill="none" stroke="#63b8ff" d="M321.15,-45.85C329.84,-43.54 338.64,-41.2 347,-39 358.13,-36.07 370.01,-32.98 381.44,-30.02"/>
<polygon fill="#63b8ff" stroke="#63b8ff" points="320.19,-42.49 311.43,-48.45 322,-49.25 320.19,-42.49"/>
</a>
</g>
</g>
<!-- Node2 -->
<g id="Node000002" class="node">
<title>Node2</title>
<g id="a_Node000002"><a xlink:href="class_i_castable.html" target="_top" xlink:title=" ">
<polygon fill="white" stroke="#666666" points="166,-72.5 104,-72.5 104,-53.5 166,-53.5 166,-72.5"/>
<text text-anchor="middle" x="135" y="-60.5" font-family="Helvetica,sans-Serif" font-size="10.00">ICastable</text>
</a>
</g>
</g>
<!-- Node2&#45;&gt;Node1 -->
<g id="edge1_Node000001_Node000002" class="edge">
<title>Node2&#45;&gt;Node1</title>
<g id="a_edge1_Node000001_Node000002"><a xlink:title=" ">
<path fill="none" stroke="#63b8ff" d="M176.16,-63C184.34,-63 193.06,-63 201.63,-63"/>
<polygon fill="#63b8ff" stroke="#63b8ff" points="176.15,-59.5 166.15,-63 176.15,-66.5 176.15,-59.5"/>
</a>
</g>
</g>
<!-- Node3 -->
<g id="Node000003" class="node">
<title>Node3</title>
<g id="a_Node000003"><a xlink:href="struct_r_t_t_i_1_1_base.html" target="_top" xlink:title=" ">
<polygon fill="white" stroke="#bfbfbf" points="68,-72.5 0,-72.5 0,-53.5 68,-53.5 68,-72.5"/>
<text text-anchor="middle" x="34" y="-60.5" font-family="Helvetica,sans-Serif" font-size="10.00">RTTI::Base</text>
</a>
</g>
</g>
<!-- Node3&#45;&gt;Node2 -->
<g id="edge2_Node000002_Node000003" class="edge">
<title>Node3&#45;&gt;Node2</title>
<g id="a_edge2_Node000002_Node000003"><a xlink:title=" ">
<path fill="none" stroke="#63b8ff" d="M78.44,-63C86.95,-63 95.71,-63 103.68,-63"/>
<polygon fill="#63b8ff" stroke="#63b8ff" points="78.24,-59.5 68.24,-63 78.24,-66.5 78.24,-59.5"/>
</a>
</g>
</g>
<!-- Node7 -->
<g id="Node000007" class="node">
<title>Node7</title>
<g id="a_Node000007"><a xlink:href="class_p4_tools_1_1_p4_testgen_1_1_pna_1_1_pna_dpdk_program_info.html" target="_top" xlink:title=" ">
<polygon fill="white" stroke="#bfbfbf" points="721,-30 571,-30 571,0 721,0 721,-30"/>
<text text-anchor="start" x="579" y="-18" font-family="Helvetica,sans-Serif" font-size="10.00">P4Tools::P4Testgen</text>
<text text-anchor="middle" x="646" y="-7" font-family="Helvetica,sans-Serif" font-size="10.00">::Pna::PnaDpdkProgramInfo</text>
</a>
</g>
</g>
<!-- Node6&#45;&gt;Node7 -->
<g id="edge6_Node000006_Node000007" class="edge">
<title>Node6&#45;&gt;Node7</title>
<g id="a_edge6_Node000006_Node000007"><a xlink:title=" ">
<path fill="none" stroke="#63b8ff" d="M530.43,-15C543.91,-15 557.71,-15 570.85,-15"/>
<polygon fill="#63b8ff" stroke="#63b8ff" points="530.19,-11.5 520.19,-15 530.19,-18.5 530.19,-11.5"/>
</a>
</g>
</g>
</g>
</svg>
