<?xml version="1.0" encoding="UTF-8" standalone="no"?>
<!DOCTYPE svg PUBLIC "-//W3C//DTD SVG 1.1//EN"
 "http://www.w3.org/Graphics/SVG/1.1/DTD/svg11.dtd">
<!-- Generated by graphviz version 2.43.0 (0)
 -->
<!-- Title: EBPF::EBPFHashAlgorithmPSA Pages: 1 -->
<svg width="1177pt" height="138pt"
 viewBox="0.00 0.00 1177.00 138.00" xmlns="http://www.w3.org/2000/svg" xmlns:xlink="http://www.w3.org/1999/xlink">
<g id="graph0" class="graph" transform="scale(1 1) rotate(0) translate(4 134)">
<title>EBPF::EBPFHashAlgorithmPSA</title>
<!-- Node1 -->
<g id="Node000001" class="node">
<title>Node1</title>
<g id="a_Node000001"><a xlink:title=" ">
<polygon fill="#999999" stroke="#666666" points="505,-56 341,-56 341,-37 505,-37 505,-56"/>
<text text-anchor="middle" x="423" y="-44" font-family="Helvetica,sans-Serif" font-size="10.00">EBPF::EBPFHashAlgorithmPSA</text>
</a>
</g>
</g>
<!-- Node5 -->
<g id="Node000005" class="node">
<title>Node5</title>
<g id="a_Node000005"><a xlink:href="class_e_b_p_f_1_1_c_r_c_checksum_algorithm.html" target="_top" xlink:title=" ">
<polygon fill="white" stroke="#bfbfbf" points="720,-93 554,-93 554,-74 720,-74 720,-93"/>
<text text-anchor="middle" x="637" y="-81" font-family="Helvetica,sans-Serif" font-size="10.00">EBPF::CRCChecksumAlgorithm</text>
</a>
</g>
</g>
<!-- Node1&#45;&gt;Node5 -->
<g id="edge4_Node000001_Node000005" class="edge">
<title>Node1&#45;&gt;Node5</title>
<g id="a_edge4_Node000001_Node000005"><a xlink:title=" ">
<path fill="none" stroke="#63b8ff" d="M488.82,-57.81C518.38,-62.97 552.99,-69.01 581.22,-73.94"/>
<polygon fill="#63b8ff" stroke="#63b8ff" points="489.05,-54.3 478.6,-56.03 487.84,-61.2 489.05,-54.3"/>
</a>
</g>
</g>
<!-- Node11 -->
<g id="Node000011" class="node">
<title>Node11</title>
<g id="a_Node000011"><a xlink:href="class_e_b_p_f_1_1_internet_checksum_algorithm.html" target="_top" xlink:title=" ">
<polygon fill="white" stroke="#bfbfbf" points="729,-56 545,-56 545,-37 729,-37 729,-56"/>
<text text-anchor="middle" x="637" y="-44" font-family="Helvetica,sans-Serif" font-size="10.00">EBPF::InternetChecksumAlgorithm</text>
</a>
</g>
</g>
<!-- Node1&#45;&gt;Node11 -->
<g id="edge10_Node000001_Node000011" class="edge">
<title>Node1&#45;&gt;Node11</title>
<g id="a_edge10_Node000001_Node000011"><a xlink:title=" ">
<path fill="none" stroke="#63b8ff" d="M515.18,-46.5C524.97,-46.5 534.94,-46.5 544.73,-46.5"/>
<polygon fill="#63b8ff" stroke="#63b8ff" points="515.06,-43 505.06,-46.5 515.06,-50 515.06,-43"/>
</a>
</g>
</g>
<!-- Node12 -->
<g id="Node000012" class="node">
<title>Node12</title>
<g id="a_Node000012"><a xlink:href="class_t_c_1_1_internet_checksum_algorithm_p_n_a.html" target="_top" xlink:title=" ">
<polygon fill="white" stroke="#bfbfbf" points="733,-19 541,-19 541,0 733,0 733,-19"/>
<text text-anchor="middle" x="637" y="-7" font-family="Helvetica,sans-Serif" font-size="10.00">TC::InternetChecksumAlgorithmPNA</text>
</a>
</g>
</g>
<!-- Node1&#45;&gt;Node12 -->
<g id="edge11_Node000001_Node000012" class="edge">
<title>Node1&#45;&gt;Node12</title>
<g id="a_edge11_Node000001_Node000012"><a xlink:title=" ">
<path fill="none" stroke="#63b8ff" d="M488.82,-35.19C518.38,-30.03 552.99,-23.99 581.22,-19.06"/>
<polygon fill="#63b8ff" stroke="#63b8ff" points="487.84,-31.8 478.6,-36.97 489.05,-38.7 487.84,-31.8"/>
</a>
</g>
</g>
<!-- Node2 -->
<g id="Node000002" class="node">
<title>Node2</title>
<g id="a_Node000002"><a xlink:href="class_e_b_p_f_1_1_e_b_p_f_object.html" target="_top" xlink:title="Base class for EBPF objects.">
<polygon fill="white" stroke="#666666" points="305,-56 202,-56 202,-37 305,-37 305,-56"/>
<text text-anchor="middle" x="253.5" y="-44" font-family="Helvetica,sans-Serif" font-size="10.00">EBPF::EBPFObject</text>
</a>
</g>
</g>
<!-- Node2&#45;&gt;Node1 -->
<g id="edge1_Node000001_Node000002" class="edge">
<title>Node2&#45;&gt;Node1</title>
<g id="a_edge1_Node000001_Node000002"><a xlink:title=" ">
<path fill="none" stroke="#63b8ff" d="M315.47,-46.5C323.72,-46.5 332.3,-46.5 340.83,-46.5"/>
<polygon fill="#63b8ff" stroke="#63b8ff" points="315.21,-43 305.21,-46.5 315.21,-50 315.21,-43"/>
</a>
</g>
</g>
<!-- Node3 -->
<g id="Node000003" class="node">
<title>Node3</title>
<g id="a_Node000003"><a xlink:href="class_i_castable.html" target="_top" xlink:title=" ">
<polygon fill="white" stroke="#666666" points="166,-56 104,-56 104,-37 166,-37 166,-56"/>
<text text-anchor="middle" x="135" y="-44" font-family="Helvetica,sans-Serif" font-size="10.00">ICastable</text>
</a>
</g>
</g>
<!-- Node3&#45;&gt;Node2 -->
<g id="edge2_Node000002_Node000003" class="edge">
<title>Node3&#45;&gt;Node2</title>
<g id="a_edge2_Node000002_Node000003"><a xlink:title=" ">
<path fill="none" stroke="#63b8ff" d="M176.13,-46.5C184.41,-46.5 193.22,-46.5 201.81,-46.5"/>
<polygon fill="#63b8ff" stroke="#63b8ff" points="176,-43 166,-46.5 176,-50 176,-43"/>
</a>
</g>
</g>
<!-- Node4 -->
<g id="Node000004" class="node">
<title>Node4</title>
<g id="a_Node000004"><a xlink:href="struct_r_t_t_i_1_1_base.html" target="_top" xlink:title=" ">
<polygon fill="white" stroke="#bfbfbf" points="68,-56 0,-56 0,-37 68,-37 68,-56"/>
<text text-anchor="middle" x="34" y="-44" font-family="Helvetica,sans-Serif" font-size="10.00">RTTI::Base</text>
</a>
</g>
</g>
<!-- Node4&#45;&gt;Node3 -->
<g id="edge3_Node000003_Node000004" class="edge">
<title>Node4&#45;&gt;Node3</title>
<g id="a_edge3_Node000003_Node000004"><a xlink:title=" ">
<path fill="none" stroke="#63b8ff" d="M78.44,-46.5C86.95,-46.5 95.71,-46.5 103.68,-46.5"/>
<polygon fill="#63b8ff" stroke="#63b8ff" points="78.24,-43 68.24,-46.5 78.24,-50 78.24,-43"/>
</a>
</g>
</g>
<!-- Node6 -->
<g id="Node000006" class="node">
<title>Node6</title>
<g id="a_Node000006"><a xlink:href="class_e_b_p_f_1_1_c_r_c16_checksum_algorithm.html" target="_top" xlink:title=" ">
<polygon fill="white" stroke="#666666" points="947,-130 769,-130 769,-111 947,-111 947,-130"/>
<text text-anchor="middle" x="858" y="-118" font-family="Helvetica,sans-Serif" font-size="10.00">EBPF::CRC16ChecksumAlgorithm</text>
</a>
</g>
</g>
<!-- Node5&#45;&gt;Node6 -->
<g id="edge5_Node000005_Node000006" class="edge">
<title>Node5&#45;&gt;Node6</title>
<g id="a_edge5_Node000005_Node000006"><a xlink:title=" ">
<path fill="none" stroke="#63b8ff" d="M704.56,-94.75C735.18,-99.92 771.12,-105.99 800.41,-110.94"/>
<polygon fill="#63b8ff" stroke="#63b8ff" points="704.84,-91.24 694.4,-93.03 703.68,-98.15 704.84,-91.24"/>
</a>
</g>
</g>
<!-- Node7 -->
<g id="Node000007" class="node">
<title>Node7</title>
<g id="a_Node000007"><a xlink:href="class_e_b_p_f_1_1_c_r_c32_checksum_algorithm.html" target="_top" xlink:title=" ">
<polygon fill="white" stroke="#666666" points="947,-93 769,-93 769,-74 947,-74 947,-93"/>
<text text-anchor="middle" x="858" y="-81" font-family="Helvetica,sans-Serif" font-size="10.00">EBPF::CRC32ChecksumAlgorithm</text>
</a>
</g>
</g>
<!-- Node5&#45;&gt;Node7 -->
<g id="edge6_Node000005_Node000007" class="edge">
<title>Node5&#45;&gt;Node7</title>
<g id="a_edge6_Node000005_Node000007"><a xlink:title=" ">
<path fill="none" stroke="#63b8ff" d="M730.33,-83.5C743.1,-83.5 756.18,-83.5 768.87,-83.5"/>
<polygon fill="#63b8ff" stroke="#63b8ff" points="730.17,-80 720.17,-83.5 730.17,-87 730.17,-80"/>
</a>
</g>
</g>
<!-- Node8 -->
<g id="Node000008" class="node">
<title>Node8</title>
<g id="a_Node000008"><a xlink:href="class_t_c_1_1_c_r_c_checksum_algorithm_p_n_a.html" target="_top" xlink:title=" ">
<polygon fill="white" stroke="#bfbfbf" points="945,-56 771,-56 771,-37 945,-37 945,-56"/>
<text text-anchor="middle" x="858" y="-44" font-family="Helvetica,sans-Serif" font-size="10.00">TC::CRCChecksumAlgorithmPNA</text>
</a>
</g>
</g>
<!-- Node5&#45;&gt;Node8 -->
<g id="edge7_Node000005_Node000008" class="edge">
<title>Node5&#45;&gt;Node8</title>
<g id="a_edge7_Node000005_Node000008"><a xlink:title=" ">
<path fill="none" stroke="#63b8ff" d="M704.56,-72.25C735.18,-67.08 771.12,-61.01 800.41,-56.06"/>
<polygon fill="#63b8ff" stroke="#63b8ff" points="703.68,-68.85 694.4,-73.97 704.84,-75.76 703.68,-68.85"/>
</a>
</g>
</g>
<!-- Node9 -->
<g id="Node000009" class="node">
<title>Node9</title>
<g id="a_Node000009"><a xlink:href="class_t_c_1_1_c_r_c16_checksum_algorithm_p_n_a.html" target="_top" xlink:title=" ">
<polygon fill="white" stroke="#bfbfbf" points="1169,-75 983,-75 983,-56 1169,-56 1169,-75"/>
<text text-anchor="middle" x="1076" y="-63" font-family="Helvetica,sans-Serif" font-size="10.00">TC::CRC16ChecksumAlgorithmPNA</text>
</a>
</g>
</g>
<!-- Node8&#45;&gt;Node9 -->
<g id="edge8_Node000008_Node000009" class="edge">
<title>Node8&#45;&gt;Node9</title>
<g id="a_edge8_Node000008_Node000009"><a xlink:title=" ">
<path fill="none" stroke="#63b8ff" d="M955.5,-54.99C964.58,-55.79 973.77,-56.6 982.82,-57.39"/>
<polygon fill="#63b8ff" stroke="#63b8ff" points="955.57,-51.48 945.3,-54.09 954.95,-58.45 955.57,-51.48"/>
</a>
</g>
</g>
<!-- Node10 -->
<g id="Node000010" class="node">
<title>Node10</title>
<g id="a_Node000010"><a xlink:href="class_t_c_1_1_c_r_c32_checksum_algorithm_p_n_a.html" target="_top" xlink:title=" ">
<polygon fill="white" stroke="#bfbfbf" points="1169,-38 983,-38 983,-19 1169,-19 1169,-38"/>
<text text-anchor="middle" x="1076" y="-26" font-family="Helvetica,sans-Serif" font-size="10.00">TC::CRC32ChecksumAlgorithmPNA</text>
</a>
</g>
</g>
<!-- Node8&#45;&gt;Node10 -->
<g id="edge9_Node000008_Node000010" class="edge">
<title>Node8&#45;&gt;Node10</title>
<g id="a_edge9_Node000008_Node000010"><a xlink:title=" ">
<path fill="none" stroke="#63b8ff" d="M955.5,-38.46C964.58,-37.7 973.77,-36.94 982.82,-36.18"/>
<polygon fill="#63b8ff" stroke="#63b8ff" points="954.97,-34.99 945.3,-39.31 955.56,-41.97 954.97,-34.99"/>
</a>
</g>
</g>
</g>
</svg>
