<?xml version="1.0" encoding="UTF-8" standalone="no"?>
<!DOCTYPE svg PUBLIC "-//W3C//DTD SVG 1.1//EN"
 "http://www.w3.org/Graphics/SVG/1.1/DTD/svg11.dtd">
<!-- Generated by graphviz version 2.43.0 (0)
 -->
<!-- Title: P4::ControlPlaneAPI::P4RuntimeSymbolType Pages: 1 -->
<svg width="167pt" height="173pt"
 viewBox="0.00 0.00 167.00 173.00" xmlns="http://www.w3.org/2000/svg" xmlns:xlink="http://www.w3.org/1999/xlink">
<g id="graph0" class="graph" transform="scale(1 1) rotate(0) translate(4 169)">
<title>P4::ControlPlaneAPI::P4RuntimeSymbolType</title>
<polygon fill="white" stroke="transparent" points="-4,4 -4,-169 163,-169 163,4 -4,4"/>
<!-- Node1 -->
<g id="node1" class="node">
<title>Node1</title>
<g id="a_node1"><a xlink:title=" ">
<polygon fill="#bfbfbf" stroke="black" points="12,-134.5 12,-164.5 147,-164.5 147,-134.5 12,-134.5"/>
<text text-anchor="start" x="20" y="-152.5" font-family="Helvetica,sans-Serif" font-size="10.00">P4::ControlPlaneAPI</text>
<text text-anchor="middle" x="79.5" y="-141.5" font-family="Helvetica,sans-Serif" font-size="10.00">::P4RuntimeSymbolType</text>
</a>
</g>
</g>
<!-- Node2 -->
<g id="node2" class="node">
<title>Node2</title>
<g id="a_node2"><a xlink:href="class_p4_1_1_control_plane_a_p_i_1_1_standard_1_1_symbol_type.html" target="_top" xlink:title=" ">
<polygon fill="white" stroke="black" points="14,-67.5 14,-97.5 145,-97.5 145,-67.5 14,-67.5"/>
<text text-anchor="start" x="22" y="-85.5" font-family="Helvetica,sans-Serif" font-size="10.00">P4::ControlPlaneAPI</text>
<text text-anchor="middle" x="79.5" y="-74.5" font-family="Helvetica,sans-Serif" font-size="10.00">::Standard::SymbolType</text>
</a>
</g>
</g>
<!-- Node1&#45;&gt;Node2 -->
<g id="edge1" class="edge">
<title>Node1&#45;&gt;Node2</title>
<path fill="none" stroke="midnightblue" d="M79.5,-124.11C79.5,-115.15 79.5,-105.32 79.5,-97.58"/>
<polygon fill="midnightblue" stroke="midnightblue" points="76,-124.4 79.5,-134.4 83,-124.4 76,-124.4"/>
</g>
<!-- Node3 -->
<g id="node3" class="node">
<title>Node3</title>
<g id="a_node3"><a xlink:href="class_p4_1_1_control_plane_a_p_i_1_1_standard_1_1_symbol_type_d_p_d_k.html" target="_top" xlink:title="Extends P4RuntimeSymbolType for the DPDK extern types.">
<polygon fill="white" stroke="black" points="0,-0.5 0,-30.5 159,-30.5 159,-0.5 0,-0.5"/>
<text text-anchor="start" x="8" y="-18.5" font-family="Helvetica,sans-Serif" font-size="10.00">P4::ControlPlaneAPI</text>
<text text-anchor="middle" x="79.5" y="-7.5" font-family="Helvetica,sans-Serif" font-size="10.00">::Standard::SymbolTypeDPDK</text>
</a>
</g>
</g>
<!-- Node2&#45;&gt;Node3 -->
<g id="edge2" class="edge">
<title>Node2&#45;&gt;Node3</title>
<path fill="none" stroke="midnightblue" d="M79.5,-57.11C79.5,-48.15 79.5,-38.32 79.5,-30.58"/>
<polygon fill="midnightblue" stroke="midnightblue" points="76,-57.4 79.5,-67.4 83,-57.4 76,-57.4"/>
</g>
</g>
</svg>
