<?xml version="1.0" encoding="UTF-8" standalone="no"?>
<!DOCTYPE svg PUBLIC "-//W3C//DTD SVG 1.1//EN"
 "http://www.w3.org/Graphics/SVG/1.1/DTD/svg11.dtd">
<!-- Generated by graphviz version 2.43.0 (0)
 -->
<!-- Title: P4::IR::INode Pages: 1 -->
<svg width="1052pt" height="305pt"
 viewBox="0.00 0.00 1052.00 304.50" xmlns="http://www.w3.org/2000/svg" xmlns:xlink="http://www.w3.org/1999/xlink">
<g id="graph0" class="graph" transform="scale(1 1) rotate(0) translate(4 300.5)">
<title>P4::IR::INode</title>
<!-- Node1 -->
<g id="Node000001" class="node">
<title>Node1</title>
<g id="a_Node000001"><a xlink:title=" ">
<polygon fill="#999999" stroke="#666666" points="368,-208 289,-208 289,-189 368,-189 368,-208"/>
<text text-anchor="middle" x="328.5" y="-196" font-family="Helvetica,sans-Serif" font-size="10.00">P4::IR::INode</text>
</a>
</g>
</g>
<!-- Node6 -->
<g id="Node000006" class="node">
<title>Node6</title>
<g id="a_Node000006"><a xlink:href="class_p4_1_1_i_r_1_1_i_declaration.html" target="_top" xlink:title="The Declaration interface, representing objects with names.">
<polygon fill="white" stroke="#666666" points="514,-227 404,-227 404,-208 514,-208 514,-227"/>
<text text-anchor="middle" x="459" y="-215" font-family="Helvetica,sans-Serif" font-size="10.00">P4::IR::IDeclaration</text>
</a>
</g>
</g>
<!-- Node1&#45;&gt;Node6 -->
<g id="edge5_Node000001_Node000006" class="edge">
<title>Node1&#45;&gt;Node6</title>
<g id="a_edge5_Node000001_Node000006"><a xlink:title=" ">
<path fill="none" stroke="#63b8ff" d="M378.07,-205.68C386.47,-206.92 395.26,-208.22 403.8,-209.49"/>
<polygon fill="#63b8ff" stroke="#63b8ff" points="378.46,-202.2 368.05,-204.2 377.43,-209.13 378.46,-202.2"/>
</a>
</g>
</g>
<!-- Node7 -->
<g id="Node000007" class="node">
<title>Node7</title>
<g id="a_Node000007"><a xlink:href="class_p4_1_1_i_r_1_1_node.html" target="_top" xlink:title=" ">
<polygon fill="white" stroke="#bfbfbf" points="497,-190 421,-190 421,-171 497,-171 497,-190"/>
<text text-anchor="middle" x="459" y="-178" font-family="Helvetica,sans-Serif" font-size="10.00">P4::IR::Node</text>
</a>
</g>
</g>
<!-- Node1&#45;&gt;Node7 -->
<g id="edge6_Node000001_Node000007" class="edge">
<title>Node1&#45;&gt;Node7</title>
<g id="a_edge6_Node000001_Node000007"><a xlink:title=" ">
<path fill="none" stroke="#63b8ff" d="M378.12,-191.69C392.26,-189.71 407.48,-187.58 420.8,-185.71"/>
<polygon fill="#63b8ff" stroke="#63b8ff" points="377.47,-188.25 368.05,-193.1 378.44,-195.18 377.47,-188.25"/>
</a>
</g>
</g>
<!-- Node2 -->
<g id="Node000002" class="node">
<title>Node2</title>
<g id="a_Node000002"><a xlink:href="class_p4_1_1_util_1_1_i_has_source_info.html" target="_top" xlink:title=" ">
<polygon fill="white" stroke="#bfbfbf" points="253,-245 122,-245 122,-226 253,-226 253,-245"/>
<text text-anchor="middle" x="187.5" y="-233" font-family="Helvetica,sans-Serif" font-size="10.00">P4::Util::IHasSourceInfo</text>
</a>
</g>
</g>
<!-- Node2&#45;&gt;Node1 -->
<g id="edge1_Node000001_Node000002" class="edge">
<title>Node2&#45;&gt;Node1</title>
<g id="a_edge1_Node000001_Node000002"><a xlink:title=" ">
<path fill="none" stroke="#63b8ff" d="M234.03,-223.38C252.63,-218.43 273.84,-212.78 291.34,-208.12"/>
<polygon fill="#63b8ff" stroke="#63b8ff" points="233.06,-220.02 224.3,-225.97 234.86,-226.78 233.06,-220.02"/>
</a>
</g>
</g>
<!-- Node3 -->
<g id="Node000003" class="node">
<title>Node3</title>
<g id="a_Node000003"><a xlink:href="class_p4_1_1_i_has_db_print.html" target="_top" xlink:title=" ">
<polygon fill="white" stroke="#bfbfbf" points="233.5,-208 141.5,-208 141.5,-189 233.5,-189 233.5,-208"/>
<text text-anchor="middle" x="187.5" y="-196" font-family="Helvetica,sans-Serif" font-size="10.00">P4::IHasDbPrint</text>
</a>
</g>
</g>
<!-- Node3&#45;&gt;Node1 -->
<g id="edge2_Node000001_Node000003" class="edge">
<title>Node3&#45;&gt;Node1</title>
<g id="a_edge2_Node000001_Node000003"><a xlink:title=" ">
<path fill="none" stroke="#63b8ff" d="M243.84,-198.5C258.85,-198.5 274.78,-198.5 288.67,-198.5"/>
<polygon fill="#63b8ff" stroke="#63b8ff" points="243.63,-195 233.63,-198.5 243.63,-202 243.63,-195"/>
</a>
</g>
</g>
<!-- Node4 -->
<g id="Node000004" class="node">
<title>Node4</title>
<g id="a_Node000004"><a xlink:href="class_p4_1_1_i_castable.html" target="_top" xlink:title=" ">
<polygon fill="white" stroke="#666666" points="227.5,-171 147.5,-171 147.5,-152 227.5,-152 227.5,-171"/>
<text text-anchor="middle" x="187.5" y="-159" font-family="Helvetica,sans-Serif" font-size="10.00">P4::ICastable</text>
</a>
</g>
</g>
<!-- Node4&#45;&gt;Node1 -->
<g id="edge3_Node000001_Node000004" class="edge">
<title>Node4&#45;&gt;Node1</title>
<g id="a_edge3_Node000001_Node000004"><a xlink:title=" ">
<path fill="none" stroke="#63b8ff" d="M234.03,-173.62C252.63,-178.57 273.84,-184.22 291.34,-188.88"/>
<polygon fill="#63b8ff" stroke="#63b8ff" points="234.86,-170.22 224.3,-171.03 233.06,-176.98 234.86,-170.22"/>
</a>
</g>
</g>
<!-- Node5 -->
<g id="Node000005" class="node">
<title>Node5</title>
<g id="a_Node000005"><a xlink:href="struct_p4_1_1_r_t_t_i_1_1_base.html" target="_top" xlink:title=" ">
<polygon fill="white" stroke="#bfbfbf" points="86,-171 0,-171 0,-152 86,-152 86,-171"/>
<text text-anchor="middle" x="43" y="-159" font-family="Helvetica,sans-Serif" font-size="10.00">P4::RTTI::Base</text>
</a>
</g>
</g>
<!-- Node5&#45;&gt;Node4 -->
<g id="edge4_Node000004_Node000005" class="edge">
<title>Node5&#45;&gt;Node4</title>
<g id="a_edge4_Node000004_Node000005"><a xlink:title=" ">
<path fill="none" stroke="#63b8ff" d="M96.62,-161.5C113.45,-161.5 131.77,-161.5 147.46,-161.5"/>
<polygon fill="#63b8ff" stroke="#63b8ff" points="96.37,-158 86.37,-161.5 96.37,-165 96.37,-158"/>
</a>
</g>
</g>
<!-- Node8 -->
<g id="Node000008" class="node">
<title>Node8</title>
<g id="a_Node000008"><a xlink:href="class_p4_1_1_i_r_1_1_name_map.html" target="_top" xlink:title=" ">
<polygon fill="white" stroke="#bfbfbf" points="694,-243.5 569,-243.5 569,-213.5 694,-213.5 694,-243.5"/>
<text text-anchor="start" x="577" y="-231.5" font-family="Helvetica,sans-Serif" font-size="10.00">P4::IR::NameMap&lt; T,</text>
<text text-anchor="middle" x="631.5" y="-220.5" font-family="Helvetica,sans-Serif" font-size="10.00"> MAP, COMP, ALLOC &gt;</text>
</a>
</g>
</g>
<!-- Node7&#45;&gt;Node8 -->
<g id="edge7_Node000007_Node000008" class="edge">
<title>Node7&#45;&gt;Node8</title>
<g id="a_edge7_Node000007_Node000008"><a xlink:title=" ">
<path fill="none" stroke="#63b8ff" d="M503.95,-192.87C526.24,-199.15 553.5,-206.82 576.99,-213.44"/>
<polygon fill="#63b8ff" stroke="#63b8ff" points="504.67,-189.44 494.09,-190.1 502.77,-196.18 504.67,-189.44"/>
</a>
</g>
</g>
<!-- Node9 -->
<g id="Node000009" class="node">
<title>Node9</title>
<g id="a_Node000009"><a xlink:href="class_p4_1_1_i_r_1_1_node_map.html" target="_top" xlink:title=" ">
<polygon fill="white" stroke="#bfbfbf" points="713,-195.5 550,-195.5 550,-165.5 713,-165.5 713,-195.5"/>
<text text-anchor="start" x="558" y="-183.5" font-family="Helvetica,sans-Serif" font-size="10.00">P4::IR::NodeMap&lt; KEY,</text>
<text text-anchor="middle" x="631.5" y="-172.5" font-family="Helvetica,sans-Serif" font-size="10.00"> VALUE, MAP, COMP, ALLOC &gt;</text>
</a>
</g>
</g>
<!-- Node7&#45;&gt;Node9 -->
<g id="edge8_Node000007_Node000009" class="edge">
<title>Node7&#45;&gt;Node9</title>
<g id="a_edge8_Node000007_Node000009"><a xlink:title=" ">
<path fill="none" stroke="#63b8ff" d="M507.6,-180.5C520.74,-180.5 535.37,-180.5 549.83,-180.5"/>
<polygon fill="#63b8ff" stroke="#63b8ff" points="507.42,-177 497.42,-180.5 507.42,-184 507.42,-177"/>
</a>
</g>
</g>
<!-- Node10 -->
<g id="Node000010" class="node">
<title>Node10</title>
<g id="a_Node000010"><a xlink:href="class_p4_1_1_i_r_1_1_vector_base.html" target="_top" xlink:title=" ">
<polygon fill="white" stroke="#bfbfbf" points="684,-147 579,-147 579,-128 684,-128 684,-147"/>
<text text-anchor="middle" x="631.5" y="-135" font-family="Helvetica,sans-Serif" font-size="10.00">P4::IR::VectorBase</text>
</a>
</g>
</g>
<!-- Node7&#45;&gt;Node10 -->
<g id="edge9_Node000007_Node000010" class="edge">
<title>Node7&#45;&gt;Node10</title>
<g id="a_edge9_Node000007_Node000010"><a xlink:title=" ">
<path fill="none" stroke="#63b8ff" d="M504.68,-168.31C519.12,-164.45 535.22,-160.21 550,-156.5 562.67,-153.32 576.51,-149.99 589.08,-147.04"/>
<polygon fill="#63b8ff" stroke="#63b8ff" points="503.74,-164.94 494.99,-170.92 505.55,-171.7 503.74,-164.94"/>
</a>
</g>
</g>
<!-- Node11 -->
<g id="Node000011" class="node">
<title>Node11</title>
<g id="a_Node000011"><a xlink:href="class_p4_1_1_i_r_1_1_vector.html" target="_top" xlink:title=" ">
<polygon fill="white" stroke="#bfbfbf" points="855.5,-296.5 753.5,-296.5 753.5,-266.5 855.5,-266.5 855.5,-296.5"/>
<text text-anchor="start" x="761.5" y="-284.5" font-family="Helvetica,sans-Serif" font-size="10.00">P4::IR::Vector&lt; IR</text>
<text text-anchor="middle" x="804.5" y="-273.5" font-family="Helvetica,sans-Serif" font-size="10.00">::Type &gt;</text>
</a>
</g>
</g>
<!-- Node10&#45;&gt;Node11 -->
<g id="edge10_Node000010_Node000011" class="edge">
<title>Node10&#45;&gt;Node11</title>
<g id="a_edge10_Node000010_Node000011"><a xlink:title=" ">
<path fill="none" stroke="#63b8ff" d="M693.96,-145.05C700.92,-147.84 707.48,-151.56 713,-156.5 748.51,-188.28 716.54,-222.6 749,-257.5 752.17,-260.91 755.91,-263.86 759.92,-266.41"/>
<polygon fill="#63b8ff" stroke="#63b8ff" points="694.88,-141.67 684.29,-141.79 692.65,-148.3 694.88,-141.67"/>
</a>
</g>
</g>
<!-- Node12 -->
<g id="Node000012" class="node">
<title>Node12</title>
<g id="a_Node000012"><a xlink:href="class_p4_1_1_i_r_1_1_vector.html" target="_top" xlink:title=" ">
<polygon fill="white" stroke="#bfbfbf" points="856.5,-248.5 752.5,-248.5 752.5,-218.5 856.5,-218.5 856.5,-248.5"/>
<text text-anchor="start" x="760.5" y="-236.5" font-family="Helvetica,sans-Serif" font-size="10.00">P4::IR::Vector&lt; P4</text>
<text text-anchor="middle" x="804.5" y="-225.5" font-family="Helvetica,sans-Serif" font-size="10.00">::IR::Node &gt;</text>
</a>
</g>
</g>
<!-- Node10&#45;&gt;Node12 -->
<g id="edge11_Node000010_Node000012" class="edge">
<title>Node10&#45;&gt;Node12</title>
<g id="a_edge11_Node000010_Node000012"><a xlink:title=" ">
<path fill="none" stroke="#63b8ff" d="M694.17,-146.95C700.84,-149.43 707.28,-152.56 713,-156.5 736.45,-172.65 727.12,-191.28 749,-209.5 753.05,-212.87 757.65,-215.86 762.42,-218.47"/>
<polygon fill="#63b8ff" stroke="#63b8ff" points="694.87,-143.5 684.28,-143.75 692.72,-150.16 694.87,-143.5"/>
</a>
</g>
</g>
<!-- Node14 -->
<g id="Node000014" class="node">
<title>Node14</title>
<g id="a_Node000014"><a xlink:href="class_p4_1_1_i_r_1_1_vector.html" target="_top" xlink:title=" ">
<polygon fill="white" stroke="#bfbfbf" points="855.5,-200.5 753.5,-200.5 753.5,-170.5 855.5,-170.5 855.5,-200.5"/>
<text text-anchor="start" x="761.5" y="-188.5" font-family="Helvetica,sans-Serif" font-size="10.00">P4::IR::Vector&lt; IR</text>
<text text-anchor="middle" x="804.5" y="-177.5" font-family="Helvetica,sans-Serif" font-size="10.00">::StatOrDecl &gt;</text>
</a>
</g>
</g>
<!-- Node10&#45;&gt;Node14 -->
<g id="edge13_Node000010_Node000014" class="edge">
<title>Node10&#45;&gt;Node14</title>
<g id="a_edge13_Node000010_Node000014"><a xlink:title=" ">
<path fill="none" stroke="#63b8ff" d="M685.53,-149.39C694.72,-151.63 704.16,-154.04 713,-156.5 728.1,-160.69 744.46,-165.77 759.06,-170.49"/>
<polygon fill="#63b8ff" stroke="#63b8ff" points="686.23,-145.96 675.69,-147.04 684.6,-152.77 686.23,-145.96"/>
</a>
</g>
</g>
<!-- Node16 -->
<g id="Node000016" class="node">
<title>Node16</title>
<g id="a_Node000016"><a xlink:href="class_p4_1_1_i_r_1_1_vector.html" target="_top" xlink:title=" ">
<polygon fill="white" stroke="#bfbfbf" points="855.5,-152.5 753.5,-152.5 753.5,-122.5 855.5,-122.5 855.5,-152.5"/>
<text text-anchor="start" x="761.5" y="-140.5" font-family="Helvetica,sans-Serif" font-size="10.00">P4::IR::Vector&lt; IR</text>
<text text-anchor="middle" x="804.5" y="-129.5" font-family="Helvetica,sans-Serif" font-size="10.00">::Declaration &gt;</text>
</a>
</g>
</g>
<!-- Node10&#45;&gt;Node16 -->
<g id="edge15_Node000010_Node000016" class="edge">
<title>Node10&#45;&gt;Node16</title>
<g id="a_edge15_Node000010_Node000016"><a xlink:title=" ">
<path fill="none" stroke="#63b8ff" d="M694.51,-137.5C713.86,-137.5 734.95,-137.5 753.37,-137.5"/>
<polygon fill="#63b8ff" stroke="#63b8ff" points="694.27,-134 684.27,-137.5 694.27,-141 694.27,-134"/>
</a>
</g>
</g>
<!-- Node18 -->
<g id="Node000018" class="node">
<title>Node18</title>
<g id="a_Node000018"><a xlink:href="class_p4_1_1_i_r_1_1_vector.html" target="_top" xlink:title=" ">
<polygon fill="white" stroke="#bfbfbf" points="855.5,-104.5 753.5,-104.5 753.5,-74.5 855.5,-74.5 855.5,-104.5"/>
<text text-anchor="start" x="761.5" y="-92.5" font-family="Helvetica,sans-Serif" font-size="10.00">P4::IR::Vector&lt; IR</text>
<text text-anchor="middle" x="804.5" y="-81.5" font-family="Helvetica,sans-Serif" font-size="10.00">::Argument &gt;</text>
</a>
</g>
</g>
<!-- Node10&#45;&gt;Node18 -->
<g id="edge17_Node000010_Node000018" class="edge">
<title>Node10&#45;&gt;Node18</title>
<g id="a_edge17_Node000010_Node000018"><a xlink:title=" ">
<path fill="none" stroke="#63b8ff" d="M676.41,-125.17C699.96,-118.56 729.07,-110.39 753.48,-103.54"/>
<polygon fill="#63b8ff" stroke="#63b8ff" points="675.38,-121.83 666.69,-127.9 677.27,-128.57 675.38,-121.83"/>
</a>
</g>
</g>
<!-- Node19 -->
<g id="Node000019" class="node">
<title>Node19</title>
<g id="a_Node000019"><a xlink:href="class_p4_1_1_i_r_1_1_vector.html" target="_top" xlink:title=" ">
<polygon fill="white" stroke="#bfbfbf" points="860,-56 749,-56 749,-37 860,-37 860,-56"/>
<text text-anchor="middle" x="804.5" y="-44" font-family="Helvetica,sans-Serif" font-size="10.00">P4::IR::Vector&lt; N &gt;</text>
</a>
</g>
</g>
<!-- Node10&#45;&gt;Node19 -->
<g id="edge18_Node000010_Node000019" class="edge">
<title>Node10&#45;&gt;Node19</title>
<g id="a_edge18_Node000010_Node000019"><a xlink:title=" ">
<path fill="none" stroke="#63b8ff" d="M654.21,-122.08C677.02,-106.36 714.32,-82.02 749,-65.5 756.42,-61.97 764.68,-58.75 772.47,-56"/>
<polygon fill="#63b8ff" stroke="#63b8ff" points="652.14,-119.25 645.93,-127.84 656.14,-125 652.14,-119.25"/>
</a>
</g>
</g>
<!-- Node20 -->
<g id="Node000020" class="node">
<title>Node20</title>
<g id="a_Node000020"><a xlink:href="class_p4_1_1_i_r_1_1_vector.html" target="_top" xlink:title=" ">
<polygon fill="white" stroke="#bfbfbf" points="859.5,-19 749.5,-19 749.5,0 859.5,0 859.5,-19"/>
<text text-anchor="middle" x="804.5" y="-7" font-family="Helvetica,sans-Serif" font-size="10.00">P4::IR::Vector&lt; T &gt;</text>
</a>
</g>
</g>
<!-- Node10&#45;&gt;Node20 -->
<g id="edge19_Node000010_Node000020" class="edge">
<title>Node10&#45;&gt;Node20</title>
<g id="a_edge19_Node000010_Node000020"><a xlink:title=" ">
<path fill="none" stroke="#63b8ff" d="M646.77,-119.84C667.11,-95.77 706.66,-52.76 749,-27.5 754.56,-24.18 760.81,-21.39 767.05,-19.07"/>
<polygon fill="#63b8ff" stroke="#63b8ff" points="643.87,-117.85 640.18,-127.79 649.26,-122.32 643.87,-117.85"/>
</a>
</g>
</g>
<!-- Node13 -->
<g id="Node000013" class="node">
<title>Node13</title>
<g id="a_Node000013"><a xlink:href="class_p4_1_1_i_r_1_1_indexed_vector.html" target="_top" xlink:title=" ">
<polygon fill="white" stroke="#666666" points="1029.5,-248.5 910.5,-248.5 910.5,-218.5 1029.5,-218.5 1029.5,-248.5"/>
<text text-anchor="start" x="918.5" y="-236.5" font-family="Helvetica,sans-Serif" font-size="10.00">P4::IR::IndexedVector</text>
<text text-anchor="middle" x="970" y="-225.5" font-family="Helvetica,sans-Serif" font-size="10.00">&lt; P4::IR::Node &gt;</text>
</a>
</g>
</g>
<!-- Node12&#45;&gt;Node13 -->
<g id="edge12_Node000012_Node000013" class="edge">
<title>Node12&#45;&gt;Node13</title>
<g id="a_edge12_Node000012_Node000013"><a xlink:title=" ">
<path fill="none" stroke="#63b8ff" d="M866.98,-233.5C881.23,-233.5 896.36,-233.5 910.48,-233.5"/>
<polygon fill="#63b8ff" stroke="#63b8ff" points="866.78,-230 856.78,-233.5 866.78,-237 866.78,-230"/>
</a>
</g>
</g>
<!-- Node15 -->
<g id="Node000015" class="node">
<title>Node15</title>
<g id="a_Node000015"><a xlink:href="class_p4_1_1_i_r_1_1_indexed_vector.html" target="_top" xlink:title=" ">
<polygon fill="white" stroke="#666666" points="1029.5,-200.5 910.5,-200.5 910.5,-170.5 1029.5,-170.5 1029.5,-200.5"/>
<text text-anchor="start" x="918.5" y="-188.5" font-family="Helvetica,sans-Serif" font-size="10.00">P4::IR::IndexedVector</text>
<text text-anchor="middle" x="970" y="-177.5" font-family="Helvetica,sans-Serif" font-size="10.00">&lt; IR::StatOrDecl &gt;</text>
</a>
</g>
</g>
<!-- Node14&#45;&gt;Node15 -->
<g id="edge14_Node000014_Node000015" class="edge">
<title>Node14&#45;&gt;Node15</title>
<g id="a_edge14_Node000014_Node000015"><a xlink:title=" ">
<path fill="none" stroke="#63b8ff" d="M866.23,-185.5C880.7,-185.5 896.1,-185.5 910.47,-185.5"/>
<polygon fill="#63b8ff" stroke="#63b8ff" points="865.89,-182 855.89,-185.5 865.89,-189 865.89,-182"/>
</a>
</g>
</g>
<!-- Node17 -->
<g id="Node000017" class="node">
<title>Node17</title>
<g id="a_Node000017"><a xlink:href="class_p4_1_1_i_r_1_1_indexed_vector.html" target="_top" xlink:title=" ">
<polygon fill="white" stroke="#666666" points="1029.5,-152.5 910.5,-152.5 910.5,-122.5 1029.5,-122.5 1029.5,-152.5"/>
<text text-anchor="start" x="918.5" y="-140.5" font-family="Helvetica,sans-Serif" font-size="10.00">P4::IR::IndexedVector</text>
<text text-anchor="middle" x="970" y="-129.5" font-family="Helvetica,sans-Serif" font-size="10.00">&lt; IR::Declaration &gt;</text>
</a>
</g>
</g>
<!-- Node16&#45;&gt;Node17 -->
<g id="edge16_Node000016_Node000017" class="edge">
<title>Node16&#45;&gt;Node17</title>
<g id="a_edge16_Node000016_Node000017"><a xlink:title=" ">
<path fill="none" stroke="#63b8ff" d="M866.23,-137.5C880.7,-137.5 896.1,-137.5 910.47,-137.5"/>
<polygon fill="#63b8ff" stroke="#63b8ff" points="865.89,-134 855.89,-137.5 865.89,-141 865.89,-134"/>
</a>
</g>
</g>
<!-- Node21 -->
<g id="Node000021" class="node">
<title>Node21</title>
<g id="a_Node000021"><a xlink:href="class_p4_1_1_i_r_1_1_indexed_vector.html" target="_top" xlink:title=" ">
<polygon fill="white" stroke="#666666" points="1044,-19 896,-19 896,0 1044,0 1044,-19"/>
<text text-anchor="middle" x="970" y="-7" font-family="Helvetica,sans-Serif" font-size="10.00">P4::IR::IndexedVector&lt; T &gt;</text>
</a>
</g>
</g>
<!-- Node20&#45;&gt;Node21 -->
<g id="edge20_Node000020_Node000021" class="edge">
<title>Node20&#45;&gt;Node21</title>
<g id="a_edge20_Node000020_Node000021"><a xlink:title=" ">
<path fill="none" stroke="#63b8ff" d="M870.11,-9.5C878.57,-9.5 887.29,-9.5 895.88,-9.5"/>
<polygon fill="#63b8ff" stroke="#63b8ff" points="869.94,-6 859.94,-9.5 869.94,-13 869.94,-6"/>
</a>
</g>
</g>
</g>
</svg>
