<?xml version="1.0" encoding="UTF-8" standalone="no"?>
<!DOCTYPE svg PUBLIC "-//W3C//DTD SVG 1.1//EN"
 "http://www.w3.org/Graphics/SVG/1.1/DTD/svg11.dtd">
<!-- Generated by graphviz version 2.43.0 (0)
 -->
<!-- Title: P4Tools::P4Testgen::TableMatch Pages: 1 -->
<svg width="635pt" height="323pt"
 viewBox="0.00 0.00 635.00 323.00" xmlns="http://www.w3.org/2000/svg" xmlns:xlink="http://www.w3.org/1999/xlink">
<g id="graph0" class="graph" transform="scale(1 1) rotate(0) translate(4 319)">
<title>P4Tools::P4Testgen::TableMatch</title>
<polygon fill="white" stroke="transparent" points="-4,4 -4,-319 631,-319 631,4 -4,4"/>
<!-- Node1 -->
<g id="node1" class="node">
<title>Node1</title>
<g id="a_node1"><a xlink:title=" ">
<polygon fill="#bfbfbf" stroke="black" points="347,-142.5 347,-172.5 456,-172.5 456,-142.5 347,-142.5"/>
<text text-anchor="start" x="355" y="-160.5" font-family="Helvetica,sans-Serif" font-size="10.00">P4Tools::P4Testgen</text>
<text text-anchor="middle" x="401.5" y="-149.5" font-family="Helvetica,sans-Serif" font-size="10.00">::TableMatch</text>
</a>
</g>
</g>
<!-- Node5 -->
<g id="node5" class="node">
<title>Node5</title>
<g id="a_node5"><a xlink:href="class_p4_tools_1_1_p4_testgen_1_1_bmv2_1_1_optional.html" target="_top" xlink:title=" ">
<polygon fill="white" stroke="black" points="505,-284.5 505,-314.5 614,-314.5 614,-284.5 505,-284.5"/>
<text text-anchor="start" x="513" y="-302.5" font-family="Helvetica,sans-Serif" font-size="10.00">P4Tools::P4Testgen</text>
<text text-anchor="middle" x="559.5" y="-291.5" font-family="Helvetica,sans-Serif" font-size="10.00">::Bmv2::Optional</text>
</a>
</g>
</g>
<!-- Node1&#45;&gt;Node5 -->
<g id="edge4" class="edge">
<title>Node1&#45;&gt;Node5</title>
<path fill="none" stroke="midnightblue" d="M415.25,-181.79C430.3,-208.28 457.69,-250.26 492,-275.5 496.65,-278.92 501.83,-281.89 507.19,-284.46"/>
<polygon fill="midnightblue" stroke="midnightblue" points="418.18,-179.84 410.27,-172.79 412.05,-183.23 418.18,-179.84"/>
</g>
<!-- Node6 -->
<g id="node6" class="node">
<title>Node6</title>
<g id="a_node6"><a xlink:href="class_p4_tools_1_1_p4_testgen_1_1_bmv2_1_1_range.html" target="_top" xlink:title=" ">
<polygon fill="white" stroke="black" points="505,-235.5 505,-265.5 614,-265.5 614,-235.5 505,-235.5"/>
<text text-anchor="start" x="513" y="-253.5" font-family="Helvetica,sans-Serif" font-size="10.00">P4Tools::P4Testgen</text>
<text text-anchor="middle" x="559.5" y="-242.5" font-family="Helvetica,sans-Serif" font-size="10.00">::Bmv2::Range</text>
</a>
</g>
</g>
<!-- Node1&#45;&gt;Node6 -->
<g id="edge5" class="edge">
<title>Node1&#45;&gt;Node6</title>
<path fill="none" stroke="midnightblue" d="M426.75,-179.55C443.98,-194.35 468.2,-213.45 492,-226.5 498.03,-229.8 504.6,-232.81 511.19,-235.49"/>
<polygon fill="midnightblue" stroke="midnightblue" points="428.72,-176.62 418.89,-172.68 424.11,-181.9 428.72,-176.62"/>
</g>
<!-- Node7 -->
<g id="node7" class="node">
<title>Node7</title>
<g id="a_node7"><a xlink:href="class_p4_tools_1_1_p4_testgen_1_1_exact.html" target="_top" xlink:title=" ">
<polygon fill="white" stroke="black" points="505,-186.5 505,-216.5 614,-216.5 614,-186.5 505,-186.5"/>
<text text-anchor="start" x="513" y="-204.5" font-family="Helvetica,sans-Serif" font-size="10.00">P4Tools::P4Testgen</text>
<text text-anchor="middle" x="559.5" y="-193.5" font-family="Helvetica,sans-Serif" font-size="10.00">::Exact</text>
</a>
</g>
</g>
<!-- Node1&#45;&gt;Node7 -->
<g id="edge6" class="edge">
<title>Node1&#45;&gt;Node7</title>
<path fill="none" stroke="midnightblue" d="M465.65,-175.31C478.78,-179.02 492.49,-182.88 505.23,-186.47"/>
<polygon fill="midnightblue" stroke="midnightblue" points="466.32,-171.87 455.75,-172.52 464.42,-178.6 466.32,-171.87"/>
</g>
<!-- Node8 -->
<g id="node8" class="node">
<title>Node8</title>
<g id="a_node8"><a xlink:href="class_p4_tools_1_1_p4_testgen_1_1_l_p_m.html" target="_top" xlink:title=" ">
<polygon fill="white" stroke="black" points="492,-148 492,-167 627,-167 627,-148 492,-148"/>
<text text-anchor="middle" x="559.5" y="-155" font-family="Helvetica,sans-Serif" font-size="10.00">P4Tools::P4Testgen::LPM</text>
</a>
</g>
</g>
<!-- Node1&#45;&gt;Node8 -->
<g id="edge7" class="edge">
<title>Node1&#45;&gt;Node8</title>
<path fill="none" stroke="midnightblue" d="M466.29,-157.5C474.69,-157.5 483.31,-157.5 491.76,-157.5"/>
<polygon fill="midnightblue" stroke="midnightblue" points="466.19,-154 456.19,-157.5 466.19,-161 466.19,-154"/>
</g>
<!-- Node9 -->
<g id="node9" class="node">
<title>Node9</title>
<g id="a_node9"><a xlink:href="class_p4_tools_1_1_p4_testgen_1_1_pna_1_1_optional.html" target="_top" xlink:title=" ">
<polygon fill="white" stroke="black" points="505,-98.5 505,-128.5 614,-128.5 614,-98.5 505,-98.5"/>
<text text-anchor="start" x="513" y="-116.5" font-family="Helvetica,sans-Serif" font-size="10.00">P4Tools::P4Testgen</text>
<text text-anchor="middle" x="559.5" y="-105.5" font-family="Helvetica,sans-Serif" font-size="10.00">::Pna::Optional</text>
</a>
</g>
</g>
<!-- Node1&#45;&gt;Node9 -->
<g id="edge8" class="edge">
<title>Node1&#45;&gt;Node9</title>
<path fill="none" stroke="midnightblue" d="M465.65,-139.69C478.78,-135.98 492.49,-132.12 505.23,-128.53"/>
<polygon fill="midnightblue" stroke="midnightblue" points="464.42,-136.4 455.75,-142.48 466.32,-143.13 464.42,-136.4"/>
</g>
<!-- Node10 -->
<g id="node10" class="node">
<title>Node10</title>
<g id="a_node10"><a xlink:href="class_p4_tools_1_1_p4_testgen_1_1_pna_1_1_range.html" target="_top" xlink:title=" ">
<polygon fill="white" stroke="black" points="505,-49.5 505,-79.5 614,-79.5 614,-49.5 505,-49.5"/>
<text text-anchor="start" x="513" y="-67.5" font-family="Helvetica,sans-Serif" font-size="10.00">P4Tools::P4Testgen</text>
<text text-anchor="middle" x="559.5" y="-56.5" font-family="Helvetica,sans-Serif" font-size="10.00">::Pna::Range</text>
</a>
</g>
</g>
<!-- Node1&#45;&gt;Node10 -->
<g id="edge9" class="edge">
<title>Node1&#45;&gt;Node10</title>
<path fill="none" stroke="midnightblue" d="M426.75,-135.45C443.98,-120.65 468.2,-101.55 492,-88.5 498.03,-85.2 504.6,-82.19 511.19,-79.51"/>
<polygon fill="midnightblue" stroke="midnightblue" points="424.11,-133.1 418.89,-142.32 428.72,-138.38 424.11,-133.1"/>
</g>
<!-- Node11 -->
<g id="node11" class="node">
<title>Node11</title>
<g id="a_node11"><a xlink:href="class_p4_tools_1_1_p4_testgen_1_1_ternary.html" target="_top" xlink:title=" ">
<polygon fill="white" stroke="black" points="505,-0.5 505,-30.5 614,-30.5 614,-0.5 505,-0.5"/>
<text text-anchor="start" x="513" y="-18.5" font-family="Helvetica,sans-Serif" font-size="10.00">P4Tools::P4Testgen</text>
<text text-anchor="middle" x="559.5" y="-7.5" font-family="Helvetica,sans-Serif" font-size="10.00">::Ternary</text>
</a>
</g>
</g>
<!-- Node1&#45;&gt;Node11 -->
<g id="edge10" class="edge">
<title>Node1&#45;&gt;Node11</title>
<path fill="none" stroke="midnightblue" d="M415.25,-133.21C430.3,-106.72 457.69,-64.74 492,-39.5 496.65,-36.08 501.83,-33.11 507.19,-30.54"/>
<polygon fill="midnightblue" stroke="midnightblue" points="412.05,-131.77 410.27,-142.21 418.18,-135.16 412.05,-131.77"/>
</g>
<!-- Node2 -->
<g id="node2" class="node">
<title>Node2</title>
<g id="a_node2"><a xlink:href="class_p4_tools_1_1_p4_testgen_1_1_test_object.html" target="_top" xlink:title=" ">
<polygon fill="white" stroke="black" points="202,-142.5 202,-172.5 311,-172.5 311,-142.5 202,-142.5"/>
<text text-anchor="start" x="210" y="-160.5" font-family="Helvetica,sans-Serif" font-size="10.00">P4Tools::P4Testgen</text>
<text text-anchor="middle" x="256.5" y="-149.5" font-family="Helvetica,sans-Serif" font-size="10.00">::TestObject</text>
</a>
</g>
</g>
<!-- Node2&#45;&gt;Node1 -->
<g id="edge1" class="edge">
<title>Node2&#45;&gt;Node1</title>
<path fill="none" stroke="midnightblue" d="M321.32,-157.5C329.75,-157.5 338.31,-157.5 346.54,-157.5"/>
<polygon fill="midnightblue" stroke="midnightblue" points="321.15,-154 311.15,-157.5 321.15,-161 321.15,-154"/>
</g>
<!-- Node3 -->
<g id="node3" class="node">
<title>Node3</title>
<g id="a_node3"><a xlink:href="class_i_castable.html" target="_top" xlink:title=" ">
<polygon fill="white" stroke="black" points="104,-148 104,-167 166,-167 166,-148 104,-148"/>
<text text-anchor="middle" x="135" y="-155" font-family="Helvetica,sans-Serif" font-size="10.00">ICastable</text>
</a>
</g>
</g>
<!-- Node3&#45;&gt;Node2 -->
<g id="edge2" class="edge">
<title>Node3&#45;&gt;Node2</title>
<path fill="none" stroke="midnightblue" d="M176.16,-157.5C184.34,-157.5 193.06,-157.5 201.63,-157.5"/>
<polygon fill="midnightblue" stroke="midnightblue" points="176.15,-154 166.15,-157.5 176.15,-161 176.15,-154"/>
</g>
<!-- Node4 -->
<g id="node4" class="node">
<title>Node4</title>
<g id="a_node4"><a xlink:href="struct_r_t_t_i_1_1_base.html" target="_top" xlink:title=" ">
<polygon fill="white" stroke="black" points="0,-148 0,-167 68,-167 68,-148 0,-148"/>
<text text-anchor="middle" x="34" y="-155" font-family="Helvetica,sans-Serif" font-size="10.00">RTTI::Base</text>
</a>
</g>
</g>
<!-- Node4&#45;&gt;Node3 -->
<g id="edge3" class="edge">
<title>Node4&#45;&gt;Node3</title>
<path fill="none" stroke="midnightblue" d="M78.44,-157.5C86.95,-157.5 95.71,-157.5 103.68,-157.5"/>
<polygon fill="midnightblue" stroke="midnightblue" points="78.24,-154 68.24,-157.5 78.24,-161 78.24,-154"/>
</g>
</g>
</svg>
