<?xml version="1.0" encoding="UTF-8" standalone="no"?>
<!DOCTYPE svg PUBLIC "-//W3C//DTD SVG 1.1//EN"
 "http://www.w3.org/Graphics/SVG/1.1/DTD/svg11.dtd">
<!-- Generated by graphviz version 2.43.0 (0)
 -->
<!-- Title: P4::TypeVariableSubstitutionVisitor Pages: 1 -->
<svg width="314pt" height="207pt"
 viewBox="0.00 0.00 313.50 207.00" xmlns="http://www.w3.org/2000/svg" xmlns:xlink="http://www.w3.org/1999/xlink">
<g id="graph0" class="graph" transform="scale(1 1) rotate(0) translate(4 203)">
<title>P4::TypeVariableSubstitutionVisitor</title>
<polygon fill="white" stroke="transparent" points="-4,4 -4,-203 309.5,-203 309.5,4 -4,4"/>
<!-- Node1 -->
<g id="node1" class="node">
<title>Node1</title>
<g id="a_node1"><a xlink:title=" ">
<polygon fill="#bfbfbf" stroke="black" points="73.5,-56.5 73.5,-86.5 228.5,-86.5 228.5,-56.5 73.5,-56.5"/>
<text text-anchor="start" x="81.5" y="-74.5" font-family="Helvetica,sans-Serif" font-size="10.00">P4::TypeVariableSubstitution</text>
<text text-anchor="middle" x="151" y="-63.5" font-family="Helvetica,sans-Serif" font-size="10.00">Visitor</text>
</a>
</g>
</g>
<!-- Node4 -->
<g id="node4" class="node">
<title>Node4</title>
<g id="a_node4"><a xlink:href="class_p4_1_1_substitute_parameters.html" target="_top" xlink:title=" ">
<polygon fill="white" stroke="black" points="0,-0.5 0,-19.5 140,-19.5 140,-0.5 0,-0.5"/>
<text text-anchor="middle" x="70" y="-7.5" font-family="Helvetica,sans-Serif" font-size="10.00">P4::SubstituteParameters</text>
</a>
</g>
</g>
<!-- Node1&#45;&gt;Node4 -->
<g id="edge3" class="edge">
<title>Node1&#45;&gt;Node4</title>
<path fill="none" stroke="midnightblue" d="M123.35,-50.19C109.17,-39.77 92.64,-27.63 81.79,-19.66"/>
<polygon fill="midnightblue" stroke="midnightblue" points="121.67,-53.3 131.8,-56.4 125.82,-47.66 121.67,-53.3"/>
</g>
<!-- Node5 -->
<g id="node5" class="node">
<title>Node5</title>
<g id="a_node5"><a xlink:href="class_p4_1_1_type_substitution_visitor.html" target="_top" xlink:title=" ">
<polygon fill="white" stroke="black" points="158.5,-0.5 158.5,-19.5 305.5,-19.5 305.5,-0.5 158.5,-0.5"/>
<text text-anchor="middle" x="232" y="-7.5" font-family="Helvetica,sans-Serif" font-size="10.00">P4::TypeSubstitutionVisitor</text>
</a>
</g>
</g>
<!-- Node1&#45;&gt;Node5 -->
<g id="edge4" class="edge">
<title>Node1&#45;&gt;Node5</title>
<path fill="none" stroke="midnightblue" d="M178.65,-50.19C192.83,-39.77 209.36,-27.63 220.21,-19.66"/>
<polygon fill="midnightblue" stroke="midnightblue" points="176.18,-47.66 170.2,-56.4 180.33,-53.3 176.18,-47.66"/>
</g>
<!-- Node2 -->
<g id="node2" class="node">
<title>Node2</title>
<g id="a_node2"><a xlink:href="class_transform.html" target="_top" xlink:title=" ">
<polygon fill="white" stroke="black" points="118.5,-123.5 118.5,-142.5 183.5,-142.5 183.5,-123.5 118.5,-123.5"/>
<text text-anchor="middle" x="151" y="-130.5" font-family="Helvetica,sans-Serif" font-size="10.00">Transform</text>
</a>
</g>
</g>
<!-- Node2&#45;&gt;Node1 -->
<g id="edge1" class="edge">
<title>Node2&#45;&gt;Node1</title>
<path fill="none" stroke="midnightblue" d="M151,-113.23C151,-104.59 151,-94.5 151,-86.52"/>
<polygon fill="midnightblue" stroke="midnightblue" points="147.5,-113.48 151,-123.48 154.5,-113.48 147.5,-113.48"/>
</g>
<!-- Node3 -->
<g id="node3" class="node">
<title>Node3</title>
<g id="a_node3"><a xlink:href="class_visitor.html" target="_top" xlink:title=" ">
<polygon fill="white" stroke="black" points="127,-179.5 127,-198.5 175,-198.5 175,-179.5 127,-179.5"/>
<text text-anchor="middle" x="151" y="-186.5" font-family="Helvetica,sans-Serif" font-size="10.00">Visitor</text>
</a>
</g>
</g>
<!-- Node3&#45;&gt;Node2 -->
<g id="edge2" class="edge">
<title>Node3&#45;&gt;Node2</title>
<path fill="none" stroke="midnightblue" d="M151,-168.8C151,-159.91 151,-149.78 151,-142.75"/>
<polygon fill="midnightblue" stroke="midnightblue" points="147.5,-169.08 151,-179.08 154.5,-169.08 147.5,-169.08"/>
</g>
</g>
</svg>
