<?xml version="1.0" encoding="UTF-8" standalone="no"?>
<!DOCTYPE svg PUBLIC "-//W3C//DTD SVG 1.1//EN"
 "http://www.w3.org/Graphics/SVG/1.1/DTD/svg11.dtd">
<!-- Generated by graphviz version 2.43.0 (0)
 -->
<!-- Title: EBPF::XDPEgressDeparserPSA Pages: 1 -->
<svg width="171pt" height="412pt"
 viewBox="0.00 0.00 171.00 412.00" xmlns="http://www.w3.org/2000/svg" xmlns:xlink="http://www.w3.org/1999/xlink">

<svg id="main" version="1.1" xmlns="http://www.w3.org/2000/svg" xmlns:xlink="http://www.w3.org/1999/xlink" xml:space="preserve" onload="init(evt)">
<style type="text/css"><![CDATA[
.node, .edge {opacity: 0.7;}
.node.selected, .edge.selected {opacity: 1;}
.edge:hover path { stroke: red; }
.edge:hover polygon { stroke: red; fill: red; }
]]></style>
<script type="application/ecmascript" xlink:href="svg.min.js"/>
<svg id="graph" class="graph">
<g id="graph0" class="graph" transform="scale(1 1) rotate(0) translate(4 408)">
<title>EBPF::XDPEgressDeparserPSA</title>
<!-- Node1 -->
<g id="Node000001" class="node">
<title>Node1</title>
<g id="a_Node000001"><a xlink:title=" ">
<polygon fill="#999999" stroke="#666666" points="163,-19 0,-19 0,0 163,0 163,-19"/>
<text text-anchor="middle" x="81.5" y="-7" font-family="Helvetica,sans-Serif" font-size="10.00">EBPF::XDPEgressDeparserPSA</text>
</a>
</g>
</g>
<!-- Node2 -->
<g id="Node000002" class="node">
<title>Node2</title>
<g id="a_Node000002"><a xlink:href="class_e_b_p_f_1_1_egress_deparser_p_s_a.html" target="_top" xlink:title=" ">
<polygon fill="white" stroke="#bfbfbf" points="153,-74 10,-74 10,-55 153,-55 153,-74"/>
<text text-anchor="middle" x="81.5" y="-62" font-family="Helvetica,sans-Serif" font-size="10.00">EBPF::EgressDeparserPSA</text>
</a>
</g>
</g>
<!-- Node2&#45;&gt;Node1 -->
<g id="edge1_Node000001_Node000002" class="edge">
<title>Node2&#45;&gt;Node1</title>
<g id="a_edge1_Node000001_Node000002"><a xlink:title=" ">
<path fill="none" stroke="#63b8ff" d="M81.5,-44.66C81.5,-35.93 81.5,-25.99 81.5,-19.09"/>
<polygon fill="#63b8ff" stroke="#63b8ff" points="78,-44.75 81.5,-54.75 85,-44.75 78,-44.75"/>
</a>
</g>
</g>
<!-- Node3 -->
<g id="Node000003" class="node">
<title>Node3</title>
<g id="a_Node000003"><a xlink:href="class_e_b_p_f_1_1_e_b_p_f_deparser_p_s_a.html" target="_top" xlink:title=" ">
<polygon fill="white" stroke="#bfbfbf" points="149,-129 14,-129 14,-110 149,-110 149,-129"/>
<text text-anchor="middle" x="81.5" y="-117" font-family="Helvetica,sans-Serif" font-size="10.00">EBPF::EBPFDeparserPSA</text>
</a>
</g>
</g>
<!-- Node3&#45;&gt;Node2 -->
<g id="edge2_Node000002_Node000003" class="edge">
<title>Node3&#45;&gt;Node2</title>
<g id="a_edge2_Node000002_Node000003"><a xlink:title=" ">
<path fill="none" stroke="#63b8ff" d="M81.5,-99.66C81.5,-90.93 81.5,-80.99 81.5,-74.09"/>
<polygon fill="#63b8ff" stroke="#63b8ff" points="78,-99.75 81.5,-109.75 85,-99.75 78,-99.75"/>
</a>
</g>
</g>
<!-- Node4 -->
<g id="Node000004" class="node">
<title>Node4</title>
<g id="a_Node000004"><a xlink:href="class_e_b_p_f_1_1_e_b_p_f_deparser.html" target="_top" xlink:title=" ">
<polygon fill="white" stroke="#bfbfbf" points="139.5,-184 23.5,-184 23.5,-165 139.5,-165 139.5,-184"/>
<text text-anchor="middle" x="81.5" y="-172" font-family="Helvetica,sans-Serif" font-size="10.00">EBPF::EBPFDeparser</text>
</a>
</g>
</g>
<!-- Node4&#45;&gt;Node3 -->
<g id="edge3_Node000003_Node000004" class="edge">
<title>Node4&#45;&gt;Node3</title>
<g id="a_edge3_Node000003_Node000004"><a xlink:title=" ">
<path fill="none" stroke="#63b8ff" d="M81.5,-154.66C81.5,-145.93 81.5,-135.99 81.5,-129.09"/>
<polygon fill="#63b8ff" stroke="#63b8ff" points="78,-154.75 81.5,-164.75 85,-154.75 78,-154.75"/>
</a>
</g>
</g>
<!-- Node5 -->
<g id="Node000005" class="node">
<title>Node5</title>
<g id="a_Node000005"><a xlink:href="class_e_b_p_f_1_1_e_b_p_f_control.html" target="_top" xlink:title=" ">
<polygon fill="white" stroke="#bfbfbf" points="135,-239 28,-239 28,-220 135,-220 135,-239"/>
<text text-anchor="middle" x="81.5" y="-227" font-family="Helvetica,sans-Serif" font-size="10.00">EBPF::EBPFControl</text>
</a>
</g>
</g>
<!-- Node5&#45;&gt;Node4 -->
<g id="edge4_Node000004_Node000005" class="edge">
<title>Node5&#45;&gt;Node4</title>
<g id="a_edge4_Node000004_Node000005"><a xlink:title=" ">
<path fill="none" stroke="#63b8ff" d="M81.5,-209.66C81.5,-200.93 81.5,-190.99 81.5,-184.09"/>
<polygon fill="#63b8ff" stroke="#63b8ff" points="78,-209.75 81.5,-219.75 85,-209.75 78,-209.75"/>
</a>
</g>
</g>
<!-- Node6 -->
<g id="Node000006" class="node">
<title>Node6</title>
<g id="a_Node000006"><a xlink:href="class_e_b_p_f_1_1_e_b_p_f_object.html" target="_top" xlink:title="Base class for EBPF objects.">
<polygon fill="white" stroke="#666666" points="133,-294 30,-294 30,-275 133,-275 133,-294"/>
<text text-anchor="middle" x="81.5" y="-282" font-family="Helvetica,sans-Serif" font-size="10.00">EBPF::EBPFObject</text>
</a>
</g>
</g>
<!-- Node6&#45;&gt;Node5 -->
<g id="edge5_Node000005_Node000006" class="edge">
<title>Node6&#45;&gt;Node5</title>
<g id="a_edge5_Node000005_Node000006"><a xlink:title=" ">
<path fill="none" stroke="#63b8ff" d="M81.5,-264.66C81.5,-255.93 81.5,-245.99 81.5,-239.09"/>
<polygon fill="#63b8ff" stroke="#63b8ff" points="78,-264.75 81.5,-274.75 85,-264.75 78,-264.75"/>
</a>
</g>
</g>
<!-- Node7 -->
<g id="Node000007" class="node">
<title>Node7</title>
<g id="a_Node000007"><a xlink:href="class_i_castable.html" target="_top" xlink:title=" ">
<polygon fill="white" stroke="#666666" points="112.5,-349 50.5,-349 50.5,-330 112.5,-330 112.5,-349"/>
<text text-anchor="middle" x="81.5" y="-337" font-family="Helvetica,sans-Serif" font-size="10.00">ICastable</text>
</a>
</g>
</g>
<!-- Node7&#45;&gt;Node6 -->
<g id="edge6_Node000006_Node000007" class="edge">
<title>Node7&#45;&gt;Node6</title>
<g id="a_edge6_Node000006_Node000007"><a xlink:title=" ">
<path fill="none" stroke="#63b8ff" d="M81.5,-319.66C81.5,-310.93 81.5,-300.99 81.5,-294.09"/>
<polygon fill="#63b8ff" stroke="#63b8ff" points="78,-319.75 81.5,-329.75 85,-319.75 78,-319.75"/>
</a>
</g>
</g>
<!-- Node8 -->
<g id="Node000008" class="node">
<title>Node8</title>
<g id="a_Node000008"><a xlink:href="struct_r_t_t_i_1_1_base.html" target="_top" xlink:title=" ">
<polygon fill="white" stroke="#bfbfbf" points="115.5,-404 47.5,-404 47.5,-385 115.5,-385 115.5,-404"/>
<text text-anchor="middle" x="81.5" y="-392" font-family="Helvetica,sans-Serif" font-size="10.00">RTTI::Base</text>
</a>
</g>
</g>
<!-- Node8&#45;&gt;Node7 -->
<g id="edge7_Node000007_Node000008" class="edge">
<title>Node8&#45;&gt;Node7</title>
<g id="a_edge7_Node000007_Node000008"><a xlink:title=" ">
<path fill="none" stroke="#63b8ff" d="M81.5,-374.66C81.5,-365.93 81.5,-355.99 81.5,-349.09"/>
<polygon fill="#63b8ff" stroke="#63b8ff" points="78,-374.75 81.5,-384.75 85,-374.75 78,-374.75"/>
</a>
</g>
</g>
</g>
</svg>
</svg>

<style type='text/css'>
<![CDATA[
[data-mouse-over-selected='false'] { opacity: 0.7; }
[data-mouse-over-selected='true']  { opacity: 1.0; }
]]>
</style>
<script type="application/ecmascript"><![CDATA[
document.addEventListener('DOMContentLoaded', (event) => {
  highlightEdges();
  highlightAdjacentNodes();
});
]]></script>
</svg>
