<?xml version="1.0" encoding="UTF-8" standalone="no"?>
<!DOCTYPE svg PUBLIC "-//W3C//DTD SVG 1.1//EN"
 "http://www.w3.org/Graphics/SVG/1.1/DTD/svg11.dtd">
<!-- Generated by graphviz version 2.43.0 (0)
 -->
<!-- Title: P4::Inline Pages: 1 -->
<svg width="114pt" height="252pt"
 viewBox="0.00 0.00 114.00 252.00" xmlns="http://www.w3.org/2000/svg" xmlns:xlink="http://www.w3.org/1999/xlink">
<g id="graph0" class="graph" transform="scale(1 1) rotate(0) translate(4 248)">
<title>P4::Inline</title>
<polygon fill="white" stroke="transparent" points="-4,4 -4,-248 110,-248 110,4 -4,4"/>
<!-- Node1 -->
<g id="node1" class="node">
<title>Node1</title>
<g id="a_node1"><a xlink:title=" ">
<polygon fill="#bfbfbf" stroke="black" points="11.5,-0.5 11.5,-19.5 73.5,-19.5 73.5,-0.5 11.5,-0.5"/>
<text text-anchor="middle" x="42.5" y="-7.5" font-family="Helvetica,sans-Serif" font-size="10.00">P4::Inline</text>
</a>
</g>
</g>
<!-- Node2 -->
<g id="node2" class="node">
<title>Node2</title>
<g id="a_node2"><a xlink:href="class_pass_repeated.html" target="_top" xlink:title=" ">
<polygon fill="white" stroke="black" points="0,-56.5 0,-75.5 85,-75.5 85,-56.5 0,-56.5"/>
<text text-anchor="middle" x="42.5" y="-63.5" font-family="Helvetica,sans-Serif" font-size="10.00">PassRepeated</text>
</a>
</g>
</g>
<!-- Node2&#45;&gt;Node1 -->
<g id="edge1" class="edge">
<title>Node2&#45;&gt;Node1</title>
<path fill="none" stroke="midnightblue" d="M42.5,-45.8C42.5,-36.91 42.5,-26.78 42.5,-19.75"/>
<polygon fill="midnightblue" stroke="midnightblue" points="39,-46.08 42.5,-56.08 46,-46.08 39,-46.08"/>
</g>
<!-- Node3 -->
<g id="node3" class="node">
<title>Node3</title>
<g id="a_node3"><a xlink:href="class_pass_manager.html" target="_top" xlink:title=" ">
<polygon fill="white" stroke="black" points="2,-112.5 2,-131.5 83,-131.5 83,-112.5 2,-112.5"/>
<text text-anchor="middle" x="42.5" y="-119.5" font-family="Helvetica,sans-Serif" font-size="10.00">PassManager</text>
</a>
</g>
</g>
<!-- Node3&#45;&gt;Node2 -->
<g id="edge2" class="edge">
<title>Node3&#45;&gt;Node2</title>
<path fill="none" stroke="midnightblue" d="M42.5,-101.8C42.5,-92.91 42.5,-82.78 42.5,-75.75"/>
<polygon fill="midnightblue" stroke="midnightblue" points="39,-102.08 42.5,-112.08 46,-102.08 39,-102.08"/>
</g>
<!-- Node4 -->
<g id="node4" class="node">
<title>Node4</title>
<g id="a_node4"><a xlink:href="class_visitor.html" target="_top" xlink:title=" ">
<polygon fill="white" stroke="black" points="18.5,-224.5 18.5,-243.5 66.5,-243.5 66.5,-224.5 18.5,-224.5"/>
<text text-anchor="middle" x="42.5" y="-231.5" font-family="Helvetica,sans-Serif" font-size="10.00">Visitor</text>
</a>
</g>
</g>
<!-- Node4&#45;&gt;Node3 -->
<g id="edge3" class="edge">
<title>Node4&#45;&gt;Node3</title>
<path fill="none" stroke="midnightblue" d="M36.96,-214.66C34.79,-206.57 32.57,-196.89 31.5,-188 29.06,-167.77 35.33,-144.25 39.38,-131.79"/>
<polygon fill="midnightblue" stroke="midnightblue" points="33.66,-215.83 39.77,-224.49 40.39,-213.91 33.66,-215.83"/>
</g>
<!-- Node5 -->
<g id="node5" class="node">
<title>Node5</title>
<g id="a_node5"><a xlink:href="class_backtrack.html" target="_top" xlink:title=" ">
<polygon fill="white" stroke="black" points="41,-168.5 41,-187.5 106,-187.5 106,-168.5 41,-168.5"/>
<text text-anchor="middle" x="73.5" y="-175.5" font-family="Helvetica,sans-Serif" font-size="10.00">Backtrack</text>
</a>
</g>
</g>
<!-- Node4&#45;&gt;Node5 -->
<g id="edge5" class="edge">
<title>Node4&#45;&gt;Node5</title>
<path fill="none" stroke="midnightblue" d="M52.68,-215.27C57.97,-206.05 64.22,-195.17 68.48,-187.75"/>
<polygon fill="midnightblue" stroke="midnightblue" points="49.56,-213.67 47.62,-224.08 55.63,-217.15 49.56,-213.67"/>
</g>
<!-- Node5&#45;&gt;Node3 -->
<g id="edge4" class="edge">
<title>Node5&#45;&gt;Node3</title>
<path fill="none" stroke="midnightblue" d="M63.32,-159.27C58.03,-150.05 51.78,-139.17 47.52,-131.75"/>
<polygon fill="midnightblue" stroke="midnightblue" points="60.37,-161.15 68.38,-168.08 66.44,-157.67 60.37,-161.15"/>
</g>
</g>
</svg>
