<?xml version="1.0" encoding="UTF-8" standalone="no"?>
<!DOCTYPE svg PUBLIC "-//W3C//DTD SVG 1.1//EN"
 "http://www.w3.org/Graphics/SVG/1.1/DTD/svg11.dtd">
<!-- Generated by graphviz version 2.43.0 (0)
 -->
<!-- Title: P4Tools::P4Testgen::Pna::SharedPnaTableStepper Pages: 1 -->
<svg width="169pt" height="173pt"
 viewBox="0.00 0.00 169.00 173.00" xmlns="http://www.w3.org/2000/svg" xmlns:xlink="http://www.w3.org/1999/xlink">
<g id="graph0" class="graph" transform="scale(1 1) rotate(0) translate(4 169)">
<title>P4Tools::P4Testgen::Pna::SharedPnaTableStepper</title>
<polygon fill="white" stroke="transparent" points="-4,4 -4,-169 165,-169 165,4 -4,4"/>
<!-- Node1 -->
<g id="node1" class="node">
<title>Node1</title>
<g id="a_node1"><a xlink:title=" ">
<polygon fill="#bfbfbf" stroke="black" points="0,-67.5 0,-97.5 161,-97.5 161,-67.5 0,-67.5"/>
<text text-anchor="start" x="8" y="-85.5" font-family="Helvetica,sans-Serif" font-size="10.00">P4Tools::P4Testgen</text>
<text text-anchor="middle" x="80.5" y="-74.5" font-family="Helvetica,sans-Serif" font-size="10.00">::Pna::SharedPnaTableStepper</text>
</a>
</g>
</g>
<!-- Node3 -->
<g id="node3" class="node">
<title>Node3</title>
<g id="a_node3"><a xlink:href="class_p4_tools_1_1_p4_testgen_1_1_pna_1_1_pna_dpdk_table_stepper.html" target="_top" xlink:title=" ">
<polygon fill="white" stroke="black" points="4,-0.5 4,-30.5 157,-30.5 157,-0.5 4,-0.5"/>
<text text-anchor="start" x="12" y="-18.5" font-family="Helvetica,sans-Serif" font-size="10.00">P4Tools::P4Testgen</text>
<text text-anchor="middle" x="80.5" y="-7.5" font-family="Helvetica,sans-Serif" font-size="10.00">::Pna::PnaDpdkTableStepper</text>
</a>
</g>
</g>
<!-- Node1&#45;&gt;Node3 -->
<g id="edge2" class="edge">
<title>Node1&#45;&gt;Node3</title>
<path fill="none" stroke="midnightblue" d="M80.5,-57.11C80.5,-48.15 80.5,-38.32 80.5,-30.58"/>
<polygon fill="midnightblue" stroke="midnightblue" points="77,-57.4 80.5,-67.4 84,-57.4 77,-57.4"/>
</g>
<!-- Node2 -->
<g id="node2" class="node">
<title>Node2</title>
<g id="a_node2"><a xlink:href="class_p4_tools_1_1_p4_testgen_1_1_table_stepper.html" target="_top" xlink:title="Implements small&#45;step operational semantics for tables.">
<polygon fill="white" stroke="black" points="26,-134.5 26,-164.5 135,-164.5 135,-134.5 26,-134.5"/>
<text text-anchor="start" x="34" y="-152.5" font-family="Helvetica,sans-Serif" font-size="10.00">P4Tools::P4Testgen</text>
<text text-anchor="middle" x="80.5" y="-141.5" font-family="Helvetica,sans-Serif" font-size="10.00">::TableStepper</text>
</a>
</g>
</g>
<!-- Node2&#45;&gt;Node1 -->
<g id="edge1" class="edge">
<title>Node2&#45;&gt;Node1</title>
<path fill="none" stroke="midnightblue" d="M80.5,-124.11C80.5,-115.15 80.5,-105.32 80.5,-97.58"/>
<polygon fill="midnightblue" stroke="midnightblue" points="77,-124.4 80.5,-134.4 84,-124.4 77,-124.4"/>
</g>
</g>
</svg>
