<?xml version="1.0" encoding="UTF-8" standalone="no"?>
<!DOCTYPE svg PUBLIC "-//W3C//DTD SVG 1.1//EN"
 "http://www.w3.org/Graphics/SVG/1.1/DTD/svg11.dtd">
<!-- Generated by graphviz version 2.43.0 (0)
 -->
<!-- Title: EBPF::EBPFDigestPSAValueVisitor Pages: 1 -->
<svg width="157pt" height="207pt"
 viewBox="0.00 0.00 157.00 207.00" xmlns="http://www.w3.org/2000/svg" xmlns:xlink="http://www.w3.org/1999/xlink">
<g id="graph0" class="graph" transform="scale(1 1) rotate(0) translate(4 203)">
<title>EBPF::EBPFDigestPSAValueVisitor</title>
<polygon fill="white" stroke="transparent" points="-4,4 -4,-203 153,-203 153,4 -4,4"/>
<!-- Node1 -->
<g id="node1" class="node">
<title>Node1</title>
<g id="a_node1"><a xlink:title=" ">
<polygon fill="#bfbfbf" stroke="black" points="0,-0.5 0,-30.5 149,-30.5 149,-0.5 0,-0.5"/>
<text text-anchor="start" x="8" y="-18.5" font-family="Helvetica,sans-Serif" font-size="10.00">EBPF::EBPFDigestPSAValue</text>
<text text-anchor="middle" x="74.5" y="-7.5" font-family="Helvetica,sans-Serif" font-size="10.00">Visitor</text>
</a>
</g>
</g>
<!-- Node2 -->
<g id="node2" class="node">
<title>Node2</title>
<g id="a_node2"><a xlink:href="class_e_b_p_f_1_1_code_gen_inspector.html" target="_top" xlink:title=" ">
<polygon fill="white" stroke="black" points="6.5,-67.5 6.5,-86.5 142.5,-86.5 142.5,-67.5 6.5,-67.5"/>
<text text-anchor="middle" x="74.5" y="-74.5" font-family="Helvetica,sans-Serif" font-size="10.00">EBPF::CodeGenInspector</text>
</a>
</g>
</g>
<!-- Node2&#45;&gt;Node1 -->
<g id="edge1" class="edge">
<title>Node2&#45;&gt;Node1</title>
<path fill="none" stroke="midnightblue" d="M74.5,-57.23C74.5,-48.59 74.5,-38.5 74.5,-30.52"/>
<polygon fill="midnightblue" stroke="midnightblue" points="71,-57.48 74.5,-67.48 78,-57.48 71,-57.48"/>
</g>
<!-- Node3 -->
<g id="node3" class="node">
<title>Node3</title>
<g id="a_node3"><a xlink:href="class_inspector.html" target="_top" xlink:title=" ">
<polygon fill="white" stroke="black" points="43.5,-123.5 43.5,-142.5 105.5,-142.5 105.5,-123.5 43.5,-123.5"/>
<text text-anchor="middle" x="74.5" y="-130.5" font-family="Helvetica,sans-Serif" font-size="10.00">Inspector</text>
</a>
</g>
</g>
<!-- Node3&#45;&gt;Node2 -->
<g id="edge2" class="edge">
<title>Node3&#45;&gt;Node2</title>
<path fill="none" stroke="midnightblue" d="M74.5,-112.8C74.5,-103.91 74.5,-93.78 74.5,-86.75"/>
<polygon fill="midnightblue" stroke="midnightblue" points="71,-113.08 74.5,-123.08 78,-113.08 71,-113.08"/>
</g>
<!-- Node4 -->
<g id="node4" class="node">
<title>Node4</title>
<g id="a_node4"><a xlink:href="class_visitor.html" target="_top" xlink:title=" ">
<polygon fill="white" stroke="black" points="50.5,-179.5 50.5,-198.5 98.5,-198.5 98.5,-179.5 50.5,-179.5"/>
<text text-anchor="middle" x="74.5" y="-186.5" font-family="Helvetica,sans-Serif" font-size="10.00">Visitor</text>
</a>
</g>
</g>
<!-- Node4&#45;&gt;Node3 -->
<g id="edge3" class="edge">
<title>Node4&#45;&gt;Node3</title>
<path fill="none" stroke="midnightblue" d="M74.5,-168.8C74.5,-159.91 74.5,-149.78 74.5,-142.75"/>
<polygon fill="midnightblue" stroke="midnightblue" points="71,-169.08 74.5,-179.08 78,-169.08 71,-169.08"/>
</g>
</g>
</svg>
