<?xml version="1.0" encoding="UTF-8" standalone="no"?>
<!DOCTYPE svg PUBLIC "-//W3C//DTD SVG 1.1//EN"
 "http://www.w3.org/Graphics/SVG/1.1/DTD/svg11.dtd">
<!-- Generated by graphviz version 2.43.0 (0)
 -->
<!-- Title: CompilerOptions Pages: 1 -->
<svg width="718pt" height="351pt"
 viewBox="0.00 0.00 718.00 351.00" xmlns="http://www.w3.org/2000/svg" xmlns:xlink="http://www.w3.org/1999/xlink">
<g id="graph0" class="graph" transform="scale(1 1) rotate(0) translate(4 347)">
<title>CompilerOptions</title>
<polygon fill="white" stroke="transparent" points="-4,4 -4,-347 714,-347 714,4 -4,4"/>
<!-- Node1 -->
<g id="node1" class="node">
<title>Node1</title>
<g id="a_node1"><a xlink:title=" ">
<polygon fill="#bfbfbf" stroke="black" points="233,-152.5 233,-171.5 331,-171.5 331,-152.5 233,-152.5"/>
<text text-anchor="middle" x="282" y="-159.5" font-family="Helvetica,sans-Serif" font-size="10.00">CompilerOptions</text>
</a>
</g>
</g>
<!-- Node4 -->
<g id="node4" class="node">
<title>Node4</title>
<g id="a_node4"><a xlink:href="class_b_m_v2_1_1_b_m_v2_options.html" target="_top" xlink:title=" ">
<polygon fill="white" stroke="black" points="384.5,-304.5 384.5,-323.5 501.5,-323.5 501.5,-304.5 384.5,-304.5"/>
<text text-anchor="middle" x="443" y="-311.5" font-family="Helvetica,sans-Serif" font-size="10.00">BMV2::BMV2Options</text>
</a>
</g>
</g>
<!-- Node1&#45;&gt;Node4 -->
<g id="edge3" class="edge">
<title>Node1&#45;&gt;Node4</title>
<path fill="none" stroke="midnightblue" d="M289.81,-181.32C301.13,-210.55 326.65,-265.71 367,-295 372.33,-298.87 378.36,-301.95 384.64,-304.4"/>
<polygon fill="midnightblue" stroke="midnightblue" points="293.04,-179.97 286.28,-171.82 286.48,-182.41 293.04,-179.97"/>
</g>
<!-- Node7 -->
<g id="node7" class="node">
<title>Node7</title>
<g id="a_node7"><a xlink:href="class_d_p_d_k_1_1_dpdk_options.html" target="_top" xlink:title=" ">
<polygon fill="white" stroke="black" points="386.5,-266.5 386.5,-285.5 499.5,-285.5 499.5,-266.5 386.5,-266.5"/>
<text text-anchor="middle" x="443" y="-273.5" font-family="Helvetica,sans-Serif" font-size="10.00">DPDK::DpdkOptions</text>
</a>
</g>
</g>
<!-- Node1&#45;&gt;Node7 -->
<g id="edge6" class="edge">
<title>Node1&#45;&gt;Node7</title>
<path fill="none" stroke="midnightblue" d="M294.07,-180.08C308.26,-201.71 334.9,-237.43 367,-257 373.42,-260.92 380.62,-264.03 387.96,-266.5"/>
<polygon fill="midnightblue" stroke="midnightblue" points="296.93,-178.07 288.61,-171.51 291.02,-181.82 296.93,-178.07"/>
</g>
<!-- Node8 -->
<g id="node8" class="node">
<title>Node8</title>
<g id="a_node8"><a xlink:href="class_ebpf_options.html" target="_top" xlink:title=" ">
<polygon fill="white" stroke="black" points="405,-228.5 405,-247.5 481,-247.5 481,-228.5 405,-228.5"/>
<text text-anchor="middle" x="443" y="-235.5" font-family="Helvetica,sans-Serif" font-size="10.00">EbpfOptions</text>
</a>
</g>
</g>
<!-- Node1&#45;&gt;Node8 -->
<g id="edge7" class="edge">
<title>Node1&#45;&gt;Node8</title>
<path fill="none" stroke="midnightblue" d="M302.65,-178.26C318.96,-191.01 343.26,-208.34 367,-219 378.89,-224.34 392.53,-228.36 404.9,-231.29"/>
<polygon fill="midnightblue" stroke="midnightblue" points="304.45,-175.22 294.46,-171.71 300.08,-180.69 304.45,-175.22"/>
</g>
<!-- Node9 -->
<g id="node9" class="node">
<title>Node9</title>
<g id="a_node9"><a xlink:href="class_p4_fmt_1_1_p4fmt_options.html" target="_top" xlink:title=" ">
<polygon fill="white" stroke="black" points="382.5,-190.5 382.5,-209.5 503.5,-209.5 503.5,-190.5 382.5,-190.5"/>
<text text-anchor="middle" x="443" y="-197.5" font-family="Helvetica,sans-Serif" font-size="10.00">P4Fmt::P4fmtOptions</text>
</a>
</g>
</g>
<!-- Node1&#45;&gt;Node9 -->
<g id="edge8" class="edge">
<title>Node1&#45;&gt;Node9</title>
<path fill="none" stroke="midnightblue" d="M333.08,-173.97C355.36,-179.29 381.23,-185.48 402.17,-190.48"/>
<polygon fill="midnightblue" stroke="midnightblue" points="333.66,-170.51 323.12,-171.59 332.03,-177.32 333.66,-170.51"/>
</g>
<!-- Node10 -->
<g id="node10" class="node">
<title>Node10</title>
<g id="a_node10"><a xlink:href="class_p4_test_options.html" target="_top" xlink:title=" ">
<polygon fill="white" stroke="black" points="400,-152.5 400,-171.5 486,-171.5 486,-152.5 400,-152.5"/>
<text text-anchor="middle" x="443" y="-159.5" font-family="Helvetica,sans-Serif" font-size="10.00">P4TestOptions</text>
</a>
</g>
</g>
<!-- Node1&#45;&gt;Node10 -->
<g id="edge9" class="edge">
<title>Node1&#45;&gt;Node10</title>
<path fill="none" stroke="midnightblue" d="M341.4,-162C360.81,-162 382.03,-162 399.95,-162"/>
<polygon fill="midnightblue" stroke="midnightblue" points="341.14,-158.5 331.14,-162 341.14,-165.5 341.14,-158.5"/>
</g>
<!-- Node11 -->
<g id="node11" class="node">
<title>Node11</title>
<g id="a_node11"><a xlink:href="class_t_c_1_1_t_c_options.html" target="_top" xlink:title=" ">
<polygon fill="white" stroke="black" points="401,-114.5 401,-133.5 485,-133.5 485,-114.5 401,-114.5"/>
<text text-anchor="middle" x="443" y="-121.5" font-family="Helvetica,sans-Serif" font-size="10.00">TC::TCOptions</text>
</a>
</g>
</g>
<!-- Node1&#45;&gt;Node11 -->
<g id="edge10" class="edge">
<title>Node1&#45;&gt;Node11</title>
<path fill="none" stroke="midnightblue" d="M333.08,-150.03C355.36,-144.71 381.23,-138.52 402.17,-133.52"/>
<polygon fill="midnightblue" stroke="midnightblue" points="332.03,-146.68 323.12,-152.41 333.66,-153.49 332.03,-146.68"/>
</g>
<!-- Node12 -->
<g id="node12" class="node">
<title>Node12</title>
<g id="a_node12"><a xlink:href="class_test_1_1_p4_reachability_options.html" target="_top" xlink:title=" ">
<polygon fill="white" stroke="black" points="367,-76.5 367,-95.5 519,-95.5 519,-76.5 367,-76.5"/>
<text text-anchor="middle" x="443" y="-83.5" font-family="Helvetica,sans-Serif" font-size="10.00">Test::P4ReachabilityOptions</text>
</a>
</g>
</g>
<!-- Node1&#45;&gt;Node12 -->
<g id="edge11" class="edge">
<title>Node1&#45;&gt;Node12</title>
<path fill="none" stroke="midnightblue" d="M302.65,-145.74C318.96,-132.99 343.26,-115.66 367,-105 375.45,-101.2 384.8,-98.07 393.94,-95.52"/>
<polygon fill="midnightblue" stroke="midnightblue" points="300.08,-143.31 294.46,-152.29 304.45,-148.78 300.08,-143.31"/>
</g>
<!-- Node13 -->
<g id="node13" class="node">
<title>Node13</title>
<g id="a_node13"><a xlink:href="class_test_1_1_p4_test_options.html" target="_top" xlink:title=" ">
<polygon fill="white" stroke="black" points="387.5,-38.5 387.5,-57.5 498.5,-57.5 498.5,-38.5 387.5,-38.5"/>
<text text-anchor="middle" x="443" y="-45.5" font-family="Helvetica,sans-Serif" font-size="10.00">Test::P4TestOptions</text>
</a>
</g>
</g>
<!-- Node1&#45;&gt;Node13 -->
<g id="edge12" class="edge">
<title>Node1&#45;&gt;Node13</title>
<path fill="none" stroke="midnightblue" d="M294.07,-143.92C308.26,-122.29 334.9,-86.57 367,-67 373.42,-63.08 380.62,-59.97 387.96,-57.5"/>
<polygon fill="midnightblue" stroke="midnightblue" points="291.02,-142.18 288.61,-152.49 296.93,-145.93 291.02,-142.18"/>
</g>
<!-- Node14 -->
<g id="node14" class="node">
<title>Node14</title>
<g id="a_node14"><a xlink:href="classgraphs_1_1_options.html" target="_top" xlink:title=" ">
<polygon fill="white" stroke="black" points="396.5,-0.5 396.5,-19.5 489.5,-19.5 489.5,-0.5 396.5,-0.5"/>
<text text-anchor="middle" x="443" y="-7.5" font-family="Helvetica,sans-Serif" font-size="10.00">graphs::Options</text>
</a>
</g>
</g>
<!-- Node1&#45;&gt;Node14 -->
<g id="edge13" class="edge">
<title>Node1&#45;&gt;Node14</title>
<path fill="none" stroke="midnightblue" d="M289.81,-142.68C301.13,-113.45 326.65,-58.29 367,-29 375.59,-22.77 386.02,-18.57 396.34,-15.75"/>
<polygon fill="midnightblue" stroke="midnightblue" points="286.48,-141.59 286.28,-152.18 293.04,-144.03 286.48,-141.59"/>
</g>
<!-- Node2 -->
<g id="node2" class="node">
<title>Node2</title>
<g id="a_node2"><a xlink:href="class_parser_options.html" target="_top" xlink:title=" ">
<polygon fill="white" stroke="black" points="113,-152.5 113,-171.5 197,-171.5 197,-152.5 113,-152.5"/>
<text text-anchor="middle" x="155" y="-159.5" font-family="Helvetica,sans-Serif" font-size="10.00">ParserOptions</text>
</a>
</g>
</g>
<!-- Node2&#45;&gt;Node1 -->
<g id="edge1" class="edge">
<title>Node2&#45;&gt;Node1</title>
<path fill="none" stroke="midnightblue" d="M207.37,-162C215.79,-162 224.49,-162 232.83,-162"/>
<polygon fill="midnightblue" stroke="midnightblue" points="207.28,-158.5 197.28,-162 207.28,-165.5 207.28,-158.5"/>
</g>
<!-- Node3 -->
<g id="node3" class="node">
<title>Node3</title>
<g id="a_node3"><a xlink:href="class_util_1_1_options.html" target="_top" xlink:title=" ">
<polygon fill="white" stroke="black" points="0,-152.5 0,-171.5 77,-171.5 77,-152.5 0,-152.5"/>
<text text-anchor="middle" x="38.5" y="-159.5" font-family="Helvetica,sans-Serif" font-size="10.00">Util::Options</text>
</a>
</g>
</g>
<!-- Node3&#45;&gt;Node2 -->
<g id="edge2" class="edge">
<title>Node3&#45;&gt;Node2</title>
<path fill="none" stroke="midnightblue" d="M87.38,-162C95.78,-162 104.47,-162 112.68,-162"/>
<polygon fill="midnightblue" stroke="midnightblue" points="87.31,-158.5 77.31,-162 87.31,-165.5 87.31,-158.5"/>
</g>
<!-- Node5 -->
<g id="node5" class="node">
<title>Node5</title>
<g id="a_node5"><a xlink:href="class_b_m_v2_1_1_psa_switch_options.html" target="_top" xlink:title=" ">
<polygon fill="white" stroke="black" points="563.5,-323.5 563.5,-342.5 701.5,-342.5 701.5,-323.5 563.5,-323.5"/>
<text text-anchor="middle" x="632.5" y="-330.5" font-family="Helvetica,sans-Serif" font-size="10.00">BMV2::PsaSwitchOptions</text>
</a>
</g>
</g>
<!-- Node4&#45;&gt;Node5 -->
<g id="edge4" class="edge">
<title>Node4&#45;&gt;Node5</title>
<path fill="none" stroke="midnightblue" d="M511.77,-320.87C528.51,-322.56 546.44,-324.38 563.2,-326.08"/>
<polygon fill="midnightblue" stroke="midnightblue" points="511.83,-317.36 501.53,-319.83 511.13,-324.32 511.83,-317.36"/>
</g>
<!-- Node6 -->
<g id="node6" class="node">
<title>Node6</title>
<g id="a_node6"><a xlink:href="class_b_m_v2_1_1_simple_switch_options.html" target="_top" xlink:title=" ">
<polygon fill="white" stroke="black" points="555,-285.5 555,-304.5 710,-304.5 710,-285.5 555,-285.5"/>
<text text-anchor="middle" x="632.5" y="-292.5" font-family="Helvetica,sans-Serif" font-size="10.00">BMV2::SimpleSwitchOptions</text>
</a>
</g>
</g>
<!-- Node4&#45;&gt;Node6 -->
<g id="edge5" class="edge">
<title>Node4&#45;&gt;Node6</title>
<path fill="none" stroke="midnightblue" d="M511.56,-307.15C525.57,-305.73 540.42,-304.23 554.73,-302.78"/>
<polygon fill="midnightblue" stroke="midnightblue" points="511.13,-303.68 501.53,-308.17 511.83,-310.64 511.13,-303.68"/>
</g>
</g>
</svg>
