<?xml version="1.0" encoding="UTF-8" standalone="no"?>
<!DOCTYPE svg PUBLIC "-//W3C//DTD SVG 1.1//EN"
 "http://www.w3.org/Graphics/SVG/1.1/DTD/svg11.dtd">
<!-- Generated by graphviz version 2.43.0 (0)
 -->
<!-- Title: P4::IR::Node Pages: 1 -->
<svg width="1018pt" height="305pt"
 viewBox="0.00 0.00 1018.00 304.50" xmlns="http://www.w3.org/2000/svg" xmlns:xlink="http://www.w3.org/1999/xlink">
<g id="graph0" class="graph" transform="scale(1 1) rotate(0) translate(4 300.5)">
<title>P4::IR::Node</title>
<!-- Node1 -->
<g id="Node000001" class="node">
<title>Node1</title>
<g id="a_Node000001"><a xlink:title=" ">
<polygon fill="#999999" stroke="#666666" points="480,-190 404,-190 404,-171 480,-171 480,-190"/>
<text text-anchor="middle" x="442" y="-178" font-family="Helvetica,sans-Serif" font-size="10.00">P4::IR::Node</text>
</a>
</g>
</g>
<!-- Node7 -->
<g id="Node000007" class="node">
<title>Node7</title>
<g id="a_Node000007"><a xlink:href="class_p4_1_1_i_r_1_1_name_map.html" target="_top" xlink:title=" ">
<polygon fill="white" stroke="#bfbfbf" points="660,-243.5 535,-243.5 535,-213.5 660,-213.5 660,-243.5"/>
<text text-anchor="start" x="543" y="-231.5" font-family="Helvetica,sans-Serif" font-size="10.00">P4::IR::NameMap&lt; T,</text>
<text text-anchor="middle" x="597.5" y="-220.5" font-family="Helvetica,sans-Serif" font-size="10.00"> MAP, COMP, ALLOC &gt;</text>
</a>
</g>
</g>
<!-- Node1&#45;&gt;Node7 -->
<g id="edge6_Node000001_Node000007" class="edge">
<title>Node1&#45;&gt;Node7</title>
<g id="a_edge6_Node000001_Node000007"><a xlink:title=" ">
<path fill="none" stroke="#63b8ff" d="M480.93,-193.19C492.2,-196.9 504.58,-200.92 516,-204.5 525.46,-207.47 535.58,-210.55 545.33,-213.48"/>
<polygon fill="#63b8ff" stroke="#63b8ff" points="481.96,-189.85 471.37,-190.03 479.76,-196.49 481.96,-189.85"/>
</a>
</g>
</g>
<!-- Node8 -->
<g id="Node000008" class="node">
<title>Node8</title>
<g id="a_Node000008"><a xlink:href="class_p4_1_1_i_r_1_1_node_map.html" target="_top" xlink:title=" ">
<polygon fill="white" stroke="#bfbfbf" points="679,-195.5 516,-195.5 516,-165.5 679,-165.5 679,-195.5"/>
<text text-anchor="start" x="524" y="-183.5" font-family="Helvetica,sans-Serif" font-size="10.00">P4::IR::NodeMap&lt; KEY,</text>
<text text-anchor="middle" x="597.5" y="-172.5" font-family="Helvetica,sans-Serif" font-size="10.00"> VALUE, MAP, COMP, ALLOC &gt;</text>
</a>
</g>
</g>
<!-- Node1&#45;&gt;Node8 -->
<g id="edge7_Node000001_Node000008" class="edge">
<title>Node1&#45;&gt;Node8</title>
<g id="a_edge7_Node000001_Node000008"><a xlink:title=" ">
<path fill="none" stroke="#63b8ff" d="M490.23,-180.5C498.44,-180.5 507.17,-180.5 515.97,-180.5"/>
<polygon fill="#63b8ff" stroke="#63b8ff" points="490.16,-177 480.16,-180.5 490.16,-184 490.16,-177"/>
</a>
</g>
</g>
<!-- Node9 -->
<g id="Node000009" class="node">
<title>Node9</title>
<g id="a_Node000009"><a xlink:href="class_p4_1_1_i_r_1_1_vector_base.html" target="_top" xlink:title=" ">
<polygon fill="white" stroke="#bfbfbf" points="650,-147 545,-147 545,-128 650,-128 650,-147"/>
<text text-anchor="middle" x="597.5" y="-135" font-family="Helvetica,sans-Serif" font-size="10.00">P4::IR::VectorBase</text>
</a>
</g>
</g>
<!-- Node1&#45;&gt;Node9 -->
<g id="edge8_Node000001_Node000009" class="edge">
<title>Node1&#45;&gt;Node9</title>
<g id="a_edge8_Node000001_Node000009"><a xlink:title=" ">
<path fill="none" stroke="#63b8ff" d="M479.93,-167.68C491.43,-163.87 504.18,-159.83 516,-156.5 527.89,-153.15 540.87,-149.91 552.88,-147.08"/>
<polygon fill="#63b8ff" stroke="#63b8ff" points="478.58,-164.44 470.21,-170.94 480.81,-171.07 478.58,-164.44"/>
</a>
</g>
</g>
<!-- Node2 -->
<g id="Node000002" class="node">
<title>Node2</title>
<g id="a_Node000002"><a xlink:href="class_p4_1_1_i_r_1_1_i_node.html" target="_top" xlink:title=" ">
<polygon fill="white" stroke="#bfbfbf" points="368,-190 289,-190 289,-171 368,-171 368,-190"/>
<text text-anchor="middle" x="328.5" y="-178" font-family="Helvetica,sans-Serif" font-size="10.00">P4::IR::INode</text>
</a>
</g>
</g>
<!-- Node2&#45;&gt;Node1 -->
<g id="edge1_Node000001_Node000002" class="edge">
<title>Node2&#45;&gt;Node1</title>
<g id="a_edge1_Node000001_Node000002"><a xlink:title=" ">
<path fill="none" stroke="#63b8ff" d="M378.44,-180.5C386.98,-180.5 395.73,-180.5 403.89,-180.5"/>
<polygon fill="#63b8ff" stroke="#63b8ff" points="378.18,-177 368.18,-180.5 378.18,-184 378.18,-177"/>
</a>
</g>
</g>
<!-- Node3 -->
<g id="Node000003" class="node">
<title>Node3</title>
<g id="a_Node000003"><a xlink:href="class_p4_1_1_util_1_1_i_has_source_info.html" target="_top" xlink:title=" ">
<polygon fill="white" stroke="#bfbfbf" points="253,-227 122,-227 122,-208 253,-208 253,-227"/>
<text text-anchor="middle" x="187.5" y="-215" font-family="Helvetica,sans-Serif" font-size="10.00">P4::Util::IHasSourceInfo</text>
</a>
</g>
</g>
<!-- Node3&#45;&gt;Node2 -->
<g id="edge2_Node000002_Node000003" class="edge">
<title>Node3&#45;&gt;Node2</title>
<g id="a_edge2_Node000002_Node000003"><a xlink:title=" ">
<path fill="none" stroke="#63b8ff" d="M234.03,-205.38C252.63,-200.43 273.84,-194.78 291.34,-190.12"/>
<polygon fill="#63b8ff" stroke="#63b8ff" points="233.06,-202.02 224.3,-207.97 234.86,-208.78 233.06,-202.02"/>
</a>
</g>
</g>
<!-- Node4 -->
<g id="Node000004" class="node">
<title>Node4</title>
<g id="a_Node000004"><a xlink:href="class_p4_1_1_i_has_db_print.html" target="_top" xlink:title=" ">
<polygon fill="white" stroke="#bfbfbf" points="233.5,-190 141.5,-190 141.5,-171 233.5,-171 233.5,-190"/>
<text text-anchor="middle" x="187.5" y="-178" font-family="Helvetica,sans-Serif" font-size="10.00">P4::IHasDbPrint</text>
</a>
</g>
</g>
<!-- Node4&#45;&gt;Node2 -->
<g id="edge3_Node000002_Node000004" class="edge">
<title>Node4&#45;&gt;Node2</title>
<g id="a_edge3_Node000002_Node000004"><a xlink:title=" ">
<path fill="none" stroke="#63b8ff" d="M243.84,-180.5C258.85,-180.5 274.78,-180.5 288.67,-180.5"/>
<polygon fill="#63b8ff" stroke="#63b8ff" points="243.63,-177 233.63,-180.5 243.63,-184 243.63,-177"/>
</a>
</g>
</g>
<!-- Node5 -->
<g id="Node000005" class="node">
<title>Node5</title>
<g id="a_Node000005"><a xlink:href="class_p4_1_1_i_castable.html" target="_top" xlink:title=" ">
<polygon fill="white" stroke="#666666" points="227.5,-153 147.5,-153 147.5,-134 227.5,-134 227.5,-153"/>
<text text-anchor="middle" x="187.5" y="-141" font-family="Helvetica,sans-Serif" font-size="10.00">P4::ICastable</text>
</a>
</g>
</g>
<!-- Node5&#45;&gt;Node2 -->
<g id="edge4_Node000002_Node000005" class="edge">
<title>Node5&#45;&gt;Node2</title>
<g id="a_edge4_Node000002_Node000005"><a xlink:title=" ">
<path fill="none" stroke="#63b8ff" d="M234.03,-155.62C252.63,-160.57 273.84,-166.22 291.34,-170.88"/>
<polygon fill="#63b8ff" stroke="#63b8ff" points="234.86,-152.22 224.3,-153.03 233.06,-158.98 234.86,-152.22"/>
</a>
</g>
</g>
<!-- Node6 -->
<g id="Node000006" class="node">
<title>Node6</title>
<g id="a_Node000006"><a xlink:href="struct_p4_1_1_r_t_t_i_1_1_base.html" target="_top" xlink:title=" ">
<polygon fill="white" stroke="#bfbfbf" points="86,-153 0,-153 0,-134 86,-134 86,-153"/>
<text text-anchor="middle" x="43" y="-141" font-family="Helvetica,sans-Serif" font-size="10.00">P4::RTTI::Base</text>
</a>
</g>
</g>
<!-- Node6&#45;&gt;Node5 -->
<g id="edge5_Node000005_Node000006" class="edge">
<title>Node6&#45;&gt;Node5</title>
<g id="a_edge5_Node000005_Node000006"><a xlink:title=" ">
<path fill="none" stroke="#63b8ff" d="M96.62,-143.5C113.45,-143.5 131.77,-143.5 147.46,-143.5"/>
<polygon fill="#63b8ff" stroke="#63b8ff" points="96.37,-140 86.37,-143.5 96.37,-147 96.37,-140"/>
</a>
</g>
</g>
<!-- Node10 -->
<g id="Node000010" class="node">
<title>Node10</title>
<g id="a_Node000010"><a xlink:href="class_p4_1_1_i_r_1_1_vector.html" target="_top" xlink:title=" ">
<polygon fill="white" stroke="#bfbfbf" points="821.5,-296.5 719.5,-296.5 719.5,-266.5 821.5,-266.5 821.5,-296.5"/>
<text text-anchor="start" x="727.5" y="-284.5" font-family="Helvetica,sans-Serif" font-size="10.00">P4::IR::Vector&lt; IR</text>
<text text-anchor="middle" x="770.5" y="-273.5" font-family="Helvetica,sans-Serif" font-size="10.00">::Type &gt;</text>
</a>
</g>
</g>
<!-- Node9&#45;&gt;Node10 -->
<g id="edge9_Node000009_Node000010" class="edge">
<title>Node9&#45;&gt;Node10</title>
<g id="a_edge9_Node000009_Node000010"><a xlink:title=" ">
<path fill="none" stroke="#63b8ff" d="M659.96,-145.05C666.92,-147.84 673.48,-151.56 679,-156.5 714.51,-188.28 682.54,-222.6 715,-257.5 718.17,-260.91 721.91,-263.86 725.92,-266.41"/>
<polygon fill="#63b8ff" stroke="#63b8ff" points="660.88,-141.67 650.29,-141.79 658.65,-148.3 660.88,-141.67"/>
</a>
</g>
</g>
<!-- Node11 -->
<g id="Node000011" class="node">
<title>Node11</title>
<g id="a_Node000011"><a xlink:href="class_p4_1_1_i_r_1_1_vector.html" target="_top" xlink:title=" ">
<polygon fill="white" stroke="#bfbfbf" points="822.5,-248.5 718.5,-248.5 718.5,-218.5 822.5,-218.5 822.5,-248.5"/>
<text text-anchor="start" x="726.5" y="-236.5" font-family="Helvetica,sans-Serif" font-size="10.00">P4::IR::Vector&lt; P4</text>
<text text-anchor="middle" x="770.5" y="-225.5" font-family="Helvetica,sans-Serif" font-size="10.00">::IR::Node &gt;</text>
</a>
</g>
</g>
<!-- Node9&#45;&gt;Node11 -->
<g id="edge10_Node000009_Node000011" class="edge">
<title>Node9&#45;&gt;Node11</title>
<g id="a_edge10_Node000009_Node000011"><a xlink:title=" ">
<path fill="none" stroke="#63b8ff" d="M660.17,-146.95C666.84,-149.43 673.28,-152.56 679,-156.5 702.45,-172.65 693.12,-191.28 715,-209.5 719.05,-212.87 723.65,-215.86 728.42,-218.47"/>
<polygon fill="#63b8ff" stroke="#63b8ff" points="660.87,-143.5 650.28,-143.75 658.72,-150.16 660.87,-143.5"/>
</a>
</g>
</g>
<!-- Node13 -->
<g id="Node000013" class="node">
<title>Node13</title>
<g id="a_Node000013"><a xlink:href="class_p4_1_1_i_r_1_1_vector.html" target="_top" xlink:title=" ">
<polygon fill="white" stroke="#bfbfbf" points="821.5,-200.5 719.5,-200.5 719.5,-170.5 821.5,-170.5 821.5,-200.5"/>
<text text-anchor="start" x="727.5" y="-188.5" font-family="Helvetica,sans-Serif" font-size="10.00">P4::IR::Vector&lt; IR</text>
<text text-anchor="middle" x="770.5" y="-177.5" font-family="Helvetica,sans-Serif" font-size="10.00">::StatOrDecl &gt;</text>
</a>
</g>
</g>
<!-- Node9&#45;&gt;Node13 -->
<g id="edge12_Node000009_Node000013" class="edge">
<title>Node9&#45;&gt;Node13</title>
<g id="a_edge12_Node000009_Node000013"><a xlink:title=" ">
<path fill="none" stroke="#63b8ff" d="M651.53,-149.39C660.72,-151.63 670.16,-154.04 679,-156.5 694.1,-160.69 710.46,-165.77 725.06,-170.49"/>
<polygon fill="#63b8ff" stroke="#63b8ff" points="652.23,-145.96 641.69,-147.04 650.6,-152.77 652.23,-145.96"/>
</a>
</g>
</g>
<!-- Node15 -->
<g id="Node000015" class="node">
<title>Node15</title>
<g id="a_Node000015"><a xlink:href="class_p4_1_1_i_r_1_1_vector.html" target="_top" xlink:title=" ">
<polygon fill="white" stroke="#bfbfbf" points="821.5,-152.5 719.5,-152.5 719.5,-122.5 821.5,-122.5 821.5,-152.5"/>
<text text-anchor="start" x="727.5" y="-140.5" font-family="Helvetica,sans-Serif" font-size="10.00">P4::IR::Vector&lt; IR</text>
<text text-anchor="middle" x="770.5" y="-129.5" font-family="Helvetica,sans-Serif" font-size="10.00">::Declaration &gt;</text>
</a>
</g>
</g>
<!-- Node9&#45;&gt;Node15 -->
<g id="edge14_Node000009_Node000015" class="edge">
<title>Node9&#45;&gt;Node15</title>
<g id="a_edge14_Node000009_Node000015"><a xlink:title=" ">
<path fill="none" stroke="#63b8ff" d="M660.51,-137.5C679.86,-137.5 700.95,-137.5 719.37,-137.5"/>
<polygon fill="#63b8ff" stroke="#63b8ff" points="660.27,-134 650.27,-137.5 660.27,-141 660.27,-134"/>
</a>
</g>
</g>
<!-- Node17 -->
<g id="Node000017" class="node">
<title>Node17</title>
<g id="a_Node000017"><a xlink:href="class_p4_1_1_i_r_1_1_vector.html" target="_top" xlink:title=" ">
<polygon fill="white" stroke="#bfbfbf" points="821.5,-104.5 719.5,-104.5 719.5,-74.5 821.5,-74.5 821.5,-104.5"/>
<text text-anchor="start" x="727.5" y="-92.5" font-family="Helvetica,sans-Serif" font-size="10.00">P4::IR::Vector&lt; IR</text>
<text text-anchor="middle" x="770.5" y="-81.5" font-family="Helvetica,sans-Serif" font-size="10.00">::Argument &gt;</text>
</a>
</g>
</g>
<!-- Node9&#45;&gt;Node17 -->
<g id="edge16_Node000009_Node000017" class="edge">
<title>Node9&#45;&gt;Node17</title>
<g id="a_edge16_Node000009_Node000017"><a xlink:title=" ">
<path fill="none" stroke="#63b8ff" d="M642.41,-125.17C665.96,-118.56 695.07,-110.39 719.48,-103.54"/>
<polygon fill="#63b8ff" stroke="#63b8ff" points="641.38,-121.83 632.69,-127.9 643.27,-128.57 641.38,-121.83"/>
</a>
</g>
</g>
<!-- Node18 -->
<g id="Node000018" class="node">
<title>Node18</title>
<g id="a_Node000018"><a xlink:href="class_p4_1_1_i_r_1_1_vector.html" target="_top" xlink:title=" ">
<polygon fill="white" stroke="#bfbfbf" points="826,-56 715,-56 715,-37 826,-37 826,-56"/>
<text text-anchor="middle" x="770.5" y="-44" font-family="Helvetica,sans-Serif" font-size="10.00">P4::IR::Vector&lt; N &gt;</text>
</a>
</g>
</g>
<!-- Node9&#45;&gt;Node18 -->
<g id="edge17_Node000009_Node000018" class="edge">
<title>Node9&#45;&gt;Node18</title>
<g id="a_edge17_Node000009_Node000018"><a xlink:title=" ">
<path fill="none" stroke="#63b8ff" d="M620.21,-122.08C643.02,-106.36 680.32,-82.02 715,-65.5 722.42,-61.97 730.68,-58.75 738.47,-56"/>
<polygon fill="#63b8ff" stroke="#63b8ff" points="618.14,-119.25 611.93,-127.84 622.14,-125 618.14,-119.25"/>
</a>
</g>
</g>
<!-- Node19 -->
<g id="Node000019" class="node">
<title>Node19</title>
<g id="a_Node000019"><a xlink:href="class_p4_1_1_i_r_1_1_vector.html" target="_top" xlink:title=" ">
<polygon fill="white" stroke="#bfbfbf" points="825.5,-19 715.5,-19 715.5,0 825.5,0 825.5,-19"/>
<text text-anchor="middle" x="770.5" y="-7" font-family="Helvetica,sans-Serif" font-size="10.00">P4::IR::Vector&lt; T &gt;</text>
</a>
</g>
</g>
<!-- Node9&#45;&gt;Node19 -->
<g id="edge18_Node000009_Node000019" class="edge">
<title>Node9&#45;&gt;Node19</title>
<g id="a_edge18_Node000009_Node000019"><a xlink:title=" ">
<path fill="none" stroke="#63b8ff" d="M612.77,-119.84C633.11,-95.77 672.66,-52.76 715,-27.5 720.56,-24.18 726.81,-21.39 733.05,-19.07"/>
<polygon fill="#63b8ff" stroke="#63b8ff" points="609.87,-117.85 606.18,-127.79 615.26,-122.32 609.87,-117.85"/>
</a>
</g>
</g>
<!-- Node12 -->
<g id="Node000012" class="node">
<title>Node12</title>
<g id="a_Node000012"><a xlink:href="class_p4_1_1_i_r_1_1_indexed_vector.html" target="_top" xlink:title=" ">
<polygon fill="white" stroke="#666666" points="995.5,-248.5 876.5,-248.5 876.5,-218.5 995.5,-218.5 995.5,-248.5"/>
<text text-anchor="start" x="884.5" y="-236.5" font-family="Helvetica,sans-Serif" font-size="10.00">P4::IR::IndexedVector</text>
<text text-anchor="middle" x="936" y="-225.5" font-family="Helvetica,sans-Serif" font-size="10.00">&lt; P4::IR::Node &gt;</text>
</a>
</g>
</g>
<!-- Node11&#45;&gt;Node12 -->
<g id="edge11_Node000011_Node000012" class="edge">
<title>Node11&#45;&gt;Node12</title>
<g id="a_edge11_Node000011_Node000012"><a xlink:title=" ">
<path fill="none" stroke="#63b8ff" d="M832.98,-233.5C847.23,-233.5 862.36,-233.5 876.48,-233.5"/>
<polygon fill="#63b8ff" stroke="#63b8ff" points="832.78,-230 822.78,-233.5 832.78,-237 832.78,-230"/>
</a>
</g>
</g>
<!-- Node14 -->
<g id="Node000014" class="node">
<title>Node14</title>
<g id="a_Node000014"><a xlink:href="class_p4_1_1_i_r_1_1_indexed_vector.html" target="_top" xlink:title=" ">
<polygon fill="white" stroke="#666666" points="995.5,-200.5 876.5,-200.5 876.5,-170.5 995.5,-170.5 995.5,-200.5"/>
<text text-anchor="start" x="884.5" y="-188.5" font-family="Helvetica,sans-Serif" font-size="10.00">P4::IR::IndexedVector</text>
<text text-anchor="middle" x="936" y="-177.5" font-family="Helvetica,sans-Serif" font-size="10.00">&lt; IR::StatOrDecl &gt;</text>
</a>
</g>
</g>
<!-- Node13&#45;&gt;Node14 -->
<g id="edge13_Node000013_Node000014" class="edge">
<title>Node13&#45;&gt;Node14</title>
<g id="a_edge13_Node000013_Node000014"><a xlink:title=" ">
<path fill="none" stroke="#63b8ff" d="M832.23,-185.5C846.7,-185.5 862.1,-185.5 876.47,-185.5"/>
<polygon fill="#63b8ff" stroke="#63b8ff" points="831.89,-182 821.89,-185.5 831.89,-189 831.89,-182"/>
</a>
</g>
</g>
<!-- Node16 -->
<g id="Node000016" class="node">
<title>Node16</title>
<g id="a_Node000016"><a xlink:href="class_p4_1_1_i_r_1_1_indexed_vector.html" target="_top" xlink:title=" ">
<polygon fill="white" stroke="#666666" points="995.5,-152.5 876.5,-152.5 876.5,-122.5 995.5,-122.5 995.5,-152.5"/>
<text text-anchor="start" x="884.5" y="-140.5" font-family="Helvetica,sans-Serif" font-size="10.00">P4::IR::IndexedVector</text>
<text text-anchor="middle" x="936" y="-129.5" font-family="Helvetica,sans-Serif" font-size="10.00">&lt; IR::Declaration &gt;</text>
</a>
</g>
</g>
<!-- Node15&#45;&gt;Node16 -->
<g id="edge15_Node000015_Node000016" class="edge">
<title>Node15&#45;&gt;Node16</title>
<g id="a_edge15_Node000015_Node000016"><a xlink:title=" ">
<path fill="none" stroke="#63b8ff" d="M832.23,-137.5C846.7,-137.5 862.1,-137.5 876.47,-137.5"/>
<polygon fill="#63b8ff" stroke="#63b8ff" points="831.89,-134 821.89,-137.5 831.89,-141 831.89,-134"/>
</a>
</g>
</g>
<!-- Node20 -->
<g id="Node000020" class="node">
<title>Node20</title>
<g id="a_Node000020"><a xlink:href="class_p4_1_1_i_r_1_1_indexed_vector.html" target="_top" xlink:title=" ">
<polygon fill="white" stroke="#666666" points="1010,-19 862,-19 862,0 1010,0 1010,-19"/>
<text text-anchor="middle" x="936" y="-7" font-family="Helvetica,sans-Serif" font-size="10.00">P4::IR::IndexedVector&lt; T &gt;</text>
</a>
</g>
</g>
<!-- Node19&#45;&gt;Node20 -->
<g id="edge19_Node000019_Node000020" class="edge">
<title>Node19&#45;&gt;Node20</title>
<g id="a_edge19_Node000019_Node000020"><a xlink:title=" ">
<path fill="none" stroke="#63b8ff" d="M836.11,-9.5C844.57,-9.5 853.29,-9.5 861.88,-9.5"/>
<polygon fill="#63b8ff" stroke="#63b8ff" points="835.94,-6 825.94,-9.5 835.94,-13 835.94,-6"/>
</a>
</g>
</g>
</g>
</svg>
