<?xml version="1.0" encoding="UTF-8" standalone="no"?>
<!DOCTYPE svg PUBLIC "-//W3C//DTD SVG 1.1//EN"
 "http://www.w3.org/Graphics/SVG/1.1/DTD/svg11.dtd">
<!-- Generated by graphviz version 2.43.0 (0)
 -->
<!-- Title: P4V1::ExpressionConverter Pages: 1 -->
<svg width="290pt" height="196pt"
 viewBox="0.00 0.00 290.00 196.00" xmlns="http://www.w3.org/2000/svg" xmlns:xlink="http://www.w3.org/1999/xlink">
<g id="graph0" class="graph" transform="scale(1 1) rotate(0) translate(4 192)">
<title>P4V1::ExpressionConverter</title>
<polygon fill="white" stroke="transparent" points="-4,4 -4,-192 286,-192 286,4 -4,4"/>
<!-- Node1 -->
<g id="node1" class="node">
<title>Node1</title>
<g id="a_node1"><a xlink:title=" ">
<polygon fill="#bfbfbf" stroke="black" points="73.5,-56.5 73.5,-75.5 222.5,-75.5 222.5,-56.5 73.5,-56.5"/>
<text text-anchor="middle" x="148" y="-63.5" font-family="Helvetica,sans-Serif" font-size="10.00">P4V1::ExpressionConverter</text>
</a>
</g>
</g>
<!-- Node4 -->
<g id="node4" class="node">
<title>Node4</title>
<g id="a_node4"><a xlink:href="class_p4_v1_1_1_statement_converter.html" target="_top" xlink:title=" ">
<polygon fill="white" stroke="black" points="0,-0.5 0,-19.5 146,-19.5 146,-0.5 0,-0.5"/>
<text text-anchor="middle" x="73" y="-7.5" font-family="Helvetica,sans-Serif" font-size="10.00">P4V1::StatementConverter</text>
</a>
</g>
</g>
<!-- Node1&#45;&gt;Node4 -->
<g id="edge3" class="edge">
<title>Node1&#45;&gt;Node4</title>
<path fill="none" stroke="midnightblue" d="M127.69,-50.38C114.14,-40.62 96.76,-28.11 85.27,-19.83"/>
<polygon fill="midnightblue" stroke="midnightblue" points="125.79,-53.32 135.95,-56.32 129.88,-47.64 125.79,-53.32"/>
</g>
<!-- Node5 -->
<g id="node5" class="node">
<title>Node5</title>
<g id="a_node5"><a xlink:href="class_p4_v1_1_1_type_converter.html" target="_top" xlink:title=" ">
<polygon fill="white" stroke="black" points="164,-0.5 164,-19.5 282,-19.5 282,-0.5 164,-0.5"/>
<text text-anchor="middle" x="223" y="-7.5" font-family="Helvetica,sans-Serif" font-size="10.00">P4V1::TypeConverter</text>
</a>
</g>
</g>
<!-- Node1&#45;&gt;Node5 -->
<g id="edge4" class="edge">
<title>Node1&#45;&gt;Node5</title>
<path fill="none" stroke="midnightblue" d="M168.31,-50.38C181.86,-40.62 199.24,-28.11 210.73,-19.83"/>
<polygon fill="midnightblue" stroke="midnightblue" points="166.12,-47.64 160.05,-56.32 170.21,-53.32 166.12,-47.64"/>
</g>
<!-- Node2 -->
<g id="node2" class="node">
<title>Node2</title>
<g id="a_node2"><a xlink:href="class_transform.html" target="_top" xlink:title=" ">
<polygon fill="white" stroke="black" points="115.5,-112.5 115.5,-131.5 180.5,-131.5 180.5,-112.5 115.5,-112.5"/>
<text text-anchor="middle" x="148" y="-119.5" font-family="Helvetica,sans-Serif" font-size="10.00">Transform</text>
</a>
</g>
</g>
<!-- Node2&#45;&gt;Node1 -->
<g id="edge1" class="edge">
<title>Node2&#45;&gt;Node1</title>
<path fill="none" stroke="midnightblue" d="M148,-101.8C148,-92.91 148,-82.78 148,-75.75"/>
<polygon fill="midnightblue" stroke="midnightblue" points="144.5,-102.08 148,-112.08 151.5,-102.08 144.5,-102.08"/>
</g>
<!-- Node3 -->
<g id="node3" class="node">
<title>Node3</title>
<g id="a_node3"><a xlink:href="class_visitor.html" target="_top" xlink:title=" ">
<polygon fill="white" stroke="black" points="124,-168.5 124,-187.5 172,-187.5 172,-168.5 124,-168.5"/>
<text text-anchor="middle" x="148" y="-175.5" font-family="Helvetica,sans-Serif" font-size="10.00">Visitor</text>
</a>
</g>
</g>
<!-- Node3&#45;&gt;Node2 -->
<g id="edge2" class="edge">
<title>Node3&#45;&gt;Node2</title>
<path fill="none" stroke="midnightblue" d="M148,-157.8C148,-148.91 148,-138.78 148,-131.75"/>
<polygon fill="midnightblue" stroke="midnightblue" points="144.5,-158.08 148,-168.08 151.5,-158.08 144.5,-158.08"/>
</g>
</g>
</svg>
