<?xml version="1.0" encoding="UTF-8" standalone="no"?>
<!DOCTYPE svg PUBLIC "-//W3C//DTD SVG 1.1//EN"
 "http://www.w3.org/Graphics/SVG/1.1/DTD/svg11.dtd">
<!-- Generated by graphviz version 2.43.0 (0)
 -->
<!-- Title: P4::EBPF::ControlBodyTranslator Pages: 1 -->
<!--zoomable 247 -->

<svg id="main" version="1.1" xmlns="http://www.w3.org/2000/svg" xmlns:xlink="http://www.w3.org/1999/xlink" xml:space="preserve" onload="init(evt)">

<style type="text/css"><![CDATA[
.node, .edge {opacity: 0.7;}
.node.selected, .edge.selected {opacity: 1;}
.edge:hover path { stroke: red; }
.edge:hover polygon { stroke: red; fill: red; }
]]></style>

<defs>
  <circle id="rim" cx="0" cy="0" r="7"/>
  <circle id="rim2" cx="0" cy="0" r="3.5"/>
  <g id="zoomPlus">
    <use xlink:href="#rim" fill="#404040"><set attributeName="fill" to="#808080" begin="zoomplus.mouseover" end="zoomplus.mouseout"/></use>
    <path d="M-4,0h8M0,-4v8" fill="none" stroke="white" stroke-width="1.5" pointer-events="none"/>
  </g>
  <g id="zoomMin">
    <use xlink:href="#rim" fill="#404040"><set attributeName="fill" to="#808080" begin="zoomminus.mouseover" end="zoomminus.mouseout"/></use>
    <path d="M-4,0h8" fill="none" stroke="white" stroke-width="1.5" pointer-events="none"/>
  </g>
  <g id="arrowUp" transform="translate(30 24)">
    <use xlink:href="#rim"/>
    <path pointer-events="none" fill="none" stroke="white" stroke-width="1.5" d="M0,-3.0v7 M-2.5,-0.5L0,-3.0L2.5,-0.5"/>
  </g>
  <g id="arrowRight" transform="rotate(90) translate(36 -43)">
    <use xlink:href="#rim"/>
    <path pointer-events="none" fill="none" stroke="white" stroke-width="1.5" d="M0,-3.0v7 M-2.5,-0.5L0,-3.0L2.5,-0.5"/>
  </g>
  <g id="arrowDown" transform="rotate(180) translate(-30 -48)">
    <use xlink:href="#rim"/>
    <path pointer-events="none" fill="none" stroke="white" stroke-width="1.5" d="M0,-3.0v7 M-2.5,-0.5L0,-3.0L2.5,-0.5"/>
  </g>
  <g id="arrowLeft" transform="rotate(270) translate(-36 17)">
    <use xlink:href="#rim"/>
    <path pointer-events="none" fill="none" stroke="white" stroke-width="1.5" d="M0,-3.0v7 M-2.5,-0.5L0,-3.0L2.5,-0.5"/>
  </g>
  <g id="resetDef">
    <use xlink:href="#rim2" fill="#404040"><set attributeName="fill" to="#808080" begin="reset.mouseover" end="reset.mouseout"/></use>
  </g>
</defs>
<script type="application/ecmascript">
var viewWidth = 1284;
var viewHeight = 247;
var sectionId = 'dynsection-0';
</script>
<script type="application/ecmascript" xlink:href="svg.min.js"/>
<svg id="graph" class="graph">
<g id="viewport">
<title>P4::EBPF::ControlBodyTranslator</title>
<!-- Node1 -->
<g id="Node000001" class="node">
<title>Node1</title>
<g id="a_Node000001"><a xlink:title=" ">
<polygon fill="#999999" stroke="#666666" points="581,-111.5 408,-111.5 408,-92.5 581,-92.5 581,-111.5"/>
<text text-anchor="middle" x="494.5" y="-99.5" font-family="Helvetica,sans-Serif" font-size="10.00">P4::EBPF::ControlBodyTranslator</text>
</a>
</g>
</g>
<!-- Node5 -->
<g id="Node000005" class="node">
<title>Node5</title>
<g id="a_Node000005"><a xlink:href="class_p4_1_1_e_b_p_f_1_1_control_body_translator_p_s_a.html" target="_top" xlink:title=" ">
<polygon fill="white" stroke="#bfbfbf" points="809,-226.5 617,-226.5 617,-207.5 809,-207.5 809,-226.5"/>
<text text-anchor="middle" x="713" y="-214.5" font-family="Helvetica,sans-Serif" font-size="10.00">P4::EBPF::ControlBodyTranslatorPSA</text>
</a>
</g>
</g>
<!-- Node1&#45;&gt;Node5 -->
<g id="edge4_Node000001_Node000005" class="edge">
<title>Node1&#45;&gt;Node5</title>
<g id="a_edge4_Node000001_Node000005"><a xlink:title=" ">
<path fill="none" stroke="#63b8ff" d="M515.25,-118.03C538.46,-136.25 578.68,-165.91 617,-185 635.69,-194.31 657.74,-201.92 675.88,-207.39"/>
<polygon fill="#63b8ff" stroke="#63b8ff" points="517.24,-115.14 507.23,-111.66 512.88,-120.62 517.24,-115.14"/>
</a>
</g>
</g>
<!-- Node7 -->
<g id="Node000007" class="node">
<title>Node7</title>
<g id="a_Node000007"><a xlink:href="class_p4_1_1_e_b_p_f_1_1_deparser_body_translator.html" target="_top" xlink:title="This translator emits deparser externs.">
<polygon fill="white" stroke="#666666" points="804,-175.5 622,-175.5 622,-156.5 804,-156.5 804,-175.5"/>
<text text-anchor="middle" x="713" y="-163.5" font-family="Helvetica,sans-Serif" font-size="10.00">P4::EBPF::DeparserBodyTranslator</text>
</a>
</g>
</g>
<!-- Node1&#45;&gt;Node7 -->
<g id="edge6_Node000001_Node000007" class="edge">
<title>Node1&#45;&gt;Node7</title>
<g id="a_edge6_Node000001_Node000007"><a xlink:title=" ">
<path fill="none" stroke="#63b8ff" d="M537.75,-114.49C579.34,-126.78 641.96,-145.3 679.72,-156.46"/>
<polygon fill="#63b8ff" stroke="#63b8ff" points="538.49,-111.06 527.91,-111.58 536.51,-117.77 538.49,-111.06"/>
</a>
</g>
</g>
<!-- Node10 -->
<g id="Node000010" class="node">
<title>Node10</title>
<g id="a_Node000010"><a xlink:href="class_p4_1_1_e_b_p_f_1_1_deparser_prepare_buffer_translator.html" target="_top" xlink:title="This translator emits buffer preparation (eg. which headers will be emitted)">
<polygon fill="white" stroke="#666666" points="786,-117 640,-117 640,-87 786,-87 786,-117"/>
<text text-anchor="start" x="648" y="-105" font-family="Helvetica,sans-Serif" font-size="10.00">P4::EBPF::DeparserPrepare</text>
<text text-anchor="middle" x="713" y="-94" font-family="Helvetica,sans-Serif" font-size="10.00">BufferTranslator</text>
</a>
</g>
</g>
<!-- Node1&#45;&gt;Node10 -->
<g id="edge9_Node000001_Node000010" class="edge">
<title>Node1&#45;&gt;Node10</title>
<g id="a_edge9_Node000001_Node000010"><a xlink:title=" ">
<path fill="none" stroke="#63b8ff" d="M591.2,-102C607.58,-102 624.34,-102 639.97,-102"/>
<polygon fill="#63b8ff" stroke="#63b8ff" points="591.07,-98.5 581.07,-102 591.07,-105.5 591.07,-98.5"/>
</a>
</g>
</g>
<!-- Node14 -->
<g id="Node000014" class="node">
<title>Node14</title>
<g id="a_Node000014"><a xlink:href="class_p4_1_1_t_c_1_1_control_body_translator_p_n_a.html" target="_top" xlink:title=" ">
<polygon fill="white" stroke="#bfbfbf" points="803.5,-68.5 622.5,-68.5 622.5,-49.5 803.5,-49.5 803.5,-68.5"/>
<text text-anchor="middle" x="713" y="-56.5" font-family="Helvetica,sans-Serif" font-size="10.00">P4::TC::ControlBodyTranslatorPNA</text>
</a>
</g>
</g>
<!-- Node1&#45;&gt;Node14 -->
<g id="edge13_Node000001_Node000014" class="edge">
<title>Node1&#45;&gt;Node14</title>
<g id="a_edge13_Node000001_Node000014"><a xlink:title=" ">
<path fill="none" stroke="#63b8ff" d="M553.51,-90.48C588.09,-83.61 631.46,-75 664.09,-68.52"/>
<polygon fill="#63b8ff" stroke="#63b8ff" points="552.67,-87.08 543.55,-92.46 554.04,-93.94 552.67,-87.08"/>
</a>
</g>
</g>
<!-- Node16 -->
<g id="Node000016" class="node">
<title>Node16</title>
<g id="a_Node000016"><a xlink:href="class_p4_1_1_u_b_p_f_1_1_u_b_p_f_control_body_translator.html" target="_top" xlink:title=" ">
<polygon fill="white" stroke="#bfbfbf" points="789,-31 637,-31 637,-1 789,-1 789,-31"/>
<text text-anchor="start" x="645" y="-19" font-family="Helvetica,sans-Serif" font-size="10.00">P4::UBPF::UBPFControlBody</text>
<text text-anchor="middle" x="713" y="-8" font-family="Helvetica,sans-Serif" font-size="10.00">Translator</text>
</a>
</g>
</g>
<!-- Node1&#45;&gt;Node16 -->
<g id="edge15_Node000001_Node000016" class="edge">
<title>Node1&#45;&gt;Node16</title>
<g id="a_edge15_Node000001_Node000016"><a xlink:title=" ">
<path fill="none" stroke="#63b8ff" d="M520.28,-87.26C544.32,-73.48 582.17,-53.1 617,-40 625.76,-36.71 635.14,-33.72 644.47,-31.06"/>
<polygon fill="#63b8ff" stroke="#63b8ff" points="518.37,-84.33 511.48,-92.37 521.88,-90.38 518.37,-84.33"/>
</a>
</g>
</g>
<!-- Node2 -->
<g id="Node000002" class="node">
<title>Node2</title>
<g id="a_Node000002"><a xlink:href="class_p4_1_1_e_b_p_f_1_1_code_gen_inspector.html" target="_top" xlink:title=" ">
<polygon fill="white" stroke="#666666" points="372,-111.5 218,-111.5 218,-92.5 372,-92.5 372,-111.5"/>
<text text-anchor="middle" x="295" y="-99.5" font-family="Helvetica,sans-Serif" font-size="10.00">P4::EBPF::CodeGenInspector</text>
</a>
</g>
</g>
<!-- Node2&#45;&gt;Node1 -->
<g id="edge1_Node000001_Node000002" class="edge">
<title>Node2&#45;&gt;Node1</title>
<g id="a_edge1_Node000001_Node000002"><a xlink:title=" ">
<path fill="none" stroke="#63b8ff" d="M382.35,-102C390.84,-102 399.45,-102 407.93,-102"/>
<polygon fill="#63b8ff" stroke="#63b8ff" points="382.08,-98.5 372.08,-102 382.08,-105.5 382.08,-98.5"/>
</a>
</g>
</g>
<!-- Node3 -->
<g id="Node000003" class="node">
<title>Node3</title>
<g id="a_Node000003"><a xlink:href="class_p4_1_1_inspector.html" target="_top" xlink:title=" ">
<polygon fill="white" stroke="#bfbfbf" points="182,-111.5 102,-111.5 102,-92.5 182,-92.5 182,-111.5"/>
<text text-anchor="middle" x="142" y="-99.5" font-family="Helvetica,sans-Serif" font-size="10.00">P4::Inspector</text>
</a>
</g>
</g>
<!-- Node3&#45;&gt;Node2 -->
<g id="edge2_Node000002_Node000003" class="edge">
<title>Node3&#45;&gt;Node2</title>
<g id="a_edge2_Node000002_Node000003"><a xlink:title=" ">
<path fill="none" stroke="#63b8ff" d="M192.32,-102C200.48,-102 209.1,-102 217.73,-102"/>
<polygon fill="#63b8ff" stroke="#63b8ff" points="192.28,-98.5 182.28,-102 192.28,-105.5 192.28,-98.5"/>
</a>
</g>
</g>
<!-- Node4 -->
<g id="Node000004" class="node">
<title>Node4</title>
<g id="a_Node000004"><a xlink:href="class_p4_1_1_visitor.html" target="_top" xlink:title=" ">
<polygon fill="white" stroke="#bfbfbf" points="66,-111.5 0,-111.5 0,-92.5 66,-92.5 66,-111.5"/>
<text text-anchor="middle" x="33" y="-99.5" font-family="Helvetica,sans-Serif" font-size="10.00">P4::Visitor</text>
</a>
</g>
</g>
<!-- Node4&#45;&gt;Node3 -->
<g id="edge3_Node000003_Node000004" class="edge">
<title>Node4&#45;&gt;Node3</title>
<g id="a_edge3_Node000003_Node000004"><a xlink:title=" ">
<path fill="none" stroke="#63b8ff" d="M76.13,-102C84.57,-102 93.4,-102 101.73,-102"/>
<polygon fill="#63b8ff" stroke="#63b8ff" points="76.1,-98.5 66.1,-102 76.1,-105.5 76.1,-98.5"/>
</a>
</g>
</g>
<!-- Node6 -->
<g id="Node000006" class="node">
<title>Node6</title>
<g id="a_Node000006"><a xlink:href="class_p4_1_1_e_b_p_f_1_1_action_translation_visitor_p_s_a.html" target="_top" xlink:title=" ">
<polygon fill="white" stroke="#bfbfbf" points="1022,-239 873,-239 873,-209 1022,-209 1022,-239"/>
<text text-anchor="start" x="881" y="-227" font-family="Helvetica,sans-Serif" font-size="10.00">P4::EBPF::ActionTranslation</text>
<text text-anchor="middle" x="947.5" y="-216" font-family="Helvetica,sans-Serif" font-size="10.00">VisitorPSA</text>
</a>
</g>
</g>
<!-- Node5&#45;&gt;Node6 -->
<g id="edge5_Node000005_Node000006" class="edge">
<title>Node5&#45;&gt;Node6</title>
<g id="a_edge5_Node000005_Node000006"><a xlink:title=" ">
<path fill="none" stroke="#63b8ff" d="M819.48,-220.18C837.48,-220.72 855.82,-221.27 872.76,-221.78"/>
<polygon fill="#63b8ff" stroke="#63b8ff" points="819.34,-216.67 809.24,-219.87 819.13,-223.67 819.34,-216.67"/>
</a>
</g>
</g>
<!-- Node8 -->
<g id="Node000008" class="node">
<title>Node8</title>
<g id="a_Node000008"><a xlink:href="class_p4_1_1_e_b_p_f_1_1_deparser_body_translator_p_s_a.html" target="_top" xlink:title=" ">
<polygon fill="white" stroke="#bfbfbf" points="1048,-190.5 847,-190.5 847,-171.5 1048,-171.5 1048,-190.5"/>
<text text-anchor="middle" x="947.5" y="-178.5" font-family="Helvetica,sans-Serif" font-size="10.00">P4::EBPF::DeparserBodyTranslatorPSA</text>
</a>
</g>
</g>
<!-- Node7&#45;&gt;Node8 -->
<g id="edge7_Node000007_Node000008" class="edge">
<title>Node7&#45;&gt;Node8</title>
<g id="a_edge7_Node000007_Node000008"><a xlink:title=" ">
<path fill="none" stroke="#63b8ff" d="M814.41,-172.48C825.11,-173.17 835.99,-173.87 846.68,-174.56"/>
<polygon fill="#63b8ff" stroke="#63b8ff" points="814.43,-168.97 804.22,-171.82 813.98,-175.96 814.43,-168.97"/>
</a>
</g>
</g>
<!-- Node9 -->
<g id="Node000009" class="node">
<title>Node9</title>
<g id="a_Node000009"><a xlink:href="class_p4_1_1_t_c_1_1_deparser_body_translator_p_n_a.html" target="_top" xlink:title=" ">
<polygon fill="white" stroke="#bfbfbf" points="1276,-190.5 1086,-190.5 1086,-171.5 1276,-171.5 1276,-190.5"/>
<text text-anchor="middle" x="1181" y="-178.5" font-family="Helvetica,sans-Serif" font-size="10.00">P4::TC::DeparserBodyTranslatorPNA</text>
</a>
</g>
</g>
<!-- Node8&#45;&gt;Node9 -->
<g id="edge8_Node000008_Node000009" class="edge">
<title>Node8&#45;&gt;Node9</title>
<g id="a_edge8_Node000008_Node000009"><a xlink:title=" ">
<path fill="none" stroke="#63b8ff" d="M1058.02,-181C1067.27,-181 1076.58,-181 1085.69,-181"/>
<polygon fill="#63b8ff" stroke="#63b8ff" points="1058.02,-177.5 1048.02,-181 1058.02,-184.5 1058.02,-177.5"/>
</a>
</g>
</g>
<!-- Node11 -->
<g id="Node000011" class="node">
<title>Node11</title>
<g id="a_Node000011"><a xlink:href="class_p4_1_1_e_b_p_f_1_1_deparser_hdr_emit_translator.html" target="_top" xlink:title="This translator emits headers.">
<polygon fill="white" stroke="#666666" points="1022,-153 873,-153 873,-123 1022,-123 1022,-153"/>
<text text-anchor="start" x="881" y="-141" font-family="Helvetica,sans-Serif" font-size="10.00">P4::EBPF::DeparserHdrEmit</text>
<text text-anchor="middle" x="947.5" y="-130" font-family="Helvetica,sans-Serif" font-size="10.00">Translator</text>
</a>
</g>
</g>
<!-- Node10&#45;&gt;Node11 -->
<g id="edge10_Node000010_Node000011" class="edge">
<title>Node10&#45;&gt;Node11</title>
<g id="a_edge10_Node000010_Node000011"><a xlink:title=" ">
<path fill="none" stroke="#63b8ff" d="M796.42,-114.76C821.28,-118.61 848.39,-122.81 872.65,-126.57"/>
<polygon fill="#63b8ff" stroke="#63b8ff" points="796.71,-111.26 786.29,-113.19 795.64,-118.18 796.71,-111.26"/>
</a>
</g>
</g>
<!-- Node12 -->
<g id="Node000012" class="node">
<title>Node12</title>
<g id="a_Node000012"><a xlink:href="class_p4_1_1_t_c_1_1_deparser_hdr_emit_translator_p_n_a.html" target="_top" xlink:title=" ">
<polygon fill="white" stroke="#bfbfbf" points="1050,-104.5 845,-104.5 845,-85.5 1050,-85.5 1050,-104.5"/>
<text text-anchor="middle" x="947.5" y="-92.5" font-family="Helvetica,sans-Serif" font-size="10.00">P4::TC::DeparserHdrEmitTranslatorPNA</text>
</a>
</g>
</g>
<!-- Node10&#45;&gt;Node12 -->
<g id="edge11_Node000010_Node000012" class="edge">
<title>Node10&#45;&gt;Node12</title>
<g id="a_edge11_Node000010_Node000012"><a xlink:title=" ">
<path fill="none" stroke="#63b8ff" d="M796.43,-99.52C812.09,-99.05 828.64,-98.55 844.8,-98.06"/>
<polygon fill="#63b8ff" stroke="#63b8ff" points="796.18,-96.02 786.29,-99.82 796.39,-103.02 796.18,-96.02"/>
</a>
</g>
</g>
<!-- Node13 -->
<g id="Node000013" class="node">
<title>Node13</title>
<g id="a_Node000013"><a xlink:href="class_p4_1_1_t_c_1_1_size_scanner.html" target="_top" xlink:title=" ">
<polygon fill="white" stroke="#bfbfbf" points="1003.5,-67.5 891.5,-67.5 891.5,-48.5 1003.5,-48.5 1003.5,-67.5"/>
<text text-anchor="middle" x="947.5" y="-55.5" font-family="Helvetica,sans-Serif" font-size="10.00">P4::TC::SizeScanner</text>
</a>
</g>
</g>
<!-- Node10&#45;&gt;Node13 -->
<g id="edge12_Node000010_Node000013" class="edge">
<title>Node10&#45;&gt;Node13</title>
<g id="a_edge12_Node000010_Node000013"><a xlink:title=" ">
<path fill="none" stroke="#63b8ff" d="M796.02,-85.45C812.24,-82.26 829.15,-78.98 845,-76 860.13,-73.16 876.54,-70.19 891.68,-67.51"/>
<polygon fill="#63b8ff" stroke="#63b8ff" points="795.15,-82.06 786.02,-87.43 796.51,-88.93 795.15,-82.06"/>
</a>
</g>
</g>
<!-- Node15 -->
<g id="Node000015" class="node">
<title>Node15</title>
<g id="a_Node000015"><a xlink:href="class_p4_1_1_t_c_1_1_action_translation_visitor_p_n_a.html" target="_top" xlink:title=" ">
<polygon fill="white" stroke="#bfbfbf" points="1016,-30 879,-30 879,0 1016,0 1016,-30"/>
<text text-anchor="start" x="887" y="-18" font-family="Helvetica,sans-Serif" font-size="10.00">P4::TC::ActionTranslation</text>
<text text-anchor="middle" x="947.5" y="-7" font-family="Helvetica,sans-Serif" font-size="10.00">VisitorPNA</text>
</a>
</g>
</g>
<!-- Node14&#45;&gt;Node15 -->
<g id="edge14_Node000014_Node000015" class="edge">
<title>Node14&#45;&gt;Node15</title>
<g id="a_edge14_Node000014_Node000015"><a xlink:title=" ">
<path fill="none" stroke="#63b8ff" d="M774.56,-47.54C806.57,-41.48 845.95,-34.03 878.94,-27.79"/>
<polygon fill="#63b8ff" stroke="#63b8ff" points="773.62,-44.15 764.45,-49.45 774.93,-51.03 773.62,-44.15"/>
</a>
</g>
</g>
</g>
</svg>

<g id="navigator" transform="translate(0 0)" fill="#404254">
  <rect fill="#f2f5e9" fill-opacity="0.5" stroke="#606060" stroke-width=".5" x="0" y="0" width="60" height="60"/>
  <use id="zoomplus" xlink:href="#zoomPlus" x="17" y="9" onmousedown="handleZoom(evt,'in')"/>
  <use id="zoomminus" xlink:href="#zoomMin" x="42" y="9" onmousedown="handleZoom(evt,'out')"/>
  <use id="reset" xlink:href="#resetDef" x="30" y="36" onmousedown="handleReset()"/>
   <use id="arrowup" xlink:href="#arrowUp" x="0" y="0" onmousedown="handlePan(0,-1)"/>
  <use id="arrowright" xlink:href="#arrowRight" x="0" y="0" onmousedown="handlePan(1,0)"/>
  <use id="arrowdown" xlink:href="#arrowDown" x="0" y="0" onmousedown="handlePan(0,1)"/>
  <use id="arrowleft" xlink:href="#arrowLeft" x="0" y="0" onmousedown="handlePan(-1,0)"/>
</g>
<svg viewBox="0 0 15 15" width="100%" height="30px" preserveAspectRatio="xMaxYMin meet">
 <g id="arrow_out" transform="scale(0.3 0.3)">
  <a xlink:href="class_p4_1_1_e_b_p_f_1_1_control_body_translator__inherit__graph_org.svg" target="_base">
   <rect id="button" ry="5" rx="5" y="6" x="6" height="38" width="38"
        fill="#f2f5e9" fill-opacity="0.5" stroke="#606060" stroke-width="1.0"/>
   <path id="arrow"
     d="M 11.500037,31.436501 C 11.940474,20.09759 22.043105,11.32322 32.158766,21.979434 L 37.068811,17.246167 C 37.068811,17.246167 37.088388,32 37.088388,32 L 22.160133,31.978069 C 22.160133,31.978069 26.997745,27.140456 26.997745,27.140456 C 18.528582,18.264221 13.291696,25.230495 11.500037,31.436501 z"
     style="fill:#404040;"/>
  </a>
 </g>
</svg>

<style type='text/css'>
<![CDATA[
[data-mouse-over-selected='false'] { opacity: 0.7; }
[data-mouse-over-selected='true']  { opacity: 1.0; }
]]>
</style>
<script type="application/ecmascript"><![CDATA[
document.addEventListener('DOMContentLoaded', (event) => {
  highlightEdges();
  highlightAdjacentNodes();
});
]]></script>
</svg>
