<?xml version="1.0" encoding="UTF-8" standalone="no"?>
<!DOCTYPE svg PUBLIC "-//W3C//DTD SVG 1.1//EN"
 "http://www.w3.org/Graphics/SVG/1.1/DTD/svg11.dtd">
<!-- Generated by graphviz version 2.43.0 (0)
 -->
<!-- Title: BaseCompileContext Pages: 1 -->
<svg width="298pt" height="207pt"
 viewBox="0.00 0.00 298.00 207.00" xmlns="http://www.w3.org/2000/svg" xmlns:xlink="http://www.w3.org/1999/xlink">
<g id="graph0" class="graph" transform="scale(1 1) rotate(0) translate(4 203)">
<title>BaseCompileContext</title>
<polygon fill="white" stroke="transparent" points="-4,4 -4,-203 294,-203 294,4 -4,4"/>
<!-- Node1 -->
<g id="node1" class="node">
<title>Node1</title>
<g id="a_node1"><a xlink:title=" ">
<polygon fill="#bfbfbf" stroke="black" points="84.5,-123.5 84.5,-142.5 203.5,-142.5 203.5,-123.5 84.5,-123.5"/>
<text text-anchor="middle" x="144" y="-130.5" font-family="Helvetica,sans-Serif" font-size="10.00">BaseCompileContext</text>
</a>
</g>
</g>
<!-- Node3 -->
<g id="node3" class="node">
<title>Node3</title>
<g id="a_node3"><a xlink:href="class_p4_c_context.html" target="_top" xlink:title=" ">
<polygon fill="white" stroke="black" points="107,-67.5 107,-86.5 181,-86.5 181,-67.5 107,-67.5"/>
<text text-anchor="middle" x="144" y="-74.5" font-family="Helvetica,sans-Serif" font-size="10.00">P4CContext</text>
</a>
</g>
</g>
<!-- Node1&#45;&gt;Node3 -->
<g id="edge2" class="edge">
<title>Node1&#45;&gt;Node3</title>
<path fill="none" stroke="midnightblue" d="M144,-112.8C144,-103.91 144,-93.78 144,-86.75"/>
<polygon fill="midnightblue" stroke="midnightblue" points="140.5,-113.08 144,-123.08 147.5,-113.08 140.5,-113.08"/>
</g>
<!-- Node2 -->
<g id="node2" class="node">
<title>Node2</title>
<g id="a_node2"><a xlink:href="class_i_compile_context.html" target="_top" xlink:title=" ">
<polygon fill="white" stroke="black" points="95,-179.5 95,-198.5 193,-198.5 193,-179.5 95,-179.5"/>
<text text-anchor="middle" x="144" y="-186.5" font-family="Helvetica,sans-Serif" font-size="10.00">ICompileContext</text>
</a>
</g>
</g>
<!-- Node2&#45;&gt;Node1 -->
<g id="edge1" class="edge">
<title>Node2&#45;&gt;Node1</title>
<path fill="none" stroke="midnightblue" d="M144,-168.8C144,-159.91 144,-149.78 144,-142.75"/>
<polygon fill="midnightblue" stroke="midnightblue" points="140.5,-169.08 144,-179.08 147.5,-169.08 140.5,-169.08"/>
</g>
<!-- Node4 -->
<g id="node4" class="node">
<title>Node4</title>
<g id="a_node4"><a xlink:href="class_p4_c_context_with_options.html" target="_top" xlink:title=" ">
<polygon fill="white" stroke="black" points="0,-0.5 0,-30.5 134,-30.5 134,-0.5 0,-0.5"/>
<text text-anchor="start" x="8" y="-18.5" font-family="Helvetica,sans-Serif" font-size="10.00">P4CContextWithOptions</text>
<text text-anchor="middle" x="67" y="-7.5" font-family="Helvetica,sans-Serif" font-size="10.00">&lt; OptionsType &gt;</text>
</a>
</g>
</g>
<!-- Node3&#45;&gt;Node4 -->
<g id="edge3" class="edge">
<title>Node3&#45;&gt;Node4</title>
<path fill="none" stroke="midnightblue" d="M124.84,-61.2C112.7,-51.81 97.09,-39.75 85.15,-30.52"/>
<polygon fill="midnightblue" stroke="midnightblue" points="122.91,-64.13 132.97,-67.48 127.19,-58.59 122.91,-64.13"/>
</g>
<!-- Node5 -->
<g id="node5" class="node">
<title>Node5</title>
<g id="a_node5"><a xlink:href="class_p4_tools_1_1_compile_context.html" target="_top" xlink:title="A compilation context for P4Tools that provides a custom compiler configuration.">
<polygon fill="white" stroke="black" points="152,-0.5 152,-30.5 290,-30.5 290,-0.5 152,-0.5"/>
<text text-anchor="start" x="160" y="-18.5" font-family="Helvetica,sans-Serif" font-size="10.00">P4Tools::CompileContext</text>
<text text-anchor="middle" x="221" y="-7.5" font-family="Helvetica,sans-Serif" font-size="10.00">&lt; OptionsType &gt;</text>
</a>
</g>
</g>
<!-- Node3&#45;&gt;Node5 -->
<g id="edge4" class="edge">
<title>Node3&#45;&gt;Node5</title>
<path fill="none" stroke="midnightblue" d="M163.16,-61.2C175.3,-51.81 190.91,-39.75 202.85,-30.52"/>
<polygon fill="midnightblue" stroke="midnightblue" points="160.81,-58.59 155.03,-67.48 165.09,-64.13 160.81,-58.59"/>
</g>
</g>
</svg>
