<?xml version="1.0" encoding="UTF-8" standalone="no"?>
<!DOCTYPE svg PUBLIC "-//W3C//DTD SVG 1.1//EN"
 "http://www.w3.org/Graphics/SVG/1.1/DTD/svg11.dtd">
<!-- Generated by graphviz version 2.43.0 (0)
 -->
<!-- Title: ICastable Pages: 1 -->
<svg width="729pt" height="1157pt"
 viewBox="0.00 0.00 729.00 1157.00" xmlns="http://www.w3.org/2000/svg" xmlns:xlink="http://www.w3.org/1999/xlink">
<g id="graph0" class="graph" transform="scale(1 1) rotate(0) translate(4 1153)">
<title>ICastable</title>
<polygon fill="white" stroke="transparent" points="-4,4 -4,-1153 725,-1153 725,4 -4,4"/>
<!-- Node1 -->
<g id="node1" class="node">
<title>Node1</title>
<g id="a_node1"><a xlink:title=" ">
<polygon fill="#bfbfbf" stroke="black" points="104,-388.5 104,-407.5 166,-407.5 166,-388.5 104,-388.5"/>
<text text-anchor="middle" x="135" y="-395.5" font-family="Helvetica,sans-Serif" font-size="10.00">ICastable</text>
</a>
</g>
</g>
<!-- Node3 -->
<g id="node3" class="node">
<title>Node3</title>
<g id="a_node3"><a xlink:href="class_abstract_solver.html" target="_top" xlink:title="Provides a higher&#45;level interface for an SMT solver.">
<polygon fill="white" stroke="black" points="238,-1091.5 238,-1110.5 326,-1110.5 326,-1091.5 238,-1091.5"/>
<text text-anchor="middle" x="282" y="-1098.5" font-family="Helvetica,sans-Serif" font-size="10.00">AbstractSolver</text>
</a>
</g>
</g>
<!-- Node1&#45;&gt;Node3 -->
<g id="edge2" class="edge">
<title>Node1&#45;&gt;Node3</title>
<path fill="none" stroke="midnightblue" d="M136.81,-417.58C141.27,-521.8 164.01,-1008.72 202,-1063 211.6,-1076.72 227.54,-1085.66 242.59,-1091.4"/>
<polygon fill="midnightblue" stroke="midnightblue" points="140.3,-417.36 136.39,-407.51 133.31,-417.65 140.3,-417.36"/>
</g>
<!-- Node5 -->
<g id="node5" class="node">
<title>Node5</title>
<g id="a_node5"><a xlink:href="class_b_m_v2_1_1_c_f_g_1_1_node.html" target="_top" xlink:title=" ">
<polygon fill="white" stroke="black" points="230.5,-1034.5 230.5,-1053.5 333.5,-1053.5 333.5,-1034.5 230.5,-1034.5"/>
<text text-anchor="middle" x="282" y="-1041.5" font-family="Helvetica,sans-Serif" font-size="10.00">BMV2::CFG::Node</text>
</a>
</g>
</g>
<!-- Node1&#45;&gt;Node5 -->
<g id="edge4" class="edge">
<title>Node1&#45;&gt;Node5</title>
<path fill="none" stroke="midnightblue" d="M138.62,-417.87C146.26,-474.54 170.04,-641.69 202,-778 225.87,-879.78 266.03,-1000.14 277.72,-1034.45"/>
<polygon fill="midnightblue" stroke="midnightblue" points="142.06,-417.22 137.27,-407.77 135.12,-418.15 142.06,-417.22"/>
</g>
<!-- Node9 -->
<g id="node9" class="node">
<title>Node9</title>
<g id="a_node9"><a xlink:href="struct_backtrack_1_1trigger.html" target="_top" xlink:title=" ">
<polygon fill="white" stroke="black" points="230,-749.5 230,-768.5 334,-768.5 334,-749.5 230,-749.5"/>
<text text-anchor="middle" x="282" y="-756.5" font-family="Helvetica,sans-Serif" font-size="10.00">Backtrack::trigger</text>
</a>
</g>
</g>
<!-- Node1&#45;&gt;Node9 -->
<g id="edge8" class="edge">
<title>Node1&#45;&gt;Node9</title>
<path fill="none" stroke="midnightblue" d="M137.08,-417.81C141.05,-483.55 157.07,-692.98 202,-740 209.41,-747.75 219.38,-752.57 229.74,-755.53"/>
<polygon fill="midnightblue" stroke="midnightblue" points="140.56,-417.37 136.49,-407.59 133.57,-417.78 140.56,-417.37"/>
</g>
<!-- Node10 -->
<g id="node10" class="node">
<title>Node10</title>
<g id="a_node10"><a xlink:href="class_e_b_p_f_1_1_e_b_p_f_object.html" target="_top" xlink:title="Base class for EBPF objects.">
<polygon fill="white" stroke="black" points="230.5,-711.5 230.5,-730.5 333.5,-730.5 333.5,-711.5 230.5,-711.5"/>
<text text-anchor="middle" x="282" y="-718.5" font-family="Helvetica,sans-Serif" font-size="10.00">EBPF::EBPFObject</text>
</a>
</g>
</g>
<!-- Node1&#45;&gt;Node10 -->
<g id="edge9" class="edge">
<title>Node1&#45;&gt;Node10</title>
<path fill="none" stroke="midnightblue" d="M140.47,-417.73C149.32,-454.96 170.93,-537.59 202,-602 223.01,-645.55 257.85,-691.8 273.26,-711.37"/>
<polygon fill="midnightblue" stroke="midnightblue" points="143.82,-416.66 138.14,-407.71 137,-418.24 143.82,-416.66"/>
</g>
<!-- Node90 -->
<g id="node32" class="node">
<title>Node90</title>
<g id="a_node32"><a xlink:href="class_e_b_p_f_1_1_i_has_width.html" target="_top" xlink:title=" ">
<polygon fill="white" stroke="black" points="431.5,-483.5 431.5,-502.5 528.5,-502.5 528.5,-483.5 431.5,-483.5"/>
<text text-anchor="middle" x="480" y="-490.5" font-family="Helvetica,sans-Serif" font-size="10.00">EBPF::IHasWidth</text>
</a>
</g>
</g>
<!-- Node1&#45;&gt;Node90 -->
<g id="edge31" class="edge">
<title>Node1&#45;&gt;Node90</title>
<path fill="none" stroke="midnightblue" d="M136.82,-417.64C139.56,-454.68 151.35,-534.25 202,-569 260.64,-609.22 299.72,-603.33 362,-569 388.24,-554.54 373.6,-529.38 398,-512 407.76,-505.04 419.71,-500.6 431.4,-497.77"/>
<polygon fill="midnightblue" stroke="midnightblue" points="140.31,-417.38 136.23,-407.61 133.32,-417.8 140.31,-417.38"/>
</g>
<!-- Node91 -->
<g id="node33" class="node">
<title>Node91</title>
<g id="a_node33"><a xlink:href="class_i_r_1_1_i_node.html" target="_top" xlink:title=" ">
<polygon fill="white" stroke="black" points="251.5,-540.5 251.5,-559.5 312.5,-559.5 312.5,-540.5 251.5,-540.5"/>
<text text-anchor="middle" x="282" y="-547.5" font-family="Helvetica,sans-Serif" font-size="10.00">IR::INode</text>
</a>
</g>
</g>
<!-- Node1&#45;&gt;Node91 -->
<g id="edge40" class="edge">
<title>Node1&#45;&gt;Node91</title>
<path fill="none" stroke="midnightblue" d="M140.19,-417.69C147.48,-447 165.36,-501.79 202,-531 215.9,-542.08 235.25,-546.86 251.33,-548.85"/>
<polygon fill="midnightblue" stroke="midnightblue" points="143.56,-416.76 137.9,-407.81 136.75,-418.34 143.56,-416.76"/>
</g>
<!-- Node120 -->
<g id="node36" class="node">
<title>Node120</title>
<g id="a_node36"><a xlink:href="class_json_data.html" target="_top" xlink:title=" ">
<polygon fill="white" stroke="red" points="252,-502.5 252,-521.5 312,-521.5 312,-502.5 252,-502.5"/>
<text text-anchor="middle" x="282" y="-509.5" font-family="Helvetica,sans-Serif" font-size="10.00">JsonData</text>
</a>
</g>
</g>
<!-- Node1&#45;&gt;Node120 -->
<g id="edge43" class="edge">
<title>Node1&#45;&gt;Node120</title>
<path fill="none" stroke="midnightblue" d="M143.94,-416.74C154.15,-438.49 173.95,-473.82 202,-493 216.67,-503.03 236.04,-507.79 251.92,-510.04"/>
<polygon fill="midnightblue" stroke="midnightblue" points="147.11,-415.24 139.82,-407.55 140.72,-418.1 147.11,-415.24"/>
</g>
<!-- Node127 -->
<g id="node38" class="node">
<title>Node127</title>
<g id="a_node38"><a xlink:href="class_p4_1_1_instance_base.html" target="_top" xlink:title=" ">
<polygon fill="white" stroke="red" points="232,-464.5 232,-483.5 332,-483.5 332,-464.5 232,-464.5"/>
<text text-anchor="middle" x="282" y="-471.5" font-family="Helvetica,sans-Serif" font-size="10.00">P4::InstanceBase</text>
</a>
</g>
</g>
<!-- Node1&#45;&gt;Node127 -->
<g id="edge45" class="edge">
<title>Node1&#45;&gt;Node127</title>
<path fill="none" stroke="midnightblue" d="M151.26,-415C163.7,-427.85 182.37,-444.92 202,-455 211.16,-459.7 221.52,-463.27 231.65,-465.96"/>
<polygon fill="midnightblue" stroke="midnightblue" points="153.76,-412.55 144.36,-407.66 148.65,-417.34 153.76,-412.55"/>
</g>
<!-- Node146 -->
<g id="node39" class="node">
<title>Node146</title>
<g id="a_node39"><a xlink:href="class_p4_1_1_storage_location.html" target="_top" xlink:title="Abstraction for something that is has a left value (variable, parameter)">
<polygon fill="white" stroke="red" points="225.5,-426.5 225.5,-445.5 338.5,-445.5 338.5,-426.5 225.5,-426.5"/>
<text text-anchor="middle" x="282" y="-433.5" font-family="Helvetica,sans-Serif" font-size="10.00">P4::StorageLocation</text>
</a>
</g>
</g>
<!-- Node1&#45;&gt;Node146 -->
<g id="edge46" class="edge">
<title>Node1&#45;&gt;Node146</title>
<path fill="none" stroke="midnightblue" d="M175.95,-409.81C184.52,-412.26 193.55,-414.77 202,-417 214.28,-420.24 227.68,-423.55 239.91,-426.48"/>
<polygon fill="midnightblue" stroke="midnightblue" points="176.73,-406.39 166.15,-406.98 174.79,-413.12 176.73,-406.39"/>
</g>
<!-- Node153 -->
<g id="node40" class="node">
<title>Node153</title>
<g id="a_node40"><a xlink:href="class_p4_1_1_symbolic_value.html" target="_top" xlink:title=" ">
<polygon fill="white" stroke="red" points="228.5,-388.5 228.5,-407.5 335.5,-407.5 335.5,-388.5 228.5,-388.5"/>
<text text-anchor="middle" x="282" y="-395.5" font-family="Helvetica,sans-Serif" font-size="10.00">P4::SymbolicValue</text>
</a>
</g>
</g>
<!-- Node1&#45;&gt;Node153 -->
<g id="edge47" class="edge">
<title>Node1&#45;&gt;Node153</title>
<path fill="none" stroke="midnightblue" d="M176.22,-398C192.37,-398 211.21,-398 228.42,-398"/>
<polygon fill="midnightblue" stroke="midnightblue" points="176.04,-394.5 166.04,-398 176.04,-401.5 176.04,-394.5"/>
</g>
<!-- Node171 -->
<g id="node41" class="node">
<title>Node171</title>
<g id="a_node41"><a xlink:href="class_p4_1_1_type_constraint.html" target="_top" xlink:title=" ">
<polygon fill="white" stroke="red" points="228.5,-350.5 228.5,-369.5 335.5,-369.5 335.5,-350.5 228.5,-350.5"/>
<text text-anchor="middle" x="282" y="-357.5" font-family="Helvetica,sans-Serif" font-size="10.00">P4::TypeConstraint</text>
</a>
</g>
</g>
<!-- Node1&#45;&gt;Node171 -->
<g id="edge48" class="edge">
<title>Node1&#45;&gt;Node171</title>
<path fill="none" stroke="midnightblue" d="M175.95,-386.19C184.52,-383.74 193.55,-381.23 202,-379 214.28,-375.76 227.68,-372.45 239.91,-369.52"/>
<polygon fill="midnightblue" stroke="midnightblue" points="174.79,-382.88 166.15,-389.02 176.73,-389.61 174.79,-382.88"/>
</g>
<!-- Node175 -->
<g id="node42" class="node">
<title>Node175</title>
<g id="a_node42"><a xlink:href="class_p4_tools_1_1_abstract_rep_checked_node.html" target="_top" xlink:title=" ">
<polygon fill="white" stroke="black" points="202,-301 202,-331 362,-331 362,-301 202,-301"/>
<text text-anchor="start" x="210" y="-319" font-family="Helvetica,sans-Serif" font-size="10.00">P4Tools::AbstractRepChecked</text>
<text text-anchor="middle" x="282" y="-308" font-family="Helvetica,sans-Serif" font-size="10.00">Node&lt; Self, Node &gt;</text>
</a>
</g>
</g>
<!-- Node1&#45;&gt;Node175 -->
<g id="edge49" class="edge">
<title>Node1&#45;&gt;Node175</title>
<path fill="none" stroke="midnightblue" d="M151.89,-380.95C164.44,-368.36 182.95,-351.64 202,-341 208.78,-337.21 216.22,-333.91 223.73,-331.06"/>
<polygon fill="midnightblue" stroke="midnightblue" points="149.35,-378.54 144.9,-388.16 154.37,-383.41 149.35,-378.54"/>
</g>
<!-- Node176 -->
<g id="node43" class="node">
<title>Node176</title>
<g id="a_node43"><a xlink:href="class_p4_tools_1_1_compiler_result.html" target="_top" xlink:title=" ">
<polygon fill="white" stroke="red" points="215,-262.5 215,-281.5 349,-281.5 349,-262.5 215,-262.5"/>
<text text-anchor="middle" x="282" y="-269.5" font-family="Helvetica,sans-Serif" font-size="10.00">P4Tools::CompilerResult</text>
</a>
</g>
</g>
<!-- Node1&#45;&gt;Node176 -->
<g id="edge50" class="edge">
<title>Node1&#45;&gt;Node176</title>
<path fill="none" stroke="midnightblue" d="M142.62,-378.68C151.95,-354.4 171.36,-313.2 202,-291 207.37,-287.11 213.43,-284.01 219.75,-281.54"/>
<polygon fill="midnightblue" stroke="midnightblue" points="139.27,-377.64 139.13,-388.24 145.85,-380.05 139.27,-377.64"/>
</g>
<!-- Node179 -->
<g id="node44" class="node">
<title>Node179</title>
<g id="a_node44"><a xlink:href="struct_p4_tools_1_1_p4_testgen_1_1_abstract_test.html" target="_top" xlink:title="Type definitions for abstract tests.">
<polygon fill="white" stroke="red" points="227.5,-213 227.5,-243 336.5,-243 336.5,-213 227.5,-213"/>
<text text-anchor="start" x="235.5" y="-231" font-family="Helvetica,sans-Serif" font-size="10.00">P4Tools::P4Testgen</text>
<text text-anchor="middle" x="282" y="-220" font-family="Helvetica,sans-Serif" font-size="10.00">::AbstractTest</text>
</a>
</g>
</g>
<!-- Node1&#45;&gt;Node179 -->
<g id="edge51" class="edge">
<title>Node1&#45;&gt;Node179</title>
<path fill="none" stroke="midnightblue" d="M139.65,-378.23C146.41,-347.13 163.84,-286.82 202,-253 209.21,-246.61 218.06,-241.85 227.2,-238.31"/>
<polygon fill="midnightblue" stroke="midnightblue" points="136.17,-377.77 137.62,-388.27 143.03,-379.16 136.17,-377.77"/>
</g>
<!-- Node182 -->
<g id="node45" class="node">
<title>Node182</title>
<g id="a_node45"><a xlink:href="class_p4_tools_1_1_p4_testgen_1_1_program_info.html" target="_top" xlink:title="Stores target&#45;specific information about a P4 program.">
<polygon fill="white" stroke="red" points="227.5,-164 227.5,-194 336.5,-194 336.5,-164 227.5,-164"/>
<text text-anchor="start" x="235.5" y="-182" font-family="Helvetica,sans-Serif" font-size="10.00">P4Tools::P4Testgen</text>
<text text-anchor="middle" x="282" y="-171" font-family="Helvetica,sans-Serif" font-size="10.00">::ProgramInfo</text>
</a>
</g>
</g>
<!-- Node1&#45;&gt;Node182 -->
<g id="edge52" class="edge">
<title>Node1&#45;&gt;Node182</title>
<path fill="none" stroke="midnightblue" d="M136.94,-378.19C139.88,-339.05 152.01,-251.44 202,-203 209.1,-196.12 218.12,-191.2 227.49,-187.69"/>
<polygon fill="midnightblue" stroke="midnightblue" points="133.44,-378.08 136.31,-388.27 140.43,-378.51 133.44,-378.08"/>
</g>
<!-- Node187 -->
<g id="node46" class="node">
<title>Node187</title>
<g id="a_node46"><a xlink:href="class_p4_tools_1_1_p4_testgen_1_1_test_object.html" target="_top" xlink:title=" ">
<polygon fill="white" stroke="red" points="227.5,-115 227.5,-145 336.5,-145 336.5,-115 227.5,-115"/>
<text text-anchor="start" x="235.5" y="-133" font-family="Helvetica,sans-Serif" font-size="10.00">P4Tools::P4Testgen</text>
<text text-anchor="middle" x="282" y="-122" font-family="Helvetica,sans-Serif" font-size="10.00">::TestObject</text>
</a>
</g>
</g>
<!-- Node1&#45;&gt;Node187 -->
<g id="edge53" class="edge">
<title>Node1&#45;&gt;Node187</title>
<path fill="none" stroke="midnightblue" d="M135.33,-377.8C134.93,-331.59 140.61,-217.31 202,-154 208.89,-146.9 217.8,-141.88 227.15,-138.34"/>
<polygon fill="midnightblue" stroke="midnightblue" points="131.83,-378.08 135.53,-388.01 138.83,-377.94 131.83,-378.08"/>
</g>
<!-- Node215 -->
<g id="node47" class="node">
<title>Node215</title>
<g id="a_node47"><a xlink:href="class_p4_tools_1_1_trace_event.html" target="_top" xlink:title="An event in a trace of the execution of a P4 program.">
<polygon fill="white" stroke="red" points="225.5,-76.5 225.5,-95.5 338.5,-95.5 338.5,-76.5 225.5,-76.5"/>
<text text-anchor="middle" x="282" y="-83.5" font-family="Helvetica,sans-Serif" font-size="10.00">P4Tools::TraceEvent</text>
</a>
</g>
</g>
<!-- Node1&#45;&gt;Node215 -->
<g id="edge54" class="edge">
<title>Node1&#45;&gt;Node215</title>
<path fill="none" stroke="midnightblue" d="M137.79,-378C143.51,-318.49 163.31,-144.25 202,-105 208.44,-98.47 216.7,-94.03 225.44,-91.04"/>
<polygon fill="midnightblue" stroke="midnightblue" points="134.27,-378.02 136.83,-388.3 141.24,-378.66 134.27,-378.02"/>
</g>
<!-- Node228 -->
<g id="node48" class="node">
<title>Node228</title>
<g id="a_node48"><a xlink:href="class_util_1_1_i_json.html" target="_top" xlink:title=" ">
<polygon fill="white" stroke="red" points="250.5,-38.5 250.5,-57.5 313.5,-57.5 313.5,-38.5 250.5,-38.5"/>
<text text-anchor="middle" x="282" y="-45.5" font-family="Helvetica,sans-Serif" font-size="10.00">Util::IJson</text>
</a>
</g>
</g>
<!-- Node1&#45;&gt;Node228 -->
<g id="edge55" class="edge">
<title>Node1&#45;&gt;Node228</title>
<path fill="none" stroke="midnightblue" d="M137.2,-378.4C141.52,-314.28 158.42,-112.32 202,-67 214.42,-54.09 233.96,-49.31 250.5,-47.77"/>
<polygon fill="midnightblue" stroke="midnightblue" points="133.71,-378.19 136.55,-388.39 140.69,-378.64 133.71,-378.19"/>
</g>
<!-- Node232 -->
<g id="node49" class="node">
<title>Node232</title>
<g id="a_node49"><a xlink:href="class_util_1_1_named_symbol.html" target="_top" xlink:title=" ">
<polygon fill="white" stroke="red" points="226,-0.5 226,-19.5 338,-19.5 338,-0.5 226,-0.5"/>
<text text-anchor="middle" x="282" y="-7.5" font-family="Helvetica,sans-Serif" font-size="10.00">Util::NamedSymbol</text>
</a>
</g>
</g>
<!-- Node1&#45;&gt;Node232 -->
<g id="edge56" class="edge">
<title>Node1&#45;&gt;Node232</title>
<path fill="none" stroke="midnightblue" d="M136.78,-377.99C139.89,-308.68 153.68,-80.26 202,-29 208.39,-22.23 216.73,-17.68 225.6,-14.67"/>
<polygon fill="midnightblue" stroke="midnightblue" points="133.27,-378.22 136.34,-388.36 140.26,-378.52 133.27,-378.22"/>
</g>
<!-- Node2 -->
<g id="node2" class="node">
<title>Node2</title>
<g id="a_node2"><a xlink:href="struct_r_t_t_i_1_1_base.html" target="_top" xlink:title=" ">
<polygon fill="white" stroke="black" points="0,-388.5 0,-407.5 68,-407.5 68,-388.5 0,-388.5"/>
<text text-anchor="middle" x="34" y="-395.5" font-family="Helvetica,sans-Serif" font-size="10.00">RTTI::Base</text>
</a>
</g>
</g>
<!-- Node2&#45;&gt;Node1 -->
<g id="edge1" class="edge">
<title>Node2&#45;&gt;Node1</title>
<path fill="none" stroke="midnightblue" d="M78.44,-398C86.95,-398 95.71,-398 103.68,-398"/>
<polygon fill="midnightblue" stroke="midnightblue" points="78.24,-394.5 68.24,-398 78.24,-401.5 78.24,-394.5"/>
</g>
<!-- Node4 -->
<g id="node4" class="node">
<title>Node4</title>
<g id="a_node4"><a xlink:href="class_p4_tools_1_1_z3_solver.html" target="_top" xlink:title="A Z3&#45;based implementation of AbstractSolver. Encapsulates a z3::solver and a z3::context.">
<polygon fill="white" stroke="black" points="428.5,-1129.5 428.5,-1148.5 531.5,-1148.5 531.5,-1129.5 428.5,-1129.5"/>
<text text-anchor="middle" x="480" y="-1136.5" font-family="Helvetica,sans-Serif" font-size="10.00">P4Tools::Z3Solver</text>
</a>
</g>
</g>
<!-- Node3&#45;&gt;Node4 -->
<g id="edge3" class="edge">
<title>Node3&#45;&gt;Node4</title>
<path fill="none" stroke="midnightblue" d="M336.04,-1111.28C365.26,-1116.95 401.29,-1123.93 429.87,-1129.48"/>
<polygon fill="midnightblue" stroke="midnightblue" points="336.5,-1107.81 326.01,-1109.34 335.16,-1114.68 336.5,-1107.81"/>
</g>
<!-- Node6 -->
<g id="node6" class="node">
<title>Node6</title>
<g id="a_node6"><a xlink:href="class_b_m_v2_1_1_c_f_g_1_1_dummy_node.html" target="_top" xlink:title=" ">
<polygon fill="white" stroke="black" points="409,-1091.5 409,-1110.5 551,-1110.5 551,-1091.5 409,-1091.5"/>
<text text-anchor="middle" x="480" y="-1098.5" font-family="Helvetica,sans-Serif" font-size="10.00">BMV2::CFG::DummyNode</text>
</a>
</g>
</g>
<!-- Node5&#45;&gt;Node6 -->
<g id="edge5" class="edge">
<title>Node5&#45;&gt;Node6</title>
<path fill="none" stroke="midnightblue" d="M319.24,-1056.89C341.75,-1064.67 371.38,-1074.5 398,-1082 409.96,-1085.37 423.02,-1088.62 435.1,-1091.45"/>
<polygon fill="midnightblue" stroke="midnightblue" points="320.34,-1053.57 309.75,-1053.59 318.04,-1060.18 320.34,-1053.57"/>
</g>
<!-- Node7 -->
<g id="node7" class="node">
<title>Node7</title>
<g id="a_node7"><a xlink:href="class_b_m_v2_1_1_c_f_g_1_1_if_node.html" target="_top" xlink:title=" ">
<polygon fill="white" stroke="black" points="425,-1053.5 425,-1072.5 535,-1072.5 535,-1053.5 425,-1053.5"/>
<text text-anchor="middle" x="480" y="-1060.5" font-family="Helvetica,sans-Serif" font-size="10.00">BMV2::CFG::IfNode</text>
</a>
</g>
</g>
<!-- Node5&#45;&gt;Node7 -->
<g id="edge6" class="edge">
<title>Node5&#45;&gt;Node7</title>
<path fill="none" stroke="midnightblue" d="M343.8,-1049.89C369.66,-1052.4 399.59,-1055.3 424.71,-1057.74"/>
<polygon fill="midnightblue" stroke="midnightblue" points="344.02,-1046.4 333.73,-1048.92 343.35,-1053.37 344.02,-1046.4"/>
</g>
<!-- Node8 -->
<g id="node8" class="node">
<title>Node8</title>
<g id="a_node8"><a xlink:href="class_b_m_v2_1_1_c_f_g_1_1_table_node.html" target="_top" xlink:title=" ">
<polygon fill="white" stroke="black" points="416,-1015.5 416,-1034.5 544,-1034.5 544,-1015.5 416,-1015.5"/>
<text text-anchor="middle" x="480" y="-1022.5" font-family="Helvetica,sans-Serif" font-size="10.00">BMV2::CFG::TableNode</text>
</a>
</g>
</g>
<!-- Node5&#45;&gt;Node8 -->
<g id="edge7" class="edge">
<title>Node5&#45;&gt;Node8</title>
<path fill="none" stroke="midnightblue" d="M343.98,-1038.09C366.83,-1035.87 392.82,-1033.35 415.85,-1031.12"/>
<polygon fill="midnightblue" stroke="midnightblue" points="343.35,-1034.63 333.73,-1039.08 344.02,-1041.6 343.35,-1034.63"/>
</g>
<!-- Node11 -->
<g id="node11" class="node">
<title>Node11</title>
<g id="a_node11"><a xlink:href="class_e_b_p_f_1_1_e_b_p_f_checksum_p_s_a.html" target="_top" xlink:title=" ">
<polygon fill="white" stroke="red" points="409,-597.5 409,-616.5 551,-616.5 551,-597.5 409,-597.5"/>
<text text-anchor="middle" x="480" y="-604.5" font-family="Helvetica,sans-Serif" font-size="10.00">EBPF::EBPFChecksumPSA</text>
</a>
</g>
</g>
<!-- Node10&#45;&gt;Node11 -->
<g id="edge10" class="edge">
<title>Node10&#45;&gt;Node11</title>
<path fill="none" stroke="midnightblue" d="M298.8,-703.76C319.5,-682.25 357.89,-645.9 398,-626 405.76,-622.15 414.34,-619.06 422.92,-616.59"/>
<polygon fill="midnightblue" stroke="midnightblue" points="296.09,-701.54 291.77,-711.21 301.18,-706.34 296.09,-701.54"/>
</g>
<!-- Node14 -->
<g id="node12" class="node">
<title>Node14</title>
<g id="a_node12"><a xlink:href="class_e_b_p_f_1_1_e_b_p_f_control.html" target="_top" xlink:title=" ">
<polygon fill="white" stroke="red" points="426.5,-559.5 426.5,-578.5 533.5,-578.5 533.5,-559.5 426.5,-559.5"/>
<text text-anchor="middle" x="480" y="-566.5" font-family="Helvetica,sans-Serif" font-size="10.00">EBPF::EBPFControl</text>
</a>
</g>
</g>
<!-- Node10&#45;&gt;Node14 -->
<g id="edge11" class="edge">
<title>Node10&#45;&gt;Node14</title>
<path fill="none" stroke="midnightblue" d="M293.46,-702.77C311.11,-673.72 349.66,-617.25 398,-588 406.53,-582.84 416.34,-579.08 426.13,-576.34"/>
<polygon fill="midnightblue" stroke="midnightblue" points="290.38,-701.1 288.29,-711.49 296.4,-704.67 290.38,-701.1"/>
</g>
<!-- Node28 -->
<g id="node13" class="node">
<title>Node28</title>
<g id="a_node13"><a xlink:href="class_e_b_p_f_1_1_e_b_p_f_digest_p_s_a.html" target="_top" xlink:title=" ">
<polygon fill="white" stroke="black" points="419,-977.5 419,-996.5 541,-996.5 541,-977.5 419,-977.5"/>
<text text-anchor="middle" x="480" y="-984.5" font-family="Helvetica,sans-Serif" font-size="10.00">EBPF::EBPFDigestPSA</text>
</a>
</g>
</g>
<!-- Node10&#45;&gt;Node28 -->
<g id="edge12" class="edge">
<title>Node10&#45;&gt;Node28</title>
<path fill="none" stroke="midnightblue" d="M343.43,-727.43C350.42,-730.38 356.87,-734.44 362,-740 431.6,-815.36 328.18,-892.83 398,-968 403.7,-974.14 410.98,-978.47 418.82,-981.5"/>
<polygon fill="midnightblue" stroke="midnightblue" points="344.23,-724 333.64,-724.06 341.96,-730.62 344.23,-724"/>
</g>
<!-- Node29 -->
<g id="node14" class="node">
<title>Node29</title>
<g id="a_node14"><a xlink:href="class_e_b_p_f_1_1_e_b_p_f_hash_algorithm_p_s_a.html" target="_top" xlink:title=" ">
<polygon fill="white" stroke="red" points="398,-939.5 398,-958.5 562,-958.5 562,-939.5 398,-939.5"/>
<text text-anchor="middle" x="480" y="-946.5" font-family="Helvetica,sans-Serif" font-size="10.00">EBPF::EBPFHashAlgorithmPSA</text>
</a>
</g>
</g>
<!-- Node10&#45;&gt;Node29 -->
<g id="edge13" class="edge">
<title>Node10&#45;&gt;Node29</title>
<path fill="none" stroke="midnightblue" d="M343.54,-727.69C350.45,-730.61 356.85,-734.59 362,-740 421.27,-802.24 338.55,-867.93 398,-930 401.6,-933.76 405.78,-936.83 410.32,-939.34"/>
<polygon fill="midnightblue" stroke="midnightblue" points="344.47,-724.31 333.87,-724.34 342.17,-730.92 344.47,-724.31"/>
</g>
<!-- Node37 -->
<g id="node15" class="node">
<title>Node37</title>
<g id="a_node15"><a xlink:href="class_e_b_p_f_1_1_e_b_p_f_method_declaration.html" target="_top" xlink:title="Methods are function signatures.">
<polygon fill="white" stroke="black" points="398,-901.5 398,-920.5 562,-920.5 562,-901.5 398,-901.5"/>
<text text-anchor="middle" x="480" y="-908.5" font-family="Helvetica,sans-Serif" font-size="10.00">EBPF::EBPFMethodDeclaration</text>
</a>
</g>
</g>
<!-- Node10&#45;&gt;Node37 -->
<g id="edge14" class="edge">
<title>Node10&#45;&gt;Node37</title>
<path fill="none" stroke="midnightblue" d="M343.31,-727.91C350.26,-730.8 356.73,-734.71 362,-740 411.01,-789.18 348.86,-842.96 398,-892 401.78,-895.77 406.16,-898.86 410.89,-901.36"/>
<polygon fill="midnightblue" stroke="midnightblue" points="344.21,-724.52 333.61,-724.59 341.94,-731.14 344.21,-724.52"/>
</g>
<!-- Node38 -->
<g id="node16" class="node">
<title>Node38</title>
<g id="a_node16"><a xlink:href="class_e_b_p_f_1_1_e_b_p_f_parser.html" target="_top" xlink:title=" ">
<polygon fill="white" stroke="red" points="429.5,-863.5 429.5,-882.5 530.5,-882.5 530.5,-863.5 429.5,-863.5"/>
<text text-anchor="middle" x="480" y="-870.5" font-family="Helvetica,sans-Serif" font-size="10.00">EBPF::EBPFParser</text>
</a>
</g>
</g>
<!-- Node10&#45;&gt;Node38 -->
<g id="edge15" class="edge">
<title>Node10&#45;&gt;Node38</title>
<path fill="none" stroke="midnightblue" d="M343.23,-728.4C350.13,-731.21 356.61,-734.97 362,-740 400.86,-776.24 359.04,-817.87 398,-854 406.58,-861.95 417.84,-866.78 429.22,-869.65"/>
<polygon fill="midnightblue" stroke="midnightblue" points="344.21,-725.03 333.62,-725.13 341.96,-731.66 344.21,-725.03"/>
</g>
<!-- Node42 -->
<g id="node17" class="node">
<title>Node42</title>
<g id="a_node17"><a xlink:href="class_e_b_p_f_1_1_e_b_p_f_parser_state.html" target="_top" xlink:title=" ">
<polygon fill="white" stroke="red" points="416.5,-825.5 416.5,-844.5 543.5,-844.5 543.5,-825.5 416.5,-825.5"/>
<text text-anchor="middle" x="480" y="-832.5" font-family="Helvetica,sans-Serif" font-size="10.00">EBPF::EBPFParserState</text>
</a>
</g>
</g>
<!-- Node10&#45;&gt;Node42 -->
<g id="edge16" class="edge">
<title>Node10&#45;&gt;Node42</title>
<path fill="none" stroke="midnightblue" d="M343.61,-729.51C350.25,-732.16 356.56,-735.58 362,-740 391.01,-763.57 368.92,-792.52 398,-816 403.39,-820.36 409.61,-823.75 416.16,-826.38"/>
<polygon fill="midnightblue" stroke="midnightblue" points="344.32,-726.06 333.73,-726.18 342.08,-732.69 344.32,-726.06"/>
</g>
<!-- Node44 -->
<g id="node18" class="node">
<title>Node44</title>
<g id="a_node18"><a xlink:href="class_e_b_p_f_1_1_e_b_p_f_program.html" target="_top" xlink:title=" ">
<polygon fill="white" stroke="red" points="423.5,-787.5 423.5,-806.5 536.5,-806.5 536.5,-787.5 423.5,-787.5"/>
<text text-anchor="middle" x="480" y="-794.5" font-family="Helvetica,sans-Serif" font-size="10.00">EBPF::EBPFProgram</text>
</a>
</g>
</g>
<!-- Node10&#45;&gt;Node44 -->
<g id="edge17" class="edge">
<title>Node10&#45;&gt;Node44</title>
<path fill="none" stroke="midnightblue" d="M343.22,-731.58C349.78,-733.86 356.17,-736.63 362,-740 382.14,-751.64 377.83,-766.41 398,-778 405.77,-782.46 414.52,-785.88 423.33,-788.49"/>
<polygon fill="midnightblue" stroke="midnightblue" points="344.14,-728.2 333.56,-728.57 342.07,-734.88 344.14,-728.2"/>
</g>
<!-- Node56 -->
<g id="node19" class="node">
<title>Node56</title>
<g id="a_node19"><a xlink:href="class_e_b_p_f_1_1_e_b_p_f_random_p_s_a.html" target="_top" xlink:title=" ">
<polygon fill="white" stroke="black" points="414.5,-749.5 414.5,-768.5 545.5,-768.5 545.5,-749.5 414.5,-749.5"/>
<text text-anchor="middle" x="480" y="-756.5" font-family="Helvetica,sans-Serif" font-size="10.00">EBPF::EBPFRandomPSA</text>
</a>
</g>
</g>
<!-- Node10&#45;&gt;Node56 -->
<g id="edge18" class="edge">
<title>Node10&#45;&gt;Node56</title>
<path fill="none" stroke="midnightblue" d="M342.26,-732.49C370.23,-737.91 403.21,-744.31 429.77,-749.46"/>
<polygon fill="midnightblue" stroke="midnightblue" points="342.69,-729.01 332.21,-730.54 341.36,-735.88 342.69,-729.01"/>
</g>
<!-- Node57 -->
<g id="node20" class="node">
<title>Node57</title>
<g id="a_node20"><a xlink:href="class_e_b_p_f_1_1_e_b_p_f_table_base.html" target="_top" xlink:title="Also used to represent counters.">
<polygon fill="white" stroke="red" points="420,-711.5 420,-730.5 540,-730.5 540,-711.5 420,-711.5"/>
<text text-anchor="middle" x="480" y="-718.5" font-family="Helvetica,sans-Serif" font-size="10.00">EBPF::EBPFTableBase</text>
</a>
</g>
</g>
<!-- Node10&#45;&gt;Node57 -->
<g id="edge19" class="edge">
<title>Node10&#45;&gt;Node57</title>
<path fill="none" stroke="midnightblue" d="M343.86,-721C368.04,-721 395.77,-721 419.79,-721"/>
<polygon fill="midnightblue" stroke="midnightblue" points="343.73,-717.5 333.73,-721 343.73,-724.5 343.73,-717.5"/>
</g>
<!-- Node71 -->
<g id="node21" class="node">
<title>Node71</title>
<g id="a_node21"><a xlink:href="class_e_b_p_f_1_1_e_b_p_f_type.html" target="_top" xlink:title="Base class for EBPF types.">
<polygon fill="white" stroke="black" points="433.5,-521.5 433.5,-540.5 526.5,-540.5 526.5,-521.5 433.5,-521.5"/>
<text text-anchor="middle" x="480" y="-528.5" font-family="Helvetica,sans-Serif" font-size="10.00">EBPF::EBPFType</text>
</a>
</g>
</g>
<!-- Node10&#45;&gt;Node71 -->
<g id="edge20" class="edge">
<title>Node10&#45;&gt;Node71</title>
<path fill="none" stroke="midnightblue" d="M295.06,-702.88C324.19,-659.14 396.12,-551.3 398,-550 408.34,-542.86 421.01,-538.37 433.22,-535.57"/>
<polygon fill="midnightblue" stroke="midnightblue" points="292.02,-701.14 289.39,-711.4 297.84,-705.02 292.02,-701.14"/>
</g>
<!-- Node86 -->
<g id="node30" class="node">
<title>Node86</title>
<g id="a_node30"><a xlink:href="class_u_b_p_f_1_1_u_b_p_f_deparser.html" target="_top" xlink:title=" ">
<polygon fill="white" stroke="black" points="420.5,-673.5 420.5,-692.5 539.5,-692.5 539.5,-673.5 420.5,-673.5"/>
<text text-anchor="middle" x="480" y="-680.5" font-family="Helvetica,sans-Serif" font-size="10.00">UBPF::UBPFDeparser</text>
</a>
</g>
</g>
<!-- Node10&#45;&gt;Node86 -->
<g id="edge29" class="edge">
<title>Node10&#45;&gt;Node86</title>
<path fill="none" stroke="midnightblue" d="M342.26,-709.51C370.23,-704.09 403.21,-697.69 429.77,-692.54"/>
<polygon fill="midnightblue" stroke="midnightblue" points="341.36,-706.12 332.21,-711.46 342.69,-712.99 341.36,-706.12"/>
</g>
<!-- Node87 -->
<g id="node31" class="node">
<title>Node87</title>
<g id="a_node31"><a xlink:href="class_u_b_p_f_1_1_u_b_p_f_table_base.html" target="_top" xlink:title=" ">
<polygon fill="white" stroke="red" points="418.5,-635.5 418.5,-654.5 541.5,-654.5 541.5,-635.5 418.5,-635.5"/>
<text text-anchor="middle" x="480" y="-642.5" font-family="Helvetica,sans-Serif" font-size="10.00">UBPF::UBPFTableBase</text>
</a>
</g>
</g>
<!-- Node10&#45;&gt;Node87 -->
<g id="edge30" class="edge">
<title>Node10&#45;&gt;Node87</title>
<path fill="none" stroke="midnightblue" d="M308.23,-706.38C331.05,-693.68 365.89,-675.55 398,-664 408.19,-660.33 419.37,-657.18 430.07,-654.56"/>
<polygon fill="midnightblue" stroke="midnightblue" points="306.22,-703.49 299.23,-711.46 309.66,-709.59 306.22,-703.49"/>
</g>
<!-- Node72 -->
<g id="node22" class="node">
<title>Node72</title>
<g id="a_node22"><a xlink:href="class_e_b_p_f_1_1_e_b_p_f_bool_type.html" target="_top" xlink:title=" ">
<polygon fill="white" stroke="red" points="601.5,-407.5 601.5,-426.5 717.5,-426.5 717.5,-407.5 601.5,-407.5"/>
<text text-anchor="middle" x="659.5" y="-414.5" font-family="Helvetica,sans-Serif" font-size="10.00">EBPF::EBPFBoolType</text>
</a>
</g>
</g>
<!-- Node71&#45;&gt;Node72 -->
<g id="edge21" class="edge">
<title>Node71&#45;&gt;Node72</title>
<path fill="none" stroke="midnightblue" d="M536.35,-525.04C545.59,-522.16 554.58,-517.99 562,-512 591.08,-488.52 569.81,-460.54 598,-436 602.48,-432.1 607.77,-428.99 613.32,-426.53"/>
<polygon fill="midnightblue" stroke="midnightblue" points="535.44,-521.66 526.67,-527.6 537.23,-528.43 535.44,-521.66"/>
</g>
<!-- Node74 -->
<g id="node23" class="node">
<title>Node74</title>
<g id="a_node23"><a xlink:href="class_e_b_p_f_1_1_e_b_p_f_enum_type.html" target="_top" xlink:title=" ">
<polygon fill="white" stroke="red" points="598.5,-369.5 598.5,-388.5 720.5,-388.5 720.5,-369.5 598.5,-369.5"/>
<text text-anchor="middle" x="659.5" y="-376.5" font-family="Helvetica,sans-Serif" font-size="10.00">EBPF::EBPFEnumType</text>
</a>
</g>
</g>
<!-- Node71&#45;&gt;Node74 -->
<g id="edge22" class="edge">
<title>Node71&#45;&gt;Node74</title>
<path fill="none" stroke="midnightblue" d="M536.43,-526.05C545.83,-523.09 554.85,-518.63 562,-512 600.96,-475.87 560.4,-435.54 598,-398 601.9,-394.11 606.58,-391.02 611.59,-388.55"/>
<polygon fill="midnightblue" stroke="midnightblue" points="535.35,-522.72 526.56,-528.63 537.12,-529.49 535.35,-522.72"/>
</g>
<!-- Node76 -->
<g id="node24" class="node">
<title>Node76</title>
<g id="a_node24"><a xlink:href="class_e_b_p_f_1_1_e_b_p_f_error_type.html" target="_top" xlink:title=" ">
<polygon fill="white" stroke="red" points="601,-635.5 601,-654.5 718,-654.5 718,-635.5 601,-635.5"/>
<text text-anchor="middle" x="659.5" y="-642.5" font-family="Helvetica,sans-Serif" font-size="10.00">EBPF::EBPFErrorType</text>
</a>
</g>
</g>
<!-- Node71&#45;&gt;Node76 -->
<g id="edge23" class="edge">
<title>Node71&#45;&gt;Node76</title>
<path fill="none" stroke="midnightblue" d="M536.35,-536.96C545.59,-539.84 554.58,-544.01 562,-550 591.08,-573.48 569.81,-601.46 598,-626 602.48,-629.9 607.77,-633.01 613.32,-635.47"/>
<polygon fill="midnightblue" stroke="midnightblue" points="537.23,-533.57 526.67,-534.4 535.44,-540.34 537.23,-533.57"/>
</g>
<!-- Node78 -->
<g id="node25" class="node">
<title>Node78</title>
<g id="a_node25"><a xlink:href="class_e_b_p_f_1_1_e_b_p_f_scalar_type.html" target="_top" xlink:title=" ">
<polygon fill="white" stroke="red" points="598,-597.5 598,-616.5 721,-616.5 721,-597.5 598,-597.5"/>
<text text-anchor="middle" x="659.5" y="-604.5" font-family="Helvetica,sans-Serif" font-size="10.00">EBPF::EBPFScalarType</text>
</a>
</g>
</g>
<!-- Node71&#45;&gt;Node78 -->
<g id="edge24" class="edge">
<title>Node71&#45;&gt;Node78</title>
<path fill="none" stroke="midnightblue" d="M536.77,-539.54C545.55,-542.15 554.26,-545.56 562,-550 582.17,-561.59 578.27,-575.67 598,-588 604.16,-591.85 611.17,-594.98 618.17,-597.5"/>
<polygon fill="midnightblue" stroke="midnightblue" points="537.45,-536.1 526.89,-536.92 535.66,-542.87 537.45,-536.1"/>
</g>
<!-- Node81 -->
<g id="node26" class="node">
<title>Node81</title>
<g id="a_node26"><a xlink:href="class_e_b_p_f_1_1_e_b_p_f_stack_type.html" target="_top" xlink:title=" ">
<polygon fill="white" stroke="black" points="599.5,-559.5 599.5,-578.5 719.5,-578.5 719.5,-559.5 599.5,-559.5"/>
<text text-anchor="middle" x="659.5" y="-566.5" font-family="Helvetica,sans-Serif" font-size="10.00">EBPF::EBPFStackType</text>
</a>
</g>
</g>
<!-- Node71&#45;&gt;Node81 -->
<g id="edge25" class="edge">
<title>Node71&#45;&gt;Node81</title>
<path fill="none" stroke="midnightblue" d="M535.9,-542.75C561,-548.13 590.34,-554.41 614.03,-559.48"/>
<polygon fill="midnightblue" stroke="midnightblue" points="536.3,-539.26 525.79,-540.59 534.84,-546.1 536.3,-539.26"/>
</g>
<!-- Node82 -->
<g id="node27" class="node">
<title>Node82</title>
<g id="a_node27"><a xlink:href="class_e_b_p_f_1_1_e_b_p_f_struct_type.html" target="_top" xlink:title="Also represents headers and unions.">
<polygon fill="white" stroke="red" points="598.5,-521.5 598.5,-540.5 720.5,-540.5 720.5,-521.5 598.5,-521.5"/>
<text text-anchor="middle" x="659.5" y="-528.5" font-family="Helvetica,sans-Serif" font-size="10.00">EBPF::EBPFStructType</text>
</a>
</g>
</g>
<!-- Node71&#45;&gt;Node82 -->
<g id="edge26" class="edge">
<title>Node71&#45;&gt;Node82</title>
<path fill="none" stroke="midnightblue" d="M536.95,-531C556.44,-531 578.39,-531 598.21,-531"/>
<polygon fill="midnightblue" stroke="midnightblue" points="536.71,-527.5 526.71,-531 536.71,-534.5 536.71,-527.5"/>
</g>
<!-- Node84 -->
<g id="node28" class="node">
<title>Node84</title>
<g id="a_node28"><a xlink:href="class_e_b_p_f_1_1_e_b_p_f_type_name.html" target="_top" xlink:title="This should not always implement IHasWidth, but it may...">
<polygon fill="white" stroke="black" points="598.5,-483.5 598.5,-502.5 720.5,-502.5 720.5,-483.5 598.5,-483.5"/>
<text text-anchor="middle" x="659.5" y="-490.5" font-family="Helvetica,sans-Serif" font-size="10.00">EBPF::EBPFTypeName</text>
</a>
</g>
</g>
<!-- Node71&#45;&gt;Node84 -->
<g id="edge27" class="edge">
<title>Node71&#45;&gt;Node84</title>
<path fill="none" stroke="midnightblue" d="M535.9,-519.25C561,-513.87 590.34,-507.59 614.03,-502.52"/>
<polygon fill="midnightblue" stroke="midnightblue" points="534.84,-515.9 525.79,-521.41 536.3,-522.74 534.84,-515.9"/>
</g>
<!-- Node85 -->
<g id="node29" class="node">
<title>Node85</title>
<g id="a_node29"><a xlink:href="class_u_b_p_f_1_1_u_b_p_f_list_type.html" target="_top" xlink:title=" ">
<polygon fill="white" stroke="black" points="602.5,-445.5 602.5,-464.5 716.5,-464.5 716.5,-445.5 602.5,-445.5"/>
<text text-anchor="middle" x="659.5" y="-452.5" font-family="Helvetica,sans-Serif" font-size="10.00">UBPF::UBPFListType</text>
</a>
</g>
</g>
<!-- Node71&#45;&gt;Node85 -->
<g id="edge28" class="edge">
<title>Node71&#45;&gt;Node85</title>
<path fill="none" stroke="midnightblue" d="M536.77,-522.46C545.55,-519.85 554.26,-516.44 562,-512 582.17,-500.41 578.27,-486.33 598,-474 604.16,-470.15 611.17,-467.02 618.17,-464.5"/>
<polygon fill="midnightblue" stroke="midnightblue" points="535.66,-519.13 526.89,-525.08 537.45,-525.9 535.66,-519.13"/>
</g>
<!-- Node90&#45;&gt;Node72 -->
<g id="edge32" class="edge">
<title>Node90&#45;&gt;Node72</title>
<path fill="none" stroke="midnightblue" d="M538.28,-484C546.54,-481.45 554.71,-478.19 562,-474 582.17,-462.41 578.27,-448.33 598,-436 604.16,-432.15 611.17,-429.02 618.17,-426.5"/>
<polygon fill="midnightblue" stroke="midnightblue" points="537.29,-480.64 528.58,-486.67 539.15,-487.39 537.29,-480.64"/>
</g>
<!-- Node90&#45;&gt;Node74 -->
<g id="edge33" class="edge">
<title>Node90&#45;&gt;Node74</title>
<path fill="none" stroke="midnightblue" d="M538.45,-486.36C546.95,-483.52 555.14,-479.54 562,-474 591.08,-450.52 569.81,-422.54 598,-398 602.48,-394.1 607.77,-390.99 613.32,-388.53"/>
<polygon fill="midnightblue" stroke="midnightblue" points="537.44,-483.01 528.78,-489.12 539.35,-489.75 537.44,-483.01"/>
</g>
<!-- Node90&#45;&gt;Node76 -->
<g id="edge34" class="edge">
<title>Node90&#45;&gt;Node76</title>
<path fill="none" stroke="midnightblue" d="M538.53,-498.64C547.17,-501.59 555.38,-505.86 562,-512 600.96,-548.13 560.4,-588.46 598,-626 601.9,-629.89 606.58,-632.98 611.59,-635.45"/>
<polygon fill="midnightblue" stroke="midnightblue" points="539.24,-495.2 528.67,-495.83 537.33,-501.93 539.24,-495.2"/>
</g>
<!-- Node90&#45;&gt;Node78 -->
<g id="edge35" class="edge">
<title>Node90&#45;&gt;Node78</title>
<path fill="none" stroke="midnightblue" d="M538.45,-499.64C546.95,-502.48 555.14,-506.46 562,-512 591.08,-535.48 569.81,-563.46 598,-588 602.48,-591.9 607.77,-595.01 613.32,-597.47"/>
<polygon fill="midnightblue" stroke="midnightblue" points="539.35,-496.25 528.78,-496.88 537.44,-502.99 539.35,-496.25"/>
</g>
<!-- Node90&#45;&gt;Node81 -->
<g id="edge36" class="edge">
<title>Node90&#45;&gt;Node81</title>
<path fill="none" stroke="midnightblue" d="M538.28,-502C546.54,-504.55 554.71,-507.81 562,-512 582.17,-523.59 578.27,-537.67 598,-550 604.16,-553.85 611.17,-556.98 618.17,-559.5"/>
<polygon fill="midnightblue" stroke="midnightblue" points="539.15,-498.61 528.58,-499.33 537.29,-505.36 539.15,-498.61"/>
</g>
<!-- Node90&#45;&gt;Node82 -->
<g id="edge37" class="edge">
<title>Node90&#45;&gt;Node82</title>
<path fill="none" stroke="midnightblue" d="M535.9,-504.75C561,-510.13 590.34,-516.41 614.03,-521.48"/>
<polygon fill="midnightblue" stroke="midnightblue" points="536.3,-501.26 525.79,-502.59 534.84,-508.1 536.3,-501.26"/>
</g>
<!-- Node90&#45;&gt;Node84 -->
<g id="edge38" class="edge">
<title>Node90&#45;&gt;Node84</title>
<path fill="none" stroke="midnightblue" d="M538.64,-493C557.76,-493 579.09,-493 598.39,-493"/>
<polygon fill="midnightblue" stroke="midnightblue" points="538.57,-489.5 528.57,-493 538.57,-496.5 538.57,-489.5"/>
</g>
<!-- Node90&#45;&gt;Node85 -->
<g id="edge39" class="edge">
<title>Node90&#45;&gt;Node85</title>
<path fill="none" stroke="midnightblue" d="M535.9,-481.25C561,-475.87 590.34,-469.59 614.03,-464.52"/>
<polygon fill="midnightblue" stroke="midnightblue" points="534.84,-477.9 525.79,-483.41 536.3,-484.74 534.84,-477.9"/>
</g>
<!-- Node92 -->
<g id="node34" class="node">
<title>Node92</title>
<g id="a_node34"><a xlink:href="class_i_r_1_1_i_declaration.html" target="_top" xlink:title="The Declaration interface, representing objects with names.">
<polygon fill="white" stroke="black" points="434,-407.5 434,-426.5 526,-426.5 526,-407.5 434,-407.5"/>
<text text-anchor="middle" x="480" y="-414.5" font-family="Helvetica,sans-Serif" font-size="10.00">IR::IDeclaration</text>
</a>
</g>
</g>
<!-- Node91&#45;&gt;Node92 -->
<g id="edge41" class="edge">
<title>Node91&#45;&gt;Node92</title>
<path fill="none" stroke="midnightblue" d="M322.97,-547.91C336.7,-545.38 351.29,-540.44 362,-531 395.88,-501.15 364.04,-465.76 398,-436 407.89,-427.34 420.98,-422.43 433.75,-419.71"/>
<polygon fill="midnightblue" stroke="midnightblue" points="322.11,-544.5 312.72,-549.41 323.12,-551.43 322.11,-544.5"/>
</g>
<!-- Node93 -->
<g id="node35" class="node">
<title>Node93</title>
<g id="a_node35"><a xlink:href="class_i_r_1_1_node.html" target="_top" xlink:title=" ">
<polygon fill="white" stroke="red" points="451,-445.5 451,-464.5 509,-464.5 509,-445.5 451,-445.5"/>
<text text-anchor="middle" x="480" y="-452.5" font-family="Helvetica,sans-Serif" font-size="10.00">IR::Node</text>
</a>
</g>
</g>
<!-- Node91&#45;&gt;Node93 -->
<g id="edge42" class="edge">
<title>Node91&#45;&gt;Node93</title>
<path fill="none" stroke="midnightblue" d="M322.64,-546.55C336.08,-543.88 350.58,-539.18 362,-531 386.36,-513.55 373.6,-491.38 398,-474 413.41,-463.02 434.26,-458.3 450.95,-456.31"/>
<polygon fill="midnightblue" stroke="midnightblue" points="321.91,-543.13 312.63,-548.23 323.07,-550.03 321.91,-543.13"/>
</g>
<!-- Node121 -->
<g id="node37" class="node">
<title>Node121</title>
<g id="a_node37"><a xlink:href="class_json_boolean.html" target="_top" xlink:title=" ">
<polygon fill="white" stroke="black" points="441.5,-369.5 441.5,-388.5 518.5,-388.5 518.5,-369.5 441.5,-369.5"/>
<text text-anchor="middle" x="480" y="-376.5" font-family="Helvetica,sans-Serif" font-size="10.00">JsonBoolean</text>
</a>
</g>
</g>
<!-- Node120&#45;&gt;Node121 -->
<g id="edge44" class="edge">
<title>Node120&#45;&gt;Node121</title>
<path fill="none" stroke="midnightblue" d="M322.24,-510.05C336.18,-507.56 351.1,-502.61 362,-493 395.88,-463.15 364.04,-427.76 398,-398 409.84,-387.62 426.28,-382.64 441.26,-380.34"/>
<polygon fill="midnightblue" stroke="midnightblue" points="321.75,-506.58 312.34,-511.45 322.73,-513.51 321.75,-506.58"/>
</g>
</g>
</svg>
