<?xml version="1.0" encoding="UTF-8" standalone="no"?>
<!DOCTYPE svg PUBLIC "-//W3C//DTD SVG 1.1//EN"
 "http://www.w3.org/Graphics/SVG/1.1/DTD/svg11.dtd">
<!-- Generated by graphviz version 2.43.0 (0)
 -->
<!-- Title: BMV2::MidEnd Pages: 1 -->
<svg width="316pt" height="252pt"
 viewBox="0.00 0.00 316.00 252.00" xmlns="http://www.w3.org/2000/svg" xmlns:xlink="http://www.w3.org/1999/xlink">
<g id="graph0" class="graph" transform="scale(1 1) rotate(0) translate(4 248)">
<title>BMV2::MidEnd</title>
<polygon fill="white" stroke="transparent" points="-4,4 -4,-248 312,-248 312,4 -4,4"/>
<!-- Node1 -->
<g id="node1" class="node">
<title>Node1</title>
<g id="a_node1"><a xlink:title=" ">
<polygon fill="#bfbfbf" stroke="black" points="106,-56.5 106,-75.5 193,-75.5 193,-56.5 106,-56.5"/>
<text text-anchor="middle" x="149.5" y="-63.5" font-family="Helvetica,sans-Serif" font-size="10.00">BMV2::MidEnd</text>
</a>
</g>
</g>
<!-- Node5 -->
<g id="node5" class="node">
<title>Node5</title>
<g id="a_node5"><a xlink:href="class_b_m_v2_1_1_psa_switch_mid_end.html" target="_top" xlink:title=" ">
<polygon fill="white" stroke="black" points="0,-0.5 0,-19.5 137,-19.5 137,-0.5 0,-0.5"/>
<text text-anchor="middle" x="68.5" y="-7.5" font-family="Helvetica,sans-Serif" font-size="10.00">BMV2::PsaSwitchMidEnd</text>
</a>
</g>
</g>
<!-- Node1&#45;&gt;Node5 -->
<g id="edge5" class="edge">
<title>Node1&#45;&gt;Node5</title>
<path fill="none" stroke="midnightblue" d="M127.93,-50.62C113.14,-40.76 93.99,-27.99 81.48,-19.65"/>
<polygon fill="midnightblue" stroke="midnightblue" points="126.22,-53.69 136.49,-56.32 130.11,-47.86 126.22,-53.69"/>
</g>
<!-- Node6 -->
<g id="node6" class="node">
<title>Node6</title>
<g id="a_node6"><a xlink:href="class_b_m_v2_1_1_simple_switch_mid_end.html" target="_top" xlink:title=" ">
<polygon fill="white" stroke="black" points="155,-0.5 155,-19.5 308,-19.5 308,-0.5 155,-0.5"/>
<text text-anchor="middle" x="231.5" y="-7.5" font-family="Helvetica,sans-Serif" font-size="10.00">BMV2::SimpleSwitchMidEnd</text>
</a>
</g>
</g>
<!-- Node1&#45;&gt;Node6 -->
<g id="edge6" class="edge">
<title>Node1&#45;&gt;Node6</title>
<path fill="none" stroke="midnightblue" d="M171.33,-50.62C186.31,-40.76 205.7,-27.99 218.36,-19.65"/>
<polygon fill="midnightblue" stroke="midnightblue" points="169.1,-47.9 162.67,-56.32 172.95,-53.75 169.1,-47.9"/>
</g>
<!-- Node2 -->
<g id="node2" class="node">
<title>Node2</title>
<g id="a_node2"><a xlink:href="class_pass_manager.html" target="_top" xlink:title=" ">
<polygon fill="white" stroke="black" points="109,-112.5 109,-131.5 190,-131.5 190,-112.5 109,-112.5"/>
<text text-anchor="middle" x="149.5" y="-119.5" font-family="Helvetica,sans-Serif" font-size="10.00">PassManager</text>
</a>
</g>
</g>
<!-- Node2&#45;&gt;Node1 -->
<g id="edge1" class="edge">
<title>Node2&#45;&gt;Node1</title>
<path fill="none" stroke="midnightblue" d="M149.5,-101.8C149.5,-92.91 149.5,-82.78 149.5,-75.75"/>
<polygon fill="midnightblue" stroke="midnightblue" points="146,-102.08 149.5,-112.08 153,-102.08 146,-102.08"/>
</g>
<!-- Node3 -->
<g id="node3" class="node">
<title>Node3</title>
<g id="a_node3"><a xlink:href="class_visitor.html" target="_top" xlink:title=" ">
<polygon fill="white" stroke="black" points="125.5,-224.5 125.5,-243.5 173.5,-243.5 173.5,-224.5 125.5,-224.5"/>
<text text-anchor="middle" x="149.5" y="-231.5" font-family="Helvetica,sans-Serif" font-size="10.00">Visitor</text>
</a>
</g>
</g>
<!-- Node3&#45;&gt;Node2 -->
<g id="edge2" class="edge">
<title>Node3&#45;&gt;Node2</title>
<path fill="none" stroke="midnightblue" d="M143.96,-214.66C141.79,-206.57 139.57,-196.89 138.5,-188 136.06,-167.77 142.33,-144.25 146.38,-131.79"/>
<polygon fill="midnightblue" stroke="midnightblue" points="140.66,-215.83 146.77,-224.49 147.39,-213.91 140.66,-215.83"/>
</g>
<!-- Node4 -->
<g id="node4" class="node">
<title>Node4</title>
<g id="a_node4"><a xlink:href="class_backtrack.html" target="_top" xlink:title=" ">
<polygon fill="white" stroke="black" points="148,-168.5 148,-187.5 213,-187.5 213,-168.5 148,-168.5"/>
<text text-anchor="middle" x="180.5" y="-175.5" font-family="Helvetica,sans-Serif" font-size="10.00">Backtrack</text>
</a>
</g>
</g>
<!-- Node3&#45;&gt;Node4 -->
<g id="edge4" class="edge">
<title>Node3&#45;&gt;Node4</title>
<path fill="none" stroke="midnightblue" d="M159.68,-215.27C164.97,-206.05 171.22,-195.17 175.48,-187.75"/>
<polygon fill="midnightblue" stroke="midnightblue" points="156.56,-213.67 154.62,-224.08 162.63,-217.15 156.56,-213.67"/>
</g>
<!-- Node4&#45;&gt;Node2 -->
<g id="edge3" class="edge">
<title>Node4&#45;&gt;Node2</title>
<path fill="none" stroke="midnightblue" d="M170.32,-159.27C165.03,-150.05 158.78,-139.17 154.52,-131.75"/>
<polygon fill="midnightblue" stroke="midnightblue" points="167.37,-161.15 175.38,-168.08 173.44,-157.67 167.37,-161.15"/>
</g>
</g>
</svg>
