<?xml version="1.0" encoding="UTF-8" standalone="no"?>
<!DOCTYPE svg PUBLIC "-//W3C//DTD SVG 1.1//EN"
 "http://www.w3.org/Graphics/SVG/1.1/DTD/svg11.dtd">
<!-- Generated by graphviz version 2.43.0 (0)
 -->
<!-- Title: EBPF::EBPFObject Pages: 1 -->
<!--zoomable 1174 -->

<svg id="main" version="1.1" xmlns="http://www.w3.org/2000/svg" xmlns:xlink="http://www.w3.org/1999/xlink" xml:space="preserve" onload="init(evt)">
<style type="text/css"><![CDATA[
.node, .edge {opacity: 0.7;}
.node.selected, .edge.selected {opacity: 1;}
.edge:hover path { stroke: red; }
.edge:hover polygon { stroke: red; fill: red; }
]]></style>

<defs>
  <circle id="rim" cx="0" cy="0" r="7"/>
  <circle id="rim2" cx="0" cy="0" r="3.5"/>
  <g id="zoomPlus">
    <use xlink:href="#rim" fill="#404040"><set attributeName="fill" to="#808080" begin="zoomplus.mouseover" end="zoomplus.mouseout"/></use>
    <path d="M-4,0h8M0,-4v8" fill="none" stroke="white" stroke-width="1.5" pointer-events="none"/>
  </g>
  <g id="zoomMin">
    <use xlink:href="#rim" fill="#404040"><set attributeName="fill" to="#808080" begin="zoomminus.mouseover" end="zoomminus.mouseout"/></use>
    <path d="M-4,0h8" fill="none" stroke="white" stroke-width="1.5" pointer-events="none"/>
  </g>
  <g id="arrowUp" transform="translate(30 24)">
    <use xlink:href="#rim"/>
    <path pointer-events="none" fill="none" stroke="white" stroke-width="1.5" d="M0,-3.0v7 M-2.5,-0.5L0,-3.0L2.5,-0.5"/>
  </g>
  <g id="arrowRight" transform="rotate(90) translate(36 -43)">
    <use xlink:href="#rim"/>
    <path pointer-events="none" fill="none" stroke="white" stroke-width="1.5" d="M0,-3.0v7 M-2.5,-0.5L0,-3.0L2.5,-0.5"/>
  </g>
  <g id="arrowDown" transform="rotate(180) translate(-30 -48)">
    <use xlink:href="#rim"/>
    <path pointer-events="none" fill="none" stroke="white" stroke-width="1.5" d="M0,-3.0v7 M-2.5,-0.5L0,-3.0L2.5,-0.5"/>
  </g>
  <g id="arrowLeft" transform="rotate(270) translate(-36 17)">
    <use xlink:href="#rim"/>
    <path pointer-events="none" fill="none" stroke="white" stroke-width="1.5" d="M0,-3.0v7 M-2.5,-0.5L0,-3.0L2.5,-0.5"/>
  </g>
  <g id="resetDef">
    <use xlink:href="#rim2" fill="#404040"><set attributeName="fill" to="#808080" begin="reset.mouseover" end="reset.mouseout"/></use>
  </g>
</defs>
<script type="application/ecmascript">
var viewWidth = 946;
var viewHeight = 1174;
var sectionId = 'dynsection-0';
</script>
<script type="application/ecmascript" xlink:href="svg.min.js"/>
<svg id="graph" class="graph">
<g id="viewport">
<title>EBPF::EBPFObject</title>
<!-- Node1 -->
<g id="Node000001" class="node">
<title>Node1</title>
<g id="a_Node000001"><a xlink:title="Base class for EBPF objects.">
<polygon fill="#999999" stroke="#666666" points="305,-722 202,-722 202,-703 305,-703 305,-722"/>
<text text-anchor="middle" x="253.5" y="-710" font-family="Helvetica,sans-Serif" font-size="10.00">EBPF::EBPFObject</text>
</a>
</g>
</g>
<!-- Node4 -->
<g id="Node000004" class="node">
<title>Node4</title>
<g id="a_Node000004"><a xlink:href="class_e_b_p_f_1_1_e_b_p_f_checksum_p_s_a.html" target="_top" xlink:title=" ">
<polygon fill="white" stroke="#bfbfbf" points="494,-1110 352,-1110 352,-1091 494,-1091 494,-1110"/>
<text text-anchor="middle" x="423" y="-1098" font-family="Helvetica,sans-Serif" font-size="10.00">EBPF::EBPFChecksumPSA</text>
</a>
</g>
</g>
<!-- Node1&#45;&gt;Node4 -->
<g id="edge3_Node000001_Node000004" class="edge">
<title>Node1&#45;&gt;Node4</title>
<g id="a_edge3_Node000001_Node000004"><a xlink:title=" ">
<path fill="none" stroke="#63b8ff" d="M257.22,-732.24C264.65,-781.49 288.31,-912.75 341,-1008.5 359.88,-1042.8 393.46,-1075.32 410.86,-1090.9"/>
<polygon fill="#63b8ff" stroke="#63b8ff" points="260.64,-731.43 255.75,-722.03 253.72,-732.43 260.64,-731.43"/>
</a>
</g>
</g>
<!-- Node9 -->
<g id="Node000009" class="node">
<title>Node9</title>
<g id="a_Node000009"><a xlink:href="class_e_b_p_f_1_1_e_b_p_f_control.html" target="_top" xlink:title=" ">
<polygon fill="white" stroke="#bfbfbf" points="476.5,-1000 369.5,-1000 369.5,-981 476.5,-981 476.5,-1000"/>
<text text-anchor="middle" x="423" y="-988" font-family="Helvetica,sans-Serif" font-size="10.00">EBPF::EBPFControl</text>
</a>
</g>
</g>
<!-- Node1&#45;&gt;Node9 -->
<g id="edge8_Node000001_Node000009" class="edge">
<title>Node1&#45;&gt;Node9</title>
<g id="a_edge8_Node000001_Node000009"><a xlink:title=" ">
<path fill="none" stroke="#63b8ff" d="M258.95,-732.27C268.61,-771.99 294.47,-863.02 341,-925.5 358.88,-949.5 387.63,-969.71 405.63,-980.95"/>
<polygon fill="#63b8ff" stroke="#63b8ff" points="262.3,-731.22 256.6,-722.29 255.48,-732.82 262.3,-731.22"/>
</a>
</g>
</g>
<!-- Node23 -->
<g id="Node000023" class="node">
<title>Node23</title>
<g id="a_Node000023"><a xlink:href="class_e_b_p_f_1_1_e_b_p_f_digest_p_s_a.html" target="_top" xlink:title=" ">
<polygon fill="white" stroke="#bfbfbf" points="484,-917 362,-917 362,-898 484,-898 484,-917"/>
<text text-anchor="middle" x="423" y="-905" font-family="Helvetica,sans-Serif" font-size="10.00">EBPF::EBPFDigestPSA</text>
</a>
</g>
</g>
<!-- Node1&#45;&gt;Node23 -->
<g id="edge12_Node000001_Node000023" class="edge">
<title>Node1&#45;&gt;Node23</title>
<g id="a_edge12_Node000001_Node000023"><a xlink:title=" ">
<path fill="none" stroke="#63b8ff" d="M261.92,-731.73C274.42,-762.12 302.16,-821.78 341,-860.5 357.58,-877.03 381.14,-889.83 398.58,-897.87"/>
<polygon fill="#63b8ff" stroke="#63b8ff" points="265.1,-730.26 258.14,-722.28 258.6,-732.86 265.1,-730.26"/>
</a>
</g>
</g>
<!-- Node25 -->
<g id="Node000025" class="node">
<title>Node25</title>
<g id="a_Node000025"><a xlink:href="class_e_b_p_f_1_1_e_b_p_f_hash_algorithm_p_s_a.html" target="_top" xlink:title=" ">
<polygon fill="white" stroke="#bfbfbf" points="505,-852 341,-852 341,-833 505,-833 505,-852"/>
<text text-anchor="middle" x="423" y="-840" font-family="Helvetica,sans-Serif" font-size="10.00">EBPF::EBPFHashAlgorithmPSA</text>
</a>
</g>
</g>
<!-- Node1&#45;&gt;Node25 -->
<g id="edge14_Node000001_Node000025" class="edge">
<title>Node1&#45;&gt;Node25</title>
<g id="a_edge14_Node000001_Node000025"><a xlink:title=" ">
<path fill="none" stroke="#63b8ff" d="M267.78,-730.24C283.5,-750.31 311.32,-782.97 341,-804.5 357.6,-816.54 378.62,-826.26 395.08,-832.86"/>
<polygon fill="#63b8ff" stroke="#63b8ff" points="270.5,-728.04 261.63,-722.24 264.95,-732.3 270.5,-728.04"/>
</a>
</g>
</g>
<!-- Node34 -->
<g id="Node000034" class="node">
<title>Node34</title>
<g id="a_Node000034"><a xlink:href="class_e_b_p_f_1_1_e_b_p_f_method_declaration.html" target="_top" xlink:title="Methods are function signatures.">
<polygon fill="white" stroke="#666666" points="505,-796 341,-796 341,-777 505,-777 505,-796"/>
<text text-anchor="middle" x="423" y="-784" font-family="Helvetica,sans-Serif" font-size="10.00">EBPF::EBPFMethodDeclaration</text>
</a>
</g>
</g>
<!-- Node1&#45;&gt;Node34 -->
<g id="edge18_Node000001_Node000034" class="edge">
<title>Node1&#45;&gt;Node34</title>
<g id="a_edge18_Node000001_Node000034"><a xlink:title=" ">
<path fill="none" stroke="#63b8ff" d="M274.68,-728.11C291.55,-740.46 316.7,-757.27 341,-767.5 350.05,-771.31 360.01,-774.44 369.76,-776.97"/>
<polygon fill="#63b8ff" stroke="#63b8ff" points="276.76,-725.3 266.65,-722.12 272.57,-730.91 276.76,-725.3"/>
</a>
</g>
</g>
<!-- Node35 -->
<g id="Node000035" class="node">
<title>Node35</title>
<g id="a_Node000035"><a xlink:href="class_e_b_p_f_1_1_e_b_p_f_parser.html" target="_top" xlink:title=" ">
<polygon fill="white" stroke="#bfbfbf" points="473.5,-759 372.5,-759 372.5,-740 473.5,-740 473.5,-759"/>
<text text-anchor="middle" x="423" y="-747" font-family="Helvetica,sans-Serif" font-size="10.00">EBPF::EBPFParser</text>
</a>
</g>
</g>
<!-- Node1&#45;&gt;Node35 -->
<g id="edge19_Node000001_Node000035" class="edge">
<title>Node1&#45;&gt;Node35</title>
<g id="a_edge19_Node000001_Node000035"><a xlink:title=" ">
<path fill="none" stroke="#63b8ff" d="M307.56,-724.22C330.5,-729.29 357,-735.14 378.72,-739.94"/>
<polygon fill="#63b8ff" stroke="#63b8ff" points="308.15,-720.77 297.64,-722.03 306.65,-727.6 308.15,-720.77"/>
</a>
</g>
</g>
<!-- Node39 -->
<g id="Node000039" class="node">
<title>Node39</title>
<g id="a_Node000039"><a xlink:href="class_e_b_p_f_1_1_e_b_p_f_parser_state.html" target="_top" xlink:title=" ">
<polygon fill="white" stroke="#bfbfbf" points="486.5,-722 359.5,-722 359.5,-703 486.5,-703 486.5,-722"/>
<text text-anchor="middle" x="423" y="-710" font-family="Helvetica,sans-Serif" font-size="10.00">EBPF::EBPFParserState</text>
</a>
</g>
</g>
<!-- Node1&#45;&gt;Node39 -->
<g id="edge22_Node000001_Node000039" class="edge">
<title>Node1&#45;&gt;Node39</title>
<g id="a_edge22_Node000001_Node000039"><a xlink:title=" ">
<path fill="none" stroke="#63b8ff" d="M315.42,-712.5C329.71,-712.5 344.96,-712.5 359.32,-712.5"/>
<polygon fill="#63b8ff" stroke="#63b8ff" points="315.21,-709 305.21,-712.5 315.21,-716 315.21,-709"/>
</a>
</g>
</g>
<!-- Node41 -->
<g id="Node000041" class="node">
<title>Node41</title>
<g id="a_Node000041"><a xlink:href="class_e_b_p_f_1_1_e_b_p_f_program.html" target="_top" xlink:title=" ">
<polygon fill="white" stroke="#bfbfbf" points="479.5,-685 366.5,-685 366.5,-666 479.5,-666 479.5,-685"/>
<text text-anchor="middle" x="423" y="-673" font-family="Helvetica,sans-Serif" font-size="10.00">EBPF::EBPFProgram</text>
</a>
</g>
</g>
<!-- Node1&#45;&gt;Node41 -->
<g id="edge24_Node000001_Node000041" class="edge">
<title>Node1&#45;&gt;Node41</title>
<g id="a_edge24_Node000001_Node000041"><a xlink:title=" ">
<path fill="none" stroke="#63b8ff" d="M307.56,-700.78C330.5,-695.71 357,-689.86 378.72,-685.06"/>
<polygon fill="#63b8ff" stroke="#63b8ff" points="306.65,-697.4 297.64,-702.97 308.15,-704.23 306.65,-697.4"/>
</a>
</g>
</g>
<!-- Node53 -->
<g id="Node000053" class="node">
<title>Node53</title>
<g id="a_Node000053"><a xlink:href="class_e_b_p_f_1_1_e_b_p_f_random_p_s_a.html" target="_top" xlink:title=" ">
<polygon fill="white" stroke="#bfbfbf" points="488.5,-648 357.5,-648 357.5,-629 488.5,-629 488.5,-648"/>
<text text-anchor="middle" x="423" y="-636" font-family="Helvetica,sans-Serif" font-size="10.00">EBPF::EBPFRandomPSA</text>
</a>
</g>
</g>
<!-- Node1&#45;&gt;Node53 -->
<g id="edge28_Node000001_Node000053" class="edge">
<title>Node1&#45;&gt;Node53</title>
<g id="a_edge28_Node000001_Node000053"><a xlink:title=" ">
<path fill="none" stroke="#63b8ff" d="M274.31,-696.73C291.14,-684.08 316.41,-666.8 341,-656.5 349.11,-653.11 357.95,-650.31 366.71,-648.01"/>
<polygon fill="#63b8ff" stroke="#63b8ff" points="272.13,-693.99 266.33,-702.86 276.39,-699.55 272.13,-693.99"/>
</a>
</g>
</g>
<!-- Node54 -->
<g id="Node000054" class="node">
<title>Node54</title>
<g id="a_Node000054"><a xlink:href="class_e_b_p_f_1_1_e_b_p_f_table_base.html" target="_top" xlink:title="Also used to represent counters.">
<polygon fill="white" stroke="#666666" points="483,-500 363,-500 363,-481 483,-481 483,-500"/>
<text text-anchor="middle" x="423" y="-488" font-family="Helvetica,sans-Serif" font-size="10.00">EBPF::EBPFTableBase</text>
</a>
</g>
</g>
<!-- Node1&#45;&gt;Node54 -->
<g id="edge29_Node000001_Node000054" class="edge">
<title>Node1&#45;&gt;Node54</title>
<g id="a_edge29_Node000001_Node000054"><a xlink:title=" ">
<path fill="none" stroke="#63b8ff" d="M267.86,-694.8C301.55,-650.14 389.15,-534.03 414.83,-500"/>
<polygon fill="#63b8ff" stroke="#63b8ff" points="264.93,-692.87 261.7,-702.96 270.51,-697.09 264.93,-692.87"/>
</a>
</g>
</g>
<!-- Node68 -->
<g id="Node000068" class="node">
<title>Node68</title>
<g id="a_Node000068"><a xlink:href="class_e_b_p_f_1_1_e_b_p_f_type.html" target="_top" xlink:title="Base class for EBPF types.">
<polygon fill="white" stroke="#666666" points="469.5,-259 376.5,-259 376.5,-240 469.5,-240 469.5,-259"/>
<text text-anchor="middle" x="423" y="-247" font-family="Helvetica,sans-Serif" font-size="10.00">EBPF::EBPFType</text>
</a>
</g>
</g>
<!-- Node1&#45;&gt;Node68 -->
<g id="edge36_Node000001_Node000068" class="edge">
<title>Node1&#45;&gt;Node68</title>
<g id="a_edge36_Node000001_Node000068"><a xlink:title=" ">
<path fill="none" stroke="#63b8ff" d="M261.34,-693.35C275.91,-652.53 311.14,-554 341,-471.5 370.74,-389.33 407.06,-290.21 418.43,-259.23"/>
<polygon fill="#63b8ff" stroke="#63b8ff" points="258.01,-692.26 257.94,-702.85 264.6,-694.61 258.01,-692.26"/>
</a>
</g>
</g>
<!-- Node83 -->
<g id="Node000083" class="node">
<title>Node83</title>
<g id="a_Node000083"><a xlink:href="class_u_b_p_f_1_1_u_b_p_f_deparser.html" target="_top" xlink:title=" ">
<polygon fill="white" stroke="#bfbfbf" points="482.5,-222 363.5,-222 363.5,-203 482.5,-203 482.5,-222"/>
<text text-anchor="middle" x="423" y="-210" font-family="Helvetica,sans-Serif" font-size="10.00">UBPF::UBPFDeparser</text>
</a>
</g>
</g>
<!-- Node1&#45;&gt;Node83 -->
<g id="edge45_Node000001_Node000083" class="edge">
<title>Node1&#45;&gt;Node83</title>
<g id="a_edge45_Node000001_Node000083"><a xlink:title=" ">
<path fill="none" stroke="#63b8ff" d="M255.23,-692.41C258.66,-609.94 275.77,-298.46 341,-230.5 347.08,-224.16 354.87,-219.82 363.2,-216.89"/>
<polygon fill="#63b8ff" stroke="#63b8ff" points="251.72,-692.73 254.82,-702.86 258.71,-693.01 251.72,-692.73"/>
</a>
</g>
</g>
<!-- Node84 -->
<g id="Node000084" class="node">
<title>Node84</title>
<g id="a_Node000084"><a xlink:href="class_u_b_p_f_1_1_u_b_p_f_table_base.html" target="_top" xlink:title=" ">
<polygon fill="white" stroke="#bfbfbf" points="484.5,-56 361.5,-56 361.5,-37 484.5,-37 484.5,-56"/>
<text text-anchor="middle" x="423" y="-44" font-family="Helvetica,sans-Serif" font-size="10.00">UBPF::UBPFTableBase</text>
</a>
</g>
</g>
<!-- Node1&#45;&gt;Node84 -->
<g id="edge46_Node000001_Node000084" class="edge">
<title>Node1&#45;&gt;Node84</title>
<g id="a_edge46_Node000001_Node000084"><a xlink:title=" ">
<path fill="none" stroke="#63b8ff" d="M255.39,-693C259.04,-623.29 275.97,-380.68 341,-193.5 360.22,-138.18 399.19,-79.11 415.05,-56.28"/>
<polygon fill="#63b8ff" stroke="#63b8ff" points="251.89,-692.83 254.89,-702.99 258.88,-693.18 251.89,-692.83"/>
</a>
</g>
</g>
<!-- Node2 -->
<g id="Node000002" class="node">
<title>Node2</title>
<g id="a_Node000002"><a xlink:href="class_i_castable.html" target="_top" xlink:title=" ">
<polygon fill="white" stroke="#666666" points="166,-722 104,-722 104,-703 166,-703 166,-722"/>
<text text-anchor="middle" x="135" y="-710" font-family="Helvetica,sans-Serif" font-size="10.00">ICastable</text>
</a>
</g>
</g>
<!-- Node2&#45;&gt;Node1 -->
<g id="edge1_Node000001_Node000002" class="edge">
<title>Node2&#45;&gt;Node1</title>
<g id="a_edge1_Node000001_Node000002"><a xlink:title=" ">
<path fill="none" stroke="#63b8ff" d="M176.13,-712.5C184.41,-712.5 193.22,-712.5 201.81,-712.5"/>
<polygon fill="#63b8ff" stroke="#63b8ff" points="176,-709 166,-712.5 176,-716 176,-709"/>
</a>
</g>
</g>
<!-- Node3 -->
<g id="Node000003" class="node">
<title>Node3</title>
<g id="a_Node000003"><a xlink:href="struct_r_t_t_i_1_1_base.html" target="_top" xlink:title=" ">
<polygon fill="white" stroke="#bfbfbf" points="68,-722 0,-722 0,-703 68,-703 68,-722"/>
<text text-anchor="middle" x="34" y="-710" font-family="Helvetica,sans-Serif" font-size="10.00">RTTI::Base</text>
</a>
</g>
</g>
<!-- Node3&#45;&gt;Node2 -->
<g id="edge2_Node000002_Node000003" class="edge">
<title>Node3&#45;&gt;Node2</title>
<g id="a_edge2_Node000002_Node000003"><a xlink:title=" ">
<path fill="none" stroke="#63b8ff" d="M78.44,-712.5C86.95,-712.5 95.71,-712.5 103.68,-712.5"/>
<polygon fill="#63b8ff" stroke="#63b8ff" points="78.24,-709 68.24,-712.5 78.24,-716 78.24,-709"/>
</a>
</g>
</g>
<!-- Node5 -->
<g id="Node000005" class="node">
<title>Node5</title>
<g id="a_Node000005"><a xlink:href="class_e_b_p_f_1_1_e_b_p_f_hash_p_s_a.html" target="_top" xlink:title=" ">
<polygon fill="white" stroke="#bfbfbf" points="695,-1166 579,-1166 579,-1147 695,-1147 695,-1166"/>
<text text-anchor="middle" x="637" y="-1154" font-family="Helvetica,sans-Serif" font-size="10.00">EBPF::EBPFHashPSA</text>
</a>
</g>
</g>
<!-- Node4&#45;&gt;Node5 -->
<g id="edge4_Node000004_Node000005" class="edge">
<title>Node4&#45;&gt;Node5</title>
<g id="a_edge4_Node000004_Node000005"><a xlink:title=" ">
<path fill="none" stroke="#63b8ff" d="M460.83,-1113.28C483.72,-1120.94 513.86,-1130.52 541,-1137.5 554.52,-1140.98 569.26,-1144.2 583.01,-1146.96"/>
<polygon fill="#63b8ff" stroke="#63b8ff" points="461.77,-1109.91 451.18,-1110.02 459.53,-1116.54 461.77,-1109.91"/>
</a>
</g>
</g>
<!-- Node6 -->
<g id="Node000006" class="node">
<title>Node6</title>
<g id="a_Node000006"><a xlink:href="class_e_b_p_f_1_1_e_b_p_f_internet_checksum_p_s_a.html" target="_top" xlink:title=" ">
<polygon fill="white" stroke="#bfbfbf" points="727,-1129 547,-1129 547,-1110 727,-1110 727,-1129"/>
<text text-anchor="middle" x="637" y="-1117" font-family="Helvetica,sans-Serif" font-size="10.00">EBPF::EBPFInternetChecksumPSA</text>
</a>
</g>
</g>
<!-- Node4&#45;&gt;Node6 -->
<g id="edge5_Node000004_Node000006" class="edge">
<title>Node4&#45;&gt;Node6</title>
<g id="a_edge5_Node000004_Node000006"><a xlink:title=" ">
<path fill="none" stroke="#63b8ff" d="M504.04,-1107.67C518,-1108.92 532.6,-1110.23 546.79,-1111.5"/>
<polygon fill="#63b8ff" stroke="#63b8ff" points="504.28,-1104.18 494,-1106.77 503.65,-1111.15 504.28,-1104.18"/>
</a>
</g>
</g>
<!-- Node7 -->
<g id="Node000007" class="node">
<title>Node7</title>
<g id="a_Node000007"><a xlink:href="class_t_c_1_1_e_b_p_f_checksum_p_n_a.html" target="_top" xlink:title=" ">
<polygon fill="white" stroke="#bfbfbf" points="702.5,-1092 571.5,-1092 571.5,-1073 702.5,-1073 702.5,-1092"/>
<text text-anchor="middle" x="637" y="-1080" font-family="Helvetica,sans-Serif" font-size="10.00">TC::EBPFChecksumPNA</text>
</a>
</g>
</g>
<!-- Node4&#45;&gt;Node7 -->
<g id="edge6_Node000004_Node000007" class="edge">
<title>Node4&#45;&gt;Node7</title>
<g id="a_edge6_Node000004_Node000007"><a xlink:title=" ">
<path fill="none" stroke="#63b8ff" d="M504.1,-1093.7C526.34,-1091.81 550.21,-1089.78 571.45,-1087.98"/>
<polygon fill="#63b8ff" stroke="#63b8ff" points="503.67,-1090.22 494,-1094.56 504.26,-1097.2 503.67,-1090.22"/>
</a>
</g>
</g>
<!-- Node8 -->
<g id="Node000008" class="node">
<title>Node8</title>
<g id="a_Node000008"><a xlink:href="class_t_c_1_1_e_b_p_f_internet_checksum_p_n_a.html" target="_top" xlink:title=" ">
<polygon fill="white" stroke="#bfbfbf" points="938,-1092 769,-1092 769,-1073 938,-1073 938,-1092"/>
<text text-anchor="middle" x="853.5" y="-1080" font-family="Helvetica,sans-Serif" font-size="10.00">TC::EBPFInternetChecksumPNA</text>
</a>
</g>
</g>
<!-- Node7&#45;&gt;Node8 -->
<g id="edge7_Node000007_Node000008" class="edge">
<title>Node7&#45;&gt;Node8</title>
<g id="a_edge7_Node000007_Node000008"><a xlink:title=" ">
<path fill="none" stroke="#63b8ff" d="M712.85,-1082.5C730.96,-1082.5 750.43,-1082.5 768.92,-1082.5"/>
<polygon fill="#63b8ff" stroke="#63b8ff" points="712.65,-1079 702.65,-1082.5 712.65,-1086 712.65,-1079"/>
</a>
</g>
</g>
<!-- Node10 -->
<g id="Node000010" class="node">
<title>Node10</title>
<g id="a_Node000010"><a xlink:href="class_e_b_p_f_1_1_e_b_p_f_control_p_s_a.html" target="_top" xlink:title=" ">
<polygon fill="white" stroke="orangered" points="700,-1055 574,-1055 574,-1036 700,-1036 700,-1055"/>
<text text-anchor="middle" x="637" y="-1043" font-family="Helvetica,sans-Serif" font-size="10.00">EBPF::EBPFControlPSA</text>
</a>
</g>
</g>
<!-- Node9&#45;&gt;Node10 -->
<g id="edge9_Node000009_Node000010" class="edge">
<title>Node9&#45;&gt;Node10</title>
<g id="a_edge9_Node000009_Node000010"><a xlink:title=" ">
<path fill="none" stroke="#63b8ff" d="M461.77,-1003.19C484.56,-1010.57 514.26,-1019.73 541,-1026.5 554.7,-1029.97 569.63,-1033.2 583.52,-1035.99"/>
<polygon fill="#63b8ff" stroke="#63b8ff" points="462.74,-999.82 452.14,-1000.04 460.56,-1006.47 462.74,-999.82"/>
</a>
</g>
</g>
<!-- Node12 -->
<g id="Node000012" class="node">
<title>Node12</title>
<g id="a_Node000012"><a xlink:href="class_e_b_p_f_1_1_e_b_p_f_deparser.html" target="_top" xlink:title=" ">
<polygon fill="white" stroke="orangered" points="695,-1018 579,-1018 579,-999 695,-999 695,-1018"/>
<text text-anchor="middle" x="637" y="-1006" font-family="Helvetica,sans-Serif" font-size="10.00">EBPF::EBPFDeparser</text>
</a>
</g>
</g>
<!-- Node9&#45;&gt;Node12 -->
<g id="edge10_Node000009_Node000012" class="edge">
<title>Node9&#45;&gt;Node12</title>
<g id="a_edge10_Node000009_Node000012"><a xlink:title=" ">
<path fill="none" stroke="#63b8ff" d="M486.75,-995.83C515.9,-998.3 550.32,-1001.23 578.76,-1003.64"/>
<polygon fill="#63b8ff" stroke="#63b8ff" points="486.94,-992.33 476.68,-994.97 486.34,-999.31 486.94,-992.33"/>
</a>
</g>
</g>
<!-- Node22 -->
<g id="Node000022" class="node">
<title>Node22</title>
<g id="a_Node000022"><a xlink:href="class_u_b_p_f_1_1_u_b_p_f_control.html" target="_top" xlink:title=" ">
<polygon fill="white" stroke="#bfbfbf" points="692,-981 582,-981 582,-962 692,-962 692,-981"/>
<text text-anchor="middle" x="637" y="-969" font-family="Helvetica,sans-Serif" font-size="10.00">UBPF::UBPFControl</text>
</a>
</g>
</g>
<!-- Node9&#45;&gt;Node22 -->
<g id="edge11_Node000009_Node000022" class="edge">
<title>Node9&#45;&gt;Node22</title>
<g id="a_edge11_Node000009_Node000022"><a xlink:title=" ">
<path fill="none" stroke="#63b8ff" d="M486.68,-984.88C516.88,-982.18 552.74,-978.96 581.75,-976.36"/>
<polygon fill="#63b8ff" stroke="#63b8ff" points="486.32,-981.4 476.68,-985.78 486.95,-988.37 486.32,-981.4"/>
</a>
</g>
</g>
<!-- Node24 -->
<g id="Node000024" class="node">
<title>Node24</title>
<g id="a_Node000024"><a xlink:href="class_t_c_1_1_e_b_p_f_digest_p_n_a.html" target="_top" xlink:title=" ">
<polygon fill="white" stroke="#bfbfbf" points="692.5,-944 581.5,-944 581.5,-925 692.5,-925 692.5,-944"/>
<text text-anchor="middle" x="637" y="-932" font-family="Helvetica,sans-Serif" font-size="10.00">TC::EBPFDigestPNA</text>
</a>
</g>
</g>
<!-- Node23&#45;&gt;Node24 -->
<g id="edge13_Node000023_Node000024" class="edge">
<title>Node23&#45;&gt;Node24</title>
<g id="a_edge13_Node000023_Node000024"><a xlink:title=" ">
<path fill="none" stroke="#63b8ff" d="M494.43,-916.47C522.78,-920.08 554.96,-924.18 581.46,-927.55"/>
<polygon fill="#63b8ff" stroke="#63b8ff" points="494.55,-912.96 484.18,-915.16 493.66,-919.9 494.55,-912.96"/>
</a>
</g>
</g>
<!-- Node26 -->
<g id="Node000026" class="node">
<title>Node26</title>
<g id="a_Node000026"><a xlink:href="class_e_b_p_f_1_1_c_r_c_checksum_algorithm.html" target="_top" xlink:title=" ">
<polygon fill="white" stroke="orangered" points="720,-907 554,-907 554,-888 720,-888 720,-907"/>
<text text-anchor="middle" x="637" y="-895" font-family="Helvetica,sans-Serif" font-size="10.00">EBPF::CRCChecksumAlgorithm</text>
</a>
</g>
</g>
<!-- Node25&#45;&gt;Node26 -->
<g id="edge15_Node000025_Node000026" class="edge">
<title>Node25&#45;&gt;Node26</title>
<g id="a_edge15_Node000025_Node000026"><a xlink:title=" ">
<path fill="none" stroke="#63b8ff" d="M461.77,-855.19C484.56,-862.57 514.26,-871.73 541,-878.5 554.7,-881.97 569.63,-885.2 583.52,-887.99"/>
<polygon fill="#63b8ff" stroke="#63b8ff" points="462.74,-851.82 452.14,-852.04 460.56,-858.47 462.74,-851.82"/>
</a>
</g>
</g>
<!-- Node32 -->
<g id="Node000032" class="node">
<title>Node32</title>
<g id="a_Node000032"><a xlink:href="class_e_b_p_f_1_1_internet_checksum_algorithm.html" target="_top" xlink:title=" ">
<polygon fill="white" stroke="#bfbfbf" points="729,-870 545,-870 545,-851 729,-851 729,-870"/>
<text text-anchor="middle" x="637" y="-858" font-family="Helvetica,sans-Serif" font-size="10.00">EBPF::InternetChecksumAlgorithm</text>
</a>
</g>
</g>
<!-- Node25&#45;&gt;Node32 -->
<g id="edge16_Node000025_Node000032" class="edge">
<title>Node25&#45;&gt;Node32</title>
<g id="a_edge16_Node000025_Node000032"><a xlink:title=" ">
<path fill="none" stroke="#63b8ff" d="M515.18,-850.24C524.97,-851.07 534.94,-851.92 544.73,-852.75"/>
<polygon fill="#63b8ff" stroke="#63b8ff" points="515.32,-846.74 505.06,-849.38 514.72,-853.72 515.32,-846.74"/>
</a>
</g>
</g>
<!-- Node33 -->
<g id="Node000033" class="node">
<title>Node33</title>
<g id="a_Node000033"><a xlink:href="class_t_c_1_1_internet_checksum_algorithm_p_n_a.html" target="_top" xlink:title=" ">
<polygon fill="white" stroke="#bfbfbf" points="733,-833 541,-833 541,-814 733,-814 733,-833"/>
<text text-anchor="middle" x="637" y="-821" font-family="Helvetica,sans-Serif" font-size="10.00">TC::InternetChecksumAlgorithmPNA</text>
</a>
</g>
</g>
<!-- Node25&#45;&gt;Node33 -->
<g id="edge17_Node000025_Node000033" class="edge">
<title>Node25&#45;&gt;Node33</title>
<g id="a_edge17_Node000025_Node000033"><a xlink:title=" ">
<path fill="none" stroke="#63b8ff" d="M515.28,-834.32C523.74,-833.56 532.31,-832.79 540.8,-832.03"/>
<polygon fill="#63b8ff" stroke="#63b8ff" points="514.7,-830.86 505.06,-835.24 515.33,-837.83 514.7,-830.86"/>
</a>
</g>
</g>
<!-- Node36 -->
<g id="Node000036" class="node">
<title>Node36</title>
<g id="a_Node000036"><a xlink:href="class_e_b_p_f_1_1_e_b_p_f_psa_parser.html" target="_top" xlink:title=" ">
<polygon fill="white" stroke="orangered" points="696.5,-796 577.5,-796 577.5,-777 696.5,-777 696.5,-796"/>
<text text-anchor="middle" x="637" y="-784" font-family="Helvetica,sans-Serif" font-size="10.00">EBPF::EBPFPsaParser</text>
</a>
</g>
</g>
<!-- Node35&#45;&gt;Node36 -->
<g id="edge20_Node000035_Node000036" class="edge">
<title>Node35&#45;&gt;Node36</title>
<g id="a_edge20_Node000035_Node000036"><a xlink:title=" ">
<path fill="none" stroke="#63b8ff" d="M483.83,-759.94C514.48,-765.29 551.53,-771.76 581.4,-776.97"/>
<polygon fill="#63b8ff" stroke="#63b8ff" points="484.16,-756.45 473.7,-758.17 482.95,-763.34 484.16,-756.45"/>
</a>
</g>
</g>
<!-- Node38 -->
<g id="Node000038" class="node">
<title>Node38</title>
<g id="a_Node000038"><a xlink:href="class_u_b_p_f_1_1_u_b_p_f_parser.html" target="_top" xlink:title=" ">
<polygon fill="white" stroke="#bfbfbf" points="689,-759 585,-759 585,-740 689,-740 689,-759"/>
<text text-anchor="middle" x="637" y="-747" font-family="Helvetica,sans-Serif" font-size="10.00">UBPF::UBPFParser</text>
</a>
</g>
</g>
<!-- Node35&#45;&gt;Node38 -->
<g id="edge21_Node000035_Node000038" class="edge">
<title>Node35&#45;&gt;Node38</title>
<g id="a_edge21_Node000035_Node000038"><a xlink:title=" ">
<path fill="none" stroke="#63b8ff" d="M483.77,-749.5C515.6,-749.5 554.33,-749.5 584.76,-749.5"/>
<polygon fill="#63b8ff" stroke="#63b8ff" points="483.7,-746 473.7,-749.5 483.7,-753 483.7,-746"/>
</a>
</g>
</g>
<!-- Node40 -->
<g id="Node000040" class="node">
<title>Node40</title>
<g id="a_Node000040"><a xlink:href="class_u_b_p_f_1_1_u_b_p_f_parser_state.html" target="_top" xlink:title=" ">
<polygon fill="white" stroke="#bfbfbf" points="702,-722 572,-722 572,-703 702,-703 702,-722"/>
<text text-anchor="middle" x="637" y="-710" font-family="Helvetica,sans-Serif" font-size="10.00">UBPF::UBPFParserState</text>
</a>
</g>
</g>
<!-- Node39&#45;&gt;Node40 -->
<g id="edge23_Node000039_Node000040" class="edge">
<title>Node39&#45;&gt;Node40</title>
<g id="a_edge23_Node000039_Node000040"><a xlink:title=" ">
<path fill="none" stroke="#63b8ff" d="M497.01,-712.5C521.37,-712.5 548.32,-712.5 571.95,-712.5"/>
<polygon fill="#63b8ff" stroke="#63b8ff" points="496.75,-709 486.75,-712.5 496.75,-716 496.75,-709"/>
</a>
</g>
</g>
<!-- Node42 -->
<g id="Node000042" class="node">
<title>Node42</title>
<g id="a_Node000042"><a xlink:href="class_e_b_p_f_1_1_e_b_p_f_pipeline.html" target="_top" xlink:title="EBPFPipeline represents a single eBPF program in the TC/XDP hook.">
<polygon fill="#fff0f0" stroke="red" points="692,-685 582,-685 582,-666 692,-666 692,-685"/>
<text text-anchor="middle" x="637" y="-673" font-family="Helvetica,sans-Serif" font-size="10.00">EBPF::EBPFPipeline</text>
</a>
</g>
</g>
<!-- Node41&#45;&gt;Node42 -->
<g id="edge25_Node000041_Node000042" class="edge">
<title>Node41&#45;&gt;Node42</title>
<g id="a_edge25_Node000041_Node000042"><a xlink:title=" ">
<path fill="none" stroke="#63b8ff" d="M489.92,-675.5C519.42,-675.5 553.79,-675.5 581.77,-675.5"/>
<polygon fill="#63b8ff" stroke="#63b8ff" points="489.7,-672 479.7,-675.5 489.7,-679 489.7,-672"/>
</a>
</g>
</g>
<!-- Node51 -->
<g id="Node000051" class="node">
<title>Node51</title>
<g id="a_Node000051"><a xlink:href="class_e_b_p_f_1_1_x_d_p_help_program.html" target="_top" xlink:title=" ">
<polygon fill="white" stroke="#bfbfbf" points="702.5,-648 571.5,-648 571.5,-629 702.5,-629 702.5,-648"/>
<text text-anchor="middle" x="637" y="-636" font-family="Helvetica,sans-Serif" font-size="10.00">EBPF::XDPHelpProgram</text>
</a>
</g>
</g>
<!-- Node41&#45;&gt;Node51 -->
<g id="edge26_Node000041_Node000051" class="edge">
<title>Node41&#45;&gt;Node51</title>
<g id="a_edge26_Node000041_Node000051"><a xlink:title=" ">
<path fill="none" stroke="#63b8ff" d="M488.82,-664.19C518.38,-659.03 552.99,-652.99 581.22,-648.06"/>
<polygon fill="#63b8ff" stroke="#63b8ff" points="487.84,-660.8 478.6,-665.97 489.05,-667.7 487.84,-660.8"/>
</a>
</g>
</g>
<!-- Node52 -->
<g id="Node000052" class="node">
<title>Node52</title>
<g id="a_Node000052"><a xlink:href="class_u_b_p_f_1_1_u_b_p_f_program.html" target="_top" xlink:title=" ">
<polygon fill="white" stroke="#bfbfbf" points="695,-611 579,-611 579,-592 695,-592 695,-611"/>
<text text-anchor="middle" x="637" y="-599" font-family="Helvetica,sans-Serif" font-size="10.00">UBPF::UBPFProgram</text>
</a>
</g>
</g>
<!-- Node41&#45;&gt;Node52 -->
<g id="edge27_Node000041_Node000052" class="edge">
<title>Node41&#45;&gt;Node52</title>
<g id="a_edge27_Node000041_Node000052"><a xlink:title=" ">
<path fill="none" stroke="#63b8ff" d="M489.47,-663.63C494.88,-661.61 500.13,-659.26 505,-656.5 524.97,-645.2 520.79,-630.36 541,-619.5 552.53,-613.3 565.86,-609.21 578.81,-606.51"/>
<polygon fill="#63b8ff" stroke="#63b8ff" points="488.01,-660.43 479.62,-666.9 490.21,-667.07 488.01,-660.43"/>
</a>
</g>
</g>
<!-- Node55 -->
<g id="Node000055" class="node">
<title>Node55</title>
<g id="a_Node000055"><a xlink:href="class_e_b_p_f_1_1_e_b_p_f_counter_table.html" target="_top" xlink:title=" ">
<polygon fill="white" stroke="orangered" points="704.5,-574 569.5,-574 569.5,-555 704.5,-555 704.5,-574"/>
<text text-anchor="middle" x="637" y="-562" font-family="Helvetica,sans-Serif" font-size="10.00">EBPF::EBPFCounterTable</text>
</a>
</g>
</g>
<!-- Node54&#45;&gt;Node55 -->
<g id="edge30_Node000054_Node000055" class="edge">
<title>Node54&#45;&gt;Node55</title>
<g id="a_edge30_Node000054_Node000055"><a xlink:title=" ">
<path fill="none" stroke="#63b8ff" d="M449.77,-504.84C473,-517.22 508.4,-534.75 541,-545.5 552.42,-549.26 564.87,-552.41 576.89,-554.99"/>
<polygon fill="#63b8ff" stroke="#63b8ff" points="451.37,-501.73 440.91,-500.05 448.04,-507.88 451.37,-501.73"/>
</a>
</g>
</g>
<!-- Node58 -->
<g id="Node000058" class="node">
<title>Node58</title>
<g id="a_Node000058"><a xlink:href="class_e_b_p_f_1_1_e_b_p_f_meter_p_s_a.html" target="_top" xlink:title=" ">
<polygon fill="white" stroke="#bfbfbf" points="696.5,-537 577.5,-537 577.5,-518 696.5,-518 696.5,-537"/>
<text text-anchor="middle" x="637" y="-525" font-family="Helvetica,sans-Serif" font-size="10.00">EBPF::EBPFMeterPSA</text>
</a>
</g>
</g>
<!-- Node54&#45;&gt;Node58 -->
<g id="edge31_Node000054_Node000058" class="edge">
<title>Node54&#45;&gt;Node58</title>
<g id="a_edge31_Node000054_Node000058"><a xlink:title=" ">
<path fill="none" stroke="#63b8ff" d="M488.82,-501.81C518.38,-506.97 552.99,-513.01 581.22,-517.94"/>
<polygon fill="#63b8ff" stroke="#63b8ff" points="489.05,-498.3 478.6,-500.03 487.84,-505.2 489.05,-498.3"/>
</a>
</g>
</g>
<!-- Node59 -->
<g id="Node000059" class="node">
<title>Node59</title>
<g id="a_Node000059"><a xlink:href="class_e_b_p_f_1_1_e_b_p_f_register_p_s_a.html" target="_top" xlink:title=" ">
<polygon fill="white" stroke="#bfbfbf" points="702.5,-500 571.5,-500 571.5,-481 702.5,-481 702.5,-500"/>
<text text-anchor="middle" x="637" y="-488" font-family="Helvetica,sans-Serif" font-size="10.00">EBPF::EBPFRegisterPSA</text>
</a>
</g>
</g>
<!-- Node54&#45;&gt;Node59 -->
<g id="edge32_Node000054_Node000059" class="edge">
<title>Node54&#45;&gt;Node59</title>
<g id="a_edge32_Node000054_Node000059"><a xlink:title=" ">
<path fill="none" stroke="#63b8ff" d="M493.24,-490.5C518.35,-490.5 546.61,-490.5 571.31,-490.5"/>
<polygon fill="#63b8ff" stroke="#63b8ff" points="493.05,-487 483.05,-490.5 493.05,-494 493.05,-487"/>
</a>
</g>
</g>
<!-- Node60 -->
<g id="Node000060" class="node">
<title>Node60</title>
<g id="a_Node000060"><a xlink:href="class_e_b_p_f_1_1_e_b_p_f_table.html" target="_top" xlink:title=" ">
<polygon fill="white" stroke="orangered" points="685,-463 589,-463 589,-444 685,-444 685,-463"/>
<text text-anchor="middle" x="637" y="-451" font-family="Helvetica,sans-Serif" font-size="10.00">EBPF::EBPFTable</text>
</a>
</g>
</g>
<!-- Node54&#45;&gt;Node60 -->
<g id="edge33_Node000054_Node000060" class="edge">
<title>Node54&#45;&gt;Node60</title>
<g id="a_edge33_Node000054_Node000060"><a xlink:title=" ">
<path fill="none" stroke="#63b8ff" d="M488.84,-479.18C521.09,-473.56 559.36,-466.88 588.79,-461.74"/>
<polygon fill="#63b8ff" stroke="#63b8ff" points="487.84,-475.8 478.6,-480.97 489.05,-482.7 487.84,-475.8"/>
</a>
</g>
</g>
<!-- Node66 -->
<g id="Node000066" class="node">
<title>Node66</title>
<g id="a_Node000066"><a xlink:href="class_e_b_p_f_1_1_e_b_p_f_value_set.html" target="_top" xlink:title=" ">
<polygon fill="white" stroke="#bfbfbf" points="694,-426 580,-426 580,-407 694,-407 694,-426"/>
<text text-anchor="middle" x="637" y="-414" font-family="Helvetica,sans-Serif" font-size="10.00">EBPF::EBPFValueSet</text>
</a>
</g>
</g>
<!-- Node54&#45;&gt;Node66 -->
<g id="edge34_Node000054_Node000066" class="edge">
<title>Node54&#45;&gt;Node66</title>
<g id="a_edge34_Node000054_Node000066"><a xlink:title=" ">
<path fill="none" stroke="#63b8ff" d="M449.31,-476.01C472.49,-463.33 508.09,-445.29 541,-434.5 553.36,-430.45 566.95,-427.2 579.88,-424.64"/>
<polygon fill="#63b8ff" stroke="#63b8ff" points="447.52,-473 440.48,-480.92 450.92,-479.12 447.52,-473"/>
</a>
</g>
</g>
<!-- Node67 -->
<g id="Node000067" class="node">
<title>Node67</title>
<g id="a_Node000067"><a xlink:href="class_t_c_1_1_e_b_p_f_register_p_n_a.html" target="_top" xlink:title=" ">
<polygon fill="white" stroke="#bfbfbf" points="697,-389 577,-389 577,-370 697,-370 697,-389"/>
<text text-anchor="middle" x="637" y="-377" font-family="Helvetica,sans-Serif" font-size="10.00">TC::EBPFRegisterPNA</text>
</a>
</g>
</g>
<!-- Node54&#45;&gt;Node67 -->
<g id="edge35_Node000054_Node000067" class="edge">
<title>Node54&#45;&gt;Node67</title>
<g id="a_edge35_Node000054_Node000067"><a xlink:title=" ">
<path fill="none" stroke="#63b8ff" d="M440.08,-473.37C461.14,-452.05 500.21,-416.18 541,-397.5 552.14,-392.4 564.65,-388.74 576.85,-386.12"/>
<polygon fill="#63b8ff" stroke="#63b8ff" points="437.37,-471.14 432.93,-480.76 442.4,-476.01 437.37,-471.14"/>
</a>
</g>
</g>
<!-- Node69 -->
<g id="Node000069" class="node">
<title>Node69</title>
<g id="a_Node000069"><a xlink:href="class_e_b_p_f_1_1_e_b_p_f_bool_type.html" target="_top" xlink:title=" ">
<polygon fill="white" stroke="orangered" points="695,-352 579,-352 579,-333 695,-333 695,-352"/>
<text text-anchor="middle" x="637" y="-340" font-family="Helvetica,sans-Serif" font-size="10.00">EBPF::EBPFBoolType</text>
</a>
</g>
</g>
<!-- Node68&#45;&gt;Node69 -->
<g id="edge37_Node000068_Node000069" class="edge">
<title>Node68&#45;&gt;Node69</title>
<g id="a_edge37_Node000068_Node000069"><a xlink:title=" ">
<path fill="none" stroke="#63b8ff" d="M443.85,-265.29C466.18,-282.26 504.16,-308.76 541,-323.5 552.87,-328.25 566.06,-331.85 578.75,-334.57"/>
<polygon fill="#63b8ff" stroke="#63b8ff" points="445.88,-262.43 435.82,-259.09 441.6,-267.97 445.88,-262.43"/>
</a>
</g>
</g>
<!-- Node71 -->
<g id="Node000071" class="node">
<title>Node71</title>
<g id="a_Node000071"><a xlink:href="class_e_b_p_f_1_1_e_b_p_f_enum_type.html" target="_top" xlink:title=" ">
<polygon fill="white" stroke="orangered" points="698,-315 576,-315 576,-296 698,-296 698,-315"/>
<text text-anchor="middle" x="637" y="-303" font-family="Helvetica,sans-Serif" font-size="10.00">EBPF::EBPFEnumType</text>
</a>
</g>
</g>
<!-- Node68&#45;&gt;Node71 -->
<g id="edge38_Node000068_Node000071" class="edge">
<title>Node68&#45;&gt;Node71</title>
<g id="a_edge38_Node000068_Node000071"><a xlink:title=" ">
<path fill="none" stroke="#63b8ff" d="M460.83,-262.28C483.72,-269.94 513.86,-279.52 541,-286.5 554.52,-289.98 569.26,-293.2 583.01,-295.96"/>
<polygon fill="#63b8ff" stroke="#63b8ff" points="461.77,-258.91 451.18,-259.02 459.53,-265.54 461.77,-258.91"/>
</a>
</g>
</g>
<!-- Node73 -->
<g id="Node000073" class="node">
<title>Node73</title>
<g id="a_Node000073"><a xlink:href="class_e_b_p_f_1_1_e_b_p_f_error_type.html" target="_top" xlink:title=" ">
<polygon fill="white" stroke="orangered" points="695.5,-278 578.5,-278 578.5,-259 695.5,-259 695.5,-278"/>
<text text-anchor="middle" x="637" y="-266" font-family="Helvetica,sans-Serif" font-size="10.00">EBPF::EBPFErrorType</text>
</a>
</g>
</g>
<!-- Node68&#45;&gt;Node73 -->
<g id="edge39_Node000068_Node000073" class="edge">
<title>Node68&#45;&gt;Node73</title>
<g id="a_edge39_Node000068_Node000073"><a xlink:title=" ">
<path fill="none" stroke="#63b8ff" d="M479.73,-254.5C510.07,-257.21 547.56,-260.57 578.21,-263.32"/>
<polygon fill="#63b8ff" stroke="#63b8ff" points="480.01,-251.01 469.74,-253.6 479.39,-257.98 480.01,-251.01"/>
</a>
</g>
</g>
<!-- Node75 -->
<g id="Node000075" class="node">
<title>Node75</title>
<g id="a_Node000075"><a xlink:href="class_e_b_p_f_1_1_e_b_p_f_scalar_type.html" target="_top" xlink:title=" ">
<polygon fill="white" stroke="orangered" points="698.5,-241 575.5,-241 575.5,-222 698.5,-222 698.5,-241"/>
<text text-anchor="middle" x="637" y="-229" font-family="Helvetica,sans-Serif" font-size="10.00">EBPF::EBPFScalarType</text>
</a>
</g>
</g>
<!-- Node68&#45;&gt;Node75 -->
<g id="edge40_Node000068_Node000075" class="edge">
<title>Node68&#45;&gt;Node75</title>
<g id="a_edge40_Node000068_Node000075"><a xlink:title=" ">
<path fill="none" stroke="#63b8ff" d="M479.84,-244.76C509.26,-242.26 545.36,-239.2 575.45,-236.64"/>
<polygon fill="#63b8ff" stroke="#63b8ff" points="479.41,-241.28 469.74,-245.62 480,-248.26 479.41,-241.28"/>
</a>
</g>
</g>
<!-- Node78 -->
<g id="Node000078" class="node">
<title>Node78</title>
<g id="a_Node000078"><a xlink:href="class_e_b_p_f_1_1_e_b_p_f_stack_type.html" target="_top" xlink:title=" ">
<polygon fill="white" stroke="#bfbfbf" points="697,-204 577,-204 577,-185 697,-185 697,-204"/>
<text text-anchor="middle" x="637" y="-192" font-family="Helvetica,sans-Serif" font-size="10.00">EBPF::EBPFStackType</text>
</a>
</g>
</g>
<!-- Node68&#45;&gt;Node78 -->
<g id="edge41_Node000068_Node000078" class="edge">
<title>Node68&#45;&gt;Node78</title>
<g id="a_edge41_Node000068_Node000078"><a xlink:title=" ">
<path fill="none" stroke="#63b8ff" d="M479.27,-238.36C487.98,-236.08 496.81,-233.46 505,-230.5 521.82,-224.42 524.05,-218.22 541,-212.5 552.37,-208.66 564.8,-205.56 576.81,-203.09"/>
<polygon fill="#63b8ff" stroke="#63b8ff" points="478.39,-234.97 469.53,-240.78 480.08,-241.77 478.39,-234.97"/>
</a>
</g>
</g>
<!-- Node79 -->
<g id="Node000079" class="node">
<title>Node79</title>
<g id="a_Node000079"><a xlink:href="class_e_b_p_f_1_1_e_b_p_f_struct_type.html" target="_top" xlink:title="Also represents headers and unions.">
<polygon fill="#fff0f0" stroke="red" points="698,-167 576,-167 576,-148 698,-148 698,-167"/>
<text text-anchor="middle" x="637" y="-155" font-family="Helvetica,sans-Serif" font-size="10.00">EBPF::EBPFStructType</text>
</a>
</g>
</g>
<!-- Node68&#45;&gt;Node79 -->
<g id="edge42_Node000068_Node000079" class="edge">
<title>Node68&#45;&gt;Node79</title>
<g id="a_edge42_Node000068_Node000079"><a xlink:title=" ">
<path fill="none" stroke="#63b8ff" d="M479.61,-242.4C488.61,-239.63 497.44,-235.79 505,-230.5 528.93,-213.74 516.71,-191.74 541,-175.5 551.33,-168.6 563.62,-164.18 575.88,-161.39"/>
<polygon fill="#63b8ff" stroke="#63b8ff" points="478.59,-239.05 469.83,-245.01 480.4,-245.81 478.59,-239.05"/>
</a>
</g>
</g>
<!-- Node81 -->
<g id="Node000081" class="node">
<title>Node81</title>
<g id="a_Node000081"><a xlink:href="class_e_b_p_f_1_1_e_b_p_f_type_name.html" target="_top" xlink:title="This should not always implement IHasWidth, but it may...">
<polygon fill="white" stroke="#666666" points="698,-130 576,-130 576,-111 698,-111 698,-130"/>
<text text-anchor="middle" x="637" y="-118" font-family="Helvetica,sans-Serif" font-size="10.00">EBPF::EBPFTypeName</text>
</a>
</g>
</g>
<!-- Node68&#45;&gt;Node81 -->
<g id="edge43_Node000068_Node000081" class="edge">
<title>Node68&#45;&gt;Node81</title>
<g id="a_edge43_Node000068_Node000081"><a xlink:title=" ">
<path fill="none" stroke="#63b8ff" d="M479.39,-244.06C488.71,-241.13 497.71,-236.82 505,-230.5 538.18,-201.74 507.21,-166.53 541,-138.5 550.82,-130.35 563.18,-125.46 575.71,-122.6"/>
<polygon fill="#63b8ff" stroke="#63b8ff" points="478.39,-240.7 469.61,-246.63 480.18,-247.47 478.39,-240.7"/>
</a>
</g>
</g>
<!-- Node82 -->
<g id="Node000082" class="node">
<title>Node82</title>
<g id="a_Node000082"><a xlink:href="class_u_b_p_f_1_1_u_b_p_f_list_type.html" target="_top" xlink:title=" ">
<polygon fill="white" stroke="#bfbfbf" points="694,-93 580,-93 580,-74 694,-74 694,-93"/>
<text text-anchor="middle" x="637" y="-81" font-family="Helvetica,sans-Serif" font-size="10.00">UBPF::UBPFListType</text>
</a>
</g>
</g>
<!-- Node68&#45;&gt;Node82 -->
<g id="edge44_Node000068_Node000082" class="edge">
<title>Node68&#45;&gt;Node82</title>
<g id="a_edge44_Node000068_Node000082"><a xlink:title=" ">
<path fill="none" stroke="#63b8ff" d="M479.61,-244.75C489,-241.76 497.96,-237.25 505,-230.5 547.96,-189.3 497.16,-141.77 541,-101.5 551.51,-91.85 565.51,-86.62 579.53,-83.94"/>
<polygon fill="#63b8ff" stroke="#63b8ff" points="478.53,-241.41 469.75,-247.33 480.31,-248.18 478.53,-241.41"/>
</a>
</g>
</g>
<!-- Node85 -->
<g id="Node000085" class="node">
<title>Node85</title>
<g id="a_Node000085"><a xlink:href="class_u_b_p_f_1_1_u_b_p_f_register.html" target="_top" xlink:title=" ">
<polygon fill="white" stroke="#bfbfbf" points="694.5,-56 579.5,-56 579.5,-37 694.5,-37 694.5,-56"/>
<text text-anchor="middle" x="637" y="-44" font-family="Helvetica,sans-Serif" font-size="10.00">UBPF::UBPFRegister</text>
</a>
</g>
</g>
<!-- Node84&#45;&gt;Node85 -->
<g id="edge47_Node000084_Node000085" class="edge">
<title>Node84&#45;&gt;Node85</title>
<g id="a_edge47_Node000084_Node000085"><a xlink:title=" ">
<path fill="none" stroke="#63b8ff" d="M495.06,-46.5C522.46,-46.5 553.37,-46.5 579.24,-46.5"/>
<polygon fill="#63b8ff" stroke="#63b8ff" points="494.75,-43 484.75,-46.5 494.75,-50 494.75,-43"/>
</a>
</g>
</g>
<!-- Node86 -->
<g id="Node000086" class="node">
<title>Node86</title>
<g id="a_Node000086"><a xlink:href="class_u_b_p_f_1_1_u_b_p_f_table.html" target="_top" xlink:title=" ">
<polygon fill="white" stroke="#bfbfbf" points="686.5,-19 587.5,-19 587.5,0 686.5,0 686.5,-19"/>
<text text-anchor="middle" x="637" y="-7" font-family="Helvetica,sans-Serif" font-size="10.00">UBPF::UBPFTable</text>
</a>
</g>
</g>
<!-- Node84&#45;&gt;Node86 -->
<g id="edge48_Node000084_Node000086" class="edge">
<title>Node84&#45;&gt;Node86</title>
<g id="a_edge48_Node000084_Node000086"><a xlink:title=" ">
<path fill="none" stroke="#63b8ff" d="M488.69,-35.21C520.46,-29.67 558.1,-23.1 587.38,-17.99"/>
<polygon fill="#63b8ff" stroke="#63b8ff" points="487.84,-31.8 478.6,-36.97 489.05,-38.7 487.84,-31.8"/>
</a>
</g>
</g>
</g>
</svg>

<g id="navigator" transform="translate(0 0)" fill="#404254">
  <rect fill="#f2f5e9" fill-opacity="0.5" stroke="#606060" stroke-width=".5" x="0" y="0" width="60" height="60"/>
  <use id="zoomplus" xlink:href="#zoomPlus" x="17" y="9" onmousedown="handleZoom(evt,'in')"/>
  <use id="zoomminus" xlink:href="#zoomMin" x="42" y="9" onmousedown="handleZoom(evt,'out')"/>
  <use id="reset" xlink:href="#resetDef" x="30" y="36" onmousedown="handleReset()"/>
   <use id="arrowup" xlink:href="#arrowUp" x="0" y="0" onmousedown="handlePan(0,-1)"/>
  <use id="arrowright" xlink:href="#arrowRight" x="0" y="0" onmousedown="handlePan(1,0)"/>
  <use id="arrowdown" xlink:href="#arrowDown" x="0" y="0" onmousedown="handlePan(0,1)"/>
  <use id="arrowleft" xlink:href="#arrowLeft" x="0" y="0" onmousedown="handlePan(-1,0)"/>
</g>
<svg viewBox="0 0 15 15" width="100%" height="30px" preserveAspectRatio="xMaxYMin meet">
 <g id="arrow_out" transform="scale(0.3 0.3)">
  <a xlink:href="class_e_b_p_f_1_1_e_b_p_f_object__inherit__graph_org.svg" target="_base">
   <rect id="button" ry="5" rx="5" y="6" x="6" height="38" width="38"
        fill="#f2f5e9" fill-opacity="0.5" stroke="#606060" stroke-width="1.0"/>
   <path id="arrow"
     d="M 11.500037,31.436501 C 11.940474,20.09759 22.043105,11.32322 32.158766,21.979434 L 37.068811,17.246167 C 37.068811,17.246167 37.088388,32 37.088388,32 L 22.160133,31.978069 C 22.160133,31.978069 26.997745,27.140456 26.997745,27.140456 C 18.528582,18.264221 13.291696,25.230495 11.500037,31.436501 z"
     style="fill:#404040;"/>
  </a>
 </g>
</svg>

<style type='text/css'>
<![CDATA[
[data-mouse-over-selected='false'] { opacity: 0.7; }
[data-mouse-over-selected='true']  { opacity: 1.0; }
]]>
</style>
<script type="application/ecmascript"><![CDATA[
document.addEventListener('DOMContentLoaded', (event) => {
  highlightEdges();
  highlightAdjacentNodes();
});
]]></script>
</svg>
