<?xml version="1.0" encoding="UTF-8" standalone="no"?>
<!DOCTYPE svg PUBLIC "-//W3C//DTD SVG 1.1//EN"
 "http://www.w3.org/Graphics/SVG/1.1/DTD/svg11.dtd">
<!-- Generated by graphviz version 2.43.0 (0)
 -->
<!-- Title: P4::SynthesizeActions Pages: 1 -->
<svg width="134pt" height="196pt"
 viewBox="0.00 0.00 133.50 196.00" xmlns="http://www.w3.org/2000/svg" xmlns:xlink="http://www.w3.org/1999/xlink">
<g id="graph0" class="graph" transform="scale(1 1) rotate(0) translate(4 192)">
<title>P4::SynthesizeActions</title>
<polygon fill="white" stroke="transparent" points="-4,4 -4,-192 129.5,-192 129.5,4 -4,4"/>
<!-- Node1 -->
<g id="node1" class="node">
<title>Node1</title>
<g id="a_node1"><a xlink:title=" ">
<polygon fill="#bfbfbf" stroke="black" points="0,-0.5 0,-19.5 124,-19.5 124,-0.5 0,-0.5"/>
<text text-anchor="middle" x="62" y="-7.5" font-family="Helvetica,sans-Serif" font-size="10.00">P4::SynthesizeActions</text>
</a>
</g>
</g>
<!-- Node2 -->
<g id="node2" class="node">
<title>Node2</title>
<g id="a_node2"><a xlink:href="class_pass_manager.html" target="_top" xlink:title=" ">
<polygon fill="white" stroke="black" points="21.5,-56.5 21.5,-75.5 102.5,-75.5 102.5,-56.5 21.5,-56.5"/>
<text text-anchor="middle" x="62" y="-63.5" font-family="Helvetica,sans-Serif" font-size="10.00">PassManager</text>
</a>
</g>
</g>
<!-- Node2&#45;&gt;Node1 -->
<g id="edge1" class="edge">
<title>Node2&#45;&gt;Node1</title>
<path fill="none" stroke="midnightblue" d="M62,-45.8C62,-36.91 62,-26.78 62,-19.75"/>
<polygon fill="midnightblue" stroke="midnightblue" points="58.5,-46.08 62,-56.08 65.5,-46.08 58.5,-46.08"/>
</g>
<!-- Node3 -->
<g id="node3" class="node">
<title>Node3</title>
<g id="a_node3"><a xlink:href="class_visitor.html" target="_top" xlink:title=" ">
<polygon fill="white" stroke="black" points="38,-168.5 38,-187.5 86,-187.5 86,-168.5 38,-168.5"/>
<text text-anchor="middle" x="62" y="-175.5" font-family="Helvetica,sans-Serif" font-size="10.00">Visitor</text>
</a>
</g>
</g>
<!-- Node3&#45;&gt;Node2 -->
<g id="edge2" class="edge">
<title>Node3&#45;&gt;Node2</title>
<path fill="none" stroke="midnightblue" d="M56.46,-158.66C54.29,-150.57 52.07,-140.89 51,-132 48.56,-111.77 54.83,-88.25 58.88,-75.79"/>
<polygon fill="midnightblue" stroke="midnightblue" points="53.16,-159.83 59.27,-168.49 59.89,-157.91 53.16,-159.83"/>
</g>
<!-- Node4 -->
<g id="node4" class="node">
<title>Node4</title>
<g id="a_node4"><a xlink:href="class_backtrack.html" target="_top" xlink:title=" ">
<polygon fill="white" stroke="black" points="60.5,-112.5 60.5,-131.5 125.5,-131.5 125.5,-112.5 60.5,-112.5"/>
<text text-anchor="middle" x="93" y="-119.5" font-family="Helvetica,sans-Serif" font-size="10.00">Backtrack</text>
</a>
</g>
</g>
<!-- Node3&#45;&gt;Node4 -->
<g id="edge4" class="edge">
<title>Node3&#45;&gt;Node4</title>
<path fill="none" stroke="midnightblue" d="M72.18,-159.27C77.47,-150.05 83.72,-139.17 87.98,-131.75"/>
<polygon fill="midnightblue" stroke="midnightblue" points="69.06,-157.67 67.12,-168.08 75.13,-161.15 69.06,-157.67"/>
</g>
<!-- Node4&#45;&gt;Node2 -->
<g id="edge3" class="edge">
<title>Node4&#45;&gt;Node2</title>
<path fill="none" stroke="midnightblue" d="M82.82,-103.27C77.53,-94.05 71.28,-83.17 67.02,-75.75"/>
<polygon fill="midnightblue" stroke="midnightblue" points="79.87,-105.15 87.88,-112.08 85.94,-101.67 79.87,-105.15"/>
</g>
</g>
</svg>
