<?xml version="1.0" encoding="UTF-8" standalone="no"?>
<!DOCTYPE svg PUBLIC "-//W3C//DTD SVG 1.1//EN"
 "http://www.w3.org/Graphics/SVG/1.1/DTD/svg11.dtd">
<!-- Generated by graphviz version 2.43.0 (0)
 -->
<!-- Title: P4Tools::TraceEvents::Generic Pages: 1 -->
<svg width="262pt" height="274pt"
 viewBox="0.00 0.00 262.00 274.00" xmlns="http://www.w3.org/2000/svg" xmlns:xlink="http://www.w3.org/1999/xlink">
<g id="graph0" class="graph" transform="scale(1 1) rotate(0) translate(4 270)">
<title>P4Tools::TraceEvents::Generic</title>
<polygon fill="white" stroke="transparent" points="-4,4 -4,-270 258,-270 258,4 -4,4"/>
<!-- Node1 -->
<g id="node1" class="node">
<title>Node1</title>
<g id="a_node1"><a xlink:title="A generic event that only takes in a string as label.">
<polygon fill="#bfbfbf" stroke="black" points="68,-67.5 68,-97.5 186,-97.5 186,-67.5 68,-67.5"/>
<text text-anchor="start" x="76" y="-85.5" font-family="Helvetica,sans-Serif" font-size="10.00">P4Tools::TraceEvents</text>
<text text-anchor="middle" x="127" y="-74.5" font-family="Helvetica,sans-Serif" font-size="10.00">::Generic</text>
</a>
</g>
</g>
<!-- Node5 -->
<g id="node5" class="node">
<title>Node5</title>
<g id="a_node5"><a xlink:href="class_p4_tools_1_1_trace_events_1_1_expression.html" target="_top" xlink:title="A simple event that stores the provided expression.">
<polygon fill="white" stroke="black" points="0,-0.5 0,-30.5 118,-30.5 118,-0.5 0,-0.5"/>
<text text-anchor="start" x="8" y="-18.5" font-family="Helvetica,sans-Serif" font-size="10.00">P4Tools::TraceEvents</text>
<text text-anchor="middle" x="59" y="-7.5" font-family="Helvetica,sans-Serif" font-size="10.00">::Expression</text>
</a>
</g>
</g>
<!-- Node1&#45;&gt;Node5 -->
<g id="edge4" class="edge">
<title>Node1&#45;&gt;Node5</title>
<path fill="none" stroke="midnightblue" d="M104.83,-60.31C94.63,-50.56 82.81,-39.26 73.73,-30.58"/>
<polygon fill="midnightblue" stroke="midnightblue" points="102.6,-63.02 112.25,-67.4 107.43,-57.96 102.6,-63.02"/>
</g>
<!-- Node6 -->
<g id="node6" class="node">
<title>Node6</title>
<g id="a_node6"><a xlink:href="class_p4_tools_1_1_trace_events_1_1_generic_description.html" target="_top" xlink:title=" ">
<polygon fill="white" stroke="black" points="136,-0.5 136,-30.5 254,-30.5 254,-0.5 136,-0.5"/>
<text text-anchor="start" x="144" y="-18.5" font-family="Helvetica,sans-Serif" font-size="10.00">P4Tools::TraceEvents</text>
<text text-anchor="middle" x="195" y="-7.5" font-family="Helvetica,sans-Serif" font-size="10.00">::GenericDescription</text>
</a>
</g>
</g>
<!-- Node1&#45;&gt;Node6 -->
<g id="edge5" class="edge">
<title>Node1&#45;&gt;Node6</title>
<path fill="none" stroke="midnightblue" d="M149.17,-60.31C159.37,-50.56 171.19,-39.26 180.27,-30.58"/>
<polygon fill="midnightblue" stroke="midnightblue" points="146.57,-57.96 141.75,-67.4 151.4,-63.02 146.57,-57.96"/>
</g>
<!-- Node2 -->
<g id="node2" class="node">
<title>Node2</title>
<g id="a_node2"><a xlink:href="class_p4_tools_1_1_trace_event.html" target="_top" xlink:title="An event in a trace of the execution of a P4 program.">
<polygon fill="white" stroke="black" points="70.5,-134.5 70.5,-153.5 183.5,-153.5 183.5,-134.5 70.5,-134.5"/>
<text text-anchor="middle" x="127" y="-141.5" font-family="Helvetica,sans-Serif" font-size="10.00">P4Tools::TraceEvent</text>
</a>
</g>
</g>
<!-- Node2&#45;&gt;Node1 -->
<g id="edge1" class="edge">
<title>Node2&#45;&gt;Node1</title>
<path fill="none" stroke="midnightblue" d="M127,-124.23C127,-115.59 127,-105.5 127,-97.52"/>
<polygon fill="midnightblue" stroke="midnightblue" points="123.5,-124.48 127,-134.48 130.5,-124.48 123.5,-124.48"/>
</g>
<!-- Node3 -->
<g id="node3" class="node">
<title>Node3</title>
<g id="a_node3"><a xlink:href="class_i_castable.html" target="_top" xlink:title=" ">
<polygon fill="white" stroke="black" points="96,-190.5 96,-209.5 158,-209.5 158,-190.5 96,-190.5"/>
<text text-anchor="middle" x="127" y="-197.5" font-family="Helvetica,sans-Serif" font-size="10.00">ICastable</text>
</a>
</g>
</g>
<!-- Node3&#45;&gt;Node2 -->
<g id="edge2" class="edge">
<title>Node3&#45;&gt;Node2</title>
<path fill="none" stroke="midnightblue" d="M127,-179.8C127,-170.91 127,-160.78 127,-153.75"/>
<polygon fill="midnightblue" stroke="midnightblue" points="123.5,-180.08 127,-190.08 130.5,-180.08 123.5,-180.08"/>
</g>
<!-- Node4 -->
<g id="node4" class="node">
<title>Node4</title>
<g id="a_node4"><a xlink:href="struct_r_t_t_i_1_1_base.html" target="_top" xlink:title=" ">
<polygon fill="white" stroke="black" points="93,-246.5 93,-265.5 161,-265.5 161,-246.5 93,-246.5"/>
<text text-anchor="middle" x="127" y="-253.5" font-family="Helvetica,sans-Serif" font-size="10.00">RTTI::Base</text>
</a>
</g>
</g>
<!-- Node4&#45;&gt;Node3 -->
<g id="edge3" class="edge">
<title>Node4&#45;&gt;Node3</title>
<path fill="none" stroke="midnightblue" d="M127,-235.8C127,-226.91 127,-216.78 127,-209.75"/>
<polygon fill="midnightblue" stroke="midnightblue" points="123.5,-236.08 127,-246.08 130.5,-236.08 123.5,-236.08"/>
</g>
</g>
</svg>
