<?xml version="1.0" encoding="UTF-8" standalone="no"?>
<!DOCTYPE svg PUBLIC "-//W3C//DTD SVG 1.1//EN"
 "http://www.w3.org/Graphics/SVG/1.1/DTD/svg11.dtd">
<!-- Generated by graphviz version 2.43.0 (0)
 -->
<!-- Title: P4::ContainerConstructorCall Pages: 1 -->
<svg width="165pt" height="252pt"
 viewBox="0.00 0.00 165.00 252.00" xmlns="http://www.w3.org/2000/svg" xmlns:xlink="http://www.w3.org/1999/xlink">
<g id="graph0" class="graph" transform="scale(1 1) rotate(0) translate(4 248)">
<title>P4::ContainerConstructorCall</title>
<polygon fill="white" stroke="transparent" points="-4,4 -4,-248 161,-248 161,4 -4,4"/>
<!-- Node1 -->
<g id="node1" class="node">
<title>Node1</title>
<g id="a_node1"><a xlink:title=" ">
<polygon fill="#bfbfbf" stroke="black" points="0,-0.5 0,-19.5 157,-19.5 157,-0.5 0,-0.5"/>
<text text-anchor="middle" x="78.5" y="-7.5" font-family="Helvetica,sans-Serif" font-size="10.00">P4::ContainerConstructorCall</text>
</a>
</g>
</g>
<!-- Node2 -->
<g id="node2" class="node">
<title>Node2</title>
<g id="a_node2"><a xlink:href="class_p4_1_1_constructor_call.html" target="_top" xlink:title=" ">
<polygon fill="white" stroke="black" points="23.5,-56.5 23.5,-75.5 133.5,-75.5 133.5,-56.5 23.5,-56.5"/>
<text text-anchor="middle" x="78.5" y="-63.5" font-family="Helvetica,sans-Serif" font-size="10.00">P4::ConstructorCall</text>
</a>
</g>
</g>
<!-- Node2&#45;&gt;Node1 -->
<g id="edge1" class="edge">
<title>Node2&#45;&gt;Node1</title>
<path fill="none" stroke="midnightblue" d="M78.5,-45.8C78.5,-36.91 78.5,-26.78 78.5,-19.75"/>
<polygon fill="midnightblue" stroke="midnightblue" points="75,-46.08 78.5,-56.08 82,-46.08 75,-46.08"/>
</g>
<!-- Node3 -->
<g id="node3" class="node">
<title>Node3</title>
<g id="a_node3"><a xlink:href="class_p4_1_1_instance_base.html" target="_top" xlink:title=" ">
<polygon fill="white" stroke="black" points="28.5,-112.5 28.5,-131.5 128.5,-131.5 128.5,-112.5 28.5,-112.5"/>
<text text-anchor="middle" x="78.5" y="-119.5" font-family="Helvetica,sans-Serif" font-size="10.00">P4::InstanceBase</text>
</a>
</g>
</g>
<!-- Node3&#45;&gt;Node2 -->
<g id="edge2" class="edge">
<title>Node3&#45;&gt;Node2</title>
<path fill="none" stroke="midnightblue" d="M78.5,-101.8C78.5,-92.91 78.5,-82.78 78.5,-75.75"/>
<polygon fill="midnightblue" stroke="midnightblue" points="75,-102.08 78.5,-112.08 82,-102.08 75,-102.08"/>
</g>
<!-- Node4 -->
<g id="node4" class="node">
<title>Node4</title>
<g id="a_node4"><a xlink:href="class_i_castable.html" target="_top" xlink:title=" ">
<polygon fill="white" stroke="black" points="47.5,-168.5 47.5,-187.5 109.5,-187.5 109.5,-168.5 47.5,-168.5"/>
<text text-anchor="middle" x="78.5" y="-175.5" font-family="Helvetica,sans-Serif" font-size="10.00">ICastable</text>
</a>
</g>
</g>
<!-- Node4&#45;&gt;Node3 -->
<g id="edge3" class="edge">
<title>Node4&#45;&gt;Node3</title>
<path fill="none" stroke="midnightblue" d="M78.5,-157.8C78.5,-148.91 78.5,-138.78 78.5,-131.75"/>
<polygon fill="midnightblue" stroke="midnightblue" points="75,-158.08 78.5,-168.08 82,-158.08 75,-158.08"/>
</g>
<!-- Node5 -->
<g id="node5" class="node">
<title>Node5</title>
<g id="a_node5"><a xlink:href="struct_r_t_t_i_1_1_base.html" target="_top" xlink:title=" ">
<polygon fill="white" stroke="black" points="44.5,-224.5 44.5,-243.5 112.5,-243.5 112.5,-224.5 44.5,-224.5"/>
<text text-anchor="middle" x="78.5" y="-231.5" font-family="Helvetica,sans-Serif" font-size="10.00">RTTI::Base</text>
</a>
</g>
</g>
<!-- Node5&#45;&gt;Node4 -->
<g id="edge4" class="edge">
<title>Node5&#45;&gt;Node4</title>
<path fill="none" stroke="midnightblue" d="M78.5,-213.8C78.5,-204.91 78.5,-194.78 78.5,-187.75"/>
<polygon fill="midnightblue" stroke="midnightblue" points="75,-214.08 78.5,-224.08 82,-214.08 75,-214.08"/>
</g>
</g>
</svg>
