<?xml version="1.0" encoding="UTF-8" standalone="no"?>
<!DOCTYPE svg PUBLIC "-//W3C//DTD SVG 1.1//EN"
 "http://www.w3.org/Graphics/SVG/1.1/DTD/svg11.dtd">
<!-- Generated by graphviz version 2.43.0 (0)
 -->
<!-- Title: P4::AbstractInliner&lt; InlineList, InlineWorkList &gt; Pages: 1 -->
<svg width="216pt" height="148pt"
 viewBox="0.00 0.00 216.00 148.00" xmlns="http://www.w3.org/2000/svg" xmlns:xlink="http://www.w3.org/1999/xlink">
<g id="graph0" class="graph" transform="scale(1 1) rotate(0) translate(4 144)">
<title>P4::AbstractInliner&lt; InlineList, InlineWorkList &gt;</title>
<!-- Node1 -->
<g id="Node000001" class="node">
<title>Node1</title>
<g id="a_Node000001"><a xlink:title=" ">
<polygon fill="#999999" stroke="#666666" points="167.5,-30 9.5,-30 9.5,0 167.5,0 167.5,-30"/>
<text text-anchor="start" x="17.5" y="-18" font-family="Helvetica,sans-Serif" font-size="10.00">P4::AbstractInliner</text>
<text text-anchor="middle" x="88.5" y="-7" font-family="Helvetica,sans-Serif" font-size="10.00">&lt; InlineList, InlineWorkList &gt;</text>
</a>
</g>
</g>
<!-- Node2 -->
<g id="Node000002" class="node">
<title>Node2</title>
<g id="a_Node000002"><a xlink:href="class_transform.html" target="_top" xlink:title=" ">
<polygon fill="white" stroke="#bfbfbf" points="65,-85 0,-85 0,-66 65,-66 65,-85"/>
<text text-anchor="middle" x="32.5" y="-73" font-family="Helvetica,sans-Serif" font-size="10.00">Transform</text>
</a>
</g>
</g>
<!-- Node2&#45;&gt;Node1 -->
<g id="edge1_Node000001_Node000002" class="edge">
<title>Node2&#45;&gt;Node1</title>
<g id="a_edge1_Node000001_Node000002"><a xlink:title=" ">
<path fill="none" stroke="#63b8ff" d="M47.89,-58.43C56.38,-49.56 66.82,-38.65 74.99,-30.11"/>
<polygon fill="#63b8ff" stroke="#63b8ff" points="45.15,-56.22 40.76,-65.87 50.21,-61.06 45.15,-56.22"/>
</a>
</g>
</g>
<!-- Node3 -->
<g id="Node000003" class="node">
<title>Node3</title>
<g id="a_Node000003"><a xlink:href="class_visitor.html" target="_top" xlink:title=" ">
<polygon fill="white" stroke="#bfbfbf" points="60.5,-140 12.5,-140 12.5,-121 60.5,-121 60.5,-140"/>
<text text-anchor="middle" x="36.5" y="-128" font-family="Helvetica,sans-Serif" font-size="10.00">Visitor</text>
</a>
</g>
</g>
<!-- Node3&#45;&gt;Node2 -->
<g id="edge2_Node000002_Node000003" class="edge">
<title>Node3&#45;&gt;Node2</title>
<g id="a_edge2_Node000002_Node000003"><a xlink:title=" ">
<path fill="none" stroke="#63b8ff" d="M35.08,-110.66C34.42,-101.93 33.67,-91.99 33.15,-85.09"/>
<polygon fill="#63b8ff" stroke="#63b8ff" points="31.6,-111.04 35.84,-120.75 38.58,-110.51 31.6,-111.04"/>
</a>
</g>
</g>
<!-- Node4 -->
<g id="Node000004" class="node">
<title>Node4</title>
<g id="a_Node000004"><a xlink:href="class_p4_1_1_resolution_context.html" target="_top" xlink:title="Visitor mixin for looking up names in enclosing scopes from the Visitor::Context.">
<polygon fill="white" stroke="#666666" points="208,-85 83,-85 83,-66 208,-66 208,-85"/>
<text text-anchor="middle" x="145.5" y="-73" font-family="Helvetica,sans-Serif" font-size="10.00">P4::ResolutionContext</text>
</a>
</g>
</g>
<!-- Node3&#45;&gt;Node4 -->
<g id="edge4_Node000004_Node000003" class="edge">
<title>Node3&#45;&gt;Node4</title>
<g id="a_edge4_Node000004_Node000003"><a xlink:title=" ">
<path fill="none" stroke="#63b8ff" d="M63.23,-116.5C83.29,-106.75 110.18,-93.68 127.67,-85.17"/>
<polygon fill="#63b8ff" stroke="#63b8ff" points="61.48,-113.46 54.01,-120.98 64.54,-119.76 61.48,-113.46"/>
</a>
</g>
</g>
<!-- Node4&#45;&gt;Node1 -->
<g id="edge3_Node000001_Node000004" class="edge">
<title>Node4&#45;&gt;Node1</title>
<g id="a_edge3_Node000001_Node000004"><a xlink:title=" ">
<path fill="none" stroke="#63b8ff" d="M130.1,-58.7C121.42,-49.78 110.65,-38.74 102.25,-30.11"/>
<polygon fill="#63b8ff" stroke="#63b8ff" points="127.6,-61.15 137.09,-65.87 132.62,-56.26 127.6,-61.15"/>
</a>
</g>
</g>
<!-- Node5 -->
<g id="Node000005" class="node">
<title>Node5</title>
<g id="a_Node000005"><a xlink:href="class_p4_1_1_declaration_lookup.html" target="_top" xlink:title=" ">
<polygon fill="white" stroke="#bfbfbf" points="208,-140 83,-140 83,-121 208,-121 208,-140"/>
<text text-anchor="middle" x="145.5" y="-128" font-family="Helvetica,sans-Serif" font-size="10.00">P4::DeclarationLookup</text>
</a>
</g>
</g>
<!-- Node5&#45;&gt;Node4 -->
<g id="edge5_Node000004_Node000005" class="edge">
<title>Node5&#45;&gt;Node4</title>
<g id="a_edge5_Node000004_Node000005"><a xlink:title=" ">
<path fill="none" stroke="#63b8ff" d="M145.5,-110.66C145.5,-101.93 145.5,-91.99 145.5,-85.09"/>
<polygon fill="#63b8ff" stroke="#63b8ff" points="142,-110.75 145.5,-120.75 149,-110.75 142,-110.75"/>
</a>
</g>
</g>
</g>
</svg>
