<?xml version="1.0" encoding="UTF-8" standalone="no"?>
<!DOCTYPE svg PUBLIC "-//W3C//DTD SVG 1.1//EN"
 "http://www.w3.org/Graphics/SVG/1.1/DTD/svg11.dtd">
<!-- Generated by graphviz version 2.43.0 (0)
 -->
<!-- Title: P4::Instantiation Pages: 1 -->
<svg width="614pt" height="138pt"
 viewBox="0.00 0.00 614.00 138.00" xmlns="http://www.w3.org/2000/svg" xmlns:xlink="http://www.w3.org/1999/xlink">
<g id="graph0" class="graph" transform="scale(1 1) rotate(0) translate(4 134)">
<title>P4::Instantiation</title>
<!-- Node1 -->
<g id="Node000001" class="node">
<title>Node1</title>
<g id="a_Node000001"><a xlink:title="Used to resolve a Declaration_Instance.">
<polygon fill="#999999" stroke="#666666" points="434,-74 338,-74 338,-55 434,-55 434,-74"/>
<text text-anchor="middle" x="386" y="-62" font-family="Helvetica,sans-Serif" font-size="10.00">P4::Instantiation</text>
</a>
</g>
</g>
<!-- Node5 -->
<g id="Node000005" class="node">
<title>Node5</title>
<g id="a_Node000005"><a xlink:href="class_p4_1_1_control_instantiation.html" target="_top" xlink:title=" ">
<polygon fill="white" stroke="#bfbfbf" points="603.5,-130 472.5,-130 472.5,-111 603.5,-111 603.5,-130"/>
<text text-anchor="middle" x="538" y="-118" font-family="Helvetica,sans-Serif" font-size="10.00">P4::ControlInstantiation</text>
</a>
</g>
</g>
<!-- Node1&#45;&gt;Node5 -->
<g id="edge4_Node000001_Node000005" class="edge">
<title>Node1&#45;&gt;Node5</title>
<g id="a_edge4_Node000001_Node000005"><a xlink:title=" ">
<path fill="none" stroke="#63b8ff" d="M414.67,-78.58C430.59,-86.31 451.11,-95.69 470,-102.5 478.61,-105.6 488.02,-108.45 496.98,-110.92"/>
<polygon fill="#63b8ff" stroke="#63b8ff" points="415.93,-75.3 405.42,-74.01 412.84,-81.58 415.93,-75.3"/>
</a>
</g>
</g>
<!-- Node6 -->
<g id="Node000006" class="node">
<title>Node6</title>
<g id="a_Node000006"><a xlink:href="class_p4_1_1_extern_instantiation.html" target="_top" xlink:title=" ">
<polygon fill="white" stroke="#bfbfbf" points="602,-93 474,-93 474,-74 602,-74 602,-93"/>
<text text-anchor="middle" x="538" y="-81" font-family="Helvetica,sans-Serif" font-size="10.00">P4::ExternInstantiation</text>
</a>
</g>
</g>
<!-- Node1&#45;&gt;Node6 -->
<g id="edge5_Node000001_Node000006" class="edge">
<title>Node1&#45;&gt;Node6</title>
<g id="a_edge5_Node000001_Node000006"><a xlink:title=" ">
<path fill="none" stroke="#63b8ff" d="M444.03,-71.72C453.79,-72.96 463.98,-74.25 473.89,-75.51"/>
<polygon fill="#63b8ff" stroke="#63b8ff" points="444.41,-68.24 434.05,-70.46 443.53,-75.19 444.41,-68.24"/>
</a>
</g>
</g>
<!-- Node7 -->
<g id="Node000007" class="node">
<title>Node7</title>
<g id="a_Node000007"><a xlink:href="class_p4_1_1_package_instantiation.html" target="_top" xlink:title=" ">
<polygon fill="white" stroke="#bfbfbf" points="606,-56 470,-56 470,-37 606,-37 606,-56"/>
<text text-anchor="middle" x="538" y="-44" font-family="Helvetica,sans-Serif" font-size="10.00">P4::PackageInstantiation</text>
</a>
</g>
</g>
<!-- Node1&#45;&gt;Node7 -->
<g id="edge6_Node000001_Node000007" class="edge">
<title>Node1&#45;&gt;Node7</title>
<g id="a_edge6_Node000001_Node000007"><a xlink:title=" ">
<path fill="none" stroke="#63b8ff" d="M444.1,-57.65C452.5,-56.64 461.21,-55.59 469.79,-54.57"/>
<polygon fill="#63b8ff" stroke="#63b8ff" points="443.56,-54.19 434.05,-58.85 444.4,-61.14 443.56,-54.19"/>
</a>
</g>
</g>
<!-- Node8 -->
<g id="Node000008" class="node">
<title>Node8</title>
<g id="a_Node000008"><a xlink:href="class_p4_1_1_parser_instantiation.html" target="_top" xlink:title=" ">
<polygon fill="white" stroke="#bfbfbf" points="601,-19 475,-19 475,0 601,0 601,-19"/>
<text text-anchor="middle" x="538" y="-7" font-family="Helvetica,sans-Serif" font-size="10.00">P4::ParserInstantiation</text>
</a>
</g>
</g>
<!-- Node1&#45;&gt;Node8 -->
<g id="edge7_Node000001_Node000008" class="edge">
<title>Node1&#45;&gt;Node8</title>
<g id="a_edge7_Node000001_Node000008"><a xlink:title=" ">
<path fill="none" stroke="#63b8ff" d="M415.34,-50.54C431.17,-43.08 451.41,-34.1 470,-27.5 478.74,-24.4 488.28,-21.54 497.36,-19.05"/>
<polygon fill="#63b8ff" stroke="#63b8ff" points="413.62,-47.48 406.1,-54.95 416.64,-53.8 413.62,-47.48"/>
</a>
</g>
</g>
<!-- Node2 -->
<g id="Node000002" class="node">
<title>Node2</title>
<g id="a_Node000002"><a xlink:href="class_p4_1_1_instance_base.html" target="_top" xlink:title=" ">
<polygon fill="white" stroke="#bfbfbf" points="302,-74 202,-74 202,-55 302,-55 302,-74"/>
<text text-anchor="middle" x="252" y="-62" font-family="Helvetica,sans-Serif" font-size="10.00">P4::InstanceBase</text>
</a>
</g>
</g>
<!-- Node2&#45;&gt;Node1 -->
<g id="edge1_Node000001_Node000002" class="edge">
<title>Node2&#45;&gt;Node1</title>
<g id="a_edge1_Node000001_Node000002"><a xlink:title=" ">
<path fill="none" stroke="#63b8ff" d="M312.19,-64.5C320.84,-64.5 329.64,-64.5 338,-64.5"/>
<polygon fill="#63b8ff" stroke="#63b8ff" points="312.15,-61 302.15,-64.5 312.15,-68 312.15,-61"/>
</a>
</g>
</g>
<!-- Node3 -->
<g id="Node000003" class="node">
<title>Node3</title>
<g id="a_Node000003"><a xlink:href="class_i_castable.html" target="_top" xlink:title=" ">
<polygon fill="white" stroke="#666666" points="166,-74 104,-74 104,-55 166,-55 166,-74"/>
<text text-anchor="middle" x="135" y="-62" font-family="Helvetica,sans-Serif" font-size="10.00">ICastable</text>
</a>
</g>
</g>
<!-- Node3&#45;&gt;Node2 -->
<g id="edge2_Node000002_Node000003" class="edge">
<title>Node3&#45;&gt;Node2</title>
<g id="a_edge2_Node000002_Node000003"><a xlink:title=" ">
<path fill="none" stroke="#63b8ff" d="M176.33,-64.5C184.58,-64.5 193.35,-64.5 201.86,-64.5"/>
<polygon fill="#63b8ff" stroke="#63b8ff" points="176.21,-61 166.21,-64.5 176.21,-68 176.21,-61"/>
</a>
</g>
</g>
<!-- Node4 -->
<g id="Node000004" class="node">
<title>Node4</title>
<g id="a_Node000004"><a xlink:href="struct_r_t_t_i_1_1_base.html" target="_top" xlink:title=" ">
<polygon fill="white" stroke="#bfbfbf" points="68,-74 0,-74 0,-55 68,-55 68,-74"/>
<text text-anchor="middle" x="34" y="-62" font-family="Helvetica,sans-Serif" font-size="10.00">RTTI::Base</text>
</a>
</g>
</g>
<!-- Node4&#45;&gt;Node3 -->
<g id="edge3_Node000003_Node000004" class="edge">
<title>Node4&#45;&gt;Node3</title>
<g id="a_edge3_Node000003_Node000004"><a xlink:title=" ">
<path fill="none" stroke="#63b8ff" d="M78.44,-64.5C86.95,-64.5 95.71,-64.5 103.68,-64.5"/>
<polygon fill="#63b8ff" stroke="#63b8ff" points="78.24,-61 68.24,-64.5 78.24,-68 78.24,-61"/>
</a>
</g>
</g>
</g>
</svg>
