<?xml version="1.0" encoding="UTF-8" standalone="no"?>
<!DOCTYPE svg PUBLIC "-//W3C//DTD SVG 1.1//EN"
 "http://www.w3.org/Graphics/SVG/1.1/DTD/svg11.dtd">
<!-- Generated by graphviz version 2.43.0 (0)
 -->
<!-- Title: DPDK::CheckPNAExternInvocation Pages: 1 -->
<svg width="191pt" height="207pt"
 viewBox="0.00 0.00 191.00 207.00" xmlns="http://www.w3.org/2000/svg" xmlns:xlink="http://www.w3.org/1999/xlink">
<g id="graph0" class="graph" transform="scale(1 1) rotate(0) translate(4 203)">
<title>DPDK::CheckPNAExternInvocation</title>
<polygon fill="white" stroke="transparent" points="-4,4 -4,-203 187,-203 187,4 -4,4"/>
<!-- Node1 -->
<g id="node1" class="node">
<title>Node1</title>
<g id="a_node1"><a xlink:title="Class for checking constraints for invocations of PNA architecture extern methods and functions.">
<polygon fill="#bfbfbf" stroke="black" points="0,-0.5 0,-19.5 183,-19.5 183,-0.5 0,-0.5"/>
<text text-anchor="middle" x="91.5" y="-7.5" font-family="Helvetica,sans-Serif" font-size="10.00">DPDK::CheckPNAExternInvocation</text>
</a>
</g>
</g>
<!-- Node2 -->
<g id="node2" class="node">
<title>Node2</title>
<g id="a_node2"><a xlink:href="class_p4_1_1_check_extern_invocation_common.html" target="_top" xlink:title="Base class which can be used to prepare classes for checking constraints for invocations of externs (...">
<polygon fill="white" stroke="black" points="18,-56.5 18,-86.5 165,-86.5 165,-56.5 18,-56.5"/>
<text text-anchor="start" x="26" y="-74.5" font-family="Helvetica,sans-Serif" font-size="10.00">P4::CheckExternInvocation</text>
<text text-anchor="middle" x="91.5" y="-63.5" font-family="Helvetica,sans-Serif" font-size="10.00">Common</text>
</a>
</g>
</g>
<!-- Node2&#45;&gt;Node1 -->
<g id="edge1" class="edge">
<title>Node2&#45;&gt;Node1</title>
<path fill="none" stroke="midnightblue" d="M91.5,-46.29C91.5,-36.86 91.5,-26.65 91.5,-19.66"/>
<polygon fill="midnightblue" stroke="midnightblue" points="88,-46.4 91.5,-56.4 95,-46.4 88,-46.4"/>
</g>
<!-- Node3 -->
<g id="node3" class="node">
<title>Node3</title>
<g id="a_node3"><a xlink:href="class_inspector.html" target="_top" xlink:title=" ">
<polygon fill="white" stroke="black" points="60.5,-123.5 60.5,-142.5 122.5,-142.5 122.5,-123.5 60.5,-123.5"/>
<text text-anchor="middle" x="91.5" y="-130.5" font-family="Helvetica,sans-Serif" font-size="10.00">Inspector</text>
</a>
</g>
</g>
<!-- Node3&#45;&gt;Node2 -->
<g id="edge2" class="edge">
<title>Node3&#45;&gt;Node2</title>
<path fill="none" stroke="midnightblue" d="M91.5,-113.23C91.5,-104.59 91.5,-94.5 91.5,-86.52"/>
<polygon fill="midnightblue" stroke="midnightblue" points="88,-113.48 91.5,-123.48 95,-113.48 88,-113.48"/>
</g>
<!-- Node4 -->
<g id="node4" class="node">
<title>Node4</title>
<g id="a_node4"><a xlink:href="class_visitor.html" target="_top" xlink:title=" ">
<polygon fill="white" stroke="black" points="67.5,-179.5 67.5,-198.5 115.5,-198.5 115.5,-179.5 67.5,-179.5"/>
<text text-anchor="middle" x="91.5" y="-186.5" font-family="Helvetica,sans-Serif" font-size="10.00">Visitor</text>
</a>
</g>
</g>
<!-- Node4&#45;&gt;Node3 -->
<g id="edge3" class="edge">
<title>Node4&#45;&gt;Node3</title>
<path fill="none" stroke="midnightblue" d="M91.5,-168.8C91.5,-159.91 91.5,-149.78 91.5,-142.75"/>
<polygon fill="midnightblue" stroke="midnightblue" points="88,-169.08 91.5,-179.08 95,-169.08 88,-169.08"/>
</g>
</g>
</svg>
