<?xml version="1.0" encoding="UTF-8" standalone="no"?>
<!DOCTYPE svg PUBLIC "-//W3C//DTD SVG 1.1//EN"
 "http://www.w3.org/Graphics/SVG/1.1/DTD/svg11.dtd">
<!-- Generated by graphviz version 2.43.0 (0)
 -->
<!-- Title: P4Tools::P4Testgen::EBPF::EBPFTestgenTarget Pages: 1 -->
<svg width="152pt" height="218pt"
 viewBox="0.00 0.00 152.00 218.00" xmlns="http://www.w3.org/2000/svg" xmlns:xlink="http://www.w3.org/1999/xlink">
<g id="graph0" class="graph" transform="scale(1 1) rotate(0) translate(4 214)">
<title>P4Tools::P4Testgen::EBPF::EBPFTestgenTarget</title>
<polygon fill="white" stroke="transparent" points="-4,4 -4,-214 148,-214 148,4 -4,4"/>
<!-- Node1 -->
<g id="node1" class="node">
<title>Node1</title>
<g id="a_node1"><a xlink:title=" ">
<polygon fill="#bfbfbf" stroke="black" points="0,-0.5 0,-30.5 144,-30.5 144,-0.5 0,-0.5"/>
<text text-anchor="start" x="8" y="-18.5" font-family="Helvetica,sans-Serif" font-size="10.00">P4Tools::P4Testgen</text>
<text text-anchor="middle" x="72" y="-7.5" font-family="Helvetica,sans-Serif" font-size="10.00">::EBPF::EBPFTestgenTarget</text>
</a>
</g>
</g>
<!-- Node2 -->
<g id="node2" class="node">
<title>Node2</title>
<g id="a_node2"><a xlink:href="class_p4_tools_1_1_p4_testgen_1_1_testgen_target.html" target="_top" xlink:title=" ">
<polygon fill="white" stroke="black" points="17.5,-67.5 17.5,-97.5 126.5,-97.5 126.5,-67.5 17.5,-67.5"/>
<text text-anchor="start" x="25.5" y="-85.5" font-family="Helvetica,sans-Serif" font-size="10.00">P4Tools::P4Testgen</text>
<text text-anchor="middle" x="72" y="-74.5" font-family="Helvetica,sans-Serif" font-size="10.00">::TestgenTarget</text>
</a>
</g>
</g>
<!-- Node2&#45;&gt;Node1 -->
<g id="edge1" class="edge">
<title>Node2&#45;&gt;Node1</title>
<path fill="none" stroke="midnightblue" d="M72,-57.11C72,-48.15 72,-38.32 72,-30.58"/>
<polygon fill="midnightblue" stroke="midnightblue" points="68.5,-57.4 72,-67.4 75.5,-57.4 68.5,-57.4"/>
</g>
<!-- Node3 -->
<g id="node3" class="node">
<title>Node3</title>
<g id="a_node3"><a xlink:href="class_p4_tools_1_1_compiler_target.html" target="_top" xlink:title="Encapsulates the details of invoking the P4 compiler for a target device and architecture.">
<polygon fill="white" stroke="black" points="5,-134.5 5,-153.5 139,-153.5 139,-134.5 5,-134.5"/>
<text text-anchor="middle" x="72" y="-141.5" font-family="Helvetica,sans-Serif" font-size="10.00">P4Tools::CompilerTarget</text>
</a>
</g>
</g>
<!-- Node3&#45;&gt;Node2 -->
<g id="edge2" class="edge">
<title>Node3&#45;&gt;Node2</title>
<path fill="none" stroke="midnightblue" d="M72,-124.23C72,-115.59 72,-105.5 72,-97.52"/>
<polygon fill="midnightblue" stroke="midnightblue" points="68.5,-124.48 72,-134.48 75.5,-124.48 68.5,-124.48"/>
</g>
<!-- Node4 -->
<g id="node4" class="node">
<title>Node4</title>
<g id="a_node4"><a xlink:href="class_p4_tools_1_1_target.html" target="_top" xlink:title=" ">
<polygon fill="white" stroke="black" points="27.5,-190.5 27.5,-209.5 116.5,-209.5 116.5,-190.5 27.5,-190.5"/>
<text text-anchor="middle" x="72" y="-197.5" font-family="Helvetica,sans-Serif" font-size="10.00">P4Tools::Target</text>
</a>
</g>
</g>
<!-- Node4&#45;&gt;Node3 -->
<g id="edge3" class="edge">
<title>Node4&#45;&gt;Node3</title>
<path fill="none" stroke="midnightblue" d="M72,-179.8C72,-170.91 72,-160.78 72,-153.75"/>
<polygon fill="midnightblue" stroke="midnightblue" points="68.5,-180.08 72,-190.08 75.5,-180.08 68.5,-180.08"/>
</g>
</g>
</svg>
