<?xml version="1.0" encoding="UTF-8" standalone="no"?>
<!DOCTYPE svg PUBLIC "-//W3C//DTD SVG 1.1//EN"
 "http://www.w3.org/Graphics/SVG/1.1/DTD/svg11.dtd">
<!-- Generated by graphviz version 2.43.0 (0)
 -->
<!-- Title: EBPF::EBPFTableImplementationPSA Pages: 1 -->
<svg width="338pt" height="420pt"
 viewBox="0.00 0.00 337.50 420.00" xmlns="http://www.w3.org/2000/svg" xmlns:xlink="http://www.w3.org/1999/xlink">
<g id="graph0" class="graph" transform="scale(1 1) rotate(0) translate(4 416)">
<title>EBPF::EBPFTableImplementationPSA</title>
<polygon fill="white" stroke="transparent" points="-4,4 -4,-416 333.5,-416 333.5,4 -4,4"/>
<!-- Node1 -->
<g id="node1" class="node">
<title>Node1</title>
<g id="a_node1"><a xlink:title="Base class for ActionProfile and ActionSelector.">
<polygon fill="#bfbfbf" stroke="black" points="65.5,-56.5 65.5,-75.5 259.5,-75.5 259.5,-56.5 65.5,-56.5"/>
<text text-anchor="middle" x="162.5" y="-63.5" font-family="Helvetica,sans-Serif" font-size="10.00">EBPF::EBPFTableImplementationPSA</text>
</a>
</g>
</g>
<!-- Node8 -->
<g id="node8" class="node">
<title>Node8</title>
<g id="a_node8"><a xlink:href="class_e_b_p_f_1_1_e_b_p_f_action_profile_p_s_a.html" target="_top" xlink:title=" ">
<polygon fill="white" stroke="black" points="0,-0.5 0,-19.5 151,-19.5 151,-0.5 0,-0.5"/>
<text text-anchor="middle" x="75.5" y="-7.5" font-family="Helvetica,sans-Serif" font-size="10.00">EBPF::EBPFActionProfilePSA</text>
</a>
</g>
</g>
<!-- Node1&#45;&gt;Node8 -->
<g id="edge7" class="edge">
<title>Node1&#45;&gt;Node8</title>
<path fill="none" stroke="midnightblue" d="M139.78,-50.9C123.83,-41 103,-28.07 89.44,-19.65"/>
<polygon fill="midnightblue" stroke="midnightblue" points="138.18,-54.02 148.52,-56.32 141.87,-48.08 138.18,-54.02"/>
</g>
<!-- Node9 -->
<g id="node9" class="node">
<title>Node9</title>
<g id="a_node9"><a xlink:href="class_e_b_p_f_1_1_e_b_p_f_action_selector_p_s_a.html" target="_top" xlink:title=" ">
<polygon fill="white" stroke="black" points="169.5,-0.5 169.5,-19.5 329.5,-19.5 329.5,-0.5 169.5,-0.5"/>
<text text-anchor="middle" x="249.5" y="-7.5" font-family="Helvetica,sans-Serif" font-size="10.00">EBPF::EBPFActionSelectorPSA</text>
</a>
</g>
</g>
<!-- Node1&#45;&gt;Node9 -->
<g id="edge8" class="edge">
<title>Node1&#45;&gt;Node9</title>
<path fill="none" stroke="midnightblue" d="M185.22,-50.9C201.17,-41 222,-28.07 235.56,-19.65"/>
<polygon fill="midnightblue" stroke="midnightblue" points="183.13,-48.08 176.48,-56.32 186.82,-54.02 183.13,-48.08"/>
</g>
<!-- Node2 -->
<g id="node2" class="node">
<title>Node2</title>
<g id="a_node2"><a xlink:href="class_e_b_p_f_1_1_e_b_p_f_table_p_s_a.html" target="_top" xlink:title=" ">
<polygon fill="white" stroke="black" points="104.5,-112.5 104.5,-131.5 220.5,-131.5 220.5,-112.5 104.5,-112.5"/>
<text text-anchor="middle" x="162.5" y="-119.5" font-family="Helvetica,sans-Serif" font-size="10.00">EBPF::EBPFTablePSA</text>
</a>
</g>
</g>
<!-- Node2&#45;&gt;Node1 -->
<g id="edge1" class="edge">
<title>Node2&#45;&gt;Node1</title>
<path fill="none" stroke="midnightblue" d="M162.5,-101.8C162.5,-92.91 162.5,-82.78 162.5,-75.75"/>
<polygon fill="midnightblue" stroke="midnightblue" points="159,-102.08 162.5,-112.08 166,-102.08 159,-102.08"/>
</g>
<!-- Node3 -->
<g id="node3" class="node">
<title>Node3</title>
<g id="a_node3"><a xlink:href="class_e_b_p_f_1_1_e_b_p_f_table.html" target="_top" xlink:title=" ">
<polygon fill="white" stroke="black" points="114.5,-168.5 114.5,-187.5 210.5,-187.5 210.5,-168.5 114.5,-168.5"/>
<text text-anchor="middle" x="162.5" y="-175.5" font-family="Helvetica,sans-Serif" font-size="10.00">EBPF::EBPFTable</text>
</a>
</g>
</g>
<!-- Node3&#45;&gt;Node2 -->
<g id="edge2" class="edge">
<title>Node3&#45;&gt;Node2</title>
<path fill="none" stroke="midnightblue" d="M162.5,-157.8C162.5,-148.91 162.5,-138.78 162.5,-131.75"/>
<polygon fill="midnightblue" stroke="midnightblue" points="159,-158.08 162.5,-168.08 166,-158.08 159,-158.08"/>
</g>
<!-- Node4 -->
<g id="node4" class="node">
<title>Node4</title>
<g id="a_node4"><a xlink:href="class_e_b_p_f_1_1_e_b_p_f_table_base.html" target="_top" xlink:title="Also used to represent counters.">
<polygon fill="white" stroke="black" points="102.5,-224.5 102.5,-243.5 222.5,-243.5 222.5,-224.5 102.5,-224.5"/>
<text text-anchor="middle" x="162.5" y="-231.5" font-family="Helvetica,sans-Serif" font-size="10.00">EBPF::EBPFTableBase</text>
</a>
</g>
</g>
<!-- Node4&#45;&gt;Node3 -->
<g id="edge3" class="edge">
<title>Node4&#45;&gt;Node3</title>
<path fill="none" stroke="midnightblue" d="M162.5,-213.8C162.5,-204.91 162.5,-194.78 162.5,-187.75"/>
<polygon fill="midnightblue" stroke="midnightblue" points="159,-214.08 162.5,-224.08 166,-214.08 159,-214.08"/>
</g>
<!-- Node5 -->
<g id="node5" class="node">
<title>Node5</title>
<g id="a_node5"><a xlink:href="class_e_b_p_f_1_1_e_b_p_f_object.html" target="_top" xlink:title="Base class for EBPF objects.">
<polygon fill="white" stroke="black" points="111,-280.5 111,-299.5 214,-299.5 214,-280.5 111,-280.5"/>
<text text-anchor="middle" x="162.5" y="-287.5" font-family="Helvetica,sans-Serif" font-size="10.00">EBPF::EBPFObject</text>
</a>
</g>
</g>
<!-- Node5&#45;&gt;Node4 -->
<g id="edge4" class="edge">
<title>Node5&#45;&gt;Node4</title>
<path fill="none" stroke="midnightblue" d="M162.5,-269.8C162.5,-260.91 162.5,-250.78 162.5,-243.75"/>
<polygon fill="midnightblue" stroke="midnightblue" points="159,-270.08 162.5,-280.08 166,-270.08 159,-270.08"/>
</g>
<!-- Node6 -->
<g id="node6" class="node">
<title>Node6</title>
<g id="a_node6"><a xlink:href="class_i_castable.html" target="_top" xlink:title=" ">
<polygon fill="white" stroke="black" points="131.5,-336.5 131.5,-355.5 193.5,-355.5 193.5,-336.5 131.5,-336.5"/>
<text text-anchor="middle" x="162.5" y="-343.5" font-family="Helvetica,sans-Serif" font-size="10.00">ICastable</text>
</a>
</g>
</g>
<!-- Node6&#45;&gt;Node5 -->
<g id="edge5" class="edge">
<title>Node6&#45;&gt;Node5</title>
<path fill="none" stroke="midnightblue" d="M162.5,-325.8C162.5,-316.91 162.5,-306.78 162.5,-299.75"/>
<polygon fill="midnightblue" stroke="midnightblue" points="159,-326.08 162.5,-336.08 166,-326.08 159,-326.08"/>
</g>
<!-- Node7 -->
<g id="node7" class="node">
<title>Node7</title>
<g id="a_node7"><a xlink:href="struct_r_t_t_i_1_1_base.html" target="_top" xlink:title=" ">
<polygon fill="white" stroke="black" points="128.5,-392.5 128.5,-411.5 196.5,-411.5 196.5,-392.5 128.5,-392.5"/>
<text text-anchor="middle" x="162.5" y="-399.5" font-family="Helvetica,sans-Serif" font-size="10.00">RTTI::Base</text>
</a>
</g>
</g>
<!-- Node7&#45;&gt;Node6 -->
<g id="edge6" class="edge">
<title>Node7&#45;&gt;Node6</title>
<path fill="none" stroke="midnightblue" d="M162.5,-381.8C162.5,-372.91 162.5,-362.78 162.5,-355.75"/>
<polygon fill="midnightblue" stroke="midnightblue" points="159,-382.08 162.5,-392.08 166,-382.08 159,-382.08"/>
</g>
</g>
</svg>
