<?xml version="1.0" encoding="UTF-8" standalone="no"?>
<!DOCTYPE svg PUBLIC "-//W3C//DTD SVG 1.1//EN"
 "http://www.w3.org/Graphics/SVG/1.1/DTD/svg11.dtd">
<!-- Generated by graphviz version 2.43.0 (0)
 -->
<!-- Title: UBPF::UBPFTableBase Pages: 1 -->
<svg width="240pt" height="252pt"
 viewBox="0.00 0.00 240.00 252.00" xmlns="http://www.w3.org/2000/svg" xmlns:xlink="http://www.w3.org/1999/xlink">
<g id="graph0" class="graph" transform="scale(1 1) rotate(0) translate(4 248)">
<title>UBPF::UBPFTableBase</title>
<polygon fill="white" stroke="transparent" points="-4,4 -4,-248 236,-248 236,4 -4,4"/>
<!-- Node1 -->
<g id="node1" class="node">
<title>Node1</title>
<g id="a_node1"><a xlink:title=" ">
<polygon fill="#bfbfbf" stroke="black" points="58,-56.5 58,-75.5 181,-75.5 181,-56.5 58,-56.5"/>
<text text-anchor="middle" x="119.5" y="-63.5" font-family="Helvetica,sans-Serif" font-size="10.00">UBPF::UBPFTableBase</text>
</a>
</g>
</g>
<!-- Node5 -->
<g id="node5" class="node">
<title>Node5</title>
<g id="a_node5"><a xlink:href="class_u_b_p_f_1_1_u_b_p_f_register.html" target="_top" xlink:title=" ">
<polygon fill="white" stroke="black" points="0,-0.5 0,-19.5 115,-19.5 115,-0.5 0,-0.5"/>
<text text-anchor="middle" x="57.5" y="-7.5" font-family="Helvetica,sans-Serif" font-size="10.00">UBPF::UBPFRegister</text>
</a>
</g>
</g>
<!-- Node1&#45;&gt;Node5 -->
<g id="edge4" class="edge">
<title>Node1&#45;&gt;Node5</title>
<path fill="none" stroke="midnightblue" d="M101.75,-49.54C90.69,-39.91 76.87,-27.87 67.64,-19.83"/>
<polygon fill="midnightblue" stroke="midnightblue" points="99.7,-52.4 109.54,-56.32 104.3,-47.12 99.7,-52.4"/>
</g>
<!-- Node6 -->
<g id="node6" class="node">
<title>Node6</title>
<g id="a_node6"><a xlink:href="class_u_b_p_f_1_1_u_b_p_f_table.html" target="_top" xlink:title=" ">
<polygon fill="white" stroke="black" points="133,-0.5 133,-19.5 232,-19.5 232,-0.5 133,-0.5"/>
<text text-anchor="middle" x="182.5" y="-7.5" font-family="Helvetica,sans-Serif" font-size="10.00">UBPF::UBPFTable</text>
</a>
</g>
</g>
<!-- Node1&#45;&gt;Node6 -->
<g id="edge5" class="edge">
<title>Node1&#45;&gt;Node6</title>
<path fill="none" stroke="midnightblue" d="M137.54,-49.54C148.77,-39.91 162.82,-27.87 172.19,-19.83"/>
<polygon fill="midnightblue" stroke="midnightblue" points="134.94,-47.16 129.62,-56.32 139.49,-52.47 134.94,-47.16"/>
</g>
<!-- Node2 -->
<g id="node2" class="node">
<title>Node2</title>
<g id="a_node2"><a xlink:href="class_e_b_p_f_1_1_e_b_p_f_object.html" target="_top" xlink:title="Base class for EBPF objects.">
<polygon fill="white" stroke="black" points="68,-112.5 68,-131.5 171,-131.5 171,-112.5 68,-112.5"/>
<text text-anchor="middle" x="119.5" y="-119.5" font-family="Helvetica,sans-Serif" font-size="10.00">EBPF::EBPFObject</text>
</a>
</g>
</g>
<!-- Node2&#45;&gt;Node1 -->
<g id="edge1" class="edge">
<title>Node2&#45;&gt;Node1</title>
<path fill="none" stroke="midnightblue" d="M119.5,-101.8C119.5,-92.91 119.5,-82.78 119.5,-75.75"/>
<polygon fill="midnightblue" stroke="midnightblue" points="116,-102.08 119.5,-112.08 123,-102.08 116,-102.08"/>
</g>
<!-- Node3 -->
<g id="node3" class="node">
<title>Node3</title>
<g id="a_node3"><a xlink:href="class_i_castable.html" target="_top" xlink:title=" ">
<polygon fill="white" stroke="black" points="88.5,-168.5 88.5,-187.5 150.5,-187.5 150.5,-168.5 88.5,-168.5"/>
<text text-anchor="middle" x="119.5" y="-175.5" font-family="Helvetica,sans-Serif" font-size="10.00">ICastable</text>
</a>
</g>
</g>
<!-- Node3&#45;&gt;Node2 -->
<g id="edge2" class="edge">
<title>Node3&#45;&gt;Node2</title>
<path fill="none" stroke="midnightblue" d="M119.5,-157.8C119.5,-148.91 119.5,-138.78 119.5,-131.75"/>
<polygon fill="midnightblue" stroke="midnightblue" points="116,-158.08 119.5,-168.08 123,-158.08 116,-158.08"/>
</g>
<!-- Node4 -->
<g id="node4" class="node">
<title>Node4</title>
<g id="a_node4"><a xlink:href="struct_r_t_t_i_1_1_base.html" target="_top" xlink:title=" ">
<polygon fill="white" stroke="black" points="85.5,-224.5 85.5,-243.5 153.5,-243.5 153.5,-224.5 85.5,-224.5"/>
<text text-anchor="middle" x="119.5" y="-231.5" font-family="Helvetica,sans-Serif" font-size="10.00">RTTI::Base</text>
</a>
</g>
</g>
<!-- Node4&#45;&gt;Node3 -->
<g id="edge3" class="edge">
<title>Node4&#45;&gt;Node3</title>
<path fill="none" stroke="midnightblue" d="M119.5,-213.8C119.5,-204.91 119.5,-194.78 119.5,-187.75"/>
<polygon fill="midnightblue" stroke="midnightblue" points="116,-214.08 119.5,-224.08 123,-214.08 116,-214.08"/>
</g>
</g>
</svg>
