<?xml version="1.0" encoding="UTF-8" standalone="no"?>
<!DOCTYPE svg PUBLIC "-//W3C//DTD SVG 1.1//EN"
 "http://www.w3.org/Graphics/SVG/1.1/DTD/svg11.dtd">
<!-- Generated by graphviz version 2.43.0 (0)
 -->
<!-- Title: UBPF::UBPFStructType Pages: 1 -->
<svg width="216pt" height="308pt"
 viewBox="0.00 0.00 216.00 308.00" xmlns="http://www.w3.org/2000/svg" xmlns:xlink="http://www.w3.org/1999/xlink">
<g id="graph0" class="graph" transform="scale(1 1) rotate(0) translate(4 304)">
<title>UBPF::UBPFStructType</title>
<polygon fill="white" stroke="transparent" points="-4,4 -4,-304 212,-304 212,4 -4,4"/>
<!-- Node1 -->
<g id="node1" class="node">
<title>Node1</title>
<g id="a_node1"><a xlink:title=" ">
<polygon fill="#bfbfbf" stroke="black" points="40,-0.5 40,-19.5 165,-19.5 165,-0.5 40,-0.5"/>
<text text-anchor="middle" x="102.5" y="-7.5" font-family="Helvetica,sans-Serif" font-size="10.00">UBPF::UBPFStructType</text>
</a>
</g>
</g>
<!-- Node2 -->
<g id="node2" class="node">
<title>Node2</title>
<g id="a_node2"><a xlink:href="class_e_b_p_f_1_1_e_b_p_f_struct_type.html" target="_top" xlink:title="Also represents headers and unions.">
<polygon fill="white" stroke="black" points="41.5,-56.5 41.5,-75.5 163.5,-75.5 163.5,-56.5 41.5,-56.5"/>
<text text-anchor="middle" x="102.5" y="-63.5" font-family="Helvetica,sans-Serif" font-size="10.00">EBPF::EBPFStructType</text>
</a>
</g>
</g>
<!-- Node2&#45;&gt;Node1 -->
<g id="edge1" class="edge">
<title>Node2&#45;&gt;Node1</title>
<path fill="none" stroke="midnightblue" d="M102.5,-45.8C102.5,-36.91 102.5,-26.78 102.5,-19.75"/>
<polygon fill="midnightblue" stroke="midnightblue" points="99,-46.08 102.5,-56.08 106,-46.08 99,-46.08"/>
</g>
<!-- Node3 -->
<g id="node3" class="node">
<title>Node3</title>
<g id="a_node3"><a xlink:href="class_e_b_p_f_1_1_e_b_p_f_type.html" target="_top" xlink:title="Base class for EBPF types.">
<polygon fill="white" stroke="black" points="0,-112.5 0,-131.5 93,-131.5 93,-112.5 0,-112.5"/>
<text text-anchor="middle" x="46.5" y="-119.5" font-family="Helvetica,sans-Serif" font-size="10.00">EBPF::EBPFType</text>
</a>
</g>
</g>
<!-- Node3&#45;&gt;Node2 -->
<g id="edge2" class="edge">
<title>Node3&#45;&gt;Node2</title>
<path fill="none" stroke="midnightblue" d="M62.83,-105.25C72.76,-95.67 85.09,-83.79 93.34,-75.83"/>
<polygon fill="midnightblue" stroke="midnightblue" points="60.27,-102.86 55.5,-112.32 65.13,-107.9 60.27,-102.86"/>
</g>
<!-- Node4 -->
<g id="node4" class="node">
<title>Node4</title>
<g id="a_node4"><a xlink:href="class_e_b_p_f_1_1_e_b_p_f_object.html" target="_top" xlink:title="Base class for EBPF objects.">
<polygon fill="white" stroke="black" points="11,-168.5 11,-187.5 114,-187.5 114,-168.5 11,-168.5"/>
<text text-anchor="middle" x="62.5" y="-175.5" font-family="Helvetica,sans-Serif" font-size="10.00">EBPF::EBPFObject</text>
</a>
</g>
</g>
<!-- Node4&#45;&gt;Node3 -->
<g id="edge3" class="edge">
<title>Node4&#45;&gt;Node3</title>
<path fill="none" stroke="midnightblue" d="M56.99,-158.4C54.31,-149.36 51.22,-138.94 49.09,-131.75"/>
<polygon fill="midnightblue" stroke="midnightblue" points="53.66,-159.49 59.86,-168.08 60.37,-157.5 53.66,-159.49"/>
</g>
<!-- Node5 -->
<g id="node5" class="node">
<title>Node5</title>
<g id="a_node5"><a xlink:href="class_i_castable.html" target="_top" xlink:title=" ">
<polygon fill="white" stroke="black" points="71.5,-224.5 71.5,-243.5 133.5,-243.5 133.5,-224.5 71.5,-224.5"/>
<text text-anchor="middle" x="102.5" y="-231.5" font-family="Helvetica,sans-Serif" font-size="10.00">ICastable</text>
</a>
</g>
</g>
<!-- Node5&#45;&gt;Node4 -->
<g id="edge4" class="edge">
<title>Node5&#45;&gt;Node4</title>
<path fill="none" stroke="midnightblue" d="M89.8,-215.86C82.87,-206.5 74.59,-195.33 68.98,-187.75"/>
<polygon fill="midnightblue" stroke="midnightblue" points="87.13,-218.13 95.89,-224.08 92.75,-213.96 87.13,-218.13"/>
</g>
<!-- Node7 -->
<g id="node7" class="node">
<title>Node7</title>
<g id="a_node7"><a xlink:href="class_e_b_p_f_1_1_i_has_width.html" target="_top" xlink:title=" ">
<polygon fill="white" stroke="black" points="111,-112.5 111,-131.5 208,-131.5 208,-112.5 111,-112.5"/>
<text text-anchor="middle" x="159.5" y="-119.5" font-family="Helvetica,sans-Serif" font-size="10.00">EBPF::IHasWidth</text>
</a>
</g>
</g>
<!-- Node5&#45;&gt;Node7 -->
<g id="edge7" class="edge">
<title>Node5&#45;&gt;Node7</title>
<path fill="none" stroke="midnightblue" d="M111.66,-215.32C124.07,-191.37 145.74,-149.55 155.05,-131.59"/>
<polygon fill="midnightblue" stroke="midnightblue" points="108.47,-213.88 106.97,-224.37 114.68,-217.1 108.47,-213.88"/>
</g>
<!-- Node6 -->
<g id="node6" class="node">
<title>Node6</title>
<g id="a_node6"><a xlink:href="struct_r_t_t_i_1_1_base.html" target="_top" xlink:title=" ">
<polygon fill="white" stroke="black" points="68.5,-280.5 68.5,-299.5 136.5,-299.5 136.5,-280.5 68.5,-280.5"/>
<text text-anchor="middle" x="102.5" y="-287.5" font-family="Helvetica,sans-Serif" font-size="10.00">RTTI::Base</text>
</a>
</g>
</g>
<!-- Node6&#45;&gt;Node5 -->
<g id="edge5" class="edge">
<title>Node6&#45;&gt;Node5</title>
<path fill="none" stroke="midnightblue" d="M102.5,-269.8C102.5,-260.91 102.5,-250.78 102.5,-243.75"/>
<polygon fill="midnightblue" stroke="midnightblue" points="99,-270.08 102.5,-280.08 106,-270.08 99,-270.08"/>
</g>
<!-- Node7&#45;&gt;Node2 -->
<g id="edge6" class="edge">
<title>Node7&#45;&gt;Node2</title>
<path fill="none" stroke="midnightblue" d="M142.88,-105.25C132.77,-95.67 120.22,-83.79 111.82,-75.83"/>
<polygon fill="midnightblue" stroke="midnightblue" points="140.68,-107.99 150.34,-112.32 145.49,-102.91 140.68,-107.99"/>
</g>
</g>
</svg>
