<?xml version="1.0" encoding="UTF-8" standalone="no"?>
<!DOCTYPE svg PUBLIC "-//W3C//DTD SVG 1.1//EN"
 "http://www.w3.org/Graphics/SVG/1.1/DTD/svg11.dtd">
<!-- Generated by graphviz version 2.43.0 (0)
 -->
<!-- Title: P4::IHasDbPrint Pages: 1 -->
<svg width="506pt" height="1169pt"
 viewBox="0.00 0.00 506.00 1168.50" xmlns="http://www.w3.org/2000/svg" xmlns:xlink="http://www.w3.org/1999/xlink">
<g id="graph0" class="graph" transform="scale(1 1) rotate(0) translate(4 1164.5)">
<title>P4::IHasDbPrint</title>
<!-- Node1 -->
<g id="Node000001" class="node">
<title>Node1</title>
<g id="a_Node000001"><a xlink:title=" ">
<polygon fill="#999999" stroke="#666666" points="92,-589 0,-589 0,-570 92,-570 92,-589"/>
<text text-anchor="middle" x="46" y="-577" font-family="Helvetica,sans-Serif" font-size="10.00">P4::IHasDbPrint</text>
</a>
</g>
</g>
<!-- Node2 -->
<g id="Node000002" class="node">
<title>Node2</title>
<g id="a_Node000002"><a xlink:href="struct_p4_1_1_struct_type_replacement.html" target="_top" xlink:title=" ">
<polygon fill="white" stroke="#666666" points="292.5,-1160.5 142.5,-1160.5 142.5,-1130.5 292.5,-1130.5 292.5,-1160.5"/>
<text text-anchor="start" x="150.5" y="-1148.5" font-family="Helvetica,sans-Serif" font-size="10.00">P4::StructTypeReplacement</text>
<text text-anchor="middle" x="217.5" y="-1137.5" font-family="Helvetica,sans-Serif" font-size="10.00">&lt; IR::Type_Struct &gt;</text>
</a>
</g>
</g>
<!-- Node1&#45;&gt;Node2 -->
<g id="edge1_Node000001_Node000002" class="edge">
<title>Node1&#45;&gt;Node2</title>
<g id="a_edge1_Node000001_Node000002"><a xlink:title=" ">
<path fill="none" stroke="#63b8ff" d="M47.16,-599.42C48.3,-687.6 57.26,-1042 128,-1121.5 132.13,-1126.14 137.05,-1129.92 142.43,-1133"/>
<polygon fill="#63b8ff" stroke="#63b8ff" points="50.66,-599.36 47.06,-589.4 43.66,-599.44 50.66,-599.36"/>
</a>
</g>
</g>
<!-- Node3 -->
<g id="Node000003" class="node">
<title>Node3</title>
<g id="a_Node000003"><a xlink:href="class_p4_1_1_type_substitution.html" target="_top" xlink:title=" ">
<polygon fill="white" stroke="#bfbfbf" points="284.5,-1112.5 150.5,-1112.5 150.5,-1082.5 284.5,-1082.5 284.5,-1112.5"/>
<text text-anchor="start" x="158.5" y="-1100.5" font-family="Helvetica,sans-Serif" font-size="10.00">P4::TypeSubstitution</text>
<text text-anchor="middle" x="217.5" y="-1089.5" font-family="Helvetica,sans-Serif" font-size="10.00">&lt; const IR::ITypeVar * &gt;</text>
</a>
</g>
</g>
<!-- Node1&#45;&gt;Node3 -->
<g id="edge2_Node000001_Node000003" class="edge">
<title>Node1&#45;&gt;Node3</title>
<g id="a_edge2_Node000001_Node000003"><a xlink:title=" ">
<path fill="none" stroke="#63b8ff" d="M47.48,-599.47C49.91,-682.82 63.35,-1001.87 128,-1073.5 134.08,-1080.24 141.84,-1085.16 150.23,-1088.75"/>
<polygon fill="#63b8ff" stroke="#63b8ff" points="50.98,-599.23 47.21,-589.33 43.98,-599.42 50.98,-599.23"/>
</a>
</g>
</g>
<!-- Node5 -->
<g id="Node000005" class="node">
<title>Node5</title>
<g id="a_Node000005"><a xlink:href="class_p4_1_1_all_definitions.html" target="_top" xlink:title=" ">
<polygon fill="white" stroke="#bfbfbf" points="267.5,-1064 167.5,-1064 167.5,-1045 267.5,-1045 267.5,-1064"/>
<text text-anchor="middle" x="217.5" y="-1052" font-family="Helvetica,sans-Serif" font-size="10.00">P4::AllDefinitions</text>
</a>
</g>
</g>
<!-- Node1&#45;&gt;Node5 -->
<g id="edge4_Node000001_Node000005" class="edge">
<title>Node1&#45;&gt;Node5</title>
<g id="a_edge4_Node000001_Node000005"><a xlink:title=" ">
<path fill="none" stroke="#63b8ff" d="M47.64,-599.08C50.62,-678.15 65.81,-972.72 128,-1036.5 138.29,-1047.05 152.95,-1052.28 167.39,-1054.68"/>
<polygon fill="#63b8ff" stroke="#63b8ff" points="51.13,-598.9 47.28,-589.03 44.14,-599.15 51.13,-598.9"/>
</a>
</g>
</g>
<!-- Node6 -->
<g id="Node000006" class="node">
<title>Node6</title>
<g id="a_Node000006"><a xlink:href="struct_p4_1_1_call_info.html" target="_top" xlink:title="Describes information about a caller&#45;callee pair.">
<polygon fill="white" stroke="#666666" points="253.5,-1027 181.5,-1027 181.5,-1008 253.5,-1008 253.5,-1027"/>
<text text-anchor="middle" x="217.5" y="-1015" font-family="Helvetica,sans-Serif" font-size="10.00">P4::CallInfo</text>
</a>
</g>
</g>
<!-- Node1&#45;&gt;Node6 -->
<g id="edge5_Node000001_Node000006" class="edge">
<title>Node1&#45;&gt;Node6</title>
<g id="a_edge5_Node000001_Node000006"><a xlink:title=" ">
<path fill="none" stroke="#63b8ff" d="M48.01,-599.34C52.27,-674.52 71.16,-940.48 128,-998.5 141.75,-1012.53 163.17,-1017.39 181.49,-1018.69"/>
<polygon fill="#63b8ff" stroke="#63b8ff" points="51.51,-599.12 47.47,-589.33 44.52,-599.5 51.51,-599.12"/>
</a>
</g>
</g>
<!-- Node7 -->
<g id="Node000007" class="node">
<title>Node7</title>
<g id="a_Node000007"><a xlink:href="struct_p4_1_1_complex_values_1_1_component.html" target="_top" xlink:title=" ">
<polygon fill="white" stroke="#666666" points="275.5,-989.5 159.5,-989.5 159.5,-959.5 275.5,-959.5 275.5,-989.5"/>
<text text-anchor="start" x="167.5" y="-977.5" font-family="Helvetica,sans-Serif" font-size="10.00">P4::ComplexValues::</text>
<text text-anchor="middle" x="217.5" y="-966.5" font-family="Helvetica,sans-Serif" font-size="10.00">Component</text>
</a>
</g>
</g>
<!-- Node1&#45;&gt;Node7 -->
<g id="edge6_Node000001_Node000007" class="edge">
<title>Node1&#45;&gt;Node7</title>
<g id="a_edge6_Node000001_Node000007"><a xlink:title=" ">
<path fill="none" stroke="#63b8ff" d="M48.64,-599.17C54.79,-668.3 78.71,-898.69 128,-950.5 136.34,-959.27 147.53,-964.94 159.14,-968.59"/>
<polygon fill="#63b8ff" stroke="#63b8ff" points="52.13,-598.85 47.78,-589.19 45.15,-599.45 52.13,-598.85"/>
</a>
</g>
</g>
<!-- Node10 -->
<g id="Node000010" class="node">
<title>Node10</title>
<g id="a_Node000010"><a xlink:href="class_p4_1_1_compute_write_set.html" target="_top" xlink:title=" ">
<polygon fill="white" stroke="#666666" points="278,-941 157,-941 157,-922 278,-922 278,-941"/>
<text text-anchor="middle" x="217.5" y="-929" font-family="Helvetica,sans-Serif" font-size="10.00">P4::ComputeWriteSet</text>
</a>
</g>
</g>
<!-- Node1&#45;&gt;Node10 -->
<g id="edge9_Node000001_Node000010" class="edge">
<title>Node1&#45;&gt;Node10</title>
<g id="a_edge9_Node000001_Node000010"><a xlink:title=" ">
<path fill="none" stroke="#63b8ff" d="M49.05,-599.38C56.16,-664.4 81.89,-869.08 128,-913.5 135.9,-921.11 146.1,-925.91 156.75,-928.86"/>
<polygon fill="#63b8ff" stroke="#63b8ff" points="52.51,-598.82 47.97,-589.25 45.55,-599.56 52.51,-598.82"/>
</a>
</g>
</g>
<!-- Node11 -->
<g id="Node000011" class="node">
<title>Node11</title>
<g id="a_Node000011"><a xlink:href="class_p4_1_1_definitions.html" target="_top" xlink:title="List of definers for each base storage (at a specific program point).">
<polygon fill="white" stroke="#666666" points="261,-904 174,-904 174,-885 261,-885 261,-904"/>
<text text-anchor="middle" x="217.5" y="-892" font-family="Helvetica,sans-Serif" font-size="10.00">P4::Definitions</text>
</a>
</g>
</g>
<!-- Node1&#45;&gt;Node11 -->
<g id="edge10_Node000001_Node000011" class="edge">
<title>Node1&#45;&gt;Node11</title>
<g id="a_edge10_Node000001_Node000011"><a xlink:title=" ">
<path fill="none" stroke="#63b8ff" d="M49.65,-599.1C58.15,-658.98 86.59,-837.72 128,-876.5 140.25,-887.97 157.72,-892.99 173.9,-894.96"/>
<polygon fill="#63b8ff" stroke="#63b8ff" points="53.1,-598.5 48.26,-589.08 46.17,-599.47 53.1,-598.5"/>
</a>
</g>
</g>
<!-- Node12 -->
<g id="Node000012" class="node">
<title>Node12</title>
<g id="a_Node000012"><a xlink:href="struct_p4_1_1_i_r_1_1_i_d.html" target="_top" xlink:title=" ">
<polygon fill="white" stroke="#bfbfbf" points="248,-867 187,-867 187,-848 248,-848 248,-867"/>
<text text-anchor="middle" x="217.5" y="-855" font-family="Helvetica,sans-Serif" font-size="10.00">P4::IR::ID</text>
</a>
</g>
</g>
<!-- Node1&#45;&gt;Node12 -->
<g id="edge11_Node000001_Node000012" class="edge">
<title>Node1&#45;&gt;Node12</title>
<g id="a_edge11_Node000001_Node000012"><a xlink:title=" ">
<path fill="none" stroke="#63b8ff" d="M46.81,-599.22C47.48,-647.96 56.39,-774.8 128,-839.5 143.82,-853.79 167.81,-857.98 186.82,-858.77"/>
<polygon fill="#63b8ff" stroke="#63b8ff" points="50.31,-599.07 46.78,-589.08 43.31,-599.09 50.31,-599.07"/>
</a>
</g>
</g>
<!-- Node13 -->
<g id="Node000013" class="node">
<title>Node13</title>
<g id="a_Node000013"><a xlink:href="class_p4_1_1_i_r_1_1_i_node.html" target="_top" xlink:title=" ">
<polygon fill="white" stroke="#bfbfbf" points="257,-830 178,-830 178,-811 257,-811 257,-830"/>
<text text-anchor="middle" x="217.5" y="-818" font-family="Helvetica,sans-Serif" font-size="10.00">P4::IR::INode</text>
</a>
</g>
</g>
<!-- Node1&#45;&gt;Node13 -->
<g id="edge12_Node000001_Node000013" class="edge">
<title>Node1&#45;&gt;Node13</title>
<g id="a_edge12_Node000001_Node000013"><a xlink:title=" ">
<path fill="none" stroke="#63b8ff" d="M47.99,-599.37C51.32,-643.26 65.73,-748.81 128,-802.5 141.66,-814.27 160.9,-819.1 177.96,-820.85"/>
<polygon fill="#63b8ff" stroke="#63b8ff" points="51.49,-599.14 47.35,-589.39 44.5,-599.59 51.49,-599.14"/>
</a>
</g>
</g>
<!-- Node30 -->
<g id="Node000030" class="node">
<title>Node30</title>
<g id="a_Node000030"><a xlink:href="struct_p4_1_1_inline_summary.html" target="_top" xlink:title="Summarizes all inline operations to be performed.">
<polygon fill="white" stroke="#666666" points="272,-793 163,-793 163,-774 272,-774 272,-793"/>
<text text-anchor="middle" x="217.5" y="-781" font-family="Helvetica,sans-Serif" font-size="10.00">P4::InlineSummary</text>
</a>
</g>
</g>
<!-- Node1&#45;&gt;Node30 -->
<g id="edge15_Node000001_Node000030" class="edge">
<title>Node1&#45;&gt;Node30</title>
<g id="a_edge15_Node000001_Node000030"><a xlink:title=" ">
<path fill="none" stroke="#63b8ff" d="M49.61,-599.42C55.77,-637.92 74.9,-722.53 128,-765.5 137.87,-773.49 150.36,-778.22 162.81,-780.97"/>
<polygon fill="#63b8ff" stroke="#63b8ff" points="53.01,-598.44 48.09,-589.05 46.08,-599.45 53.01,-598.44"/>
</a>
</g>
</g>
<!-- Node31 -->
<g id="Node000031" class="node">
<title>Node31</title>
<g id="a_Node000031"><a xlink:href="struct_p4_1_1_location_path.html" target="_top" xlink:title=" ">
<polygon fill="white" stroke="#666666" points="266,-756 169,-756 169,-737 266,-737 266,-756"/>
<text text-anchor="middle" x="217.5" y="-744" font-family="Helvetica,sans-Serif" font-size="10.00">P4::LocationPath</text>
</a>
</g>
</g>
<!-- Node1&#45;&gt;Node31 -->
<g id="edge16_Node000001_Node000031" class="edge">
<title>Node1&#45;&gt;Node31</title>
<g id="a_edge16_Node000001_Node000031"><a xlink:title=" ">
<path fill="none" stroke="#63b8ff" d="M51.84,-599.03C60.93,-631.38 83.74,-695.77 128,-728.5 139.72,-737.17 154.61,-741.92 168.81,-744.45"/>
<polygon fill="#63b8ff" stroke="#63b8ff" points="55.13,-597.79 49.19,-589.02 48.37,-599.59 55.13,-597.79"/>
</a>
</g>
</g>
<!-- Node32 -->
<g id="Node000032" class="node">
<title>Node32</title>
<g id="a_Node000032"><a xlink:href="class_p4_1_1_location_set.html" target="_top" xlink:title=" ">
<polygon fill="white" stroke="#666666" points="263.5,-719 171.5,-719 171.5,-700 263.5,-700 263.5,-719"/>
<text text-anchor="middle" x="217.5" y="-707" font-family="Helvetica,sans-Serif" font-size="10.00">P4::LocationSet</text>
</a>
</g>
</g>
<!-- Node1&#45;&gt;Node32 -->
<g id="edge17_Node000001_Node000032" class="edge">
<title>Node1&#45;&gt;Node32</title>
<g id="a_edge17_Node000001_Node000032"><a xlink:title=" ">
<path fill="none" stroke="#63b8ff" d="M55.25,-598.49C67.34,-623.93 92.37,-668.53 128,-691.5 140.78,-699.74 156.58,-704.32 171.28,-706.83"/>
<polygon fill="#63b8ff" stroke="#63b8ff" points="58.33,-596.81 51,-589.17 51.97,-599.72 58.33,-596.81"/>
</a>
</g>
</g>
<!-- Node33 -->
<g id="Node000033" class="node">
<title>Node33</title>
<g id="a_Node000033"><a xlink:href="class_p4_1_1_parameter_substitution.html" target="_top" xlink:title=" ">
<polygon fill="white" stroke="#bfbfbf" points="289,-682 146,-682 146,-663 289,-663 289,-682"/>
<text text-anchor="middle" x="217.5" y="-670" font-family="Helvetica,sans-Serif" font-size="10.00">P4::ParameterSubstitution</text>
</a>
</g>
</g>
<!-- Node1&#45;&gt;Node33 -->
<g id="edge18_Node000001_Node000033" class="edge">
<title>Node1&#45;&gt;Node33</title>
<g id="a_edge18_Node000001_Node000033"><a xlink:title=" ">
<path fill="none" stroke="#63b8ff" d="M60.69,-596.82C75.41,-614.2 100.45,-640.37 128,-654.5 134.7,-657.93 141.99,-660.71 149.43,-662.96"/>
<polygon fill="#63b8ff" stroke="#63b8ff" points="63.38,-594.58 54.32,-589.08 57.97,-599.03 63.38,-594.58"/>
</a>
</g>
</g>
<!-- Node34 -->
<g id="Node000034" class="node">
<title>Node34</title>
<g id="a_Node000034"><a xlink:href="class_p4_1_1_program_map.html" target="_top" xlink:title=" ">
<polygon fill="white" stroke="#bfbfbf" points="266,-645 169,-645 169,-626 266,-626 266,-645"/>
<text text-anchor="middle" x="217.5" y="-633" font-family="Helvetica,sans-Serif" font-size="10.00">P4::ProgramMap</text>
</a>
</g>
</g>
<!-- Node1&#45;&gt;Node34 -->
<g id="edge19_Node000001_Node000034" class="edge">
<title>Node1&#45;&gt;Node34</title>
<g id="a_edge19_Node000001_Node000034"><a xlink:title=" ">
<path fill="none" stroke="#63b8ff" d="M73.21,-593.75C88.76,-601.7 109.07,-611.23 128,-617.5 140.95,-621.79 155.32,-625.24 168.65,-627.93"/>
<polygon fill="#63b8ff" stroke="#63b8ff" points="74.69,-590.57 64.2,-589.04 71.45,-596.77 74.69,-590.57"/>
</a>
</g>
</g>
<!-- Node37 -->
<g id="Node000037" class="node">
<title>Node37</title>
<g id="a_Node000037"><a xlink:href="class_p4_1_1_program_point.html" target="_top" xlink:title="Indicates a statement in the program.">
<polygon fill="white" stroke="#666666" points="268,-608 167,-608 167,-589 268,-589 268,-608"/>
<text text-anchor="middle" x="217.5" y="-596" font-family="Helvetica,sans-Serif" font-size="10.00">P4::ProgramPoint</text>
</a>
</g>
</g>
<!-- Node1&#45;&gt;Node37 -->
<g id="edge22_Node000001_Node000037" class="edge">
<title>Node1&#45;&gt;Node37</title>
<g id="a_edge22_Node000001_Node000037"><a xlink:title=" ">
<path fill="none" stroke="#63b8ff" d="M102.37,-585.71C123.13,-588.03 146.57,-590.66 166.78,-592.93"/>
<polygon fill="#63b8ff" stroke="#63b8ff" points="102.75,-582.23 92.42,-584.59 101.97,-589.18 102.75,-582.23"/>
</a>
</g>
</g>
<!-- Node38 -->
<g id="Node000038" class="node">
<title>Node38</title>
<g id="a_Node000038"><a xlink:href="class_p4_1_1_program_points.html" target="_top" xlink:title=" ">
<polygon fill="white" stroke="#bfbfbf" points="270.5,-571 164.5,-571 164.5,-552 270.5,-552 270.5,-571"/>
<text text-anchor="middle" x="217.5" y="-559" font-family="Helvetica,sans-Serif" font-size="10.00">P4::ProgramPoints</text>
</a>
</g>
</g>
<!-- Node1&#45;&gt;Node38 -->
<g id="edge23_Node000001_Node000038" class="edge">
<title>Node1&#45;&gt;Node38</title>
<g id="a_edge23_Node000001_Node000038"><a xlink:title=" ">
<path fill="none" stroke="#63b8ff" d="M102.57,-573.6C122.45,-571.49 144.77,-569.12 164.35,-567.04"/>
<polygon fill="#63b8ff" stroke="#63b8ff" points="102,-570.14 92.42,-574.68 102.74,-577.1 102,-570.14"/>
</a>
</g>
</g>
<!-- Node39 -->
<g id="Node000039" class="node">
<title>Node39</title>
<g id="a_Node000039"><a xlink:href="class_p4_1_1_set_of_locations.html" target="_top" xlink:title=" ">
<polygon fill="white" stroke="#666666" points="271.5,-534 163.5,-534 163.5,-515 271.5,-515 271.5,-534"/>
<text text-anchor="middle" x="217.5" y="-522" font-family="Helvetica,sans-Serif" font-size="10.00">P4::SetOfLocations</text>
</a>
</g>
</g>
<!-- Node1&#45;&gt;Node39 -->
<g id="edge24_Node000001_Node000039" class="edge">
<title>Node1&#45;&gt;Node39</title>
<g id="a_edge24_Node000001_Node000039"><a xlink:title=" ">
<path fill="none" stroke="#63b8ff" d="M74.98,-565.35C90.33,-558.02 109.88,-549.4 128,-543.5 139.21,-539.85 151.44,-536.71 163.14,-534.09"/>
<polygon fill="#63b8ff" stroke="#63b8ff" points="73.01,-562.41 65.55,-569.93 76.07,-568.7 73.01,-562.41"/>
</a>
</g>
</g>
<!-- Node40 -->
<g id="Node000040" class="node">
<title>Node40</title>
<g id="a_Node000040"><a xlink:href="class_p4_1_1_simple_call_info.html" target="_top" xlink:title=" ">
<polygon fill="white" stroke="#bfbfbf" points="284,-497 151,-497 151,-456 284,-456 284,-497"/>
<text text-anchor="start" x="159" y="-485" font-family="Helvetica,sans-Serif" font-size="10.00">P4::SimpleCallInfo</text>
<text text-anchor="start" x="159" y="-474" font-family="Helvetica,sans-Serif" font-size="10.00">&lt; CallableT, CallNodeT,</text>
<text text-anchor="middle" x="217.5" y="-463" font-family="Helvetica,sans-Serif" font-size="10.00"> CallExpressionT &gt;</text>
</a>
</g>
</g>
<!-- Node1&#45;&gt;Node40 -->
<g id="edge25_Node000001_Node000040" class="edge">
<title>Node1&#45;&gt;Node40</title>
<g id="a_edge25_Node000001_Node000040"><a xlink:title=" ">
<path fill="none" stroke="#63b8ff" d="M62.56,-561.84C77.8,-545.48 102.41,-521.5 128,-506.5 135.14,-502.32 142.94,-498.61 150.87,-495.35"/>
<polygon fill="#63b8ff" stroke="#63b8ff" points="59.63,-559.85 55.49,-569.6 64.81,-564.57 59.63,-559.85"/>
</a>
</g>
</g>
<!-- Node41 -->
<g id="Node000041" class="node">
<title>Node41</title>
<g id="a_Node000041"><a xlink:href="class_p4_1_1_simple_inline_work_list.html" target="_top" xlink:title=" ">
<polygon fill="white" stroke="#bfbfbf" points="286,-437.5 149,-437.5 149,-407.5 286,-407.5 286,-437.5"/>
<text text-anchor="start" x="157" y="-425.5" font-family="Helvetica,sans-Serif" font-size="10.00">P4::SimpleInlineWorkList</text>
<text text-anchor="middle" x="217.5" y="-414.5" font-family="Helvetica,sans-Serif" font-size="10.00">&lt; CallInfo &gt;</text>
</a>
</g>
</g>
<!-- Node1&#45;&gt;Node41 -->
<g id="edge26_Node000001_Node000041" class="edge">
<title>Node1&#45;&gt;Node41</title>
<g id="a_edge26_Node000001_Node000041"><a xlink:title=" ">
<path fill="none" stroke="#63b8ff" d="M53.65,-560.08C64.56,-531.16 89.03,-477 128,-447.5 134.24,-442.78 141.33,-438.95 148.72,-435.84"/>
<polygon fill="#63b8ff" stroke="#63b8ff" points="50.24,-559.24 50.13,-569.83 56.82,-561.61 50.24,-559.24"/>
</a>
</g>
</g>
<!-- Node42 -->
<g id="Node000042" class="node">
<title>Node42</title>
<g id="a_Node000042"><a xlink:href="class_p4_1_1_storage_location.html" target="_top" xlink:title="Abstraction for something that is has a left value (variable, parameter)">
<polygon fill="white" stroke="#666666" points="274,-389 161,-389 161,-370 274,-370 274,-389"/>
<text text-anchor="middle" x="217.5" y="-377" font-family="Helvetica,sans-Serif" font-size="10.00">P4::StorageLocation</text>
</a>
</g>
</g>
<!-- Node1&#45;&gt;Node42 -->
<g id="edge27_Node000001_Node000042" class="edge">
<title>Node1&#45;&gt;Node42</title>
<g id="a_edge27_Node000001_Node000042"><a xlink:title=" ">
<path fill="none" stroke="#63b8ff" d="M49.92,-559.63C56.54,-521.98 76.36,-440.32 128,-398.5 137.4,-390.88 149.16,-386.13 161,-383.21"/>
<polygon fill="#63b8ff" stroke="#63b8ff" points="46.41,-559.37 48.26,-569.8 53.32,-560.49 46.41,-559.37"/>
</a>
</g>
</g>
<!-- Node49 -->
<g id="Node000049" class="node">
<title>Node49</title>
<g id="a_Node000049"><a xlink:href="class_p4_1_1_storage_map.html" target="_top" xlink:title="Maps a declaration to its associated storage.">
<polygon fill="white" stroke="#666666" points="264,-352 171,-352 171,-333 264,-333 264,-352"/>
<text text-anchor="middle" x="217.5" y="-340" font-family="Helvetica,sans-Serif" font-size="10.00">P4::StorageMap</text>
</a>
</g>
</g>
<!-- Node1&#45;&gt;Node49 -->
<g id="edge31_Node000001_Node000049" class="edge">
<title>Node1&#45;&gt;Node49</title>
<g id="a_edge31_Node000001_Node000049"><a xlink:title=" ">
<path fill="none" stroke="#63b8ff" d="M48.21,-559.84C51.97,-516.85 67.18,-414.12 128,-361.5 139.77,-351.32 155.67,-346.17 170.74,-343.69"/>
<polygon fill="#63b8ff" stroke="#63b8ff" points="44.72,-559.62 47.45,-569.85 51.7,-560.15 44.72,-559.62"/>
</a>
</g>
</g>
<!-- Node50 -->
<g id="Node000050" class="node">
<title>Node50</title>
<g id="a_Node000050"><a xlink:href="struct_p4_1_1_struct_type_replacement.html" target="_top" xlink:title=" ">
<polygon fill="white" stroke="#666666" points="307,-315 128,-315 128,-296 307,-296 307,-315"/>
<text text-anchor="middle" x="217.5" y="-303" font-family="Helvetica,sans-Serif" font-size="10.00">P4::StructTypeReplacement&lt; T &gt;</text>
</a>
</g>
</g>
<!-- Node1&#45;&gt;Node50 -->
<g id="edge32_Node000001_Node000050" class="edge">
<title>Node1&#45;&gt;Node50</title>
<g id="a_edge32_Node000001_Node000050"><a xlink:title=" ">
<path fill="none" stroke="#63b8ff" d="M46.99,-559.87C48.1,-511.91 57.97,-388.11 128,-324.5 132.19,-320.7 136.95,-317.59 142.04,-315.05"/>
<polygon fill="#63b8ff" stroke="#63b8ff" points="43.49,-559.82 46.87,-569.87 50.49,-559.91 43.49,-559.82"/>
</a>
</g>
</g>
<!-- Node51 -->
<g id="Node000051" class="node">
<title>Node51</title>
<g id="a_Node000051"><a xlink:href="class_p4_1_1_symbolic_value.html" target="_top" xlink:title=" ">
<polygon fill="white" stroke="#bfbfbf" points="271,-278 164,-278 164,-259 271,-259 271,-278"/>
<text text-anchor="middle" x="217.5" y="-266" font-family="Helvetica,sans-Serif" font-size="10.00">P4::SymbolicValue</text>
</a>
</g>
</g>
<!-- Node1&#45;&gt;Node51 -->
<g id="edge33_Node000001_Node000051" class="edge">
<title>Node1&#45;&gt;Node51</title>
<g id="a_edge33_Node000001_Node000051"><a xlink:title=" ">
<path fill="none" stroke="#63b8ff" d="M49.78,-559.85C58.54,-500.65 87.45,-325.72 128,-287.5 137.72,-278.34 150.74,-273.17 163.8,-270.34"/>
<polygon fill="#63b8ff" stroke="#63b8ff" points="46.31,-559.39 48.34,-569.79 53.24,-560.39 46.31,-559.39"/>
</a>
</g>
</g>
<!-- Node69 -->
<g id="Node000069" class="node">
<title>Node69</title>
<g id="a_Node000069"><a xlink:href="class_p4_1_1_type_constraint.html" target="_top" xlink:title=" ">
<polygon fill="white" stroke="#bfbfbf" points="271,-241 164,-241 164,-222 271,-222 271,-241"/>
<text text-anchor="middle" x="217.5" y="-229" font-family="Helvetica,sans-Serif" font-size="10.00">P4::TypeConstraint</text>
</a>
</g>
</g>
<!-- Node1&#45;&gt;Node69 -->
<g id="edge41_Node000001_Node000069" class="edge">
<title>Node1&#45;&gt;Node69</title>
<g id="a_edge41_Node000001_Node000069"><a xlink:title=" ">
<path fill="none" stroke="#63b8ff" d="M49.11,-559.93C56.43,-495.94 82.7,-294.46 128,-250.5 137.59,-241.2 150.56,-235.98 163.62,-233.15"/>
<polygon fill="#63b8ff" stroke="#63b8ff" points="45.63,-559.58 48,-569.91 52.59,-560.36 45.63,-559.58"/>
</a>
</g>
</g>
<!-- Node73 -->
<g id="Node000073" class="node">
<title>Node73</title>
<g id="a_Node000073"><a xlink:href="class_p4_1_1_type_constraints.html" target="_top" xlink:title=" ">
<polygon fill="white" stroke="#bfbfbf" points="274,-204 161,-204 161,-185 274,-185 274,-204"/>
<text text-anchor="middle" x="217.5" y="-192" font-family="Helvetica,sans-Serif" font-size="10.00">P4::TypeConstraints</text>
</a>
</g>
</g>
<!-- Node1&#45;&gt;Node73 -->
<g id="edge43_Node000001_Node000073" class="edge">
<title>Node1&#45;&gt;Node73</title>
<g id="a_edge43_Node000001_Node000073"><a xlink:title=" ">
<path fill="none" stroke="#63b8ff" d="M48.62,-559.57C54.65,-490.54 78.03,-263.15 128,-213.5 136.81,-204.75 148.61,-199.59 160.71,-196.64"/>
<polygon fill="#63b8ff" stroke="#63b8ff" points="45.11,-559.64 47.75,-569.9 52.08,-560.23 45.11,-559.64"/>
</a>
</g>
</g>
<!-- Node74 -->
<g id="Node000074" class="node">
<title>Node74</title>
<g id="a_Node000074"><a xlink:href="struct_p4_1_1_type_specialization.html" target="_top" xlink:title=" ">
<polygon fill="white" stroke="#bfbfbf" points="280,-167 155,-167 155,-148 280,-148 280,-167"/>
<text text-anchor="middle" x="217.5" y="-155" font-family="Helvetica,sans-Serif" font-size="10.00">P4::TypeSpecialization</text>
</a>
</g>
</g>
<!-- Node1&#45;&gt;Node74 -->
<g id="edge44_Node000001_Node000074" class="edge">
<title>Node1&#45;&gt;Node74</title>
<g id="a_edge44_Node000001_Node000074"><a xlink:title=" ">
<path fill="none" stroke="#63b8ff" d="M48.19,-559.48C52.98,-485.92 73.28,-231.95 128,-176.5 135.29,-169.12 144.7,-164.28 154.65,-161.16"/>
<polygon fill="#63b8ff" stroke="#63b8ff" points="44.68,-559.48 47.55,-569.68 51.67,-559.92 44.68,-559.48"/>
</a>
</g>
</g>
<!-- Node75 -->
<g id="Node000075" class="node">
<title>Node75</title>
<g id="a_Node000075"><a xlink:href="struct_p4_1_1_type_specialization_map.html" target="_top" xlink:title=" ">
<polygon fill="white" stroke="#bfbfbf" points="290.5,-130 144.5,-130 144.5,-111 290.5,-111 290.5,-130"/>
<text text-anchor="middle" x="217.5" y="-118" font-family="Helvetica,sans-Serif" font-size="10.00">P4::TypeSpecializationMap</text>
</a>
</g>
</g>
<!-- Node1&#45;&gt;Node75 -->
<g id="edge45_Node000001_Node000075" class="edge">
<title>Node1&#45;&gt;Node75</title>
<g id="a_edge45_Node000001_Node000075"><a xlink:title=" ">
<path fill="none" stroke="#63b8ff" d="M47.81,-559.69C51.41,-482.19 68.43,-200.85 128,-139.5 132.71,-134.65 138.33,-130.9 144.43,-128"/>
<polygon fill="#63b8ff" stroke="#63b8ff" points="44.31,-559.81 47.36,-569.95 51.3,-560.12 44.31,-559.81"/>
</a>
</g>
</g>
<!-- Node76 -->
<g id="Node000076" class="node">
<title>Node76</title>
<g id="a_Node000076"><a xlink:href="class_p4_1_1_type_substitution.html" target="_top" xlink:title=" ">
<polygon fill="white" stroke="#bfbfbf" points="289.5,-93 145.5,-93 145.5,-74 289.5,-74 289.5,-93"/>
<text text-anchor="middle" x="217.5" y="-81" font-family="Helvetica,sans-Serif" font-size="10.00">P4::TypeSubstitution&lt; T &gt;</text>
</a>
</g>
</g>
<!-- Node1&#45;&gt;Node76 -->
<g id="edge46_Node000001_Node000076" class="edge">
<title>Node1&#45;&gt;Node76</title>
<g id="a_edge46_Node000001_Node000076"><a xlink:title=" ">
<path fill="none" stroke="#63b8ff" d="M47.48,-559.56C49.88,-477.68 63.15,-168.52 128,-101.5 132.91,-96.43 138.82,-92.59 145.24,-89.69"/>
<polygon fill="#63b8ff" stroke="#63b8ff" points="43.97,-559.84 47.2,-569.93 50.97,-560.03 43.97,-559.84"/>
</a>
</g>
</g>
<!-- Node77 -->
<g id="Node000077" class="node">
<title>Node77</title>
<g id="a_Node000077"><a xlink:href="class_p4_1_1_util_1_1_comment.html" target="_top" xlink:title=" ">
<polygon fill="white" stroke="#bfbfbf" points="270.5,-56 164.5,-56 164.5,-37 270.5,-37 270.5,-56"/>
<text text-anchor="middle" x="217.5" y="-44" font-family="Helvetica,sans-Serif" font-size="10.00">P4::Util::Comment</text>
</a>
</g>
</g>
<!-- Node1&#45;&gt;Node77 -->
<g id="edge47_Node000001_Node000077" class="edge">
<title>Node1&#45;&gt;Node77</title>
<g id="a_edge47_Node000001_Node000077"><a xlink:title=" ">
<path fill="none" stroke="#8b1a1a" d="M47.22,-559.39C48.58,-473.37 58.33,-137.36 128,-64.5 137.43,-54.64 150.67,-49.4 164.04,-46.79"/>
<polygon fill="#8b1a1a" stroke="#8b1a1a" points="43.72,-559.57 47.08,-569.62 50.71,-559.67 43.72,-559.57"/>
</a>
</g>
</g>
<!-- Node78 -->
<g id="Node000078" class="node">
<title>Node78</title>
<g id="a_Node000078"><a xlink:href="class_p4_1_1_value_map.html" target="_top" xlink:title=" ">
<polygon fill="white" stroke="#bfbfbf" points="259,-19 176,-19 176,0 259,0 259,-19"/>
<text text-anchor="middle" x="217.5" y="-7" font-family="Helvetica,sans-Serif" font-size="10.00">P4::ValueMap</text>
</a>
</g>
</g>
<!-- Node1&#45;&gt;Node78 -->
<g id="edge48_Node000001_Node000078" class="edge">
<title>Node1&#45;&gt;Node78</title>
<g id="a_edge48_Node000001_Node000078"><a xlink:title=" ">
<path fill="none" stroke="#63b8ff" d="M46.98,-559.68C47.33,-470.39 53.37,-106.35 128,-27.5 140.18,-14.63 158.85,-9.62 175.91,-8.03"/>
<polygon fill="#63b8ff" stroke="#63b8ff" points="43.48,-559.79 46.97,-569.79 50.48,-559.8 43.48,-559.79"/>
</a>
</g>
</g>
<!-- Node4 -->
<g id="Node000004" class="node">
<title>Node4</title>
<g id="a_Node000004"><a xlink:href="class_p4_1_1_type_variable_substitution.html" target="_top" xlink:title=" ">
<polygon fill="white" stroke="#bfbfbf" points="498,-1107 343,-1107 343,-1088 498,-1088 498,-1107"/>
<text text-anchor="middle" x="420.5" y="-1095" font-family="Helvetica,sans-Serif" font-size="10.00">P4::TypeVariableSubstitution</text>
</a>
</g>
</g>
<!-- Node3&#45;&gt;Node4 -->
<g id="edge3_Node000003_Node000004" class="edge">
<title>Node3&#45;&gt;Node4</title>
<g id="a_edge3_Node000003_Node000004"><a xlink:title=" ">
<path fill="none" stroke="#63b8ff" d="M294.8,-1097.5C310.55,-1097.5 327.14,-1097.5 342.9,-1097.5"/>
<polygon fill="#63b8ff" stroke="#63b8ff" points="294.59,-1094 284.59,-1097.5 294.59,-1101 294.59,-1094"/>
</a>
</g>
</g>
<!-- Node8 -->
<g id="Node000008" class="node">
<title>Node8</title>
<g id="a_Node000008"><a xlink:href="struct_p4_1_1_complex_values_1_1_fields_map.html" target="_top" xlink:title=" ">
<polygon fill="white" stroke="#bfbfbf" points="478.5,-1013.5 362.5,-1013.5 362.5,-983.5 478.5,-983.5 478.5,-1013.5"/>
<text text-anchor="start" x="370.5" y="-1001.5" font-family="Helvetica,sans-Serif" font-size="10.00">P4::ComplexValues::</text>
<text text-anchor="middle" x="420.5" y="-990.5" font-family="Helvetica,sans-Serif" font-size="10.00">FieldsMap</text>
</a>
</g>
</g>
<!-- Node7&#45;&gt;Node8 -->
<g id="edge7_Node000007_Node000008" class="edge">
<title>Node7&#45;&gt;Node8</title>
<g id="a_edge7_Node000007_Node000008"><a xlink:title=" ">
<path fill="none" stroke="#63b8ff" d="M285.64,-982.52C310.49,-985.48 338.41,-988.82 362.3,-991.67"/>
<polygon fill="#63b8ff" stroke="#63b8ff" points="285.91,-979.02 275.56,-981.31 285.08,-985.97 285.91,-979.02"/>
</a>
</g>
</g>
<!-- Node9 -->
<g id="Node000009" class="node">
<title>Node9</title>
<g id="a_Node000009"><a xlink:href="struct_p4_1_1_complex_values_1_1_final_name.html" target="_top" xlink:title=" ">
<polygon fill="white" stroke="#bfbfbf" points="478.5,-965.5 362.5,-965.5 362.5,-935.5 478.5,-935.5 478.5,-965.5"/>
<text text-anchor="start" x="370.5" y="-953.5" font-family="Helvetica,sans-Serif" font-size="10.00">P4::ComplexValues::</text>
<text text-anchor="middle" x="420.5" y="-942.5" font-family="Helvetica,sans-Serif" font-size="10.00">FinalName</text>
</a>
</g>
</g>
<!-- Node7&#45;&gt;Node9 -->
<g id="edge8_Node000007_Node000009" class="edge">
<title>Node7&#45;&gt;Node9</title>
<g id="a_edge8_Node000007_Node000009"><a xlink:title=" ">
<path fill="none" stroke="#63b8ff" d="M285.64,-966.48C310.49,-963.52 338.41,-960.18 362.3,-957.33"/>
<polygon fill="#63b8ff" stroke="#63b8ff" points="285.08,-963.03 275.56,-967.69 285.91,-969.98 285.08,-963.03"/>
</a>
</g>
</g>
<!-- Node14 -->
<g id="Node000014" class="node">
<title>Node14</title>
<g id="a_Node000014"><a xlink:href="class_p4_1_1_i_r_1_1_i_declaration.html" target="_top" xlink:title="The Declaration interface, representing objects with names.">
<polygon fill="white" stroke="#666666" points="475.5,-848 365.5,-848 365.5,-829 475.5,-829 475.5,-848"/>
<text text-anchor="middle" x="420.5" y="-836" font-family="Helvetica,sans-Serif" font-size="10.00">P4::IR::IDeclaration</text>
</a>
</g>
</g>
<!-- Node13&#45;&gt;Node14 -->
<g id="edge13_Node000013_Node000014" class="edge">
<title>Node13&#45;&gt;Node14</title>
<g id="a_edge13_Node000013_Node000014"><a xlink:title=" ">
<path fill="none" stroke="#63b8ff" d="M267.36,-824.88C296.96,-827.53 334.77,-830.91 365.29,-833.65"/>
<polygon fill="#63b8ff" stroke="#63b8ff" points="267.53,-821.38 257.25,-823.97 266.9,-828.35 267.53,-821.38"/>
</a>
</g>
</g>
<!-- Node15 -->
<g id="Node000015" class="node">
<title>Node15</title>
<g id="a_Node000015"><a xlink:href="class_p4_1_1_i_r_1_1_node.html" target="_top" xlink:title=" ">
<polygon fill="white" stroke="orangered" points="458.5,-811 382.5,-811 382.5,-792 458.5,-792 458.5,-811"/>
<text text-anchor="middle" x="420.5" y="-799" font-family="Helvetica,sans-Serif" font-size="10.00">P4::IR::Node</text>
</a>
</g>
</g>
<!-- Node13&#45;&gt;Node15 -->
<g id="edge14_Node000013_Node000015" class="edge">
<title>Node13&#45;&gt;Node15</title>
<g id="a_edge14_Node000013_Node000015"><a xlink:title=" ">
<path fill="none" stroke="#63b8ff" d="M267.36,-815.88C302.75,-812.54 349.85,-808.08 382.22,-805.02"/>
<polygon fill="#63b8ff" stroke="#63b8ff" points="266.88,-812.41 257.25,-816.84 267.54,-819.38 266.88,-812.41"/>
</a>
</g>
</g>
<!-- Node35 -->
<g id="Node000035" class="node">
<title>Node35</title>
<g id="a_Node000035"><a xlink:href="class_p4_1_1_reference_map.html" target="_top" xlink:title="Class used to encode maps from paths to declarations.">
<polygon fill="white" stroke="#666666" points="473,-664 368,-664 368,-645 473,-645 473,-664"/>
<text text-anchor="middle" x="420.5" y="-652" font-family="Helvetica,sans-Serif" font-size="10.00">P4::ReferenceMap</text>
</a>
</g>
</g>
<!-- Node34&#45;&gt;Node35 -->
<g id="edge20_Node000034_Node000035" class="edge">
<title>Node34&#45;&gt;Node35</title>
<g id="a_edge20_Node000034_Node000035"><a xlink:title=" ">
<path fill="none" stroke="#63b8ff" d="M276.12,-640.95C305.09,-643.68 339.91,-646.98 367.98,-649.63"/>
<polygon fill="#63b8ff" stroke="#63b8ff" points="276.42,-637.46 266.13,-640 275.76,-644.43 276.42,-637.46"/>
</a>
</g>
</g>
<!-- Node36 -->
<g id="Node000036" class="node">
<title>Node36</title>
<g id="a_Node000036"><a xlink:href="class_p4_1_1_type_map.html" target="_top" xlink:title=" ">
<polygon fill="white" stroke="#666666" points="459.5,-627 381.5,-627 381.5,-608 459.5,-608 459.5,-627"/>
<text text-anchor="middle" x="420.5" y="-615" font-family="Helvetica,sans-Serif" font-size="10.00">P4::TypeMap</text>
</a>
</g>
</g>
<!-- Node34&#45;&gt;Node36 -->
<g id="edge21_Node000034_Node000036" class="edge">
<title>Node34&#45;&gt;Node36</title>
<g id="a_edge21_Node000034_Node000036"><a xlink:title=" ">
<path fill="none" stroke="#63b8ff" d="M276.32,-630.32C310.04,-627.3 351.63,-623.58 381.28,-620.92"/>
<polygon fill="#63b8ff" stroke="#63b8ff" points="275.78,-626.86 266.13,-631.23 276.41,-633.83 275.78,-626.86"/>
</a>
</g>
</g>
<!-- Node43 -->
<g id="Node000043" class="node">
<title>Node43</title>
<g id="a_Node000043"><a xlink:href="class_p4_1_1_base_location.html" target="_top" xlink:title=" ">
<polygon fill="white" stroke="#666666" points="470.5,-463 370.5,-463 370.5,-444 470.5,-444 470.5,-463"/>
<text text-anchor="middle" x="420.5" y="-451" font-family="Helvetica,sans-Serif" font-size="10.00">P4::BaseLocation</text>
</a>
</g>
</g>
<!-- Node42&#45;&gt;Node43 -->
<g id="edge28_Node000042_Node000043" class="edge">
<title>Node42&#45;&gt;Node43</title>
<g id="a_edge28_Node000042_Node000043"><a xlink:title=" ">
<path fill="none" stroke="#63b8ff" d="M283.95,-388.95C291.98,-391.42 299.86,-394.55 307,-398.5 327.08,-409.61 323.03,-424.2 343,-435.5 351.31,-440.2 360.8,-443.68 370.19,-446.25"/>
<polygon fill="#63b8ff" stroke="#63b8ff" points="284.7,-385.52 274.13,-386.23 282.84,-392.27 284.7,-385.52"/>
</a>
</g>
</g>
<!-- Node44 -->
<g id="Node000044" class="node">
<title>Node44</title>
<g id="a_Node000044"><a xlink:href="class_p4_1_1_indexed_location.html" target="_top" xlink:title="Interface for locations that support an index operation.">
<polygon fill="#fff0f0" stroke="red" points="477.5,-426 363.5,-426 363.5,-407 477.5,-407 477.5,-426"/>
<text text-anchor="middle" x="420.5" y="-414" font-family="Helvetica,sans-Serif" font-size="10.00">P4::IndexedLocation</text>
</a>
</g>
</g>
<!-- Node42&#45;&gt;Node44 -->
<g id="edge29_Node000042_Node000044" class="edge">
<title>Node42&#45;&gt;Node44</title>
<g id="a_edge29_Node000042_Node000044"><a xlink:title=" ">
<path fill="none" stroke="#63b8ff" d="M280.32,-390.88C308.27,-396.02 340.91,-402.03 367.56,-406.94"/>
<polygon fill="#63b8ff" stroke="#63b8ff" points="280.73,-387.4 270.26,-389.03 279.46,-394.28 280.73,-387.4"/>
</a>
</g>
</g>
<!-- Node47 -->
<g id="Node000047" class="node">
<title>Node47</title>
<g id="a_Node000047"><a xlink:href="class_p4_1_1_with_fields_location.html" target="_top" xlink:title="Base class for location sets that contain fields.">
<polygon fill="#fff0f0" stroke="red" points="484,-389 357,-389 357,-370 484,-370 484,-389"/>
<text text-anchor="middle" x="420.5" y="-377" font-family="Helvetica,sans-Serif" font-size="10.00">P4::WithFieldsLocation</text>
</a>
</g>
</g>
<!-- Node42&#45;&gt;Node47 -->
<g id="edge30_Node000042_Node000047" class="edge">
<title>Node42&#45;&gt;Node47</title>
<g id="a_edge30_Node000042_Node000047"><a xlink:title=" ">
<path fill="none" stroke="#63b8ff" d="M284.38,-379.5C307.71,-379.5 333.89,-379.5 356.94,-379.5"/>
<polygon fill="#63b8ff" stroke="#63b8ff" points="284.22,-376 274.22,-379.5 284.22,-383 284.22,-376"/>
</a>
</g>
</g>
<!-- Node52 -->
<g id="Node000052" class="node">
<title>Node52</title>
<g id="a_Node000052"><a xlink:href="class_p4_1_1_scalar_value.html" target="_top" xlink:title=" ">
<polygon fill="white" stroke="orangered" points="466.5,-352 374.5,-352 374.5,-333 466.5,-333 466.5,-352"/>
<text text-anchor="middle" x="420.5" y="-340" font-family="Helvetica,sans-Serif" font-size="10.00">P4::ScalarValue</text>
</a>
</g>
</g>
<!-- Node51&#45;&gt;Node52 -->
<g id="edge34_Node000051_Node000052" class="edge">
<title>Node51&#45;&gt;Node52</title>
<g id="a_edge34_Node000051_Node000052"><a xlink:title=" ">
<path fill="none" stroke="#63b8ff" d="M281.11,-277.1C290.12,-279.7 299.02,-283.09 307,-287.5 327.08,-298.61 323.03,-313.2 343,-324.5 352.5,-329.88 363.53,-333.65 374.21,-336.3"/>
<polygon fill="#63b8ff" stroke="#63b8ff" points="281.9,-273.68 271.34,-274.57 280.14,-280.46 281.9,-273.68"/>
</a>
</g>
</g>
<!-- Node57 -->
<g id="Node000057" class="node">
<title>Node57</title>
<g id="a_Node000057"><a xlink:href="class_p4_1_1_symbolic_array.html" target="_top" xlink:title=" ">
<polygon fill="white" stroke="#bfbfbf" points="473.5,-315 367.5,-315 367.5,-296 473.5,-296 473.5,-315"/>
<text text-anchor="middle" x="420.5" y="-303" font-family="Helvetica,sans-Serif" font-size="10.00">P4::SymbolicArray</text>
</a>
</g>
</g>
<!-- Node51&#45;&gt;Node57 -->
<g id="edge35_Node000051_Node000057" class="edge">
<title>Node51&#45;&gt;Node57</title>
<g id="a_edge35_Node000051_Node000057"><a xlink:title=" ">
<path fill="none" stroke="#63b8ff" d="M280.32,-279.88C308.27,-285.02 340.91,-291.03 367.56,-295.94"/>
<polygon fill="#63b8ff" stroke="#63b8ff" points="280.73,-276.4 270.26,-278.03 279.46,-283.28 280.73,-276.4"/>
</a>
</g>
</g>
<!-- Node58 -->
<g id="Node000058" class="node">
<title>Node58</title>
<g id="a_Node000058"><a xlink:href="class_p4_1_1_symbolic_error.html" target="_top" xlink:title=" ">
<polygon fill="white" stroke="orangered" points="472,-278 369,-278 369,-259 472,-259 472,-278"/>
<text text-anchor="middle" x="420.5" y="-266" font-family="Helvetica,sans-Serif" font-size="10.00">P4::SymbolicError</text>
</a>
</g>
</g>
<!-- Node51&#45;&gt;Node58 -->
<g id="edge36_Node000051_Node000058" class="edge">
<title>Node51&#45;&gt;Node58</title>
<g id="a_edge36_Node000051_Node000058"><a xlink:title=" ">
<path fill="none" stroke="#63b8ff" d="M281.22,-268.5C309.47,-268.5 342.37,-268.5 368.99,-268.5"/>
<polygon fill="#63b8ff" stroke="#63b8ff" points="281.05,-265 271.05,-268.5 281.05,-272 281.05,-265"/>
</a>
</g>
</g>
<!-- Node61 -->
<g id="Node000061" class="node">
<title>Node61</title>
<g id="a_Node000061"><a xlink:href="class_p4_1_1_symbolic_extern.html" target="_top" xlink:title=" ">
<polygon fill="white" stroke="orangered" points="476,-241 365,-241 365,-222 476,-222 476,-241"/>
<text text-anchor="middle" x="420.5" y="-229" font-family="Helvetica,sans-Serif" font-size="10.00">P4::SymbolicExtern</text>
</a>
</g>
</g>
<!-- Node51&#45;&gt;Node61 -->
<g id="edge37_Node000051_Node000061" class="edge">
<title>Node51&#45;&gt;Node61</title>
<g id="a_edge37_Node000051_Node000061"><a xlink:title=" ">
<path fill="none" stroke="#63b8ff" d="M280.32,-257.12C308.27,-251.98 340.91,-245.97 367.56,-241.06"/>
<polygon fill="#63b8ff" stroke="#63b8ff" points="279.46,-253.72 270.26,-258.97 280.73,-260.6 279.46,-253.72"/>
</a>
</g>
</g>
<!-- Node63 -->
<g id="Node000063" class="node">
<title>Node63</title>
<g id="a_Node000063"><a xlink:href="class_p4_1_1_symbolic_struct.html" target="_top" xlink:title=" ">
<polygon fill="white" stroke="orangered" points="474.5,-204 366.5,-204 366.5,-185 474.5,-185 474.5,-204"/>
<text text-anchor="middle" x="420.5" y="-192" font-family="Helvetica,sans-Serif" font-size="10.00">P4::SymbolicStruct</text>
</a>
</g>
</g>
<!-- Node51&#45;&gt;Node63 -->
<g id="edge38_Node000051_Node000063" class="edge">
<title>Node51&#45;&gt;Node63</title>
<g id="a_edge38_Node000051_Node000063"><a xlink:title=" ">
<path fill="none" stroke="#63b8ff" d="M281.1,-260.68C290.11,-258.17 299.02,-254.86 307,-250.5 327.14,-239.5 323.1,-224.93 343,-213.5 350.12,-209.41 358.11,-206.2 366.16,-203.67"/>
<polygon fill="#63b8ff" stroke="#63b8ff" points="280.19,-257.3 271.33,-263.1 281.88,-264.09 280.19,-257.3"/>
</a>
</g>
</g>
<!-- Node67 -->
<g id="Node000067" class="node">
<title>Node67</title>
<g id="a_Node000067"><a xlink:href="class_p4_1_1_symbolic_tuple.html" target="_top" xlink:title=" ">
<polygon fill="white" stroke="#bfbfbf" points="473,-167 368,-167 368,-148 473,-148 473,-167"/>
<text text-anchor="middle" x="420.5" y="-155" font-family="Helvetica,sans-Serif" font-size="10.00">P4::SymbolicTuple</text>
</a>
</g>
</g>
<!-- Node51&#45;&gt;Node67 -->
<g id="edge39_Node000051_Node000067" class="edge">
<title>Node51&#45;&gt;Node67</title>
<g id="a_edge39_Node000051_Node000067"><a xlink:title=" ">
<path fill="none" stroke="#63b8ff" d="M280.89,-263.36C290.28,-260.53 299.37,-256.42 307,-250.5 335.91,-228.09 314.58,-199.52 343,-176.5 350.13,-170.73 358.76,-166.68 367.63,-163.84"/>
<polygon fill="#63b8ff" stroke="#63b8ff" points="279.86,-260.01 271.03,-265.87 281.59,-266.79 279.86,-260.01"/>
</a>
</g>
</g>
<!-- Node68 -->
<g id="Node000068" class="node">
<title>Node68</title>
<g id="a_Node000068"><a xlink:href="class_p4_1_1_symbolic_void.html" target="_top" xlink:title=" ">
<polygon fill="white" stroke="#bfbfbf" points="471,-130 370,-130 370,-111 471,-111 471,-130"/>
<text text-anchor="middle" x="420.5" y="-118" font-family="Helvetica,sans-Serif" font-size="10.00">P4::SymbolicVoid</text>
</a>
</g>
</g>
<!-- Node51&#45;&gt;Node68 -->
<g id="edge40_Node000051_Node000068" class="edge">
<title>Node51&#45;&gt;Node68</title>
<g id="a_edge40_Node000051_Node000068"><a xlink:title=" ">
<path fill="none" stroke="#63b8ff" d="M281.29,-264.36C290.72,-261.42 299.71,-257.01 307,-250.5 345.68,-215.96 305.06,-174.86 343,-139.5 350.41,-132.59 359.92,-128.09 369.71,-125.18"/>
<polygon fill="#63b8ff" stroke="#63b8ff" points="280.17,-261.03 271.36,-266.92 281.92,-267.81 280.17,-261.03"/>
</a>
</g>
</g>
<!-- Node70 -->
<g id="Node000070" class="node">
<title>Node70</title>
<g id="a_Node000070"><a xlink:href="class_p4_1_1_binary_constraint.html" target="_top" xlink:title="Base class for EqualityConstraint and CanBeImplicitlyCastConstraint.">
<polygon fill="#fff0f0" stroke="red" points="478.5,-93 362.5,-93 362.5,-74 478.5,-74 478.5,-93"/>
<text text-anchor="middle" x="420.5" y="-81" font-family="Helvetica,sans-Serif" font-size="10.00">P4::BinaryConstraint</text>
</a>
</g>
</g>
<!-- Node69&#45;&gt;Node70 -->
<g id="edge42_Node000069_Node000070" class="edge">
<title>Node69&#45;&gt;Node70</title>
<g id="a_edge42_Node000069_Node000070"><a xlink:title=" ">
<path fill="none" stroke="#63b8ff" d="M281.31,-227.38C290.73,-224.43 299.72,-220.02 307,-213.5 345.95,-178.62 304.58,-136.97 343,-101.5 348.51,-96.41 355.19,-92.68 362.27,-89.95"/>
<polygon fill="#63b8ff" stroke="#63b8ff" points="280.19,-224.05 271.38,-229.94 281.94,-230.83 280.19,-224.05"/>
</a>
</g>
</g>
</g>
</svg>
