<?xml version="1.0" encoding="UTF-8" standalone="no"?>
<!DOCTYPE svg PUBLIC "-//W3C//DTD SVG 1.1//EN"
 "http://www.w3.org/Graphics/SVG/1.1/DTD/svg11.dtd">
<!-- Generated by graphviz version 2.43.0 (0)
 -->
<!-- Title: EBPF::CRCChecksumAlgorithm Pages: 1 -->
<svg width="1151pt" height="119pt"
 viewBox="0.00 0.00 1151.00 119.00" xmlns="http://www.w3.org/2000/svg" xmlns:xlink="http://www.w3.org/1999/xlink">
<g id="graph0" class="graph" transform="scale(1 1) rotate(0) translate(4 115)">
<title>EBPF::CRCChecksumAlgorithm</title>
<!-- Node1 -->
<g id="Node000001" class="node">
<title>Node1</title>
<g id="a_Node000001"><a xlink:title=" ">
<polygon fill="#999999" stroke="#666666" points="707,-74 541,-74 541,-55 707,-55 707,-74"/>
<text text-anchor="middle" x="624" y="-62" font-family="Helvetica,sans-Serif" font-size="10.00">EBPF::CRCChecksumAlgorithm</text>
</a>
</g>
</g>
<!-- Node6 -->
<g id="Node000006" class="node">
<title>Node6</title>
<g id="a_Node000006"><a xlink:href="class_e_b_p_f_1_1_c_r_c16_checksum_algorithm.html" target="_top" xlink:title=" ">
<polygon fill="white" stroke="#666666" points="921,-111 743,-111 743,-92 921,-92 921,-111"/>
<text text-anchor="middle" x="832" y="-99" font-family="Helvetica,sans-Serif" font-size="10.00">EBPF::CRC16ChecksumAlgorithm</text>
</a>
</g>
</g>
<!-- Node1&#45;&gt;Node6 -->
<g id="edge5_Node000001_Node000006" class="edge">
<title>Node1&#45;&gt;Node6</title>
<g id="a_edge5_Node000001_Node000006"><a xlink:title=" ">
<path fill="none" stroke="#63b8ff" d="M687.99,-75.81C716.7,-80.97 750.34,-87.01 777.77,-91.94"/>
<polygon fill="#63b8ff" stroke="#63b8ff" points="688.51,-72.35 678.05,-74.03 687.27,-79.24 688.51,-72.35"/>
</a>
</g>
</g>
<!-- Node7 -->
<g id="Node000007" class="node">
<title>Node7</title>
<g id="a_Node000007"><a xlink:href="class_e_b_p_f_1_1_c_r_c32_checksum_algorithm.html" target="_top" xlink:title=" ">
<polygon fill="white" stroke="#666666" points="921,-74 743,-74 743,-55 921,-55 921,-74"/>
<text text-anchor="middle" x="832" y="-62" font-family="Helvetica,sans-Serif" font-size="10.00">EBPF::CRC32ChecksumAlgorithm</text>
</a>
</g>
</g>
<!-- Node1&#45;&gt;Node7 -->
<g id="edge6_Node000001_Node000007" class="edge">
<title>Node1&#45;&gt;Node7</title>
<g id="a_edge6_Node000001_Node000007"><a xlink:title=" ">
<path fill="none" stroke="#63b8ff" d="M717.03,-64.5C725.61,-64.5 734.3,-64.5 742.85,-64.5"/>
<polygon fill="#63b8ff" stroke="#63b8ff" points="717.01,-61 707.01,-64.5 717.01,-68 717.01,-61"/>
</a>
</g>
</g>
<!-- Node8 -->
<g id="Node000008" class="node">
<title>Node8</title>
<g id="a_Node000008"><a xlink:href="class_t_c_1_1_c_r_c_checksum_algorithm_p_n_a.html" target="_top" xlink:title=" ">
<polygon fill="white" stroke="#bfbfbf" points="919,-37 745,-37 745,-18 919,-18 919,-37"/>
<text text-anchor="middle" x="832" y="-25" font-family="Helvetica,sans-Serif" font-size="10.00">TC::CRCChecksumAlgorithmPNA</text>
</a>
</g>
</g>
<!-- Node1&#45;&gt;Node8 -->
<g id="edge7_Node000001_Node000008" class="edge">
<title>Node1&#45;&gt;Node8</title>
<g id="a_edge7_Node000001_Node000008"><a xlink:title=" ">
<path fill="none" stroke="#63b8ff" d="M687.99,-53.19C716.7,-48.03 750.34,-41.99 777.77,-37.06"/>
<polygon fill="#63b8ff" stroke="#63b8ff" points="687.27,-49.76 678.05,-54.97 688.51,-56.65 687.27,-49.76"/>
</a>
</g>
</g>
<!-- Node2 -->
<g id="Node000002" class="node">
<title>Node2</title>
<g id="a_Node000002"><a xlink:href="class_e_b_p_f_1_1_e_b_p_f_hash_algorithm_p_s_a.html" target="_top" xlink:title=" ">
<polygon fill="white" stroke="#bfbfbf" points="505,-74 341,-74 341,-55 505,-55 505,-74"/>
<text text-anchor="middle" x="423" y="-62" font-family="Helvetica,sans-Serif" font-size="10.00">EBPF::EBPFHashAlgorithmPSA</text>
</a>
</g>
</g>
<!-- Node2&#45;&gt;Node1 -->
<g id="edge1_Node000001_Node000002" class="edge">
<title>Node2&#45;&gt;Node1</title>
<g id="a_edge1_Node000001_Node000002"><a xlink:title=" ">
<path fill="none" stroke="#63b8ff" d="M515.46,-64.5C523.89,-64.5 532.4,-64.5 540.74,-64.5"/>
<polygon fill="#63b8ff" stroke="#63b8ff" points="515.23,-61 505.23,-64.5 515.23,-68 515.23,-61"/>
</a>
</g>
</g>
<!-- Node3 -->
<g id="Node000003" class="node">
<title>Node3</title>
<g id="a_Node000003"><a xlink:href="class_e_b_p_f_1_1_e_b_p_f_object.html" target="_top" xlink:title="Base class for EBPF objects.">
<polygon fill="white" stroke="#666666" points="305,-74 202,-74 202,-55 305,-55 305,-74"/>
<text text-anchor="middle" x="253.5" y="-62" font-family="Helvetica,sans-Serif" font-size="10.00">EBPF::EBPFObject</text>
</a>
</g>
</g>
<!-- Node3&#45;&gt;Node2 -->
<g id="edge2_Node000002_Node000003" class="edge">
<title>Node3&#45;&gt;Node2</title>
<g id="a_edge2_Node000002_Node000003"><a xlink:title=" ">
<path fill="none" stroke="#63b8ff" d="M315.47,-64.5C323.72,-64.5 332.3,-64.5 340.83,-64.5"/>
<polygon fill="#63b8ff" stroke="#63b8ff" points="315.21,-61 305.21,-64.5 315.21,-68 315.21,-61"/>
</a>
</g>
</g>
<!-- Node4 -->
<g id="Node000004" class="node">
<title>Node4</title>
<g id="a_Node000004"><a xlink:href="class_i_castable.html" target="_top" xlink:title=" ">
<polygon fill="white" stroke="#666666" points="166,-74 104,-74 104,-55 166,-55 166,-74"/>
<text text-anchor="middle" x="135" y="-62" font-family="Helvetica,sans-Serif" font-size="10.00">ICastable</text>
</a>
</g>
</g>
<!-- Node4&#45;&gt;Node3 -->
<g id="edge3_Node000003_Node000004" class="edge">
<title>Node4&#45;&gt;Node3</title>
<g id="a_edge3_Node000003_Node000004"><a xlink:title=" ">
<path fill="none" stroke="#63b8ff" d="M176.13,-64.5C184.41,-64.5 193.22,-64.5 201.81,-64.5"/>
<polygon fill="#63b8ff" stroke="#63b8ff" points="176,-61 166,-64.5 176,-68 176,-61"/>
</a>
</g>
</g>
<!-- Node5 -->
<g id="Node000005" class="node">
<title>Node5</title>
<g id="a_Node000005"><a xlink:href="struct_r_t_t_i_1_1_base.html" target="_top" xlink:title=" ">
<polygon fill="white" stroke="#bfbfbf" points="68,-74 0,-74 0,-55 68,-55 68,-74"/>
<text text-anchor="middle" x="34" y="-62" font-family="Helvetica,sans-Serif" font-size="10.00">RTTI::Base</text>
</a>
</g>
</g>
<!-- Node5&#45;&gt;Node4 -->
<g id="edge4_Node000004_Node000005" class="edge">
<title>Node5&#45;&gt;Node4</title>
<g id="a_edge4_Node000004_Node000005"><a xlink:title=" ">
<path fill="none" stroke="#63b8ff" d="M78.44,-64.5C86.95,-64.5 95.71,-64.5 103.68,-64.5"/>
<polygon fill="#63b8ff" stroke="#63b8ff" points="78.24,-61 68.24,-64.5 78.24,-68 78.24,-61"/>
</a>
</g>
</g>
<!-- Node9 -->
<g id="Node000009" class="node">
<title>Node9</title>
<g id="a_Node000009"><a xlink:href="class_t_c_1_1_c_r_c16_checksum_algorithm_p_n_a.html" target="_top" xlink:title=" ">
<polygon fill="white" stroke="#bfbfbf" points="1143,-56 957,-56 957,-37 1143,-37 1143,-56"/>
<text text-anchor="middle" x="1050" y="-44" font-family="Helvetica,sans-Serif" font-size="10.00">TC::CRC16ChecksumAlgorithmPNA</text>
</a>
</g>
</g>
<!-- Node8&#45;&gt;Node9 -->
<g id="edge8_Node000008_Node000009" class="edge">
<title>Node8&#45;&gt;Node9</title>
<g id="a_edge8_Node000008_Node000009"><a xlink:title=" ">
<path fill="none" stroke="#63b8ff" d="M929.5,-35.99C938.58,-36.79 947.77,-37.6 956.82,-38.39"/>
<polygon fill="#63b8ff" stroke="#63b8ff" points="929.57,-32.48 919.3,-35.09 928.95,-39.45 929.57,-32.48"/>
</a>
</g>
</g>
<!-- Node10 -->
<g id="Node000010" class="node">
<title>Node10</title>
<g id="a_Node000010"><a xlink:href="class_t_c_1_1_c_r_c32_checksum_algorithm_p_n_a.html" target="_top" xlink:title=" ">
<polygon fill="white" stroke="#bfbfbf" points="1143,-19 957,-19 957,0 1143,0 1143,-19"/>
<text text-anchor="middle" x="1050" y="-7" font-family="Helvetica,sans-Serif" font-size="10.00">TC::CRC32ChecksumAlgorithmPNA</text>
</a>
</g>
</g>
<!-- Node8&#45;&gt;Node10 -->
<g id="edge9_Node000008_Node000010" class="edge">
<title>Node8&#45;&gt;Node10</title>
<g id="a_edge9_Node000008_Node000010"><a xlink:title=" ">
<path fill="none" stroke="#63b8ff" d="M929.5,-19.46C938.58,-18.7 947.77,-17.94 956.82,-17.18"/>
<polygon fill="#63b8ff" stroke="#63b8ff" points="928.97,-15.99 919.3,-20.31 929.56,-22.97 928.97,-15.99"/>
</a>
</g>
</g>
</g>
</svg>
