<?xml version="1.0" encoding="UTF-8" standalone="no"?>
<!DOCTYPE svg PUBLIC "-//W3C//DTD SVG 1.1//EN"
 "http://www.w3.org/Graphics/SVG/1.1/DTD/svg11.dtd">
<!-- Generated by graphviz version 2.43.0 (0)
 -->
<!-- Title: P4::UBPF::UBPFTableBase Pages: 1 -->
<svg width="276pt" height="247pt"
 viewBox="0.00 0.00 276.00 247.00" xmlns="http://www.w3.org/2000/svg" xmlns:xlink="http://www.w3.org/1999/xlink">
<g id="graph0" class="graph" transform="scale(1 1) rotate(0) translate(4 243)">
<title>P4::UBPF::UBPFTableBase</title>
<!-- Node1 -->
<g id="Node000001" class="node">
<title>Node1</title>
<g id="a_Node000001"><a xlink:title=" ">
<polygon fill="#999999" stroke="#666666" points="208,-74 67,-74 67,-55 208,-55 208,-74"/>
<text text-anchor="middle" x="137.5" y="-62" font-family="Helvetica,sans-Serif" font-size="10.00">P4::UBPF::UBPFTableBase</text>
</a>
</g>
</g>
<!-- Node5 -->
<g id="Node000005" class="node">
<title>Node5</title>
<g id="a_Node000005"><a xlink:href="class_p4_1_1_u_b_p_f_1_1_u_b_p_f_register.html" target="_top" xlink:title=" ">
<polygon fill="white" stroke="#bfbfbf" points="133,-19 0,-19 0,0 133,0 133,-19"/>
<text text-anchor="middle" x="66.5" y="-7" font-family="Helvetica,sans-Serif" font-size="10.00">P4::UBPF::UBPFRegister</text>
</a>
</g>
</g>
<!-- Node1&#45;&gt;Node5 -->
<g id="edge4_Node000001_Node000005" class="edge">
<title>Node1&#45;&gt;Node5</title>
<g id="a_edge4_Node000001_Node000005"><a xlink:title=" ">
<path fill="none" stroke="#63b8ff" d="M117.91,-48.88C105.13,-39.34 88.89,-27.21 78.11,-19.17"/>
<polygon fill="#63b8ff" stroke="#63b8ff" points="115.99,-51.81 126.09,-54.98 120.17,-46.2 115.99,-51.81"/>
</a>
</g>
</g>
<!-- Node6 -->
<g id="Node000006" class="node">
<title>Node6</title>
<g id="a_Node000006"><a xlink:href="class_p4_1_1_u_b_p_f_1_1_u_b_p_f_table.html" target="_top" xlink:title=" ">
<polygon fill="white" stroke="#bfbfbf" points="268,-19 151,-19 151,0 268,0 268,-19"/>
<text text-anchor="middle" x="209.5" y="-7" font-family="Helvetica,sans-Serif" font-size="10.00">P4::UBPF::UBPFTable</text>
</a>
</g>
</g>
<!-- Node1&#45;&gt;Node6 -->
<g id="edge5_Node000001_Node000006" class="edge">
<title>Node1&#45;&gt;Node6</title>
<g id="a_edge5_Node000001_Node000006"><a xlink:title=" ">
<path fill="none" stroke="#63b8ff" d="M157.37,-48.88C170.32,-39.34 186.8,-27.21 197.72,-19.17"/>
<polygon fill="#63b8ff" stroke="#63b8ff" points="155.05,-46.24 149.07,-54.98 159.2,-51.88 155.05,-46.24"/>
</a>
</g>
</g>
<!-- Node2 -->
<g id="Node000002" class="node">
<title>Node2</title>
<g id="a_Node000002"><a xlink:href="class_p4_1_1_e_b_p_f_1_1_e_b_p_f_object.html" target="_top" xlink:title="Base class for EBPF objects.">
<polygon fill="white" stroke="#666666" points="198,-129 77,-129 77,-110 198,-110 198,-129"/>
<text text-anchor="middle" x="137.5" y="-117" font-family="Helvetica,sans-Serif" font-size="10.00">P4::EBPF::EBPFObject</text>
</a>
</g>
</g>
<!-- Node2&#45;&gt;Node1 -->
<g id="edge1_Node000001_Node000002" class="edge">
<title>Node2&#45;&gt;Node1</title>
<g id="a_edge1_Node000001_Node000002"><a xlink:title=" ">
<path fill="none" stroke="#63b8ff" d="M137.5,-99.66C137.5,-90.93 137.5,-80.99 137.5,-74.09"/>
<polygon fill="#63b8ff" stroke="#63b8ff" points="134,-99.75 137.5,-109.75 141,-99.75 134,-99.75"/>
</a>
</g>
</g>
<!-- Node3 -->
<g id="Node000003" class="node">
<title>Node3</title>
<g id="a_Node000003"><a xlink:href="class_p4_1_1_i_castable.html" target="_top" xlink:title=" ">
<polygon fill="white" stroke="#666666" points="177.5,-184 97.5,-184 97.5,-165 177.5,-165 177.5,-184"/>
<text text-anchor="middle" x="137.5" y="-172" font-family="Helvetica,sans-Serif" font-size="10.00">P4::ICastable</text>
</a>
</g>
</g>
<!-- Node3&#45;&gt;Node2 -->
<g id="edge2_Node000002_Node000003" class="edge">
<title>Node3&#45;&gt;Node2</title>
<g id="a_edge2_Node000002_Node000003"><a xlink:title=" ">
<path fill="none" stroke="#63b8ff" d="M137.5,-154.66C137.5,-145.93 137.5,-135.99 137.5,-129.09"/>
<polygon fill="#63b8ff" stroke="#63b8ff" points="134,-154.75 137.5,-164.75 141,-154.75 134,-154.75"/>
</a>
</g>
</g>
<!-- Node4 -->
<g id="Node000004" class="node">
<title>Node4</title>
<g id="a_Node000004"><a xlink:href="struct_p4_1_1_r_t_t_i_1_1_base.html" target="_top" xlink:title=" ">
<polygon fill="white" stroke="#bfbfbf" points="180.5,-239 94.5,-239 94.5,-220 180.5,-220 180.5,-239"/>
<text text-anchor="middle" x="137.5" y="-227" font-family="Helvetica,sans-Serif" font-size="10.00">P4::RTTI::Base</text>
</a>
</g>
</g>
<!-- Node4&#45;&gt;Node3 -->
<g id="edge3_Node000003_Node000004" class="edge">
<title>Node4&#45;&gt;Node3</title>
<g id="a_edge3_Node000003_Node000004"><a xlink:title=" ">
<path fill="none" stroke="#63b8ff" d="M137.5,-209.66C137.5,-200.93 137.5,-190.99 137.5,-184.09"/>
<polygon fill="#63b8ff" stroke="#63b8ff" points="134,-209.75 137.5,-219.75 141,-209.75 134,-209.75"/>
</a>
</g>
</g>
</g>
</svg>
