<?xml version="1.0" encoding="UTF-8" standalone="no"?>
<!DOCTYPE svg PUBLIC "-//W3C//DTD SVG 1.1//EN"
 "http://www.w3.org/Graphics/SVG/1.1/DTD/svg11.dtd">
<!-- Generated by graphviz version 2.43.0 (0)
 -->
<!-- Title: BMV2::MidEnd Pages: 1 -->
<svg width="377pt" height="302pt"
 viewBox="0.00 0.00 377.00 302.00" xmlns="http://www.w3.org/2000/svg" xmlns:xlink="http://www.w3.org/1999/xlink">
<g id="graph0" class="graph" transform="scale(1 1) rotate(0) translate(4 298)">
<title>BMV2::MidEnd</title>
<!-- Node1 -->
<g id="Node000001" class="node">
<title>Node1</title>
<g id="a_Node000001"><a xlink:title=" ">
<polygon fill="#999999" stroke="#666666" points="256,-129 169,-129 169,-110 256,-110 256,-129"/>
<text text-anchor="middle" x="212.5" y="-117" font-family="Helvetica,sans-Serif" font-size="10.00">BMV2::MidEnd</text>
</a>
</g>
</g>
<!-- Node5 -->
<g id="Node000005" class="node">
<title>Node5</title>
<g id="a_Node000005"><a xlink:href="class_b_m_v2_1_1_portable_mid_end.html" target="_top" xlink:title=" ">
<polygon fill="white" stroke="#bfbfbf" points="197.5,-74 69.5,-74 69.5,-55 197.5,-55 197.5,-74"/>
<text text-anchor="middle" x="133.5" y="-62" font-family="Helvetica,sans-Serif" font-size="10.00">BMV2::PortableMidEnd</text>
</a>
</g>
</g>
<!-- Node1&#45;&gt;Node5 -->
<g id="edge5_Node000001_Node000005" class="edge">
<title>Node1&#45;&gt;Node5</title>
<g id="a_edge5_Node000001_Node000005"><a xlink:title=" ">
<path fill="none" stroke="#63b8ff" d="M191.11,-104.15C176.83,-94.57 158.53,-82.29 146.42,-74.17"/>
<polygon fill="#63b8ff" stroke="#63b8ff" points="189.55,-107.32 199.81,-109.98 193.45,-101.51 189.55,-107.32"/>
</a>
</g>
</g>
<!-- Node8 -->
<g id="Node000008" class="node">
<title>Node8</title>
<g id="a_Node000008"><a xlink:href="class_b_m_v2_1_1_simple_switch_mid_end.html" target="_top" xlink:title=" ">
<polygon fill="white" stroke="#bfbfbf" points="369,-74 216,-74 216,-55 369,-55 369,-74"/>
<text text-anchor="middle" x="292.5" y="-62" font-family="Helvetica,sans-Serif" font-size="10.00">BMV2::SimpleSwitchMidEnd</text>
</a>
</g>
</g>
<!-- Node1&#45;&gt;Node8 -->
<g id="edge8_Node000001_Node000008" class="edge">
<title>Node1&#45;&gt;Node8</title>
<g id="a_edge8_Node000001_Node000008"><a xlink:title=" ">
<path fill="none" stroke="#63b8ff" d="M233.75,-104.42C248.26,-94.81 267.04,-82.37 279.41,-74.17"/>
<polygon fill="#63b8ff" stroke="#63b8ff" points="231.76,-101.54 225.35,-109.98 235.62,-107.38 231.76,-101.54"/>
</a>
</g>
</g>
<!-- Node2 -->
<g id="Node000002" class="node">
<title>Node2</title>
<g id="a_Node000002"><a xlink:href="class_pass_manager.html" target="_top" xlink:title=" ">
<polygon fill="white" stroke="#bfbfbf" points="253,-184 172,-184 172,-165 253,-165 253,-184"/>
<text text-anchor="middle" x="212.5" y="-172" font-family="Helvetica,sans-Serif" font-size="10.00">PassManager</text>
</a>
</g>
</g>
<!-- Node2&#45;&gt;Node1 -->
<g id="edge1_Node000001_Node000002" class="edge">
<title>Node2&#45;&gt;Node1</title>
<g id="a_edge1_Node000001_Node000002"><a xlink:title=" ">
<path fill="none" stroke="#63b8ff" d="M212.5,-154.66C212.5,-145.93 212.5,-135.99 212.5,-129.09"/>
<polygon fill="#63b8ff" stroke="#63b8ff" points="209,-154.75 212.5,-164.75 216,-154.75 209,-154.75"/>
</a>
</g>
</g>
<!-- Node3 -->
<g id="Node000003" class="node">
<title>Node3</title>
<g id="a_Node000003"><a xlink:href="class_visitor.html" target="_top" xlink:title=" ">
<polygon fill="white" stroke="#bfbfbf" points="236.5,-294 188.5,-294 188.5,-275 236.5,-275 236.5,-294"/>
<text text-anchor="middle" x="212.5" y="-282" font-family="Helvetica,sans-Serif" font-size="10.00">Visitor</text>
</a>
</g>
</g>
<!-- Node3&#45;&gt;Node2 -->
<g id="edge2_Node000002_Node000003" class="edge">
<title>Node3&#45;&gt;Node2</title>
<g id="a_edge2_Node000002_Node000003"><a xlink:title=" ">
<path fill="none" stroke="#63b8ff" d="M206.88,-265.07C204.74,-257.13 202.56,-247.69 201.5,-239 199.09,-219.23 205.35,-196.25 209.39,-184.09"/>
<polygon fill="#63b8ff" stroke="#63b8ff" points="203.54,-266.11 209.67,-274.75 210.27,-264.17 203.54,-266.11"/>
</a>
</g>
</g>
<!-- Node4 -->
<g id="Node000004" class="node">
<title>Node4</title>
<g id="a_Node000004"><a xlink:href="class_backtrack.html" target="_top" xlink:title=" ">
<polygon fill="white" stroke="#bfbfbf" points="276,-239 211,-239 211,-220 276,-220 276,-239"/>
<text text-anchor="middle" x="243.5" y="-227" font-family="Helvetica,sans-Serif" font-size="10.00">Backtrack</text>
</a>
</g>
</g>
<!-- Node3&#45;&gt;Node4 -->
<g id="edge4_Node000004_Node000003" class="edge">
<title>Node3&#45;&gt;Node4</title>
<g id="a_edge4_Node000004_Node000003"><a xlink:title=" ">
<path fill="none" stroke="#63b8ff" d="M222.68,-266.1C227.97,-257.04 234.22,-246.37 238.48,-239.09"/>
<polygon fill="#63b8ff" stroke="#63b8ff" points="219.65,-264.35 217.62,-274.75 225.69,-267.88 219.65,-264.35"/>
</a>
</g>
</g>
<!-- Node4&#45;&gt;Node2 -->
<g id="edge3_Node000002_Node000004" class="edge">
<title>Node4&#45;&gt;Node2</title>
<g id="a_edge3_Node000002_Node000004"><a xlink:title=" ">
<path fill="none" stroke="#63b8ff" d="M233.32,-211.1C228.03,-202.04 221.78,-191.37 217.52,-184.09"/>
<polygon fill="#63b8ff" stroke="#63b8ff" points="230.31,-212.88 238.38,-219.75 236.35,-209.35 230.31,-212.88"/>
</a>
</g>
</g>
<!-- Node6 -->
<g id="Node000006" class="node">
<title>Node6</title>
<g id="a_Node000006"><a xlink:href="class_b_m_v2_1_1_pna_nic_mid_end.html" target="_top" xlink:title=" ">
<polygon fill="white" stroke="#bfbfbf" points="121,-19 0,-19 0,0 121,0 121,-19"/>
<text text-anchor="middle" x="60.5" y="-7" font-family="Helvetica,sans-Serif" font-size="10.00">BMV2::PnaNicMidEnd</text>
</a>
</g>
</g>
<!-- Node5&#45;&gt;Node6 -->
<g id="edge6_Node000005_Node000006" class="edge">
<title>Node5&#45;&gt;Node6</title>
<g id="a_edge6_Node000005_Node000006"><a xlink:title=" ">
<path fill="none" stroke="#63b8ff" d="M113.36,-48.88C100.22,-39.34 83.52,-27.21 72.44,-19.17"/>
<polygon fill="#63b8ff" stroke="#63b8ff" points="111.62,-51.94 121.77,-54.98 115.74,-46.28 111.62,-51.94"/>
</a>
</g>
</g>
<!-- Node7 -->
<g id="Node000007" class="node">
<title>Node7</title>
<g id="a_Node000007"><a xlink:href="class_b_m_v2_1_1_psa_switch_mid_end.html" target="_top" xlink:title=" ">
<polygon fill="white" stroke="#bfbfbf" points="276,-19 139,-19 139,0 276,0 276,-19"/>
<text text-anchor="middle" x="207.5" y="-7" font-family="Helvetica,sans-Serif" font-size="10.00">BMV2::PsaSwitchMidEnd</text>
</a>
</g>
</g>
<!-- Node5&#45;&gt;Node7 -->
<g id="edge7_Node000005_Node000007" class="edge">
<title>Node5&#45;&gt;Node7</title>
<g id="a_edge7_Node000005_Node000007"><a xlink:title=" ">
<path fill="none" stroke="#63b8ff" d="M153.53,-49.15C166.91,-39.57 184.06,-27.29 195.39,-19.17"/>
<polygon fill="#63b8ff" stroke="#63b8ff" points="151.48,-46.32 145.39,-54.98 155.56,-52.01 151.48,-46.32"/>
</a>
</g>
</g>
</g>
</svg>
