<?xml version="1.0" encoding="UTF-8" standalone="no"?>
<!DOCTYPE svg PUBLIC "-//W3C//DTD SVG 1.1//EN"
 "http://www.w3.org/Graphics/SVG/1.1/DTD/svg11.dtd">
<!-- Generated by graphviz version 2.43.0 (0)
 -->
<!-- Title: P4::CopyStructures Pages: 1 -->
<svg width="126pt" height="252pt"
 viewBox="0.00 0.00 126.00 252.00" xmlns="http://www.w3.org/2000/svg" xmlns:xlink="http://www.w3.org/1999/xlink">
<g id="graph0" class="graph" transform="scale(1 1) rotate(0) translate(4 248)">
<title>P4::CopyStructures</title>
<polygon fill="white" stroke="transparent" points="-4,4 -4,-248 122,-248 122,4 -4,4"/>
<!-- Node1 -->
<g id="node1" class="node">
<title>Node1</title>
<g id="a_node1"><a xlink:title=" ">
<polygon fill="#bfbfbf" stroke="black" points="0,-0.5 0,-19.5 109,-19.5 109,-0.5 0,-0.5"/>
<text text-anchor="middle" x="54.5" y="-7.5" font-family="Helvetica,sans-Serif" font-size="10.00">P4::CopyStructures</text>
</a>
</g>
</g>
<!-- Node2 -->
<g id="node2" class="node">
<title>Node2</title>
<g id="a_node2"><a xlink:href="class_pass_repeated.html" target="_top" xlink:title=" ">
<polygon fill="white" stroke="black" points="12,-56.5 12,-75.5 97,-75.5 97,-56.5 12,-56.5"/>
<text text-anchor="middle" x="54.5" y="-63.5" font-family="Helvetica,sans-Serif" font-size="10.00">PassRepeated</text>
</a>
</g>
</g>
<!-- Node2&#45;&gt;Node1 -->
<g id="edge1" class="edge">
<title>Node2&#45;&gt;Node1</title>
<path fill="none" stroke="midnightblue" d="M54.5,-45.8C54.5,-36.91 54.5,-26.78 54.5,-19.75"/>
<polygon fill="midnightblue" stroke="midnightblue" points="51,-46.08 54.5,-56.08 58,-46.08 51,-46.08"/>
</g>
<!-- Node3 -->
<g id="node3" class="node">
<title>Node3</title>
<g id="a_node3"><a xlink:href="class_pass_manager.html" target="_top" xlink:title=" ">
<polygon fill="white" stroke="black" points="14,-112.5 14,-131.5 95,-131.5 95,-112.5 14,-112.5"/>
<text text-anchor="middle" x="54.5" y="-119.5" font-family="Helvetica,sans-Serif" font-size="10.00">PassManager</text>
</a>
</g>
</g>
<!-- Node3&#45;&gt;Node2 -->
<g id="edge2" class="edge">
<title>Node3&#45;&gt;Node2</title>
<path fill="none" stroke="midnightblue" d="M54.5,-101.8C54.5,-92.91 54.5,-82.78 54.5,-75.75"/>
<polygon fill="midnightblue" stroke="midnightblue" points="51,-102.08 54.5,-112.08 58,-102.08 51,-102.08"/>
</g>
<!-- Node4 -->
<g id="node4" class="node">
<title>Node4</title>
<g id="a_node4"><a xlink:href="class_visitor.html" target="_top" xlink:title=" ">
<polygon fill="white" stroke="black" points="30.5,-224.5 30.5,-243.5 78.5,-243.5 78.5,-224.5 30.5,-224.5"/>
<text text-anchor="middle" x="54.5" y="-231.5" font-family="Helvetica,sans-Serif" font-size="10.00">Visitor</text>
</a>
</g>
</g>
<!-- Node4&#45;&gt;Node3 -->
<g id="edge3" class="edge">
<title>Node4&#45;&gt;Node3</title>
<path fill="none" stroke="midnightblue" d="M48.96,-214.66C46.79,-206.57 44.57,-196.89 43.5,-188 41.06,-167.77 47.33,-144.25 51.38,-131.79"/>
<polygon fill="midnightblue" stroke="midnightblue" points="45.66,-215.83 51.77,-224.49 52.39,-213.91 45.66,-215.83"/>
</g>
<!-- Node5 -->
<g id="node5" class="node">
<title>Node5</title>
<g id="a_node5"><a xlink:href="class_backtrack.html" target="_top" xlink:title=" ">
<polygon fill="white" stroke="black" points="53,-168.5 53,-187.5 118,-187.5 118,-168.5 53,-168.5"/>
<text text-anchor="middle" x="85.5" y="-175.5" font-family="Helvetica,sans-Serif" font-size="10.00">Backtrack</text>
</a>
</g>
</g>
<!-- Node4&#45;&gt;Node5 -->
<g id="edge5" class="edge">
<title>Node4&#45;&gt;Node5</title>
<path fill="none" stroke="midnightblue" d="M64.68,-215.27C69.97,-206.05 76.22,-195.17 80.48,-187.75"/>
<polygon fill="midnightblue" stroke="midnightblue" points="61.56,-213.67 59.62,-224.08 67.63,-217.15 61.56,-213.67"/>
</g>
<!-- Node5&#45;&gt;Node3 -->
<g id="edge4" class="edge">
<title>Node5&#45;&gt;Node3</title>
<path fill="none" stroke="midnightblue" d="M75.32,-159.27C70.03,-150.05 63.78,-139.17 59.52,-131.75"/>
<polygon fill="midnightblue" stroke="midnightblue" points="72.37,-161.15 80.38,-168.08 78.44,-157.67 72.37,-161.15"/>
</g>
</g>
</svg>
