<?xml version="1.0" encoding="UTF-8" standalone="no"?>
<!DOCTYPE svg PUBLIC "-//W3C//DTD SVG 1.1//EN"
 "http://www.w3.org/Graphics/SVG/1.1/DTD/svg11.dtd">
<!-- Generated by graphviz version 2.43.0 (0)
 -->
<!-- Title: Graphical Class Hierarchy Pages: 1 -->
<svg width="342pt" height="330pt"
 viewBox="0.00 0.00 342.00 330.00" xmlns="http://www.w3.org/2000/svg" xmlns:xlink="http://www.w3.org/1999/xlink">
<g id="graph0" class="graph" transform="scale(1 1) rotate(0) translate(4 326)">
<title>Graphical Class Hierarchy</title>
<!-- Node0 -->
<g id="Node000000" class="node">
<title>Node0</title>
<g id="a_Node000000"><a xlink:title=" ">
<polygon fill="#e0e0e0" stroke="#999999" points="84,-181.5 0,-181.5 0,-162.5 84,-162.5 84,-181.5"/>
<text text-anchor="middle" x="42" y="-169.5" font-family="Helvetica,sans-Serif" font-size="10.00">std::true_type</text>
</a>
</g>
</g>
<!-- Node1 -->
<g id="Node000001" class="node">
<title>Node1</title>
<g id="a_Node000001"><a xlink:href="struct_p4_1_1_i_r_1_1has__static__type__name_3_01_t_00_01std_1_1void__t_3_01decltype_07_t_1_1static__type__name_07_08_08_4_01_4.html" target="_top" xlink:title=" ">
<polygon fill="white" stroke="#666666" points="298,-322 156,-322 156,-270 298,-270 298,-322"/>
<text text-anchor="start" x="164" y="-310" font-family="Helvetica,sans-Serif" font-size="10.00">P4::IR::has_static</text>
<text text-anchor="start" x="164" y="-299" font-family="Helvetica,sans-Serif" font-size="10.00">_type_name&lt; T, std::</text>
<text text-anchor="start" x="164" y="-288" font-family="Helvetica,sans-Serif" font-size="10.00">void_t&lt; decltype(T::static</text>
<text text-anchor="middle" x="227" y="-277" font-family="Helvetica,sans-Serif" font-size="10.00">_type_name())&gt; &gt;</text>
</a>
</g>
</g>
<!-- Node0&#45;&gt;Node1 -->
<g id="edge1189_Node000000_Node000001" class="edge">
<title>Node0&#45;&gt;Node1</title>
<g id="a_edge1189_Node000000_Node000001"><a xlink:title=" ">
<path fill="none" stroke="#63b8ff" d="M54.25,-190.07C67.61,-210.11 91.68,-242.11 120,-261 130.88,-268.26 143.4,-274.12 155.92,-278.82"/>
<polygon fill="#63b8ff" stroke="#63b8ff" points="57.11,-188.04 48.73,-181.54 51.23,-191.84 57.11,-188.04"/>
</a>
</g>
</g>
<!-- Node2 -->
<g id="Node000002" class="node">
<title>Node2</title>
<g id="a_Node000002"><a xlink:href="struct_p4_1_1_util_1_1has___source_info_3_01_t_00_01std_1_1void__t_3_01decltype_07std_1_1declvaleceb1e5b41b0ceab45c2091dafb42308.html" target="_top" xlink:title=" ">
<polygon fill="white" stroke="#666666" points="334,-251.5 120,-251.5 120,-210.5 334,-210.5 334,-251.5"/>
<text text-anchor="start" x="128" y="-239.5" font-family="Helvetica,sans-Serif" font-size="10.00">P4::Util::has_SourceInfo</text>
<text text-anchor="start" x="128" y="-228.5" font-family="Helvetica,sans-Serif" font-size="10.00">&lt; T, std::void_t&lt; decltype</text>
<text text-anchor="middle" x="227" y="-217.5" font-family="Helvetica,sans-Serif" font-size="10.00">(std::declval&lt; T &gt;().getSourceInfo())&gt; &gt;</text>
</a>
</g>
</g>
<!-- Node0&#45;&gt;Node2 -->
<g id="edge1190_Node000000_Node000002" class="edge">
<title>Node0&#45;&gt;Node2</title>
<g id="a_edge1190_Node000000_Node000002"><a xlink:title=" ">
<path fill="none" stroke="#63b8ff" d="M75.16,-185.39C88.86,-190.87 105.09,-197.07 120,-202 128.79,-204.9 138.05,-207.75 147.29,-210.45"/>
<polygon fill="#63b8ff" stroke="#63b8ff" points="76.27,-182.07 65.68,-181.56 73.64,-188.56 76.27,-182.07"/>
</a>
</g>
</g>
<!-- Node3 -->
<g id="Node000003" class="node">
<title>Node3</title>
<g id="a_Node000003"><a xlink:href="struct_p4_1_1_util_1_1has__to_string_3_01_t_00_01std_1_1void__t_3_01decltype_07std_1_1declval_3_acb3d703214236ac0dfb06e6517d195f.html" target="_top" xlink:title=" ">
<polygon fill="white" stroke="#666666" points="319.5,-192.5 134.5,-192.5 134.5,-151.5 319.5,-151.5 319.5,-192.5"/>
<text text-anchor="start" x="142.5" y="-180.5" font-family="Helvetica,sans-Serif" font-size="10.00">P4::Util::has_toString</text>
<text text-anchor="start" x="142.5" y="-169.5" font-family="Helvetica,sans-Serif" font-size="10.00">&lt; T, std::void_t&lt; decltype</text>
<text text-anchor="middle" x="227" y="-158.5" font-family="Helvetica,sans-Serif" font-size="10.00">(std::declval&lt; T &gt;().toString())&gt; &gt;</text>
</a>
</g>
</g>
<!-- Node0&#45;&gt;Node3 -->
<g id="edge1191_Node000000_Node000003" class="edge">
<title>Node0&#45;&gt;Node3</title>
<g id="a_edge1191_Node000000_Node000003"><a xlink:title=" ">
<path fill="none" stroke="#63b8ff" d="M94.24,-172C106.73,-172 120.46,-172 134.21,-172"/>
<polygon fill="#63b8ff" stroke="#63b8ff" points="94.07,-168.5 84.07,-172 94.07,-175.5 94.07,-168.5"/>
</a>
</g>
</g>
<!-- Node4 -->
<g id="Node000004" class="node">
<title>Node4</title>
<g id="a_Node000004"><a xlink:href="struct_p4_1_1has__dbprint_3_01_t_00_01std_1_1void__t_3_01decltype_07std_1_1declval_3_01_t_01_4_012206707ff62b52b5f3b6b59b578fd59.html" target="_top" xlink:title=" ">
<polygon fill="white" stroke="#666666" points="302,-133.5 152,-133.5 152,-70.5 302,-70.5 302,-133.5"/>
<text text-anchor="start" x="160" y="-121.5" font-family="Helvetica,sans-Serif" font-size="10.00">P4::has_dbprint&lt; T,</text>
<text text-anchor="start" x="160" y="-110.5" font-family="Helvetica,sans-Serif" font-size="10.00"> std::void_t&lt; decltype</text>
<text text-anchor="start" x="160" y="-99.5" font-family="Helvetica,sans-Serif" font-size="10.00">(std::declval&lt; T &gt;().dbprint</text>
<text text-anchor="start" x="160" y="-88.5" font-family="Helvetica,sans-Serif" font-size="10.00">(std::declval&lt; std::ostream</text>
<text text-anchor="middle" x="227" y="-77.5" font-family="Helvetica,sans-Serif" font-size="10.00"> &amp; &gt;()))&gt; &gt;</text>
</a>
</g>
</g>
<!-- Node0&#45;&gt;Node4 -->
<g id="edge1192_Node000000_Node000004" class="edge">
<title>Node0&#45;&gt;Node4</title>
<g id="a_edge1192_Node000000_Node000004"><a xlink:title=" ">
<path fill="none" stroke="#63b8ff" d="M77.5,-158.8C98.5,-150.77 126.16,-140.19 151.9,-130.34"/>
<polygon fill="#63b8ff" stroke="#63b8ff" points="76.15,-155.57 68.06,-162.41 78.65,-162.11 76.15,-155.57"/>
</a>
</g>
</g>
<!-- Node5 -->
<g id="Node000005" class="node">
<title>Node5</title>
<g id="a_Node000005"><a xlink:href="struct_p4_1_1has__ostream__operator_3_01_t_00_01std_1_1void__t_3_01decltype_07std_1_1declval_3_0b23eeecb7e72d387dfbaa930aade2e05.html" target="_top" xlink:title=" ">
<polygon fill="white" stroke="#666666" points="317.5,-52 136.5,-52 136.5,0 317.5,0 317.5,-52"/>
<text text-anchor="start" x="144.5" y="-40" font-family="Helvetica,sans-Serif" font-size="10.00">P4::has_ostream_operator</text>
<text text-anchor="start" x="144.5" y="-29" font-family="Helvetica,sans-Serif" font-size="10.00">&lt; T, std::void_t&lt; decltype</text>
<text text-anchor="start" x="144.5" y="-18" font-family="Helvetica,sans-Serif" font-size="10.00">(std::declval&lt; std::ostream</text>
<text text-anchor="middle" x="227" y="-7" font-family="Helvetica,sans-Serif" font-size="10.00"> &amp; &gt;()&lt;&lt; std::declval&lt; T &gt;())&gt; &gt;</text>
</a>
</g>
</g>
<!-- Node0&#45;&gt;Node5 -->
<g id="edge1193_Node000000_Node000005" class="edge">
<title>Node0&#45;&gt;Node5</title>
<g id="a_edge1193_Node000000_Node000005"><a xlink:title=" ">
<path fill="none" stroke="#63b8ff" d="M51.63,-152.92C63.61,-128.47 87.53,-86.36 120,-62 125.05,-58.21 130.53,-54.8 136.24,-51.74"/>
<polygon fill="#63b8ff" stroke="#63b8ff" points="48.34,-151.67 47.23,-162.21 54.67,-154.67 48.34,-151.67"/>
</a>
</g>
</g>
</g>
</svg>
