<?xml version="1.0" encoding="UTF-8" standalone="no"?>
<!DOCTYPE svg PUBLIC "-//W3C//DTD SVG 1.1//EN"
 "http://www.w3.org/Graphics/SVG/1.1/DTD/svg11.dtd">
<!-- Generated by graphviz version 2.43.0 (0)
 -->
<!-- Title: Graphical Class Hierarchy Pages: 1 -->
<svg width="533pt" height="134pt"
 viewBox="0.00 0.00 533.00 134.00" xmlns="http://www.w3.org/2000/svg" xmlns:xlink="http://www.w3.org/1999/xlink">
<g id="graph0" class="graph" transform="scale(1 1) rotate(0) translate(4 130)">
<title>Graphical Class Hierarchy</title>
<!-- Node0 -->
<g id="Node000000" class="node">
<title>Node0</title>
<g id="a_Node000000"><a xlink:href="class_p4_tools_1_1_p4_testgen_1_1_table_stepper.html" target="_top" xlink:title="Implements small&#45;step operational semantics for tables.">
<polygon fill="white" stroke="#666666" points="109,-78 0,-78 0,-48 109,-48 109,-78"/>
<text text-anchor="start" x="8" y="-66" font-family="Helvetica,sans-Serif" font-size="10.00">P4Tools::P4Testgen</text>
<text text-anchor="middle" x="54.5" y="-55" font-family="Helvetica,sans-Serif" font-size="10.00">::TableStepper</text>
</a>
</g>
</g>
<!-- Node1 -->
<g id="Node000001" class="node">
<title>Node1</title>
<g id="a_Node000001"><a xlink:href="class_p4_tools_1_1_p4_testgen_1_1_bmv2_1_1_bmv2_v1_model_table_stepper.html" target="_top" xlink:title=" ">
<polygon fill="white" stroke="#666666" points="336,-126 145,-126 145,-96 336,-96 336,-126"/>
<text text-anchor="start" x="153" y="-114" font-family="Helvetica,sans-Serif" font-size="10.00">P4Tools::P4Testgen</text>
<text text-anchor="middle" x="240.5" y="-103" font-family="Helvetica,sans-Serif" font-size="10.00">::Bmv2::Bmv2V1ModelTableStepper</text>
</a>
</g>
</g>
<!-- Node0&#45;&gt;Node1 -->
<g id="edge1038_Node000000_Node000001" class="edge">
<title>Node0&#45;&gt;Node1</title>
<g id="a_edge1038_Node000000_Node000001"><a xlink:title=" ">
<path fill="none" stroke="#63b8ff" d="M119.15,-80.18C127.83,-82.49 136.63,-84.82 145,-87 156.22,-89.93 168.2,-93.01 179.73,-95.95"/>
<polygon fill="#63b8ff" stroke="#63b8ff" points="119.99,-76.78 109.42,-77.58 118.18,-83.54 119.99,-76.78"/>
</a>
</g>
</g>
<!-- Node2 -->
<g id="Node000002" class="node">
<title>Node2</title>
<g id="a_Node000002"><a xlink:href="class_p4_tools_1_1_p4_testgen_1_1_e_b_p_f_1_1_e_b_p_f_table_stepper.html" target="_top" xlink:title=" ">
<polygon fill="white" stroke="#666666" points="310.5,-78 170.5,-78 170.5,-48 310.5,-48 310.5,-78"/>
<text text-anchor="start" x="178.5" y="-66" font-family="Helvetica,sans-Serif" font-size="10.00">P4Tools::P4Testgen</text>
<text text-anchor="middle" x="240.5" y="-55" font-family="Helvetica,sans-Serif" font-size="10.00">::EBPF::EBPFTableStepper</text>
</a>
</g>
</g>
<!-- Node0&#45;&gt;Node2 -->
<g id="edge1039_Node000000_Node000002" class="edge">
<title>Node0&#45;&gt;Node2</title>
<g id="a_edge1039_Node000000_Node000002"><a xlink:title=" ">
<path fill="none" stroke="#63b8ff" d="M119.28,-63C135.75,-63 153.55,-63 170.29,-63"/>
<polygon fill="#63b8ff" stroke="#63b8ff" points="119.22,-59.5 109.22,-63 119.22,-66.5 119.22,-59.5"/>
</a>
</g>
</g>
<!-- Node3 -->
<g id="Node000003" class="node">
<title>Node3</title>
<g id="a_Node000003"><a xlink:href="class_p4_tools_1_1_p4_testgen_1_1_pna_1_1_shared_pna_table_stepper.html" target="_top" xlink:title=" ">
<polygon fill="white" stroke="#666666" points="321,-30 160,-30 160,0 321,0 321,-30"/>
<text text-anchor="start" x="168" y="-18" font-family="Helvetica,sans-Serif" font-size="10.00">P4Tools::P4Testgen</text>
<text text-anchor="middle" x="240.5" y="-7" font-family="Helvetica,sans-Serif" font-size="10.00">::Pna::SharedPnaTableStepper</text>
</a>
</g>
</g>
<!-- Node0&#45;&gt;Node3 -->
<g id="edge1040_Node000000_Node000003" class="edge">
<title>Node0&#45;&gt;Node3</title>
<g id="a_edge1040_Node000000_Node000003"><a xlink:title=" ">
<path fill="none" stroke="#63b8ff" d="M119.15,-45.82C127.83,-43.51 136.63,-41.18 145,-39 156.22,-36.07 168.2,-32.99 179.73,-30.05"/>
<polygon fill="#63b8ff" stroke="#63b8ff" points="118.18,-42.46 109.42,-48.42 119.99,-49.22 118.18,-42.46"/>
</a>
</g>
</g>
<!-- Node4 -->
<g id="Node000004" class="node">
<title>Node4</title>
<g id="a_Node000004"><a xlink:href="class_p4_tools_1_1_p4_testgen_1_1_pna_1_1_pna_dpdk_table_stepper.html" target="_top" xlink:title=" ">
<polygon fill="white" stroke="#666666" points="525,-30 372,-30 372,0 525,0 525,-30"/>
<text text-anchor="start" x="380" y="-18" font-family="Helvetica,sans-Serif" font-size="10.00">P4Tools::P4Testgen</text>
<text text-anchor="middle" x="448.5" y="-7" font-family="Helvetica,sans-Serif" font-size="10.00">::Pna::PnaDpdkTableStepper</text>
</a>
</g>
</g>
<!-- Node3&#45;&gt;Node4 -->
<g id="edge1041_Node000003_Node000004" class="edge">
<title>Node3&#45;&gt;Node4</title>
<g id="a_edge1041_Node000003_Node000004"><a xlink:title=" ">
<path fill="none" stroke="#63b8ff" d="M331.38,-15C344.86,-15 358.64,-15 371.79,-15"/>
<polygon fill="#63b8ff" stroke="#63b8ff" points="331.15,-11.5 321.14,-15 331.14,-18.5 331.15,-11.5"/>
</a>
</g>
</g>
</g>
</svg>
