<?xml version="1.0" encoding="UTF-8" standalone="no"?>
<!DOCTYPE svg PUBLIC "-//W3C//DTD SVG 1.1//EN"
 "http://www.w3.org/Graphics/SVG/1.1/DTD/svg11.dtd">
<!-- Generated by graphviz version 2.43.0 (0)
 -->
<!-- Title: Graphical Class Hierarchy Pages: 1 -->
<svg width="323pt" height="86pt"
 viewBox="0.00 0.00 323.00 86.00" xmlns="http://www.w3.org/2000/svg" xmlns:xlink="http://www.w3.org/1999/xlink">
<g id="graph0" class="graph" transform="scale(1 1) rotate(0) translate(4 82)">
<title>Graphical Class Hierarchy</title>
<!-- Node0 -->
<g id="Node000000" class="node">
<title>Node0</title>
<g id="a_Node000000"><a xlink:href="class_p4_1_1_util_1_1_enumerator.html" target="_top" xlink:title=" ">
<polygon fill="white" stroke="#666666" points="143,-48.5 0,-48.5 0,-29.5 143,-29.5 143,-48.5"/>
<text text-anchor="middle" x="71.5" y="-36.5" font-family="Helvetica,sans-Serif" font-size="10.00">P4::Util::Enumerator&lt; S &gt;</text>
</a>
</g>
</g>
<!-- Node1 -->
<g id="Node000001" class="node">
<title>Node1</title>
<g id="a_Node000001"><a xlink:href="class_p4_1_1_util_1_1_as_enumerator.html" target="_top" xlink:title="Casts each element.">
<polygon fill="white" stroke="#666666" points="310.5,-78 183.5,-78 183.5,-48 310.5,-48 310.5,-78"/>
<text text-anchor="start" x="191.5" y="-66" font-family="Helvetica,sans-Serif" font-size="10.00">P4::Util::AsEnumerator</text>
<text text-anchor="middle" x="247" y="-55" font-family="Helvetica,sans-Serif" font-size="10.00">&lt; T, S &gt;</text>
</a>
</g>
</g>
<!-- Node0&#45;&gt;Node1 -->
<g id="edge1144_Node000000_Node000001" class="edge">
<title>Node0&#45;&gt;Node1</title>
<g id="a_edge1144_Node000000_Node000001"><a xlink:title=" ">
<path fill="none" stroke="#63b8ff" d="M151.68,-49.95C162.3,-51.42 173.07,-52.91 183.35,-54.33"/>
<polygon fill="#63b8ff" stroke="#63b8ff" points="151.96,-46.46 141.57,-48.55 151,-53.39 151.96,-46.46"/>
</a>
</g>
</g>
<!-- Node2 -->
<g id="Node000002" class="node">
<title>Node2</title>
<g id="a_Node000002"><a xlink:href="class_p4_1_1_util_1_1_map_enumerator.html" target="_top" xlink:title="Transforms all elements from type T to type S.">
<polygon fill="white" stroke="#666666" points="315,-30 179,-30 179,0 315,0 315,-30"/>
<text text-anchor="start" x="187" y="-18" font-family="Helvetica,sans-Serif" font-size="10.00">P4::Util::MapEnumerator</text>
<text text-anchor="middle" x="247" y="-7" font-family="Helvetica,sans-Serif" font-size="10.00">&lt; T, S, Mapper &gt;</text>
</a>
</g>
</g>
<!-- Node0&#45;&gt;Node2 -->
<g id="edge1145_Node000000_Node000002" class="edge">
<title>Node0&#45;&gt;Node2</title>
<g id="a_edge1145_Node000000_Node000002"><a xlink:title=" ">
<path fill="none" stroke="#63b8ff" d="M151.74,-28.04C160.8,-26.79 169.98,-25.52 178.86,-24.29"/>
<polygon fill="#63b8ff" stroke="#63b8ff" points="151,-24.61 141.57,-29.45 151.96,-31.54 151,-24.61"/>
</a>
</g>
</g>
</g>
</svg>
