<?xml version="1.0" encoding="UTF-8" standalone="no"?>
<!DOCTYPE svg PUBLIC "-//W3C//DTD SVG 1.1//EN"
 "http://www.w3.org/Graphics/SVG/1.1/DTD/svg11.dtd">
<!-- Generated by graphviz version 2.43.0 (0)
 -->
<!-- Title: Graphical Class Hierarchy Pages: 1 -->
<svg width="489pt" height="1537pt"
 viewBox="0.00 0.00 489.00 1537.00" xmlns="http://www.w3.org/2000/svg" xmlns:xlink="http://www.w3.org/1999/xlink">
<g id="graph0" class="graph" transform="scale(1 1) rotate(0) translate(4 1533)">
<title>Graphical Class Hierarchy</title>
<!-- Node0 -->
<g id="Node000000" class="node">
<title>Node0</title>
<g id="a_Node000000"><a xlink:title=" ">
<polygon fill="#e0e0e0" stroke="#999999" points="76,-1035 0,-1035 0,-1016 76,-1016 76,-1035"/>
<text text-anchor="middle" x="38" y="-1023" font-family="Helvetica,sans-Serif" font-size="10.00">testing::Test</text>
</a>
</g>
</g>
<!-- Node1 -->
<g id="Node000001" class="node">
<title>Node1</title>
<g id="a_Node000001"><a xlink:href="class_test_1_1_p4_c_reachability.html" target="_top" xlink:title=" ">
<polygon fill="white" stroke="#666666" points="246,-1399 124,-1399 124,-1380 246,-1380 246,-1399"/>
<text text-anchor="middle" x="185" y="-1387" font-family="Helvetica,sans-Serif" font-size="10.00">Test::P4CReachability</text>
</a>
</g>
</g>
<!-- Node0&#45;&gt;Node1 -->
<g id="edge1053_Node000000_Node000001" class="edge">
<title>Node0&#45;&gt;Node1</title>
<g id="a_edge1053_Node000000_Node000001"><a xlink:title=" ">
<path fill="none" stroke="#63b8ff" d="M40.49,-1045.55C45.83,-1112.06 66.19,-1323.96 112,-1371.5 115.4,-1375.03 119.37,-1377.9 123.68,-1380.24"/>
<polygon fill="#63b8ff" stroke="#63b8ff" points="43.95,-1044.9 39.69,-1035.2 36.97,-1045.44 43.95,-1044.9"/>
</a>
</g>
</g>
<!-- Node2 -->
<g id="Node000002" class="node">
<title>Node2</title>
<g id="a_Node000002"><a xlink:href="class_test_1_1_p4_tools_test.html" target="_top" xlink:title="GTest for P4 Tools tests.">
<polygon fill="white" stroke="#666666" points="234,-1362 136,-1362 136,-1343 234,-1343 234,-1362"/>
<text text-anchor="middle" x="185" y="-1350" font-family="Helvetica,sans-Serif" font-size="10.00">Test::P4ToolsTest</text>
</a>
</g>
</g>
<!-- Node0&#45;&gt;Node2 -->
<g id="edge1054_Node000000_Node000002" class="edge">
<title>Node0&#45;&gt;Node2</title>
<g id="a_edge1054_Node000000_Node000002"><a xlink:title=" ">
<path fill="none" stroke="#63b8ff" d="M47.47,-1044.59C74.72,-1106.05 159.53,-1297.33 179.68,-1342.75"/>
<polygon fill="#63b8ff" stroke="#63b8ff" points="50.59,-1043.01 43.34,-1035.29 44.19,-1045.85 50.59,-1043.01"/>
</a>
</g>
</g>
<!-- Node11 -->
<g id="Node000011" class="node">
<title>Node11</title>
<g id="a_Node000011"><a xlink:href="class_test_1_1_z3_solver_sat_tests.html" target="_top" xlink:title=" ">
<polygon fill="white" stroke="#666666" points="248,-1035 122,-1035 122,-1016 248,-1016 248,-1035"/>
<text text-anchor="middle" x="185" y="-1023" font-family="Helvetica,sans-Serif" font-size="10.00">Test::Z3SolverSatTests</text>
</a>
</g>
</g>
<!-- Node0&#45;&gt;Node11 -->
<g id="edge1063_Node000000_Node000011" class="edge">
<title>Node0&#45;&gt;Node11</title>
<g id="a_edge1063_Node000000_Node000011"><a xlink:title=" ">
<path fill="none" stroke="#63b8ff" d="M86.41,-1025.5C97.7,-1025.5 109.91,-1025.5 121.76,-1025.5"/>
<polygon fill="#63b8ff" stroke="#63b8ff" points="86.34,-1022 76.34,-1025.5 86.34,-1029 86.34,-1022"/>
</a>
</g>
</g>
<!-- Node22 -->
<g id="Node000022" class="node">
<title>Node22</title>
<g id="a_Node000022"><a xlink:href="class_test_1_1_z3_solver_satisfiability_checks.html" target="_top" xlink:title=" ">
<polygon fill="white" stroke="#666666" points="258,-997.5 112,-997.5 112,-967.5 258,-967.5 258,-997.5"/>
<text text-anchor="start" x="120" y="-985.5" font-family="Helvetica,sans-Serif" font-size="10.00">Test::Z3SolverSatisfiability</text>
<text text-anchor="middle" x="185" y="-974.5" font-family="Helvetica,sans-Serif" font-size="10.00">Checks</text>
</a>
</g>
</g>
<!-- Node0&#45;&gt;Node22 -->
<g id="edge1074_Node000000_Node000022" class="edge">
<title>Node0&#45;&gt;Node22</title>
<g id="a_edge1074_Node000000_Node000022"><a xlink:title=" ">
<path fill="none" stroke="#63b8ff" d="M81.01,-1013.04C97.38,-1008.19 116.29,-1002.58 133.4,-997.51"/>
<polygon fill="#63b8ff" stroke="#63b8ff" points="79.77,-1009.76 71.18,-1015.96 81.76,-1016.47 79.77,-1009.76"/>
</a>
</g>
</g>
<!-- Node23 -->
<g id="Node000023" class="node">
<title>Node23</title>
<g id="a_Node000023"><a xlink:href="class_test_1_1_z3_solver_tests.html" target="_top" xlink:title=" ">
<polygon fill="white" stroke="#666666" points="240,-382 130,-382 130,-363 240,-363 240,-382"/>
<text text-anchor="middle" x="185" y="-370" font-family="Helvetica,sans-Serif" font-size="10.00">Test::Z3SolverTests</text>
</a>
</g>
</g>
<!-- Node0&#45;&gt;Node23 -->
<g id="edge1075_Node000000_Node000023" class="edge">
<title>Node0&#45;&gt;Node23</title>
<g id="a_edge1075_Node000000_Node000023"><a xlink:title=" ">
<path fill="none" stroke="#63b8ff" d="M43.38,-1005.78C65.63,-905.56 165.77,-454.6 181.83,-382.29"/>
<polygon fill="#63b8ff" stroke="#63b8ff" points="39.91,-1005.24 41.16,-1015.76 46.75,-1006.76 39.91,-1005.24"/>
</a>
</g>
</g>
<!-- Node3 -->
<g id="Node000003" class="node">
<title>Node3</title>
<g id="a_Node000003"><a xlink:href="class_test_1_1_format_test.html" target="_top" xlink:title="Helper methods to build configurations for Format Tests.">
<polygon fill="white" stroke="#666666" points="435.5,-1529 339.5,-1529 339.5,-1510 435.5,-1510 435.5,-1529"/>
<text text-anchor="middle" x="387.5" y="-1517" font-family="Helvetica,sans-Serif" font-size="10.00">Test::FormatTest</text>
</a>
</g>
</g>
<!-- Node2&#45;&gt;Node3 -->
<g id="edge1055_Node000002_Node000003" class="edge">
<title>Node2&#45;&gt;Node3</title>
<g id="a_edge1055_Node000002_Node000003"><a xlink:title=" ">
<path fill="none" stroke="#63b8ff" d="M243.89,-1361.72C249.09,-1364.26 253.92,-1367.47 258,-1371.5 300.65,-1413.63 249.99,-1460.79 294,-1501.5 306.13,-1512.72 323.09,-1517.89 339.17,-1520.03"/>
<polygon fill="#63b8ff" stroke="#63b8ff" points="244.81,-1358.32 234.23,-1357.82 242.19,-1364.81 244.81,-1358.32"/>
</a>
</g>
</g>
<!-- Node4 -->
<g id="Node000004" class="node">
<title>Node4</title>
<g id="a_Node000004"><a xlink:href="class_test_1_1_p4_asserts_parser_test.html" target="_top" xlink:title=" ">
<polygon fill="white" stroke="#666666" points="457.5,-1492 317.5,-1492 317.5,-1473 457.5,-1473 457.5,-1492"/>
<text text-anchor="middle" x="387.5" y="-1480" font-family="Helvetica,sans-Serif" font-size="10.00">Test::P4AssertsParserTest</text>
</a>
</g>
</g>
<!-- Node2&#45;&gt;Node4 -->
<g id="edge1056_Node000002_Node000004" class="edge">
<title>Node2&#45;&gt;Node4</title>
<g id="a_edge1056_Node000002_Node000004"><a xlink:title=" ">
<path fill="none" stroke="#63b8ff" d="M243.72,-1362.25C248.91,-1364.69 253.78,-1367.73 258,-1371.5 291.04,-1401.05 260.01,-1436.05 294,-1464.5 300.78,-1470.17 308.81,-1474.25 317.27,-1477.16"/>
<polygon fill="#63b8ff" stroke="#63b8ff" points="244.7,-1358.87 234.11,-1358.46 242.13,-1365.39 244.7,-1358.87"/>
</a>
</g>
</g>
<!-- Node5 -->
<g id="Node000005" class="node">
<title>Node5</title>
<g id="a_Node000005"><a xlink:href="class_test_1_1_p4_runtime_api_test.html" target="_top" xlink:title="Helper methods to build configurations for P4RuntimeApi Tests.">
<polygon fill="white" stroke="#666666" points="453,-1455 322,-1455 322,-1436 453,-1436 453,-1455"/>
<text text-anchor="middle" x="387.5" y="-1443" font-family="Helvetica,sans-Serif" font-size="10.00">Test::P4RuntimeApiTest</text>
</a>
</g>
</g>
<!-- Node2&#45;&gt;Node5 -->
<g id="edge1057_Node000002_Node000005" class="edge">
<title>Node2&#45;&gt;Node5</title>
<g id="a_edge1057_Node000002_Node000005"><a xlink:title=" ">
<path fill="none" stroke="#63b8ff" d="M244.04,-1363.63C248.99,-1365.8 253.73,-1368.4 258,-1371.5 281.93,-1388.9 269.51,-1410.9 294,-1427.5 302.26,-1433.1 311.84,-1437.05 321.63,-1439.83"/>
<polygon fill="#63b8ff" stroke="#63b8ff" points="244.92,-1360.22 234.33,-1359.95 242.44,-1366.76 244.92,-1360.22"/>
</a>
</g>
</g>
<!-- Node6 -->
<g id="Node000006" class="node">
<title>Node6</title>
<g id="a_Node000006"><a xlink:href="class_test_1_1_p_t_f_test.html" target="_top" xlink:title="Helper methods to build configurations for PTF Tests.">
<polygon fill="white" stroke="#666666" points="427,-1418 348,-1418 348,-1399 427,-1399 427,-1418"/>
<text text-anchor="middle" x="387.5" y="-1406" font-family="Helvetica,sans-Serif" font-size="10.00">Test::PTFTest</text>
</a>
</g>
</g>
<!-- Node2&#45;&gt;Node6 -->
<g id="edge1058_Node000002_Node000006" class="edge">
<title>Node2&#45;&gt;Node6</title>
<g id="a_edge1058_Node000002_Node000006"><a xlink:title=" ">
<path fill="none" stroke="#63b8ff" d="M238.47,-1364.84C245.12,-1366.85 251.77,-1369.07 258,-1371.5 274.86,-1378.07 276.94,-1384.49 294,-1390.5 311.13,-1396.54 330.79,-1400.72 347.57,-1403.53"/>
<polygon fill="#63b8ff" stroke="#63b8ff" points="239.35,-1361.46 228.77,-1362.07 237.43,-1368.19 239.35,-1361.46"/>
</a>
</g>
</g>
<!-- Node7 -->
<g id="Node000007" class="node">
<title>Node7</title>
<g id="a_Node000007"><a xlink:href="class_test_1_1_s_t_f_test.html" target="_top" xlink:title="Helper methods to build configurations for STF Tests.">
<polygon fill="white" stroke="#666666" points="427,-1381 348,-1381 348,-1362 427,-1362 427,-1381"/>
<text text-anchor="middle" x="387.5" y="-1369" font-family="Helvetica,sans-Serif" font-size="10.00">Test::STFTest</text>
</a>
</g>
</g>
<!-- Node2&#45;&gt;Node7 -->
<g id="edge1059_Node000002_Node000007" class="edge">
<title>Node2&#45;&gt;Node7</title>
<g id="a_edge1059_Node000002_Node000007"><a xlink:title=" ">
<path fill="none" stroke="#63b8ff" d="M244.12,-1358.01C277.5,-1361.17 318.51,-1365.06 347.92,-1367.84"/>
<polygon fill="#63b8ff" stroke="#63b8ff" points="244.31,-1354.51 234.02,-1357.05 243.65,-1361.48 244.31,-1354.51"/>
</a>
</g>
</g>
<!-- Node8 -->
<g id="Node000008" class="node">
<title>Node8</title>
<g id="a_Node000008"><a xlink:href="class_test_1_1_small_step_test.html" target="_top" xlink:title=" ">
<polygon fill="white" stroke="#666666" points="443,-1344 332,-1344 332,-1325 443,-1325 443,-1344"/>
<text text-anchor="middle" x="387.5" y="-1332" font-family="Helvetica,sans-Serif" font-size="10.00">Test::SmallStepTest</text>
</a>
</g>
</g>
<!-- Node2&#45;&gt;Node8 -->
<g id="edge1060_Node000002_Node000008" class="edge">
<title>Node2&#45;&gt;Node8</title>
<g id="a_edge1060_Node000002_Node000008"><a xlink:title=" ">
<path fill="none" stroke="#63b8ff" d="M244.32,-1347.26C271.91,-1344.79 304.67,-1341.85 331.78,-1339.41"/>
<polygon fill="#63b8ff" stroke="#63b8ff" points="243.67,-1343.81 234.02,-1348.19 244.3,-1350.78 243.67,-1343.81"/>
</a>
</g>
</g>
<!-- Node9 -->
<g id="Node000009" class="node">
<title>Node9</title>
<g id="a_Node000009"><a xlink:href="class_test_1_1_taint_test.html" target="_top" xlink:title="Helper methods to build configurations for Taint Tests.">
<polygon fill="white" stroke="#666666" points="430,-1307 345,-1307 345,-1288 430,-1288 430,-1307"/>
<text text-anchor="middle" x="387.5" y="-1295" font-family="Helvetica,sans-Serif" font-size="10.00">Test::TaintTest</text>
</a>
</g>
</g>
<!-- Node2&#45;&gt;Node9 -->
<g id="edge1061_Node000002_Node000009" class="edge">
<title>Node2&#45;&gt;Node9</title>
<g id="a_edge1061_Node000002_Node000009"><a xlink:title=" ">
<path fill="none" stroke="#63b8ff" d="M221.37,-1339.53C242.3,-1332.15 269.45,-1323.09 294,-1316.5 310.47,-1312.08 328.82,-1308.12 344.81,-1304.97"/>
<polygon fill="#63b8ff" stroke="#63b8ff" points="220.17,-1336.24 211.92,-1342.89 222.52,-1342.83 220.17,-1336.24"/>
</a>
</g>
</g>
<!-- Node10 -->
<g id="Node000010" class="node">
<title>Node10</title>
<g id="a_Node000010"><a xlink:href="class_test_1_1_z3_solver_test.html" target="_top" xlink:title=" ">
<polygon fill="white" stroke="#666666" points="440,-1270 335,-1270 335,-1251 440,-1251 440,-1270"/>
<text text-anchor="middle" x="387.5" y="-1258" font-family="Helvetica,sans-Serif" font-size="10.00">Test::Z3SolverTest</text>
</a>
</g>
</g>
<!-- Node2&#45;&gt;Node10 -->
<g id="edge1062_Node000002_Node000010" class="edge">
<title>Node2&#45;&gt;Node10</title>
<g id="a_edge1062_Node000002_Node000010"><a xlink:title=" ">
<path fill="none" stroke="#63b8ff" d="M205.04,-1336.19C225.62,-1319.42 260.05,-1293.79 294,-1279.5 306.69,-1274.16 321.01,-1270.27 334.53,-1267.47"/>
<polygon fill="#63b8ff" stroke="#63b8ff" points="202.56,-1333.69 197.11,-1342.77 207.04,-1339.08 202.56,-1333.69"/>
</a>
</g>
</g>
<!-- Node12 -->
<g id="Node000012" class="node">
<title>Node12</title>
<g id="a_Node000012"><a xlink:href="class_test_1_1_arithm_test_1_1_z3_solver_add_sat01.html" target="_top" xlink:title=" ">
<polygon fill="white" stroke="#666666" points="459.5,-1232.5 315.5,-1232.5 315.5,-1202.5 459.5,-1202.5 459.5,-1232.5"/>
<text text-anchor="start" x="323.5" y="-1220.5" font-family="Helvetica,sans-Serif" font-size="10.00">Test::ArithmTest::Z3Solver</text>
<text text-anchor="middle" x="387.5" y="-1209.5" font-family="Helvetica,sans-Serif" font-size="10.00">AddSat01</text>
</a>
</g>
</g>
<!-- Node11&#45;&gt;Node12 -->
<g id="edge1064_Node000011_Node000012" class="edge">
<title>Node11&#45;&gt;Node12</title>
<g id="a_edge1064_Node000011_Node000012"><a xlink:title=" ">
<path fill="none" stroke="#63b8ff" d="M192.93,-1044.86C206.56,-1080.09 240.3,-1154.62 294,-1193.5 300.45,-1198.17 307.73,-1201.93 315.31,-1204.96"/>
<polygon fill="#63b8ff" stroke="#63b8ff" points="196.13,-1043.41 189.34,-1035.27 189.57,-1045.86 196.13,-1043.41"/>
</a>
</g>
</g>
<!-- Node13 -->
<g id="Node000013" class="node">
<title>Node13</title>
<g id="a_Node000013"><a xlink:href="class_test_1_1_arithm_test_1_1_z3_solver_add_sat02.html" target="_top" xlink:title=" ">
<polygon fill="white" stroke="#666666" points="459.5,-1184.5 315.5,-1184.5 315.5,-1154.5 459.5,-1154.5 459.5,-1184.5"/>
<text text-anchor="start" x="323.5" y="-1172.5" font-family="Helvetica,sans-Serif" font-size="10.00">Test::ArithmTest::Z3Solver</text>
<text text-anchor="middle" x="387.5" y="-1161.5" font-family="Helvetica,sans-Serif" font-size="10.00">AddSat02</text>
</a>
</g>
</g>
<!-- Node11&#45;&gt;Node13 -->
<g id="edge1065_Node000011_Node000013" class="edge">
<title>Node11&#45;&gt;Node13</title>
<g id="a_edge1065_Node000011_Node000013"><a xlink:title=" ">
<path fill="none" stroke="#63b8ff" d="M197.27,-1043.67C214.69,-1070.19 250.69,-1119.19 294,-1145.5 300.52,-1149.46 307.69,-1152.78 315.05,-1155.55"/>
<polygon fill="#63b8ff" stroke="#63b8ff" points="200.06,-1041.53 191.72,-1035 194.17,-1045.31 200.06,-1041.53"/>
</a>
</g>
</g>
<!-- Node14 -->
<g id="Node000014" class="node">
<title>Node14</title>
<g id="a_Node000014"><a xlink:href="class_test_1_1_arithm_test_1_1_z3_solver_add_sat03.html" target="_top" xlink:title=" ">
<polygon fill="white" stroke="#666666" points="459.5,-1136.5 315.5,-1136.5 315.5,-1106.5 459.5,-1106.5 459.5,-1136.5"/>
<text text-anchor="start" x="323.5" y="-1124.5" font-family="Helvetica,sans-Serif" font-size="10.00">Test::ArithmTest::Z3Solver</text>
<text text-anchor="middle" x="387.5" y="-1113.5" font-family="Helvetica,sans-Serif" font-size="10.00">AddSat03</text>
</a>
</g>
</g>
<!-- Node11&#45;&gt;Node14 -->
<g id="edge1066_Node000011_Node000014" class="edge">
<title>Node11&#45;&gt;Node14</title>
<g id="a_edge1066_Node000011_Node000014"><a xlink:title=" ">
<path fill="none" stroke="#63b8ff" d="M205.56,-1041.5C226.34,-1057.75 260.71,-1082.59 294,-1097.5 301.57,-1100.89 309.71,-1103.87 317.92,-1106.47"/>
<polygon fill="#63b8ff" stroke="#63b8ff" points="207.54,-1038.6 197.53,-1035.11 203.18,-1044.08 207.54,-1038.6"/>
</a>
</g>
</g>
<!-- Node15 -->
<g id="Node000015" class="node">
<title>Node15</title>
<g id="a_Node000015"><a xlink:href="class_test_1_1_arithm_test_1_1_z3_solver_add_sat04.html" target="_top" xlink:title=" ">
<polygon fill="white" stroke="#666666" points="459.5,-1088.5 315.5,-1088.5 315.5,-1058.5 459.5,-1058.5 459.5,-1088.5"/>
<text text-anchor="start" x="323.5" y="-1076.5" font-family="Helvetica,sans-Serif" font-size="10.00">Test::ArithmTest::Z3Solver</text>
<text text-anchor="middle" x="387.5" y="-1065.5" font-family="Helvetica,sans-Serif" font-size="10.00">AddSat04</text>
</a>
</g>
</g>
<!-- Node11&#45;&gt;Node15 -->
<g id="edge1067_Node000011_Node000015" class="edge">
<title>Node11&#45;&gt;Node15</title>
<g id="a_edge1067_Node000011_Node000015"><a xlink:title=" ">
<path fill="none" stroke="#63b8ff" d="M235.93,-1037.45C262.45,-1043.8 295.32,-1051.67 323.58,-1058.44"/>
<polygon fill="#63b8ff" stroke="#63b8ff" points="236.63,-1034.02 226.09,-1035.1 235,-1040.83 236.63,-1034.02"/>
</a>
</g>
</g>
<!-- Node16 -->
<g id="Node000016" class="node">
<title>Node16</title>
<g id="a_Node000016"><a xlink:href="class_test_1_1_arithm_test_1_1_z3_solver_add_sat05.html" target="_top" xlink:title=" ">
<polygon fill="white" stroke="#666666" points="459.5,-1040.5 315.5,-1040.5 315.5,-1010.5 459.5,-1010.5 459.5,-1040.5"/>
<text text-anchor="start" x="323.5" y="-1028.5" font-family="Helvetica,sans-Serif" font-size="10.00">Test::ArithmTest::Z3Solver</text>
<text text-anchor="middle" x="387.5" y="-1017.5" font-family="Helvetica,sans-Serif" font-size="10.00">AddSat05</text>
</a>
</g>
</g>
<!-- Node11&#45;&gt;Node16 -->
<g id="edge1068_Node000011_Node000016" class="edge">
<title>Node11&#45;&gt;Node16</title>
<g id="a_edge1068_Node000011_Node000016"><a xlink:title=" ">
<path fill="none" stroke="#63b8ff" d="M258.22,-1025.5C276.79,-1025.5 296.75,-1025.5 315.26,-1025.5"/>
<polygon fill="#63b8ff" stroke="#63b8ff" points="258.07,-1022 248.07,-1025.5 258.07,-1029 258.07,-1022"/>
</a>
</g>
</g>
<!-- Node17 -->
<g id="Node000017" class="node">
<title>Node17</title>
<g id="a_Node000017"><a xlink:href="class_test_1_1_arithm_test_1_1_z3_solver_sub_sat01.html" target="_top" xlink:title=" ">
<polygon fill="white" stroke="#666666" points="459.5,-992.5 315.5,-992.5 315.5,-962.5 459.5,-962.5 459.5,-992.5"/>
<text text-anchor="start" x="323.5" y="-980.5" font-family="Helvetica,sans-Serif" font-size="10.00">Test::ArithmTest::Z3Solver</text>
<text text-anchor="middle" x="387.5" y="-969.5" font-family="Helvetica,sans-Serif" font-size="10.00">SubSat01</text>
</a>
</g>
</g>
<!-- Node11&#45;&gt;Node17 -->
<g id="edge1069_Node000011_Node000017" class="edge">
<title>Node11&#45;&gt;Node17</title>
<g id="a_edge1069_Node000011_Node000017"><a xlink:title=" ">
<path fill="none" stroke="#63b8ff" d="M235.93,-1013.55C262.45,-1007.2 295.32,-999.33 323.58,-992.56"/>
<polygon fill="#63b8ff" stroke="#63b8ff" points="235,-1010.17 226.09,-1015.9 236.63,-1016.98 235,-1010.17"/>
</a>
</g>
</g>
<!-- Node18 -->
<g id="Node000018" class="node">
<title>Node18</title>
<g id="a_Node000018"><a xlink:href="class_test_1_1_arithm_test_1_1_z3_solver_sub_sat02.html" target="_top" xlink:title=" ">
<polygon fill="white" stroke="#666666" points="459.5,-944.5 315.5,-944.5 315.5,-914.5 459.5,-914.5 459.5,-944.5"/>
<text text-anchor="start" x="323.5" y="-932.5" font-family="Helvetica,sans-Serif" font-size="10.00">Test::ArithmTest::Z3Solver</text>
<text text-anchor="middle" x="387.5" y="-921.5" font-family="Helvetica,sans-Serif" font-size="10.00">SubSat02</text>
</a>
</g>
</g>
<!-- Node11&#45;&gt;Node18 -->
<g id="edge1070_Node000011_Node000018" class="edge">
<title>Node11&#45;&gt;Node18</title>
<g id="a_edge1070_Node000011_Node000018"><a xlink:title=" ">
<path fill="none" stroke="#63b8ff" d="M248.99,-1011.9C252.14,-1010.29 255.17,-1008.5 258,-1006.5 281.24,-990.05 270.73,-969.91 294,-953.5 300.51,-948.91 307.83,-945.2 315.43,-942.2"/>
<polygon fill="#63b8ff" stroke="#63b8ff" points="247.58,-1008.7 239.84,-1015.93 250.4,-1015.1 247.58,-1008.7"/>
</a>
</g>
</g>
<!-- Node19 -->
<g id="Node000019" class="node">
<title>Node19</title>
<g id="a_Node000019"><a xlink:href="class_test_1_1_arithm_test_1_1_z3_solver_sub_sat03.html" target="_top" xlink:title=" ">
<polygon fill="white" stroke="#666666" points="459.5,-896.5 315.5,-896.5 315.5,-866.5 459.5,-866.5 459.5,-896.5"/>
<text text-anchor="start" x="323.5" y="-884.5" font-family="Helvetica,sans-Serif" font-size="10.00">Test::ArithmTest::Z3Solver</text>
<text text-anchor="middle" x="387.5" y="-873.5" font-family="Helvetica,sans-Serif" font-size="10.00">SubSat03</text>
</a>
</g>
</g>
<!-- Node11&#45;&gt;Node19 -->
<g id="edge1071_Node000011_Node000019" class="edge">
<title>Node11&#45;&gt;Node19</title>
<g id="a_edge1071_Node000011_Node000019"><a xlink:title=" ">
<path fill="none" stroke="#63b8ff" d="M252.58,-1010.82C254.48,-1009.5 256.3,-1008.06 258,-1006.5 293.09,-974.25 258.84,-937.67 294,-905.5 300.12,-899.9 307.38,-895.57 315.1,-892.23"/>
<polygon fill="#63b8ff" stroke="#63b8ff" points="250.66,-1007.89 243.73,-1015.91 254.15,-1013.96 250.66,-1007.89"/>
</a>
</g>
</g>
<!-- Node20 -->
<g id="Node000020" class="node">
<title>Node20</title>
<g id="a_Node000020"><a xlink:href="class_test_1_1_arithm_test_1_1_z3_solver_sub_sat04.html" target="_top" xlink:title=" ">
<polygon fill="white" stroke="#666666" points="459.5,-848.5 315.5,-848.5 315.5,-818.5 459.5,-818.5 459.5,-848.5"/>
<text text-anchor="start" x="323.5" y="-836.5" font-family="Helvetica,sans-Serif" font-size="10.00">Test::ArithmTest::Z3Solver</text>
<text text-anchor="middle" x="387.5" y="-825.5" font-family="Helvetica,sans-Serif" font-size="10.00">SubSat04</text>
</a>
</g>
</g>
<!-- Node11&#45;&gt;Node20 -->
<g id="edge1072_Node000011_Node000020" class="edge">
<title>Node11&#45;&gt;Node20</title>
<g id="a_edge1072_Node000011_Node000020"><a xlink:title=" ">
<path fill="none" stroke="#63b8ff" d="M253.45,-1010.55C255.05,-1009.3 256.58,-1007.95 258,-1006.5 305.67,-957.82 246.23,-906.08 294,-857.5 300.05,-851.35 307.46,-846.71 315.42,-843.21"/>
<polygon fill="#63b8ff" stroke="#63b8ff" points="251.43,-1007.69 244.86,-1016 255.18,-1013.6 251.43,-1007.69"/>
</a>
</g>
</g>
<!-- Node21 -->
<g id="Node000021" class="node">
<title>Node21</title>
<g id="a_Node000021"><a xlink:href="class_test_1_1_arithm_test_1_1_z3_solver_sub_sat05.html" target="_top" xlink:title=" ">
<polygon fill="white" stroke="#666666" points="459.5,-800.5 315.5,-800.5 315.5,-770.5 459.5,-770.5 459.5,-800.5"/>
<text text-anchor="start" x="323.5" y="-788.5" font-family="Helvetica,sans-Serif" font-size="10.00">Test::ArithmTest::Z3Solver</text>
<text text-anchor="middle" x="387.5" y="-777.5" font-family="Helvetica,sans-Serif" font-size="10.00">SubSat05</text>
</a>
</g>
</g>
<!-- Node11&#45;&gt;Node21 -->
<g id="edge1073_Node000011_Node000021" class="edge">
<title>Node11&#45;&gt;Node21</title>
<g id="a_edge1073_Node000011_Node000021"><a xlink:title=" ">
<path fill="none" stroke="#63b8ff" d="M254.16,-1010.16C255.51,-1009.02 256.79,-1007.8 258,-1006.5 318.46,-941.18 233.41,-874.69 294,-809.5 299.87,-803.18 307.18,-798.44 315.09,-794.89"/>
<polygon fill="#63b8ff" stroke="#63b8ff" points="252.08,-1007.34 245.77,-1015.85 256.01,-1013.13 252.08,-1007.34"/>
</a>
</g>
</g>
<!-- Node24 -->
<g id="Node000024" class="node">
<title>Node24</title>
<g id="a_Node000024"><a xlink:href="class_test_1_1_z3_test_1_1_z3_solver_add.html" target="_top" xlink:title=" ">
<polygon fill="white" stroke="#666666" points="459,-752 316,-752 316,-733 459,-733 459,-752"/>
<text text-anchor="middle" x="387.5" y="-740" font-family="Helvetica,sans-Serif" font-size="10.00">Test::Z3Test::Z3SolverAdd</text>
</a>
</g>
</g>
<!-- Node23&#45;&gt;Node24 -->
<g id="edge1076_Node000023_Node000024" class="edge">
<title>Node23&#45;&gt;Node24</title>
<g id="a_edge1076_Node000023_Node000024"><a xlink:title=" ">
<path fill="none" stroke="#63b8ff" d="M185.55,-392.22C185.32,-452.21 193.33,-633.93 294,-724.5 300.32,-730.19 307.9,-734.31 315.95,-737.27"/>
<polygon fill="#63b8ff" stroke="#63b8ff" points="189.05,-392.24 185.67,-382.19 182.05,-392.15 189.05,-392.24"/>
</a>
</g>
</g>
<!-- Node25 -->
<g id="Node000025" class="node">
<title>Node25</title>
<g id="a_Node000025"><a xlink:href="class_test_1_1_z3_test_1_1_z3_solver_b_and.html" target="_top" xlink:title=" ">
<polygon fill="white" stroke="#666666" points="462,-715 313,-715 313,-696 462,-696 462,-715"/>
<text text-anchor="middle" x="387.5" y="-703" font-family="Helvetica,sans-Serif" font-size="10.00">Test::Z3Test::Z3SolverBAnd</text>
</a>
</g>
</g>
<!-- Node23&#45;&gt;Node25 -->
<g id="edge1077_Node000023_Node000025" class="edge">
<title>Node23&#45;&gt;Node25</title>
<g id="a_edge1077_Node000023_Node000025"><a xlink:title=" ">
<path fill="none" stroke="#63b8ff" d="M186.37,-392.33C188.54,-448.22 202.82,-608.11 294,-687.5 299.55,-692.33 306.01,-696.03 312.89,-698.83"/>
<polygon fill="#63b8ff" stroke="#63b8ff" points="189.86,-391.94 186.06,-382.05 182.86,-392.15 189.86,-391.94"/>
</a>
</g>
</g>
<!-- Node26 -->
<g id="Node000026" class="node">
<title>Node26</title>
<g id="a_Node000026"><a xlink:href="class_test_1_1_z3_test_1_1_z3_solver_b_o_r.html" target="_top" xlink:title=" ">
<polygon fill="white" stroke="#666666" points="460,-678 315,-678 315,-659 460,-659 460,-678"/>
<text text-anchor="middle" x="387.5" y="-666" font-family="Helvetica,sans-Serif" font-size="10.00">Test::Z3Test::Z3SolverBOR</text>
</a>
</g>
</g>
<!-- Node23&#45;&gt;Node26 -->
<g id="edge1078_Node000023_Node000026" class="edge">
<title>Node23&#45;&gt;Node26</title>
<g id="a_edge1078_Node000023_Node000026"><a xlink:title=" ">
<path fill="none" stroke="#63b8ff" d="M187.36,-392.05C192.02,-443.24 212.01,-581.96 294,-650.5 300.15,-655.64 307.34,-659.47 314.93,-662.31"/>
<polygon fill="#63b8ff" stroke="#63b8ff" points="190.84,-391.69 186.54,-382.01 183.86,-392.26 190.84,-391.69"/>
</a>
</g>
</g>
<!-- Node27 -->
<g id="Node000027" class="node">
<title>Node27</title>
<g id="a_Node000027"><a xlink:href="class_test_1_1_z3_test_1_1_z3_solver_b_xor.html" target="_top" xlink:title=" ">
<polygon fill="white" stroke="#666666" points="461,-641 314,-641 314,-622 461,-622 461,-641"/>
<text text-anchor="middle" x="387.5" y="-629" font-family="Helvetica,sans-Serif" font-size="10.00">Test::Z3Test::Z3SolverBXor</text>
</a>
</g>
</g>
<!-- Node23&#45;&gt;Node27 -->
<g id="edge1079_Node000023_Node000027" class="edge">
<title>Node23&#45;&gt;Node27</title>
<g id="a_edge1079_Node000023_Node000027"><a xlink:title=" ">
<path fill="none" stroke="#63b8ff" d="M188.74,-392.11C196.28,-438.37 221.85,-554.71 294,-612.5 299.89,-617.21 306.64,-620.85 313.77,-623.64"/>
<polygon fill="#63b8ff" stroke="#63b8ff" points="192.19,-391.53 187.22,-382.17 185.27,-392.58 192.19,-391.53"/>
</a>
</g>
</g>
<!-- Node28 -->
<g id="Node000028" class="node">
<title>Node28</title>
<g id="a_Node000028"><a xlink:href="class_test_1_1_z3_test_1_1_z3_solver_cast_bit2_bool.html" target="_top" xlink:title=" ">
<polygon fill="white" stroke="#666666" points="460.5,-603.5 314.5,-603.5 314.5,-573.5 460.5,-573.5 460.5,-603.5"/>
<text text-anchor="start" x="322.5" y="-591.5" font-family="Helvetica,sans-Serif" font-size="10.00">Test::Z3Test::Z3SolverCast</text>
<text text-anchor="middle" x="387.5" y="-580.5" font-family="Helvetica,sans-Serif" font-size="10.00">Bit2Bool</text>
</a>
</g>
</g>
<!-- Node23&#45;&gt;Node28 -->
<g id="edge1080_Node000023_Node000028" class="edge">
<title>Node23&#45;&gt;Node28</title>
<g id="a_edge1080_Node000023_Node000028"><a xlink:title=" ">
<path fill="none" stroke="#63b8ff" d="M191.3,-391.89C202.98,-430.87 234.72,-518.86 294,-564.5 300.05,-569.16 306.91,-572.91 314.09,-575.95"/>
<polygon fill="#63b8ff" stroke="#63b8ff" points="194.66,-390.92 188.53,-382.28 187.93,-392.85 194.66,-390.92"/>
</a>
</g>
</g>
<!-- Node29 -->
<g id="Node000029" class="node">
<title>Node29</title>
<g id="a_Node000029"><a xlink:href="class_test_1_1_z3_test_1_1_z3_solver_cast_bit2_equal_bit.html" target="_top" xlink:title=" ">
<polygon fill="white" stroke="#666666" points="460.5,-555.5 314.5,-555.5 314.5,-525.5 460.5,-525.5 460.5,-555.5"/>
<text text-anchor="start" x="322.5" y="-543.5" font-family="Helvetica,sans-Serif" font-size="10.00">Test::Z3Test::Z3SolverCast</text>
<text text-anchor="middle" x="387.5" y="-532.5" font-family="Helvetica,sans-Serif" font-size="10.00">Bit2EqualBit</text>
</a>
</g>
</g>
<!-- Node23&#45;&gt;Node29 -->
<g id="edge1081_Node000023_Node000029" class="edge">
<title>Node23&#45;&gt;Node29</title>
<g id="a_edge1081_Node000023_Node000029"><a xlink:title=" ">
<path fill="none" stroke="#63b8ff" d="M194.99,-391.66C210.59,-422.8 245.73,-484.14 294,-516.5 300.2,-520.66 307.08,-524.09 314.21,-526.94"/>
<polygon fill="#63b8ff" stroke="#63b8ff" points="197.97,-389.81 190.45,-382.35 191.68,-392.87 197.97,-389.81"/>
</a>
</g>
</g>
<!-- Node30 -->
<g id="Node000030" class="node">
<title>Node30</title>
<g id="a_Node000030"><a xlink:href="class_test_1_1_z3_test_1_1_z3_solver_cast_bit2_larger_bit.html" target="_top" xlink:title=" ">
<polygon fill="white" stroke="#666666" points="460.5,-507.5 314.5,-507.5 314.5,-477.5 460.5,-477.5 460.5,-507.5"/>
<text text-anchor="start" x="322.5" y="-495.5" font-family="Helvetica,sans-Serif" font-size="10.00">Test::Z3Test::Z3SolverCast</text>
<text text-anchor="middle" x="387.5" y="-484.5" font-family="Helvetica,sans-Serif" font-size="10.00">Bit2LargerBit</text>
</a>
</g>
</g>
<!-- Node23&#45;&gt;Node30 -->
<g id="edge1082_Node000023_Node000030" class="edge">
<title>Node23&#45;&gt;Node30</title>
<g id="a_edge1082_Node000023_Node000030"><a xlink:title=" ">
<path fill="none" stroke="#63b8ff" d="M200.61,-389.77C219.84,-411.39 255.71,-448.06 294,-468.5 300.44,-471.94 307.4,-474.9 314.51,-477.45"/>
<polygon fill="#63b8ff" stroke="#63b8ff" points="203.08,-387.27 193.87,-382.03 197.8,-391.87 203.08,-387.27"/>
</a>
</g>
</g>
<!-- Node31 -->
<g id="Node000031" class="node">
<title>Node31</title>
<g id="a_Node000031"><a xlink:href="class_test_1_1_z3_test_1_1_z3_solver_cast_bit2_less_bit.html" target="_top" xlink:title=" ">
<polygon fill="white" stroke="#666666" points="460.5,-459.5 314.5,-459.5 314.5,-429.5 460.5,-429.5 460.5,-459.5"/>
<text text-anchor="start" x="322.5" y="-447.5" font-family="Helvetica,sans-Serif" font-size="10.00">Test::Z3Test::Z3SolverCast</text>
<text text-anchor="middle" x="387.5" y="-436.5" font-family="Helvetica,sans-Serif" font-size="10.00">Bit2LessBit</text>
</a>
</g>
</g>
<!-- Node23&#45;&gt;Node31 -->
<g id="edge1083_Node000023_Node000031" class="edge">
<title>Node23&#45;&gt;Node31</title>
<g id="a_edge1083_Node000023_Node000031"><a xlink:title=" ">
<path fill="none" stroke="#63b8ff" d="M214.32,-386.63C235.81,-396.96 266.28,-410.82 294,-420.5 303.24,-423.73 313.14,-426.74 322.89,-429.47"/>
<polygon fill="#63b8ff" stroke="#63b8ff" points="215.65,-383.38 205.12,-382.15 212.58,-389.67 215.65,-383.38"/>
</a>
</g>
</g>
<!-- Node32 -->
<g id="Node000032" class="node">
<title>Node32</title>
<g id="a_Node000032"><a xlink:href="class_test_1_1_z3_test_1_1_z3_solver_cast_bool2_bit.html" target="_top" xlink:title=" ">
<polygon fill="white" stroke="#666666" points="460.5,-411.5 314.5,-411.5 314.5,-381.5 460.5,-381.5 460.5,-411.5"/>
<text text-anchor="start" x="322.5" y="-399.5" font-family="Helvetica,sans-Serif" font-size="10.00">Test::Z3Test::Z3SolverCast</text>
<text text-anchor="middle" x="387.5" y="-388.5" font-family="Helvetica,sans-Serif" font-size="10.00">Bool2Bit</text>
</a>
</g>
</g>
<!-- Node23&#45;&gt;Node32 -->
<g id="edge1084_Node000023_Node000032" class="edge">
<title>Node23&#45;&gt;Node32</title>
<g id="a_edge1084_Node000023_Node000032"><a xlink:title=" ">
<path fill="none" stroke="#63b8ff" d="M250.4,-380.21C270.83,-382.65 293.56,-385.37 314.49,-387.88"/>
<polygon fill="#63b8ff" stroke="#63b8ff" points="250.6,-376.71 240.26,-378.99 249.77,-383.66 250.6,-376.71"/>
</a>
</g>
</g>
<!-- Node33 -->
<g id="Node000033" class="node">
<title>Node33</title>
<g id="a_Node000033"><a xlink:href="class_test_1_1_z3_test_1_1_z3_solver_cast_in_assignment.html" target="_top" xlink:title=" ">
<polygon fill="white" stroke="#666666" points="460.5,-363.5 314.5,-363.5 314.5,-333.5 460.5,-333.5 460.5,-363.5"/>
<text text-anchor="start" x="322.5" y="-351.5" font-family="Helvetica,sans-Serif" font-size="10.00">Test::Z3Test::Z3SolverCast</text>
<text text-anchor="middle" x="387.5" y="-340.5" font-family="Helvetica,sans-Serif" font-size="10.00">InAssignment</text>
</a>
</g>
</g>
<!-- Node23&#45;&gt;Node33 -->
<g id="edge1085_Node000023_Node000033" class="edge">
<title>Node23&#45;&gt;Node33</title>
<g id="a_edge1085_Node000023_Node000033"><a xlink:title=" ">
<path fill="none" stroke="#63b8ff" d="M250.4,-364.79C270.83,-362.35 293.56,-359.63 314.49,-357.12"/>
<polygon fill="#63b8ff" stroke="#63b8ff" points="249.77,-361.34 240.26,-366.01 250.6,-368.29 249.77,-361.34"/>
</a>
</g>
</g>
<!-- Node34 -->
<g id="Node000034" class="node">
<title>Node34</title>
<g id="a_Node000034"><a xlink:href="class_test_1_1_z3_test_1_1_z3_solver_complement.html" target="_top" xlink:title=" ">
<polygon fill="white" stroke="#666666" points="481,-315 294,-315 294,-296 481,-296 481,-315"/>
<text text-anchor="middle" x="387.5" y="-303" font-family="Helvetica,sans-Serif" font-size="10.00">Test::Z3Test::Z3SolverComplement</text>
</a>
</g>
</g>
<!-- Node23&#45;&gt;Node34 -->
<g id="edge1086_Node000023_Node000034" class="edge">
<title>Node23&#45;&gt;Node34</title>
<g id="a_edge1086_Node000023_Node000034"><a xlink:title=" ">
<path fill="none" stroke="#63b8ff" d="M213.41,-358.34C234.86,-347.74 265.71,-333.58 294,-324.5 305.55,-320.79 318.15,-317.64 330.24,-315.04"/>
<polygon fill="#63b8ff" stroke="#63b8ff" points="211.63,-355.32 204.25,-362.92 214.76,-361.58 211.63,-355.32"/>
</a>
</g>
</g>
<!-- Node35 -->
<g id="Node000035" class="node">
<title>Node35</title>
<g id="a_Node000035"><a xlink:href="class_test_1_1_z3_test_1_1_z3_solver_conc.html" target="_top" xlink:title=" ">
<polygon fill="white" stroke="#666666" points="461.5,-278 313.5,-278 313.5,-259 461.5,-259 461.5,-278"/>
<text text-anchor="middle" x="387.5" y="-266" font-family="Helvetica,sans-Serif" font-size="10.00">Test::Z3Test::Z3SolverConc</text>
</a>
</g>
</g>
<!-- Node23&#45;&gt;Node35 -->
<g id="edge1087_Node000023_Node000035" class="edge">
<title>Node23&#45;&gt;Node35</title>
<g id="a_edge1087_Node000023_Node000035"><a xlink:title=" ">
<path fill="none" stroke="#63b8ff" d="M202.36,-355.52C222.18,-335.99 257.48,-304.46 294,-287.5 302.33,-283.63 311.44,-280.55 320.59,-278.09"/>
<polygon fill="#63b8ff" stroke="#63b8ff" points="199.65,-353.28 195.08,-362.84 204.62,-358.21 199.65,-353.28"/>
</a>
</g>
</g>
<!-- Node36 -->
<g id="Node000036" class="node">
<title>Node36</title>
<g id="a_Node000036"><a xlink:href="class_test_1_1_z3_test_1_1_z3_solver_i_t_e.html" target="_top" xlink:title=" ">
<polygon fill="white" stroke="#666666" points="457,-241 318,-241 318,-222 457,-222 457,-241"/>
<text text-anchor="middle" x="387.5" y="-229" font-family="Helvetica,sans-Serif" font-size="10.00">Test::Z3Test::Z3SolverITE</text>
</a>
</g>
</g>
<!-- Node23&#45;&gt;Node36 -->
<g id="edge1088_Node000023_Node000036" class="edge">
<title>Node23&#45;&gt;Node36</title>
<g id="a_edge1088_Node000023_Node000036"><a xlink:title=" ">
<path fill="none" stroke="#63b8ff" d="M196.8,-354.09C213.81,-326.84 249.54,-276.22 294,-250.5 301.38,-246.23 309.58,-242.91 317.96,-240.34"/>
<polygon fill="#63b8ff" stroke="#63b8ff" points="193.78,-352.31 191.58,-362.67 199.76,-355.95 193.78,-352.31"/>
</a>
</g>
</g>
<!-- Node37 -->
<g id="Node000037" class="node">
<title>Node37</title>
<g id="a_Node000037"><a xlink:href="class_test_1_1_z3_test_1_1_z3_solver_mod.html" target="_top" xlink:title=" ">
<polygon fill="white" stroke="#666666" points="460,-204 315,-204 315,-185 460,-185 460,-204"/>
<text text-anchor="middle" x="387.5" y="-192" font-family="Helvetica,sans-Serif" font-size="10.00">Test::Z3Test::Z3SolverMod</text>
</a>
</g>
</g>
<!-- Node23&#45;&gt;Node37 -->
<g id="edge1089_Node000023_Node000037" class="edge">
<title>Node23&#45;&gt;Node37</title>
<g id="a_edge1089_Node000023_Node000037"><a xlink:title=" ">
<path fill="none" stroke="#63b8ff" d="M193.43,-352.99C207.5,-318.85 241.4,-248.59 294,-213.5 300.27,-209.31 307.28,-206.02 314.55,-203.43"/>
<polygon fill="#63b8ff" stroke="#63b8ff" points="190.01,-352.13 189.56,-362.71 196.51,-354.71 190.01,-352.13"/>
</a>
</g>
</g>
<!-- Node38 -->
<g id="Node000038" class="node">
<title>Node38</title>
<g id="a_Node000038"><a xlink:href="class_test_1_1_z3_test_1_1_z3_solver_mult.html" target="_top" xlink:title=" ">
<polygon fill="white" stroke="#666666" points="460.5,-167 314.5,-167 314.5,-148 460.5,-148 460.5,-167"/>
<text text-anchor="middle" x="387.5" y="-155" font-family="Helvetica,sans-Serif" font-size="10.00">Test::Z3Test::Z3SolverMult</text>
</a>
</g>
</g>
<!-- Node23&#45;&gt;Node38 -->
<g id="edge1090_Node000023_Node000038" class="edge">
<title>Node23&#45;&gt;Node38</title>
<g id="a_edge1090_Node000023_Node000038"><a xlink:title=" ">
<path fill="none" stroke="#63b8ff" d="M190.83,-353.01C201.79,-313.05 232.53,-221.78 294,-176.5 300.07,-172.03 306.95,-168.55 314.14,-165.85"/>
<polygon fill="#63b8ff" stroke="#63b8ff" points="187.4,-352.28 188.25,-362.84 194.17,-354.05 187.4,-352.28"/>
</a>
</g>
</g>
<!-- Node39 -->
<g id="Node000039" class="node">
<title>Node39</title>
<g id="a_Node000039"><a xlink:href="class_test_1_1_z3_test_1_1_z3_solver_shl.html" target="_top" xlink:title=" ">
<polygon fill="white" stroke="#666666" points="457,-130 318,-130 318,-111 457,-111 457,-130"/>
<text text-anchor="middle" x="387.5" y="-118" font-family="Helvetica,sans-Serif" font-size="10.00">Test::Z3Test::Z3SolverShl</text>
</a>
</g>
</g>
<!-- Node23&#45;&gt;Node39 -->
<g id="edge1091_Node000023_Node000039" class="edge">
<title>Node23&#45;&gt;Node39</title>
<g id="a_edge1091_Node000023_Node000039"><a xlink:title=" ">
<path fill="none" stroke="#63b8ff" d="M189.09,-352.54C197.24,-307.01 223.75,-195.12 294,-139.5 300.94,-134 309.07,-129.98 317.58,-127.06"/>
<polygon fill="#63b8ff" stroke="#63b8ff" points="185.6,-352.17 187.4,-362.61 192.5,-353.33 185.6,-352.17"/>
</a>
</g>
</g>
<!-- Node40 -->
<g id="Node000040" class="node">
<title>Node40</title>
<g id="a_Node000040"><a xlink:href="class_test_1_1_z3_test_1_1_z3_solver_shr_s.html" target="_top" xlink:title=" ">
<polygon fill="white" stroke="#666666" points="460.5,-93 314.5,-93 314.5,-74 460.5,-74 460.5,-93"/>
<text text-anchor="middle" x="387.5" y="-81" font-family="Helvetica,sans-Serif" font-size="10.00">Test::Z3Test::Z3SolverShrS</text>
</a>
</g>
</g>
<!-- Node23&#45;&gt;Node40 -->
<g id="edge1092_Node000023_Node000040" class="edge">
<title>Node23&#45;&gt;Node40</title>
<g id="a_edge1092_Node000023_Node000040"><a xlink:title=" ">
<path fill="none" stroke="#63b8ff" d="M187.7,-352.55C193.1,-302.13 214.59,-168.9 294,-102.5 300.04,-97.45 307.06,-93.63 314.49,-90.75"/>
<polygon fill="#63b8ff" stroke="#63b8ff" points="184.19,-352.46 186.7,-362.75 191.15,-353.14 184.19,-352.46"/>
</a>
</g>
</g>
<!-- Node41 -->
<g id="Node000041" class="node">
<title>Node41</title>
<g id="a_Node000041"><a xlink:href="class_test_1_1_z3_test_1_1_z3_solver_shr_u.html" target="_top" xlink:title=" ">
<polygon fill="white" stroke="#666666" points="461,-56 314,-56 314,-37 461,-37 461,-56"/>
<text text-anchor="middle" x="387.5" y="-44" font-family="Helvetica,sans-Serif" font-size="10.00">Test::Z3Test::Z3SolverShrU</text>
</a>
</g>
</g>
<!-- Node23&#45;&gt;Node41 -->
<g id="edge1093_Node000023_Node000041" class="edge">
<title>Node23&#45;&gt;Node41</title>
<g id="a_edge1093_Node000023_Node000041"><a xlink:title=" ">
<path fill="none" stroke="#63b8ff" d="M186.54,-352.73C189.17,-297.72 204.56,-141.83 294,-64.5 299.82,-59.47 306.62,-55.68 313.84,-52.85"/>
<polygon fill="#63b8ff" stroke="#63b8ff" points="183.03,-352.75 186.15,-362.87 190.03,-353.01 183.03,-352.75"/>
</a>
</g>
</g>
<!-- Node42 -->
<g id="Node000042" class="node">
<title>Node42</title>
<g id="a_Node000042"><a xlink:href="class_test_1_1_z3_test_1_1_z3_solver_sub.html" target="_top" xlink:title=" ">
<polygon fill="white" stroke="#666666" points="458.5,-19 316.5,-19 316.5,0 458.5,0 458.5,-19"/>
<text text-anchor="middle" x="387.5" y="-7" font-family="Helvetica,sans-Serif" font-size="10.00">Test::Z3Test::Z3SolverSub</text>
</a>
</g>
</g>
<!-- Node23&#45;&gt;Node42 -->
<g id="edge1094_Node000023_Node000042" class="edge">
<title>Node23&#45;&gt;Node42</title>
<g id="a_edge1094_Node000023_Node000042"><a xlink:title=" ">
<path fill="none" stroke="#63b8ff" d="M185.69,-352.79C185.9,-293.59 195.11,-115.96 294,-27.5 300.46,-21.72 308.21,-17.56 316.44,-14.6"/>
<polygon fill="#63b8ff" stroke="#63b8ff" points="182.19,-353.01 185.74,-362.99 189.19,-352.98 182.19,-353.01"/>
</a>
</g>
</g>
</g>
</svg>
