<?xml version="1.0" encoding="UTF-8" standalone="no"?>
<!DOCTYPE svg PUBLIC "-//W3C//DTD SVG 1.1//EN"
 "http://www.w3.org/Graphics/SVG/1.1/DTD/svg11.dtd">
<!-- Generated by graphviz version 2.43.0 (0)
 -->
<!-- Title: Graphical Class Hierarchy Pages: 1 -->
<svg width="974pt" height="127pt"
 viewBox="0.00 0.00 974.00 127.00" xmlns="http://www.w3.org/2000/svg" xmlns:xlink="http://www.w3.org/1999/xlink">
<g id="graph0" class="graph" transform="scale(1 1) rotate(0) translate(4 123)">
<title>Graphical Class Hierarchy</title>
<!-- Node0 -->
<g id="Node000000" class="node">
<title>Node0</title>
<g id="a_Node000000"><a xlink:title=" ">
<polygon fill="#e0e0e0" stroke="#999999" points="80,-89.5 0,-89.5 0,-70.5 80,-70.5 80,-89.5"/>
<text text-anchor="middle" x="40" y="-77.5" font-family="Helvetica,sans-Serif" font-size="10.00">std::ios_base</text>
</a>
</g>
</g>
<!-- Node1 -->
<g id="Node000001" class="node">
<title>Node1</title>
<g id="a_Node000001"><a xlink:title=" ">
<polygon fill="#e0e0e0" stroke="#999999" points="244,-89.5 116,-89.5 116,-70.5 244,-70.5 244,-89.5"/>
<text text-anchor="middle" x="180" y="-77.5" font-family="Helvetica,sans-Serif" font-size="10.00">std::basic_ios&lt; Char &gt;</text>
</a>
</g>
</g>
<!-- Node0&#45;&gt;Node1 -->
<g id="edge2700_Node000000_Node000001" class="edge">
<title>Node0&#45;&gt;Node1</title>
<g id="a_edge2700_Node000000_Node000001"><a xlink:title=" ">
<path fill="none" stroke="#63b8ff" d="M90.41,-80C98.7,-80 107.4,-80 115.97,-80"/>
<polygon fill="#63b8ff" stroke="#63b8ff" points="90.18,-76.5 80.18,-80 90.18,-83.5 90.18,-76.5"/>
</a>
</g>
</g>
<!-- Node2 -->
<g id="Node000002" class="node">
<title>Node2</title>
<g id="a_Node000002"><a xlink:title=" ">
<polygon fill="#e0e0e0" stroke="#999999" points="387.5,-119 281.5,-119 281.5,-89 387.5,-89 387.5,-119"/>
<text text-anchor="start" x="289.5" y="-107" font-family="Helvetica,sans-Serif" font-size="10.00">std::basic_istream</text>
<text text-anchor="middle" x="334.5" y="-96" font-family="Helvetica,sans-Serif" font-size="10.00">&lt; Char &gt;</text>
</a>
</g>
</g>
<!-- Node1&#45;&gt;Node2 -->
<g id="edge2701_Node000001_Node000002" class="edge">
<title>Node1&#45;&gt;Node2</title>
<g id="a_edge2701_Node000001_Node000002"><a xlink:title=" ">
<path fill="none" stroke="#63b8ff" d="M251.65,-91.12C261.65,-92.69 271.79,-94.29 281.36,-95.79"/>
<polygon fill="#63b8ff" stroke="#63b8ff" points="252.13,-87.65 241.71,-89.55 251.04,-94.57 252.13,-87.65"/>
</a>
</g>
</g>
<!-- Node7 -->
<g id="Node000007" class="node">
<title>Node7</title>
<g id="a_Node000007"><a xlink:title=" ">
<polygon fill="#e0e0e0" stroke="#999999" points="389,-71 280,-71 280,-41 389,-41 389,-71"/>
<text text-anchor="start" x="288" y="-59" font-family="Helvetica,sans-Serif" font-size="10.00">std::basic_ostream</text>
<text text-anchor="middle" x="334.5" y="-48" font-family="Helvetica,sans-Serif" font-size="10.00">&lt; Char &gt;</text>
</a>
</g>
</g>
<!-- Node1&#45;&gt;Node7 -->
<g id="edge2706_Node000001_Node000007" class="edge">
<title>Node1&#45;&gt;Node7</title>
<g id="a_edge2706_Node000001_Node000007"><a xlink:title=" ">
<path fill="none" stroke="#63b8ff" d="M251.87,-68.85C261.3,-67.36 270.83,-65.86 279.9,-64.44"/>
<polygon fill="#63b8ff" stroke="#63b8ff" points="251.04,-65.43 241.71,-70.45 252.13,-72.35 251.04,-65.43"/>
</a>
</g>
</g>
<!-- Node3 -->
<g id="Node000003" class="node">
<title>Node3</title>
<g id="a_Node000003"><a xlink:title=" ">
<polygon fill="#e0e0e0" stroke="#999999" points="549.5,-118 437.5,-118 437.5,-88 549.5,-88 549.5,-118"/>
<text text-anchor="start" x="445.5" y="-106" font-family="Helvetica,sans-Serif" font-size="10.00">std::basic_iostream</text>
<text text-anchor="middle" x="493.5" y="-95" font-family="Helvetica,sans-Serif" font-size="10.00">&lt; Char &gt;</text>
</a>
</g>
</g>
<!-- Node2&#45;&gt;Node3 -->
<g id="edge2702_Node000002_Node000003" class="edge">
<title>Node2&#45;&gt;Node3</title>
<g id="a_edge2702_Node000002_Node000003"><a xlink:title=" ">
<path fill="none" stroke="#63b8ff" d="M398.07,-103.6C411.11,-103.52 424.75,-103.43 437.49,-103.35"/>
<polygon fill="#63b8ff" stroke="#63b8ff" points="397.76,-100.1 387.78,-103.67 397.8,-107.1 397.76,-100.1"/>
</a>
</g>
</g>
<!-- Node4 -->
<g id="Node000004" class="node">
<title>Node4</title>
<g id="a_Node000004"><a xlink:title=" ">
<polygon fill="#e0e0e0" stroke="#999999" points="729,-118 598,-118 598,-88 729,-88 729,-118"/>
<text text-anchor="start" x="606" y="-106" font-family="Helvetica,sans-Serif" font-size="10.00">std::basic_stringstream</text>
<text text-anchor="middle" x="663.5" y="-95" font-family="Helvetica,sans-Serif" font-size="10.00">&lt; Char &gt;</text>
</a>
</g>
</g>
<!-- Node3&#45;&gt;Node4 -->
<g id="edge2703_Node000003_Node000004" class="edge">
<title>Node3&#45;&gt;Node4</title>
<g id="a_edge2703_Node000003_Node000004"><a xlink:title=" ">
<path fill="none" stroke="#63b8ff" d="M559.81,-103C572.26,-103 585.29,-103 597.72,-103"/>
<polygon fill="#63b8ff" stroke="#63b8ff" points="559.51,-99.5 549.51,-103 559.51,-106.5 559.51,-99.5"/>
</a>
</g>
</g>
<!-- Node5 -->
<g id="Node000005" class="node">
<title>Node5</title>
<g id="a_Node000005"><a xlink:title=" ">
<polygon fill="#e0e0e0" stroke="#999999" points="865,-112.5 765,-112.5 765,-93.5 865,-93.5 865,-112.5"/>
<text text-anchor="middle" x="815" y="-100.5" font-family="Helvetica,sans-Serif" font-size="10.00">std::stringstream</text>
</a>
</g>
</g>
<!-- Node4&#45;&gt;Node5 -->
<g id="edge2704_Node000004_Node000005" class="edge">
<title>Node4&#45;&gt;Node5</title>
<g id="a_edge2704_Node000004_Node000005"><a xlink:title=" ">
<path fill="none" stroke="#63b8ff" d="M739.38,-103C748.07,-103 756.76,-103 764.98,-103"/>
<polygon fill="#63b8ff" stroke="#63b8ff" points="739.2,-99.5 729.2,-103 739.2,-106.5 739.2,-99.5"/>
</a>
</g>
</g>
<!-- Node6 -->
<g id="Node000006" class="node">
<title>Node6</title>
<g id="a_Node000006"><a xlink:href="class_p_h_v_1_1_error.html" target="_top" xlink:title=" ">
<polygon fill="white" stroke="#666666" points="966,-112.5 901,-112.5 901,-93.5 966,-93.5 966,-112.5"/>
<text text-anchor="middle" x="933.5" y="-100.5" font-family="Helvetica,sans-Serif" font-size="10.00">PHV::Error</text>
</a>
</g>
</g>
<!-- Node5&#45;&gt;Node6 -->
<g id="edge2705_Node000005_Node000006" class="edge">
<title>Node5&#45;&gt;Node6</title>
<g id="a_edge2705_Node000005_Node000006"><a xlink:title=" ">
<path fill="none" stroke="#63b8ff" d="M875.33,-103C884.1,-103 892.83,-103 900.74,-103"/>
<polygon fill="#63b8ff" stroke="#63b8ff" points="875.07,-99.5 865.07,-103 875.07,-106.5 875.07,-99.5"/>
</a>
</g>
</g>
<!-- Node7&#45;&gt;Node3 -->
<g id="edge2709_Node000007_Node000003" class="edge">
<title>Node7&#45;&gt;Node3</title>
<g id="a_edge2709_Node000007_Node000003"><a xlink:title=" ">
<path fill="none" stroke="#63b8ff" d="M395.58,-73.99C411.01,-78.61 427.46,-83.53 442.33,-87.98"/>
<polygon fill="#63b8ff" stroke="#63b8ff" points="396.19,-70.52 385.61,-71 394.18,-77.22 396.19,-70.52"/>
</a>
</g>
</g>
<!-- Node8 -->
<g id="Node000008" class="node">
<title>Node8</title>
<g id="a_Node000008"><a xlink:href="class_p4_1_1onullstream.html" target="_top" xlink:title=" ">
<polygon fill="white" stroke="#666666" points="562,-67.5 425,-67.5 425,-48.5 562,-48.5 562,-67.5"/>
<text text-anchor="middle" x="493.5" y="-55.5" font-family="Helvetica,sans-Serif" font-size="10.00">P4::onullstream&lt; char &gt;</text>
</a>
</g>
</g>
<!-- Node7&#45;&gt;Node8 -->
<g id="edge2707_Node000007_Node000008" class="edge">
<title>Node7&#45;&gt;Node8</title>
<g id="a_edge2707_Node000007_Node000008"><a xlink:title=" ">
<path fill="none" stroke="#63b8ff" d="M399.28,-56.81C407.75,-56.92 416.46,-57.03 424.99,-57.14"/>
<polygon fill="#63b8ff" stroke="#63b8ff" points="399.14,-53.31 389.09,-56.68 399.05,-60.31 399.14,-53.31"/>
</a>
</g>
</g>
<!-- Node9 -->
<g id="Node000009" class="node">
<title>Node9</title>
<g id="a_Node000009"><a xlink:href="class_p4_1_1onullstream.html" target="_top" xlink:title=" ">
<polygon fill="white" stroke="#666666" points="553,-30 434,-30 434,0 553,0 553,-30"/>
<text text-anchor="start" x="442" y="-18" font-family="Helvetica,sans-Serif" font-size="10.00">P4::onullstream&lt; cT,</text>
<text text-anchor="middle" x="493.5" y="-7" font-family="Helvetica,sans-Serif" font-size="10.00"> traits &gt;</text>
</a>
</g>
</g>
<!-- Node7&#45;&gt;Node9 -->
<g id="edge2708_Node000007_Node000009" class="edge">
<title>Node7&#45;&gt;Node9</title>
<g id="a_edge2708_Node000007_Node000009"><a xlink:title=" ">
<path fill="none" stroke="#63b8ff" d="M398.93,-39.44C410.81,-36.33 423.17,-33.11 434.86,-30.05"/>
<polygon fill="#63b8ff" stroke="#63b8ff" points="397.88,-36.09 389.09,-42 399.65,-42.86 397.88,-36.09"/>
</a>
</g>
</g>
</g>
</svg>
