<?xml version="1.0" encoding="UTF-8" standalone="no"?>
<!DOCTYPE svg PUBLIC "-//W3C//DTD SVG 1.1//EN"
 "http://www.w3.org/Graphics/SVG/1.1/DTD/svg11.dtd">
<!-- Generated by graphviz version 2.43.0 (0)
 -->
<!-- Title: Graphical Class Hierarchy Pages: 1 -->
<svg width="487pt" height="88pt"
 viewBox="0.00 0.00 487.00 88.00" xmlns="http://www.w3.org/2000/svg" xmlns:xlink="http://www.w3.org/1999/xlink">
<g id="graph0" class="graph" transform="scale(1 1) rotate(0) translate(4 84)">
<title>Graphical Class Hierarchy</title>
<!-- Node0 -->
<g id="Node000000" class="node">
<title>Node0</title>
<g id="a_Node000000"><a xlink:href="class_lift_equal.html" target="_top" xlink:title=" ">
<polygon fill="white" stroke="#666666" points="163,-80 0,-80 0,-61 163,-61 163,-80"/>
<text text-anchor="middle" x="81.5" y="-68" font-family="Helvetica,sans-Serif" font-size="10.00">LiftEqual&lt; ConstrainedSlice &gt;</text>
</a>
</g>
</g>
<!-- Node1 -->
<g id="Node000001" class="node">
<title>Node1</title>
<g id="a_Node000001"><a xlink:href="class_lift_compare.html" target="_top" xlink:title=" ">
<polygon fill="white" stroke="#666666" points="345,-67.5 199,-67.5 199,-37.5 345,-37.5 345,-67.5"/>
<text text-anchor="start" x="207" y="-55.5" font-family="Helvetica,sans-Serif" font-size="10.00">LiftCompare&lt; Constrained</text>
<text text-anchor="middle" x="272" y="-44.5" font-family="Helvetica,sans-Serif" font-size="10.00">Slice &gt;</text>
</a>
</g>
</g>
<!-- Node0&#45;&gt;Node1 -->
<g id="edge2239_Node000000_Node000001" class="edge">
<title>Node0&#45;&gt;Node1</title>
<g id="a_edge2239_Node000000_Node000001"><a xlink:title=" ">
<path fill="none" stroke="#63b8ff" d="M173.26,-61.83C181.81,-61.02 190.4,-60.2 198.74,-59.4"/>
<polygon fill="#63b8ff" stroke="#63b8ff" points="172.88,-58.35 163.26,-62.79 173.55,-65.32 172.88,-58.35"/>
</a>
</g>
</g>
<!-- Node2 -->
<g id="Node000002" class="node">
<title>Node2</title>
<g id="a_Node000002"><a xlink:href="class_constrained_slice.html" target="_top" xlink:title="Class representing FieldSlice with constraints, which has handle for constraint logging....">
<polygon fill="white" stroke="#666666" points="479,-59 381,-59 381,-40 479,-40 479,-59"/>
<text text-anchor="middle" x="430" y="-47" font-family="Helvetica,sans-Serif" font-size="10.00">ConstrainedSlice</text>
</a>
</g>
</g>
<!-- Node1&#45;&gt;Node2 -->
<g id="edge2240_Node000001_Node000002" class="edge">
<title>Node1&#45;&gt;Node2</title>
<g id="a_edge2240_Node000001_Node000002"><a xlink:title=" ">
<path fill="none" stroke="#63b8ff" d="M355.32,-50.92C364.05,-50.75 372.71,-50.58 380.86,-50.43"/>
<polygon fill="#63b8ff" stroke="#63b8ff" points="354.99,-47.42 345.06,-51.11 355.13,-54.42 354.99,-47.42"/>
</a>
</g>
</g>
<!-- Node5 -->
<g id="Node000005" class="node">
<title>Node5</title>
<g id="a_Node000005"><a xlink:href="class_lift_less.html" target="_top" xlink:title=" ">
<polygon fill="white" stroke="#666666" points="160.5,-43 2.5,-43 2.5,-24 160.5,-24 160.5,-43"/>
<text text-anchor="middle" x="81.5" y="-31" font-family="Helvetica,sans-Serif" font-size="10.00">LiftLess&lt; ConstrainedSlice &gt;</text>
</a>
</g>
</g>
<!-- Node5&#45;&gt;Node1 -->
<g id="edge2241_Node000005_Node000001" class="edge">
<title>Node5&#45;&gt;Node1</title>
<g id="a_edge2241_Node000005_Node000001"><a xlink:title=" ">
<path fill="none" stroke="#63b8ff" d="M170.69,-42.39C180.09,-43.34 189.58,-44.29 198.77,-45.22"/>
<polygon fill="#63b8ff" stroke="#63b8ff" points="170.83,-38.89 160.53,-41.37 170.13,-45.85 170.83,-38.89"/>
</a>
</g>
</g>
<!-- Node3 -->
<g id="Node000003" class="node">
<title>Node3</title>
<g id="a_Node000003"><a xlink:href="class_loggable_entity.html" target="_top" xlink:title="Class with handle for logging constraints.">
<polygon fill="white" stroke="#666666" points="316.5,-19 227.5,-19 227.5,0 316.5,0 316.5,-19"/>
<text text-anchor="middle" x="272" y="-7" font-family="Helvetica,sans-Serif" font-size="10.00">LoggableEntity</text>
</a>
</g>
</g>
<!-- Node3&#45;&gt;Node2 -->
<g id="edge2243_Node000003_Node000002" class="edge">
<title>Node3&#45;&gt;Node2</title>
<g id="a_edge2243_Node000003_Node000002"><a xlink:title=" ">
<path fill="none" stroke="#63b8ff" d="M320.26,-21.62C343.25,-27.51 370.48,-34.49 391.94,-40"/>
<polygon fill="#63b8ff" stroke="#63b8ff" points="320.92,-18.17 310.37,-19.08 319.18,-24.96 320.92,-18.17"/>
</a>
</g>
</g>
<!-- Node4 -->
<g id="Node000004" class="node">
<title>Node4</title>
<g id="a_Node000004"><a xlink:href="class_constrained_field.html" target="_top" xlink:title="Class representing PHV::Field with constraints and handle for constraint logging. Contains non&#45;group ...">
<polygon fill="white" stroke="#666666" points="479,-19 381,-19 381,0 479,0 479,-19"/>
<text text-anchor="middle" x="430" y="-7" font-family="Helvetica,sans-Serif" font-size="10.00">ConstrainedField</text>
</a>
</g>
</g>
<!-- Node3&#45;&gt;Node4 -->
<g id="edge2242_Node000003_Node000004" class="edge">
<title>Node3&#45;&gt;Node4</title>
<g id="a_edge2242_Node000003_Node000004"><a xlink:title=" ">
<path fill="none" stroke="#63b8ff" d="M326.94,-9.5C344.45,-9.5 363.75,-9.5 380.81,-9.5"/>
<polygon fill="#63b8ff" stroke="#63b8ff" points="326.87,-6 316.87,-9.5 326.87,-13 326.87,-6"/>
</a>
</g>
</g>
</g>
</svg>
