<?xml version="1.0" encoding="UTF-8" standalone="no"?>
<!DOCTYPE svg PUBLIC "-//W3C//DTD SVG 1.1//EN"
 "http://www.w3.org/Graphics/SVG/1.1/DTD/svg11.dtd">
<!-- Generated by graphviz version 2.43.0 (0)
 -->
<!-- Title: Graphical Class Hierarchy Pages: 1 -->
<svg width="492pt" height="1537pt"
 viewBox="0.00 0.00 492.00 1537.00" xmlns="http://www.w3.org/2000/svg" xmlns:xlink="http://www.w3.org/1999/xlink">
<g id="graph0" class="graph" transform="scale(1 1) rotate(0) translate(4 1533)">
<title>Graphical Class Hierarchy</title>
<!-- Node0 -->
<g id="Node000000" class="node">
<title>Node0</title>
<g id="a_Node000000"><a xlink:title=" ">
<polygon fill="#e0e0e0" stroke="#999999" points="76,-1344 0,-1344 0,-1325 76,-1325 76,-1344"/>
<text text-anchor="middle" x="38" y="-1332" font-family="Helvetica,sans-Serif" font-size="10.00">testing::Test</text>
</a>
</g>
</g>
<!-- Node1 -->
<g id="Node000001" class="node">
<title>Node1</title>
<g id="a_Node000001"><a xlink:href="class_test_1_1_p4_c_reachability.html" target="_top" xlink:title=" ">
<polygon fill="white" stroke="#666666" points="247.5,-1455 125.5,-1455 125.5,-1436 247.5,-1436 247.5,-1455"/>
<text text-anchor="middle" x="186.5" y="-1443" font-family="Helvetica,sans-Serif" font-size="10.00">Test::P4CReachability</text>
</a>
</g>
</g>
<!-- Node0&#45;&gt;Node1 -->
<g id="edge1084_Node000000_Node000001" class="edge">
<title>Node0&#45;&gt;Node1</title>
<g id="a_edge1084_Node000000_Node000001"><a xlink:title=" ">
<path fill="none" stroke="#63b8ff" d="M48.6,-1353.16C60.55,-1374.46 82.96,-1408.77 112,-1427.5 117.3,-1430.92 123.2,-1433.69 129.28,-1435.93"/>
<polygon fill="#63b8ff" stroke="#63b8ff" points="51.56,-1351.27 43.73,-1344.13 45.4,-1354.59 51.56,-1351.27"/>
</a>
</g>
</g>
<!-- Node2 -->
<g id="Node000002" class="node">
<title>Node2</title>
<g id="a_Node000002"><a xlink:href="class_test_1_1_p4_smith_for_in_loop_test.html" target="_top" xlink:title=" ">
<polygon fill="white" stroke="#666666" points="261,-1418 112,-1418 112,-1399 261,-1399 261,-1418"/>
<text text-anchor="middle" x="186.5" y="-1406" font-family="Helvetica,sans-Serif" font-size="10.00">Test::P4SmithForInLoopTest</text>
</a>
</g>
</g>
<!-- Node0&#45;&gt;Node2 -->
<g id="edge1085_Node000000_Node000002" class="edge">
<title>Node0&#45;&gt;Node2</title>
<g id="a_edge1085_Node000000_Node000002"><a xlink:title=" ">
<path fill="none" stroke="#63b8ff" d="M56.36,-1351.19C70.34,-1363.74 91.05,-1380.45 112,-1390.5 119.11,-1393.91 126.92,-1396.71 134.72,-1399"/>
<polygon fill="#63b8ff" stroke="#63b8ff" points="58.68,-1348.56 48.96,-1344.36 53.93,-1353.71 58.68,-1348.56"/>
</a>
</g>
</g>
<!-- Node3 -->
<g id="Node000003" class="node">
<title>Node3</title>
<g id="a_Node000003"><a xlink:href="class_test_1_1_p4_smith_for_loop_test.html" target="_top" xlink:title=" ">
<polygon fill="white" stroke="#666666" points="256.5,-1381 116.5,-1381 116.5,-1362 256.5,-1362 256.5,-1381"/>
<text text-anchor="middle" x="186.5" y="-1369" font-family="Helvetica,sans-Serif" font-size="10.00">Test::P4SmithForLoopTest</text>
</a>
</g>
</g>
<!-- Node0&#45;&gt;Node3 -->
<g id="edge1086_Node000000_Node000003" class="edge">
<title>Node0&#45;&gt;Node3</title>
<g id="a_edge1086_Node000000_Node000003"><a xlink:title=" ">
<path fill="none" stroke="#63b8ff" d="M85.2,-1346.63C94.09,-1348.94 103.33,-1351.31 112,-1353.5 123.08,-1356.3 135.12,-1359.27 146.18,-1361.98"/>
<polygon fill="#63b8ff" stroke="#63b8ff" points="85.92,-1343.2 75.36,-1344.07 84.16,-1349.98 85.92,-1343.2"/>
</a>
</g>
</g>
<!-- Node4 -->
<g id="Node000004" class="node">
<title>Node4</title>
<g id="a_Node000004"><a xlink:href="class_test_1_1_p4_tools_test.html" target="_top" xlink:title="GTest for P4 Tools tests.">
<polygon fill="white" stroke="#666666" points="235.5,-1344 137.5,-1344 137.5,-1325 235.5,-1325 235.5,-1344"/>
<text text-anchor="middle" x="186.5" y="-1332" font-family="Helvetica,sans-Serif" font-size="10.00">Test::P4ToolsTest</text>
</a>
</g>
</g>
<!-- Node0&#45;&gt;Node4 -->
<g id="edge1087_Node000000_Node000004" class="edge">
<title>Node0&#45;&gt;Node4</title>
<g id="a_edge1087_Node000000_Node000004"><a xlink:title=" ">
<path fill="none" stroke="#63b8ff" d="M86.71,-1334.5C102.96,-1334.5 121.13,-1334.5 137.41,-1334.5"/>
<polygon fill="#63b8ff" stroke="#63b8ff" points="86.35,-1331 76.35,-1334.5 86.35,-1338 86.35,-1331"/>
</a>
</g>
</g>
<!-- Node13 -->
<g id="Node000013" class="node">
<title>Node13</title>
<g id="a_Node000013"><a xlink:href="class_test_1_1_z3_solver_sat_tests.html" target="_top" xlink:title=" ">
<polygon fill="white" stroke="#666666" points="249.5,-1059 123.5,-1059 123.5,-1040 249.5,-1040 249.5,-1059"/>
<text text-anchor="middle" x="186.5" y="-1047" font-family="Helvetica,sans-Serif" font-size="10.00">Test::Z3SolverSatTests</text>
</a>
</g>
</g>
<!-- Node0&#45;&gt;Node13 -->
<g id="edge1096_Node000000_Node000013" class="edge">
<title>Node0&#45;&gt;Node13</title>
<g id="a_edge1096_Node000000_Node000013"><a xlink:title=" ">
<path fill="none" stroke="#63b8ff" d="M48.69,-1315.66C77.06,-1260.46 159.3,-1100.47 180.48,-1059.27"/>
<polygon fill="#63b8ff" stroke="#63b8ff" points="45.5,-1314.2 44.04,-1324.69 51.73,-1317.4 45.5,-1314.2"/>
</a>
</g>
</g>
<!-- Node24 -->
<g id="Node000024" class="node">
<title>Node24</title>
<g id="a_Node000024"><a xlink:href="class_test_1_1_z3_solver_satisfiability_checks.html" target="_top" xlink:title=" ">
<polygon fill="white" stroke="#666666" points="259.5,-1021.5 113.5,-1021.5 113.5,-991.5 259.5,-991.5 259.5,-1021.5"/>
<text text-anchor="start" x="121.5" y="-1009.5" font-family="Helvetica,sans-Serif" font-size="10.00">Test::Z3SolverSatisfiability</text>
<text text-anchor="middle" x="186.5" y="-998.5" font-family="Helvetica,sans-Serif" font-size="10.00">Checks</text>
</a>
</g>
</g>
<!-- Node0&#45;&gt;Node24 -->
<g id="edge1107_Node000000_Node000024" class="edge">
<title>Node0&#45;&gt;Node24</title>
<g id="a_edge1107_Node000000_Node000024"><a xlink:title=" ">
<path fill="none" stroke="#63b8ff" d="M41.27,-1314.75C48.57,-1254.4 73.28,-1073.93 112,-1031.5 115.54,-1027.62 119.71,-1024.34 124.24,-1021.57"/>
<polygon fill="#63b8ff" stroke="#63b8ff" points="37.77,-1314.51 40.07,-1324.85 44.72,-1315.33 37.77,-1314.51"/>
</a>
</g>
</g>
<!-- Node25 -->
<g id="Node000025" class="node">
<title>Node25</title>
<g id="a_Node000025"><a xlink:href="class_test_1_1_z3_solver_tests.html" target="_top" xlink:title=" ">
<polygon fill="white" stroke="#666666" points="241.5,-382 131.5,-382 131.5,-363 241.5,-363 241.5,-382"/>
<text text-anchor="middle" x="186.5" y="-370" font-family="Helvetica,sans-Serif" font-size="10.00">Test::Z3SolverTests</text>
</a>
</g>
</g>
<!-- Node0&#45;&gt;Node25 -->
<g id="edge1108_Node000000_Node000025" class="edge">
<title>Node0&#45;&gt;Node25</title>
<g id="a_edge1108_Node000000_Node000025"><a xlink:title=" ">
<path fill="none" stroke="#63b8ff" d="M41.96,-1315.08C61.37,-1187.63 170.14,-473.38 184.04,-382.1"/>
<polygon fill="#63b8ff" stroke="#63b8ff" points="38.5,-1314.57 40.45,-1324.98 45.42,-1315.62 38.5,-1314.57"/>
</a>
</g>
</g>
<!-- Node5 -->
<g id="Node000005" class="node">
<title>Node5</title>
<g id="a_Node000005"><a xlink:href="class_test_1_1_format_test.html" target="_top" xlink:title="Helper methods to build configurations for Format Tests.">
<polygon fill="white" stroke="#666666" points="438.5,-1529 342.5,-1529 342.5,-1510 438.5,-1510 438.5,-1529"/>
<text text-anchor="middle" x="390.5" y="-1517" font-family="Helvetica,sans-Serif" font-size="10.00">Test::FormatTest</text>
</a>
</g>
</g>
<!-- Node4&#45;&gt;Node5 -->
<g id="edge1088_Node000004_Node000005" class="edge">
<title>Node4&#45;&gt;Node5</title>
<g id="a_edge1088_Node000004_Node000005"><a xlink:title=" ">
<path fill="none" stroke="#63b8ff" d="M245.22,-1342.73C251.07,-1345.43 256.51,-1348.94 261,-1353.5 308.52,-1401.71 248.03,-1454.76 297,-1501.5 309.07,-1513.02 326.21,-1518.22 342.46,-1520.31"/>
<polygon fill="#63b8ff" stroke="#63b8ff" points="246.34,-1339.41 235.74,-1339.12 243.84,-1345.95 246.34,-1339.41"/>
</a>
</g>
</g>
<!-- Node6 -->
<g id="Node000006" class="node">
<title>Node6</title>
<g id="a_Node000006"><a xlink:href="class_test_1_1_p4_asserts_parser_test.html" target="_top" xlink:title=" ">
<polygon fill="white" stroke="#666666" points="460.5,-1492 320.5,-1492 320.5,-1473 460.5,-1473 460.5,-1492"/>
<text text-anchor="middle" x="390.5" y="-1480" font-family="Helvetica,sans-Serif" font-size="10.00">Test::P4AssertsParserTest</text>
</a>
</g>
</g>
<!-- Node4&#45;&gt;Node6 -->
<g id="edge1089_Node000004_Node000006" class="edge">
<title>Node4&#45;&gt;Node6</title>
<g id="a_edge1089_Node000004_Node000006"><a xlink:title=" ">
<path fill="none" stroke="#63b8ff" d="M245.13,-1343.18C250.95,-1345.8 256.4,-1349.17 261,-1353.5 298.77,-1389.04 258.17,-1430.12 297,-1464.5 303.74,-1470.46 311.85,-1474.7 320.43,-1477.67"/>
<polygon fill="#63b8ff" stroke="#63b8ff" points="246.33,-1339.89 235.74,-1339.64 243.86,-1346.44 246.33,-1339.89"/>
</a>
</g>
</g>
<!-- Node7 -->
<g id="Node000007" class="node">
<title>Node7</title>
<g id="a_Node000007"><a xlink:href="class_test_1_1_p4_runtime_api_test.html" target="_top" xlink:title="Helper methods to build configurations for P4RuntimeApi Tests.">
<polygon fill="white" stroke="#666666" points="456,-1455 325,-1455 325,-1436 456,-1436 456,-1455"/>
<text text-anchor="middle" x="390.5" y="-1443" font-family="Helvetica,sans-Serif" font-size="10.00">Test::P4RuntimeApiTest</text>
</a>
</g>
</g>
<!-- Node4&#45;&gt;Node7 -->
<g id="edge1090_Node000004_Node000007" class="edge">
<title>Node4&#45;&gt;Node7</title>
<g id="a_edge1090_Node000004_Node000007"><a xlink:title=" ">
<path fill="none" stroke="#63b8ff" d="M245.45,-1344.21C251.05,-1346.66 256.36,-1349.7 261,-1353.5 289.31,-1376.65 268,-1405.22 297,-1427.5 305.17,-1433.78 314.93,-1438.06 324.99,-1440.94"/>
<polygon fill="#63b8ff" stroke="#63b8ff" points="246.42,-1340.84 235.83,-1340.65 243.98,-1347.4 246.42,-1340.84"/>
</a>
</g>
</g>
<!-- Node8 -->
<g id="Node000008" class="node">
<title>Node8</title>
<g id="a_Node000008"><a xlink:href="class_test_1_1_p_t_f_test.html" target="_top" xlink:title="Helper methods to build configurations for PTF Tests.">
<polygon fill="white" stroke="#666666" points="430,-1418 351,-1418 351,-1399 430,-1399 430,-1418"/>
<text text-anchor="middle" x="390.5" y="-1406" font-family="Helvetica,sans-Serif" font-size="10.00">Test::PTFTest</text>
</a>
</g>
</g>
<!-- Node4&#45;&gt;Node8 -->
<g id="edge1091_Node000004_Node000008" class="edge">
<title>Node4&#45;&gt;Node8</title>
<g id="a_edge1091_Node000004_Node000008"><a xlink:title=" ">
<path fill="none" stroke="#63b8ff" d="M245.49,-1346.23C250.89,-1348.29 256.16,-1350.69 261,-1353.5 280.84,-1365.02 276.82,-1379.59 297,-1390.5 313.41,-1399.37 333.54,-1403.91 350.84,-1406.22"/>
<polygon fill="#63b8ff" stroke="#63b8ff" points="246.25,-1342.8 235.66,-1342.91 244.01,-1349.43 246.25,-1342.8"/>
</a>
</g>
</g>
<!-- Node9 -->
<g id="Node000009" class="node">
<title>Node9</title>
<g id="a_Node000009"><a xlink:href="class_test_1_1_s_t_f_test.html" target="_top" xlink:title="Helper methods to build configurations for STF Tests.">
<polygon fill="white" stroke="#666666" points="430,-1381 351,-1381 351,-1362 430,-1362 430,-1381"/>
<text text-anchor="middle" x="390.5" y="-1369" font-family="Helvetica,sans-Serif" font-size="10.00">Test::STFTest</text>
</a>
</g>
</g>
<!-- Node4&#45;&gt;Node9 -->
<g id="edge1092_Node000004_Node000009" class="edge">
<title>Node4&#45;&gt;Node9</title>
<g id="a_edge1092_Node000004_Node000009"><a xlink:title=" ">
<path fill="none" stroke="#63b8ff" d="M245.83,-1345.18C279.59,-1351.37 321.15,-1358.98 350.86,-1364.42"/>
<polygon fill="#63b8ff" stroke="#63b8ff" points="246.09,-1341.67 235.63,-1343.32 244.83,-1348.56 246.09,-1341.67"/>
</a>
</g>
</g>
<!-- Node10 -->
<g id="Node000010" class="node">
<title>Node10</title>
<g id="a_Node000010"><a xlink:href="class_test_1_1_small_step_test.html" target="_top" xlink:title=" ">
<polygon fill="white" stroke="#666666" points="446,-1344 335,-1344 335,-1325 446,-1325 446,-1344"/>
<text text-anchor="middle" x="390.5" y="-1332" font-family="Helvetica,sans-Serif" font-size="10.00">Test::SmallStepTest</text>
</a>
</g>
</g>
<!-- Node4&#45;&gt;Node10 -->
<g id="edge1093_Node000004_Node000010" class="edge">
<title>Node4&#45;&gt;Node10</title>
<g id="a_edge1093_Node000004_Node000010"><a xlink:title=" ">
<path fill="none" stroke="#63b8ff" d="M245.72,-1334.5C273.83,-1334.5 307.36,-1334.5 334.97,-1334.5"/>
<polygon fill="#63b8ff" stroke="#63b8ff" points="245.63,-1331 235.63,-1334.5 245.63,-1338 245.63,-1331"/>
</a>
</g>
</g>
<!-- Node11 -->
<g id="Node000011" class="node">
<title>Node11</title>
<g id="a_Node000011"><a xlink:href="class_test_1_1_taint_test.html" target="_top" xlink:title="Helper methods to build configurations for Taint Tests.">
<polygon fill="white" stroke="#666666" points="433,-1307 348,-1307 348,-1288 433,-1288 433,-1307"/>
<text text-anchor="middle" x="390.5" y="-1295" font-family="Helvetica,sans-Serif" font-size="10.00">Test::TaintTest</text>
</a>
</g>
</g>
<!-- Node4&#45;&gt;Node11 -->
<g id="edge1094_Node000004_Node000011" class="edge">
<title>Node4&#45;&gt;Node11</title>
<g id="a_edge1094_Node000004_Node000011"><a xlink:title=" ">
<path fill="none" stroke="#63b8ff" d="M245.52,-1323.87C278.23,-1317.88 318.33,-1310.54 347.89,-1305.12"/>
<polygon fill="#63b8ff" stroke="#63b8ff" points="244.83,-1320.44 235.63,-1325.68 246.09,-1327.33 244.83,-1320.44"/>
</a>
</g>
</g>
<!-- Node12 -->
<g id="Node000012" class="node">
<title>Node12</title>
<g id="a_Node000012"><a xlink:href="class_test_1_1_z3_solver_test.html" target="_top" xlink:title=" ">
<polygon fill="white" stroke="#666666" points="443,-1270 338,-1270 338,-1251 443,-1251 443,-1270"/>
<text text-anchor="middle" x="390.5" y="-1258" font-family="Helvetica,sans-Serif" font-size="10.00">Test::Z3SolverTest</text>
</a>
</g>
</g>
<!-- Node4&#45;&gt;Node12 -->
<g id="edge1095_Node000004_Node000012" class="edge">
<title>Node4&#45;&gt;Node12</title>
<g id="a_edge1095_Node000004_Node000012"><a xlink:title=" ">
<path fill="none" stroke="#63b8ff" d="M212.09,-1319.79C233.76,-1307.41 266.54,-1290.07 297,-1279.5 310.01,-1274.99 324.44,-1271.39 337.96,-1268.59"/>
<polygon fill="#63b8ff" stroke="#63b8ff" points="210.14,-1316.88 203.24,-1324.92 213.65,-1322.93 210.14,-1316.88"/>
</a>
</g>
</g>
<!-- Node14 -->
<g id="Node000014" class="node">
<title>Node14</title>
<g id="a_Node000014"><a xlink:href="class_test_1_1_arithm_test_1_1_z3_solver_add_sat01.html" target="_top" xlink:title=" ">
<polygon fill="white" stroke="#666666" points="462.5,-1232.5 318.5,-1232.5 318.5,-1202.5 462.5,-1202.5 462.5,-1232.5"/>
<text text-anchor="start" x="326.5" y="-1220.5" font-family="Helvetica,sans-Serif" font-size="10.00">Test::ArithmTest::Z3Solver</text>
<text text-anchor="middle" x="390.5" y="-1209.5" font-family="Helvetica,sans-Serif" font-size="10.00">AddSat01</text>
</a>
</g>
</g>
<!-- Node13&#45;&gt;Node14 -->
<g id="edge1097_Node000013_Node000014" class="edge">
<title>Node13&#45;&gt;Node14</title>
<g id="a_edge1097_Node000013_Node000014"><a xlink:title=" ">
<path fill="none" stroke="#63b8ff" d="M196.68,-1068.66C212.61,-1099.8 248.38,-1161.14 297,-1193.5 303.49,-1197.82 310.72,-1201.36 318.19,-1204.27"/>
<polygon fill="#63b8ff" stroke="#63b8ff" points="199.64,-1066.74 192.05,-1059.35 193.37,-1069.86 199.64,-1066.74"/>
</a>
</g>
</g>
<!-- Node15 -->
<g id="Node000015" class="node">
<title>Node15</title>
<g id="a_Node000015"><a xlink:href="class_test_1_1_arithm_test_1_1_z3_solver_add_sat02.html" target="_top" xlink:title=" ">
<polygon fill="white" stroke="#666666" points="462.5,-1184.5 318.5,-1184.5 318.5,-1154.5 462.5,-1154.5 462.5,-1184.5"/>
<text text-anchor="start" x="326.5" y="-1172.5" font-family="Helvetica,sans-Serif" font-size="10.00">Test::ArithmTest::Z3Solver</text>
<text text-anchor="middle" x="390.5" y="-1161.5" font-family="Helvetica,sans-Serif" font-size="10.00">AddSat02</text>
</a>
</g>
</g>
<!-- Node13&#45;&gt;Node15 -->
<g id="edge1098_Node000013_Node000015" class="edge">
<title>Node13&#45;&gt;Node15</title>
<g id="a_edge1098_Node000013_Node000015"><a xlink:title=" ">
<path fill="none" stroke="#63b8ff" d="M202.37,-1066.77C221.91,-1088.38 258.34,-1125.03 297,-1145.5 303.6,-1148.99 310.74,-1152 318.02,-1154.58"/>
<polygon fill="#63b8ff" stroke="#63b8ff" points="204.76,-1064.19 195.51,-1059.03 199.52,-1068.83 204.76,-1064.19"/>
</a>
</g>
</g>
<!-- Node16 -->
<g id="Node000016" class="node">
<title>Node16</title>
<g id="a_Node000016"><a xlink:href="class_test_1_1_arithm_test_1_1_z3_solver_add_sat03.html" target="_top" xlink:title=" ">
<polygon fill="white" stroke="#666666" points="462.5,-1136.5 318.5,-1136.5 318.5,-1106.5 462.5,-1106.5 462.5,-1136.5"/>
<text text-anchor="start" x="326.5" y="-1124.5" font-family="Helvetica,sans-Serif" font-size="10.00">Test::ArithmTest::Z3Solver</text>
<text text-anchor="middle" x="390.5" y="-1113.5" font-family="Helvetica,sans-Serif" font-size="10.00">AddSat03</text>
</a>
</g>
</g>
<!-- Node13&#45;&gt;Node16 -->
<g id="edge1099_Node000013_Node000016" class="edge">
<title>Node13&#45;&gt;Node16</title>
<g id="a_edge1099_Node000013_Node000016"><a xlink:title=" ">
<path fill="none" stroke="#63b8ff" d="M215.94,-1063.46C237.76,-1073.8 268.81,-1087.73 297,-1097.5 306.25,-1100.7 316.15,-1103.71 325.91,-1106.43"/>
<polygon fill="#63b8ff" stroke="#63b8ff" points="217.44,-1060.3 206.9,-1059.13 214.41,-1066.61 217.44,-1060.3"/>
</a>
</g>
</g>
<!-- Node17 -->
<g id="Node000017" class="node">
<title>Node17</title>
<g id="a_Node000017"><a xlink:href="class_test_1_1_arithm_test_1_1_z3_solver_add_sat04.html" target="_top" xlink:title=" ">
<polygon fill="white" stroke="#666666" points="462.5,-1088.5 318.5,-1088.5 318.5,-1058.5 462.5,-1058.5 462.5,-1088.5"/>
<text text-anchor="start" x="326.5" y="-1076.5" font-family="Helvetica,sans-Serif" font-size="10.00">Test::ArithmTest::Z3Solver</text>
<text text-anchor="middle" x="390.5" y="-1065.5" font-family="Helvetica,sans-Serif" font-size="10.00">AddSat04</text>
</a>
</g>
</g>
<!-- Node13&#45;&gt;Node17 -->
<g id="edge1100_Node000013_Node000017" class="edge">
<title>Node13&#45;&gt;Node17</title>
<g id="a_edge1100_Node000013_Node000017"><a xlink:title=" ">
<path fill="none" stroke="#63b8ff" d="M259.84,-1058.09C278.84,-1060.35 299.32,-1062.79 318.27,-1065.04"/>
<polygon fill="#63b8ff" stroke="#63b8ff" points="260.1,-1054.6 249.75,-1056.9 259.27,-1061.55 260.1,-1054.6"/>
</a>
</g>
</g>
<!-- Node18 -->
<g id="Node000018" class="node">
<title>Node18</title>
<g id="a_Node000018"><a xlink:href="class_test_1_1_arithm_test_1_1_z3_solver_add_sat05.html" target="_top" xlink:title=" ">
<polygon fill="white" stroke="#666666" points="462.5,-1040.5 318.5,-1040.5 318.5,-1010.5 462.5,-1010.5 462.5,-1040.5"/>
<text text-anchor="start" x="326.5" y="-1028.5" font-family="Helvetica,sans-Serif" font-size="10.00">Test::ArithmTest::Z3Solver</text>
<text text-anchor="middle" x="390.5" y="-1017.5" font-family="Helvetica,sans-Serif" font-size="10.00">AddSat05</text>
</a>
</g>
</g>
<!-- Node13&#45;&gt;Node18 -->
<g id="edge1101_Node000013_Node000018" class="edge">
<title>Node13&#45;&gt;Node18</title>
<g id="a_edge1101_Node000013_Node000018"><a xlink:title=" ">
<path fill="none" stroke="#63b8ff" d="M259.84,-1040.91C278.84,-1038.65 299.32,-1036.21 318.27,-1033.96"/>
<polygon fill="#63b8ff" stroke="#63b8ff" points="259.27,-1037.45 249.75,-1042.1 260.1,-1044.4 259.27,-1037.45"/>
</a>
</g>
</g>
<!-- Node19 -->
<g id="Node000019" class="node">
<title>Node19</title>
<g id="a_Node000019"><a xlink:href="class_test_1_1_arithm_test_1_1_z3_solver_sub_sat01.html" target="_top" xlink:title=" ">
<polygon fill="white" stroke="#666666" points="462.5,-992.5 318.5,-992.5 318.5,-962.5 462.5,-962.5 462.5,-992.5"/>
<text text-anchor="start" x="326.5" y="-980.5" font-family="Helvetica,sans-Serif" font-size="10.00">Test::ArithmTest::Z3Solver</text>
<text text-anchor="middle" x="390.5" y="-969.5" font-family="Helvetica,sans-Serif" font-size="10.00">SubSat01</text>
</a>
</g>
</g>
<!-- Node13&#45;&gt;Node19 -->
<g id="edge1102_Node000013_Node000019" class="edge">
<title>Node13&#45;&gt;Node19</title>
<g id="a_edge1102_Node000013_Node000019"><a xlink:title=" ">
<path fill="none" stroke="#63b8ff" d="M246.27,-1036.75C251.35,-1034.92 256.34,-1032.84 261,-1030.5 279.36,-1021.28 278.64,-1010.73 297,-1001.5 303.82,-998.07 311.17,-995.1 318.65,-992.53"/>
<polygon fill="#63b8ff" stroke="#63b8ff" points="244.82,-1033.54 236.41,-1039.97 247,-1040.19 244.82,-1033.54"/>
</a>
</g>
</g>
<!-- Node20 -->
<g id="Node000020" class="node">
<title>Node20</title>
<g id="a_Node000020"><a xlink:href="class_test_1_1_arithm_test_1_1_z3_solver_sub_sat02.html" target="_top" xlink:title=" ">
<polygon fill="white" stroke="#666666" points="462.5,-944.5 318.5,-944.5 318.5,-914.5 462.5,-914.5 462.5,-944.5"/>
<text text-anchor="start" x="326.5" y="-932.5" font-family="Helvetica,sans-Serif" font-size="10.00">Test::ArithmTest::Z3Solver</text>
<text text-anchor="middle" x="390.5" y="-921.5" font-family="Helvetica,sans-Serif" font-size="10.00">SubSat02</text>
</a>
</g>
</g>
<!-- Node13&#45;&gt;Node20 -->
<g id="edge1103_Node000013_Node000020" class="edge">
<title>Node13&#45;&gt;Node20</title>
<g id="a_edge1103_Node000013_Node000020"><a xlink:title=" ">
<path fill="none" stroke="#63b8ff" d="M254.51,-1035.15C256.79,-1033.74 258.96,-1032.19 261,-1030.5 290.06,-1006.36 267.95,-977.65 297,-953.5 303.25,-948.3 310.5,-944.22 318.13,-941"/>
<polygon fill="#63b8ff" stroke="#63b8ff" points="252.57,-1032.22 245.32,-1039.94 255.8,-1038.42 252.57,-1032.22"/>
</a>
</g>
</g>
<!-- Node21 -->
<g id="Node000021" class="node">
<title>Node21</title>
<g id="a_Node000021"><a xlink:href="class_test_1_1_arithm_test_1_1_z3_solver_sub_sat03.html" target="_top" xlink:title=" ">
<polygon fill="white" stroke="#666666" points="462.5,-896.5 318.5,-896.5 318.5,-866.5 462.5,-866.5 462.5,-896.5"/>
<text text-anchor="start" x="326.5" y="-884.5" font-family="Helvetica,sans-Serif" font-size="10.00">Test::ArithmTest::Z3Solver</text>
<text text-anchor="middle" x="390.5" y="-873.5" font-family="Helvetica,sans-Serif" font-size="10.00">SubSat03</text>
</a>
</g>
</g>
<!-- Node13&#45;&gt;Node21 -->
<g id="edge1104_Node000013_Node000021" class="edge">
<title>Node13&#45;&gt;Node21</title>
<g id="a_edge1104_Node000013_Node000021"><a xlink:title=" ">
<path fill="none" stroke="#63b8ff" d="M256.27,-1034.53C257.93,-1033.29 259.51,-1031.95 261,-1030.5 302.44,-990.18 255.58,-945.83 297,-905.5 303.06,-899.6 310.38,-895.09 318.21,-891.67"/>
<polygon fill="#63b8ff" stroke="#63b8ff" points="254.1,-1031.75 247.4,-1039.96 257.75,-1037.73 254.1,-1031.75"/>
</a>
</g>
</g>
<!-- Node22 -->
<g id="Node000022" class="node">
<title>Node22</title>
<g id="a_Node000022"><a xlink:href="class_test_1_1_arithm_test_1_1_z3_solver_sub_sat04.html" target="_top" xlink:title=" ">
<polygon fill="white" stroke="#666666" points="462.5,-848.5 318.5,-848.5 318.5,-818.5 462.5,-818.5 462.5,-848.5"/>
<text text-anchor="start" x="326.5" y="-836.5" font-family="Helvetica,sans-Serif" font-size="10.00">Test::ArithmTest::Z3Solver</text>
<text text-anchor="middle" x="390.5" y="-825.5" font-family="Helvetica,sans-Serif" font-size="10.00">SubSat04</text>
</a>
</g>
</g>
<!-- Node13&#45;&gt;Node22 -->
<g id="edge1105_Node000013_Node000022" class="edge">
<title>Node13&#45;&gt;Node22</title>
<g id="a_edge1105_Node000013_Node000022"><a xlink:title=" ">
<path fill="none" stroke="#63b8ff" d="M257.03,-1034.18C258.42,-1033.04 259.75,-1031.81 261,-1030.5 315.19,-973.66 242.84,-914.37 297,-857.5 302.95,-851.25 310.3,-846.55 318.23,-843.03"/>
<polygon fill="#63b8ff" stroke="#63b8ff" points="254.81,-1031.45 248.41,-1039.9 258.68,-1037.29 254.81,-1031.45"/>
</a>
</g>
</g>
<!-- Node23 -->
<g id="Node000023" class="node">
<title>Node23</title>
<g id="a_Node000023"><a xlink:href="class_test_1_1_arithm_test_1_1_z3_solver_sub_sat05.html" target="_top" xlink:title=" ">
<polygon fill="white" stroke="#666666" points="462.5,-800.5 318.5,-800.5 318.5,-770.5 462.5,-770.5 462.5,-800.5"/>
<text text-anchor="start" x="326.5" y="-788.5" font-family="Helvetica,sans-Serif" font-size="10.00">Test::ArithmTest::Z3Solver</text>
<text text-anchor="middle" x="390.5" y="-777.5" font-family="Helvetica,sans-Serif" font-size="10.00">SubSat05</text>
</a>
</g>
</g>
<!-- Node13&#45;&gt;Node23 -->
<g id="edge1106_Node000013_Node000023" class="edge">
<title>Node13&#45;&gt;Node23</title>
<g id="a_edge1106_Node000013_Node000023"><a xlink:title=" ">
<path fill="none" stroke="#63b8ff" d="M257.21,-1034.17C258.54,-1033.03 259.81,-1031.81 261,-1030.5 328.08,-956.99 229.96,-883.04 297,-809.5 302.92,-803 310.36,-798.17 318.43,-794.58"/>
<polygon fill="#63b8ff" stroke="#63b8ff" points="255.18,-1031.31 248.93,-1039.87 259.15,-1037.08 255.18,-1031.31"/>
</a>
</g>
</g>
<!-- Node26 -->
<g id="Node000026" class="node">
<title>Node26</title>
<g id="a_Node000026"><a xlink:href="class_test_1_1_z3_test_1_1_z3_solver_add.html" target="_top" xlink:title=" ">
<polygon fill="white" stroke="#666666" points="462,-752 319,-752 319,-733 462,-733 462,-752"/>
<text text-anchor="middle" x="390.5" y="-740" font-family="Helvetica,sans-Serif" font-size="10.00">Test::Z3Test::Z3SolverAdd</text>
</a>
</g>
</g>
<!-- Node25&#45;&gt;Node26 -->
<g id="edge1109_Node000025_Node000026" class="edge">
<title>Node25&#45;&gt;Node26</title>
<g id="a_edge1109_Node000025_Node000026"><a xlink:title=" ">
<path fill="none" stroke="#63b8ff" d="M187.14,-392.23C187.19,-452.24 196.03,-634.01 297,-724.5 303.34,-730.18 310.91,-734.29 318.97,-737.24"/>
<polygon fill="#63b8ff" stroke="#63b8ff" points="190.64,-392.22 187.22,-382.2 183.64,-392.17 190.64,-392.22"/>
</a>
</g>
</g>
<!-- Node27 -->
<g id="Node000027" class="node">
<title>Node27</title>
<g id="a_Node000027"><a xlink:href="class_test_1_1_z3_test_1_1_z3_solver_b_and.html" target="_top" xlink:title=" ">
<polygon fill="white" stroke="#666666" points="465,-715 316,-715 316,-696 465,-696 465,-715"/>
<text text-anchor="middle" x="390.5" y="-703" font-family="Helvetica,sans-Serif" font-size="10.00">Test::Z3Test::Z3SolverBAnd</text>
</a>
</g>
</g>
<!-- Node25&#45;&gt;Node27 -->
<g id="edge1110_Node000025_Node000027" class="edge">
<title>Node25&#45;&gt;Node27</title>
<g id="a_edge1110_Node000025_Node000027"><a xlink:title=" ">
<path fill="none" stroke="#63b8ff" d="M187.97,-392.34C190.43,-448.25 205.51,-608.19 297,-687.5 302.56,-692.32 309.03,-696.01 315.91,-698.8"/>
<polygon fill="#63b8ff" stroke="#63b8ff" points="191.46,-391.93 187.61,-382.05 184.46,-392.17 191.46,-391.93"/>
</a>
</g>
</g>
<!-- Node28 -->
<g id="Node000028" class="node">
<title>Node28</title>
<g id="a_Node000028"><a xlink:href="class_test_1_1_z3_test_1_1_z3_solver_b_o_r.html" target="_top" xlink:title=" ">
<polygon fill="white" stroke="#666666" points="463,-678 318,-678 318,-659 463,-659 463,-678"/>
<text text-anchor="middle" x="390.5" y="-666" font-family="Helvetica,sans-Serif" font-size="10.00">Test::Z3Test::Z3SolverBOR</text>
</a>
</g>
</g>
<!-- Node25&#45;&gt;Node28 -->
<g id="edge1111_Node000025_Node000028" class="edge">
<title>Node25&#45;&gt;Node28</title>
<g id="a_edge1111_Node000025_Node000028"><a xlink:title=" ">
<path fill="none" stroke="#63b8ff" d="M188.97,-392.06C193.93,-443.27 214.69,-582.03 297,-650.5 303.16,-655.63 310.36,-659.45 317.96,-662.28"/>
<polygon fill="#63b8ff" stroke="#63b8ff" points="192.45,-391.67 188.1,-382.01 185.48,-392.28 192.45,-391.67"/>
</a>
</g>
</g>
<!-- Node29 -->
<g id="Node000029" class="node">
<title>Node29</title>
<g id="a_Node000029"><a xlink:href="class_test_1_1_z3_test_1_1_z3_solver_b_xor.html" target="_top" xlink:title=" ">
<polygon fill="white" stroke="#666666" points="464,-641 317,-641 317,-622 464,-622 464,-641"/>
<text text-anchor="middle" x="390.5" y="-629" font-family="Helvetica,sans-Serif" font-size="10.00">Test::Z3Test::Z3SolverBXor</text>
</a>
</g>
</g>
<!-- Node25&#45;&gt;Node29 -->
<g id="edge1112_Node000025_Node000029" class="edge">
<title>Node25&#45;&gt;Node29</title>
<g id="a_edge1112_Node000025_Node000029"><a xlink:title=" ">
<path fill="none" stroke="#63b8ff" d="M190.36,-392.12C198.21,-438.39 224.53,-554.77 297,-612.5 302.9,-617.2 309.66,-620.82 316.79,-623.61"/>
<polygon fill="#63b8ff" stroke="#63b8ff" points="193.81,-391.5 188.78,-382.17 186.9,-392.6 193.81,-391.5"/>
</a>
</g>
</g>
<!-- Node30 -->
<g id="Node000030" class="node">
<title>Node30</title>
<g id="a_Node000030"><a xlink:href="class_test_1_1_z3_test_1_1_z3_solver_cast_bit2_bool.html" target="_top" xlink:title=" ">
<polygon fill="white" stroke="#666666" points="463.5,-603.5 317.5,-603.5 317.5,-573.5 463.5,-573.5 463.5,-603.5"/>
<text text-anchor="start" x="325.5" y="-591.5" font-family="Helvetica,sans-Serif" font-size="10.00">Test::Z3Test::Z3SolverCast</text>
<text text-anchor="middle" x="390.5" y="-580.5" font-family="Helvetica,sans-Serif" font-size="10.00">Bit2Bool</text>
</a>
</g>
</g>
<!-- Node25&#45;&gt;Node30 -->
<g id="edge1113_Node000025_Node000030" class="edge">
<title>Node25&#45;&gt;Node30</title>
<g id="a_edge1113_Node000025_Node000030"><a xlink:title=" ">
<path fill="none" stroke="#63b8ff" d="M192.95,-391.9C204.94,-430.88 237.39,-518.88 297,-564.5 303.06,-569.14 309.93,-572.88 317.12,-575.91"/>
<polygon fill="#63b8ff" stroke="#63b8ff" points="196.3,-390.88 190.11,-382.28 189.59,-392.86 196.3,-390.88"/>
</a>
</g>
</g>
<!-- Node31 -->
<g id="Node000031" class="node">
<title>Node31</title>
<g id="a_Node000031"><a xlink:href="class_test_1_1_z3_test_1_1_z3_solver_cast_bit2_equal_bit.html" target="_top" xlink:title=" ">
<polygon fill="white" stroke="#666666" points="463.5,-555.5 317.5,-555.5 317.5,-525.5 463.5,-525.5 463.5,-555.5"/>
<text text-anchor="start" x="325.5" y="-543.5" font-family="Helvetica,sans-Serif" font-size="10.00">Test::Z3Test::Z3SolverCast</text>
<text text-anchor="middle" x="390.5" y="-532.5" font-family="Helvetica,sans-Serif" font-size="10.00">Bit2EqualBit</text>
</a>
</g>
</g>
<!-- Node25&#45;&gt;Node31 -->
<g id="edge1114_Node000025_Node000031" class="edge">
<title>Node25&#45;&gt;Node31</title>
<g id="a_edge1114_Node000025_Node000031"><a xlink:title=" ">
<path fill="none" stroke="#63b8ff" d="M196.68,-391.66C212.61,-422.8 248.38,-484.14 297,-516.5 303.22,-520.64 310.1,-524.06 317.24,-526.89"/>
<polygon fill="#63b8ff" stroke="#63b8ff" points="199.64,-389.74 192.05,-382.35 193.37,-392.86 199.64,-389.74"/>
</a>
</g>
</g>
<!-- Node32 -->
<g id="Node000032" class="node">
<title>Node32</title>
<g id="a_Node000032"><a xlink:href="class_test_1_1_z3_test_1_1_z3_solver_cast_bit2_larger_bit.html" target="_top" xlink:title=" ">
<polygon fill="white" stroke="#666666" points="463.5,-507.5 317.5,-507.5 317.5,-477.5 463.5,-477.5 463.5,-507.5"/>
<text text-anchor="start" x="325.5" y="-495.5" font-family="Helvetica,sans-Serif" font-size="10.00">Test::Z3Test::Z3SolverCast</text>
<text text-anchor="middle" x="390.5" y="-484.5" font-family="Helvetica,sans-Serif" font-size="10.00">Bit2LargerBit</text>
</a>
</g>
</g>
<!-- Node25&#45;&gt;Node32 -->
<g id="edge1115_Node000025_Node000032" class="edge">
<title>Node25&#45;&gt;Node32</title>
<g id="a_edge1115_Node000025_Node000032"><a xlink:title=" ">
<path fill="none" stroke="#63b8ff" d="M202.37,-389.77C221.91,-411.38 258.34,-448.03 297,-468.5 303.45,-471.92 310.42,-474.87 317.53,-477.41"/>
<polygon fill="#63b8ff" stroke="#63b8ff" points="204.76,-387.19 195.51,-382.03 199.52,-391.83 204.76,-387.19"/>
</a>
</g>
</g>
<!-- Node33 -->
<g id="Node000033" class="node">
<title>Node33</title>
<g id="a_Node000033"><a xlink:href="class_test_1_1_z3_test_1_1_z3_solver_cast_bit2_less_bit.html" target="_top" xlink:title=" ">
<polygon fill="white" stroke="#666666" points="463.5,-459.5 317.5,-459.5 317.5,-429.5 463.5,-429.5 463.5,-459.5"/>
<text text-anchor="start" x="325.5" y="-447.5" font-family="Helvetica,sans-Serif" font-size="10.00">Test::Z3Test::Z3SolverCast</text>
<text text-anchor="middle" x="390.5" y="-436.5" font-family="Helvetica,sans-Serif" font-size="10.00">Bit2LessBit</text>
</a>
</g>
</g>
<!-- Node25&#45;&gt;Node33 -->
<g id="edge1116_Node000025_Node000033" class="edge">
<title>Node25&#45;&gt;Node33</title>
<g id="a_edge1116_Node000025_Node000033"><a xlink:title=" ">
<path fill="none" stroke="#63b8ff" d="M215.94,-386.46C237.76,-396.8 268.81,-410.73 297,-420.5 306.25,-423.7 316.15,-426.71 325.91,-429.43"/>
<polygon fill="#63b8ff" stroke="#63b8ff" points="217.44,-383.3 206.9,-382.13 214.41,-389.61 217.44,-383.3"/>
</a>
</g>
</g>
<!-- Node34 -->
<g id="Node000034" class="node">
<title>Node34</title>
<g id="a_Node000034"><a xlink:href="class_test_1_1_z3_test_1_1_z3_solver_cast_bool2_bit.html" target="_top" xlink:title=" ">
<polygon fill="white" stroke="#666666" points="463.5,-411.5 317.5,-411.5 317.5,-381.5 463.5,-381.5 463.5,-411.5"/>
<text text-anchor="start" x="325.5" y="-399.5" font-family="Helvetica,sans-Serif" font-size="10.00">Test::Z3Test::Z3SolverCast</text>
<text text-anchor="middle" x="390.5" y="-388.5" font-family="Helvetica,sans-Serif" font-size="10.00">Bool2Bit</text>
</a>
</g>
</g>
<!-- Node25&#45;&gt;Node34 -->
<g id="edge1117_Node000025_Node000034" class="edge">
<title>Node25&#45;&gt;Node34</title>
<g id="a_edge1117_Node000025_Node000034"><a xlink:title=" ">
<path fill="none" stroke="#63b8ff" d="M251.68,-380.13C272.58,-382.61 295.91,-385.38 317.36,-387.93"/>
<polygon fill="#63b8ff" stroke="#63b8ff" points="251.98,-376.64 241.63,-378.93 251.15,-383.59 251.98,-376.64"/>
</a>
</g>
</g>
<!-- Node35 -->
<g id="Node000035" class="node">
<title>Node35</title>
<g id="a_Node000035"><a xlink:href="class_test_1_1_z3_test_1_1_z3_solver_cast_in_assignment.html" target="_top" xlink:title=" ">
<polygon fill="white" stroke="#666666" points="463.5,-363.5 317.5,-363.5 317.5,-333.5 463.5,-333.5 463.5,-363.5"/>
<text text-anchor="start" x="325.5" y="-351.5" font-family="Helvetica,sans-Serif" font-size="10.00">Test::Z3Test::Z3SolverCast</text>
<text text-anchor="middle" x="390.5" y="-340.5" font-family="Helvetica,sans-Serif" font-size="10.00">InAssignment</text>
</a>
</g>
</g>
<!-- Node25&#45;&gt;Node35 -->
<g id="edge1118_Node000025_Node000035" class="edge">
<title>Node25&#45;&gt;Node35</title>
<g id="a_edge1118_Node000025_Node000035"><a xlink:title=" ">
<path fill="none" stroke="#63b8ff" d="M251.68,-364.87C272.58,-362.39 295.91,-359.62 317.36,-357.07"/>
<polygon fill="#63b8ff" stroke="#63b8ff" points="251.15,-361.41 241.63,-366.07 251.98,-368.36 251.15,-361.41"/>
</a>
</g>
</g>
<!-- Node36 -->
<g id="Node000036" class="node">
<title>Node36</title>
<g id="a_Node000036"><a xlink:href="class_test_1_1_z3_test_1_1_z3_solver_complement.html" target="_top" xlink:title=" ">
<polygon fill="white" stroke="#666666" points="484,-315 297,-315 297,-296 484,-296 484,-315"/>
<text text-anchor="middle" x="390.5" y="-303" font-family="Helvetica,sans-Serif" font-size="10.00">Test::Z3Test::Z3SolverComplement</text>
</a>
</g>
</g>
<!-- Node25&#45;&gt;Node36 -->
<g id="edge1119_Node000025_Node000036" class="edge">
<title>Node25&#45;&gt;Node36</title>
<g id="a_edge1119_Node000025_Node000036"><a xlink:title=" ">
<path fill="none" stroke="#63b8ff" d="M215.02,-358.5C236.79,-347.9 268.22,-333.65 297,-324.5 308.56,-320.82 321.17,-317.69 333.25,-315.08"/>
<polygon fill="#63b8ff" stroke="#63b8ff" points="213.44,-355.37 206.02,-362.94 216.54,-361.65 213.44,-355.37"/>
</a>
</g>
</g>
<!-- Node37 -->
<g id="Node000037" class="node">
<title>Node37</title>
<g id="a_Node000037"><a xlink:href="class_test_1_1_z3_test_1_1_z3_solver_conc.html" target="_top" xlink:title=" ">
<polygon fill="white" stroke="#666666" points="464.5,-278 316.5,-278 316.5,-259 464.5,-259 464.5,-278"/>
<text text-anchor="middle" x="390.5" y="-266" font-family="Helvetica,sans-Serif" font-size="10.00">Test::Z3Test::Z3SolverConc</text>
</a>
</g>
</g>
<!-- Node25&#45;&gt;Node37 -->
<g id="edge1120_Node000025_Node000037" class="edge">
<title>Node25&#45;&gt;Node37</title>
<g id="a_edge1120_Node000025_Node000037"><a xlink:title=" ">
<path fill="none" stroke="#63b8ff" d="M203.86,-355.79C223.96,-336.29 259.94,-304.55 297,-287.5 305.49,-283.59 314.78,-280.48 324.1,-278.01"/>
<polygon fill="#63b8ff" stroke="#63b8ff" points="201.38,-353.32 196.74,-362.84 206.31,-358.29 201.38,-353.32"/>
</a>
</g>
</g>
<!-- Node38 -->
<g id="Node000038" class="node">
<title>Node38</title>
<g id="a_Node000038"><a xlink:href="class_test_1_1_z3_test_1_1_z3_solver_i_t_e.html" target="_top" xlink:title=" ">
<polygon fill="white" stroke="#666666" points="460,-241 321,-241 321,-222 460,-222 460,-241"/>
<text text-anchor="middle" x="390.5" y="-229" font-family="Helvetica,sans-Serif" font-size="10.00">Test::Z3Test::Z3SolverITE</text>
</a>
</g>
</g>
<!-- Node25&#45;&gt;Node38 -->
<g id="edge1121_Node000025_Node000038" class="edge">
<title>Node25&#45;&gt;Node38</title>
<g id="a_edge1121_Node000025_Node000038"><a xlink:title=" ">
<path fill="none" stroke="#63b8ff" d="M198.51,-354.09C215.85,-326.84 252.17,-276.22 297,-250.5 304.39,-246.26 312.6,-242.95 320.99,-240.38"/>
<polygon fill="#63b8ff" stroke="#63b8ff" points="195.49,-352.33 193.19,-362.68 201.44,-356.02 195.49,-352.33"/>
</a>
</g>
</g>
<!-- Node39 -->
<g id="Node000039" class="node">
<title>Node39</title>
<g id="a_Node000039"><a xlink:href="class_test_1_1_z3_test_1_1_z3_solver_mod.html" target="_top" xlink:title=" ">
<polygon fill="white" stroke="#666666" points="463,-204 318,-204 318,-185 463,-185 463,-204"/>
<text text-anchor="middle" x="390.5" y="-192" font-family="Helvetica,sans-Serif" font-size="10.00">Test::Z3Test::Z3SolverMod</text>
</a>
</g>
</g>
<!-- Node25&#45;&gt;Node39 -->
<g id="edge1122_Node000025_Node000039" class="edge">
<title>Node25&#45;&gt;Node39</title>
<g id="a_edge1122_Node000025_Node000039"><a xlink:title=" ">
<path fill="none" stroke="#63b8ff" d="M194.93,-353.43C209.2,-319.45 243.83,-248.73 297,-213.5 303.29,-209.33 310.3,-206.05 317.58,-203.47"/>
<polygon fill="#63b8ff" stroke="#63b8ff" points="191.68,-352.13 191.15,-362.71 198.16,-354.76 191.68,-352.13"/>
</a>
</g>
</g>
<!-- Node40 -->
<g id="Node000040" class="node">
<title>Node40</title>
<g id="a_Node000040"><a xlink:href="class_test_1_1_z3_test_1_1_z3_solver_mult.html" target="_top" xlink:title=" ">
<polygon fill="white" stroke="#666666" points="463.5,-167 317.5,-167 317.5,-148 463.5,-148 463.5,-167"/>
<text text-anchor="middle" x="390.5" y="-155" font-family="Helvetica,sans-Serif" font-size="10.00">Test::Z3Test::Z3SolverMult</text>
</a>
</g>
</g>
<!-- Node25&#45;&gt;Node40 -->
<g id="edge1123_Node000025_Node000040" class="edge">
<title>Node25&#45;&gt;Node40</title>
<g id="a_edge1123_Node000025_Node000040"><a xlink:title=" ">
<path fill="none" stroke="#63b8ff" d="M192.48,-353C203.75,-313.03 235.19,-221.75 297,-176.5 303.08,-172.05 309.97,-168.58 317.17,-165.89"/>
<polygon fill="#63b8ff" stroke="#63b8ff" points="189.05,-352.27 189.82,-362.84 195.81,-354.09 189.05,-352.27"/>
</a>
</g>
</g>
<!-- Node41 -->
<g id="Node000041" class="node">
<title>Node41</title>
<g id="a_Node000041"><a xlink:href="class_test_1_1_z3_test_1_1_z3_solver_shl.html" target="_top" xlink:title=" ">
<polygon fill="white" stroke="#666666" points="460,-130 321,-130 321,-111 460,-111 460,-130"/>
<text text-anchor="middle" x="390.5" y="-118" font-family="Helvetica,sans-Serif" font-size="10.00">Test::Z3Test::Z3SolverShl</text>
</a>
</g>
</g>
<!-- Node25&#45;&gt;Node41 -->
<g id="edge1124_Node000025_Node000041" class="edge">
<title>Node25&#45;&gt;Node41</title>
<g id="a_edge1124_Node000025_Node000041"><a xlink:title=" ">
<path fill="none" stroke="#63b8ff" d="M190.72,-352.53C199.18,-306.98 226.43,-195.07 297,-139.5 303.96,-134.02 312.09,-130.01 320.6,-127.09"/>
<polygon fill="#63b8ff" stroke="#63b8ff" points="187.23,-352.15 188.96,-362.61 194.13,-353.36 187.23,-352.15"/>
</a>
</g>
</g>
<!-- Node42 -->
<g id="Node000042" class="node">
<title>Node42</title>
<g id="a_Node000042"><a xlink:href="class_test_1_1_z3_test_1_1_z3_solver_shr_s.html" target="_top" xlink:title=" ">
<polygon fill="white" stroke="#666666" points="463.5,-93 317.5,-93 317.5,-74 463.5,-74 463.5,-93"/>
<text text-anchor="middle" x="390.5" y="-81" font-family="Helvetica,sans-Serif" font-size="10.00">Test::Z3Test::Z3SolverShrS</text>
</a>
</g>
</g>
<!-- Node25&#45;&gt;Node42 -->
<g id="edge1125_Node000025_Node000042" class="edge">
<title>Node25&#45;&gt;Node42</title>
<g id="a_edge1125_Node000025_Node000042"><a xlink:title=" ">
<path fill="none" stroke="#63b8ff" d="M189.31,-352.54C195.02,-302.1 217.28,-168.84 297,-102.5 302.92,-97.57 309.79,-93.81 317.05,-90.96"/>
<polygon fill="#63b8ff" stroke="#63b8ff" points="185.8,-352.44 188.26,-362.75 192.77,-353.16 185.8,-352.44"/>
</a>
</g>
</g>
<!-- Node43 -->
<g id="Node000043" class="node">
<title>Node43</title>
<g id="a_Node000043"><a xlink:href="class_test_1_1_z3_test_1_1_z3_solver_shr_u.html" target="_top" xlink:title=" ">
<polygon fill="white" stroke="#666666" points="464,-56 317,-56 317,-37 464,-37 464,-56"/>
<text text-anchor="middle" x="390.5" y="-44" font-family="Helvetica,sans-Serif" font-size="10.00">Test::Z3Test::Z3SolverShrU</text>
</a>
</g>
</g>
<!-- Node25&#45;&gt;Node43 -->
<g id="edge1126_Node000025_Node000043" class="edge">
<title>Node25&#45;&gt;Node43</title>
<g id="a_edge1126_Node000025_Node000043"><a xlink:title=" ">
<path fill="none" stroke="#63b8ff" d="M188.14,-352.72C191.06,-297.69 207.25,-141.75 297,-64.5 302.83,-59.48 309.63,-55.7 316.86,-52.87"/>
<polygon fill="#63b8ff" stroke="#63b8ff" points="184.64,-352.73 187.7,-362.87 191.63,-353.03 184.64,-352.73"/>
</a>
</g>
</g>
<!-- Node44 -->
<g id="Node000044" class="node">
<title>Node44</title>
<g id="a_Node000044"><a xlink:href="class_test_1_1_z3_test_1_1_z3_solver_sub.html" target="_top" xlink:title=" ">
<polygon fill="white" stroke="#666666" points="461.5,-19 319.5,-19 319.5,0 461.5,0 461.5,-19"/>
<text text-anchor="middle" x="390.5" y="-7" font-family="Helvetica,sans-Serif" font-size="10.00">Test::Z3Test::Z3SolverSub</text>
</a>
</g>
</g>
<!-- Node25&#45;&gt;Node44 -->
<g id="edge1127_Node000025_Node000044" class="edge">
<title>Node25&#45;&gt;Node44</title>
<g id="a_edge1127_Node000025_Node000044"><a xlink:title=" ">
<path fill="none" stroke="#63b8ff" d="M187.28,-352.79C187.77,-293.56 197.81,-115.88 297,-27.5 303.47,-21.73 311.23,-17.58 319.46,-14.62"/>
<polygon fill="#63b8ff" stroke="#63b8ff" points="183.78,-352.99 187.29,-362.99 190.78,-352.99 183.78,-352.99"/>
</a>
</g>
</g>
</g>
</svg>
