<?xml version="1.0" encoding="UTF-8" standalone="no"?>
<!DOCTYPE svg PUBLIC "-//W3C//DTD SVG 1.1//EN"
 "http://www.w3.org/Graphics/SVG/1.1/DTD/svg11.dtd">
<!-- Generated by graphviz version 2.43.0 (0)
 -->
<!-- Title: Graphical Class Hierarchy Pages: 1 -->
<svg width="319pt" height="64pt"
 viewBox="0.00 0.00 319.00 64.00" xmlns="http://www.w3.org/2000/svg" xmlns:xlink="http://www.w3.org/1999/xlink">
<g id="graph0" class="graph" transform="scale(1 1) rotate(0) translate(4 60)">
<title>Graphical Class Hierarchy</title>
<!-- Node0 -->
<g id="Node000000" class="node">
<title>Node0</title>
<g id="a_Node000000"><a xlink:title=" ">
<polygon fill="#e0e0e0" stroke="#999999" points="131,-56 0,-56 0,-37 131,-37 131,-56"/>
<text text-anchor="middle" x="65.5" y="-44" font-family="Helvetica,sans-Serif" font-size="10.00">REGSET::top_level_regs</text>
</a>
</g>
</g>
<!-- Node1 -->
<g id="Node000001" class="node">
<title>Node1</title>
<g id="a_Node000001"><a xlink:href="class_top_level_regs.html" target="_top" xlink:title=" ">
<polygon fill="white" stroke="#666666" points="311,-37 167,-37 167,-18 311,-18 311,-37"/>
<text text-anchor="middle" x="239" y="-25" font-family="Helvetica,sans-Serif" font-size="10.00">TopLevelRegs&lt; REGSET &gt;</text>
</a>
</g>
</g>
<!-- Node0&#45;&gt;Node1 -->
<g id="edge2655_Node000000_Node000001" class="edge">
<title>Node0&#45;&gt;Node1</title>
<g id="a_edge2655_Node000000_Node000001"><a xlink:title=" ">
<path fill="none" stroke="#63b8ff" d="M141.49,-38.19C149.88,-37.26 158.42,-36.32 166.76,-35.39"/>
<polygon fill="#63b8ff" stroke="#63b8ff" points="140.89,-34.74 131.34,-39.32 141.66,-41.69 140.89,-34.74"/>
</a>
</g>
</g>
<!-- Node2 -->
<g id="Node000002" class="node">
<title>Node2</title>
<g id="a_Node000002"><a xlink:href="class_top_level.html" target="_top" xlink:title=" ">
<polygon fill="white" stroke="#666666" points="95,-19 36,-19 36,0 95,0 95,-19"/>
<text text-anchor="middle" x="65.5" y="-7" font-family="Helvetica,sans-Serif" font-size="10.00">TopLevel</text>
</a>
</g>
</g>
<!-- Node2&#45;&gt;Node1 -->
<g id="edge2656_Node000002_Node000001" class="edge">
<title>Node2&#45;&gt;Node1</title>
<g id="a_edge2656_Node000002_Node000001"><a xlink:title=" ">
<path fill="none" stroke="#63b8ff" d="M105.37,-13.58C123.5,-15.48 145.66,-17.81 166.63,-20.01"/>
<polygon fill="#63b8ff" stroke="#63b8ff" points="105.52,-10.08 95.21,-12.51 104.79,-17.04 105.52,-10.08"/>
</a>
</g>
</g>
</g>
</svg>
