<?xml version="1.0" encoding="UTF-8" standalone="no"?>
<!DOCTYPE svg PUBLIC "-//W3C//DTD SVG 1.1//EN"
 "http://www.w3.org/Graphics/SVG/1.1/DTD/svg11.dtd">
<!-- Generated by graphviz version 2.43.0 (0)
 -->
<!-- Title: Graphical Class Hierarchy Pages: 1 -->
<svg width="269pt" height="64pt"
 viewBox="0.00 0.00 269.00 64.00" xmlns="http://www.w3.org/2000/svg" xmlns:xlink="http://www.w3.org/1999/xlink">
<g id="graph0" class="graph" transform="scale(1 1) rotate(0) translate(4 60)">
<title>Graphical Class Hierarchy</title>
<!-- Node0 -->
<g id="Node000000" class="node">
<title>Node0</title>
<g id="a_Node000000"><a xlink:href="class_p_h_v_1_1_allocation.html" target="_top" xlink:title=" ">
<polygon fill="white" stroke="#666666" points="91,-37 0,-37 0,-18 91,-18 91,-37"/>
<text text-anchor="middle" x="45.5" y="-25" font-family="Helvetica,sans-Serif" font-size="10.00">PHV::Allocation</text>
</a>
</g>
</g>
<!-- Node1 -->
<g id="Node000001" class="node">
<title>Node1</title>
<g id="a_Node000001"><a xlink:href="class_p_h_v_1_1_concrete_allocation.html" target="_top" xlink:title=" ">
<polygon fill="white" stroke="#666666" points="261,-56 127,-56 127,-37 261,-37 261,-56"/>
<text text-anchor="middle" x="194" y="-44" font-family="Helvetica,sans-Serif" font-size="10.00">PHV::ConcreteAllocation</text>
</a>
</g>
</g>
<!-- Node0&#45;&gt;Node1 -->
<g id="edge2635_Node000000_Node000001" class="edge">
<title>Node0&#45;&gt;Node1</title>
<g id="a_edge2635_Node000000_Node000001"><a xlink:title=" ">
<path fill="none" stroke="#63b8ff" d="M101.26,-34.6C109.64,-35.69 118.36,-36.82 126.95,-37.93"/>
<polygon fill="#63b8ff" stroke="#63b8ff" points="101.62,-31.12 91.25,-33.3 100.72,-38.06 101.62,-31.12"/>
</a>
</g>
</g>
<!-- Node2 -->
<g id="Node000002" class="node">
<title>Node2</title>
<g id="a_Node000002"><a xlink:href="class_p_h_v_1_1_transaction.html" target="_top" xlink:title=" ">
<polygon fill="white" stroke="#666666" points="243,-19 145,-19 145,0 243,0 243,-19"/>
<text text-anchor="middle" x="194" y="-7" font-family="Helvetica,sans-Serif" font-size="10.00">PHV::Transaction</text>
</a>
</g>
</g>
<!-- Node0&#45;&gt;Node2 -->
<g id="edge2636_Node000000_Node000002" class="edge">
<title>Node0&#45;&gt;Node2</title>
<g id="a_edge2636_Node000000_Node000002"><a xlink:title=" ">
<path fill="none" stroke="#63b8ff" d="M101.45,-20.75C115.75,-18.99 131.05,-17.11 144.96,-15.4"/>
<polygon fill="#63b8ff" stroke="#63b8ff" points="100.75,-17.31 91.25,-22 101.6,-24.26 100.75,-17.31"/>
</a>
</g>
</g>
</g>
</svg>
