<?xml version="1.0" encoding="UTF-8" standalone="no"?>
<!DOCTYPE svg PUBLIC "-//W3C//DTD SVG 1.1//EN"
 "http://www.w3.org/Graphics/SVG/1.1/DTD/svg11.dtd">
<!-- Generated by graphviz version 2.43.0 (0)
 -->
<!-- Title: Graphical Class Hierarchy Pages: 1 -->
<svg width="545pt" height="88pt"
 viewBox="0.00 0.00 545.00 88.00" xmlns="http://www.w3.org/2000/svg" xmlns:xlink="http://www.w3.org/1999/xlink">
<g id="graph0" class="graph" transform="scale(1 1) rotate(0) translate(4 84)">
<title>Graphical Class Hierarchy</title>
<polygon fill="white" stroke="transparent" points="-4,4 -4,-84 541,-84 541,4 -4,4"/>
<!-- Node0 -->
<g id="node1" class="node">
<title>Node0</title>
<g id="a_node1"><a xlink:href="class_i_compile_context.html" target="_top" xlink:title=" ">
<polygon fill="white" stroke="black" points="0,-30 0,-49 98,-49 98,-30 0,-30"/>
<text text-anchor="middle" x="49" y="-37" font-family="Helvetica,sans-Serif" font-size="10.00">ICompileContext</text>
</a>
</g>
</g>
<!-- Node1 -->
<g id="node2" class="node">
<title>Node1</title>
<g id="a_node2"><a xlink:href="class_base_compile_context.html" target="_top" xlink:title=" ">
<polygon fill="white" stroke="black" points="134,-30 134,-49 253,-49 253,-30 134,-30"/>
<text text-anchor="middle" x="193.5" y="-37" font-family="Helvetica,sans-Serif" font-size="10.00">BaseCompileContext</text>
</a>
</g>
</g>
<!-- Node0&#45;&gt;Node1 -->
<g id="edge1" class="edge">
<title>Node0&#45;&gt;Node1</title>
<path fill="none" stroke="midnightblue" d="M108.38,-39.5C116.81,-39.5 125.5,-39.5 133.94,-39.5"/>
<polygon fill="midnightblue" stroke="midnightblue" points="108.24,-36 98.24,-39.5 108.24,-43 108.24,-36"/>
</g>
<!-- Node2 -->
<g id="node3" class="node">
<title>Node2</title>
<g id="a_node3"><a xlink:href="class_p4_c_context.html" target="_top" xlink:title=" ">
<polygon fill="white" stroke="black" points="289,-30 289,-49 363,-49 363,-30 289,-30"/>
<text text-anchor="middle" x="326" y="-37" font-family="Helvetica,sans-Serif" font-size="10.00">P4CContext</text>
</a>
</g>
</g>
<!-- Node1&#45;&gt;Node2 -->
<g id="edge2" class="edge">
<title>Node1&#45;&gt;Node2</title>
<path fill="none" stroke="midnightblue" d="M263.28,-39.5C272.16,-39.5 280.95,-39.5 288.99,-39.5"/>
<polygon fill="midnightblue" stroke="midnightblue" points="263.26,-36 253.26,-39.5 263.26,-43 263.26,-36"/>
</g>
<!-- Node3 -->
<g id="node4" class="node">
<title>Node3</title>
<g id="a_node4"><a xlink:href="class_p4_c_context_with_options.html" target="_top" xlink:title=" ">
<polygon fill="white" stroke="black" points="401,-49.5 401,-79.5 535,-79.5 535,-49.5 401,-49.5"/>
<text text-anchor="start" x="409" y="-67.5" font-family="Helvetica,sans-Serif" font-size="10.00">P4CContextWithOptions</text>
<text text-anchor="middle" x="468" y="-56.5" font-family="Helvetica,sans-Serif" font-size="10.00">&lt; OptionsType &gt;</text>
</a>
</g>
</g>
<!-- Node2&#45;&gt;Node3 -->
<g id="edge3" class="edge">
<title>Node2&#45;&gt;Node3</title>
<path fill="none" stroke="midnightblue" d="M373.18,-47.75C382.06,-49.33 391.53,-51.02 400.9,-52.7"/>
<polygon fill="midnightblue" stroke="midnightblue" points="373.51,-44.25 363.05,-45.94 372.28,-51.14 373.51,-44.25"/>
</g>
<!-- Node4 -->
<g id="node5" class="node">
<title>Node4</title>
<g id="a_node5"><a xlink:href="class_p4_tools_1_1_compile_context.html" target="_top" xlink:title="A compilation context for P4Tools that provides a custom compiler configuration.">
<polygon fill="white" stroke="black" points="399,-0.5 399,-30.5 537,-30.5 537,-0.5 399,-0.5"/>
<text text-anchor="start" x="407" y="-18.5" font-family="Helvetica,sans-Serif" font-size="10.00">P4Tools::CompileContext</text>
<text text-anchor="middle" x="468" y="-7.5" font-family="Helvetica,sans-Serif" font-size="10.00">&lt; OptionsType &gt;</text>
</a>
</g>
</g>
<!-- Node2&#45;&gt;Node4 -->
<g id="edge4" class="edge">
<title>Node2&#45;&gt;Node4</title>
<path fill="none" stroke="midnightblue" d="M372.94,-31.62C381.29,-30.19 390.16,-28.67 398.99,-27.16"/>
<polygon fill="midnightblue" stroke="midnightblue" points="372.32,-28.18 363.05,-33.32 373.5,-35.08 372.32,-28.18"/>
</g>
</g>
</svg>
