<?xml version="1.0" encoding="UTF-8" standalone="no"?>
<!DOCTYPE svg PUBLIC "-//W3C//DTD SVG 1.1//EN"
 "http://www.w3.org/Graphics/SVG/1.1/DTD/svg11.dtd">
<!-- Generated by graphviz version 2.43.0 (0)
 -->
<!-- Title: Graphical Class Hierarchy Pages: 1 -->
<svg width="460pt" height="150pt"
 viewBox="0.00 0.00 460.00 149.50" xmlns="http://www.w3.org/2000/svg" xmlns:xlink="http://www.w3.org/1999/xlink">
<g id="graph0" class="graph" transform="scale(1 1) rotate(0) translate(4 145.5)">
<title>Graphical Class Hierarchy</title>
<!-- Node0 -->
<g id="Node000000" class="node">
<title>Node0</title>
<g id="a_Node000000"><a xlink:title=" ">
<polygon fill="#e0e0e0" stroke="#999999" points="86,-74 0,-74 0,-55 86,-55 86,-74"/>
<text text-anchor="middle" x="43" y="-62" font-family="Helvetica,sans-Serif" font-size="10.00">std::exception</text>
</a>
</g>
</g>
<!-- Node1 -->
<g id="Node000001" class="node">
<title>Node1</title>
<g id="a_Node000001"><a xlink:href="class_util_1_1_p4_c_exception_base.html" target="_top" xlink:title=" ">
<polygon fill="white" stroke="#666666" points="253,-74 122,-74 122,-55 253,-55 253,-74"/>
<text text-anchor="middle" x="187.5" y="-62" font-family="Helvetica,sans-Serif" font-size="10.00">Util::P4CExceptionBase</text>
</a>
</g>
</g>
<!-- Node0&#45;&gt;Node1 -->
<g id="edge1074_Node000000_Node000001" class="edge">
<title>Node0&#45;&gt;Node1</title>
<g id="a_edge1074_Node000000_Node000001"><a xlink:title=" ">
<path fill="none" stroke="#63b8ff" d="M96.57,-64.5C104.8,-64.5 113.4,-64.5 121.86,-64.5"/>
<polygon fill="#63b8ff" stroke="#63b8ff" points="96.37,-61 86.37,-64.5 96.37,-68 96.37,-61"/>
</a>
</g>
</g>
<!-- Node2 -->
<g id="Node000002" class="node">
<title>Node2</title>
<g id="a_Node000002"><a xlink:href="class_p4_tools_1_1_p4_testgen_1_1_testgen_unimplemented.html" target="_top" xlink:title=" ">
<polygon fill="white" stroke="#666666" points="440,-141.5 301,-141.5 301,-111.5 440,-111.5 440,-141.5"/>
<text text-anchor="start" x="309" y="-129.5" font-family="Helvetica,sans-Serif" font-size="10.00">P4Tools::P4Testgen</text>
<text text-anchor="middle" x="370.5" y="-118.5" font-family="Helvetica,sans-Serif" font-size="10.00">::TestgenUnimplemented</text>
</a>
</g>
</g>
<!-- Node1&#45;&gt;Node2 -->
<g id="edge1075_Node000001_Node000002" class="edge">
<title>Node1&#45;&gt;Node2</title>
<g id="a_edge1075_Node000001_Node000002"><a xlink:title=" ">
<path fill="none" stroke="#63b8ff" d="M221.64,-77.71C241.13,-85.31 266.32,-94.84 289,-102.5 297.98,-105.53 307.59,-108.57 316.93,-111.42"/>
<polygon fill="#63b8ff" stroke="#63b8ff" points="222.87,-74.44 212.29,-74.05 220.32,-80.96 222.87,-74.44"/>
</a>
</g>
</g>
<!-- Node3 -->
<g id="Node000003" class="node">
<title>Node3</title>
<g id="a_Node000003"><a xlink:href="class_util_1_1_compilation_error.html" target="_top" xlink:title=" ">
<polygon fill="white" stroke="#666666" points="431.5,-93 309.5,-93 309.5,-74 431.5,-74 431.5,-93"/>
<text text-anchor="middle" x="370.5" y="-81" font-family="Helvetica,sans-Serif" font-size="10.00">Util::CompilationError</text>
</a>
</g>
</g>
<!-- Node1&#45;&gt;Node3 -->
<g id="edge1076_Node000001_Node000003" class="edge">
<title>Node1&#45;&gt;Node3</title>
<g id="a_edge1076_Node000001_Node000003"><a xlink:title=" ">
<path fill="none" stroke="#63b8ff" d="M263.12,-72.33C278.56,-73.95 294.64,-75.64 309.48,-77.2"/>
<polygon fill="#63b8ff" stroke="#63b8ff" points="263.39,-68.84 253.08,-71.28 262.66,-75.8 263.39,-68.84"/>
</a>
</g>
</g>
<!-- Node4 -->
<g id="Node000004" class="node">
<title>Node4</title>
<g id="a_Node000004"><a xlink:href="class_util_1_1_compiler_bug.html" target="_top" xlink:title="This class indicates a bug in the compiler.">
<polygon fill="white" stroke="#666666" points="422,-56 319,-56 319,-37 422,-37 422,-56"/>
<text text-anchor="middle" x="370.5" y="-44" font-family="Helvetica,sans-Serif" font-size="10.00">Util::CompilerBug</text>
</a>
</g>
</g>
<!-- Node1&#45;&gt;Node4 -->
<g id="edge1077_Node000001_Node000004" class="edge">
<title>Node1&#45;&gt;Node4</title>
<g id="a_edge1077_Node000001_Node000004"><a xlink:title=" ">
<path fill="none" stroke="#63b8ff" d="M263.09,-57.08C281.87,-55.21 301.59,-53.25 318.89,-51.53"/>
<polygon fill="#63b8ff" stroke="#63b8ff" points="262.68,-53.61 253.08,-58.08 263.38,-60.57 262.68,-53.61"/>
</a>
</g>
</g>
<!-- Node5 -->
<g id="Node000005" class="node">
<title>Node5</title>
<g id="a_Node000005"><a xlink:href="class_util_1_1_compiler_unimplemented.html" target="_top" xlink:title="This class indicates an unimplemented feature in the compiler.">
<polygon fill="white" stroke="#666666" points="452,-19 289,-19 289,0 452,0 452,-19"/>
<text text-anchor="middle" x="370.5" y="-7" font-family="Helvetica,sans-Serif" font-size="10.00">Util::CompilerUnimplemented</text>
</a>
</g>
</g>
<!-- Node1&#45;&gt;Node5 -->
<g id="edge1078_Node000001_Node000005" class="edge">
<title>Node1&#45;&gt;Node5</title>
<g id="a_edge1078_Node000001_Node000005"><a xlink:title=" ">
<path fill="none" stroke="#63b8ff" d="M222.2,-51.36C241.57,-44.08 266.45,-35.18 289,-28.5 300.57,-25.08 313.21,-21.85 324.98,-19.07"/>
<polygon fill="#63b8ff" stroke="#63b8ff" points="220.72,-48.18 212.62,-55 223.21,-54.72 220.72,-48.18"/>
</a>
</g>
</g>
</g>
</svg>
