<?xml version="1.0" encoding="UTF-8" standalone="no"?>
<!DOCTYPE svg PUBLIC "-//W3C//DTD SVG 1.1//EN"
 "http://www.w3.org/Graphics/SVG/1.1/DTD/svg11.dtd">
<!-- Generated by graphviz version 2.43.0 (0)
 -->
<!-- Title: Graphical Class Hierarchy Pages: 1 -->
<svg width="305pt" height="178pt"
 viewBox="0.00 0.00 305.00 178.00" xmlns="http://www.w3.org/2000/svg" xmlns:xlink="http://www.w3.org/1999/xlink">
<g id="graph0" class="graph" transform="scale(1 1) rotate(0) translate(4 174)">
<title>Graphical Class Hierarchy</title>
<!-- Node0 -->
<g id="Node000000" class="node">
<title>Node0</title>
<g id="a_Node000000"><a xlink:href="group__parde.html#class_directed_graph" target="_top" xlink:title=" ">
<polygon fill="white" stroke="#666666" points="87,-83.5 0,-83.5 0,-64.5 87,-64.5 87,-83.5"/>
<text text-anchor="middle" x="43.5" y="-71.5" font-family="Helvetica,sans-Serif" font-size="10.00">DirectedGraph</text>
</a>
</g>
</g>
<!-- Node1 -->
<g id="Node000001" class="node">
<title>Node1</title>
<g id="a_Node000001"><a xlink:href="group__parde.html" target="_top" xlink:title=" ">
<polygon fill="white" stroke="#666666" points="270.5,-170 149.5,-170 149.5,-118 270.5,-118 270.5,-170"/>
<text text-anchor="start" x="157.5" y="-158" font-family="Helvetica,sans-Serif" font-size="10.00">ParserGraphImpl&lt; IR</text>
<text text-anchor="start" x="157.5" y="-147" font-family="Helvetica,sans-Serif" font-size="10.00">::BFN::Parser, IR::BFN</text>
<text text-anchor="start" x="157.5" y="-136" font-family="Helvetica,sans-Serif" font-size="10.00">::ParserState, IR::BFN</text>
<text text-anchor="middle" x="210" y="-125" font-family="Helvetica,sans-Serif" font-size="10.00">::Transition &gt;</text>
</a>
</g>
</g>
<!-- Node0&#45;&gt;Node1 -->
<g id="edge2199_Node000000_Node000001" class="edge">
<title>Node0&#45;&gt;Node1</title>
<g id="a_edge2199_Node000000_Node000001"><a xlink:title=" ">
<path fill="none" stroke="#63b8ff" d="M74.9,-87.83C89.41,-94.36 107.05,-102.2 123,-109 131.45,-112.6 140.4,-116.34 149.21,-119.96"/>
<polygon fill="#63b8ff" stroke="#63b8ff" points="75.96,-84.47 65.41,-83.55 73.08,-90.85 75.96,-84.47"/>
</a>
</g>
</g>
<!-- Node2 -->
<g id="Node000002" class="node">
<title>Node2</title>
<g id="a_Node000002"><a xlink:href="group__parde.html" target="_top" xlink:title=" ">
<polygon fill="white" stroke="#666666" points="297,-100 123,-100 123,-48 297,-48 297,-100"/>
<text text-anchor="start" x="131" y="-88" font-family="Helvetica,sans-Serif" font-size="10.00">ParserGraphImpl&lt; IR</text>
<text text-anchor="start" x="131" y="-77" font-family="Helvetica,sans-Serif" font-size="10.00">::BFN::LoweredParser,</text>
<text text-anchor="start" x="131" y="-66" font-family="Helvetica,sans-Serif" font-size="10.00"> IR::BFN::LoweredParserState,</text>
<text text-anchor="middle" x="210" y="-55" font-family="Helvetica,sans-Serif" font-size="10.00"> IR::BFN::LoweredParserMatch &gt;</text>
</a>
</g>
</g>
<!-- Node0&#45;&gt;Node2 -->
<g id="edge2200_Node000000_Node000002" class="edge">
<title>Node0&#45;&gt;Node2</title>
<g id="a_edge2200_Node000000_Node000002"><a xlink:title=" ">
<path fill="none" stroke="#63b8ff" d="M97.34,-74C105.48,-74 114.06,-74 122.7,-74"/>
<polygon fill="#63b8ff" stroke="#63b8ff" points="97.29,-70.5 87.29,-74 97.29,-77.5 97.29,-70.5"/>
</a>
</g>
</g>
<!-- Node3 -->
<g id="Node000003" class="node">
<title>Node3</title>
<g id="a_Node000003"><a xlink:href="group__parde.html#class_parser_graph_impl" target="_top" xlink:title=" ">
<polygon fill="white" stroke="#666666" points="281,-30 139,-30 139,0 281,0 281,-30"/>
<text text-anchor="start" x="147" y="-18" font-family="Helvetica,sans-Serif" font-size="10.00">ParserGraphImpl&lt; Parser,</text>
<text text-anchor="middle" x="210" y="-7" font-family="Helvetica,sans-Serif" font-size="10.00"> State, Transition &gt;</text>
</a>
</g>
</g>
<!-- Node0&#45;&gt;Node3 -->
<g id="edge2201_Node000000_Node000003" class="edge">
<title>Node0&#45;&gt;Node3</title>
<g id="a_edge2201_Node000000_Node000003"><a xlink:title=" ">
<path fill="none" stroke="#63b8ff" d="M72.95,-60.1C87.67,-53.22 106.07,-45.1 123,-39 131.75,-35.85 141.12,-32.85 150.35,-30.12"/>
<polygon fill="#63b8ff" stroke="#63b8ff" points="71.39,-56.97 63.85,-64.41 74.39,-63.29 71.39,-56.97"/>
</a>
</g>
</g>
</g>
</svg>
