<?xml version="1.0" encoding="UTF-8" standalone="no"?>
<!DOCTYPE svg PUBLIC "-//W3C//DTD SVG 1.1//EN"
 "http://www.w3.org/Graphics/SVG/1.1/DTD/svg11.dtd">
<!-- Generated by graphviz version 2.43.0 (0)
 -->
<!-- Title: Graphical Class Hierarchy Pages: 1 -->
<svg width="573pt" height="39pt"
 viewBox="0.00 0.00 573.00 39.00" xmlns="http://www.w3.org/2000/svg" xmlns:xlink="http://www.w3.org/1999/xlink">
<g id="graph0" class="graph" transform="scale(1 1) rotate(0) translate(4 35)">
<title>Graphical Class Hierarchy</title>
<polygon fill="white" stroke="transparent" points="-4,4 -4,-35 569,-35 569,4 -4,4"/>
<!-- Node914 -->
<g id="node1" class="node">
<title>Node914</title>
<g id="a_node1"><a xlink:title=" ">
<polygon fill="white" stroke="#bfbfbf" points="0,-6 0,-25 80,-25 80,-6 0,-6"/>
<text text-anchor="middle" x="40" y="-13" font-family="Helvetica,sans-Serif" font-size="10.00">std::ios_base</text>
</a>
</g>
</g>
<!-- Node915 -->
<g id="node2" class="node">
<title>Node915</title>
<g id="a_node2"><a xlink:title=" ">
<polygon fill="white" stroke="#bfbfbf" points="116,-6 116,-25 244,-25 244,-6 116,-6"/>
<text text-anchor="middle" x="180" y="-13" font-family="Helvetica,sans-Serif" font-size="10.00">std::basic_ios&lt; Char &gt;</text>
</a>
</g>
</g>
<!-- Node914&#45;&gt;Node915 -->
<g id="edge1" class="edge">
<title>Node914&#45;&gt;Node915</title>
<path fill="none" stroke="midnightblue" d="M90.41,-15.5C98.7,-15.5 107.4,-15.5 115.97,-15.5"/>
<polygon fill="midnightblue" stroke="midnightblue" points="90.18,-12 80.18,-15.5 90.18,-19 90.18,-12"/>
</g>
<!-- Node916 -->
<g id="node3" class="node">
<title>Node916</title>
<g id="a_node3"><a xlink:title=" ">
<polygon fill="white" stroke="#bfbfbf" points="280,-0.5 280,-30.5 389,-30.5 389,-0.5 280,-0.5"/>
<text text-anchor="start" x="288" y="-18.5" font-family="Helvetica,sans-Serif" font-size="10.00">std::basic_ostream</text>
<text text-anchor="middle" x="334.5" y="-7.5" font-family="Helvetica,sans-Serif" font-size="10.00">&lt; Char &gt;</text>
</a>
</g>
</g>
<!-- Node915&#45;&gt;Node916 -->
<g id="edge2" class="edge">
<title>Node915&#45;&gt;Node916</title>
<path fill="none" stroke="midnightblue" d="M254.37,-15.5C262.94,-15.5 271.56,-15.5 279.8,-15.5"/>
<polygon fill="midnightblue" stroke="midnightblue" points="254.35,-12 244.35,-15.5 254.35,-19 254.35,-12"/>
</g>
<!-- Node0 -->
<g id="node4" class="node">
<title>Node0</title>
<g id="a_node4"><a xlink:href="classonullstream.html" target="_top" xlink:title=" ">
<polygon fill="white" stroke="black" points="425,-6 425,-25 565,-25 565,-6 425,-6"/>
<text text-anchor="middle" x="495" y="-13" font-family="Helvetica,sans-Serif" font-size="10.00">onullstream&lt; cT, traits &gt;</text>
</a>
</g>
</g>
<!-- Node916&#45;&gt;Node0 -->
<g id="edge3" class="edge">
<title>Node916&#45;&gt;Node0</title>
<path fill="none" stroke="midnightblue" d="M399.3,-15.5C407.74,-15.5 416.42,-15.5 424.94,-15.5"/>
<polygon fill="midnightblue" stroke="midnightblue" points="399.16,-12 389.16,-15.5 399.16,-19 399.16,-12"/>
</g>
</g>
</svg>
