<?xml version="1.0" encoding="UTF-8" standalone="no"?>
<!DOCTYPE svg PUBLIC "-//W3C//DTD SVG 1.1//EN"
 "http://www.w3.org/Graphics/SVG/1.1/DTD/svg11.dtd">
<!-- Generated by graphviz version 2.43.0 (0)
 -->
<!-- Title: Graphical Class Hierarchy Pages: 1 -->
<svg width="858pt" height="394pt"
 viewBox="0.00 0.00 858.00 394.00" xmlns="http://www.w3.org/2000/svg" xmlns:xlink="http://www.w3.org/1999/xlink">
<g id="graph0" class="graph" transform="scale(1 1) rotate(0) translate(4 390)">
<title>Graphical Class Hierarchy</title>
<polygon fill="white" stroke="transparent" points="-4,4 -4,-390 854,-390 854,4 -4,4"/>
<!-- Node0 -->
<g id="node1" class="node">
<title>Node0</title>
<g id="a_node1"><a xlink:href="class_p4_tools_1_1_target.html" target="_top" xlink:title=" ">
<polygon fill="white" stroke="black" points="0,-135 0,-154 89,-154 89,-135 0,-135"/>
<text text-anchor="middle" x="44.5" y="-142" font-family="Helvetica,sans-Serif" font-size="10.00">P4Tools::Target</text>
</a>
</g>
</g>
<!-- Node1 -->
<g id="node2" class="node">
<title>Node1</title>
<g id="a_node2"><a xlink:href="class_p4_tools_1_1_compiler_target.html" target="_top" xlink:title="Encapsulates the details of invoking the P4 compiler for a target device and architecture.">
<polygon fill="white" stroke="black" points="125,-135 125,-154 259,-154 259,-135 125,-135"/>
<text text-anchor="middle" x="192" y="-142" font-family="Helvetica,sans-Serif" font-size="10.00">P4Tools::CompilerTarget</text>
</a>
</g>
</g>
<!-- Node0&#45;&gt;Node1 -->
<g id="edge1" class="edge">
<title>Node0&#45;&gt;Node1</title>
<path fill="none" stroke="midnightblue" d="M99.4,-144.5C107.67,-144.5 116.28,-144.5 124.77,-144.5"/>
<polygon fill="midnightblue" stroke="midnightblue" points="99.15,-141 89.15,-144.5 99.15,-148 99.15,-141"/>
</g>
<!-- Node2 -->
<g id="node3" class="node">
<title>Node2</title>
<g id="a_node3"><a xlink:href="class_p4_tools_1_1_p4_smith_1_1_smith_target.html" target="_top" xlink:title=" ">
<polygon fill="white" stroke="black" points="295,-214 295,-233 459,-233 459,-214 295,-214"/>
<text text-anchor="middle" x="377" y="-221" font-family="Helvetica,sans-Serif" font-size="10.00">P4Tools::P4Smith::SmithTarget</text>
</a>
</g>
</g>
<!-- Node1&#45;&gt;Node2 -->
<g id="edge2" class="edge">
<title>Node1&#45;&gt;Node2</title>
<path fill="none" stroke="midnightblue" d="M224.36,-158.04C261.24,-173.96 321.51,-199.98 353.85,-213.94"/>
<polygon fill="midnightblue" stroke="midnightblue" points="225.64,-154.78 215.07,-154.03 222.87,-161.21 225.64,-154.78"/>
</g>
<!-- Node12 -->
<g id="node13" class="node">
<title>Node12</title>
<g id="a_node13"><a xlink:href="class_p4_tools_1_1_p4_testgen_1_1_testgen_target.html" target="_top" xlink:title=" ">
<polygon fill="white" stroke="black" points="322.5,-77.5 322.5,-107.5 431.5,-107.5 431.5,-77.5 322.5,-77.5"/>
<text text-anchor="start" x="330.5" y="-95.5" font-family="Helvetica,sans-Serif" font-size="10.00">P4Tools::P4Testgen</text>
<text text-anchor="middle" x="377" y="-84.5" font-family="Helvetica,sans-Serif" font-size="10.00">::TestgenTarget</text>
</a>
</g>
</g>
<!-- Node1&#45;&gt;Node12 -->
<g id="edge12" class="edge">
<title>Node1&#45;&gt;Node12</title>
<path fill="none" stroke="midnightblue" d="M236.47,-132.15C262.38,-124.79 295.45,-115.39 322.89,-107.59"/>
<polygon fill="midnightblue" stroke="midnightblue" points="235.23,-128.86 226.57,-134.96 237.14,-135.6 235.23,-128.86"/>
</g>
<!-- Node3 -->
<g id="node4" class="node">
<title>Node3</title>
<g id="a_node4"><a xlink:href="class_p4_tools_1_1_p4_smith_1_1_b_mv2_1_1_abstract_b_mv2_smith_target.html" target="_top" xlink:title=" ">
<polygon fill="white" stroke="black" points="503.5,-306.5 503.5,-336.5 652.5,-336.5 652.5,-306.5 503.5,-306.5"/>
<text text-anchor="start" x="511.5" y="-324.5" font-family="Helvetica,sans-Serif" font-size="10.00">P4Tools::P4Smith::BMv2</text>
<text text-anchor="middle" x="578" y="-313.5" font-family="Helvetica,sans-Serif" font-size="10.00">::AbstractBMv2SmithTarget</text>
</a>
</g>
</g>
<!-- Node2&#45;&gt;Node3 -->
<g id="edge3" class="edge">
<title>Node2&#45;&gt;Node3</title>
<path fill="none" stroke="midnightblue" d="M398.84,-239.22C421.48,-255.68 459.23,-281.34 495,-297.5 502.3,-300.8 510.17,-303.77 518.04,-306.41"/>
<polygon fill="midnightblue" stroke="midnightblue" points="400.78,-236.31 390.66,-233.19 396.63,-241.94 400.78,-236.31"/>
</g>
<!-- Node6 -->
<g id="node7" class="node">
<title>Node6</title>
<g id="a_node7"><a xlink:href="class_p4_tools_1_1_p4_smith_1_1_generic_1_1_abstract_generic_smith_target.html" target="_top" xlink:title=" ">
<polygon fill="white" stroke="black" points="498.5,-257.5 498.5,-287.5 657.5,-287.5 657.5,-257.5 498.5,-257.5"/>
<text text-anchor="start" x="506.5" y="-275.5" font-family="Helvetica,sans-Serif" font-size="10.00">P4Tools::P4Smith::Generic</text>
<text text-anchor="middle" x="578" y="-264.5" font-family="Helvetica,sans-Serif" font-size="10.00">::AbstractGenericSmithTarget</text>
</a>
</g>
</g>
<!-- Node2&#45;&gt;Node6 -->
<g id="edge6" class="edge">
<title>Node2&#45;&gt;Node6</title>
<path fill="none" stroke="midnightblue" d="M426.79,-235.51C453.68,-242.14 487.31,-250.42 515.93,-257.46"/>
<polygon fill="midnightblue" stroke="midnightblue" points="427.39,-232.06 416.84,-233.06 425.71,-238.85 427.39,-232.06"/>
</g>
<!-- Node8 -->
<g id="node9" class="node">
<title>Node8</title>
<g id="a_node9"><a xlink:href="class_p4_tools_1_1_p4_smith_1_1_nic_1_1_abstract_nic_smith_target.html" target="_top" xlink:title=" ">
<polygon fill="white" stroke="black" points="509.5,-208.5 509.5,-238.5 646.5,-238.5 646.5,-208.5 509.5,-208.5"/>
<text text-anchor="start" x="517.5" y="-226.5" font-family="Helvetica,sans-Serif" font-size="10.00">P4Tools::P4Smith::Nic</text>
<text text-anchor="middle" x="578" y="-215.5" font-family="Helvetica,sans-Serif" font-size="10.00">::AbstractNicSmithTarget</text>
</a>
</g>
</g>
<!-- Node2&#45;&gt;Node8 -->
<g id="edge8" class="edge">
<title>Node2&#45;&gt;Node8</title>
<path fill="none" stroke="midnightblue" d="M469.45,-223.5C482.89,-223.5 496.53,-223.5 509.37,-223.5"/>
<polygon fill="midnightblue" stroke="midnightblue" points="469.23,-220 459.23,-223.5 469.23,-227 469.23,-220"/>
</g>
<!-- Node10 -->
<g id="node11" class="node">
<title>Node10</title>
<g id="a_node11"><a xlink:href="class_p4_tools_1_1_p4_smith_1_1_tofino_1_1_abstract_tofino_smith_target.html" target="_top" xlink:title=" ">
<polygon fill="white" stroke="black" points="503,-159.5 503,-189.5 653,-189.5 653,-159.5 503,-159.5"/>
<text text-anchor="start" x="511" y="-177.5" font-family="Helvetica,sans-Serif" font-size="10.00">P4Tools::P4Smith::Tofino</text>
<text text-anchor="middle" x="578" y="-166.5" font-family="Helvetica,sans-Serif" font-size="10.00">::AbstractTofinoSmithTarget</text>
</a>
</g>
</g>
<!-- Node2&#45;&gt;Node10 -->
<g id="edge10" class="edge">
<title>Node2&#45;&gt;Node10</title>
<path fill="none" stroke="midnightblue" d="M426.79,-211.49C453.68,-204.86 487.31,-196.58 515.93,-189.54"/>
<polygon fill="midnightblue" stroke="midnightblue" points="425.71,-208.15 416.84,-213.94 427.39,-214.94 425.71,-208.15"/>
</g>
<!-- Node4 -->
<g id="node5" class="node">
<title>Node4</title>
<g id="a_node5"><a xlink:href="class_p4_tools_1_1_p4_smith_1_1_b_mv2_1_1_bmv2_psa_smith_target.html" target="_top" xlink:title=" ">
<polygon fill="white" stroke="black" points="706.5,-355.5 706.5,-385.5 840.5,-385.5 840.5,-355.5 706.5,-355.5"/>
<text text-anchor="start" x="714.5" y="-373.5" font-family="Helvetica,sans-Serif" font-size="10.00">P4Tools::P4Smith::BMv2</text>
<text text-anchor="middle" x="773.5" y="-362.5" font-family="Helvetica,sans-Serif" font-size="10.00">::Bmv2PsaSmithTarget</text>
</a>
</g>
</g>
<!-- Node3&#45;&gt;Node4 -->
<g id="edge4" class="edge">
<title>Node3&#45;&gt;Node4</title>
<path fill="none" stroke="midnightblue" d="M648.3,-339.05C669.55,-344.43 692.73,-350.3 713.24,-355.49"/>
<polygon fill="midnightblue" stroke="midnightblue" points="648.92,-335.6 638.37,-336.53 647.21,-342.38 648.92,-335.6"/>
</g>
<!-- Node5 -->
<g id="node6" class="node">
<title>Node5</title>
<g id="a_node6"><a xlink:href="class_p4_tools_1_1_p4_smith_1_1_b_mv2_1_1_bmv2_v1model_smith_target.html" target="_top" xlink:title=" ">
<polygon fill="white" stroke="black" points="697,-306.5 697,-336.5 850,-336.5 850,-306.5 697,-306.5"/>
<text text-anchor="start" x="705" y="-324.5" font-family="Helvetica,sans-Serif" font-size="10.00">P4Tools::P4Smith::BMv2</text>
<text text-anchor="middle" x="773.5" y="-313.5" font-family="Helvetica,sans-Serif" font-size="10.00">::Bmv2V1modelSmithTarget</text>
</a>
</g>
</g>
<!-- Node3&#45;&gt;Node5 -->
<g id="edge5" class="edge">
<title>Node3&#45;&gt;Node5</title>
<path fill="none" stroke="midnightblue" d="M662.95,-321.5C674.19,-321.5 685.66,-321.5 696.75,-321.5"/>
<polygon fill="midnightblue" stroke="midnightblue" points="662.71,-318 652.71,-321.5 662.71,-325 662.71,-318"/>
</g>
<!-- Node7 -->
<g id="node8" class="node">
<title>Node7</title>
<g id="a_node8"><a xlink:href="class_p4_tools_1_1_p4_smith_1_1_generic_1_1_generic_core_smith_target.html" target="_top" xlink:title=" ">
<polygon fill="white" stroke="black" points="702,-257.5 702,-287.5 845,-287.5 845,-257.5 702,-257.5"/>
<text text-anchor="start" x="710" y="-275.5" font-family="Helvetica,sans-Serif" font-size="10.00">P4Tools::P4Smith::Generic</text>
<text text-anchor="middle" x="773.5" y="-264.5" font-family="Helvetica,sans-Serif" font-size="10.00">::GenericCoreSmithTarget</text>
</a>
</g>
</g>
<!-- Node6&#45;&gt;Node7 -->
<g id="edge7" class="edge">
<title>Node6&#45;&gt;Node7</title>
<path fill="none" stroke="midnightblue" d="M667.73,-272.5C679.21,-272.5 690.83,-272.5 701.96,-272.5"/>
<polygon fill="midnightblue" stroke="midnightblue" points="667.7,-269 657.7,-272.5 667.7,-276 667.7,-269"/>
</g>
<!-- Node9 -->
<g id="node10" class="node">
<title>Node9</title>
<g id="a_node10"><a xlink:href="class_p4_tools_1_1_p4_smith_1_1_nic_1_1_dpdk_pna_smith_target.html" target="_top" xlink:title=" ">
<polygon fill="white" stroke="black" points="711,-208.5 711,-238.5 836,-238.5 836,-208.5 711,-208.5"/>
<text text-anchor="start" x="719" y="-226.5" font-family="Helvetica,sans-Serif" font-size="10.00">P4Tools::P4Smith::Nic</text>
<text text-anchor="middle" x="773.5" y="-215.5" font-family="Helvetica,sans-Serif" font-size="10.00">::DpdkPnaSmithTarget</text>
</a>
</g>
</g>
<!-- Node8&#45;&gt;Node9 -->
<g id="edge9" class="edge">
<title>Node8&#45;&gt;Node9</title>
<path fill="none" stroke="midnightblue" d="M656.81,-223.5C674.73,-223.5 693.56,-223.5 710.69,-223.5"/>
<polygon fill="midnightblue" stroke="midnightblue" points="656.68,-220 646.68,-223.5 656.68,-227 656.68,-220"/>
</g>
<!-- Node11 -->
<g id="node12" class="node">
<title>Node11</title>
<g id="a_node12"><a xlink:href="class_p4_tools_1_1_p4_smith_1_1_tofino_1_1_tofino_tna_smith_target.html" target="_top" xlink:title=" ">
<polygon fill="white" stroke="black" points="706.5,-159.5 706.5,-189.5 840.5,-189.5 840.5,-159.5 706.5,-159.5"/>
<text text-anchor="start" x="714.5" y="-177.5" font-family="Helvetica,sans-Serif" font-size="10.00">P4Tools::P4Smith::Tofino</text>
<text text-anchor="middle" x="773.5" y="-166.5" font-family="Helvetica,sans-Serif" font-size="10.00">::TofinoTnaSmithTarget</text>
</a>
</g>
</g>
<!-- Node10&#45;&gt;Node11 -->
<g id="edge11" class="edge">
<title>Node10&#45;&gt;Node11</title>
<path fill="none" stroke="midnightblue" d="M663.6,-174.5C677.92,-174.5 692.59,-174.5 706.35,-174.5"/>
<polygon fill="midnightblue" stroke="midnightblue" points="663.26,-171 653.26,-174.5 663.26,-178 663.26,-171"/>
</g>
<!-- Node13 -->
<g id="node14" class="node">
<title>Node13</title>
<g id="a_node14"><a xlink:href="class_p4_tools_1_1_p4_testgen_1_1_bmv2_1_1_bmv2_v1_model_testgen_target.html" target="_top" xlink:title=" ">
<polygon fill="white" stroke="black" points="495,-99 495,-140 661,-140 661,-99 495,-99"/>
<text text-anchor="start" x="503" y="-128" font-family="Helvetica,sans-Serif" font-size="10.00">P4Tools::P4Testgen</text>
<text text-anchor="start" x="503" y="-117" font-family="Helvetica,sans-Serif" font-size="10.00">::Bmv2::Bmv2V1ModelTestgen</text>
<text text-anchor="middle" x="578" y="-106" font-family="Helvetica,sans-Serif" font-size="10.00">Target</text>
</a>
</g>
</g>
<!-- Node12&#45;&gt;Node13 -->
<g id="edge13" class="edge">
<title>Node12&#45;&gt;Node13</title>
<path fill="none" stroke="midnightblue" d="M441.87,-101.17C458.73,-103.45 477.17,-105.96 494.85,-108.35"/>
<polygon fill="midnightblue" stroke="midnightblue" points="441.97,-97.65 431.59,-99.77 441.03,-104.58 441.97,-97.65"/>
</g>
<!-- Node14 -->
<g id="node15" class="node">
<title>Node14</title>
<g id="a_node15"><a xlink:href="class_p4_tools_1_1_p4_testgen_1_1_e_b_p_f_1_1_e_b_p_f_testgen_target.html" target="_top" xlink:title=" ">
<polygon fill="white" stroke="black" points="506,-49.5 506,-79.5 650,-79.5 650,-49.5 506,-49.5"/>
<text text-anchor="start" x="514" y="-67.5" font-family="Helvetica,sans-Serif" font-size="10.00">P4Tools::P4Testgen</text>
<text text-anchor="middle" x="578" y="-56.5" font-family="Helvetica,sans-Serif" font-size="10.00">::EBPF::EBPFTestgenTarget</text>
</a>
</g>
</g>
<!-- Node12&#45;&gt;Node14 -->
<g id="edge14" class="edge">
<title>Node12&#45;&gt;Node14</title>
<path fill="none" stroke="midnightblue" d="M441.71,-83.54C462.11,-80.67 484.83,-77.47 505.73,-74.53"/>
<polygon fill="midnightblue" stroke="midnightblue" points="441,-80.1 431.59,-84.96 441.98,-87.03 441,-80.1"/>
</g>
<!-- Node15 -->
<g id="node16" class="node">
<title>Node15</title>
<g id="a_node16"><a xlink:href="class_p4_tools_1_1_p4_testgen_1_1_pna_1_1_pna_dpdk_testgen_target.html" target="_top" xlink:title=" ">
<polygon fill="white" stroke="black" points="499,-0.5 499,-30.5 657,-30.5 657,-0.5 499,-0.5"/>
<text text-anchor="start" x="507" y="-18.5" font-family="Helvetica,sans-Serif" font-size="10.00">P4Tools::P4Testgen</text>
<text text-anchor="middle" x="578" y="-7.5" font-family="Helvetica,sans-Serif" font-size="10.00">::Pna::PnaDpdkTestgenTarget</text>
</a>
</g>
</g>
<!-- Node12&#45;&gt;Node15 -->
<g id="edge15" class="edge">
<title>Node12&#45;&gt;Node15</title>
<path fill="none" stroke="midnightblue" d="M417.49,-72.94C439.9,-62.26 468.66,-49.27 495,-39.5 503.48,-36.35 512.58,-33.35 521.52,-30.59"/>
<polygon fill="midnightblue" stroke="midnightblue" points="415.8,-69.87 408.3,-77.35 418.83,-76.17 415.8,-69.87"/>
</g>
</g>
</svg>
