<?xml version="1.0" encoding="UTF-8" standalone="no"?>
<!DOCTYPE svg PUBLIC "-//W3C//DTD SVG 1.1//EN"
 "http://www.w3.org/Graphics/SVG/1.1/DTD/svg11.dtd">
<!-- Generated by graphviz version 2.43.0 (0)
 -->
<!-- Title: Graphical Class Hierarchy Pages: 1 -->
<svg width="311pt" height="64pt"
 viewBox="0.00 0.00 311.00 64.00" xmlns="http://www.w3.org/2000/svg" xmlns:xlink="http://www.w3.org/1999/xlink">
<g id="graph0" class="graph" transform="scale(1 1) rotate(0) translate(4 60)">
<title>Graphical Class Hierarchy</title>
<!-- Node0 -->
<g id="Node000000" class="node">
<title>Node0</title>
<g id="a_Node000000"><a xlink:href="class_p_h_v_1_1v2_1_1_allocator_base.html" target="_top" xlink:title=" ">
<polygon fill="white" stroke="#666666" points="128,-37 0,-37 0,-18 128,-18 128,-37"/>
<text text-anchor="middle" x="64" y="-25" font-family="Helvetica,sans-Serif" font-size="10.00">PHV::v2::AllocatorBase</text>
</a>
</g>
</g>
<!-- Node1 -->
<g id="Node000001" class="node">
<title>Node1</title>
<g id="a_Node000001"><a xlink:href="class_p_h_v_1_1v2_1_1_greedy_allocator.html" target="_top" xlink:title=" ">
<polygon fill="white" stroke="#666666" points="303,-56 164,-56 164,-37 303,-37 303,-56"/>
<text text-anchor="middle" x="233.5" y="-44" font-family="Helvetica,sans-Serif" font-size="10.00">PHV::v2::GreedyAllocator</text>
</a>
</g>
</g>
<!-- Node0&#45;&gt;Node1 -->
<g id="edge2643_Node000000_Node000001" class="edge">
<title>Node0&#45;&gt;Node1</title>
<g id="a_edge2643_Node000000_Node000001"><a xlink:title=" ">
<path fill="none" stroke="#63b8ff" d="M138.48,-35.84C146.89,-36.79 155.43,-37.76 163.77,-38.7"/>
<polygon fill="#63b8ff" stroke="#63b8ff" points="138.66,-32.33 128.32,-34.68 137.87,-39.29 138.66,-32.33"/>
</a>
</g>
</g>
<!-- Node2 -->
<g id="Node000002" class="node">
<title>Node2</title>
<g id="a_Node000002"><a xlink:href="class_p_h_v_1_1v2_1_1_trivial_allocator.html" target="_top" xlink:title=" ">
<polygon fill="white" stroke="#666666" points="300,-19 167,-19 167,0 300,0 300,-19"/>
<text text-anchor="middle" x="233.5" y="-7" font-family="Helvetica,sans-Serif" font-size="10.00">PHV::v2::TrivialAllocator</text>
</a>
</g>
</g>
<!-- Node0&#45;&gt;Node2 -->
<g id="edge2644_Node000000_Node000002" class="edge">
<title>Node0&#45;&gt;Node2</title>
<g id="a_edge2644_Node000000_Node000002"><a xlink:title=" ">
<path fill="none" stroke="#63b8ff" d="M138.48,-19.6C147.93,-18.59 157.55,-17.55 166.86,-16.55"/>
<polygon fill="#63b8ff" stroke="#63b8ff" points="137.89,-16.15 128.32,-20.69 138.64,-23.11 137.89,-16.15"/>
</a>
</g>
</g>
</g>
</svg>
