<?xml version="1.0" encoding="UTF-8" standalone="no"?>
<!DOCTYPE svg PUBLIC "-//W3C//DTD SVG 1.1//EN"
 "http://www.w3.org/Graphics/SVG/1.1/DTD/svg11.dtd">
<!-- Generated by graphviz version 2.43.0 (0)
 -->
<!-- Title: Graphical Class Hierarchy Pages: 1 -->
<svg width="368pt" height="64pt"
 viewBox="0.00 0.00 368.00 64.00" xmlns="http://www.w3.org/2000/svg" xmlns:xlink="http://www.w3.org/1999/xlink">
<g id="graph0" class="graph" transform="scale(1 1) rotate(0) translate(4 60)">
<title>Graphical Class Hierarchy</title>
<!-- Node0 -->
<g id="Node000000" class="node">
<title>Node0</title>
<g id="a_Node000000"><a xlink:href="class_p4_1_1_remove_complex_expressions_policy.html" target="_top" xlink:title=" ">
<polygon fill="white" stroke="#666666" points="177,-42.5 0,-42.5 0,-12.5 177,-12.5 177,-42.5"/>
<text text-anchor="start" x="8" y="-30.5" font-family="Helvetica,sans-Serif" font-size="10.00">P4::RemoveComplexExpressions</text>
<text text-anchor="middle" x="88.5" y="-19.5" font-family="Helvetica,sans-Serif" font-size="10.00">Policy</text>
</a>
</g>
</g>
<!-- Node1 -->
<g id="Node000001" class="node">
<title>Node1</title>
<g id="a_Node000001"><a xlink:href="class_p4_1_1_b_m_v2_1_1_process_controls.html" target="_top" xlink:title=" ">
<polygon fill="white" stroke="#666666" points="360,-56 213,-56 213,-37 360,-37 360,-56"/>
<text text-anchor="middle" x="286.5" y="-44" font-family="Helvetica,sans-Serif" font-size="10.00">P4::BMV2::ProcessControls</text>
</a>
</g>
</g>
<!-- Node0&#45;&gt;Node1 -->
<g id="edge1125_Node000000_Node000001" class="edge">
<title>Node0&#45;&gt;Node1</title>
<g id="a_edge1125_Node000000_Node000001"><a xlink:title=" ">
<path fill="none" stroke="#63b8ff" d="M187.28,-36.98C195.89,-37.81 204.51,-38.65 212.86,-39.46"/>
<polygon fill="#63b8ff" stroke="#63b8ff" points="187.47,-33.48 177.18,-36 186.8,-40.45 187.47,-33.48"/>
</a>
</g>
</g>
<!-- Node2 -->
<g id="Node000002" class="node">
<title>Node2</title>
<g id="a_Node000002"><a xlink:href="class_p4_1_1_d_p_d_k_1_1_process_controls.html" target="_top" xlink:title="Only simplify complex expression in ingress/egress.">
<polygon fill="white" stroke="#666666" points="359.5,-19 213.5,-19 213.5,0 359.5,0 359.5,-19"/>
<text text-anchor="middle" x="286.5" y="-7" font-family="Helvetica,sans-Serif" font-size="10.00">P4::DPDK::ProcessControls</text>
</a>
</g>
</g>
<!-- Node0&#45;&gt;Node2 -->
<g id="edge1126_Node000000_Node000002" class="edge">
<title>Node0&#45;&gt;Node2</title>
<g id="a_edge1126_Node000000_Node000002"><a xlink:title=" ">
<path fill="none" stroke="#63b8ff" d="M187.16,-18.53C196.02,-17.72 204.88,-16.9 213.45,-16.12"/>
<polygon fill="#63b8ff" stroke="#63b8ff" points="186.82,-15.05 177.18,-19.45 187.46,-22.02 186.82,-15.05"/>
</a>
</g>
</g>
</g>
</svg>
