<?xml version="1.0" encoding="UTF-8" standalone="no"?>
<!DOCTYPE svg PUBLIC "-//W3C//DTD SVG 1.1//EN"
 "http://www.w3.org/Graphics/SVG/1.1/DTD/svg11.dtd">
<!-- Generated by graphviz version 2.43.0 (0)
 -->
<!-- Title: Graphical Class Hierarchy Pages: 1 -->
<svg width="317pt" height="182pt"
 viewBox="0.00 0.00 317.00 182.00" xmlns="http://www.w3.org/2000/svg" xmlns:xlink="http://www.w3.org/1999/xlink">
<g id="graph0" class="graph" transform="scale(1 1) rotate(0) translate(4 178)">
<title>Graphical Class Hierarchy</title>
<!-- Node0 -->
<g id="Node000000" class="node">
<title>Node0</title>
<g id="a_Node000000"><a xlink:href="class_p4_1_1_p4_tools_1_1_p4_testgen_1_1_test_back_end.html" target="_top" xlink:title=" ">
<polygon fill="white" stroke="#666666" points="127,-102 0,-102 0,-72 127,-72 127,-102"/>
<text text-anchor="start" x="8" y="-90" font-family="Helvetica,sans-Serif" font-size="10.00">P4::P4Tools::P4Testgen</text>
<text text-anchor="middle" x="63.5" y="-79" font-family="Helvetica,sans-Serif" font-size="10.00">::TestBackEnd</text>
</a>
</g>
</g>
<!-- Node1 -->
<g id="Node000001" class="node">
<title>Node1</title>
<g id="a_Node000001"><a xlink:href="class_p4_1_1_p4_tools_1_1_p4_testgen_1_1_bmv2_1_1_bmv2_test_backend.html" target="_top" xlink:title=" ">
<polygon fill="white" stroke="#666666" points="309,-174 163,-174 163,-144 309,-144 309,-174"/>
<text text-anchor="start" x="171" y="-162" font-family="Helvetica,sans-Serif" font-size="10.00">P4::P4Tools::P4Testgen</text>
<text text-anchor="middle" x="236" y="-151" font-family="Helvetica,sans-Serif" font-size="10.00">::Bmv2::Bmv2TestBackend</text>
</a>
</g>
</g>
<!-- Node0&#45;&gt;Node1 -->
<g id="edge2519_Node000000_Node000001" class="edge">
<title>Node0&#45;&gt;Node1</title>
<g id="a_edge2519_Node000000_Node000001"><a xlink:title=" ">
<path fill="none" stroke="#63b8ff" d="M102.01,-106.73C120.18,-115.9 142.45,-126.61 163,-135 170.69,-138.14 178.95,-141.18 187.04,-143.99"/>
<polygon fill="#63b8ff" stroke="#63b8ff" points="103.42,-103.51 92.92,-102.09 100.24,-109.75 103.42,-103.51"/>
</a>
</g>
</g>
<!-- Node2 -->
<g id="Node000002" class="node">
<title>Node2</title>
<g id="a_Node000002"><a xlink:href="class_p4_1_1_p4_tools_1_1_p4_testgen_1_1_e_b_p_f_1_1_e_b_p_f_test_backend.html" target="_top" xlink:title=" ">
<polygon fill="white" stroke="#666666" points="304.5,-126 167.5,-126 167.5,-96 304.5,-96 304.5,-126"/>
<text text-anchor="start" x="175.5" y="-114" font-family="Helvetica,sans-Serif" font-size="10.00">P4::P4Tools::P4Testgen</text>
<text text-anchor="middle" x="236" y="-103" font-family="Helvetica,sans-Serif" font-size="10.00">::EBPF::EBPFTestBackend</text>
</a>
</g>
</g>
<!-- Node0&#45;&gt;Node2 -->
<g id="edge2520_Node000000_Node000002" class="edge">
<title>Node0&#45;&gt;Node2</title>
<g id="a_edge2520_Node000000_Node000002"><a xlink:title=" ">
<path fill="none" stroke="#63b8ff" d="M136.98,-97.2C147.04,-98.62 157.35,-100.07 167.32,-101.47"/>
<polygon fill="#63b8ff" stroke="#63b8ff" points="137.41,-93.73 127.02,-95.8 136.43,-100.66 137.41,-93.73"/>
</a>
</g>
</g>
<!-- Node3 -->
<g id="Node000003" class="node">
<title>Node3</title>
<g id="a_Node000003"><a xlink:href="class_p4_1_1_p4_tools_1_1_p4_testgen_1_1_pna_1_1_pna_test_backend.html" target="_top" xlink:title=" ">
<polygon fill="white" stroke="#666666" points="299.5,-78 172.5,-78 172.5,-48 299.5,-48 299.5,-78"/>
<text text-anchor="start" x="180.5" y="-66" font-family="Helvetica,sans-Serif" font-size="10.00">P4::P4Tools::P4Testgen</text>
<text text-anchor="middle" x="236" y="-55" font-family="Helvetica,sans-Serif" font-size="10.00">::Pna::PnaTestBackend</text>
</a>
</g>
</g>
<!-- Node0&#45;&gt;Node3 -->
<g id="edge2521_Node000000_Node000003" class="edge">
<title>Node0&#45;&gt;Node3</title>
<g id="a_edge2521_Node000000_Node000003"><a xlink:title=" ">
<path fill="none" stroke="#63b8ff" d="M137.23,-76.76C148.96,-75.11 161.02,-73.41 172.49,-71.8"/>
<polygon fill="#63b8ff" stroke="#63b8ff" points="136.43,-73.34 127.02,-78.2 137.41,-80.27 136.43,-73.34"/>
</a>
</g>
</g>
<!-- Node4 -->
<g id="Node000004" class="node">
<title>Node4</title>
<g id="a_Node000004"><a xlink:href="class_p4_1_1_p4_tools_1_1_p4_testgen_1_1_tofino_1_1_tofino_test_backend.html" target="_top" xlink:title=" ">
<polygon fill="white" stroke="#666666" points="309,-30 163,-30 163,0 309,0 309,-30"/>
<text text-anchor="start" x="171" y="-18" font-family="Helvetica,sans-Serif" font-size="10.00">P4::P4Tools::P4Testgen</text>
<text text-anchor="middle" x="236" y="-7" font-family="Helvetica,sans-Serif" font-size="10.00">::Tofino::TofinoTestBackend</text>
</a>
</g>
</g>
<!-- Node0&#45;&gt;Node4 -->
<g id="edge2522_Node000000_Node000004" class="edge">
<title>Node0&#45;&gt;Node4</title>
<g id="a_edge2522_Node000000_Node000004"><a xlink:title=" ">
<path fill="none" stroke="#63b8ff" d="M102.01,-67.27C120.18,-58.1 142.45,-47.39 163,-39 170.69,-35.86 178.95,-32.82 187.04,-30.01"/>
<polygon fill="#63b8ff" stroke="#63b8ff" points="100.24,-64.25 92.92,-71.91 103.42,-70.49 100.24,-64.25"/>
</a>
</g>
</g>
</g>
</svg>
