<?xml version="1.0" encoding="UTF-8" standalone="no"?>
<!DOCTYPE svg PUBLIC "-//W3C//DTD SVG 1.1//EN"
 "http://www.w3.org/Graphics/SVG/1.1/DTD/svg11.dtd">
<!-- Generated by graphviz version 2.43.0 (0)
 -->
<!-- Title: Graphical Class Hierarchy Pages: 1 -->
<svg width="407pt" height="101pt"
 viewBox="0.00 0.00 407.00 101.00" xmlns="http://www.w3.org/2000/svg" xmlns:xlink="http://www.w3.org/1999/xlink">
<g id="graph0" class="graph" transform="scale(1 1) rotate(0) translate(4 97)">
<title>Graphical Class Hierarchy</title>
<!-- Node0 -->
<g id="Node000000" class="node">
<title>Node0</title>
<g id="a_Node000000"><a xlink:href="class_e_b_p_f_1_1_target.html" target="_top" xlink:title=" ">
<polygon fill="white" stroke="#666666" points="77,-56 0,-56 0,-37 77,-37 77,-56"/>
<text text-anchor="middle" x="38.5" y="-44" font-family="Helvetica,sans-Serif" font-size="10.00">EBPF::Target</text>
</a>
</g>
</g>
<!-- Node1 -->
<g id="Node000001" class="node">
<title>Node1</title>
<g id="a_Node000001"><a xlink:href="class_e_b_p_f_1_1_bcc_target.html" target="_top" xlink:title="Represents a target compiled by bcc that uses the TC.">
<polygon fill="white" stroke="#666666" points="234.5,-93 140.5,-93 140.5,-74 234.5,-74 234.5,-93"/>
<text text-anchor="middle" x="187.5" y="-81" font-family="Helvetica,sans-Serif" font-size="10.00">EBPF::BccTarget</text>
</a>
</g>
</g>
<!-- Node0&#45;&gt;Node1 -->
<g id="edge30_Node000000_Node000001" class="edge">
<title>Node0&#45;&gt;Node1</title>
<g id="a_edge30_Node000000_Node000001"><a xlink:title=" ">
<path fill="none" stroke="#63b8ff" d="M86.02,-58.62C94.97,-60.93 104.27,-63.3 113,-65.5 124.08,-68.29 136.12,-71.26 147.19,-73.97"/>
<polygon fill="#63b8ff" stroke="#63b8ff" points="86.67,-55.18 76.11,-56.06 84.92,-61.95 86.67,-55.18"/>
</a>
</g>
</g>
<!-- Node2 -->
<g id="Node000002" class="node">
<title>Node2</title>
<g id="a_Node000002"><a xlink:href="class_e_b_p_f_1_1_kernel_samples_target.html" target="_top" xlink:title=" ">
<polygon fill="white" stroke="#666666" points="262,-56 113,-56 113,-37 262,-37 262,-56"/>
<text text-anchor="middle" x="187.5" y="-44" font-family="Helvetica,sans-Serif" font-size="10.00">EBPF::KernelSamplesTarget</text>
</a>
</g>
</g>
<!-- Node0&#45;&gt;Node2 -->
<g id="edge31_Node000000_Node000002" class="edge">
<title>Node0&#45;&gt;Node2</title>
<g id="a_edge31_Node000000_Node000002"><a xlink:title=" ">
<path fill="none" stroke="#63b8ff" d="M87.38,-46.5C95.53,-46.5 104.15,-46.5 112.78,-46.5"/>
<polygon fill="#63b8ff" stroke="#63b8ff" points="87.36,-43 77.36,-46.5 87.36,-50 87.36,-43"/>
</a>
</g>
</g>
<!-- Node6 -->
<g id="Node000006" class="node">
<title>Node6</title>
<g id="a_Node000006"><a xlink:href="class_u_b_p_f_1_1_ubpf_target.html" target="_top" xlink:title=" ">
<polygon fill="white" stroke="#666666" points="238,-19 137,-19 137,0 238,0 238,-19"/>
<text text-anchor="middle" x="187.5" y="-7" font-family="Helvetica,sans-Serif" font-size="10.00">UBPF::UbpfTarget</text>
</a>
</g>
</g>
<!-- Node0&#45;&gt;Node6 -->
<g id="edge35_Node000000_Node000006" class="edge">
<title>Node0&#45;&gt;Node6</title>
<g id="a_edge35_Node000000_Node000006"><a xlink:title=" ">
<path fill="none" stroke="#63b8ff" d="M87.15,-34.51C107.03,-29.5 129.8,-23.77 148.52,-19.06"/>
<polygon fill="#63b8ff" stroke="#63b8ff" points="86.2,-31.14 77.36,-36.97 87.91,-37.92 86.2,-31.14"/>
</a>
</g>
</g>
<!-- Node3 -->
<g id="Node000003" class="node">
<title>Node3</title>
<g id="a_Node000003"><a xlink:href="class_e_b_p_f_1_1_p4_t_c_target.html" target="_top" xlink:title=" ">
<polygon fill="white" stroke="#666666" points="399,-93 298,-93 298,-74 399,-74 399,-93"/>
<text text-anchor="middle" x="348.5" y="-81" font-family="Helvetica,sans-Serif" font-size="10.00">EBPF::P4TCTarget</text>
</a>
</g>
</g>
<!-- Node2&#45;&gt;Node3 -->
<g id="edge32_Node000002_Node000003" class="edge">
<title>Node2&#45;&gt;Node3</title>
<g id="a_edge32_Node000002_Node000003"><a xlink:title=" ">
<path fill="none" stroke="#63b8ff" d="M239.45,-58.36C261.09,-63.39 285.98,-69.18 306.42,-73.94"/>
<polygon fill="#63b8ff" stroke="#63b8ff" points="239.98,-54.89 229.45,-56.03 238.39,-61.7 239.98,-54.89"/>
</a>
</g>
</g>
<!-- Node4 -->
<g id="Node000004" class="node">
<title>Node4</title>
<g id="a_Node000004"><a xlink:href="class_e_b_p_f_1_1_test_target.html" target="_top" xlink:title=" ">
<polygon fill="white" stroke="#666666" points="396.5,-56 300.5,-56 300.5,-37 396.5,-37 396.5,-56"/>
<text text-anchor="middle" x="348.5" y="-44" font-family="Helvetica,sans-Serif" font-size="10.00">EBPF::TestTarget</text>
</a>
</g>
</g>
<!-- Node2&#45;&gt;Node4 -->
<g id="edge33_Node000002_Node000004" class="edge">
<title>Node2&#45;&gt;Node4</title>
<g id="a_edge33_Node000002_Node000004"><a xlink:title=" ">
<path fill="none" stroke="#63b8ff" d="M272.64,-46.5C282.06,-46.5 291.39,-46.5 300.1,-46.5"/>
<polygon fill="#63b8ff" stroke="#63b8ff" points="272.41,-43 262.41,-46.5 272.41,-50 272.41,-43"/>
</a>
</g>
</g>
<!-- Node5 -->
<g id="Node000005" class="node">
<title>Node5</title>
<g id="a_Node000005"><a xlink:href="class_e_b_p_f_1_1_xdp_target.html" target="_top" xlink:title="Target XDP.">
<polygon fill="white" stroke="#666666" points="396,-19 301,-19 301,0 396,0 396,-19"/>
<text text-anchor="middle" x="348.5" y="-7" font-family="Helvetica,sans-Serif" font-size="10.00">EBPF::XdpTarget</text>
</a>
</g>
</g>
<!-- Node2&#45;&gt;Node5 -->
<g id="edge34_Node000002_Node000005" class="edge">
<title>Node2&#45;&gt;Node5</title>
<g id="a_edge34_Node000002_Node000005"><a xlink:title=" ">
<path fill="none" stroke="#63b8ff" d="M239.45,-34.64C261.09,-29.61 285.98,-23.82 306.42,-19.06"/>
<polygon fill="#63b8ff" stroke="#63b8ff" points="238.39,-31.3 229.45,-36.97 239.98,-38.11 238.39,-31.3"/>
</a>
</g>
</g>
</g>
</svg>
