<?xml version="1.0" encoding="UTF-8" standalone="no"?>
<!DOCTYPE svg PUBLIC "-//W3C//DTD SVG 1.1//EN"
 "http://www.w3.org/Graphics/SVG/1.1/DTD/svg11.dtd">
<!-- Generated by graphviz version 2.43.0 (0)
 -->
<!-- Title: Graphical Class Hierarchy Pages: 1 -->
<svg width="576pt" height="346pt"
 viewBox="0.00 0.00 576.00 346.00" xmlns="http://www.w3.org/2000/svg" xmlns:xlink="http://www.w3.org/1999/xlink">
<g id="graph0" class="graph" transform="scale(1 1) rotate(0) translate(4 342)">
<title>Graphical Class Hierarchy</title>
<!-- Node0 -->
<g id="Node000000" class="node">
<title>Node0</title>
<g id="a_Node000000"><a xlink:title=" ">
<polygon fill="#e0e0e0" stroke="#999999" points="78,-338 0,-338 0,-319 78,-319 78,-338"/>
<text text-anchor="middle" x="39" y="-326" font-family="Helvetica,sans-Serif" font-size="10.00">Configurable</text>
</a>
</g>
</g>
<!-- Node1 -->
<g id="Node000001" class="node">
<title>Node1</title>
<g id="a_Node000001"><a xlink:href="class_base_parser.html" target="_top" xlink:title="Base class of Tofino parser in assembler.">
<polygon fill="white" stroke="#666666" points="187.5,-338 116.5,-338 116.5,-319 187.5,-319 187.5,-338"/>
<text text-anchor="middle" x="152" y="-326" font-family="Helvetica,sans-Serif" font-size="10.00">BaseParser</text>
</a>
</g>
</g>
<!-- Node0&#45;&gt;Node1 -->
<g id="edge76_Node000000_Node000001" class="edge">
<title>Node0&#45;&gt;Node1</title>
<g id="a_edge76_Node000000_Node000001"><a xlink:title=" ">
<path fill="none" stroke="#63b8ff" d="M88.31,-328.5C97.78,-328.5 107.54,-328.5 116.45,-328.5"/>
<polygon fill="#63b8ff" stroke="#63b8ff" points="88.2,-325 78.2,-328.5 88.2,-332 88.2,-325"/>
</a>
</g>
</g>
<!-- Node2 -->
<g id="Node000002" class="node">
<title>Node2</title>
<g id="a_Node000002"><a xlink:href="group__parde.html#class_parser" target="_top" xlink:title="Representation of the Tofino 1/2 parser in assembler.">
<polygon fill="white" stroke="#666666" points="283,-338 236,-338 236,-319 283,-319 283,-338"/>
<text text-anchor="middle" x="259.5" y="-326" font-family="Helvetica,sans-Serif" font-size="10.00">Parser</text>
</a>
</g>
</g>
<!-- Node1&#45;&gt;Node2 -->
<g id="edge77_Node000001_Node000002" class="edge">
<title>Node1&#45;&gt;Node2</title>
<g id="a_edge77_Node000001_Node000002"><a xlink:title=" ">
<path fill="none" stroke="#63b8ff" d="M197.85,-328.5C210.97,-328.5 224.75,-328.5 235.85,-328.5"/>
<polygon fill="#63b8ff" stroke="#63b8ff" points="197.54,-325 187.54,-328.5 197.54,-332 197.54,-325"/>
</a>
</g>
</g>
<!-- Node3 -->
<g id="Node000003" class="node">
<title>Node3</title>
<g id="a_Node000003"><a xlink:title=" ">
<polygon fill="#e0e0e0" stroke="#999999" points="190,-273 114,-273 114,-254 190,-254 190,-273"/>
<text text-anchor="middle" x="152" y="-261" font-family="Helvetica,sans-Serif" font-size="10.00">Contextable</text>
</a>
</g>
</g>
<!-- Node3&#45;&gt;Node2 -->
<g id="edge78_Node000003_Node000002" class="edge">
<title>Node3&#45;&gt;Node2</title>
<g id="a_edge78_Node000003_Node000002"><a xlink:title=" ">
<path fill="none" stroke="#63b8ff" d="M176.68,-278.7C190.9,-287.76 209.4,-299.42 226,-309.5 231.14,-312.62 236.78,-315.95 241.9,-318.94"/>
<polygon fill="#63b8ff" stroke="#63b8ff" points="178.32,-275.6 168.01,-273.16 174.55,-281.49 178.32,-275.6"/>
</a>
</g>
</g>
<!-- Node4 -->
<g id="Node000004" class="node">
<title>Node4</title>
<g id="a_Node000004"><a xlink:href="class_section.html" target="_top" xlink:title=" ">
<polygon fill="white" stroke="#666666" points="286,-181 233,-181 233,-162 286,-162 286,-181"/>
<text text-anchor="middle" x="259.5" y="-169" font-family="Helvetica,sans-Serif" font-size="10.00">Section</text>
</a>
</g>
</g>
<!-- Node3&#45;&gt;Node4 -->
<g id="edge79_Node000003_Node000004" class="edge">
<title>Node3&#45;&gt;Node4</title>
<g id="a_edge79_Node000003_Node000004"><a xlink:title=" ">
<path fill="none" stroke="#63b8ff" d="M171.98,-246.95C193.93,-227.81 229.34,-196.93 247.29,-181.27"/>
<polygon fill="#63b8ff" stroke="#63b8ff" points="169.53,-244.44 164.29,-253.65 174.13,-249.72 169.53,-244.44"/>
</a>
</g>
</g>
<!-- Node5 -->
<g id="Node000005" class="node">
<title>Node5</title>
<g id="a_Node000005"><a xlink:href="class_asm_stage.html" target="_top" xlink:title=" ">
<polygon fill="white" stroke="#666666" points="429.5,-278 363.5,-278 363.5,-259 429.5,-259 429.5,-278"/>
<text text-anchor="middle" x="396.5" y="-266" font-family="Helvetica,sans-Serif" font-size="10.00">AsmStage</text>
</a>
</g>
</g>
<!-- Node4&#45;&gt;Node5 -->
<g id="edge80_Node000004_Node000005" class="edge">
<title>Node4&#45;&gt;Node5</title>
<g id="a_edge80_Node000004_Node000005"><a xlink:title=" ">
<path fill="none" stroke="#63b8ff" d="M271.87,-189.64C283.94,-207.43 304.62,-234.07 329,-249.5 339.35,-256.05 352.01,-260.4 363.49,-263.26"/>
<polygon fill="#63b8ff" stroke="#63b8ff" points="274.78,-187.7 266.37,-181.25 268.93,-191.53 274.78,-187.7"/>
</a>
</g>
</g>
<!-- Node6 -->
<g id="Node000006" class="node">
<title>Node6</title>
<g id="a_Node000006"><a xlink:href="class_b_f_a_s_m_1_1_flexible_headers.html" target="_top" xlink:title=" ">
<polygon fill="white" stroke="#666666" points="464,-241 329,-241 329,-222 464,-222 464,-241"/>
<text text-anchor="middle" x="396.5" y="-229" font-family="Helvetica,sans-Serif" font-size="10.00">BFASM::FlexibleHeaders</text>
</a>
</g>
</g>
<!-- Node4&#45;&gt;Node6 -->
<g id="edge81_Node000004_Node000006" class="edge">
<title>Node4&#45;&gt;Node6</title>
<g id="a_edge81_Node000004_Node000006"><a xlink:title=" ">
<path fill="none" stroke="#63b8ff" d="M282.43,-186.64C295.5,-195.14 312.67,-205.43 329,-212.5 337.37,-216.13 346.64,-219.28 355.52,-221.91"/>
<polygon fill="#63b8ff" stroke="#63b8ff" points="284.36,-183.72 274.1,-181.1 280.49,-189.55 284.36,-183.72"/>
</a>
</g>
</g>
<!-- Node7 -->
<g id="Node000007" class="node">
<title>Node7</title>
<g id="a_Node000007"><a xlink:href="class_base_asm_parser.html" target="_top" xlink:title="Base class of parser assembly section.">
<polygon fill="white" stroke="#666666" points="442.5,-204 350.5,-204 350.5,-185 442.5,-185 442.5,-204"/>
<text text-anchor="middle" x="396.5" y="-192" font-family="Helvetica,sans-Serif" font-size="10.00">BaseAsmParser</text>
</a>
</g>
</g>
<!-- Node4&#45;&gt;Node7 -->
<g id="edge82_Node000004_Node000007" class="edge">
<title>Node4&#45;&gt;Node7</title>
<g id="a_edge82_Node000004_Node000007"><a xlink:title=" ">
<path fill="none" stroke="#63b8ff" d="M296.1,-177.56C312.75,-180.4 332.78,-183.81 350.47,-186.83"/>
<polygon fill="#63b8ff" stroke="#63b8ff" points="296.66,-174.11 286.21,-175.88 295.48,-181.01 296.66,-174.11"/>
</a>
</g>
</g>
<!-- Node9 -->
<g id="Node000009" class="node">
<title>Node9</title>
<g id="a_Node000009"><a xlink:href="class_default_error_mode.html" target="_top" xlink:title=" ">
<polygon fill="white" stroke="#666666" points="448,-315 345,-315 345,-296 448,-296 448,-315"/>
<text text-anchor="middle" x="396.5" y="-303" font-family="Helvetica,sans-Serif" font-size="10.00">DefaultErrorMode</text>
</a>
</g>
</g>
<!-- Node4&#45;&gt;Node9 -->
<g id="edge84_Node000004_Node000009" class="edge">
<title>Node4&#45;&gt;Node9</title>
<g id="a_edge84_Node000004_Node000009"><a xlink:title=" ">
<path fill="none" stroke="#63b8ff" d="M266.91,-190.92C276.39,-216.62 296.61,-261.57 329,-286.5 334.04,-290.38 339.85,-293.47 345.88,-295.93"/>
<polygon fill="#63b8ff" stroke="#63b8ff" points="270.11,-189.48 263.5,-181.2 263.51,-191.79 270.11,-189.48"/>
</a>
</g>
</g>
<!-- Node11 -->
<g id="Node000011" class="node">
<title>Node11</title>
<g id="a_Node000011"><a xlink:href="group__parde.html#class_deparser" target="_top" xlink:title=" ">
<polygon fill="white" stroke="#666666" points="427,-167 366,-167 366,-148 427,-148 427,-167"/>
<text text-anchor="middle" x="396.5" y="-155" font-family="Helvetica,sans-Serif" font-size="10.00">Deparser</text>
</a>
</g>
</g>
<!-- Node4&#45;&gt;Node11 -->
<g id="edge85_Node000004_Node000011" class="edge">
<title>Node4&#45;&gt;Node11</title>
<g id="a_edge85_Node000004_Node000011"><a xlink:title=" ">
<path fill="none" stroke="#63b8ff" d="M296.32,-167.79C317.95,-165.54 345.19,-162.72 365.65,-160.6"/>
<polygon fill="#63b8ff" stroke="#63b8ff" points="295.8,-164.32 286.21,-168.83 296.52,-171.28 295.8,-164.32"/>
</a>
</g>
</g>
<!-- Node12 -->
<g id="Node000012" class="node">
<title>Node12</title>
<g id="a_Node000012"><a xlink:href="class_dyn_hash.html" target="_top" xlink:title=" ">
<polygon fill="white" stroke="#666666" points="427,-130 366,-130 366,-111 427,-111 427,-130"/>
<text text-anchor="middle" x="396.5" y="-118" font-family="Helvetica,sans-Serif" font-size="10.00">DynHash</text>
</a>
</g>
</g>
<!-- Node4&#45;&gt;Node12 -->
<g id="edge86_Node000004_Node000012" class="edge">
<title>Node4&#45;&gt;Node12</title>
<g id="a_edge86_Node000004_Node000012"><a xlink:title=" ">
<path fill="none" stroke="#63b8ff" d="M287.09,-157.28C299.57,-150.97 314.81,-143.79 329,-138.5 340.88,-134.07 354.32,-130.23 366,-127.24"/>
<polygon fill="#63b8ff" stroke="#63b8ff" points="285.42,-154.2 278.13,-161.89 288.63,-160.42 285.42,-154.2"/>
</a>
</g>
</g>
<!-- Node13 -->
<g id="Node000013" class="node">
<title>Node13</title>
<g id="a_Node000013"><a xlink:href="class_phv.html" target="_top" xlink:title=" ">
<polygon fill="white" stroke="#666666" points="414,-93 379,-93 379,-74 414,-74 414,-93"/>
<text text-anchor="middle" x="396.5" y="-81" font-family="Helvetica,sans-Serif" font-size="10.00">Phv</text>
</a>
</g>
</g>
<!-- Node4&#45;&gt;Node13 -->
<g id="edge87_Node000004_Node000013" class="edge">
<title>Node4&#45;&gt;Node13</title>
<g id="a_edge87_Node000004_Node000013"><a xlink:title=" ">
<path fill="none" stroke="#63b8ff" d="M273.4,-153.71C285.88,-137.75 306.23,-114.85 329,-101.5 344.58,-92.37 364.92,-87.74 378.98,-85.49"/>
<polygon fill="#63b8ff" stroke="#63b8ff" points="270.55,-151.67 267.3,-161.76 276.13,-155.9 270.55,-151.67"/>
</a>
</g>
</g>
<!-- Node14 -->
<g id="Node000014" class="node">
<title>Node14</title>
<g id="a_Node000014"><a xlink:href="class_primitives.html" target="_top" xlink:title=" ">
<polygon fill="white" stroke="#666666" points="429.5,-56 363.5,-56 363.5,-37 429.5,-37 429.5,-56"/>
<text text-anchor="middle" x="396.5" y="-44" font-family="Helvetica,sans-Serif" font-size="10.00">Primitives</text>
</a>
</g>
</g>
<!-- Node4&#45;&gt;Node14 -->
<g id="edge88_Node000004_Node000014" class="edge">
<title>Node4&#45;&gt;Node14</title>
<g id="a_edge88_Node000004_Node000014"><a xlink:title=" ">
<path fill="none" stroke="#63b8ff" d="M267.67,-152.31C277.68,-128.16 298.17,-87.11 329,-64.5 338.93,-57.21 351.64,-52.88 363.28,-50.3"/>
<polygon fill="#63b8ff" stroke="#63b8ff" points="264.34,-151.22 263.91,-161.81 270.85,-153.8 264.34,-151.22"/>
</a>
</g>
</g>
<!-- Node15 -->
<g id="Node000015" class="node">
<title>Node15</title>
<g id="a_Node000015"><a xlink:href="class_version.html" target="_top" xlink:title=" ">
<polygon fill="white" stroke="#666666" points="423,-19 370,-19 370,0 423,0 423,-19"/>
<text text-anchor="middle" x="396.5" y="-7" font-family="Helvetica,sans-Serif" font-size="10.00">Version</text>
</a>
</g>
</g>
<!-- Node4&#45;&gt;Node15 -->
<g id="edge89_Node000004_Node000015" class="edge">
<title>Node4&#45;&gt;Node15</title>
<g id="a_edge89_Node000004_Node000015"><a xlink:title=" ">
<path fill="none" stroke="#63b8ff" d="M264.39,-151.66C271.54,-120.49 289.82,-60.21 329,-27.5 340.39,-18 356.34,-13.48 369.77,-11.34"/>
<polygon fill="#63b8ff" stroke="#63b8ff" points="260.9,-151.22 262.23,-161.73 267.75,-152.68 260.9,-151.22"/>
</a>
</g>
</g>
<!-- Node8 -->
<g id="Node000008" class="node">
<title>Node8</title>
<g id="a_Node000008"><a xlink:href="class_asm_parser.html" target="_top" xlink:title=" ">
<polygon fill="white" stroke="#666666" points="568,-204 500,-204 500,-185 568,-185 568,-204"/>
<text text-anchor="middle" x="534" y="-192" font-family="Helvetica,sans-Serif" font-size="10.00">AsmParser</text>
</a>
</g>
</g>
<!-- Node7&#45;&gt;Node8 -->
<g id="edge83_Node000007_Node000008" class="edge">
<title>Node7&#45;&gt;Node8</title>
<g id="a_edge83_Node000007_Node000008"><a xlink:title=" ">
<path fill="none" stroke="#63b8ff" d="M452.87,-194.5C468.74,-194.5 485.55,-194.5 499.65,-194.5"/>
<polygon fill="#63b8ff" stroke="#63b8ff" points="452.62,-191 442.62,-194.5 452.62,-198 452.62,-191"/>
</a>
</g>
</g>
<!-- Node10 -->
<g id="Node000010" class="node">
<title>Node10</title>
<g id="a_Node000010"><a xlink:href="class_error_mode.html" target="_top" xlink:title=" ">
<polygon fill="white" stroke="#666666" points="293,-301 226,-301 226,-282 293,-282 293,-301"/>
<text text-anchor="middle" x="259.5" y="-289" font-family="Helvetica,sans-Serif" font-size="10.00">ErrorMode</text>
</a>
</g>
</g>
<!-- Node10&#45;&gt;Node9 -->
<g id="edge90_Node000010_Node000009" class="edge">
<title>Node10&#45;&gt;Node9</title>
<g id="a_edge90_Node000010_Node000009"><a xlink:title=" ">
<path fill="none" stroke="#63b8ff" d="M303.41,-295.95C316.62,-297.32 331.28,-298.84 344.95,-300.26"/>
<polygon fill="#63b8ff" stroke="#63b8ff" points="303.49,-292.44 293.18,-294.89 302.77,-299.4 303.49,-292.44"/>
</a>
</g>
</g>
<!-- Node16 -->
<g id="Node000016" class="node">
<title>Node16</title>
<g id="a_Node000016"><a xlink:title=" ">
<polygon fill="#e0e0e0" stroke="#999999" points="181,-181 123,-181 123,-162 181,-162 181,-181"/>
<text text-anchor="middle" x="152" y="-169" font-family="Helvetica,sans-Serif" font-size="10.00">Parsable</text>
</a>
</g>
</g>
<!-- Node16&#45;&gt;Node4 -->
<g id="edge91_Node000016_Node000004" class="edge">
<title>Node16&#45;&gt;Node4</title>
<g id="a_edge91_Node000016_Node000004"><a xlink:title=" ">
<path fill="none" stroke="#63b8ff" d="M191.43,-171.5C205.15,-171.5 220.27,-171.5 232.68,-171.5"/>
<polygon fill="#63b8ff" stroke="#63b8ff" points="191.27,-168 181.27,-171.5 191.27,-175 191.27,-168"/>
</a>
</g>
</g>
</g>
</svg>
