<?xml version="1.0" encoding="UTF-8" standalone="no"?>
<!DOCTYPE svg PUBLIC "-//W3C//DTD SVG 1.1//EN"
 "http://www.w3.org/Graphics/SVG/1.1/DTD/svg11.dtd">
<!-- Generated by graphviz version 2.43.0 (0)
 -->
<!-- Title: Graphical Class Hierarchy Pages: 1 -->
<svg width="302pt" height="64pt"
 viewBox="0.00 0.00 302.00 64.00" xmlns="http://www.w3.org/2000/svg" xmlns:xlink="http://www.w3.org/1999/xlink">
<g id="graph0" class="graph" transform="scale(1 1) rotate(0) translate(4 60)">
<title>Graphical Class Hierarchy</title>
<!-- Node0 -->
<g id="Node000000" class="node">
<title>Node0</title>
<g id="a_Node000000"><a xlink:href="class_p4_1_1_action_synthesis_policy.html" target="_top" xlink:title=" ">
<polygon fill="white" stroke="#666666" points="142,-37 0,-37 0,-18 142,-18 142,-37"/>
<text text-anchor="middle" x="71" y="-25" font-family="Helvetica,sans-Serif" font-size="10.00">P4::ActionSynthesisPolicy</text>
</a>
</g>
</g>
<!-- Node1 -->
<g id="Node000001" class="node">
<title>Node1</title>
<g id="a_Node000001"><a xlink:href="class_b_m_v2_1_1_skip_controls.html" target="_top" xlink:title="This class implements a policy suitable for the SynthesizeActions pass.">
<polygon fill="white" stroke="#666666" points="292.5,-56 179.5,-56 179.5,-37 292.5,-37 292.5,-56"/>
<text text-anchor="middle" x="236" y="-44" font-family="Helvetica,sans-Serif" font-size="10.00">BMV2::SkipControls</text>
</a>
</g>
</g>
<!-- Node0&#45;&gt;Node1 -->
<g id="edge978_Node000000_Node000001" class="edge">
<title>Node0&#45;&gt;Node1</title>
<g id="a_edge978_Node000000_Node000001"><a xlink:title=" ">
<path fill="none" stroke="#63b8ff" d="M152.03,-36.83C161.23,-37.9 170.46,-38.98 179.25,-40"/>
<polygon fill="#63b8ff" stroke="#63b8ff" points="152.41,-33.35 142.07,-35.67 151.6,-40.3 152.41,-33.35"/>
</a>
</g>
</g>
<!-- Node2 -->
<g id="Node000002" class="node">
<title>Node2</title>
<g id="a_Node000002"><a xlink:href="class_p4_test_1_1_skip_controls.html" target="_top" xlink:title=" ">
<polygon fill="white" stroke="#666666" points="294,-19 178,-19 178,0 294,0 294,-19"/>
<text text-anchor="middle" x="236" y="-7" font-family="Helvetica,sans-Serif" font-size="10.00">P4Test::SkipControls</text>
</a>
</g>
</g>
<!-- Node0&#45;&gt;Node2 -->
<g id="edge979_Node000000_Node000002" class="edge">
<title>Node0&#45;&gt;Node2</title>
<g id="a_edge979_Node000000_Node000002"><a xlink:title=" ">
<path fill="none" stroke="#63b8ff" d="M152.25,-18.64C160.94,-17.68 169.66,-16.72 178,-15.79"/>
<polygon fill="#63b8ff" stroke="#63b8ff" points="151.63,-15.19 142.07,-19.76 152.4,-22.14 151.63,-15.19"/>
</a>
</g>
</g>
</g>
</svg>
