<?xml version="1.0" encoding="UTF-8" standalone="no"?>
<!DOCTYPE svg PUBLIC "-//W3C//DTD SVG 1.1//EN"
 "http://www.w3.org/Graphics/SVG/1.1/DTD/svg11.dtd">
<!-- Generated by graphviz version 2.43.0 (0)
 -->
<!-- Title: Graphical Class Hierarchy Pages: 1 -->
<svg width="350pt" height="64pt"
 viewBox="0.00 0.00 350.00 64.00" xmlns="http://www.w3.org/2000/svg" xmlns:xlink="http://www.w3.org/1999/xlink">
<g id="graph0" class="graph" transform="scale(1 1) rotate(0) translate(4 60)">
<title>Graphical Class Hierarchy</title>
<!-- Node0 -->
<g id="Node000000" class="node">
<title>Node0</title>
<g id="a_Node000000"><a xlink:href="class_p_h_v_1_1_slicing_1_1_iterator_interface.html" target="_top" xlink:title="The interface that the iterator must satisfy.">
<polygon fill="white" stroke="#666666" points="160,-37 0,-37 0,-18 160,-18 160,-37"/>
<text text-anchor="middle" x="80" y="-25" font-family="Helvetica,sans-Serif" font-size="10.00">PHV::Slicing::IteratorInterface</text>
</a>
</g>
</g>
<!-- Node1 -->
<g id="Node000001" class="node">
<title>Node1</title>
<g id="a_Node000001"><a xlink:href="class_p_h_v_1_1_slicing_1_1_dfs_itr_context.html" target="_top" xlink:title=" ">
<polygon fill="white" stroke="#666666" points="342,-56 196,-56 196,-37 342,-37 342,-56"/>
<text text-anchor="middle" x="269" y="-44" font-family="Helvetica,sans-Serif" font-size="10.00">PHV::Slicing::DfsItrContext</text>
</a>
</g>
</g>
<!-- Node0&#45;&gt;Node1 -->
<g id="edge2641_Node000000_Node000001" class="edge">
<title>Node0&#45;&gt;Node1</title>
<g id="a_edge2641_Node000000_Node000001"><a xlink:title=" ">
<path fill="none" stroke="#63b8ff" d="M170.1,-36.55C178.71,-37.43 187.37,-38.31 195.79,-39.16"/>
<polygon fill="#63b8ff" stroke="#63b8ff" points="170.34,-33.06 160.03,-35.53 169.63,-40.02 170.34,-33.06"/>
</a>
</g>
</g>
<!-- Node2 -->
<g id="Node000002" class="node">
<title>Node2</title>
<g id="a_Node000002"><a xlink:href="class_p_h_v_1_1_slicing_1_1_itr_context.html" target="_top" xlink:title=" ">
<polygon fill="white" stroke="#666666" points="333.5,-19 204.5,-19 204.5,0 333.5,0 333.5,-19"/>
<text text-anchor="middle" x="269" y="-7" font-family="Helvetica,sans-Serif" font-size="10.00">PHV::Slicing::ItrContext</text>
</a>
</g>
</g>
<!-- Node0&#45;&gt;Node2 -->
<g id="edge2642_Node000000_Node000002" class="edge">
<title>Node0&#45;&gt;Node2</title>
<g id="a_edge2642_Node000000_Node000002"><a xlink:title=" ">
<path fill="none" stroke="#63b8ff" d="M170.12,-18.92C181.64,-17.81 193.25,-16.69 204.25,-15.64"/>
<polygon fill="#63b8ff" stroke="#63b8ff" points="169.65,-15.45 160.03,-19.89 170.32,-22.42 169.65,-15.45"/>
</a>
</g>
</g>
</g>
</svg>
