<?xml version="1.0" encoding="UTF-8" standalone="no"?>
<!DOCTYPE svg PUBLIC "-//W3C//DTD SVG 1.1//EN"
 "http://www.w3.org/Graphics/SVG/1.1/DTD/svg11.dtd">
<!-- Generated by graphviz version 2.43.0 (0)
 -->
<!-- Title: Graphical Class Hierarchy Pages: 1 -->
<svg width="464pt" height="761pt"
 viewBox="0.00 0.00 464.00 761.00" xmlns="http://www.w3.org/2000/svg" xmlns:xlink="http://www.w3.org/1999/xlink">
<g id="graph0" class="graph" transform="scale(1 1) rotate(0) translate(4 757)">
<title>Graphical Class Hierarchy</title>
<!-- Node0 -->
<g id="Node000000" class="node">
<title>Node0</title>
<g id="a_Node000000"><a xlink:title=" ">
<polygon fill="#e0e0e0" stroke="#999999" points="56,-595 0,-595 0,-576 56,-576 56,-595"/>
<text text-anchor="middle" x="28" y="-583" font-family="Helvetica,sans-Serif" font-size="10.00">Modifier</text>
</a>
</g>
</g>
<!-- Node1 -->
<g id="Node000001" class="node">
<title>Node1</title>
<g id="a_Node000001"><a xlink:href="class_copy_block_pragmas_1_1_copy_to_tables.html" target="_top" xlink:title=" ">
<polygon fill="white" stroke="#666666" points="244,-717.5 92,-717.5 92,-687.5 244,-687.5 244,-717.5"/>
<text text-anchor="start" x="100" y="-705.5" font-family="Helvetica,sans-Serif" font-size="10.00">CopyBlockPragmas::CopyTo</text>
<text text-anchor="middle" x="168" y="-694.5" font-family="Helvetica,sans-Serif" font-size="10.00">Tables</text>
</a>
</g>
</g>
<!-- Node0&#45;&gt;Node1 -->
<g id="edge2266_Node000000_Node000001" class="edge">
<title>Node0&#45;&gt;Node1</title>
<g id="a_edge2266_Node000000_Node000001"><a xlink:title=" ">
<path fill="none" stroke="#63b8ff" d="M37.15,-604.44C47.12,-625.47 65.97,-659.02 92,-678.5 96.6,-681.94 101.7,-684.9 107.03,-687.44"/>
<polygon fill="#63b8ff" stroke="#63b8ff" points="40.29,-602.89 32.97,-595.23 33.91,-605.79 40.29,-602.89"/>
</a>
</g>
</g>
<!-- Node2 -->
<g id="Node000002" class="node">
<title>Node2</title>
<g id="a_Node000002"><a xlink:href="group__parde.html#class_deparser_modifier" target="_top" xlink:title=" ">
<polygon fill="white" stroke="#666666" points="218.5,-669 117.5,-669 117.5,-650 218.5,-650 218.5,-669"/>
<text text-anchor="middle" x="168" y="-657" font-family="Helvetica,sans-Serif" font-size="10.00">DeparserModifier</text>
</a>
</g>
</g>
<!-- Node0&#45;&gt;Node2 -->
<g id="edge2267_Node000000_Node000002" class="edge">
<title>Node0&#45;&gt;Node2</title>
<g id="a_edge2267_Node000000_Node000002"><a xlink:title=" ">
<path fill="none" stroke="#63b8ff" d="M52.75,-600.56C64.42,-607.77 78.79,-616.36 92,-623.5 109.79,-633.11 130.55,-642.97 145.72,-649.94"/>
<polygon fill="#63b8ff" stroke="#63b8ff" points="54.38,-597.45 44.04,-595.13 50.67,-603.39 54.38,-597.45"/>
</a>
</g>
</g>
<!-- Node7 -->
<g id="Node000007" class="node">
<title>Node7</title>
<g id="a_Node000007"><a xlink:href="class_normalize_params.html" target="_top" xlink:title=" ">
<polygon fill="white" stroke="#666666" points="219.5,-614 116.5,-614 116.5,-595 219.5,-595 219.5,-614"/>
<text text-anchor="middle" x="168" y="-602" font-family="Helvetica,sans-Serif" font-size="10.00">NormalizeParams</text>
</a>
</g>
</g>
<!-- Node0&#45;&gt;Node7 -->
<g id="edge2272_Node000000_Node000007" class="edge">
<title>Node0&#45;&gt;Node7</title>
<g id="a_edge2272_Node000000_Node000007"><a xlink:title=" ">
<path fill="none" stroke="#63b8ff" d="M66.42,-590.65C81.79,-592.77 99.82,-595.25 116.33,-597.52"/>
<polygon fill="#63b8ff" stroke="#63b8ff" points="66.65,-587.15 56.26,-589.25 65.69,-594.09 66.65,-587.15"/>
</a>
</g>
</g>
<!-- Node8 -->
<g id="Node000008" class="node">
<title>Node8</title>
<g id="a_Node000008"><a xlink:href="group__parde.html#class_parde_modifier" target="_top" xlink:title=" ">
<polygon fill="white" stroke="#666666" points="209.5,-577 126.5,-577 126.5,-558 209.5,-558 209.5,-577"/>
<text text-anchor="middle" x="168" y="-565" font-family="Helvetica,sans-Serif" font-size="10.00">PardeModifier</text>
</a>
</g>
</g>
<!-- Node0&#45;&gt;Node8 -->
<g id="edge2273_Node000000_Node000008" class="edge">
<title>Node0&#45;&gt;Node8</title>
<g id="a_edge2273_Node000000_Node000008"><a xlink:title=" ">
<path fill="none" stroke="#63b8ff" d="M66.42,-580.62C84.99,-578.2 107.46,-575.27 126.45,-572.79"/>
<polygon fill="#63b8ff" stroke="#63b8ff" points="65.73,-577.18 56.26,-581.94 66.63,-584.12 65.73,-577.18"/>
</a>
</g>
</g>
<!-- Node11 -->
<g id="Node000011" class="node">
<title>Node11</title>
<g id="a_Node000011"><a xlink:href="group__parde.html#class_parser_modifier" target="_top" xlink:title=" ">
<polygon fill="white" stroke="#666666" points="211,-340 125,-340 125,-321 211,-321 211,-340"/>
<text text-anchor="middle" x="168" y="-328" font-family="Helvetica,sans-Serif" font-size="10.00">ParserModifier</text>
</a>
</g>
</g>
<!-- Node0&#45;&gt;Node11 -->
<g id="edge2276_Node000000_Node000011" class="edge">
<title>Node0&#45;&gt;Node11</title>
<g id="a_edge2276_Node000000_Node000011"><a xlink:title=" ">
<path fill="none" stroke="#63b8ff" d="M39.04,-566.96C66.33,-516.52 141.25,-378.08 161.75,-340.19"/>
<polygon fill="#63b8ff" stroke="#63b8ff" points="35.92,-565.35 34.24,-575.82 42.08,-568.69 35.92,-565.35"/>
</a>
</g>
</g>
<!-- Node25 -->
<g id="Node000025" class="node">
<title>Node25</title>
<g id="a_Node000025"><a xlink:href="class_rename_param.html" target="_top" xlink:title="Renames a parameter and all uses of that parameter.">
<polygon fill="white" stroke="#666666" points="212,-303 124,-303 124,-284 212,-284 212,-303"/>
<text text-anchor="middle" x="168" y="-291" font-family="Helvetica,sans-Serif" font-size="10.00">RenameParam</text>
</a>
</g>
</g>
<!-- Node0&#45;&gt;Node25 -->
<g id="edge2290_Node000000_Node000025" class="edge">
<title>Node0&#45;&gt;Node25</title>
<g id="a_edge2290_Node000000_Node000025"><a xlink:title=" ">
<path fill="none" stroke="#63b8ff" d="M30.91,-565.78C36.76,-509.37 56.27,-349 92,-312.5 100.46,-303.86 112.24,-298.95 123.96,-296.21"/>
<polygon fill="#63b8ff" stroke="#63b8ff" points="27.41,-565.59 29.89,-575.89 34.38,-566.29 27.41,-565.59"/>
</a>
</g>
</g>
<!-- Node3 -->
<g id="Node000003" class="node">
<title>Node3</title>
<g id="a_Node000003"><a xlink:href="group__parde.html#class_add_deparser_metadata" target="_top" xlink:title="Add deparser parameters for standard metadata.">
<polygon fill="white" stroke="#666666" points="431,-753 305,-753 305,-734 431,-734 431,-753"/>
<text text-anchor="middle" x="368" y="-741" font-family="Helvetica,sans-Serif" font-size="10.00">AddDeparserMetadata</text>
</a>
</g>
</g>
<!-- Node2&#45;&gt;Node3 -->
<g id="edge2268_Node000002_Node000003" class="edge">
<title>Node2&#45;&gt;Node3</title>
<g id="a_edge2268_Node000002_Node000003"><a xlink:title=" ">
<path fill="none" stroke="#63b8ff" d="M228.13,-670.39C233.72,-672.61 239.11,-675.28 244,-678.5 265.97,-692.98 257.71,-711.51 280,-725.5 287.58,-730.26 296.19,-733.78 304.97,-736.39"/>
<polygon fill="#63b8ff" stroke="#63b8ff" points="229.19,-667.05 218.6,-667.06 226.89,-673.66 229.19,-667.05"/>
</a>
</g>
</g>
<!-- Node4 -->
<g id="Node000004" class="node">
<title>Node4</title>
<g id="a_Node000004"><a xlink:href="group___lower_deparser_i_r.html#class_coalesce_learning" target="_top" xlink:title="Replaces consecutive extracts of the same container with a single extract.">
<polygon fill="white" stroke="#666666" points="419.5,-716 316.5,-716 316.5,-697 419.5,-697 419.5,-716"/>
<text text-anchor="middle" x="368" y="-704" font-family="Helvetica,sans-Serif" font-size="10.00">CoalesceLearning</text>
</a>
</g>
</g>
<!-- Node2&#45;&gt;Node4 -->
<g id="edge2269_Node000002_Node000004" class="edge">
<title>Node2&#45;&gt;Node4</title>
<g id="a_edge2269_Node000002_Node000004"><a xlink:title=" ">
<path fill="none" stroke="#63b8ff" d="M217.41,-671.59C226.26,-673.85 235.42,-676.22 244,-678.5 260.05,-682.76 263.86,-684.59 280,-688.5 292.29,-691.48 305.64,-694.39 318.1,-696.98"/>
<polygon fill="#63b8ff" stroke="#63b8ff" points="218.14,-668.16 207.58,-669.1 216.41,-674.95 218.14,-668.16"/>
</a>
</g>
</g>
<!-- Node5 -->
<g id="Node000005" class="node">
<title>Node5</title>
<g id="a_Node000005"><a xlink:href="group___lower_deparser_i_r.html#struct_parde_1_1_lowered_1_1_rewrite_emit_clot" target="_top" xlink:title="Replace Emits covered in a CLOT with EmitClot.">
<polygon fill="white" stroke="#666666" points="456,-679 280,-679 280,-660 456,-660 456,-679"/>
<text text-anchor="middle" x="368" y="-667" font-family="Helvetica,sans-Serif" font-size="10.00">Parde::Lowered::RewriteEmitClot</text>
</a>
</g>
</g>
<!-- Node2&#45;&gt;Node5 -->
<g id="edge2270_Node000002_Node000005" class="edge">
<title>Node2&#45;&gt;Node5</title>
<g id="a_edge2270_Node000002_Node000005"><a xlink:title=" ">
<path fill="none" stroke="#63b8ff" d="M228.99,-662.53C245.03,-663.34 262.69,-664.23 279.87,-665.1"/>
<polygon fill="#63b8ff" stroke="#63b8ff" points="228.87,-659.02 218.71,-662.01 228.52,-666.01 228.87,-659.02"/>
</a>
</g>
</g>
<!-- Node6 -->
<g id="Node000006" class="node">
<title>Node6</title>
<g id="a_Node000006"><a xlink:href="group___deparser_copy_opt.html#class_rewrite_deparser" target="_top" xlink:title=" ">
<polygon fill="white" stroke="#666666" points="417,-642 319,-642 319,-623 417,-623 417,-642"/>
<text text-anchor="middle" x="368" y="-630" font-family="Helvetica,sans-Serif" font-size="10.00">RewriteDeparser</text>
</a>
</g>
</g>
<!-- Node2&#45;&gt;Node6 -->
<g id="edge2271_Node000002_Node000006" class="edge">
<title>Node2&#45;&gt;Node6</title>
<g id="a_edge2271_Node000002_Node000006"><a xlink:title=" ">
<path fill="none" stroke="#63b8ff" d="M228.69,-651.36C257.58,-647.42 291.8,-642.75 318.98,-639.05"/>
<polygon fill="#63b8ff" stroke="#63b8ff" points="228.14,-647.9 218.71,-652.72 229.09,-654.84 228.14,-647.9"/>
</a>
</g>
</g>
<!-- Node9 -->
<g id="Node000009" class="node">
<title>Node9</title>
<g id="a_Node000009"><a xlink:href="group__parde.html#class_adjust_extract" target="_top" xlink:title="Adjusts extractions that extract from fields that are serialized from phv container,...">
<polygon fill="white" stroke="#666666" points="409,-605 327,-605 327,-586 409,-586 409,-605"/>
<text text-anchor="middle" x="368" y="-593" font-family="Helvetica,sans-Serif" font-size="10.00">AdjustExtract</text>
</a>
</g>
</g>
<!-- Node8&#45;&gt;Node9 -->
<g id="edge2274_Node000008_Node000009" class="edge">
<title>Node8&#45;&gt;Node9</title>
<g id="a_edge2274_Node000008_Node000009"><a xlink:title=" ">
<path fill="none" stroke="#63b8ff" d="M219.55,-574.65C252.86,-579.36 295.88,-585.44 326.85,-589.82"/>
<polygon fill="#63b8ff" stroke="#63b8ff" points="219.94,-571.17 209.55,-573.23 218.96,-578.1 219.94,-571.17"/>
</a>
</g>
</g>
<!-- Node10 -->
<g id="Node000010" class="node">
<title>Node10</title>
<g id="a_Node000010"><a xlink:href="group__parde.html#class_stack_push_shims" target="_top" xlink:title="Adds parser states to initialize the $stkvalid fields that are used to handle the push_front and pop_...">
<polygon fill="white" stroke="#666666" points="416.5,-568 319.5,-568 319.5,-549 416.5,-549 416.5,-568"/>
<text text-anchor="middle" x="368" y="-556" font-family="Helvetica,sans-Serif" font-size="10.00">StackPushShims</text>
</a>
</g>
</g>
<!-- Node8&#45;&gt;Node10 -->
<g id="edge2275_Node000008_Node000010" class="edge">
<title>Node8&#45;&gt;Node10</title>
<g id="a_edge2275_Node000008_Node000010"><a xlink:title=" ">
<path fill="none" stroke="#63b8ff" d="M219.6,-565.2C250.23,-563.81 289.07,-562.04 319.18,-560.67"/>
<polygon fill="#63b8ff" stroke="#63b8ff" points="219.38,-561.71 209.55,-565.66 219.69,-568.7 219.38,-561.71"/>
</a>
</g>
</g>
<!-- Node12 -->
<g id="Node000012" class="node">
<title>Node12</title>
<g id="a_Node000012"><a xlink:href="group__parde.html#class_add_parser_metadata" target="_top" xlink:title="Extend parsers to extract standard metadata.">
<polygon fill="white" stroke="#666666" points="424,-531 312,-531 312,-512 424,-512 424,-531"/>
<text text-anchor="middle" x="368" y="-519" font-family="Helvetica,sans-Serif" font-size="10.00">AddParserMetadata</text>
</a>
</g>
</g>
<!-- Node11&#45;&gt;Node12 -->
<g id="edge2277_Node000011_Node000012" class="edge">
<title>Node11&#45;&gt;Node12</title>
<g id="a_edge2277_Node000011_Node000012"><a xlink:title=" ">
<path fill="none" stroke="#63b8ff" d="M175.56,-349.71C188.99,-386.01 223.26,-464.5 280,-503.5 289.41,-509.97 300.64,-514.2 311.87,-516.95"/>
<polygon fill="#63b8ff" stroke="#63b8ff" points="178.85,-348.52 172.18,-340.28 172.25,-350.87 178.85,-348.52"/>
</a>
</g>
</g>
<!-- Node13 -->
<g id="Node000013" class="node">
<title>Node13</title>
<g id="a_Node000013"><a xlink:href="struct_clip_terminal_transition.html" target="_top" xlink:title=" ">
<polygon fill="white" stroke="#666666" points="430.5,-494 305.5,-494 305.5,-475 430.5,-475 430.5,-494"/>
<text text-anchor="middle" x="368" y="-482" font-family="Helvetica,sans-Serif" font-size="10.00">ClipTerminalTransition</text>
</a>
</g>
</g>
<!-- Node11&#45;&gt;Node13 -->
<g id="edge2278_Node000011_Node000013" class="edge">
<title>Node11&#45;&gt;Node13</title>
<g id="a_edge2278_Node000011_Node000013"><a xlink:title=" ">
<path fill="none" stroke="#63b8ff" d="M178.73,-349.3C195.26,-379.21 231.77,-437.25 280,-466.5 287.65,-471.14 296.3,-474.6 305.1,-477.18"/>
<polygon fill="#63b8ff" stroke="#63b8ff" points="181.72,-347.46 173.91,-340.31 175.56,-350.78 181.72,-347.46"/>
</a>
</g>
</g>
<!-- Node14 -->
<g id="Node000014" class="node">
<title>Node14</title>
<g id="a_Node000014"><a xlink:href="group___parser_copy_prop.html#struct_copy_prop_parser_def" target="_top" xlink:title=" ">
<polygon fill="white" stroke="#666666" points="423,-457 313,-457 313,-438 423,-438 423,-457"/>
<text text-anchor="middle" x="368" y="-445" font-family="Helvetica,sans-Serif" font-size="10.00">CopyPropParserDef</text>
</a>
</g>
</g>
<!-- Node11&#45;&gt;Node14 -->
<g id="edge2279_Node000011_Node000014" class="edge">
<title>Node11&#45;&gt;Node14</title>
<g id="a_edge2279_Node000011_Node000014"><a xlink:title=" ">
<path fill="none" stroke="#63b8ff" d="M183.29,-347.98C202.72,-370.52 239.71,-409.23 280,-429.5 290.06,-434.56 301.45,-438.2 312.61,-440.81"/>
<polygon fill="#63b8ff" stroke="#63b8ff" points="185.85,-345.6 176.73,-340.21 180.5,-350.11 185.85,-345.6"/>
</a>
</g>
</g>
<!-- Node15 -->
<g id="Node000015" class="node">
<title>Node15</title>
<g id="a_Node000015"><a xlink:href="group___allocate_parser_checksums.html#class_elim_dead_parser_checksums" target="_top" xlink:title=" ">
<polygon fill="white" stroke="#666666" points="443,-420 293,-420 293,-401 443,-401 443,-420"/>
<text text-anchor="middle" x="368" y="-408" font-family="Helvetica,sans-Serif" font-size="10.00">ElimDeadParserChecksums</text>
</a>
</g>
</g>
<!-- Node11&#45;&gt;Node15 -->
<g id="edge2280_Node000011_Node000015" class="edge">
<title>Node11&#45;&gt;Node15</title>
<g id="a_edge2280_Node000011_Node000015"><a xlink:title=" ">
<path fill="none" stroke="#63b8ff" d="M191.55,-345.82C213.3,-359.92 247.6,-380.43 280,-392.5 288.96,-395.84 298.68,-398.62 308.28,-400.91"/>
<polygon fill="#63b8ff" stroke="#63b8ff" points="193.31,-342.79 183.04,-340.21 189.46,-348.63 193.31,-342.79"/>
</a>
</g>
</g>
<!-- Node16 -->
<g id="Node000016" class="node">
<title>Node16</title>
<g id="a_Node000016"><a xlink:href="group___reset_invalidated_checksum_headers.html#class_insert_parsed_valid_bits" target="_top" xlink:title=" ">
<polygon fill="white" stroke="#666666" points="427.5,-383 308.5,-383 308.5,-364 427.5,-364 427.5,-383"/>
<text text-anchor="middle" x="368" y="-371" font-family="Helvetica,sans-Serif" font-size="10.00">InsertParsedValidBits</text>
</a>
</g>
</g>
<!-- Node11&#45;&gt;Node16 -->
<g id="edge2281_Node000011_Node000016" class="edge">
<title>Node11&#45;&gt;Node16</title>
<g id="a_edge2281_Node000011_Node000016"><a xlink:title=" ">
<path fill="none" stroke="#63b8ff" d="M221.47,-341.89C253.2,-348.79 293.2,-357.47 323.22,-363.99"/>
<polygon fill="#63b8ff" stroke="#63b8ff" points="221.99,-338.43 211.48,-339.72 220.51,-345.27 221.99,-338.43"/>
</a>
</g>
</g>
<!-- Node17 -->
<g id="Node000017" class="node">
<title>Node17</title>
<g id="a_Node000017"><a xlink:href="struct_insert_parser_clot_checksums_1_1_insert_parser_primitives.html" target="_top" xlink:title=" ">
<polygon fill="white" stroke="#666666" points="443,-345.5 293,-345.5 293,-315.5 443,-315.5 443,-345.5"/>
<text text-anchor="start" x="301" y="-333.5" font-family="Helvetica,sans-Serif" font-size="10.00">InsertParserClotChecksums</text>
<text text-anchor="middle" x="368" y="-322.5" font-family="Helvetica,sans-Serif" font-size="10.00">::InsertParserPrimitives</text>
</a>
</g>
</g>
<!-- Node11&#45;&gt;Node17 -->
<g id="edge2282_Node000011_Node000017" class="edge">
<title>Node11&#45;&gt;Node17</title>
<g id="a_edge2282_Node000011_Node000017"><a xlink:title=" ">
<path fill="none" stroke="#63b8ff" d="M221.51,-330.5C243.29,-330.5 268.96,-330.5 292.62,-330.5"/>
<polygon fill="#63b8ff" stroke="#63b8ff" points="221.48,-327 211.48,-330.5 221.48,-334 221.48,-327"/>
</a>
</g>
</g>
<!-- Node18 -->
<g id="Node000018" class="node">
<title>Node18</title>
<g id="a_Node000018"><a xlink:href="group___lower_parser.html#class_parde_1_1_lowered_1_1_compute_buffer_requirements" target="_top" xlink:title="Computes the number of bytes which must be available for each parser match to avoid a stall.">
<polygon fill="white" stroke="#666666" points="453,-297.5 283,-297.5 283,-267.5 453,-267.5 453,-297.5"/>
<text text-anchor="start" x="291" y="-285.5" font-family="Helvetica,sans-Serif" font-size="10.00">Parde::Lowered::ComputeBuffer</text>
<text text-anchor="middle" x="368" y="-274.5" font-family="Helvetica,sans-Serif" font-size="10.00">Requirements</text>
</a>
</g>
</g>
<!-- Node11&#45;&gt;Node18 -->
<g id="edge2283_Node000011_Node000018" class="edge">
<title>Node11&#45;&gt;Node18</title>
<g id="a_edge2283_Node000011_Node000018"><a xlink:title=" ">
<path fill="none" stroke="#63b8ff" d="M218.53,-318.64C227.03,-316.6 235.77,-314.49 244,-312.5 263.98,-307.67 285.77,-302.36 305.38,-297.58"/>
<polygon fill="#63b8ff" stroke="#63b8ff" points="217.61,-315.26 208.71,-321 219.25,-322.07 217.61,-315.26"/>
</a>
</g>
</g>
<!-- Node19 -->
<g id="Node000019" class="node">
<title>Node19</title>
<g id="a_Node000019"><a xlink:href="group___lower_parser.html#class_parde_1_1_lowered_1_1_compute_init_zero_containers" target="_top" xlink:title="Computes containers that have fields relying on parser zero initialization.">
<polygon fill="white" stroke="#666666" points="446.5,-249.5 289.5,-249.5 289.5,-219.5 446.5,-219.5 446.5,-249.5"/>
<text text-anchor="start" x="297.5" y="-237.5" font-family="Helvetica,sans-Serif" font-size="10.00">Parde::Lowered::ComputeInit</text>
<text text-anchor="middle" x="368" y="-226.5" font-family="Helvetica,sans-Serif" font-size="10.00">ZeroContainers</text>
</a>
</g>
</g>
<!-- Node11&#45;&gt;Node19 -->
<g id="edge2284_Node000011_Node000019" class="edge">
<title>Node11&#45;&gt;Node19</title>
<g id="a_edge2284_Node000011_Node000019"><a xlink:title=" ">
<path fill="none" stroke="#63b8ff" d="M220.71,-323.5C228.96,-320.9 237.05,-317.35 244,-312.5 267.66,-296 256.62,-275.4 280,-258.5 284.7,-255.1 289.86,-252.19 295.24,-249.68"/>
<polygon fill="#63b8ff" stroke="#63b8ff" points="219.75,-320.13 211.02,-326.13 221.59,-326.88 219.75,-320.13"/>
</a>
</g>
</g>
<!-- Node20 -->
<g id="Node000020" class="node">
<title>Node20</title>
<g id="a_Node000020"><a xlink:href="group___lower_parser.html#class_parde_1_1_lowered_1_1_compute_multi_write_containers" target="_top" xlink:title="Collects all containers that are written more than once by the parser.">
<polygon fill="white" stroke="#666666" points="451,-201.5 285,-201.5 285,-171.5 451,-171.5 451,-201.5"/>
<text text-anchor="start" x="293" y="-189.5" font-family="Helvetica,sans-Serif" font-size="10.00">Parde::Lowered::ComputeMulti</text>
<text text-anchor="middle" x="368" y="-178.5" font-family="Helvetica,sans-Serif" font-size="10.00">WriteContainers</text>
</a>
</g>
</g>
<!-- Node11&#45;&gt;Node20 -->
<g id="edge2285_Node000011_Node000020" class="edge">
<title>Node11&#45;&gt;Node20</title>
<g id="a_edge2285_Node000011_Node000020"><a xlink:title=" ">
<path fill="none" stroke="#63b8ff" d="M220.72,-325.26C229.24,-322.49 237.42,-318.43 244,-312.5 279.71,-280.31 244.84,-243.28 280,-210.5 283.67,-207.08 287.78,-204.14 292.16,-201.62"/>
<polygon fill="#63b8ff" stroke="#63b8ff" points="219.77,-321.9 211.03,-327.87 221.59,-328.65 219.77,-321.9"/>
</a>
</g>
</g>
<!-- Node21 -->
<g id="Node000021" class="node">
<title>Node21</title>
<g id="a_Node000021"><a xlink:href="struct_remove_empty_stall_state.html" target="_top" xlink:title=" ">
<polygon fill="white" stroke="#666666" points="436,-153 300,-153 300,-134 436,-134 436,-153"/>
<text text-anchor="middle" x="368" y="-141" font-family="Helvetica,sans-Serif" font-size="10.00">RemoveEmptyStallState</text>
</a>
</g>
</g>
<!-- Node11&#45;&gt;Node21 -->
<g id="edge2286_Node000011_Node000021" class="edge">
<title>Node11&#45;&gt;Node21</title>
<g id="a_edge2286_Node000011_Node000021"><a xlink:title=" ">
<path fill="none" stroke="#63b8ff" d="M220.96,-325.91C229.53,-323.08 237.67,-318.83 244,-312.5 292.48,-264.02 231.03,-210.48 280,-162.5 285.63,-156.98 292.47,-152.91 299.82,-149.92"/>
<polygon fill="#63b8ff" stroke="#63b8ff" points="219.93,-322.56 211.18,-328.53 221.74,-329.32 219.93,-322.56"/>
</a>
</g>
</g>
<!-- Node22 -->
<g id="Node000022" class="node">
<title>Node22</title>
<g id="a_Node000022"><a xlink:href="struct_resolve_negative_extract_1_1_adjust_shift.html" target="_top" xlink:title=" ">
<polygon fill="white" stroke="#666666" points="435,-115.5 301,-115.5 301,-85.5 435,-85.5 435,-115.5"/>
<text text-anchor="start" x="309" y="-103.5" font-family="Helvetica,sans-Serif" font-size="10.00">ResolveNegativeExtract</text>
<text text-anchor="middle" x="368" y="-92.5" font-family="Helvetica,sans-Serif" font-size="10.00">::AdjustShift</text>
</a>
</g>
</g>
<!-- Node11&#45;&gt;Node22 -->
<g id="edge2287_Node000011_Node000022" class="edge">
<title>Node11&#45;&gt;Node22</title>
<g id="a_edge2287_Node000011_Node000022"><a xlink:title=" ">
<path fill="none" stroke="#63b8ff" d="M220.92,-326.23C229.57,-323.38 237.75,-319.04 244,-312.5 302.47,-251.31 222.89,-187.97 280,-125.5 285.73,-119.24 292.91,-114.5 300.68,-110.93"/>
<polygon fill="#63b8ff" stroke="#63b8ff" points="219.8,-322.91 211.03,-328.85 221.6,-329.67 219.8,-322.91"/>
</a>
</g>
</g>
<!-- Node23 -->
<g id="Node000023" class="node">
<title>Node23</title>
<g id="a_Node000023"><a xlink:href="struct_resolve_negative_extract_1_1_adjust_shift_out_of_buffer.html" target="_top" xlink:title=" ">
<polygon fill="white" stroke="#666666" points="435,-67.5 301,-67.5 301,-37.5 435,-37.5 435,-67.5"/>
<text text-anchor="start" x="309" y="-55.5" font-family="Helvetica,sans-Serif" font-size="10.00">ResolveNegativeExtract</text>
<text text-anchor="middle" x="368" y="-44.5" font-family="Helvetica,sans-Serif" font-size="10.00">::AdjustShiftOutOfBuffer</text>
</a>
</g>
</g>
<!-- Node11&#45;&gt;Node23 -->
<g id="edge2288_Node000011_Node000023" class="edge">
<title>Node11&#45;&gt;Node23</title>
<g id="a_edge2288_Node000011_Node000023"><a xlink:title=" ">
<path fill="none" stroke="#63b8ff" d="M221.13,-326.43C229.76,-323.56 237.88,-319.16 244,-312.5 315.8,-234.38 209.52,-155.81 280,-76.5 285.72,-70.06 293,-65.28 300.91,-61.74"/>
<polygon fill="#63b8ff" stroke="#63b8ff" points="220.01,-323.1 211.25,-329.05 221.81,-329.87 220.01,-323.1"/>
</a>
</g>
</g>
<!-- Node24 -->
<g id="Node000024" class="node">
<title>Node24</title>
<g id="a_Node000024"><a xlink:href="struct_slice_extracts.html" target="_top" xlink:title=" ">
<polygon fill="white" stroke="#666666" points="408,-19 328,-19 328,0 408,0 408,-19"/>
<text text-anchor="middle" x="368" y="-7" font-family="Helvetica,sans-Serif" font-size="10.00">SliceExtracts</text>
</a>
</g>
</g>
<!-- Node11&#45;&gt;Node24 -->
<g id="edge2289_Node000011_Node000024" class="edge">
<title>Node11&#45;&gt;Node24</title>
<g id="a_edge2289_Node000011_Node000024"><a xlink:title=" ">
<path fill="none" stroke="#63b8ff" d="M221.27,-326.55C229.89,-323.67 237.96,-319.24 244,-312.5 328.91,-217.75 194.12,-122.38 280,-28.5 292,-15.38 310.78,-10.22 327.82,-8.5"/>
<polygon fill="#63b8ff" stroke="#63b8ff" points="220.15,-323.23 211.39,-329.18 221.95,-329.99 220.15,-323.23"/>
</a>
</g>
</g>
</g>
</svg>
