<?xml version="1.0" encoding="UTF-8" standalone="no"?>
<!DOCTYPE svg PUBLIC "-//W3C//DTD SVG 1.1//EN"
 "http://www.w3.org/Graphics/SVG/1.1/DTD/svg11.dtd">
<!-- Generated by graphviz version 2.43.0 (0)
 -->
<!-- Title: Graphical Class Hierarchy Pages: 1 -->
<svg width="371pt" height="64pt"
 viewBox="0.00 0.00 371.00 64.00" xmlns="http://www.w3.org/2000/svg" xmlns:xlink="http://www.w3.org/1999/xlink">
<g id="graph0" class="graph" transform="scale(1 1) rotate(0) translate(4 60)">
<title>Graphical Class Hierarchy</title>
<!-- Node0 -->
<g id="Node000000" class="node">
<title>Node0</title>
<g id="a_Node000000"><a xlink:href="class_p4_1_1_p4_v1_1_1_program_structure.html" target="_top" xlink:title="Information about the structure of a P4&#45;14 program, used to convert it to a P4&#45;16 program.">
<polygon fill="white" stroke="#666666" points="151,-37 0,-37 0,-18 151,-18 151,-37"/>
<text text-anchor="middle" x="75.5" y="-25" font-family="Helvetica,sans-Serif" font-size="10.00">P4::P4V1::ProgramStructure</text>
</a>
</g>
</g>
<!-- Node1 -->
<g id="Node000001" class="node">
<title>Node1</title>
<g id="a_Node000001"><a xlink:href="class_p4_1_1_p4_v1_1_1_t_n_a___program_structure.html" target="_top" xlink:title=" ">
<polygon fill="white" stroke="#666666" points="363,-56 187,-56 187,-37 363,-37 363,-56"/>
<text text-anchor="middle" x="275" y="-44" font-family="Helvetica,sans-Serif" font-size="10.00">P4::P4V1::TNA_ProgramStructure</text>
</a>
</g>
</g>
<!-- Node0&#45;&gt;Node1 -->
<g id="edge2556_Node000000_Node000001" class="edge">
<title>Node0&#45;&gt;Node1</title>
<g id="a_edge2556_Node000000_Node000001"><a xlink:title=" ">
<path fill="none" stroke="#63b8ff" d="M161.13,-35.64C169.68,-36.46 178.38,-37.3 186.96,-38.13"/>
<polygon fill="#63b8ff" stroke="#63b8ff" points="161.46,-32.16 151.17,-34.68 160.79,-39.12 161.46,-32.16"/>
</a>
</g>
</g>
<!-- Node2 -->
<g id="Node000002" class="node">
<title>Node2</title>
<g id="a_Node000002"><a xlink:href="class_p4_1_1_p4_v1_1_1_tna_program_structure.html" target="_top" xlink:title=" ">
<polygon fill="white" stroke="#666666" points="359.5,-19 190.5,-19 190.5,0 359.5,0 359.5,-19"/>
<text text-anchor="middle" x="275" y="-7" font-family="Helvetica,sans-Serif" font-size="10.00">P4::P4V1::TnaProgramStructure</text>
</a>
</g>
</g>
<!-- Node0&#45;&gt;Node2 -->
<g id="edge2557_Node000000_Node000002" class="edge">
<title>Node0&#45;&gt;Node2</title>
<g id="a_edge2557_Node000000_Node000002"><a xlink:title=" ">
<path fill="none" stroke="#63b8ff" d="M161.15,-19.79C170.81,-18.9 180.65,-18.01 190.3,-17.13"/>
<polygon fill="#63b8ff" stroke="#63b8ff" points="160.81,-16.3 151.17,-20.69 161.44,-23.27 160.81,-16.3"/>
</a>
</g>
</g>
</g>
</svg>
