<?xml version="1.0" encoding="UTF-8" standalone="no"?>
<!DOCTYPE svg PUBLIC "-//W3C//DTD SVG 1.1//EN"
 "http://www.w3.org/Graphics/SVG/1.1/DTD/svg11.dtd">
<!-- Generated by graphviz version 2.43.0 (0)
 -->
<!-- Title: Graphical Class Hierarchy Pages: 1 -->
<svg width="267pt" height="138pt"
 viewBox="0.00 0.00 267.00 138.00" xmlns="http://www.w3.org/2000/svg" xmlns:xlink="http://www.w3.org/1999/xlink">
<g id="graph0" class="graph" transform="scale(1 1) rotate(0) translate(4 134)">
<title>Graphical Class Hierarchy</title>
<!-- Node0 -->
<g id="Node000000" class="node">
<title>Node0</title>
<g id="a_Node000000"><a xlink:href="class_p4_1_1_model_1_1_model.html" target="_top" xlink:title=" ">
<polygon fill="white" stroke="#666666" points="101,-74 0,-74 0,-55 101,-55 101,-74"/>
<text text-anchor="middle" x="50.5" y="-62" font-family="Helvetica,sans-Serif" font-size="10.00">P4::Model::Model</text>
</a>
</g>
</g>
<!-- Node1 -->
<g id="Node000001" class="node">
<title>Node1</title>
<g id="a_Node000001"><a xlink:href="class_p4_1_1_e_b_p_f_1_1_e_b_p_f_model.html" target="_top" xlink:title="Keep this in sync with ebpf_model.p4 and xdp_model.p4.">
<polygon fill="white" stroke="#666666" points="257.5,-130 138.5,-130 138.5,-111 257.5,-111 257.5,-130"/>
<text text-anchor="middle" x="198" y="-118" font-family="Helvetica,sans-Serif" font-size="10.00">P4::EBPF::EBPFModel</text>
</a>
</g>
</g>
<!-- Node0&#45;&gt;Node1 -->
<g id="edge1067_Node000000_Node000001" class="edge">
<title>Node0&#45;&gt;Node1</title>
<g id="a_edge1067_Node000000_Node000001"><a xlink:title=" ">
<path fill="none" stroke="#63b8ff" d="M80.32,-78.4C96.72,-86.04 117.77,-95.38 137,-102.5 145.16,-105.52 154.08,-108.41 162.48,-110.96"/>
<polygon fill="#63b8ff" stroke="#63b8ff" points="81.78,-75.22 71.24,-74.13 78.8,-81.56 81.78,-75.22"/>
</a>
</g>
</g>
<!-- Node2 -->
<g id="Node000002" class="node">
<title>Node2</title>
<g id="a_Node000002"><a xlink:href="class_p4_1_1_p4_core_library.html" target="_top" xlink:title=" ">
<polygon fill="white" stroke="#666666" points="249.5,-93 146.5,-93 146.5,-74 249.5,-74 249.5,-93"/>
<text text-anchor="middle" x="198" y="-81" font-family="Helvetica,sans-Serif" font-size="10.00">P4::P4CoreLibrary</text>
</a>
</g>
</g>
<!-- Node0&#45;&gt;Node2 -->
<g id="edge1068_Node000000_Node000002" class="edge">
<title>Node0&#45;&gt;Node2</title>
<g id="a_edge1068_Node000000_Node000002"><a xlink:title=" ">
<path fill="none" stroke="#63b8ff" d="M111.19,-72.29C122.77,-73.81 134.81,-75.38 146.07,-76.85"/>
<polygon fill="#63b8ff" stroke="#63b8ff" points="111.53,-68.81 101.17,-70.99 110.63,-75.75 111.53,-68.81"/>
</a>
</g>
</g>
<!-- Node3 -->
<g id="Node000003" class="node">
<title>Node3</title>
<g id="a_Node000003"><a xlink:href="class_p4_1_1_p4_v1_1_1_v1_model.html" target="_top" xlink:title=" ">
<polygon fill="white" stroke="#666666" points="252,-56 144,-56 144,-37 252,-37 252,-56"/>
<text text-anchor="middle" x="198" y="-44" font-family="Helvetica,sans-Serif" font-size="10.00">P4::P4V1::V1Model</text>
</a>
</g>
</g>
<!-- Node0&#45;&gt;Node3 -->
<g id="edge1069_Node000000_Node000003" class="edge">
<title>Node0&#45;&gt;Node3</title>
<g id="a_edge1069_Node000000_Node000003"><a xlink:title=" ">
<path fill="none" stroke="#63b8ff" d="M111.34,-57.1C122.11,-55.77 133.27,-54.38 143.83,-53.08"/>
<polygon fill="#63b8ff" stroke="#63b8ff" points="110.66,-53.65 101.17,-58.36 111.52,-60.6 110.66,-53.65"/>
</a>
</g>
</g>
<!-- Node4 -->
<g id="Node000004" class="node">
<title>Node4</title>
<g id="a_Node000004"><a xlink:href="class_p4_1_1_u_b_p_f_1_1_u_b_p_f_model.html" target="_top" xlink:title=" ">
<polygon fill="white" stroke="#666666" points="259,-19 137,-19 137,0 259,0 259,-19"/>
<text text-anchor="middle" x="198" y="-7" font-family="Helvetica,sans-Serif" font-size="10.00">P4::UBPF::UBPFModel</text>
</a>
</g>
</g>
<!-- Node0&#45;&gt;Node4 -->
<g id="edge1070_Node000000_Node000004" class="edge">
<title>Node0&#45;&gt;Node4</title>
<g id="a_edge1070_Node000000_Node000004"><a xlink:title=" ">
<path fill="none" stroke="#63b8ff" d="M82.2,-50.77C98.37,-43.74 118.6,-35.27 137,-28.5 146.02,-25.18 155.93,-21.9 165.05,-19.02"/>
<polygon fill="#63b8ff" stroke="#63b8ff" points="80.47,-47.7 72.72,-54.93 83.28,-54.12 80.47,-47.7"/>
</a>
</g>
</g>
</g>
</svg>
