<?xml version="1.0" encoding="UTF-8" standalone="no"?>
<!DOCTYPE svg PUBLIC "-//W3C//DTD SVG 1.1//EN"
 "http://www.w3.org/Graphics/SVG/1.1/DTD/svg11.dtd">
<!-- Generated by graphviz version 2.43.0 (0)
 -->
<!-- Title: Graphical Class Hierarchy Pages: 1 -->
<svg width="969pt" height="430pt"
 viewBox="0.00 0.00 969.00 430.00" xmlns="http://www.w3.org/2000/svg" xmlns:xlink="http://www.w3.org/1999/xlink">
<g id="graph0" class="graph" transform="scale(1 1) rotate(0) translate(4 426)">
<title>Graphical Class Hierarchy</title>
<!-- Node0 -->
<g id="Node000000" class="node">
<title>Node0</title>
<g id="a_Node000000"><a xlink:href="class_p4_1_1_util_1_1_options.html" target="_top" xlink:title=" ">
<polygon fill="white" stroke="#666666" points="95,-208 0,-208 0,-189 95,-189 95,-208"/>
<text text-anchor="middle" x="47.5" y="-196" font-family="Helvetica,sans-Serif" font-size="10.00">P4::Util::Options</text>
</a>
</g>
</g>
<!-- Node1 -->
<g id="Node000001" class="node">
<title>Node1</title>
<g id="a_Node000001"><a xlink:href="class_p4_1_1_parser_options.html" target="_top" xlink:title=" ">
<polygon fill="white" stroke="#666666" points="233,-208 131,-208 131,-189 233,-189 233,-208"/>
<text text-anchor="middle" x="182" y="-196" font-family="Helvetica,sans-Serif" font-size="10.00">P4::ParserOptions</text>
</a>
</g>
</g>
<!-- Node0&#45;&gt;Node1 -->
<g id="edge1151_Node000000_Node000001" class="edge">
<title>Node0&#45;&gt;Node1</title>
<g id="a_edge1151_Node000000_Node000001"><a xlink:title=" ">
<path fill="none" stroke="#63b8ff" d="M105.34,-198.5C113.76,-198.5 122.38,-198.5 130.66,-198.5"/>
<polygon fill="#63b8ff" stroke="#63b8ff" points="105.21,-195 95.21,-198.5 105.21,-202 105.21,-195"/>
</a>
</g>
</g>
<!-- Node2 -->
<g id="Node000002" class="node">
<title>Node2</title>
<g id="a_Node000002"><a xlink:href="class_p4_1_1_compiler_options.html" target="_top" xlink:title=" ">
<polygon fill="white" stroke="#666666" points="385,-208 269,-208 269,-189 385,-189 385,-208"/>
<text text-anchor="middle" x="327" y="-196" font-family="Helvetica,sans-Serif" font-size="10.00">P4::CompilerOptions</text>
</a>
</g>
</g>
<!-- Node1&#45;&gt;Node2 -->
<g id="edge1152_Node000001_Node000002" class="edge">
<title>Node1&#45;&gt;Node2</title>
<g id="a_edge1152_Node000001_Node000002"><a xlink:title=" ">
<path fill="none" stroke="#63b8ff" d="M243.25,-198.5C251.75,-198.5 260.47,-198.5 268.92,-198.5"/>
<polygon fill="#63b8ff" stroke="#63b8ff" points="243.01,-195 233.01,-198.5 243.01,-202 243.01,-195"/>
</a>
</g>
</g>
<!-- Node3 -->
<g id="Node000003" class="node">
<title>Node3</title>
<g id="a_Node000003"><a xlink:href="class_p4_1_1_b_m_v2_1_1_b_m_v2_options.html" target="_top" xlink:title=" ">
<polygon fill="white" stroke="#666666" points="558,-386 423,-386 423,-367 558,-367 558,-386"/>
<text text-anchor="middle" x="490.5" y="-374" font-family="Helvetica,sans-Serif" font-size="10.00">P4::BMV2::BMV2Options</text>
</a>
</g>
</g>
<!-- Node2&#45;&gt;Node3 -->
<g id="edge1153_Node000002_Node000003" class="edge">
<title>Node2&#45;&gt;Node3</title>
<g id="a_edge1153_Node000002_Node000003"><a xlink:title=" ">
<path fill="none" stroke="#63b8ff" d="M333.76,-217.82C344.87,-251.68 372.56,-321.62 421,-358.5 425.5,-361.93 430.6,-364.7 435.93,-366.95"/>
<polygon fill="#63b8ff" stroke="#63b8ff" points="337.07,-216.67 330.73,-208.18 330.39,-218.77 337.07,-216.67"/>
</a>
</g>
</g>
<!-- Node8 -->
<g id="Node000008" class="node">
<title>Node8</title>
<g id="a_Node000008"><a xlink:href="class_p4_1_1_d_p_d_k_1_1_dpdk_options.html" target="_top" xlink:title=" ">
<polygon fill="white" stroke="#666666" points="556,-349 425,-349 425,-330 556,-330 556,-349"/>
<text text-anchor="middle" x="490.5" y="-337" font-family="Helvetica,sans-Serif" font-size="10.00">P4::DPDK::DpdkOptions</text>
</a>
</g>
</g>
<!-- Node2&#45;&gt;Node8 -->
<g id="edge1158_Node000002_Node000008" class="edge">
<title>Node2&#45;&gt;Node8</title>
<g id="a_edge1158_Node000002_Node000008"><a xlink:title=" ">
<path fill="none" stroke="#63b8ff" d="M337.14,-217.49C351.25,-244.77 380.96,-294.68 421,-321.5 426.11,-324.92 431.83,-327.69 437.74,-329.94"/>
<polygon fill="#63b8ff" stroke="#63b8ff" points="340.11,-215.62 332.5,-208.24 333.85,-218.75 340.11,-215.62"/>
</a>
</g>
</g>
<!-- Node9 -->
<g id="Node000009" class="node">
<title>Node9</title>
<g id="a_Node000009"><a xlink:href="class_p4_1_1_ebpf_options.html" target="_top" xlink:title=" ">
<polygon fill="white" stroke="#666666" points="537.5,-312 443.5,-312 443.5,-293 537.5,-293 537.5,-312"/>
<text text-anchor="middle" x="490.5" y="-300" font-family="Helvetica,sans-Serif" font-size="10.00">P4::EbpfOptions</text>
</a>
</g>
</g>
<!-- Node2&#45;&gt;Node9 -->
<g id="edge1159_Node000002_Node000009" class="edge">
<title>Node2&#45;&gt;Node9</title>
<g id="a_edge1159_Node000002_Node000009"><a xlink:title=" ">
<path fill="none" stroke="#63b8ff" d="M342.15,-215.96C358.95,-235.53 388.75,-266.81 421,-284.5 427.9,-288.28 435.63,-291.3 443.35,-293.7"/>
<polygon fill="#63b8ff" stroke="#63b8ff" points="344.7,-213.55 335.59,-208.13 339.33,-218.04 344.7,-213.55"/>
</a>
</g>
</g>
<!-- Node10 -->
<g id="Node000010" class="node">
<title>Node10</title>
<g id="a_Node000010"><a xlink:href="class_p4_1_1_p4_fmt_1_1_p4fmt_options.html" target="_top" xlink:title=" ">
<polygon fill="white" stroke="#666666" points="560,-275 421,-275 421,-256 560,-256 560,-275"/>
<text text-anchor="middle" x="490.5" y="-263" font-family="Helvetica,sans-Serif" font-size="10.00">P4::P4Fmt::P4fmtOptions</text>
</a>
</g>
</g>
<!-- Node2&#45;&gt;Node10 -->
<g id="edge1160_Node000002_Node000010" class="edge">
<title>Node2&#45;&gt;Node10</title>
<g id="a_edge1160_Node000002_Node000010"><a xlink:title=" ">
<path fill="none" stroke="#63b8ff" d="M352.86,-213.12C371.23,-223.47 397.09,-237.13 421,-246.5 430.08,-250.06 440.08,-253.23 449.56,-255.91"/>
<polygon fill="#63b8ff" stroke="#63b8ff" points="354.41,-209.97 343.99,-208.05 350.93,-216.05 354.41,-209.97"/>
</a>
</g>
</g>
<!-- Node11 -->
<g id="Node000011" class="node">
<title>Node11</title>
<g id="a_Node000011"><a xlink:href="class_p4_1_1_p4_tools_1_1_abstract_p4c_tool_options.html" target="_top" xlink:title=" ">
<polygon fill="white" stroke="#666666" points="558,-237.5 423,-237.5 423,-207.5 558,-207.5 558,-237.5"/>
<text text-anchor="start" x="431" y="-225.5" font-family="Helvetica,sans-Serif" font-size="10.00">P4::P4Tools::AbstractP4c</text>
<text text-anchor="middle" x="490.5" y="-214.5" font-family="Helvetica,sans-Serif" font-size="10.00">ToolOptions</text>
</a>
</g>
</g>
<!-- Node2&#45;&gt;Node11 -->
<g id="edge1161_Node000002_Node000011" class="edge">
<title>Node2&#45;&gt;Node11</title>
<g id="a_edge1161_Node000002_Node000011"><a xlink:title=" ">
<path fill="none" stroke="#63b8ff" d="M395.51,-208.53C404.57,-209.88 413.87,-211.26 422.92,-212.61"/>
<polygon fill="#63b8ff" stroke="#63b8ff" points="395.8,-205.04 385.39,-207.03 394.77,-211.96 395.8,-205.04"/>
</a>
</g>
</g>
<!-- Node14 -->
<g id="Node000014" class="node">
<title>Node14</title>
<g id="a_Node000014"><a xlink:href="class_p4_1_1_p4_tools_1_1_test_1_1_p4_reachability_options.html" target="_top" xlink:title=" ">
<polygon fill="white" stroke="#666666" points="554,-189.5 427,-189.5 427,-159.5 554,-159.5 554,-189.5"/>
<text text-anchor="start" x="435" y="-177.5" font-family="Helvetica,sans-Serif" font-size="10.00">P4::P4Tools::Test::</text>
<text text-anchor="middle" x="490.5" y="-166.5" font-family="Helvetica,sans-Serif" font-size="10.00">P4ReachabilityOptions</text>
</a>
</g>
</g>
<!-- Node2&#45;&gt;Node14 -->
<g id="edge1164_Node000002_Node000014" class="edge">
<title>Node2&#45;&gt;Node14</title>
<g id="a_edge1164_Node000002_Node000014"><a xlink:title=" ">
<path fill="none" stroke="#63b8ff" d="M395.61,-188.45C405.95,-186.92 416.58,-185.34 426.81,-183.82"/>
<polygon fill="#63b8ff" stroke="#63b8ff" points="394.77,-185.04 385.39,-189.97 395.8,-191.96 394.77,-185.04"/>
</a>
</g>
</g>
<!-- Node15 -->
<g id="Node000015" class="node">
<title>Node15</title>
<g id="a_Node000015"><a xlink:href="class_p4_1_1_p4_tools_1_1_test_1_1_p4_test_options.html" target="_top" xlink:title=" ">
<polygon fill="white" stroke="#666666" points="542,-141.5 439,-141.5 439,-111.5 542,-111.5 542,-141.5"/>
<text text-anchor="start" x="447" y="-129.5" font-family="Helvetica,sans-Serif" font-size="10.00">P4::P4Tools::Test::</text>
<text text-anchor="middle" x="490.5" y="-118.5" font-family="Helvetica,sans-Serif" font-size="10.00">P4TestOptions</text>
</a>
</g>
</g>
<!-- Node2&#45;&gt;Node15 -->
<g id="edge1165_Node000002_Node000015" class="edge">
<title>Node2&#45;&gt;Node15</title>
<g id="a_edge1165_Node000002_Node000015"><a xlink:title=" ">
<path fill="none" stroke="#63b8ff" d="M353.73,-183.99C372.14,-173.91 397.7,-160.54 421,-150.5 428.18,-147.41 435.89,-144.41 443.47,-141.63"/>
<polygon fill="#63b8ff" stroke="#63b8ff" points="351.86,-181.02 344.8,-188.93 355.24,-187.15 351.86,-181.02"/>
</a>
</g>
</g>
<!-- Node16 -->
<g id="Node000016" class="node">
<title>Node16</title>
<g id="a_Node000016"><a xlink:href="class_p4_1_1_t_c_1_1_t_c_options.html" target="_top" xlink:title=" ">
<polygon fill="white" stroke="#666666" points="541.5,-93 439.5,-93 439.5,-74 541.5,-74 541.5,-93"/>
<text text-anchor="middle" x="490.5" y="-81" font-family="Helvetica,sans-Serif" font-size="10.00">P4::TC::TCOptions</text>
</a>
</g>
</g>
<!-- Node2&#45;&gt;Node16 -->
<g id="edge1166_Node000002_Node000016" class="edge">
<title>Node2&#45;&gt;Node16</title>
<g id="a_edge1166_Node000002_Node000016"><a xlink:title=" ">
<path fill="none" stroke="#63b8ff" d="M340.52,-180.67C356.67,-159 386.78,-122.82 421,-102.5 427.47,-98.66 434.75,-95.56 442.08,-93.09"/>
<polygon fill="#63b8ff" stroke="#63b8ff" points="337.53,-178.83 334.49,-188.98 343.2,-182.95 337.53,-178.83"/>
</a>
</g>
</g>
<!-- Node17 -->
<g id="Node000017" class="node">
<title>Node17</title>
<g id="a_Node000017"><a xlink:href="class_p4_1_1graphs_1_1_options.html" target="_top" xlink:title=" ">
<polygon fill="white" stroke="#666666" points="546,-56 435,-56 435,-37 546,-37 546,-56"/>
<text text-anchor="middle" x="490.5" y="-44" font-family="Helvetica,sans-Serif" font-size="10.00">P4::graphs::Options</text>
</a>
</g>
</g>
<!-- Node2&#45;&gt;Node17 -->
<g id="edge1167_Node000002_Node000017" class="edge">
<title>Node2&#45;&gt;Node17</title>
<g id="a_edge1167_Node000002_Node000017"><a xlink:title=" ">
<path fill="none" stroke="#63b8ff" d="M335.91,-179.5C349.11,-150.2 378.43,-94.29 421,-64.5 425.84,-61.12 431.27,-58.37 436.9,-56.14"/>
<polygon fill="#63b8ff" stroke="#63b8ff" points="332.57,-178.42 331.79,-188.99 338.99,-181.21 332.57,-178.42"/>
</a>
</g>
</g>
<!-- Node18 -->
<g id="Node000018" class="node">
<title>Node18</title>
<g id="a_Node000018"><a xlink:href="class_p4_test_options.html" target="_top" xlink:title=" ">
<polygon fill="white" stroke="#666666" points="533.5,-19 447.5,-19 447.5,0 533.5,0 533.5,-19"/>
<text text-anchor="middle" x="490.5" y="-7" font-family="Helvetica,sans-Serif" font-size="10.00">P4TestOptions</text>
</a>
</g>
</g>
<!-- Node2&#45;&gt;Node18 -->
<g id="edge1168_Node000002_Node000018" class="edge">
<title>Node2&#45;&gt;Node18</title>
<g id="a_edge1168_Node000002_Node000018"><a xlink:title=" ">
<path fill="none" stroke="#63b8ff" d="M333.07,-178.89C343.35,-143.14 370.12,-67.38 421,-27.5 428.55,-21.58 437.86,-17.6 447.15,-14.92"/>
<polygon fill="#63b8ff" stroke="#63b8ff" points="329.57,-178.43 330.3,-189 336.32,-180.28 329.57,-178.43"/>
</a>
</g>
</g>
<!-- Node4 -->
<g id="Node000004" class="node">
<title>Node4</title>
<g id="a_Node000004"><a xlink:href="class_p4_1_1_b_m_v2_1_1_portable_options.html" target="_top" xlink:title=" ">
<polygon fill="white" stroke="#666666" points="756,-404 609,-404 609,-385 756,-385 756,-404"/>
<text text-anchor="middle" x="682.5" y="-392" font-family="Helvetica,sans-Serif" font-size="10.00">P4::BMV2::PortableOptions</text>
</a>
</g>
</g>
<!-- Node3&#45;&gt;Node4 -->
<g id="edge1154_Node000003_Node000004" class="edge">
<title>Node3&#45;&gt;Node4</title>
<g id="a_edge1154_Node000003_Node000004"><a xlink:title=" ">
<path fill="none" stroke="#63b8ff" d="M568.32,-383.78C581.69,-385.04 595.55,-386.36 608.8,-387.61"/>
<polygon fill="#63b8ff" stroke="#63b8ff" points="568.51,-380.28 558.22,-382.82 567.85,-387.25 568.51,-380.28"/>
</a>
</g>
</g>
<!-- Node7 -->
<g id="Node000007" class="node">
<title>Node7</title>
<g id="a_Node000007"><a xlink:href="class_p4_1_1_b_m_v2_1_1_simple_switch_options.html" target="_top" xlink:title=" ">
<polygon fill="white" stroke="#666666" points="769,-367 596,-367 596,-348 769,-348 769,-367"/>
<text text-anchor="middle" x="682.5" y="-355" font-family="Helvetica,sans-Serif" font-size="10.00">P4::BMV2::SimpleSwitchOptions</text>
</a>
</g>
</g>
<!-- Node3&#45;&gt;Node7 -->
<g id="edge1157_Node000003_Node000007" class="edge">
<title>Node3&#45;&gt;Node7</title>
<g id="a_edge1157_Node000003_Node000007"><a xlink:title=" ">
<path fill="none" stroke="#63b8ff" d="M568.35,-368.81C577.43,-367.91 586.74,-366.98 595.93,-366.06"/>
<polygon fill="#63b8ff" stroke="#63b8ff" points="567.82,-365.35 558.22,-369.83 568.52,-372.32 567.82,-365.35"/>
</a>
</g>
</g>
<!-- Node5 -->
<g id="Node000005" class="node">
<title>Node5</title>
<g id="a_Node000005"><a xlink:href="class_p4_1_1_b_m_v2_1_1_pna_nic_options.html" target="_top" xlink:title=" ">
<polygon fill="white" stroke="#666666" points="953,-422 813,-422 813,-403 953,-403 953,-422"/>
<text text-anchor="middle" x="883" y="-410" font-family="Helvetica,sans-Serif" font-size="10.00">P4::BMV2::PnaNicOptions</text>
</a>
</g>
</g>
<!-- Node4&#45;&gt;Node5 -->
<g id="edge1155_Node000004_Node000005" class="edge">
<title>Node4&#45;&gt;Node5</title>
<g id="a_edge1155_Node000004_Node000005"><a xlink:title=" ">
<path fill="none" stroke="#63b8ff" d="M766.15,-401.99C781.74,-403.41 797.88,-404.87 813,-406.24"/>
<polygon fill="#63b8ff" stroke="#63b8ff" points="766.28,-398.49 756.01,-401.07 765.65,-405.46 766.28,-398.49"/>
</a>
</g>
</g>
<!-- Node6 -->
<g id="Node000006" class="node">
<title>Node6</title>
<g id="a_Node000006"><a xlink:href="class_p4_1_1_b_m_v2_1_1_psa_switch_options.html" target="_top" xlink:title=" ">
<polygon fill="white" stroke="#666666" points="961,-385 805,-385 805,-366 961,-366 961,-385"/>
<text text-anchor="middle" x="883" y="-373" font-family="Helvetica,sans-Serif" font-size="10.00">P4::BMV2::PsaSwitchOptions</text>
</a>
</g>
</g>
<!-- Node4&#45;&gt;Node6 -->
<g id="edge1156_Node000004_Node000006" class="edge">
<title>Node4&#45;&gt;Node6</title>
<g id="a_edge1156_Node000004_Node000006"><a xlink:title=" ">
<path fill="none" stroke="#63b8ff" d="M766.14,-386.59C778.9,-385.37 792.04,-384.11 804.68,-382.9"/>
<polygon fill="#63b8ff" stroke="#63b8ff" points="765.63,-383.12 756.01,-387.56 766.29,-390.09 765.63,-383.12"/>
</a>
</g>
</g>
<!-- Node12 -->
<g id="Node000012" class="node">
<title>Node12</title>
<g id="a_Node000012"><a xlink:href="class_p4_1_1_p4_tools_1_1_p4_testgen_1_1_testgen_options.html" target="_top" xlink:title="Encapsulates and processes command&#45;line options for P4Testgen.">
<polygon fill="white" stroke="#666666" points="746,-258.5 619,-258.5 619,-228.5 746,-228.5 746,-258.5"/>
<text text-anchor="start" x="627" y="-246.5" font-family="Helvetica,sans-Serif" font-size="10.00">P4::P4Tools::P4Testgen</text>
<text text-anchor="middle" x="682.5" y="-235.5" font-family="Helvetica,sans-Serif" font-size="10.00">::TestgenOptions</text>
</a>
</g>
</g>
<!-- Node11&#45;&gt;Node12 -->
<g id="edge1162_Node000011_Node000012" class="edge">
<title>Node11&#45;&gt;Node12</title>
<g id="a_edge1162_Node000011_Node000012"><a xlink:title=" ">
<path fill="none" stroke="#63b8ff" d="M568.5,-231.01C585.21,-232.86 602.69,-234.79 618.76,-236.57"/>
<polygon fill="#63b8ff" stroke="#63b8ff" points="568.54,-227.49 558.22,-229.87 567.77,-234.45 568.54,-227.49"/>
</a>
</g>
</g>
<!-- Node13 -->
<g id="Node000013" class="node">
<title>Node13</title>
<g id="a_Node000013"><a xlink:href="class_p4_1_1_p4_tools_1_1_smith_options.html" target="_top" xlink:title=" ">
<polygon fill="white" stroke="#666666" points="754,-210 611,-210 611,-191 754,-191 754,-210"/>
<text text-anchor="middle" x="682.5" y="-198" font-family="Helvetica,sans-Serif" font-size="10.00">P4::P4Tools::SmithOptions</text>
</a>
</g>
</g>
<!-- Node11&#45;&gt;Node13 -->
<g id="edge1163_Node000011_Node000013" class="edge">
<title>Node11&#45;&gt;Node13</title>
<g id="a_edge1163_Node000011_Node000013"><a xlink:title=" ">
<path fill="none" stroke="#63b8ff" d="M568.32,-213.61C582.34,-211.98 596.91,-210.29 610.75,-208.69"/>
<polygon fill="#63b8ff" stroke="#63b8ff" points="567.75,-210.15 558.22,-214.77 568.56,-217.1 567.75,-210.15"/>
</a>
</g>
</g>
</g>
</svg>
