<?xml version="1.0" encoding="UTF-8" standalone="no"?>
<!DOCTYPE svg PUBLIC "-//W3C//DTD SVG 1.1//EN"
 "http://www.w3.org/Graphics/SVG/1.1/DTD/svg11.dtd">
<!-- Generated by graphviz version 2.43.0 (0)
 -->
<!-- Title: Graphical Class Hierarchy Pages: 1 -->
<svg width="551pt" height="182pt"
 viewBox="0.00 0.00 551.00 182.00" xmlns="http://www.w3.org/2000/svg" xmlns:xlink="http://www.w3.org/1999/xlink">
<g id="graph0" class="graph" transform="scale(1 1) rotate(0) translate(4 178)">
<title>Graphical Class Hierarchy</title>
<!-- Node0 -->
<g id="Node000000" class="node">
<title>Node0</title>
<g id="a_Node000000"><a xlink:href="class_p4_1_1_p4_tools_1_1_p4_testgen_1_1_table_stepper.html" target="_top" xlink:title="Implements small&#45;step operational semantics for tables.">
<polygon fill="white" stroke="#666666" points="127,-102 0,-102 0,-72 127,-72 127,-102"/>
<text text-anchor="start" x="8" y="-90" font-family="Helvetica,sans-Serif" font-size="10.00">P4::P4Tools::P4Testgen</text>
<text text-anchor="middle" x="63.5" y="-79" font-family="Helvetica,sans-Serif" font-size="10.00">::TableStepper</text>
</a>
</g>
</g>
<!-- Node1 -->
<g id="Node000001" class="node">
<title>Node1</title>
<g id="a_Node000001"><a xlink:href="class_p4_1_1_p4_tools_1_1_p4_testgen_1_1_bmv2_1_1_bmv2_v1_model_table_stepper.html" target="_top" xlink:title=" ">
<polygon fill="white" stroke="#666666" points="354,-174 163,-174 163,-144 354,-144 354,-174"/>
<text text-anchor="start" x="171" y="-162" font-family="Helvetica,sans-Serif" font-size="10.00">P4::P4Tools::P4Testgen</text>
<text text-anchor="middle" x="258.5" y="-151" font-family="Helvetica,sans-Serif" font-size="10.00">::Bmv2::Bmv2V1ModelTableStepper</text>
</a>
</g>
</g>
<!-- Node0&#45;&gt;Node1 -->
<g id="edge2514_Node000000_Node000001" class="edge">
<title>Node0&#45;&gt;Node1</title>
<g id="a_edge2514_Node000000_Node000001"><a xlink:title=" ">
<path fill="none" stroke="#63b8ff" d="M100.96,-106.99C119.21,-116.41 141.86,-127.26 163,-135 171.98,-138.29 181.6,-141.3 191.14,-143.98"/>
<polygon fill="#63b8ff" stroke="#63b8ff" points="102.34,-103.76 91.86,-102.22 99.09,-109.96 102.34,-103.76"/>
</a>
</g>
</g>
<!-- Node2 -->
<g id="Node000002" class="node">
<title>Node2</title>
<g id="a_Node000002"><a xlink:href="class_p4_1_1_p4_tools_1_1_p4_testgen_1_1_e_b_p_f_1_1_e_b_p_f_table_stepper.html" target="_top" xlink:title=" ">
<polygon fill="white" stroke="#666666" points="328.5,-126 188.5,-126 188.5,-96 328.5,-96 328.5,-126"/>
<text text-anchor="start" x="196.5" y="-114" font-family="Helvetica,sans-Serif" font-size="10.00">P4::P4Tools::P4Testgen</text>
<text text-anchor="middle" x="258.5" y="-103" font-family="Helvetica,sans-Serif" font-size="10.00">::EBPF::EBPFTableStepper</text>
</a>
</g>
</g>
<!-- Node0&#45;&gt;Node2 -->
<g id="edge2515_Node000000_Node000002" class="edge">
<title>Node0&#45;&gt;Node2</title>
<g id="a_edge2515_Node000000_Node000002"><a xlink:title=" ">
<path fill="none" stroke="#63b8ff" d="M137.43,-96.07C154.17,-98.15 171.91,-100.36 188.48,-102.42"/>
<polygon fill="#63b8ff" stroke="#63b8ff" points="137.52,-92.55 127.16,-94.79 136.65,-99.5 137.52,-92.55"/>
</a>
</g>
</g>
<!-- Node3 -->
<g id="Node000003" class="node">
<title>Node3</title>
<g id="a_Node000003"><a xlink:href="class_p4_1_1_p4_tools_1_1_p4_testgen_1_1_pna_1_1_shared_pna_table_stepper.html" target="_top" xlink:title=" ">
<polygon fill="white" stroke="#666666" points="339,-78 178,-78 178,-48 339,-48 339,-78"/>
<text text-anchor="start" x="186" y="-66" font-family="Helvetica,sans-Serif" font-size="10.00">P4::P4Tools::P4Testgen</text>
<text text-anchor="middle" x="258.5" y="-55" font-family="Helvetica,sans-Serif" font-size="10.00">::Pna::SharedPnaTableStepper</text>
</a>
</g>
</g>
<!-- Node0&#45;&gt;Node3 -->
<g id="edge2516_Node000000_Node000003" class="edge">
<title>Node0&#45;&gt;Node3</title>
<g id="a_edge2516_Node000000_Node000003"><a xlink:title=" ">
<path fill="none" stroke="#63b8ff" d="M137.18,-77.96C150.48,-76.31 164.41,-74.58 177.89,-72.9"/>
<polygon fill="#63b8ff" stroke="#63b8ff" points="136.65,-74.5 127.16,-79.21 137.52,-81.45 136.65,-74.5"/>
</a>
</g>
</g>
<!-- Node5 -->
<g id="Node000005" class="node">
<title>Node5</title>
<g id="a_Node000005"><a xlink:href="class_p4_1_1_p4_tools_1_1_p4_testgen_1_1_tofino_1_1_tofino_table_stepper.html" target="_top" xlink:title=" ">
<polygon fill="white" stroke="#666666" points="333,-30 184,-30 184,0 333,0 333,-30"/>
<text text-anchor="start" x="192" y="-18" font-family="Helvetica,sans-Serif" font-size="10.00">P4::P4Tools::P4Testgen</text>
<text text-anchor="middle" x="258.5" y="-7" font-family="Helvetica,sans-Serif" font-size="10.00">::Tofino::TofinoTableStepper</text>
</a>
</g>
</g>
<!-- Node0&#45;&gt;Node5 -->
<g id="edge2518_Node000000_Node000005" class="edge">
<title>Node0&#45;&gt;Node5</title>
<g id="a_edge2518_Node000000_Node000005"><a xlink:title=" ">
<path fill="none" stroke="#63b8ff" d="M100.96,-67.01C119.21,-57.59 141.86,-46.74 163,-39 171.98,-35.71 181.6,-32.7 191.14,-30.02"/>
<polygon fill="#63b8ff" stroke="#63b8ff" points="99.09,-64.04 91.86,-71.78 102.34,-70.24 99.09,-64.04"/>
</a>
</g>
</g>
<!-- Node4 -->
<g id="Node000004" class="node">
<title>Node4</title>
<g id="a_Node000004"><a xlink:href="class_p4_1_1_p4_tools_1_1_p4_testgen_1_1_pna_1_1_pna_dpdk_table_stepper.html" target="_top" xlink:title=" ">
<polygon fill="white" stroke="#666666" points="543,-78 390,-78 390,-48 543,-48 543,-78"/>
<text text-anchor="start" x="398" y="-66" font-family="Helvetica,sans-Serif" font-size="10.00">P4::P4Tools::P4Testgen</text>
<text text-anchor="middle" x="466.5" y="-55" font-family="Helvetica,sans-Serif" font-size="10.00">::Pna::PnaDpdkTableStepper</text>
</a>
</g>
</g>
<!-- Node3&#45;&gt;Node4 -->
<g id="edge2517_Node000003_Node000004" class="edge">
<title>Node3&#45;&gt;Node4</title>
<g id="a_edge2517_Node000003_Node000004"><a xlink:title=" ">
<path fill="none" stroke="#63b8ff" d="M349.38,-63C362.86,-63 376.64,-63 389.79,-63"/>
<polygon fill="#63b8ff" stroke="#63b8ff" points="349.15,-59.5 339.14,-63 349.14,-66.5 349.15,-59.5"/>
</a>
</g>
</g>
</g>
</svg>
