<?xml version="1.0" encoding="UTF-8" standalone="no"?>
<!DOCTYPE svg PUBLIC "-//W3C//DTD SVG 1.1//EN"
 "http://www.w3.org/Graphics/SVG/1.1/DTD/svg11.dtd">
<!-- Generated by graphviz version 2.43.0 (0)
 -->
<!-- Title: Graphical Class Hierarchy Pages: 1 -->
<svg width="288pt" height="230pt"
 viewBox="0.00 0.00 288.00 230.00" xmlns="http://www.w3.org/2000/svg" xmlns:xlink="http://www.w3.org/1999/xlink">
<g id="graph0" class="graph" transform="scale(1 1) rotate(0) translate(4 226)">
<title>Graphical Class Hierarchy</title>
<!-- Node0 -->
<g id="Node000000" class="node">
<title>Node0</title>
<g id="a_Node000000"><a xlink:title=" ">
<polygon fill="#e0e0e0" stroke="#999999" points="89,-120.5 0,-120.5 0,-101.5 89,-101.5 89,-120.5"/>
<text text-anchor="middle" x="44.5" y="-108.5" font-family="Helvetica,sans-Serif" font-size="10.00">std::false_type</text>
</a>
</g>
</g>
<!-- Node1 -->
<g id="Node000001" class="node">
<title>Node1</title>
<g id="a_Node000001"><a xlink:href="struct_p4_1_1_i_r_1_1has__static__type__name.html" target="_top" xlink:title=" ">
<polygon fill="white" stroke="#666666" points="280,-222 125,-222 125,-192 280,-192 280,-222"/>
<text text-anchor="start" x="133" y="-210" font-family="Helvetica,sans-Serif" font-size="10.00">P4::IR::has_static</text>
<text text-anchor="middle" x="202.5" y="-199" font-family="Helvetica,sans-Serif" font-size="10.00">_type_name&lt; class, class &gt;</text>
</a>
</g>
</g>
<!-- Node0&#45;&gt;Node1 -->
<g id="edge1179_Node000000_Node000001" class="edge">
<title>Node0&#45;&gt;Node1</title>
<g id="a_edge1179_Node000000_Node000001"><a xlink:title=" ">
<path fill="none" stroke="#63b8ff" d="M60.68,-128.55C75.57,-144.78 99.68,-168.5 125,-183 130.92,-186.39 137.38,-189.36 143.95,-191.95"/>
<polygon fill="#63b8ff" stroke="#63b8ff" points="63.05,-125.96 53.77,-120.84 57.84,-130.63 63.05,-125.96"/>
</a>
</g>
</g>
<!-- Node2 -->
<g id="Node000002" class="node">
<title>Node2</title>
<g id="a_Node000002"><a xlink:href="struct_p4_1_1_util_1_1has___source_info.html" target="_top" xlink:title="SFINAE helper to check if given class has a getSourceInfo method.">
<polygon fill="white" stroke="#666666" points="268.5,-174 136.5,-174 136.5,-144 268.5,-144 268.5,-174"/>
<text text-anchor="start" x="144.5" y="-162" font-family="Helvetica,sans-Serif" font-size="10.00">P4::Util::has_SourceInfo</text>
<text text-anchor="middle" x="202.5" y="-151" font-family="Helvetica,sans-Serif" font-size="10.00">&lt; class, class &gt;</text>
</a>
</g>
</g>
<!-- Node0&#45;&gt;Node2 -->
<g id="edge1180_Node000000_Node000002" class="edge">
<title>Node0&#45;&gt;Node2</title>
<g id="a_edge1180_Node000000_Node000002"><a xlink:title=" ">
<path fill="none" stroke="#63b8ff" d="M86.27,-123.54C106.56,-129.79 131.24,-137.38 152.55,-143.94"/>
<polygon fill="#63b8ff" stroke="#63b8ff" points="87.28,-120.19 76.69,-120.6 85.22,-126.88 87.28,-120.19"/>
</a>
</g>
</g>
<!-- Node3 -->
<g id="Node000003" class="node">
<title>Node3</title>
<g id="a_Node000003"><a xlink:href="struct_p4_1_1_util_1_1has__to_string.html" target="_top" xlink:title="SFINAE helper to check if given class has a toString method.">
<polygon fill="white" stroke="#666666" points="262,-126 143,-126 143,-96 262,-96 262,-126"/>
<text text-anchor="start" x="151" y="-114" font-family="Helvetica,sans-Serif" font-size="10.00">P4::Util::has_toString</text>
<text text-anchor="middle" x="202.5" y="-103" font-family="Helvetica,sans-Serif" font-size="10.00">&lt; class, class &gt;</text>
</a>
</g>
</g>
<!-- Node0&#45;&gt;Node3 -->
<g id="edge1181_Node000000_Node000003" class="edge">
<title>Node0&#45;&gt;Node3</title>
<g id="a_edge1181_Node000000_Node000003"><a xlink:title=" ">
<path fill="none" stroke="#63b8ff" d="M99.76,-111C113.67,-111 128.7,-111 142.82,-111"/>
<polygon fill="#63b8ff" stroke="#63b8ff" points="99.37,-107.5 89.37,-111 99.37,-114.5 99.37,-107.5"/>
</a>
</g>
</g>
<!-- Node4 -->
<g id="Node000004" class="node">
<title>Node4</title>
<g id="a_Node000004"><a xlink:href="struct_p4_1_1has__dbprint.html" target="_top" xlink:title=" ">
<polygon fill="white" stroke="#666666" points="268,-78 137,-78 137,-48 268,-48 268,-78"/>
<text text-anchor="start" x="145" y="-66" font-family="Helvetica,sans-Serif" font-size="10.00">P4::has_dbprint&lt; class,</text>
<text text-anchor="middle" x="202.5" y="-55" font-family="Helvetica,sans-Serif" font-size="10.00"> class &gt;</text>
</a>
</g>
</g>
<!-- Node0&#45;&gt;Node4 -->
<g id="edge1182_Node000000_Node000004" class="edge">
<title>Node0&#45;&gt;Node4</title>
<g id="a_edge1182_Node000000_Node000004"><a xlink:title=" ">
<path fill="none" stroke="#63b8ff" d="M86.27,-98.46C106.56,-92.21 131.24,-84.62 152.55,-78.06"/>
<polygon fill="#63b8ff" stroke="#63b8ff" points="85.22,-95.12 76.69,-101.4 87.28,-101.81 85.22,-95.12"/>
</a>
</g>
</g>
<!-- Node5 -->
<g id="Node000005" class="node">
<title>Node5</title>
<g id="a_Node000005"><a xlink:href="struct_p4_1_1has__ostream__operator.html" target="_top" xlink:title=" ">
<polygon fill="white" stroke="#666666" points="274.5,-30 130.5,-30 130.5,0 274.5,0 274.5,-30"/>
<text text-anchor="start" x="138.5" y="-18" font-family="Helvetica,sans-Serif" font-size="10.00">P4::has_ostream_operator</text>
<text text-anchor="middle" x="202.5" y="-7" font-family="Helvetica,sans-Serif" font-size="10.00">&lt; class, class &gt;</text>
</a>
</g>
</g>
<!-- Node0&#45;&gt;Node5 -->
<g id="edge1183_Node000000_Node000005" class="edge">
<title>Node0&#45;&gt;Node5</title>
<g id="a_edge1183_Node000000_Node000005"><a xlink:title=" ">
<path fill="none" stroke="#63b8ff" d="M60.68,-93.45C75.57,-77.22 99.68,-53.5 125,-39 130.92,-35.61 137.38,-32.64 143.95,-30.05"/>
<polygon fill="#63b8ff" stroke="#63b8ff" points="57.84,-91.37 53.77,-101.16 63.05,-96.04 57.84,-91.37"/>
</a>
</g>
</g>
</g>
</svg>
