<?xml version="1.0" encoding="UTF-8" standalone="no"?>
<!DOCTYPE svg PUBLIC "-//W3C//DTD SVG 1.1//EN"
 "http://www.w3.org/Graphics/SVG/1.1/DTD/svg11.dtd">
<!-- Generated by graphviz version 2.43.0 (0)
 -->
<!-- Title: Graphical Class Hierarchy Pages: 1 -->
<svg width="496pt" height="150pt"
 viewBox="0.00 0.00 496.00 149.50" xmlns="http://www.w3.org/2000/svg" xmlns:xlink="http://www.w3.org/1999/xlink">
<g id="graph0" class="graph" transform="scale(1 1) rotate(0) translate(4 145.5)">
<title>Graphical Class Hierarchy</title>
<!-- Node0 -->
<g id="Node000000" class="node">
<title>Node0</title>
<g id="a_Node000000"><a xlink:title=" ">
<polygon fill="#e0e0e0" stroke="#999999" points="86,-74 0,-74 0,-55 86,-55 86,-74"/>
<text text-anchor="middle" x="43" y="-62" font-family="Helvetica,sans-Serif" font-size="10.00">std::exception</text>
</a>
</g>
</g>
<!-- Node1 -->
<g id="Node000001" class="node">
<title>Node1</title>
<g id="a_Node000001"><a xlink:href="class_p4_1_1_util_1_1_p4_c_exception_base.html" target="_top" xlink:title=" ">
<polygon fill="white" stroke="#666666" points="271,-74 122,-74 122,-55 271,-55 271,-74"/>
<text text-anchor="middle" x="196.5" y="-62" font-family="Helvetica,sans-Serif" font-size="10.00">P4::Util::P4CExceptionBase</text>
</a>
</g>
</g>
<!-- Node0&#45;&gt;Node1 -->
<g id="edge1174_Node000000_Node000001" class="edge">
<title>Node0&#45;&gt;Node1</title>
<g id="a_edge1174_Node000000_Node000001"><a xlink:title=" ">
<path fill="none" stroke="#63b8ff" d="M96.39,-64.5C104.63,-64.5 113.29,-64.5 121.9,-64.5"/>
<polygon fill="#63b8ff" stroke="#63b8ff" points="96.2,-61 86.2,-64.5 96.2,-68 96.2,-61"/>
</a>
</g>
</g>
<!-- Node2 -->
<g id="Node000002" class="node">
<title>Node2</title>
<g id="a_Node000002"><a xlink:href="class_p4_1_1_p4_tools_1_1_p4_testgen_1_1_testgen_unimplemented.html" target="_top" xlink:title=" ">
<polygon fill="white" stroke="#666666" points="467,-141.5 328,-141.5 328,-111.5 467,-111.5 467,-141.5"/>
<text text-anchor="start" x="336" y="-129.5" font-family="Helvetica,sans-Serif" font-size="10.00">P4::P4Tools::P4Testgen</text>
<text text-anchor="middle" x="397.5" y="-118.5" font-family="Helvetica,sans-Serif" font-size="10.00">::TestgenUnimplemented</text>
</a>
</g>
</g>
<!-- Node1&#45;&gt;Node2 -->
<g id="edge1175_Node000001_Node000002" class="edge">
<title>Node1&#45;&gt;Node2</title>
<g id="a_edge1175_Node000001_Node000002"><a xlink:title=" ">
<path fill="none" stroke="#63b8ff" d="M233.04,-77.56C254.36,-85.22 282.09,-94.85 307,-102.5 317,-105.57 327.69,-108.63 338.07,-111.48"/>
<polygon fill="#63b8ff" stroke="#63b8ff" points="234.03,-74.2 223.43,-74.09 231.65,-80.78 234.03,-74.2"/>
</a>
</g>
</g>
<!-- Node3 -->
<g id="Node000003" class="node">
<title>Node3</title>
<g id="a_Node000003"><a xlink:href="class_p4_1_1_util_1_1_compilation_error.html" target="_top" xlink:title=" ">
<polygon fill="white" stroke="#666666" points="467.5,-93 327.5,-93 327.5,-74 467.5,-74 467.5,-93"/>
<text text-anchor="middle" x="397.5" y="-81" font-family="Helvetica,sans-Serif" font-size="10.00">P4::Util::CompilationError</text>
</a>
</g>
</g>
<!-- Node1&#45;&gt;Node3 -->
<g id="edge1176_Node000001_Node000003" class="edge">
<title>Node1&#45;&gt;Node3</title>
<g id="a_edge1176_Node000001_Node000003"><a xlink:title=" ">
<path fill="none" stroke="#63b8ff" d="M281.05,-72.48C296.43,-73.95 312.33,-75.46 327.23,-76.89"/>
<polygon fill="#63b8ff" stroke="#63b8ff" points="281.32,-68.99 271.03,-71.52 280.66,-75.96 281.32,-68.99"/>
</a>
</g>
</g>
<!-- Node4 -->
<g id="Node000004" class="node">
<title>Node4</title>
<g id="a_Node000004"><a xlink:href="class_p4_1_1_util_1_1_compiler_bug.html" target="_top" xlink:title="This class indicates a bug in the compiler.">
<polygon fill="white" stroke="#666666" points="458,-56 337,-56 337,-37 458,-37 458,-56"/>
<text text-anchor="middle" x="397.5" y="-44" font-family="Helvetica,sans-Serif" font-size="10.00">P4::Util::CompilerBug</text>
</a>
</g>
</g>
<!-- Node1&#45;&gt;Node4 -->
<g id="edge1177_Node000001_Node000004" class="edge">
<title>Node1&#45;&gt;Node4</title>
<g id="a_edge1177_Node000001_Node000004"><a xlink:title=" ">
<path fill="none" stroke="#63b8ff" d="M281.06,-56.94C299.82,-55.24 319.36,-53.48 336.92,-51.89"/>
<polygon fill="#63b8ff" stroke="#63b8ff" points="280.68,-53.46 271.03,-57.85 281.31,-60.43 280.68,-53.46"/>
</a>
</g>
</g>
<!-- Node5 -->
<g id="Node000005" class="node">
<title>Node5</title>
<g id="a_Node000005"><a xlink:href="class_p4_1_1_util_1_1_compiler_unimplemented.html" target="_top" xlink:title="This class indicates an unimplemented feature in the compiler.">
<polygon fill="white" stroke="#666666" points="488,-19 307,-19 307,0 488,0 488,-19"/>
<text text-anchor="middle" x="397.5" y="-7" font-family="Helvetica,sans-Serif" font-size="10.00">P4::Util::CompilerUnimplemented</text>
</a>
</g>
</g>
<!-- Node1&#45;&gt;Node5 -->
<g id="edge1178_Node000001_Node000005" class="edge">
<title>Node1&#45;&gt;Node5</title>
<g id="a_edge1178_Node000001_Node000005"><a xlink:title=" ">
<path fill="none" stroke="#63b8ff" d="M233.39,-51.61C254.62,-44.26 282.15,-35.2 307,-28.5 319.88,-25.03 333.95,-21.79 347.03,-19"/>
<polygon fill="#63b8ff" stroke="#63b8ff" points="232.09,-48.36 223.81,-54.96 234.4,-54.96 232.09,-48.36"/>
</a>
</g>
</g>
</g>
</svg>
