<?xml version="1.0" encoding="UTF-8" standalone="no"?>
<!DOCTYPE svg PUBLIC "-//W3C//DTD SVG 1.1//EN"
 "http://www.w3.org/Graphics/SVG/1.1/DTD/svg11.dtd">
<!-- Generated by graphviz version 2.43.0 (0)
 -->
<!-- Title: Graphical Class Hierarchy Pages: 1 -->
<svg width="287pt" height="64pt"
 viewBox="0.00 0.00 287.00 64.00" xmlns="http://www.w3.org/2000/svg" xmlns:xlink="http://www.w3.org/1999/xlink">
<g id="graph0" class="graph" transform="scale(1 1) rotate(0) translate(4 60)">
<title>Graphical Class Hierarchy</title>
<!-- Node0 -->
<g id="Node000000" class="node">
<title>Node0</title>
<g id="a_Node000000"><a xlink:href="class_p4_1_1_abstract_parser_driver.html" target="_top" xlink:title=" ">
<polygon fill="white" stroke="#666666" points="135,-37 0,-37 0,-18 135,-18 135,-37"/>
<text text-anchor="middle" x="67.5" y="-25" font-family="Helvetica,sans-Serif" font-size="10.00">P4::AbstractParserDriver</text>
</a>
</g>
</g>
<!-- Node1 -->
<g id="Node000001" class="node">
<title>Node1</title>
<g id="a_Node000001"><a xlink:href="class_p4_1_1_p4_parser_driver.html" target="_top" xlink:title="A ParserDriver that can parse P4&#45;16 programs.">
<polygon fill="white" stroke="#666666" points="278.5,-56 171.5,-56 171.5,-37 278.5,-37 278.5,-56"/>
<text text-anchor="middle" x="225" y="-44" font-family="Helvetica,sans-Serif" font-size="10.00">P4::P4ParserDriver</text>
</a>
</g>
</g>
<!-- Node0&#45;&gt;Node1 -->
<g id="edge968_Node000000_Node000001" class="edge">
<title>Node0&#45;&gt;Node1</title>
<g id="a_edge968_Node000000_Node000001"><a xlink:title=" ">
<path fill="none" stroke="#63b8ff" d="M145.55,-36.91C154.26,-37.98 162.99,-39.05 171.29,-40.06"/>
<polygon fill="#63b8ff" stroke="#63b8ff" points="145.7,-33.41 135.35,-35.67 144.85,-40.36 145.7,-33.41"/>
</a>
</g>
</g>
<!-- Node2 -->
<g id="Node000002" class="node">
<title>Node2</title>
<g id="a_Node000002"><a xlink:href="class_v1_1_1_v1_parser_driver.html" target="_top" xlink:title="A ParserDriver that can parse P4&#45;14 programs.">
<polygon fill="white" stroke="#666666" points="279,-19 171,-19 171,0 279,0 279,-19"/>
<text text-anchor="middle" x="225" y="-7" font-family="Helvetica,sans-Serif" font-size="10.00">V1::V1ParserDriver</text>
</a>
</g>
</g>
<!-- Node0&#45;&gt;Node2 -->
<g id="edge969_Node000000_Node000002" class="edge">
<title>Node0&#45;&gt;Node2</title>
<g id="a_edge969_Node000000_Node000002"><a xlink:title=" ">
<path fill="none" stroke="#63b8ff" d="M145.41,-18.6C154,-17.6 162.61,-16.61 170.81,-15.66"/>
<polygon fill="#63b8ff" stroke="#63b8ff" points="144.88,-15.14 135.35,-19.76 145.68,-22.09 144.88,-15.14"/>
</a>
</g>
</g>
</g>
</svg>
