<?xml version="1.0" encoding="UTF-8" standalone="no"?>
<!DOCTYPE svg PUBLIC "-//W3C//DTD SVG 1.1//EN"
 "http://www.w3.org/Graphics/SVG/1.1/DTD/svg11.dtd">
<!-- Generated by graphviz version 2.43.0 (0)
 -->
<!-- Title: Graphical Class Hierarchy Pages: 1 -->
<svg width="382pt" height="86pt"
 viewBox="0.00 0.00 382.00 86.00" xmlns="http://www.w3.org/2000/svg" xmlns:xlink="http://www.w3.org/1999/xlink">
<g id="graph0" class="graph" transform="scale(1 1) rotate(0) translate(4 82)">
<title>Graphical Class Hierarchy</title>
<!-- Node0 -->
<g id="Node000000" class="node">
<title>Node0</title>
<g id="a_Node000000"><a xlink:href="class_p4_1_1_e_b_p_f_1_1_e_b_p_f_hash_algorithm_type_factory_p_s_a.html" target="_top" xlink:title=" ">
<polygon fill="white" stroke="#666666" points="162,-54 0,-54 0,-24 162,-24 162,-54"/>
<text text-anchor="start" x="8" y="-42" font-family="Helvetica,sans-Serif" font-size="10.00">P4::EBPF::EBPFHashAlgorithm</text>
<text text-anchor="middle" x="81" y="-31" font-family="Helvetica,sans-Serif" font-size="10.00">TypeFactoryPSA</text>
</a>
</g>
</g>
<!-- Node1 -->
<g id="Node000001" class="node">
<title>Node1</title>
<g id="a_Node000001"><a xlink:href="class_p4_1_1_t_c_1_1_e_b_p_f_checksum_algorithm_type_factory_p_n_a.html" target="_top" xlink:title=" ">
<polygon fill="white" stroke="#666666" points="374,-78 198,-78 198,-48 374,-48 374,-78"/>
<text text-anchor="start" x="206" y="-66" font-family="Helvetica,sans-Serif" font-size="10.00">P4::TC::EBPFChecksumAlgorithm</text>
<text text-anchor="middle" x="286" y="-55" font-family="Helvetica,sans-Serif" font-size="10.00">TypeFactoryPNA</text>
</a>
</g>
</g>
<!-- Node0&#45;&gt;Node1 -->
<g id="edge2375_Node000000_Node000001" class="edge">
<title>Node0&#45;&gt;Node1</title>
<g id="a_edge2375_Node000000_Node000001"><a xlink:title=" ">
<path fill="none" stroke="#63b8ff" d="M172.22,-49.67C180.79,-50.68 189.46,-51.71 198,-52.71"/>
<polygon fill="#63b8ff" stroke="#63b8ff" points="172.57,-46.18 162.23,-48.49 171.75,-53.14 172.57,-46.18"/>
</a>
</g>
</g>
<!-- Node2 -->
<g id="Node000002" class="node">
<title>Node2</title>
<g id="a_Node000002"><a xlink:href="class_p4_1_1_t_c_1_1_e_b_p_f_hash_algorithm_type_factory_p_n_a.html" target="_top" xlink:title=" ">
<polygon fill="white" stroke="#666666" points="361,-30 211,-30 211,0 361,0 361,-30"/>
<text text-anchor="start" x="219" y="-18" font-family="Helvetica,sans-Serif" font-size="10.00">P4::TC::EBPFHashAlgorithm</text>
<text text-anchor="middle" x="286" y="-7" font-family="Helvetica,sans-Serif" font-size="10.00">TypeFactoryPNA</text>
</a>
</g>
</g>
<!-- Node0&#45;&gt;Node2 -->
<g id="edge2376_Node000000_Node000002" class="edge">
<title>Node0&#45;&gt;Node2</title>
<g id="a_edge2376_Node000000_Node000002"><a xlink:title=" ">
<path fill="none" stroke="#63b8ff" d="M172.48,-28.3C185.35,-26.78 198.46,-25.23 210.96,-23.75"/>
<polygon fill="#63b8ff" stroke="#63b8ff" points="171.75,-24.86 162.23,-29.51 172.57,-31.82 171.75,-24.86"/>
</a>
</g>
</g>
</g>
</svg>
