<?xml version="1.0" encoding="UTF-8" standalone="no"?>
<!DOCTYPE svg PUBLIC "-//W3C//DTD SVG 1.1//EN"
 "http://www.w3.org/Graphics/SVG/1.1/DTD/svg11.dtd">
<!-- Generated by graphviz version 2.43.0 (0)
 -->
<!-- Title: Graphical Class Hierarchy Pages: 1 -->
<svg width="513pt" height="104pt"
 viewBox="0.00 0.00 513.00 104.00" xmlns="http://www.w3.org/2000/svg" xmlns:xlink="http://www.w3.org/1999/xlink">
<g id="graph0" class="graph" transform="scale(1 1) rotate(0) translate(4 100)">
<title>Graphical Class Hierarchy</title>
<polygon fill="white" stroke="transparent" points="-4,4 -4,-100 509,-100 509,4 -4,4"/>
<!-- Node0 -->
<g id="node1" class="node">
<title>Node0</title>
<g id="a_node1"><a xlink:href="class_b_m_v2_1_1_program_structure.html" target="_top" xlink:title=" ">
<polygon fill="white" stroke="black" points="0,-38.5 0,-57.5 137,-57.5 137,-38.5 0,-38.5"/>
<text text-anchor="middle" x="68.5" y="-45.5" font-family="Helvetica,sans-Serif" font-size="10.00">BMV2::ProgramStructure</text>
</a>
</g>
</g>
<!-- Node1 -->
<g id="node2" class="node">
<title>Node1</title>
<g id="a_node2"><a xlink:href="class_b_m_v2_1_1_psa_program_structure.html" target="_top" xlink:title=" ">
<polygon fill="white" stroke="black" points="173,-76.5 173,-95.5 327,-95.5 327,-76.5 173,-76.5"/>
<text text-anchor="middle" x="250" y="-83.5" font-family="Helvetica,sans-Serif" font-size="10.00">BMV2::PsaProgramStructure</text>
</a>
</g>
</g>
<!-- Node0&#45;&gt;Node1 -->
<g id="edge1" class="edge">
<title>Node0&#45;&gt;Node1</title>
<path fill="none" stroke="midnightblue" d="M124.68,-59.68C150.13,-65.07 179.97,-71.39 204.03,-76.48"/>
<polygon fill="midnightblue" stroke="midnightblue" points="125.3,-56.24 114.8,-57.59 123.85,-63.08 125.3,-56.24"/>
</g>
<!-- Node3 -->
<g id="node4" class="node">
<title>Node3</title>
<g id="a_node4"><a xlink:href="class_b_m_v2_1_1_v1_program_structure.html" target="_top" xlink:title=" ">
<polygon fill="white" stroke="black" points="175.5,-38.5 175.5,-57.5 324.5,-57.5 324.5,-38.5 175.5,-38.5"/>
<text text-anchor="middle" x="250" y="-45.5" font-family="Helvetica,sans-Serif" font-size="10.00">BMV2::V1ProgramStructure</text>
</a>
</g>
</g>
<!-- Node0&#45;&gt;Node3 -->
<g id="edge3" class="edge">
<title>Node0&#45;&gt;Node3</title>
<path fill="none" stroke="midnightblue" d="M147.19,-48C156.57,-48 166.13,-48 175.45,-48"/>
<polygon fill="midnightblue" stroke="midnightblue" points="147.11,-44.5 137.11,-48 147.11,-51.5 147.11,-44.5"/>
</g>
<!-- Node4 -->
<g id="node5" class="node">
<title>Node4</title>
<g id="a_node5"><a xlink:href="class_t_c_1_1_pna_program_structure.html" target="_top" xlink:title=" ">
<polygon fill="white" stroke="black" points="181,-0.5 181,-19.5 319,-19.5 319,-0.5 181,-0.5"/>
<text text-anchor="middle" x="250" y="-7.5" font-family="Helvetica,sans-Serif" font-size="10.00">TC::PnaProgramStructure</text>
</a>
</g>
</g>
<!-- Node0&#45;&gt;Node4 -->
<g id="edge4" class="edge">
<title>Node0&#45;&gt;Node4</title>
<path fill="none" stroke="midnightblue" d="M124.68,-36.32C150.13,-30.93 179.97,-24.61 204.03,-19.52"/>
<polygon fill="midnightblue" stroke="midnightblue" points="123.85,-32.92 114.8,-38.41 125.3,-39.76 123.85,-32.92"/>
</g>
<!-- Node2 -->
<g id="node3" class="node">
<title>Node2</title>
<g id="a_node3"><a xlink:href="class_b_m_v2_1_1_psa_code_generator.html" target="_top" xlink:title=" ">
<polygon fill="white" stroke="black" points="363,-76.5 363,-95.5 505,-95.5 505,-76.5 363,-76.5"/>
<text text-anchor="middle" x="434" y="-83.5" font-family="Helvetica,sans-Serif" font-size="10.00">BMV2::PsaCodeGenerator</text>
</a>
</g>
</g>
<!-- Node1&#45;&gt;Node2 -->
<g id="edge2" class="edge">
<title>Node1&#45;&gt;Node2</title>
<path fill="none" stroke="midnightblue" d="M337.22,-86C345.85,-86 354.55,-86 362.98,-86"/>
<polygon fill="midnightblue" stroke="midnightblue" points="337.13,-82.5 327.13,-86 337.13,-89.5 337.13,-82.5"/>
</g>
</g>
</svg>
