<?xml version="1.0" encoding="UTF-8" standalone="no"?>
<!DOCTYPE svg PUBLIC "-//W3C//DTD SVG 1.1//EN"
 "http://www.w3.org/Graphics/SVG/1.1/DTD/svg11.dtd">
<!-- Generated by graphviz version 2.43.0 (0)
 -->
<!-- Title: Graphical Class Hierarchy Pages: 1 -->
<svg width="300pt" height="86pt"
 viewBox="0.00 0.00 300.00 86.00" xmlns="http://www.w3.org/2000/svg" xmlns:xlink="http://www.w3.org/1999/xlink">
<g id="graph0" class="graph" transform="scale(1 1) rotate(0) translate(4 82)">
<title>Graphical Class Hierarchy</title>
<!-- Node0 -->
<g id="Node000000" class="node">
<title>Node0</title>
<g id="a_Node000000"><a xlink:title=" ">
<polygon fill="#e0e0e0" stroke="#999999" points="119,-48.5 0,-48.5 0,-29.5 119,-29.5 119,-48.5"/>
<text text-anchor="middle" x="59.5" y="-36.5" font-family="Helvetica,sans-Serif" font-size="10.00">std::basic_streambuf</text>
</a>
</g>
</g>
<!-- Node1 -->
<g id="Node000001" class="node">
<title>Node1</title>
<g id="a_Node000001"><a xlink:href="classbasic__nullbuf.html" target="_top" xlink:title=" ">
<polygon fill="white" stroke="#666666" points="292,-78 155,-78 155,-48 292,-48 292,-78"/>
<text text-anchor="start" x="163" y="-66" font-family="Helvetica,sans-Serif" font-size="10.00">basic_nullbuf&lt; cT,</text>
<text text-anchor="middle" x="223.5" y="-55" font-family="Helvetica,sans-Serif" font-size="10.00"> std::char_traits&lt; cT &gt; &gt;</text>
</a>
</g>
</g>
<!-- Node0&#45;&gt;Node1 -->
<g id="edge1069_Node000000_Node000001" class="edge">
<title>Node0&#45;&gt;Node1</title>
<g id="a_edge1069_Node000000_Node000001"><a xlink:title=" ">
<path fill="none" stroke="#63b8ff" d="M129.54,-49.23C137.91,-50.47 146.46,-51.73 154.81,-52.97"/>
<polygon fill="#63b8ff" stroke="#63b8ff" points="129.85,-45.74 119.44,-47.73 128.82,-52.66 129.85,-45.74"/>
</a>
</g>
</g>
<!-- Node2 -->
<g id="Node000002" class="node">
<title>Node2</title>
<g id="a_Node000002"><a xlink:href="classbasic__nullbuf.html" target="_top" xlink:title=" ">
<polygon fill="white" stroke="#666666" points="277,-30 170,-30 170,0 277,0 277,-30"/>
<text text-anchor="start" x="178" y="-18" font-family="Helvetica,sans-Serif" font-size="10.00">basic_nullbuf&lt; cT,</text>
<text text-anchor="middle" x="223.5" y="-7" font-family="Helvetica,sans-Serif" font-size="10.00"> traits &gt;</text>
</a>
</g>
</g>
<!-- Node0&#45;&gt;Node2 -->
<g id="edge1070_Node000000_Node000002" class="edge">
<title>Node0&#45;&gt;Node2</title>
<g id="a_edge1070_Node000000_Node000002"><a xlink:title=" ">
<path fill="none" stroke="#63b8ff" d="M129.62,-28.76C143.06,-26.77 156.96,-24.71 169.77,-22.81"/>
<polygon fill="#63b8ff" stroke="#63b8ff" points="128.82,-25.34 119.44,-30.27 129.85,-32.26 128.82,-25.34"/>
</a>
</g>
</g>
</g>
</svg>
