<?xml version="1.0" encoding="UTF-8" standalone="no"?>
<!DOCTYPE svg PUBLIC "-//W3C//DTD SVG 1.1//EN"
 "http://www.w3.org/Graphics/SVG/1.1/DTD/svg11.dtd">
<!-- Generated by graphviz version 2.43.0 (0)
 -->
<!-- Title: P4V1::CounterOrMeter_Model Pages: 1 -->
<svg width="723pt" height="150pt"
 viewBox="0.00 0.00 723.00 150.00" xmlns="http://www.w3.org/2000/svg" xmlns:xlink="http://www.w3.org/1999/xlink">
<g id="graph0" class="graph" transform="scale(1 1) rotate(0) translate(4 146)">
<title>P4V1::CounterOrMeter_Model</title>
<!-- Node1 -->
<g id="Node000001" class="node">
<title>Node1</title>
<g id="a_Node000001"><a xlink:title=" ">
<polygon fill="#999999" stroke="#666666" points="539,-82.5 414,-82.5 414,-52.5 539,-52.5 539,-82.5"/>
<text text-anchor="start" x="422" y="-70.5" font-family="Helvetica,sans-Serif" font-size="10.00">P4V1::CounterOrMeter</text>
<text text-anchor="middle" x="476.5" y="-59.5" font-family="Helvetica,sans-Serif" font-size="10.00">_Model</text>
</a>
</g>
</g>
<!-- Node5 -->
<g id="Node000005" class="node">
<title>Node5</title>
<g id="a_Node000005"><a xlink:href="struct_p4_v1_1_1_counter___model.html" target="_top" xlink:title=" ">
<polygon fill="white" stroke="#bfbfbf" points="705.5,-142 584.5,-142 584.5,-123 705.5,-123 705.5,-142"/>
<text text-anchor="middle" x="645" y="-130" font-family="Helvetica,sans-Serif" font-size="10.00">P4V1::Counter_Model</text>
</a>
</g>
</g>
<!-- Node1&#45;&gt;Node5 -->
<g id="edge4_Node000001_Node000005" class="edge">
<title>Node1&#45;&gt;Node5</title>
<g id="a_edge4_Node000001_Node000005"><a xlink:title=" ">
<path fill="none" stroke="#63b8ff" d="M514.91,-87C532.78,-95.84 554.67,-105.97 575,-113.5 584.44,-117 594.81,-120.18 604.58,-122.9"/>
<polygon fill="#63b8ff" stroke="#63b8ff" points="516.46,-83.87 505.95,-82.52 513.33,-90.12 516.46,-83.87"/>
</a>
</g>
</g>
<!-- Node6 -->
<g id="Node000006" class="node">
<title>Node6</title>
<g id="a_Node000006"><a xlink:href="struct_p4_v1_1_1_direct_counter___model.html" target="_top" xlink:title=" ">
<polygon fill="white" stroke="#bfbfbf" points="702.5,-104.5 587.5,-104.5 587.5,-74.5 702.5,-74.5 702.5,-104.5"/>
<text text-anchor="start" x="595.5" y="-92.5" font-family="Helvetica,sans-Serif" font-size="10.00">P4V1::DirectCounter</text>
<text text-anchor="middle" x="645" y="-81.5" font-family="Helvetica,sans-Serif" font-size="10.00">_Model</text>
</a>
</g>
</g>
<!-- Node1&#45;&gt;Node6 -->
<g id="edge5_Node000001_Node000006" class="edge">
<title>Node1&#45;&gt;Node6</title>
<g id="a_edge5_Node000001_Node000006"><a xlink:title=" ">
<path fill="none" stroke="#63b8ff" d="M549.18,-76.97C561.96,-78.66 575.12,-80.4 587.41,-82.02"/>
<polygon fill="#63b8ff" stroke="#63b8ff" points="549.4,-73.47 539.03,-75.63 548.48,-80.41 549.4,-73.47"/>
</a>
</g>
</g>
<!-- Node7 -->
<g id="Node000007" class="node">
<title>Node7</title>
<g id="a_Node000007"><a xlink:href="struct_p4_v1_1_1_direct_meter___model.html" target="_top" xlink:title=" ">
<polygon fill="white" stroke="#bfbfbf" points="715,-56 575,-56 575,-37 715,-37 715,-56"/>
<text text-anchor="middle" x="645" y="-44" font-family="Helvetica,sans-Serif" font-size="10.00">P4V1::DirectMeter_Model</text>
</a>
</g>
</g>
<!-- Node1&#45;&gt;Node7 -->
<g id="edge6_Node000001_Node000007" class="edge">
<title>Node1&#45;&gt;Node7</title>
<g id="a_edge6_Node000001_Node000007"><a xlink:title=" ">
<path fill="none" stroke="#63b8ff" d="M549,-58.48C557.58,-57.4 566.33,-56.3 574.87,-55.22"/>
<polygon fill="#63b8ff" stroke="#63b8ff" points="548.51,-55.02 539.03,-59.74 549.38,-61.96 548.51,-55.02"/>
</a>
</g>
</g>
<!-- Node8 -->
<g id="Node000008" class="node">
<title>Node8</title>
<g id="a_Node000008"><a xlink:href="struct_p4_v1_1_1_meter___model.html" target="_top" xlink:title=" ">
<polygon fill="white" stroke="#bfbfbf" points="700.5,-19 589.5,-19 589.5,0 700.5,0 700.5,-19"/>
<text text-anchor="middle" x="645" y="-7" font-family="Helvetica,sans-Serif" font-size="10.00">P4V1::Meter_Model</text>
</a>
</g>
</g>
<!-- Node1&#45;&gt;Node8 -->
<g id="edge7_Node000001_Node000008" class="edge">
<title>Node1&#45;&gt;Node8</title>
<g id="a_edge7_Node000001_Node000008"><a xlink:title=" ">
<path fill="none" stroke="#63b8ff" d="M520.47,-48.41C537.29,-41.33 556.87,-33.55 575,-27.5 584.16,-24.44 594.14,-21.58 603.6,-19.07"/>
<polygon fill="#63b8ff" stroke="#63b8ff" points="518.75,-45.35 510.92,-52.49 521.49,-51.78 518.75,-45.35"/>
</a>
</g>
</g>
<!-- Node2 -->
<g id="Node000002" class="node">
<title>Node2</title>
<g id="a_Node000002"><a xlink:href="struct_model_1_1_extern___model.html" target="_top" xlink:title="Extern_Model : Type_Model.">
<polygon fill="white" stroke="#666666" points="378,-77 259,-77 259,-58 378,-58 378,-77"/>
<text text-anchor="middle" x="318.5" y="-65" font-family="Helvetica,sans-Serif" font-size="10.00">Model::Extern_Model</text>
</a>
</g>
</g>
<!-- Node2&#45;&gt;Node1 -->
<g id="edge1_Node000001_Node000002" class="edge">
<title>Node2&#45;&gt;Node1</title>
<g id="a_edge1_Node000001_Node000002"><a xlink:title=" ">
<path fill="none" stroke="#63b8ff" d="M388.28,-67.5C396.77,-67.5 405.4,-67.5 413.77,-67.5"/>
<polygon fill="#63b8ff" stroke="#63b8ff" points="388.03,-64 378.03,-67.5 388.03,-71 388.03,-64"/>
</a>
</g>
</g>
<!-- Node3 -->
<g id="Node000003" class="node">
<title>Node3</title>
<g id="a_Node000003"><a xlink:href="struct_model_1_1_type___model.html" target="_top" xlink:title=" ">
<polygon fill="white" stroke="#bfbfbf" points="223,-77 113,-77 113,-58 223,-58 223,-77"/>
<text text-anchor="middle" x="168" y="-65" font-family="Helvetica,sans-Serif" font-size="10.00">Model::Type_Model</text>
</a>
</g>
</g>
<!-- Node3&#45;&gt;Node2 -->
<g id="edge2_Node000002_Node000003" class="edge">
<title>Node3&#45;&gt;Node2</title>
<g id="a_edge2_Node000002_Node000003"><a xlink:title=" ">
<path fill="none" stroke="#63b8ff" d="M233.04,-67.5C241.67,-67.5 250.48,-67.5 259,-67.5"/>
<polygon fill="#63b8ff" stroke="#63b8ff" points="233.03,-64 223.03,-67.5 233.03,-71 233.03,-64"/>
</a>
</g>
</g>
<!-- Node4 -->
<g id="Node000004" class="node">
<title>Node4</title>
<g id="a_Node000004"><a xlink:href="struct_model_1_1_elem.html" target="_top" xlink:title=" ">
<polygon fill="white" stroke="#bfbfbf" points="77,-77 0,-77 0,-58 77,-58 77,-77"/>
<text text-anchor="middle" x="38.5" y="-65" font-family="Helvetica,sans-Serif" font-size="10.00">Model::Elem</text>
</a>
</g>
</g>
<!-- Node4&#45;&gt;Node3 -->
<g id="edge3_Node000003_Node000004" class="edge">
<title>Node4&#45;&gt;Node3</title>
<g id="a_edge3_Node000003_Node000004"><a xlink:title=" ">
<path fill="none" stroke="#63b8ff" d="M87.31,-67.5C95.59,-67.5 104.26,-67.5 112.7,-67.5"/>
<polygon fill="#63b8ff" stroke="#63b8ff" points="87.06,-64 77.06,-67.5 87.06,-71 87.06,-64"/>
</a>
</g>
</g>
</g>
</svg>
