<?xml version="1.0" encoding="UTF-8" standalone="no"?>
<!DOCTYPE svg PUBLIC "-//W3C//DTD SVG 1.1//EN"
 "http://www.w3.org/Graphics/SVG/1.1/DTD/svg11.dtd">
<!-- Generated by graphviz version 2.43.0 (0)
 -->
<!-- Title: BFN::CollectBridgedFields Pages: 1 -->
<svg width="361pt" height="137pt"
 viewBox="0.00 0.00 360.50 137.00" xmlns="http://www.w3.org/2000/svg" xmlns:xlink="http://www.w3.org/1999/xlink">
<g id="graph0" class="graph" transform="scale(1 1) rotate(0) translate(4 133)">
<title>BFN::CollectBridgedFields</title>
<!-- Node1 -->
<g id="Node000001" class="node">
<title>Node1</title>
<g id="a_Node000001"><a xlink:title=" ">
<polygon fill="#999999" stroke="#666666" points="232.5,-19 89.5,-19 89.5,0 232.5,0 232.5,-19"/>
<text text-anchor="middle" x="161" y="-7" font-family="Helvetica,sans-Serif" font-size="10.00">BFN::CollectBridgedFields</text>
</a>
</g>
</g>
<!-- Node2 -->
<g id="Node000002" class="node">
<title>Node2</title>
<g id="a_Node000002"><a xlink:href="class_p4_1_1_inspector.html" target="_top" xlink:title=" ">
<polygon fill="white" stroke="#bfbfbf" points="80,-74 0,-74 0,-55 80,-55 80,-74"/>
<text text-anchor="middle" x="40" y="-62" font-family="Helvetica,sans-Serif" font-size="10.00">P4::Inspector</text>
</a>
</g>
</g>
<!-- Node2&#45;&gt;Node1 -->
<g id="edge1_Node000001_Node000002" class="edge">
<title>Node2&#45;&gt;Node1</title>
<g id="a_edge1_Node000001_Node000002"><a xlink:title=" ">
<path fill="none" stroke="#63b8ff" d="M68.77,-50.9C91.12,-41.11 121.52,-27.79 141.21,-19.17"/>
<polygon fill="#63b8ff" stroke="#63b8ff" points="67.2,-47.77 59.44,-54.98 70,-54.18 67.2,-47.77"/>
</a>
</g>
</g>
<!-- Node3 -->
<g id="Node000003" class="node">
<title>Node3</title>
<g id="a_Node000003"><a xlink:href="class_p4_1_1_visitor.html" target="_top" xlink:title=" ">
<polygon fill="white" stroke="#bfbfbf" points="194,-129 128,-129 128,-110 194,-110 194,-129"/>
<text text-anchor="middle" x="161" y="-117" font-family="Helvetica,sans-Serif" font-size="10.00">P4::Visitor</text>
</a>
</g>
</g>
<!-- Node3&#45;&gt;Node2 -->
<g id="edge2_Node000002_Node000003" class="edge">
<title>Node3&#45;&gt;Node2</title>
<g id="a_edge2_Node000002_Node000003"><a xlink:title=" ">
<path fill="none" stroke="#63b8ff" d="M132.23,-105.9C109.88,-96.11 79.48,-82.79 59.79,-74.17"/>
<polygon fill="#63b8ff" stroke="#63b8ff" points="131,-109.18 141.56,-109.98 133.8,-102.77 131,-109.18"/>
</a>
</g>
</g>
<!-- Node4 -->
<g id="Node000004" class="node">
<title>Node4</title>
<g id="a_Node000004"><a xlink:href="class_p4_1_1_control_flow_visitor.html" target="_top" xlink:title=" ">
<polygon fill="white" stroke="#bfbfbf" points="223.5,-74 98.5,-74 98.5,-55 223.5,-55 223.5,-74"/>
<text text-anchor="middle" x="161" y="-62" font-family="Helvetica,sans-Serif" font-size="10.00">P4::ControlFlowVisitor</text>
</a>
</g>
</g>
<!-- Node3&#45;&gt;Node4 -->
<g id="edge4_Node000004_Node000003" class="edge">
<title>Node3&#45;&gt;Node4</title>
<g id="a_edge4_Node000004_Node000003"><a xlink:title=" ">
<path fill="none" stroke="#63b8ff" d="M161,-99.66C161,-90.93 161,-80.99 161,-74.09"/>
<polygon fill="#63b8ff" stroke="#63b8ff" points="157.5,-99.75 161,-109.75 164.5,-99.75 157.5,-99.75"/>
</a>
</g>
</g>
<!-- Node5 -->
<g id="Node000005" class="node">
<title>Node5</title>
<g id="a_Node000005"><a xlink:href="class_p4_1_1_p4_write_context.html" target="_top" xlink:title=" ">
<polygon fill="white" stroke="#bfbfbf" points="352.5,-74 241.5,-74 241.5,-55 352.5,-55 352.5,-74"/>
<text text-anchor="middle" x="297" y="-62" font-family="Helvetica,sans-Serif" font-size="10.00">P4::P4WriteContext</text>
</a>
</g>
</g>
<!-- Node3&#45;&gt;Node5 -->
<g id="edge6_Node000005_Node000003" class="edge">
<title>Node3&#45;&gt;Node5</title>
<g id="a_edge6_Node000005_Node000003"><a xlink:title=" ">
<path fill="none" stroke="#63b8ff" d="M192.33,-106.29C217.54,-96.47 252.33,-82.91 274.75,-74.17"/>
<polygon fill="#63b8ff" stroke="#63b8ff" points="190.9,-103.09 182.85,-109.98 193.44,-109.61 190.9,-103.09"/>
</a>
</g>
</g>
<!-- Node4&#45;&gt;Node1 -->
<g id="edge3_Node000001_Node000004" class="edge">
<title>Node4&#45;&gt;Node1</title>
<g id="a_edge3_Node000001_Node000004"><a xlink:title=" ">
<path fill="none" stroke="darkgreen" d="M161,-44.66C161,-35.93 161,-25.99 161,-19.09"/>
<polygon fill="darkgreen" stroke="darkgreen" points="157.5,-44.75 161,-54.75 164.5,-44.75 157.5,-44.75"/>
</a>
</g>
</g>
<!-- Node5&#45;&gt;Node1 -->
<g id="edge5_Node000001_Node000005" class="edge">
<title>Node5&#45;&gt;Node1</title>
<g id="a_edge5_Node000001_Node000005"><a xlink:title=" ">
<path fill="none" stroke="darkgreen" d="M265.67,-51.29C240.46,-41.47 205.67,-27.91 183.25,-19.17"/>
<polygon fill="darkgreen" stroke="darkgreen" points="264.56,-54.61 275.15,-54.98 267.1,-48.09 264.56,-54.61"/>
</a>
</g>
</g>
</g>
</svg>
