<?xml version="1.0" encoding="UTF-8" standalone="no"?>
<!DOCTYPE svg PUBLIC "-//W3C//DTD SVG 1.1//EN"
 "http://www.w3.org/Graphics/SVG/1.1/DTD/svg11.dtd">
<!-- Generated by graphviz version 2.43.0 (0)
 -->
<!-- Title: Model::Type_Model Pages: 1 -->
<svg width="782pt" height="645pt"
 viewBox="0.00 0.00 782.00 645.00" xmlns="http://www.w3.org/2000/svg" xmlns:xlink="http://www.w3.org/1999/xlink">
<g id="graph0" class="graph" transform="scale(1 1) rotate(0) translate(4 641)">
<title>Model::Type_Model</title>
<polygon fill="white" stroke="transparent" points="-4,4 -4,-641 778,-641 778,4 -4,4"/>
<!-- Node1 -->
<g id="node1" class="node">
<title>Node1</title>
<g id="a_node1"><a xlink:title=" ">
<polygon fill="#bfbfbf" stroke="black" points="113,-232.5 113,-251.5 223,-251.5 223,-232.5 113,-232.5"/>
<text text-anchor="middle" x="168" y="-239.5" font-family="Helvetica,sans-Serif" font-size="10.00">Model::Type_Model</text>
</a>
</g>
</g>
<!-- Node3 -->
<g id="node3" class="node">
<title>Node3</title>
<g id="a_node3"><a xlink:href="struct_model_1_1_enum___model.html" target="_top" xlink:title="Enum_Model : Type_Model.">
<polygon fill="white" stroke="black" points="281,-522.5 281,-541.5 397,-541.5 397,-522.5 281,-522.5"/>
<text text-anchor="middle" x="339" y="-529.5" font-family="Helvetica,sans-Serif" font-size="10.00">Model::Enum_Model</text>
</a>
</g>
</g>
<!-- Node1&#45;&gt;Node3 -->
<g id="edge2" class="edge">
<title>Node1&#45;&gt;Node3</title>
<path fill="none" stroke="midnightblue" d="M179.74,-260.43C212.12,-315.99 308.06,-480.62 332.36,-522.31"/>
<polygon fill="midnightblue" stroke="midnightblue" points="182.68,-258.53 174.62,-251.65 176.63,-262.05 182.68,-258.53"/>
</g>
<!-- Node9 -->
<g id="node9" class="node">
<title>Node9</title>
<g id="a_node9"><a xlink:href="struct_model_1_1_extern___model.html" target="_top" xlink:title="Extern_Model : Type_Model.">
<polygon fill="white" stroke="black" points="279.5,-232.5 279.5,-251.5 398.5,-251.5 398.5,-232.5 279.5,-232.5"/>
<text text-anchor="middle" x="339" y="-239.5" font-family="Helvetica,sans-Serif" font-size="10.00">Model::Extern_Model</text>
</a>
</g>
</g>
<!-- Node1&#45;&gt;Node9 -->
<g id="edge8" class="edge">
<title>Node1&#45;&gt;Node9</title>
<path fill="none" stroke="midnightblue" d="M233.64,-242C248.66,-242 264.57,-242 279.32,-242"/>
<polygon fill="midnightblue" stroke="midnightblue" points="233.4,-238.5 223.4,-242 233.4,-245.5 233.4,-238.5"/>
</g>
<!-- Node25 -->
<g id="node25" class="node">
<title>Node25</title>
<g id="a_node25"><a xlink:href="struct_p4_v1_1_1_standard_metadata_type___model.html" target="_top" xlink:title=" ">
<polygon fill="white" stroke="black" points="259,-183 259,-213 419,-213 419,-183 259,-183"/>
<text text-anchor="start" x="267" y="-201" font-family="Helvetica,sans-Serif" font-size="10.00">P4V1::StandardMetadataType</text>
<text text-anchor="middle" x="339" y="-190" font-family="Helvetica,sans-Serif" font-size="10.00">_Model</text>
</a>
</g>
</g>
<!-- Node1&#45;&gt;Node25 -->
<g id="edge24" class="edge">
<title>Node1&#45;&gt;Node25</title>
<path fill="none" stroke="midnightblue" d="M215.46,-229.9C235.45,-224.7 259.03,-218.56 280.14,-213.07"/>
<polygon fill="midnightblue" stroke="midnightblue" points="214.47,-226.55 205.67,-232.45 216.23,-233.32 214.47,-226.55"/>
</g>
<!-- Node2 -->
<g id="node2" class="node">
<title>Node2</title>
<g id="a_node2"><a xlink:href="struct_model_1_1_elem.html" target="_top" xlink:title=" ">
<polygon fill="white" stroke="black" points="0,-232.5 0,-251.5 77,-251.5 77,-232.5 0,-232.5"/>
<text text-anchor="middle" x="38.5" y="-239.5" font-family="Helvetica,sans-Serif" font-size="10.00">Model::Elem</text>
</a>
</g>
</g>
<!-- Node2&#45;&gt;Node1 -->
<g id="edge1" class="edge">
<title>Node2&#45;&gt;Node1</title>
<path fill="none" stroke="midnightblue" d="M87.31,-242C95.59,-242 104.26,-242 112.7,-242"/>
<polygon fill="midnightblue" stroke="midnightblue" points="87.06,-238.5 77.06,-242 87.06,-245.5 87.06,-238.5"/>
</g>
<!-- Node4 -->
<g id="node4" class="node">
<title>Node4</title>
<g id="a_node4"><a xlink:href="struct_p4_v1_1_1_algorithm___model.html" target="_top" xlink:title=" ">
<polygon fill="white" stroke="black" points="461,-617.5 461,-636.5 592,-636.5 592,-617.5 461,-617.5"/>
<text text-anchor="middle" x="526.5" y="-624.5" font-family="Helvetica,sans-Serif" font-size="10.00">P4V1::Algorithm_Model</text>
</a>
</g>
</g>
<!-- Node3&#45;&gt;Node4 -->
<g id="edge3" class="edge">
<title>Node3&#45;&gt;Node4</title>
<path fill="none" stroke="midnightblue" d="M359.58,-547.8C381.6,-564.86 418.98,-591.76 455,-608 463.32,-611.75 472.54,-614.9 481.49,-617.48"/>
<polygon fill="midnightblue" stroke="midnightblue" points="361.69,-545.01 351.67,-541.58 357.37,-550.51 361.69,-545.01"/>
</g>
<!-- Node5 -->
<g id="node5" class="node">
<title>Node5</title>
<g id="a_node5"><a xlink:href="struct_p4_v1_1_1_clone_type___model.html" target="_top" xlink:title=" ">
<polygon fill="white" stroke="black" points="460,-579.5 460,-598.5 593,-598.5 593,-579.5 460,-579.5"/>
<text text-anchor="middle" x="526.5" y="-586.5" font-family="Helvetica,sans-Serif" font-size="10.00">P4V1::CloneType_Model</text>
</a>
</g>
</g>
<!-- Node3&#45;&gt;Node5 -->
<g id="edge4" class="edge">
<title>Node3&#45;&gt;Node5</title>
<path fill="none" stroke="midnightblue" d="M377.23,-544.89C399.66,-552.51 428.86,-562.16 455,-570 465.81,-573.24 477.62,-576.52 488.43,-579.43"/>
<polygon fill="midnightblue" stroke="midnightblue" points="378.34,-541.57 367.75,-541.65 376.08,-548.19 378.34,-541.57"/>
</g>
<!-- Node6 -->
<g id="node6" class="node">
<title>Node6</title>
<g id="a_node6"><a xlink:href="struct_p4_v1_1_1_counter_type___model.html" target="_top" xlink:title=" ">
<polygon fill="white" stroke="black" points="455,-541.5 455,-560.5 598,-560.5 598,-541.5 455,-541.5"/>
<text text-anchor="middle" x="526.5" y="-548.5" font-family="Helvetica,sans-Serif" font-size="10.00">P4V1::CounterType_Model</text>
</a>
</g>
</g>
<!-- Node3&#45;&gt;Node6 -->
<g id="edge5" class="edge">
<title>Node3&#45;&gt;Node6</title>
<path fill="none" stroke="midnightblue" d="M407.17,-538.88C422.65,-540.47 439.15,-542.16 454.78,-543.76"/>
<polygon fill="midnightblue" stroke="midnightblue" points="407.47,-535.39 397.17,-537.86 406.76,-542.36 407.47,-535.39"/>
</g>
<!-- Node7 -->
<g id="node7" class="node">
<title>Node7</title>
<g id="a_node7"><a xlink:href="struct_p4_v1_1_1_meter_type___model.html" target="_top" xlink:title=" ">
<polygon fill="white" stroke="black" points="459.5,-503.5 459.5,-522.5 593.5,-522.5 593.5,-503.5 459.5,-503.5"/>
<text text-anchor="middle" x="526.5" y="-510.5" font-family="Helvetica,sans-Serif" font-size="10.00">P4V1::MeterType_Model</text>
</a>
</g>
</g>
<!-- Node3&#45;&gt;Node7 -->
<g id="edge6" class="edge">
<title>Node3&#45;&gt;Node7</title>
<path fill="none" stroke="midnightblue" d="M407.53,-525.08C424.45,-523.35 442.58,-521.49 459.43,-519.77"/>
<polygon fill="midnightblue" stroke="midnightblue" points="406.76,-521.64 397.17,-526.14 407.47,-528.61 406.76,-521.64"/>
</g>
<!-- Node8 -->
<g id="node8" class="node">
<title>Node8</title>
<g id="a_node8"><a xlink:href="struct_u_b_p_f_1_1_algorithm___model.html" target="_top" xlink:title=" ">
<polygon fill="white" stroke="black" points="461,-465.5 461,-484.5 592,-484.5 592,-465.5 461,-465.5"/>
<text text-anchor="middle" x="526.5" y="-472.5" font-family="Helvetica,sans-Serif" font-size="10.00">UBPF::Algorithm_Model</text>
</a>
</g>
</g>
<!-- Node3&#45;&gt;Node8 -->
<g id="edge7" class="edge">
<title>Node3&#45;&gt;Node8</title>
<path fill="none" stroke="midnightblue" d="M377.23,-519.11C399.66,-511.49 428.86,-501.84 455,-494 465.81,-490.76 477.62,-487.48 488.43,-484.57"/>
<polygon fill="midnightblue" stroke="midnightblue" points="376.08,-515.81 367.75,-522.35 378.34,-522.43 376.08,-515.81"/>
</g>
<!-- Node10 -->
<g id="node10" class="node">
<title>Node10</title>
<g id="a_node10"><a xlink:href="struct_e_b_p_f_1_1_counter_array___model.html" target="_top" xlink:title=" ">
<polygon fill="white" stroke="black" points="471,-416 471,-446 582,-446 582,-416 471,-416"/>
<text text-anchor="start" x="479" y="-434" font-family="Helvetica,sans-Serif" font-size="10.00">EBPF::CounterArray</text>
<text text-anchor="middle" x="526.5" y="-423" font-family="Helvetica,sans-Serif" font-size="10.00">_Model</text>
</a>
</g>
</g>
<!-- Node9&#45;&gt;Node10 -->
<g id="edge9" class="edge">
<title>Node9&#45;&gt;Node10</title>
<path fill="none" stroke="midnightblue" d="M348.42,-260.94C364.41,-294.81 402.32,-365.95 455,-406 460.07,-409.85 465.78,-413.14 471.7,-415.95"/>
<polygon fill="midnightblue" stroke="midnightblue" points="351.53,-259.32 344.17,-251.7 345.17,-262.25 351.53,-259.32"/>
</g>
<!-- Node11 -->
<g id="node11" class="node">
<title>Node11</title>
<g id="a_node11"><a xlink:href="struct_e_b_p_f_1_1_table_impl___model.html" target="_top" xlink:title=" ">
<polygon fill="white" stroke="black" points="462,-377.5 462,-396.5 591,-396.5 591,-377.5 462,-377.5"/>
<text text-anchor="middle" x="526.5" y="-384.5" font-family="Helvetica,sans-Serif" font-size="10.00">EBPF::TableImpl_Model</text>
</a>
</g>
</g>
<!-- Node9&#45;&gt;Node11 -->
<g id="edge10" class="edge">
<title>Node9&#45;&gt;Node11</title>
<path fill="none" stroke="midnightblue" d="M351.59,-260.25C370.06,-287.83 408.84,-339.88 455,-368 461.39,-371.89 468.58,-375 475.86,-377.47"/>
<polygon fill="midnightblue" stroke="midnightblue" points="354.33,-258.04 345.92,-251.59 348.47,-261.88 354.33,-258.04"/>
</g>
<!-- Node12 -->
<g id="node12" class="node">
<title>Node12</title>
<g id="a_node12"><a xlink:href="class_p4_1_1_packet_in.html" target="_top" xlink:title=" ">
<polygon fill="white" stroke="black" points="489,-339.5 489,-358.5 564,-358.5 564,-339.5 489,-339.5"/>
<text text-anchor="middle" x="526.5" y="-346.5" font-family="Helvetica,sans-Serif" font-size="10.00">P4::PacketIn</text>
</a>
</g>
</g>
<!-- Node9&#45;&gt;Node12 -->
<g id="edge11" class="edge">
<title>Node9&#45;&gt;Node12</title>
<path fill="none" stroke="midnightblue" d="M357.14,-258.63C378.42,-278.4 416.61,-311.07 455,-330 465.46,-335.16 477.51,-339.06 488.65,-341.95"/>
<polygon fill="midnightblue" stroke="midnightblue" points="359.53,-256.07 349.85,-251.75 354.72,-261.16 359.53,-256.07"/>
</g>
<!-- Node13 -->
<g id="node13" class="node">
<title>Node13</title>
<g id="a_node13"><a xlink:href="class_p4_1_1_packet_out.html" target="_top" xlink:title=" ">
<polygon fill="white" stroke="black" points="485,-301.5 485,-320.5 568,-320.5 568,-301.5 485,-301.5"/>
<text text-anchor="middle" x="526.5" y="-308.5" font-family="Helvetica,sans-Serif" font-size="10.00">P4::PacketOut</text>
</a>
</g>
</g>
<!-- Node9&#45;&gt;Node13 -->
<g id="edge12" class="edge">
<title>Node9&#45;&gt;Node13</title>
<path fill="none" stroke="midnightblue" d="M368.77,-255.92C391.76,-266.69 424.97,-281.49 455,-292 464.93,-295.48 475.83,-298.7 486.03,-301.46"/>
<polygon fill="midnightblue" stroke="midnightblue" points="370.13,-252.69 359.59,-251.57 367.13,-259.01 370.13,-252.69"/>
</g>
<!-- Node14 -->
<g id="node14" class="node">
<title>Node14</title>
<g id="a_node14"><a xlink:href="struct_p4_v1_1_1_action_profile___model.html" target="_top" xlink:title=" ">
<polygon fill="white" stroke="black" points="472,-252 472,-282 581,-282 581,-252 472,-252"/>
<text text-anchor="start" x="480" y="-270" font-family="Helvetica,sans-Serif" font-size="10.00">P4V1::ActionProfile</text>
<text text-anchor="middle" x="526.5" y="-259" font-family="Helvetica,sans-Serif" font-size="10.00">_Model</text>
</a>
</g>
</g>
<!-- Node9&#45;&gt;Node14 -->
<g id="edge13" class="edge">
<title>Node9&#45;&gt;Node14</title>
<path fill="none" stroke="midnightblue" d="M408.77,-251.27C429.62,-254.08 452.21,-257.12 471.91,-259.78"/>
<polygon fill="midnightblue" stroke="midnightblue" points="409.07,-247.78 398.69,-249.91 408.14,-254.71 409.07,-247.78"/>
</g>
<!-- Node15 -->
<g id="node15" class="node">
<title>Node15</title>
<g id="a_node15"><a xlink:href="struct_p4_v1_1_1_action_selector___model.html" target="_top" xlink:title=" ">
<polygon fill="white" stroke="black" points="467.5,-203 467.5,-233 585.5,-233 585.5,-203 467.5,-203"/>
<text text-anchor="start" x="475.5" y="-221" font-family="Helvetica,sans-Serif" font-size="10.00">P4V1::ActionSelector</text>
<text text-anchor="middle" x="526.5" y="-210" font-family="Helvetica,sans-Serif" font-size="10.00">_Model</text>
</a>
</g>
</g>
<!-- Node9&#45;&gt;Node15 -->
<g id="edge14" class="edge">
<title>Node9&#45;&gt;Node15</title>
<path fill="none" stroke="midnightblue" d="M408.87,-233.09C428.05,-230.61 448.68,-227.94 467.19,-225.54"/>
<polygon fill="midnightblue" stroke="midnightblue" points="408.16,-229.65 398.69,-234.41 409.06,-236.59 408.16,-229.65"/>
</g>
<!-- Node16 -->
<g id="node16" class="node">
<title>Node16</title>
<g id="a_node16"><a xlink:href="struct_p4_v1_1_1_cloner___model.html" target="_top" xlink:title=" ">
<polygon fill="white" stroke="black" points="469.5,-164.5 469.5,-183.5 583.5,-183.5 583.5,-164.5 469.5,-164.5"/>
<text text-anchor="middle" x="526.5" y="-171.5" font-family="Helvetica,sans-Serif" font-size="10.00">P4V1::Cloner_Model</text>
</a>
</g>
</g>
<!-- Node9&#45;&gt;Node16 -->
<g id="edge15" class="edge">
<title>Node9&#45;&gt;Node16</title>
<path fill="none" stroke="midnightblue" d="M401.08,-229.38C407.27,-227.26 413.35,-224.82 419,-222 437.38,-212.82 436.69,-202.32 455,-193 462.46,-189.21 470.75,-186.11 478.96,-183.59"/>
<polygon fill="midnightblue" stroke="midnightblue" points="399.81,-226.11 391.31,-232.44 401.9,-232.79 399.81,-226.11"/>
</g>
<!-- Node17 -->
<g id="node17" class="node">
<title>Node17</title>
<g id="a_node17"><a xlink:href="struct_p4_v1_1_1_counter_or_meter___model.html" target="_top" xlink:title=" ">
<polygon fill="white" stroke="black" points="464,-115 464,-145 589,-145 589,-115 464,-115"/>
<text text-anchor="start" x="472" y="-133" font-family="Helvetica,sans-Serif" font-size="10.00">P4V1::CounterOrMeter</text>
<text text-anchor="middle" x="526.5" y="-122" font-family="Helvetica,sans-Serif" font-size="10.00">_Model</text>
</a>
</g>
</g>
<!-- Node9&#45;&gt;Node17 -->
<g id="edge16" class="edge">
<title>Node9&#45;&gt;Node17</title>
<path fill="none" stroke="midnightblue" d="M408.03,-228.94C411.92,-226.94 415.61,-224.64 419,-222 445.65,-201.2 429.35,-177.02 455,-155 459.53,-151.11 464.71,-147.81 470.16,-145.01"/>
<polygon fill="midnightblue" stroke="midnightblue" points="406.42,-225.83 398.69,-233.08 409.25,-232.23 406.42,-225.83"/>
</g>
<!-- Node22 -->
<g id="node22" class="node">
<title>Node22</title>
<g id="a_node22"><a xlink:href="struct_p4_v1_1_1_register___model.html" target="_top" xlink:title=" ">
<polygon fill="white" stroke="black" points="465,-76.5 465,-95.5 588,-95.5 588,-76.5 465,-76.5"/>
<text text-anchor="middle" x="526.5" y="-83.5" font-family="Helvetica,sans-Serif" font-size="10.00">P4V1::Register_Model</text>
</a>
</g>
</g>
<!-- Node9&#45;&gt;Node22 -->
<g id="edge21" class="edge">
<title>Node9&#45;&gt;Node22</title>
<path fill="none" stroke="midnightblue" d="M407.93,-230.1C411.94,-227.83 415.68,-225.16 419,-222 458.43,-184.51 415.86,-142.79 455,-105 459.01,-101.13 463.73,-98.02 468.79,-95.54"/>
<polygon fill="midnightblue" stroke="midnightblue" points="406.32,-226.99 398.8,-234.45 409.33,-233.31 406.32,-226.99"/>
</g>
<!-- Node23 -->
<g id="node23" class="node">
<title>Node23</title>
<g id="a_node23"><a xlink:href="class_p4_v1_1_1_truncate.html" target="_top" xlink:title=" ">
<polygon fill="white" stroke="black" points="482,-38.5 482,-57.5 571,-57.5 571,-38.5 482,-38.5"/>
<text text-anchor="middle" x="526.5" y="-45.5" font-family="Helvetica,sans-Serif" font-size="10.00">P4V1::Truncate</text>
</a>
</g>
</g>
<!-- Node9&#45;&gt;Node23 -->
<g id="edge22" class="edge">
<title>Node9&#45;&gt;Node23</title>
<path fill="none" stroke="midnightblue" d="M407.98,-230.49C412,-228.13 415.74,-225.33 419,-222 468.51,-171.5 405.88,-117.88 455,-67 462.13,-59.61 471.81,-55 481.71,-52.14"/>
<polygon fill="midnightblue" stroke="midnightblue" points="406.22,-227.45 398.76,-234.97 409.28,-233.75 406.22,-227.45"/>
</g>
<!-- Node24 -->
<g id="node24" class="node">
<title>Node24</title>
<g id="a_node24"><a xlink:href="struct_u_b_p_f_1_1_register___model.html" target="_top" xlink:title=" ">
<polygon fill="white" stroke="black" points="464.5,-0.5 464.5,-19.5 588.5,-19.5 588.5,-0.5 464.5,-0.5"/>
<text text-anchor="middle" x="526.5" y="-7.5" font-family="Helvetica,sans-Serif" font-size="10.00">UBPF::Register_Model</text>
</a>
</g>
</g>
<!-- Node9&#45;&gt;Node24 -->
<g id="edge23" class="edge">
<title>Node9&#45;&gt;Node24</title>
<path fill="none" stroke="midnightblue" d="M407.6,-230.97C411.8,-228.51 415.67,-225.55 419,-222 478.71,-158.37 395.78,-93.08 455,-29 458.53,-25.18 462.73,-22.1 467.31,-19.62"/>
<polygon fill="midnightblue" stroke="midnightblue" points="406.06,-227.83 398.6,-235.35 409.12,-234.13 406.06,-227.83"/>
</g>
<!-- Node18 -->
<g id="node18" class="node">
<title>Node18</title>
<g id="a_node18"><a xlink:href="struct_p4_v1_1_1_counter___model.html" target="_top" xlink:title=" ">
<polygon fill="white" stroke="black" points="643.5,-186.5 643.5,-205.5 764.5,-205.5 764.5,-186.5 643.5,-186.5"/>
<text text-anchor="middle" x="704" y="-193.5" font-family="Helvetica,sans-Serif" font-size="10.00">P4V1::Counter_Model</text>
</a>
</g>
</g>
<!-- Node17&#45;&gt;Node18 -->
<g id="edge17" class="edge">
<title>Node17&#45;&gt;Node18</title>
<path fill="none" stroke="midnightblue" d="M583.46,-148.75C588.42,-150.74 593.33,-152.84 598,-155 614.8,-162.8 616.98,-168.7 634,-176 643.4,-180.03 653.86,-183.53 663.73,-186.43"/>
<polygon fill="midnightblue" stroke="midnightblue" points="584.48,-145.39 573.89,-145.05 581.95,-151.92 584.48,-145.39"/>
</g>
<!-- Node19 -->
<g id="node19" class="node">
<title>Node19</title>
<g id="a_node19"><a xlink:href="struct_p4_v1_1_1_direct_counter___model.html" target="_top" xlink:title=" ">
<polygon fill="white" stroke="black" points="646.5,-137 646.5,-167 761.5,-167 761.5,-137 646.5,-137"/>
<text text-anchor="start" x="654.5" y="-155" font-family="Helvetica,sans-Serif" font-size="10.00">P4V1::DirectCounter</text>
<text text-anchor="middle" x="704" y="-144" font-family="Helvetica,sans-Serif" font-size="10.00">_Model</text>
</a>
</g>
</g>
<!-- Node17&#45;&gt;Node19 -->
<g id="edge18" class="edge">
<title>Node17&#45;&gt;Node19</title>
<path fill="none" stroke="midnightblue" d="M599.52,-139.03C615.14,-140.99 631.45,-143.03 646.37,-144.9"/>
<polygon fill="midnightblue" stroke="midnightblue" points="599.73,-135.53 589.37,-137.76 598.86,-142.47 599.73,-135.53"/>
</g>
<!-- Node20 -->
<g id="node20" class="node">
<title>Node20</title>
<g id="a_node20"><a xlink:href="struct_p4_v1_1_1_direct_meter___model.html" target="_top" xlink:title=" ">
<polygon fill="white" stroke="black" points="634,-98.5 634,-117.5 774,-117.5 774,-98.5 634,-98.5"/>
<text text-anchor="middle" x="704" y="-105.5" font-family="Helvetica,sans-Serif" font-size="10.00">P4V1::DirectMeter_Model</text>
</a>
</g>
</g>
<!-- Node17&#45;&gt;Node20 -->
<g id="edge19" class="edge">
<title>Node17&#45;&gt;Node20</title>
<path fill="none" stroke="midnightblue" d="M599.3,-121C610.74,-119.57 622.54,-118.09 633.91,-116.66"/>
<polygon fill="midnightblue" stroke="midnightblue" points="598.86,-117.53 589.37,-122.24 599.73,-124.47 598.86,-117.53"/>
</g>
<!-- Node21 -->
<g id="node21" class="node">
<title>Node21</title>
<g id="a_node21"><a xlink:href="struct_p4_v1_1_1_meter___model.html" target="_top" xlink:title=" ">
<polygon fill="white" stroke="black" points="648.5,-60.5 648.5,-79.5 759.5,-79.5 759.5,-60.5 648.5,-60.5"/>
<text text-anchor="middle" x="704" y="-67.5" font-family="Helvetica,sans-Serif" font-size="10.00">P4V1::Meter_Model</text>
</a>
</g>
</g>
<!-- Node17&#45;&gt;Node21 -->
<g id="edge20" class="edge">
<title>Node17&#45;&gt;Node21</title>
<path fill="none" stroke="midnightblue" d="M581.23,-111.44C586.91,-109.33 592.59,-107.16 598,-105 614.26,-98.51 617.51,-94.9 634,-89 643.71,-85.53 654.38,-82.31 664.36,-79.55"/>
<polygon fill="midnightblue" stroke="midnightblue" points="579.89,-108.2 571.7,-114.92 582.29,-114.77 579.89,-108.2"/>
</g>
</g>
</svg>
