<?xml version="1.0" encoding="UTF-8" standalone="no"?>
<!DOCTYPE svg PUBLIC "-//W3C//DTD SVG 1.1//EN"
 "http://www.w3.org/Graphics/SVG/1.1/DTD/svg11.dtd">
<!-- Generated by graphviz version 2.43.0 (0)
 -->
<!-- Title: P4V1::Meter_Model Pages: 1 -->
<svg width="133pt" height="263pt"
 viewBox="0.00 0.00 133.00 263.00" xmlns="http://www.w3.org/2000/svg" xmlns:xlink="http://www.w3.org/1999/xlink">
<g id="graph0" class="graph" transform="scale(1 1) rotate(0) translate(4 259)">
<title>P4V1::Meter_Model</title>
<polygon fill="white" stroke="transparent" points="-4,4 -4,-259 129,-259 129,4 -4,4"/>
<!-- Node1 -->
<g id="node1" class="node">
<title>Node1</title>
<g id="a_node1"><a xlink:title=" ">
<polygon fill="#bfbfbf" stroke="black" points="7,-0.5 7,-19.5 118,-19.5 118,-0.5 7,-0.5"/>
<text text-anchor="middle" x="62.5" y="-7.5" font-family="Helvetica,sans-Serif" font-size="10.00">P4V1::Meter_Model</text>
</a>
</g>
</g>
<!-- Node2 -->
<g id="node2" class="node">
<title>Node2</title>
<g id="a_node2"><a xlink:href="struct_p4_v1_1_1_counter_or_meter___model.html" target="_top" xlink:title=" ">
<polygon fill="white" stroke="black" points="0,-56.5 0,-86.5 125,-86.5 125,-56.5 0,-56.5"/>
<text text-anchor="start" x="8" y="-74.5" font-family="Helvetica,sans-Serif" font-size="10.00">P4V1::CounterOrMeter</text>
<text text-anchor="middle" x="62.5" y="-63.5" font-family="Helvetica,sans-Serif" font-size="10.00">_Model</text>
</a>
</g>
</g>
<!-- Node2&#45;&gt;Node1 -->
<g id="edge1" class="edge">
<title>Node2&#45;&gt;Node1</title>
<path fill="none" stroke="midnightblue" d="M62.5,-46.29C62.5,-36.86 62.5,-26.65 62.5,-19.66"/>
<polygon fill="midnightblue" stroke="midnightblue" points="59,-46.4 62.5,-56.4 66,-46.4 59,-46.4"/>
</g>
<!-- Node3 -->
<g id="node3" class="node">
<title>Node3</title>
<g id="a_node3"><a xlink:href="struct_model_1_1_extern___model.html" target="_top" xlink:title="Extern_Model : Type_Model.">
<polygon fill="white" stroke="black" points="3,-123.5 3,-142.5 122,-142.5 122,-123.5 3,-123.5"/>
<text text-anchor="middle" x="62.5" y="-130.5" font-family="Helvetica,sans-Serif" font-size="10.00">Model::Extern_Model</text>
</a>
</g>
</g>
<!-- Node3&#45;&gt;Node2 -->
<g id="edge2" class="edge">
<title>Node3&#45;&gt;Node2</title>
<path fill="none" stroke="midnightblue" d="M62.5,-113.23C62.5,-104.59 62.5,-94.5 62.5,-86.52"/>
<polygon fill="midnightblue" stroke="midnightblue" points="59,-113.48 62.5,-123.48 66,-113.48 59,-113.48"/>
</g>
<!-- Node4 -->
<g id="node4" class="node">
<title>Node4</title>
<g id="a_node4"><a xlink:href="struct_model_1_1_type___model.html" target="_top" xlink:title=" ">
<polygon fill="white" stroke="black" points="7.5,-179.5 7.5,-198.5 117.5,-198.5 117.5,-179.5 7.5,-179.5"/>
<text text-anchor="middle" x="62.5" y="-186.5" font-family="Helvetica,sans-Serif" font-size="10.00">Model::Type_Model</text>
</a>
</g>
</g>
<!-- Node4&#45;&gt;Node3 -->
<g id="edge3" class="edge">
<title>Node4&#45;&gt;Node3</title>
<path fill="none" stroke="midnightblue" d="M62.5,-168.8C62.5,-159.91 62.5,-149.78 62.5,-142.75"/>
<polygon fill="midnightblue" stroke="midnightblue" points="59,-169.08 62.5,-179.08 66,-169.08 59,-169.08"/>
</g>
<!-- Node5 -->
<g id="node5" class="node">
<title>Node5</title>
<g id="a_node5"><a xlink:href="struct_model_1_1_elem.html" target="_top" xlink:title=" ">
<polygon fill="white" stroke="black" points="24,-235.5 24,-254.5 101,-254.5 101,-235.5 24,-235.5"/>
<text text-anchor="middle" x="62.5" y="-242.5" font-family="Helvetica,sans-Serif" font-size="10.00">Model::Elem</text>
</a>
</g>
</g>
<!-- Node5&#45;&gt;Node4 -->
<g id="edge4" class="edge">
<title>Node5&#45;&gt;Node4</title>
<path fill="none" stroke="midnightblue" d="M62.5,-224.8C62.5,-215.91 62.5,-205.78 62.5,-198.75"/>
<polygon fill="midnightblue" stroke="midnightblue" points="59,-225.08 62.5,-235.08 66,-225.08 59,-225.08"/>
</g>
</g>
</svg>
