<?xml version="1.0" encoding="UTF-8" standalone="no"?>
<!DOCTYPE svg PUBLIC "-//W3C//DTD SVG 1.1//EN"
 "http://www.w3.org/Graphics/SVG/1.1/DTD/svg11.dtd">
<!-- Generated by graphviz version 2.43.0 (0)
 -->
<!-- Title: Model::Type_Model Pages: 1 -->
<svg width="782pt" height="629pt"
 viewBox="0.00 0.00 782.00 629.00" xmlns="http://www.w3.org/2000/svg" xmlns:xlink="http://www.w3.org/1999/xlink">
<g id="graph0" class="graph" transform="scale(1 1) rotate(0) translate(4 625)">
<title>Model::Type_Model</title>
<!-- Node1 -->
<g id="Node000001" class="node">
<title>Node1</title>
<g id="a_Node000001"><a xlink:title=" ">
<polygon fill="#999999" stroke="#666666" points="223,-246 113,-246 113,-227 223,-227 223,-246"/>
<text text-anchor="middle" x="168" y="-234" font-family="Helvetica,sans-Serif" font-size="10.00">Model::Type_Model</text>
</a>
</g>
</g>
<!-- Node3 -->
<g id="Node000003" class="node">
<title>Node3</title>
<g id="a_Node000003"><a xlink:href="struct_model_1_1_enum___model.html" target="_top" xlink:title="Enum_Model : Type_Model.">
<polygon fill="white" stroke="#666666" points="397,-528 281,-528 281,-509 397,-509 397,-528"/>
<text text-anchor="middle" x="339" y="-516" font-family="Helvetica,sans-Serif" font-size="10.00">Model::Enum_Model</text>
</a>
</g>
</g>
<!-- Node1&#45;&gt;Node3 -->
<g id="edge2_Node000001_Node000003" class="edge">
<title>Node1&#45;&gt;Node3</title>
<g id="a_edge2_Node000001_Node000003"><a xlink:title=" ">
<path fill="none" stroke="#63b8ff" d="M179.97,-254.81C212.51,-309.1 307.72,-467.98 332.21,-508.83"/>
<polygon fill="#63b8ff" stroke="#63b8ff" points="182.96,-252.99 174.82,-246.21 176.96,-256.58 182.96,-252.99"/>
</a>
</g>
</g>
<!-- Node9 -->
<g id="Node000009" class="node">
<title>Node9</title>
<g id="a_Node000009"><a xlink:href="struct_model_1_1_extern___model.html" target="_top" xlink:title="Extern_Model : Type_Model.">
<polygon fill="white" stroke="#666666" points="398.5,-246 279.5,-246 279.5,-227 398.5,-227 398.5,-246"/>
<text text-anchor="middle" x="339" y="-234" font-family="Helvetica,sans-Serif" font-size="10.00">Model::Extern_Model</text>
</a>
</g>
</g>
<!-- Node1&#45;&gt;Node9 -->
<g id="edge8_Node000001_Node000009" class="edge">
<title>Node1&#45;&gt;Node9</title>
<g id="a_edge8_Node000001_Node000009"><a xlink:title=" ">
<path fill="none" stroke="#63b8ff" d="M233.64,-236.5C248.66,-236.5 264.57,-236.5 279.32,-236.5"/>
<polygon fill="#63b8ff" stroke="#63b8ff" points="233.4,-233 223.4,-236.5 233.4,-240 233.4,-233"/>
</a>
</g>
</g>
<!-- Node25 -->
<g id="Node000025" class="node">
<title>Node25</title>
<g id="a_Node000025"><a xlink:href="struct_p4_v1_1_1_standard_metadata_type___model.html" target="_top" xlink:title=" ">
<polygon fill="white" stroke="#bfbfbf" points="419,-208.5 259,-208.5 259,-178.5 419,-178.5 419,-208.5"/>
<text text-anchor="start" x="267" y="-196.5" font-family="Helvetica,sans-Serif" font-size="10.00">P4V1::StandardMetadataType</text>
<text text-anchor="middle" x="339" y="-185.5" font-family="Helvetica,sans-Serif" font-size="10.00">_Model</text>
</a>
</g>
</g>
<!-- Node1&#45;&gt;Node25 -->
<g id="edge24_Node000001_Node000025" class="edge">
<title>Node1&#45;&gt;Node25</title>
<g id="a_edge24_Node000001_Node000025"><a xlink:title=" ">
<path fill="none" stroke="#63b8ff" d="M216.35,-224.45C235.79,-219.51 258.51,-213.72 279.02,-208.51"/>
<polygon fill="#63b8ff" stroke="#63b8ff" points="215.33,-221.1 206.51,-226.96 217.06,-227.88 215.33,-221.1"/>
</a>
</g>
</g>
<!-- Node2 -->
<g id="Node000002" class="node">
<title>Node2</title>
<g id="a_Node000002"><a xlink:href="struct_model_1_1_elem.html" target="_top" xlink:title=" ">
<polygon fill="white" stroke="#bfbfbf" points="77,-246 0,-246 0,-227 77,-227 77,-246"/>
<text text-anchor="middle" x="38.5" y="-234" font-family="Helvetica,sans-Serif" font-size="10.00">Model::Elem</text>
</a>
</g>
</g>
<!-- Node2&#45;&gt;Node1 -->
<g id="edge1_Node000001_Node000002" class="edge">
<title>Node2&#45;&gt;Node1</title>
<g id="a_edge1_Node000001_Node000002"><a xlink:title=" ">
<path fill="none" stroke="#63b8ff" d="M87.31,-236.5C95.59,-236.5 104.26,-236.5 112.7,-236.5"/>
<polygon fill="#63b8ff" stroke="#63b8ff" points="87.06,-233 77.06,-236.5 87.06,-240 87.06,-233"/>
</a>
</g>
</g>
<!-- Node4 -->
<g id="Node000004" class="node">
<title>Node4</title>
<g id="a_Node000004"><a xlink:href="struct_p4_v1_1_1_algorithm___model.html" target="_top" xlink:title=" ">
<polygon fill="white" stroke="#bfbfbf" points="592,-621 461,-621 461,-602 592,-602 592,-621"/>
<text text-anchor="middle" x="526.5" y="-609" font-family="Helvetica,sans-Serif" font-size="10.00">P4V1::Algorithm_Model</text>
</a>
</g>
</g>
<!-- Node3&#45;&gt;Node4 -->
<g id="edge3_Node000003_Node000004" class="edge">
<title>Node3&#45;&gt;Node4</title>
<g id="a_edge3_Node000003_Node000004"><a xlink:title=" ">
<path fill="none" stroke="#63b8ff" d="M359.58,-534.17C381.59,-551.07 418.97,-577.67 455,-593.5 462.52,-596.8 470.76,-599.59 478.88,-601.91"/>
<polygon fill="#63b8ff" stroke="#63b8ff" points="361.7,-531.39 351.67,-528 357.4,-536.91 361.7,-531.39"/>
</a>
</g>
</g>
<!-- Node5 -->
<g id="Node000005" class="node">
<title>Node5</title>
<g id="a_Node000005"><a xlink:href="struct_p4_v1_1_1_clone_type___model.html" target="_top" xlink:title=" ">
<polygon fill="white" stroke="#bfbfbf" points="593,-584 460,-584 460,-565 593,-565 593,-584"/>
<text text-anchor="middle" x="526.5" y="-572" font-family="Helvetica,sans-Serif" font-size="10.00">P4V1::CloneType_Model</text>
</a>
</g>
</g>
<!-- Node3&#45;&gt;Node5 -->
<g id="edge4_Node000003_Node000005" class="edge">
<title>Node3&#45;&gt;Node5</title>
<g id="a_edge4_Node000003_Node000005"><a xlink:title=" ">
<path fill="none" stroke="#63b8ff" d="M376.74,-531.36C399.22,-539.05 428.63,-548.79 455,-556.5 465.06,-559.44 476.01,-562.37 486.21,-564.98"/>
<polygon fill="#63b8ff" stroke="#63b8ff" points="377.85,-528.04 367.25,-528.1 375.57,-534.66 377.85,-528.04"/>
</a>
</g>
</g>
<!-- Node6 -->
<g id="Node000006" class="node">
<title>Node6</title>
<g id="a_Node000006"><a xlink:href="struct_p4_v1_1_1_counter_type___model.html" target="_top" xlink:title=" ">
<polygon fill="white" stroke="#bfbfbf" points="598,-547 455,-547 455,-528 598,-528 598,-547"/>
<text text-anchor="middle" x="526.5" y="-535" font-family="Helvetica,sans-Serif" font-size="10.00">P4V1::CounterType_Model</text>
</a>
</g>
</g>
<!-- Node3&#45;&gt;Node6 -->
<g id="edge5_Node000003_Node000006" class="edge">
<title>Node3&#45;&gt;Node6</title>
<g id="a_edge5_Node000003_Node000006"><a xlink:title=" ">
<path fill="none" stroke="#63b8ff" d="M407.17,-525.38C422.65,-526.97 439.15,-528.66 454.78,-530.26"/>
<polygon fill="#63b8ff" stroke="#63b8ff" points="407.47,-521.89 397.17,-524.36 406.76,-528.86 407.47,-521.89"/>
</a>
</g>
</g>
<!-- Node7 -->
<g id="Node000007" class="node">
<title>Node7</title>
<g id="a_Node000007"><a xlink:href="struct_p4_v1_1_1_meter_type___model.html" target="_top" xlink:title=" ">
<polygon fill="white" stroke="#bfbfbf" points="593.5,-510 459.5,-510 459.5,-491 593.5,-491 593.5,-510"/>
<text text-anchor="middle" x="526.5" y="-498" font-family="Helvetica,sans-Serif" font-size="10.00">P4V1::MeterType_Model</text>
</a>
</g>
</g>
<!-- Node3&#45;&gt;Node7 -->
<g id="edge6_Node000003_Node000007" class="edge">
<title>Node3&#45;&gt;Node7</title>
<g id="a_edge6_Node000003_Node000007"><a xlink:title=" ">
<path fill="none" stroke="#63b8ff" d="M407.53,-511.95C424.45,-510.31 442.58,-508.55 459.43,-506.91"/>
<polygon fill="#63b8ff" stroke="#63b8ff" points="406.78,-508.5 397.17,-512.95 407.46,-515.47 406.78,-508.5"/>
</a>
</g>
</g>
<!-- Node8 -->
<g id="Node000008" class="node">
<title>Node8</title>
<g id="a_Node000008"><a xlink:href="struct_u_b_p_f_1_1_algorithm___model.html" target="_top" xlink:title=" ">
<polygon fill="white" stroke="#bfbfbf" points="592,-473 461,-473 461,-454 592,-454 592,-473"/>
<text text-anchor="middle" x="526.5" y="-461" font-family="Helvetica,sans-Serif" font-size="10.00">UBPF::Algorithm_Model</text>
</a>
</g>
</g>
<!-- Node3&#45;&gt;Node8 -->
<g id="edge7_Node000003_Node000008" class="edge">
<title>Node3&#45;&gt;Node8</title>
<g id="a_edge7_Node000003_Node000008"><a xlink:title=" ">
<path fill="none" stroke="#63b8ff" d="M379.4,-505.74C401.55,-498.67 429.74,-489.85 455,-482.5 465.95,-479.31 477.92,-476.02 488.83,-473.08"/>
<polygon fill="#63b8ff" stroke="#63b8ff" points="378.14,-502.46 369.69,-508.85 380.28,-509.13 378.14,-502.46"/>
</a>
</g>
</g>
<!-- Node10 -->
<g id="Node000010" class="node">
<title>Node10</title>
<g id="a_Node000010"><a xlink:href="struct_e_b_p_f_1_1_counter_array___model.html" target="_top" xlink:title=" ">
<polygon fill="white" stroke="#bfbfbf" points="582,-435.5 471,-435.5 471,-405.5 582,-405.5 582,-435.5"/>
<text text-anchor="start" x="479" y="-423.5" font-family="Helvetica,sans-Serif" font-size="10.00">EBPF::CounterArray</text>
<text text-anchor="middle" x="526.5" y="-412.5" font-family="Helvetica,sans-Serif" font-size="10.00">_Model</text>
</a>
</g>
</g>
<!-- Node9&#45;&gt;Node10 -->
<g id="edge9_Node000009_Node000010" class="edge">
<title>Node9&#45;&gt;Node10</title>
<g id="a_edge9_Node000009_Node000010"><a xlink:title=" ">
<path fill="none" stroke="#63b8ff" d="M348.73,-255.52C364.97,-288.84 402.95,-357.92 455,-396.5 459.78,-400.04 465.12,-403.09 470.66,-405.7"/>
<polygon fill="#63b8ff" stroke="#63b8ff" points="351.85,-253.93 344.4,-246.39 345.53,-256.93 351.85,-253.93"/>
</a>
</g>
</g>
<!-- Node11 -->
<g id="Node000011" class="node">
<title>Node11</title>
<g id="a_Node000011"><a xlink:href="struct_e_b_p_f_1_1_table_impl___model.html" target="_top" xlink:title=" ">
<polygon fill="white" stroke="#bfbfbf" points="591,-387 462,-387 462,-368 591,-368 591,-387"/>
<text text-anchor="middle" x="526.5" y="-375" font-family="Helvetica,sans-Serif" font-size="10.00">EBPF::TableImpl_Model</text>
</a>
</g>
</g>
<!-- Node9&#45;&gt;Node11 -->
<g id="edge10_Node000009_Node000011" class="edge">
<title>Node9&#45;&gt;Node11</title>
<g id="a_edge10_Node000009_Node000011"><a xlink:title=" ">
<path fill="none" stroke="#63b8ff" d="M351.92,-254.78C370.58,-281.89 409.32,-332.46 455,-359.5 460.76,-362.91 467.16,-365.68 473.68,-367.93"/>
<polygon fill="#63b8ff" stroke="#63b8ff" points="354.67,-252.59 346.18,-246.25 348.86,-256.5 354.67,-252.59"/>
</a>
</g>
</g>
<!-- Node12 -->
<g id="Node000012" class="node">
<title>Node12</title>
<g id="a_Node000012"><a xlink:href="class_p4_1_1_packet_in.html" target="_top" xlink:title=" ">
<polygon fill="white" stroke="#bfbfbf" points="564,-350 489,-350 489,-331 564,-331 564,-350"/>
<text text-anchor="middle" x="526.5" y="-338" font-family="Helvetica,sans-Serif" font-size="10.00">P4::PacketIn</text>
</a>
</g>
</g>
<!-- Node9&#45;&gt;Node12 -->
<g id="edge11_Node000009_Node000012" class="edge">
<title>Node9&#45;&gt;Node12</title>
<g id="a_edge11_Node000009_Node000012"><a xlink:title=" ">
<path fill="none" stroke="#63b8ff" d="M357.46,-253.08C378.82,-272.48 416.88,-304.27 455,-322.5 465.48,-327.51 477.54,-331.25 488.68,-333.98"/>
<polygon fill="#63b8ff" stroke="#63b8ff" points="359.59,-250.28 349.87,-246.07 354.84,-255.42 359.59,-250.28"/>
</a>
</g>
</g>
<!-- Node13 -->
<g id="Node000013" class="node">
<title>Node13</title>
<g id="a_Node000013"><a xlink:href="class_p4_1_1_packet_out.html" target="_top" xlink:title=" ">
<polygon fill="white" stroke="#bfbfbf" points="568,-313 485,-313 485,-294 568,-294 568,-313"/>
<text text-anchor="middle" x="526.5" y="-301" font-family="Helvetica,sans-Serif" font-size="10.00">P4::PacketOut</text>
</a>
</g>
</g>
<!-- Node9&#45;&gt;Node13 -->
<g id="edge12_Node000009_Node000013" class="edge">
<title>Node9&#45;&gt;Node13</title>
<g id="a_edge12_Node000009_Node000013"><a xlink:title=" ">
<path fill="none" stroke="#63b8ff" d="M369.67,-250.16C392.65,-260.42 425.44,-274.4 455,-284.5 465.08,-287.94 476.13,-291.17 486.44,-293.96"/>
<polygon fill="#63b8ff" stroke="#63b8ff" points="371.01,-246.93 360.46,-246.01 368.14,-253.31 371.01,-246.93"/>
</a>
</g>
</g>
<!-- Node14 -->
<g id="Node000014" class="node">
<title>Node14</title>
<g id="a_Node000014"><a xlink:href="struct_p4_v1_1_1_action_profile___model.html" target="_top" xlink:title=" ">
<polygon fill="white" stroke="#bfbfbf" points="581,-275.5 472,-275.5 472,-245.5 581,-245.5 581,-275.5"/>
<text text-anchor="start" x="480" y="-263.5" font-family="Helvetica,sans-Serif" font-size="10.00">P4V1::ActionProfile</text>
<text text-anchor="middle" x="526.5" y="-252.5" font-family="Helvetica,sans-Serif" font-size="10.00">_Model</text>
</a>
</g>
</g>
<!-- Node9&#45;&gt;Node14 -->
<g id="edge13_Node000009_Node000014" class="edge">
<title>Node9&#45;&gt;Node14</title>
<g id="a_edge13_Node000009_Node000014"><a xlink:title=" ">
<path fill="none" stroke="#63b8ff" d="M408.77,-245.4C429.62,-248.1 452.21,-251.02 471.91,-253.57"/>
<polygon fill="#63b8ff" stroke="#63b8ff" points="409.06,-241.91 398.69,-244.09 408.16,-248.85 409.06,-241.91"/>
</a>
</g>
</g>
<!-- Node15 -->
<g id="Node000015" class="node">
<title>Node15</title>
<g id="a_Node000015"><a xlink:href="struct_p4_v1_1_1_action_selector___model.html" target="_top" xlink:title=" ">
<polygon fill="white" stroke="#bfbfbf" points="585.5,-227.5 467.5,-227.5 467.5,-197.5 585.5,-197.5 585.5,-227.5"/>
<text text-anchor="start" x="475.5" y="-215.5" font-family="Helvetica,sans-Serif" font-size="10.00">P4V1::ActionSelector</text>
<text text-anchor="middle" x="526.5" y="-204.5" font-family="Helvetica,sans-Serif" font-size="10.00">_Model</text>
</a>
</g>
</g>
<!-- Node9&#45;&gt;Node15 -->
<g id="edge14_Node000009_Node000015" class="edge">
<title>Node9&#45;&gt;Node15</title>
<g id="a_edge14_Node000009_Node000015"><a xlink:title=" ">
<path fill="none" stroke="#63b8ff" d="M408.87,-227.59C428.05,-225.11 448.68,-222.44 467.19,-220.04"/>
<polygon fill="#63b8ff" stroke="#63b8ff" points="408.16,-224.15 398.69,-228.91 409.06,-231.09 408.16,-224.15"/>
</a>
</g>
</g>
<!-- Node16 -->
<g id="Node000016" class="node">
<title>Node16</title>
<g id="a_Node000016"><a xlink:href="struct_p4_v1_1_1_cloner___model.html" target="_top" xlink:title=" ">
<polygon fill="white" stroke="#bfbfbf" points="583.5,-179 469.5,-179 469.5,-160 583.5,-160 583.5,-179"/>
<text text-anchor="middle" x="526.5" y="-167" font-family="Helvetica,sans-Serif" font-size="10.00">P4V1::Cloner_Model</text>
</a>
</g>
</g>
<!-- Node9&#45;&gt;Node16 -->
<g id="edge15_Node000009_Node000016" class="edge">
<title>Node9&#45;&gt;Node16</title>
<g id="a_edge15_Node000009_Node000016"><a xlink:title=" ">
<path fill="none" stroke="#63b8ff" d="M403.52,-223.89C408.86,-222.03 414.09,-219.91 419,-217.5 437.44,-208.43 436.69,-197.82 455,-188.5 462.46,-184.71 470.75,-181.61 478.96,-179.09"/>
<polygon fill="#63b8ff" stroke="#63b8ff" points="402.3,-220.6 393.82,-226.95 404.41,-227.27 402.3,-220.6"/>
</a>
</g>
</g>
<!-- Node17 -->
<g id="Node000017" class="node">
<title>Node17</title>
<g id="a_Node000017"><a xlink:href="struct_p4_v1_1_1_counter_or_meter___model.html" target="_top" xlink:title=" ">
<polygon fill="white" stroke="#bfbfbf" points="589,-141.5 464,-141.5 464,-111.5 589,-111.5 589,-141.5"/>
<text text-anchor="start" x="472" y="-129.5" font-family="Helvetica,sans-Serif" font-size="10.00">P4V1::CounterOrMeter</text>
<text text-anchor="middle" x="526.5" y="-118.5" font-family="Helvetica,sans-Serif" font-size="10.00">_Model</text>
</a>
</g>
</g>
<!-- Node9&#45;&gt;Node17 -->
<g id="edge16_Node000009_Node000017" class="edge">
<title>Node9&#45;&gt;Node17</title>
<g id="a_edge16_Node000009_Node000017"><a xlink:title=" ">
<path fill="none" stroke="#63b8ff" d="M408.02,-224.34C411.91,-222.38 415.61,-220.12 419,-217.5 445.77,-196.86 429.21,-172.35 455,-150.5 459.04,-147.07 463.6,-144.13 468.4,-141.6"/>
<polygon fill="#63b8ff" stroke="#63b8ff" points="406.47,-221.19 398.67,-228.37 409.24,-227.62 406.47,-221.19"/>
</a>
</g>
</g>
<!-- Node22 -->
<g id="Node000022" class="node">
<title>Node22</title>
<g id="a_Node000022"><a xlink:href="struct_p4_v1_1_1_register___model.html" target="_top" xlink:title=" ">
<polygon fill="white" stroke="#bfbfbf" points="588,-93 465,-93 465,-74 588,-74 588,-93"/>
<text text-anchor="middle" x="526.5" y="-81" font-family="Helvetica,sans-Serif" font-size="10.00">P4V1::Register_Model</text>
</a>
</g>
</g>
<!-- Node9&#45;&gt;Node22 -->
<g id="edge21_Node000009_Node000022" class="edge">
<title>Node9&#45;&gt;Node22</title>
<g id="a_edge21_Node000009_Node000022"><a xlink:title=" ">
<path fill="none" stroke="#63b8ff" d="M407.89,-225.47C411.91,-223.25 415.66,-220.62 419,-217.5 458.12,-180.93 416.38,-139.6 455,-102.5 459.02,-98.64 463.74,-95.54 468.81,-93.06"/>
<polygon fill="#63b8ff" stroke="#63b8ff" points="406.35,-222.33 398.75,-229.71 409.29,-228.68 406.35,-222.33"/>
</a>
</g>
</g>
<!-- Node23 -->
<g id="Node000023" class="node">
<title>Node23</title>
<g id="a_Node000023"><a xlink:href="class_p4_v1_1_1_truncate.html" target="_top" xlink:title=" ">
<polygon fill="white" stroke="#bfbfbf" points="571,-56 482,-56 482,-37 571,-37 571,-56"/>
<text text-anchor="middle" x="526.5" y="-44" font-family="Helvetica,sans-Serif" font-size="10.00">P4V1::Truncate</text>
</a>
</g>
</g>
<!-- Node9&#45;&gt;Node23 -->
<g id="edge22_Node000009_Node000023" class="edge">
<title>Node9&#45;&gt;Node23</title>
<g id="a_edge22_Node000009_Node000023"><a xlink:title=" ">
<path fill="none" stroke="#63b8ff" d="M407.94,-225.87C411.98,-223.56 415.72,-220.8 419,-217.5 468.27,-167.98 406.07,-114.36 455,-64.5 462.17,-57.2 471.86,-52.71 481.75,-50"/>
<polygon fill="#63b8ff" stroke="#63b8ff" points="406.25,-222.8 398.71,-230.24 409.25,-229.12 406.25,-222.8"/>
</a>
</g>
</g>
<!-- Node24 -->
<g id="Node000024" class="node">
<title>Node24</title>
<g id="a_Node000024"><a xlink:href="struct_u_b_p_f_1_1_register___model.html" target="_top" xlink:title=" ">
<polygon fill="white" stroke="#bfbfbf" points="588.5,-19 464.5,-19 464.5,0 588.5,0 588.5,-19"/>
<text text-anchor="middle" x="526.5" y="-7" font-family="Helvetica,sans-Serif" font-size="10.00">UBPF::Register_Model</text>
</a>
</g>
</g>
<!-- Node9&#45;&gt;Node24 -->
<g id="edge23_Node000009_Node000024" class="edge">
<title>Node9&#45;&gt;Node24</title>
<g id="a_edge23_Node000009_Node000024"><a xlink:title=" ">
<path fill="none" stroke="#63b8ff" d="M407.9,-226.15C411.98,-223.78 415.74,-220.93 419,-217.5 478.27,-155.26 396.16,-90.15 455,-27.5 458.2,-24.09 461.95,-21.29 466.02,-19"/>
<polygon fill="#63b8ff" stroke="#63b8ff" points="406.06,-223.15 398.55,-230.62 409.08,-229.47 406.06,-223.15"/>
</a>
</g>
</g>
<!-- Node18 -->
<g id="Node000018" class="node">
<title>Node18</title>
<g id="a_Node000018"><a xlink:href="struct_p4_v1_1_1_counter___model.html" target="_top" xlink:title=" ">
<polygon fill="white" stroke="#bfbfbf" points="764.5,-200 643.5,-200 643.5,-181 764.5,-181 764.5,-200"/>
<text text-anchor="middle" x="704" y="-188" font-family="Helvetica,sans-Serif" font-size="10.00">P4V1::Counter_Model</text>
</a>
</g>
</g>
<!-- Node17&#45;&gt;Node18 -->
<g id="edge17_Node000017_Node000018" class="edge">
<title>Node17&#45;&gt;Node18</title>
<g id="a_edge17_Node000017_Node000018"><a xlink:title=" ">
<path fill="none" stroke="#63b8ff" d="M585.54,-145.21C589.79,-146.9 593.99,-148.67 598,-150.5 614.85,-158.19 616.93,-164.31 634,-171.5 642.7,-175.16 652.32,-178.33 661.54,-180.96"/>
<polygon fill="#63b8ff" stroke="#63b8ff" points="586.75,-141.93 576.16,-141.64 584.26,-148.47 586.75,-141.93"/>
</a>
</g>
</g>
<!-- Node19 -->
<g id="Node000019" class="node">
<title>Node19</title>
<g id="a_Node000019"><a xlink:href="struct_p4_v1_1_1_direct_counter___model.html" target="_top" xlink:title=" ">
<polygon fill="white" stroke="#bfbfbf" points="761.5,-162.5 646.5,-162.5 646.5,-132.5 761.5,-132.5 761.5,-162.5"/>
<text text-anchor="start" x="654.5" y="-150.5" font-family="Helvetica,sans-Serif" font-size="10.00">P4V1::DirectCounter</text>
<text text-anchor="middle" x="704" y="-139.5" font-family="Helvetica,sans-Serif" font-size="10.00">_Model</text>
</a>
</g>
</g>
<!-- Node17&#45;&gt;Node19 -->
<g id="edge18_Node000017_Node000019" class="edge">
<title>Node17&#45;&gt;Node19</title>
<g id="a_edge18_Node000017_Node000019"><a xlink:title=" ">
<path fill="none" stroke="#63b8ff" d="M599.52,-135.12C615.14,-136.99 631.45,-138.94 646.37,-140.72"/>
<polygon fill="#63b8ff" stroke="#63b8ff" points="599.72,-131.62 589.37,-133.9 598.89,-138.57 599.72,-131.62"/>
</a>
</g>
</g>
<!-- Node20 -->
<g id="Node000020" class="node">
<title>Node20</title>
<g id="a_Node000020"><a xlink:href="struct_p4_v1_1_1_direct_meter___model.html" target="_top" xlink:title=" ">
<polygon fill="white" stroke="#bfbfbf" points="774,-114 634,-114 634,-95 774,-95 774,-114"/>
<text text-anchor="middle" x="704" y="-102" font-family="Helvetica,sans-Serif" font-size="10.00">P4V1::DirectMeter_Model</text>
</a>
</g>
</g>
<!-- Node17&#45;&gt;Node20 -->
<g id="edge19_Node000017_Node000020" class="edge">
<title>Node17&#45;&gt;Node20</title>
<g id="a_edge19_Node000017_Node000020"><a xlink:title=" ">
<path fill="none" stroke="#63b8ff" d="M599.3,-117.5C610.74,-116.07 622.54,-114.59 633.91,-113.16"/>
<polygon fill="#63b8ff" stroke="#63b8ff" points="598.86,-114.03 589.37,-118.74 599.73,-120.97 598.86,-114.03"/>
</a>
</g>
</g>
<!-- Node21 -->
<g id="Node000021" class="node">
<title>Node21</title>
<g id="a_Node000021"><a xlink:href="struct_p4_v1_1_1_meter___model.html" target="_top" xlink:title=" ">
<polygon fill="white" stroke="#bfbfbf" points="759.5,-77 648.5,-77 648.5,-58 759.5,-58 759.5,-77"/>
<text text-anchor="middle" x="704" y="-65" font-family="Helvetica,sans-Serif" font-size="10.00">P4V1::Meter_Model</text>
</a>
</g>
</g>
<!-- Node17&#45;&gt;Node21 -->
<g id="edge20_Node000017_Node000021" class="edge">
<title>Node17&#45;&gt;Node21</title>
<g id="a_edge20_Node000017_Node000021"><a xlink:title=" ">
<path fill="none" stroke="#63b8ff" d="M581.23,-107.94C586.91,-105.83 592.59,-103.66 598,-101.5 614.26,-95.01 617.47,-91.28 634,-85.5 642.88,-82.39 652.57,-79.54 661.8,-77.07"/>
<polygon fill="#63b8ff" stroke="#63b8ff" points="579.89,-104.7 571.7,-111.42 582.29,-111.27 579.89,-104.7"/>
</a>
</g>
</g>
</g>
</svg>
