<?xml version="1.0" encoding="UTF-8" standalone="no"?>
<!DOCTYPE svg PUBLIC "-//W3C//DTD SVG 1.1//EN"
 "http://www.w3.org/Graphics/SVG/1.1/DTD/svg11.dtd">
<!-- Generated by graphviz version 2.43.0 (0)
 -->
<!-- Title: Model::Extern_Model Pages: 1 -->
<!--zoomable 455 -->
<svg id="main" version="1.1" xmlns="http://www.w3.org/2000/svg" xmlns:xlink="http://www.w3.org/1999/xlink" xml:space="preserve" onload="init(evt)">
<style type="text/css"><![CDATA[
.edge:hover path { stroke: red; }
.edge:hover polygon { stroke: red; fill: red; }
]]></style>
<script type="text/javascript"><![CDATA[
var edges = document.getElementsByTagName('g');
if (edges && edges.length) {
  for (var i=0;i<edges.length;i++) {
    if (edges[i].id.substr(0,4)=='edge') {
      edges[i].setAttribute('class','edge');
    }
  }
}
]]></script>
        <defs>
                <circle id="rim" cx="0" cy="0" r="7"/>
                <circle id="rim2" cx="0" cy="0" r="3.5"/>
                <g id="zoomPlus">
                        <use xlink:href="#rim" fill="#404040">
                                <set attributeName="fill" to="#808080" begin="zoomplus.mouseover" end="zoomplus.mouseout"/>
                        </use>
                        <path d="M-4,0h8M0,-4v8" fill="none" stroke="white" stroke-width="1.5" pointer-events="none"/>
                </g>
                <g id="zoomMin">
                        <use xlink:href="#rim" fill="#404040">
                                <set attributeName="fill" to="#808080" begin="zoomminus.mouseover" end="zoomminus.mouseout"/>
                        </use>
                        <path d="M-4,0h8" fill="none" stroke="white" stroke-width="1.5" pointer-events="none"/>
                </g>
                <g id="dirArrow">
                        <path fill="none" stroke="white" stroke-width="1.5" d="M0,-3.0v7 M-2.5,-0.5L0,-3.0L2.5,-0.5"/>
                </g>
               <g id="resetDef">
                       <use xlink:href="#rim2" fill="#404040">
                               <set attributeName="fill" to="#808080" begin="reset.mouseover" end="reset.mouseout"/>
                       </use>
               </g>
        </defs>

<script type="text/javascript">
var viewWidth = 727;
var viewHeight = 455;
var sectionId = 'dynsection-0';
</script>
<script xlink:href="svgpan.js"/>
<svg id="graph" class="graph">
<g id="viewport">
<title>Model::Extern_Model</title>
<polygon fill="white" stroke="transparent" points="-4,4 -4,-450.5 723,-450.5 723,4 -4,4"/>
<!-- Node1 -->
<g id="node1" class="node">
<title>Node1</title>
<g id="a_node1"><a xlink:title="Extern_Model : Type_Model.">
<polygon fill="#bfbfbf" stroke="black" points="259,-208.5 259,-227.5 378,-227.5 378,-208.5 259,-208.5"/>
<text text-anchor="middle" x="318.5" y="-215.5" font-family="Helvetica,sans-Serif" font-size="10.00">Model::Extern_Model</text>
</a>
</g>
</g>
<!-- Node4 -->
<g id="node4" class="node">
<title>Node4</title>
<g id="a_node4"><a xlink:href="struct_e_b_p_f_1_1_counter_array___model.html" target="_top" xlink:title=" ">
<polygon fill="white" stroke="black" points="423,-416 423,-446 534,-446 534,-416 423,-416"/>
<text text-anchor="start" x="431" y="-434" font-family="Helvetica,sans-Serif" font-size="10.00">EBPF::CounterArray</text>
<text text-anchor="middle" x="478.5" y="-423" font-family="Helvetica,sans-Serif" font-size="10.00">_Model</text>
</a>
</g>
</g>
<!-- Node1&#45;&gt;Node4 -->
<g id="edge3" class="edge">
<title>Node1&#45;&gt;Node4</title>
<path fill="none" stroke="midnightblue" d="M324.26,-237.41C334.42,-275.01 361.7,-358.25 414,-406 418.2,-409.83 423.06,-413.11 428.18,-415.9"/>
<polygon fill="midnightblue" stroke="midnightblue" points="327.63,-236.49 321.74,-227.69 320.86,-238.25 327.63,-236.49"/>
</g>
<!-- Node5 -->
<g id="node5" class="node">
<title>Node5</title>
<g id="a_node5"><a xlink:href="struct_e_b_p_f_1_1_table_impl___model.html" target="_top" xlink:title=" ">
<polygon fill="white" stroke="black" points="414,-377.5 414,-396.5 543,-396.5 543,-377.5 414,-377.5"/>
<text text-anchor="middle" x="478.5" y="-384.5" font-family="Helvetica,sans-Serif" font-size="10.00">EBPF::TableImpl_Model</text>
</a>
</g>
</g>
<!-- Node1&#45;&gt;Node5 -->
<g id="edge4" class="edge">
<title>Node1&#45;&gt;Node5</title>
<path fill="none" stroke="midnightblue" d="M326.43,-237.29C338.91,-269.28 368.2,-333.21 414,-368 419.13,-371.9 425.06,-375 431.18,-377.47"/>
<polygon fill="midnightblue" stroke="midnightblue" points="329.64,-235.89 322.84,-227.76 323.09,-238.35 329.64,-235.89"/>
</g>
<!-- Node6 -->
<g id="node6" class="node">
<title>Node6</title>
<g id="a_node6"><a xlink:href="class_p4_1_1_packet_in.html" target="_top" xlink:title=" ">
<polygon fill="white" stroke="black" points="441,-339.5 441,-358.5 516,-358.5 516,-339.5 441,-339.5"/>
<text text-anchor="middle" x="478.5" y="-346.5" font-family="Helvetica,sans-Serif" font-size="10.00">P4::PacketIn</text>
</a>
</g>
</g>
<!-- Node1&#45;&gt;Node6 -->
<g id="edge5" class="edge">
<title>Node1&#45;&gt;Node6</title>
<path fill="none" stroke="midnightblue" d="M330.3,-236.55C345.73,-261.44 376.43,-305.37 414,-330 422.08,-335.3 431.7,-339.17 440.97,-341.97"/>
<polygon fill="midnightblue" stroke="midnightblue" points="333.14,-234.48 324.98,-227.73 327.15,-238.1 333.14,-234.48"/>
</g>
<!-- Node7 -->
<g id="node7" class="node">
<title>Node7</title>
<g id="a_node7"><a xlink:href="class_p4_1_1_packet_out.html" target="_top" xlink:title=" ">
<polygon fill="white" stroke="black" points="437,-301.5 437,-320.5 520,-320.5 520,-301.5 437,-301.5"/>
<text text-anchor="middle" x="478.5" y="-308.5" font-family="Helvetica,sans-Serif" font-size="10.00">P4::PacketOut</text>
</a>
</g>
</g>
<!-- Node1&#45;&gt;Node7 -->
<g id="edge6" class="edge">
<title>Node1&#45;&gt;Node7</title>
<path fill="none" stroke="midnightblue" d="M336.47,-234.55C354.4,-251.19 384.15,-276.55 414,-292 421.26,-295.75 429.37,-298.89 437.31,-301.46"/>
<polygon fill="midnightblue" stroke="midnightblue" points="338.78,-231.91 329.11,-227.58 333.97,-236.99 338.78,-231.91"/>
</g>
<!-- Node8 -->
<g id="node8" class="node">
<title>Node8</title>
<g id="a_node8"><a xlink:href="struct_p4_v1_1_1_action_profile___model.html" target="_top" xlink:title=" ">
<polygon fill="white" stroke="black" points="424,-252 424,-282 533,-282 533,-252 424,-252"/>
<text text-anchor="start" x="432" y="-270" font-family="Helvetica,sans-Serif" font-size="10.00">P4V1::ActionProfile</text>
<text text-anchor="middle" x="478.5" y="-259" font-family="Helvetica,sans-Serif" font-size="10.00">_Model</text>
</a>
</g>
</g>
<!-- Node1&#45;&gt;Node8 -->
<g id="edge7" class="edge">
<title>Node1&#45;&gt;Node8</title>
<path fill="none" stroke="midnightblue" d="M359.94,-230.54C381,-237.07 406.89,-245.1 429.01,-251.96"/>
<polygon fill="midnightblue" stroke="midnightblue" points="360.93,-227.18 350.34,-227.56 358.85,-233.87 360.93,-227.18"/>
</g>
<!-- Node9 -->
<g id="node9" class="node">
<title>Node9</title>
<g id="a_node9"><a xlink:href="struct_p4_v1_1_1_action_selector___model.html" target="_top" xlink:title=" ">
<polygon fill="white" stroke="black" points="419.5,-203 419.5,-233 537.5,-233 537.5,-203 419.5,-203"/>
<text text-anchor="start" x="427.5" y="-221" font-family="Helvetica,sans-Serif" font-size="10.00">P4V1::ActionSelector</text>
<text text-anchor="middle" x="478.5" y="-210" font-family="Helvetica,sans-Serif" font-size="10.00">_Model</text>
</a>
</g>
</g>
<!-- Node1&#45;&gt;Node9 -->
<g id="edge8" class="edge">
<title>Node1&#45;&gt;Node9</title>
<path fill="none" stroke="midnightblue" d="M388.53,-218C398.83,-218 409.36,-218 419.41,-218"/>
<polygon fill="midnightblue" stroke="midnightblue" points="388.33,-214.5 378.33,-218 388.33,-221.5 388.33,-214.5"/>
</g>
<!-- Node10 -->
<g id="node10" class="node">
<title>Node10</title>
<g id="a_node10"><a xlink:href="struct_p4_v1_1_1_cloner___model.html" target="_top" xlink:title=" ">
<polygon fill="white" stroke="black" points="421.5,-164.5 421.5,-183.5 535.5,-183.5 535.5,-164.5 421.5,-164.5"/>
<text text-anchor="middle" x="478.5" y="-171.5" font-family="Helvetica,sans-Serif" font-size="10.00">P4V1::Cloner_Model</text>
</a>
</g>
</g>
<!-- Node1&#45;&gt;Node10 -->
<g id="edge9" class="edge">
<title>Node1&#45;&gt;Node10</title>
<path fill="none" stroke="midnightblue" d="M363.48,-205.75C388.71,-198.73 419.9,-190.04 443.28,-183.53"/>
<polygon fill="midnightblue" stroke="midnightblue" points="362.48,-202.4 353.78,-208.45 364.36,-209.14 362.48,-202.4"/>
</g>
<!-- Node11 -->
<g id="node11" class="node">
<title>Node11</title>
<g id="a_node11"><a xlink:href="struct_p4_v1_1_1_counter_or_meter___model.html" target="_top" xlink:title=" ">
<polygon fill="white" stroke="black" points="416,-115 416,-145 541,-145 541,-115 416,-115"/>
<text text-anchor="start" x="424" y="-133" font-family="Helvetica,sans-Serif" font-size="10.00">P4V1::CounterOrMeter</text>
<text text-anchor="middle" x="478.5" y="-122" font-family="Helvetica,sans-Serif" font-size="10.00">_Model</text>
</a>
</g>
</g>
<!-- Node1&#45;&gt;Node11 -->
<g id="edge10" class="edge">
<title>Node1&#45;&gt;Node11</title>
<path fill="none" stroke="midnightblue" d="M340.17,-202.34C358.8,-188.69 387.3,-168.95 414,-155 420.83,-151.43 428.28,-148.07 435.6,-145.03"/>
<polygon fill="midnightblue" stroke="midnightblue" points="338.06,-199.55 332.11,-208.32 342.22,-205.18 338.06,-199.55"/>
</g>
<!-- Node16 -->
<g id="node16" class="node">
<title>Node16</title>
<g id="a_node16"><a xlink:href="struct_p4_v1_1_1_register___model.html" target="_top" xlink:title=" ">
<polygon fill="white" stroke="black" points="417,-76.5 417,-95.5 540,-95.5 540,-76.5 417,-76.5"/>
<text text-anchor="middle" x="478.5" y="-83.5" font-family="Helvetica,sans-Serif" font-size="10.00">P4V1::Register_Model</text>
</a>
</g>
</g>
<!-- Node1&#45;&gt;Node16 -->
<g id="edge15" class="edge">
<title>Node1&#45;&gt;Node16</title>
<path fill="none" stroke="midnightblue" d="M330.26,-199.29C345.65,-174.17 376.29,-129.84 414,-105 419.86,-101.14 426.54,-98.04 433.3,-95.56"/>
<polygon fill="midnightblue" stroke="midnightblue" points="327.07,-197.8 324.96,-208.18 333.08,-201.39 327.07,-197.8"/>
</g>
<!-- Node17 -->
<g id="node17" class="node">
<title>Node17</title>
<g id="a_node17"><a xlink:href="class_p4_v1_1_1_truncate.html" target="_top" xlink:title=" ">
<polygon fill="white" stroke="black" points="434,-38.5 434,-57.5 523,-57.5 523,-38.5 434,-38.5"/>
<text text-anchor="middle" x="478.5" y="-45.5" font-family="Helvetica,sans-Serif" font-size="10.00">P4V1::Truncate</text>
</a>
</g>
</g>
<!-- Node1&#45;&gt;Node17 -->
<g id="edge16" class="edge">
<title>Node1&#45;&gt;Node17</title>
<path fill="none" stroke="midnightblue" d="M326.39,-198.58C338.82,-166.38 368.03,-102.03 414,-67 419.86,-62.54 426.76,-59.12 433.81,-56.5"/>
<polygon fill="midnightblue" stroke="midnightblue" points="323.03,-197.58 322.82,-208.18 329.59,-200.02 323.03,-197.58"/>
</g>
<!-- Node18 -->
<g id="node18" class="node">
<title>Node18</title>
<g id="a_node18"><a xlink:href="struct_u_b_p_f_1_1_register___model.html" target="_top" xlink:title=" ">
<polygon fill="white" stroke="black" points="416.5,-0.5 416.5,-19.5 540.5,-19.5 540.5,-0.5 416.5,-0.5"/>
<text text-anchor="middle" x="478.5" y="-7.5" font-family="Helvetica,sans-Serif" font-size="10.00">UBPF::Register_Model</text>
</a>
</g>
</g>
<!-- Node1&#45;&gt;Node18 -->
<g id="edge17" class="edge">
<title>Node1&#45;&gt;Node18</title>
<path fill="none" stroke="midnightblue" d="M323.74,-198.63C333.13,-160.4 359.3,-74.97 414,-29 418.58,-25.15 423.92,-22.08 429.52,-19.63"/>
<polygon fill="midnightblue" stroke="midnightblue" points="320.31,-197.95 321.44,-208.49 327.12,-199.54 320.31,-197.95"/>
</g>
<!-- Node2 -->
<g id="node2" class="node">
<title>Node2</title>
<g id="a_node2"><a xlink:href="struct_model_1_1_type___model.html" target="_top" xlink:title=" ">
<polygon fill="white" stroke="black" points="113,-208.5 113,-227.5 223,-227.5 223,-208.5 113,-208.5"/>
<text text-anchor="middle" x="168" y="-215.5" font-family="Helvetica,sans-Serif" font-size="10.00">Model::Type_Model</text>
</a>
</g>
</g>
<!-- Node2&#45;&gt;Node1 -->
<g id="edge1" class="edge">
<title>Node2&#45;&gt;Node1</title>
<path fill="none" stroke="midnightblue" d="M233.04,-218C241.67,-218 250.48,-218 259,-218"/>
<polygon fill="midnightblue" stroke="midnightblue" points="233.03,-214.5 223.03,-218 233.03,-221.5 233.03,-214.5"/>
</g>
<!-- Node3 -->
<g id="node3" class="node">
<title>Node3</title>
<g id="a_node3"><a xlink:href="struct_model_1_1_elem.html" target="_top" xlink:title=" ">
<polygon fill="white" stroke="black" points="0,-208.5 0,-227.5 77,-227.5 77,-208.5 0,-208.5"/>
<text text-anchor="middle" x="38.5" y="-215.5" font-family="Helvetica,sans-Serif" font-size="10.00">Model::Elem</text>
</a>
</g>
</g>
<!-- Node3&#45;&gt;Node2 -->
<g id="edge2" class="edge">
<title>Node3&#45;&gt;Node2</title>
<path fill="none" stroke="midnightblue" d="M87.31,-218C95.59,-218 104.26,-218 112.7,-218"/>
<polygon fill="midnightblue" stroke="midnightblue" points="87.06,-214.5 77.06,-218 87.06,-221.5 87.06,-214.5"/>
</g>
<!-- Node12 -->
<g id="node12" class="node">
<title>Node12</title>
<g id="a_node12"><a xlink:href="struct_p4_v1_1_1_counter___model.html" target="_top" xlink:title=" ">
<polygon fill="white" stroke="black" points="588.5,-186.5 588.5,-205.5 709.5,-205.5 709.5,-186.5 588.5,-186.5"/>
<text text-anchor="middle" x="649" y="-193.5" font-family="Helvetica,sans-Serif" font-size="10.00">P4V1::Counter_Model</text>
</a>
</g>
</g>
<!-- Node11&#45;&gt;Node12 -->
<g id="edge11" class="edge">
<title>Node11&#45;&gt;Node12</title>
<path fill="none" stroke="midnightblue" d="M529.8,-148.97C534.3,-150.92 538.76,-152.94 543,-155 559.67,-163.08 561.98,-168.7 579,-176 588.4,-180.03 598.86,-183.53 608.73,-186.43"/>
<polygon fill="midnightblue" stroke="midnightblue" points="531.12,-145.73 520.55,-145.09 528.42,-152.19 531.12,-145.73"/>
</g>
<!-- Node13 -->
<g id="node13" class="node">
<title>Node13</title>
<g id="a_node13"><a xlink:href="struct_p4_v1_1_1_direct_counter___model.html" target="_top" xlink:title=" ">
<polygon fill="white" stroke="black" points="591.5,-137 591.5,-167 706.5,-167 706.5,-137 591.5,-137"/>
<text text-anchor="start" x="599.5" y="-155" font-family="Helvetica,sans-Serif" font-size="10.00">P4V1::DirectCounter</text>
<text text-anchor="middle" x="649" y="-144" font-family="Helvetica,sans-Serif" font-size="10.00">_Model</text>
</a>
</g>
</g>
<!-- Node11&#45;&gt;Node13 -->
<g id="edge12" class="edge">
<title>Node11&#45;&gt;Node13</title>
<path fill="none" stroke="midnightblue" d="M551.37,-139.38C564.7,-141.12 578.45,-142.92 591.25,-144.59"/>
<polygon fill="midnightblue" stroke="midnightblue" points="551.66,-135.89 541.29,-138.07 550.75,-142.83 551.66,-135.89"/>
</g>
<!-- Node14 -->
<g id="node14" class="node">
<title>Node14</title>
<g id="a_node14"><a xlink:href="struct_p4_v1_1_1_direct_meter___model.html" target="_top" xlink:title=" ">
<polygon fill="white" stroke="black" points="579,-98.5 579,-117.5 719,-117.5 719,-98.5 579,-98.5"/>
<text text-anchor="middle" x="649" y="-105.5" font-family="Helvetica,sans-Serif" font-size="10.00">P4V1::DirectMeter_Model</text>
</a>
</g>
</g>
<!-- Node11&#45;&gt;Node14 -->
<g id="edge13" class="edge">
<title>Node11&#45;&gt;Node14</title>
<path fill="none" stroke="midnightblue" d="M551.43,-120.61C560.51,-119.42 569.79,-118.21 578.82,-117.03"/>
<polygon fill="midnightblue" stroke="midnightblue" points="550.75,-117.17 541.29,-121.93 551.66,-124.11 550.75,-117.17"/>
</g>
<!-- Node15 -->
<g id="node15" class="node">
<title>Node15</title>
<g id="a_node15"><a xlink:href="struct_p4_v1_1_1_meter___model.html" target="_top" xlink:title=" ">
<polygon fill="white" stroke="black" points="593.5,-60.5 593.5,-79.5 704.5,-79.5 704.5,-60.5 593.5,-60.5"/>
<text text-anchor="middle" x="649" y="-67.5" font-family="Helvetica,sans-Serif" font-size="10.00">P4V1::Meter_Model</text>
</a>
</g>
</g>
<!-- Node11&#45;&gt;Node15 -->
<g id="edge14" class="edge">
<title>Node11&#45;&gt;Node15</title>
<path fill="none" stroke="midnightblue" d="M528.17,-111.09C533.19,-109.06 538.21,-107.01 543,-105 559.15,-98.24 562.51,-94.9 579,-89 588.71,-85.53 599.38,-82.31 609.36,-79.55"/>
<polygon fill="midnightblue" stroke="midnightblue" points="526.55,-107.97 518.56,-114.93 529.15,-114.47 526.55,-107.97"/>
</g>
</g>
</svg>
        <g id="navigator" transform="translate(0 0)" fill="#404254">
                <rect fill="#f2f5e9" fill-opacity="0.5" stroke="#606060" stroke-width=".5" x="0" y="0" width="60" height="60"/>
                <use id="zoomplus" xlink:href="#zoomPlus" x="17" y="9" onmousedown="handleZoom(evt,'in')"/>
                <use id="zoomminus" xlink:href="#zoomMin" x="42" y="9" onmousedown="handleZoom(evt,'out')"/>
                <use id="reset" xlink:href="#resetDef" x="30" y="36" onmousedown="handleReset()"/>
                <g id="arrowUp" xlink:href="#dirArrow" transform="translate(30 24)" onmousedown="handlePan(0,-1)">
                  <use xlink:href="#rim" fill="#404040">
                        <set attributeName="fill" to="#808080" begin="arrowUp.mouseover" end="arrowUp.mouseout"/>
                  </use>
                  <path fill="none" stroke="white" stroke-width="1.5" d="M0,-3.0v7 M-2.5,-0.5L0,-3.0L2.5,-0.5"/>
                </g>
                <g id="arrowRight" xlink:href="#dirArrow" transform="rotate(90) translate(36 -43)" onmousedown="handlePan(1,0)">
                  <use xlink:href="#rim" fill="#404040">
                        <set attributeName="fill" to="#808080" begin="arrowRight.mouseover" end="arrowRight.mouseout"/>
                  </use>
                  <path fill="none" stroke="white" stroke-width="1.5" d="M0,-3.0v7 M-2.5,-0.5L0,-3.0L2.5,-0.5"/>
                </g>
                <g id="arrowDown" xlink:href="#dirArrow" transform="rotate(180) translate(-30 -48)" onmousedown="handlePan(0,1)">
                  <use xlink:href="#rim" fill="#404040">
                        <set attributeName="fill" to="#808080" begin="arrowDown.mouseover" end="arrowDown.mouseout"/>
                  </use>
                  <path fill="none" stroke="white" stroke-width="1.5" d="M0,-3.0v7 M-2.5,-0.5L0,-3.0L2.5,-0.5"/>
                </g>
                <g id="arrowLeft" xlink:href="#dirArrow" transform="rotate(270) translate(-36 17)" onmousedown="handlePan(-1,0)">
                  <use xlink:href="#rim" fill="#404040">
                        <set attributeName="fill" to="#808080" begin="arrowLeft.mouseover" end="arrowLeft.mouseout"/>
                  </use>
                  <path fill="none" stroke="white" stroke-width="1.5" d="M0,-3.0v7 M-2.5,-0.5L0,-3.0L2.5,-0.5"/>
                </g>
        </g>
        <svg viewBox="0 0 15 15" width="100%" height="30px" preserveAspectRatio="xMaxYMin meet">
         <g id="arrow_out" transform="scale(0.3 0.3)">
          <a xlink:href="struct_model_1_1_extern___model__inherit__graph_org.svg" target="_base">
           <rect id="button" ry="5" rx="5" y="6" x="6" height="38" width="38"
                fill="#f2f5e9" fill-opacity="0.5" stroke="#606060" stroke-width="1.0"/>
           <path id="arrow"
             d="M 11.500037,31.436501 C 11.940474,20.09759 22.043105,11.32322 32.158766,21.979434 L 37.068811,17.246167 C 37.068811,17.246167 37.088388,32 37.088388,32 L 22.160133,31.978069 C 22.160133,31.978069 26.997745,27.140456 26.997745,27.140456 C 18.528582,18.264221 13.291696,25.230495 11.500037,31.436501 z"
             style="fill:#404040;"/>
          </a>
         </g>
        </svg>
</svg>
