<?xml version="1.0" encoding="UTF-8" standalone="no"?>
<!DOCTYPE svg PUBLIC "-//W3C//DTD SVG 1.1//EN"
 "http://www.w3.org/Graphics/SVG/1.1/DTD/svg11.dtd">
<!-- Generated by graphviz version 2.43.0 (0)
 -->
<!-- Title: P4::Model::Type_Model Pages: 1 -->
<svg width="812pt" height="716pt"
 viewBox="0.00 0.00 812.00 716.00" xmlns="http://www.w3.org/2000/svg" xmlns:xlink="http://www.w3.org/1999/xlink">
<g id="graph0" class="graph" transform="scale(1 1) rotate(0) translate(4 712)">
<title>P4::Model::Type_Model</title>
<!-- Node1 -->
<g id="Node000001" class="node">
<title>Node1</title>
<g id="a_Node000001"><a xlink:title=" ">
<polygon fill="#999999" stroke="#666666" points="259,-253.5 131,-253.5 131,-234.5 259,-234.5 259,-253.5"/>
<text text-anchor="middle" x="195" y="-241.5" font-family="Helvetica,sans-Serif" font-size="10.00">P4::Model::Type_Model</text>
</a>
</g>
</g>
<!-- Node3 -->
<g id="Node000003" class="node">
<title>Node3</title>
<g id="a_Node000003"><a xlink:href="struct_p4_1_1_model_1_1_enum___model.html" target="_top" xlink:title="Enum_Model : Type_Model.">
<polygon fill="white" stroke="#666666" points="439.5,-582.5 305.5,-582.5 305.5,-563.5 439.5,-563.5 439.5,-582.5"/>
<text text-anchor="middle" x="372.5" y="-570.5" font-family="Helvetica,sans-Serif" font-size="10.00">P4::Model::Enum_Model</text>
</a>
</g>
</g>
<!-- Node1&#45;&gt;Node3 -->
<g id="edge2_Node000001_Node000003" class="edge">
<title>Node1&#45;&gt;Node3</title>
<g id="a_edge2_Node000001_Node000003"><a xlink:title=" ">
<path fill="none" stroke="#63b8ff" d="M206.04,-262.83C238.8,-324.24 341.84,-517.4 366.27,-563.19"/>
<polygon fill="#63b8ff" stroke="#63b8ff" points="209.05,-261.02 201.25,-253.85 202.87,-264.32 209.05,-261.02"/>
</a>
</g>
</g>
<!-- Node9 -->
<g id="Node000009" class="node">
<title>Node9</title>
<g id="a_Node000009"><a xlink:href="struct_p4_1_1_model_1_1_extern___model.html" target="_top" xlink:title="Extern_Model : Type_Model.">
<polygon fill="white" stroke="#666666" points="441,-253.5 304,-253.5 304,-234.5 441,-234.5 441,-253.5"/>
<text text-anchor="middle" x="372.5" y="-241.5" font-family="Helvetica,sans-Serif" font-size="10.00">P4::Model::Extern_Model</text>
</a>
</g>
</g>
<!-- Node1&#45;&gt;Node9 -->
<g id="edge8_Node000001_Node000009" class="edge">
<title>Node1&#45;&gt;Node9</title>
<g id="a_edge8_Node000001_Node000009"><a xlink:title=" ">
<path fill="none" stroke="#63b8ff" d="M269.64,-244C280.96,-244 292.61,-244 303.79,-244"/>
<polygon fill="#63b8ff" stroke="#63b8ff" points="269.36,-240.5 259.36,-244 269.36,-247.5 269.36,-240.5"/>
</a>
</g>
</g>
<!-- Node25 -->
<g id="Node000025" class="node">
<title>Node25</title>
<g id="a_Node000025"><a xlink:href="struct_p4_1_1_p4_v1_1_1_standard_metadata_type___model.html" target="_top" xlink:title=" ">
<polygon fill="white" stroke="#bfbfbf" points="450,-216 295,-216 295,-186 450,-186 450,-216"/>
<text text-anchor="start" x="303" y="-204" font-family="Helvetica,sans-Serif" font-size="10.00">P4::P4V1::StandardMetadata</text>
<text text-anchor="middle" x="372.5" y="-193" font-family="Helvetica,sans-Serif" font-size="10.00">Type_Model</text>
</a>
</g>
</g>
<!-- Node1&#45;&gt;Node25 -->
<g id="edge24_Node000001_Node000025" class="edge">
<title>Node1&#45;&gt;Node25</title>
<g id="a_edge24_Node000001_Node000025"><a xlink:title=" ">
<path fill="none" stroke="#63b8ff" d="M244.89,-232.02C265.14,-227.06 288.86,-221.25 310.25,-216.01"/>
<polygon fill="#63b8ff" stroke="#63b8ff" points="243.83,-228.68 234.95,-234.46 245.49,-235.48 243.83,-228.68"/>
</a>
</g>
</g>
<!-- Node2 -->
<g id="Node000002" class="node">
<title>Node2</title>
<g id="a_Node000002"><a xlink:href="struct_p4_1_1_model_1_1_elem.html" target="_top" xlink:title=" ">
<polygon fill="white" stroke="#bfbfbf" points="95,-253.5 0,-253.5 0,-234.5 95,-234.5 95,-253.5"/>
<text text-anchor="middle" x="47.5" y="-241.5" font-family="Helvetica,sans-Serif" font-size="10.00">P4::Model::Elem</text>
</a>
</g>
</g>
<!-- Node2&#45;&gt;Node1 -->
<g id="edge1_Node000001_Node000002" class="edge">
<title>Node2&#45;&gt;Node1</title>
<g id="a_edge1_Node000001_Node000002"><a xlink:title=" ">
<path fill="none" stroke="#63b8ff" d="M105.34,-244C113.69,-244 122.34,-244 130.8,-244"/>
<polygon fill="#63b8ff" stroke="#63b8ff" points="105.34,-240.5 95.34,-244 105.34,-247.5 105.34,-240.5"/>
</a>
</g>
</g>
<!-- Node4 -->
<g id="Node000004" class="node">
<title>Node4</title>
<g id="a_Node000004"><a xlink:href="struct_p4_1_1_p4_v1_1_1_algorithm___model.html" target="_top" xlink:title=" ">
<polygon fill="white" stroke="#bfbfbf" points="614,-708 501,-708 501,-678 614,-678 614,-708"/>
<text text-anchor="start" x="509" y="-696" font-family="Helvetica,sans-Serif" font-size="10.00">P4::P4V1::Algorithm</text>
<text text-anchor="middle" x="557.5" y="-685" font-family="Helvetica,sans-Serif" font-size="10.00">_Model</text>
</a>
</g>
</g>
<!-- Node3&#45;&gt;Node4 -->
<g id="edge3_Node000003_Node000004" class="edge">
<title>Node3&#45;&gt;Node4</title>
<g id="a_edge3_Node000003_Node000004"><a xlink:title=" ">
<path fill="none" stroke="#63b8ff" d="M389.17,-589.84C409.63,-610.95 447.41,-647.05 486,-669 491.84,-672.32 498.22,-675.29 504.68,-677.9"/>
<polygon fill="#63b8ff" stroke="#63b8ff" points="391.64,-587.36 382.21,-582.54 386.57,-592.19 391.64,-587.36"/>
</a>
</g>
</g>
<!-- Node5 -->
<g id="Node000005" class="node">
<title>Node5</title>
<g id="a_Node000005"><a xlink:href="struct_p4_1_1_p4_v1_1_1_clone_type___model.html" target="_top" xlink:title=" ">
<polygon fill="white" stroke="#bfbfbf" points="615.5,-660 499.5,-660 499.5,-630 615.5,-630 615.5,-660"/>
<text text-anchor="start" x="507.5" y="-648" font-family="Helvetica,sans-Serif" font-size="10.00">P4::P4V1::CloneType</text>
<text text-anchor="middle" x="557.5" y="-637" font-family="Helvetica,sans-Serif" font-size="10.00">_Model</text>
</a>
</g>
</g>
<!-- Node3&#45;&gt;Node5 -->
<g id="edge4_Node000003_Node000005" class="edge">
<title>Node3&#45;&gt;Node5</title>
<g id="a_edge4_Node000003_Node000005"><a xlink:title=" ">
<path fill="none" stroke="#63b8ff" d="M403.81,-586.67C426.31,-596.63 457.84,-610.22 486,-621 493.85,-624.01 502.26,-627.03 510.43,-629.87"/>
<polygon fill="#63b8ff" stroke="#63b8ff" points="405.02,-583.37 394.46,-582.5 402.17,-589.77 405.02,-583.37"/>
</a>
</g>
</g>
<!-- Node6 -->
<g id="Node000006" class="node">
<title>Node6</title>
<g id="a_Node000006"><a xlink:href="struct_p4_1_1_p4_v1_1_1_counter_type___model.html" target="_top" xlink:title=" ">
<polygon fill="white" stroke="#bfbfbf" points="620.5,-612 494.5,-612 494.5,-582 620.5,-582 620.5,-612"/>
<text text-anchor="start" x="502.5" y="-600" font-family="Helvetica,sans-Serif" font-size="10.00">P4::P4V1::CounterType</text>
<text text-anchor="middle" x="557.5" y="-589" font-family="Helvetica,sans-Serif" font-size="10.00">_Model</text>
</a>
</g>
</g>
<!-- Node3&#45;&gt;Node6 -->
<g id="edge5_Node000003_Node000006" class="edge">
<title>Node3&#45;&gt;Node6</title>
<g id="a_edge5_Node000003_Node000006"><a xlink:title=" ">
<path fill="none" stroke="#63b8ff" d="M449.77,-583C464.67,-584.96 480.13,-586.98 494.5,-588.87"/>
<polygon fill="#63b8ff" stroke="#63b8ff" points="449.94,-579.49 439.57,-581.66 449.03,-586.44 449.94,-579.49"/>
</a>
</g>
</g>
<!-- Node7 -->
<g id="Node000007" class="node">
<title>Node7</title>
<g id="a_Node000007"><a xlink:href="struct_p4_1_1_p4_v1_1_1_meter_type___model.html" target="_top" xlink:title=" ">
<polygon fill="white" stroke="#bfbfbf" points="615.5,-564 499.5,-564 499.5,-534 615.5,-534 615.5,-564"/>
<text text-anchor="start" x="507.5" y="-552" font-family="Helvetica,sans-Serif" font-size="10.00">P4::P4V1::MeterType</text>
<text text-anchor="middle" x="557.5" y="-541" font-family="Helvetica,sans-Serif" font-size="10.00">_Model</text>
</a>
</g>
</g>
<!-- Node3&#45;&gt;Node7 -->
<g id="edge6_Node000003_Node000007" class="edge">
<title>Node3&#45;&gt;Node7</title>
<g id="a_edge6_Node000003_Node000007"><a xlink:title=" ">
<path fill="none" stroke="#63b8ff" d="M449.78,-563C466.35,-560.82 483.62,-558.56 499.3,-556.5"/>
<polygon fill="#63b8ff" stroke="#63b8ff" points="449.03,-559.56 439.57,-564.34 449.94,-566.51 449.03,-559.56"/>
</a>
</g>
</g>
<!-- Node8 -->
<g id="Node000008" class="node">
<title>Node8</title>
<g id="a_Node000008"><a xlink:href="struct_p4_1_1_u_b_p_f_1_1_algorithm___model.html" target="_top" xlink:title=" ">
<polygon fill="white" stroke="#bfbfbf" points="614.5,-516 500.5,-516 500.5,-486 614.5,-486 614.5,-516"/>
<text text-anchor="start" x="508.5" y="-504" font-family="Helvetica,sans-Serif" font-size="10.00">P4::UBPF::Algorithm</text>
<text text-anchor="middle" x="557.5" y="-493" font-family="Helvetica,sans-Serif" font-size="10.00">_Model</text>
</a>
</g>
</g>
<!-- Node3&#45;&gt;Node8 -->
<g id="edge7_Node000003_Node000008" class="edge">
<title>Node3&#45;&gt;Node8</title>
<g id="a_edge7_Node000003_Node000008"><a xlink:title=" ">
<path fill="none" stroke="#63b8ff" d="M403.81,-559.33C426.31,-549.37 457.84,-535.78 486,-525 493.85,-521.99 502.26,-518.97 510.43,-516.13"/>
<polygon fill="#63b8ff" stroke="#63b8ff" points="402.17,-556.23 394.46,-563.5 405.02,-562.63 402.17,-556.23"/>
</a>
</g>
</g>
<!-- Node10 -->
<g id="Node000010" class="node">
<title>Node10</title>
<g id="a_Node000010"><a xlink:href="struct_p4_1_1_e_b_p_f_1_1_counter_array___model.html" target="_top" xlink:title=" ">
<polygon fill="white" stroke="#bfbfbf" points="622,-468 493,-468 493,-438 622,-438 622,-468"/>
<text text-anchor="start" x="501" y="-456" font-family="Helvetica,sans-Serif" font-size="10.00">P4::EBPF::CounterArray</text>
<text text-anchor="middle" x="557.5" y="-445" font-family="Helvetica,sans-Serif" font-size="10.00">_Model</text>
</a>
</g>
</g>
<!-- Node9&#45;&gt;Node10 -->
<g id="edge9_Node000009_Node000010" class="edge">
<title>Node9&#45;&gt;Node10</title>
<g id="a_edge9_Node000009_Node000010"><a xlink:title=" ">
<path fill="none" stroke="#63b8ff" d="M380.12,-263.34C393.89,-300.77 429.17,-383.39 486,-429 490.24,-432.4 494.98,-435.33 499.95,-437.85"/>
<polygon fill="#63b8ff" stroke="#63b8ff" points="383.32,-261.91 376.67,-253.66 376.73,-264.26 383.32,-261.91"/>
</a>
</g>
</g>
<!-- Node11 -->
<g id="Node000011" class="node">
<title>Node11</title>
<g id="a_Node000011"><a xlink:href="struct_p4_1_1_e_b_p_f_1_1_table_impl___model.html" target="_top" xlink:title=" ">
<polygon fill="white" stroke="#bfbfbf" points="613.5,-420 501.5,-420 501.5,-390 613.5,-390 613.5,-420"/>
<text text-anchor="start" x="509.5" y="-408" font-family="Helvetica,sans-Serif" font-size="10.00">P4::EBPF::TableImpl</text>
<text text-anchor="middle" x="557.5" y="-397" font-family="Helvetica,sans-Serif" font-size="10.00">_Model</text>
</a>
</g>
</g>
<!-- Node9&#45;&gt;Node11 -->
<g id="edge10_Node000009_Node000011" class="edge">
<title>Node9&#45;&gt;Node11</title>
<g id="a_edge10_Node000009_Node000011"><a xlink:title=" ">
<path fill="none" stroke="#63b8ff" d="M383.84,-262.25C401.25,-291.43 439.17,-348.57 486,-381 490.89,-384.39 496.3,-387.33 501.88,-389.88"/>
<polygon fill="#63b8ff" stroke="#63b8ff" points="386.8,-260.38 378.73,-253.51 380.75,-263.91 386.8,-260.38"/>
</a>
</g>
</g>
<!-- Node12 -->
<g id="Node000012" class="node">
<title>Node12</title>
<g id="a_Node000012"><a xlink:href="struct_p4_1_1_p4_v1_1_1_action_profile___model.html" target="_top" xlink:title=" ">
<polygon fill="white" stroke="#bfbfbf" points="621,-372 494,-372 494,-342 621,-342 621,-372"/>
<text text-anchor="start" x="502" y="-360" font-family="Helvetica,sans-Serif" font-size="10.00">P4::P4V1::ActionProfile</text>
<text text-anchor="middle" x="557.5" y="-349" font-family="Helvetica,sans-Serif" font-size="10.00">_Model</text>
</a>
</g>
</g>
<!-- Node9&#45;&gt;Node12 -->
<g id="edge11_Node000009_Node000012" class="edge">
<title>Node9&#45;&gt;Node12</title>
<g id="a_edge11_Node000009_Node000012"><a xlink:title=" ">
<path fill="none" stroke="#63b8ff" d="M390.66,-260.7C411.63,-280.34 448.93,-312.81 486,-333 492.13,-336.34 498.81,-339.34 505.54,-341.99"/>
<polygon fill="#63b8ff" stroke="#63b8ff" points="392.86,-257.97 383.2,-253.62 388.04,-263.04 392.86,-257.97"/>
</a>
</g>
</g>
<!-- Node13 -->
<g id="Node000013" class="node">
<title>Node13</title>
<g id="a_Node000013"><a xlink:href="struct_p4_1_1_p4_v1_1_1_action_selector___model.html" target="_top" xlink:title=" ">
<polygon fill="white" stroke="#bfbfbf" points="625.5,-324 489.5,-324 489.5,-294 625.5,-294 625.5,-324"/>
<text text-anchor="start" x="497.5" y="-312" font-family="Helvetica,sans-Serif" font-size="10.00">P4::P4V1::ActionSelector</text>
<text text-anchor="middle" x="557.5" y="-301" font-family="Helvetica,sans-Serif" font-size="10.00">_Model</text>
</a>
</g>
</g>
<!-- Node9&#45;&gt;Node13 -->
<g id="edge12_Node000009_Node000013" class="edge">
<title>Node9&#45;&gt;Node13</title>
<g id="a_edge12_Node000009_Node000013"><a xlink:title=" ">
<path fill="none" stroke="#63b8ff" d="M409.94,-256.96C431.96,-264.8 460.59,-274.98 486,-284 495.06,-287.22 504.77,-290.66 514,-293.93"/>
<polygon fill="#63b8ff" stroke="#63b8ff" points="410.91,-253.6 400.32,-253.54 408.57,-260.19 410.91,-253.6"/>
</a>
</g>
</g>
<!-- Node14 -->
<g id="Node000014" class="node">
<title>Node14</title>
<g id="a_Node000014"><a xlink:href="struct_p4_1_1_p4_v1_1_1_cloner___model.html" target="_top" xlink:title=" ">
<polygon fill="white" stroke="#bfbfbf" points="623.5,-275.5 491.5,-275.5 491.5,-256.5 623.5,-256.5 623.5,-275.5"/>
<text text-anchor="middle" x="557.5" y="-263.5" font-family="Helvetica,sans-Serif" font-size="10.00">P4::P4V1::Cloner_Model</text>
</a>
</g>
</g>
<!-- Node9&#45;&gt;Node14 -->
<g id="edge13_Node000009_Node000014" class="edge">
<title>Node9&#45;&gt;Node14</title>
<g id="a_edge13_Node000009_Node000014"><a xlink:title=" ">
<path fill="none" stroke="#63b8ff" d="M451.23,-253.34C464.57,-254.95 478.31,-256.6 491.29,-258.16"/>
<polygon fill="#63b8ff" stroke="#63b8ff" points="451.47,-249.85 441.12,-252.13 450.63,-256.8 451.47,-249.85"/>
</a>
</g>
</g>
<!-- Node15 -->
<g id="Node000015" class="node">
<title>Node15</title>
<g id="a_Node000015"><a xlink:href="struct_p4_1_1_p4_v1_1_1_counter_or_meter___model.html" target="_top" xlink:title=" ">
<polygon fill="white" stroke="#bfbfbf" points="629,-238 486,-238 486,-208 629,-208 629,-238"/>
<text text-anchor="start" x="494" y="-226" font-family="Helvetica,sans-Serif" font-size="10.00">P4::P4V1::CounterOrMeter</text>
<text text-anchor="middle" x="557.5" y="-215" font-family="Helvetica,sans-Serif" font-size="10.00">_Model</text>
</a>
</g>
</g>
<!-- Node9&#45;&gt;Node15 -->
<g id="edge14_Node000009_Node000015" class="edge">
<title>Node9&#45;&gt;Node15</title>
<g id="a_edge14_Node000009_Node000015"><a xlink:title=" ">
<path fill="none" stroke="#63b8ff" d="M451.13,-235.09C462.63,-233.77 474.43,-232.42 485.78,-231.12"/>
<polygon fill="#63b8ff" stroke="#63b8ff" points="450.66,-231.62 441.12,-236.24 451.46,-238.58 450.66,-231.62"/>
</a>
</g>
</g>
<!-- Node20 -->
<g id="Node000020" class="node">
<title>Node20</title>
<g id="a_Node000020"><a xlink:href="struct_p4_1_1_p4_v1_1_1_register___model.html" target="_top" xlink:title=" ">
<polygon fill="white" stroke="#bfbfbf" points="610.5,-190 504.5,-190 504.5,-160 610.5,-160 610.5,-190"/>
<text text-anchor="start" x="512.5" y="-178" font-family="Helvetica,sans-Serif" font-size="10.00">P4::P4V1::Register</text>
<text text-anchor="middle" x="557.5" y="-167" font-family="Helvetica,sans-Serif" font-size="10.00">_Model</text>
</a>
</g>
</g>
<!-- Node9&#45;&gt;Node20 -->
<g id="edge19_Node000009_Node000020" class="edge">
<title>Node9&#45;&gt;Node20</title>
<g id="a_edge19_Node000009_Node000020"><a xlink:title=" ">
<path fill="none" stroke="#63b8ff" d="M433.45,-231.48C439.15,-229.58 444.75,-227.44 450,-225 467.9,-216.69 468.46,-208.06 486,-199 492.32,-195.74 499.18,-192.77 506.05,-190.12"/>
<polygon fill="#63b8ff" stroke="#63b8ff" points="432.37,-228.15 423.83,-234.42 434.42,-234.84 432.37,-228.15"/>
</a>
</g>
</g>
<!-- Node21 -->
<g id="Node000021" class="node">
<title>Node21</title>
<g id="a_Node000021"><a xlink:href="class_p4_1_1_p4_v1_1_1_truncate.html" target="_top" xlink:title=" ">
<polygon fill="white" stroke="#bfbfbf" points="611,-141.5 504,-141.5 504,-122.5 611,-122.5 611,-141.5"/>
<text text-anchor="middle" x="557.5" y="-129.5" font-family="Helvetica,sans-Serif" font-size="10.00">P4::P4V1::Truncate</text>
</a>
</g>
</g>
<!-- Node9&#45;&gt;Node21 -->
<g id="edge20_Node000009_Node000021" class="edge">
<title>Node9&#45;&gt;Node21</title>
<g id="a_edge20_Node000009_Node000021"><a xlink:title=" ">
<path fill="none" stroke="#63b8ff" d="M443.36,-229.65C445.68,-228.24 447.91,-226.7 450,-225 478.42,-201.98 457.81,-174.3 486,-151 491.28,-146.64 497.46,-143.27 503.94,-140.68"/>
<polygon fill="#63b8ff" stroke="#63b8ff" points="441.29,-226.78 433.99,-234.45 444.48,-233.01 441.29,-226.78"/>
</a>
</g>
</g>
<!-- Node22 -->
<g id="Node000022" class="node">
<title>Node22</title>
<g id="a_Node000022"><a xlink:href="class_p4_1_1_packet_in.html" target="_top" xlink:title=" ">
<polygon fill="white" stroke="#bfbfbf" points="595,-104.5 520,-104.5 520,-85.5 595,-85.5 595,-104.5"/>
<text text-anchor="middle" x="557.5" y="-92.5" font-family="Helvetica,sans-Serif" font-size="10.00">P4::PacketIn</text>
</a>
</g>
</g>
<!-- Node9&#45;&gt;Node22 -->
<g id="edge21_Node000009_Node000022" class="edge">
<title>Node9&#45;&gt;Node22</title>
<g id="a_edge21_Node000009_Node000022"><a xlink:title=" ">
<path fill="none" stroke="#63b8ff" d="M444.7,-229.31C446.56,-227.99 448.33,-226.56 450,-225 488.2,-189.3 447.92,-148.83 486,-113 495.11,-104.43 507.72,-99.8 519.75,-97.34"/>
<polygon fill="#63b8ff" stroke="#63b8ff" points="442.9,-226.31 436.07,-234.41 446.46,-232.34 442.9,-226.31"/>
</a>
</g>
</g>
<!-- Node23 -->
<g id="Node000023" class="node">
<title>Node23</title>
<g id="a_Node000023"><a xlink:href="class_p4_1_1_packet_out.html" target="_top" xlink:title=" ">
<polygon fill="white" stroke="#bfbfbf" points="599,-67.5 516,-67.5 516,-48.5 599,-48.5 599,-67.5"/>
<text text-anchor="middle" x="557.5" y="-55.5" font-family="Helvetica,sans-Serif" font-size="10.00">P4::PacketOut</text>
</a>
</g>
</g>
<!-- Node9&#45;&gt;Node23 -->
<g id="edge22_Node000009_Node000023" class="edge">
<title>Node9&#45;&gt;Node23</title>
<g id="a_edge22_Node000009_Node000023"><a xlink:title=" ">
<path fill="none" stroke="#63b8ff" d="M445.91,-228.66C447.34,-227.52 448.71,-226.3 450,-225 498.02,-176.67 438.14,-124.48 486,-76 493.9,-68 504.83,-63.39 515.72,-60.77"/>
<polygon fill="#63b8ff" stroke="#63b8ff" points="443.6,-225.98 437.11,-234.35 447.4,-231.86 443.6,-225.98"/>
</a>
</g>
</g>
<!-- Node24 -->
<g id="Node000024" class="node">
<title>Node24</title>
<g id="a_Node000024"><a xlink:href="struct_p4_1_1_u_b_p_f_1_1_register___model.html" target="_top" xlink:title=" ">
<polygon fill="white" stroke="#bfbfbf" points="611,-30 504,-30 504,0 611,0 611,-30"/>
<text text-anchor="start" x="512" y="-18" font-family="Helvetica,sans-Serif" font-size="10.00">P4::UBPF::Register</text>
<text text-anchor="middle" x="557.5" y="-7" font-family="Helvetica,sans-Serif" font-size="10.00">_Model</text>
</a>
</g>
</g>
<!-- Node9&#45;&gt;Node24 -->
<g id="edge23_Node000009_Node000024" class="edge">
<title>Node9&#45;&gt;Node24</title>
<g id="a_edge23_Node000009_Node000024"><a xlink:title=" ">
<path fill="none" stroke="#63b8ff" d="M446.1,-228.65C447.47,-227.51 448.77,-226.3 450,-225 507.96,-163.93 430.67,-102.47 486,-39 490.84,-33.44 497.02,-29.17 503.71,-25.89"/>
<polygon fill="#63b8ff" stroke="#63b8ff" points="443.99,-225.85 437.66,-234.34 447.9,-231.65 443.99,-225.85"/>
</a>
</g>
</g>
<!-- Node16 -->
<g id="Node000016" class="node">
<title>Node16</title>
<g id="a_Node000016"><a xlink:href="struct_p4_1_1_p4_v1_1_1_counter___model.html" target="_top" xlink:title=" ">
<polygon fill="white" stroke="#bfbfbf" points="804,-299.5 665,-299.5 665,-280.5 804,-280.5 804,-299.5"/>
<text text-anchor="middle" x="734.5" y="-287.5" font-family="Helvetica,sans-Serif" font-size="10.00">P4::P4V1::Counter_Model</text>
</a>
</g>
</g>
<!-- Node15&#45;&gt;Node16 -->
<g id="edge15_Node000015_Node000016" class="edge">
<title>Node15&#45;&gt;Node16</title>
<g id="a_edge15_Node000015_Node000016"><a xlink:title=" ">
<path fill="none" stroke="#63b8ff" d="M617.42,-241.76C621.39,-243.42 625.28,-245.17 629,-247 646.25,-255.5 647.52,-263 665,-271 673.08,-274.7 682.03,-277.82 690.73,-280.4"/>
<polygon fill="#63b8ff" stroke="#63b8ff" points="618.67,-238.49 608.09,-238.05 616.09,-244.99 618.67,-238.49"/>
</a>
</g>
</g>
<!-- Node17 -->
<g id="Node000017" class="node">
<title>Node17</title>
<g id="a_Node000017"><a xlink:href="struct_p4_1_1_p4_v1_1_1_direct_counter___model.html" target="_top" xlink:title=" ">
<polygon fill="white" stroke="#bfbfbf" points="801,-262 668,-262 668,-232 801,-232 801,-262"/>
<text text-anchor="start" x="676" y="-250" font-family="Helvetica,sans-Serif" font-size="10.00">P4::P4V1::DirectCounter</text>
<text text-anchor="middle" x="734.5" y="-239" font-family="Helvetica,sans-Serif" font-size="10.00">_Model</text>
</a>
</g>
</g>
<!-- Node15&#45;&gt;Node17 -->
<g id="edge16_Node000015_Node000017" class="edge">
<title>Node15&#45;&gt;Node17</title>
<g id="a_edge16_Node000015_Node000017"><a xlink:title=" ">
<path fill="none" stroke="#63b8ff" d="M639.16,-234.06C648.8,-235.38 658.55,-236.72 667.94,-238.01"/>
<polygon fill="#63b8ff" stroke="#63b8ff" points="639.56,-230.58 629.17,-232.69 638.61,-237.52 639.56,-230.58"/>
</a>
</g>
</g>
<!-- Node18 -->
<g id="Node000018" class="node">
<title>Node18</title>
<g id="a_Node000018"><a xlink:href="struct_p4_1_1_p4_v1_1_1_direct_meter___model.html" target="_top" xlink:title=" ">
<polygon fill="white" stroke="#bfbfbf" points="796,-214 673,-214 673,-184 796,-184 796,-214"/>
<text text-anchor="start" x="681" y="-202" font-family="Helvetica,sans-Serif" font-size="10.00">P4::P4V1::DirectMeter</text>
<text text-anchor="middle" x="734.5" y="-191" font-family="Helvetica,sans-Serif" font-size="10.00">_Model</text>
</a>
</g>
</g>
<!-- Node15&#45;&gt;Node18 -->
<g id="edge17_Node000015_Node000018" class="edge">
<title>Node15&#45;&gt;Node18</title>
<g id="a_edge17_Node000015_Node000018"><a xlink:title=" ">
<path fill="none" stroke="#63b8ff" d="M639.12,-211.94C650.5,-210.38 662.04,-208.8 672.96,-207.3"/>
<polygon fill="#63b8ff" stroke="#63b8ff" points="638.61,-208.48 629.17,-213.31 639.56,-215.42 638.61,-208.48"/>
</a>
</g>
</g>
<!-- Node19 -->
<g id="Node000019" class="node">
<title>Node19</title>
<g id="a_Node000019"><a xlink:href="struct_p4_1_1_p4_v1_1_1_meter___model.html" target="_top" xlink:title=" ">
<polygon fill="white" stroke="#bfbfbf" points="799,-165.5 670,-165.5 670,-146.5 799,-146.5 799,-165.5"/>
<text text-anchor="middle" x="734.5" y="-153.5" font-family="Helvetica,sans-Serif" font-size="10.00">P4::P4V1::Meter_Model</text>
</a>
</g>
</g>
<!-- Node15&#45;&gt;Node19 -->
<g id="edge18_Node000015_Node000019" class="edge">
<title>Node15&#45;&gt;Node19</title>
<g id="a_edge18_Node000015_Node000019"><a xlink:title=" ">
<path fill="none" stroke="#63b8ff" d="M617.42,-204.24C621.39,-202.58 625.28,-200.83 629,-199 646.25,-190.5 647.52,-183 665,-175 673.08,-171.3 682.03,-168.18 690.73,-165.6"/>
<polygon fill="#63b8ff" stroke="#63b8ff" points="616.09,-201.01 608.09,-207.95 618.67,-207.51 616.09,-201.01"/>
</a>
</g>
</g>
</g>
</svg>
