<?xml version="1.0" encoding="UTF-8" standalone="no"?>
<!DOCTYPE svg PUBLIC "-//W3C//DTD SVG 1.1//EN"
 "http://www.w3.org/Graphics/SVG/1.1/DTD/svg11.dtd">
<!-- Generated by graphviz version 2.43.0 (0)
 -->
<!-- Title: P4V1::DirectMeter_Model Pages: 1 -->
<svg width="148pt" height="263pt"
 viewBox="0.00 0.00 148.00 263.00" xmlns="http://www.w3.org/2000/svg" xmlns:xlink="http://www.w3.org/1999/xlink">
<g id="graph0" class="graph" transform="scale(1 1) rotate(0) translate(4 259)">
<title>P4V1::DirectMeter_Model</title>
<polygon fill="white" stroke="transparent" points="-4,4 -4,-259 144,-259 144,4 -4,4"/>
<!-- Node1 -->
<g id="node1" class="node">
<title>Node1</title>
<g id="a_node1"><a xlink:title=" ">
<polygon fill="#bfbfbf" stroke="black" points="0,-0.5 0,-19.5 140,-19.5 140,-0.5 0,-0.5"/>
<text text-anchor="middle" x="70" y="-7.5" font-family="Helvetica,sans-Serif" font-size="10.00">P4V1::DirectMeter_Model</text>
</a>
</g>
</g>
<!-- Node2 -->
<g id="node2" class="node">
<title>Node2</title>
<g id="a_node2"><a xlink:href="struct_p4_v1_1_1_counter_or_meter___model.html" target="_top" xlink:title=" ">
<polygon fill="white" stroke="black" points="7.5,-56.5 7.5,-86.5 132.5,-86.5 132.5,-56.5 7.5,-56.5"/>
<text text-anchor="start" x="15.5" y="-74.5" font-family="Helvetica,sans-Serif" font-size="10.00">P4V1::CounterOrMeter</text>
<text text-anchor="middle" x="70" y="-63.5" font-family="Helvetica,sans-Serif" font-size="10.00">_Model</text>
</a>
</g>
</g>
<!-- Node2&#45;&gt;Node1 -->
<g id="edge1" class="edge">
<title>Node2&#45;&gt;Node1</title>
<path fill="none" stroke="midnightblue" d="M70,-46.29C70,-36.86 70,-26.65 70,-19.66"/>
<polygon fill="midnightblue" stroke="midnightblue" points="66.5,-46.4 70,-56.4 73.5,-46.4 66.5,-46.4"/>
</g>
<!-- Node3 -->
<g id="node3" class="node">
<title>Node3</title>
<g id="a_node3"><a xlink:href="struct_model_1_1_extern___model.html" target="_top" xlink:title="Extern_Model : Type_Model.">
<polygon fill="white" stroke="black" points="10.5,-123.5 10.5,-142.5 129.5,-142.5 129.5,-123.5 10.5,-123.5"/>
<text text-anchor="middle" x="70" y="-130.5" font-family="Helvetica,sans-Serif" font-size="10.00">Model::Extern_Model</text>
</a>
</g>
</g>
<!-- Node3&#45;&gt;Node2 -->
<g id="edge2" class="edge">
<title>Node3&#45;&gt;Node2</title>
<path fill="none" stroke="midnightblue" d="M70,-113.23C70,-104.59 70,-94.5 70,-86.52"/>
<polygon fill="midnightblue" stroke="midnightblue" points="66.5,-113.48 70,-123.48 73.5,-113.48 66.5,-113.48"/>
</g>
<!-- Node4 -->
<g id="node4" class="node">
<title>Node4</title>
<g id="a_node4"><a xlink:href="struct_model_1_1_type___model.html" target="_top" xlink:title=" ">
<polygon fill="white" stroke="black" points="15,-179.5 15,-198.5 125,-198.5 125,-179.5 15,-179.5"/>
<text text-anchor="middle" x="70" y="-186.5" font-family="Helvetica,sans-Serif" font-size="10.00">Model::Type_Model</text>
</a>
</g>
</g>
<!-- Node4&#45;&gt;Node3 -->
<g id="edge3" class="edge">
<title>Node4&#45;&gt;Node3</title>
<path fill="none" stroke="midnightblue" d="M70,-168.8C70,-159.91 70,-149.78 70,-142.75"/>
<polygon fill="midnightblue" stroke="midnightblue" points="66.5,-169.08 70,-179.08 73.5,-169.08 66.5,-169.08"/>
</g>
<!-- Node5 -->
<g id="node5" class="node">
<title>Node5</title>
<g id="a_node5"><a xlink:href="struct_model_1_1_elem.html" target="_top" xlink:title=" ">
<polygon fill="white" stroke="black" points="31.5,-235.5 31.5,-254.5 108.5,-254.5 108.5,-235.5 31.5,-235.5"/>
<text text-anchor="middle" x="70" y="-242.5" font-family="Helvetica,sans-Serif" font-size="10.00">Model::Elem</text>
</a>
</g>
</g>
<!-- Node5&#45;&gt;Node4 -->
<g id="edge4" class="edge">
<title>Node5&#45;&gt;Node4</title>
<path fill="none" stroke="midnightblue" d="M70,-224.8C70,-215.91 70,-205.78 70,-198.75"/>
<polygon fill="midnightblue" stroke="midnightblue" points="66.5,-225.08 70,-235.08 73.5,-225.08 66.5,-225.08"/>
</g>
</g>
</svg>
