<?xml version="1.0" encoding="UTF-8" standalone="no"?>
<!DOCTYPE svg PUBLIC "-//W3C//DTD SVG 1.1//EN"
 "http://www.w3.org/Graphics/SVG/1.1/DTD/svg11.dtd">
<!-- Generated by graphviz version 2.43.0 (0)
 -->
<!-- Title: P4::ControlPlaneAPI::Standard::V1ModelArchHandlerBuilder Pages: 1 -->
<svg width="183pt" height="128pt"
 viewBox="0.00 0.00 183.00 128.00" xmlns="http://www.w3.org/2000/svg" xmlns:xlink="http://www.w3.org/1999/xlink">
<g id="graph0" class="graph" transform="scale(1 1) rotate(0) translate(4 124)">
<title>P4::ControlPlaneAPI::Standard::V1ModelArchHandlerBuilder</title>
<polygon fill="white" stroke="transparent" points="-4,4 -4,-124 179,-124 179,4 -4,4"/>
<!-- Node1 -->
<g id="node1" class="node">
<title>Node1</title>
<g id="a_node1"><a xlink:title="The architecture handler builder implementation for v1model.">
<polygon fill="#bfbfbf" stroke="black" points="0,-0.5 0,-41.5 175,-41.5 175,-0.5 0,-0.5"/>
<text text-anchor="start" x="8" y="-29.5" font-family="Helvetica,sans-Serif" font-size="10.00">P4::ControlPlaneAPI</text>
<text text-anchor="start" x="8" y="-18.5" font-family="Helvetica,sans-Serif" font-size="10.00">::Standard::V1ModelArchHandler</text>
<text text-anchor="middle" x="87.5" y="-7.5" font-family="Helvetica,sans-Serif" font-size="10.00">Builder</text>
</a>
</g>
</g>
<!-- Node2 -->
<g id="node2" class="node">
<title>Node2</title>
<g id="a_node2"><a xlink:href="struct_p4_1_1_control_plane_a_p_i_1_1_p4_runtime_arch_handler_builder_iface.html" target="_top" xlink:title=" ">
<polygon fill="white" stroke="black" points="2.5,-78.5 2.5,-119.5 172.5,-119.5 172.5,-78.5 2.5,-78.5"/>
<text text-anchor="start" x="10.5" y="-107.5" font-family="Helvetica,sans-Serif" font-size="10.00">P4::ControlPlaneAPI</text>
<text text-anchor="start" x="10.5" y="-96.5" font-family="Helvetica,sans-Serif" font-size="10.00">::P4RuntimeArchHandlerBuilder</text>
<text text-anchor="middle" x="87.5" y="-85.5" font-family="Helvetica,sans-Serif" font-size="10.00">Iface</text>
</a>
</g>
</g>
<!-- Node2&#45;&gt;Node1 -->
<g id="edge1" class="edge">
<title>Node2&#45;&gt;Node1</title>
<path fill="none" stroke="midnightblue" d="M87.5,-68.3C87.5,-59.3 87.5,-49.65 87.5,-41.51"/>
<polygon fill="midnightblue" stroke="midnightblue" points="84,-68.43 87.5,-78.43 91,-68.43 84,-68.43"/>
</g>
</g>
</svg>
