<?xml version="1.0" encoding="UTF-8" standalone="no"?>
<!DOCTYPE svg PUBLIC "-//W3C//DTD SVG 1.1//EN"
 "http://www.w3.org/Graphics/SVG/1.1/DTD/svg11.dtd">
<!-- Generated by graphviz version 2.43.0 (0)
 -->
<!-- Title: P4::P4Tools::P4Testgen::AbstractStepper Pages: 1 -->
<svg width="926pt" height="278pt"
 viewBox="0.00 0.00 926.00 278.00" xmlns="http://www.w3.org/2000/svg" xmlns:xlink="http://www.w3.org/1999/xlink">
<g id="graph0" class="graph" transform="scale(1 1) rotate(0) translate(4 274)">
<title>P4::P4Tools::P4Testgen::AbstractStepper</title>
<!-- Node1 -->
<g id="Node000001" class="node">
<title>Node1</title>
<g id="a_Node000001"><a xlink:title=" ">
<polygon fill="#999999" stroke="#666666" points="345,-126 218,-126 218,-96 345,-96 345,-126"/>
<text text-anchor="start" x="226" y="-114" font-family="Helvetica,sans-Serif" font-size="10.00">P4::P4Tools::P4Testgen</text>
<text text-anchor="middle" x="281.5" y="-103" font-family="Helvetica,sans-Serif" font-size="10.00">::AbstractStepper</text>
</a>
</g>
</g>
<!-- Node4 -->
<g id="Node000004" class="node">
<title>Node4</title>
<g id="a_Node000004"><a xlink:href="class_p4_1_1_p4_tools_1_1_p4_testgen_1_1_cmd_stepper.html" target="_top" xlink:title="Implements small&#45;step operational semantics for commands.">
<polygon fill="white" stroke="#666666" points="508,-198 381,-198 381,-168 508,-168 508,-198"/>
<text text-anchor="start" x="389" y="-186" font-family="Helvetica,sans-Serif" font-size="10.00">P4::P4Tools::P4Testgen</text>
<text text-anchor="middle" x="444.5" y="-175" font-family="Helvetica,sans-Serif" font-size="10.00">::CmdStepper</text>
</a>
</g>
</g>
<!-- Node1&#45;&gt;Node4 -->
<g id="edge3_Node000001_Node000004" class="edge">
<title>Node1&#45;&gt;Node4</title>
<g id="a_edge3_Node000001_Node000004"><a xlink:title=" ">
<path fill="none" stroke="#63b8ff" d="M325.64,-130.29C352.04,-142.1 385.33,-156.99 409.79,-167.93"/>
<polygon fill="#63b8ff" stroke="#63b8ff" points="326.81,-126.98 316.25,-126.09 323.95,-133.37 326.81,-126.98"/>
</a>
</g>
</g>
<!-- Node9 -->
<g id="Node000009" class="node">
<title>Node9</title>
<g id="a_Node000009"><a xlink:href="class_p4_1_1_p4_tools_1_1_p4_testgen_1_1_expr_stepper.html" target="_top" xlink:title="Implements small&#45;step operational semantics for expressions.">
<polygon fill="white" stroke="#666666" points="508,-102 381,-102 381,-72 508,-72 508,-102"/>
<text text-anchor="start" x="389" y="-90" font-family="Helvetica,sans-Serif" font-size="10.00">P4::P4Tools::P4Testgen</text>
<text text-anchor="middle" x="444.5" y="-79" font-family="Helvetica,sans-Serif" font-size="10.00">::ExprStepper</text>
</a>
</g>
</g>
<!-- Node1&#45;&gt;Node9 -->
<g id="edge8_Node000001_Node000009" class="edge">
<title>Node1&#45;&gt;Node9</title>
<g id="a_edge8_Node000001_Node000009"><a xlink:title=" ">
<path fill="none" stroke="#63b8ff" d="M355.22,-100.16C363.81,-98.88 372.53,-97.58 380.96,-96.32"/>
<polygon fill="#63b8ff" stroke="#63b8ff" points="354.58,-96.72 345.21,-101.65 355.61,-103.64 354.58,-96.72"/>
</a>
</g>
</g>
<!-- Node2 -->
<g id="Node000002" class="node">
<title>Node2</title>
<g id="a_Node000002"><a xlink:href="class_p4_1_1_inspector.html" target="_top" xlink:title=" ">
<polygon fill="white" stroke="#bfbfbf" points="182,-120.5 102,-120.5 102,-101.5 182,-101.5 182,-120.5"/>
<text text-anchor="middle" x="142" y="-108.5" font-family="Helvetica,sans-Serif" font-size="10.00">P4::Inspector</text>
</a>
</g>
</g>
<!-- Node2&#45;&gt;Node1 -->
<g id="edge1_Node000001_Node000002" class="edge">
<title>Node2&#45;&gt;Node1</title>
<g id="a_edge1_Node000001_Node000002"><a xlink:title=" ">
<path fill="none" stroke="#63b8ff" d="M192.31,-111C200.63,-111 209.36,-111 217.96,-111"/>
<polygon fill="#63b8ff" stroke="#63b8ff" points="192.03,-107.5 182.03,-111 192.03,-114.5 192.03,-107.5"/>
</a>
</g>
</g>
<!-- Node3 -->
<g id="Node000003" class="node">
<title>Node3</title>
<g id="a_Node000003"><a xlink:href="class_p4_1_1_visitor.html" target="_top" xlink:title=" ">
<polygon fill="white" stroke="#bfbfbf" points="66,-120.5 0,-120.5 0,-101.5 66,-101.5 66,-120.5"/>
<text text-anchor="middle" x="33" y="-108.5" font-family="Helvetica,sans-Serif" font-size="10.00">P4::Visitor</text>
</a>
</g>
</g>
<!-- Node3&#45;&gt;Node2 -->
<g id="edge2_Node000002_Node000003" class="edge">
<title>Node3&#45;&gt;Node2</title>
<g id="a_edge2_Node000002_Node000003"><a xlink:title=" ">
<path fill="none" stroke="#63b8ff" d="M76.13,-111C84.57,-111 93.4,-111 101.73,-111"/>
<polygon fill="#63b8ff" stroke="#63b8ff" points="76.1,-107.5 66.1,-111 76.1,-114.5 76.1,-107.5"/>
</a>
</g>
</g>
<!-- Node5 -->
<g id="Node000005" class="node">
<title>Node5</title>
<g id="a_Node000005"><a xlink:href="class_p4_1_1_p4_tools_1_1_p4_testgen_1_1_bmv2_1_1_bmv2_v1_model_cmd_stepper.html" target="_top" xlink:title=" ">
<polygon fill="white" stroke="#bfbfbf" points="732,-270 544,-270 544,-240 732,-240 732,-270"/>
<text text-anchor="start" x="552" y="-258" font-family="Helvetica,sans-Serif" font-size="10.00">P4::P4Tools::P4Testgen</text>
<text text-anchor="middle" x="638" y="-247" font-family="Helvetica,sans-Serif" font-size="10.00">::Bmv2::Bmv2V1ModelCmdStepper</text>
</a>
</g>
</g>
<!-- Node4&#45;&gt;Node5 -->
<g id="edge4_Node000004_Node000005" class="edge">
<title>Node4&#45;&gt;Node5</title>
<g id="a_edge4_Node000004_Node000005"><a xlink:title=" ">
<path fill="none" stroke="#63b8ff" d="M481.98,-202.95C500.22,-212.37 522.87,-223.22 544,-231 552.92,-234.29 562.48,-237.3 571.95,-240"/>
<polygon fill="#63b8ff" stroke="#63b8ff" points="483.35,-199.72 472.87,-198.19 480.11,-205.92 483.35,-199.72"/>
</a>
</g>
</g>
<!-- Node6 -->
<g id="Node000006" class="node">
<title>Node6</title>
<g id="a_Node000006"><a xlink:href="class_p4_1_1_p4_tools_1_1_p4_testgen_1_1_e_b_p_f_1_1_e_b_p_f_cmd_stepper.html" target="_top" xlink:title=" ">
<polygon fill="white" stroke="#bfbfbf" points="706.5,-222 569.5,-222 569.5,-192 706.5,-192 706.5,-222"/>
<text text-anchor="start" x="577.5" y="-210" font-family="Helvetica,sans-Serif" font-size="10.00">P4::P4Tools::P4Testgen</text>
<text text-anchor="middle" x="638" y="-199" font-family="Helvetica,sans-Serif" font-size="10.00">::EBPF::EBPFCmdStepper</text>
</a>
</g>
</g>
<!-- Node4&#45;&gt;Node6 -->
<g id="edge5_Node000004_Node000006" class="edge">
<title>Node4&#45;&gt;Node6</title>
<g id="a_edge5_Node000004_Node000006"><a xlink:title=" ">
<path fill="none" stroke="#63b8ff" d="M518.44,-192.14C535.11,-194.23 552.76,-196.44 569.2,-198.5"/>
<polygon fill="#63b8ff" stroke="#63b8ff" points="518.56,-188.63 508.2,-190.86 517.69,-195.57 518.56,-188.63"/>
</a>
</g>
</g>
<!-- Node7 -->
<g id="Node000007" class="node">
<title>Node7</title>
<g id="a_Node000007"><a xlink:href="class_p4_1_1_p4_tools_1_1_p4_testgen_1_1_pna_1_1_shared_pna_cmd_stepper.html" target="_top" xlink:title=" ">
<polygon fill="white" stroke="#bfbfbf" points="717,-174 559,-174 559,-144 717,-144 717,-174"/>
<text text-anchor="start" x="567" y="-162" font-family="Helvetica,sans-Serif" font-size="10.00">P4::P4Tools::P4Testgen</text>
<text text-anchor="middle" x="638" y="-151" font-family="Helvetica,sans-Serif" font-size="10.00">::Pna::SharedPnaCmdStepper</text>
</a>
</g>
</g>
<!-- Node4&#45;&gt;Node7 -->
<g id="edge6_Node000004_Node000007" class="edge">
<title>Node4&#45;&gt;Node7</title>
<g id="a_edge6_Node000004_Node000007"><a xlink:title=" ">
<path fill="none" stroke="#63b8ff" d="M518.2,-173.89C531.46,-172.23 545.34,-170.49 558.75,-168.81"/>
<polygon fill="#63b8ff" stroke="#63b8ff" points="517.69,-170.43 508.2,-175.14 518.56,-177.37 517.69,-170.43"/>
</a>
</g>
</g>
<!-- Node8 -->
<g id="Node000008" class="node">
<title>Node8</title>
<g id="a_Node000008"><a xlink:href="class_p4_1_1_p4_tools_1_1_p4_testgen_1_1_pna_1_1_pna_dpdk_cmd_stepper.html" target="_top" xlink:title=" ">
<polygon fill="white" stroke="#bfbfbf" points="918,-174 768,-174 768,-144 918,-144 918,-174"/>
<text text-anchor="start" x="776" y="-162" font-family="Helvetica,sans-Serif" font-size="10.00">P4::P4Tools::P4Testgen</text>
<text text-anchor="middle" x="843" y="-151" font-family="Helvetica,sans-Serif" font-size="10.00">::Pna::PnaDpdkCmdStepper</text>
</a>
</g>
</g>
<!-- Node7&#45;&gt;Node8 -->
<g id="edge7_Node000007_Node000008" class="edge">
<title>Node7&#45;&gt;Node8</title>
<g id="a_edge7_Node000007_Node000008"><a xlink:title=" ">
<path fill="none" stroke="#63b8ff" d="M727.43,-159C740.91,-159 754.71,-159 767.85,-159"/>
<polygon fill="#63b8ff" stroke="#63b8ff" points="727.19,-155.5 717.19,-159 727.19,-162.5 727.19,-155.5"/>
</a>
</g>
</g>
<!-- Node10 -->
<g id="Node000010" class="node">
<title>Node10</title>
<g id="a_Node000010"><a xlink:href="class_p4_1_1_p4_tools_1_1_p4_testgen_1_1_bmv2_1_1_bmv2_v1_model_expr_stepper.html" target="_top" xlink:title=" ">
<polygon fill="white" stroke="#bfbfbf" points="732,-126 544,-126 544,-96 732,-96 732,-126"/>
<text text-anchor="start" x="552" y="-114" font-family="Helvetica,sans-Serif" font-size="10.00">P4::P4Tools::P4Testgen</text>
<text text-anchor="middle" x="638" y="-103" font-family="Helvetica,sans-Serif" font-size="10.00">::Bmv2::Bmv2V1ModelExprStepper</text>
</a>
</g>
</g>
<!-- Node9&#45;&gt;Node10 -->
<g id="edge9_Node000009_Node000010" class="edge">
<title>Node9&#45;&gt;Node10</title>
<g id="a_edge9_Node000009_Node000010"><a xlink:title=" ">
<path fill="none" stroke="#63b8ff" d="M518.3,-96.12C526.69,-97.18 535.33,-98.26 543.95,-99.34"/>
<polygon fill="#63b8ff" stroke="#63b8ff" points="518.56,-92.63 508.2,-94.86 517.69,-99.57 518.56,-92.63"/>
</a>
</g>
</g>
<!-- Node11 -->
<g id="Node000011" class="node">
<title>Node11</title>
<g id="a_Node000011"><a xlink:href="class_p4_1_1_p4_tools_1_1_p4_testgen_1_1_e_b_p_f_1_1_e_b_p_f_expr_stepper.html" target="_top" xlink:title=" ">
<polygon fill="white" stroke="#bfbfbf" points="706.5,-78 569.5,-78 569.5,-48 706.5,-48 706.5,-78"/>
<text text-anchor="start" x="577.5" y="-66" font-family="Helvetica,sans-Serif" font-size="10.00">P4::P4Tools::P4Testgen</text>
<text text-anchor="middle" x="638" y="-55" font-family="Helvetica,sans-Serif" font-size="10.00">::EBPF::EBPFExprStepper</text>
</a>
</g>
</g>
<!-- Node9&#45;&gt;Node11 -->
<g id="edge10_Node000009_Node000011" class="edge">
<title>Node9&#45;&gt;Node11</title>
<g id="a_edge10_Node000009_Node000011"><a xlink:title=" ">
<path fill="none" stroke="#63b8ff" d="M518.44,-77.86C535.11,-75.77 552.76,-73.56 569.2,-71.5"/>
<polygon fill="#63b8ff" stroke="#63b8ff" points="517.69,-74.43 508.2,-79.14 518.56,-81.37 517.69,-74.43"/>
</a>
</g>
</g>
<!-- Node12 -->
<g id="Node000012" class="node">
<title>Node12</title>
<g id="a_Node000012"><a xlink:href="class_p4_1_1_p4_tools_1_1_p4_testgen_1_1_pna_1_1_shared_pna_expr_stepper.html" target="_top" xlink:title=" ">
<polygon fill="white" stroke="#bfbfbf" points="717,-30 559,-30 559,0 717,0 717,-30"/>
<text text-anchor="start" x="567" y="-18" font-family="Helvetica,sans-Serif" font-size="10.00">P4::P4Tools::P4Testgen</text>
<text text-anchor="middle" x="638" y="-7" font-family="Helvetica,sans-Serif" font-size="10.00">::Pna::SharedPnaExprStepper</text>
</a>
</g>
</g>
<!-- Node9&#45;&gt;Node12 -->
<g id="edge11_Node000009_Node000012" class="edge">
<title>Node9&#45;&gt;Node12</title>
<g id="a_edge11_Node000009_Node000012"><a xlink:title=" ">
<path fill="none" stroke="#63b8ff" d="M481.98,-67.05C500.22,-57.63 522.87,-46.78 544,-39 552.92,-35.71 562.48,-32.7 571.95,-30"/>
<polygon fill="#63b8ff" stroke="#63b8ff" points="480.11,-64.08 472.87,-71.81 483.35,-70.28 480.11,-64.08"/>
</a>
</g>
</g>
<!-- Node13 -->
<g id="Node000013" class="node">
<title>Node13</title>
<g id="a_Node000013"><a xlink:href="class_p4_1_1_p4_tools_1_1_p4_testgen_1_1_pna_1_1_pna_dpdk_expr_stepper.html" target="_top" xlink:title=" ">
<polygon fill="white" stroke="#bfbfbf" points="917.5,-30 768.5,-30 768.5,0 917.5,0 917.5,-30"/>
<text text-anchor="start" x="776.5" y="-18" font-family="Helvetica,sans-Serif" font-size="10.00">P4::P4Tools::P4Testgen</text>
<text text-anchor="middle" x="843" y="-7" font-family="Helvetica,sans-Serif" font-size="10.00">::Pna::PnaDpdkExprStepper</text>
</a>
</g>
</g>
<!-- Node12&#45;&gt;Node13 -->
<g id="edge12_Node000012_Node000013" class="edge">
<title>Node12&#45;&gt;Node13</title>
<g id="a_edge12_Node000012_Node000013"><a xlink:title=" ">
<path fill="none" stroke="#63b8ff" d="M727.5,-15C741.07,-15 754.97,-15 768.18,-15"/>
<polygon fill="#63b8ff" stroke="#63b8ff" points="727.19,-11.5 717.19,-15 727.19,-18.5 727.19,-11.5"/>
</a>
</g>
</g>
</g>
</svg>
