<?xml version="1.0" encoding="UTF-8" standalone="no"?>
<!DOCTYPE svg PUBLIC "-//W3C//DTD SVG 1.1//EN"
 "http://www.w3.org/Graphics/SVG/1.1/DTD/svg11.dtd">
<!-- Generated by graphviz version 2.43.0 (0)
 -->
<!-- Title: P4::JsonData Pages: 1 -->
<svg width="455pt" height="212pt"
 viewBox="0.00 0.00 455.00 212.00" xmlns="http://www.w3.org/2000/svg" xmlns:xlink="http://www.w3.org/1999/xlink">
<g id="graph0" class="graph" transform="scale(1 1) rotate(0) translate(4 208)">
<title>P4::JsonData</title>
<!-- Node1 -->
<g id="Node000001" class="node">
<title>Node1</title>
<g id="a_Node000001"><a xlink:title=" ">
<polygon fill="#999999" stroke="#666666" points="316,-111 238,-111 238,-92 316,-92 316,-111"/>
<text text-anchor="middle" x="277" y="-99" font-family="Helvetica,sans-Serif" font-size="10.00">P4::JsonData</text>
</a>
</g>
</g>
<!-- Node4 -->
<g id="Node000004" class="node">
<title>Node4</title>
<g id="a_Node000004"><a xlink:href="class_p4_1_1_json_boolean.html" target="_top" xlink:title=" ">
<polygon fill="white" stroke="#bfbfbf" points="447,-204 352,-204 352,-185 447,-185 447,-204"/>
<text text-anchor="middle" x="399.5" y="-192" font-family="Helvetica,sans-Serif" font-size="10.00">P4::JsonBoolean</text>
</a>
</g>
</g>
<!-- Node1&#45;&gt;Node4 -->
<g id="edge3_Node000001_Node000004" class="edge">
<title>Node1&#45;&gt;Node4</title>
<g id="a_edge3_Node000001_Node000004"><a xlink:title=" ">
<path fill="none" stroke="#63b8ff" d="M291.51,-118.96C305.2,-135.67 327.78,-160.6 352,-176.5 356.92,-179.73 362.51,-182.51 368.06,-184.86"/>
<polygon fill="#63b8ff" stroke="#63b8ff" points="294.17,-116.69 285.19,-111.07 288.71,-121.06 294.17,-116.69"/>
</a>
</g>
</g>
<!-- Node5 -->
<g id="Node000005" class="node">
<title>Node5</title>
<g id="a_Node000005"><a xlink:href="class_p4_1_1_json_null.html" target="_top" xlink:title=" ">
<polygon fill="white" stroke="#bfbfbf" points="436.5,-167 362.5,-167 362.5,-148 436.5,-148 436.5,-167"/>
<text text-anchor="middle" x="399.5" y="-155" font-family="Helvetica,sans-Serif" font-size="10.00">P4::JsonNull</text>
</a>
</g>
</g>
<!-- Node1&#45;&gt;Node5 -->
<g id="edge4_Node000001_Node000005" class="edge">
<title>Node1&#45;&gt;Node5</title>
<g id="a_edge4_Node000001_Node000005"><a xlink:title=" ">
<path fill="none" stroke="#63b8ff" d="M304.43,-115.93C318.4,-123.34 335.94,-132.29 352,-139.5 358.48,-142.41 365.57,-145.3 372.23,-147.89"/>
<polygon fill="#63b8ff" stroke="#63b8ff" points="305.86,-112.72 295.39,-111.09 302.55,-118.89 305.86,-112.72"/>
</a>
</g>
</g>
<!-- Node6 -->
<g id="Node000006" class="node">
<title>Node6</title>
<g id="a_Node000006"><a xlink:href="class_p4_1_1_json_number.html" target="_top" xlink:title=" ">
<polygon fill="white" stroke="#bfbfbf" points="446.5,-130 352.5,-130 352.5,-111 446.5,-111 446.5,-130"/>
<text text-anchor="middle" x="399.5" y="-118" font-family="Helvetica,sans-Serif" font-size="10.00">P4::JsonNumber</text>
</a>
</g>
</g>
<!-- Node1&#45;&gt;Node6 -->
<g id="edge5_Node000001_Node000006" class="edge">
<title>Node1&#45;&gt;Node6</title>
<g id="a_edge5_Node000001_Node000006"><a xlink:title=" ">
<path fill="none" stroke="#63b8ff" d="M326.03,-109.07C334.65,-110.43 343.61,-111.84 352.17,-113.19"/>
<polygon fill="#63b8ff" stroke="#63b8ff" points="326.55,-105.61 316.13,-107.51 325.46,-112.53 326.55,-105.61"/>
</a>
</g>
</g>
<!-- Node7 -->
<g id="Node000007" class="node">
<title>Node7</title>
<g id="a_Node000007"><a xlink:href="class_p4_1_1_json_object.html" target="_top" xlink:title=" ">
<polygon fill="white" stroke="#bfbfbf" points="442.5,-93 356.5,-93 356.5,-74 442.5,-74 442.5,-93"/>
<text text-anchor="middle" x="399.5" y="-81" font-family="Helvetica,sans-Serif" font-size="10.00">P4::JsonObject</text>
</a>
</g>
</g>
<!-- Node1&#45;&gt;Node7 -->
<g id="edge6_Node000001_Node000007" class="edge">
<title>Node1&#45;&gt;Node7</title>
<g id="a_edge6_Node000001_Node000007"><a xlink:title=" ">
<path fill="none" stroke="#63b8ff" d="M326.31,-94.28C336.28,-92.79 346.71,-91.24 356.44,-89.78"/>
<polygon fill="#63b8ff" stroke="#63b8ff" points="325.5,-90.87 316.13,-95.8 326.53,-97.79 325.5,-90.87"/>
</a>
</g>
</g>
<!-- Node8 -->
<g id="Node000008" class="node">
<title>Node8</title>
<g id="a_Node000008"><a xlink:href="class_p4_1_1_json_string.html" target="_top" xlink:title=" ">
<polygon fill="white" stroke="#bfbfbf" points="441,-56 358,-56 358,-37 441,-37 441,-56"/>
<text text-anchor="middle" x="399.5" y="-44" font-family="Helvetica,sans-Serif" font-size="10.00">P4::JsonString</text>
</a>
</g>
</g>
<!-- Node1&#45;&gt;Node8 -->
<g id="edge7_Node000001_Node000008" class="edge">
<title>Node1&#45;&gt;Node8</title>
<g id="a_edge7_Node000001_Node000008"><a xlink:title=" ">
<path fill="none" stroke="#63b8ff" d="M305.03,-87.22C318.92,-80.07 336.2,-71.49 352,-64.5 358.49,-61.63 365.6,-58.75 372.25,-56.16"/>
<polygon fill="#63b8ff" stroke="#63b8ff" points="303.28,-84.18 296.02,-91.89 306.51,-90.39 303.28,-84.18"/>
</a>
</g>
</g>
<!-- Node9 -->
<g id="Node000009" class="node">
<title>Node9</title>
<g id="a_Node000009"><a xlink:href="class_p4_1_1_json_vector.html" target="_top" xlink:title=" ">
<polygon fill="white" stroke="#bfbfbf" points="442.5,-19 356.5,-19 356.5,0 442.5,0 442.5,-19"/>
<text text-anchor="middle" x="399.5" y="-7" font-family="Helvetica,sans-Serif" font-size="10.00">P4::JsonVector</text>
</a>
</g>
</g>
<!-- Node1&#45;&gt;Node9 -->
<g id="edge8_Node000001_Node000009" class="edge">
<title>Node1&#45;&gt;Node9</title>
<g id="a_edge8_Node000001_Node000009"><a xlink:title=" ">
<path fill="none" stroke="#63b8ff" d="M292,-83.75C305.77,-67.28 328.15,-43.04 352,-27.5 356.93,-24.29 362.53,-21.51 368.08,-19.17"/>
<polygon fill="#63b8ff" stroke="#63b8ff" points="289.23,-81.6 285.62,-91.56 294.66,-86.03 289.23,-81.6"/>
</a>
</g>
</g>
<!-- Node2 -->
<g id="Node000002" class="node">
<title>Node2</title>
<g id="a_Node000002"><a xlink:href="class_p4_1_1_i_castable.html" target="_top" xlink:title=" ">
<polygon fill="white" stroke="#666666" points="202,-111 122,-111 122,-92 202,-92 202,-111"/>
<text text-anchor="middle" x="162" y="-99" font-family="Helvetica,sans-Serif" font-size="10.00">P4::ICastable</text>
</a>
</g>
</g>
<!-- Node2&#45;&gt;Node1 -->
<g id="edge1_Node000001_Node000002" class="edge">
<title>Node2&#45;&gt;Node1</title>
<g id="a_edge1_Node000001_Node000002"><a xlink:title=" ">
<path fill="none" stroke="#63b8ff" d="M212.37,-101.5C220.83,-101.5 229.51,-101.5 237.63,-101.5"/>
<polygon fill="#63b8ff" stroke="#63b8ff" points="212.2,-98 202.2,-101.5 212.2,-105 212.2,-98"/>
</a>
</g>
</g>
<!-- Node3 -->
<g id="Node000003" class="node">
<title>Node3</title>
<g id="a_Node000003"><a xlink:href="struct_p4_1_1_r_t_t_i_1_1_base.html" target="_top" xlink:title=" ">
<polygon fill="white" stroke="#bfbfbf" points="86,-111 0,-111 0,-92 86,-92 86,-111"/>
<text text-anchor="middle" x="43" y="-99" font-family="Helvetica,sans-Serif" font-size="10.00">P4::RTTI::Base</text>
</a>
</g>
</g>
<!-- Node3&#45;&gt;Node2 -->
<g id="edge2_Node000002_Node000003" class="edge">
<title>Node3&#45;&gt;Node2</title>
<g id="a_edge2_Node000002_Node000003"><a xlink:title=" ">
<path fill="none" stroke="#63b8ff" d="M96.25,-101.5C104.88,-101.5 113.7,-101.5 121.94,-101.5"/>
<polygon fill="#63b8ff" stroke="#63b8ff" points="96.24,-98 86.24,-101.5 96.24,-105 96.24,-98"/>
</a>
</g>
</g>
</g>
</svg>
