<?xml version="1.0" encoding="UTF-8" standalone="no"?>
<!DOCTYPE svg PUBLIC "-//W3C//DTD SVG 1.1//EN"
 "http://www.w3.org/Graphics/SVG/1.1/DTD/svg11.dtd">
<!-- Generated by graphviz version 2.43.0 (0)
 -->
<!-- Title: P4::IR::Node Pages: 1 -->
<svg width="1044pt" height="1026pt"
 viewBox="0.00 0.00 1044.00 1025.50" xmlns="http://www.w3.org/2000/svg" xmlns:xlink="http://www.w3.org/1999/xlink">
<g id="graph0" class="graph" transform="scale(1 1) rotate(0) translate(4 1021.5)">
<title>P4::IR::Node</title>
<!-- Node1 -->
<g id="Node000001" class="node">
<title>Node1</title>
<g id="a_Node000001"><a xlink:title=" ">
<polygon fill="#999999" stroke="#666666" points="480,-551 404,-551 404,-532 480,-532 480,-551"/>
<text text-anchor="middle" x="442" y="-539" font-family="Helvetica,sans-Serif" font-size="10.00">P4::IR::Node</text>
</a>
</g>
</g>
<!-- Node7 -->
<g id="Node000007" class="node">
<title>Node7</title>
<g id="a_Node000007"><a xlink:href="class_p4_1_1_i_r_1_1_name_map.html" target="_top" xlink:title=" ">
<polygon fill="white" stroke="#bfbfbf" points="660,-604.5 535,-604.5 535,-574.5 660,-574.5 660,-604.5"/>
<text text-anchor="start" x="543" y="-592.5" font-family="Helvetica,sans-Serif" font-size="10.00">P4::IR::NameMap&lt; T,</text>
<text text-anchor="middle" x="597.5" y="-581.5" font-family="Helvetica,sans-Serif" font-size="10.00"> MAP, COMP, ALLOC &gt;</text>
</a>
</g>
</g>
<!-- Node1&#45;&gt;Node7 -->
<g id="edge6_Node000001_Node000007" class="edge">
<title>Node1&#45;&gt;Node7</title>
<g id="a_edge6_Node000001_Node000007"><a xlink:title=" ">
<path fill="none" stroke="#63b8ff" d="M480.93,-554.19C492.2,-557.9 504.58,-561.92 516,-565.5 525.46,-568.47 535.58,-571.55 545.33,-574.48"/>
<polygon fill="#63b8ff" stroke="#63b8ff" points="481.96,-550.85 471.37,-551.03 479.76,-557.49 481.96,-550.85"/>
</a>
</g>
</g>
<!-- Node8 -->
<g id="Node000008" class="node">
<title>Node8</title>
<g id="a_Node000008"><a xlink:href="class_p4_1_1_i_r_1_1_node_map.html" target="_top" xlink:title=" ">
<polygon fill="white" stroke="#bfbfbf" points="679,-556.5 516,-556.5 516,-526.5 679,-526.5 679,-556.5"/>
<text text-anchor="start" x="524" y="-544.5" font-family="Helvetica,sans-Serif" font-size="10.00">P4::IR::NodeMap&lt; KEY,</text>
<text text-anchor="middle" x="597.5" y="-533.5" font-family="Helvetica,sans-Serif" font-size="10.00"> VALUE, MAP, COMP, ALLOC &gt;</text>
</a>
</g>
</g>
<!-- Node1&#45;&gt;Node8 -->
<g id="edge7_Node000001_Node000008" class="edge">
<title>Node1&#45;&gt;Node8</title>
<g id="a_edge7_Node000001_Node000008"><a xlink:title=" ">
<path fill="none" stroke="#63b8ff" d="M490.23,-541.5C498.44,-541.5 507.17,-541.5 515.97,-541.5"/>
<polygon fill="#63b8ff" stroke="#63b8ff" points="490.16,-538 480.16,-541.5 490.16,-545 490.16,-538"/>
</a>
</g>
</g>
<!-- Node9 -->
<g id="Node000009" class="node">
<title>Node9</title>
<g id="a_Node000009"><a xlink:href="class_p4_1_1_i_r_1_1_vector_base.html" target="_top" xlink:title=" ">
<polygon fill="white" stroke="#bfbfbf" points="650,-508 545,-508 545,-489 650,-489 650,-508"/>
<text text-anchor="middle" x="597.5" y="-496" font-family="Helvetica,sans-Serif" font-size="10.00">P4::IR::VectorBase</text>
</a>
</g>
</g>
<!-- Node1&#45;&gt;Node9 -->
<g id="edge8_Node000001_Node000009" class="edge">
<title>Node1&#45;&gt;Node9</title>
<g id="a_edge8_Node000001_Node000009"><a xlink:title=" ">
<path fill="none" stroke="#63b8ff" d="M479.93,-528.68C491.43,-524.87 504.18,-520.83 516,-517.5 527.89,-514.15 540.87,-510.91 552.88,-508.08"/>
<polygon fill="#63b8ff" stroke="#63b8ff" points="478.58,-525.44 470.21,-531.94 480.81,-532.07 478.58,-525.44"/>
</a>
</g>
</g>
<!-- Node2 -->
<g id="Node000002" class="node">
<title>Node2</title>
<g id="a_Node000002"><a xlink:href="class_p4_1_1_i_r_1_1_i_node.html" target="_top" xlink:title=" ">
<polygon fill="white" stroke="#bfbfbf" points="368,-551 289,-551 289,-532 368,-532 368,-551"/>
<text text-anchor="middle" x="328.5" y="-539" font-family="Helvetica,sans-Serif" font-size="10.00">P4::IR::INode</text>
</a>
</g>
</g>
<!-- Node2&#45;&gt;Node1 -->
<g id="edge1_Node000001_Node000002" class="edge">
<title>Node2&#45;&gt;Node1</title>
<g id="a_edge1_Node000001_Node000002"><a xlink:title=" ">
<path fill="none" stroke="#63b8ff" d="M378.44,-541.5C386.98,-541.5 395.73,-541.5 403.89,-541.5"/>
<polygon fill="#63b8ff" stroke="#63b8ff" points="378.18,-538 368.18,-541.5 378.18,-545 378.18,-538"/>
</a>
</g>
</g>
<!-- Node3 -->
<g id="Node000003" class="node">
<title>Node3</title>
<g id="a_Node000003"><a xlink:href="class_p4_1_1_util_1_1_i_has_source_info.html" target="_top" xlink:title=" ">
<polygon fill="white" stroke="#bfbfbf" points="253,-588 122,-588 122,-569 253,-569 253,-588"/>
<text text-anchor="middle" x="187.5" y="-576" font-family="Helvetica,sans-Serif" font-size="10.00">P4::Util::IHasSourceInfo</text>
</a>
</g>
</g>
<!-- Node3&#45;&gt;Node2 -->
<g id="edge2_Node000002_Node000003" class="edge">
<title>Node3&#45;&gt;Node2</title>
<g id="a_edge2_Node000002_Node000003"><a xlink:title=" ">
<path fill="none" stroke="#63b8ff" d="M234.03,-566.38C252.63,-561.43 273.84,-555.78 291.34,-551.12"/>
<polygon fill="#63b8ff" stroke="#63b8ff" points="233.06,-563.02 224.3,-568.97 234.86,-569.78 233.06,-563.02"/>
</a>
</g>
</g>
<!-- Node4 -->
<g id="Node000004" class="node">
<title>Node4</title>
<g id="a_Node000004"><a xlink:href="class_p4_1_1_i_has_db_print.html" target="_top" xlink:title=" ">
<polygon fill="white" stroke="#bfbfbf" points="233.5,-551 141.5,-551 141.5,-532 233.5,-532 233.5,-551"/>
<text text-anchor="middle" x="187.5" y="-539" font-family="Helvetica,sans-Serif" font-size="10.00">P4::IHasDbPrint</text>
</a>
</g>
</g>
<!-- Node4&#45;&gt;Node2 -->
<g id="edge3_Node000002_Node000004" class="edge">
<title>Node4&#45;&gt;Node2</title>
<g id="a_edge3_Node000002_Node000004"><a xlink:title=" ">
<path fill="none" stroke="#63b8ff" d="M243.84,-541.5C258.85,-541.5 274.78,-541.5 288.67,-541.5"/>
<polygon fill="#63b8ff" stroke="#63b8ff" points="243.63,-538 233.63,-541.5 243.63,-545 243.63,-538"/>
</a>
</g>
</g>
<!-- Node5 -->
<g id="Node000005" class="node">
<title>Node5</title>
<g id="a_Node000005"><a xlink:href="class_p4_1_1_i_castable.html" target="_top" xlink:title=" ">
<polygon fill="white" stroke="#666666" points="227.5,-514 147.5,-514 147.5,-495 227.5,-495 227.5,-514"/>
<text text-anchor="middle" x="187.5" y="-502" font-family="Helvetica,sans-Serif" font-size="10.00">P4::ICastable</text>
</a>
</g>
</g>
<!-- Node5&#45;&gt;Node2 -->
<g id="edge4_Node000002_Node000005" class="edge">
<title>Node5&#45;&gt;Node2</title>
<g id="a_edge4_Node000002_Node000005"><a xlink:title=" ">
<path fill="none" stroke="#63b8ff" d="M234.03,-516.62C252.63,-521.57 273.84,-527.22 291.34,-531.88"/>
<polygon fill="#63b8ff" stroke="#63b8ff" points="234.86,-513.22 224.3,-514.03 233.06,-519.98 234.86,-513.22"/>
</a>
</g>
</g>
<!-- Node6 -->
<g id="Node000006" class="node">
<title>Node6</title>
<g id="a_Node000006"><a xlink:href="struct_p4_1_1_r_t_t_i_1_1_base.html" target="_top" xlink:title=" ">
<polygon fill="white" stroke="#bfbfbf" points="86,-514 0,-514 0,-495 86,-495 86,-514"/>
<text text-anchor="middle" x="43" y="-502" font-family="Helvetica,sans-Serif" font-size="10.00">P4::RTTI::Base</text>
</a>
</g>
</g>
<!-- Node6&#45;&gt;Node5 -->
<g id="edge5_Node000005_Node000006" class="edge">
<title>Node6&#45;&gt;Node5</title>
<g id="a_edge5_Node000005_Node000006"><a xlink:title=" ">
<path fill="none" stroke="#63b8ff" d="M96.62,-504.5C113.45,-504.5 131.77,-504.5 147.46,-504.5"/>
<polygon fill="#63b8ff" stroke="#63b8ff" points="96.37,-501 86.37,-504.5 96.37,-508 96.37,-501"/>
</a>
</g>
</g>
<!-- Node10 -->
<g id="Node000010" class="node">
<title>Node10</title>
<g id="a_Node000010"><a xlink:href="class_p4_1_1_i_r_1_1_vector.html" target="_top" xlink:title=" ">
<polygon fill="white" stroke="#bfbfbf" points="832,-1017.5 730,-1017.5 730,-987.5 832,-987.5 832,-1017.5"/>
<text text-anchor="start" x="738" y="-1005.5" font-family="Helvetica,sans-Serif" font-size="10.00">P4::IR::Vector&lt; IR</text>
<text text-anchor="middle" x="781" y="-994.5" font-family="Helvetica,sans-Serif" font-size="10.00">::BFN::Pipe &gt;</text>
</a>
</g>
</g>
<!-- Node9&#45;&gt;Node10 -->
<g id="edge9_Node000009_Node000010" class="edge">
<title>Node9&#45;&gt;Node10</title>
<g id="a_edge9_Node000009_Node000010"><a xlink:title=" ">
<path fill="none" stroke="#63b8ff" d="M659.73,-504.06C667.08,-507.12 673.81,-511.44 679,-517.5 745.86,-595.53 653.02,-896.54 715,-978.5 718.92,-983.68 724.08,-987.74 729.78,-990.93"/>
<polygon fill="#63b8ff" stroke="#63b8ff" points="660.74,-500.71 650.15,-500.83 658.51,-507.35 660.74,-500.71"/>
</a>
</g>
</g>
<!-- Node11 -->
<g id="Node000011" class="node">
<title>Node11</title>
<g id="a_Node000011"><a xlink:href="class_p4_1_1_i_r_1_1_vector.html" target="_top" xlink:title=" ">
<polygon fill="white" stroke="#bfbfbf" points="842,-969.5 720,-969.5 720,-939.5 842,-939.5 842,-969.5"/>
<text text-anchor="start" x="728" y="-957.5" font-family="Helvetica,sans-Serif" font-size="10.00">P4::IR::Vector&lt; IR</text>
<text text-anchor="middle" x="781" y="-946.5" font-family="Helvetica,sans-Serif" font-size="10.00">::NamedExpression &gt;</text>
</a>
</g>
</g>
<!-- Node9&#45;&gt;Node11 -->
<g id="edge10_Node000009_Node000011" class="edge">
<title>Node9&#45;&gt;Node11</title>
<g id="a_edge10_Node000009_Node000011"><a xlink:title=" ">
<path fill="none" stroke="#63b8ff" d="M659.68,-504.11C667.04,-507.16 673.78,-511.47 679,-517.5 739.26,-587.19 659.1,-857.27 715,-930.5 717.63,-933.94 720.8,-936.89 724.32,-939.42"/>
<polygon fill="#63b8ff" stroke="#63b8ff" points="660.69,-500.75 650.09,-500.88 658.45,-507.39 660.69,-500.75"/>
</a>
</g>
</g>
<!-- Node13 -->
<g id="Node000013" class="node">
<title>Node13</title>
<g id="a_Node000013"><a xlink:href="class_p4_1_1_i_r_1_1_vector.html" target="_top" xlink:title=" ">
<polygon fill="white" stroke="#bfbfbf" points="832,-921.5 730,-921.5 730,-891.5 832,-891.5 832,-921.5"/>
<text text-anchor="start" x="738" y="-909.5" font-family="Helvetica,sans-Serif" font-size="10.00">P4::IR::Vector&lt; IR</text>
<text text-anchor="middle" x="781" y="-898.5" font-family="Helvetica,sans-Serif" font-size="10.00">::Expression &gt;</text>
</a>
</g>
</g>
<!-- Node9&#45;&gt;Node13 -->
<g id="edge12_Node000009_Node000013" class="edge">
<title>Node9&#45;&gt;Node13</title>
<g id="a_edge12_Node000009_Node000013"><a xlink:title=" ">
<path fill="none" stroke="#63b8ff" d="M659.62,-504.16C666.99,-507.2 673.75,-511.5 679,-517.5 732.66,-578.85 665.18,-818 715,-882.5 718.97,-887.64 724.16,-891.68 729.87,-894.86"/>
<polygon fill="#63b8ff" stroke="#63b8ff" points="660.62,-500.81 650.02,-500.94 658.39,-507.44 660.62,-500.81"/>
</a>
</g>
</g>
<!-- Node14 -->
<g id="Node000014" class="node">
<title>Node14</title>
<g id="a_Node000014"><a xlink:href="class_p4_1_1_i_r_1_1_vector.html" target="_top" xlink:title=" ">
<polygon fill="white" stroke="#bfbfbf" points="833,-873.5 729,-873.5 729,-843.5 833,-843.5 833,-873.5"/>
<text text-anchor="start" x="737" y="-861.5" font-family="Helvetica,sans-Serif" font-size="10.00">P4::IR::Vector&lt; P4</text>
<text text-anchor="middle" x="781" y="-850.5" font-family="Helvetica,sans-Serif" font-size="10.00">::IR::Node &gt;</text>
</a>
</g>
</g>
<!-- Node9&#45;&gt;Node14 -->
<g id="edge13_Node000009_Node000014" class="edge">
<title>Node9&#45;&gt;Node14</title>
<g id="a_edge13_Node000009_Node000014"><a xlink:title=" ">
<path fill="none" stroke="#63b8ff" d="M660.3,-504.55C667.38,-507.56 673.89,-511.74 679,-517.5 773.14,-623.53 627.49,-722.93 715,-834.5 718.79,-839.33 723.64,-843.18 728.99,-846.26"/>
<polygon fill="#63b8ff" stroke="#63b8ff" points="660.94,-501.07 650.35,-501.14 658.67,-507.69 660.94,-501.07"/>
</a>
</g>
</g>
<!-- Node16 -->
<g id="Node000016" class="node">
<title>Node16</title>
<g id="a_Node000016"><a xlink:href="class_p4_1_1_i_r_1_1_vector.html" target="_top" xlink:title=" ">
<polygon fill="white" stroke="#bfbfbf" points="832,-825.5 730,-825.5 730,-795.5 832,-795.5 832,-825.5"/>
<text text-anchor="start" x="738" y="-813.5" font-family="Helvetica,sans-Serif" font-size="10.00">P4::IR::Vector&lt; IR</text>
<text text-anchor="middle" x="781" y="-802.5" font-family="Helvetica,sans-Serif" font-size="10.00">::StructField &gt;</text>
</a>
</g>
</g>
<!-- Node9&#45;&gt;Node16 -->
<g id="edge15_Node000009_Node000016" class="edge">
<title>Node9&#45;&gt;Node16</title>
<g id="a_edge15_Node000009_Node000016"><a xlink:title=" ">
<path fill="none" stroke="#63b8ff" d="M659.71,-504.45C667,-507.46 673.71,-511.66 679,-517.5 759.98,-606.9 639.62,-692.33 715,-786.5 718.98,-791.48 724.11,-795.42 729.72,-798.55"/>
<polygon fill="#63b8ff" stroke="#63b8ff" points="660.82,-501.13 650.23,-501.24 658.58,-507.76 660.82,-501.13"/>
</a>
</g>
</g>
<!-- Node18 -->
<g id="Node000018" class="node">
<title>Node18</title>
<g id="a_Node000018"><a xlink:href="class_p4_1_1_i_r_1_1_vector.html" target="_top" xlink:title=" ">
<polygon fill="white" stroke="#bfbfbf" points="832,-777.5 730,-777.5 730,-747.5 832,-747.5 832,-777.5"/>
<text text-anchor="start" x="738" y="-765.5" font-family="Helvetica,sans-Serif" font-size="10.00">P4::IR::Vector&lt; IR</text>
<text text-anchor="middle" x="781" y="-754.5" font-family="Helvetica,sans-Serif" font-size="10.00">::MAU::Table &gt;</text>
</a>
</g>
</g>
<!-- Node9&#45;&gt;Node18 -->
<g id="edge17_Node000009_Node000018" class="edge">
<title>Node9&#45;&gt;Node18</title>
<g id="a_edge17_Node000009_Node000018"><a xlink:title=" ">
<path fill="none" stroke="#63b8ff" d="M659.55,-504.59C666.87,-507.57 673.63,-511.74 679,-517.5 746.85,-590.3 651.71,-661.7 715,-738.5 719.05,-743.42 724.22,-747.33 729.85,-750.44"/>
<polygon fill="#63b8ff" stroke="#63b8ff" points="660.65,-501.26 650.06,-501.4 658.42,-507.9 660.65,-501.26"/>
</a>
</g>
</g>
<!-- Node19 -->
<g id="Node000019" class="node">
<title>Node19</title>
<g id="a_Node000019"><a xlink:href="class_p4_1_1_i_r_1_1_vector.html" target="_top" xlink:title=" ">
<polygon fill="white" stroke="#bfbfbf" points="832,-729.5 730,-729.5 730,-699.5 832,-699.5 832,-729.5"/>
<text text-anchor="start" x="738" y="-717.5" font-family="Helvetica,sans-Serif" font-size="10.00">P4::IR::Vector&lt; IR</text>
<text text-anchor="middle" x="781" y="-706.5" font-family="Helvetica,sans-Serif" font-size="10.00">::Type &gt;</text>
</a>
</g>
</g>
<!-- Node9&#45;&gt;Node19 -->
<g id="edge18_Node000009_Node000019" class="edge">
<title>Node9&#45;&gt;Node19</title>
<g id="a_edge18_Node000009_Node000019"><a xlink:title=" ">
<path fill="none" stroke="#63b8ff" d="M660.09,-505.12C667.14,-508.05 673.7,-512.05 679,-517.5 733.79,-573.77 663.74,-631 715,-690.5 719.08,-695.24 724.19,-699.04 729.73,-702.1"/>
<polygon fill="#63b8ff" stroke="#63b8ff" points="660.81,-501.67 650.22,-501.76 658.56,-508.29 660.81,-501.67"/>
</a>
</g>
</g>
<!-- Node20 -->
<g id="Node000020" class="node">
<title>Node20</title>
<g id="a_Node000020"><a xlink:href="class_p4_1_1_i_r_1_1_vector.html" target="_top" xlink:title=" ">
<polygon fill="white" stroke="#bfbfbf" points="832,-681.5 730,-681.5 730,-651.5 832,-651.5 832,-681.5"/>
<text text-anchor="start" x="738" y="-669.5" font-family="Helvetica,sans-Serif" font-size="10.00">P4::IR::Vector&lt; IR</text>
<text text-anchor="middle" x="781" y="-658.5" font-family="Helvetica,sans-Serif" font-size="10.00">::Argument &gt;</text>
</a>
</g>
</g>
<!-- Node9&#45;&gt;Node20 -->
<g id="edge19_Node000009_Node000020" class="edge">
<title>Node9&#45;&gt;Node20</title>
<g id="a_edge19_Node000009_Node000020"><a xlink:title=" ">
<path fill="none" stroke="#63b8ff" d="M659.98,-505.61C667,-508.47 673.57,-512.33 679,-517.5 720.86,-557.37 675.64,-600.15 715,-642.5 719.18,-646.99 724.27,-650.65 729.75,-653.62"/>
<polygon fill="#63b8ff" stroke="#63b8ff" points="660.8,-502.2 650.21,-502.31 658.56,-508.83 660.8,-502.2"/>
</a>
</g>
</g>
<!-- Node21 -->
<g id="Node000021" class="node">
<title>Node21</title>
<g id="a_Node000021"><a xlink:href="class_p4_1_1_i_r_1_1_vector.html" target="_top" xlink:title=" ">
<polygon fill="white" stroke="#bfbfbf" points="832,-633.5 730,-633.5 730,-603.5 832,-603.5 832,-633.5"/>
<text text-anchor="start" x="738" y="-621.5" font-family="Helvetica,sans-Serif" font-size="10.00">P4::IR::Vector&lt; IR</text>
<text text-anchor="middle" x="781" y="-610.5" font-family="Helvetica,sans-Serif" font-size="10.00">::Declaration &gt;</text>
</a>
</g>
</g>
<!-- Node9&#45;&gt;Node21 -->
<g id="edge20_Node000009_Node000021" class="edge">
<title>Node9&#45;&gt;Node21</title>
<g id="a_edge20_Node000009_Node000021"><a xlink:title=" ">
<path fill="none" stroke="#63b8ff" d="M659.81,-506.67C666.74,-509.36 673.33,-512.89 679,-517.5 708.31,-541.33 687.19,-568.93 715,-594.5 719.34,-598.49 724.4,-601.83 729.74,-604.63"/>
<polygon fill="#63b8ff" stroke="#63b8ff" points="660.8,-503.31 650.21,-503.49 658.6,-509.96 660.8,-503.31"/>
</a>
</g>
</g>
<!-- Node23 -->
<g id="Node000023" class="node">
<title>Node23</title>
<g id="a_Node000023"><a xlink:href="class_p4_1_1_i_r_1_1_vector.html" target="_top" xlink:title=" ">
<polygon fill="white" stroke="#bfbfbf" points="832,-585.5 730,-585.5 730,-555.5 832,-555.5 832,-585.5"/>
<text text-anchor="start" x="738" y="-573.5" font-family="Helvetica,sans-Serif" font-size="10.00">P4::IR::Vector&lt; IR</text>
<text text-anchor="middle" x="781" y="-562.5" font-family="Helvetica,sans-Serif" font-size="10.00">::StatOrDecl &gt;</text>
</a>
</g>
</g>
<!-- Node9&#45;&gt;Node23 -->
<g id="edge22_Node000009_Node000023" class="edge">
<title>Node9&#45;&gt;Node23</title>
<g id="a_edge22_Node000009_Node000023"><a xlink:title=" ">
<path fill="none" stroke="#63b8ff" d="M660.01,-509.97C666.57,-512.09 673.02,-514.57 679,-517.5 697.46,-526.53 697.13,-536.36 715,-546.5 720.76,-549.76 727.04,-552.73 733.36,-555.38"/>
<polygon fill="#63b8ff" stroke="#63b8ff" points="660.94,-506.6 650.36,-507.13 658.97,-513.31 660.94,-506.6"/>
</a>
</g>
</g>
<!-- Node25 -->
<g id="Node000025" class="node">
<title>Node25</title>
<g id="a_Node000025"><a xlink:href="class_p4_1_1_i_r_1_1_vector.html" target="_top" xlink:title=" ">
<polygon fill="white" stroke="#bfbfbf" points="847,-537.5 715,-537.5 715,-507.5 847,-507.5 847,-537.5"/>
<text text-anchor="start" x="723" y="-525.5" font-family="Helvetica,sans-Serif" font-size="10.00">P4::IR::Vector&lt; IR</text>
<text text-anchor="middle" x="781" y="-514.5" font-family="Helvetica,sans-Serif" font-size="10.00">::DpdkAsmStatement &gt;</text>
</a>
</g>
</g>
<!-- Node9&#45;&gt;Node25 -->
<g id="edge24_Node000009_Node000025" class="edge">
<title>Node9&#45;&gt;Node25</title>
<g id="a_edge24_Node000009_Node000025"><a xlink:title=" ">
<path fill="none" stroke="#63b8ff" d="M660.16,-506.65C677.74,-508.98 696.95,-511.52 714.73,-513.87"/>
<polygon fill="#63b8ff" stroke="#63b8ff" points="660.4,-503.15 650.03,-505.31 659.48,-510.09 660.4,-503.15"/>
</a>
</g>
</g>
<!-- Node27 -->
<g id="Node000027" class="node">
<title>Node27</title>
<g id="a_Node000027"><a xlink:href="class_p4_1_1_i_r_1_1_vector.html" target="_top" xlink:title=" ">
<polygon fill="white" stroke="#bfbfbf" points="832,-489.5 730,-489.5 730,-459.5 832,-459.5 832,-489.5"/>
<text text-anchor="start" x="738" y="-477.5" font-family="Helvetica,sans-Serif" font-size="10.00">P4::IR::Vector&lt; IR</text>
<text text-anchor="middle" x="781" y="-466.5" font-family="Helvetica,sans-Serif" font-size="10.00">::DpdkTable &gt;</text>
</a>
</g>
</g>
<!-- Node9&#45;&gt;Node27 -->
<g id="edge26_Node000009_Node000027" class="edge">
<title>Node9&#45;&gt;Node27</title>
<g id="a_edge26_Node000009_Node000027"><a xlink:title=" ">
<path fill="none" stroke="#63b8ff" d="M660.24,-490.34C682.95,-487.33 708.36,-483.97 729.91,-481.12"/>
<polygon fill="#63b8ff" stroke="#63b8ff" points="659.48,-486.91 650.03,-491.69 660.4,-493.85 659.48,-486.91"/>
</a>
</g>
</g>
<!-- Node29 -->
<g id="Node000029" class="node">
<title>Node29</title>
<g id="a_Node000029"><a xlink:href="class_p4_1_1_i_r_1_1_vector.html" target="_top" xlink:title=" ">
<polygon fill="white" stroke="#bfbfbf" points="832,-441.5 730,-441.5 730,-411.5 832,-411.5 832,-441.5"/>
<text text-anchor="start" x="738" y="-429.5" font-family="Helvetica,sans-Serif" font-size="10.00">P4::IR::Vector&lt; IR</text>
<text text-anchor="middle" x="781" y="-418.5" font-family="Helvetica,sans-Serif" font-size="10.00">::DpdkSelector &gt;</text>
</a>
</g>
</g>
<!-- Node9&#45;&gt;Node29 -->
<g id="edge28_Node000009_Node000029" class="edge">
<title>Node9&#45;&gt;Node29</title>
<g id="a_edge28_Node000009_Node000029"><a xlink:title=" ">
<path fill="none" stroke="#63b8ff" d="M630.57,-484.91C653.9,-475.12 686.29,-461.71 715,-450.5 722.62,-447.52 730.78,-444.44 738.65,-441.51"/>
<polygon fill="#63b8ff" stroke="#63b8ff" points="629.03,-481.76 621.17,-488.87 631.74,-488.21 629.03,-481.76"/>
</a>
</g>
</g>
<!-- Node31 -->
<g id="Node000031" class="node">
<title>Node31</title>
<g id="a_Node000031"><a xlink:href="class_p4_1_1_i_r_1_1_vector.html" target="_top" xlink:title=" ">
<polygon fill="white" stroke="#bfbfbf" points="832,-393.5 730,-393.5 730,-363.5 832,-363.5 832,-393.5"/>
<text text-anchor="start" x="738" y="-381.5" font-family="Helvetica,sans-Serif" font-size="10.00">P4::IR::Vector&lt; IR</text>
<text text-anchor="middle" x="781" y="-370.5" font-family="Helvetica,sans-Serif" font-size="10.00">::DpdkLearner &gt;</text>
</a>
</g>
</g>
<!-- Node9&#45;&gt;Node31 -->
<g id="edge30_Node000009_Node000031" class="edge">
<title>Node9&#45;&gt;Node31</title>
<g id="a_edge30_Node000009_Node000031"><a xlink:title=" ">
<path fill="none" stroke="#63b8ff" d="M615.26,-481.54C636.75,-460.58 675.91,-424.96 715,-402.5 720.74,-399.2 727.01,-396.22 733.32,-393.56"/>
<polygon fill="#63b8ff" stroke="#63b8ff" points="612.58,-479.27 607.93,-488.79 617.5,-484.25 612.58,-479.27"/>
</a>
</g>
</g>
<!-- Node33 -->
<g id="Node000033" class="node">
<title>Node33</title>
<g id="a_Node000033"><a xlink:href="class_p4_1_1_i_r_1_1_vector.html" target="_top" xlink:title=" ">
<polygon fill="white" stroke="#bfbfbf" points="832,-345.5 730,-345.5 730,-315.5 832,-315.5 832,-345.5"/>
<text text-anchor="start" x="738" y="-333.5" font-family="Helvetica,sans-Serif" font-size="10.00">P4::IR::Vector&lt; IR</text>
<text text-anchor="middle" x="781" y="-322.5" font-family="Helvetica,sans-Serif" font-size="10.00">::DpdkAction &gt;</text>
</a>
</g>
</g>
<!-- Node9&#45;&gt;Node33 -->
<g id="edge32_Node000009_Node000033" class="edge">
<title>Node9&#45;&gt;Node33</title>
<g id="a_edge32_Node000009_Node000033"><a xlink:title=" ">
<path fill="none" stroke="#63b8ff" d="M608.74,-480.29C626.59,-450.09 666.19,-389.5 715,-354.5 719.69,-351.13 724.91,-348.19 730.29,-345.62"/>
<polygon fill="#63b8ff" stroke="#63b8ff" points="605.7,-478.55 603.73,-488.96 611.76,-482.05 605.7,-478.55"/>
</a>
</g>
</g>
<!-- Node35 -->
<g id="Node000035" class="node">
<title>Node35</title>
<g id="a_Node000035"><a xlink:href="class_p4_1_1_i_r_1_1_vector.html" target="_top" xlink:title=" ">
<polygon fill="white" stroke="#bfbfbf" points="832,-297.5 730,-297.5 730,-267.5 832,-267.5 832,-297.5"/>
<text text-anchor="start" x="738" y="-285.5" font-family="Helvetica,sans-Serif" font-size="10.00">P4::IR::Vector&lt; IR</text>
<text text-anchor="middle" x="781" y="-274.5" font-family="Helvetica,sans-Serif" font-size="10.00">::Parameter &gt;</text>
</a>
</g>
</g>
<!-- Node9&#45;&gt;Node35 -->
<g id="edge34_Node000009_Node000035" class="edge">
<title>Node9&#45;&gt;Node35</title>
<g id="a_edge34_Node000009_Node000035"><a xlink:title=" ">
<path fill="none" stroke="#63b8ff" d="M605.25,-479.1C619.54,-440.75 656.41,-354.81 715,-306.5 719.45,-302.83 724.52,-299.69 729.82,-297.01"/>
<polygon fill="#63b8ff" stroke="#63b8ff" points="601.79,-478.38 601.68,-488.98 608.37,-480.76 601.79,-478.38"/>
</a>
</g>
</g>
<!-- Node37 -->
<g id="Node000037" class="node">
<title>Node37</title>
<g id="a_Node000037"><a xlink:href="class_p4_1_1_i_r_1_1_vector.html" target="_top" xlink:title=" ">
<polygon fill="white" stroke="#bfbfbf" points="839,-249.5 723,-249.5 723,-219.5 839,-219.5 839,-249.5"/>
<text text-anchor="start" x="731" y="-237.5" font-family="Helvetica,sans-Serif" font-size="10.00">P4::IR::Vector&lt; IR</text>
<text text-anchor="middle" x="781" y="-226.5" font-family="Helvetica,sans-Serif" font-size="10.00">::DpdkDeclaration &gt;</text>
</a>
</g>
</g>
<!-- Node9&#45;&gt;Node37 -->
<g id="edge36_Node000009_Node000037" class="edge">
<title>Node9&#45;&gt;Node37</title>
<g id="a_edge36_Node000009_Node000037"><a xlink:title=" ">
<path fill="none" stroke="#63b8ff" d="M602.77,-478.66C613.55,-433.28 646.03,-321.01 715,-258.5 718.74,-255.11 723.01,-252.18 727.52,-249.66"/>
<polygon fill="#63b8ff" stroke="#63b8ff" points="599.3,-478.16 600.49,-488.69 606.12,-479.71 599.3,-478.16"/>
</a>
</g>
</g>
<!-- Node39 -->
<g id="Node000039" class="node">
<title>Node39</title>
<g id="a_Node000039"><a xlink:href="class_p4_1_1_i_r_1_1_vector.html" target="_top" xlink:title=" ">
<polygon fill="white" stroke="#bfbfbf" points="832,-201.5 730,-201.5 730,-171.5 832,-171.5 832,-201.5"/>
<text text-anchor="start" x="738" y="-189.5" font-family="Helvetica,sans-Serif" font-size="10.00">P4::IR::Vector&lt; IR</text>
<text text-anchor="middle" x="781" y="-178.5" font-family="Helvetica,sans-Serif" font-size="10.00">::ParserState &gt;</text>
</a>
</g>
</g>
<!-- Node9&#45;&gt;Node39 -->
<g id="edge38_Node000009_Node000039" class="edge">
<title>Node9&#45;&gt;Node39</title>
<g id="a_edge38_Node000009_Node000039"><a xlink:title=" ">
<path fill="none" stroke="#63b8ff" d="M600.98,-478.63C608.43,-427.1 635.27,-287.82 715,-210.5 719.32,-206.31 724.43,-202.85 729.86,-199.98"/>
<polygon fill="#63b8ff" stroke="#63b8ff" points="597.48,-478.37 599.6,-488.75 604.42,-479.31 597.48,-478.37"/>
</a>
</g>
</g>
<!-- Node41 -->
<g id="Node000041" class="node">
<title>Node41</title>
<g id="a_Node000041"><a xlink:href="class_p4_1_1_i_r_1_1_vector.html" target="_top" xlink:title=" ">
<polygon fill="white" stroke="#bfbfbf" points="832,-153.5 730,-153.5 730,-123.5 832,-123.5 832,-153.5"/>
<text text-anchor="start" x="738" y="-141.5" font-family="Helvetica,sans-Serif" font-size="10.00">P4::IR::Vector&lt; IR</text>
<text text-anchor="middle" x="781" y="-130.5" font-family="Helvetica,sans-Serif" font-size="10.00">::SelectCase &gt;</text>
</a>
</g>
</g>
<!-- Node9&#45;&gt;Node41 -->
<g id="edge40_Node000009_Node000041" class="edge">
<title>Node9&#45;&gt;Node41</title>
<g id="a_edge40_Node000009_Node000041"><a xlink:title=" ">
<path fill="none" stroke="#63b8ff" d="M599.64,-478.85C603.98,-421.92 624.23,-255.1 715,-162.5 719.29,-158.12 724.46,-154.53 729.97,-151.59"/>
<polygon fill="#63b8ff" stroke="#63b8ff" points="596.14,-478.77 598.95,-488.99 603.12,-479.25 596.14,-478.77"/>
</a>
</g>
</g>
<!-- Node42 -->
<g id="Node000042" class="node">
<title>Node42</title>
<g id="a_Node000042"><a xlink:href="class_p4_1_1_i_r_1_1_vector.html" target="_top" xlink:title=" ">
<polygon fill="white" stroke="#bfbfbf" points="836.5,-105 725.5,-105 725.5,-86 836.5,-86 836.5,-105"/>
<text text-anchor="middle" x="781" y="-93" font-family="Helvetica,sans-Serif" font-size="10.00">P4::IR::Vector&lt; N &gt;</text>
</a>
</g>
</g>
<!-- Node9&#45;&gt;Node42 -->
<g id="edge41_Node000009_Node000042" class="edge">
<title>Node9&#45;&gt;Node42</title>
<g id="a_edge41_Node000009_Node000042"><a xlink:title=" ">
<path fill="none" stroke="#63b8ff" d="M598.33,-478.68C598.9,-415.83 609.43,-219.01 715,-114.5 718.93,-110.61 723.6,-107.51 728.62,-105.04"/>
<polygon fill="#63b8ff" stroke="#63b8ff" points="594.83,-478.8 598.32,-488.8 601.83,-478.8 594.83,-478.8"/>
</a>
</g>
</g>
<!-- Node43 -->
<g id="Node000043" class="node">
<title>Node43</title>
<g id="a_Node000043"><a xlink:href="class_p4_1_1_i_r_1_1_vector.html" target="_top" xlink:title=" ">
<polygon fill="white" stroke="#bfbfbf" points="832,-67.5 730,-67.5 730,-37.5 832,-37.5 832,-67.5"/>
<text text-anchor="start" x="738" y="-55.5" font-family="Helvetica,sans-Serif" font-size="10.00">P4::IR::Vector&lt; IR</text>
<text text-anchor="middle" x="781" y="-44.5" font-family="Helvetica,sans-Serif" font-size="10.00">::Annotation &gt;</text>
</a>
</g>
</g>
<!-- Node9&#45;&gt;Node43 -->
<g id="edge42_Node000009_Node000043" class="edge">
<title>Node9&#45;&gt;Node43</title>
<g id="a_edge42_Node000009_Node000043"><a xlink:title=" ">
<path fill="none" stroke="#63b8ff" d="M598,-478.4C597.44,-411.92 604.62,-196.6 715,-76.5 719.15,-71.98 724.23,-68.31 729.7,-65.33"/>
<polygon fill="#63b8ff" stroke="#63b8ff" points="594.5,-478.76 598.16,-488.71 601.5,-478.65 594.5,-478.76"/>
</a>
</g>
</g>
<!-- Node44 -->
<g id="Node000044" class="node">
<title>Node44</title>
<g id="a_Node000044"><a xlink:href="class_p4_1_1_i_r_1_1_vector.html" target="_top" xlink:title=" ">
<polygon fill="white" stroke="#bfbfbf" points="836,-19 726,-19 726,0 836,0 836,-19"/>
<text text-anchor="middle" x="781" y="-7" font-family="Helvetica,sans-Serif" font-size="10.00">P4::IR::Vector&lt; T &gt;</text>
</a>
</g>
</g>
<!-- Node9&#45;&gt;Node44 -->
<g id="edge43_Node000009_Node000044" class="edge">
<title>Node9&#45;&gt;Node44</title>
<g id="a_edge43_Node000009_Node000044"><a xlink:title=" ">
<path fill="none" stroke="#63b8ff" d="M600.81,-478.44C610.55,-397.44 650.65,-95.57 715,-28.5 718.74,-24.6 723.24,-21.48 728.1,-19"/>
<polygon fill="#63b8ff" stroke="#63b8ff" points="597.3,-478.4 599.6,-488.74 604.25,-479.22 597.3,-478.4"/>
</a>
</g>
</g>
<!-- Node12 -->
<g id="Node000012" class="node">
<title>Node12</title>
<g id="a_Node000012"><a xlink:href="class_p4_1_1_i_r_1_1_indexed_vector.html" target="_top" xlink:title=" ">
<polygon fill="white" stroke="#666666" points="1031,-969.5 888,-969.5 888,-939.5 1031,-939.5 1031,-969.5"/>
<text text-anchor="start" x="896" y="-957.5" font-family="Helvetica,sans-Serif" font-size="10.00">P4::IR::IndexedVector</text>
<text text-anchor="middle" x="959.5" y="-946.5" font-family="Helvetica,sans-Serif" font-size="10.00">&lt; IR::NamedExpression &gt;</text>
</a>
</g>
</g>
<!-- Node11&#45;&gt;Node12 -->
<g id="edge11_Node000011_Node000012" class="edge">
<title>Node11&#45;&gt;Node12</title>
<g id="a_edge11_Node000011_Node000012"><a xlink:title=" ">
<path fill="none" stroke="#63b8ff" d="M852.38,-954.5C864.07,-954.5 876.19,-954.5 887.88,-954.5"/>
<polygon fill="#63b8ff" stroke="#63b8ff" points="852.25,-951 842.25,-954.5 852.25,-958 852.25,-951"/>
</a>
</g>
</g>
<!-- Node15 -->
<g id="Node000015" class="node">
<title>Node15</title>
<g id="a_Node000015"><a xlink:href="class_p4_1_1_i_r_1_1_indexed_vector.html" target="_top" xlink:title=" ">
<polygon fill="white" stroke="#666666" points="1019,-873.5 900,-873.5 900,-843.5 1019,-843.5 1019,-873.5"/>
<text text-anchor="start" x="908" y="-861.5" font-family="Helvetica,sans-Serif" font-size="10.00">P4::IR::IndexedVector</text>
<text text-anchor="middle" x="959.5" y="-850.5" font-family="Helvetica,sans-Serif" font-size="10.00">&lt; P4::IR::Node &gt;</text>
</a>
</g>
</g>
<!-- Node14&#45;&gt;Node15 -->
<g id="edge14_Node000014_Node000015" class="edge">
<title>Node14&#45;&gt;Node15</title>
<g id="a_edge14_Node000014_Node000015"><a xlink:title=" ">
<path fill="none" stroke="#63b8ff" d="M843.06,-858.5C861.44,-858.5 881.57,-858.5 899.79,-858.5"/>
<polygon fill="#63b8ff" stroke="#63b8ff" points="843.05,-855 833.05,-858.5 843.05,-862 843.05,-855"/>
</a>
</g>
</g>
<!-- Node17 -->
<g id="Node000017" class="node">
<title>Node17</title>
<g id="a_Node000017"><a xlink:href="class_p4_1_1_i_r_1_1_indexed_vector.html" target="_top" xlink:title=" ">
<polygon fill="white" stroke="#666666" points="1019,-825.5 900,-825.5 900,-795.5 1019,-795.5 1019,-825.5"/>
<text text-anchor="start" x="908" y="-813.5" font-family="Helvetica,sans-Serif" font-size="10.00">P4::IR::IndexedVector</text>
<text text-anchor="middle" x="959.5" y="-802.5" font-family="Helvetica,sans-Serif" font-size="10.00">&lt; IR::StructField &gt;</text>
</a>
</g>
</g>
<!-- Node16&#45;&gt;Node17 -->
<g id="edge16_Node000016_Node000017" class="edge">
<title>Node16&#45;&gt;Node17</title>
<g id="a_edge16_Node000016_Node000017"><a xlink:title=" ">
<path fill="none" stroke="#63b8ff" d="M842.23,-810.5C860.85,-810.5 881.33,-810.5 899.84,-810.5"/>
<polygon fill="#63b8ff" stroke="#63b8ff" points="842.11,-807 832.11,-810.5 842.11,-814 842.11,-807"/>
</a>
</g>
</g>
<!-- Node22 -->
<g id="Node000022" class="node">
<title>Node22</title>
<g id="a_Node000022"><a xlink:href="class_p4_1_1_i_r_1_1_indexed_vector.html" target="_top" xlink:title=" ">
<polygon fill="white" stroke="#666666" points="1019,-633.5 900,-633.5 900,-603.5 1019,-603.5 1019,-633.5"/>
<text text-anchor="start" x="908" y="-621.5" font-family="Helvetica,sans-Serif" font-size="10.00">P4::IR::IndexedVector</text>
<text text-anchor="middle" x="959.5" y="-610.5" font-family="Helvetica,sans-Serif" font-size="10.00">&lt; IR::Declaration &gt;</text>
</a>
</g>
</g>
<!-- Node21&#45;&gt;Node22 -->
<g id="edge21_Node000021_Node000022" class="edge">
<title>Node21&#45;&gt;Node22</title>
<g id="a_edge21_Node000021_Node000022"><a xlink:title=" ">
<path fill="none" stroke="#63b8ff" d="M842.23,-618.5C860.85,-618.5 881.33,-618.5 899.84,-618.5"/>
<polygon fill="#63b8ff" stroke="#63b8ff" points="842.11,-615 832.11,-618.5 842.11,-622 842.11,-615"/>
</a>
</g>
</g>
<!-- Node24 -->
<g id="Node000024" class="node">
<title>Node24</title>
<g id="a_Node000024"><a xlink:href="class_p4_1_1_i_r_1_1_indexed_vector.html" target="_top" xlink:title=" ">
<polygon fill="white" stroke="#666666" points="1019,-585.5 900,-585.5 900,-555.5 1019,-555.5 1019,-585.5"/>
<text text-anchor="start" x="908" y="-573.5" font-family="Helvetica,sans-Serif" font-size="10.00">P4::IR::IndexedVector</text>
<text text-anchor="middle" x="959.5" y="-562.5" font-family="Helvetica,sans-Serif" font-size="10.00">&lt; IR::StatOrDecl &gt;</text>
</a>
</g>
</g>
<!-- Node23&#45;&gt;Node24 -->
<g id="edge23_Node000023_Node000024" class="edge">
<title>Node23&#45;&gt;Node24</title>
<g id="a_edge23_Node000023_Node000024"><a xlink:title=" ">
<path fill="none" stroke="#63b8ff" d="M842.23,-570.5C860.85,-570.5 881.33,-570.5 899.84,-570.5"/>
<polygon fill="#63b8ff" stroke="#63b8ff" points="842.11,-567 832.11,-570.5 842.11,-574 842.11,-567"/>
</a>
</g>
</g>
<!-- Node26 -->
<g id="Node000026" class="node">
<title>Node26</title>
<g id="a_Node000026"><a xlink:href="class_p4_1_1_i_r_1_1_indexed_vector.html" target="_top" xlink:title=" ">
<polygon fill="white" stroke="#666666" points="1036,-537.5 883,-537.5 883,-507.5 1036,-507.5 1036,-537.5"/>
<text text-anchor="start" x="891" y="-525.5" font-family="Helvetica,sans-Serif" font-size="10.00">P4::IR::IndexedVector</text>
<text text-anchor="middle" x="959.5" y="-514.5" font-family="Helvetica,sans-Serif" font-size="10.00">&lt; IR::DpdkAsmStatement &gt;</text>
</a>
</g>
</g>
<!-- Node25&#45;&gt;Node26 -->
<g id="edge25_Node000025_Node000026" class="edge">
<title>Node25&#45;&gt;Node26</title>
<g id="a_edge25_Node000025_Node000026"><a xlink:title=" ">
<path fill="none" stroke="#63b8ff" d="M857.39,-522.5C865.81,-522.5 874.39,-522.5 882.81,-522.5"/>
<polygon fill="#63b8ff" stroke="#63b8ff" points="857.22,-519 847.22,-522.5 857.22,-526 857.22,-519"/>
</a>
</g>
</g>
<!-- Node28 -->
<g id="Node000028" class="node">
<title>Node28</title>
<g id="a_Node000028"><a xlink:href="class_p4_1_1_i_r_1_1_indexed_vector.html" target="_top" xlink:title=" ">
<polygon fill="white" stroke="#666666" points="1019,-489.5 900,-489.5 900,-459.5 1019,-459.5 1019,-489.5"/>
<text text-anchor="start" x="908" y="-477.5" font-family="Helvetica,sans-Serif" font-size="10.00">P4::IR::IndexedVector</text>
<text text-anchor="middle" x="959.5" y="-466.5" font-family="Helvetica,sans-Serif" font-size="10.00">&lt; IR::DpdkTable &gt;</text>
</a>
</g>
</g>
<!-- Node27&#45;&gt;Node28 -->
<g id="edge27_Node000027_Node000028" class="edge">
<title>Node27&#45;&gt;Node28</title>
<g id="a_edge27_Node000027_Node000028"><a xlink:title=" ">
<path fill="none" stroke="#63b8ff" d="M842.23,-474.5C860.85,-474.5 881.33,-474.5 899.84,-474.5"/>
<polygon fill="#63b8ff" stroke="#63b8ff" points="842.11,-471 832.11,-474.5 842.11,-478 842.11,-471"/>
</a>
</g>
</g>
<!-- Node30 -->
<g id="Node000030" class="node">
<title>Node30</title>
<g id="a_Node000030"><a xlink:href="class_p4_1_1_i_r_1_1_indexed_vector.html" target="_top" xlink:title=" ">
<polygon fill="white" stroke="#666666" points="1019.5,-441.5 899.5,-441.5 899.5,-411.5 1019.5,-411.5 1019.5,-441.5"/>
<text text-anchor="start" x="907.5" y="-429.5" font-family="Helvetica,sans-Serif" font-size="10.00">P4::IR::IndexedVector</text>
<text text-anchor="middle" x="959.5" y="-418.5" font-family="Helvetica,sans-Serif" font-size="10.00">&lt; IR::DpdkSelector &gt;</text>
</a>
</g>
</g>
<!-- Node29&#45;&gt;Node30 -->
<g id="edge29_Node000029_Node000030" class="edge">
<title>Node29&#45;&gt;Node30</title>
<g id="a_edge29_Node000029_Node000030"><a xlink:title=" ">
<path fill="none" stroke="#63b8ff" d="M842.13,-426.5C860.57,-426.5 880.83,-426.5 899.2,-426.5"/>
<polygon fill="#63b8ff" stroke="#63b8ff" points="842.11,-423 832.11,-426.5 842.11,-430 842.11,-423"/>
</a>
</g>
</g>
<!-- Node32 -->
<g id="Node000032" class="node">
<title>Node32</title>
<g id="a_Node000032"><a xlink:href="class_p4_1_1_i_r_1_1_indexed_vector.html" target="_top" xlink:title=" ">
<polygon fill="white" stroke="#666666" points="1019,-393.5 900,-393.5 900,-363.5 1019,-363.5 1019,-393.5"/>
<text text-anchor="start" x="908" y="-381.5" font-family="Helvetica,sans-Serif" font-size="10.00">P4::IR::IndexedVector</text>
<text text-anchor="middle" x="959.5" y="-370.5" font-family="Helvetica,sans-Serif" font-size="10.00">&lt; IR::DpdkLearner &gt;</text>
</a>
</g>
</g>
<!-- Node31&#45;&gt;Node32 -->
<g id="edge31_Node000031_Node000032" class="edge">
<title>Node31&#45;&gt;Node32</title>
<g id="a_edge31_Node000031_Node000032"><a xlink:title=" ">
<path fill="none" stroke="#63b8ff" d="M842.23,-378.5C860.85,-378.5 881.33,-378.5 899.84,-378.5"/>
<polygon fill="#63b8ff" stroke="#63b8ff" points="842.11,-375 832.11,-378.5 842.11,-382 842.11,-375"/>
</a>
</g>
</g>
<!-- Node34 -->
<g id="Node000034" class="node">
<title>Node34</title>
<g id="a_Node000034"><a xlink:href="class_p4_1_1_i_r_1_1_indexed_vector.html" target="_top" xlink:title=" ">
<polygon fill="white" stroke="#666666" points="1019,-345.5 900,-345.5 900,-315.5 1019,-315.5 1019,-345.5"/>
<text text-anchor="start" x="908" y="-333.5" font-family="Helvetica,sans-Serif" font-size="10.00">P4::IR::IndexedVector</text>
<text text-anchor="middle" x="959.5" y="-322.5" font-family="Helvetica,sans-Serif" font-size="10.00">&lt; IR::DpdkAction &gt;</text>
</a>
</g>
</g>
<!-- Node33&#45;&gt;Node34 -->
<g id="edge33_Node000033_Node000034" class="edge">
<title>Node33&#45;&gt;Node34</title>
<g id="a_edge33_Node000033_Node000034"><a xlink:title=" ">
<path fill="none" stroke="#63b8ff" d="M842.23,-330.5C860.85,-330.5 881.33,-330.5 899.84,-330.5"/>
<polygon fill="#63b8ff" stroke="#63b8ff" points="842.11,-327 832.11,-330.5 842.11,-334 842.11,-327"/>
</a>
</g>
</g>
<!-- Node36 -->
<g id="Node000036" class="node">
<title>Node36</title>
<g id="a_Node000036"><a xlink:href="class_p4_1_1_i_r_1_1_indexed_vector.html" target="_top" xlink:title=" ">
<polygon fill="white" stroke="#666666" points="1019,-297.5 900,-297.5 900,-267.5 1019,-267.5 1019,-297.5"/>
<text text-anchor="start" x="908" y="-285.5" font-family="Helvetica,sans-Serif" font-size="10.00">P4::IR::IndexedVector</text>
<text text-anchor="middle" x="959.5" y="-274.5" font-family="Helvetica,sans-Serif" font-size="10.00">&lt; IR::Parameter &gt;</text>
</a>
</g>
</g>
<!-- Node35&#45;&gt;Node36 -->
<g id="edge35_Node000035_Node000036" class="edge">
<title>Node35&#45;&gt;Node36</title>
<g id="a_edge35_Node000035_Node000036"><a xlink:title=" ">
<path fill="none" stroke="#63b8ff" d="M842.23,-282.5C860.85,-282.5 881.33,-282.5 899.84,-282.5"/>
<polygon fill="#63b8ff" stroke="#63b8ff" points="842.11,-279 832.11,-282.5 842.11,-286 842.11,-279"/>
</a>
</g>
</g>
<!-- Node38 -->
<g id="Node000038" class="node">
<title>Node38</title>
<g id="a_Node000038"><a xlink:href="class_p4_1_1_i_r_1_1_indexed_vector.html" target="_top" xlink:title=" ">
<polygon fill="white" stroke="#666666" points="1028,-249.5 891,-249.5 891,-219.5 1028,-219.5 1028,-249.5"/>
<text text-anchor="start" x="899" y="-237.5" font-family="Helvetica,sans-Serif" font-size="10.00">P4::IR::IndexedVector</text>
<text text-anchor="middle" x="959.5" y="-226.5" font-family="Helvetica,sans-Serif" font-size="10.00">&lt; IR::DpdkDeclaration &gt;</text>
</a>
</g>
</g>
<!-- Node37&#45;&gt;Node38 -->
<g id="edge37_Node000037_Node000038" class="edge">
<title>Node37&#45;&gt;Node38</title>
<g id="a_edge37_Node000037_Node000038"><a xlink:title=" ">
<path fill="none" stroke="#63b8ff" d="M849.48,-234.5C863,-234.5 877.2,-234.5 890.72,-234.5"/>
<polygon fill="#63b8ff" stroke="#63b8ff" points="849.3,-231 839.3,-234.5 849.3,-238 849.3,-231"/>
</a>
</g>
</g>
<!-- Node40 -->
<g id="Node000040" class="node">
<title>Node40</title>
<g id="a_Node000040"><a xlink:href="class_p4_1_1_i_r_1_1_indexed_vector.html" target="_top" xlink:title=" ">
<polygon fill="white" stroke="#666666" points="1019,-201.5 900,-201.5 900,-171.5 1019,-171.5 1019,-201.5"/>
<text text-anchor="start" x="908" y="-189.5" font-family="Helvetica,sans-Serif" font-size="10.00">P4::IR::IndexedVector</text>
<text text-anchor="middle" x="959.5" y="-178.5" font-family="Helvetica,sans-Serif" font-size="10.00">&lt; IR::ParserState &gt;</text>
</a>
</g>
</g>
<!-- Node39&#45;&gt;Node40 -->
<g id="edge39_Node000039_Node000040" class="edge">
<title>Node39&#45;&gt;Node40</title>
<g id="a_edge39_Node000039_Node000040"><a xlink:title=" ">
<path fill="none" stroke="#63b8ff" d="M842.23,-186.5C860.85,-186.5 881.33,-186.5 899.84,-186.5"/>
<polygon fill="#63b8ff" stroke="#63b8ff" points="842.11,-183 832.11,-186.5 842.11,-190 842.11,-183"/>
</a>
</g>
</g>
<!-- Node45 -->
<g id="Node000045" class="node">
<title>Node45</title>
<g id="a_Node000045"><a xlink:href="class_p4_1_1_i_r_1_1_indexed_vector.html" target="_top" xlink:title=" ">
<polygon fill="white" stroke="#666666" points="1033.5,-19 885.5,-19 885.5,0 1033.5,0 1033.5,-19"/>
<text text-anchor="middle" x="959.5" y="-7" font-family="Helvetica,sans-Serif" font-size="10.00">P4::IR::IndexedVector&lt; T &gt;</text>
</a>
</g>
</g>
<!-- Node44&#45;&gt;Node45 -->
<g id="edge44_Node000044_Node000045" class="edge">
<title>Node44&#45;&gt;Node45</title>
<g id="a_edge44_Node000044_Node000045"><a xlink:title=" ">
<path fill="none" stroke="#63b8ff" d="M846.4,-9.5C859.09,-9.5 872.49,-9.5 885.45,-9.5"/>
<polygon fill="#63b8ff" stroke="#63b8ff" points="846.4,-6 836.4,-9.5 846.4,-13 846.4,-6"/>
</a>
</g>
</g>
</g>
</svg>
