<?xml version="1.0" encoding="UTF-8" standalone="no"?>
<!DOCTYPE svg PUBLIC "-//W3C//DTD SVG 1.1//EN"
 "http://www.w3.org/Graphics/SVG/1.1/DTD/svg11.dtd">
<!-- Generated by graphviz version 2.43.0 (0)
 -->
<!-- Title: BFN::IgnoreKeyElementTransform Pages: 1 -->
<!--zoomable 212 -->

<svg id="main" version="1.1" xmlns="http://www.w3.org/2000/svg" xmlns:xlink="http://www.w3.org/1999/xlink" xml:space="preserve" onload="init(evt)">

<style type="text/css"><![CDATA[
.node, .edge {opacity: 0.7;}
.node.selected, .edge.selected {opacity: 1;}
.edge:hover path { stroke: red; }
.edge:hover polygon { stroke: red; fill: red; }
]]></style>

<defs>
  <circle id="rim" cx="0" cy="0" r="7"/>
  <circle id="rim2" cx="0" cy="0" r="3.5"/>
  <g id="zoomPlus">
    <use xlink:href="#rim" fill="#404040"><set attributeName="fill" to="#808080" begin="zoomplus.mouseover" end="zoomplus.mouseout"/></use>
    <path d="M-4,0h8M0,-4v8" fill="none" stroke="white" stroke-width="1.5" pointer-events="none"/>
  </g>
  <g id="zoomMin">
    <use xlink:href="#rim" fill="#404040"><set attributeName="fill" to="#808080" begin="zoomminus.mouseover" end="zoomminus.mouseout"/></use>
    <path d="M-4,0h8" fill="none" stroke="white" stroke-width="1.5" pointer-events="none"/>
  </g>
  <g id="arrowUp" transform="translate(30 24)">
    <use xlink:href="#rim"/>
    <path pointer-events="none" fill="none" stroke="white" stroke-width="1.5" d="M0,-3.0v7 M-2.5,-0.5L0,-3.0L2.5,-0.5"/>
  </g>
  <g id="arrowRight" transform="rotate(90) translate(36 -43)">
    <use xlink:href="#rim"/>
    <path pointer-events="none" fill="none" stroke="white" stroke-width="1.5" d="M0,-3.0v7 M-2.5,-0.5L0,-3.0L2.5,-0.5"/>
  </g>
  <g id="arrowDown" transform="rotate(180) translate(-30 -48)">
    <use xlink:href="#rim"/>
    <path pointer-events="none" fill="none" stroke="white" stroke-width="1.5" d="M0,-3.0v7 M-2.5,-0.5L0,-3.0L2.5,-0.5"/>
  </g>
  <g id="arrowLeft" transform="rotate(270) translate(-36 17)">
    <use xlink:href="#rim"/>
    <path pointer-events="none" fill="none" stroke="white" stroke-width="1.5" d="M0,-3.0v7 M-2.5,-0.5L0,-3.0L2.5,-0.5"/>
  </g>
  <g id="resetDef">
    <use xlink:href="#rim2" fill="#404040"><set attributeName="fill" to="#808080" begin="reset.mouseover" end="reset.mouseout"/></use>
  </g>
</defs>
<script type="application/ecmascript">
var viewWidth = 635;
var viewHeight = 212;
var sectionId = 'dynsection-3';
</script>
<script type="application/ecmascript" xlink:href="svg.min.js"/>
<svg id="graph" class="graph">
<g id="viewport">
<title>BFN::IgnoreKeyElementTransform</title>
<!-- Node1 -->
<g id="Node000001" class="node">
<title>Node1</title>
<g id="a_Node000001"><a xlink:title="Auxiliary transformer to avoid processing IR::KeyElement nodes.">
<polygon fill="#999999" stroke="#666666" points="402,-111 221,-111 221,-92 402,-92 402,-111"/>
<text text-anchor="middle" x="311.5" y="-99" font-family="Helvetica,sans-Serif" font-size="10.00">BFN::IgnoreKeyElementTransform</text>
</a>
</g>
</g>
<!-- Node4 -->
<g id="Node000004" class="node">
<title>Node4</title>
<g id="a_Node000004"><a xlink:href="group___elim_casts.html#class_b_f_n_1_1_eliminate_width_casts" target="_top" xlink:title=" ">
<polygon fill="white" stroke="#bfbfbf" points="605,-204 460,-204 460,-185 605,-185 605,-204"/>
<text text-anchor="middle" x="532.5" y="-192" font-family="Helvetica,sans-Serif" font-size="10.00">BFN::EliminateWidthCasts</text>
</a>
</g>
</g>
<!-- Node1&#45;&gt;Node4 -->
<g id="edge3_Node000001_Node000004" class="edge">
<title>Node1&#45;&gt;Node4</title>
<g id="a_edge3_Node000001_Node000004"><a xlink:title=" ">
<path fill="none" stroke="#63b8ff" d="M333.61,-117.28C357.64,-134.47 398.68,-161.5 438,-176.5 446.96,-179.92 456.66,-182.71 466.3,-184.99"/>
<polygon fill="#63b8ff" stroke="#63b8ff" points="335.42,-114.27 325.27,-111.22 331.3,-119.93 335.42,-114.27"/>
</a>
</g>
</g>
<!-- Node5 -->
<g id="Node000005" class="node">
<title>Node5</title>
<g id="a_Node000005"><a xlink:href="group___elim_casts.html#class_b_f_n_1_1_rewrite_cast_to_reinterpret_cast" target="_top" xlink:title="Pass that converts some of the IR::Casts to ReinterpretCasts.">
<polygon fill="white" stroke="#666666" points="627,-167 438,-167 438,-148 627,-148 627,-167"/>
<text text-anchor="middle" x="532.5" y="-155" font-family="Helvetica,sans-Serif" font-size="10.00">BFN::RewriteCastToReinterpretCast</text>
</a>
</g>
</g>
<!-- Node1&#45;&gt;Node5 -->
<g id="edge4_Node000001_Node000005" class="edge">
<title>Node1&#45;&gt;Node5</title>
<g id="a_edge4_Node000001_Node000005"><a xlink:title=" ">
<path fill="none" stroke="#63b8ff" d="M350.89,-114.25C375.59,-122.18 408.47,-132.21 438,-139.5 450.52,-142.59 464.09,-145.47 476.91,-147.98"/>
<polygon fill="#63b8ff" stroke="#63b8ff" points="351.77,-110.86 341.18,-111.11 349.61,-117.52 351.77,-110.86"/>
</a>
</g>
</g>
<!-- Node6 -->
<g id="Node000006" class="node">
<title>Node6</title>
<g id="a_Node000006"><a xlink:href="group___elim_casts.html#class_b_f_n_1_1_rewrite_concat_to_slices" target="_top" xlink:title="Pass that replaces concat ++ operations with multiple operations on slices in the contexts.">
<polygon fill="white" stroke="#666666" points="609,-130 456,-130 456,-111 609,-111 609,-130"/>
<text text-anchor="middle" x="532.5" y="-118" font-family="Helvetica,sans-Serif" font-size="10.00">BFN::RewriteConcatToSlices</text>
</a>
</g>
</g>
<!-- Node1&#45;&gt;Node6 -->
<g id="edge5_Node000001_Node000006" class="edge">
<title>Node1&#45;&gt;Node6</title>
<g id="a_edge5_Node000001_Node000006"><a xlink:title=" ">
<path fill="none" stroke="#63b8ff" d="M412.3,-110.16C426.96,-111.43 441.85,-112.72 455.91,-113.94"/>
<polygon fill="#63b8ff" stroke="#63b8ff" points="412.47,-106.66 402.21,-109.28 411.87,-113.63 412.47,-106.66"/>
</a>
</g>
</g>
<!-- Node7 -->
<g id="Node000007" class="node">
<title>Node7</title>
<g id="a_Node000007"><a xlink:href="group___elim_casts.html#class_b_f_n_1_1_simplify_nested_casts" target="_top" xlink:title="Pass that removes nested casts when applicable.">
<polygon fill="white" stroke="#666666" points="604.5,-93 460.5,-93 460.5,-74 604.5,-74 604.5,-93"/>
<text text-anchor="middle" x="532.5" y="-81" font-family="Helvetica,sans-Serif" font-size="10.00">BFN::SimplifyNestedCasts</text>
</a>
</g>
</g>
<!-- Node1&#45;&gt;Node7 -->
<g id="edge6_Node000001_Node000007" class="edge">
<title>Node1&#45;&gt;Node7</title>
<g id="a_edge6_Node000001_Node000007"><a xlink:title=" ">
<path fill="none" stroke="#63b8ff" d="M412.26,-93.3C428.48,-91.97 445,-90.61 460.35,-89.35"/>
<polygon fill="#63b8ff" stroke="#63b8ff" points="411.89,-89.82 402.21,-94.13 412.46,-96.8 411.89,-89.82"/>
</a>
</g>
</g>
<!-- Node8 -->
<g id="Node000008" class="node">
<title>Node8</title>
<g id="a_Node000008"><a xlink:href="group___elim_casts.html#class_b_f_n_1_1_simplify_operation_binary" target="_top" xlink:title="Pass that moves the cast on binary operation to each operand.">
<polygon fill="white" stroke="#666666" points="613.5,-56 451.5,-56 451.5,-37 613.5,-37 613.5,-56"/>
<text text-anchor="middle" x="532.5" y="-44" font-family="Helvetica,sans-Serif" font-size="10.00">BFN::SimplifyOperationBinary</text>
</a>
</g>
</g>
<!-- Node1&#45;&gt;Node8 -->
<g id="edge7_Node000001_Node000008" class="edge">
<title>Node1&#45;&gt;Node8</title>
<g id="a_edge7_Node000001_Node000008"><a xlink:title=" ">
<path fill="none" stroke="#63b8ff" d="M351.65,-88.9C376.27,-81.24 408.8,-71.6 438,-64.5 450.53,-61.45 464.1,-58.59 476.92,-56.09"/>
<polygon fill="#63b8ff" stroke="#63b8ff" points="350.44,-85.61 341.95,-91.94 352.54,-92.29 350.44,-85.61"/>
</a>
</g>
</g>
<!-- Node9 -->
<g id="Node000009" class="node">
<title>Node9</title>
<g id="a_Node000009"><a xlink:href="group___elim_casts.html#class_b_f_n_1_1_simplify_redundant_casts" target="_top" xlink:title="Pass that removes some of the redundant casts.">
<polygon fill="white" stroke="#666666" points="613.5,-19 451.5,-19 451.5,0 613.5,0 613.5,-19"/>
<text text-anchor="middle" x="532.5" y="-7" font-family="Helvetica,sans-Serif" font-size="10.00">BFN::SimplifyRedundantCasts</text>
</a>
</g>
</g>
<!-- Node1&#45;&gt;Node9 -->
<g id="edge8_Node000001_Node000009" class="edge">
<title>Node1&#45;&gt;Node9</title>
<g id="a_edge8_Node000001_Node000009"><a xlink:title=" ">
<path fill="none" stroke="#63b8ff" d="M333.64,-85.94C357.71,-69 398.77,-42.33 438,-27.5 446.97,-24.11 456.67,-21.33 466.32,-19.06"/>
<polygon fill="#63b8ff" stroke="#63b8ff" points="331.39,-83.25 325.29,-91.92 335.46,-88.94 331.39,-83.25"/>
</a>
</g>
</g>
<!-- Node2 -->
<g id="Node000002" class="node">
<title>Node2</title>
<g id="a_Node000002"><a xlink:href="class_p4_1_1_transform.html" target="_top" xlink:title=" ">
<polygon fill="white" stroke="#bfbfbf" points="185,-111 102,-111 102,-92 185,-92 185,-111"/>
<text text-anchor="middle" x="143.5" y="-99" font-family="Helvetica,sans-Serif" font-size="10.00">P4::Transform</text>
</a>
</g>
</g>
<!-- Node2&#45;&gt;Node1 -->
<g id="edge1_Node000001_Node000002" class="edge">
<title>Node2&#45;&gt;Node1</title>
<g id="a_edge1_Node000001_Node000002"><a xlink:title=" ">
<path fill="none" stroke="#63b8ff" d="M195.18,-101.5C203.36,-101.5 212.04,-101.5 220.83,-101.5"/>
<polygon fill="#63b8ff" stroke="#63b8ff" points="195.11,-98 185.11,-101.5 195.11,-105 195.11,-98"/>
</a>
</g>
</g>
<!-- Node3 -->
<g id="Node000003" class="node">
<title>Node3</title>
<g id="a_Node000003"><a xlink:href="class_p4_1_1_visitor.html" target="_top" xlink:title=" ">
<polygon fill="white" stroke="#bfbfbf" points="66,-111 0,-111 0,-92 66,-92 66,-111"/>
<text text-anchor="middle" x="33" y="-99" font-family="Helvetica,sans-Serif" font-size="10.00">P4::Visitor</text>
</a>
</g>
</g>
<!-- Node3&#45;&gt;Node2 -->
<g id="edge2_Node000002_Node000003" class="edge">
<title>Node3&#45;&gt;Node2</title>
<g id="a_edge2_Node000002_Node000003"><a xlink:title=" ">
<path fill="none" stroke="#63b8ff" d="M76.49,-101.5C84.78,-101.5 93.46,-101.5 101.69,-101.5"/>
<polygon fill="#63b8ff" stroke="#63b8ff" points="76.26,-98 66.26,-101.5 76.26,-105 76.26,-98"/>
</a>
</g>
</g>
</g>
</svg>

<g id="navigator" transform="translate(0 0)" fill="#404254">
  <rect fill="#f2f5e9" fill-opacity="0.5" stroke="#606060" stroke-width=".5" x="0" y="0" width="60" height="60"/>
  <use id="zoomplus" xlink:href="#zoomPlus" x="17" y="9" onmousedown="handleZoom(evt,'in')"/>
  <use id="zoomminus" xlink:href="#zoomMin" x="42" y="9" onmousedown="handleZoom(evt,'out')"/>
  <use id="reset" xlink:href="#resetDef" x="30" y="36" onmousedown="handleReset()"/>
   <use id="arrowup" xlink:href="#arrowUp" x="0" y="0" onmousedown="handlePan(0,-1)"/>
  <use id="arrowright" xlink:href="#arrowRight" x="0" y="0" onmousedown="handlePan(1,0)"/>
  <use id="arrowdown" xlink:href="#arrowDown" x="0" y="0" onmousedown="handlePan(0,1)"/>
  <use id="arrowleft" xlink:href="#arrowLeft" x="0" y="0" onmousedown="handlePan(-1,0)"/>
</g>
<svg viewBox="0 0 15 15" width="100%" height="30px" preserveAspectRatio="xMaxYMin meet">
 <g id="arrow_out" transform="scale(0.3 0.3)">
  <a xlink:href="class_b_f_n_1_1_ignore_key_element_transform__inherit__graph_org.svg" target="_base">
   <rect id="button" ry="5" rx="5" y="6" x="6" height="38" width="38"
        fill="#f2f5e9" fill-opacity="0.5" stroke="#606060" stroke-width="1.0"/>
   <path id="arrow"
     d="M 11.500037,31.436501 C 11.940474,20.09759 22.043105,11.32322 32.158766,21.979434 L 37.068811,17.246167 C 37.068811,17.246167 37.088388,32 37.088388,32 L 22.160133,31.978069 C 22.160133,31.978069 26.997745,27.140456 26.997745,27.140456 C 18.528582,18.264221 13.291696,25.230495 11.500037,31.436501 z"
     style="fill:#404040;"/>
  </a>
 </g>
</svg>

<style type='text/css'>
<![CDATA[
[data-mouse-over-selected='false'] { opacity: 0.7; }
[data-mouse-over-selected='true']  { opacity: 1.0; }
]]>
</style>
<script type="application/ecmascript"><![CDATA[
document.addEventListener('DOMContentLoaded', (event) => {
  highlightEdges();
  highlightAdjacentNodes();
});
]]></script>
</svg>
