<?xml version="1.0" encoding="UTF-8" standalone="no"?>
<!DOCTYPE svg PUBLIC "-//W3C//DTD SVG 1.1//EN"
 "http://www.w3.org/Graphics/SVG/1.1/DTD/svg11.dtd">
<!-- Generated by graphviz version 2.43.0 (0)
 -->
<!-- Title: solver::ActionSolverBase Pages: 1 -->
<svg width="469pt" height="82pt"
 viewBox="0.00 0.00 469.00 82.00" xmlns="http://www.w3.org/2000/svg" xmlns:xlink="http://www.w3.org/1999/xlink">
<g id="graph0" class="graph" transform="scale(1 1) rotate(0) translate(4 78)">
<title>solver::ActionSolverBase</title>
<!-- Node1 -->
<g id="Node000001" class="node">
<title>Node1</title>
<g id="a_Node000001"><a xlink:title="ActionSolverBase contains basic methods and states for all solvers.">
<polygon fill="#999999" stroke="#666666" points="297.5,-74 159.5,-74 159.5,-55 297.5,-55 297.5,-74"/>
<text text-anchor="middle" x="228.5" y="-62" font-family="Helvetica,sans-Serif" font-size="10.00">solver::ActionSolverBase</text>
</a>
</g>
</g>
<!-- Node2 -->
<g id="Node000002" class="node">
<title>Node2</title>
<g id="a_Node000002"><a xlink:href="classsolver_1_1_action_dark_solver.html" target="_top" xlink:title=" ">
<polygon fill="white" stroke="#666666" points="137,-19 0,-19 0,0 137,0 137,-19"/>
<text text-anchor="middle" x="68.5" y="-7" font-family="Helvetica,sans-Serif" font-size="10.00">solver::ActionDarkSolver</text>
</a>
</g>
</g>
<!-- Node1&#45;&gt;Node2 -->
<g id="edge1_Node000001_Node000002" class="edge">
<title>Node1&#45;&gt;Node2</title>
<g id="a_edge1_Node000001_Node000002"><a xlink:title=" ">
<path fill="none" stroke="#63b8ff" d="M193.17,-51.8C163.31,-41.91 121.23,-27.97 94.41,-19.08"/>
<polygon fill="#63b8ff" stroke="#63b8ff" points="192.2,-55.16 202.79,-54.98 194.4,-48.52 192.2,-55.16"/>
</a>
</g>
</g>
<!-- Node3 -->
<g id="Node000003" class="node">
<title>Node3</title>
<g id="a_Node000003"><a xlink:href="classsolver_1_1_action_mocha_solver.html" target="_top" xlink:title=" ">
<polygon fill="white" stroke="#666666" points="301.5,-19 155.5,-19 155.5,0 301.5,0 301.5,-19"/>
<text text-anchor="middle" x="228.5" y="-7" font-family="Helvetica,sans-Serif" font-size="10.00">solver::ActionMochaSolver</text>
</a>
</g>
</g>
<!-- Node1&#45;&gt;Node3 -->
<g id="edge2_Node000001_Node000003" class="edge">
<title>Node1&#45;&gt;Node3</title>
<g id="a_edge2_Node000001_Node000003"><a xlink:title=" ">
<path fill="none" stroke="#63b8ff" d="M228.5,-44.66C228.5,-35.93 228.5,-25.99 228.5,-19.09"/>
<polygon fill="#63b8ff" stroke="#63b8ff" points="225,-44.75 228.5,-54.75 232,-44.75 225,-44.75"/>
</a>
</g>
</g>
<!-- Node4 -->
<g id="Node000004" class="node">
<title>Node4</title>
<g id="a_Node000004"><a xlink:href="classsolver_1_1_action_move_solver.html" target="_top" xlink:title=" ">
<polygon fill="white" stroke="#666666" points="461,-19 320,-19 320,0 461,0 461,-19"/>
<text text-anchor="middle" x="390.5" y="-7" font-family="Helvetica,sans-Serif" font-size="10.00">solver::ActionMoveSolver</text>
</a>
</g>
</g>
<!-- Node1&#45;&gt;Node4 -->
<g id="edge3_Node000001_Node000004" class="edge">
<title>Node1&#45;&gt;Node4</title>
<g id="a_edge3_Node000001_Node000004"><a xlink:title=" ">
<path fill="none" stroke="#63b8ff" d="M264.27,-51.8C294.5,-41.91 337.11,-27.97 364.27,-19.08"/>
<polygon fill="#63b8ff" stroke="#63b8ff" points="262.94,-48.55 254.53,-54.98 265.12,-55.2 262.94,-48.55"/>
</a>
</g>
</g>
</g>
</svg>
