<?xml version="1.0" encoding="UTF-8" standalone="no"?>
<!DOCTYPE svg PUBLIC "-//W3C//DTD SVG 1.1//EN"
 "http://www.w3.org/Graphics/SVG/1.1/DTD/svg11.dtd">
<!-- Generated by graphviz version 2.43.0 (0)
 -->
<!-- Title: Parser Pages: 1 -->
<svg width="177pt" height="137pt"
 viewBox="0.00 0.00 177.00 137.00" xmlns="http://www.w3.org/2000/svg" xmlns:xlink="http://www.w3.org/1999/xlink">
<g id="graph0" class="graph" transform="scale(1 1) rotate(0) translate(4 133)">
<title>Parser</title>
<!-- Node1 -->
<g id="Node000001" class="node">
<title>Node1</title>
<g id="a_Node000001"><a xlink:title="Representation of the Tofino 1/2 parser in assembler.">
<polygon fill="#999999" stroke="#666666" points="108.5,-19 61.5,-19 61.5,0 108.5,0 108.5,-19"/>
<text text-anchor="middle" x="85" y="-7" font-family="Helvetica,sans-Serif" font-size="10.00">Parser</text>
</a>
</g>
</g>
<!-- Node2 -->
<g id="Node000002" class="node">
<title>Node2</title>
<g id="a_Node000002"><a xlink:href="class_base_parser.html" target="_top" xlink:title="Base class of Tofino parser in assembler.">
<polygon fill="white" stroke="#666666" points="74.5,-74 3.5,-74 3.5,-55 74.5,-55 74.5,-74"/>
<text text-anchor="middle" x="39" y="-62" font-family="Helvetica,sans-Serif" font-size="10.00">BaseParser</text>
</a>
</g>
</g>
<!-- Node2&#45;&gt;Node1 -->
<g id="edge1_Node000001_Node000002" class="edge">
<title>Node2&#45;&gt;Node1</title>
<g id="a_edge1_Node000001_Node000002"><a xlink:title=" ">
<path fill="none" stroke="#63b8ff" d="M53.36,-46.96C61.37,-37.72 71.03,-26.6 77.55,-19.09"/>
<polygon fill="#63b8ff" stroke="#63b8ff" points="50.51,-44.9 46.6,-54.75 55.79,-49.49 50.51,-44.9"/>
</a>
</g>
</g>
<!-- Node3 -->
<g id="Node000003" class="node">
<title>Node3</title>
<g id="a_Node000003"><a xlink:title=" ">
<polygon fill="white" stroke="#bfbfbf" points="78,-129 0,-129 0,-110 78,-110 78,-129"/>
<text text-anchor="middle" x="39" y="-117" font-family="Helvetica,sans-Serif" font-size="10.00">Configurable</text>
</a>
</g>
</g>
<!-- Node3&#45;&gt;Node2 -->
<g id="edge2_Node000002_Node000003" class="edge">
<title>Node3&#45;&gt;Node2</title>
<g id="a_edge2_Node000002_Node000003"><a xlink:title=" ">
<path fill="none" stroke="#63b8ff" d="M39,-99.66C39,-90.93 39,-80.99 39,-74.09"/>
<polygon fill="#63b8ff" stroke="#63b8ff" points="35.5,-99.75 39,-109.75 42.5,-99.75 35.5,-99.75"/>
</a>
</g>
</g>
<!-- Node4 -->
<g id="Node000004" class="node">
<title>Node4</title>
<g id="a_Node000004"><a xlink:title=" ">
<polygon fill="white" stroke="#bfbfbf" points="169,-74 93,-74 93,-55 169,-55 169,-74"/>
<text text-anchor="middle" x="131" y="-62" font-family="Helvetica,sans-Serif" font-size="10.00">Contextable</text>
</a>
</g>
</g>
<!-- Node4&#45;&gt;Node1 -->
<g id="edge3_Node000001_Node000004" class="edge">
<title>Node4&#45;&gt;Node1</title>
<g id="a_edge3_Node000001_Node000004"><a xlink:title=" ">
<path fill="none" stroke="#63b8ff" d="M116.64,-46.96C108.63,-37.72 98.97,-26.6 92.45,-19.09"/>
<polygon fill="#63b8ff" stroke="#63b8ff" points="114.21,-49.49 123.4,-54.75 119.49,-44.9 114.21,-49.49"/>
</a>
</g>
</g>
</g>
</svg>
