<?xml version="1.0" encoding="UTF-8" standalone="no"?>
<!DOCTYPE svg PUBLIC "-//W3C//DTD SVG 1.1//EN"
 "http://www.w3.org/Graphics/SVG/1.1/DTD/svg11.dtd">
<!-- Generated by graphviz version 2.43.0 (0)
 -->
<!-- Title: P4::BaseCompileContext Pages: 1 -->
<!--zoomable 614 -->

<svg id="main" version="1.1" xmlns="http://www.w3.org/2000/svg" xmlns:xlink="http://www.w3.org/1999/xlink" xml:space="preserve" onload="init(evt)">

<style type="text/css"><![CDATA[
.node, .edge {opacity: 0.7;}
.node.selected, .edge.selected {opacity: 1;}
.edge:hover path { stroke: red; }
.edge:hover polygon { stroke: red; fill: red; }
]]></style>

<defs>
  <circle id="rim" cx="0" cy="0" r="7"/>
  <circle id="rim2" cx="0" cy="0" r="3.5"/>
  <g id="zoomPlus">
    <use xlink:href="#rim" fill="#404040"><set attributeName="fill" to="#808080" begin="zoomplus.mouseover" end="zoomplus.mouseout"/></use>
    <path d="M-4,0h8M0,-4v8" fill="none" stroke="white" stroke-width="1.5" pointer-events="none"/>
  </g>
  <g id="zoomMin">
    <use xlink:href="#rim" fill="#404040"><set attributeName="fill" to="#808080" begin="zoomminus.mouseover" end="zoomminus.mouseout"/></use>
    <path d="M-4,0h8" fill="none" stroke="white" stroke-width="1.5" pointer-events="none"/>
  </g>
  <g id="arrowUp" transform="translate(30 24)">
    <use xlink:href="#rim"/>
    <path pointer-events="none" fill="none" stroke="white" stroke-width="1.5" d="M0,-3.0v7 M-2.5,-0.5L0,-3.0L2.5,-0.5"/>
  </g>
  <g id="arrowRight" transform="rotate(90) translate(36 -43)">
    <use xlink:href="#rim"/>
    <path pointer-events="none" fill="none" stroke="white" stroke-width="1.5" d="M0,-3.0v7 M-2.5,-0.5L0,-3.0L2.5,-0.5"/>
  </g>
  <g id="arrowDown" transform="rotate(180) translate(-30 -48)">
    <use xlink:href="#rim"/>
    <path pointer-events="none" fill="none" stroke="white" stroke-width="1.5" d="M0,-3.0v7 M-2.5,-0.5L0,-3.0L2.5,-0.5"/>
  </g>
  <g id="arrowLeft" transform="rotate(270) translate(-36 17)">
    <use xlink:href="#rim"/>
    <path pointer-events="none" fill="none" stroke="white" stroke-width="1.5" d="M0,-3.0v7 M-2.5,-0.5L0,-3.0L2.5,-0.5"/>
  </g>
  <g id="resetDef">
    <use xlink:href="#rim2" fill="#404040"><set attributeName="fill" to="#808080" begin="reset.mouseover" end="reset.mouseout"/></use>
  </g>
</defs>
<script type="application/ecmascript">
var viewWidth = 707;
var viewHeight = 614;
var sectionId = 'dynsection-0';
</script>
<script type="application/ecmascript" xlink:href="svg.min.js"/>
<svg id="graph" class="graph">
<g id="viewport">
<title>P4::BaseCompileContext</title>
<!-- Node1 -->
<g id="Node000001" class="node">
<title>Node1</title>
<g id="a_Node000001"><a xlink:title=" ">
<polygon fill="#999999" stroke="#666666" points="289,-330.5 152,-330.5 152,-311.5 289,-311.5 289,-330.5"/>
<text text-anchor="middle" x="220.5" y="-318.5" font-family="Helvetica,sans-Serif" font-size="10.00">P4::BaseCompileContext</text>
</a>
</g>
</g>
<!-- Node3 -->
<g id="Node000003" class="node">
<title>Node3</title>
<g id="a_Node000003"><a xlink:href="class_compile_context.html" target="_top" xlink:title=" ">
<polygon fill="white" stroke="#bfbfbf" points="507,-386.5 325,-386.5 325,-367.5 507,-367.5 507,-386.5"/>
<text text-anchor="middle" x="416" y="-374.5" font-family="Helvetica,sans-Serif" font-size="10.00">CompileContext&lt; GTestOptions &gt;</text>
</a>
</g>
</g>
<!-- Node1&#45;&gt;Node3 -->
<g id="edge2_Node000001_Node000003" class="edge">
<title>Node1&#45;&gt;Node3</title>
<g id="a_edge2_Node000001_Node000003"><a xlink:title=" ">
<path fill="none" stroke="#63b8ff" d="M253.94,-334.38C274.13,-342.34 300.78,-352.17 325,-359 336.35,-362.2 348.66,-365.05 360.42,-367.49"/>
<polygon fill="#63b8ff" stroke="#63b8ff" points="255.18,-331.1 244.59,-330.65 252.58,-337.6 255.18,-331.1"/>
</a>
</g>
</g>
<!-- Node4 -->
<g id="Node000004" class="node">
<title>Node4</title>
<g id="a_Node000004"><a xlink:href="class_compile_context.html" target="_top" xlink:title=" ">
<polygon fill="white" stroke="#bfbfbf" points="505,-349.5 327,-349.5 327,-330.5 505,-330.5 505,-349.5"/>
<text text-anchor="middle" x="416" y="-337.5" font-family="Helvetica,sans-Serif" font-size="10.00">CompileContext&lt; OptionsType &gt;</text>
</a>
</g>
</g>
<!-- Node1&#45;&gt;Node4 -->
<g id="edge3_Node000001_Node000004" class="edge">
<title>Node1&#45;&gt;Node4</title>
<g id="a_edge3_Node000001_Node000004"><a xlink:title=" ">
<path fill="none" stroke="#63b8ff" d="M299.32,-328.64C308.42,-329.53 317.74,-330.45 326.96,-331.35"/>
<polygon fill="#63b8ff" stroke="#63b8ff" points="299.47,-325.14 289.18,-327.65 298.79,-332.11 299.47,-325.14"/>
</a>
</g>
</g>
<!-- Node5 -->
<g id="Node000005" class="node">
<title>Node5</title>
<g id="a_Node000005"><a xlink:href="class_p4_1_1_p4_c_context.html" target="_top" xlink:title=" ">
<polygon fill="white" stroke="#666666" points="462,-312.5 370,-312.5 370,-293.5 462,-293.5 462,-312.5"/>
<text text-anchor="middle" x="416" y="-300.5" font-family="Helvetica,sans-Serif" font-size="10.00">P4::P4CContext</text>
</a>
</g>
</g>
<!-- Node1&#45;&gt;Node5 -->
<g id="edge4_Node000001_Node000005" class="edge">
<title>Node1&#45;&gt;Node5</title>
<g id="a_edge4_Node000001_Node000005"><a xlink:title=" ">
<path fill="none" stroke="#63b8ff" d="M299.32,-313.76C323.27,-311.53 348.83,-309.15 369.82,-307.2"/>
<polygon fill="#63b8ff" stroke="#63b8ff" points="298.81,-310.29 289.18,-314.7 299.46,-317.26 298.81,-310.29"/>
</a>
</g>
</g>
<!-- Node19 -->
<g id="Node000019" class="node">
<title>Node19</title>
<g id="a_Node000019"><a xlink:href="class_ref_check_context.html" target="_top" xlink:title=" ">
<polygon fill="white" stroke="#bfbfbf" points="466.5,-275.5 365.5,-275.5 365.5,-256.5 466.5,-256.5 466.5,-275.5"/>
<text text-anchor="middle" x="416" y="-263.5" font-family="Helvetica,sans-Serif" font-size="10.00">RefCheckContext</text>
</a>
</g>
</g>
<!-- Node1&#45;&gt;Node19 -->
<g id="edge18_Node000001_Node000019" class="edge">
<title>Node1&#45;&gt;Node19</title>
<g id="a_edge18_Node000001_Node000019"><a xlink:title=" ">
<path fill="none" stroke="#63b8ff" d="M254.37,-307.86C274.52,-300.15 300.98,-290.66 325,-284 337.9,-280.43 352.02,-277.26 365.18,-274.62"/>
<polygon fill="#63b8ff" stroke="#63b8ff" points="253.09,-304.6 245.03,-311.48 255.62,-311.13 253.09,-304.6"/>
</a>
</g>
</g>
<!-- Node2 -->
<g id="Node000002" class="node">
<title>Node2</title>
<g id="a_Node000002"><a xlink:href="class_p4_1_1_i_compile_context.html" target="_top" xlink:title=" ">
<polygon fill="white" stroke="#666666" points="116,-330.5 0,-330.5 0,-311.5 116,-311.5 116,-330.5"/>
<text text-anchor="middle" x="58" y="-318.5" font-family="Helvetica,sans-Serif" font-size="10.00">P4::ICompileContext</text>
</a>
</g>
</g>
<!-- Node2&#45;&gt;Node1 -->
<g id="edge1_Node000001_Node000002" class="edge">
<title>Node2&#45;&gt;Node1</title>
<g id="a_edge1_Node000001_Node000002"><a xlink:title=" ">
<path fill="none" stroke="#63b8ff" d="M126.27,-321C134.76,-321 143.45,-321 151.94,-321"/>
<polygon fill="#63b8ff" stroke="#63b8ff" points="126.04,-317.5 116.04,-321 126.04,-324.5 126.04,-317.5"/>
</a>
</g>
</g>
<!-- Node6 -->
<g id="Node000006" class="node">
<title>Node6</title>
<g id="a_Node000006"><a xlink:href="class_p4_1_1_p4_c_context_with_options.html" target="_top" xlink:title=" ">
<polygon fill="white" stroke="#666666" points="697,-606 545,-606 545,-576 697,-576 697,-606"/>
<text text-anchor="start" x="553" y="-594" font-family="Helvetica,sans-Serif" font-size="10.00">P4::P4CContextWithOptions</text>
<text text-anchor="middle" x="621" y="-583" font-family="Helvetica,sans-Serif" font-size="10.00">&lt; BMV2Options &gt;</text>
</a>
</g>
</g>
<!-- Node5&#45;&gt;Node6 -->
<g id="edge5_Node000005_Node000006" class="edge">
<title>Node5&#45;&gt;Node6</title>
<g id="a_edge5_Node000005_Node000006"><a xlink:title=" ">
<path fill="none" stroke="#63b8ff" d="M472,-304C485.07,-306.86 497.85,-312.26 507,-322 582.37,-402.2 471.49,-483.34 543,-567 545.91,-570.41 549.3,-573.34 553,-575.85"/>
<polygon fill="#63b8ff" stroke="#63b8ff" points="472.46,-300.53 462.01,-302.28 471.27,-307.43 472.46,-300.53"/>
</a>
</g>
</g>
<!-- Node7 -->
<g id="Node000007" class="node">
<title>Node7</title>
<g id="a_Node000007"><a xlink:href="class_p4_1_1_p4_c_context_with_options.html" target="_top" xlink:title=" ">
<polygon fill="white" stroke="#666666" points="697,-558 545,-558 545,-528 697,-528 697,-558"/>
<text text-anchor="start" x="553" y="-546" font-family="Helvetica,sans-Serif" font-size="10.00">P4::P4CContextWithOptions</text>
<text text-anchor="middle" x="621" y="-535" font-family="Helvetica,sans-Serif" font-size="10.00">&lt; PnaNicOptions &gt;</text>
</a>
</g>
</g>
<!-- Node5&#45;&gt;Node7 -->
<g id="edge6_Node000005_Node000007" class="edge">
<title>Node5&#45;&gt;Node7</title>
<g id="a_edge6_Node000005_Node000007"><a xlink:title=" ">
<path fill="none" stroke="#63b8ff" d="M472.15,-304.3C485.08,-307.18 497.77,-312.51 507,-322 569.07,-385.79 484,-452.36 543,-519 546.06,-522.46 549.62,-525.43 553.48,-527.97"/>
<polygon fill="#63b8ff" stroke="#63b8ff" points="472.72,-300.85 462.26,-302.55 471.5,-307.74 472.72,-300.85"/>
</a>
</g>
</g>
<!-- Node8 -->
<g id="Node000008" class="node">
<title>Node8</title>
<g id="a_Node000008"><a xlink:href="class_p4_1_1_p4_c_context_with_options.html" target="_top" xlink:title=" ">
<polygon fill="white" stroke="#666666" points="697,-510 545,-510 545,-480 697,-480 697,-510"/>
<text text-anchor="start" x="553" y="-498" font-family="Helvetica,sans-Serif" font-size="10.00">P4::P4CContextWithOptions</text>
<text text-anchor="middle" x="621" y="-487" font-family="Helvetica,sans-Serif" font-size="10.00">&lt; PsaSwitchOptions &gt;</text>
</a>
</g>
</g>
<!-- Node5&#45;&gt;Node8 -->
<g id="edge7_Node000005_Node000008" class="edge">
<title>Node5&#45;&gt;Node8</title>
<g id="a_edge7_Node000005_Node000008"><a xlink:title=" ">
<path fill="none" stroke="#63b8ff" d="M472.54,-304.83C485.22,-307.74 497.69,-312.96 507,-322 555.87,-369.47 496.42,-421.28 543,-471 546.26,-474.47 550,-477.45 554.06,-480"/>
<polygon fill="#63b8ff" stroke="#63b8ff" points="472.84,-301.33 462.37,-302.97 471.58,-308.22 472.84,-301.33"/>
</a>
</g>
</g>
<!-- Node9 -->
<g id="Node000009" class="node">
<title>Node9</title>
<g id="a_Node000009"><a xlink:href="class_p4_1_1_p4_c_context_with_options.html" target="_top" xlink:title=" ">
<polygon fill="white" stroke="#666666" points="697,-462 545,-462 545,-432 697,-432 697,-462"/>
<text text-anchor="start" x="553" y="-450" font-family="Helvetica,sans-Serif" font-size="10.00">P4::P4CContextWithOptions</text>
<text text-anchor="middle" x="621" y="-439" font-family="Helvetica,sans-Serif" font-size="10.00">&lt; SimpleSwitchOptions &gt;</text>
</a>
</g>
</g>
<!-- Node5&#45;&gt;Node9 -->
<g id="edge8_Node000005_Node000009" class="edge">
<title>Node5&#45;&gt;Node9</title>
<g id="a_edge8_Node000005_Node000009"><a xlink:title=" ">
<path fill="none" stroke="#63b8ff" d="M472.26,-305.62C484.83,-308.52 497.32,-313.54 507,-322 542.88,-353.36 508.63,-389.99 543,-423 546.53,-426.39 550.54,-429.31 554.83,-431.81"/>
<polygon fill="#63b8ff" stroke="#63b8ff" points="472.68,-302.14 462.21,-303.72 471.38,-309.02 472.68,-302.14"/>
</a>
</g>
</g>
<!-- Node10 -->
<g id="Node000010" class="node">
<title>Node10</title>
<g id="a_Node000010"><a xlink:href="class_p4_1_1_p4_c_context_with_options.html" target="_top" xlink:title=" ">
<polygon fill="white" stroke="#666666" points="697,-414 545,-414 545,-384 697,-384 697,-414"/>
<text text-anchor="start" x="553" y="-402" font-family="Helvetica,sans-Serif" font-size="10.00">P4::P4CContextWithOptions</text>
<text text-anchor="middle" x="621" y="-391" font-family="Helvetica,sans-Serif" font-size="10.00">&lt; DpdkOptions &gt;</text>
</a>
</g>
</g>
<!-- Node5&#45;&gt;Node10 -->
<g id="edge9_Node000005_Node000010" class="edge">
<title>Node5&#45;&gt;Node10</title>
<g id="a_edge9_Node000005_Node000010"><a xlink:title=" ">
<path fill="none" stroke="#63b8ff" d="M472.33,-307.79C484.47,-310.66 496.74,-315.12 507,-322 530.64,-337.87 520.13,-358.04 543,-375 547.61,-378.42 552.72,-381.36 558.05,-383.89"/>
<polygon fill="#63b8ff" stroke="#63b8ff" points="472.72,-304.29 462.22,-305.73 471.32,-311.15 472.72,-304.29"/>
</a>
</g>
</g>
<!-- Node11 -->
<g id="Node000011" class="node">
<title>Node11</title>
<g id="a_Node000011"><a xlink:href="class_p4_1_1_p4_c_context_with_options.html" target="_top" xlink:title=" ">
<polygon fill="white" stroke="#666666" points="697,-366 545,-366 545,-336 697,-336 697,-366"/>
<text text-anchor="start" x="553" y="-354" font-family="Helvetica,sans-Serif" font-size="10.00">P4::P4CContextWithOptions</text>
<text text-anchor="middle" x="621" y="-343" font-family="Helvetica,sans-Serif" font-size="10.00">&lt; EbpfOptions &gt;</text>
</a>
</g>
</g>
<!-- Node5&#45;&gt;Node11 -->
<g id="edge10_Node000005_Node000011" class="edge">
<title>Node5&#45;&gt;Node11</title>
<g id="a_edge10_Node000005_Node000011"><a xlink:title=" ">
<path fill="none" stroke="#63b8ff" d="M472.33,-314.29C483.81,-316.74 495.81,-319.39 507,-322 525.44,-326.31 545.48,-331.34 563.5,-335.99"/>
<polygon fill="#63b8ff" stroke="#63b8ff" points="472.92,-310.83 462.41,-312.19 471.47,-317.68 472.92,-310.83"/>
</a>
</g>
</g>
<!-- Node12 -->
<g id="Node000012" class="node">
<title>Node12</title>
<g id="a_Node000012"><a xlink:href="class_p4_1_1_p4_c_context_with_options.html" target="_top" xlink:title=" ">
<polygon fill="white" stroke="#666666" points="697,-318 545,-318 545,-288 697,-288 697,-318"/>
<text text-anchor="start" x="553" y="-306" font-family="Helvetica,sans-Serif" font-size="10.00">P4::P4CContextWithOptions</text>
<text text-anchor="middle" x="621" y="-295" font-family="Helvetica,sans-Serif" font-size="10.00">&lt; Options &gt;</text>
</a>
</g>
</g>
<!-- Node5&#45;&gt;Node12 -->
<g id="edge11_Node000005_Node000012" class="edge">
<title>Node5&#45;&gt;Node12</title>
<g id="a_edge11_Node000005_Node000012"><a xlink:title=" ">
<path fill="none" stroke="#63b8ff" d="M472.35,-303C494.67,-303 520.77,-303 544.77,-303"/>
<polygon fill="#63b8ff" stroke="#63b8ff" points="472.05,-299.5 462.05,-303 472.05,-306.5 472.05,-299.5"/>
</a>
</g>
</g>
<!-- Node13 -->
<g id="Node000013" class="node">
<title>Node13</title>
<g id="a_Node000013"><a xlink:href="class_p4_1_1_p4_c_context_with_options.html" target="_top" xlink:title=" ">
<polygon fill="white" stroke="#666666" points="697,-270 545,-270 545,-240 697,-240 697,-270"/>
<text text-anchor="start" x="553" y="-258" font-family="Helvetica,sans-Serif" font-size="10.00">P4::P4CContextWithOptions</text>
<text text-anchor="middle" x="621" y="-247" font-family="Helvetica,sans-Serif" font-size="10.00">&lt; P4fmtOptions &gt;</text>
</a>
</g>
</g>
<!-- Node5&#45;&gt;Node13 -->
<g id="edge12_Node000005_Node000013" class="edge">
<title>Node5&#45;&gt;Node13</title>
<g id="a_edge12_Node000005_Node000013"><a xlink:title=" ">
<path fill="none" stroke="#63b8ff" d="M472.33,-291.71C483.81,-289.26 495.81,-286.61 507,-284 525.44,-279.69 545.48,-274.66 563.5,-270.01"/>
<polygon fill="#63b8ff" stroke="#63b8ff" points="471.47,-288.32 462.41,-293.81 472.92,-295.17 471.47,-288.32"/>
</a>
</g>
</g>
<!-- Node14 -->
<g id="Node000014" class="node">
<title>Node14</title>
<g id="a_Node000014"><a xlink:href="class_p4_1_1_p4_c_context_with_options.html" target="_top" xlink:title=" ">
<polygon fill="white" stroke="#666666" points="697,-222 545,-222 545,-192 697,-192 697,-222"/>
<text text-anchor="start" x="553" y="-210" font-family="Helvetica,sans-Serif" font-size="10.00">P4::P4CContextWithOptions</text>
<text text-anchor="middle" x="621" y="-199" font-family="Helvetica,sans-Serif" font-size="10.00">&lt; TCOptions &gt;</text>
</a>
</g>
</g>
<!-- Node5&#45;&gt;Node14 -->
<g id="edge13_Node000005_Node000014" class="edge">
<title>Node5&#45;&gt;Node14</title>
<g id="a_edge13_Node000005_Node000014"><a xlink:title=" ">
<path fill="none" stroke="#63b8ff" d="M472.33,-298.21C484.47,-295.34 496.74,-290.88 507,-284 530.64,-268.13 520.13,-247.96 543,-231 547.61,-227.58 552.72,-224.64 558.05,-222.11"/>
<polygon fill="#63b8ff" stroke="#63b8ff" points="471.32,-294.85 462.22,-300.27 472.72,-301.71 471.32,-294.85"/>
</a>
</g>
</g>
<!-- Node15 -->
<g id="Node000015" class="node">
<title>Node15</title>
<g id="a_Node000015"><a xlink:href="class_p4_1_1_p4_tools_1_1_compile_context.html" target="_top" xlink:title=" ">
<polygon fill="white" stroke="#666666" points="699,-174 543,-174 543,-144 699,-144 699,-174"/>
<text text-anchor="start" x="551" y="-162" font-family="Helvetica,sans-Serif" font-size="10.00">P4::P4Tools::CompileContext</text>
<text text-anchor="middle" x="621" y="-151" font-family="Helvetica,sans-Serif" font-size="10.00">&lt; P4TestOptions &gt;</text>
</a>
</g>
</g>
<!-- Node5&#45;&gt;Node15 -->
<g id="edge14_Node000005_Node000015" class="edge">
<title>Node5&#45;&gt;Node15</title>
<g id="a_edge14_Node000005_Node000015"><a xlink:title=" ">
<path fill="none" stroke="#63b8ff" d="M472.26,-300.38C484.83,-297.48 497.32,-292.46 507,-284 542.88,-252.64 508.63,-216.01 543,-183 546.53,-179.61 550.54,-176.69 554.83,-174.19"/>
<polygon fill="#63b8ff" stroke="#63b8ff" points="471.38,-296.98 462.21,-302.28 472.68,-303.86 471.38,-296.98"/>
</a>
</g>
</g>
<!-- Node16 -->
<g id="Node000016" class="node">
<title>Node16</title>
<g id="a_Node000016"><a xlink:href="class_p4_1_1_p4_tools_1_1_compile_context.html" target="_top" xlink:title=" ">
<polygon fill="white" stroke="#666666" points="699,-126 543,-126 543,-96 699,-96 699,-126"/>
<text text-anchor="start" x="551" y="-114" font-family="Helvetica,sans-Serif" font-size="10.00">P4::P4Tools::CompileContext</text>
<text text-anchor="middle" x="621" y="-103" font-family="Helvetica,sans-Serif" font-size="10.00">&lt; P4ReachabilityOptions &gt;</text>
</a>
</g>
</g>
<!-- Node5&#45;&gt;Node16 -->
<g id="edge15_Node000005_Node000016" class="edge">
<title>Node5&#45;&gt;Node16</title>
<g id="a_edge15_Node000005_Node000016"><a xlink:title=" ">
<path fill="none" stroke="#63b8ff" d="M472.54,-301.17C485.22,-298.26 497.69,-293.04 507,-284 555.87,-236.53 496.42,-184.72 543,-135 546.26,-131.53 550,-128.55 554.06,-126"/>
<polygon fill="#63b8ff" stroke="#63b8ff" points="471.58,-297.78 462.37,-303.03 472.84,-304.67 471.58,-297.78"/>
</a>
</g>
</g>
<!-- Node17 -->
<g id="Node000017" class="node">
<title>Node17</title>
<g id="a_Node000017"><a xlink:href="class_p4_1_1_p4_c_context_with_options.html" target="_top" xlink:title=" ">
<polygon fill="white" stroke="#666666" points="697,-78 545,-78 545,-48 697,-48 697,-78"/>
<text text-anchor="start" x="553" y="-66" font-family="Helvetica,sans-Serif" font-size="10.00">P4::P4CContextWithOptions</text>
<text text-anchor="middle" x="621" y="-55" font-family="Helvetica,sans-Serif" font-size="10.00">&lt; OptionsType &gt;</text>
</a>
</g>
</g>
<!-- Node5&#45;&gt;Node17 -->
<g id="edge16_Node000005_Node000017" class="edge">
<title>Node5&#45;&gt;Node17</title>
<g id="a_edge16_Node000005_Node000017"><a xlink:title=" ">
<path fill="none" stroke="#63b8ff" d="M472.15,-301.7C485.08,-298.82 497.77,-293.49 507,-284 569.07,-220.21 484,-153.64 543,-87 546.06,-83.54 549.62,-80.57 553.48,-78.03"/>
<polygon fill="#63b8ff" stroke="#63b8ff" points="471.5,-298.26 462.26,-303.45 472.72,-305.15 471.5,-298.26"/>
</a>
</g>
</g>
<!-- Node18 -->
<g id="Node000018" class="node">
<title>Node18</title>
<g id="a_Node000018"><a xlink:href="class_p4_1_1_p4_tools_1_1_compile_context.html" target="_top" xlink:title="A compilation context for P4Tools that provides a custom compiler configuration.">
<polygon fill="white" stroke="#666666" points="699,-30 543,-30 543,0 699,0 699,-30"/>
<text text-anchor="start" x="551" y="-18" font-family="Helvetica,sans-Serif" font-size="10.00">P4::P4Tools::CompileContext</text>
<text text-anchor="middle" x="621" y="-7" font-family="Helvetica,sans-Serif" font-size="10.00">&lt; OptionsType &gt;</text>
</a>
</g>
</g>
<!-- Node5&#45;&gt;Node18 -->
<g id="edge17_Node000005_Node000018" class="edge">
<title>Node5&#45;&gt;Node18</title>
<g id="a_edge17_Node000005_Node000018"><a xlink:title=" ">
<path fill="none" stroke="#63b8ff" d="M472,-302C485.07,-299.14 497.85,-293.74 507,-284 582.37,-203.8 471.49,-122.66 543,-39 545.91,-35.59 549.3,-32.66 553,-30.15"/>
<polygon fill="#63b8ff" stroke="#63b8ff" points="471.27,-298.57 462.01,-303.72 472.46,-305.47 471.27,-298.57"/>
</a>
</g>
</g>
</g>
</svg>

<g id="navigator" transform="translate(0 0)" fill="#404254">
  <rect fill="#f2f5e9" fill-opacity="0.5" stroke="#606060" stroke-width=".5" x="0" y="0" width="60" height="60"/>
  <use id="zoomplus" xlink:href="#zoomPlus" x="17" y="9" onmousedown="handleZoom(evt,'in')"/>
  <use id="zoomminus" xlink:href="#zoomMin" x="42" y="9" onmousedown="handleZoom(evt,'out')"/>
  <use id="reset" xlink:href="#resetDef" x="30" y="36" onmousedown="handleReset()"/>
   <use id="arrowup" xlink:href="#arrowUp" x="0" y="0" onmousedown="handlePan(0,-1)"/>
  <use id="arrowright" xlink:href="#arrowRight" x="0" y="0" onmousedown="handlePan(1,0)"/>
  <use id="arrowdown" xlink:href="#arrowDown" x="0" y="0" onmousedown="handlePan(0,1)"/>
  <use id="arrowleft" xlink:href="#arrowLeft" x="0" y="0" onmousedown="handlePan(-1,0)"/>
</g>
<svg viewBox="0 0 15 15" width="100%" height="30px" preserveAspectRatio="xMaxYMin meet">
 <g id="arrow_out" transform="scale(0.3 0.3)">
  <a xlink:href="class_p4_1_1_base_compile_context__inherit__graph_org.svg" target="_base">
   <rect id="button" ry="5" rx="5" y="6" x="6" height="38" width="38"
        fill="#f2f5e9" fill-opacity="0.5" stroke="#606060" stroke-width="1.0"/>
   <path id="arrow"
     d="M 11.500037,31.436501 C 11.940474,20.09759 22.043105,11.32322 32.158766,21.979434 L 37.068811,17.246167 C 37.068811,17.246167 37.088388,32 37.088388,32 L 22.160133,31.978069 C 22.160133,31.978069 26.997745,27.140456 26.997745,27.140456 C 18.528582,18.264221 13.291696,25.230495 11.500037,31.436501 z"
     style="fill:#404040;"/>
  </a>
 </g>
</svg>

<style type='text/css'>
<![CDATA[
[data-mouse-over-selected='false'] { opacity: 0.7; }
[data-mouse-over-selected='true']  { opacity: 1.0; }
]]>
</style>
<script type="application/ecmascript"><![CDATA[
document.addEventListener('DOMContentLoaded', (event) => {
  highlightEdges();
  highlightAdjacentNodes();
});
]]></script>
</svg>
