<?xml version="1.0" encoding="UTF-8" standalone="no"?>
<!DOCTYPE svg PUBLIC "-//W3C//DTD SVG 1.1//EN"
 "http://www.w3.org/Graphics/SVG/1.1/DTD/svg11.dtd">
<!-- Generated by graphviz version 2.43.0 (0)
 -->
<!-- Title: P4::P4Tools::P4Testgen::EBPF::EBPFExprStepper Pages: 1 -->
<svg width="145pt" height="280pt"
 viewBox="0.00 0.00 145.00 280.00" xmlns="http://www.w3.org/2000/svg" xmlns:xlink="http://www.w3.org/1999/xlink">
<g id="graph0" class="graph" transform="scale(1 1) rotate(0) translate(4 276)">
<title>P4::P4Tools::P4Testgen::EBPF::EBPFExprStepper</title>
<!-- Node1 -->
<g id="Node000001" class="node">
<title>Node1</title>
<g id="a_Node000001"><a xlink:title=" ">
<polygon fill="#999999" stroke="#666666" points="137,-30 0,-30 0,0 137,0 137,-30"/>
<text text-anchor="start" x="8" y="-18" font-family="Helvetica,sans-Serif" font-size="10.00">P4::P4Tools::P4Testgen</text>
<text text-anchor="middle" x="68.5" y="-7" font-family="Helvetica,sans-Serif" font-size="10.00">::EBPF::EBPFExprStepper</text>
</a>
</g>
</g>
<!-- Node2 -->
<g id="Node000002" class="node">
<title>Node2</title>
<g id="a_Node000002"><a xlink:href="class_p4_1_1_p4_tools_1_1_p4_testgen_1_1_expr_stepper.html" target="_top" xlink:title="Implements small&#45;step operational semantics for expressions.">
<polygon fill="white" stroke="#666666" points="132,-96 5,-96 5,-66 132,-66 132,-96"/>
<text text-anchor="start" x="13" y="-84" font-family="Helvetica,sans-Serif" font-size="10.00">P4::P4Tools::P4Testgen</text>
<text text-anchor="middle" x="68.5" y="-73" font-family="Helvetica,sans-Serif" font-size="10.00">::ExprStepper</text>
</a>
</g>
</g>
<!-- Node2&#45;&gt;Node1 -->
<g id="edge1_Node000001_Node000002" class="edge">
<title>Node2&#45;&gt;Node1</title>
<g id="a_edge1_Node000001_Node000002"><a xlink:title=" ">
<path fill="none" stroke="#63b8ff" d="M68.5,-55.54C68.5,-46.96 68.5,-37.61 68.5,-30.16"/>
<polygon fill="#63b8ff" stroke="#63b8ff" points="65,-55.8 68.5,-65.8 72,-55.8 65,-55.8"/>
</a>
</g>
</g>
<!-- Node3 -->
<g id="Node000003" class="node">
<title>Node3</title>
<g id="a_Node000003"><a xlink:href="class_p4_1_1_p4_tools_1_1_p4_testgen_1_1_abstract_stepper.html" target="_top" xlink:title=" ">
<polygon fill="white" stroke="#666666" points="132,-162 5,-162 5,-132 132,-132 132,-162"/>
<text text-anchor="start" x="13" y="-150" font-family="Helvetica,sans-Serif" font-size="10.00">P4::P4Tools::P4Testgen</text>
<text text-anchor="middle" x="68.5" y="-139" font-family="Helvetica,sans-Serif" font-size="10.00">::AbstractStepper</text>
</a>
</g>
</g>
<!-- Node3&#45;&gt;Node2 -->
<g id="edge2_Node000002_Node000003" class="edge">
<title>Node3&#45;&gt;Node2</title>
<g id="a_edge2_Node000002_Node000003"><a xlink:title=" ">
<path fill="none" stroke="#63b8ff" d="M68.5,-121.54C68.5,-112.96 68.5,-103.61 68.5,-96.16"/>
<polygon fill="#63b8ff" stroke="#63b8ff" points="65,-121.8 68.5,-131.8 72,-121.8 65,-121.8"/>
</a>
</g>
</g>
<!-- Node4 -->
<g id="Node000004" class="node">
<title>Node4</title>
<g id="a_Node000004"><a xlink:href="class_p4_1_1_inspector.html" target="_top" xlink:title=" ">
<polygon fill="white" stroke="#bfbfbf" points="108.5,-217 28.5,-217 28.5,-198 108.5,-198 108.5,-217"/>
<text text-anchor="middle" x="68.5" y="-205" font-family="Helvetica,sans-Serif" font-size="10.00">P4::Inspector</text>
</a>
</g>
</g>
<!-- Node4&#45;&gt;Node3 -->
<g id="edge3_Node000003_Node000004" class="edge">
<title>Node4&#45;&gt;Node3</title>
<g id="a_edge3_Node000003_Node000004"><a xlink:title=" ">
<path fill="none" stroke="#63b8ff" d="M68.5,-187.65C68.5,-179.36 68.5,-169.78 68.5,-162.11"/>
<polygon fill="#63b8ff" stroke="#63b8ff" points="65,-187.87 68.5,-197.87 72,-187.87 65,-187.87"/>
</a>
</g>
</g>
<!-- Node5 -->
<g id="Node000005" class="node">
<title>Node5</title>
<g id="a_Node000005"><a xlink:href="class_p4_1_1_visitor.html" target="_top" xlink:title=" ">
<polygon fill="white" stroke="#bfbfbf" points="101.5,-272 35.5,-272 35.5,-253 101.5,-253 101.5,-272"/>
<text text-anchor="middle" x="68.5" y="-260" font-family="Helvetica,sans-Serif" font-size="10.00">P4::Visitor</text>
</a>
</g>
</g>
<!-- Node5&#45;&gt;Node4 -->
<g id="edge4_Node000004_Node000005" class="edge">
<title>Node5&#45;&gt;Node4</title>
<g id="a_edge4_Node000004_Node000005"><a xlink:title=" ">
<path fill="none" stroke="#63b8ff" d="M68.5,-242.66C68.5,-233.93 68.5,-223.99 68.5,-217.09"/>
<polygon fill="#63b8ff" stroke="#63b8ff" points="65,-242.75 68.5,-252.75 72,-242.75 65,-242.75"/>
</a>
</g>
</g>
</g>
</svg>
