<?xml version="1.0" encoding="UTF-8" standalone="no"?>
<!DOCTYPE svg PUBLIC "-//W3C//DTD SVG 1.1//EN"
 "http://www.w3.org/Graphics/SVG/1.1/DTD/svg11.dtd">
<!-- Generated by graphviz version 2.43.0 (0)
 -->
<!-- Title: P4::ProgramStructure Pages: 1 -->
<svg width="540pt" height="175pt"
 viewBox="0.00 0.00 540.00 175.00" xmlns="http://www.w3.org/2000/svg" xmlns:xlink="http://www.w3.org/1999/xlink">
<g id="graph0" class="graph" transform="scale(1 1) rotate(0) translate(4 171)">
<title>P4::ProgramStructure</title>
<!-- Node1 -->
<g id="Node000001" class="node">
<title>Node1</title>
<g id="a_Node000001"><a xlink:title=" ">
<polygon fill="#999999" stroke="#666666" points="120,-93 0,-93 0,-74 120,-74 120,-93"/>
<text text-anchor="middle" x="60" y="-81" font-family="Helvetica,sans-Serif" font-size="10.00">P4::ProgramStructure</text>
</a>
</g>
</g>
<!-- Node2 -->
<g id="Node000002" class="node">
<title>Node2</title>
<g id="a_Node000002"><a xlink:href="struct_b_f_n_1_1_p_s_a_1_1_program_structure.html" target="_top" xlink:title=" ">
<polygon fill="white" stroke="#bfbfbf" points="316.5,-167 162.5,-167 162.5,-148 316.5,-148 316.5,-167"/>
<text text-anchor="middle" x="239.5" y="-155" font-family="Helvetica,sans-Serif" font-size="10.00">BFN::PSA::ProgramStructure</text>
</a>
</g>
</g>
<!-- Node1&#45;&gt;Node2 -->
<g id="edge1_Node000001_Node000002" class="edge">
<title>Node1&#45;&gt;Node2</title>
<g id="a_edge1_Node000001_Node000002"><a xlink:title=" ">
<path fill="none" stroke="#63b8ff" d="M82.48,-98.86C101.1,-111.5 129.19,-128.99 156,-139.5 164.6,-142.87 173.96,-145.67 183.19,-147.98"/>
<polygon fill="#63b8ff" stroke="#63b8ff" points="84.36,-95.91 74.15,-93.1 80.38,-101.66 84.36,-95.91"/>
</a>
</g>
</g>
<!-- Node3 -->
<g id="Node000003" class="node">
<title>Node3</title>
<g id="a_Node000003"><a xlink:href="struct_b_f_n_1_1_v1_1_1_program_structure.html" target="_top" xlink:title=" ">
<polygon fill="white" stroke="#666666" points="313,-130 166,-130 166,-111 313,-111 313,-130"/>
<text text-anchor="middle" x="239.5" y="-118" font-family="Helvetica,sans-Serif" font-size="10.00">BFN::V1::ProgramStructure</text>
</a>
</g>
</g>
<!-- Node1&#45;&gt;Node3 -->
<g id="edge2_Node000001_Node000003" class="edge">
<title>Node1&#45;&gt;Node3</title>
<g id="a_edge2_Node000001_Node000003"><a xlink:title=" ">
<path fill="none" stroke="#63b8ff" d="M116.57,-95.08C141.03,-100.18 169.41,-106.1 192.64,-110.94"/>
<polygon fill="#63b8ff" stroke="#63b8ff" points="117.21,-91.64 106.71,-93.03 115.79,-98.5 117.21,-91.64"/>
</a>
</g>
</g>
<!-- Node4 -->
<g id="Node000004" class="node">
<title>Node4</title>
<g id="a_Node000004"><a xlink:href="class_p4_1_1_b_m_v2_1_1_v1_program_structure.html" target="_top" xlink:title=" ">
<polygon fill="white" stroke="#bfbfbf" points="323,-93 156,-93 156,-74 323,-74 323,-93"/>
<text text-anchor="middle" x="239.5" y="-81" font-family="Helvetica,sans-Serif" font-size="10.00">P4::BMV2::V1ProgramStructure</text>
</a>
</g>
</g>
<!-- Node1&#45;&gt;Node4 -->
<g id="edge3_Node000001_Node000004" class="edge">
<title>Node1&#45;&gt;Node4</title>
<g id="a_edge3_Node000001_Node000004"><a xlink:title=" ">
<path fill="none" stroke="#63b8ff" d="M130.24,-83.5C138.67,-83.5 147.34,-83.5 155.94,-83.5"/>
<polygon fill="#63b8ff" stroke="#63b8ff" points="130.1,-80 120.1,-83.5 130.1,-87 130.1,-80"/>
</a>
</g>
</g>
<!-- Node5 -->
<g id="Node000005" class="node">
<title>Node5</title>
<g id="a_Node000005"><a xlink:href="class_p4_1_1_portable_program_structure.html" target="_top" xlink:title=" ">
<polygon fill="white" stroke="#bfbfbf" points="320,-56 159,-56 159,-37 320,-37 320,-56"/>
<text text-anchor="middle" x="239.5" y="-44" font-family="Helvetica,sans-Serif" font-size="10.00">P4::PortableProgramStructure</text>
</a>
</g>
</g>
<!-- Node1&#45;&gt;Node5 -->
<g id="edge4_Node000001_Node000005" class="edge">
<title>Node1&#45;&gt;Node5</title>
<g id="a_edge4_Node000001_Node000005"><a xlink:title=" ">
<path fill="none" stroke="#63b8ff" d="M116.57,-71.92C141.03,-66.82 169.41,-60.9 192.64,-56.06"/>
<polygon fill="#63b8ff" stroke="#63b8ff" points="115.79,-68.5 106.71,-73.97 117.21,-75.36 115.79,-68.5"/>
</a>
</g>
</g>
<!-- Node8 -->
<g id="Node000008" class="node">
<title>Node8</title>
<g id="a_Node000008"><a xlink:href="class_p4_1_1_t_c_1_1_pna_program_structure.html" target="_top" xlink:title=" ">
<polygon fill="white" stroke="#bfbfbf" points="317.5,-19 161.5,-19 161.5,0 317.5,0 317.5,-19"/>
<text text-anchor="middle" x="239.5" y="-7" font-family="Helvetica,sans-Serif" font-size="10.00">P4::TC::PnaProgramStructure</text>
</a>
</g>
</g>
<!-- Node1&#45;&gt;Node8 -->
<g id="edge7_Node000001_Node000008" class="edge">
<title>Node1&#45;&gt;Node8</title>
<g id="a_edge7_Node000001_Node000008"><a xlink:title=" ">
<path fill="none" stroke="#63b8ff" d="M82.87,-68.3C101.54,-55.96 129.49,-38.95 156,-28.5 165.57,-24.73 176.08,-21.6 186.29,-19.04"/>
<polygon fill="#63b8ff" stroke="#63b8ff" points="80.84,-65.44 74.5,-73.93 84.75,-71.25 80.84,-65.44"/>
</a>
</g>
</g>
<!-- Node6 -->
<g id="Node000006" class="node">
<title>Node6</title>
<g id="a_Node000006"><a xlink:href="class_p4_1_1_b_m_v2_1_1_pna_program_structure.html" target="_top" xlink:title=" ">
<polygon fill="white" stroke="#bfbfbf" points="532,-74 359,-74 359,-55 532,-55 532,-74"/>
<text text-anchor="middle" x="445.5" y="-62" font-family="Helvetica,sans-Serif" font-size="10.00">P4::BMV2::PnaProgramStructure</text>
</a>
</g>
</g>
<!-- Node5&#45;&gt;Node6 -->
<g id="edge5_Node000005_Node000006" class="edge">
<title>Node5&#45;&gt;Node6</title>
<g id="a_edge5_Node000005_Node000006"><a xlink:title=" ">
<path fill="none" stroke="#63b8ff" d="M330.4,-54.43C339.81,-55.26 349.37,-56.11 358.74,-56.93"/>
<polygon fill="#63b8ff" stroke="#63b8ff" points="330.52,-50.93 320.25,-53.54 329.9,-57.9 330.52,-50.93"/>
</a>
</g>
</g>
<!-- Node7 -->
<g id="Node000007" class="node">
<title>Node7</title>
<g id="a_Node000007"><a xlink:href="class_p4_1_1_psa_program_structure.html" target="_top" xlink:title=" ">
<polygon fill="white" stroke="#bfbfbf" points="514,-37 377,-37 377,-18 514,-18 514,-37"/>
<text text-anchor="middle" x="445.5" y="-25" font-family="Helvetica,sans-Serif" font-size="10.00">P4::PsaProgramStructure</text>
</a>
</g>
</g>
<!-- Node5&#45;&gt;Node7 -->
<g id="edge6_Node000005_Node000007" class="edge">
<title>Node5&#45;&gt;Node7</title>
<g id="a_edge6_Node000005_Node000007"><a xlink:title=" ">
<path fill="none" stroke="#63b8ff" d="M330.39,-38.13C345.94,-36.68 361.87,-35.2 376.7,-33.81"/>
<polygon fill="#63b8ff" stroke="#63b8ff" points="329.88,-34.66 320.25,-39.07 330.53,-41.63 329.88,-34.66"/>
</a>
</g>
</g>
</g>
</svg>
