<?xml version="1.0" encoding="UTF-8" standalone="no"?>
<!DOCTYPE svg PUBLIC "-//W3C//DTD SVG 1.1//EN"
 "http://www.w3.org/Graphics/SVG/1.1/DTD/svg11.dtd">
<!-- Generated by graphviz version 2.43.0 (0)
 -->
<!-- Title: P4::UBPF::UBPFParserState Pages: 1 -->
<svg width="156pt" height="247pt"
 viewBox="0.00 0.00 156.00 247.00" xmlns="http://www.w3.org/2000/svg" xmlns:xlink="http://www.w3.org/1999/xlink">
<g id="graph0" class="graph" transform="scale(1 1) rotate(0) translate(4 243)">
<title>P4::UBPF::UBPFParserState</title>
<!-- Node1 -->
<g id="Node000001" class="node">
<title>Node1</title>
<g id="a_Node000001"><a xlink:title=" ">
<polygon fill="#999999" stroke="#666666" points="148,-19 0,-19 0,0 148,0 148,-19"/>
<text text-anchor="middle" x="74" y="-7" font-family="Helvetica,sans-Serif" font-size="10.00">P4::UBPF::UBPFParserState</text>
</a>
</g>
</g>
<!-- Node2 -->
<g id="Node000002" class="node">
<title>Node2</title>
<g id="a_Node000002"><a xlink:href="class_p4_1_1_e_b_p_f_1_1_e_b_p_f_parser_state.html" target="_top" xlink:title=" ">
<polygon fill="white" stroke="#bfbfbf" points="146.5,-74 1.5,-74 1.5,-55 146.5,-55 146.5,-74"/>
<text text-anchor="middle" x="74" y="-62" font-family="Helvetica,sans-Serif" font-size="10.00">P4::EBPF::EBPFParserState</text>
</a>
</g>
</g>
<!-- Node2&#45;&gt;Node1 -->
<g id="edge1_Node000001_Node000002" class="edge">
<title>Node2&#45;&gt;Node1</title>
<g id="a_edge1_Node000001_Node000002"><a xlink:title=" ">
<path fill="none" stroke="#63b8ff" d="M74,-44.66C74,-35.93 74,-25.99 74,-19.09"/>
<polygon fill="#63b8ff" stroke="#63b8ff" points="70.5,-44.75 74,-54.75 77.5,-44.75 70.5,-44.75"/>
</a>
</g>
</g>
<!-- Node3 -->
<g id="Node000003" class="node">
<title>Node3</title>
<g id="a_Node000003"><a xlink:href="class_p4_1_1_e_b_p_f_1_1_e_b_p_f_object.html" target="_top" xlink:title="Base class for EBPF objects.">
<polygon fill="white" stroke="#666666" points="134.5,-129 13.5,-129 13.5,-110 134.5,-110 134.5,-129"/>
<text text-anchor="middle" x="74" y="-117" font-family="Helvetica,sans-Serif" font-size="10.00">P4::EBPF::EBPFObject</text>
</a>
</g>
</g>
<!-- Node3&#45;&gt;Node2 -->
<g id="edge2_Node000002_Node000003" class="edge">
<title>Node3&#45;&gt;Node2</title>
<g id="a_edge2_Node000002_Node000003"><a xlink:title=" ">
<path fill="none" stroke="#63b8ff" d="M74,-99.66C74,-90.93 74,-80.99 74,-74.09"/>
<polygon fill="#63b8ff" stroke="#63b8ff" points="70.5,-99.75 74,-109.75 77.5,-99.75 70.5,-99.75"/>
</a>
</g>
</g>
<!-- Node4 -->
<g id="Node000004" class="node">
<title>Node4</title>
<g id="a_Node000004"><a xlink:href="class_p4_1_1_i_castable.html" target="_top" xlink:title=" ">
<polygon fill="white" stroke="#666666" points="114,-184 34,-184 34,-165 114,-165 114,-184"/>
<text text-anchor="middle" x="74" y="-172" font-family="Helvetica,sans-Serif" font-size="10.00">P4::ICastable</text>
</a>
</g>
</g>
<!-- Node4&#45;&gt;Node3 -->
<g id="edge3_Node000003_Node000004" class="edge">
<title>Node4&#45;&gt;Node3</title>
<g id="a_edge3_Node000003_Node000004"><a xlink:title=" ">
<path fill="none" stroke="#63b8ff" d="M74,-154.66C74,-145.93 74,-135.99 74,-129.09"/>
<polygon fill="#63b8ff" stroke="#63b8ff" points="70.5,-154.75 74,-164.75 77.5,-154.75 70.5,-154.75"/>
</a>
</g>
</g>
<!-- Node5 -->
<g id="Node000005" class="node">
<title>Node5</title>
<g id="a_Node000005"><a xlink:href="struct_p4_1_1_r_t_t_i_1_1_base.html" target="_top" xlink:title=" ">
<polygon fill="white" stroke="#bfbfbf" points="117,-239 31,-239 31,-220 117,-220 117,-239"/>
<text text-anchor="middle" x="74" y="-227" font-family="Helvetica,sans-Serif" font-size="10.00">P4::RTTI::Base</text>
</a>
</g>
</g>
<!-- Node5&#45;&gt;Node4 -->
<g id="edge4_Node000004_Node000005" class="edge">
<title>Node5&#45;&gt;Node4</title>
<g id="a_edge4_Node000004_Node000005"><a xlink:title=" ">
<path fill="none" stroke="#63b8ff" d="M74,-209.66C74,-200.93 74,-190.99 74,-184.09"/>
<polygon fill="#63b8ff" stroke="#63b8ff" points="70.5,-209.75 74,-219.75 77.5,-209.75 70.5,-209.75"/>
</a>
</g>
</g>
</g>
</svg>
