<?xml version="1.0" encoding="UTF-8" standalone="no"?>
<!DOCTYPE svg PUBLIC "-//W3C//DTD SVG 1.1//EN"
 "http://www.w3.org/Graphics/SVG/1.1/DTD/svg11.dtd">
<!-- Generated by graphviz version 2.43.0 (0)
 -->
<!-- Title: P4::EBPF::EBPFControl Pages: 1 -->
<svg width="1509pt" height="138pt"
 viewBox="0.00 0.00 1509.00 138.00" xmlns="http://www.w3.org/2000/svg" xmlns:xlink="http://www.w3.org/1999/xlink">
<g id="graph0" class="graph" transform="scale(1 1) rotate(0) translate(4 134)">
<title>P4::EBPF::EBPFControl</title>
<!-- Node1 -->
<g id="Node000001" class="node">
<title>Node1</title>
<g id="a_Node000001"><a xlink:title=" ">
<polygon fill="#999999" stroke="#666666" points="520,-56 395,-56 395,-37 520,-37 520,-56"/>
<text text-anchor="middle" x="457.5" y="-44" font-family="Helvetica,sans-Serif" font-size="10.00">P4::EBPF::EBPFControl</text>
</a>
</g>
</g>
<!-- Node5 -->
<g id="Node000005" class="node">
<title>Node5</title>
<g id="a_Node000005"><a xlink:href="class_p4_1_1_e_b_p_f_1_1_e_b_p_f_control_p_s_a.html" target="_top" xlink:title=" ">
<polygon fill="white" stroke="#bfbfbf" points="700,-93 556,-93 556,-74 700,-74 700,-93"/>
<text text-anchor="middle" x="628" y="-81" font-family="Helvetica,sans-Serif" font-size="10.00">P4::EBPF::EBPFControlPSA</text>
</a>
</g>
</g>
<!-- Node1&#45;&gt;Node5 -->
<g id="edge4_Node000001_Node000005" class="edge">
<title>Node1&#45;&gt;Node5</title>
<g id="a_edge4_Node000001_Node000005"><a xlink:title=" ">
<path fill="none" stroke="#63b8ff" d="M511.87,-58.22C534.95,-63.29 561.61,-69.14 583.46,-73.94"/>
<polygon fill="#63b8ff" stroke="#63b8ff" points="512.41,-54.75 501.89,-56.03 510.91,-61.59 512.41,-54.75"/>
</a>
</g>
</g>
<!-- Node7 -->
<g id="Node000007" class="node">
<title>Node7</title>
<g id="a_Node000007"><a xlink:href="class_p4_1_1_e_b_p_f_1_1_e_b_p_f_deparser.html" target="_top" xlink:title=" ">
<polygon fill="white" stroke="#bfbfbf" points="695,-56 561,-56 561,-37 695,-37 695,-56"/>
<text text-anchor="middle" x="628" y="-44" font-family="Helvetica,sans-Serif" font-size="10.00">P4::EBPF::EBPFDeparser</text>
</a>
</g>
</g>
<!-- Node1&#45;&gt;Node7 -->
<g id="edge6_Node000001_Node000007" class="edge">
<title>Node1&#45;&gt;Node7</title>
<g id="a_edge6_Node000001_Node000007"><a xlink:title=" ">
<path fill="none" stroke="#63b8ff" d="M530.35,-46.5C540.51,-46.5 550.92,-46.5 560.97,-46.5"/>
<polygon fill="#63b8ff" stroke="#63b8ff" points="530.29,-43 520.29,-46.5 530.29,-50 530.29,-43"/>
</a>
</g>
</g>
<!-- Node17 -->
<g id="Node000017" class="node">
<title>Node17</title>
<g id="a_Node000017"><a xlink:href="class_p4_1_1_u_b_p_f_1_1_u_b_p_f_control.html" target="_top" xlink:title=" ">
<polygon fill="white" stroke="#bfbfbf" points="692,-19 564,-19 564,0 692,0 692,-19"/>
<text text-anchor="middle" x="628" y="-7" font-family="Helvetica,sans-Serif" font-size="10.00">P4::UBPF::UBPFControl</text>
</a>
</g>
</g>
<!-- Node1&#45;&gt;Node17 -->
<g id="edge16_Node000001_Node000017" class="edge">
<title>Node1&#45;&gt;Node17</title>
<g id="a_edge16_Node000001_Node000017"><a xlink:title=" ">
<path fill="none" stroke="#63b8ff" d="M511.87,-34.78C534.95,-29.71 561.61,-23.86 583.46,-19.06"/>
<polygon fill="#63b8ff" stroke="#63b8ff" points="510.91,-31.41 501.89,-36.97 512.41,-38.25 510.91,-31.41"/>
</a>
</g>
</g>
<!-- Node2 -->
<g id="Node000002" class="node">
<title>Node2</title>
<g id="a_Node000002"><a xlink:href="class_p4_1_1_e_b_p_f_1_1_e_b_p_f_object.html" target="_top" xlink:title="Base class for EBPF objects.">
<polygon fill="white" stroke="#666666" points="359,-56 238,-56 238,-37 359,-37 359,-56"/>
<text text-anchor="middle" x="298.5" y="-44" font-family="Helvetica,sans-Serif" font-size="10.00">P4::EBPF::EBPFObject</text>
</a>
</g>
</g>
<!-- Node2&#45;&gt;Node1 -->
<g id="edge1_Node000001_Node000002" class="edge">
<title>Node2&#45;&gt;Node1</title>
<g id="a_edge1_Node000001_Node000002"><a xlink:title=" ">
<path fill="none" stroke="#63b8ff" d="M369.49,-46.5C377.92,-46.5 386.48,-46.5 394.78,-46.5"/>
<polygon fill="#63b8ff" stroke="#63b8ff" points="369.3,-43 359.3,-46.5 369.3,-50 369.3,-43"/>
</a>
</g>
</g>
<!-- Node3 -->
<g id="Node000003" class="node">
<title>Node3</title>
<g id="a_Node000003"><a xlink:href="class_p4_1_1_i_castable.html" target="_top" xlink:title=" ">
<polygon fill="white" stroke="#666666" points="202,-56 122,-56 122,-37 202,-37 202,-56"/>
<text text-anchor="middle" x="162" y="-44" font-family="Helvetica,sans-Serif" font-size="10.00">P4::ICastable</text>
</a>
</g>
</g>
<!-- Node3&#45;&gt;Node2 -->
<g id="edge2_Node000002_Node000003" class="edge">
<title>Node3&#45;&gt;Node2</title>
<g id="a_edge2_Node000002_Node000003"><a xlink:title=" ">
<path fill="none" stroke="#63b8ff" d="M212.5,-46.5C220.77,-46.5 229.44,-46.5 237.93,-46.5"/>
<polygon fill="#63b8ff" stroke="#63b8ff" points="212.26,-43 202.26,-46.5 212.26,-50 212.26,-43"/>
</a>
</g>
</g>
<!-- Node4 -->
<g id="Node000004" class="node">
<title>Node4</title>
<g id="a_Node000004"><a xlink:href="struct_p4_1_1_r_t_t_i_1_1_base.html" target="_top" xlink:title=" ">
<polygon fill="white" stroke="#bfbfbf" points="86,-56 0,-56 0,-37 86,-37 86,-56"/>
<text text-anchor="middle" x="43" y="-44" font-family="Helvetica,sans-Serif" font-size="10.00">P4::RTTI::Base</text>
</a>
</g>
</g>
<!-- Node4&#45;&gt;Node3 -->
<g id="edge3_Node000003_Node000004" class="edge">
<title>Node4&#45;&gt;Node3</title>
<g id="a_edge3_Node000003_Node000004"><a xlink:title=" ">
<path fill="none" stroke="#63b8ff" d="M96.25,-46.5C104.88,-46.5 113.7,-46.5 121.94,-46.5"/>
<polygon fill="#63b8ff" stroke="#63b8ff" points="96.24,-43 86.24,-46.5 96.24,-50 96.24,-43"/>
</a>
</g>
</g>
<!-- Node6 -->
<g id="Node000006" class="node">
<title>Node6</title>
<g id="a_Node000006"><a xlink:href="class_p4_1_1_t_c_1_1_e_b_p_f_control_p_n_a.html" target="_top" xlink:title=" ">
<polygon fill="white" stroke="#bfbfbf" points="879,-93 746,-93 746,-74 879,-74 879,-93"/>
<text text-anchor="middle" x="812.5" y="-81" font-family="Helvetica,sans-Serif" font-size="10.00">P4::TC::EBPFControlPNA</text>
</a>
</g>
</g>
<!-- Node5&#45;&gt;Node6 -->
<g id="edge5_Node000005_Node000006" class="edge">
<title>Node5&#45;&gt;Node6</title>
<g id="a_edge5_Node000005_Node000006"><a xlink:title=" ">
<path fill="none" stroke="#63b8ff" d="M710.09,-83.5C722.1,-83.5 734.34,-83.5 745.98,-83.5"/>
<polygon fill="#63b8ff" stroke="#63b8ff" points="710.08,-80 700.08,-83.5 710.08,-87 710.08,-80"/>
</a>
</g>
</g>
<!-- Node8 -->
<g id="Node000008" class="node">
<title>Node8</title>
<g id="a_Node000008"><a xlink:href="class_p4_1_1_e_b_p_f_1_1_e_b_p_f_deparser_p_s_a.html" target="_top" xlink:title=" ">
<polygon fill="white" stroke="#bfbfbf" points="889,-56 736,-56 736,-37 889,-37 889,-56"/>
<text text-anchor="middle" x="812.5" y="-44" font-family="Helvetica,sans-Serif" font-size="10.00">P4::EBPF::EBPFDeparserPSA</text>
</a>
</g>
</g>
<!-- Node7&#45;&gt;Node8 -->
<g id="edge7_Node000007_Node000008" class="edge">
<title>Node7&#45;&gt;Node8</title>
<g id="a_edge7_Node000007_Node000008"><a xlink:title=" ">
<path fill="none" stroke="#63b8ff" d="M705.21,-46.5C715.39,-46.5 725.82,-46.5 735.98,-46.5"/>
<polygon fill="#63b8ff" stroke="#63b8ff" points="705.14,-43 695.14,-46.5 705.14,-50 705.14,-43"/>
</a>
</g>
</g>
<!-- Node9 -->
<g id="Node000009" class="node">
<title>Node9</title>
<g id="a_Node000009"><a xlink:href="class_p4_1_1_e_b_p_f_1_1_egress_deparser_p_s_a.html" target="_top" xlink:title=" ">
<polygon fill="white" stroke="#bfbfbf" points="1087.5,-93 926.5,-93 926.5,-74 1087.5,-74 1087.5,-93"/>
<text text-anchor="middle" x="1007" y="-81" font-family="Helvetica,sans-Serif" font-size="10.00">P4::EBPF::EgressDeparserPSA</text>
</a>
</g>
</g>
<!-- Node8&#45;&gt;Node9 -->
<g id="edge8_Node000008_Node000009" class="edge">
<title>Node8&#45;&gt;Node9</title>
<g id="a_edge8_Node000008_Node000009"><a xlink:title=" ">
<path fill="none" stroke="#63b8ff" d="M873.06,-57.95C899.74,-63.08 930.85,-69.06 956.26,-73.94"/>
<polygon fill="#63b8ff" stroke="#63b8ff" points="873.55,-54.48 863.07,-56.03 872.23,-61.35 873.55,-54.48"/>
</a>
</g>
</g>
<!-- Node12 -->
<g id="Node000012" class="node">
<title>Node12</title>
<g id="a_Node000012"><a xlink:href="class_p4_1_1_e_b_p_f_1_1_ingress_deparser_p_s_a.html" target="_top" xlink:title=" ">
<polygon fill="white" stroke="#bfbfbf" points="1089,-56 925,-56 925,-37 1089,-37 1089,-56"/>
<text text-anchor="middle" x="1007" y="-44" font-family="Helvetica,sans-Serif" font-size="10.00">P4::EBPF::IngressDeparserPSA</text>
</a>
</g>
</g>
<!-- Node8&#45;&gt;Node12 -->
<g id="edge11_Node000008_Node000012" class="edge">
<title>Node8&#45;&gt;Node12</title>
<g id="a_edge11_Node000008_Node000012"><a xlink:title=" ">
<path fill="none" stroke="#63b8ff" d="M899.07,-46.5C907.68,-46.5 916.41,-46.5 924.97,-46.5"/>
<polygon fill="#63b8ff" stroke="#63b8ff" points="899.03,-43 889.03,-46.5 899.03,-50 899.03,-43"/>
</a>
</g>
</g>
<!-- Node16 -->
<g id="Node000016" class="node">
<title>Node16</title>
<g id="a_Node000016"><a xlink:href="class_p4_1_1_t_c_1_1_ingress_deparser_p_n_a.html" target="_top" xlink:title=" ">
<polygon fill="white" stroke="#bfbfbf" points="1083,-19 931,-19 931,0 1083,0 1083,-19"/>
<text text-anchor="middle" x="1007" y="-7" font-family="Helvetica,sans-Serif" font-size="10.00">P4::TC::IngressDeparserPNA</text>
</a>
</g>
</g>
<!-- Node8&#45;&gt;Node16 -->
<g id="edge15_Node000008_Node000016" class="edge">
<title>Node8&#45;&gt;Node16</title>
<g id="a_edge15_Node000008_Node000016"><a xlink:title=" ">
<path fill="none" stroke="#63b8ff" d="M873.06,-35.05C899.74,-29.92 930.85,-23.94 956.26,-19.06"/>
<polygon fill="#63b8ff" stroke="#63b8ff" points="872.23,-31.65 863.07,-36.97 873.55,-38.52 872.23,-31.65"/>
</a>
</g>
</g>
<!-- Node10 -->
<g id="Node000010" class="node">
<title>Node10</title>
<g id="a_Node000010"><a xlink:href="class_p4_1_1_e_b_p_f_1_1_t_c_egress_deparser_p_s_a.html" target="_top" xlink:title=" ">
<polygon fill="white" stroke="#bfbfbf" points="1303.5,-130 1130.5,-130 1130.5,-111 1303.5,-111 1303.5,-130"/>
<text text-anchor="middle" x="1217" y="-118" font-family="Helvetica,sans-Serif" font-size="10.00">P4::EBPF::TCEgressDeparserPSA</text>
</a>
</g>
</g>
<!-- Node9&#45;&gt;Node10 -->
<g id="edge9_Node000009_Node000010" class="edge">
<title>Node9&#45;&gt;Node10</title>
<g id="a_edge9_Node000009_Node000010"><a xlink:title=" ">
<path fill="none" stroke="#63b8ff" d="M1071.6,-94.81C1100.6,-99.97 1134.56,-106.01 1162.26,-110.94"/>
<polygon fill="#63b8ff" stroke="#63b8ff" points="1072.02,-91.33 1061.57,-93.03 1070.8,-98.23 1072.02,-91.33"/>
</a>
</g>
</g>
<!-- Node11 -->
<g id="Node000011" class="node">
<title>Node11</title>
<g id="a_Node000011"><a xlink:href="class_p4_1_1_e_b_p_f_1_1_x_d_p_egress_deparser_p_s_a.html" target="_top" xlink:title=" ">
<polygon fill="white" stroke="#bfbfbf" points="1307.5,-93 1126.5,-93 1126.5,-74 1307.5,-74 1307.5,-93"/>
<text text-anchor="middle" x="1217" y="-81" font-family="Helvetica,sans-Serif" font-size="10.00">P4::EBPF::XDPEgressDeparserPSA</text>
</a>
</g>
</g>
<!-- Node9&#45;&gt;Node11 -->
<g id="edge10_Node000009_Node000011" class="edge">
<title>Node9&#45;&gt;Node11</title>
<g id="a_edge10_Node000009_Node000011"><a xlink:title=" ">
<path fill="none" stroke="#63b8ff" d="M1097.76,-83.5C1107.27,-83.5 1116.94,-83.5 1126.45,-83.5"/>
<polygon fill="#63b8ff" stroke="#63b8ff" points="1097.53,-80 1087.53,-83.5 1097.53,-87 1097.53,-80"/>
</a>
</g>
</g>
<!-- Node13 -->
<g id="Node000013" class="node">
<title>Node13</title>
<g id="a_Node000013"><a xlink:href="class_p4_1_1_e_b_p_f_1_1_t_c_ingress_deparser_p_s_a.html" target="_top" xlink:title=" ">
<polygon fill="white" stroke="#bfbfbf" points="1305,-56 1129,-56 1129,-37 1305,-37 1305,-56"/>
<text text-anchor="middle" x="1217" y="-44" font-family="Helvetica,sans-Serif" font-size="10.00">P4::EBPF::TCIngressDeparserPSA</text>
</a>
</g>
</g>
<!-- Node12&#45;&gt;Node13 -->
<g id="edge12_Node000012_Node000013" class="edge">
<title>Node12&#45;&gt;Node13</title>
<g id="a_edge12_Node000012_Node000013"><a xlink:title=" ">
<path fill="none" stroke="#63b8ff" d="M1099.16,-46.5C1108.96,-46.5 1118.91,-46.5 1128.67,-46.5"/>
<polygon fill="#63b8ff" stroke="#63b8ff" points="1099.01,-43 1089.01,-46.5 1099.01,-50 1099.01,-43"/>
</a>
</g>
</g>
<!-- Node15 -->
<g id="Node000015" class="node">
<title>Node15</title>
<g id="a_Node000015"><a xlink:href="class_p4_1_1_e_b_p_f_1_1_x_d_p_ingress_deparser_p_s_a.html" target="_top" xlink:title=" ">
<polygon fill="white" stroke="#bfbfbf" points="1309,-19 1125,-19 1125,0 1309,0 1309,-19"/>
<text text-anchor="middle" x="1217" y="-7" font-family="Helvetica,sans-Serif" font-size="10.00">P4::EBPF::XDPIngressDeparserPSA</text>
</a>
</g>
</g>
<!-- Node12&#45;&gt;Node15 -->
<g id="edge14_Node000012_Node000015" class="edge">
<title>Node12&#45;&gt;Node15</title>
<g id="a_edge14_Node000012_Node000015"><a xlink:title=" ">
<path fill="none" stroke="#63b8ff" d="M1071.6,-35.19C1100.6,-30.03 1134.56,-23.99 1162.26,-19.06"/>
<polygon fill="#63b8ff" stroke="#63b8ff" points="1070.8,-31.77 1061.57,-36.97 1072.02,-38.67 1070.8,-31.77"/>
</a>
</g>
</g>
<!-- Node14 -->
<g id="Node000014" class="node">
<title>Node14</title>
<g id="a_Node000014"><a xlink:href="class_p4_1_1_e_b_p_f_1_1_t_c_ingress_deparser_for_traffic_manager_p_s_a.html" target="_top" xlink:title=" ">
<polygon fill="white" stroke="#bfbfbf" points="1501,-61.5 1345,-61.5 1345,-31.5 1501,-31.5 1501,-61.5"/>
<text text-anchor="start" x="1353" y="-49.5" font-family="Helvetica,sans-Serif" font-size="10.00">P4::EBPF::TCIngressDeparser</text>
<text text-anchor="middle" x="1423" y="-38.5" font-family="Helvetica,sans-Serif" font-size="10.00">ForTrafficManagerPSA</text>
</a>
</g>
</g>
<!-- Node13&#45;&gt;Node14 -->
<g id="edge13_Node000013_Node000014" class="edge">
<title>Node13&#45;&gt;Node14</title>
<g id="a_edge13_Node000013_Node000014"><a xlink:title=" ">
<path fill="none" stroke="#63b8ff" d="M1315.38,-46.5C1325.27,-46.5 1335.22,-46.5 1344.85,-46.5"/>
<polygon fill="#63b8ff" stroke="#63b8ff" points="1315.11,-43 1305.11,-46.5 1315.11,-50 1315.11,-43"/>
</a>
</g>
</g>
</g>
</svg>
