<?xml version="1.0" encoding="UTF-8" standalone="no"?>
<!DOCTYPE svg PUBLIC "-//W3C//DTD SVG 1.1//EN"
 "http://www.w3.org/Graphics/SVG/1.1/DTD/svg11.dtd">
<!-- Generated by graphviz version 2.43.0 (0)
 -->
<!-- Title: MauTransform Pages: 1 -->
<svg width="518pt" height="1013pt"
 viewBox="0.00 0.00 518.00 1013.00" xmlns="http://www.w3.org/2000/svg" xmlns:xlink="http://www.w3.org/1999/xlink">
<g id="graph0" class="graph" transform="scale(1 1) rotate(0) translate(4 1009)">
<title>MauTransform</title>
<!-- Node1 -->
<g id="Node000001" class="node">
<title>Node1</title>
<g id="a_Node000001"><a xlink:title=" ">
<polygon fill="#999999" stroke="#666666" points="307,-524 221,-524 221,-505 307,-505 307,-524"/>
<text text-anchor="middle" x="264" y="-512" font-family="Helvetica,sans-Serif" font-size="10.00">MauTransform</text>
</a>
</g>
</g>
<!-- Node4 -->
<g id="Node000004" class="node">
<title>Node4</title>
<g id="a_Node000004"><a xlink:href="class_adjust_shift_instructions.html" target="_top" xlink:title=" ">
<polygon fill="white" stroke="#666666" points="489.5,-1005 363.5,-1005 363.5,-986 489.5,-986 489.5,-1005"/>
<text text-anchor="middle" x="426.5" y="-993" font-family="Helvetica,sans-Serif" font-size="10.00">AdjustShiftInstructions</text>
</a>
</g>
</g>
<!-- Node1&#45;&gt;Node4 -->
<g id="edge3_Node000001_Node000004" class="edge">
<title>Node1&#45;&gt;Node4</title>
<g id="a_edge3_Node000001_Node000004"><a xlink:title=" ">
<path fill="none" stroke="#63b8ff" d="M265.49,-534.3C267.86,-614.28 280.82,-912.26 343,-977.5 348.66,-983.44 355.8,-987.65 363.49,-990.59"/>
<polygon fill="#63b8ff" stroke="#63b8ff" points="268.98,-534.04 265.21,-524.14 261.98,-534.23 268.98,-534.04"/>
</a>
</g>
</g>
<!-- Node5 -->
<g id="Node000005" class="node">
<title>Node5</title>
<g id="a_Node000005"><a xlink:href="class_adjust_stateful_instructions.html" target="_top" xlink:title=" ">
<polygon fill="white" stroke="#bfbfbf" points="498,-968 355,-968 355,-949 498,-949 498,-968"/>
<text text-anchor="middle" x="426.5" y="-956" font-family="Helvetica,sans-Serif" font-size="10.00">AdjustStatefulInstructions</text>
</a>
</g>
</g>
<!-- Node1&#45;&gt;Node5 -->
<g id="edge4_Node000001_Node000005" class="edge">
<title>Node1&#45;&gt;Node5</title>
<g id="a_edge4_Node000001_Node000005"><a xlink:title=" ">
<path fill="none" stroke="#63b8ff" d="M265.8,-534.16C269.27,-609.85 285.58,-881.12 343,-940.5 346.46,-944.08 350.46,-947.03 354.8,-949.45"/>
<polygon fill="#63b8ff" stroke="#63b8ff" points="269.29,-533.95 265.36,-524.11 262.3,-534.25 269.29,-533.95"/>
</a>
</g>
</g>
<!-- Node6 -->
<g id="Node000006" class="node">
<title>Node6</title>
<g id="a_Node000006"><a xlink:href="class_b_f_n_1_1_action_arg_setup.html" target="_top" xlink:title=" ">
<polygon fill="white" stroke="#bfbfbf" points="485.5,-931 367.5,-931 367.5,-912 485.5,-912 485.5,-931"/>
<text text-anchor="middle" x="426.5" y="-919" font-family="Helvetica,sans-Serif" font-size="10.00">BFN::ActionArgSetup</text>
</a>
</g>
</g>
<!-- Node1&#45;&gt;Node6 -->
<g id="edge5_Node000001_Node000006" class="edge">
<title>Node1&#45;&gt;Node6</title>
<g id="a_edge5_Node000001_Node000006"><a xlink:title=" ">
<path fill="none" stroke="#63b8ff" d="M266.21,-534.73C270.92,-606.87 290.51,-850.11 343,-903.5 349.68,-910.29 358.29,-914.8 367.41,-917.74"/>
<polygon fill="#63b8ff" stroke="#63b8ff" points="269.67,-534.09 265.55,-524.33 262.69,-534.53 269.67,-534.09"/>
</a>
</g>
</g>
<!-- Node7 -->
<g id="Node000007" class="node">
<title>Node7</title>
<g id="a_Node000007"><a xlink:href="class_b_f_n_1_1_convert_method_calls.html" target="_top" xlink:title=" ">
<polygon fill="white" stroke="#666666" points="497.5,-894 355.5,-894 355.5,-875 497.5,-875 497.5,-894"/>
<text text-anchor="middle" x="426.5" y="-882" font-family="Helvetica,sans-Serif" font-size="10.00">BFN::ConvertMethodCalls</text>
</a>
</g>
</g>
<!-- Node1&#45;&gt;Node7 -->
<g id="edge6_Node000001_Node000007" class="edge">
<title>Node1&#45;&gt;Node7</title>
<g id="a_edge6_Node000001_Node000007"><a xlink:title=" ">
<path fill="none" stroke="#63b8ff" d="M266.61,-534.1C272.51,-600.98 295.12,-818.78 343,-866.5 346.63,-870.12 350.82,-873.09 355.33,-875.52"/>
<polygon fill="#63b8ff" stroke="#63b8ff" points="270.09,-533.73 265.75,-524.07 263.12,-534.33 270.09,-533.73"/>
</a>
</g>
</g>
<!-- Node8 -->
<g id="Node000008" class="node">
<title>Node8</title>
<g id="a_Node000008"><a xlink:href="class_backend_copy_propagation.html" target="_top" xlink:title=" ">
<polygon fill="white" stroke="#666666" points="497,-857 356,-857 356,-838 497,-838 497,-857"/>
<text text-anchor="middle" x="426.5" y="-845" font-family="Helvetica,sans-Serif" font-size="10.00">BackendCopyPropagation</text>
</a>
</g>
</g>
<!-- Node1&#45;&gt;Node8 -->
<g id="edge7_Node000001_Node000008" class="edge">
<title>Node1&#45;&gt;Node8</title>
<g id="a_edge7_Node000001_Node000008"><a xlink:title=" ">
<path fill="none" stroke="#63b8ff" d="M267.2,-534.43C274.5,-596.97 299.94,-787.62 343,-829.5 346.78,-833.18 351.13,-836.18 355.82,-838.62"/>
<polygon fill="#63b8ff" stroke="#63b8ff" points="270.65,-533.85 266.05,-524.31 263.7,-534.64 270.65,-533.85"/>
</a>
</g>
</g>
<!-- Node9 -->
<g id="Node000009" class="node">
<title>Node9</title>
<g id="a_Node000009"><a xlink:href="class_canon_gateway_expr.html" target="_top" xlink:title=" ">
<polygon fill="white" stroke="#bfbfbf" points="483,-820 370,-820 370,-801 483,-801 483,-820"/>
<text text-anchor="middle" x="426.5" y="-808" font-family="Helvetica,sans-Serif" font-size="10.00">CanonGatewayExpr</text>
</a>
</g>
</g>
<!-- Node1&#45;&gt;Node9 -->
<g id="edge8_Node000001_Node000009" class="edge">
<title>Node1&#45;&gt;Node9</title>
<g id="a_edge8_Node000001_Node000009"><a xlink:title=" ">
<path fill="none" stroke="#63b8ff" d="M264.16,-534.44C263.17,-585.49 268.05,-721.83 343,-792.5 350.47,-799.54 360.02,-804.08 369.96,-806.95"/>
<polygon fill="#63b8ff" stroke="#63b8ff" points="267.67,-534.24 264.47,-524.14 260.67,-534.03 267.67,-534.24"/>
</a>
</g>
</g>
<!-- Node10 -->
<g id="Node000010" class="node">
<title>Node10</title>
<g id="a_Node000010"><a xlink:href="class_constants_to_action_data.html" target="_top" xlink:title=" ">
<polygon fill="white" stroke="#666666" points="491.5,-783 361.5,-783 361.5,-764 491.5,-764 491.5,-783"/>
<text text-anchor="middle" x="426.5" y="-771" font-family="Helvetica,sans-Serif" font-size="10.00">ConstantsToActionData</text>
</a>
</g>
</g>
<!-- Node1&#45;&gt;Node10 -->
<g id="edge9_Node000001_Node000010" class="edge">
<title>Node1&#45;&gt;Node10</title>
<g id="a_edge9_Node000001_Node000010"><a xlink:title=" ">
<path fill="none" stroke="#63b8ff" d="M265.16,-534.26C266.68,-580.41 277.21,-695.88 343,-755.5 348.32,-760.32 354.63,-763.96 361.35,-766.69"/>
<polygon fill="#63b8ff" stroke="#63b8ff" points="268.66,-534.02 264.95,-524.09 261.66,-534.17 268.66,-534.02"/>
</a>
</g>
</g>
<!-- Node11 -->
<g id="Node000011" class="node">
<title>Node11</title>
<g id="a_Node000011"><a xlink:href="class_convert_funnel_shift_extern.html" target="_top" xlink:title=" ">
<polygon fill="white" stroke="#666666" points="496.5,-746 356.5,-746 356.5,-727 496.5,-727 496.5,-746"/>
<text text-anchor="middle" x="426.5" y="-734" font-family="Helvetica,sans-Serif" font-size="10.00">ConvertFunnelShiftExtern</text>
</a>
</g>
</g>
<!-- Node1&#45;&gt;Node11 -->
<g id="edge10_Node000001_Node000011" class="edge">
<title>Node1&#45;&gt;Node11</title>
<g id="a_edge10_Node000001_Node000011"><a xlink:title=" ">
<path fill="none" stroke="#63b8ff" d="M266.53,-534.55C270.78,-575.7 286.5,-669.92 343,-718.5 347,-721.94 351.51,-724.77 356.3,-727.09"/>
<polygon fill="#63b8ff" stroke="#63b8ff" points="270,-534.07 265.6,-524.43 263.03,-534.71 270,-534.07"/>
</a>
</g>
</g>
<!-- Node12 -->
<g id="Node000012" class="node">
<title>Node12</title>
<g id="a_Node000012"><a xlink:href="class_do_instruction_selection.html" target="_top" xlink:title=" ">
<polygon fill="white" stroke="#666666" points="490,-709 363,-709 363,-690 490,-690 490,-709"/>
<text text-anchor="middle" x="426.5" y="-697" font-family="Helvetica,sans-Serif" font-size="10.00">DoInstructionSelection</text>
</a>
</g>
</g>
<!-- Node1&#45;&gt;Node12 -->
<g id="edge11_Node000001_Node000012" class="edge">
<title>Node1&#45;&gt;Node12</title>
<g id="a_edge11_Node000001_Node000012"><a xlink:title=" ">
<path fill="none" stroke="#63b8ff" d="M268.37,-534.29C275.46,-569.63 295.41,-643.46 343,-681.5 348.84,-686.17 355.63,-689.69 362.75,-692.34"/>
<polygon fill="#63b8ff" stroke="#63b8ff" points="271.77,-533.45 266.49,-524.26 264.89,-534.73 271.77,-533.45"/>
</a>
</g>
</g>
<!-- Node13 -->
<g id="Node000013" class="node">
<title>Node13</title>
<g id="a_Node000013"><a xlink:href="class_elim_unused_1_1_tables.html" target="_top" xlink:title="Removes no&#45;op tables that have the @hidden annotation.">
<polygon fill="white" stroke="#666666" points="482.5,-672 370.5,-672 370.5,-653 482.5,-653 482.5,-672"/>
<text text-anchor="middle" x="426.5" y="-660" font-family="Helvetica,sans-Serif" font-size="10.00">ElimUnused::Tables</text>
</a>
</g>
</g>
<!-- Node1&#45;&gt;Node13 -->
<g id="edge12_Node000001_Node000013" class="edge">
<title>Node1&#45;&gt;Node13</title>
<g id="a_edge12_Node000001_Node000013"><a xlink:title=" ">
<path fill="none" stroke="#63b8ff" d="M271.07,-533.91C281.14,-562.78 304.13,-616.6 343,-644.5 351.1,-650.31 360.72,-654.31 370.47,-657.04"/>
<polygon fill="#63b8ff" stroke="#63b8ff" points="274.31,-532.56 267.83,-524.18 267.66,-534.77 274.31,-532.56"/>
</a>
</g>
</g>
<!-- Node14 -->
<g id="Node000014" class="node">
<title>Node14</title>
<g id="a_Node000014"><a xlink:href="class_eliminate_noop_instructions.html" target="_top" xlink:title=" ">
<polygon fill="white" stroke="#bfbfbf" points="499.5,-635 353.5,-635 353.5,-616 499.5,-616 499.5,-635"/>
<text text-anchor="middle" x="426.5" y="-623" font-family="Helvetica,sans-Serif" font-size="10.00">EliminateNoopInstructions</text>
</a>
</g>
</g>
<!-- Node1&#45;&gt;Node14 -->
<g id="edge13_Node000001_Node000014" class="edge">
<title>Node1&#45;&gt;Node14</title>
<g id="a_edge13_Node000001_Node000014"><a xlink:title=" ">
<path fill="none" stroke="#63b8ff" d="M275.32,-533C288.26,-554.4 312.51,-589.06 343,-607.5 348.65,-610.91 354.85,-613.68 361.26,-615.93"/>
<polygon fill="#63b8ff" stroke="#63b8ff" points="278.25,-531.07 270.19,-524.2 272.2,-534.6 278.25,-531.07"/>
</a>
</g>
</g>
<!-- Node15 -->
<g id="Node000015" class="node">
<title>Node15</title>
<g id="a_Node000015"><a xlink:href="class_expand_instructions.html" target="_top" xlink:title=" ">
<polygon fill="white" stroke="#666666" points="481.5,-598 371.5,-598 371.5,-579 481.5,-579 481.5,-598"/>
<text text-anchor="middle" x="426.5" y="-586" font-family="Helvetica,sans-Serif" font-size="10.00">ExpandInstructions</text>
</a>
</g>
</g>
<!-- Node1&#45;&gt;Node15 -->
<g id="edge14_Node000001_Node000015" class="edge">
<title>Node1&#45;&gt;Node15</title>
<g id="a_edge14_Node000001_Node000015"><a xlink:title=" ">
<path fill="none" stroke="#63b8ff" d="M283.68,-531.29C298.69,-543.91 320.85,-560.64 343,-570.5 351.84,-574.43 361.6,-577.54 371.23,-579.97"/>
<polygon fill="#63b8ff" stroke="#63b8ff" points="285.58,-528.31 275.72,-524.43 281.01,-533.61 285.58,-528.31"/>
</a>
</g>
</g>
<!-- Node16 -->
<g id="Node000016" class="node">
<title>Node16</title>
<g id="a_Node000016"><a xlink:href="class_expressions_to_hash.html" target="_top" xlink:title=" ">
<polygon fill="white" stroke="#bfbfbf" points="481.5,-561 371.5,-561 371.5,-542 481.5,-542 481.5,-561"/>
<text text-anchor="middle" x="426.5" y="-549" font-family="Helvetica,sans-Serif" font-size="10.00">ExpressionsToHash</text>
</a>
</g>
</g>
<!-- Node1&#45;&gt;Node16 -->
<g id="edge15_Node000001_Node000016" class="edge">
<title>Node1&#45;&gt;Node16</title>
<g id="a_edge15_Node000001_Node000016"><a xlink:title=" ">
<path fill="none" stroke="#63b8ff" d="M313.43,-526.49C323.21,-528.86 333.42,-531.29 343,-533.5 355.28,-536.34 368.63,-539.3 380.93,-541.98"/>
<polygon fill="#63b8ff" stroke="#63b8ff" points="313.98,-523.02 303.44,-524.06 312.33,-529.82 313.98,-523.02"/>
</a>
</g>
</g>
<!-- Node17 -->
<g id="Node000017" class="node">
<title>Node17</title>
<g id="a_Node000017"><a xlink:href="class_header_push_pop.html" target="_top" xlink:title=" ">
<polygon fill="white" stroke="#666666" points="473,-524 380,-524 380,-505 473,-505 473,-524"/>
<text text-anchor="middle" x="426.5" y="-512" font-family="Helvetica,sans-Serif" font-size="10.00">HeaderPushPop</text>
</a>
</g>
</g>
<!-- Node1&#45;&gt;Node17 -->
<g id="edge16_Node000001_Node000017" class="edge">
<title>Node1&#45;&gt;Node17</title>
<g id="a_edge16_Node000001_Node000017"><a xlink:title=" ">
<path fill="none" stroke="#63b8ff" d="M317.45,-514.5C337.62,-514.5 360.48,-514.5 379.95,-514.5"/>
<polygon fill="#63b8ff" stroke="#63b8ff" points="317.17,-511 307.17,-514.5 317.17,-518 317.17,-511"/>
</a>
</g>
</g>
<!-- Node18 -->
<g id="Node000018" class="node">
<title>Node18</title>
<g id="a_Node000018"><a xlink:href="group___reset_invalidated_checksum_headers.html#class_insert_table_to_reset_invalidated_headers" target="_top" xlink:title=" ">
<polygon fill="white" stroke="#bfbfbf" points="508,-486.5 345,-486.5 345,-456.5 508,-456.5 508,-486.5"/>
<text text-anchor="start" x="353" y="-474.5" font-family="Helvetica,sans-Serif" font-size="10.00">InsertTableToResetInvalidated</text>
<text text-anchor="middle" x="426.5" y="-463.5" font-family="Helvetica,sans-Serif" font-size="10.00">Headers</text>
</a>
</g>
</g>
<!-- Node1&#45;&gt;Node18 -->
<g id="edge17_Node000001_Node000018" class="edge">
<title>Node1&#45;&gt;Node18</title>
<g id="a_edge17_Node000001_Node000018"><a xlink:title=" ">
<path fill="none" stroke="#63b8ff" d="M310.47,-502.32C328.83,-497.4 350.19,-491.68 369.49,-486.51"/>
<polygon fill="#63b8ff" stroke="#63b8ff" points="309.37,-498.99 300.62,-504.96 311.19,-505.75 309.37,-498.99"/>
</a>
</g>
</g>
<!-- Node19 -->
<g id="Node000019" class="node">
<title>Node19</title>
<g id="a_Node000019"><a xlink:href="class_merge_instructions.html" target="_top" xlink:title=" ">
<polygon fill="white" stroke="#666666" points="478.5,-438 374.5,-438 374.5,-419 478.5,-419 478.5,-438"/>
<text text-anchor="middle" x="426.5" y="-426" font-family="Helvetica,sans-Serif" font-size="10.00">MergeInstructions</text>
</a>
</g>
</g>
<!-- Node1&#45;&gt;Node19 -->
<g id="edge18_Node000001_Node000019" class="edge">
<title>Node1&#45;&gt;Node19</title>
<g id="a_edge18_Node000001_Node000019"><a xlink:title=" ">
<path fill="none" stroke="#63b8ff" d="M280.32,-497.27C294.93,-481.91 318.31,-459.98 343,-447.5 352.71,-442.59 363.7,-438.94 374.41,-436.22"/>
<polygon fill="#63b8ff" stroke="#63b8ff" points="277.74,-494.9 273.52,-504.62 282.88,-499.65 277.74,-494.9"/>
</a>
</g>
</g>
<!-- Node20 -->
<g id="Node000020" class="node">
<title>Node20</title>
<g id="a_Node000020"><a xlink:href="class_remove_empty_controls.html" target="_top" xlink:title=" ">
<polygon fill="white" stroke="#bfbfbf" points="491,-401 362,-401 362,-382 491,-382 491,-401"/>
<text text-anchor="middle" x="426.5" y="-389" font-family="Helvetica,sans-Serif" font-size="10.00">RemoveEmptyControls</text>
</a>
</g>
</g>
<!-- Node1&#45;&gt;Node20 -->
<g id="edge19_Node000001_Node000020" class="edge">
<title>Node1&#45;&gt;Node20</title>
<g id="a_edge19_Node000001_Node000020"><a xlink:title=" ">
<path fill="none" stroke="#63b8ff" d="M273.64,-495.73C285.67,-471.8 309.78,-430.95 343,-409.5 348.79,-405.76 355.23,-402.79 361.9,-400.43"/>
<polygon fill="#63b8ff" stroke="#63b8ff" points="270.43,-494.32 269.23,-504.85 276.74,-497.37 270.43,-494.32"/>
</a>
</g>
</g>
<!-- Node21 -->
<g id="Node000021" class="node">
<title>Node21</title>
<g id="a_Node000021"><a xlink:href="class_remove_noop_gateway.html" target="_top" xlink:title=" ">
<polygon fill="white" stroke="#bfbfbf" points="489.5,-364 363.5,-364 363.5,-345 489.5,-345 489.5,-364"/>
<text text-anchor="middle" x="426.5" y="-352" font-family="Helvetica,sans-Serif" font-size="10.00">RemoveNoopGateway</text>
</a>
</g>
</g>
<!-- Node1&#45;&gt;Node21 -->
<g id="edge20_Node000001_Node000021" class="edge">
<title>Node1&#45;&gt;Node21</title>
<g id="a_edge20_Node000001_Node000021"><a xlink:title=" ">
<path fill="none" stroke="#63b8ff" d="M270.03,-495.06C279.1,-464.04 301.28,-403.67 343,-372.5 349.11,-367.94 356.14,-364.49 363.46,-361.88"/>
<polygon fill="#63b8ff" stroke="#63b8ff" points="266.65,-494.14 267.35,-504.71 273.4,-496.01 266.65,-494.14"/>
</a>
</g>
</g>
<!-- Node22 -->
<g id="Node000022" class="node">
<title>Node22</title>
<g id="a_Node000022"><a xlink:href="class_remove_unnecessary_action_arg_slice.html" target="_top" xlink:title=" ">
<polygon fill="white" stroke="#bfbfbf" points="510,-326.5 343,-326.5 343,-296.5 510,-296.5 510,-326.5"/>
<text text-anchor="start" x="351" y="-314.5" font-family="Helvetica,sans-Serif" font-size="10.00">RemoveUnnecessaryActionArg</text>
<text text-anchor="middle" x="426.5" y="-303.5" font-family="Helvetica,sans-Serif" font-size="10.00">Slice</text>
</a>
</g>
</g>
<!-- Node1&#45;&gt;Node22 -->
<g id="edge21_Node000001_Node000022" class="edge">
<title>Node1&#45;&gt;Node22</title>
<g id="a_edge21_Node000001_Node000022"><a xlink:title=" ">
<path fill="none" stroke="#63b8ff" d="M268.01,-494.66C274.67,-457.78 294.1,-378.52 343,-335.5 346.92,-332.05 351.31,-329.1 355.97,-326.57"/>
<polygon fill="#63b8ff" stroke="#63b8ff" points="264.54,-494.22 266.34,-504.66 271.44,-495.38 264.54,-494.22"/>
</a>
</g>
</g>
<!-- Node23 -->
<g id="Node000023" class="node">
<title>Node23</title>
<g id="a_Node000023"><a xlink:href="group___deparser_copy_opt.html#class_rewrite_weak_field_writes" target="_top" xlink:title=" ">
<polygon fill="white" stroke="#666666" points="494.5,-278 358.5,-278 358.5,-259 494.5,-259 494.5,-278"/>
<text text-anchor="middle" x="426.5" y="-266" font-family="Helvetica,sans-Serif" font-size="10.00">RewriteWeakFieldWrites</text>
</a>
</g>
</g>
<!-- Node1&#45;&gt;Node23 -->
<g id="edge22_Node000001_Node000023" class="edge">
<title>Node1&#45;&gt;Node23</title>
<g id="a_edge22_Node000001_Node000023"><a xlink:title=" ">
<path fill="none" stroke="#63b8ff" d="M265.67,-494.75C268.28,-450.57 281.03,-343.3 343,-287.5 347.48,-283.47 352.64,-280.24 358.15,-277.66"/>
<polygon fill="#63b8ff" stroke="#63b8ff" points="262.16,-494.84 265.18,-505 269.15,-495.18 262.16,-494.84"/>
</a>
</g>
</g>
<!-- Node24 -->
<g id="Node000024" class="node">
<title>Node24</title>
<g id="a_Node000024"><a xlink:href="class_simplify_conditional_action_arg.html" target="_top" xlink:title=" ">
<polygon fill="white" stroke="#bfbfbf" points="506,-241 347,-241 347,-222 506,-222 506,-241"/>
<text text-anchor="middle" x="426.5" y="-229" font-family="Helvetica,sans-Serif" font-size="10.00">SimplifyConditionalActionArg</text>
</a>
</g>
</g>
<!-- Node1&#45;&gt;Node24 -->
<g id="edge23_Node000001_Node000024" class="edge">
<title>Node1&#45;&gt;Node24</title>
<g id="a_edge23_Node000001_Node000024"><a xlink:title=" ">
<path fill="none" stroke="#63b8ff" d="M264.48,-494.49C264.37,-445.03 271.35,-316.21 343,-249.5 346.54,-246.2 350.54,-243.46 354.82,-241.18"/>
<polygon fill="#63b8ff" stroke="#63b8ff" points="260.99,-494.83 264.62,-504.78 267.99,-494.74 260.99,-494.83"/>
</a>
</g>
</g>
<!-- Node25 -->
<g id="Node000025" class="node">
<title>Node25</title>
<g id="a_Node000025"><a xlink:href="class_split_instructions.html" target="_top" xlink:title=" ">
<polygon fill="white" stroke="#666666" points="474,-204 379,-204 379,-185 474,-185 474,-204"/>
<text text-anchor="middle" x="426.5" y="-192" font-family="Helvetica,sans-Serif" font-size="10.00">SplitInstructions</text>
</a>
</g>
</g>
<!-- Node1&#45;&gt;Node25 -->
<g id="edge24_Node000001_Node000025" class="edge">
<title>Node1&#45;&gt;Node25</title>
<g id="a_edge24_Node000001_Node000025"><a xlink:title=" ">
<path fill="none" stroke="#63b8ff" d="M267.42,-494.6C275.22,-433.83 301.59,-252.37 343,-212.5 352.61,-203.25 365.81,-198.3 378.84,-195.76"/>
<polygon fill="#63b8ff" stroke="#63b8ff" points="263.92,-494.42 266.15,-504.78 270.86,-495.29 263.92,-494.42"/>
</a>
</g>
</g>
<!-- Node26 -->
<g id="Node000026" class="node">
<title>Node26</title>
<g id="a_Node000026"><a xlink:href="class_spread_gateway_across_seq.html" target="_top" xlink:title=" ">
<polygon fill="white" stroke="#bfbfbf" points="498.5,-167 354.5,-167 354.5,-148 498.5,-148 498.5,-167"/>
<text text-anchor="middle" x="426.5" y="-155" font-family="Helvetica,sans-Serif" font-size="10.00">SpreadGatewayAcrossSeq</text>
</a>
</g>
</g>
<!-- Node1&#45;&gt;Node26 -->
<g id="edge25_Node000001_Node000026" class="edge">
<title>Node1&#45;&gt;Node26</title>
<g id="a_edge25_Node000001_Node000026"><a xlink:title=" ">
<path fill="none" stroke="#63b8ff" d="M266.8,-494.79C273.18,-429.4 296.82,-221.16 343,-175.5 346.34,-172.2 350.13,-169.45 354.21,-167.15"/>
<polygon fill="#63b8ff" stroke="#63b8ff" points="263.3,-494.67 265.84,-504.96 270.27,-495.33 263.3,-494.67"/>
</a>
</g>
</g>
<!-- Node27 -->
<g id="Node000027" class="node">
<title>Node27</title>
<g id="a_Node000027"><a xlink:href="class_synth2_port_setup.html" target="_top" xlink:title=" ">
<polygon fill="white" stroke="#666666" points="475.5,-130 377.5,-130 377.5,-111 475.5,-111 475.5,-130"/>
<text text-anchor="middle" x="426.5" y="-118" font-family="Helvetica,sans-Serif" font-size="10.00">Synth2PortSetup</text>
</a>
</g>
</g>
<!-- Node1&#45;&gt;Node27 -->
<g id="edge26_Node000001_Node000027" class="edge">
<title>Node1&#45;&gt;Node27</title>
<g id="a_edge26_Node000001_Node000027"><a xlink:title=" ">
<path fill="none" stroke="#63b8ff" d="M266.31,-494.94C271.38,-425.19 292.02,-190 343,-138.5 352.08,-129.33 364.66,-124.34 377.27,-121.74"/>
<polygon fill="#63b8ff" stroke="#63b8ff" points="262.81,-494.77 265.6,-504.99 269.79,-495.26 262.81,-494.77"/>
</a>
</g>
</g>
<!-- Node28 -->
<g id="Node000028" class="node">
<title>Node28</title>
<g id="a_Node000028"><a xlink:href="group___deparser_copy_opt.html#class_synthesize_pov_encoder" target="_top" xlink:title=" ">
<polygon fill="white" stroke="#666666" points="490,-93 363,-93 363,-74 490,-74 490,-93"/>
<text text-anchor="middle" x="426.5" y="-81" font-family="Helvetica,sans-Serif" font-size="10.00">SynthesizePovEncoder</text>
</a>
</g>
</g>
<!-- Node1&#45;&gt;Node28 -->
<g id="edge27_Node000001_Node000028" class="edge">
<title>Node1&#45;&gt;Node28</title>
<g id="a_edge27_Node000001_Node000028"><a xlink:title=" ">
<path fill="none" stroke="#63b8ff" d="M265.94,-494.49C269.85,-419.81 287.35,-158.73 343,-101.5 348.52,-95.82 355.38,-91.74 362.77,-88.83"/>
<polygon fill="#63b8ff" stroke="#63b8ff" points="262.43,-494.66 265.42,-504.82 269.42,-495 262.43,-494.66"/>
</a>
</g>
</g>
<!-- Node29 -->
<g id="Node000029" class="node">
<title>Node29</title>
<g id="a_Node000029"><a xlink:href="class_to_funnel_shift_instruction.html" target="_top" xlink:title=" ">
<polygon fill="white" stroke="#666666" points="493,-56 360,-56 360,-37 493,-37 493,-56"/>
<text text-anchor="middle" x="426.5" y="-44" font-family="Helvetica,sans-Serif" font-size="10.00">ToFunnelShiftInstruction</text>
</a>
</g>
</g>
<!-- Node1&#45;&gt;Node29 -->
<g id="edge28_Node000001_Node000029" class="edge">
<title>Node1&#45;&gt;Node29</title>
<g id="a_edge28_Node000001_Node000029"><a xlink:title=" ">
<path fill="none" stroke="#63b8ff" d="M265.59,-494.74C268.34,-416.25 282.5,-127.68 343,-64.5 347.77,-59.52 353.56,-55.77 359.85,-52.95"/>
<polygon fill="#63b8ff" stroke="#63b8ff" points="262.09,-494.64 265.26,-504.75 269.09,-494.87 262.09,-494.64"/>
</a>
</g>
</g>
<!-- Node30 -->
<g id="Node000030" class="node">
<title>Node30</title>
<g id="a_Node000030"><a xlink:href="class_transform_tables.html" target="_top" xlink:title=" ">
<polygon fill="white" stroke="#bfbfbf" points="474.5,-19 378.5,-19 378.5,0 474.5,0 474.5,-19"/>
<text text-anchor="middle" x="426.5" y="-7" font-family="Helvetica,sans-Serif" font-size="10.00">TransformTables</text>
</a>
</g>
</g>
<!-- Node1&#45;&gt;Node30 -->
<g id="edge29_Node000001_Node000030" class="edge">
<title>Node1&#45;&gt;Node30</title>
<g id="a_edge29_Node000001_Node000030"><a xlink:title=" ">
<path fill="none" stroke="#63b8ff" d="M265.31,-494.73C266.99,-412.23 277.68,-96.58 343,-27.5 352.17,-17.81 365.24,-12.73 378.28,-10.21"/>
<polygon fill="#63b8ff" stroke="#63b8ff" points="261.81,-494.71 265.12,-504.77 268.8,-494.84 261.81,-494.71"/>
</a>
</g>
</g>
<!-- Node2 -->
<g id="Node000002" class="node">
<title>Node2</title>
<g id="a_Node000002"><a xlink:href="class_p4_1_1_transform.html" target="_top" xlink:title=" ">
<polygon fill="white" stroke="#bfbfbf" points="185,-524 102,-524 102,-505 185,-505 185,-524"/>
<text text-anchor="middle" x="143.5" y="-512" font-family="Helvetica,sans-Serif" font-size="10.00">P4::Transform</text>
</a>
</g>
</g>
<!-- Node2&#45;&gt;Node1 -->
<g id="edge1_Node000001_Node000002" class="edge">
<title>Node2&#45;&gt;Node1</title>
<g id="a_edge1_Node000001_Node000002"><a xlink:title=" ">
<path fill="none" stroke="#63b8ff" d="M195.48,-514.5C203.97,-514.5 212.7,-514.5 220.93,-514.5"/>
<polygon fill="#63b8ff" stroke="#63b8ff" points="195.28,-511 185.28,-514.5 195.28,-518 195.28,-511"/>
</a>
</g>
</g>
<!-- Node3 -->
<g id="Node000003" class="node">
<title>Node3</title>
<g id="a_Node000003"><a xlink:href="class_p4_1_1_visitor.html" target="_top" xlink:title=" ">
<polygon fill="white" stroke="#bfbfbf" points="66,-524 0,-524 0,-505 66,-505 66,-524"/>
<text text-anchor="middle" x="33" y="-512" font-family="Helvetica,sans-Serif" font-size="10.00">P4::Visitor</text>
</a>
</g>
</g>
<!-- Node3&#45;&gt;Node2 -->
<g id="edge2_Node000002_Node000003" class="edge">
<title>Node3&#45;&gt;Node2</title>
<g id="a_edge2_Node000002_Node000003"><a xlink:title=" ">
<path fill="none" stroke="#63b8ff" d="M76.49,-514.5C84.78,-514.5 93.46,-514.5 101.69,-514.5"/>
<polygon fill="#63b8ff" stroke="#63b8ff" points="76.26,-511 66.26,-514.5 76.26,-518 76.26,-511"/>
</a>
</g>
</g>
</g>
</svg>
