<?xml version="1.0" encoding="UTF-8" standalone="no"?>
<!DOCTYPE svg PUBLIC "-//W3C//DTD SVG 1.1//EN"
 "http://www.w3.org/Graphics/SVG/1.1/DTD/svg11.dtd">
<!-- Generated by graphviz version 2.43.0 (0)
 -->
<!-- Title: Graphical Class Hierarchy Pages: 1 -->
<svg width="357pt" height="382pt"
 viewBox="0.00 0.00 357.00 381.50" xmlns="http://www.w3.org/2000/svg" xmlns:xlink="http://www.w3.org/1999/xlink">
<g id="graph0" class="graph" transform="scale(1 1) rotate(0) translate(4 377.5)">
<title>Graphical Class Hierarchy</title>
<!-- Node0 -->
<g id="Node000000" class="node">
<title>Node0</title>
<g id="a_Node000000"><a xlink:href="class_b_f_n_1_1_alloc1_dbase.html" target="_top" xlink:title=" ">
<polygon fill="white" stroke="#666666" points="160,-185.5 0,-185.5 0,-166.5 160,-166.5 160,-185.5"/>
<text text-anchor="middle" x="80" y="-173.5" font-family="Helvetica,sans-Serif" font-size="10.00">BFN::Alloc1Dbase&lt; Table * &gt;</text>
</a>
</g>
</g>
<!-- Node1 -->
<g id="Node000001" class="node">
<title>Node1</title>
<g id="a_Node000001"><a xlink:href="class_b_f_n_1_1_alloc1_d.html" target="_top" xlink:title=" ">
<polygon fill="white" stroke="#666666" points="341.5,-373.5 203.5,-373.5 203.5,-332.5 341.5,-332.5 341.5,-373.5"/>
<text text-anchor="start" x="211.5" y="-361.5" font-family="Helvetica,sans-Serif" font-size="10.00">BFN::Alloc1D&lt; Table</text>
<text text-anchor="start" x="211.5" y="-350.5" font-family="Helvetica,sans-Serif" font-size="10.00"> *, LOGICAL_TABLES_PER</text>
<text text-anchor="middle" x="272.5" y="-339.5" font-family="Helvetica,sans-Serif" font-size="10.00">_STAGE &gt;</text>
</a>
</g>
</g>
<!-- Node0&#45;&gt;Node1 -->
<g id="edge34_Node000000_Node000001" class="edge">
<title>Node0&#45;&gt;Node1</title>
<g id="a_edge34_Node000000_Node000001"><a xlink:title=" ">
<path fill="none" stroke="#63b8ff" d="M90.97,-194.66C108.39,-225.62 147.19,-287.78 196,-324 200.17,-327.1 204.71,-329.9 209.43,-332.44"/>
<polygon fill="#63b8ff" stroke="#63b8ff" points="93.97,-192.85 86.08,-185.78 87.84,-196.23 93.97,-192.85"/>
</a>
</g>
</g>
<!-- Node2 -->
<g id="Node000002" class="node">
<title>Node2</title>
<g id="a_Node000002"><a xlink:href="class_b_f_n_1_1_alloc1_d.html" target="_top" xlink:title=" ">
<polygon fill="white" stroke="#666666" points="332,-314.5 213,-314.5 213,-273.5 332,-273.5 332,-314.5"/>
<text text-anchor="start" x="221" y="-302.5" font-family="Helvetica,sans-Serif" font-size="10.00">BFN::Alloc1D&lt; Table</text>
<text text-anchor="start" x="221" y="-291.5" font-family="Helvetica,sans-Serif" font-size="10.00"> *, PHYSICAL_TABLES</text>
<text text-anchor="middle" x="272.5" y="-280.5" font-family="Helvetica,sans-Serif" font-size="10.00">_PER_STAGE &gt;</text>
</a>
</g>
</g>
<!-- Node0&#45;&gt;Node2 -->
<g id="edge35_Node000000_Node000002" class="edge">
<title>Node0&#45;&gt;Node2</title>
<g id="a_edge35_Node000000_Node000002"><a xlink:title=" ">
<path fill="none" stroke="#63b8ff" d="M98.8,-192.47C120.45,-211.85 158.74,-244.03 196,-265 201.26,-267.96 206.89,-270.75 212.6,-273.33"/>
<polygon fill="#63b8ff" stroke="#63b8ff" points="101.11,-189.85 91.35,-185.72 96.41,-195.03 101.11,-189.85"/>
</a>
</g>
</g>
<!-- Node3 -->
<g id="Node000003" class="node">
<title>Node3</title>
<g id="a_Node000003"><a xlink:href="class_b_f_n_1_1_alloc1_d.html" target="_top" xlink:title=" ">
<polygon fill="white" stroke="#666666" points="334.5,-255.5 210.5,-255.5 210.5,-214.5 334.5,-214.5 334.5,-255.5"/>
<text text-anchor="start" x="218.5" y="-243.5" font-family="Helvetica,sans-Serif" font-size="10.00">BFN::Alloc1D&lt; Table</text>
<text text-anchor="start" x="218.5" y="-232.5" font-family="Helvetica,sans-Serif" font-size="10.00"> *, TCAM_TABLES_PER</text>
<text text-anchor="middle" x="272.5" y="-221.5" font-family="Helvetica,sans-Serif" font-size="10.00">_STAGE &gt;</text>
</a>
</g>
</g>
<!-- Node0&#45;&gt;Node3 -->
<g id="edge36_Node000000_Node000003" class="edge">
<title>Node0&#45;&gt;Node3</title>
<g id="a_edge36_Node000000_Node000003"><a xlink:title=" ">
<path fill="none" stroke="#63b8ff" d="M121.86,-188.65C147.67,-196.65 181.49,-207.12 210.45,-216.09"/>
<polygon fill="#63b8ff" stroke="#63b8ff" points="122.62,-185.23 112.03,-185.61 120.55,-191.91 122.62,-185.23"/>
</a>
</g>
</g>
<!-- Node4 -->
<g id="Node000004" class="node">
<title>Node4</title>
<g id="a_Node000004"><a xlink:href="class_b_f_n_1_1_alloc1_d.html" target="_top" xlink:title=" ">
<polygon fill="white" stroke="#666666" points="335.5,-196.5 209.5,-196.5 209.5,-155.5 335.5,-155.5 335.5,-196.5"/>
<text text-anchor="start" x="217.5" y="-184.5" font-family="Helvetica,sans-Serif" font-size="10.00">BFN::Alloc1D&lt; Table</text>
<text text-anchor="start" x="217.5" y="-173.5" font-family="Helvetica,sans-Serif" font-size="10.00"> *, TCAM_XBAR_INPUT</text>
<text text-anchor="middle" x="272.5" y="-162.5" font-family="Helvetica,sans-Serif" font-size="10.00">_BYTES &gt;</text>
</a>
</g>
</g>
<!-- Node0&#45;&gt;Node4 -->
<g id="edge37_Node000000_Node000004" class="edge">
<title>Node0&#45;&gt;Node4</title>
<g id="a_edge37_Node000000_Node000004"><a xlink:title=" ">
<path fill="none" stroke="#63b8ff" d="M170.23,-176C183.49,-176 196.91,-176 209.45,-176"/>
<polygon fill="#63b8ff" stroke="#63b8ff" points="170.13,-172.5 160.13,-176 170.13,-179.5 170.13,-172.5"/>
</a>
</g>
</g>
<!-- Node5 -->
<g id="Node000005" class="node">
<title>Node5</title>
<g id="a_Node000005"><a xlink:href="class_b_f_n_1_1_alloc1_d.html" target="_top" xlink:title=" ">
<polygon fill="white" stroke="#666666" points="335,-137.5 210,-137.5 210,-96.5 335,-96.5 335,-137.5"/>
<text text-anchor="start" x="218" y="-125.5" font-family="Helvetica,sans-Serif" font-size="10.00">BFN::Alloc1D&lt; Table</text>
<text text-anchor="start" x="218" y="-114.5" font-family="Helvetica,sans-Serif" font-size="10.00"> *, ACTION_DATA_BUS</text>
<text text-anchor="middle" x="272.5" y="-103.5" font-family="Helvetica,sans-Serif" font-size="10.00">_SLOTS &gt;</text>
</a>
</g>
</g>
<!-- Node0&#45;&gt;Node5 -->
<g id="edge38_Node000000_Node000005" class="edge">
<title>Node0&#45;&gt;Node5</title>
<g id="a_edge38_Node000000_Node000005"><a xlink:title=" ">
<path fill="none" stroke="#63b8ff" d="M121.77,-163.37C147.36,-155.45 180.85,-145.07 209.67,-136.15"/>
<polygon fill="#63b8ff" stroke="#63b8ff" points="120.55,-160.09 112.03,-166.39 122.62,-166.77 120.55,-160.09"/>
</a>
</g>
</g>
<!-- Node6 -->
<g id="Node000006" class="node">
<title>Node6</title>
<g id="a_Node000006"><a xlink:href="class_b_f_n_1_1_alloc1_d.html" target="_top" xlink:title=" ">
<polygon fill="white" stroke="#666666" points="349,-78 196,-78 196,-48 349,-48 349,-78"/>
<text text-anchor="start" x="204" y="-66" font-family="Helvetica,sans-Serif" font-size="10.00">BFN::Alloc1D&lt; Table</text>
<text text-anchor="middle" x="272.5" y="-55" font-family="Helvetica,sans-Serif" font-size="10.00"> *, LOGICAL_SRAM_ROWS &gt;</text>
</a>
</g>
</g>
<!-- Node0&#45;&gt;Node6 -->
<g id="edge39_Node000000_Node000006" class="edge">
<title>Node0&#45;&gt;Node6</title>
<g id="a_edge39_Node000000_Node000006"><a xlink:title=" ">
<path fill="none" stroke="#63b8ff" d="M98.61,-159.47C120.13,-140.04 158.33,-107.92 196,-88 203.08,-84.26 210.83,-80.93 218.57,-78.01"/>
<polygon fill="#63b8ff" stroke="#63b8ff" points="95.97,-157.14 90.97,-166.48 100.7,-162.3 95.97,-157.14"/>
</a>
</g>
</g>
<!-- Node7 -->
<g id="Node000007" class="node">
<title>Node7</title>
<g id="a_Node000007"><a xlink:href="class_b_f_n_1_1_alloc1_d.html" target="_top" xlink:title=" ">
<polygon fill="white" stroke="#666666" points="338,-30 207,-30 207,0 338,0 338,-30"/>
<text text-anchor="start" x="215" y="-18" font-family="Helvetica,sans-Serif" font-size="10.00">BFN::Alloc1D&lt; Table</text>
<text text-anchor="middle" x="272.5" y="-7" font-family="Helvetica,sans-Serif" font-size="10.00"> *, IDLETIME_BUSSES &gt;</text>
</a>
</g>
</g>
<!-- Node0&#45;&gt;Node7 -->
<g id="edge40_Node000000_Node000007" class="edge">
<title>Node0&#45;&gt;Node7</title>
<g id="a_edge40_Node000000_Node000007"><a xlink:title=" ">
<path fill="none" stroke="#63b8ff" d="M91.59,-157.65C109.43,-128.33 148.25,-70.98 196,-39 201.14,-35.56 206.81,-32.58 212.66,-30.02"/>
<polygon fill="#63b8ff" stroke="#63b8ff" points="88.47,-156.05 86.36,-166.44 94.48,-159.63 88.47,-156.05"/>
</a>
</g>
</g>
</g>
</svg>
