<?xml version="1.0" encoding="UTF-8" standalone="no"?>
<!DOCTYPE svg PUBLIC "-//W3C//DTD SVG 1.1//EN"
 "http://www.w3.org/Graphics/SVG/1.1/DTD/svg11.dtd">
<!-- Generated by graphviz version 2.43.0 (0)
 -->
<!-- Title: StatefulAlu::operand::Base Pages: 1 -->
<svg width="580pt" height="220pt"
 viewBox="0.00 0.00 580.00 220.00" xmlns="http://www.w3.org/2000/svg" xmlns:xlink="http://www.w3.org/1999/xlink">
<g id="graph0" class="graph" transform="scale(1 1) rotate(0) translate(4 216)">
<title>StatefulAlu::operand::Base</title>
<!-- Node1 -->
<g id="Node000001" class="node">
<title>Node1</title>
<g id="a_Node000001"><a xlink:title=" ">
<polygon fill="#999999" stroke="#666666" points="244,-116 128,-116 128,-86 244,-86 244,-116"/>
<text text-anchor="start" x="136" y="-104" font-family="Helvetica,sans-Serif" font-size="10.00">StatefulAlu::operand</text>
<text text-anchor="middle" x="186" y="-93" font-family="Helvetica,sans-Serif" font-size="10.00">::Base</text>
</a>
</g>
</g>
<!-- Node3 -->
<g id="Node000003" class="node">
<title>Node3</title>
<g id="a_Node000003"><a xlink:href="struct_stateful_alu_1_1operand_1_1_const.html" target="_top" xlink:title=" ">
<polygon fill="white" stroke="#bfbfbf" points="408,-212 292,-212 292,-182 408,-182 408,-212"/>
<text text-anchor="start" x="300" y="-200" font-family="Helvetica,sans-Serif" font-size="10.00">StatefulAlu::operand</text>
<text text-anchor="middle" x="350" y="-189" font-family="Helvetica,sans-Serif" font-size="10.00">::Const</text>
</a>
</g>
</g>
<!-- Node1&#45;&gt;Node3 -->
<g id="edge2_Node000001_Node000003" class="edge">
<title>Node1&#45;&gt;Node3</title>
<g id="a_edge2_Node000001_Node000003"><a xlink:title=" ">
<path fill="none" stroke="#63b8ff" d="M210.65,-122.82C228.6,-138.48 254.47,-159.16 280,-173 286.13,-176.32 292.81,-179.33 299.53,-182"/>
<polygon fill="#63b8ff" stroke="#63b8ff" points="212.8,-120.05 202.99,-116.03 208.15,-125.28 212.8,-120.05"/>
</a>
</g>
</g>
<!-- Node4 -->
<g id="Node000004" class="node">
<title>Node4</title>
<g id="a_Node000004"><a xlink:href="struct_stateful_alu_1_1operand_1_1_math_fn.html" target="_top" xlink:title=" ">
<polygon fill="white" stroke="#bfbfbf" points="408,-164 292,-164 292,-134 408,-134 408,-164"/>
<text text-anchor="start" x="300" y="-152" font-family="Helvetica,sans-Serif" font-size="10.00">StatefulAlu::operand</text>
<text text-anchor="middle" x="350" y="-141" font-family="Helvetica,sans-Serif" font-size="10.00">::MathFn</text>
</a>
</g>
</g>
<!-- Node1&#45;&gt;Node4 -->
<g id="edge3_Node000001_Node000004" class="edge">
<title>Node1&#45;&gt;Node4</title>
<g id="a_edge3_Node000001_Node000004"><a xlink:title=" ">
<path fill="none" stroke="#63b8ff" d="M247.5,-118.93C264.25,-123.89 282.25,-129.22 298.37,-134"/>
<polygon fill="#63b8ff" stroke="#63b8ff" points="248.4,-115.54 237.81,-116.06 246.41,-122.25 248.4,-115.54"/>
</a>
</g>
</g>
<!-- Node5 -->
<g id="Node000005" class="node">
<title>Node5</title>
<g id="a_Node000005"><a xlink:href="struct_stateful_alu_1_1operand_1_1_memory.html" target="_top" xlink:title=" ">
<polygon fill="white" stroke="#bfbfbf" points="408,-116 292,-116 292,-86 408,-86 408,-116"/>
<text text-anchor="start" x="300" y="-104" font-family="Helvetica,sans-Serif" font-size="10.00">StatefulAlu::operand</text>
<text text-anchor="middle" x="350" y="-93" font-family="Helvetica,sans-Serif" font-size="10.00">::Memory</text>
</a>
</g>
</g>
<!-- Node1&#45;&gt;Node5 -->
<g id="edge4_Node000001_Node000005" class="edge">
<title>Node1&#45;&gt;Node5</title>
<g id="a_edge4_Node000001_Node000005"><a xlink:title=" ">
<path fill="none" stroke="#63b8ff" d="M254.43,-101C266.88,-101 279.75,-101 291.85,-101"/>
<polygon fill="#63b8ff" stroke="#63b8ff" points="254.12,-97.5 244.12,-101 254.12,-104.5 254.12,-97.5"/>
</a>
</g>
</g>
<!-- Node6 -->
<g id="Node000006" class="node">
<title>Node6</title>
<g id="a_Node000006"><a xlink:href="struct_stateful_alu_1_1operand_1_1_phv.html" target="_top" xlink:title=" ">
<polygon fill="white" stroke="#bfbfbf" points="420,-67.5 280,-67.5 280,-48.5 420,-48.5 420,-67.5"/>
<text text-anchor="middle" x="350" y="-55.5" font-family="Helvetica,sans-Serif" font-size="10.00">StatefulAlu::operand::Phv</text>
</a>
</g>
</g>
<!-- Node1&#45;&gt;Node6 -->
<g id="edge5_Node000001_Node000006" class="edge">
<title>Node1&#45;&gt;Node6</title>
<g id="a_edge5_Node000001_Node000006"><a xlink:title=" ">
<path fill="none" stroke="#63b8ff" d="M253.51,-83.35C273.82,-77.95 295.39,-72.23 312.88,-67.59"/>
<polygon fill="#63b8ff" stroke="#63b8ff" points="252.43,-80.01 243.66,-85.96 254.22,-86.78 252.43,-80.01"/>
</a>
</g>
</g>
<!-- Node9 -->
<g id="Node000009" class="node">
<title>Node9</title>
<g id="a_Node000009"><a xlink:href="struct_stateful_alu_1_1operand_1_1_regfile.html" target="_top" xlink:title=" ">
<polygon fill="white" stroke="#bfbfbf" points="408,-30 292,-30 292,0 408,0 408,-30"/>
<text text-anchor="start" x="300" y="-18" font-family="Helvetica,sans-Serif" font-size="10.00">StatefulAlu::operand</text>
<text text-anchor="middle" x="350" y="-7" font-family="Helvetica,sans-Serif" font-size="10.00">::Regfile</text>
</a>
</g>
</g>
<!-- Node1&#45;&gt;Node9 -->
<g id="edge8_Node000001_Node000009" class="edge">
<title>Node1&#45;&gt;Node9</title>
<g id="a_edge8_Node000001_Node000009"><a xlink:title=" ">
<path fill="none" stroke="#63b8ff" d="M214.69,-79.83C232.62,-66.82 256.85,-50.51 280,-39 286.47,-35.78 293.49,-32.81 300.47,-30.13"/>
<polygon fill="#63b8ff" stroke="#63b8ff" points="212.41,-77.17 206.43,-85.92 216.56,-82.8 212.41,-77.17"/>
</a>
</g>
</g>
<!-- Node2 -->
<g id="Node000002" class="node">
<title>Node2</title>
<g id="a_Node000002"><a xlink:href="class_p4_1_1_i_has_db_print.html" target="_top" xlink:title=" ">
<polygon fill="white" stroke="#bfbfbf" points="92,-110.5 0,-110.5 0,-91.5 92,-91.5 92,-110.5"/>
<text text-anchor="middle" x="46" y="-98.5" font-family="Helvetica,sans-Serif" font-size="10.00">P4::IHasDbPrint</text>
</a>
</g>
</g>
<!-- Node2&#45;&gt;Node1 -->
<g id="edge1_Node000001_Node000002" class="edge">
<title>Node2&#45;&gt;Node1</title>
<g id="a_edge1_Node000001_Node000002"><a xlink:title=" ">
<path fill="none" stroke="#63b8ff" d="M102.21,-101C110.57,-101 119.22,-101 127.62,-101"/>
<polygon fill="#63b8ff" stroke="#63b8ff" points="102.19,-97.5 92.19,-101 102.19,-104.5 102.19,-97.5"/>
</a>
</g>
</g>
<!-- Node7 -->
<g id="Node000007" class="node">
<title>Node7</title>
<g id="a_Node000007"><a xlink:href="struct_stateful_alu_1_1operand_1_1_phv_raw.html" target="_top" xlink:title=" ">
<polygon fill="white" stroke="#bfbfbf" points="572,-97 456,-97 456,-67 572,-67 572,-97"/>
<text text-anchor="start" x="464" y="-85" font-family="Helvetica,sans-Serif" font-size="10.00">StatefulAlu::operand</text>
<text text-anchor="middle" x="514" y="-74" font-family="Helvetica,sans-Serif" font-size="10.00">::PhvRaw</text>
</a>
</g>
</g>
<!-- Node6&#45;&gt;Node7 -->
<g id="edge6_Node000006_Node000007" class="edge">
<title>Node6&#45;&gt;Node7</title>
<g id="a_edge6_Node000006_Node000007"><a xlink:title=" ">
<path fill="none" stroke="#63b8ff" d="M425.58,-69.05C435.73,-70.55 446.02,-72.08 455.8,-73.53"/>
<polygon fill="#63b8ff" stroke="#63b8ff" points="425.9,-65.56 415.49,-67.55 424.87,-72.48 425.9,-65.56"/>
</a>
</g>
</g>
<!-- Node8 -->
<g id="Node000008" class="node">
<title>Node8</title>
<g id="a_Node000008"><a xlink:href="struct_stateful_alu_1_1operand_1_1_phv_reg.html" target="_top" xlink:title=" ">
<polygon fill="white" stroke="#bfbfbf" points="572,-49 456,-49 456,-19 572,-19 572,-49"/>
<text text-anchor="start" x="464" y="-37" font-family="Helvetica,sans-Serif" font-size="10.00">StatefulAlu::operand</text>
<text text-anchor="middle" x="514" y="-26" font-family="Helvetica,sans-Serif" font-size="10.00">::PhvReg</text>
</a>
</g>
</g>
<!-- Node6&#45;&gt;Node8 -->
<g id="edge7_Node000006_Node000008" class="edge">
<title>Node6&#45;&gt;Node8</title>
<g id="a_edge7_Node000006_Node000008"><a xlink:title=" ">
<path fill="none" stroke="#63b8ff" d="M425.58,-46.95C435.73,-45.45 446.02,-43.92 455.8,-42.47"/>
<polygon fill="#63b8ff" stroke="#63b8ff" points="424.87,-43.52 415.49,-48.45 425.9,-50.44 424.87,-43.52"/>
</a>
</g>
</g>
</g>
</svg>
