<?xml version="1.0" encoding="UTF-8" standalone="no"?>
<!DOCTYPE svg PUBLIC "-//W3C//DTD SVG 1.1//EN"
 "http://www.w3.org/Graphics/SVG/1.1/DTD/svg11.dtd">
<!-- Generated by graphviz version 2.43.0 (0)
 -->
<!-- Title: StatefulAlu::operand::Phv Pages: 1 -->
<svg width="258pt" height="214pt"
 viewBox="0.00 0.00 258.00 214.00" xmlns="http://www.w3.org/2000/svg" xmlns:xlink="http://www.w3.org/1999/xlink">
<g id="graph0" class="graph" transform="scale(1 1) rotate(0) translate(4 210)">
<title>StatefulAlu::operand::Phv</title>
<!-- Node1 -->
<g id="Node000001" class="node">
<title>Node1</title>
<g id="a_Node000001"><a xlink:title=" ">
<polygon fill="#999999" stroke="#666666" points="195,-85 55,-85 55,-66 195,-66 195,-85"/>
<text text-anchor="middle" x="125" y="-73" font-family="Helvetica,sans-Serif" font-size="10.00">StatefulAlu::operand::Phv</text>
</a>
</g>
</g>
<!-- Node4 -->
<g id="Node000004" class="node">
<title>Node4</title>
<g id="a_Node000004"><a xlink:href="struct_stateful_alu_1_1operand_1_1_phv_raw.html" target="_top" xlink:title=" ">
<polygon fill="white" stroke="#bfbfbf" points="116,-30 0,-30 0,0 116,0 116,-30"/>
<text text-anchor="start" x="8" y="-18" font-family="Helvetica,sans-Serif" font-size="10.00">StatefulAlu::operand</text>
<text text-anchor="middle" x="58" y="-7" font-family="Helvetica,sans-Serif" font-size="10.00">::PhvRaw</text>
</a>
</g>
</g>
<!-- Node1&#45;&gt;Node4 -->
<g id="edge3_Node000001_Node000004" class="edge">
<title>Node1&#45;&gt;Node4</title>
<g id="a_edge3_Node000001_Node000004"><a xlink:title=" ">
<path fill="none" stroke="#63b8ff" d="M107.52,-59.23C97.2,-50.23 84.24,-38.91 74.17,-30.11"/>
<polygon fill="#63b8ff" stroke="#63b8ff" points="105.28,-61.93 115.11,-65.87 109.88,-56.65 105.28,-61.93"/>
</a>
</g>
</g>
<!-- Node5 -->
<g id="Node000005" class="node">
<title>Node5</title>
<g id="a_Node000005"><a xlink:href="struct_stateful_alu_1_1operand_1_1_phv_reg.html" target="_top" xlink:title=" ">
<polygon fill="white" stroke="#bfbfbf" points="250,-30 134,-30 134,0 250,0 250,-30"/>
<text text-anchor="start" x="142" y="-18" font-family="Helvetica,sans-Serif" font-size="10.00">StatefulAlu::operand</text>
<text text-anchor="middle" x="192" y="-7" font-family="Helvetica,sans-Serif" font-size="10.00">::PhvReg</text>
</a>
</g>
</g>
<!-- Node1&#45;&gt;Node5 -->
<g id="edge4_Node000001_Node000005" class="edge">
<title>Node1&#45;&gt;Node5</title>
<g id="a_edge4_Node000001_Node000005"><a xlink:title=" ">
<path fill="none" stroke="#63b8ff" d="M142.48,-59.23C152.8,-50.23 165.76,-38.91 175.83,-30.11"/>
<polygon fill="#63b8ff" stroke="#63b8ff" points="140.12,-56.65 134.89,-65.87 144.72,-61.93 140.12,-56.65"/>
</a>
</g>
</g>
<!-- Node2 -->
<g id="Node000002" class="node">
<title>Node2</title>
<g id="a_Node000002"><a xlink:href="struct_stateful_alu_1_1operand_1_1_base.html" target="_top" xlink:title=" ">
<polygon fill="white" stroke="#bfbfbf" points="183,-151 67,-151 67,-121 183,-121 183,-151"/>
<text text-anchor="start" x="75" y="-139" font-family="Helvetica,sans-Serif" font-size="10.00">StatefulAlu::operand</text>
<text text-anchor="middle" x="125" y="-128" font-family="Helvetica,sans-Serif" font-size="10.00">::Base</text>
</a>
</g>
</g>
<!-- Node2&#45;&gt;Node1 -->
<g id="edge1_Node000001_Node000002" class="edge">
<title>Node2&#45;&gt;Node1</title>
<g id="a_edge1_Node000001_Node000002"><a xlink:title=" ">
<path fill="none" stroke="#63b8ff" d="M125,-110.75C125,-101.72 125,-92.03 125,-85.27"/>
<polygon fill="#63b8ff" stroke="#63b8ff" points="121.5,-110.84 125,-120.84 128.5,-110.84 121.5,-110.84"/>
</a>
</g>
</g>
<!-- Node3 -->
<g id="Node000003" class="node">
<title>Node3</title>
<g id="a_Node000003"><a xlink:href="class_p4_1_1_i_has_db_print.html" target="_top" xlink:title=" ">
<polygon fill="white" stroke="#bfbfbf" points="171,-206 79,-206 79,-187 171,-187 171,-206"/>
<text text-anchor="middle" x="125" y="-194" font-family="Helvetica,sans-Serif" font-size="10.00">P4::IHasDbPrint</text>
</a>
</g>
</g>
<!-- Node3&#45;&gt;Node2 -->
<g id="edge2_Node000002_Node000003" class="edge">
<title>Node3&#45;&gt;Node2</title>
<g id="a_edge2_Node000002_Node000003"><a xlink:title=" ">
<path fill="none" stroke="#63b8ff" d="M125,-176.65C125,-168.36 125,-158.78 125,-151.11"/>
<polygon fill="#63b8ff" stroke="#63b8ff" points="121.5,-176.87 125,-186.87 128.5,-176.87 121.5,-176.87"/>
</a>
</g>
</g>
</g>
</svg>
