<?xml version="1.0" encoding="UTF-8" standalone="no"?>
<!DOCTYPE svg PUBLIC "-//W3C//DTD SVG 1.1//EN"
 "http://www.w3.org/Graphics/SVG/1.1/DTD/svg11.dtd">
<!-- Generated by graphviz version 2.43.0 (0)
 -->
<!-- Title: P4::P4Tools::P4Testgen::Bmv2::BMv2V1ModelCompilerResult Pages: 1 -->
<svg width="211pt" height="269pt"
 viewBox="0.00 0.00 211.00 269.00" xmlns="http://www.w3.org/2000/svg" xmlns:xlink="http://www.w3.org/1999/xlink">

<svg id="main" version="1.1" xmlns="http://www.w3.org/2000/svg" xmlns:xlink="http://www.w3.org/1999/xlink" xml:space="preserve">

<style type="text/css"><![CDATA[
.node, .edge {opacity: 0.7;}
.node.selected, .edge.selected {opacity: 1;}
.edge:hover path { stroke: red; }
.edge:hover polygon { stroke: red; fill: red; }
]]></style>
<script type="application/ecmascript" xlink:href="svg.min.js"/>
<svg id="graph" class="graph">
<g id="graph0" class="graph" transform="scale(1 1) rotate(0) translate(4 265)">
<title>P4::P4Tools::P4Testgen::Bmv2::BMv2V1ModelCompilerResult</title>
<!-- Node1 -->
<g id="Node000001" class="node">
<title>Node1</title>
<g id="a_Node000001"><a xlink:title="Extends the CompilerResult with information specific to the V1Model running on BMv2.">
<polygon fill="#999999" stroke="#666666" points="203,-30 0,-30 0,0 203,0 203,-30"/>
<text text-anchor="start" x="8" y="-18" font-family="Helvetica,sans-Serif" font-size="10.00">P4::P4Tools::P4Testgen</text>
<text text-anchor="middle" x="101.5" y="-7" font-family="Helvetica,sans-Serif" font-size="10.00">::Bmv2::BMv2V1ModelCompilerResult</text>
</a>
</g>
</g>
<!-- Node2 -->
<g id="Node000002" class="node">
<title>Node2</title>
<g id="a_Node000002"><a xlink:href="class_p4_1_1_p4_tools_1_1_p4_testgen_1_1_testgen_compiler_result.html" target="_top" xlink:title="Extends the CompilerResult with the associated P4RuntimeApi.">
<polygon fill="white" stroke="#666666" points="169,-96 34,-96 34,-66 169,-66 169,-96"/>
<text text-anchor="start" x="42" y="-84" font-family="Helvetica,sans-Serif" font-size="10.00">P4::P4Tools::P4Testgen</text>
<text text-anchor="middle" x="101.5" y="-73" font-family="Helvetica,sans-Serif" font-size="10.00">::TestgenCompilerResult</text>
</a>
</g>
</g>
<!-- Node2&#45;&gt;Node1 -->
<g id="edge1_Node000001_Node000002" class="edge">
<title>Node2&#45;&gt;Node1</title>
<g id="a_edge1_Node000001_Node000002"><a xlink:title=" ">
<path fill="none" stroke="#63b8ff" d="M101.5,-55.54C101.5,-46.96 101.5,-37.61 101.5,-30.16"/>
<polygon fill="#63b8ff" stroke="#63b8ff" points="98,-55.8 101.5,-65.8 105,-55.8 98,-55.8"/>
</a>
</g>
</g>
<!-- Node3 -->
<g id="Node000003" class="node">
<title>Node3</title>
<g id="a_Node000003"><a xlink:href="class_p4_1_1_p4_tools_1_1_compiler_result.html" target="_top" xlink:title=" ">
<polygon fill="white" stroke="#666666" points="177.5,-151 25.5,-151 25.5,-132 177.5,-132 177.5,-151"/>
<text text-anchor="middle" x="101.5" y="-139" font-family="Helvetica,sans-Serif" font-size="10.00">P4::P4Tools::CompilerResult</text>
</a>
</g>
</g>
<!-- Node3&#45;&gt;Node2 -->
<g id="edge2_Node000002_Node000003" class="edge">
<title>Node3&#45;&gt;Node2</title>
<g id="a_edge2_Node000002_Node000003"><a xlink:title=" ">
<path fill="none" stroke="#63b8ff" d="M101.5,-121.65C101.5,-113.36 101.5,-103.78 101.5,-96.11"/>
<polygon fill="#63b8ff" stroke="#63b8ff" points="98,-121.87 101.5,-131.87 105,-121.87 98,-121.87"/>
</a>
</g>
</g>
<!-- Node4 -->
<g id="Node000004" class="node">
<title>Node4</title>
<g id="a_Node000004"><a xlink:href="class_p4_1_1_i_castable.html" target="_top" xlink:title=" ">
<polygon fill="white" stroke="#666666" points="141.5,-206 61.5,-206 61.5,-187 141.5,-187 141.5,-206"/>
<text text-anchor="middle" x="101.5" y="-194" font-family="Helvetica,sans-Serif" font-size="10.00">P4::ICastable</text>
</a>
</g>
</g>
<!-- Node4&#45;&gt;Node3 -->
<g id="edge3_Node000003_Node000004" class="edge">
<title>Node4&#45;&gt;Node3</title>
<g id="a_edge3_Node000003_Node000004"><a xlink:title=" ">
<path fill="none" stroke="#63b8ff" d="M101.5,-176.66C101.5,-167.93 101.5,-157.99 101.5,-151.09"/>
<polygon fill="#63b8ff" stroke="#63b8ff" points="98,-176.75 101.5,-186.75 105,-176.75 98,-176.75"/>
</a>
</g>
</g>
<!-- Node5 -->
<g id="Node000005" class="node">
<title>Node5</title>
<g id="a_Node000005"><a xlink:href="struct_p4_1_1_r_t_t_i_1_1_base.html" target="_top" xlink:title=" ">
<polygon fill="white" stroke="#bfbfbf" points="144.5,-261 58.5,-261 58.5,-242 144.5,-242 144.5,-261"/>
<text text-anchor="middle" x="101.5" y="-249" font-family="Helvetica,sans-Serif" font-size="10.00">P4::RTTI::Base</text>
</a>
</g>
</g>
<!-- Node5&#45;&gt;Node4 -->
<g id="edge4_Node000004_Node000005" class="edge">
<title>Node5&#45;&gt;Node4</title>
<g id="a_edge4_Node000004_Node000005"><a xlink:title=" ">
<path fill="none" stroke="#63b8ff" d="M101.5,-231.66C101.5,-222.93 101.5,-212.99 101.5,-206.09"/>
<polygon fill="#63b8ff" stroke="#63b8ff" points="98,-231.75 101.5,-241.75 105,-231.75 98,-231.75"/>
</a>
</g>
</g>
</g>
</svg>
</svg>

<style type='text/css'>
<![CDATA[
[data-mouse-over-selected='false'] { opacity: 0.7; }
[data-mouse-over-selected='true']  { opacity: 1.0; }
]]>
</style>
<script type="application/ecmascript"><![CDATA[
document.addEventListener('DOMContentLoaded', (event) => {
  highlightEdges();
  highlightAdjacentNodes();
});
]]></script>
</svg>
