<?xml version="1.0" encoding="UTF-8" standalone="no"?>
<!DOCTYPE svg PUBLIC "-//W3C//DTD SVG 1.1//EN"
 "http://www.w3.org/Graphics/SVG/1.1/DTD/svg11.dtd">
<!-- Generated by graphviz version 2.43.0 (0)
 -->
<!-- Title: BFN::AssignmentStmtErrorCheck Pages: 1 -->
<svg width="155pt" height="148pt"
 viewBox="0.00 0.00 155.00 148.00" xmlns="http://www.w3.org/2000/svg" xmlns:xlink="http://www.w3.org/1999/xlink">
<g id="graph0" class="graph" transform="scale(1 1) rotate(0) translate(4 144)">
<title>BFN::AssignmentStmtErrorCheck</title>
<!-- Node1 -->
<g id="Node000001" class="node">
<title>Node1</title>
<g id="a_Node000001"><a xlink:title=" ">
<polygon fill="#999999" stroke="#666666" points="147,-30 0,-30 0,0 147,0 147,-30"/>
<text text-anchor="start" x="8" y="-18" font-family="Helvetica,sans-Serif" font-size="10.00">BFN::AssignmentStmtError</text>
<text text-anchor="middle" x="73.5" y="-7" font-family="Helvetica,sans-Serif" font-size="10.00">Check</text>
</a>
</g>
</g>
<!-- Node2 -->
<g id="Node000002" class="node">
<title>Node2</title>
<g id="a_Node000002"><a xlink:href="group__parde.html#class_deparser_inspector" target="_top" xlink:title=" ">
<polygon fill="white" stroke="#bfbfbf" points="126.5,-85 20.5,-85 20.5,-66 126.5,-66 126.5,-85"/>
<text text-anchor="middle" x="73.5" y="-73" font-family="Helvetica,sans-Serif" font-size="10.00">DeparserInspector</text>
</a>
</g>
</g>
<!-- Node2&#45;&gt;Node1 -->
<g id="edge1_Node000001_Node000002" class="edge">
<title>Node2&#45;&gt;Node1</title>
<g id="a_edge1_Node000001_Node000002"><a xlink:title=" ">
<path fill="none" stroke="#63b8ff" d="M73.5,-55.65C73.5,-47.36 73.5,-37.78 73.5,-30.11"/>
<polygon fill="#63b8ff" stroke="#63b8ff" points="70,-55.87 73.5,-65.87 77,-55.87 70,-55.87"/>
</a>
</g>
</g>
<!-- Node3 -->
<g id="Node000003" class="node">
<title>Node3</title>
<g id="a_Node000003"><a xlink:title=" ">
<polygon fill="white" stroke="#bfbfbf" points="104.5,-140 42.5,-140 42.5,-121 104.5,-121 104.5,-140"/>
<text text-anchor="middle" x="73.5" y="-128" font-family="Helvetica,sans-Serif" font-size="10.00">Inspector</text>
</a>
</g>
</g>
<!-- Node3&#45;&gt;Node2 -->
<g id="edge2_Node000002_Node000003" class="edge">
<title>Node3&#45;&gt;Node2</title>
<g id="a_edge2_Node000002_Node000003"><a xlink:title=" ">
<path fill="none" stroke="#63b8ff" d="M73.5,-110.66C73.5,-101.93 73.5,-91.99 73.5,-85.09"/>
<polygon fill="#63b8ff" stroke="#63b8ff" points="70,-110.75 73.5,-120.75 77,-110.75 70,-110.75"/>
</a>
</g>
</g>
</g>
</svg>
