<?xml version="1.0" encoding="UTF-8" standalone="no"?>
<!DOCTYPE svg PUBLIC "-//W3C//DTD SVG 1.1//EN"
 "http://www.w3.org/Graphics/SVG/1.1/DTD/svg11.dtd">
<!-- Generated by graphviz version 2.43.0 (0)
 -->
<!-- Title: P4::ComputeDefUse Pages: 1 -->
<svg width="450pt" height="137pt"
 viewBox="0.00 0.00 449.50 137.00" xmlns="http://www.w3.org/2000/svg" xmlns:xlink="http://www.w3.org/1999/xlink">
<g id="graph0" class="graph" transform="scale(1 1) rotate(0) translate(4 133)">
<title>P4::ComputeDefUse</title>
<!-- Node1 -->
<g id="Node000001" class="node">
<title>Node1</title>
<g id="a_Node000001"><a xlink:title="Compute defuse info within P4Parser and P4Control blocks in the midend.">
<polygon fill="#999999" stroke="#666666" points="250.5,-19 135.5,-19 135.5,0 250.5,0 250.5,-19"/>
<text text-anchor="middle" x="193" y="-7" font-family="Helvetica,sans-Serif" font-size="10.00">P4::ComputeDefUse</text>
</a>
</g>
</g>
<!-- Node2 -->
<g id="Node000002" class="node">
<title>Node2</title>
<g id="a_Node000002"><a xlink:href="class_inspector.html" target="_top" xlink:title=" ">
<polygon fill="white" stroke="#bfbfbf" points="62,-74 0,-74 0,-55 62,-55 62,-74"/>
<text text-anchor="middle" x="31" y="-62" font-family="Helvetica,sans-Serif" font-size="10.00">Inspector</text>
</a>
</g>
</g>
<!-- Node2&#45;&gt;Node1 -->
<g id="edge1_Node000001_Node000002" class="edge">
<title>Node2&#45;&gt;Node1</title>
<g id="a_edge1_Node000001_Node000002"><a xlink:title=" ">
<path fill="none" stroke="#63b8ff" d="M66.77,-51.8C97,-41.91 139.61,-27.97 166.77,-19.08"/>
<polygon fill="#63b8ff" stroke="#63b8ff" points="65.44,-48.55 57.03,-54.98 67.62,-55.2 65.44,-48.55"/>
</a>
</g>
</g>
<!-- Node3 -->
<g id="Node000003" class="node">
<title>Node3</title>
<g id="a_Node000003"><a xlink:href="class_visitor.html" target="_top" xlink:title=" ">
<polygon fill="white" stroke="#bfbfbf" points="217,-129 169,-129 169,-110 217,-110 217,-129"/>
<text text-anchor="middle" x="193" y="-117" font-family="Helvetica,sans-Serif" font-size="10.00">Visitor</text>
</a>
</g>
</g>
<!-- Node3&#45;&gt;Node2 -->
<g id="edge2_Node000002_Node000003" class="edge">
<title>Node3&#45;&gt;Node2</title>
<g id="a_edge2_Node000002_Node000003"><a xlink:title=" ">
<path fill="none" stroke="#63b8ff" d="M159,-107.38C128.61,-97.43 84.71,-83.07 57.03,-74.02"/>
<polygon fill="#63b8ff" stroke="#63b8ff" points="158.15,-110.78 168.75,-110.57 160.33,-104.13 158.15,-110.78"/>
</a>
</g>
</g>
<!-- Node4 -->
<g id="Node000004" class="node">
<title>Node4</title>
<g id="a_Node000004"><a xlink:href="class_control_flow_visitor.html" target="_top" xlink:title=" ">
<polygon fill="white" stroke="#bfbfbf" points="187.5,-74 80.5,-74 80.5,-55 187.5,-55 187.5,-74"/>
<text text-anchor="middle" x="134" y="-62" font-family="Helvetica,sans-Serif" font-size="10.00">ControlFlowVisitor</text>
</a>
</g>
</g>
<!-- Node3&#45;&gt;Node4 -->
<g id="edge4_Node000004_Node000003" class="edge">
<title>Node3&#45;&gt;Node4</title>
<g id="a_edge4_Node000004_Node000003"><a xlink:title=" ">
<path fill="none" stroke="#63b8ff" d="M175.8,-103.04C165.33,-93.64 152.35,-81.98 143.65,-74.17"/>
<polygon fill="#63b8ff" stroke="#63b8ff" points="173.74,-105.91 183.52,-109.98 178.42,-100.7 173.74,-105.91"/>
</a>
</g>
</g>
<!-- Node5 -->
<g id="Node000005" class="node">
<title>Node5</title>
<g id="a_Node000005"><a xlink:href="class_p4_write_context.html" target="_top" xlink:title=" ">
<polygon fill="white" stroke="#bfbfbf" points="298.5,-74 205.5,-74 205.5,-55 298.5,-55 298.5,-74"/>
<text text-anchor="middle" x="252" y="-62" font-family="Helvetica,sans-Serif" font-size="10.00">P4WriteContext</text>
</a>
</g>
</g>
<!-- Node3&#45;&gt;Node5 -->
<g id="edge6_Node000005_Node000003" class="edge">
<title>Node3&#45;&gt;Node5</title>
<g id="a_edge6_Node000005_Node000003"><a xlink:title=" ">
<path fill="none" stroke="#63b8ff" d="M210.2,-103.04C220.67,-93.64 233.65,-81.98 242.35,-74.17"/>
<polygon fill="#63b8ff" stroke="#63b8ff" points="207.58,-100.7 202.48,-109.98 212.26,-105.91 207.58,-100.7"/>
</a>
</g>
</g>
<!-- Node6 -->
<g id="Node000006" class="node">
<title>Node6</title>
<g id="a_Node000006"><a xlink:href="class_p4_1_1_resolution_context.html" target="_top" xlink:title="Visitor mixin for looking up names in enclosing scopes from the Visitor::Context.">
<polygon fill="white" stroke="#666666" points="441.5,-74 316.5,-74 316.5,-55 441.5,-55 441.5,-74"/>
<text text-anchor="middle" x="379" y="-62" font-family="Helvetica,sans-Serif" font-size="10.00">P4::ResolutionContext</text>
</a>
</g>
</g>
<!-- Node3&#45;&gt;Node6 -->
<g id="edge8_Node000006_Node000003" class="edge">
<title>Node3&#45;&gt;Node6</title>
<g id="a_edge8_Node000006_Node000003"><a xlink:title=" ">
<path fill="none" stroke="#63b8ff" d="M227.07,-108.79C262.01,-98.83 315.82,-83.5 349.14,-74.01"/>
<polygon fill="#63b8ff" stroke="#63b8ff" points="225.97,-105.46 217.32,-111.57 227.89,-112.2 225.97,-105.46"/>
</a>
</g>
</g>
<!-- Node4&#45;&gt;Node1 -->
<g id="edge3_Node000001_Node000004" class="edge">
<title>Node4&#45;&gt;Node1</title>
<g id="a_edge3_Node000001_Node000004"><a xlink:title=" ">
<path fill="none" stroke="#63b8ff" d="M151.2,-48.04C161.67,-38.64 174.65,-26.98 183.35,-19.17"/>
<polygon fill="#63b8ff" stroke="#63b8ff" points="148.58,-45.7 143.48,-54.98 153.26,-50.91 148.58,-45.7"/>
</a>
</g>
</g>
<!-- Node5&#45;&gt;Node1 -->
<g id="edge5_Node000001_Node000005" class="edge">
<title>Node5&#45;&gt;Node1</title>
<g id="a_edge5_Node000001_Node000005"><a xlink:title=" ">
<path fill="none" stroke="#63b8ff" d="M234.8,-48.04C224.33,-38.64 211.35,-26.98 202.65,-19.17"/>
<polygon fill="#63b8ff" stroke="#63b8ff" points="232.74,-50.91 242.52,-54.98 237.42,-45.7 232.74,-50.91"/>
</a>
</g>
</g>
<!-- Node6&#45;&gt;Node1 -->
<g id="edge7_Node000001_Node000006" class="edge">
<title>Node6&#45;&gt;Node1</title>
<g id="a_edge7_Node000001_Node000006"><a xlink:title=" ">
<path fill="none" stroke="#63b8ff" d="M339.29,-52.18C304.5,-42.27 254.71,-28.08 223.12,-19.08"/>
<polygon fill="#63b8ff" stroke="#63b8ff" points="338.54,-55.61 349.12,-54.98 340.46,-48.88 338.54,-55.61"/>
</a>
</g>
</g>
<!-- Node7 -->
<g id="Node000007" class="node">
<title>Node7</title>
<g id="a_Node000007"><a xlink:href="class_p4_1_1_declaration_lookup.html" target="_top" xlink:title=" ">
<polygon fill="white" stroke="#bfbfbf" points="441.5,-129 316.5,-129 316.5,-110 441.5,-110 441.5,-129"/>
<text text-anchor="middle" x="379" y="-117" font-family="Helvetica,sans-Serif" font-size="10.00">P4::DeclarationLookup</text>
</a>
</g>
</g>
<!-- Node7&#45;&gt;Node6 -->
<g id="edge9_Node000006_Node000007" class="edge">
<title>Node7&#45;&gt;Node6</title>
<g id="a_edge9_Node000006_Node000007"><a xlink:title=" ">
<path fill="none" stroke="#63b8ff" d="M379,-99.66C379,-90.93 379,-80.99 379,-74.09"/>
<polygon fill="#63b8ff" stroke="#63b8ff" points="375.5,-99.75 379,-109.75 382.5,-99.75 375.5,-99.75"/>
</a>
</g>
</g>
</g>
</svg>
