<?xml version="1.0" encoding="UTF-8" standalone="no"?>
<!DOCTYPE svg PUBLIC "-//W3C//DTD SVG 1.1//EN"
 "http://www.w3.org/Graphics/SVG/1.1/DTD/svg11.dtd">
<!-- Generated by graphviz version 2.43.0 (0)
 -->
<!-- Title: P4::ActionSynthesisPolicy Pages: 1 -->
<svg width="256pt" height="82pt"
 viewBox="0.00 0.00 255.50 82.00" xmlns="http://www.w3.org/2000/svg" xmlns:xlink="http://www.w3.org/1999/xlink">
<g id="graph0" class="graph" transform="scale(1 1) rotate(0) translate(4 78)">
<title>P4::ActionSynthesisPolicy</title>
<!-- Node1 -->
<g id="Node000001" class="node">
<title>Node1</title>
<g id="a_Node000001"><a xlink:title=" ">
<polygon fill="#999999" stroke="#666666" points="193.5,-74 51.5,-74 51.5,-55 193.5,-55 193.5,-74"/>
<text text-anchor="middle" x="122.5" y="-62" font-family="Helvetica,sans-Serif" font-size="10.00">P4::ActionSynthesisPolicy</text>
</a>
</g>
</g>
<!-- Node2 -->
<g id="Node000002" class="node">
<title>Node2</title>
<g id="a_Node000002"><a xlink:href="class_b_m_v2_1_1_skip_controls.html" target="_top" xlink:title="This class implements a policy suitable for the SynthesizeActions pass.">
<polygon fill="white" stroke="#666666" points="113,-19 0,-19 0,0 113,0 113,-19"/>
<text text-anchor="middle" x="56.5" y="-7" font-family="Helvetica,sans-Serif" font-size="10.00">BMV2::SkipControls</text>
</a>
</g>
</g>
<!-- Node1&#45;&gt;Node2 -->
<g id="edge1_Node000001_Node000002" class="edge">
<title>Node1&#45;&gt;Node2</title>
<g id="a_edge1_Node000001_Node000002"><a xlink:title=" ">
<path fill="none" stroke="#63b8ff" d="M103.95,-48.6C92.12,-39.11 77.21,-27.13 67.3,-19.17"/>
<polygon fill="#63b8ff" stroke="#63b8ff" points="101.91,-51.45 111.9,-54.98 106.29,-45.99 101.91,-51.45"/>
</a>
</g>
</g>
<!-- Node3 -->
<g id="Node000003" class="node">
<title>Node3</title>
<g id="a_Node000003"><a xlink:href="class_p4_test_1_1_skip_controls.html" target="_top" xlink:title=" ">
<polygon fill="white" stroke="#bfbfbf" points="247.5,-19 131.5,-19 131.5,0 247.5,0 247.5,-19"/>
<text text-anchor="middle" x="189.5" y="-7" font-family="Helvetica,sans-Serif" font-size="10.00">P4Test::SkipControls</text>
</a>
</g>
</g>
<!-- Node1&#45;&gt;Node3 -->
<g id="edge2_Node000001_Node000003" class="edge">
<title>Node1&#45;&gt;Node3</title>
<g id="a_edge2_Node000001_Node000003"><a xlink:title=" ">
<path fill="none" stroke="#63b8ff" d="M141.33,-48.6C153.34,-39.11 168.47,-27.13 178.54,-19.17"/>
<polygon fill="#63b8ff" stroke="#63b8ff" points="138.94,-46.04 133.26,-54.98 143.28,-51.53 138.94,-46.04"/>
</a>
</g>
</g>
</g>
</svg>
