<?xml version="1.0" encoding="UTF-8" standalone="no"?>
<!DOCTYPE svg PUBLIC "-//W3C//DTD SVG 1.1//EN"
 "http://www.w3.org/Graphics/SVG/1.1/DTD/svg11.dtd">
<!-- Generated by graphviz version 2.43.0 (0)
 -->
<!-- Title: P4Tools::P4Smith::SmithTarget Pages: 1 -->
<svg width="851pt" height="230pt"
 viewBox="0.00 0.00 851.00 230.00" xmlns="http://www.w3.org/2000/svg" xmlns:xlink="http://www.w3.org/1999/xlink">
<g id="graph0" class="graph" transform="scale(1 1) rotate(0) translate(4 226)">
<title>P4Tools::P4Smith::SmithTarget</title>
<!-- Node1 -->
<g id="Node000001" class="node">
<title>Node1</title>
<g id="a_Node000001"><a xlink:title=" ">
<polygon fill="#999999" stroke="#666666" points="459,-96.5 295,-96.5 295,-77.5 459,-77.5 459,-96.5"/>
<text text-anchor="middle" x="377" y="-84.5" font-family="Helvetica,sans-Serif" font-size="10.00">P4Tools::P4Smith::SmithTarget</text>
</a>
</g>
</g>
<!-- Node4 -->
<g id="Node000004" class="node">
<title>Node4</title>
<g id="a_Node000004"><a xlink:href="class_p4_tools_1_1_p4_smith_1_1_b_mv2_1_1_abstract_b_mv2_smith_target.html" target="_top" xlink:title=" ">
<polygon fill="white" stroke="#bfbfbf" points="649,-174 500,-174 500,-144 649,-144 649,-174"/>
<text text-anchor="start" x="508" y="-162" font-family="Helvetica,sans-Serif" font-size="10.00">P4Tools::P4Smith::BMv2</text>
<text text-anchor="middle" x="574.5" y="-151" font-family="Helvetica,sans-Serif" font-size="10.00">::AbstractBMv2SmithTarget</text>
</a>
</g>
</g>
<!-- Node1&#45;&gt;Node4 -->
<g id="edge3_Node000001_Node000004" class="edge">
<title>Node1&#45;&gt;Node4</title>
<g id="a_edge3_Node000001_Node000004"><a xlink:title=" ">
<path fill="none" stroke="#63b8ff" d="M409.17,-100.71C432.56,-110.77 465.51,-124.47 495,-135 503.59,-138.07 512.79,-141.1 521.76,-143.93"/>
<polygon fill="#63b8ff" stroke="#63b8ff" points="410.33,-97.4 399.76,-96.64 407.55,-103.82 410.33,-97.4"/>
</a>
</g>
</g>
<!-- Node7 -->
<g id="Node000007" class="node">
<title>Node7</title>
<g id="a_Node000007"><a xlink:href="class_p4_tools_1_1_p4_smith_1_1_generic_1_1_abstract_generic_smith_target.html" target="_top" xlink:title=" ">
<polygon fill="white" stroke="#bfbfbf" points="654,-126 495,-126 495,-96 654,-96 654,-126"/>
<text text-anchor="start" x="503" y="-114" font-family="Helvetica,sans-Serif" font-size="10.00">P4Tools::P4Smith::Generic</text>
<text text-anchor="middle" x="574.5" y="-103" font-family="Helvetica,sans-Serif" font-size="10.00">::AbstractGenericSmithTarget</text>
</a>
</g>
</g>
<!-- Node1&#45;&gt;Node7 -->
<g id="edge6_Node000001_Node000007" class="edge">
<title>Node1&#45;&gt;Node7</title>
<g id="a_edge6_Node000001_Node000007"><a xlink:title=" ">
<path fill="none" stroke="#63b8ff" d="M465.61,-97.75C475.32,-98.95 485.17,-100.16 494.77,-101.33"/>
<polygon fill="#63b8ff" stroke="#63b8ff" points="465.9,-94.26 455.55,-96.52 465.05,-101.21 465.9,-94.26"/>
</a>
</g>
</g>
<!-- Node9 -->
<g id="Node000009" class="node">
<title>Node9</title>
<g id="a_Node000009"><a xlink:href="class_p4_tools_1_1_p4_smith_1_1_nic_1_1_abstract_nic_smith_target.html" target="_top" xlink:title=" ">
<polygon fill="white" stroke="#bfbfbf" points="643,-78 506,-78 506,-48 643,-48 643,-78"/>
<text text-anchor="start" x="514" y="-66" font-family="Helvetica,sans-Serif" font-size="10.00">P4Tools::P4Smith::Nic</text>
<text text-anchor="middle" x="574.5" y="-55" font-family="Helvetica,sans-Serif" font-size="10.00">::AbstractNicSmithTarget</text>
</a>
</g>
</g>
<!-- Node1&#45;&gt;Node9 -->
<g id="edge8_Node000001_Node000009" class="edge">
<title>Node1&#45;&gt;Node9</title>
<g id="a_edge8_Node000001_Node000009"><a xlink:title=" ">
<path fill="none" stroke="#63b8ff" d="M465.77,-76.23C479.22,-74.57 492.92,-72.89 505.85,-71.31"/>
<polygon fill="#63b8ff" stroke="#63b8ff" points="465.05,-72.79 455.55,-77.48 465.9,-79.74 465.05,-72.79"/>
</a>
</g>
</g>
<!-- Node11 -->
<g id="Node000011" class="node">
<title>Node11</title>
<g id="a_Node000011"><a xlink:href="class_p4_tools_1_1_p4_smith_1_1_tofino_1_1_abstract_tofino_smith_target.html" target="_top" xlink:title=" ">
<polygon fill="white" stroke="#bfbfbf" points="649.5,-30 499.5,-30 499.5,0 649.5,0 649.5,-30"/>
<text text-anchor="start" x="507.5" y="-18" font-family="Helvetica,sans-Serif" font-size="10.00">P4Tools::P4Smith::Tofino</text>
<text text-anchor="middle" x="574.5" y="-7" font-family="Helvetica,sans-Serif" font-size="10.00">::AbstractTofinoSmithTarget</text>
</a>
</g>
</g>
<!-- Node1&#45;&gt;Node11 -->
<g id="edge10_Node000001_Node000011" class="edge">
<title>Node1&#45;&gt;Node11</title>
<g id="a_edge10_Node000001_Node000011"><a xlink:title=" ">
<path fill="none" stroke="#63b8ff" d="M409.17,-73.29C432.56,-63.23 465.51,-49.53 495,-39 503.59,-35.93 512.79,-32.9 521.76,-30.07"/>
<polygon fill="#63b8ff" stroke="#63b8ff" points="407.55,-70.18 399.76,-77.36 410.33,-76.6 407.55,-70.18"/>
</a>
</g>
</g>
<!-- Node2 -->
<g id="Node000002" class="node">
<title>Node2</title>
<g id="a_Node000002"><a xlink:href="class_p4_tools_1_1_compiler_target.html" target="_top" xlink:title="Encapsulates the details of invoking the P4 compiler for a target device and architecture.">
<polygon fill="white" stroke="#666666" points="259,-96.5 125,-96.5 125,-77.5 259,-77.5 259,-96.5"/>
<text text-anchor="middle" x="192" y="-84.5" font-family="Helvetica,sans-Serif" font-size="10.00">P4Tools::CompilerTarget</text>
</a>
</g>
</g>
<!-- Node2&#45;&gt;Node1 -->
<g id="edge1_Node000001_Node000002" class="edge">
<title>Node2&#45;&gt;Node1</title>
<g id="a_edge1_Node000001_Node000002"><a xlink:title=" ">
<path fill="none" stroke="#63b8ff" d="M269.23,-87C277.65,-87 286.24,-87 294.72,-87"/>
<polygon fill="#63b8ff" stroke="#63b8ff" points="269.07,-83.5 259.07,-87 269.07,-90.5 269.07,-83.5"/>
</a>
</g>
</g>
<!-- Node3 -->
<g id="Node000003" class="node">
<title>Node3</title>
<g id="a_Node000003"><a xlink:href="class_p4_tools_1_1_target.html" target="_top" xlink:title=" ">
<polygon fill="white" stroke="#666666" points="89,-96.5 0,-96.5 0,-77.5 89,-77.5 89,-96.5"/>
<text text-anchor="middle" x="44.5" y="-84.5" font-family="Helvetica,sans-Serif" font-size="10.00">P4Tools::Target</text>
</a>
</g>
</g>
<!-- Node3&#45;&gt;Node2 -->
<g id="edge2_Node000002_Node000003" class="edge">
<title>Node3&#45;&gt;Node2</title>
<g id="a_edge2_Node000002_Node000003"><a xlink:title=" ">
<path fill="none" stroke="#63b8ff" d="M99.4,-87C107.67,-87 116.28,-87 124.77,-87"/>
<polygon fill="#63b8ff" stroke="#63b8ff" points="99.15,-83.5 89.15,-87 99.15,-90.5 99.15,-83.5"/>
</a>
</g>
</g>
<!-- Node5 -->
<g id="Node000005" class="node">
<title>Node5</title>
<g id="a_Node000005"><a xlink:href="class_p4_tools_1_1_p4_smith_1_1_b_mv2_1_1_bmv2_psa_smith_target.html" target="_top" xlink:title=" ">
<polygon fill="white" stroke="#bfbfbf" points="833.5,-222 699.5,-222 699.5,-192 833.5,-192 833.5,-222"/>
<text text-anchor="start" x="707.5" y="-210" font-family="Helvetica,sans-Serif" font-size="10.00">P4Tools::P4Smith::BMv2</text>
<text text-anchor="middle" x="766.5" y="-199" font-family="Helvetica,sans-Serif" font-size="10.00">::Bmv2PsaSmithTarget</text>
</a>
</g>
</g>
<!-- Node4&#45;&gt;Node5 -->
<g id="edge4_Node000004_Node000005" class="edge">
<title>Node4&#45;&gt;Node5</title>
<g id="a_edge4_Node000004_Node000005"><a xlink:title=" ">
<path fill="none" stroke="#63b8ff" d="M644.81,-176.51C664.92,-181.59 686.68,-187.09 706.12,-192"/>
<polygon fill="#63b8ff" stroke="#63b8ff" points="645.65,-173.11 635.1,-174.06 643.93,-179.9 645.65,-173.11"/>
</a>
</g>
</g>
<!-- Node6 -->
<g id="Node000006" class="node">
<title>Node6</title>
<g id="a_Node000006"><a xlink:href="class_p4_tools_1_1_p4_smith_1_1_b_mv2_1_1_bmv2_v1model_smith_target.html" target="_top" xlink:title=" ">
<polygon fill="white" stroke="#bfbfbf" points="843,-174 690,-174 690,-144 843,-144 843,-174"/>
<text text-anchor="start" x="698" y="-162" font-family="Helvetica,sans-Serif" font-size="10.00">P4Tools::P4Smith::BMv2</text>
<text text-anchor="middle" x="766.5" y="-151" font-family="Helvetica,sans-Serif" font-size="10.00">::Bmv2V1modelSmithTarget</text>
</a>
</g>
</g>
<!-- Node4&#45;&gt;Node6 -->
<g id="edge5_Node000004_Node000006" class="edge">
<title>Node4&#45;&gt;Node6</title>
<g id="a_edge5_Node000004_Node000006"><a xlink:title=" ">
<path fill="none" stroke="#63b8ff" d="M659.34,-159C669.52,-159 679.88,-159 689.93,-159"/>
<polygon fill="#63b8ff" stroke="#63b8ff" points="659.23,-155.5 649.23,-159 659.23,-162.5 659.23,-155.5"/>
</a>
</g>
</g>
<!-- Node8 -->
<g id="Node000008" class="node">
<title>Node8</title>
<g id="a_Node000008"><a xlink:href="class_p4_tools_1_1_p4_smith_1_1_generic_1_1_generic_core_smith_target.html" target="_top" xlink:title=" ">
<polygon fill="white" stroke="#bfbfbf" points="838,-126 695,-126 695,-96 838,-96 838,-126"/>
<text text-anchor="start" x="703" y="-114" font-family="Helvetica,sans-Serif" font-size="10.00">P4Tools::P4Smith::Generic</text>
<text text-anchor="middle" x="766.5" y="-103" font-family="Helvetica,sans-Serif" font-size="10.00">::GenericCoreSmithTarget</text>
</a>
</g>
</g>
<!-- Node7&#45;&gt;Node8 -->
<g id="edge7_Node000007_Node000008" class="edge">
<title>Node7&#45;&gt;Node8</title>
<g id="a_edge7_Node000007_Node000008"><a xlink:title=" ">
<path fill="none" stroke="#63b8ff" d="M664.33,-111C674.55,-111 684.87,-111 694.81,-111"/>
<polygon fill="#63b8ff" stroke="#63b8ff" points="664.15,-107.5 654.15,-111 664.15,-114.5 664.15,-107.5"/>
</a>
</g>
</g>
<!-- Node10 -->
<g id="Node000010" class="node">
<title>Node10</title>
<g id="a_Node000010"><a xlink:href="class_p4_tools_1_1_p4_smith_1_1_nic_1_1_dpdk_pna_smith_target.html" target="_top" xlink:title=" ">
<polygon fill="white" stroke="#bfbfbf" points="829,-78 704,-78 704,-48 829,-48 829,-78"/>
<text text-anchor="start" x="712" y="-66" font-family="Helvetica,sans-Serif" font-size="10.00">P4Tools::P4Smith::Nic</text>
<text text-anchor="middle" x="766.5" y="-55" font-family="Helvetica,sans-Serif" font-size="10.00">::DpdkPnaSmithTarget</text>
</a>
</g>
</g>
<!-- Node9&#45;&gt;Node10 -->
<g id="edge9_Node000009_Node000010" class="edge">
<title>Node9&#45;&gt;Node10</title>
<g id="a_edge9_Node000009_Node000010"><a xlink:title=" ">
<path fill="none" stroke="#63b8ff" d="M653.39,-63C670.22,-63 687.79,-63 703.9,-63"/>
<polygon fill="#63b8ff" stroke="#63b8ff" points="653.02,-59.5 643.02,-63 653.02,-66.5 653.02,-59.5"/>
</a>
</g>
</g>
<!-- Node12 -->
<g id="Node000012" class="node">
<title>Node12</title>
<g id="a_Node000012"><a xlink:href="class_p4_tools_1_1_p4_smith_1_1_tofino_1_1_tofino_tna_smith_target.html" target="_top" xlink:title=" ">
<polygon fill="white" stroke="#bfbfbf" points="833.5,-30 699.5,-30 699.5,0 833.5,0 833.5,-30"/>
<text text-anchor="start" x="707.5" y="-18" font-family="Helvetica,sans-Serif" font-size="10.00">P4Tools::P4Smith::Tofino</text>
<text text-anchor="middle" x="766.5" y="-7" font-family="Helvetica,sans-Serif" font-size="10.00">::TofinoTnaSmithTarget</text>
</a>
</g>
</g>
<!-- Node11&#45;&gt;Node12 -->
<g id="edge11_Node000011_Node000012" class="edge">
<title>Node11&#45;&gt;Node12</title>
<g id="a_edge11_Node000011_Node000012"><a xlink:title=" ">
<path fill="none" stroke="#63b8ff" d="M659.63,-15C672.96,-15 686.59,-15 699.43,-15"/>
<polygon fill="#63b8ff" stroke="#63b8ff" points="659.5,-11.5 649.5,-15 659.5,-18.5 659.5,-11.5"/>
</a>
</g>
</g>
</g>
</svg>
