<?xml version="1.0" encoding="UTF-8" standalone="no"?>
<!DOCTYPE svg PUBLIC "-//W3C//DTD SVG 1.1//EN"
 "http://www.w3.org/Graphics/SVG/1.1/DTD/svg11.dtd">
<!-- Generated by graphviz version 2.43.0 (0)
 -->
<!-- Title: P4::ScalarValue Pages: 1 -->
<svg width="493pt" height="247pt"
 viewBox="0.00 0.00 492.50 247.00" xmlns="http://www.w3.org/2000/svg" xmlns:xlink="http://www.w3.org/1999/xlink">
<g id="graph0" class="graph" transform="scale(1 1) rotate(0) translate(4 243)">
<title>P4::ScalarValue</title>
<!-- Node1 -->
<g id="Node000001" class="node">
<title>Node1</title>
<g id="a_Node000001"><a xlink:title=" ">
<polygon fill="#999999" stroke="#666666" points="282.5,-74 190.5,-74 190.5,-55 282.5,-55 282.5,-74"/>
<text text-anchor="middle" x="236.5" y="-62" font-family="Helvetica,sans-Serif" font-size="10.00">P4::ScalarValue</text>
</a>
</g>
</g>
<!-- Node6 -->
<g id="Node000006" class="node">
<title>Node6</title>
<g id="a_Node000006"><a xlink:href="class_p4_1_1_symbolic_bool.html" target="_top" xlink:title=" ">
<polygon fill="white" stroke="#bfbfbf" points="101,-19 0,-19 0,0 101,0 101,-19"/>
<text text-anchor="middle" x="50.5" y="-7" font-family="Helvetica,sans-Serif" font-size="10.00">P4::SymbolicBool</text>
</a>
</g>
</g>
<!-- Node1&#45;&gt;Node6 -->
<g id="edge5_Node000001_Node000006" class="edge">
<title>Node1&#45;&gt;Node6</title>
<g id="a_edge5_Node000001_Node000006"><a xlink:title=" ">
<path fill="none" stroke="#63b8ff" d="M196.79,-52.18C162,-42.27 112.21,-28.08 80.62,-19.08"/>
<polygon fill="#63b8ff" stroke="#63b8ff" points="196.04,-55.61 206.62,-54.98 197.96,-48.88 196.04,-55.61"/>
</a>
</g>
</g>
<!-- Node7 -->
<g id="Node000007" class="node">
<title>Node7</title>
<g id="a_Node000007"><a xlink:href="class_p4_1_1_symbolic_enum.html" target="_top" xlink:title=" ">
<polygon fill="white" stroke="#bfbfbf" points="226,-19 119,-19 119,0 226,0 226,-19"/>
<text text-anchor="middle" x="172.5" y="-7" font-family="Helvetica,sans-Serif" font-size="10.00">P4::SymbolicEnum</text>
</a>
</g>
</g>
<!-- Node1&#45;&gt;Node7 -->
<g id="edge6_Node000001_Node000007" class="edge">
<title>Node1&#45;&gt;Node7</title>
<g id="a_edge6_Node000001_Node000007"><a xlink:title=" ">
<path fill="none" stroke="#63b8ff" d="M218.51,-48.6C207.04,-39.11 192.59,-27.13 182.97,-19.17"/>
<polygon fill="#63b8ff" stroke="#63b8ff" points="216.28,-51.3 226.22,-54.98 220.75,-45.91 216.28,-51.3"/>
</a>
</g>
</g>
<!-- Node8 -->
<g id="Node000008" class="node">
<title>Node8</title>
<g id="a_Node000008"><a xlink:href="class_p4_1_1_symbolic_integer.html" target="_top" xlink:title=" ">
<polygon fill="white" stroke="#bfbfbf" points="358.5,-19 244.5,-19 244.5,0 358.5,0 358.5,-19"/>
<text text-anchor="middle" x="301.5" y="-7" font-family="Helvetica,sans-Serif" font-size="10.00">P4::SymbolicInteger</text>
</a>
</g>
</g>
<!-- Node1&#45;&gt;Node8 -->
<g id="edge7_Node000001_Node000008" class="edge">
<title>Node1&#45;&gt;Node8</title>
<g id="a_edge7_Node000001_Node000008"><a xlink:title=" ">
<path fill="none" stroke="#63b8ff" d="M254.77,-48.6C266.42,-39.11 281.1,-27.13 290.87,-19.17"/>
<polygon fill="#63b8ff" stroke="#63b8ff" points="252.48,-45.95 246.94,-54.98 256.91,-51.38 252.48,-45.95"/>
</a>
</g>
</g>
<!-- Node9 -->
<g id="Node000009" class="node">
<title>Node9</title>
<g id="a_Node000009"><a xlink:href="class_p4_1_1_symbolic_varbit.html" target="_top" xlink:title=" ">
<polygon fill="white" stroke="#bfbfbf" points="484.5,-19 376.5,-19 376.5,0 484.5,0 484.5,-19"/>
<text text-anchor="middle" x="430.5" y="-7" font-family="Helvetica,sans-Serif" font-size="10.00">P4::SymbolicVarbit</text>
</a>
</g>
</g>
<!-- Node1&#45;&gt;Node9 -->
<g id="edge8_Node000001_Node000009" class="edge">
<title>Node1&#45;&gt;Node9</title>
<g id="a_edge8_Node000001_Node000009"><a xlink:title=" ">
<path fill="none" stroke="#63b8ff" d="M277.46,-52.31C313.76,-42.39 366,-28.12 399.09,-19.08"/>
<polygon fill="#63b8ff" stroke="#63b8ff" points="276.39,-48.97 267.67,-54.98 278.24,-55.73 276.39,-48.97"/>
</a>
</g>
</g>
<!-- Node2 -->
<g id="Node000002" class="node">
<title>Node2</title>
<g id="a_Node000002"><a xlink:href="class_p4_1_1_symbolic_value.html" target="_top" xlink:title=" ">
<polygon fill="white" stroke="#bfbfbf" points="290,-129 183,-129 183,-110 290,-110 290,-129"/>
<text text-anchor="middle" x="236.5" y="-117" font-family="Helvetica,sans-Serif" font-size="10.00">P4::SymbolicValue</text>
</a>
</g>
</g>
<!-- Node2&#45;&gt;Node1 -->
<g id="edge1_Node000001_Node000002" class="edge">
<title>Node2&#45;&gt;Node1</title>
<g id="a_edge1_Node000001_Node000002"><a xlink:title=" ">
<path fill="none" stroke="#63b8ff" d="M236.5,-99.66C236.5,-90.93 236.5,-80.99 236.5,-74.09"/>
<polygon fill="#63b8ff" stroke="#63b8ff" points="233,-99.75 236.5,-109.75 240,-99.75 233,-99.75"/>
</a>
</g>
</g>
<!-- Node3 -->
<g id="Node000003" class="node">
<title>Node3</title>
<g id="a_Node000003"><a xlink:href="class_i_has_db_print.html" target="_top" xlink:title=" ">
<polygon fill="white" stroke="#bfbfbf" points="230.5,-184 156.5,-184 156.5,-165 230.5,-165 230.5,-184"/>
<text text-anchor="middle" x="193.5" y="-172" font-family="Helvetica,sans-Serif" font-size="10.00">IHasDbPrint</text>
</a>
</g>
</g>
<!-- Node3&#45;&gt;Node2 -->
<g id="edge2_Node000002_Node000003" class="edge">
<title>Node3&#45;&gt;Node2</title>
<g id="a_edge2_Node000002_Node000003"><a xlink:title=" ">
<path fill="none" stroke="#63b8ff" d="M206.92,-156.96C214.41,-147.72 223.44,-136.6 229.53,-129.09"/>
<polygon fill="#63b8ff" stroke="#63b8ff" points="204.18,-154.78 200.6,-164.75 209.62,-159.19 204.18,-154.78"/>
</a>
</g>
</g>
<!-- Node4 -->
<g id="Node000004" class="node">
<title>Node4</title>
<g id="a_Node000004"><a xlink:href="class_i_castable.html" target="_top" xlink:title=" ">
<polygon fill="white" stroke="#666666" points="310.5,-184 248.5,-184 248.5,-165 310.5,-165 310.5,-184"/>
<text text-anchor="middle" x="279.5" y="-172" font-family="Helvetica,sans-Serif" font-size="10.00">ICastable</text>
</a>
</g>
</g>
<!-- Node4&#45;&gt;Node2 -->
<g id="edge3_Node000002_Node000004" class="edge">
<title>Node4&#45;&gt;Node2</title>
<g id="a_edge3_Node000002_Node000004"><a xlink:title=" ">
<path fill="none" stroke="#63b8ff" d="M266.08,-156.96C258.59,-147.72 249.56,-136.6 243.47,-129.09"/>
<polygon fill="#63b8ff" stroke="#63b8ff" points="263.38,-159.19 272.4,-164.75 268.82,-154.78 263.38,-159.19"/>
</a>
</g>
</g>
<!-- Node5 -->
<g id="Node000005" class="node">
<title>Node5</title>
<g id="a_Node000005"><a xlink:href="struct_r_t_t_i_1_1_base.html" target="_top" xlink:title=" ">
<polygon fill="white" stroke="#bfbfbf" points="313.5,-239 245.5,-239 245.5,-220 313.5,-220 313.5,-239"/>
<text text-anchor="middle" x="279.5" y="-227" font-family="Helvetica,sans-Serif" font-size="10.00">RTTI::Base</text>
</a>
</g>
</g>
<!-- Node5&#45;&gt;Node4 -->
<g id="edge4_Node000004_Node000005" class="edge">
<title>Node5&#45;&gt;Node4</title>
<g id="a_edge4_Node000004_Node000005"><a xlink:title=" ">
<path fill="none" stroke="#63b8ff" d="M279.5,-209.66C279.5,-200.93 279.5,-190.99 279.5,-184.09"/>
<polygon fill="#63b8ff" stroke="#63b8ff" points="276,-209.75 279.5,-219.75 283,-209.75 276,-209.75"/>
</a>
</g>
</g>
</g>
</svg>
