<?xml version="1.0" encoding="UTF-8" standalone="no"?>
<!DOCTYPE svg PUBLIC "-//W3C//DTD SVG 1.1//EN"
 "http://www.w3.org/Graphics/SVG/1.1/DTD/svg11.dtd">
<!-- Generated by graphviz version 2.43.0 (0)
 -->
<!-- Title: Util::Namespace Pages: 1 -->
<svg width="120pt" height="247pt"
 viewBox="0.00 0.00 120.00 247.00" xmlns="http://www.w3.org/2000/svg" xmlns:xlink="http://www.w3.org/1999/xlink">
<g id="graph0" class="graph" transform="scale(1 1) rotate(0) translate(4 243)">
<title>Util::Namespace</title>
<!-- Node1 -->
<g id="Node000001" class="node">
<title>Node1</title>
<g id="a_Node000001"><a xlink:title=" ">
<polygon fill="#999999" stroke="#666666" points="105,-74 7,-74 7,-55 105,-55 105,-74"/>
<text text-anchor="middle" x="56" y="-62" font-family="Helvetica,sans-Serif" font-size="10.00">Util::Namespace</text>
</a>
</g>
</g>
<!-- Node5 -->
<g id="Node000005" class="node">
<title>Node5</title>
<g id="a_Node000005"><a xlink:href="class_util_1_1_container_type.html" target="_top" xlink:title=" ">
<polygon fill="white" stroke="#bfbfbf" points="111,-19 1,-19 1,0 111,0 111,-19"/>
<text text-anchor="middle" x="56" y="-7" font-family="Helvetica,sans-Serif" font-size="10.00">Util::ContainerType</text>
</a>
</g>
</g>
<!-- Node1&#45;&gt;Node5 -->
<g id="edge4_Node000001_Node000005" class="edge">
<title>Node1&#45;&gt;Node5</title>
<g id="a_edge4_Node000001_Node000005"><a xlink:title=" ">
<path fill="none" stroke="#63b8ff" d="M56,-44.66C56,-35.93 56,-25.99 56,-19.09"/>
<polygon fill="#63b8ff" stroke="#63b8ff" points="52.5,-44.75 56,-54.75 59.5,-44.75 52.5,-44.75"/>
</a>
</g>
</g>
<!-- Node2 -->
<g id="Node000002" class="node">
<title>Node2</title>
<g id="a_Node000002"><a xlink:href="class_util_1_1_named_symbol.html" target="_top" xlink:title=" ">
<polygon fill="white" stroke="#bfbfbf" points="112,-129 0,-129 0,-110 112,-110 112,-129"/>
<text text-anchor="middle" x="56" y="-117" font-family="Helvetica,sans-Serif" font-size="10.00">Util::NamedSymbol</text>
</a>
</g>
</g>
<!-- Node2&#45;&gt;Node1 -->
<g id="edge1_Node000001_Node000002" class="edge">
<title>Node2&#45;&gt;Node1</title>
<g id="a_edge1_Node000001_Node000002"><a xlink:title=" ">
<path fill="none" stroke="#63b8ff" d="M56,-99.66C56,-90.93 56,-80.99 56,-74.09"/>
<polygon fill="#63b8ff" stroke="#63b8ff" points="52.5,-99.75 56,-109.75 59.5,-99.75 52.5,-99.75"/>
</a>
</g>
</g>
<!-- Node3 -->
<g id="Node000003" class="node">
<title>Node3</title>
<g id="a_Node000003"><a xlink:href="class_i_castable.html" target="_top" xlink:title=" ">
<polygon fill="white" stroke="#666666" points="87,-184 25,-184 25,-165 87,-165 87,-184"/>
<text text-anchor="middle" x="56" y="-172" font-family="Helvetica,sans-Serif" font-size="10.00">ICastable</text>
</a>
</g>
</g>
<!-- Node3&#45;&gt;Node2 -->
<g id="edge2_Node000002_Node000003" class="edge">
<title>Node3&#45;&gt;Node2</title>
<g id="a_edge2_Node000002_Node000003"><a xlink:title=" ">
<path fill="none" stroke="#63b8ff" d="M56,-154.66C56,-145.93 56,-135.99 56,-129.09"/>
<polygon fill="#63b8ff" stroke="#63b8ff" points="52.5,-154.75 56,-164.75 59.5,-154.75 52.5,-154.75"/>
</a>
</g>
</g>
<!-- Node4 -->
<g id="Node000004" class="node">
<title>Node4</title>
<g id="a_Node000004"><a xlink:href="struct_r_t_t_i_1_1_base.html" target="_top" xlink:title=" ">
<polygon fill="white" stroke="#bfbfbf" points="90,-239 22,-239 22,-220 90,-220 90,-239"/>
<text text-anchor="middle" x="56" y="-227" font-family="Helvetica,sans-Serif" font-size="10.00">RTTI::Base</text>
</a>
</g>
</g>
<!-- Node4&#45;&gt;Node3 -->
<g id="edge3_Node000003_Node000004" class="edge">
<title>Node4&#45;&gt;Node3</title>
<g id="a_edge3_Node000003_Node000004"><a xlink:title=" ">
<path fill="none" stroke="#63b8ff" d="M56,-209.66C56,-200.93 56,-190.99 56,-184.09"/>
<polygon fill="#63b8ff" stroke="#63b8ff" points="52.5,-209.75 56,-219.75 59.5,-209.75 52.5,-209.75"/>
</a>
</g>
</g>
</g>
</svg>
