<?xml version="1.0" encoding="UTF-8" standalone="no"?>
<!DOCTYPE svg PUBLIC "-//W3C//DTD SVG 1.1//EN"
 "http://www.w3.org/Graphics/SVG/1.1/DTD/svg11.dtd">
<!-- Generated by graphviz version 2.43.0 (0)
 -->
<!-- Title: EBPF::EBPFEgressPipeline Pages: 1 -->
<svg width="294pt" height="357pt"
 viewBox="0.00 0.00 294.00 357.00" xmlns="http://www.w3.org/2000/svg" xmlns:xlink="http://www.w3.org/1999/xlink">

<svg id="main" version="1.1" xmlns="http://www.w3.org/2000/svg" xmlns:xlink="http://www.w3.org/1999/xlink" xml:space="preserve" onload="init(evt)">
<style type="text/css"><![CDATA[
.node, .edge {opacity: 0.7;}
.node.selected, .edge.selected {opacity: 1;}
.edge:hover path { stroke: red; }
.edge:hover polygon { stroke: red; fill: red; }
]]></style>
<script type="application/ecmascript" xlink:href="svg.min.js"/>
<svg id="graph" class="graph">
<g id="graph0" class="graph" transform="scale(1 1) rotate(0) translate(4 353)">
<title>EBPF::EBPFEgressPipeline</title>
<!-- Node1 -->
<g id="Node000001" class="node">
<title>Node1</title>
<g id="a_Node000001"><a xlink:title=" ">
<polygon fill="#999999" stroke="#666666" points="212.5,-74 69.5,-74 69.5,-55 212.5,-55 212.5,-74"/>
<text text-anchor="middle" x="141" y="-62" font-family="Helvetica,sans-Serif" font-size="10.00">EBPF::EBPFEgressPipeline</text>
</a>
</g>
</g>
<!-- Node7 -->
<g id="Node000007" class="node">
<title>Node7</title>
<g id="a_Node000007"><a xlink:href="class_e_b_p_f_1_1_t_c_egress_pipeline.html" target="_top" xlink:title=" ">
<polygon fill="white" stroke="#bfbfbf" points="130,-19 0,-19 0,0 130,0 130,-19"/>
<text text-anchor="middle" x="65" y="-7" font-family="Helvetica,sans-Serif" font-size="10.00">EBPF::TCEgressPipeline</text>
</a>
</g>
</g>
<!-- Node1&#45;&gt;Node7 -->
<g id="edge6_Node000001_Node000007" class="edge">
<title>Node1&#45;&gt;Node7</title>
<g id="a_edge6_Node000001_Node000007"><a xlink:title=" ">
<path fill="none" stroke="#63b8ff" d="M120.42,-49.15C106.69,-39.57 89.07,-27.29 77.43,-19.17"/>
<polygon fill="#63b8ff" stroke="#63b8ff" points="118.58,-52.14 128.79,-54.98 122.59,-46.39 118.58,-52.14"/>
</a>
</g>
</g>
<!-- Node8 -->
<g id="Node000008" class="node">
<title>Node8</title>
<g id="a_Node000008"><a xlink:href="class_e_b_p_f_1_1_x_d_p_egress_pipeline.html" target="_top" xlink:title=" ">
<polygon fill="white" stroke="#bfbfbf" points="286,-19 148,-19 148,0 286,0 286,-19"/>
<text text-anchor="middle" x="217" y="-7" font-family="Helvetica,sans-Serif" font-size="10.00">EBPF::XDPEgressPipeline</text>
</a>
</g>
</g>
<!-- Node1&#45;&gt;Node8 -->
<g id="edge7_Node000001_Node000008" class="edge">
<title>Node1&#45;&gt;Node8</title>
<g id="a_edge7_Node000001_Node000008"><a xlink:title=" ">
<path fill="none" stroke="#63b8ff" d="M161.58,-49.15C175.31,-39.57 192.93,-27.29 204.57,-19.17"/>
<polygon fill="#63b8ff" stroke="#63b8ff" points="159.41,-46.39 153.21,-54.98 163.42,-52.14 159.41,-46.39"/>
</a>
</g>
</g>
<!-- Node2 -->
<g id="Node000002" class="node">
<title>Node2</title>
<g id="a_Node000002"><a xlink:href="class_e_b_p_f_1_1_e_b_p_f_pipeline.html" target="_top" xlink:title="EBPFPipeline represents a single eBPF program in the TC/XDP hook.">
<polygon fill="white" stroke="#666666" points="196,-129 86,-129 86,-110 196,-110 196,-129"/>
<text text-anchor="middle" x="141" y="-117" font-family="Helvetica,sans-Serif" font-size="10.00">EBPF::EBPFPipeline</text>
</a>
</g>
</g>
<!-- Node2&#45;&gt;Node1 -->
<g id="edge1_Node000001_Node000002" class="edge">
<title>Node2&#45;&gt;Node1</title>
<g id="a_edge1_Node000001_Node000002"><a xlink:title=" ">
<path fill="none" stroke="#63b8ff" d="M141,-99.66C141,-90.93 141,-80.99 141,-74.09"/>
<polygon fill="#63b8ff" stroke="#63b8ff" points="137.5,-99.75 141,-109.75 144.5,-99.75 137.5,-99.75"/>
</a>
</g>
</g>
<!-- Node3 -->
<g id="Node000003" class="node">
<title>Node3</title>
<g id="a_Node000003"><a xlink:href="class_e_b_p_f_1_1_e_b_p_f_program.html" target="_top" xlink:title=" ">
<polygon fill="white" stroke="#bfbfbf" points="197.5,-184 84.5,-184 84.5,-165 197.5,-165 197.5,-184"/>
<text text-anchor="middle" x="141" y="-172" font-family="Helvetica,sans-Serif" font-size="10.00">EBPF::EBPFProgram</text>
</a>
</g>
</g>
<!-- Node3&#45;&gt;Node2 -->
<g id="edge2_Node000002_Node000003" class="edge">
<title>Node3&#45;&gt;Node2</title>
<g id="a_edge2_Node000002_Node000003"><a xlink:title=" ">
<path fill="none" stroke="#63b8ff" d="M141,-154.66C141,-145.93 141,-135.99 141,-129.09"/>
<polygon fill="#63b8ff" stroke="#63b8ff" points="137.5,-154.75 141,-164.75 144.5,-154.75 137.5,-154.75"/>
</a>
</g>
</g>
<!-- Node4 -->
<g id="Node000004" class="node">
<title>Node4</title>
<g id="a_Node000004"><a xlink:href="class_e_b_p_f_1_1_e_b_p_f_object.html" target="_top" xlink:title="Base class for EBPF objects.">
<polygon fill="white" stroke="#666666" points="192.5,-239 89.5,-239 89.5,-220 192.5,-220 192.5,-239"/>
<text text-anchor="middle" x="141" y="-227" font-family="Helvetica,sans-Serif" font-size="10.00">EBPF::EBPFObject</text>
</a>
</g>
</g>
<!-- Node4&#45;&gt;Node3 -->
<g id="edge3_Node000003_Node000004" class="edge">
<title>Node4&#45;&gt;Node3</title>
<g id="a_edge3_Node000003_Node000004"><a xlink:title=" ">
<path fill="none" stroke="#63b8ff" d="M141,-209.66C141,-200.93 141,-190.99 141,-184.09"/>
<polygon fill="#63b8ff" stroke="#63b8ff" points="137.5,-209.75 141,-219.75 144.5,-209.75 137.5,-209.75"/>
</a>
</g>
</g>
<!-- Node5 -->
<g id="Node000005" class="node">
<title>Node5</title>
<g id="a_Node000005"><a xlink:href="class_i_castable.html" target="_top" xlink:title=" ">
<polygon fill="white" stroke="#666666" points="172,-294 110,-294 110,-275 172,-275 172,-294"/>
<text text-anchor="middle" x="141" y="-282" font-family="Helvetica,sans-Serif" font-size="10.00">ICastable</text>
</a>
</g>
</g>
<!-- Node5&#45;&gt;Node4 -->
<g id="edge4_Node000004_Node000005" class="edge">
<title>Node5&#45;&gt;Node4</title>
<g id="a_edge4_Node000004_Node000005"><a xlink:title=" ">
<path fill="none" stroke="#63b8ff" d="M141,-264.66C141,-255.93 141,-245.99 141,-239.09"/>
<polygon fill="#63b8ff" stroke="#63b8ff" points="137.5,-264.75 141,-274.75 144.5,-264.75 137.5,-264.75"/>
</a>
</g>
</g>
<!-- Node6 -->
<g id="Node000006" class="node">
<title>Node6</title>
<g id="a_Node000006"><a xlink:href="struct_r_t_t_i_1_1_base.html" target="_top" xlink:title=" ">
<polygon fill="white" stroke="#bfbfbf" points="175,-349 107,-349 107,-330 175,-330 175,-349"/>
<text text-anchor="middle" x="141" y="-337" font-family="Helvetica,sans-Serif" font-size="10.00">RTTI::Base</text>
</a>
</g>
</g>
<!-- Node6&#45;&gt;Node5 -->
<g id="edge5_Node000005_Node000006" class="edge">
<title>Node6&#45;&gt;Node5</title>
<g id="a_edge5_Node000005_Node000006"><a xlink:title=" ">
<path fill="none" stroke="#63b8ff" d="M141,-319.66C141,-310.93 141,-300.99 141,-294.09"/>
<polygon fill="#63b8ff" stroke="#63b8ff" points="137.5,-319.75 141,-329.75 144.5,-319.75 137.5,-319.75"/>
</a>
</g>
</g>
</g>
</svg>
</svg>

<style type='text/css'>
<![CDATA[
[data-mouse-over-selected='false'] { opacity: 0.7; }
[data-mouse-over-selected='true']  { opacity: 1.0; }
]]>
</style>
<script type="application/ecmascript"><![CDATA[
document.addEventListener('DOMContentLoaded', (event) => {
  highlightEdges();
  highlightAdjacentNodes();
});
]]></script>
</svg>
