<?xml version="1.0" encoding="UTF-8" standalone="no"?>
<!DOCTYPE svg PUBLIC "-//W3C//DTD SVG 1.1//EN"
 "http://www.w3.org/Graphics/SVG/1.1/DTD/svg11.dtd">
<!-- Generated by graphviz version 2.43.0 (0)
 -->
<!-- Title: Graphical Class Hierarchy Pages: 1 -->
<svg width="273pt" height="101pt"
 viewBox="0.00 0.00 273.00 101.00" xmlns="http://www.w3.org/2000/svg" xmlns:xlink="http://www.w3.org/1999/xlink">
<g id="graph0" class="graph" transform="scale(1 1) rotate(0) translate(4 97)">
<title>Graphical Class Hierarchy</title>
<!-- Node0 -->
<g id="Node000000" class="node">
<title>Node0</title>
<g id="a_Node000000"><a xlink:href="class_d_b_print_1_1setflags__helper.html" target="_top" xlink:title=" ">
<polygon fill="white" stroke="#666666" points="134,-56 0,-56 0,-37 134,-37 134,-56"/>
<text text-anchor="middle" x="67" y="-44" font-family="Helvetica,sans-Serif" font-size="10.00">DBPrint::setflags_helper</text>
</a>
</g>
</g>
<!-- Node1 -->
<g id="Node000001" class="node">
<title>Node1</title>
<g id="a_Node000001"><a xlink:href="struct_d_b_print_1_1clrflag.html" target="_top" xlink:title=" ">
<polygon fill="white" stroke="#666666" points="262,-93 173,-93 173,-74 262,-74 262,-93"/>
<text text-anchor="middle" x="217.5" y="-81" font-family="Helvetica,sans-Serif" font-size="10.00">DBPrint::clrflag</text>
</a>
</g>
</g>
<!-- Node0&#45;&gt;Node1 -->
<g id="edge18_Node000000_Node000001" class="edge">
<title>Node0&#45;&gt;Node1</title>
<g id="a_edge18_Node000000_Node000001"><a xlink:title=" ">
<path fill="none" stroke="#63b8ff" d="M116.14,-58.49C136.22,-63.5 159.22,-69.23 178.13,-73.94"/>
<polygon fill="#63b8ff" stroke="#63b8ff" points="116.79,-55.05 106.24,-56.03 115.1,-61.84 116.79,-55.05"/>
</a>
</g>
</g>
<!-- Node2 -->
<g id="Node000002" class="node">
<title>Node2</title>
<g id="a_Node000002"><a xlink:href="struct_d_b_print_1_1setflag.html" target="_top" xlink:title=" ">
<polygon fill="white" stroke="#666666" points="263.5,-56 171.5,-56 171.5,-37 263.5,-37 263.5,-56"/>
<text text-anchor="middle" x="217.5" y="-44" font-family="Helvetica,sans-Serif" font-size="10.00">DBPrint::setflag</text>
</a>
</g>
</g>
<!-- Node0&#45;&gt;Node2 -->
<g id="edge19_Node000000_Node000002" class="edge">
<title>Node0&#45;&gt;Node2</title>
<g id="a_edge19_Node000000_Node000002"><a xlink:title=" ">
<path fill="none" stroke="#63b8ff" d="M144.44,-46.5C153.67,-46.5 162.85,-46.5 171.42,-46.5"/>
<polygon fill="#63b8ff" stroke="#63b8ff" points="144.43,-43 134.43,-46.5 144.43,-50 144.43,-43"/>
</a>
</g>
</g>
<!-- Node3 -->
<g id="Node000003" class="node">
<title>Node3</title>
<g id="a_Node000003"><a xlink:href="struct_d_b_print_1_1setprec.html" target="_top" xlink:title=" ">
<polygon fill="white" stroke="#666666" points="265,-19 170,-19 170,0 265,0 265,-19"/>
<text text-anchor="middle" x="217.5" y="-7" font-family="Helvetica,sans-Serif" font-size="10.00">DBPrint::setprec</text>
</a>
</g>
</g>
<!-- Node0&#45;&gt;Node3 -->
<g id="edge20_Node000000_Node000003" class="edge">
<title>Node0&#45;&gt;Node3</title>
<g id="a_edge20_Node000000_Node000003"><a xlink:title=" ">
<path fill="none" stroke="#63b8ff" d="M116.14,-34.51C136.22,-29.5 159.22,-23.77 178.13,-19.06"/>
<polygon fill="#63b8ff" stroke="#63b8ff" points="115.1,-31.16 106.24,-36.97 116.79,-37.95 115.1,-31.16"/>
</a>
</g>
</g>
</g>
</svg>
