<?xml version="1.0" encoding="UTF-8" standalone="no"?>
<!DOCTYPE svg PUBLIC "-//W3C//DTD SVG 1.1//EN"
 "http://www.w3.org/Graphics/SVG/1.1/DTD/svg11.dtd">
<!-- Generated by graphviz version 2.43.0 (0)
 -->
<!-- Title: BMV2::Standard::ActionProfileTraits&lt; Arch::V1MODEL2020 &gt; Pages: 1 -->
<svg width="179pt" height="170pt"
 viewBox="0.00 0.00 179.00 170.00" xmlns="http://www.w3.org/2000/svg" xmlns:xlink="http://www.w3.org/1999/xlink">
<g id="graph0" class="graph" transform="scale(1 1) rotate(0) translate(4 166)">
<title>BMV2::Standard::ActionProfileTraits&lt; Arch::V1MODEL2020 &gt;</title>
<!-- Node1 -->
<g id="Node000001" class="node">
<title>Node1</title>
<g id="a_Node000001"><a xlink:title=" ">
<polygon fill="#999999" stroke="#666666" points="168,-96 3,-96 3,-66 168,-66 168,-96"/>
<text text-anchor="start" x="11" y="-84" font-family="Helvetica,sans-Serif" font-size="10.00">BMV2::Standard::ActionProfile</text>
<text text-anchor="middle" x="85.5" y="-73" font-family="Helvetica,sans-Serif" font-size="10.00">Traits&lt; Arch::V1MODEL2020 &gt;</text>
</a>
</g>
</g>
<!-- Node3 -->
<g id="Node000003" class="node">
<title>Node3</title>
<g id="a_Node000003"><a xlink:href="struct_b_m_v2_1_1_standard_1_1_action_selector_traits_3_01_arch_1_1_v1_m_o_d_e_l2020_01_4.html" target="_top" xlink:title=" ">
<polygon fill="white" stroke="#bfbfbf" points="171,-30 0,-30 0,0 171,0 171,-30"/>
<text text-anchor="start" x="8" y="-18" font-family="Helvetica,sans-Serif" font-size="10.00">BMV2::Standard::ActionSelector</text>
<text text-anchor="middle" x="85.5" y="-7" font-family="Helvetica,sans-Serif" font-size="10.00">Traits&lt; Arch::V1MODEL2020 &gt;</text>
</a>
</g>
</g>
<!-- Node1&#45;&gt;Node3 -->
<g id="edge2_Node000001_Node000003" class="edge">
<title>Node1&#45;&gt;Node3</title>
<g id="a_edge2_Node000001_Node000003"><a xlink:title=" ">
<path fill="none" stroke="#63b8ff" d="M85.5,-55.54C85.5,-46.96 85.5,-37.61 85.5,-30.16"/>
<polygon fill="#63b8ff" stroke="#63b8ff" points="82,-55.8 85.5,-65.8 89,-55.8 82,-55.8"/>
</a>
</g>
</g>
<!-- Node2 -->
<g id="Node000002" class="node">
<title>Node2</title>
<g id="a_Node000002"><a xlink:href="struct_b_m_v2_1_1_standard_1_1_action_profile_traits_3_01_arch_1_1_v1_m_o_d_e_l_01_4.html" target="_top" xlink:title=" ">
<polygon fill="white" stroke="#bfbfbf" points="166.5,-162 4.5,-162 4.5,-132 166.5,-132 166.5,-162"/>
<text text-anchor="start" x="12.5" y="-150" font-family="Helvetica,sans-Serif" font-size="10.00">BMV2::Standard::ActionProfile</text>
<text text-anchor="middle" x="85.5" y="-139" font-family="Helvetica,sans-Serif" font-size="10.00">Traits&lt; Arch::V1MODEL &gt;</text>
</a>
</g>
</g>
<!-- Node2&#45;&gt;Node1 -->
<g id="edge1_Node000001_Node000002" class="edge">
<title>Node2&#45;&gt;Node1</title>
<g id="a_edge1_Node000001_Node000002"><a xlink:title=" ">
<path fill="none" stroke="#63b8ff" d="M85.5,-121.54C85.5,-112.96 85.5,-103.61 85.5,-96.16"/>
<polygon fill="#63b8ff" stroke="#63b8ff" points="82,-121.8 85.5,-131.8 89,-121.8 82,-121.8"/>
</a>
</g>
</g>
</g>
</svg>
