<?xml version="1.0" encoding="UTF-8" standalone="no"?>
<!DOCTYPE svg PUBLIC "-//W3C//DTD SVG 1.1//EN"
 "http://www.w3.org/Graphics/SVG/1.1/DTD/svg11.dtd">
<!-- Generated by graphviz version 2.43.0 (0)
 -->
<!-- Title: Model::Enum_Model Pages: 1 -->
<svg width="562pt" height="175pt"
 viewBox="0.00 0.00 562.00 175.00" xmlns="http://www.w3.org/2000/svg" xmlns:xlink="http://www.w3.org/1999/xlink">
<g id="graph0" class="graph" transform="scale(1 1) rotate(0) translate(4 171)">
<title>Model::Enum_Model</title>
<!-- Node1 -->
<g id="Node000001" class="node">
<title>Node1</title>
<g id="a_Node000001"><a xlink:title="Enum_Model : Type_Model.">
<polygon fill="#999999" stroke="#666666" points="375,-93 259,-93 259,-74 375,-74 375,-93"/>
<text text-anchor="middle" x="317" y="-81" font-family="Helvetica,sans-Serif" font-size="10.00">Model::Enum_Model</text>
</a>
</g>
</g>
<!-- Node4 -->
<g id="Node000004" class="node">
<title>Node4</title>
<g id="a_Node000004"><a xlink:href="struct_p4_v1_1_1_algorithm___model.html" target="_top" xlink:title=" ">
<polygon fill="white" stroke="#bfbfbf" points="548,-167 417,-167 417,-148 548,-148 548,-167"/>
<text text-anchor="middle" x="482.5" y="-155" font-family="Helvetica,sans-Serif" font-size="10.00">P4V1::Algorithm_Model</text>
</a>
</g>
</g>
<!-- Node1&#45;&gt;Node4 -->
<g id="edge3_Node000001_Node000004" class="edge">
<title>Node1&#45;&gt;Node4</title>
<g id="a_edge3_Node000001_Node000004"><a xlink:title=" ">
<path fill="none" stroke="#63b8ff" d="M339.64,-99.03C357.89,-111.51 385.12,-128.68 411,-139.5 418.93,-142.81 427.61,-145.64 436.1,-148"/>
<polygon fill="#63b8ff" stroke="#63b8ff" points="341.41,-96 331.2,-93.16 337.41,-101.75 341.41,-96"/>
</a>
</g>
</g>
<!-- Node5 -->
<g id="Node000005" class="node">
<title>Node5</title>
<g id="a_Node000005"><a xlink:href="struct_p4_v1_1_1_clone_type___model.html" target="_top" xlink:title=" ">
<polygon fill="white" stroke="#bfbfbf" points="549,-130 416,-130 416,-111 549,-111 549,-130"/>
<text text-anchor="middle" x="482.5" y="-118" font-family="Helvetica,sans-Serif" font-size="10.00">P4V1::CloneType_Model</text>
</a>
</g>
</g>
<!-- Node1&#45;&gt;Node5 -->
<g id="edge4_Node000001_Node000005" class="edge">
<title>Node1&#45;&gt;Node5</title>
<g id="a_edge4_Node000001_Node000005"><a xlink:title=" ">
<path fill="none" stroke="#63b8ff" d="M370.09,-95.29C392.41,-100.34 418.15,-106.16 439.25,-110.94"/>
<polygon fill="#63b8ff" stroke="#63b8ff" points="370.63,-91.82 360.11,-93.03 369.09,-98.65 370.63,-91.82"/>
</a>
</g>
</g>
<!-- Node6 -->
<g id="Node000006" class="node">
<title>Node6</title>
<g id="a_Node000006"><a xlink:href="struct_p4_v1_1_1_counter_type___model.html" target="_top" xlink:title=" ">
<polygon fill="white" stroke="#bfbfbf" points="554,-93 411,-93 411,-74 554,-74 554,-93"/>
<text text-anchor="middle" x="482.5" y="-81" font-family="Helvetica,sans-Serif" font-size="10.00">P4V1::CounterType_Model</text>
</a>
</g>
</g>
<!-- Node1&#45;&gt;Node6 -->
<g id="edge5_Node000001_Node000006" class="edge">
<title>Node1&#45;&gt;Node6</title>
<g id="a_edge5_Node000001_Node000006"><a xlink:title=" ">
<path fill="none" stroke="#63b8ff" d="M385.32,-83.5C393.74,-83.5 402.36,-83.5 410.83,-83.5"/>
<polygon fill="#63b8ff" stroke="#63b8ff" points="385.18,-80 375.18,-83.5 385.18,-87 385.18,-80"/>
</a>
</g>
</g>
<!-- Node7 -->
<g id="Node000007" class="node">
<title>Node7</title>
<g id="a_Node000007"><a xlink:href="struct_p4_v1_1_1_meter_type___model.html" target="_top" xlink:title=" ">
<polygon fill="white" stroke="#bfbfbf" points="549.5,-56 415.5,-56 415.5,-37 549.5,-37 549.5,-56"/>
<text text-anchor="middle" x="482.5" y="-44" font-family="Helvetica,sans-Serif" font-size="10.00">P4V1::MeterType_Model</text>
</a>
</g>
</g>
<!-- Node1&#45;&gt;Node7 -->
<g id="edge6_Node000001_Node000007" class="edge">
<title>Node1&#45;&gt;Node7</title>
<g id="a_edge6_Node000001_Node000007"><a xlink:title=" ">
<path fill="none" stroke="#63b8ff" d="M370.09,-71.71C392.41,-66.66 418.15,-60.84 439.25,-56.06"/>
<polygon fill="#63b8ff" stroke="#63b8ff" points="369.09,-68.35 360.11,-73.97 370.63,-75.18 369.09,-68.35"/>
</a>
</g>
</g>
<!-- Node8 -->
<g id="Node000008" class="node">
<title>Node8</title>
<g id="a_Node000008"><a xlink:href="struct_u_b_p_f_1_1_algorithm___model.html" target="_top" xlink:title=" ">
<polygon fill="white" stroke="#bfbfbf" points="548,-19 417,-19 417,0 548,0 548,-19"/>
<text text-anchor="middle" x="482.5" y="-7" font-family="Helvetica,sans-Serif" font-size="10.00">UBPF::Algorithm_Model</text>
</a>
</g>
</g>
<!-- Node1&#45;&gt;Node8 -->
<g id="edge7_Node000001_Node000008" class="edge">
<title>Node1&#45;&gt;Node8</title>
<g id="a_edge7_Node000001_Node000008"><a xlink:title=" ">
<path fill="none" stroke="#63b8ff" d="M339.64,-67.97C357.89,-55.49 385.12,-38.32 411,-27.5 418.93,-24.19 427.61,-21.36 436.1,-19"/>
<polygon fill="#63b8ff" stroke="#63b8ff" points="337.41,-65.25 331.2,-73.84 341.41,-71 337.41,-65.25"/>
</a>
</g>
</g>
<!-- Node2 -->
<g id="Node000002" class="node">
<title>Node2</title>
<g id="a_Node000002"><a xlink:href="struct_model_1_1_type___model.html" target="_top" xlink:title=" ">
<polygon fill="white" stroke="#bfbfbf" points="223,-93 113,-93 113,-74 223,-74 223,-93"/>
<text text-anchor="middle" x="168" y="-81" font-family="Helvetica,sans-Serif" font-size="10.00">Model::Type_Model</text>
</a>
</g>
</g>
<!-- Node2&#45;&gt;Node1 -->
<g id="edge1_Node000001_Node000002" class="edge">
<title>Node2&#45;&gt;Node1</title>
<g id="a_edge1_Node000001_Node000002"><a xlink:title=" ">
<path fill="none" stroke="#63b8ff" d="M233.53,-83.5C242,-83.5 250.62,-83.5 258.95,-83.5"/>
<polygon fill="#63b8ff" stroke="#63b8ff" points="233.32,-80 223.32,-83.5 233.32,-87 233.32,-80"/>
</a>
</g>
</g>
<!-- Node3 -->
<g id="Node000003" class="node">
<title>Node3</title>
<g id="a_Node000003"><a xlink:href="struct_model_1_1_elem.html" target="_top" xlink:title=" ">
<polygon fill="white" stroke="#bfbfbf" points="77,-93 0,-93 0,-74 77,-74 77,-93"/>
<text text-anchor="middle" x="38.5" y="-81" font-family="Helvetica,sans-Serif" font-size="10.00">Model::Elem</text>
</a>
</g>
</g>
<!-- Node3&#45;&gt;Node2 -->
<g id="edge2_Node000002_Node000003" class="edge">
<title>Node3&#45;&gt;Node2</title>
<g id="a_edge2_Node000002_Node000003"><a xlink:title=" ">
<path fill="none" stroke="#63b8ff" d="M87.31,-83.5C95.59,-83.5 104.26,-83.5 112.7,-83.5"/>
<polygon fill="#63b8ff" stroke="#63b8ff" points="87.06,-80 77.06,-83.5 87.06,-87 87.06,-80"/>
</a>
</g>
</g>
</g>
</svg>
