<?xml version="1.0" encoding="UTF-8" standalone="no"?>
<!DOCTYPE svg PUBLIC "-//W3C//DTD SVG 1.1//EN"
 "http://www.w3.org/Graphics/SVG/1.1/DTD/svg11.dtd">
<!-- Generated by graphviz version 2.43.0 (0)
 -->
<!-- Title: P4::BMV2::CFG::Node Pages: 1 -->
<svg width="478pt" height="192pt"
 viewBox="0.00 0.00 478.00 192.00" xmlns="http://www.w3.org/2000/svg" xmlns:xlink="http://www.w3.org/1999/xlink">
<g id="graph0" class="graph" transform="scale(1 1) rotate(0) translate(4 188)">
<title>P4::BMV2::CFG::Node</title>
<!-- Node1 -->
<g id="Node000001" class="node">
<title>Node1</title>
<g id="a_Node000001"><a xlink:title=" ">
<polygon fill="#999999" stroke="#666666" points="302.5,-74 181.5,-74 181.5,-55 302.5,-55 302.5,-74"/>
<text text-anchor="middle" x="242" y="-62" font-family="Helvetica,sans-Serif" font-size="10.00">P4::BMV2::CFG::Node</text>
</a>
</g>
</g>
<!-- Node5 -->
<g id="Node000005" class="node">
<title>Node5</title>
<g id="a_Node000005"><a xlink:href="class_p4_1_1_b_m_v2_1_1_c_f_g_1_1_dummy_node.html" target="_top" xlink:title=" ">
<polygon fill="white" stroke="#bfbfbf" points="160,-19 0,-19 0,0 160,0 160,-19"/>
<text text-anchor="middle" x="80" y="-7" font-family="Helvetica,sans-Serif" font-size="10.00">P4::BMV2::CFG::DummyNode</text>
</a>
</g>
</g>
<!-- Node1&#45;&gt;Node5 -->
<g id="edge4_Node000001_Node000005" class="edge">
<title>Node1&#45;&gt;Node5</title>
<g id="a_edge4_Node000001_Node000005"><a xlink:title=" ">
<path fill="none" stroke="#63b8ff" d="M206.23,-51.8C176,-41.91 133.39,-27.97 106.23,-19.08"/>
<polygon fill="#63b8ff" stroke="#63b8ff" points="205.38,-55.2 215.97,-54.98 207.56,-48.55 205.38,-55.2"/>
</a>
</g>
</g>
<!-- Node6 -->
<g id="Node000006" class="node">
<title>Node6</title>
<g id="a_Node000006"><a xlink:href="class_p4_1_1_b_m_v2_1_1_c_f_g_1_1_if_node.html" target="_top" xlink:title=" ">
<polygon fill="white" stroke="#bfbfbf" points="306,-19 178,-19 178,0 306,0 306,-19"/>
<text text-anchor="middle" x="242" y="-7" font-family="Helvetica,sans-Serif" font-size="10.00">P4::BMV2::CFG::IfNode</text>
</a>
</g>
</g>
<!-- Node1&#45;&gt;Node6 -->
<g id="edge5_Node000001_Node000006" class="edge">
<title>Node1&#45;&gt;Node6</title>
<g id="a_edge5_Node000001_Node000006"><a xlink:title=" ">
<path fill="none" stroke="#63b8ff" d="M242,-44.66C242,-35.93 242,-25.99 242,-19.09"/>
<polygon fill="#63b8ff" stroke="#63b8ff" points="238.5,-44.75 242,-54.75 245.5,-44.75 238.5,-44.75"/>
</a>
</g>
</g>
<!-- Node7 -->
<g id="Node000007" class="node">
<title>Node7</title>
<g id="a_Node000007"><a xlink:href="class_p4_1_1_b_m_v2_1_1_c_f_g_1_1_table_node.html" target="_top" xlink:title=" ">
<polygon fill="white" stroke="#bfbfbf" points="470,-19 324,-19 324,0 470,0 470,-19"/>
<text text-anchor="middle" x="397" y="-7" font-family="Helvetica,sans-Serif" font-size="10.00">P4::BMV2::CFG::TableNode</text>
</a>
</g>
</g>
<!-- Node1&#45;&gt;Node7 -->
<g id="edge6_Node000001_Node000007" class="edge">
<title>Node1&#45;&gt;Node7</title>
<g id="a_edge6_Node000001_Node000007"><a xlink:title=" ">
<path fill="none" stroke="#63b8ff" d="M276.6,-51.67C305.5,-41.79 346.03,-27.93 371.9,-19.08"/>
<polygon fill="#63b8ff" stroke="#63b8ff" points="275.23,-48.44 266.9,-54.98 277.5,-55.06 275.23,-48.44"/>
</a>
</g>
</g>
<!-- Node2 -->
<g id="Node000002" class="node">
<title>Node2</title>
<g id="a_Node000002"><a xlink:href="class_p4_1_1_i_has_db_print.html" target="_top" xlink:title=" ">
<polygon fill="white" stroke="#bfbfbf" points="236,-129 144,-129 144,-110 236,-110 236,-129"/>
<text text-anchor="middle" x="190" y="-117" font-family="Helvetica,sans-Serif" font-size="10.00">P4::IHasDbPrint</text>
</a>
</g>
</g>
<!-- Node2&#45;&gt;Node1 -->
<g id="edge1_Node000001_Node000002" class="edge">
<title>Node2&#45;&gt;Node1</title>
<g id="a_edge1_Node000001_Node000002"><a xlink:title=" ">
<path fill="none" stroke="#63b8ff" d="M205.68,-102.52C214.84,-93.18 226.05,-81.75 233.57,-74.09"/>
<polygon fill="#63b8ff" stroke="#63b8ff" points="203.09,-100.16 198.59,-109.75 208.09,-105.06 203.09,-100.16"/>
</a>
</g>
</g>
<!-- Node3 -->
<g id="Node000003" class="node">
<title>Node3</title>
<g id="a_Node000003"><a xlink:href="class_p4_1_1_i_castable.html" target="_top" xlink:title=" ">
<polygon fill="white" stroke="#666666" points="334,-129 254,-129 254,-110 334,-110 334,-129"/>
<text text-anchor="middle" x="294" y="-117" font-family="Helvetica,sans-Serif" font-size="10.00">P4::ICastable</text>
</a>
</g>
</g>
<!-- Node3&#45;&gt;Node1 -->
<g id="edge2_Node000001_Node000003" class="edge">
<title>Node3&#45;&gt;Node1</title>
<g id="a_edge2_Node000001_Node000003"><a xlink:title=" ">
<path fill="none" stroke="#63b8ff" d="M278.32,-102.52C269.16,-93.18 257.95,-81.75 250.43,-74.09"/>
<polygon fill="#63b8ff" stroke="#63b8ff" points="275.91,-105.06 285.41,-109.75 280.91,-100.16 275.91,-105.06"/>
</a>
</g>
</g>
<!-- Node4 -->
<g id="Node000004" class="node">
<title>Node4</title>
<g id="a_Node000004"><a xlink:href="struct_p4_1_1_r_t_t_i_1_1_base.html" target="_top" xlink:title=" ">
<polygon fill="white" stroke="#bfbfbf" points="337,-184 251,-184 251,-165 337,-165 337,-184"/>
<text text-anchor="middle" x="294" y="-172" font-family="Helvetica,sans-Serif" font-size="10.00">P4::RTTI::Base</text>
</a>
</g>
</g>
<!-- Node4&#45;&gt;Node3 -->
<g id="edge3_Node000003_Node000004" class="edge">
<title>Node4&#45;&gt;Node3</title>
<g id="a_edge3_Node000003_Node000004"><a xlink:title=" ">
<path fill="none" stroke="#63b8ff" d="M294,-154.66C294,-145.93 294,-135.99 294,-129.09"/>
<polygon fill="#63b8ff" stroke="#63b8ff" points="290.5,-154.75 294,-164.75 297.5,-154.75 290.5,-154.75"/>
</a>
</g>
</g>
</g>
</svg>
