<?xml version="1.0" encoding="UTF-8" standalone="no"?>
<!DOCTYPE svg PUBLIC "-//W3C//DTD SVG 1.1//EN"
 "http://www.w3.org/Graphics/SVG/1.1/DTD/svg11.dtd">
<!-- Generated by graphviz version 2.43.0 (0)
 -->
<!-- Title: Device Pages: 1 -->
<svg width="291pt" height="137pt"
 viewBox="0.00 0.00 290.50 137.00" xmlns="http://www.w3.org/2000/svg" xmlns:xlink="http://www.w3.org/1999/xlink">
<g id="graph0" class="graph" transform="scale(1 1) rotate(0) translate(4 133)">
<title>Device</title>
<!-- Node1 -->
<g id="Node000001" class="node">
<title>Node1</title>
<g id="a_Node000001"><a xlink:title=" ">
<polygon fill="#999999" stroke="#666666" points="215.5,-129 165.5,-129 165.5,-110 215.5,-110 215.5,-129"/>
<text text-anchor="middle" x="190.5" y="-117" font-family="Helvetica,sans-Serif" font-size="10.00">Device</text>
</a>
</g>
</g>
<!-- Node2 -->
<g id="Node000002" class="node">
<title>Node2</title>
<g id="a_Node000002"><a xlink:href="class_j_bay_device.html" target="_top" xlink:title=" ">
<polygon fill="white" stroke="#bfbfbf" points="179.5,-74 107.5,-74 107.5,-55 179.5,-55 179.5,-74"/>
<text text-anchor="middle" x="143.5" y="-62" font-family="Helvetica,sans-Serif" font-size="10.00">JBayDevice</text>
</a>
</g>
</g>
<!-- Node1&#45;&gt;Node2 -->
<g id="edge1_Node000001_Node000002" class="edge">
<title>Node1&#45;&gt;Node2</title>
<g id="a_edge1_Node000001_Node000002"><a xlink:title=" ">
<path fill="none" stroke="#63b8ff" d="M176.08,-102.24C167.84,-92.95 157.85,-81.68 151.12,-74.09"/>
<polygon fill="#63b8ff" stroke="#63b8ff" points="173.49,-104.59 182.74,-109.75 178.72,-99.94 173.49,-104.59"/>
</a>
</g>
</g>
<!-- Node6 -->
<g id="Node000006" class="node">
<title>Node6</title>
<g id="a_Node000006"><a xlink:href="class_tofino_device.html" target="_top" xlink:title=" ">
<polygon fill="white" stroke="#bfbfbf" points="277,-74 198,-74 198,-55 277,-55 277,-74"/>
<text text-anchor="middle" x="237.5" y="-62" font-family="Helvetica,sans-Serif" font-size="10.00">TofinoDevice</text>
</a>
</g>
</g>
<!-- Node1&#45;&gt;Node6 -->
<g id="edge5_Node000001_Node000006" class="edge">
<title>Node1&#45;&gt;Node6</title>
<g id="a_edge5_Node000001_Node000006"><a xlink:title=" ">
<path fill="none" stroke="#63b8ff" d="M204.92,-102.24C213.16,-92.95 223.15,-81.68 229.88,-74.09"/>
<polygon fill="#63b8ff" stroke="#63b8ff" points="202.28,-99.94 198.26,-109.75 207.51,-104.59 202.28,-99.94"/>
</a>
</g>
</g>
<!-- Node3 -->
<g id="Node000003" class="node">
<title>Node3</title>
<g id="a_Node000003"><a xlink:href="class_j_bay_a0_device.html" target="_top" xlink:title=" ">
<polygon fill="white" stroke="#bfbfbf" points="85,-19 0,-19 0,0 85,0 85,-19"/>
<text text-anchor="middle" x="42.5" y="-7" font-family="Helvetica,sans-Serif" font-size="10.00">JBayA0Device</text>
</a>
</g>
</g>
<!-- Node2&#45;&gt;Node3 -->
<g id="edge2_Node000002_Node000003" class="edge">
<title>Node2&#45;&gt;Node3</title>
<g id="a_edge2_Node000002_Node000003"><a xlink:title=" ">
<path fill="none" stroke="#63b8ff" d="M118.22,-50.23C99.7,-40.51 75.08,-27.6 59.02,-19.17"/>
<polygon fill="#63b8ff" stroke="#63b8ff" points="116.79,-53.44 127.27,-54.98 120.04,-47.24 116.79,-53.44"/>
</a>
</g>
</g>
<!-- Node4 -->
<g id="Node000004" class="node">
<title>Node4</title>
<g id="a_Node000004"><a xlink:href="class_j_bay_m_device.html" target="_top" xlink:title=" ">
<polygon fill="white" stroke="#666666" points="184,-19 103,-19 103,0 184,0 184,-19"/>
<text text-anchor="middle" x="143.5" y="-7" font-family="Helvetica,sans-Serif" font-size="10.00">JBayMDevice</text>
</a>
</g>
</g>
<!-- Node2&#45;&gt;Node4 -->
<g id="edge3_Node000002_Node000004" class="edge">
<title>Node2&#45;&gt;Node4</title>
<g id="a_edge3_Node000002_Node000004"><a xlink:title=" ">
<path fill="none" stroke="#63b8ff" d="M143.5,-44.66C143.5,-35.93 143.5,-25.99 143.5,-19.09"/>
<polygon fill="#63b8ff" stroke="#63b8ff" points="140,-44.75 143.5,-54.75 147,-44.75 140,-44.75"/>
</a>
</g>
</g>
<!-- Node5 -->
<g id="Node000005" class="node">
<title>Node5</title>
<g id="a_Node000005"><a xlink:href="class_j_bay_u_device.html" target="_top" xlink:title=" ">
<polygon fill="white" stroke="#bfbfbf" points="282.5,-19 202.5,-19 202.5,0 282.5,0 282.5,-19"/>
<text text-anchor="middle" x="242.5" y="-7" font-family="Helvetica,sans-Serif" font-size="10.00">JBayUDevice</text>
</a>
</g>
</g>
<!-- Node2&#45;&gt;Node5 -->
<g id="edge4_Node000002_Node000005" class="edge">
<title>Node2&#45;&gt;Node5</title>
<g id="a_edge4_Node000002_Node000005"><a xlink:title=" ">
<path fill="none" stroke="#63b8ff" d="M168.28,-50.23C186.44,-40.51 210.56,-27.6 226.3,-19.17"/>
<polygon fill="#63b8ff" stroke="#63b8ff" points="166.57,-47.18 159.41,-54.98 169.87,-53.35 166.57,-47.18"/>
</a>
</g>
</g>
</g>
</svg>
