<?xml version="1.0" encoding="UTF-8" standalone="no"?>
<!DOCTYPE svg PUBLIC "-//W3C//DTD SVG 1.1//EN"
 "http://www.w3.org/Graphics/SVG/1.1/DTD/svg11.dtd">
<!-- Generated by graphviz version 2.43.0 (0)
 -->
<!-- Title: P4::Model::Enum_Model Pages: 1 -->
<svg width="637pt" height="470pt"
 viewBox="0.00 0.00 637.00 470.00" xmlns="http://www.w3.org/2000/svg" xmlns:xlink="http://www.w3.org/1999/xlink">
<g id="graph0" class="graph" transform="scale(1 1) rotate(0) translate(4 466)">
<title>P4::Model::Enum_Model</title>
<!-- Node1 -->
<g id="Node000001" class="node">
<title>Node1</title>
<g id="a_Node000001"><a xlink:title="Enum_Model : Type_Model.">
<polygon fill="#999999" stroke="#666666" points="429,-240.5 295,-240.5 295,-221.5 429,-221.5 429,-240.5"/>
<text text-anchor="middle" x="362" y="-228.5" font-family="Helvetica,sans-Serif" font-size="10.00">P4::Model::Enum_Model</text>
</a>
</g>
</g>
<!-- Node4 -->
<g id="Node000004" class="node">
<title>Node4</title>
<g id="a_Node000004"><a xlink:href="struct_b_f_n_1_1_p_s_a_1_1_counter_type___model.html" target="_top" xlink:title=" ">
<polygon fill="white" stroke="#bfbfbf" points="611.5,-462 482.5,-462 482.5,-432 611.5,-432 611.5,-462"/>
<text text-anchor="start" x="490.5" y="-450" font-family="Helvetica,sans-Serif" font-size="10.00">BFN::PSA::CounterType</text>
<text text-anchor="middle" x="547" y="-439" font-family="Helvetica,sans-Serif" font-size="10.00">_Model</text>
</a>
</g>
</g>
<!-- Node1&#45;&gt;Node4 -->
<g id="edge3_Node000001_Node000004" class="edge">
<title>Node1&#45;&gt;Node4</title>
<g id="a_edge3_Node000001_Node000004"><a xlink:title=" ">
<path fill="none" stroke="#63b8ff" d="M367.94,-250.71C378.73,-289.6 408.08,-376.47 465,-423 470.22,-427.27 476.19,-430.78 482.45,-433.67"/>
<polygon fill="#63b8ff" stroke="#63b8ff" points="371.23,-249.45 365.29,-240.68 364.47,-251.24 371.23,-249.45"/>
</a>
</g>
</g>
<!-- Node5 -->
<g id="Node000005" class="node">
<title>Node5</title>
<g id="a_Node000005"><a xlink:href="struct_b_f_n_1_1_p_s_a_1_1_hash_algorithm_type___model.html" target="_top" xlink:title=" ">
<polygon fill="white" stroke="#bfbfbf" points="629,-414 465,-414 465,-384 629,-384 629,-414"/>
<text text-anchor="start" x="473" y="-402" font-family="Helvetica,sans-Serif" font-size="10.00">BFN::PSA::HashAlgorithmType</text>
<text text-anchor="middle" x="547" y="-391" font-family="Helvetica,sans-Serif" font-size="10.00">_Model</text>
</a>
</g>
</g>
<!-- Node1&#45;&gt;Node5 -->
<g id="edge4_Node000001_Node000005" class="edge">
<title>Node1&#45;&gt;Node5</title>
<g id="a_edge4_Node000001_Node000005"><a xlink:title=" ">
<path fill="none" stroke="#63b8ff" d="M371.32,-249.98C385.82,-280.86 418.67,-341.84 465,-375 469.77,-378.41 475.03,-381.35 480.5,-383.87"/>
<polygon fill="#63b8ff" stroke="#63b8ff" points="374.44,-248.4 367.11,-240.75 368.07,-251.3 374.44,-248.4"/>
</a>
</g>
</g>
<!-- Node6 -->
<g id="Node000006" class="node">
<title>Node6</title>
<g id="a_Node000006"><a xlink:href="struct_b_f_n_1_1_p_s_a_1_1_meter_color___model.html" target="_top" xlink:title=" ">
<polygon fill="white" stroke="#bfbfbf" points="608,-366 486,-366 486,-336 608,-336 608,-366"/>
<text text-anchor="start" x="494" y="-354" font-family="Helvetica,sans-Serif" font-size="10.00">BFN::PSA::MeterColor</text>
<text text-anchor="middle" x="547" y="-343" font-family="Helvetica,sans-Serif" font-size="10.00">_Model</text>
</a>
</g>
</g>
<!-- Node1&#45;&gt;Node6 -->
<g id="edge5_Node000001_Node000006" class="edge">
<title>Node1&#45;&gt;Node6</title>
<g id="a_edge5_Node000001_Node000006"><a xlink:title=" ">
<path fill="none" stroke="#63b8ff" d="M377.22,-248.72C395.4,-270.25 428.86,-306.23 465,-327 471.49,-330.73 478.6,-333.92 485.84,-336.65"/>
<polygon fill="#63b8ff" stroke="#63b8ff" points="379.68,-246.21 370.61,-240.73 374.29,-250.67 379.68,-246.21"/>
</a>
</g>
</g>
<!-- Node7 -->
<g id="Node000007" class="node">
<title>Node7</title>
<g id="a_Node000007"><a xlink:href="struct_b_f_n_1_1_p_s_a_1_1_meter_type___model.html" target="_top" xlink:title=" ">
<polygon fill="white" stroke="#bfbfbf" points="606.5,-318 487.5,-318 487.5,-288 606.5,-288 606.5,-318"/>
<text text-anchor="start" x="495.5" y="-306" font-family="Helvetica,sans-Serif" font-size="10.00">BFN::PSA::MeterType</text>
<text text-anchor="middle" x="547" y="-295" font-family="Helvetica,sans-Serif" font-size="10.00">_Model</text>
</a>
</g>
</g>
<!-- Node1&#45;&gt;Node7 -->
<g id="edge6_Node000001_Node000007" class="edge">
<title>Node1&#45;&gt;Node7</title>
<g id="a_edge6_Node000001_Node000007"><a xlink:title=" ">
<path fill="none" stroke="#63b8ff" d="M390.03,-245.1C410.31,-255.34 438.95,-269.08 465,-279 473.36,-282.18 482.34,-285.21 491.16,-287.98"/>
<polygon fill="#63b8ff" stroke="#63b8ff" points="391.56,-241.95 381.06,-240.53 388.38,-248.19 391.56,-241.95"/>
</a>
</g>
</g>
<!-- Node8 -->
<g id="Node000008" class="node">
<title>Node8</title>
<g id="a_Node000008"><a xlink:href="struct_b_f_n_1_1_p_s_a_1_1_packet_path_type___model.html" target="_top" xlink:title=" ">
<polygon fill="white" stroke="#bfbfbf" points="618.5,-270 475.5,-270 475.5,-240 618.5,-240 618.5,-270"/>
<text text-anchor="start" x="483.5" y="-258" font-family="Helvetica,sans-Serif" font-size="10.00">BFN::PSA::PacketPathType</text>
<text text-anchor="middle" x="547" y="-247" font-family="Helvetica,sans-Serif" font-size="10.00">_Model</text>
</a>
</g>
</g>
<!-- Node1&#45;&gt;Node8 -->
<g id="edge7_Node000001_Node000008" class="edge">
<title>Node1&#45;&gt;Node8</title>
<g id="a_edge7_Node000001_Node000008"><a xlink:title=" ">
<path fill="none" stroke="#63b8ff" d="M439.07,-240.98C451.1,-242.55 463.5,-244.18 475.39,-245.74"/>
<polygon fill="#63b8ff" stroke="#63b8ff" points="439.44,-237.49 429.07,-239.66 438.53,-244.44 439.44,-237.49"/>
</a>
</g>
</g>
<!-- Node9 -->
<g id="Node000009" class="node">
<title>Node9</title>
<g id="a_Node000009"><a xlink:href="struct_p4_1_1_p4_v1_1_1_algorithm___model.html" target="_top" xlink:title=" ">
<polygon fill="white" stroke="#bfbfbf" points="603.5,-222 490.5,-222 490.5,-192 603.5,-192 603.5,-222"/>
<text text-anchor="start" x="498.5" y="-210" font-family="Helvetica,sans-Serif" font-size="10.00">P4::P4V1::Algorithm</text>
<text text-anchor="middle" x="547" y="-199" font-family="Helvetica,sans-Serif" font-size="10.00">_Model</text>
</a>
</g>
</g>
<!-- Node1&#45;&gt;Node9 -->
<g id="edge8_Node000001_Node000009" class="edge">
<title>Node1&#45;&gt;Node9</title>
<g id="a_edge8_Node000001_Node000009"><a xlink:title=" ">
<path fill="none" stroke="#63b8ff" d="M439.07,-221.02C456.23,-218.77 474.14,-216.42 490.29,-214.31"/>
<polygon fill="#63b8ff" stroke="#63b8ff" points="438.53,-217.56 429.07,-222.34 439.44,-224.51 438.53,-217.56"/>
</a>
</g>
</g>
<!-- Node10 -->
<g id="Node000010" class="node">
<title>Node10</title>
<g id="a_Node000010"><a xlink:href="struct_p4_1_1_p4_v1_1_1_clone_type___model.html" target="_top" xlink:title=" ">
<polygon fill="white" stroke="#bfbfbf" points="605,-174 489,-174 489,-144 605,-144 605,-174"/>
<text text-anchor="start" x="497" y="-162" font-family="Helvetica,sans-Serif" font-size="10.00">P4::P4V1::CloneType</text>
<text text-anchor="middle" x="547" y="-151" font-family="Helvetica,sans-Serif" font-size="10.00">_Model</text>
</a>
</g>
</g>
<!-- Node1&#45;&gt;Node10 -->
<g id="edge9_Node000001_Node000010" class="edge">
<title>Node1&#45;&gt;Node10</title>
<g id="a_edge9_Node000001_Node000010"><a xlink:title=" ">
<path fill="none" stroke="#63b8ff" d="M390.03,-216.9C410.31,-206.66 438.95,-192.92 465,-183 473.36,-179.82 482.34,-176.79 491.16,-174.02"/>
<polygon fill="#63b8ff" stroke="#63b8ff" points="388.38,-213.81 381.06,-221.47 391.56,-220.05 388.38,-213.81"/>
</a>
</g>
</g>
<!-- Node11 -->
<g id="Node000011" class="node">
<title>Node11</title>
<g id="a_Node000011"><a xlink:href="struct_p4_1_1_p4_v1_1_1_counter_type___model.html" target="_top" xlink:title=" ">
<polygon fill="white" stroke="#bfbfbf" points="610,-126 484,-126 484,-96 610,-96 610,-126"/>
<text text-anchor="start" x="492" y="-114" font-family="Helvetica,sans-Serif" font-size="10.00">P4::P4V1::CounterType</text>
<text text-anchor="middle" x="547" y="-103" font-family="Helvetica,sans-Serif" font-size="10.00">_Model</text>
</a>
</g>
</g>
<!-- Node1&#45;&gt;Node11 -->
<g id="edge10_Node000001_Node000011" class="edge">
<title>Node1&#45;&gt;Node11</title>
<g id="a_edge10_Node000001_Node000011"><a xlink:title=" ">
<path fill="none" stroke="#63b8ff" d="M377.22,-213.28C395.4,-191.75 428.86,-155.77 465,-135 470.98,-131.57 477.49,-128.58 484.14,-126"/>
<polygon fill="#63b8ff" stroke="#63b8ff" points="374.29,-211.33 370.61,-221.27 379.68,-215.79 374.29,-211.33"/>
</a>
</g>
</g>
<!-- Node12 -->
<g id="Node000012" class="node">
<title>Node12</title>
<g id="a_Node000012"><a xlink:href="struct_p4_1_1_p4_v1_1_1_meter_type___model.html" target="_top" xlink:title=" ">
<polygon fill="white" stroke="#bfbfbf" points="605,-78 489,-78 489,-48 605,-48 605,-78"/>
<text text-anchor="start" x="497" y="-66" font-family="Helvetica,sans-Serif" font-size="10.00">P4::P4V1::MeterType</text>
<text text-anchor="middle" x="547" y="-55" font-family="Helvetica,sans-Serif" font-size="10.00">_Model</text>
</a>
</g>
</g>
<!-- Node1&#45;&gt;Node12 -->
<g id="edge11_Node000001_Node000012" class="edge">
<title>Node1&#45;&gt;Node12</title>
<g id="a_edge11_Node000001_Node000012"><a xlink:title=" ">
<path fill="none" stroke="#63b8ff" d="M371.32,-212.02C385.82,-181.14 418.67,-120.16 465,-87 472.16,-81.88 480.41,-77.84 488.85,-74.66"/>
<polygon fill="#63b8ff" stroke="#63b8ff" points="368.07,-210.7 367.11,-221.25 374.44,-213.6 368.07,-210.7"/>
</a>
</g>
</g>
<!-- Node13 -->
<g id="Node000013" class="node">
<title>Node13</title>
<g id="a_Node000013"><a xlink:href="struct_p4_1_1_u_b_p_f_1_1_algorithm___model.html" target="_top" xlink:title=" ">
<polygon fill="white" stroke="#bfbfbf" points="604,-30 490,-30 490,0 604,0 604,-30"/>
<text text-anchor="start" x="498" y="-18" font-family="Helvetica,sans-Serif" font-size="10.00">P4::UBPF::Algorithm</text>
<text text-anchor="middle" x="547" y="-7" font-family="Helvetica,sans-Serif" font-size="10.00">_Model</text>
</a>
</g>
</g>
<!-- Node1&#45;&gt;Node13 -->
<g id="edge12_Node000001_Node000013" class="edge">
<title>Node1&#45;&gt;Node13</title>
<g id="a_edge12_Node000001_Node000013"><a xlink:title=" ">
<path fill="none" stroke="#63b8ff" d="M367.94,-211.29C378.73,-172.4 408.08,-85.53 465,-39 472.27,-33.06 480.96,-28.59 489.92,-25.23"/>
<polygon fill="#63b8ff" stroke="#63b8ff" points="364.47,-210.76 365.29,-221.32 371.23,-212.55 364.47,-210.76"/>
</a>
</g>
</g>
<!-- Node2 -->
<g id="Node000002" class="node">
<title>Node2</title>
<g id="a_Node000002"><a xlink:href="struct_p4_1_1_model_1_1_type___model.html" target="_top" xlink:title=" ">
<polygon fill="white" stroke="#bfbfbf" points="259,-240.5 131,-240.5 131,-221.5 259,-221.5 259,-240.5"/>
<text text-anchor="middle" x="195" y="-228.5" font-family="Helvetica,sans-Serif" font-size="10.00">P4::Model::Type_Model</text>
</a>
</g>
</g>
<!-- Node2&#45;&gt;Node1 -->
<g id="edge1_Node000001_Node000002" class="edge">
<title>Node2&#45;&gt;Node1</title>
<g id="a_edge1_Node000001_Node000002"><a xlink:title=" ">
<path fill="none" stroke="#63b8ff" d="M269.52,-231C277.95,-231 286.51,-231 294.84,-231"/>
<polygon fill="#63b8ff" stroke="#63b8ff" points="269.32,-227.5 259.32,-231 269.32,-234.5 269.32,-227.5"/>
</a>
</g>
</g>
<!-- Node3 -->
<g id="Node000003" class="node">
<title>Node3</title>
<g id="a_Node000003"><a xlink:href="struct_p4_1_1_model_1_1_elem.html" target="_top" xlink:title=" ">
<polygon fill="white" stroke="#bfbfbf" points="95,-240.5 0,-240.5 0,-221.5 95,-221.5 95,-240.5"/>
<text text-anchor="middle" x="47.5" y="-228.5" font-family="Helvetica,sans-Serif" font-size="10.00">P4::Model::Elem</text>
</a>
</g>
</g>
<!-- Node3&#45;&gt;Node2 -->
<g id="edge2_Node000002_Node000003" class="edge">
<title>Node3&#45;&gt;Node2</title>
<g id="a_edge2_Node000002_Node000003"><a xlink:title=" ">
<path fill="none" stroke="#63b8ff" d="M105.34,-231C113.69,-231 122.34,-231 130.8,-231"/>
<polygon fill="#63b8ff" stroke="#63b8ff" points="105.34,-227.5 95.34,-231 105.34,-234.5 105.34,-227.5"/>
</a>
</g>
</g>
</g>
</svg>
