<?xml version="1.0" encoding="UTF-8" standalone="no"?>
<!DOCTYPE svg PUBLIC "-//W3C//DTD SVG 1.1//EN"
 "http://www.w3.org/Graphics/SVG/1.1/DTD/svg11.dtd">
<!-- Generated by graphviz version 2.43.0 (0)
 -->
<!-- Title: P4::EBPF::EBPFScalarType Pages: 1 -->
<svg width="496pt" height="302pt"
 viewBox="0.00 0.00 495.50 302.00" xmlns="http://www.w3.org/2000/svg" xmlns:xlink="http://www.w3.org/1999/xlink">

<svg id="main" version="1.1" xmlns="http://www.w3.org/2000/svg" xmlns:xlink="http://www.w3.org/1999/xlink" xml:space="preserve">

<style type="text/css"><![CDATA[
.node, .edge {opacity: 0.7;}
.node.selected, .edge.selected {opacity: 1;}
.edge:hover path { stroke: red; }
.edge:hover polygon { stroke: red; fill: red; }
]]></style>
<script type="application/ecmascript" xlink:href="svg.min.js"/>
<svg id="graph" class="graph">
<g id="graph0" class="graph" transform="scale(1 1) rotate(0) translate(4 298)">
<title>P4::EBPF::EBPFScalarType</title>
<!-- Node1 -->
<g id="Node000001" class="node">
<title>Node1</title>
<g id="a_Node000001"><a xlink:title=" ">
<polygon fill="#999999" stroke="#666666" points="323,-74 182,-74 182,-55 323,-55 323,-74"/>
<text text-anchor="middle" x="252.5" y="-62" font-family="Helvetica,sans-Serif" font-size="10.00">P4::EBPF::EBPFScalarType</text>
</a>
</g>
</g>
<!-- Node7 -->
<g id="Node000007" class="node">
<title>Node7</title>
<g id="a_Node000007"><a xlink:href="class_p4_1_1_e_b_p_f_1_1_e_b_p_f_scalar_type_p_n_a.html" target="_top" xlink:title=" ">
<polygon fill="white" stroke="#bfbfbf" points="161,-19 0,-19 0,0 161,0 161,-19"/>
<text text-anchor="middle" x="80.5" y="-7" font-family="Helvetica,sans-Serif" font-size="10.00">P4::EBPF::EBPFScalarTypePNA</text>
</a>
</g>
</g>
<!-- Node1&#45;&gt;Node7 -->
<g id="edge7_Node000001_Node000007" class="edge">
<title>Node1&#45;&gt;Node7</title>
<g id="a_edge7_Node000001_Node000007"><a xlink:title=" ">
<path fill="none" stroke="#63b8ff" d="M214.94,-51.93C182.82,-42.03 137.31,-28.01 108.35,-19.08"/>
<polygon fill="#63b8ff" stroke="#63b8ff" points="214.28,-55.38 224.87,-54.98 216.34,-48.69 214.28,-55.38"/>
</a>
</g>
</g>
<!-- Node8 -->
<g id="Node000008" class="node">
<title>Node8</title>
<g id="a_Node000008"><a xlink:href="class_p4_1_1_u_b_p_f_1_1_u_b_p_f_extern_type.html" target="_top" xlink:title=" ">
<polygon fill="white" stroke="#bfbfbf" points="325.5,-19 179.5,-19 179.5,0 325.5,0 325.5,-19"/>
<text text-anchor="middle" x="252.5" y="-7" font-family="Helvetica,sans-Serif" font-size="10.00">P4::UBPF::UBPFExternType</text>
</a>
</g>
</g>
<!-- Node1&#45;&gt;Node8 -->
<g id="edge8_Node000001_Node000008" class="edge">
<title>Node1&#45;&gt;Node8</title>
<g id="a_edge8_Node000001_Node000008"><a xlink:title=" ">
<path fill="none" stroke="#63b8ff" d="M252.5,-44.66C252.5,-35.93 252.5,-25.99 252.5,-19.09"/>
<polygon fill="#63b8ff" stroke="#63b8ff" points="249,-44.75 252.5,-54.75 256,-44.75 249,-44.75"/>
</a>
</g>
</g>
<!-- Node9 -->
<g id="Node000009" class="node">
<title>Node9</title>
<g id="a_Node000009"><a xlink:href="class_p4_1_1_u_b_p_f_1_1_u_b_p_f_scalar_type.html" target="_top" xlink:title=" ">
<polygon fill="white" stroke="#bfbfbf" points="487.5,-19 343.5,-19 343.5,0 487.5,0 487.5,-19"/>
<text text-anchor="middle" x="415.5" y="-7" font-family="Helvetica,sans-Serif" font-size="10.00">P4::UBPF::UBPFScalarType</text>
</a>
</g>
</g>
<!-- Node1&#45;&gt;Node9 -->
<g id="edge9_Node000001_Node000009" class="edge">
<title>Node1&#45;&gt;Node9</title>
<g id="a_edge9_Node000001_Node000009"><a xlink:title=" ">
<path fill="none" stroke="#63b8ff" d="M288.49,-51.8C318.91,-41.91 361.78,-27.97 389.11,-19.08"/>
<polygon fill="#63b8ff" stroke="#63b8ff" points="287.12,-48.56 278.69,-54.98 289.28,-55.22 287.12,-48.56"/>
</a>
</g>
</g>
<!-- Node2 -->
<g id="Node000002" class="node">
<title>Node2</title>
<g id="a_Node000002"><a xlink:href="class_p4_1_1_e_b_p_f_1_1_e_b_p_f_type.html" target="_top" xlink:title="Base class for EBPF types.">
<polygon fill="white" stroke="#666666" points="243,-129 132,-129 132,-110 243,-110 243,-129"/>
<text text-anchor="middle" x="187.5" y="-117" font-family="Helvetica,sans-Serif" font-size="10.00">P4::EBPF::EBPFType</text>
</a>
</g>
</g>
<!-- Node2&#45;&gt;Node1 -->
<g id="edge1_Node000001_Node000002" class="edge">
<title>Node2&#45;&gt;Node1</title>
<g id="a_edge1_Node000001_Node000002"><a xlink:title=" ">
<path fill="none" stroke="#63b8ff" d="M205.77,-103.6C217.42,-94.11 232.1,-82.13 241.87,-74.17"/>
<polygon fill="#63b8ff" stroke="#63b8ff" points="203.48,-100.95 197.94,-109.98 207.91,-106.38 203.48,-100.95"/>
</a>
</g>
</g>
<!-- Node3 -->
<g id="Node000003" class="node">
<title>Node3</title>
<g id="a_Node000003"><a xlink:href="class_p4_1_1_e_b_p_f_1_1_e_b_p_f_object.html" target="_top" xlink:title="Base class for EBPF objects.">
<polygon fill="white" stroke="#666666" points="269,-184 148,-184 148,-165 269,-165 269,-184"/>
<text text-anchor="middle" x="208.5" y="-172" font-family="Helvetica,sans-Serif" font-size="10.00">P4::EBPF::EBPFObject</text>
</a>
</g>
</g>
<!-- Node3&#45;&gt;Node2 -->
<g id="edge2_Node000002_Node000003" class="edge">
<title>Node3&#45;&gt;Node2</title>
<g id="a_edge2_Node000002_Node000003"><a xlink:title=" ">
<path fill="none" stroke="#63b8ff" d="M201.26,-155.24C197.75,-146.37 193.7,-136.14 190.9,-129.09"/>
<polygon fill="#63b8ff" stroke="#63b8ff" points="198.09,-156.74 205.03,-164.75 204.6,-154.16 198.09,-156.74"/>
</a>
</g>
</g>
<!-- Node4 -->
<g id="Node000004" class="node">
<title>Node4</title>
<g id="a_Node000004"><a xlink:href="class_p4_1_1_i_castable.html" target="_top" xlink:title=" ">
<polygon fill="white" stroke="#666666" points="292.5,-239 212.5,-239 212.5,-220 292.5,-220 292.5,-239"/>
<text text-anchor="middle" x="252.5" y="-227" font-family="Helvetica,sans-Serif" font-size="10.00">P4::ICastable</text>
</a>
</g>
</g>
<!-- Node4&#45;&gt;Node3 -->
<g id="edge3_Node000003_Node000004" class="edge">
<title>Node4&#45;&gt;Node3</title>
<g id="a_edge3_Node000003_Node000004"><a xlink:title=" ">
<path fill="none" stroke="#63b8ff" d="M238.77,-211.96C231.1,-202.72 221.87,-191.6 215.63,-184.09"/>
<polygon fill="#63b8ff" stroke="#63b8ff" points="236.15,-214.29 245.23,-219.75 241.54,-209.82 236.15,-214.29"/>
</a>
</g>
</g>
<!-- Node6 -->
<g id="Node000006" class="node">
<title>Node6</title>
<g id="a_Node000006"><a xlink:href="class_p4_1_1_e_b_p_f_1_1_i_has_width.html" target="_top" xlink:title=" ">
<polygon fill="white" stroke="#bfbfbf" points="376,-129 261,-129 261,-110 376,-110 376,-129"/>
<text text-anchor="middle" x="318.5" y="-117" font-family="Helvetica,sans-Serif" font-size="10.00">P4::EBPF::IHasWidth</text>
</a>
</g>
</g>
<!-- Node4&#45;&gt;Node6 -->
<g id="edge6_Node000006_Node000004" class="edge">
<title>Node4&#45;&gt;Node6</title>
<g id="a_edge6_Node000006_Node000004"><a xlink:title=" ">
<path fill="none" stroke="#63b8ff" d="M263.15,-211.07C277.47,-187.64 302.37,-146.89 313.21,-129.16"/>
<polygon fill="#63b8ff" stroke="#63b8ff" points="260.13,-209.3 257.9,-219.66 266.1,-212.95 260.13,-209.3"/>
</a>
</g>
</g>
<!-- Node5 -->
<g id="Node000005" class="node">
<title>Node5</title>
<g id="a_Node000005"><a xlink:href="struct_p4_1_1_r_t_t_i_1_1_base.html" target="_top" xlink:title=" ">
<polygon fill="white" stroke="#bfbfbf" points="295.5,-294 209.5,-294 209.5,-275 295.5,-275 295.5,-294"/>
<text text-anchor="middle" x="252.5" y="-282" font-family="Helvetica,sans-Serif" font-size="10.00">P4::RTTI::Base</text>
</a>
</g>
</g>
<!-- Node5&#45;&gt;Node4 -->
<g id="edge4_Node000004_Node000005" class="edge">
<title>Node5&#45;&gt;Node4</title>
<g id="a_edge4_Node000004_Node000005"><a xlink:title=" ">
<path fill="none" stroke="#63b8ff" d="M252.5,-264.66C252.5,-255.93 252.5,-245.99 252.5,-239.09"/>
<polygon fill="#63b8ff" stroke="#63b8ff" points="249,-264.75 252.5,-274.75 256,-264.75 249,-264.75"/>
</a>
</g>
</g>
<!-- Node6&#45;&gt;Node1 -->
<g id="edge5_Node000001_Node000006" class="edge">
<title>Node6&#45;&gt;Node1</title>
<g id="a_edge5_Node000001_Node000006"><a xlink:title=" ">
<path fill="none" stroke="#63b8ff" d="M299.95,-103.6C288.12,-94.11 273.21,-82.13 263.3,-74.17"/>
<polygon fill="#63b8ff" stroke="#63b8ff" points="297.91,-106.45 307.9,-109.98 302.29,-100.99 297.91,-106.45"/>
</a>
</g>
</g>
</g>
</svg>
</svg>

<style type='text/css'>
<![CDATA[
[data-mouse-over-selected='false'] { opacity: 0.7; }
[data-mouse-over-selected='true']  { opacity: 1.0; }
]]>
</style>
<script type="application/ecmascript"><![CDATA[
document.addEventListener('DOMContentLoaded', (event) => {
  highlightEdges();
  highlightAdjacentNodes();
});
]]></script>
</svg>
