<?xml version="1.0" encoding="UTF-8" standalone="no"?>
<!DOCTYPE svg PUBLIC "-//W3C//DTD SVG 1.1//EN"
 "http://www.w3.org/Graphics/SVG/1.1/DTD/svg11.dtd">
<!-- Generated by graphviz version 2.43.0 (0)
 -->
<!-- Title: BFN::V1::StatementConverter Pages: 1 -->
<svg width="380pt" height="192pt"
 viewBox="0.00 0.00 379.50 192.00" xmlns="http://www.w3.org/2000/svg" xmlns:xlink="http://www.w3.org/1999/xlink">

<svg id="main" version="1.1" xmlns="http://www.w3.org/2000/svg" xmlns:xlink="http://www.w3.org/1999/xlink" xml:space="preserve">

<style type="text/css"><![CDATA[
.node, .edge {opacity: 0.7;}
.node.selected, .edge.selected {opacity: 1;}
.edge:hover path { stroke: red; }
.edge:hover polygon { stroke: red; fill: red; }
]]></style>
<script type="application/ecmascript" xlink:href="svg.min.js"/>
<svg id="graph" class="graph">
<g id="graph0" class="graph" transform="scale(1 1) rotate(0) translate(4 188)">
<title>BFN::V1::StatementConverter</title>
<!-- Node1 -->
<g id="Node000001" class="node">
<title>Node1</title>
<g id="a_Node000001"><a xlink:title=" ">
<polygon fill="#999999" stroke="#666666" points="266.5,-74 105.5,-74 105.5,-55 266.5,-55 266.5,-74"/>
<text text-anchor="middle" x="186" y="-62" font-family="Helvetica,sans-Serif" font-size="10.00">BFN::V1::StatementConverter</text>
</a>
</g>
</g>
<!-- Node4 -->
<g id="Node000004" class="node">
<title>Node4</title>
<g id="a_Node000004"><a xlink:href="class_b_f_n_1_1_v1_1_1_parser_counter_converter.html" target="_top" xlink:title=" ">
<polygon fill="white" stroke="#bfbfbf" points="178,-19 0,-19 0,0 178,0 178,-19"/>
<text text-anchor="middle" x="89" y="-7" font-family="Helvetica,sans-Serif" font-size="10.00">BFN::V1::ParserCounterConverter</text>
</a>
</g>
</g>
<!-- Node1&#45;&gt;Node4 -->
<g id="edge3_Node000001_Node000004" class="edge">
<title>Node1&#45;&gt;Node4</title>
<g id="a_edge3_Node000001_Node000004"><a xlink:title=" ">
<path fill="none" stroke="#63b8ff" d="M161.23,-49.97C143.5,-40.28 120.15,-27.52 104.87,-19.17"/>
<polygon fill="#63b8ff" stroke="#63b8ff" points="159.96,-53.26 170.42,-54.98 163.32,-47.12 159.96,-53.26"/>
</a>
</g>
</g>
<!-- Node5 -->
<g id="Node000005" class="node">
<title>Node5</title>
<g id="a_Node000005"><a xlink:href="class_b_f_n_1_1_v1_1_1_parser_priority_converter.html" target="_top" xlink:title=" ">
<polygon fill="white" stroke="#bfbfbf" points="371.5,-19 196.5,-19 196.5,0 371.5,0 371.5,-19"/>
<text text-anchor="middle" x="284" y="-7" font-family="Helvetica,sans-Serif" font-size="10.00">BFN::V1::ParserPriorityConverter</text>
</a>
</g>
</g>
<!-- Node1&#45;&gt;Node5 -->
<g id="edge4_Node000001_Node000005" class="edge">
<title>Node1&#45;&gt;Node5</title>
<g id="a_edge4_Node000001_Node000005"><a xlink:title=" ">
<path fill="none" stroke="#63b8ff" d="M211.03,-49.97C228.94,-40.28 252.53,-27.52 267.97,-19.17"/>
<polygon fill="#63b8ff" stroke="#63b8ff" points="208.88,-47.15 201.75,-54.98 212.21,-53.31 208.88,-47.15"/>
</a>
</g>
</g>
<!-- Node2 -->
<g id="Node000002" class="node">
<title>Node2</title>
<g id="a_Node000002"><a xlink:href="class_p4_1_1_transform.html" target="_top" xlink:title=" ">
<polygon fill="white" stroke="#bfbfbf" points="227.5,-129 144.5,-129 144.5,-110 227.5,-110 227.5,-129"/>
<text text-anchor="middle" x="186" y="-117" font-family="Helvetica,sans-Serif" font-size="10.00">P4::Transform</text>
</a>
</g>
</g>
<!-- Node2&#45;&gt;Node1 -->
<g id="edge1_Node000001_Node000002" class="edge">
<title>Node2&#45;&gt;Node1</title>
<g id="a_edge1_Node000001_Node000002"><a xlink:title=" ">
<path fill="none" stroke="#63b8ff" d="M186,-99.66C186,-90.93 186,-80.99 186,-74.09"/>
<polygon fill="#63b8ff" stroke="#63b8ff" points="182.5,-99.75 186,-109.75 189.5,-99.75 182.5,-99.75"/>
</a>
</g>
</g>
<!-- Node3 -->
<g id="Node000003" class="node">
<title>Node3</title>
<g id="a_Node000003"><a xlink:href="class_p4_1_1_visitor.html" target="_top" xlink:title=" ">
<polygon fill="white" stroke="#bfbfbf" points="219,-184 153,-184 153,-165 219,-165 219,-184"/>
<text text-anchor="middle" x="186" y="-172" font-family="Helvetica,sans-Serif" font-size="10.00">P4::Visitor</text>
</a>
</g>
</g>
<!-- Node3&#45;&gt;Node2 -->
<g id="edge2_Node000002_Node000003" class="edge">
<title>Node3&#45;&gt;Node2</title>
<g id="a_edge2_Node000002_Node000003"><a xlink:title=" ">
<path fill="none" stroke="#63b8ff" d="M186,-154.66C186,-145.93 186,-135.99 186,-129.09"/>
<polygon fill="#63b8ff" stroke="#63b8ff" points="182.5,-154.75 186,-164.75 189.5,-154.75 182.5,-154.75"/>
</a>
</g>
</g>
</g>
</svg>
</svg>

<style type='text/css'>
<![CDATA[
[data-mouse-over-selected='false'] { opacity: 0.7; }
[data-mouse-over-selected='true']  { opacity: 1.0; }
]]>
</style>
<script type="application/ecmascript"><![CDATA[
document.addEventListener('DOMContentLoaded', (event) => {
  highlightEdges();
  highlightAdjacentNodes();
});
]]></script>
</svg>
