<?xml version="1.0" encoding="UTF-8" standalone="no"?>
<!DOCTYPE svg PUBLIC "-//W3C//DTD SVG 1.1//EN"
 "http://www.w3.org/Graphics/SVG/1.1/DTD/svg11.dtd">
<!-- Generated by graphviz version 2.43.0 (0)
 -->
<!-- Title: assoc::detail::CondIterableAssoc&lt; Base, Itble &gt; Pages: 1 -->
<svg width="597pt" height="435pt"
 viewBox="0.00 0.00 597.00 434.50" xmlns="http://www.w3.org/2000/svg" xmlns:xlink="http://www.w3.org/1999/xlink">
<g id="graph0" class="graph" transform="scale(1 1) rotate(0) translate(4 430.5)">
<title>assoc::detail::CondIterableAssoc&lt; Base, Itble &gt;</title>
<!-- Node1 -->
<g id="Node000001" class="node">
<title>Node1</title>
<g id="a_Node000001"><a xlink:title=" ">
<polygon fill="#999999" stroke="#666666" points="405,-212 259,-212 259,-182 405,-182 405,-212"/>
<text text-anchor="start" x="267" y="-200" font-family="Helvetica,sans-Serif" font-size="10.00">assoc::detail::CondIterable</text>
<text text-anchor="middle" x="332" y="-189" font-family="Helvetica,sans-Serif" font-size="10.00">Assoc&lt; Base, Itble &gt;</text>
</a>
</g>
</g>
<!-- Node4 -->
<g id="Node000004" class="node">
<title>Node4</title>
<g id="a_Node000004"><a xlink:href="classassoc_1_1map.html" target="_top" xlink:title=" ">
<polygon fill="white" stroke="#666666" points="573,-426.5 457,-426.5 457,-385.5 573,-385.5 573,-426.5"/>
<text text-anchor="start" x="465" y="-414.5" font-family="Helvetica,sans-Serif" font-size="10.00">assoc::map&lt; Key, T,</text>
<text text-anchor="start" x="465" y="-403.5" font-family="Helvetica,sans-Serif" font-size="10.00"> Compare, Allocator,</text>
<text text-anchor="middle" x="515" y="-392.5" font-family="Helvetica,sans-Serif" font-size="10.00"> Iterable::Yes &gt;</text>
</a>
</g>
</g>
<!-- Node1&#45;&gt;Node4 -->
<g id="edge3_Node000001_Node000004" class="edge">
<title>Node1&#45;&gt;Node4</title>
<g id="a_edge3_Node000001_Node000004"><a xlink:title=" ">
<path fill="none" stroke="#63b8ff" d="M341.87,-221.86C356.73,-260.18 390.1,-333.76 441,-377 445.78,-381.06 451.2,-384.6 456.87,-387.67"/>
<polygon fill="#63b8ff" stroke="#63b8ff" points="344.98,-220.17 338.18,-212.04 338.42,-222.63 344.98,-220.17"/>
</a>
</g>
</g>
<!-- Node5 -->
<g id="Node000005" class="node">
<title>Node5</title>
<g id="a_Node000005"><a xlink:href="classassoc_1_1map.html" target="_top" xlink:title=" ">
<polygon fill="white" stroke="#666666" points="573,-367.5 457,-367.5 457,-326.5 573,-326.5 573,-367.5"/>
<text text-anchor="start" x="465" y="-355.5" font-family="Helvetica,sans-Serif" font-size="10.00">assoc::map&lt; Key, T,</text>
<text text-anchor="start" x="465" y="-344.5" font-family="Helvetica,sans-Serif" font-size="10.00"> Compare, Allocator,</text>
<text text-anchor="middle" x="515" y="-333.5" font-family="Helvetica,sans-Serif" font-size="10.00"> Iterable::No &gt;</text>
</a>
</g>
</g>
<!-- Node1&#45;&gt;Node5 -->
<g id="edge4_Node000001_Node000005" class="edge">
<title>Node1&#45;&gt;Node5</title>
<g id="a_edge4_Node000001_Node000005"><a xlink:title=" ">
<path fill="none" stroke="#63b8ff" d="M349.17,-220.6C368.39,-247.13 402.72,-290.02 441,-317 445.93,-320.47 451.32,-323.64 456.87,-326.5"/>
<polygon fill="#63b8ff" stroke="#63b8ff" points="351.9,-218.39 343.25,-212.27 346.2,-222.45 351.9,-218.39"/>
</a>
</g>
</g>
<!-- Node6 -->
<g id="Node000006" class="node">
<title>Node6</title>
<g id="a_Node000006"><a xlink:href="classassoc_1_1set.html" target="_top" xlink:title=" ">
<polygon fill="white" stroke="#666666" points="589,-308 441,-308 441,-278 589,-278 589,-308"/>
<text text-anchor="start" x="449" y="-296" font-family="Helvetica,sans-Serif" font-size="10.00">assoc::set&lt; Key, Compare,</text>
<text text-anchor="middle" x="515" y="-285" font-family="Helvetica,sans-Serif" font-size="10.00"> Allocator, Iterable::Yes &gt;</text>
</a>
</g>
</g>
<!-- Node1&#45;&gt;Node6 -->
<g id="edge5_Node000001_Node000006" class="edge">
<title>Node1&#45;&gt;Node6</title>
<g id="a_edge5_Node000001_Node000006"><a xlink:title=" ">
<path fill="none" stroke="#63b8ff" d="M360.5,-218.37C381.61,-234.01 411.97,-254.88 441,-269 447.72,-272.27 454.99,-275.26 462.25,-277.93"/>
<polygon fill="#63b8ff" stroke="#63b8ff" points="362.43,-215.44 352.33,-212.24 358.22,-221.04 362.43,-215.44"/>
</a>
</g>
</g>
<!-- Node7 -->
<g id="Node000007" class="node">
<title>Node7</title>
<g id="a_Node000007"><a xlink:href="classassoc_1_1set.html" target="_top" xlink:title=" ">
<polygon fill="white" stroke="#666666" points="589,-260 441,-260 441,-230 589,-230 589,-260"/>
<text text-anchor="start" x="449" y="-248" font-family="Helvetica,sans-Serif" font-size="10.00">assoc::set&lt; Key, Compare,</text>
<text text-anchor="middle" x="515" y="-237" font-family="Helvetica,sans-Serif" font-size="10.00"> Allocator, Iterable::No &gt;</text>
</a>
</g>
</g>
<!-- Node1&#45;&gt;Node7 -->
<g id="edge6_Node000001_Node000007" class="edge">
<title>Node1&#45;&gt;Node7</title>
<g id="a_edge6_Node000001_Node000007"><a xlink:title=" ">
<path fill="none" stroke="#63b8ff" d="M399.55,-214.65C418.56,-219.69 439.08,-225.13 457.43,-230"/>
<polygon fill="#63b8ff" stroke="#63b8ff" points="400.34,-211.24 389.77,-212.06 398.54,-218 400.34,-211.24"/>
</a>
</g>
</g>
<!-- Node8 -->
<g id="Node000008" class="node">
<title>Node8</title>
<g id="a_Node000008"><a xlink:href="classassoc_1_1set.html" target="_top" xlink:title=" ">
<polygon fill="white" stroke="#666666" points="587.5,-212 442.5,-212 442.5,-182 587.5,-182 587.5,-212"/>
<text text-anchor="start" x="450.5" y="-200" font-family="Helvetica,sans-Serif" font-size="10.00">assoc::set&lt; const IR</text>
<text text-anchor="middle" x="515" y="-189" font-family="Helvetica,sans-Serif" font-size="10.00">::Declaration_Instance * &gt;</text>
</a>
</g>
</g>
<!-- Node1&#45;&gt;Node8 -->
<g id="edge7_Node000001_Node000008" class="edge">
<title>Node1&#45;&gt;Node8</title>
<g id="a_edge7_Node000001_Node000008"><a xlink:title=" ">
<path fill="none" stroke="#63b8ff" d="M415.25,-197C424.34,-197 433.54,-197 442.49,-197"/>
<polygon fill="#63b8ff" stroke="#63b8ff" points="415.06,-193.5 405.06,-197 415.06,-200.5 415.06,-193.5"/>
</a>
</g>
</g>
<!-- Node9 -->
<g id="Node000009" class="node">
<title>Node9</title>
<g id="a_Node000009"><a xlink:href="classassoc_1_1set.html" target="_top" xlink:title=" ">
<polygon fill="white" stroke="#666666" points="573,-164 457,-164 457,-134 573,-134 573,-164"/>
<text text-anchor="start" x="465" y="-152" font-family="Helvetica,sans-Serif" font-size="10.00">assoc::set&lt; const IR</text>
<text text-anchor="middle" x="515" y="-141" font-family="Helvetica,sans-Serif" font-size="10.00">::Expression * &gt;</text>
</a>
</g>
</g>
<!-- Node1&#45;&gt;Node9 -->
<g id="edge8_Node000001_Node000009" class="edge">
<title>Node1&#45;&gt;Node9</title>
<g id="a_edge8_Node000001_Node000009"><a xlink:title=" ">
<path fill="none" stroke="#63b8ff" d="M399.55,-179.35C418.56,-174.31 439.08,-168.87 457.43,-164"/>
<polygon fill="#63b8ff" stroke="#63b8ff" points="398.54,-176 389.77,-181.94 400.34,-182.76 398.54,-176"/>
</a>
</g>
</g>
<!-- Node10 -->
<g id="Node000010" class="node">
<title>Node10</title>
<g id="a_Node000010"><a xlink:href="classassoc_1_1set.html" target="_top" xlink:title=" ">
<polygon fill="white" stroke="#666666" points="573.5,-115.5 456.5,-115.5 456.5,-96.5 573.5,-96.5 573.5,-115.5"/>
<text text-anchor="middle" x="515" y="-103.5" font-family="Helvetica,sans-Serif" font-size="10.00">assoc::set&lt; void * &gt;</text>
</a>
</g>
</g>
<!-- Node1&#45;&gt;Node10 -->
<g id="edge9_Node000001_Node000010" class="edge">
<title>Node1&#45;&gt;Node10</title>
<g id="a_edge9_Node000001_Node000010"><a xlink:title=" ">
<path fill="none" stroke="#63b8ff" d="M359.48,-175.67C380.49,-159.69 411.18,-138.36 441,-125 449.37,-121.25 458.61,-118.13 467.64,-115.58"/>
<polygon fill="#63b8ff" stroke="#63b8ff" points="357.15,-173.05 351.38,-181.94 361.43,-178.59 357.15,-173.05"/>
</a>
</g>
</g>
<!-- Node11 -->
<g id="Node000011" class="node">
<title>Node11</title>
<g id="a_Node000011"><a xlink:href="classassoc_1_1set.html" target="_top" xlink:title=" ">
<polygon fill="white" stroke="#666666" points="578,-78 452,-78 452,-48 578,-48 578,-78"/>
<text text-anchor="start" x="460" y="-66" font-family="Helvetica,sans-Serif" font-size="10.00">assoc::set&lt; const PHV</text>
<text text-anchor="middle" x="515" y="-55" font-family="Helvetica,sans-Serif" font-size="10.00">::Field * &gt;</text>
</a>
</g>
</g>
<!-- Node1&#45;&gt;Node11 -->
<g id="edge10_Node000001_Node000011" class="edge">
<title>Node1&#45;&gt;Node11</title>
<g id="a_edge10_Node000001_Node000011"><a xlink:title=" ">
<path fill="none" stroke="#63b8ff" d="M350.16,-173.84C369.64,-149.08 403.59,-110.25 441,-87 446.44,-83.62 452.4,-80.66 458.51,-78.09"/>
<polygon fill="#63b8ff" stroke="#63b8ff" points="347.24,-171.9 343.9,-181.96 352.78,-176.18 347.24,-171.9"/>
</a>
</g>
</g>
<!-- Node12 -->
<g id="Node000012" class="node">
<title>Node12</title>
<g id="a_Node000012"><a xlink:href="classassoc_1_1set.html" target="_top" xlink:title=" ">
<polygon fill="white" stroke="#666666" points="589,-30 441,-30 441,0 589,0 589,-30"/>
<text text-anchor="start" x="449" y="-18" font-family="Helvetica,sans-Serif" font-size="10.00">assoc::set&lt; Key, Compare,</text>
<text text-anchor="middle" x="515" y="-7" font-family="Helvetica,sans-Serif" font-size="10.00"> Allocator, Itble &gt;</text>
</a>
</g>
</g>
<!-- Node1&#45;&gt;Node12 -->
<g id="edge11_Node000001_Node000012" class="edge">
<title>Node1&#45;&gt;Node12</title>
<g id="a_edge11_Node000001_Node000012"><a xlink:title=" ">
<path fill="none" stroke="#63b8ff" d="M343.45,-172.59C359.48,-137.95 393.37,-74.79 441,-39 445.59,-35.55 450.69,-32.59 456.01,-30.04"/>
<polygon fill="#63b8ff" stroke="#63b8ff" points="340.14,-171.4 339.23,-181.96 346.53,-174.28 340.14,-171.4"/>
</a>
</g>
</g>
<!-- Node2 -->
<g id="Node000002" class="node">
<title>Node2</title>
<g id="a_Node000002"><a xlink:href="classassoc_1_1detail_1_1_cond_iterable_assoc_base.html" target="_top" xlink:title=" ">
<polygon fill="white" stroke="#666666" points="223,-217.5 77,-217.5 77,-176.5 223,-176.5 223,-217.5"/>
<text text-anchor="start" x="85" y="-205.5" font-family="Helvetica,sans-Serif" font-size="10.00">assoc::detail::CondIterable</text>
<text text-anchor="start" x="85" y="-194.5" font-family="Helvetica,sans-Serif" font-size="10.00">AssocBase&lt; Base, Itble,</text>
<text text-anchor="middle" x="150" y="-183.5" font-family="Helvetica,sans-Serif" font-size="10.00"> typename &gt;</text>
</a>
</g>
</g>
<!-- Node2&#45;&gt;Node1 -->
<g id="edge1_Node000001_Node000002" class="edge">
<title>Node2&#45;&gt;Node1</title>
<g id="a_edge1_Node000001_Node000002"><a xlink:title=" ">
<path fill="none" stroke="#63b8ff" d="M233.44,-197C241.91,-197 250.46,-197 258.81,-197"/>
<polygon fill="#63b8ff" stroke="#63b8ff" points="233.18,-193.5 223.18,-197 233.18,-200.5 233.18,-193.5"/>
</a>
</g>
</g>
<!-- Node3 -->
<g id="Node000003" class="node">
<title>Node3</title>
<g id="a_Node000003"><a xlink:title=" ">
<polygon fill="white" stroke="#bfbfbf" points="41,-206.5 0,-206.5 0,-187.5 41,-187.5 41,-206.5"/>
<text text-anchor="middle" x="20.5" y="-194.5" font-family="Helvetica,sans-Serif" font-size="10.00">Base</text>
</a>
</g>
</g>
<!-- Node3&#45;&gt;Node2 -->
<g id="edge2_Node000002_Node000003" class="edge">
<title>Node3&#45;&gt;Node2</title>
<g id="a_edge2_Node000002_Node000003"><a xlink:title=" ">
<path fill="none" stroke="darkgreen" d="M51.19,-197C59.05,-197 67.9,-197 76.97,-197"/>
<polygon fill="darkgreen" stroke="darkgreen" points="51.14,-193.5 41.14,-197 51.14,-200.5 51.14,-193.5"/>
</a>
</g>
</g>
</g>
</svg>
