<?xml version="1.0" encoding="UTF-8" standalone="no"?>
<!DOCTYPE svg PUBLIC "-//W3C//DTD SVG 1.1//EN"
 "http://www.w3.org/Graphics/SVG/1.1/DTD/svg11.dtd">
<!-- Generated by graphviz version 2.43.0 (0)
 -->
<!-- Title: P4::hash_vector_base Pages: 1 -->
<svg width="342pt" height="479pt"
 viewBox="0.00 0.00 342.00 479.00" xmlns="http://www.w3.org/2000/svg" xmlns:xlink="http://www.w3.org/1999/xlink">
<g id="graph0" class="graph" transform="scale(1 1) rotate(0) translate(4 475)">
<title>P4::hash_vector_base</title>
<!-- Node1 -->
<g id="Node000001" class="node">
<title>Node1</title>
<g id="a_Node000001"><a xlink:title=" ">
<polygon fill="#999999" stroke="#666666" points="122,-233.5 0,-233.5 0,-214.5 122,-214.5 122,-233.5"/>
<text text-anchor="middle" x="61" y="-221.5" font-family="Helvetica,sans-Serif" font-size="10.00">P4::hash_vector_base</text>
</a>
</g>
</g>
<!-- Node2 -->
<g id="Node000002" class="node">
<title>Node2</title>
<g id="a_Node000002"><a xlink:href="class_p4_1_1hvec__map.html" target="_top" xlink:title=" ">
<polygon fill="white" stroke="#bfbfbf" points="323.5,-471 168.5,-471 168.5,-441 323.5,-441 323.5,-471"/>
<text text-anchor="start" x="176.5" y="-459" font-family="Helvetica,sans-Serif" font-size="10.00">P4::hvec_map&lt; P4::Program</text>
<text text-anchor="middle" x="246" y="-448" font-family="Helvetica,sans-Serif" font-size="10.00">Point, P4::Definitions * &gt;</text>
</a>
</g>
</g>
<!-- Node1&#45;&gt;Node2 -->
<g id="edge1_Node000001_Node000002" class="edge">
<title>Node1&#45;&gt;Node2</title>
<g id="a_edge1_Node000001_Node000002"><a xlink:title=" ">
<path fill="none" stroke="#8b1a1a" d="M65.32,-243.43C73.4,-284.62 98,-381.08 158,-432 162.06,-435.45 166.58,-438.4 171.36,-440.93"/>
<polygon fill="#8b1a1a" stroke="#8b1a1a" points="68.76,-242.77 63.5,-233.58 61.88,-244.05 68.76,-242.77"/>
</a>
</g>
</g>
<!-- Node3 -->
<g id="Node000003" class="node">
<title>Node3</title>
<g id="a_Node000003"><a xlink:href="class_p4_1_1hvec__map.html" target="_top" xlink:title=" ">
<polygon fill="white" stroke="#bfbfbf" points="307,-422.5 185,-422.5 185,-381.5 307,-381.5 307,-422.5"/>
<text text-anchor="start" x="193" y="-410.5" font-family="Helvetica,sans-Serif" font-size="10.00">P4::hvec_map&lt; const</text>
<text text-anchor="start" x="193" y="-399.5" font-family="Helvetica,sans-Serif" font-size="10.00"> P4::IR::IDeclaration</text>
<text text-anchor="middle" x="246" y="-388.5" font-family="Helvetica,sans-Serif" font-size="10.00"> *, def_info_t &gt;</text>
</a>
</g>
</g>
<!-- Node1&#45;&gt;Node3 -->
<g id="edge2_Node000001_Node000003" class="edge">
<title>Node1&#45;&gt;Node3</title>
<g id="a_edge2_Node000001_Node000003"><a xlink:title=" ">
<path fill="none" stroke="#8b1a1a" d="M69.36,-242.83C82.5,-274.09 112.92,-336.74 158,-372 165.93,-378.2 175.22,-383.17 184.73,-387.13"/>
<polygon fill="#8b1a1a" stroke="#8b1a1a" points="72.58,-241.46 65.57,-233.52 66.09,-244.1 72.58,-241.46"/>
</a>
</g>
</g>
<!-- Node4 -->
<g id="Node000004" class="node">
<title>Node4</title>
<g id="a_Node000004"><a xlink:href="class_p4_1_1hvec__map.html" target="_top" xlink:title=" ">
<polygon fill="white" stroke="#bfbfbf" points="307,-363 185,-363 185,-311 307,-311 307,-363"/>
<text text-anchor="start" x="193" y="-351" font-family="Helvetica,sans-Serif" font-size="10.00">P4::hvec_map&lt; const</text>
<text text-anchor="start" x="193" y="-340" font-family="Helvetica,sans-Serif" font-size="10.00"> P4::IR::Node *, P4</text>
<text text-anchor="start" x="193" y="-329" font-family="Helvetica,sans-Serif" font-size="10.00">::hvec_set&lt; const loc</text>
<text text-anchor="middle" x="246" y="-318" font-family="Helvetica,sans-Serif" font-size="10.00">_t * &gt; &gt;</text>
</a>
</g>
</g>
<!-- Node1&#45;&gt;Node4 -->
<g id="edge3_Node000001_Node000004" class="edge">
<title>Node1&#45;&gt;Node4</title>
<g id="a_edge3_Node000001_Node000004"><a xlink:title=" ">
<path fill="none" stroke="#8b1a1a" d="M79.15,-240.63C97.48,-257.74 128,-284.32 158,-302 166.42,-306.96 175.67,-311.52 184.9,-315.59"/>
<polygon fill="#8b1a1a" stroke="#8b1a1a" points="81.29,-237.84 71.62,-233.5 76.47,-242.92 81.29,-237.84"/>
</a>
</g>
</g>
<!-- Node5 -->
<g id="Node000005" class="node">
<title>Node5</title>
<g id="a_Node000005"><a xlink:href="class_p4_1_1hvec__map.html" target="_top" xlink:title=" ">
<polygon fill="white" stroke="#bfbfbf" points="323.5,-293 168.5,-293 168.5,-263 323.5,-263 323.5,-293"/>
<text text-anchor="start" x="176.5" y="-281" font-family="Helvetica,sans-Serif" font-size="10.00">P4::hvec_map&lt; P4::loc</text>
<text text-anchor="middle" x="246" y="-270" font-family="Helvetica,sans-Serif" font-size="10.00">_t, const P4::LocationSet * &gt;</text>
</a>
</g>
</g>
<!-- Node1&#45;&gt;Node5 -->
<g id="edge4_Node000001_Node000005" class="edge">
<title>Node1&#45;&gt;Node5</title>
<g id="a_edge4_Node000001_Node000005"><a xlink:title=" ">
<path fill="none" stroke="#8b1a1a" d="M101.53,-236.68C118.82,-242.14 139.38,-248.52 158,-254 168.07,-256.96 178.83,-260.02 189.23,-262.91"/>
<polygon fill="#8b1a1a" stroke="#8b1a1a" points="102.35,-233.27 91.76,-233.58 100.23,-239.94 102.35,-233.27"/>
</a>
</g>
</g>
<!-- Node6 -->
<g id="Node000006" class="node">
<title>Node6</title>
<g id="a_Node000006"><a xlink:href="class_p4_1_1hvec__map.html" target="_top" xlink:title=" ">
<polygon fill="white" stroke="#bfbfbf" points="325,-244.5 167,-244.5 167,-203.5 325,-203.5 325,-244.5"/>
<text text-anchor="start" x="175" y="-232.5" font-family="Helvetica,sans-Serif" font-size="10.00">P4::hvec_map&lt; const</text>
<text text-anchor="start" x="175" y="-221.5" font-family="Helvetica,sans-Serif" font-size="10.00"> P4::BaseLocation *,</text>
<text text-anchor="middle" x="246" y="-210.5" font-family="Helvetica,sans-Serif" font-size="10.00"> const P4::ProgramPoints * &gt;</text>
</a>
</g>
</g>
<!-- Node1&#45;&gt;Node6 -->
<g id="edge5_Node000001_Node000006" class="edge">
<title>Node1&#45;&gt;Node6</title>
<g id="a_edge5_Node000001_Node000006"><a xlink:title=" ">
<path fill="none" stroke="#8b1a1a" d="M132.38,-224C143.65,-224 155.38,-224 166.82,-224"/>
<polygon fill="#8b1a1a" stroke="#8b1a1a" points="132.17,-220.5 122.17,-224 132.17,-227.5 132.17,-220.5"/>
</a>
</g>
</g>
<!-- Node7 -->
<g id="Node000007" class="node">
<title>Node7</title>
<g id="a_Node000007"><a xlink:href="class_p4_1_1hvec__map.html" target="_top" xlink:title=" ">
<polygon fill="white" stroke="#bfbfbf" points="334,-185.5 158,-185.5 158,-144.5 334,-144.5 334,-185.5"/>
<text text-anchor="start" x="166" y="-173.5" font-family="Helvetica,sans-Serif" font-size="10.00">P4::hvec_map&lt; const</text>
<text text-anchor="start" x="166" y="-162.5" font-family="Helvetica,sans-Serif" font-size="10.00"> P4::IR::IDeclaration</text>
<text text-anchor="middle" x="246" y="-151.5" font-family="Helvetica,sans-Serif" font-size="10.00"> *, const P4::StorageLocation * &gt;</text>
</a>
</g>
</g>
<!-- Node1&#45;&gt;Node7 -->
<g id="edge6_Node000001_Node000007" class="edge">
<title>Node1&#45;&gt;Node7</title>
<g id="a_edge6_Node000001_Node000007"><a xlink:title=" ">
<path fill="none" stroke="#8b1a1a" d="M101.63,-211.22C124.81,-203.75 154.62,-194.14 181.05,-185.62"/>
<polygon fill="#8b1a1a" stroke="#8b1a1a" points="100.25,-207.99 91.81,-214.39 102.4,-214.65 100.25,-207.99"/>
</a>
</g>
</g>
<!-- Node8 -->
<g id="Node000008" class="node">
<title>Node8</title>
<g id="a_Node000008"><a xlink:href="class_p4_1_1hvec__set.html" target="_top" xlink:title=" ">
<polygon fill="white" stroke="#bfbfbf" points="304,-126 188,-126 188,-96 304,-96 304,-126"/>
<text text-anchor="start" x="196" y="-114" font-family="Helvetica,sans-Serif" font-size="10.00">P4::hvec_set&lt; const</text>
<text text-anchor="middle" x="246" y="-103" font-family="Helvetica,sans-Serif" font-size="10.00"> loc_t * &gt;</text>
</a>
</g>
</g>
<!-- Node1&#45;&gt;Node8 -->
<g id="edge7_Node000001_Node000008" class="edge">
<title>Node1&#45;&gt;Node8</title>
<g id="a_edge7_Node000001_Node000008"><a xlink:title=" ">
<path fill="none" stroke="#8b1a1a" d="M76.49,-206.54C93.88,-186.67 124.87,-154.57 158,-136 167.18,-130.85 177.52,-126.69 187.78,-123.34"/>
<polygon fill="#8b1a1a" stroke="#8b1a1a" points="73.75,-204.36 69.9,-214.23 79.06,-208.91 73.75,-204.36"/>
</a>
</g>
</g>
<!-- Node9 -->
<g id="Node000009" class="node">
<title>Node9</title>
<g id="a_Node000009"><a xlink:href="class_p4_1_1hvec__map.html" target="_top" xlink:title=" ">
<polygon fill="white" stroke="#bfbfbf" points="322,-78 170,-78 170,-48 322,-48 322,-78"/>
<text text-anchor="start" x="178" y="-66" font-family="Helvetica,sans-Serif" font-size="10.00">P4::hvec_map&lt; KEY,</text>
<text text-anchor="middle" x="246" y="-55" font-family="Helvetica,sans-Serif" font-size="10.00"> VAL, HASH, PRED, ALLOC &gt;</text>
</a>
</g>
</g>
<!-- Node1&#45;&gt;Node9 -->
<g id="edge8_Node000001_Node000009" class="edge">
<title>Node1&#45;&gt;Node9</title>
<g id="a_edge8_Node000001_Node000009"><a xlink:title=" ">
<path fill="none" stroke="#8b1a1a" d="M70.09,-205.03C83.75,-175.27 114.27,-117.85 158,-87 162.87,-83.57 168.2,-80.63 173.77,-78.1"/>
<polygon fill="#8b1a1a" stroke="#8b1a1a" points="66.82,-203.75 65.96,-214.31 73.22,-206.59 66.82,-203.75"/>
</a>
</g>
</g>
<!-- Node10 -->
<g id="Node000010" class="node">
<title>Node10</title>
<g id="a_Node000010"><a xlink:href="class_p4_1_1hvec__set.html" target="_top" xlink:title=" ">
<polygon fill="white" stroke="#bfbfbf" points="310,-30 182,-30 182,0 310,0 310,-30"/>
<text text-anchor="start" x="190" y="-18" font-family="Helvetica,sans-Serif" font-size="10.00">P4::hvec_set&lt; KEY,</text>
<text text-anchor="middle" x="246" y="-7" font-family="Helvetica,sans-Serif" font-size="10.00"> HASH, PRED, ALLOC &gt;</text>
</a>
</g>
</g>
<!-- Node1&#45;&gt;Node10 -->
<g id="edge9_Node000001_Node000010" class="edge">
<title>Node1&#45;&gt;Node10</title>
<g id="a_edge9_Node000001_Node000010"><a xlink:title=" ">
<path fill="none" stroke="#8b1a1a" d="M66.59,-204.4C76.48,-166.52 103.48,-83.14 158,-39 164.94,-33.38 173.1,-29.07 181.6,-25.77"/>
<polygon fill="#8b1a1a" stroke="#8b1a1a" points="63.16,-203.65 64.15,-214.2 69.96,-205.34 63.16,-203.65"/>
</a>
</g>
</g>
</g>
</svg>
