<?xml version="1.0" encoding="UTF-8" standalone="no"?>
<!DOCTYPE svg PUBLIC "-//W3C//DTD SVG 1.1//EN"
 "http://www.w3.org/Graphics/SVG/1.1/DTD/svg11.dtd">
<!-- Generated by graphviz version 2.43.0 (0)
 -->
<!-- Title: VLIW::VLIWInstruction Pages: 1 -->
<!--zoomable 286 -->

<svg id="main" version="1.1" xmlns="http://www.w3.org/2000/svg" xmlns:xlink="http://www.w3.org/1999/xlink" xml:space="preserve" onload="init(evt)">

<style type="text/css"><![CDATA[
.node, .edge {opacity: 0.7;}
.node.selected, .edge.selected {opacity: 1;}
.edge:hover path { stroke: red; }
.edge:hover polygon { stroke: red; fill: red; }
]]></style>

<defs>
  <circle id="rim" cx="0" cy="0" r="7"/>
  <circle id="rim2" cx="0" cy="0" r="3.5"/>
  <g id="zoomPlus">
    <use xlink:href="#rim" fill="#404040"><set attributeName="fill" to="#808080" begin="zoomplus.mouseover" end="zoomplus.mouseout"/></use>
    <path d="M-4,0h8M0,-4v8" fill="none" stroke="white" stroke-width="1.5" pointer-events="none"/>
  </g>
  <g id="zoomMin">
    <use xlink:href="#rim" fill="#404040"><set attributeName="fill" to="#808080" begin="zoomminus.mouseover" end="zoomminus.mouseout"/></use>
    <path d="M-4,0h8" fill="none" stroke="white" stroke-width="1.5" pointer-events="none"/>
  </g>
  <g id="arrowUp" transform="translate(30 24)">
    <use xlink:href="#rim"/>
    <path pointer-events="none" fill="none" stroke="white" stroke-width="1.5" d="M0,-3.0v7 M-2.5,-0.5L0,-3.0L2.5,-0.5"/>
  </g>
  <g id="arrowRight" transform="rotate(90) translate(36 -43)">
    <use xlink:href="#rim"/>
    <path pointer-events="none" fill="none" stroke="white" stroke-width="1.5" d="M0,-3.0v7 M-2.5,-0.5L0,-3.0L2.5,-0.5"/>
  </g>
  <g id="arrowDown" transform="rotate(180) translate(-30 -48)">
    <use xlink:href="#rim"/>
    <path pointer-events="none" fill="none" stroke="white" stroke-width="1.5" d="M0,-3.0v7 M-2.5,-0.5L0,-3.0L2.5,-0.5"/>
  </g>
  <g id="arrowLeft" transform="rotate(270) translate(-36 17)">
    <use xlink:href="#rim"/>
    <path pointer-events="none" fill="none" stroke="white" stroke-width="1.5" d="M0,-3.0v7 M-2.5,-0.5L0,-3.0L2.5,-0.5"/>
  </g>
  <g id="resetDef">
    <use xlink:href="#rim2" fill="#404040"><set attributeName="fill" to="#808080" begin="reset.mouseover" end="reset.mouseout"/></use>
  </g>
</defs>
<script type="application/ecmascript">
var viewWidth = 664;
var viewHeight = 286;
var sectionId = 'dynsection-0';
</script>
<script type="application/ecmascript" xlink:href="svg.min.js"/>
<svg id="graph" class="graph">
<g id="viewport">
<title>VLIW::VLIWInstruction</title>
<!-- Node1 -->
<g id="Node000001" class="node">
<title>Node1</title>
<g id="a_Node000001"><a xlink:title=" ">
<polygon fill="#999999" stroke="#666666" points="355,-148 232,-148 232,-129 355,-129 355,-148"/>
<text text-anchor="middle" x="293.5" y="-136" font-family="Helvetica,sans-Serif" font-size="10.00">VLIW::VLIWInstruction</text>
</a>
</g>
</g>
<!-- Node4 -->
<g id="Node000004" class="node">
<title>Node4</title>
<g id="a_Node000004"><a xlink:href="struct_v_l_i_w_1_1_alu_o_p.html" target="_top" xlink:title=" ">
<polygon fill="white" stroke="#bfbfbf" points="495,-278 419,-278 419,-259 495,-259 495,-278"/>
<text text-anchor="middle" x="457" y="-266" font-family="Helvetica,sans-Serif" font-size="10.00">VLIW::AluOP</text>
</a>
</g>
</g>
<!-- Node1&#45;&gt;Node4 -->
<g id="edge3_Node000001_Node000004" class="edge">
<title>Node1&#45;&gt;Node4</title>
<g id="a_edge3_Node000001_Node000004"><a xlink:title=" ">
<path fill="none" stroke="#63b8ff" d="M305.64,-156.91C321.54,-181.61 353.04,-225.18 391,-249.5 399.32,-254.83 409.17,-258.7 418.66,-261.51"/>
<polygon fill="#63b8ff" stroke="#63b8ff" points="308.44,-154.77 300.16,-148.16 302.5,-158.49 308.44,-154.77"/>
</a>
</g>
</g>
<!-- Node6 -->
<g id="Node000006" class="node">
<title>Node6</title>
<g id="a_Node000006"><a xlink:href="struct_v_l_i_w_1_1_byte_rotate_merge.html" target="_top" xlink:title=" ">
<polygon fill="white" stroke="#666666" points="523,-241 391,-241 391,-222 523,-222 523,-241"/>
<text text-anchor="middle" x="457" y="-229" font-family="Helvetica,sans-Serif" font-size="10.00">VLIW::ByteRotateMerge</text>
</a>
</g>
</g>
<!-- Node1&#45;&gt;Node6 -->
<g id="edge5_Node000001_Node000006" class="edge">
<title>Node1&#45;&gt;Node6</title>
<g id="a_edge5_Node000001_Node000006"><a xlink:title=" ">
<path fill="none" stroke="#63b8ff" d="M311.88,-155.07C330.22,-171.73 360.63,-197.1 391,-212.5 398.44,-216.28 406.76,-219.42 414.89,-221.99"/>
<polygon fill="#63b8ff" stroke="#63b8ff" points="314.06,-152.31 304.34,-148.09 309.3,-157.45 314.06,-152.31"/>
</a>
</g>
</g>
<!-- Node7 -->
<g id="Node000007" class="node">
<title>Node7</title>
<g id="a_Node000007"><a xlink:href="struct_v_l_i_w_1_1_cond_move_mux.html" target="_top" xlink:title=" ">
<polygon fill="white" stroke="#bfbfbf" points="516.5,-204 397.5,-204 397.5,-185 516.5,-185 516.5,-204"/>
<text text-anchor="middle" x="457" y="-192" font-family="Helvetica,sans-Serif" font-size="10.00">VLIW::CondMoveMux</text>
</a>
</g>
</g>
<!-- Node1&#45;&gt;Node7 -->
<g id="edge6_Node000001_Node000007" class="edge">
<title>Node1&#45;&gt;Node7</title>
<g id="a_edge6_Node000001_Node000007"><a xlink:title=" ">
<path fill="none" stroke="#63b8ff" d="M327.18,-151.79C345.75,-159.16 369.53,-168.26 391,-175.5 400.8,-178.81 411.55,-182.08 421.43,-184.96"/>
<polygon fill="#63b8ff" stroke="#63b8ff" points="328.29,-148.47 317.71,-148.01 325.69,-154.97 328.29,-148.47"/>
</a>
</g>
</g>
<!-- Node8 -->
<g id="Node000008" class="node">
<title>Node8</title>
<g id="a_Node000008"><a xlink:href="struct_v_l_i_w_1_1_deposit_field.html" target="_top" xlink:title=" ">
<polygon fill="white" stroke="#bfbfbf" points="510.5,-167 403.5,-167 403.5,-148 510.5,-148 510.5,-167"/>
<text text-anchor="middle" x="457" y="-155" font-family="Helvetica,sans-Serif" font-size="10.00">VLIW::DepositField</text>
</a>
</g>
</g>
<!-- Node1&#45;&gt;Node8 -->
<g id="edge7_Node000001_Node000008" class="edge">
<title>Node1&#45;&gt;Node8</title>
<g id="a_edge7_Node000001_Node000008"><a xlink:title=" ">
<path fill="none" stroke="#63b8ff" d="M365.24,-146.82C378.02,-148.33 391.13,-149.87 403.28,-151.3"/>
<polygon fill="#63b8ff" stroke="#63b8ff" points="365.44,-143.32 355.1,-145.63 364.62,-150.27 365.44,-143.32"/>
</a>
</g>
</g>
<!-- Node9 -->
<g id="Node000009" class="node">
<title>Node9</title>
<g id="a_Node000009"><a xlink:href="struct_v_l_i_w_1_1_load_const.html" target="_top" xlink:title=" ">
<polygon fill="white" stroke="#bfbfbf" points="506,-130 408,-130 408,-111 506,-111 506,-130"/>
<text text-anchor="middle" x="457" y="-118" font-family="Helvetica,sans-Serif" font-size="10.00">VLIW::LoadConst</text>
</a>
</g>
</g>
<!-- Node1&#45;&gt;Node9 -->
<g id="edge8_Node000001_Node000009" class="edge">
<title>Node1&#45;&gt;Node9</title>
<g id="a_edge8_Node000001_Node000009"><a xlink:title=" ">
<path fill="none" stroke="#63b8ff" d="M365.45,-130.59C379.81,-128.99 394.58,-127.35 407.93,-125.86"/>
<polygon fill="#63b8ff" stroke="#63b8ff" points="364.65,-127.16 355.1,-131.75 365.42,-134.12 364.65,-127.16"/>
</a>
</g>
</g>
<!-- Node10 -->
<g id="Node000010" class="node">
<title>Node10</title>
<g id="a_Node000010"><a xlink:href="struct_v_l_i_w_1_1_nul_o_p.html" target="_top" xlink:title=" ">
<polygon fill="white" stroke="#bfbfbf" points="495.5,-93 418.5,-93 418.5,-74 495.5,-74 495.5,-93"/>
<text text-anchor="middle" x="457" y="-81" font-family="Helvetica,sans-Serif" font-size="10.00">VLIW::NulOP</text>
</a>
</g>
</g>
<!-- Node1&#45;&gt;Node10 -->
<g id="edge9_Node000001_Node000010" class="edge">
<title>Node1&#45;&gt;Node10</title>
<g id="a_edge9_Node000001_Node000010"><a xlink:title=" ">
<path fill="none" stroke="#63b8ff" d="M327.14,-125.09C345.7,-117.69 369.48,-108.59 391,-101.5 400.01,-98.53 409.82,-95.64 419.03,-93.08"/>
<polygon fill="#63b8ff" stroke="#63b8ff" points="325.65,-121.92 317.67,-128.89 328.26,-128.41 325.65,-121.92"/>
</a>
</g>
</g>
<!-- Node11 -->
<g id="Node000011" class="node">
<title>Node11</title>
<g id="a_Node000011"><a xlink:href="struct_v_l_i_w_1_1_set.html" target="_top" xlink:title=" ">
<polygon fill="white" stroke="#bfbfbf" points="488,-56 426,-56 426,-37 488,-37 488,-56"/>
<text text-anchor="middle" x="457" y="-44" font-family="Helvetica,sans-Serif" font-size="10.00">VLIW::Set</text>
</a>
</g>
</g>
<!-- Node1&#45;&gt;Node11 -->
<g id="edge10_Node000001_Node000011" class="edge">
<title>Node1&#45;&gt;Node11</title>
<g id="a_edge10_Node000001_Node000011"><a xlink:title=" ">
<path fill="none" stroke="#63b8ff" d="M311.83,-121.85C330.14,-105.11 360.52,-79.68 391,-64.5 401.9,-59.07 414.67,-55.08 425.99,-52.26"/>
<polygon fill="#63b8ff" stroke="#63b8ff" points="309.24,-119.48 304.32,-128.85 314.02,-124.6 309.24,-119.48"/>
</a>
</g>
</g>
<!-- Node12 -->
<g id="Node000012" class="node">
<title>Node12</title>
<g id="a_Node000012"><a xlink:href="struct_v_l_i_w_1_1_shift_o_p.html" target="_top" xlink:title=" ">
<polygon fill="white" stroke="#bfbfbf" points="498,-19 416,-19 416,0 498,0 498,-19"/>
<text text-anchor="middle" x="457" y="-7" font-family="Helvetica,sans-Serif" font-size="10.00">VLIW::ShiftOP</text>
</a>
</g>
</g>
<!-- Node1&#45;&gt;Node12 -->
<g id="edge11_Node000001_Node000012" class="edge">
<title>Node1&#45;&gt;Node12</title>
<g id="a_edge11_Node000001_Node000012"><a xlink:title=" ">
<path fill="none" stroke="#63b8ff" d="M305.59,-120.02C321.43,-95.23 352.86,-51.55 391,-27.5 398.53,-22.75 407.31,-19.24 415.95,-16.64"/>
<polygon fill="#63b8ff" stroke="#63b8ff" points="302.44,-118.46 300.13,-128.8 308.38,-122.16 302.44,-118.46"/>
</a>
</g>
</g>
<!-- Node2 -->
<g id="Node000002" class="node">
<title>Node2</title>
<g id="a_Node000002"><a xlink:href="struct_instruction.html" target="_top" xlink:title=" ">
<polygon fill="white" stroke="#666666" points="196,-148 128,-148 128,-129 196,-129 196,-148"/>
<text text-anchor="middle" x="162" y="-136" font-family="Helvetica,sans-Serif" font-size="10.00">Instruction</text>
</a>
</g>
</g>
<!-- Node2&#45;&gt;Node1 -->
<g id="edge1_Node000001_Node000002" class="edge">
<title>Node2&#45;&gt;Node1</title>
<g id="a_edge1_Node000001_Node000002"><a xlink:title=" ">
<path fill="none" stroke="#63b8ff" d="M206.13,-138.5C214.39,-138.5 223.17,-138.5 231.85,-138.5"/>
<polygon fill="#63b8ff" stroke="#63b8ff" points="206.01,-135 196.01,-138.5 206.01,-142 206.01,-135"/>
</a>
</g>
</g>
<!-- Node3 -->
<g id="Node000003" class="node">
<title>Node3</title>
<g id="a_Node000003"><a xlink:href="class_p4_1_1_i_has_db_print.html" target="_top" xlink:title=" ">
<polygon fill="white" stroke="#bfbfbf" points="92,-148 0,-148 0,-129 92,-129 92,-148"/>
<text text-anchor="middle" x="46" y="-136" font-family="Helvetica,sans-Serif" font-size="10.00">P4::IHasDbPrint</text>
</a>
</g>
</g>
<!-- Node3&#45;&gt;Node2 -->
<g id="edge2_Node000002_Node000003" class="edge">
<title>Node3&#45;&gt;Node2</title>
<g id="a_edge2_Node000002_Node000003"><a xlink:title=" ">
<path fill="none" stroke="#63b8ff" d="M102.26,-138.5C111.02,-138.5 119.83,-138.5 127.87,-138.5"/>
<polygon fill="#63b8ff" stroke="#63b8ff" points="102.06,-135 92.06,-138.5 102.06,-142 102.06,-135"/>
</a>
</g>
</g>
<!-- Node5 -->
<g id="Node000005" class="node">
<title>Node5</title>
<g id="a_Node000005"><a xlink:href="struct_v_l_i_w_1_1_alu_o_p3_src.html" target="_top" xlink:title=" ">
<polygon fill="white" stroke="#bfbfbf" points="656,-278 559,-278 559,-259 656,-259 656,-278"/>
<text text-anchor="middle" x="607.5" y="-266" font-family="Helvetica,sans-Serif" font-size="10.00">VLIW::AluOP3Src</text>
</a>
</g>
</g>
<!-- Node4&#45;&gt;Node5 -->
<g id="edge4_Node000004_Node000005" class="edge">
<title>Node4&#45;&gt;Node5</title>
<g id="a_edge4_Node000004_Node000005"><a xlink:title=" ">
<path fill="none" stroke="#63b8ff" d="M505.42,-268.5C522.53,-268.5 541.83,-268.5 558.95,-268.5"/>
<polygon fill="#63b8ff" stroke="#63b8ff" points="505.09,-265 495.09,-268.5 505.09,-272 505.09,-265"/>
</a>
</g>
</g>
</g>
</svg>

<g id="navigator" transform="translate(0 0)" fill="#404254">
  <rect fill="#f2f5e9" fill-opacity="0.5" stroke="#606060" stroke-width=".5" x="0" y="0" width="60" height="60"/>
  <use id="zoomplus" xlink:href="#zoomPlus" x="17" y="9" onmousedown="handleZoom(evt,'in')"/>
  <use id="zoomminus" xlink:href="#zoomMin" x="42" y="9" onmousedown="handleZoom(evt,'out')"/>
  <use id="reset" xlink:href="#resetDef" x="30" y="36" onmousedown="handleReset()"/>
   <use id="arrowup" xlink:href="#arrowUp" x="0" y="0" onmousedown="handlePan(0,-1)"/>
  <use id="arrowright" xlink:href="#arrowRight" x="0" y="0" onmousedown="handlePan(1,0)"/>
  <use id="arrowdown" xlink:href="#arrowDown" x="0" y="0" onmousedown="handlePan(0,1)"/>
  <use id="arrowleft" xlink:href="#arrowLeft" x="0" y="0" onmousedown="handlePan(-1,0)"/>
</g>
<svg viewBox="0 0 15 15" width="100%" height="30px" preserveAspectRatio="xMaxYMin meet">
 <g id="arrow_out" transform="scale(0.3 0.3)">
  <a xlink:href="struct_v_l_i_w_1_1_v_l_i_w_instruction__inherit__graph_org.svg" target="_base">
   <rect id="button" ry="5" rx="5" y="6" x="6" height="38" width="38"
        fill="#f2f5e9" fill-opacity="0.5" stroke="#606060" stroke-width="1.0"/>
   <path id="arrow"
     d="M 11.500037,31.436501 C 11.940474,20.09759 22.043105,11.32322 32.158766,21.979434 L 37.068811,17.246167 C 37.068811,17.246167 37.088388,32 37.088388,32 L 22.160133,31.978069 C 22.160133,31.978069 26.997745,27.140456 26.997745,27.140456 C 18.528582,18.264221 13.291696,25.230495 11.500037,31.436501 z"
     style="fill:#404040;"/>
  </a>
 </g>
</svg>

<style type='text/css'>
<![CDATA[
[data-mouse-over-selected='false'] { opacity: 0.7; }
[data-mouse-over-selected='true']  { opacity: 1.0; }
]]>
</style>
<script type="application/ecmascript"><![CDATA[
document.addEventListener('DOMContentLoaded', (event) => {
  highlightEdges();
  highlightAdjacentNodes();
});
]]></script>
</svg>
