<?xml version="1.0" encoding="UTF-8" standalone="no"?>
<!DOCTYPE svg PUBLIC "-//W3C//DTD SVG 1.1//EN"
 "http://www.w3.org/Graphics/SVG/1.1/DTD/svg11.dtd">
<!-- Generated by graphviz version 2.43.0 (0)
 -->
<!-- Title: P4::ComputeDefUse::SetupJoinPoints Pages: 1 -->
<svg width="239pt" height="214pt"
 viewBox="0.00 0.00 239.00 214.00" xmlns="http://www.w3.org/2000/svg" xmlns:xlink="http://www.w3.org/1999/xlink">

<svg id="main" version="1.1" xmlns="http://www.w3.org/2000/svg" xmlns:xlink="http://www.w3.org/1999/xlink" xml:space="preserve">

<style type="text/css"><![CDATA[
.node, .edge {opacity: 0.7;}
.node.selected, .edge.selected {opacity: 1;}
.edge:hover path { stroke: red; }
.edge:hover polygon { stroke: red; fill: red; }
]]></style>
<script type="application/ecmascript" xlink:href="svg.min.js"/>
<svg id="graph" class="graph">
<g id="graph0" class="graph" transform="scale(1 1) rotate(0) translate(4 210)">
<title>P4::ComputeDefUse::SetupJoinPoints</title>
<!-- Node1 -->
<g id="Node000001" class="node">
<title>Node1</title>
<g id="a_Node000001"><a xlink:title=" ">
<polygon fill="#999999" stroke="#666666" points="168,-30 47,-30 47,0 168,0 168,-30"/>
<text text-anchor="start" x="55" y="-18" font-family="Helvetica,sans-Serif" font-size="10.00">P4::ComputeDefUse::</text>
<text text-anchor="middle" x="107.5" y="-7" font-family="Helvetica,sans-Serif" font-size="10.00">SetupJoinPoints</text>
</a>
</g>
</g>
<!-- Node2 -->
<g id="Node000002" class="node">
<title>Node2</title>
<g id="a_Node000002"><a xlink:href="class_p4_1_1_control_flow_visitor_1_1_setup_join_points.html" target="_top" xlink:title=" ">
<polygon fill="white" stroke="#bfbfbf" points="125,-96 0,-96 0,-66 125,-66 125,-96"/>
<text text-anchor="start" x="8" y="-84" font-family="Helvetica,sans-Serif" font-size="10.00">P4::ControlFlowVisitor</text>
<text text-anchor="middle" x="62.5" y="-73" font-family="Helvetica,sans-Serif" font-size="10.00">::SetupJoinPoints</text>
</a>
</g>
</g>
<!-- Node2&#45;&gt;Node1 -->
<g id="edge1_Node000001_Node000002" class="edge">
<title>Node2&#45;&gt;Node1</title>
<g id="a_edge1_Node000001_Node000002"><a xlink:title=" ">
<path fill="none" stroke="#63b8ff" d="M78.3,-57.53C84.7,-48.43 91.89,-38.19 97.54,-30.16"/>
<polygon fill="#63b8ff" stroke="#63b8ff" points="75.38,-55.6 72.49,-65.8 81.1,-59.63 75.38,-55.6"/>
</a>
</g>
</g>
<!-- Node3 -->
<g id="Node000003" class="node">
<title>Node3</title>
<g id="a_Node000003"><a xlink:href="class_p4_1_1_inspector.html" target="_top" xlink:title=" ">
<polygon fill="white" stroke="#bfbfbf" points="87.5,-151 7.5,-151 7.5,-132 87.5,-132 87.5,-151"/>
<text text-anchor="middle" x="47.5" y="-139" font-family="Helvetica,sans-Serif" font-size="10.00">P4::Inspector</text>
</a>
</g>
</g>
<!-- Node3&#45;&gt;Node2 -->
<g id="edge2_Node000002_Node000003" class="edge">
<title>Node3&#45;&gt;Node2</title>
<g id="a_edge2_Node000002_Node000003"><a xlink:title=" ">
<path fill="none" stroke="#63b8ff" d="M52.26,-121.93C54.4,-113.58 56.89,-103.87 58.88,-96.11"/>
<polygon fill="#63b8ff" stroke="#63b8ff" points="48.81,-121.31 49.71,-131.87 55.59,-123.05 48.81,-121.31"/>
</a>
</g>
</g>
<!-- Node4 -->
<g id="Node000004" class="node">
<title>Node4</title>
<g id="a_Node000004"><a xlink:href="class_p4_1_1_visitor.html" target="_top" xlink:title=" ">
<polygon fill="white" stroke="#bfbfbf" points="84.5,-206 18.5,-206 18.5,-187 84.5,-187 84.5,-206"/>
<text text-anchor="middle" x="51.5" y="-194" font-family="Helvetica,sans-Serif" font-size="10.00">P4::Visitor</text>
</a>
</g>
</g>
<!-- Node4&#45;&gt;Node3 -->
<g id="edge3_Node000003_Node000004" class="edge">
<title>Node4&#45;&gt;Node3</title>
<g id="a_edge3_Node000003_Node000004"><a xlink:title=" ">
<path fill="none" stroke="#63b8ff" d="M50.08,-176.66C49.42,-167.93 48.67,-157.99 48.15,-151.09"/>
<polygon fill="#63b8ff" stroke="#63b8ff" points="46.6,-177.04 50.84,-186.75 53.58,-176.51 46.6,-177.04"/>
</a>
</g>
</g>
<!-- Node5 -->
<g id="Node000005" class="node">
<title>Node5</title>
<g id="a_Node000005"><a xlink:href="class_p4_1_1_resolution_context.html" target="_top" xlink:title="Visitor mixin for looking up names in enclosing scopes from the Visitor::Context.">
<polygon fill="white" stroke="#666666" points="231,-151 106,-151 106,-132 231,-132 231,-151"/>
<text text-anchor="middle" x="168.5" y="-139" font-family="Helvetica,sans-Serif" font-size="10.00">P4::ResolutionContext</text>
</a>
</g>
</g>
<!-- Node4&#45;&gt;Node5 -->
<g id="edge5_Node000005_Node000004" class="edge">
<title>Node4&#45;&gt;Node5</title>
<g id="a_edge5_Node000005_Node000004"><a xlink:title=" ">
<path fill="none" stroke="#63b8ff" d="M79.61,-182.77C101.19,-172.99 130.41,-159.75 149.36,-151.17"/>
<polygon fill="#63b8ff" stroke="#63b8ff" points="77.96,-179.67 70.3,-186.98 80.85,-186.05 77.96,-179.67"/>
</a>
</g>
</g>
<!-- Node5&#45;&gt;Node1 -->
<g id="edge4_Node000001_Node000005" class="edge">
<title>Node5&#45;&gt;Node1</title>
<g id="a_edge4_Node000001_Node000005"><a xlink:title=" ">
<path fill="none" stroke="#63b8ff" d="M160.66,-122.43C153.97,-107.24 143.97,-85.03 134.5,-66 128.44,-53.81 121.06,-40.23 115.56,-30.31"/>
<polygon fill="#63b8ff" stroke="#63b8ff" points="157.5,-123.93 164.71,-131.69 163.91,-121.13 157.5,-123.93"/>
</a>
</g>
</g>
<!-- Node6 -->
<g id="Node000006" class="node">
<title>Node6</title>
<g id="a_Node000006"><a xlink:href="class_p4_1_1_declaration_lookup.html" target="_top" xlink:title=" ">
<polygon fill="white" stroke="#bfbfbf" points="231,-206 106,-206 106,-187 231,-187 231,-206"/>
<text text-anchor="middle" x="168.5" y="-194" font-family="Helvetica,sans-Serif" font-size="10.00">P4::DeclarationLookup</text>
</a>
</g>
</g>
<!-- Node6&#45;&gt;Node5 -->
<g id="edge6_Node000005_Node000006" class="edge">
<title>Node6&#45;&gt;Node5</title>
<g id="a_edge6_Node000005_Node000006"><a xlink:title=" ">
<path fill="none" stroke="#63b8ff" d="M168.5,-176.66C168.5,-167.93 168.5,-157.99 168.5,-151.09"/>
<polygon fill="#63b8ff" stroke="#63b8ff" points="165,-176.75 168.5,-186.75 172,-176.75 165,-176.75"/>
</a>
</g>
</g>
</g>
</svg>
</svg>

<style type='text/css'>
<![CDATA[
[data-mouse-over-selected='false'] { opacity: 0.7; }
[data-mouse-over-selected='true']  { opacity: 1.0; }
]]>
</style>
<script type="application/ecmascript"><![CDATA[
document.addEventListener('DOMContentLoaded', (event) => {
  highlightEdges();
  highlightAdjacentNodes();
});
]]></script>
</svg>
