<?xml version="1.0" encoding="UTF-8" standalone="no"?>
<!DOCTYPE svg PUBLIC "-//W3C//DTD SVG 1.1//EN"
 "http://www.w3.org/Graphics/SVG/1.1/DTD/svg11.dtd">
<!-- Generated by graphviz version 2.43.0 (0)
 -->
<!-- Title: P4::Visitor Pages: 1 -->
<svg width="466pt" height="1578pt"
 viewBox="0.00 0.00 466.00 1578.46" xmlns="http://www.w3.org/2000/svg" xmlns:xlink="http://www.w3.org/1999/xlink">
<g id="graph0" class="graph" transform="scale(1 1) rotate(0) translate(4 1574.46)">
<title>P4::Visitor</title>
<!-- Node1 -->
<g id="Node000001" class="node">
<title>Node1</title>
<g id="a_Node000001"><a xlink:title=" ">
<polygon fill="#999999" stroke="#666666" points="66,-243 0,-243 0,-224 66,-224 66,-243"/>
<text text-anchor="middle" x="33" y="-231" font-family="Helvetica,sans-Serif" font-size="10.00">P4::Visitor</text>
</a>
</g>
</g>
<!-- Node2 -->
<g id="Node000002" class="node">
<title>Node2</title>
<g id="a_Node000002"><a xlink:href="class_p4_1_1_backtrack.html" target="_top" xlink:title=" ">
<polygon fill="white" stroke="#bfbfbf" points="208.5,-1518 125.5,-1518 125.5,-1499 208.5,-1499 208.5,-1518"/>
<text text-anchor="middle" x="167" y="-1506" font-family="Helvetica,sans-Serif" font-size="10.00">P4::Backtrack</text>
</a>
</g>
</g>
<!-- Node1&#45;&gt;Node2 -->
<g id="edge1_Node000001_Node000002" class="edge">
<title>Node1&#45;&gt;Node2</title>
<g id="a_edge1_Node000001_Node000002"><a xlink:title=" ">
<path fill="none" stroke="#63b8ff" d="M34.57,-253.43C37.59,-353.11 53.49,-807.24 102,-1175.5 118.99,-1304.49 154.34,-1458.94 163.69,-1498.76"/>
<polygon fill="#63b8ff" stroke="#63b8ff" points="38.06,-253.18 34.27,-243.29 31.06,-253.39 38.06,-253.18"/>
</a>
</g>
</g>
<!-- Node3 -->
<g id="Node000003" class="node">
<title>Node3</title>
<g id="a_Node000003"><a xlink:href="class_p4_1_1_on_backtrack.html" target="_top" xlink:title=" ">
<polygon fill="white" stroke="#bfbfbf" points="425.5,-1556 300.5,-1556 300.5,-1537 425.5,-1537 425.5,-1556"/>
<text text-anchor="middle" x="363" y="-1544" font-family="Helvetica,sans-Serif" font-size="10.00">P4::OnBacktrack&lt; T &gt;</text>
</a>
</g>
</g>
<!-- Node1&#45;&gt;Node3 -->
<g id="edge45_Node000001_Node000003" class="edge">
<title>Node1&#45;&gt;Node3</title>
<g id="a_edge45_Node000001_Node000003"><a xlink:title=" ">
<path fill="none" stroke="#63b8ff" d="M34.3,-253.39C36.82,-412.97 55.39,-1479.93 102,-1527.5 161.55,-1588.28 273.85,-1570.04 329.32,-1556.06"/>
<polygon fill="#63b8ff" stroke="#63b8ff" points="37.8,-253.09 34.14,-243.15 30.8,-253.2 37.8,-253.09"/>
</a>
</g>
</g>
<!-- Node4 -->
<g id="Node000004" class="node">
<title>Node4</title>
<g id="a_Node000004"><a xlink:href="class_p4_1_1_pass_manager.html" target="_top" xlink:title=" ">
<polygon fill="white" stroke="orangered" points="412.5,-1519 313.5,-1519 313.5,-1500 412.5,-1500 412.5,-1519"/>
<text text-anchor="middle" x="363" y="-1507" font-family="Helvetica,sans-Serif" font-size="10.00">P4::PassManager</text>
</a>
</g>
</g>
<!-- Node1&#45;&gt;Node4 -->
<g id="edge49_Node000001_Node000004" class="edge">
<title>Node1&#45;&gt;Node4</title>
<g id="a_edge49_Node000001_Node000004"><a xlink:title=" ">
<path fill="none" stroke="#63b8ff" d="M35.3,-253.5C40.42,-329.47 61.03,-607.2 102,-832.5 156.04,-1129.66 48.37,-1284.16 268,-1491.5 280.08,-1502.91 297.07,-1508.15 313.28,-1510.3"/>
<polygon fill="#63b8ff" stroke="#63b8ff" points="38.76,-252.83 34.6,-243.08 31.77,-253.29 38.76,-252.83"/>
</a>
</g>
</g>
<!-- Node109 -->
<g id="Node000109" class="node">
<title>Node109</title>
<g id="a_Node000109"><a xlink:href="class_p4_1_1_control_flow_visitor.html" target="_top" xlink:title=" ">
<polygon fill="white" stroke="#bfbfbf" points="229.5,-93 104.5,-93 104.5,-74 229.5,-74 229.5,-93"/>
<text text-anchor="middle" x="167" y="-81" font-family="Helvetica,sans-Serif" font-size="10.00">P4::ControlFlowVisitor</text>
</a>
</g>
</g>
<!-- Node1&#45;&gt;Node109 -->
<g id="edge4_Node000001_Node000109" class="edge">
<title>Node1&#45;&gt;Node109</title>
<g id="a_edge4_Node000001_Node000109"><a xlink:title=" ">
<path fill="none" stroke="#63b8ff" d="M38.88,-213.95C47.06,-185.28 66.24,-132.03 102,-102.5 106.74,-98.59 112.26,-95.48 118.03,-93.02"/>
<polygon fill="#63b8ff" stroke="#63b8ff" points="35.41,-213.39 36.2,-223.96 42.17,-215.21 35.41,-213.39"/>
</a>
</g>
</g>
<!-- Node112 -->
<g id="Node000112" class="node">
<title>Node112</title>
<g id="a_Node000112"><a xlink:href="class_p4_1_1_dynamic_visitor.html" target="_top" xlink:title=" ">
<polygon fill="white" stroke="#bfbfbf" points="222,-329 112,-329 112,-310 222,-310 222,-329"/>
<text text-anchor="middle" x="167" y="-317" font-family="Helvetica,sans-Serif" font-size="10.00">P4::DynamicVisitor</text>
</a>
</g>
</g>
<!-- Node1&#45;&gt;Node112 -->
<g id="edge7_Node000001_Node000112" class="edge">
<title>Node1&#45;&gt;Node112</title>
<g id="a_edge7_Node000001_Node000112"><a xlink:title=" ">
<path fill="none" stroke="#63b8ff" d="M47.77,-251.31C60.36,-266.44 80.29,-287.68 102,-300.5 108.49,-304.33 115.81,-307.44 123.12,-309.95"/>
<polygon fill="#63b8ff" stroke="#63b8ff" points="50.25,-248.8 41.25,-243.21 44.8,-253.2 50.25,-248.8"/>
</a>
</g>
</g>
<!-- Node113 -->
<g id="Node000113" class="node">
<title>Node113</title>
<g id="a_Node000113"><a xlink:href="class_p4_1_1_inline_driver.html" target="_top" xlink:title=" ">
<polygon fill="white" stroke="#bfbfbf" points="232,-291.5 102,-291.5 102,-261.5 232,-261.5 232,-291.5"/>
<text text-anchor="start" x="110" y="-279.5" font-family="Helvetica,sans-Serif" font-size="10.00">P4::InlineDriver&lt; Inline</text>
<text text-anchor="middle" x="167" y="-268.5" font-family="Helvetica,sans-Serif" font-size="10.00">List, InlineWorkList &gt;</text>
</a>
</g>
</g>
<!-- Node1&#45;&gt;Node113 -->
<g id="edge8_Node000001_Node000113" class="edge">
<title>Node1&#45;&gt;Node113</title>
<g id="a_edge8_Node000001_Node000113"><a xlink:title=" ">
<path fill="none" stroke="#63b8ff" d="M73.09,-246.23C87.79,-251.02 104.65,-256.51 119.93,-261.49"/>
<polygon fill="#63b8ff" stroke="#63b8ff" points="73.89,-242.81 63.3,-243.04 71.72,-249.47 73.89,-242.81"/>
</a>
</g>
</g>
<!-- Node114 -->
<g id="Node000114" class="node">
<title>Node114</title>
<g id="a_Node000114"><a xlink:href="class_p4_1_1_inspector.html" target="_top" xlink:title=" ">
<polygon fill="white" stroke="orangered" points="207,-823 127,-823 127,-804 207,-804 207,-823"/>
<text text-anchor="middle" x="167" y="-811" font-family="Helvetica,sans-Serif" font-size="10.00">P4::Inspector</text>
</a>
</g>
</g>
<!-- Node1&#45;&gt;Node114 -->
<g id="edge9_Node000001_Node000114" class="edge">
<title>Node1&#45;&gt;Node114</title>
<g id="a_edge9_Node000001_Node000114"><a xlink:title=" ">
<path fill="none" stroke="#63b8ff" d="M38.44,-253.03C59.45,-345.32 148.39,-736.13 163.74,-803.57"/>
<polygon fill="#63b8ff" stroke="#63b8ff" points="41.81,-252.06 36.18,-243.08 34.99,-253.61 41.81,-252.06"/>
</a>
</g>
</g>
<!-- Node308 -->
<g id="Node000308" class="node">
<title>Node308</title>
<g id="a_Node000308"><a xlink:href="class_p4_1_1_modifier.html" target="_top" xlink:title=" ">
<polygon fill="white" stroke="orangered" points="204,-206 130,-206 130,-187 204,-187 204,-206"/>
<text text-anchor="middle" x="167" y="-194" font-family="Helvetica,sans-Serif" font-size="10.00">P4::Modifier</text>
</a>
</g>
</g>
<!-- Node1&#45;&gt;Node308 -->
<g id="edge44_Node000001_Node000308" class="edge">
<title>Node1&#45;&gt;Node308</title>
<g id="a_edge44_Node000001_Node000308"><a xlink:title=" ">
<path fill="none" stroke="#63b8ff" d="M75.96,-221.74C93.95,-216.7 114.69,-210.88 131.74,-206.1"/>
<polygon fill="#63b8ff" stroke="#63b8ff" points="74.98,-218.38 66.29,-224.45 76.86,-225.12 74.98,-218.38"/>
</a>
</g>
</g>
<!-- Node322 -->
<g id="Node000322" class="node">
<title>Node322</title>
<g id="a_Node000322"><a xlink:href="class_p4_1_1_p4_write_context.html" target="_top" xlink:title=" ">
<polygon fill="white" stroke="orangered" points="222.5,-130 111.5,-130 111.5,-111 222.5,-111 222.5,-130"/>
<text text-anchor="middle" x="167" y="-118" font-family="Helvetica,sans-Serif" font-size="10.00">P4::P4WriteContext</text>
</a>
</g>
</g>
<!-- Node1&#45;&gt;Node322 -->
<g id="edge46_Node000001_Node000322" class="edge">
<title>Node1&#45;&gt;Node322</title>
<g id="a_edge46_Node000001_Node000322"><a xlink:title=" ">
<path fill="none" stroke="#63b8ff" d="M43.9,-215.01C55.44,-195.07 76.24,-163.62 102,-144.5 110.29,-138.35 120.34,-133.6 129.99,-130.02"/>
<polygon fill="#63b8ff" stroke="#63b8ff" points="40.83,-213.33 39,-223.77 46.94,-216.75 40.83,-213.33"/>
</a>
</g>
</g>
<!-- Node329 -->
<g id="Node000329" class="node">
<title>Node329</title>
<g id="a_Node000329"><a xlink:href="class_p4_1_1_resolution_context.html" target="_top" xlink:title="Visitor mixin for looking up names in enclosing scopes from the Visitor::Context.">
<polygon fill="#fff0f0" stroke="red" points="229.5,-243 104.5,-243 104.5,-224 229.5,-224 229.5,-243"/>
<text text-anchor="middle" x="167" y="-231" font-family="Helvetica,sans-Serif" font-size="10.00">P4::ResolutionContext</text>
</a>
</g>
</g>
<!-- Node1&#45;&gt;Node329 -->
<g id="edge50_Node000001_Node000329" class="edge">
<title>Node1&#45;&gt;Node329</title>
<g id="a_edge50_Node000001_Node000329"><a xlink:title=" ">
<path fill="none" stroke="#63b8ff" d="M76.41,-233.5C85.33,-233.5 94.92,-233.5 104.38,-233.5"/>
<polygon fill="#63b8ff" stroke="#63b8ff" points="76.29,-230 66.29,-233.5 76.29,-237 76.29,-230"/>
</a>
</g>
</g>
<!-- Node364 -->
<g id="Node000364" class="node">
<title>Node364</title>
<g id="a_Node000364"><a xlink:href="class_p4_1_1_type_inference_base.html" target="_top" xlink:title=" ">
<polygon fill="white" stroke="orangered" points="426.5,-167 299.5,-167 299.5,-148 426.5,-148 426.5,-167"/>
<text text-anchor="middle" x="363" y="-155" font-family="Helvetica,sans-Serif" font-size="10.00">P4::TypeInferenceBase</text>
</a>
</g>
</g>
<!-- Node1&#45;&gt;Node364 -->
<g id="edge58_Node000001_Node000364" class="edge">
<title>Node1&#45;&gt;Node364</title>
<g id="a_edge58_Node000001_Node000364"><a xlink:title=" ">
<path fill="none" stroke="#63b8ff" d="M49.54,-216.25C62.26,-203.4 81.45,-186.72 102,-178.5 165.71,-153.03 245.07,-150.35 299.24,-152.41"/>
<polygon fill="#63b8ff" stroke="#63b8ff" points="46.86,-213.99 42.5,-223.65 51.93,-218.82 46.86,-213.99"/>
</a>
</g>
</g>
<!-- Node367 -->
<g id="Node000367" class="node">
<title>Node367</title>
<g id="a_Node000367"><a xlink:href="class_p4_1_1_transform.html" target="_top" xlink:title=" ">
<polygon fill="white" stroke="orangered" points="208.5,-56 125.5,-56 125.5,-37 208.5,-37 208.5,-56"/>
<text text-anchor="middle" x="167" y="-44" font-family="Helvetica,sans-Serif" font-size="10.00">P4::Transform</text>
</a>
</g>
</g>
<!-- Node1&#45;&gt;Node367 -->
<g id="edge56_Node000001_Node000367" class="edge">
<title>Node1&#45;&gt;Node367</title>
<g id="a_edge56_Node000001_Node000367"><a xlink:title=" ">
<path fill="none" stroke="#63b8ff" d="M36.28,-213.81C41.41,-178.59 57.18,-104.71 102,-64.5 108.53,-58.64 116.82,-54.68 125.26,-51.99"/>
<polygon fill="#63b8ff" stroke="#63b8ff" points="32.8,-213.43 34.96,-223.8 39.74,-214.34 32.8,-213.43"/>
</a>
</g>
</g>
<!-- Node506 -->
<g id="Node000506" class="node">
<title>Node506</title>
<g id="a_Node000506"><a xlink:href="class_p4_1_1_visit_functor.html" target="_top" xlink:title=" ">
<polygon fill="white" stroke="#bfbfbf" points="213,-19 121,-19 121,0 213,0 213,-19"/>
<text text-anchor="middle" x="167" y="-7" font-family="Helvetica,sans-Serif" font-size="10.00">P4::VisitFunctor</text>
</a>
</g>
</g>
<!-- Node1&#45;&gt;Node506 -->
<g id="edge59_Node000001_Node000506" class="edge">
<title>Node1&#45;&gt;Node506</title>
<g id="a_edge59_Node000001_Node000506"><a xlink:title=" ">
<path fill="none" stroke="#63b8ff" d="M34.64,-213.59C37.07,-172.67 48.51,-78.65 102,-27.5 107.26,-22.47 113.8,-18.83 120.68,-16.2"/>
<polygon fill="#63b8ff" stroke="#63b8ff" points="31.14,-213.49 34.17,-223.65 38.14,-213.82 31.14,-213.49"/>
</a>
</g>
</g>
<!-- Node2&#45;&gt;Node3 -->
<g id="edge2_Node000002_Node000003" class="edge">
<title>Node2&#45;&gt;Node3</title>
<g id="a_edge2_Node000002_Node000003"><a xlink:title=" ">
<path fill="none" stroke="#63b8ff" d="M218.92,-1518.77C234.65,-1521.92 252.04,-1525.38 268,-1528.5 282.19,-1531.28 297.59,-1534.25 311.74,-1536.95"/>
<polygon fill="#63b8ff" stroke="#63b8ff" points="219.35,-1515.28 208.85,-1516.75 217.97,-1522.15 219.35,-1515.28"/>
</a>
</g>
</g>
<!-- Node2&#45;&gt;Node4 -->
<g id="edge3_Node000002_Node000004" class="edge">
<title>Node2&#45;&gt;Node4</title>
<g id="a_edge3_Node000002_Node000004"><a xlink:title=" ">
<path fill="none" stroke="#63b8ff" d="M218.69,-1508.76C247.97,-1508.91 284.6,-1509.1 313.49,-1509.25"/>
<polygon fill="#63b8ff" stroke="#63b8ff" points="218.69,-1505.26 208.67,-1508.71 218.65,-1512.26 218.69,-1505.26"/>
</a>
</g>
</g>
<!-- Node110 -->
<g id="Node000110" class="node">
<title>Node110</title>
<g id="a_Node000110"><a xlink:href="class_p4_1_1_compute_def_use.html" target="_top" xlink:title="Compute defuse info within P4Parser and P4Control blocks in the midend.">
<polygon fill="white" stroke="#666666" points="420.5,-130 305.5,-130 305.5,-111 420.5,-111 420.5,-130"/>
<text text-anchor="middle" x="363" y="-118" font-family="Helvetica,sans-Serif" font-size="10.00">P4::ComputeDefUse</text>
</a>
</g>
</g>
<!-- Node109&#45;&gt;Node110 -->
<g id="edge5_Node000109_Node000110" class="edge">
<title>Node109&#45;&gt;Node110</title>
<g id="a_edge5_Node000109_Node000110"><a xlink:title=" ">
<path fill="none" stroke="#63b8ff" d="M228.03,-94.95C254.92,-100.08 286.26,-106.06 311.87,-110.94"/>
<polygon fill="#63b8ff" stroke="#63b8ff" points="228.44,-91.46 217.96,-93.03 227.13,-98.34 228.44,-91.46"/>
</a>
</g>
</g>
<!-- Node111 -->
<g id="Node000111" class="node">
<title>Node111</title>
<g id="a_Node000111"><a xlink:href="class_p4_1_1_do_local_copy_propagation.html" target="_top" xlink:title=" ">
<polygon fill="white" stroke="#666666" points="441.5,-93 284.5,-93 284.5,-74 441.5,-74 441.5,-93"/>
<text text-anchor="middle" x="363" y="-81" font-family="Helvetica,sans-Serif" font-size="10.00">P4::DoLocalCopyPropagation</text>
</a>
</g>
</g>
<!-- Node109&#45;&gt;Node111 -->
<g id="edge6_Node000109_Node000111" class="edge">
<title>Node109&#45;&gt;Node111</title>
<g id="a_edge6_Node000109_Node000111"><a xlink:title=" ">
<path fill="none" stroke="#63b8ff" d="M240.04,-83.5C254.52,-83.5 269.81,-83.5 284.47,-83.5"/>
<polygon fill="#63b8ff" stroke="#63b8ff" points="239.65,-80 229.65,-83.5 239.65,-87 239.65,-80"/>
</a>
</g>
</g>
<!-- Node114&#45;&gt;Node110 -->
<g id="edge29_Node000114_Node000110" class="edge">
<title>Node114&#45;&gt;Node110</title>
<g id="a_edge29_Node000114_Node000110"><a xlink:title=" ">
<path fill="none" stroke="#63b8ff" d="M170.59,-793.9C185.14,-684.31 256.31,-151.81 268,-139.5 277.74,-129.24 291.38,-123.69 305.25,-120.87"/>
<polygon fill="#63b8ff" stroke="#63b8ff" points="167.11,-793.53 169.27,-803.91 174.05,-794.45 167.11,-793.53"/>
</a>
</g>
</g>
<!-- Node115 -->
<g id="Node000115" class="node">
<title>Node115</title>
<g id="a_Node000115"><a xlink:href="class_p4_1_1_analyze_parser.html" target="_top" xlink:title=" ">
<polygon fill="white" stroke="#bfbfbf" points="415,-364 311,-364 311,-345 415,-345 415,-364"/>
<text text-anchor="middle" x="363" y="-352" font-family="Helvetica,sans-Serif" font-size="10.00">P4::AnalyzeParser</text>
</a>
</g>
</g>
<!-- Node114&#45;&gt;Node115 -->
<g id="edge10_Node000114_Node000115" class="edge">
<title>Node114&#45;&gt;Node115</title>
<g id="a_edge10_Node000114_Node000115"><a xlink:title=" ">
<path fill="none" stroke="#63b8ff" d="M169.7,-793.62C176.75,-715.88 206.29,-433.75 268,-373.5 279.32,-362.45 295.18,-356.99 310.66,-354.48"/>
<polygon fill="#63b8ff" stroke="#63b8ff" points="166.18,-793.65 168.79,-803.92 173.16,-794.27 166.18,-793.65"/>
</a>
</g>
</g>
<!-- Node116 -->
<g id="Node000116" class="node">
<title>Node116</title>
<g id="a_Node000116"><a xlink:href="class_p4_1_1_apply_options_pragmas.html" target="_top" xlink:title=" ">
<polygon fill="white" stroke="#666666" points="434.5,-327 291.5,-327 291.5,-308 434.5,-308 434.5,-327"/>
<text text-anchor="middle" x="363" y="-315" font-family="Helvetica,sans-Serif" font-size="10.00">P4::ApplyOptionsPragmas</text>
</a>
</g>
</g>
<!-- Node114&#45;&gt;Node116 -->
<g id="edge11_Node000114_Node000116" class="edge">
<title>Node114&#45;&gt;Node116</title>
<g id="a_edge11_Node000114_Node000116"><a xlink:title=" ">
<path fill="none" stroke="#63b8ff" d="M169.33,-793.56C175.19,-711.68 201.47,-402.55 268,-336.5 274.5,-330.05 282.54,-325.49 291.17,-322.31"/>
<polygon fill="#63b8ff" stroke="#63b8ff" points="165.81,-793.71 168.61,-803.93 172.79,-794.2 165.81,-793.71"/>
</a>
</g>
</g>
<!-- Node117 -->
<g id="Node000117" class="node">
<title>Node117</title>
<g id="a_Node000117"><a xlink:href="class_p4_1_1_b_m_v2_1_1_action_converter.html" target="_top" xlink:title=" ">
<polygon fill="white" stroke="#bfbfbf" points="437,-290 289,-290 289,-271 437,-271 437,-290"/>
<text text-anchor="middle" x="363" y="-278" font-family="Helvetica,sans-Serif" font-size="10.00">P4::BMV2::ActionConverter</text>
</a>
</g>
</g>
<!-- Node114&#45;&gt;Node117 -->
<g id="edge12_Node000114_Node000117" class="edge">
<title>Node114&#45;&gt;Node117</title>
<g id="a_edge12_Node000114_Node000117"><a xlink:title=" ">
<path fill="none" stroke="#63b8ff" d="M169.01,-793.39C173.76,-707.35 196.66,-371.36 268,-299.5 273.86,-293.59 281.02,-289.27 288.75,-286.13"/>
<polygon fill="#63b8ff" stroke="#63b8ff" points="165.5,-793.45 168.47,-803.62 172.49,-793.82 165.5,-793.45"/>
</a>
</g>
</g>
<!-- Node118 -->
<g id="Node000118" class="node">
<title>Node118</title>
<g id="a_Node000118"><a xlink:href="class_p4_1_1_b_m_v2_1_1_check_unsupported.html" target="_top" xlink:title=" ">
<polygon fill="white" stroke="#bfbfbf" points="443.5,-1482 282.5,-1482 282.5,-1463 443.5,-1463 443.5,-1482"/>
<text text-anchor="middle" x="363" y="-1470" font-family="Helvetica,sans-Serif" font-size="10.00">P4::BMV2::CheckUnsupported</text>
</a>
</g>
</g>
<!-- Node114&#45;&gt;Node118 -->
<g id="edge13_Node000114_Node000118" class="edge">
<title>Node114&#45;&gt;Node118</title>
<g id="a_edge13_Node000114_Node000118"><a xlink:title=" ">
<path fill="none" stroke="#63b8ff" d="M172.26,-833.05C183.33,-884.38 213.44,-1027.34 232,-1147.5 242.45,-1215.17 221.62,-1403.13 268,-1453.5 272.17,-1458.03 277.1,-1461.65 282.48,-1464.52"/>
<polygon fill="#63b8ff" stroke="#63b8ff" points="175.62,-832.05 170.09,-823.02 168.78,-833.54 175.62,-832.05"/>
</a>
</g>
</g>
<!-- Node119 -->
<g id="Node000119" class="node">
<title>Node119</title>
<g id="a_Node000119"><a xlink:href="class_p4_1_1_b_m_v2_1_1_control_converter.html" target="_top" xlink:title=" ">
<polygon fill="white" stroke="#bfbfbf" points="439,-1444.5 287,-1444.5 287,-1414.5 439,-1414.5 439,-1444.5"/>
<text text-anchor="start" x="295" y="-1432.5" font-family="Helvetica,sans-Serif" font-size="10.00">P4::BMV2::ControlConverter</text>
<text text-anchor="middle" x="363" y="-1421.5" font-family="Helvetica,sans-Serif" font-size="10.00">&lt; arch &gt;</text>
</a>
</g>
</g>
<!-- Node114&#45;&gt;Node119 -->
<g id="edge14_Node000114_Node000119" class="edge">
<title>Node114&#45;&gt;Node119</title>
<g id="a_edge14_Node000114_Node000119"><a xlink:title=" ">
<path fill="none" stroke="#63b8ff" d="M172.11,-833.07C182.82,-884.46 212.15,-1027.55 232,-1147.5 241.45,-1204.61 229.41,-1362.35 268,-1405.5 273.28,-1411.4 279.79,-1415.94 286.89,-1419.43"/>
<polygon fill="#63b8ff" stroke="#63b8ff" points="175.48,-832.1 170.01,-823.03 168.63,-833.54 175.48,-832.1"/>
</a>
</g>
</g>
<!-- Node120 -->
<g id="Node000120" class="node">
<title>Node120</title>
<g id="a_Node000120"><a xlink:href="class_p4_1_1_b_m_v2_1_1_convert_globals.html" target="_top" xlink:title=" ">
<polygon fill="white" stroke="#bfbfbf" points="435,-1396 291,-1396 291,-1377 435,-1377 435,-1396"/>
<text text-anchor="middle" x="363" y="-1384" font-family="Helvetica,sans-Serif" font-size="10.00">P4::BMV2::ConvertGlobals</text>
</a>
</g>
</g>
<!-- Node114&#45;&gt;Node120 -->
<g id="edge15_Node000114_Node000120" class="edge">
<title>Node114&#45;&gt;Node120</title>
<g id="a_edge15_Node000114_Node000120"><a xlink:title=" ">
<path fill="none" stroke="#63b8ff" d="M171.95,-833.1C182.29,-884.55 210.78,-1027.78 232,-1147.5 240.68,-1196.49 233.31,-1332.83 268,-1368.5 274.37,-1375.05 282.34,-1379.62 290.94,-1382.75"/>
<polygon fill="#63b8ff" stroke="#63b8ff" points="175.33,-832.16 169.93,-823.05 168.47,-833.54 175.33,-832.16"/>
</a>
</g>
</g>
<!-- Node121 -->
<g id="Node000121" class="node">
<title>Node121</title>
<g id="a_Node000121"><a xlink:href="class_p4_1_1_b_m_v2_1_1_convert_pna_to_json.html" target="_top" xlink:title=" ">
<polygon fill="white" stroke="#bfbfbf" points="441,-1359 285,-1359 285,-1340 441,-1340 441,-1359"/>
<text text-anchor="middle" x="363" y="-1347" font-family="Helvetica,sans-Serif" font-size="10.00">P4::BMV2::ConvertPnaToJson</text>
</a>
</g>
</g>
<!-- Node114&#45;&gt;Node121 -->
<g id="edge16_Node000114_Node000121" class="edge">
<title>Node114&#45;&gt;Node121</title>
<g id="a_edge16_Node000114_Node000121"><a xlink:title=" ">
<path fill="none" stroke="#63b8ff" d="M171.79,-833.35C189.92,-928.17 266.86,-1330.36 268,-1331.5 272.82,-1336.31 278.51,-1340.05 284.66,-1342.92"/>
<polygon fill="#63b8ff" stroke="#63b8ff" points="175.2,-832.53 169.88,-823.36 168.32,-833.84 175.2,-832.53"/>
</a>
</g>
</g>
<!-- Node122 -->
<g id="Node000122" class="node">
<title>Node122</title>
<g id="a_Node000122"><a xlink:href="class_p4_1_1_b_m_v2_1_1_convert_psa_to_json.html" target="_top" xlink:title=" ">
<polygon fill="white" stroke="#bfbfbf" points="440.5,-1322 285.5,-1322 285.5,-1303 440.5,-1303 440.5,-1322"/>
<text text-anchor="middle" x="363" y="-1310" font-family="Helvetica,sans-Serif" font-size="10.00">P4::BMV2::ConvertPsaToJson</text>
</a>
</g>
</g>
<!-- Node114&#45;&gt;Node122 -->
<g id="edge17_Node000114_Node000122" class="edge">
<title>Node114&#45;&gt;Node122</title>
<g id="a_edge17_Node000114_Node000122"><a xlink:title=" ">
<path fill="none" stroke="#63b8ff" d="M171.8,-833.29C189.06,-922.84 259.47,-1286.11 268,-1294.5 272.97,-1299.4 278.85,-1303.17 285.19,-1306.06"/>
<polygon fill="#63b8ff" stroke="#63b8ff" points="175.22,-832.51 169.89,-823.35 168.34,-833.83 175.22,-832.51"/>
</a>
</g>
</g>
<!-- Node123 -->
<g id="Node000123" class="node">
<title>Node123</title>
<g id="a_Node000123"><a xlink:href="class_p4_1_1_b_m_v2_1_1_deparser_converter.html" target="_top" xlink:title=" ">
<polygon fill="white" stroke="#bfbfbf" points="443.5,-1285 282.5,-1285 282.5,-1266 443.5,-1266 443.5,-1285"/>
<text text-anchor="middle" x="363" y="-1273" font-family="Helvetica,sans-Serif" font-size="10.00">P4::BMV2::DeparserConverter</text>
</a>
</g>
</g>
<!-- Node114&#45;&gt;Node123 -->
<g id="edge18_Node000114_Node000123" class="edge">
<title>Node114&#45;&gt;Node123</title>
<g id="a_edge18_Node000114_Node000123"><a xlink:title=" ">
<path fill="none" stroke="#63b8ff" d="M171.82,-833.24C188.18,-917.34 252.19,-1242.2 268,-1257.5 272.18,-1261.55 276.97,-1264.82 282.13,-1267.46"/>
<polygon fill="#63b8ff" stroke="#63b8ff" points="175.22,-832.37 169.88,-823.22 168.35,-833.7 175.22,-832.37"/>
</a>
</g>
</g>
<!-- Node124 -->
<g id="Node000124" class="node">
<title>Node124</title>
<g id="a_Node000124"><a xlink:href="class_p4_1_1_b_m_v2_1_1_expression_converter.html" target="_top" xlink:title=" ">
<polygon fill="white" stroke="orangered" points="448,-1248 278,-1248 278,-1229 448,-1229 448,-1248"/>
<text text-anchor="middle" x="363" y="-1236" font-family="Helvetica,sans-Serif" font-size="10.00">P4::BMV2::ExpressionConverter</text>
</a>
</g>
</g>
<!-- Node114&#45;&gt;Node124 -->
<g id="edge19_Node000114_Node000124" class="edge">
<title>Node114&#45;&gt;Node124</title>
<g id="a_edge19_Node000114_Node000124"><a xlink:title=" ">
<path fill="none" stroke="#63b8ff" d="M171.53,-833.06C185.67,-910.51 238.89,-1192.86 268,-1220.5 271.49,-1223.82 275.4,-1226.62 279.59,-1228.97"/>
<polygon fill="#63b8ff" stroke="#63b8ff" points="174.96,-832.39 169.73,-823.17 168.08,-833.64 174.96,-832.39"/>
</a>
</g>
</g>
<!-- Node128 -->
<g id="Node000128" class="node">
<title>Node128</title>
<g id="a_Node000128"><a xlink:href="class_p4_1_1_b_m_v2_1_1_header_converter.html" target="_top" xlink:title=" ">
<polygon fill="white" stroke="#bfbfbf" points="439,-1211 287,-1211 287,-1192 439,-1192 439,-1211"/>
<text text-anchor="middle" x="363" y="-1199" font-family="Helvetica,sans-Serif" font-size="10.00">P4::BMV2::HeaderConverter</text>
</a>
</g>
</g>
<!-- Node114&#45;&gt;Node128 -->
<g id="edge20_Node000114_Node000128" class="edge">
<title>Node114&#45;&gt;Node128</title>
<g id="a_edge20_Node000114_Node000128"><a xlink:title=" ">
<path fill="none" stroke="#63b8ff" d="M170.58,-833.3C180.05,-902.85 215.1,-1134.41 268,-1183.5 273.48,-1188.59 279.94,-1192.44 286.86,-1195.34"/>
<polygon fill="#63b8ff" stroke="#63b8ff" points="174.03,-832.7 169.24,-823.25 167.09,-833.63 174.03,-832.7"/>
</a>
</g>
</g>
<!-- Node129 -->
<g id="Node000129" class="node">
<title>Node129</title>
<g id="a_Node000129"><a xlink:href="class_p4_1_1_b_m_v2_1_1_parse_v1_architecture.html" target="_top" xlink:title=" ">
<polygon fill="white" stroke="#bfbfbf" points="446.5,-1174 279.5,-1174 279.5,-1155 446.5,-1155 446.5,-1174"/>
<text text-anchor="middle" x="363" y="-1162" font-family="Helvetica,sans-Serif" font-size="10.00">P4::BMV2::ParseV1Architecture</text>
</a>
</g>
</g>
<!-- Node114&#45;&gt;Node129 -->
<g id="edge21_Node000114_Node000129" class="edge">
<title>Node114&#45;&gt;Node129</title>
<g id="a_edge21_Node000114_Node000129"><a xlink:title=" ">
<path fill="none" stroke="#63b8ff" d="M167.41,-833.28C166.86,-891.14 173.68,-1061.39 268,-1146.5 271.7,-1149.84 275.83,-1152.64 280.22,-1154.99"/>
<polygon fill="#63b8ff" stroke="#63b8ff" points="170.91,-833.32 167.6,-823.26 163.91,-833.19 170.91,-833.32"/>
</a>
</g>
</g>
<!-- Node130 -->
<g id="Node000130" class="node">
<title>Node130</title>
<g id="a_Node000130"><a xlink:href="class_p4_1_1_b_m_v2_1_1_parser_converter.html" target="_top" xlink:title=" ">
<polygon fill="white" stroke="#bfbfbf" points="436.5,-1137 289.5,-1137 289.5,-1118 436.5,-1118 436.5,-1137"/>
<text text-anchor="middle" x="363" y="-1125" font-family="Helvetica,sans-Serif" font-size="10.00">P4::BMV2::ParserConverter</text>
</a>
</g>
</g>
<!-- Node114&#45;&gt;Node130 -->
<g id="edge22_Node000114_Node000130" class="edge">
<title>Node114&#45;&gt;Node130</title>
<g id="a_edge22_Node000114_Node000130"><a xlink:title=" ">
<path fill="none" stroke="#63b8ff" d="M168.34,-833.43C170.41,-886.9 183.85,-1034.44 268,-1108.5 274.25,-1114 281.64,-1118.08 289.5,-1121.08"/>
<polygon fill="#63b8ff" stroke="#63b8ff" points="171.84,-833.14 168.05,-823.25 164.84,-833.35 171.84,-833.14"/>
</a>
</g>
</g>
<!-- Node131 -->
<g id="Node000131" class="node">
<title>Node131</title>
<g id="a_Node000131"><a xlink:href="class_p4_1_1_b_m_v2_1_1_shared_action_selector_check.html" target="_top" xlink:title=" ">
<polygon fill="white" stroke="#666666" points="449.5,-1099.5 276.5,-1099.5 276.5,-1069.5 449.5,-1069.5 449.5,-1099.5"/>
<text text-anchor="start" x="284.5" y="-1087.5" font-family="Helvetica,sans-Serif" font-size="10.00">P4::BMV2::SharedActionSelector</text>
<text text-anchor="middle" x="363" y="-1076.5" font-family="Helvetica,sans-Serif" font-size="10.00">Check&lt; arch &gt;</text>
</a>
</g>
</g>
<!-- Node114&#45;&gt;Node131 -->
<g id="edge23_Node000114_Node000131" class="edge">
<title>Node114&#45;&gt;Node131</title>
<g id="a_edge23_Node000114_Node000131"><a xlink:title=" ">
<path fill="none" stroke="#63b8ff" d="M170.01,-833.08C175.88,-879.86 197.35,-998.78 268,-1060.5 271.93,-1063.94 276.29,-1066.89 280.91,-1069.43"/>
<polygon fill="#63b8ff" stroke="#63b8ff" points="173.48,-832.59 168.86,-823.06 166.52,-833.39 173.48,-832.59"/>
</a>
</g>
</g>
<!-- Node132 -->
<g id="Node000132" class="node">
<title>Node132</title>
<g id="a_Node000132"><a xlink:href="class_p4_1_1_build_resource_map.html" target="_top" xlink:title=" ">
<polygon fill="white" stroke="#666666" points="425.5,-1051 300.5,-1051 300.5,-1032 425.5,-1032 425.5,-1051"/>
<text text-anchor="middle" x="363" y="-1039" font-family="Helvetica,sans-Serif" font-size="10.00">P4::BuildResourceMap</text>
</a>
</g>
</g>
<!-- Node114&#45;&gt;Node132 -->
<g id="edge24_Node000114_Node000132" class="edge">
<title>Node114&#45;&gt;Node132</title>
<g id="a_edge24_Node000114_Node000132"><a xlink:title=" ">
<path fill="none" stroke="#63b8ff" d="M171.3,-833.25C179.44,-875.45 204.64,-974.55 268,-1023.5 277.34,-1030.71 288.72,-1035.31 300.31,-1038.19"/>
<polygon fill="#63b8ff" stroke="#63b8ff" points="174.73,-832.59 169.51,-823.37 167.85,-833.84 174.73,-832.59"/>
</a>
</g>
</g>
<!-- Node133 -->
<g id="Node000133" class="node">
<title>Node133</title>
<g id="a_Node000133"><a xlink:href="class_p4_1_1_check_extern_invocation_common.html" target="_top" xlink:title="Base class which can be used to prepare classes for checking constraints for invocations of externs (...">
<polygon fill="#fff0f0" stroke="red" points="436.5,-215.5 289.5,-215.5 289.5,-185.5 436.5,-185.5 436.5,-215.5"/>
<text text-anchor="start" x="297.5" y="-203.5" font-family="Helvetica,sans-Serif" font-size="10.00">P4::CheckExternInvocation</text>
<text text-anchor="middle" x="363" y="-192.5" font-family="Helvetica,sans-Serif" font-size="10.00">Common</text>
</a>
</g>
</g>
<!-- Node114&#45;&gt;Node133 -->
<g id="edge25_Node000114_Node000133" class="edge">
<title>Node114&#45;&gt;Node133</title>
<g id="a_edge25_Node000114_Node000133"><a xlink:title=" ">
<path fill="none" stroke="#63b8ff" d="M170.1,-793.64C180.6,-695.89 228.47,-268.82 268,-225.5 273.92,-219.01 281.31,-214.13 289.34,-210.47"/>
<polygon fill="#63b8ff" stroke="#63b8ff" points="166.61,-793.34 169.03,-803.66 173.57,-794.09 166.61,-793.34"/>
</a>
</g>
</g>
<!-- Node135 -->
<g id="Node000135" class="node">
<title>Node135</title>
<g id="a_Node000135"><a xlink:href="class_p4_1_1_check_named_args.html" target="_top" xlink:title=" ">
<polygon fill="white" stroke="#666666" points="424,-1014 302,-1014 302,-995 424,-995 424,-1014"/>
<text text-anchor="middle" x="363" y="-1002" font-family="Helvetica,sans-Serif" font-size="10.00">P4::CheckNamedArgs</text>
</a>
</g>
</g>
<!-- Node114&#45;&gt;Node135 -->
<g id="edge26_Node000114_Node000135" class="edge">
<title>Node114&#45;&gt;Node135</title>
<g id="a_edge26_Node000114_Node000135"><a xlink:title=" ">
<path fill="none" stroke="#63b8ff" d="M173.42,-833.22C184.57,-869.79 213.67,-947.89 268,-986.5 277.89,-993.53 289.78,-998.01 301.73,-1000.83"/>
<polygon fill="#63b8ff" stroke="#63b8ff" points="176.69,-831.92 170.53,-823.3 169.97,-833.88 176.69,-831.92"/>
</a>
</g>
</g>
<!-- Node136 -->
<g id="Node000136" class="node">
<title>Node136</title>
<g id="a_Node000136"><a xlink:href="class_p4_1_1_clear_type_map.html" target="_top" xlink:title=" ">
<polygon fill="white" stroke="#bfbfbf" points="415,-977 311,-977 311,-958 415,-958 415,-977"/>
<text text-anchor="middle" x="363" y="-965" font-family="Helvetica,sans-Serif" font-size="10.00">P4::ClearTypeMap</text>
</a>
</g>
</g>
<!-- Node114&#45;&gt;Node136 -->
<g id="edge27_Node000114_Node000136" class="edge">
<title>Node114&#45;&gt;Node136</title>
<g id="a_edge27_Node000114_Node000136"><a xlink:title=" ">
<path fill="none" stroke="#63b8ff" d="M176.4,-832.76C190.59,-862.88 222.33,-920.68 268,-949.5 280.65,-957.48 296.02,-962.08 310.64,-964.68"/>
<polygon fill="#63b8ff" stroke="#63b8ff" points="179.44,-831 172.11,-823.35 173.07,-833.9 179.44,-831"/>
</a>
</g>
</g>
<!-- Node137 -->
<g id="Node000137" class="node">
<title>Node137</title>
<g id="a_Node000137"><a xlink:href="class_p4_1_1_compile_time_operations.html" target="_top" xlink:title=" ">
<polygon fill="white" stroke="#666666" points="439.5,-940 286.5,-940 286.5,-921 439.5,-921 439.5,-940"/>
<text text-anchor="middle" x="363" y="-928" font-family="Helvetica,sans-Serif" font-size="10.00">P4::CompileTimeOperations</text>
</a>
</g>
</g>
<!-- Node114&#45;&gt;Node137 -->
<g id="edge28_Node000114_Node000137" class="edge">
<title>Node114&#45;&gt;Node137</title>
<g id="a_edge28_Node000114_Node000137"><a xlink:title=" ">
<path fill="none" stroke="#63b8ff" d="M180.66,-831.4C197.74,-854.11 230.41,-892.7 268,-912.5 274.47,-915.91 281.49,-918.67 288.68,-920.92"/>
<polygon fill="#63b8ff" stroke="#63b8ff" points="183.44,-829.27 174.7,-823.28 177.79,-833.41 183.44,-829.27"/>
</a>
</g>
</g>
<!-- Node138 -->
<g id="Node000138" class="node">
<title>Node138</title>
<g id="a_Node000138"><a xlink:href="class_p4_1_1_compute_parser_c_g.html" target="_top" xlink:title="Builds a CallGraph of ParserState nodes.">
<polygon fill="white" stroke="#666666" points="424.5,-253 301.5,-253 301.5,-234 424.5,-234 424.5,-253"/>
<text text-anchor="middle" x="363" y="-241" font-family="Helvetica,sans-Serif" font-size="10.00">P4::ComputeParserCG</text>
</a>
</g>
</g>
<!-- Node114&#45;&gt;Node138 -->
<g id="edge30_Node000114_Node000138" class="edge">
<title>Node114&#45;&gt;Node138</title>
<g id="a_edge30_Node000114_Node000138"><a xlink:title=" ">
<path fill="none" stroke="#63b8ff" d="M170.27,-793.68C181.23,-699.67 229.62,-301.66 268,-262.5 276.86,-253.46 288.74,-248.12 301.07,-245.07"/>
<polygon fill="#63b8ff" stroke="#63b8ff" points="166.77,-793.47 169.1,-803.81 173.73,-794.28 166.77,-793.47"/>
</a>
</g>
</g>
<!-- Node139 -->
<g id="Node000139" class="node">
<title>Node139</title>
<g id="a_Node000139"><a xlink:href="class_p4_1_1_compute_write_set.html" target="_top" xlink:title=" ">
<polygon fill="white" stroke="#666666" points="423.5,-903 302.5,-903 302.5,-884 423.5,-884 423.5,-903"/>
<text text-anchor="middle" x="363" y="-891" font-family="Helvetica,sans-Serif" font-size="10.00">P4::ComputeWriteSet</text>
</a>
</g>
</g>
<!-- Node114&#45;&gt;Node139 -->
<g id="edge31_Node000114_Node000139" class="edge">
<title>Node114&#45;&gt;Node139</title>
<g id="a_edge31_Node000114_Node000139"><a xlink:title=" ">
<path fill="none" stroke="#63b8ff" d="M188.23,-829.16C207.64,-843.4 238.3,-863.91 268,-875.5 278.84,-879.73 290.77,-882.99 302.4,-885.5"/>
<polygon fill="#63b8ff" stroke="#63b8ff" points="190.25,-826.3 180.15,-823.11 186.06,-831.91 190.25,-826.3"/>
</a>
</g>
</g>
<!-- Node140 -->
<g id="Node000140" class="node">
<title>Node140</title>
<g id="a_Node000140"><a xlink:href="class_p4_1_1_contains_type.html" target="_top" xlink:title=" ">
<polygon fill="white" stroke="#bfbfbf" points="413,-866 313,-866 313,-847 413,-847 413,-866"/>
<text text-anchor="middle" x="363" y="-854" font-family="Helvetica,sans-Serif" font-size="10.00">P4::ContainsType</text>
</a>
</g>
</g>
<!-- Node114&#45;&gt;Node140 -->
<g id="edge32_Node000114_Node000140" class="edge">
<title>Node114&#45;&gt;Node140</title>
<g id="a_edge32_Node000114_Node000140"><a xlink:title=" ">
<path fill="none" stroke="#63b8ff" d="M216.29,-825.46C232.68,-829.42 251.11,-833.77 268,-837.5 282.63,-840.73 298.59,-844.04 313.14,-846.97"/>
<polygon fill="#63b8ff" stroke="#63b8ff" points="216.93,-822.02 206.39,-823.06 215.28,-828.82 216.93,-822.02"/>
</a>
</g>
</g>
<!-- Node141 -->
<g id="Node000141" class="node">
<title>Node141</title>
<g id="a_Node000141"><a xlink:href="class_p4_1_1_control_flow_visitor_1_1_setup_join_points.html" target="_top" xlink:title=" ">
<polygon fill="white" stroke="orangered" points="425.5,-828.5 300.5,-828.5 300.5,-798.5 425.5,-798.5 425.5,-828.5"/>
<text text-anchor="start" x="308.5" y="-816.5" font-family="Helvetica,sans-Serif" font-size="10.00">P4::ControlFlowVisitor</text>
<text text-anchor="middle" x="363" y="-805.5" font-family="Helvetica,sans-Serif" font-size="10.00">::SetupJoinPoints</text>
</a>
</g>
</g>
<!-- Node114&#45;&gt;Node141 -->
<g id="edge33_Node000114_Node000141" class="edge">
<title>Node114&#45;&gt;Node141</title>
<g id="a_edge33_Node000114_Node000141"><a xlink:title=" ">
<path fill="none" stroke="#63b8ff" d="M217.33,-813.5C242.54,-813.5 273.48,-813.5 300.26,-813.5"/>
<polygon fill="#63b8ff" stroke="#63b8ff" points="217.26,-810 207.26,-813.5 217.26,-817 217.26,-810"/>
</a>
</g>
</g>
<!-- Node143 -->
<g id="Node000143" class="node">
<title>Node143</title>
<g id="a_Node000143"><a xlink:href="class_p4_1_1_control_plane_a_p_i_1_1_type_spec_converter.html" target="_top" xlink:title="Generates the appropriate p4.P4DataTypeSpec for a given IR::Type node.">
<polygon fill="white" stroke="#666666" points="421,-780.5 305,-780.5 305,-750.5 421,-750.5 421,-780.5"/>
<text text-anchor="start" x="313" y="-768.5" font-family="Helvetica,sans-Serif" font-size="10.00">P4::ControlPlaneAPI</text>
<text text-anchor="middle" x="363" y="-757.5" font-family="Helvetica,sans-Serif" font-size="10.00">::TypeSpecConverter</text>
</a>
</g>
</g>
<!-- Node114&#45;&gt;Node143 -->
<g id="edge34_Node000114_Node000143" class="edge">
<title>Node114&#45;&gt;Node143</title>
<g id="a_edge34_Node000114_Node000143"><a xlink:title=" ">
<path fill="none" stroke="#63b8ff" d="M216.71,-801.45C243.49,-794.82 276.87,-786.56 304.88,-779.63"/>
<polygon fill="#63b8ff" stroke="#63b8ff" points="215.66,-798.1 206.79,-803.9 217.34,-804.9 215.66,-798.1"/>
</a>
</g>
</g>
<!-- Node144 -->
<g id="Node000144" class="node">
<title>Node144</title>
<g id="a_Node000144"><a xlink:href="class_p4_1_1_coverage_1_1_collect_nodes.html" target="_top" xlink:title=" ">
<polygon fill="white" stroke="#666666" points="439,-732 287,-732 287,-713 439,-713 439,-732"/>
<text text-anchor="middle" x="363" y="-720" font-family="Helvetica,sans-Serif" font-size="10.00">P4::Coverage::CollectNodes</text>
</a>
</g>
</g>
<!-- Node114&#45;&gt;Node144 -->
<g id="edge35_Node000114_Node000144" class="edge">
<title>Node114&#45;&gt;Node144</title>
<g id="a_edge35_Node000114_Node000144"><a xlink:title=" ">
<path fill="none" stroke="#63b8ff" d="M185.69,-797.12C204.62,-780.53 236.24,-755.37 268,-741.5 276.85,-737.64 286.51,-734.55 296.17,-732.08"/>
<polygon fill="#63b8ff" stroke="#63b8ff" points="183.28,-794.59 178.16,-803.87 187.95,-799.8 183.28,-794.59"/>
</a>
</g>
</g>
<!-- Node145 -->
<g id="Node000145" class="node">
<title>Node145</title>
<g id="a_Node000145"><a xlink:href="class_p4_1_1_d_p_d_k_1_1_check_extern_invocation.html" target="_top" xlink:title="Class which chooses the correct class for checking the constraints for invocations....">
<polygon fill="white" stroke="#666666" points="453.5,-695 272.5,-695 272.5,-676 453.5,-676 453.5,-695"/>
<text text-anchor="middle" x="363" y="-683" font-family="Helvetica,sans-Serif" font-size="10.00">P4::DPDK::CheckExternInvocation</text>
</a>
</g>
</g>
<!-- Node114&#45;&gt;Node145 -->
<g id="edge36_Node000114_Node000145" class="edge">
<title>Node114&#45;&gt;Node145</title>
<g id="a_edge36_Node000114_Node000145"><a xlink:title=" ">
<path fill="none" stroke="#63b8ff" d="M179.29,-795.29C195.64,-770.57 228.34,-726.89 268,-704.5 274.81,-700.65 282.29,-697.58 289.97,-695.12"/>
<polygon fill="#63b8ff" stroke="#63b8ff" points="176.31,-793.46 173.84,-803.76 182.2,-797.24 176.31,-793.46"/>
</a>
</g>
</g>
<!-- Node146 -->
<g id="Node000146" class="node">
<title>Node146</title>
<g id="a_Node000146"><a xlink:href="class_p4_1_1_d_p_d_k_1_1_collect_action_uses.html" target="_top" xlink:title=" ">
<polygon fill="white" stroke="#bfbfbf" points="441.5,-658 284.5,-658 284.5,-639 441.5,-639 441.5,-658"/>
<text text-anchor="middle" x="363" y="-646" font-family="Helvetica,sans-Serif" font-size="10.00">P4::DPDK::CollectActionUses</text>
</a>
</g>
</g>
<!-- Node114&#45;&gt;Node146 -->
<g id="edge37_Node000114_Node000146" class="edge">
<title>Node114&#45;&gt;Node146</title>
<g id="a_edge37_Node000114_Node000146"><a xlink:title=" ">
<path fill="none" stroke="#63b8ff" d="M175.46,-794.25C188.86,-762.42 220.13,-699.2 268,-667.5 273.83,-663.64 280.28,-660.53 286.98,-658.04"/>
<polygon fill="#63b8ff" stroke="#63b8ff" points="172.13,-793.17 171.61,-803.75 178.61,-795.8 172.13,-793.17"/>
</a>
</g>
</g>
<!-- Node147 -->
<g id="Node000147" class="node">
<title>Node147</title>
<g id="a_Node000147"><a xlink:href="class_p4_1_1_d_p_d_k_1_1_collect_add_on_miss_table.html" target="_top" xlink:title=" ">
<polygon fill="white" stroke="#bfbfbf" points="441.5,-620.5 284.5,-620.5 284.5,-590.5 441.5,-590.5 441.5,-620.5"/>
<text text-anchor="start" x="292.5" y="-608.5" font-family="Helvetica,sans-Serif" font-size="10.00">P4::DPDK::CollectAddOnMiss</text>
<text text-anchor="middle" x="363" y="-597.5" font-family="Helvetica,sans-Serif" font-size="10.00">Table</text>
</a>
</g>
</g>
<!-- Node114&#45;&gt;Node147 -->
<g id="edge38_Node000114_Node000147" class="edge">
<title>Node114&#45;&gt;Node147</title>
<g id="a_edge38_Node000114_Node000147"><a xlink:title=" ">
<path fill="none" stroke="#63b8ff" d="M173.05,-794.05C183.85,-756.48 212.78,-673.83 268,-630.5 272.92,-626.64 278.37,-623.38 284.12,-620.62"/>
<polygon fill="#63b8ff" stroke="#63b8ff" points="169.66,-793.2 170.38,-803.77 176.41,-795.06 169.66,-793.2"/>
</a>
</g>
</g>
<!-- Node148 -->
<g id="Node000148" class="node">
<title>Node148</title>
<g id="a_Node000148"><a xlink:href="class_p4_1_1_d_p_d_k_1_1_collect_direct_counter_meter.html" target="_top" xlink:title=" ">
<polygon fill="white" stroke="#bfbfbf" points="448,-572.5 278,-572.5 278,-542.5 448,-542.5 448,-572.5"/>
<text text-anchor="start" x="286" y="-560.5" font-family="Helvetica,sans-Serif" font-size="10.00">P4::DPDK::CollectDirectCounter</text>
<text text-anchor="middle" x="363" y="-549.5" font-family="Helvetica,sans-Serif" font-size="10.00">Meter</text>
</a>
</g>
</g>
<!-- Node114&#45;&gt;Node148 -->
<g id="edge39_Node000114_Node000148" class="edge">
<title>Node114&#45;&gt;Node148</title>
<g id="a_edge39_Node000114_Node000148"><a xlink:title=" ">
<path fill="none" stroke="#63b8ff" d="M170.58,-793.88C177.56,-749.09 200.98,-638.75 268,-581.5 271.97,-578.11 276.36,-575.19 281,-572.67"/>
<polygon fill="#63b8ff" stroke="#63b8ff" points="167.12,-793.39 169.15,-803.79 174.05,-794.39 167.12,-793.39"/>
</a>
</g>
</g>
<!-- Node149 -->
<g id="Node000149" class="node">
<title>Node149</title>
<g id="a_Node000149"><a xlink:href="class_p4_1_1_d_p_d_k_1_1_collect_errors.html" target="_top" xlink:title=" ">
<polygon fill="white" stroke="#bfbfbf" points="428.5,-524 297.5,-524 297.5,-505 428.5,-505 428.5,-524"/>
<text text-anchor="middle" x="363" y="-512" font-family="Helvetica,sans-Serif" font-size="10.00">P4::DPDK::CollectErrors</text>
</a>
</g>
</g>
<!-- Node114&#45;&gt;Node149 -->
<g id="edge40_Node000114_Node000149" class="edge">
<title>Node114&#45;&gt;Node149</title>
<g id="a_edge40_Node000114_Node000149"><a xlink:title=" ">
<path fill="none" stroke="#63b8ff" d="M168.74,-793.89C171.79,-742.52 187.46,-603.23 268,-533.5 276.31,-526.31 286.58,-521.56 297.25,-518.48"/>
<polygon fill="#63b8ff" stroke="#63b8ff" points="165.24,-793.8 168.24,-803.96 172.23,-794.15 165.24,-793.8"/>
</a>
</g>
</g>
<!-- Node150 -->
<g id="Node000150" class="node">
<title>Node150</title>
<g id="a_Node000150"><a xlink:href="class_p4_1_1_d_p_d_k_1_1_collect_extern_declaration.html" target="_top" xlink:title=" ">
<polygon fill="white" stroke="#bfbfbf" points="458,-487 268,-487 268,-468 458,-468 458,-487"/>
<text text-anchor="middle" x="363" y="-475" font-family="Helvetica,sans-Serif" font-size="10.00">P4::DPDK::CollectExternDeclaration</text>
</a>
</g>
</g>
<!-- Node114&#45;&gt;Node150 -->
<g id="edge41_Node000114_Node000150" class="edge">
<title>Node114&#45;&gt;Node150</title>
<g id="a_edge41_Node000114_Node000150"><a xlink:title=" ">
<path fill="none" stroke="#63b8ff" d="M167.8,-793.62C168.4,-737.59 178.26,-577.19 268,-496.5 272.21,-492.72 276.96,-489.6 282.03,-487.04"/>
<polygon fill="#63b8ff" stroke="#63b8ff" points="164.3,-793.93 167.79,-803.93 171.3,-793.93 164.3,-793.93"/>
</a>
</g>
</g>
<!-- Node151 -->
<g id="Node000151" class="node">
<title>Node151</title>
<g id="a_Node000151"><a xlink:href="class_p4_1_1_d_p_d_k_1_1_collect_i_p_sec_info.html" target="_top" xlink:title=" ">
<polygon fill="white" stroke="#bfbfbf" points="436.5,-450 289.5,-450 289.5,-431 436.5,-431 436.5,-450"/>
<text text-anchor="middle" x="363" y="-438" font-family="Helvetica,sans-Serif" font-size="10.00">P4::DPDK::CollectIPSecInfo</text>
</a>
</g>
</g>
<!-- Node114&#45;&gt;Node151 -->
<g id="edge42_Node000114_Node000151" class="edge">
<title>Node114&#45;&gt;Node151</title>
<g id="a_edge42_Node000114_Node000151"><a xlink:title=" ">
<path fill="none" stroke="#63b8ff" d="M170.86,-793.71C181,-726.18 217.41,-506.39 268,-459.5 274.11,-453.84 281.41,-449.67 289.22,-446.62"/>
<polygon fill="#63b8ff" stroke="#63b8ff" points="167.36,-793.44 169.36,-803.84 174.28,-794.46 167.36,-793.44"/>
</a>
</g>
</g>
<!-- Node152 -->
<g id="Node000152" class="node">
<title>Node152</title>
<g id="a_Node000152"><a xlink:href="class_p4_1_1_d_p_d_k_1_1_collect_internet_checksum_instance.html" target="_top" xlink:title=" ">
<polygon fill="white" stroke="#bfbfbf" points="433,-412.5 293,-412.5 293,-382.5 433,-382.5 433,-412.5"/>
<text text-anchor="start" x="301" y="-400.5" font-family="Helvetica,sans-Serif" font-size="10.00">P4::DPDK::CollectInternet</text>
<text text-anchor="middle" x="363" y="-389.5" font-family="Helvetica,sans-Serif" font-size="10.00">ChecksumInstance</text>
</a>
</g>
</g>
<!-- Node114&#45;&gt;Node152 -->
<g id="edge43_Node000114_Node000152" class="edge">
<title>Node114&#45;&gt;Node152</title>
<g id="a_edge43_Node000114_Node000152"><a xlink:title=" ">
<path fill="none" stroke="#63b8ff" d="M170.42,-793.67C179.57,-721.86 214.29,-476.73 268,-422.5 274.89,-415.54 283.49,-410.45 292.66,-406.74"/>
<polygon fill="#63b8ff" stroke="#63b8ff" points="166.9,-793.63 169.13,-803.99 173.84,-794.5 166.9,-793.63"/>
</a>
</g>
</g>
<!-- Node322&#45;&gt;Node110 -->
<g id="edge47_Node000322_Node000110" class="edge">
<title>Node322&#45;&gt;Node110</title>
<g id="a_edge47_Node000322_Node000110"><a xlink:title=" ">
<path fill="none" stroke="#63b8ff" d="M232.8,-120.5C256.33,-120.5 282.73,-120.5 305.49,-120.5"/>
<polygon fill="#63b8ff" stroke="#63b8ff" points="232.56,-117 222.56,-120.5 232.56,-124 232.56,-117"/>
</a>
</g>
</g>
<!-- Node322&#45;&gt;Node111 -->
<g id="edge48_Node000322_Node000111" class="edge">
<title>Node322&#45;&gt;Node111</title>
<g id="a_edge48_Node000322_Node000111"><a xlink:title=" ">
<path fill="none" stroke="#8b1a1a" d="M228.03,-109.05C254.92,-103.92 286.26,-97.94 311.87,-93.06"/>
<polygon fill="#8b1a1a" stroke="#8b1a1a" points="227.13,-105.66 217.96,-110.97 228.44,-112.54 227.13,-105.66"/>
</a>
</g>
</g>
<!-- Node329&#45;&gt;Node110 -->
<g id="edge52_Node000329_Node000110" class="edge">
<title>Node329&#45;&gt;Node110</title>
<g id="a_edge52_Node000329_Node000110"><a xlink:title=" ">
<path fill="none" stroke="#63b8ff" d="M227.2,-219.09C228.87,-217.98 230.48,-216.78 232,-215.5 260.56,-191.38 238.56,-162.53 268,-139.5 278.62,-131.19 291.93,-126.24 305.17,-123.35"/>
<polygon fill="#63b8ff" stroke="#63b8ff" points="225.43,-216.06 218.35,-223.95 228.8,-222.2 225.43,-216.06"/>
</a>
</g>
</g>
<!-- Node329&#45;&gt;Node111 -->
<g id="edge54_Node000329_Node000111" class="edge">
<title>Node329&#45;&gt;Node111</title>
<g id="a_edge54_Node000329_Node000111"><a xlink:title=" ">
<path fill="none" stroke="#8b1a1a" d="M228.57,-218.48C229.76,-217.54 230.91,-216.55 232,-215.5 269.9,-178.87 228.75,-137.69 268,-102.5 272.83,-98.17 278.38,-94.71 284.3,-91.97"/>
<polygon fill="#8b1a1a" stroke="#8b1a1a" points="226.66,-215.55 220.09,-223.86 230.41,-221.46 226.66,-215.55"/>
</a>
</g>
</g>
<!-- Node329&#45;&gt;Node133 -->
<g id="edge51_Node000329_Node000133" class="edge">
<title>Node329&#45;&gt;Node133</title>
<g id="a_edge51_Node000329_Node000133"><a xlink:title=" ">
<path fill="none" stroke="#63b8ff" d="M234.1,-222.26C251.84,-219.24 271.12,-215.96 289.2,-212.88"/>
<polygon fill="#63b8ff" stroke="#63b8ff" points="233.12,-218.87 223.85,-224 234.3,-225.77 233.12,-218.87"/>
</a>
</g>
</g>
<!-- Node329&#45;&gt;Node138 -->
<g id="edge53_Node000329_Node000138" class="edge">
<title>Node329&#45;&gt;Node138</title>
<g id="a_edge53_Node000329_Node000138"><a xlink:title=" ">
<path fill="none" stroke="#63b8ff" d="M239.73,-237.2C259.92,-238.24 281.69,-239.36 301.18,-240.36"/>
<polygon fill="#63b8ff" stroke="#63b8ff" points="239.82,-233.7 229.65,-236.68 239.46,-240.69 239.82,-233.7"/>
</a>
</g>
</g>
<!-- Node329&#45;&gt;Node364 -->
<g id="edge55_Node000329_Node000364" class="edge">
<title>Node329&#45;&gt;Node364</title>
<g id="a_edge55_Node000329_Node000364"><a xlink:title=" ">
<path fill="none" stroke="#63b8ff" d="M223.6,-219.99C226.51,-218.63 229.33,-217.14 232,-215.5 252.11,-203.17 247.44,-188.07 268,-176.5 277.58,-171.11 288.46,-167.24 299.35,-164.46"/>
<polygon fill="#63b8ff" stroke="#63b8ff" points="221.99,-216.86 214.06,-223.89 224.64,-223.34 221.99,-216.86"/>
</a>
</g>
</g>
<!-- Node367&#45;&gt;Node111 -->
<g id="edge57_Node000367_Node000111" class="edge">
<title>Node367&#45;&gt;Node111</title>
<g id="a_edge57_Node000367_Node000111"><a xlink:title=" ">
<path fill="none" stroke="#8b1a1a" d="M218.54,-56.14C247.37,-61.64 283.36,-68.5 312.08,-73.98"/>
<polygon fill="#8b1a1a" stroke="#8b1a1a" points="219.15,-52.69 208.67,-54.26 217.84,-59.57 219.15,-52.69"/>
</a>
</g>
</g>
</g>
</svg>
