<?xml version="1.0" encoding="UTF-8" standalone="no"?>
<!DOCTYPE svg PUBLIC "-//W3C//DTD SVG 1.1//EN"
 "http://www.w3.org/Graphics/SVG/1.1/DTD/svg11.dtd">
<!-- Generated by graphviz version 2.43.0 (0)
 -->
<!-- Title: assoc::detail::CondIterableAssocBase&lt; Base, Itble, typename &gt; Pages: 1 -->
<svg width="597pt" height="220pt"
 viewBox="0.00 0.00 597.00 220.00" xmlns="http://www.w3.org/2000/svg" xmlns:xlink="http://www.w3.org/1999/xlink">
<g id="graph0" class="graph" transform="scale(1 1) rotate(0) translate(4 216)">
<title>assoc::detail::CondIterableAssocBase&lt; Base, Itble, typename &gt;</title>
<!-- Node1 -->
<g id="Node000001" class="node">
<title>Node1</title>
<g id="a_Node000001"><a xlink:title=" ">
<polygon fill="#999999" stroke="#666666" points="223,-126.5 77,-126.5 77,-85.5 223,-85.5 223,-126.5"/>
<text text-anchor="start" x="85" y="-114.5" font-family="Helvetica,sans-Serif" font-size="10.00">assoc::detail::CondIterable</text>
<text text-anchor="start" x="85" y="-103.5" font-family="Helvetica,sans-Serif" font-size="10.00">AssocBase&lt; Base, Itble,</text>
<text text-anchor="middle" x="150" y="-92.5" font-family="Helvetica,sans-Serif" font-size="10.00"> typename &gt;</text>
</a>
</g>
</g>
<!-- Node3 -->
<g id="Node000003" class="node">
<title>Node3</title>
<g id="a_Node000003"><a xlink:href="classassoc_1_1detail_1_1_cond_iterable_assoc.html" target="_top" xlink:title=" ">
<polygon fill="white" stroke="#666666" points="405,-121 259,-121 259,-91 405,-91 405,-121"/>
<text text-anchor="start" x="267" y="-109" font-family="Helvetica,sans-Serif" font-size="10.00">assoc::detail::CondIterable</text>
<text text-anchor="middle" x="332" y="-98" font-family="Helvetica,sans-Serif" font-size="10.00">Assoc&lt; Base, Itble &gt;</text>
</a>
</g>
</g>
<!-- Node1&#45;&gt;Node3 -->
<g id="edge2_Node000001_Node000003" class="edge">
<title>Node1&#45;&gt;Node3</title>
<g id="a_edge2_Node000001_Node000003"><a xlink:title=" ">
<path fill="none" stroke="#63b8ff" d="M233.44,-106C241.91,-106 250.46,-106 258.81,-106"/>
<polygon fill="#63b8ff" stroke="#63b8ff" points="233.18,-102.5 223.18,-106 233.18,-109.5 233.18,-102.5"/>
</a>
</g>
</g>
<!-- Node2 -->
<g id="Node000002" class="node">
<title>Node2</title>
<g id="a_Node000002"><a xlink:title=" ">
<polygon fill="white" stroke="#bfbfbf" points="41,-115.5 0,-115.5 0,-96.5 41,-96.5 41,-115.5"/>
<text text-anchor="middle" x="20.5" y="-103.5" font-family="Helvetica,sans-Serif" font-size="10.00">Base</text>
</a>
</g>
</g>
<!-- Node2&#45;&gt;Node1 -->
<g id="edge1_Node000001_Node000002" class="edge">
<title>Node2&#45;&gt;Node1</title>
<g id="a_edge1_Node000001_Node000002"><a xlink:title=" ">
<path fill="none" stroke="darkgreen" d="M51.19,-106C59.05,-106 67.9,-106 76.97,-106"/>
<polygon fill="darkgreen" stroke="darkgreen" points="51.14,-102.5 41.14,-106 51.14,-109.5 51.14,-102.5"/>
</a>
</g>
</g>
<!-- Node4 -->
<g id="Node000004" class="node">
<title>Node4</title>
<g id="a_Node000004"><a xlink:href="classassoc_1_1set.html" target="_top" xlink:title=" ">
<polygon fill="white" stroke="#666666" points="587.5,-212 442.5,-212 442.5,-182 587.5,-182 587.5,-212"/>
<text text-anchor="start" x="450.5" y="-200" font-family="Helvetica,sans-Serif" font-size="10.00">assoc::set&lt; const IR</text>
<text text-anchor="middle" x="515" y="-189" font-family="Helvetica,sans-Serif" font-size="10.00">::Declaration_Instance * &gt;</text>
</a>
</g>
</g>
<!-- Node3&#45;&gt;Node4 -->
<g id="edge3_Node000003_Node000004" class="edge">
<title>Node3&#45;&gt;Node4</title>
<g id="a_edge3_Node000003_Node000004"><a xlink:title=" ">
<path fill="none" stroke="#63b8ff" d="M362.58,-127.03C383.7,-141.36 413.18,-160.02 441,-173 447.89,-176.21 455.33,-179.19 462.74,-181.87"/>
<polygon fill="#63b8ff" stroke="#63b8ff" points="364.3,-123.96 354.07,-121.18 360.33,-129.73 364.3,-123.96"/>
</a>
</g>
</g>
<!-- Node5 -->
<g id="Node000005" class="node">
<title>Node5</title>
<g id="a_Node000005"><a xlink:href="classassoc_1_1set.html" target="_top" xlink:title=" ">
<polygon fill="white" stroke="#666666" points="573,-164 457,-164 457,-134 573,-134 573,-164"/>
<text text-anchor="start" x="465" y="-152" font-family="Helvetica,sans-Serif" font-size="10.00">assoc::set&lt; const IR</text>
<text text-anchor="middle" x="515" y="-141" font-family="Helvetica,sans-Serif" font-size="10.00">::Expression * &gt;</text>
</a>
</g>
</g>
<!-- Node3&#45;&gt;Node5 -->
<g id="edge4_Node000003_Node000005" class="edge">
<title>Node3&#45;&gt;Node5</title>
<g id="a_edge4_Node000003_Node000005"><a xlink:title=" ">
<path fill="none" stroke="#63b8ff" d="M406.12,-123.37C422.99,-127.38 440.7,-131.59 456.78,-135.41"/>
<polygon fill="#63b8ff" stroke="#63b8ff" points="406.84,-119.95 396.31,-121.04 405.23,-126.76 406.84,-119.95"/>
</a>
</g>
</g>
<!-- Node6 -->
<g id="Node000006" class="node">
<title>Node6</title>
<g id="a_Node000006"><a xlink:href="classassoc_1_1set.html" target="_top" xlink:title=" ">
<polygon fill="white" stroke="#666666" points="573.5,-115.5 456.5,-115.5 456.5,-96.5 573.5,-96.5 573.5,-115.5"/>
<text text-anchor="middle" x="515" y="-103.5" font-family="Helvetica,sans-Serif" font-size="10.00">assoc::set&lt; void * &gt;</text>
</a>
</g>
</g>
<!-- Node3&#45;&gt;Node6 -->
<g id="edge5_Node000003_Node000006" class="edge">
<title>Node3&#45;&gt;Node6</title>
<g id="a_edge5_Node000003_Node000006"><a xlink:title=" ">
<path fill="none" stroke="#63b8ff" d="M415.13,-106C429.07,-106 443.27,-106 456.4,-106"/>
<polygon fill="#63b8ff" stroke="#63b8ff" points="415.06,-102.5 405.06,-106 415.06,-109.5 415.06,-102.5"/>
</a>
</g>
</g>
<!-- Node7 -->
<g id="Node000007" class="node">
<title>Node7</title>
<g id="a_Node000007"><a xlink:href="classassoc_1_1set.html" target="_top" xlink:title=" ">
<polygon fill="white" stroke="#666666" points="578,-78 452,-78 452,-48 578,-48 578,-78"/>
<text text-anchor="start" x="460" y="-66" font-family="Helvetica,sans-Serif" font-size="10.00">assoc::set&lt; const PHV</text>
<text text-anchor="middle" x="515" y="-55" font-family="Helvetica,sans-Serif" font-size="10.00">::Field * &gt;</text>
</a>
</g>
</g>
<!-- Node3&#45;&gt;Node7 -->
<g id="edge6_Node000003_Node000007" class="edge">
<title>Node3&#45;&gt;Node7</title>
<g id="a_edge6_Node000003_Node000007"><a xlink:title=" ">
<path fill="none" stroke="#63b8ff" d="M406.17,-88.62C421.35,-85.01 437.21,-81.24 451.95,-77.74"/>
<polygon fill="#63b8ff" stroke="#63b8ff" points="405.23,-85.24 396.31,-90.96 406.84,-92.05 405.23,-85.24"/>
</a>
</g>
</g>
<!-- Node8 -->
<g id="Node000008" class="node">
<title>Node8</title>
<g id="a_Node000008"><a xlink:href="classassoc_1_1set.html" target="_top" xlink:title=" ">
<polygon fill="white" stroke="#666666" points="589,-30 441,-30 441,0 589,0 589,-30"/>
<text text-anchor="start" x="449" y="-18" font-family="Helvetica,sans-Serif" font-size="10.00">assoc::set&lt; Key, Compare,</text>
<text text-anchor="middle" x="515" y="-7" font-family="Helvetica,sans-Serif" font-size="10.00"> Allocator, Itble &gt;</text>
</a>
</g>
</g>
<!-- Node3&#45;&gt;Node8 -->
<g id="edge7_Node000003_Node000008" class="edge">
<title>Node3&#45;&gt;Node8</title>
<g id="a_edge7_Node000003_Node000008"><a xlink:title=" ">
<path fill="none" stroke="#63b8ff" d="M362.58,-84.97C383.7,-70.64 413.18,-51.98 441,-39 447.89,-35.79 455.33,-32.81 462.74,-30.13"/>
<polygon fill="#63b8ff" stroke="#63b8ff" points="360.33,-82.27 354.07,-90.82 364.3,-88.04 360.33,-82.27"/>
</a>
</g>
</g>
</g>
</svg>
