<?xml version="1.0" encoding="UTF-8" standalone="no"?>
<!DOCTYPE svg PUBLIC "-//W3C//DTD SVG 1.1//EN"
 "http://www.w3.org/Graphics/SVG/1.1/DTD/svg11.dtd">
<!-- Generated by graphviz version 2.43.0 (0)
 -->
<!-- Title: assoc::detail::CondIterableAssocBase&lt; Base, Itble, typename _void&lt; typename Base::key_compare &gt;::type &gt; Pages: 1 -->
<svg width="173pt" height="115pt"
 viewBox="0.00 0.00 173.00 115.00" xmlns="http://www.w3.org/2000/svg" xmlns:xlink="http://www.w3.org/1999/xlink">
<g id="graph0" class="graph" transform="scale(1 1) rotate(0) translate(4 111)">
<title>assoc::detail::CondIterableAssocBase&lt; Base, Itble, typename _void&lt; typename Base::key_compare &gt;::type &gt;</title>
<!-- Node1 -->
<g id="Node000001" class="node">
<title>Node1</title>
<g id="a_Node000001"><a xlink:title=" ">
<polygon fill="#999999" stroke="#666666" points="165,-52 0,-52 0,0 165,0 165,-52"/>
<text text-anchor="start" x="8" y="-40" font-family="Helvetica,sans-Serif" font-size="10.00">assoc::detail::CondIterable</text>
<text text-anchor="start" x="8" y="-29" font-family="Helvetica,sans-Serif" font-size="10.00">AssocBase&lt; Base, Itble,</text>
<text text-anchor="start" x="8" y="-18" font-family="Helvetica,sans-Serif" font-size="10.00"> typename _void&lt; typename</text>
<text text-anchor="middle" x="82.5" y="-7" font-family="Helvetica,sans-Serif" font-size="10.00"> Base::key_compare &gt;::type &gt;</text>
</a>
</g>
</g>
<!-- Node2 -->
<g id="Node000002" class="node">
<title>Node2</title>
<g id="a_Node000002"><a xlink:title=" ">
<polygon fill="white" stroke="#bfbfbf" points="103,-107 62,-107 62,-88 103,-88 103,-107"/>
<text text-anchor="middle" x="82.5" y="-95" font-family="Helvetica,sans-Serif" font-size="10.00">Base</text>
</a>
</g>
</g>
<!-- Node2&#45;&gt;Node1 -->
<g id="edge1_Node000001_Node000002" class="edge">
<title>Node2&#45;&gt;Node1</title>
<g id="a_edge1_Node000001_Node000002"><a xlink:title=" ">
<path fill="none" stroke="darkgreen" d="M76.45,-77.96C75.71,-70.01 75.56,-60.61 75.99,-52.05"/>
<polygon fill="darkgreen" stroke="darkgreen" points="73,-78.58 77.89,-87.98 79.93,-77.58 73,-78.58"/>
</a>
</g>
</g>
<!-- Node2&#45;&gt;Node1 -->
<g id="edge2_Node000001_Node000002" class="edge">
<title>Node2&#45;&gt;Node1</title>
<g id="a_edge2_Node000001_Node000002"><a xlink:title=" ">
<path fill="none" stroke="darkgreen" d="M88.55,-77.96C89.29,-70.01 89.44,-60.61 89.01,-52.05"/>
<polygon fill="darkgreen" stroke="darkgreen" points="85.07,-77.58 87.11,-87.98 92,-78.58 85.07,-77.58"/>
</a>
</g>
</g>
</g>
</svg>
