<?xml version="1.0" encoding="UTF-8" standalone="no"?>
<!DOCTYPE svg PUBLIC "-//W3C//DTD SVG 1.1//EN"
 "http://www.w3.org/Graphics/SVG/1.1/DTD/svg11.dtd">
<!-- Generated by graphviz version 2.43.0 (0)
 -->
<!-- Title: P4::CheckExternInvocationCommon Pages: 1 -->
<svg width="695pt" height="161pt"
 viewBox="0.00 0.00 695.00 161.00" xmlns="http://www.w3.org/2000/svg" xmlns:xlink="http://www.w3.org/1999/xlink">
<g id="graph0" class="graph" transform="scale(1 1) rotate(0) translate(4 157)">
<title>P4::CheckExternInvocationCommon</title>
<!-- Node1 -->
<g id="Node000001" class="node">
<title>Node1</title>
<g id="a_Node000001"><a xlink:title="Base class which can be used to prepare classes for checking constraints for invocations of externs (...">
<polygon fill="#999999" stroke="#666666" points="469,-91 322,-91 322,-61 469,-61 469,-91"/>
<text text-anchor="start" x="330" y="-79" font-family="Helvetica,sans-Serif" font-size="10.00">P4::CheckExternInvocation</text>
<text text-anchor="middle" x="395.5" y="-68" font-family="Helvetica,sans-Serif" font-size="10.00">Common</text>
</a>
</g>
</g>
<!-- Node6 -->
<g id="Node000006" class="node">
<title>Node6</title>
<g id="a_Node000006"><a xlink:href="class_b_f_n_1_1_check_extern_invocation_common.html" target="_top" xlink:title=" ">
<polygon fill="white" stroke="#bfbfbf" points="673.5,-153 518.5,-153 518.5,-123 673.5,-123 673.5,-153"/>
<text text-anchor="start" x="526.5" y="-141" font-family="Helvetica,sans-Serif" font-size="10.00">BFN::CheckExternInvocation</text>
<text text-anchor="middle" x="596" y="-130" font-family="Helvetica,sans-Serif" font-size="10.00">Common</text>
</a>
</g>
</g>
<!-- Node1&#45;&gt;Node6 -->
<g id="edge6_Node000001_Node000006" class="edge">
<title>Node1&#45;&gt;Node6</title>
<g id="a_edge6_Node000001_Node000006"><a xlink:title=" ">
<path fill="none" stroke="#63b8ff" d="M446.77,-94.5C465.01,-100.98 485.84,-108.1 505,-114 514.89,-117.05 525.46,-120.07 535.75,-122.89"/>
<polygon fill="#63b8ff" stroke="#63b8ff" points="447.81,-91.16 437.22,-91.09 445.45,-97.75 447.81,-91.16"/>
</a>
</g>
</g>
<!-- Node7 -->
<g id="Node000007" class="node">
<title>Node7</title>
<g id="a_Node000007"><a xlink:href="class_b_f_n_1_1_check_t2_n_a_extern_invocation.html" target="_top" xlink:title=" ">
<polygon fill="white" stroke="#bfbfbf" points="687,-104.5 505,-104.5 505,-85.5 687,-85.5 687,-104.5"/>
<text text-anchor="middle" x="596" y="-92.5" font-family="Helvetica,sans-Serif" font-size="10.00">BFN::CheckT2NAExternInvocation</text>
</a>
</g>
</g>
<!-- Node1&#45;&gt;Node7 -->
<g id="edge7_Node000001_Node000007" class="edge">
<title>Node1&#45;&gt;Node7</title>
<g id="a_edge7_Node000001_Node000007"><a xlink:title=" ">
<path fill="none" stroke="#63b8ff" d="M479.21,-83.92C487.65,-84.72 496.26,-85.55 504.77,-86.36"/>
<polygon fill="#63b8ff" stroke="#63b8ff" points="479.29,-80.41 469.01,-82.94 478.63,-87.38 479.29,-80.41"/>
</a>
</g>
</g>
<!-- Node8 -->
<g id="Node000008" class="node">
<title>Node8</title>
<g id="a_Node000008"><a xlink:href="class_b_f_n_1_1_check_t_n_a_extern_invocation.html" target="_top" xlink:title=" ">
<polygon fill="white" stroke="#bfbfbf" points="684,-67.5 508,-67.5 508,-48.5 684,-48.5 684,-67.5"/>
<text text-anchor="middle" x="596" y="-55.5" font-family="Helvetica,sans-Serif" font-size="10.00">BFN::CheckTNAExternInvocation</text>
</a>
</g>
</g>
<!-- Node1&#45;&gt;Node8 -->
<g id="edge8_Node000001_Node000008" class="edge">
<title>Node1&#45;&gt;Node8</title>
<g id="a_edge8_Node000001_Node000008"><a xlink:title=" ">
<path fill="none" stroke="#63b8ff" d="M479.18,-68.5C488.65,-67.64 498.33,-66.77 507.85,-65.9"/>
<polygon fill="#63b8ff" stroke="#63b8ff" points="478.65,-65.04 469.01,-69.43 479.28,-72.01 478.65,-65.04"/>
</a>
</g>
</g>
<!-- Node9 -->
<g id="Node000009" class="node">
<title>Node9</title>
<g id="a_Node000009"><a xlink:href="class_p4_1_1_d_p_d_k_1_1_check_p_n_a_extern_invocation.html" target="_top" xlink:title="Class for checking constraints for invocations of PNA architecture extern methods and functions.">
<polygon fill="white" stroke="#666666" points="671,-30 521,-30 521,0 671,0 671,-30"/>
<text text-anchor="start" x="529" y="-18" font-family="Helvetica,sans-Serif" font-size="10.00">P4::DPDK::CheckPNAExtern</text>
<text text-anchor="middle" x="596" y="-7" font-family="Helvetica,sans-Serif" font-size="10.00">Invocation</text>
</a>
</g>
</g>
<!-- Node1&#45;&gt;Node9 -->
<g id="edge9_Node000001_Node000009" class="edge">
<title>Node1&#45;&gt;Node9</title>
<g id="a_edge9_Node000001_Node000009"><a xlink:title=" ">
<path fill="none" stroke="#63b8ff" d="M448.21,-57.56C466.11,-51.4 486.36,-44.66 505,-39 515.06,-35.95 525.81,-32.9 536.26,-30.05"/>
<polygon fill="#63b8ff" stroke="#63b8ff" points="446.84,-54.34 438.54,-60.92 449.13,-60.95 446.84,-54.34"/>
</a>
</g>
</g>
<!-- Node2 -->
<g id="Node000002" class="node">
<title>Node2</title>
<g id="a_Node000002"><a xlink:href="class_p4_1_1_inspector.html" target="_top" xlink:title=" ">
<polygon fill="white" stroke="#bfbfbf" points="263.5,-104.5 183.5,-104.5 183.5,-85.5 263.5,-85.5 263.5,-104.5"/>
<text text-anchor="middle" x="223.5" y="-92.5" font-family="Helvetica,sans-Serif" font-size="10.00">P4::Inspector</text>
</a>
</g>
</g>
<!-- Node2&#45;&gt;Node1 -->
<g id="edge1_Node000001_Node000002" class="edge">
<title>Node2&#45;&gt;Node1</title>
<g id="a_edge1_Node000001_Node000002"><a xlink:title=" ">
<path fill="none" stroke="#63b8ff" d="M273.62,-89.51C288.7,-87.82 305.62,-85.93 321.93,-84.11"/>
<polygon fill="#63b8ff" stroke="#63b8ff" points="273.05,-86.05 263.5,-90.64 273.83,-93.01 273.05,-86.05"/>
</a>
</g>
</g>
<!-- Node3 -->
<g id="Node000003" class="node">
<title>Node3</title>
<g id="a_Node000003"><a xlink:href="class_p4_1_1_visitor.html" target="_top" xlink:title=" ">
<polygon fill="white" stroke="#bfbfbf" points="95.5,-104.5 29.5,-104.5 29.5,-85.5 95.5,-85.5 95.5,-104.5"/>
<text text-anchor="middle" x="62.5" y="-92.5" font-family="Helvetica,sans-Serif" font-size="10.00">P4::Visitor</text>
</a>
</g>
</g>
<!-- Node3&#45;&gt;Node2 -->
<g id="edge2_Node000002_Node000003" class="edge">
<title>Node3&#45;&gt;Node2</title>
<g id="a_edge2_Node000002_Node000003"><a xlink:title=" ">
<path fill="none" stroke="#63b8ff" d="M105.93,-95C129.98,-95 159.85,-95 183.34,-95"/>
<polygon fill="#63b8ff" stroke="#63b8ff" points="105.68,-91.5 95.68,-95 105.68,-98.5 105.68,-91.5"/>
</a>
</g>
</g>
<!-- Node4 -->
<g id="Node000004" class="node">
<title>Node4</title>
<g id="a_Node000004"><a xlink:href="class_p4_1_1_resolution_context.html" target="_top" xlink:title="Visitor mixin for looking up names in enclosing scopes from the Visitor::Context.">
<polygon fill="white" stroke="#666666" points="286,-67.5 161,-67.5 161,-48.5 286,-48.5 286,-67.5"/>
<text text-anchor="middle" x="223.5" y="-55.5" font-family="Helvetica,sans-Serif" font-size="10.00">P4::ResolutionContext</text>
</a>
</g>
</g>
<!-- Node3&#45;&gt;Node4 -->
<g id="edge4_Node000004_Node000003" class="edge">
<title>Node3&#45;&gt;Node4</title>
<g id="a_edge4_Node000004_Node000003"><a xlink:title=" ">
<path fill="none" stroke="#63b8ff" d="M105.7,-85.18C129.19,-79.71 158.31,-72.94 181.59,-67.52"/>
<polygon fill="#63b8ff" stroke="#63b8ff" points="104.62,-81.84 95.68,-87.51 106.21,-88.65 104.62,-81.84"/>
</a>
</g>
</g>
<!-- Node4&#45;&gt;Node1 -->
<g id="edge3_Node000001_Node000004" class="edge">
<title>Node4&#45;&gt;Node1</title>
<g id="a_edge3_Node000001_Node000004"><a xlink:title=" ">
<path fill="none" stroke="#63b8ff" d="M296.45,-65.62C304.81,-66.5 313.34,-67.41 321.72,-68.29"/>
<polygon fill="#63b8ff" stroke="#63b8ff" points="296.67,-62.12 286.35,-64.55 295.93,-69.08 296.67,-62.12"/>
</a>
</g>
</g>
<!-- Node5 -->
<g id="Node000005" class="node">
<title>Node5</title>
<g id="a_Node000005"><a xlink:href="class_p4_1_1_declaration_lookup.html" target="_top" xlink:title=" ">
<polygon fill="white" stroke="#bfbfbf" points="125,-67.5 0,-67.5 0,-48.5 125,-48.5 125,-67.5"/>
<text text-anchor="middle" x="62.5" y="-55.5" font-family="Helvetica,sans-Serif" font-size="10.00">P4::DeclarationLookup</text>
</a>
</g>
</g>
<!-- Node5&#45;&gt;Node4 -->
<g id="edge5_Node000004_Node000005" class="edge">
<title>Node5&#45;&gt;Node4</title>
<g id="a_edge5_Node000004_Node000005"><a xlink:title=" ">
<path fill="none" stroke="#63b8ff" d="M135.59,-58C143.99,-58 152.5,-58 160.74,-58"/>
<polygon fill="#63b8ff" stroke="#63b8ff" points="135.43,-54.5 125.43,-58 135.43,-61.5 135.43,-54.5"/>
</a>
</g>
</g>
</g>
</svg>
