<?xml version="1.0" encoding="UTF-8" standalone="no"?>
<!DOCTYPE svg PUBLIC "-//W3C//DTD SVG 1.1//EN"
 "http://www.w3.org/Graphics/SVG/1.1/DTD/svg11.dtd">
<!-- Generated by graphviz version 2.43.0 (0)
 -->
<!-- Title: P4::IR::INode Pages: 1 -->
<svg width="1078pt" height="1062pt"
 viewBox="0.00 0.00 1078.00 1062.00" xmlns="http://www.w3.org/2000/svg" xmlns:xlink="http://www.w3.org/1999/xlink">
<g id="graph0" class="graph" transform="scale(1 1) rotate(0) translate(4 1058)">
<title>P4::IR::INode</title>
<!-- Node1 -->
<g id="Node000001" class="node">
<title>Node1</title>
<g id="a_Node000001"><a xlink:title=" ">
<polygon fill="#999999" stroke="#666666" points="368,-592 289,-592 289,-573 368,-573 368,-592"/>
<text text-anchor="middle" x="328.5" y="-580" font-family="Helvetica,sans-Serif" font-size="10.00">P4::IR::INode</text>
</a>
</g>
</g>
<!-- Node6 -->
<g id="Node000006" class="node">
<title>Node6</title>
<g id="a_Node000006"><a xlink:href="class_p4_1_1_i_r_1_1_i_declaration.html" target="_top" xlink:title="The Declaration interface, representing objects with names.">
<polygon fill="white" stroke="#666666" points="514,-611 404,-611 404,-592 514,-592 514,-611"/>
<text text-anchor="middle" x="459" y="-599" font-family="Helvetica,sans-Serif" font-size="10.00">P4::IR::IDeclaration</text>
</a>
</g>
</g>
<!-- Node1&#45;&gt;Node6 -->
<g id="edge5_Node000001_Node000006" class="edge">
<title>Node1&#45;&gt;Node6</title>
<g id="a_edge5_Node000001_Node000006"><a xlink:title=" ">
<path fill="none" stroke="#63b8ff" d="M378.07,-589.68C386.47,-590.92 395.26,-592.22 403.8,-593.49"/>
<polygon fill="#63b8ff" stroke="#63b8ff" points="378.46,-586.2 368.05,-588.2 377.43,-593.13 378.46,-586.2"/>
</a>
</g>
</g>
<!-- Node7 -->
<g id="Node000007" class="node">
<title>Node7</title>
<g id="a_Node000007"><a xlink:href="class_p4_1_1_i_r_1_1_node.html" target="_top" xlink:title=" ">
<polygon fill="white" stroke="#bfbfbf" points="497,-574 421,-574 421,-555 497,-555 497,-574"/>
<text text-anchor="middle" x="459" y="-562" font-family="Helvetica,sans-Serif" font-size="10.00">P4::IR::Node</text>
</a>
</g>
</g>
<!-- Node1&#45;&gt;Node7 -->
<g id="edge6_Node000001_Node000007" class="edge">
<title>Node1&#45;&gt;Node7</title>
<g id="a_edge6_Node000001_Node000007"><a xlink:title=" ">
<path fill="none" stroke="#63b8ff" d="M378.12,-575.69C392.26,-573.71 407.48,-571.58 420.8,-569.71"/>
<polygon fill="#63b8ff" stroke="#63b8ff" points="377.47,-572.25 368.05,-577.1 378.44,-579.18 377.47,-572.25"/>
</a>
</g>
</g>
<!-- Node2 -->
<g id="Node000002" class="node">
<title>Node2</title>
<g id="a_Node000002"><a xlink:href="class_p4_1_1_util_1_1_i_has_source_info.html" target="_top" xlink:title=" ">
<polygon fill="white" stroke="#bfbfbf" points="253,-629 122,-629 122,-610 253,-610 253,-629"/>
<text text-anchor="middle" x="187.5" y="-617" font-family="Helvetica,sans-Serif" font-size="10.00">P4::Util::IHasSourceInfo</text>
</a>
</g>
</g>
<!-- Node2&#45;&gt;Node1 -->
<g id="edge1_Node000001_Node000002" class="edge">
<title>Node2&#45;&gt;Node1</title>
<g id="a_edge1_Node000001_Node000002"><a xlink:title=" ">
<path fill="none" stroke="#63b8ff" d="M234.03,-607.38C252.63,-602.43 273.84,-596.78 291.34,-592.12"/>
<polygon fill="#63b8ff" stroke="#63b8ff" points="233.06,-604.02 224.3,-609.97 234.86,-610.78 233.06,-604.02"/>
</a>
</g>
</g>
<!-- Node3 -->
<g id="Node000003" class="node">
<title>Node3</title>
<g id="a_Node000003"><a xlink:href="class_p4_1_1_i_has_db_print.html" target="_top" xlink:title=" ">
<polygon fill="white" stroke="#bfbfbf" points="233.5,-592 141.5,-592 141.5,-573 233.5,-573 233.5,-592"/>
<text text-anchor="middle" x="187.5" y="-580" font-family="Helvetica,sans-Serif" font-size="10.00">P4::IHasDbPrint</text>
</a>
</g>
</g>
<!-- Node3&#45;&gt;Node1 -->
<g id="edge2_Node000001_Node000003" class="edge">
<title>Node3&#45;&gt;Node1</title>
<g id="a_edge2_Node000001_Node000003"><a xlink:title=" ">
<path fill="none" stroke="#63b8ff" d="M243.84,-582.5C258.85,-582.5 274.78,-582.5 288.67,-582.5"/>
<polygon fill="#63b8ff" stroke="#63b8ff" points="243.63,-579 233.63,-582.5 243.63,-586 243.63,-579"/>
</a>
</g>
</g>
<!-- Node4 -->
<g id="Node000004" class="node">
<title>Node4</title>
<g id="a_Node000004"><a xlink:href="class_p4_1_1_i_castable.html" target="_top" xlink:title=" ">
<polygon fill="white" stroke="#666666" points="227.5,-555 147.5,-555 147.5,-536 227.5,-536 227.5,-555"/>
<text text-anchor="middle" x="187.5" y="-543" font-family="Helvetica,sans-Serif" font-size="10.00">P4::ICastable</text>
</a>
</g>
</g>
<!-- Node4&#45;&gt;Node1 -->
<g id="edge3_Node000001_Node000004" class="edge">
<title>Node4&#45;&gt;Node1</title>
<g id="a_edge3_Node000001_Node000004"><a xlink:title=" ">
<path fill="none" stroke="#63b8ff" d="M234.03,-557.62C252.63,-562.57 273.84,-568.22 291.34,-572.88"/>
<polygon fill="#63b8ff" stroke="#63b8ff" points="234.86,-554.22 224.3,-555.03 233.06,-560.98 234.86,-554.22"/>
</a>
</g>
</g>
<!-- Node5 -->
<g id="Node000005" class="node">
<title>Node5</title>
<g id="a_Node000005"><a xlink:href="struct_p4_1_1_r_t_t_i_1_1_base.html" target="_top" xlink:title=" ">
<polygon fill="white" stroke="#bfbfbf" points="86,-555 0,-555 0,-536 86,-536 86,-555"/>
<text text-anchor="middle" x="43" y="-543" font-family="Helvetica,sans-Serif" font-size="10.00">P4::RTTI::Base</text>
</a>
</g>
</g>
<!-- Node5&#45;&gt;Node4 -->
<g id="edge4_Node000004_Node000005" class="edge">
<title>Node5&#45;&gt;Node4</title>
<g id="a_edge4_Node000004_Node000005"><a xlink:title=" ">
<path fill="none" stroke="#63b8ff" d="M96.62,-545.5C113.45,-545.5 131.77,-545.5 147.46,-545.5"/>
<polygon fill="#63b8ff" stroke="#63b8ff" points="96.37,-542 86.37,-545.5 96.37,-549 96.37,-542"/>
</a>
</g>
</g>
<!-- Node8 -->
<g id="Node000008" class="node">
<title>Node8</title>
<g id="a_Node000008"><a xlink:href="class_p4_1_1_i_r_1_1_name_map.html" target="_top" xlink:title=" ">
<polygon fill="white" stroke="#bfbfbf" points="694,-627.5 569,-627.5 569,-597.5 694,-597.5 694,-627.5"/>
<text text-anchor="start" x="577" y="-615.5" font-family="Helvetica,sans-Serif" font-size="10.00">P4::IR::NameMap&lt; T,</text>
<text text-anchor="middle" x="631.5" y="-604.5" font-family="Helvetica,sans-Serif" font-size="10.00"> MAP, COMP, ALLOC &gt;</text>
</a>
</g>
</g>
<!-- Node7&#45;&gt;Node8 -->
<g id="edge7_Node000007_Node000008" class="edge">
<title>Node7&#45;&gt;Node8</title>
<g id="a_edge7_Node000007_Node000008"><a xlink:title=" ">
<path fill="none" stroke="#63b8ff" d="M503.95,-576.87C526.24,-583.15 553.5,-590.82 576.99,-597.44"/>
<polygon fill="#63b8ff" stroke="#63b8ff" points="504.67,-573.44 494.09,-574.1 502.77,-580.18 504.67,-573.44"/>
</a>
</g>
</g>
<!-- Node9 -->
<g id="Node000009" class="node">
<title>Node9</title>
<g id="a_Node000009"><a xlink:href="class_p4_1_1_i_r_1_1_node_map.html" target="_top" xlink:title=" ">
<polygon fill="white" stroke="#bfbfbf" points="713,-579.5 550,-579.5 550,-549.5 713,-549.5 713,-579.5"/>
<text text-anchor="start" x="558" y="-567.5" font-family="Helvetica,sans-Serif" font-size="10.00">P4::IR::NodeMap&lt; KEY,</text>
<text text-anchor="middle" x="631.5" y="-556.5" font-family="Helvetica,sans-Serif" font-size="10.00"> VALUE, MAP, COMP, ALLOC &gt;</text>
</a>
</g>
</g>
<!-- Node7&#45;&gt;Node9 -->
<g id="edge8_Node000007_Node000009" class="edge">
<title>Node7&#45;&gt;Node9</title>
<g id="a_edge8_Node000007_Node000009"><a xlink:title=" ">
<path fill="none" stroke="#63b8ff" d="M507.6,-564.5C520.74,-564.5 535.37,-564.5 549.83,-564.5"/>
<polygon fill="#63b8ff" stroke="#63b8ff" points="507.42,-561 497.42,-564.5 507.42,-568 507.42,-561"/>
</a>
</g>
</g>
<!-- Node10 -->
<g id="Node000010" class="node">
<title>Node10</title>
<g id="a_Node000010"><a xlink:href="class_p4_1_1_i_r_1_1_vector_base.html" target="_top" xlink:title=" ">
<polygon fill="white" stroke="#bfbfbf" points="684,-531 579,-531 579,-512 684,-512 684,-531"/>
<text text-anchor="middle" x="631.5" y="-519" font-family="Helvetica,sans-Serif" font-size="10.00">P4::IR::VectorBase</text>
</a>
</g>
</g>
<!-- Node7&#45;&gt;Node10 -->
<g id="edge9_Node000007_Node000010" class="edge">
<title>Node7&#45;&gt;Node10</title>
<g id="a_edge9_Node000007_Node000010"><a xlink:title=" ">
<path fill="none" stroke="#63b8ff" d="M504.68,-552.31C519.12,-548.45 535.22,-544.21 550,-540.5 562.67,-537.32 576.51,-533.99 589.08,-531.04"/>
<polygon fill="#63b8ff" stroke="#63b8ff" points="503.74,-548.94 494.99,-554.92 505.55,-555.7 503.74,-548.94"/>
</a>
</g>
</g>
<!-- Node11 -->
<g id="Node000011" class="node">
<title>Node11</title>
<g id="a_Node000011"><a xlink:href="class_p4_1_1_i_r_1_1_vector.html" target="_top" xlink:title=" ">
<polygon fill="white" stroke="#bfbfbf" points="872.5,-1054 757.5,-1054 757.5,-1035 872.5,-1035 872.5,-1054"/>
<text text-anchor="middle" x="815" y="-1042" font-family="Helvetica,sans-Serif" font-size="10.00">P4::IR::iterator&lt; T &gt;</text>
</a>
</g>
</g>
<!-- Node10&#45;&gt;Node11 -->
<g id="edge10_Node000010_Node000011" class="edge">
<title>Node10&#45;&gt;Node11</title>
<g id="a_edge10_Node000010_Node000011"><a xlink:title=" ">
<path fill="none" stroke="#63b8ff" d="M693.75,-527.05C701.1,-530.1 707.82,-534.43 713,-540.5 783.16,-622.7 681.02,-941.48 749,-1025.5 752.11,-1029.34 755.94,-1032.43 760.19,-1034.91"/>
<polygon fill="#63b8ff" stroke="#63b8ff" points="694.77,-523.69 684.17,-523.81 692.53,-530.33 694.77,-523.69"/>
</a>
</g>
</g>
<!-- Node12 -->
<g id="Node000012" class="node">
<title>Node12</title>
<g id="a_Node000012"><a xlink:href="class_p4_1_1_i_r_1_1_vector.html" target="_top" xlink:title=" ">
<polygon fill="white" stroke="#bfbfbf" points="866,-1016.5 764,-1016.5 764,-986.5 866,-986.5 866,-1016.5"/>
<text text-anchor="start" x="772" y="-1004.5" font-family="Helvetica,sans-Serif" font-size="10.00">P4::IR::Vector&lt; IR</text>
<text text-anchor="middle" x="815" y="-993.5" font-family="Helvetica,sans-Serif" font-size="10.00">::Expression &gt;</text>
</a>
</g>
</g>
<!-- Node10&#45;&gt;Node12 -->
<g id="edge11_Node000010_Node000012" class="edge">
<title>Node10&#45;&gt;Node12</title>
<g id="a_edge11_Node000010_Node000012"><a xlink:title=" ">
<path fill="none" stroke="#63b8ff" d="M693.7,-527.08C701.06,-530.14 707.8,-534.45 713,-540.5 776.56,-614.36 690.06,-899.91 749,-977.5 752.93,-982.67 758.09,-986.73 763.8,-989.91"/>
<polygon fill="#63b8ff" stroke="#63b8ff" points="694.72,-523.73 684.12,-523.86 692.48,-530.37 694.72,-523.73"/>
</a>
</g>
</g>
<!-- Node13 -->
<g id="Node000013" class="node">
<title>Node13</title>
<g id="a_Node000013"><a xlink:href="class_p4_1_1_i_r_1_1_vector.html" target="_top" xlink:title=" ">
<polygon fill="white" stroke="#bfbfbf" points="866,-968.5 764,-968.5 764,-938.5 866,-938.5 866,-968.5"/>
<text text-anchor="start" x="772" y="-956.5" font-family="Helvetica,sans-Serif" font-size="10.00">P4::IR::Vector&lt; IR</text>
<text text-anchor="middle" x="815" y="-945.5" font-family="Helvetica,sans-Serif" font-size="10.00">::BFN::Pipe &gt;</text>
</a>
</g>
</g>
<!-- Node10&#45;&gt;Node13 -->
<g id="edge12_Node000010_Node000013" class="edge">
<title>Node10&#45;&gt;Node13</title>
<g id="a_edge12_Node000010_Node000013"><a xlink:title=" ">
<path fill="none" stroke="#63b8ff" d="M693.65,-527.13C701.01,-530.18 707.77,-534.48 713,-540.5 769.96,-606.02 696.14,-860.64 749,-929.5 752.96,-934.65 758.13,-938.7 763.84,-941.88"/>
<polygon fill="#63b8ff" stroke="#63b8ff" points="694.65,-523.78 684.06,-523.91 692.42,-530.41 694.65,-523.78"/>
</a>
</g>
</g>
<!-- Node14 -->
<g id="Node000014" class="node">
<title>Node14</title>
<g id="a_Node000014"><a xlink:href="class_p4_1_1_i_r_1_1_vector.html" target="_top" xlink:title=" ">
<polygon fill="white" stroke="#bfbfbf" points="876,-920.5 754,-920.5 754,-890.5 876,-890.5 876,-920.5"/>
<text text-anchor="start" x="762" y="-908.5" font-family="Helvetica,sans-Serif" font-size="10.00">P4::IR::Vector&lt; IR</text>
<text text-anchor="middle" x="815" y="-897.5" font-family="Helvetica,sans-Serif" font-size="10.00">::NamedExpression &gt;</text>
</a>
</g>
</g>
<!-- Node10&#45;&gt;Node14 -->
<g id="edge13_Node000010_Node000014" class="edge">
<title>Node10&#45;&gt;Node14</title>
<g id="a_edge13_Node000010_Node000014"><a xlink:title=" ">
<path fill="none" stroke="#63b8ff" d="M694.34,-527.51C701.42,-530.53 707.91,-534.72 713,-540.5 813.73,-654.86 655.43,-761.21 749,-881.5 751.66,-884.92 754.86,-887.85 758.39,-890.36"/>
<polygon fill="#63b8ff" stroke="#63b8ff" points="694.99,-524.04 684.4,-524.09 692.71,-530.66 694.99,-524.04"/>
</a>
</g>
</g>
<!-- Node16 -->
<g id="Node000016" class="node">
<title>Node16</title>
<g id="a_Node000016"><a xlink:href="class_p4_1_1_i_r_1_1_vector.html" target="_top" xlink:title=" ">
<polygon fill="white" stroke="#bfbfbf" points="866,-872.5 764,-872.5 764,-842.5 866,-842.5 866,-872.5"/>
<text text-anchor="start" x="772" y="-860.5" font-family="Helvetica,sans-Serif" font-size="10.00">P4::IR::Vector&lt; IR</text>
<text text-anchor="middle" x="815" y="-849.5" font-family="Helvetica,sans-Serif" font-size="10.00">::Annotation &gt;</text>
</a>
</g>
</g>
<!-- Node10&#45;&gt;Node16 -->
<g id="edge15_Node000010_Node000016" class="edge">
<title>Node10&#45;&gt;Node16</title>
<g id="a_edge15_Node000010_Node000016"><a xlink:title=" ">
<path fill="none" stroke="#63b8ff" d="M694.25,-527.6C701.34,-530.6 707.86,-534.77 713,-540.5 800.56,-638.21 667.56,-730.63 749,-833.5 753.03,-838.59 758.26,-842.61 763.99,-845.77"/>
<polygon fill="#63b8ff" stroke="#63b8ff" points="694.89,-524.12 684.29,-524.18 692.62,-530.74 694.89,-524.12"/>
</a>
</g>
</g>
<!-- Node17 -->
<g id="Node000017" class="node">
<title>Node17</title>
<g id="a_Node000017"><a xlink:href="class_p4_1_1_i_r_1_1_vector.html" target="_top" xlink:title=" ">
<polygon fill="white" stroke="#bfbfbf" points="867,-824.5 763,-824.5 763,-794.5 867,-794.5 867,-824.5"/>
<text text-anchor="start" x="771" y="-812.5" font-family="Helvetica,sans-Serif" font-size="10.00">P4::IR::Vector&lt; P4</text>
<text text-anchor="middle" x="815" y="-801.5" font-family="Helvetica,sans-Serif" font-size="10.00">::IR::Node &gt;</text>
</a>
</g>
</g>
<!-- Node10&#45;&gt;Node17 -->
<g id="edge16_Node000010_Node000017" class="edge">
<title>Node10&#45;&gt;Node17</title>
<g id="a_edge16_Node000010_Node000017"><a xlink:title=" ">
<path fill="none" stroke="#63b8ff" d="M693.64,-527.51C700.94,-530.51 707.68,-534.7 713,-540.5 787.41,-621.59 679.67,-700.03 749,-785.5 752.79,-790.17 757.58,-793.93 762.83,-796.96"/>
<polygon fill="#63b8ff" stroke="#63b8ff" points="694.75,-524.19 684.15,-524.31 692.51,-530.82 694.75,-524.19"/>
</a>
</g>
</g>
<!-- Node19 -->
<g id="Node000019" class="node">
<title>Node19</title>
<g id="a_Node000019"><a xlink:href="class_p4_1_1_i_r_1_1_vector.html" target="_top" xlink:title=" ">
<polygon fill="white" stroke="#bfbfbf" points="866,-776.5 764,-776.5 764,-746.5 866,-746.5 866,-776.5"/>
<text text-anchor="start" x="772" y="-764.5" font-family="Helvetica,sans-Serif" font-size="10.00">P4::IR::Vector&lt; IR</text>
<text text-anchor="middle" x="815" y="-753.5" font-family="Helvetica,sans-Serif" font-size="10.00">::StructField &gt;</text>
</a>
</g>
</g>
<!-- Node10&#45;&gt;Node19 -->
<g id="edge18_Node000010_Node000019" class="edge">
<title>Node10&#45;&gt;Node19</title>
<g id="a_edge18_Node000010_Node000019"><a xlink:title=" ">
<path fill="none" stroke="#63b8ff" d="M694.21,-528C701.25,-530.95 707.76,-534.99 713,-540.5 774.31,-605.02 691.73,-669.36 749,-737.5 753.1,-742.38 758.29,-746.27 763.94,-749.37"/>
<polygon fill="#63b8ff" stroke="#63b8ff" points="694.96,-524.55 684.36,-524.62 692.69,-531.17 694.96,-524.55"/>
</a>
</g>
</g>
<!-- Node21 -->
<g id="Node000021" class="node">
<title>Node21</title>
<g id="a_Node000021"><a xlink:href="class_p4_1_1_i_r_1_1_vector.html" target="_top" xlink:title=" ">
<polygon fill="white" stroke="#bfbfbf" points="866,-728.5 764,-728.5 764,-698.5 866,-698.5 866,-728.5"/>
<text text-anchor="start" x="772" y="-716.5" font-family="Helvetica,sans-Serif" font-size="10.00">P4::IR::Vector&lt; IR</text>
<text text-anchor="middle" x="815" y="-705.5" font-family="Helvetica,sans-Serif" font-size="10.00">::MAU::Table &gt;</text>
</a>
</g>
</g>
<!-- Node10&#45;&gt;Node21 -->
<g id="edge20_Node000010_Node000021" class="edge">
<title>Node10&#45;&gt;Node21</title>
<g id="a_edge20_Node000010_Node000021"><a xlink:title=" ">
<path fill="none" stroke="#63b8ff" d="M693.92,-528.28C701.01,-531.18 707.61,-535.14 713,-540.5 761.3,-588.55 703.72,-638.6 749,-689.5 753.16,-694.17 758.31,-697.94 763.88,-700.97"/>
<polygon fill="#63b8ff" stroke="#63b8ff" points="694.63,-524.82 684.03,-524.94 692.39,-531.46 694.63,-524.82"/>
</a>
</g>
</g>
<!-- Node22 -->
<g id="Node000022" class="node">
<title>Node22</title>
<g id="a_Node000022"><a xlink:href="class_p4_1_1_i_r_1_1_vector.html" target="_top" xlink:title=" ">
<polygon fill="white" stroke="#bfbfbf" points="866,-680.5 764,-680.5 764,-650.5 866,-650.5 866,-680.5"/>
<text text-anchor="start" x="772" y="-668.5" font-family="Helvetica,sans-Serif" font-size="10.00">P4::IR::Vector&lt; IR</text>
<text text-anchor="middle" x="815" y="-657.5" font-family="Helvetica,sans-Serif" font-size="10.00">::Type &gt;</text>
</a>
</g>
</g>
<!-- Node10&#45;&gt;Node22 -->
<g id="edge21_Node000010_Node000022" class="edge">
<title>Node10&#45;&gt;Node22</title>
<g id="a_edge21_Node000010_Node000022"><a xlink:title=" ">
<path fill="none" stroke="#63b8ff" d="M693.96,-529.05C700.92,-531.84 707.48,-535.56 713,-540.5 748.51,-572.28 715.49,-607.61 749,-641.5 753.23,-645.78 758.29,-649.3 763.69,-652.2"/>
<polygon fill="#63b8ff" stroke="#63b8ff" points="694.88,-525.67 684.29,-525.79 692.65,-532.3 694.88,-525.67"/>
</a>
</g>
</g>
<!-- Node23 -->
<g id="Node000023" class="node">
<title>Node23</title>
<g id="a_Node000023"><a xlink:href="class_p4_1_1_i_r_1_1_vector.html" target="_top" xlink:title=" ">
<polygon fill="white" stroke="#bfbfbf" points="866,-632.5 764,-632.5 764,-602.5 866,-602.5 866,-632.5"/>
<text text-anchor="start" x="772" y="-620.5" font-family="Helvetica,sans-Serif" font-size="10.00">P4::IR::Vector&lt; IR</text>
<text text-anchor="middle" x="815" y="-609.5" font-family="Helvetica,sans-Serif" font-size="10.00">::Argument &gt;</text>
</a>
</g>
</g>
<!-- Node10&#45;&gt;Node23 -->
<g id="edge22_Node000010_Node000023" class="edge">
<title>Node10&#45;&gt;Node23</title>
<g id="a_edge22_Node000010_Node000023"><a xlink:title=" ">
<path fill="none" stroke="#63b8ff" d="M694.17,-530.95C700.84,-533.43 707.28,-536.56 713,-540.5 736.45,-556.65 726.57,-575.95 749,-593.5 753.45,-596.98 758.46,-600 763.67,-602.6"/>
<polygon fill="#63b8ff" stroke="#63b8ff" points="694.87,-527.5 684.28,-527.75 692.72,-534.16 694.87,-527.5"/>
</a>
</g>
</g>
<!-- Node24 -->
<g id="Node000024" class="node">
<title>Node24</title>
<g id="a_Node000024"><a xlink:href="class_p4_1_1_i_r_1_1_vector.html" target="_top" xlink:title=" ">
<polygon fill="white" stroke="#bfbfbf" points="866,-584.5 764,-584.5 764,-554.5 866,-554.5 866,-584.5"/>
<text text-anchor="start" x="772" y="-572.5" font-family="Helvetica,sans-Serif" font-size="10.00">P4::IR::Vector&lt; IR</text>
<text text-anchor="middle" x="815" y="-561.5" font-family="Helvetica,sans-Serif" font-size="10.00">::Declaration &gt;</text>
</a>
</g>
</g>
<!-- Node10&#45;&gt;Node24 -->
<g id="edge23_Node000010_Node000024" class="edge">
<title>Node10&#45;&gt;Node24</title>
<g id="a_edge23_Node000010_Node000024"><a xlink:title=" ">
<path fill="none" stroke="#63b8ff" d="M684.53,-533.4C694.02,-535.68 703.82,-538.1 713,-540.5 729.59,-544.84 747.62,-549.9 763.78,-554.57"/>
<polygon fill="#63b8ff" stroke="#63b8ff" points="685.33,-529.99 674.79,-531.08 683.71,-536.8 685.33,-529.99"/>
</a>
</g>
</g>
<!-- Node26 -->
<g id="Node000026" class="node">
<title>Node26</title>
<g id="a_Node000026"><a xlink:href="class_p4_1_1_i_r_1_1_vector.html" target="_top" xlink:title=" ">
<polygon fill="white" stroke="#bfbfbf" points="881,-536.5 749,-536.5 749,-506.5 881,-506.5 881,-536.5"/>
<text text-anchor="start" x="757" y="-524.5" font-family="Helvetica,sans-Serif" font-size="10.00">P4::IR::Vector&lt; IR</text>
<text text-anchor="middle" x="815" y="-513.5" font-family="Helvetica,sans-Serif" font-size="10.00">::DpdkAsmStatement &gt;</text>
</a>
</g>
</g>
<!-- Node10&#45;&gt;Node26 -->
<g id="edge25_Node000010_Node000026" class="edge">
<title>Node10&#45;&gt;Node26</title>
<g id="a_edge25_Node000010_Node000026"><a xlink:title=" ">
<path fill="none" stroke="#63b8ff" d="M694.16,-521.5C711.74,-521.5 730.95,-521.5 748.73,-521.5"/>
<polygon fill="#63b8ff" stroke="#63b8ff" points="694.03,-518 684.03,-521.5 694.03,-525 694.03,-518"/>
</a>
</g>
</g>
<!-- Node28 -->
<g id="Node000028" class="node">
<title>Node28</title>
<g id="a_Node000028"><a xlink:href="class_p4_1_1_i_r_1_1_vector.html" target="_top" xlink:title=" ">
<polygon fill="white" stroke="#bfbfbf" points="866,-488.5 764,-488.5 764,-458.5 866,-458.5 866,-488.5"/>
<text text-anchor="start" x="772" y="-476.5" font-family="Helvetica,sans-Serif" font-size="10.00">P4::IR::Vector&lt; IR</text>
<text text-anchor="middle" x="815" y="-465.5" font-family="Helvetica,sans-Serif" font-size="10.00">::DpdkTable &gt;</text>
</a>
</g>
</g>
<!-- Node10&#45;&gt;Node28 -->
<g id="edge27_Node000010_Node000028" class="edge">
<title>Node10&#45;&gt;Node28</title>
<g id="a_edge27_Node000010_Node000028"><a xlink:title=" ">
<path fill="none" stroke="#63b8ff" d="M678.76,-509.27C704.7,-502.4 737.1,-493.84 763.68,-486.81"/>
<polygon fill="#63b8ff" stroke="#63b8ff" points="677.57,-505.96 668.79,-511.9 679.36,-512.73 677.57,-505.96"/>
</a>
</g>
</g>
<!-- Node30 -->
<g id="Node000030" class="node">
<title>Node30</title>
<g id="a_Node000030"><a xlink:href="class_p4_1_1_i_r_1_1_vector.html" target="_top" xlink:title=" ">
<polygon fill="white" stroke="#bfbfbf" points="866,-440.5 764,-440.5 764,-410.5 866,-410.5 866,-440.5"/>
<text text-anchor="start" x="772" y="-428.5" font-family="Helvetica,sans-Serif" font-size="10.00">P4::IR::Vector&lt; IR</text>
<text text-anchor="middle" x="815" y="-417.5" font-family="Helvetica,sans-Serif" font-size="10.00">::DpdkSelector &gt;</text>
</a>
</g>
</g>
<!-- Node10&#45;&gt;Node30 -->
<g id="edge29_Node000010_Node000030" class="edge">
<title>Node10&#45;&gt;Node30</title>
<g id="a_edge29_Node000010_Node000030"><a xlink:title=" ">
<path fill="none" stroke="#63b8ff" d="M654.27,-506.21C677.13,-490.6 714.47,-466.33 749,-449.5 755.49,-446.34 762.5,-443.34 769.45,-440.6"/>
<polygon fill="#63b8ff" stroke="#63b8ff" points="652.22,-503.37 645.98,-511.93 656.2,-509.13 652.22,-503.37"/>
</a>
</g>
</g>
<!-- Node32 -->
<g id="Node000032" class="node">
<title>Node32</title>
<g id="a_Node000032"><a xlink:href="class_p4_1_1_i_r_1_1_vector.html" target="_top" xlink:title=" ">
<polygon fill="white" stroke="#bfbfbf" points="866,-392.5 764,-392.5 764,-362.5 866,-362.5 866,-392.5"/>
<text text-anchor="start" x="772" y="-380.5" font-family="Helvetica,sans-Serif" font-size="10.00">P4::IR::Vector&lt; IR</text>
<text text-anchor="middle" x="815" y="-369.5" font-family="Helvetica,sans-Serif" font-size="10.00">::DpdkLearner &gt;</text>
</a>
</g>
</g>
<!-- Node10&#45;&gt;Node32 -->
<g id="edge31_Node000010_Node000032" class="edge">
<title>Node10&#45;&gt;Node32</title>
<g id="a_edge31_Node000010_Node000032"><a xlink:title=" ">
<path fill="none" stroke="#63b8ff" d="M645.69,-503.5C665.48,-477.65 705.24,-429.98 749,-401.5 754.14,-398.15 759.81,-395.19 765.6,-392.58"/>
<polygon fill="#63b8ff" stroke="#63b8ff" points="642.76,-501.58 639.55,-511.67 648.36,-505.78 642.76,-501.58"/>
</a>
</g>
</g>
<!-- Node34 -->
<g id="Node000034" class="node">
<title>Node34</title>
<g id="a_Node000034"><a xlink:href="class_p4_1_1_i_r_1_1_vector.html" target="_top" xlink:title=" ">
<polygon fill="white" stroke="#bfbfbf" points="866,-344.5 764,-344.5 764,-314.5 866,-314.5 866,-344.5"/>
<text text-anchor="start" x="772" y="-332.5" font-family="Helvetica,sans-Serif" font-size="10.00">P4::IR::Vector&lt; IR</text>
<text text-anchor="middle" x="815" y="-321.5" font-family="Helvetica,sans-Serif" font-size="10.00">::DpdkAction &gt;</text>
</a>
</g>
</g>
<!-- Node10&#45;&gt;Node34 -->
<g id="edge33_Node000010_Node000034" class="edge">
<title>Node10&#45;&gt;Node34</title>
<g id="a_edge33_Node000010_Node000034"><a xlink:title=" ">
<path fill="none" stroke="#63b8ff" d="M641.03,-502.16C657.21,-467.57 695.6,-394.87 749,-353.5 753.47,-350.04 758.49,-347.04 763.71,-344.45"/>
<polygon fill="#63b8ff" stroke="#63b8ff" points="637.69,-501.05 636.73,-511.6 644.06,-503.95 637.69,-501.05"/>
</a>
</g>
</g>
<!-- Node36 -->
<g id="Node000036" class="node">
<title>Node36</title>
<g id="a_Node000036"><a xlink:href="class_p4_1_1_i_r_1_1_vector.html" target="_top" xlink:title=" ">
<polygon fill="white" stroke="#bfbfbf" points="866,-296.5 764,-296.5 764,-266.5 866,-266.5 866,-296.5"/>
<text text-anchor="start" x="772" y="-284.5" font-family="Helvetica,sans-Serif" font-size="10.00">P4::IR::Vector&lt; IR</text>
<text text-anchor="middle" x="815" y="-273.5" font-family="Helvetica,sans-Serif" font-size="10.00">::Parameter &gt;</text>
</a>
</g>
</g>
<!-- Node10&#45;&gt;Node36 -->
<g id="edge35_Node000010_Node000036" class="edge">
<title>Node10&#45;&gt;Node36</title>
<g id="a_edge35_Node000010_Node000036"><a xlink:title=" ">
<path fill="none" stroke="#63b8ff" d="M637.87,-501.96C650.34,-460.05 685.21,-360.88 749,-305.5 753.45,-301.64 758.58,-298.37 763.96,-295.62"/>
<polygon fill="#63b8ff" stroke="#63b8ff" points="634.45,-501.17 635.05,-511.75 641.18,-503.1 634.45,-501.17"/>
</a>
</g>
</g>
<!-- Node38 -->
<g id="Node000038" class="node">
<title>Node38</title>
<g id="a_Node000038"><a xlink:href="class_p4_1_1_i_r_1_1_vector.html" target="_top" xlink:title=" ">
<polygon fill="white" stroke="#bfbfbf" points="873,-248.5 757,-248.5 757,-218.5 873,-218.5 873,-248.5"/>
<text text-anchor="start" x="765" y="-236.5" font-family="Helvetica,sans-Serif" font-size="10.00">P4::IR::Vector&lt; IR</text>
<text text-anchor="middle" x="815" y="-225.5" font-family="Helvetica,sans-Serif" font-size="10.00">::DpdkDeclaration &gt;</text>
</a>
</g>
</g>
<!-- Node10&#45;&gt;Node38 -->
<g id="edge37_Node000010_Node000038" class="edge">
<title>Node10&#45;&gt;Node38</title>
<g id="a_edge37_Node000010_Node000038"><a xlink:title=" ">
<path fill="none" stroke="#63b8ff" d="M635.79,-501.68C644.87,-453.17 674.65,-327.38 749,-257.5 752.68,-254.04 756.9,-251.07 761.39,-248.52"/>
<polygon fill="#63b8ff" stroke="#63b8ff" points="632.3,-501.33 634,-511.78 639.19,-502.55 632.3,-501.33"/>
</a>
</g>
</g>
<!-- Node40 -->
<g id="Node000040" class="node">
<title>Node40</title>
<g id="a_Node000040"><a xlink:href="class_p4_1_1_i_r_1_1_vector.html" target="_top" xlink:title=" ">
<polygon fill="white" stroke="#bfbfbf" points="866,-200.5 764,-200.5 764,-170.5 866,-170.5 866,-200.5"/>
<text text-anchor="start" x="772" y="-188.5" font-family="Helvetica,sans-Serif" font-size="10.00">P4::IR::Vector&lt; IR</text>
<text text-anchor="middle" x="815" y="-177.5" font-family="Helvetica,sans-Serif" font-size="10.00">::ParserState &gt;</text>
</a>
</g>
</g>
<!-- Node10&#45;&gt;Node40 -->
<g id="edge39_Node000010_Node000040" class="edge">
<title>Node10&#45;&gt;Node40</title>
<g id="a_edge39_Node000010_Node000040"><a xlink:title=" ">
<path fill="none" stroke="#63b8ff" d="M634.25,-501.81C640.1,-447.58 663.73,-294.46 749,-209.5 753.26,-205.25 758.34,-201.75 763.75,-198.86"/>
<polygon fill="#63b8ff" stroke="#63b8ff" points="630.76,-501.52 633.26,-511.82 637.73,-502.21 630.76,-501.52"/>
</a>
</g>
</g>
<!-- Node42 -->
<g id="Node000042" class="node">
<title>Node42</title>
<g id="a_Node000042"><a xlink:href="class_p4_1_1_i_r_1_1_vector.html" target="_top" xlink:title=" ">
<polygon fill="white" stroke="#bfbfbf" points="866,-152.5 764,-152.5 764,-122.5 866,-122.5 866,-152.5"/>
<text text-anchor="start" x="772" y="-140.5" font-family="Helvetica,sans-Serif" font-size="10.00">P4::IR::Vector&lt; IR</text>
<text text-anchor="middle" x="815" y="-129.5" font-family="Helvetica,sans-Serif" font-size="10.00">::SelectCase &gt;</text>
</a>
</g>
</g>
<!-- Node10&#45;&gt;Node42 -->
<g id="edge41_Node000010_Node000042" class="edge">
<title>Node10&#45;&gt;Node42</title>
<g id="a_edge41_Node000010_Node000042"><a xlink:title=" ">
<path fill="none" stroke="#63b8ff" d="M633.12,-501.65C636.04,-441.9 652.82,-261.68 749,-161.5 753.25,-157.07 758.38,-153.46 763.89,-150.51"/>
<polygon fill="#63b8ff" stroke="#63b8ff" points="629.61,-501.8 632.7,-511.94 636.6,-502.09 629.61,-501.8"/>
</a>
</g>
</g>
<!-- Node43 -->
<g id="Node000043" class="node">
<title>Node43</title>
<g id="a_Node000043"><a xlink:href="class_p4_1_1_i_r_1_1_vector.html" target="_top" xlink:title=" ">
<polygon fill="white" stroke="#bfbfbf" points="866,-104.5 764,-104.5 764,-74.5 866,-74.5 866,-104.5"/>
<text text-anchor="start" x="772" y="-92.5" font-family="Helvetica,sans-Serif" font-size="10.00">P4::IR::Vector&lt; IR</text>
<text text-anchor="middle" x="815" y="-81.5" font-family="Helvetica,sans-Serif" font-size="10.00">::StatOrDecl &gt;</text>
</a>
</g>
</g>
<!-- Node10&#45;&gt;Node43 -->
<g id="edge42_Node000010_Node000043" class="edge">
<title>Node10&#45;&gt;Node43</title>
<g id="a_edge42_Node000010_Node000043"><a xlink:title=" ">
<path fill="none" stroke="#63b8ff" d="M632.22,-501.62C632.41,-436.81 641.75,-229.18 749,-113.5 753.17,-109 758.26,-105.34 763.74,-102.37"/>
<polygon fill="#63b8ff" stroke="#63b8ff" points="628.72,-501.72 632.27,-511.7 635.72,-501.68 628.72,-501.72"/>
</a>
</g>
</g>
<!-- Node45 -->
<g id="Node000045" class="node">
<title>Node45</title>
<g id="a_Node000045"><a xlink:href="class_p4_1_1_i_r_1_1_vector.html" target="_top" xlink:title=" ">
<polygon fill="white" stroke="#bfbfbf" points="870.5,-56 759.5,-56 759.5,-37 870.5,-37 870.5,-56"/>
<text text-anchor="middle" x="815" y="-44" font-family="Helvetica,sans-Serif" font-size="10.00">P4::IR::Vector&lt; N &gt;</text>
</a>
</g>
</g>
<!-- Node10&#45;&gt;Node45 -->
<g id="edge44_Node000010_Node000045" class="edge">
<title>Node10&#45;&gt;Node45</title>
<g id="a_edge44_Node000010_Node000045"><a xlink:title=" ">
<path fill="none" stroke="#63b8ff" d="M634.97,-501.52C645.15,-422.16 686.36,-130.32 749,-65.5 752.76,-61.61 757.26,-58.51 762.13,-56.03"/>
<polygon fill="#63b8ff" stroke="#63b8ff" points="631.47,-501.28 633.69,-511.64 638.42,-502.16 631.47,-501.28"/>
</a>
</g>
</g>
<!-- Node46 -->
<g id="Node000046" class="node">
<title>Node46</title>
<g id="a_Node000046"><a xlink:href="class_p4_1_1_i_r_1_1_vector.html" target="_top" xlink:title=" ">
<polygon fill="white" stroke="#bfbfbf" points="870,-19 760,-19 760,0 870,0 870,-19"/>
<text text-anchor="middle" x="815" y="-7" font-family="Helvetica,sans-Serif" font-size="10.00">P4::IR::Vector&lt; T &gt;</text>
</a>
</g>
</g>
<!-- Node10&#45;&gt;Node46 -->
<g id="edge45_Node000010_Node000046" class="edge">
<title>Node10&#45;&gt;Node46</title>
<g id="a_edge45_Node000010_Node000046"><a xlink:title=" ">
<path fill="none" stroke="#63b8ff" d="M634.52,-501.47C643.36,-417.88 681.17,-98 749,-27.5 752.25,-24.12 756.07,-21.36 760.2,-19.11"/>
<polygon fill="#63b8ff" stroke="#63b8ff" points="631.02,-501.33 633.47,-511.64 637.98,-502.06 631.02,-501.33"/>
</a>
</g>
</g>
<!-- Node15 -->
<g id="Node000015" class="node">
<title>Node15</title>
<g id="a_Node000015"><a xlink:href="class_p4_1_1_i_r_1_1_indexed_vector.html" target="_top" xlink:title=" ">
<polygon fill="white" stroke="#666666" points="1065,-920.5 922,-920.5 922,-890.5 1065,-890.5 1065,-920.5"/>
<text text-anchor="start" x="930" y="-908.5" font-family="Helvetica,sans-Serif" font-size="10.00">P4::IR::IndexedVector</text>
<text text-anchor="middle" x="993.5" y="-897.5" font-family="Helvetica,sans-Serif" font-size="10.00">&lt; IR::NamedExpression &gt;</text>
</a>
</g>
</g>
<!-- Node14&#45;&gt;Node15 -->
<g id="edge14_Node000014_Node000015" class="edge">
<title>Node14&#45;&gt;Node15</title>
<g id="a_edge14_Node000014_Node000015"><a xlink:title=" ">
<path fill="none" stroke="#63b8ff" d="M886.38,-905.5C898.07,-905.5 910.19,-905.5 921.88,-905.5"/>
<polygon fill="#63b8ff" stroke="#63b8ff" points="886.25,-902 876.25,-905.5 886.25,-909 886.25,-902"/>
</a>
</g>
</g>
<!-- Node18 -->
<g id="Node000018" class="node">
<title>Node18</title>
<g id="a_Node000018"><a xlink:href="class_p4_1_1_i_r_1_1_indexed_vector.html" target="_top" xlink:title=" ">
<polygon fill="white" stroke="#666666" points="1053,-824.5 934,-824.5 934,-794.5 1053,-794.5 1053,-824.5"/>
<text text-anchor="start" x="942" y="-812.5" font-family="Helvetica,sans-Serif" font-size="10.00">P4::IR::IndexedVector</text>
<text text-anchor="middle" x="993.5" y="-801.5" font-family="Helvetica,sans-Serif" font-size="10.00">&lt; P4::IR::Node &gt;</text>
</a>
</g>
</g>
<!-- Node17&#45;&gt;Node18 -->
<g id="edge17_Node000017_Node000018" class="edge">
<title>Node17&#45;&gt;Node18</title>
<g id="a_edge17_Node000017_Node000018"><a xlink:title=" ">
<path fill="none" stroke="#63b8ff" d="M877.06,-809.5C895.44,-809.5 915.57,-809.5 933.79,-809.5"/>
<polygon fill="#63b8ff" stroke="#63b8ff" points="877.05,-806 867.05,-809.5 877.05,-813 877.05,-806"/>
</a>
</g>
</g>
<!-- Node20 -->
<g id="Node000020" class="node">
<title>Node20</title>
<g id="a_Node000020"><a xlink:href="class_p4_1_1_i_r_1_1_indexed_vector.html" target="_top" xlink:title=" ">
<polygon fill="white" stroke="#666666" points="1053,-776.5 934,-776.5 934,-746.5 1053,-746.5 1053,-776.5"/>
<text text-anchor="start" x="942" y="-764.5" font-family="Helvetica,sans-Serif" font-size="10.00">P4::IR::IndexedVector</text>
<text text-anchor="middle" x="993.5" y="-753.5" font-family="Helvetica,sans-Serif" font-size="10.00">&lt; IR::StructField &gt;</text>
</a>
</g>
</g>
<!-- Node19&#45;&gt;Node20 -->
<g id="edge19_Node000019_Node000020" class="edge">
<title>Node19&#45;&gt;Node20</title>
<g id="a_edge19_Node000019_Node000020"><a xlink:title=" ">
<path fill="none" stroke="#63b8ff" d="M876.23,-761.5C894.85,-761.5 915.33,-761.5 933.84,-761.5"/>
<polygon fill="#63b8ff" stroke="#63b8ff" points="876.11,-758 866.11,-761.5 876.11,-765 876.11,-758"/>
</a>
</g>
</g>
<!-- Node25 -->
<g id="Node000025" class="node">
<title>Node25</title>
<g id="a_Node000025"><a xlink:href="class_p4_1_1_i_r_1_1_indexed_vector.html" target="_top" xlink:title=" ">
<polygon fill="white" stroke="#666666" points="1053,-584.5 934,-584.5 934,-554.5 1053,-554.5 1053,-584.5"/>
<text text-anchor="start" x="942" y="-572.5" font-family="Helvetica,sans-Serif" font-size="10.00">P4::IR::IndexedVector</text>
<text text-anchor="middle" x="993.5" y="-561.5" font-family="Helvetica,sans-Serif" font-size="10.00">&lt; IR::Declaration &gt;</text>
</a>
</g>
</g>
<!-- Node24&#45;&gt;Node25 -->
<g id="edge24_Node000024_Node000025" class="edge">
<title>Node24&#45;&gt;Node25</title>
<g id="a_edge24_Node000024_Node000025"><a xlink:title=" ">
<path fill="none" stroke="#63b8ff" d="M876.23,-569.5C894.85,-569.5 915.33,-569.5 933.84,-569.5"/>
<polygon fill="#63b8ff" stroke="#63b8ff" points="876.11,-566 866.11,-569.5 876.11,-573 876.11,-566"/>
</a>
</g>
</g>
<!-- Node27 -->
<g id="Node000027" class="node">
<title>Node27</title>
<g id="a_Node000027"><a xlink:href="class_p4_1_1_i_r_1_1_indexed_vector.html" target="_top" xlink:title=" ">
<polygon fill="white" stroke="#666666" points="1070,-536.5 917,-536.5 917,-506.5 1070,-506.5 1070,-536.5"/>
<text text-anchor="start" x="925" y="-524.5" font-family="Helvetica,sans-Serif" font-size="10.00">P4::IR::IndexedVector</text>
<text text-anchor="middle" x="993.5" y="-513.5" font-family="Helvetica,sans-Serif" font-size="10.00">&lt; IR::DpdkAsmStatement &gt;</text>
</a>
</g>
</g>
<!-- Node26&#45;&gt;Node27 -->
<g id="edge26_Node000026_Node000027" class="edge">
<title>Node26&#45;&gt;Node27</title>
<g id="a_edge26_Node000026_Node000027"><a xlink:title=" ">
<path fill="none" stroke="#63b8ff" d="M891.39,-521.5C899.81,-521.5 908.39,-521.5 916.81,-521.5"/>
<polygon fill="#63b8ff" stroke="#63b8ff" points="891.22,-518 881.22,-521.5 891.22,-525 891.22,-518"/>
</a>
</g>
</g>
<!-- Node29 -->
<g id="Node000029" class="node">
<title>Node29</title>
<g id="a_Node000029"><a xlink:href="class_p4_1_1_i_r_1_1_indexed_vector.html" target="_top" xlink:title=" ">
<polygon fill="white" stroke="#666666" points="1053,-488.5 934,-488.5 934,-458.5 1053,-458.5 1053,-488.5"/>
<text text-anchor="start" x="942" y="-476.5" font-family="Helvetica,sans-Serif" font-size="10.00">P4::IR::IndexedVector</text>
<text text-anchor="middle" x="993.5" y="-465.5" font-family="Helvetica,sans-Serif" font-size="10.00">&lt; IR::DpdkTable &gt;</text>
</a>
</g>
</g>
<!-- Node28&#45;&gt;Node29 -->
<g id="edge28_Node000028_Node000029" class="edge">
<title>Node28&#45;&gt;Node29</title>
<g id="a_edge28_Node000028_Node000029"><a xlink:title=" ">
<path fill="none" stroke="#63b8ff" d="M876.23,-473.5C894.85,-473.5 915.33,-473.5 933.84,-473.5"/>
<polygon fill="#63b8ff" stroke="#63b8ff" points="876.11,-470 866.11,-473.5 876.11,-477 876.11,-470"/>
</a>
</g>
</g>
<!-- Node31 -->
<g id="Node000031" class="node">
<title>Node31</title>
<g id="a_Node000031"><a xlink:href="class_p4_1_1_i_r_1_1_indexed_vector.html" target="_top" xlink:title=" ">
<polygon fill="white" stroke="#666666" points="1053.5,-440.5 933.5,-440.5 933.5,-410.5 1053.5,-410.5 1053.5,-440.5"/>
<text text-anchor="start" x="941.5" y="-428.5" font-family="Helvetica,sans-Serif" font-size="10.00">P4::IR::IndexedVector</text>
<text text-anchor="middle" x="993.5" y="-417.5" font-family="Helvetica,sans-Serif" font-size="10.00">&lt; IR::DpdkSelector &gt;</text>
</a>
</g>
</g>
<!-- Node30&#45;&gt;Node31 -->
<g id="edge30_Node000030_Node000031" class="edge">
<title>Node30&#45;&gt;Node31</title>
<g id="a_edge30_Node000030_Node000031"><a xlink:title=" ">
<path fill="none" stroke="#63b8ff" d="M876.13,-425.5C894.57,-425.5 914.83,-425.5 933.2,-425.5"/>
<polygon fill="#63b8ff" stroke="#63b8ff" points="876.11,-422 866.11,-425.5 876.11,-429 876.11,-422"/>
</a>
</g>
</g>
<!-- Node33 -->
<g id="Node000033" class="node">
<title>Node33</title>
<g id="a_Node000033"><a xlink:href="class_p4_1_1_i_r_1_1_indexed_vector.html" target="_top" xlink:title=" ">
<polygon fill="white" stroke="#666666" points="1053,-392.5 934,-392.5 934,-362.5 1053,-362.5 1053,-392.5"/>
<text text-anchor="start" x="942" y="-380.5" font-family="Helvetica,sans-Serif" font-size="10.00">P4::IR::IndexedVector</text>
<text text-anchor="middle" x="993.5" y="-369.5" font-family="Helvetica,sans-Serif" font-size="10.00">&lt; IR::DpdkLearner &gt;</text>
</a>
</g>
</g>
<!-- Node32&#45;&gt;Node33 -->
<g id="edge32_Node000032_Node000033" class="edge">
<title>Node32&#45;&gt;Node33</title>
<g id="a_edge32_Node000032_Node000033"><a xlink:title=" ">
<path fill="none" stroke="#63b8ff" d="M876.23,-377.5C894.85,-377.5 915.33,-377.5 933.84,-377.5"/>
<polygon fill="#63b8ff" stroke="#63b8ff" points="876.11,-374 866.11,-377.5 876.11,-381 876.11,-374"/>
</a>
</g>
</g>
<!-- Node35 -->
<g id="Node000035" class="node">
<title>Node35</title>
<g id="a_Node000035"><a xlink:href="class_p4_1_1_i_r_1_1_indexed_vector.html" target="_top" xlink:title=" ">
<polygon fill="white" stroke="#666666" points="1053,-344.5 934,-344.5 934,-314.5 1053,-314.5 1053,-344.5"/>
<text text-anchor="start" x="942" y="-332.5" font-family="Helvetica,sans-Serif" font-size="10.00">P4::IR::IndexedVector</text>
<text text-anchor="middle" x="993.5" y="-321.5" font-family="Helvetica,sans-Serif" font-size="10.00">&lt; IR::DpdkAction &gt;</text>
</a>
</g>
</g>
<!-- Node34&#45;&gt;Node35 -->
<g id="edge34_Node000034_Node000035" class="edge">
<title>Node34&#45;&gt;Node35</title>
<g id="a_edge34_Node000034_Node000035"><a xlink:title=" ">
<path fill="none" stroke="#63b8ff" d="M876.23,-329.5C894.85,-329.5 915.33,-329.5 933.84,-329.5"/>
<polygon fill="#63b8ff" stroke="#63b8ff" points="876.11,-326 866.11,-329.5 876.11,-333 876.11,-326"/>
</a>
</g>
</g>
<!-- Node37 -->
<g id="Node000037" class="node">
<title>Node37</title>
<g id="a_Node000037"><a xlink:href="class_p4_1_1_i_r_1_1_indexed_vector.html" target="_top" xlink:title=" ">
<polygon fill="white" stroke="#666666" points="1053,-296.5 934,-296.5 934,-266.5 1053,-266.5 1053,-296.5"/>
<text text-anchor="start" x="942" y="-284.5" font-family="Helvetica,sans-Serif" font-size="10.00">P4::IR::IndexedVector</text>
<text text-anchor="middle" x="993.5" y="-273.5" font-family="Helvetica,sans-Serif" font-size="10.00">&lt; IR::Parameter &gt;</text>
</a>
</g>
</g>
<!-- Node36&#45;&gt;Node37 -->
<g id="edge36_Node000036_Node000037" class="edge">
<title>Node36&#45;&gt;Node37</title>
<g id="a_edge36_Node000036_Node000037"><a xlink:title=" ">
<path fill="none" stroke="#63b8ff" d="M876.23,-281.5C894.85,-281.5 915.33,-281.5 933.84,-281.5"/>
<polygon fill="#63b8ff" stroke="#63b8ff" points="876.11,-278 866.11,-281.5 876.11,-285 876.11,-278"/>
</a>
</g>
</g>
<!-- Node39 -->
<g id="Node000039" class="node">
<title>Node39</title>
<g id="a_Node000039"><a xlink:href="class_p4_1_1_i_r_1_1_indexed_vector.html" target="_top" xlink:title=" ">
<polygon fill="white" stroke="#666666" points="1062,-248.5 925,-248.5 925,-218.5 1062,-218.5 1062,-248.5"/>
<text text-anchor="start" x="933" y="-236.5" font-family="Helvetica,sans-Serif" font-size="10.00">P4::IR::IndexedVector</text>
<text text-anchor="middle" x="993.5" y="-225.5" font-family="Helvetica,sans-Serif" font-size="10.00">&lt; IR::DpdkDeclaration &gt;</text>
</a>
</g>
</g>
<!-- Node38&#45;&gt;Node39 -->
<g id="edge38_Node000038_Node000039" class="edge">
<title>Node38&#45;&gt;Node39</title>
<g id="a_edge38_Node000038_Node000039"><a xlink:title=" ">
<path fill="none" stroke="#63b8ff" d="M883.48,-233.5C897,-233.5 911.2,-233.5 924.72,-233.5"/>
<polygon fill="#63b8ff" stroke="#63b8ff" points="883.3,-230 873.3,-233.5 883.3,-237 883.3,-230"/>
</a>
</g>
</g>
<!-- Node41 -->
<g id="Node000041" class="node">
<title>Node41</title>
<g id="a_Node000041"><a xlink:href="class_p4_1_1_i_r_1_1_indexed_vector.html" target="_top" xlink:title=" ">
<polygon fill="white" stroke="#666666" points="1053,-200.5 934,-200.5 934,-170.5 1053,-170.5 1053,-200.5"/>
<text text-anchor="start" x="942" y="-188.5" font-family="Helvetica,sans-Serif" font-size="10.00">P4::IR::IndexedVector</text>
<text text-anchor="middle" x="993.5" y="-177.5" font-family="Helvetica,sans-Serif" font-size="10.00">&lt; IR::ParserState &gt;</text>
</a>
</g>
</g>
<!-- Node40&#45;&gt;Node41 -->
<g id="edge40_Node000040_Node000041" class="edge">
<title>Node40&#45;&gt;Node41</title>
<g id="a_edge40_Node000040_Node000041"><a xlink:title=" ">
<path fill="none" stroke="#63b8ff" d="M876.23,-185.5C894.85,-185.5 915.33,-185.5 933.84,-185.5"/>
<polygon fill="#63b8ff" stroke="#63b8ff" points="876.11,-182 866.11,-185.5 876.11,-189 876.11,-182"/>
</a>
</g>
</g>
<!-- Node44 -->
<g id="Node000044" class="node">
<title>Node44</title>
<g id="a_Node000044"><a xlink:href="class_p4_1_1_i_r_1_1_indexed_vector.html" target="_top" xlink:title=" ">
<polygon fill="white" stroke="#666666" points="1053,-104.5 934,-104.5 934,-74.5 1053,-74.5 1053,-104.5"/>
<text text-anchor="start" x="942" y="-92.5" font-family="Helvetica,sans-Serif" font-size="10.00">P4::IR::IndexedVector</text>
<text text-anchor="middle" x="993.5" y="-81.5" font-family="Helvetica,sans-Serif" font-size="10.00">&lt; IR::StatOrDecl &gt;</text>
</a>
</g>
</g>
<!-- Node43&#45;&gt;Node44 -->
<g id="edge43_Node000043_Node000044" class="edge">
<title>Node43&#45;&gt;Node44</title>
<g id="a_edge43_Node000043_Node000044"><a xlink:title=" ">
<path fill="none" stroke="#63b8ff" d="M876.23,-89.5C894.85,-89.5 915.33,-89.5 933.84,-89.5"/>
<polygon fill="#63b8ff" stroke="#63b8ff" points="876.11,-86 866.11,-89.5 876.11,-93 876.11,-86"/>
</a>
</g>
</g>
<!-- Node47 -->
<g id="Node000047" class="node">
<title>Node47</title>
<g id="a_Node000047"><a xlink:href="class_p4_1_1_i_r_1_1_indexed_vector.html" target="_top" xlink:title=" ">
<polygon fill="white" stroke="#666666" points="1067.5,-19 919.5,-19 919.5,0 1067.5,0 1067.5,-19"/>
<text text-anchor="middle" x="993.5" y="-7" font-family="Helvetica,sans-Serif" font-size="10.00">P4::IR::IndexedVector&lt; T &gt;</text>
</a>
</g>
</g>
<!-- Node46&#45;&gt;Node47 -->
<g id="edge46_Node000046_Node000047" class="edge">
<title>Node46&#45;&gt;Node47</title>
<g id="a_edge46_Node000046_Node000047"><a xlink:title=" ">
<path fill="none" stroke="#63b8ff" d="M880.4,-9.5C893.09,-9.5 906.49,-9.5 919.45,-9.5"/>
<polygon fill="#63b8ff" stroke="#63b8ff" points="880.4,-6 870.4,-9.5 880.4,-13 880.4,-6"/>
</a>
</g>
</g>
</g>
</svg>
