<?xml version="1.0" encoding="UTF-8" standalone="no"?>
<!DOCTYPE svg PUBLIC "-//W3C//DTD SVG 1.1//EN"
 "http://www.w3.org/Graphics/SVG/1.1/DTD/svg11.dtd">
<!-- Generated by graphviz version 2.43.0 (0)
 -->
<!-- Title: P4::IR::Node Pages: 1 -->
<svg width="1044pt" height="1062pt"
 viewBox="0.00 0.00 1044.00 1062.00" xmlns="http://www.w3.org/2000/svg" xmlns:xlink="http://www.w3.org/1999/xlink">
<g id="graph0" class="graph" transform="scale(1 1) rotate(0) translate(4 1058)">
<title>P4::IR::Node</title>
<!-- Node1 -->
<g id="Node000001" class="node">
<title>Node1</title>
<g id="a_Node000001"><a xlink:title=" ">
<polygon fill="#999999" stroke="#666666" points="480,-574 404,-574 404,-555 480,-555 480,-574"/>
<text text-anchor="middle" x="442" y="-562" font-family="Helvetica,sans-Serif" font-size="10.00">P4::IR::Node</text>
</a>
</g>
</g>
<!-- Node7 -->
<g id="Node000007" class="node">
<title>Node7</title>
<g id="a_Node000007"><a xlink:href="class_p4_1_1_i_r_1_1_name_map.html" target="_top" xlink:title=" ">
<polygon fill="white" stroke="#bfbfbf" points="660,-627.5 535,-627.5 535,-597.5 660,-597.5 660,-627.5"/>
<text text-anchor="start" x="543" y="-615.5" font-family="Helvetica,sans-Serif" font-size="10.00">P4::IR::NameMap&lt; T,</text>
<text text-anchor="middle" x="597.5" y="-604.5" font-family="Helvetica,sans-Serif" font-size="10.00"> MAP, COMP, ALLOC &gt;</text>
</a>
</g>
</g>
<!-- Node1&#45;&gt;Node7 -->
<g id="edge6_Node000001_Node000007" class="edge">
<title>Node1&#45;&gt;Node7</title>
<g id="a_edge6_Node000001_Node000007"><a xlink:title=" ">
<path fill="none" stroke="#63b8ff" d="M480.93,-577.19C492.2,-580.9 504.58,-584.92 516,-588.5 525.46,-591.47 535.58,-594.55 545.33,-597.48"/>
<polygon fill="#63b8ff" stroke="#63b8ff" points="481.96,-573.85 471.37,-574.03 479.76,-580.49 481.96,-573.85"/>
</a>
</g>
</g>
<!-- Node8 -->
<g id="Node000008" class="node">
<title>Node8</title>
<g id="a_Node000008"><a xlink:href="class_p4_1_1_i_r_1_1_node_map.html" target="_top" xlink:title=" ">
<polygon fill="white" stroke="#bfbfbf" points="679,-579.5 516,-579.5 516,-549.5 679,-549.5 679,-579.5"/>
<text text-anchor="start" x="524" y="-567.5" font-family="Helvetica,sans-Serif" font-size="10.00">P4::IR::NodeMap&lt; KEY,</text>
<text text-anchor="middle" x="597.5" y="-556.5" font-family="Helvetica,sans-Serif" font-size="10.00"> VALUE, MAP, COMP, ALLOC &gt;</text>
</a>
</g>
</g>
<!-- Node1&#45;&gt;Node8 -->
<g id="edge7_Node000001_Node000008" class="edge">
<title>Node1&#45;&gt;Node8</title>
<g id="a_edge7_Node000001_Node000008"><a xlink:title=" ">
<path fill="none" stroke="#63b8ff" d="M490.23,-564.5C498.44,-564.5 507.17,-564.5 515.97,-564.5"/>
<polygon fill="#63b8ff" stroke="#63b8ff" points="490.16,-561 480.16,-564.5 490.16,-568 490.16,-561"/>
</a>
</g>
</g>
<!-- Node9 -->
<g id="Node000009" class="node">
<title>Node9</title>
<g id="a_Node000009"><a xlink:href="class_p4_1_1_i_r_1_1_vector_base.html" target="_top" xlink:title=" ">
<polygon fill="white" stroke="#bfbfbf" points="650,-531 545,-531 545,-512 650,-512 650,-531"/>
<text text-anchor="middle" x="597.5" y="-519" font-family="Helvetica,sans-Serif" font-size="10.00">P4::IR::VectorBase</text>
</a>
</g>
</g>
<!-- Node1&#45;&gt;Node9 -->
<g id="edge8_Node000001_Node000009" class="edge">
<title>Node1&#45;&gt;Node9</title>
<g id="a_edge8_Node000001_Node000009"><a xlink:title=" ">
<path fill="none" stroke="#63b8ff" d="M479.93,-551.68C491.43,-547.87 504.18,-543.83 516,-540.5 527.89,-537.15 540.87,-533.91 552.88,-531.08"/>
<polygon fill="#63b8ff" stroke="#63b8ff" points="478.58,-548.44 470.21,-554.94 480.81,-555.07 478.58,-548.44"/>
</a>
</g>
</g>
<!-- Node2 -->
<g id="Node000002" class="node">
<title>Node2</title>
<g id="a_Node000002"><a xlink:href="class_p4_1_1_i_r_1_1_i_node.html" target="_top" xlink:title=" ">
<polygon fill="white" stroke="#bfbfbf" points="368,-574 289,-574 289,-555 368,-555 368,-574"/>
<text text-anchor="middle" x="328.5" y="-562" font-family="Helvetica,sans-Serif" font-size="10.00">P4::IR::INode</text>
</a>
</g>
</g>
<!-- Node2&#45;&gt;Node1 -->
<g id="edge1_Node000001_Node000002" class="edge">
<title>Node2&#45;&gt;Node1</title>
<g id="a_edge1_Node000001_Node000002"><a xlink:title=" ">
<path fill="none" stroke="#63b8ff" d="M378.44,-564.5C386.98,-564.5 395.73,-564.5 403.89,-564.5"/>
<polygon fill="#63b8ff" stroke="#63b8ff" points="378.18,-561 368.18,-564.5 378.18,-568 378.18,-561"/>
</a>
</g>
</g>
<!-- Node3 -->
<g id="Node000003" class="node">
<title>Node3</title>
<g id="a_Node000003"><a xlink:href="class_p4_1_1_util_1_1_i_has_source_info.html" target="_top" xlink:title=" ">
<polygon fill="white" stroke="#bfbfbf" points="253,-611 122,-611 122,-592 253,-592 253,-611"/>
<text text-anchor="middle" x="187.5" y="-599" font-family="Helvetica,sans-Serif" font-size="10.00">P4::Util::IHasSourceInfo</text>
</a>
</g>
</g>
<!-- Node3&#45;&gt;Node2 -->
<g id="edge2_Node000002_Node000003" class="edge">
<title>Node3&#45;&gt;Node2</title>
<g id="a_edge2_Node000002_Node000003"><a xlink:title=" ">
<path fill="none" stroke="#63b8ff" d="M234.03,-589.38C252.63,-584.43 273.84,-578.78 291.34,-574.12"/>
<polygon fill="#63b8ff" stroke="#63b8ff" points="233.06,-586.02 224.3,-591.97 234.86,-592.78 233.06,-586.02"/>
</a>
</g>
</g>
<!-- Node4 -->
<g id="Node000004" class="node">
<title>Node4</title>
<g id="a_Node000004"><a xlink:href="class_p4_1_1_i_has_db_print.html" target="_top" xlink:title=" ">
<polygon fill="white" stroke="#bfbfbf" points="233.5,-574 141.5,-574 141.5,-555 233.5,-555 233.5,-574"/>
<text text-anchor="middle" x="187.5" y="-562" font-family="Helvetica,sans-Serif" font-size="10.00">P4::IHasDbPrint</text>
</a>
</g>
</g>
<!-- Node4&#45;&gt;Node2 -->
<g id="edge3_Node000002_Node000004" class="edge">
<title>Node4&#45;&gt;Node2</title>
<g id="a_edge3_Node000002_Node000004"><a xlink:title=" ">
<path fill="none" stroke="#63b8ff" d="M243.84,-564.5C258.85,-564.5 274.78,-564.5 288.67,-564.5"/>
<polygon fill="#63b8ff" stroke="#63b8ff" points="243.63,-561 233.63,-564.5 243.63,-568 243.63,-561"/>
</a>
</g>
</g>
<!-- Node5 -->
<g id="Node000005" class="node">
<title>Node5</title>
<g id="a_Node000005"><a xlink:href="class_p4_1_1_i_castable.html" target="_top" xlink:title=" ">
<polygon fill="white" stroke="#666666" points="227.5,-537 147.5,-537 147.5,-518 227.5,-518 227.5,-537"/>
<text text-anchor="middle" x="187.5" y="-525" font-family="Helvetica,sans-Serif" font-size="10.00">P4::ICastable</text>
</a>
</g>
</g>
<!-- Node5&#45;&gt;Node2 -->
<g id="edge4_Node000002_Node000005" class="edge">
<title>Node5&#45;&gt;Node2</title>
<g id="a_edge4_Node000002_Node000005"><a xlink:title=" ">
<path fill="none" stroke="#63b8ff" d="M234.03,-539.62C252.63,-544.57 273.84,-550.22 291.34,-554.88"/>
<polygon fill="#63b8ff" stroke="#63b8ff" points="234.86,-536.22 224.3,-537.03 233.06,-542.98 234.86,-536.22"/>
</a>
</g>
</g>
<!-- Node6 -->
<g id="Node000006" class="node">
<title>Node6</title>
<g id="a_Node000006"><a xlink:href="struct_p4_1_1_r_t_t_i_1_1_base.html" target="_top" xlink:title=" ">
<polygon fill="white" stroke="#bfbfbf" points="86,-537 0,-537 0,-518 86,-518 86,-537"/>
<text text-anchor="middle" x="43" y="-525" font-family="Helvetica,sans-Serif" font-size="10.00">P4::RTTI::Base</text>
</a>
</g>
</g>
<!-- Node6&#45;&gt;Node5 -->
<g id="edge5_Node000005_Node000006" class="edge">
<title>Node6&#45;&gt;Node5</title>
<g id="a_edge5_Node000005_Node000006"><a xlink:title=" ">
<path fill="none" stroke="#63b8ff" d="M96.62,-527.5C113.45,-527.5 131.77,-527.5 147.46,-527.5"/>
<polygon fill="#63b8ff" stroke="#63b8ff" points="96.37,-524 86.37,-527.5 96.37,-531 96.37,-524"/>
</a>
</g>
</g>
<!-- Node10 -->
<g id="Node000010" class="node">
<title>Node10</title>
<g id="a_Node000010"><a xlink:href="class_p4_1_1_i_r_1_1_vector.html" target="_top" xlink:title=" ">
<polygon fill="white" stroke="#bfbfbf" points="838.5,-1054 723.5,-1054 723.5,-1035 838.5,-1035 838.5,-1054"/>
<text text-anchor="middle" x="781" y="-1042" font-family="Helvetica,sans-Serif" font-size="10.00">P4::IR::iterator&lt; T &gt;</text>
</a>
</g>
</g>
<!-- Node9&#45;&gt;Node10 -->
<g id="edge9_Node000009_Node000010" class="edge">
<title>Node9&#45;&gt;Node10</title>
<g id="a_edge9_Node000009_Node000010"><a xlink:title=" ">
<path fill="none" stroke="#63b8ff" d="M659.75,-527.05C667.1,-530.1 673.82,-534.43 679,-540.5 749.16,-622.7 647.02,-941.48 715,-1025.5 718.11,-1029.34 721.94,-1032.43 726.19,-1034.91"/>
<polygon fill="#63b8ff" stroke="#63b8ff" points="660.77,-523.69 650.17,-523.81 658.53,-530.33 660.77,-523.69"/>
</a>
</g>
</g>
<!-- Node11 -->
<g id="Node000011" class="node">
<title>Node11</title>
<g id="a_Node000011"><a xlink:href="class_p4_1_1_i_r_1_1_vector.html" target="_top" xlink:title=" ">
<polygon fill="white" stroke="#bfbfbf" points="832,-1016.5 730,-1016.5 730,-986.5 832,-986.5 832,-1016.5"/>
<text text-anchor="start" x="738" y="-1004.5" font-family="Helvetica,sans-Serif" font-size="10.00">P4::IR::Vector&lt; IR</text>
<text text-anchor="middle" x="781" y="-993.5" font-family="Helvetica,sans-Serif" font-size="10.00">::Expression &gt;</text>
</a>
</g>
</g>
<!-- Node9&#45;&gt;Node11 -->
<g id="edge10_Node000009_Node000011" class="edge">
<title>Node9&#45;&gt;Node11</title>
<g id="a_edge10_Node000009_Node000011"><a xlink:title=" ">
<path fill="none" stroke="#63b8ff" d="M659.7,-527.08C667.06,-530.14 673.8,-534.45 679,-540.5 742.56,-614.36 656.06,-899.91 715,-977.5 718.93,-982.67 724.09,-986.73 729.8,-989.91"/>
<polygon fill="#63b8ff" stroke="#63b8ff" points="660.72,-523.73 650.12,-523.86 658.48,-530.37 660.72,-523.73"/>
</a>
</g>
</g>
<!-- Node12 -->
<g id="Node000012" class="node">
<title>Node12</title>
<g id="a_Node000012"><a xlink:href="class_p4_1_1_i_r_1_1_vector.html" target="_top" xlink:title=" ">
<polygon fill="white" stroke="#bfbfbf" points="832,-968.5 730,-968.5 730,-938.5 832,-938.5 832,-968.5"/>
<text text-anchor="start" x="738" y="-956.5" font-family="Helvetica,sans-Serif" font-size="10.00">P4::IR::Vector&lt; IR</text>
<text text-anchor="middle" x="781" y="-945.5" font-family="Helvetica,sans-Serif" font-size="10.00">::BFN::Pipe &gt;</text>
</a>
</g>
</g>
<!-- Node9&#45;&gt;Node12 -->
<g id="edge11_Node000009_Node000012" class="edge">
<title>Node9&#45;&gt;Node12</title>
<g id="a_edge11_Node000009_Node000012"><a xlink:title=" ">
<path fill="none" stroke="#63b8ff" d="M659.65,-527.13C667.01,-530.18 673.77,-534.48 679,-540.5 735.96,-606.02 662.14,-860.64 715,-929.5 718.96,-934.65 724.13,-938.7 729.84,-941.88"/>
<polygon fill="#63b8ff" stroke="#63b8ff" points="660.65,-523.78 650.06,-523.91 658.42,-530.41 660.65,-523.78"/>
</a>
</g>
</g>
<!-- Node13 -->
<g id="Node000013" class="node">
<title>Node13</title>
<g id="a_Node000013"><a xlink:href="class_p4_1_1_i_r_1_1_vector.html" target="_top" xlink:title=" ">
<polygon fill="white" stroke="#bfbfbf" points="842,-920.5 720,-920.5 720,-890.5 842,-890.5 842,-920.5"/>
<text text-anchor="start" x="728" y="-908.5" font-family="Helvetica,sans-Serif" font-size="10.00">P4::IR::Vector&lt; IR</text>
<text text-anchor="middle" x="781" y="-897.5" font-family="Helvetica,sans-Serif" font-size="10.00">::NamedExpression &gt;</text>
</a>
</g>
</g>
<!-- Node9&#45;&gt;Node13 -->
<g id="edge12_Node000009_Node000013" class="edge">
<title>Node9&#45;&gt;Node13</title>
<g id="a_edge12_Node000009_Node000013"><a xlink:title=" ">
<path fill="none" stroke="#63b8ff" d="M660.34,-527.51C667.42,-530.53 673.91,-534.72 679,-540.5 779.73,-654.86 621.43,-761.21 715,-881.5 717.66,-884.92 720.86,-887.85 724.39,-890.36"/>
<polygon fill="#63b8ff" stroke="#63b8ff" points="660.99,-524.04 650.4,-524.09 658.71,-530.66 660.99,-524.04"/>
</a>
</g>
</g>
<!-- Node15 -->
<g id="Node000015" class="node">
<title>Node15</title>
<g id="a_Node000015"><a xlink:href="class_p4_1_1_i_r_1_1_vector.html" target="_top" xlink:title=" ">
<polygon fill="white" stroke="#bfbfbf" points="832,-872.5 730,-872.5 730,-842.5 832,-842.5 832,-872.5"/>
<text text-anchor="start" x="738" y="-860.5" font-family="Helvetica,sans-Serif" font-size="10.00">P4::IR::Vector&lt; IR</text>
<text text-anchor="middle" x="781" y="-849.5" font-family="Helvetica,sans-Serif" font-size="10.00">::Annotation &gt;</text>
</a>
</g>
</g>
<!-- Node9&#45;&gt;Node15 -->
<g id="edge14_Node000009_Node000015" class="edge">
<title>Node9&#45;&gt;Node15</title>
<g id="a_edge14_Node000009_Node000015"><a xlink:title=" ">
<path fill="none" stroke="#63b8ff" d="M660.25,-527.6C667.34,-530.6 673.86,-534.77 679,-540.5 766.56,-638.21 633.56,-730.63 715,-833.5 719.03,-838.59 724.26,-842.61 729.99,-845.77"/>
<polygon fill="#63b8ff" stroke="#63b8ff" points="660.89,-524.12 650.29,-524.18 658.62,-530.74 660.89,-524.12"/>
</a>
</g>
</g>
<!-- Node16 -->
<g id="Node000016" class="node">
<title>Node16</title>
<g id="a_Node000016"><a xlink:href="class_p4_1_1_i_r_1_1_vector.html" target="_top" xlink:title=" ">
<polygon fill="white" stroke="#bfbfbf" points="833,-824.5 729,-824.5 729,-794.5 833,-794.5 833,-824.5"/>
<text text-anchor="start" x="737" y="-812.5" font-family="Helvetica,sans-Serif" font-size="10.00">P4::IR::Vector&lt; P4</text>
<text text-anchor="middle" x="781" y="-801.5" font-family="Helvetica,sans-Serif" font-size="10.00">::IR::Node &gt;</text>
</a>
</g>
</g>
<!-- Node9&#45;&gt;Node16 -->
<g id="edge15_Node000009_Node000016" class="edge">
<title>Node9&#45;&gt;Node16</title>
<g id="a_edge15_Node000009_Node000016"><a xlink:title=" ">
<path fill="none" stroke="#63b8ff" d="M659.64,-527.51C666.94,-530.51 673.68,-534.7 679,-540.5 753.41,-621.59 645.67,-700.03 715,-785.5 718.79,-790.17 723.58,-793.93 728.83,-796.96"/>
<polygon fill="#63b8ff" stroke="#63b8ff" points="660.75,-524.19 650.15,-524.31 658.51,-530.82 660.75,-524.19"/>
</a>
</g>
</g>
<!-- Node18 -->
<g id="Node000018" class="node">
<title>Node18</title>
<g id="a_Node000018"><a xlink:href="class_p4_1_1_i_r_1_1_vector.html" target="_top" xlink:title=" ">
<polygon fill="white" stroke="#bfbfbf" points="832,-776.5 730,-776.5 730,-746.5 832,-746.5 832,-776.5"/>
<text text-anchor="start" x="738" y="-764.5" font-family="Helvetica,sans-Serif" font-size="10.00">P4::IR::Vector&lt; IR</text>
<text text-anchor="middle" x="781" y="-753.5" font-family="Helvetica,sans-Serif" font-size="10.00">::StructField &gt;</text>
</a>
</g>
</g>
<!-- Node9&#45;&gt;Node18 -->
<g id="edge17_Node000009_Node000018" class="edge">
<title>Node9&#45;&gt;Node18</title>
<g id="a_edge17_Node000009_Node000018"><a xlink:title=" ">
<path fill="none" stroke="#63b8ff" d="M660.21,-528C667.25,-530.95 673.76,-534.99 679,-540.5 740.31,-605.02 657.73,-669.36 715,-737.5 719.1,-742.38 724.29,-746.27 729.94,-749.37"/>
<polygon fill="#63b8ff" stroke="#63b8ff" points="660.96,-524.55 650.36,-524.62 658.69,-531.17 660.96,-524.55"/>
</a>
</g>
</g>
<!-- Node20 -->
<g id="Node000020" class="node">
<title>Node20</title>
<g id="a_Node000020"><a xlink:href="class_p4_1_1_i_r_1_1_vector.html" target="_top" xlink:title=" ">
<polygon fill="white" stroke="#bfbfbf" points="832,-728.5 730,-728.5 730,-698.5 832,-698.5 832,-728.5"/>
<text text-anchor="start" x="738" y="-716.5" font-family="Helvetica,sans-Serif" font-size="10.00">P4::IR::Vector&lt; IR</text>
<text text-anchor="middle" x="781" y="-705.5" font-family="Helvetica,sans-Serif" font-size="10.00">::MAU::Table &gt;</text>
</a>
</g>
</g>
<!-- Node9&#45;&gt;Node20 -->
<g id="edge19_Node000009_Node000020" class="edge">
<title>Node9&#45;&gt;Node20</title>
<g id="a_edge19_Node000009_Node000020"><a xlink:title=" ">
<path fill="none" stroke="#63b8ff" d="M659.92,-528.28C667.01,-531.18 673.61,-535.14 679,-540.5 727.3,-588.55 669.72,-638.6 715,-689.5 719.16,-694.17 724.31,-697.94 729.88,-700.97"/>
<polygon fill="#63b8ff" stroke="#63b8ff" points="660.63,-524.82 650.03,-524.94 658.39,-531.46 660.63,-524.82"/>
</a>
</g>
</g>
<!-- Node21 -->
<g id="Node000021" class="node">
<title>Node21</title>
<g id="a_Node000021"><a xlink:href="class_p4_1_1_i_r_1_1_vector.html" target="_top" xlink:title=" ">
<polygon fill="white" stroke="#bfbfbf" points="832,-680.5 730,-680.5 730,-650.5 832,-650.5 832,-680.5"/>
<text text-anchor="start" x="738" y="-668.5" font-family="Helvetica,sans-Serif" font-size="10.00">P4::IR::Vector&lt; IR</text>
<text text-anchor="middle" x="781" y="-657.5" font-family="Helvetica,sans-Serif" font-size="10.00">::Type &gt;</text>
</a>
</g>
</g>
<!-- Node9&#45;&gt;Node21 -->
<g id="edge20_Node000009_Node000021" class="edge">
<title>Node9&#45;&gt;Node21</title>
<g id="a_edge20_Node000009_Node000021"><a xlink:title=" ">
<path fill="none" stroke="#63b8ff" d="M659.96,-529.05C666.92,-531.84 673.48,-535.56 679,-540.5 714.51,-572.28 681.49,-607.61 715,-641.5 719.23,-645.78 724.29,-649.3 729.69,-652.2"/>
<polygon fill="#63b8ff" stroke="#63b8ff" points="660.88,-525.67 650.29,-525.79 658.65,-532.3 660.88,-525.67"/>
</a>
</g>
</g>
<!-- Node22 -->
<g id="Node000022" class="node">
<title>Node22</title>
<g id="a_Node000022"><a xlink:href="class_p4_1_1_i_r_1_1_vector.html" target="_top" xlink:title=" ">
<polygon fill="white" stroke="#bfbfbf" points="832,-632.5 730,-632.5 730,-602.5 832,-602.5 832,-632.5"/>
<text text-anchor="start" x="738" y="-620.5" font-family="Helvetica,sans-Serif" font-size="10.00">P4::IR::Vector&lt; IR</text>
<text text-anchor="middle" x="781" y="-609.5" font-family="Helvetica,sans-Serif" font-size="10.00">::Argument &gt;</text>
</a>
</g>
</g>
<!-- Node9&#45;&gt;Node22 -->
<g id="edge21_Node000009_Node000022" class="edge">
<title>Node9&#45;&gt;Node22</title>
<g id="a_edge21_Node000009_Node000022"><a xlink:title=" ">
<path fill="none" stroke="#63b8ff" d="M660.17,-530.95C666.84,-533.43 673.28,-536.56 679,-540.5 702.45,-556.65 692.57,-575.95 715,-593.5 719.45,-596.98 724.46,-600 729.67,-602.6"/>
<polygon fill="#63b8ff" stroke="#63b8ff" points="660.87,-527.5 650.28,-527.75 658.72,-534.16 660.87,-527.5"/>
</a>
</g>
</g>
<!-- Node23 -->
<g id="Node000023" class="node">
<title>Node23</title>
<g id="a_Node000023"><a xlink:href="class_p4_1_1_i_r_1_1_vector.html" target="_top" xlink:title=" ">
<polygon fill="white" stroke="#bfbfbf" points="832,-584.5 730,-584.5 730,-554.5 832,-554.5 832,-584.5"/>
<text text-anchor="start" x="738" y="-572.5" font-family="Helvetica,sans-Serif" font-size="10.00">P4::IR::Vector&lt; IR</text>
<text text-anchor="middle" x="781" y="-561.5" font-family="Helvetica,sans-Serif" font-size="10.00">::Declaration &gt;</text>
</a>
</g>
</g>
<!-- Node9&#45;&gt;Node23 -->
<g id="edge22_Node000009_Node000023" class="edge">
<title>Node9&#45;&gt;Node23</title>
<g id="a_edge22_Node000009_Node000023"><a xlink:title=" ">
<path fill="none" stroke="#63b8ff" d="M650.53,-533.4C660.02,-535.68 669.82,-538.1 679,-540.5 695.59,-544.84 713.62,-549.9 729.78,-554.57"/>
<polygon fill="#63b8ff" stroke="#63b8ff" points="651.33,-529.99 640.79,-531.08 649.71,-536.8 651.33,-529.99"/>
</a>
</g>
</g>
<!-- Node25 -->
<g id="Node000025" class="node">
<title>Node25</title>
<g id="a_Node000025"><a xlink:href="class_p4_1_1_i_r_1_1_vector.html" target="_top" xlink:title=" ">
<polygon fill="white" stroke="#bfbfbf" points="847,-536.5 715,-536.5 715,-506.5 847,-506.5 847,-536.5"/>
<text text-anchor="start" x="723" y="-524.5" font-family="Helvetica,sans-Serif" font-size="10.00">P4::IR::Vector&lt; IR</text>
<text text-anchor="middle" x="781" y="-513.5" font-family="Helvetica,sans-Serif" font-size="10.00">::DpdkAsmStatement &gt;</text>
</a>
</g>
</g>
<!-- Node9&#45;&gt;Node25 -->
<g id="edge24_Node000009_Node000025" class="edge">
<title>Node9&#45;&gt;Node25</title>
<g id="a_edge24_Node000009_Node000025"><a xlink:title=" ">
<path fill="none" stroke="#63b8ff" d="M660.16,-521.5C677.74,-521.5 696.95,-521.5 714.73,-521.5"/>
<polygon fill="#63b8ff" stroke="#63b8ff" points="660.03,-518 650.03,-521.5 660.03,-525 660.03,-518"/>
</a>
</g>
</g>
<!-- Node27 -->
<g id="Node000027" class="node">
<title>Node27</title>
<g id="a_Node000027"><a xlink:href="class_p4_1_1_i_r_1_1_vector.html" target="_top" xlink:title=" ">
<polygon fill="white" stroke="#bfbfbf" points="832,-488.5 730,-488.5 730,-458.5 832,-458.5 832,-488.5"/>
<text text-anchor="start" x="738" y="-476.5" font-family="Helvetica,sans-Serif" font-size="10.00">P4::IR::Vector&lt; IR</text>
<text text-anchor="middle" x="781" y="-465.5" font-family="Helvetica,sans-Serif" font-size="10.00">::DpdkTable &gt;</text>
</a>
</g>
</g>
<!-- Node9&#45;&gt;Node27 -->
<g id="edge26_Node000009_Node000027" class="edge">
<title>Node9&#45;&gt;Node27</title>
<g id="a_edge26_Node000009_Node000027"><a xlink:title=" ">
<path fill="none" stroke="#63b8ff" d="M644.76,-509.27C670.7,-502.4 703.1,-493.84 729.68,-486.81"/>
<polygon fill="#63b8ff" stroke="#63b8ff" points="643.57,-505.96 634.79,-511.9 645.36,-512.73 643.57,-505.96"/>
</a>
</g>
</g>
<!-- Node29 -->
<g id="Node000029" class="node">
<title>Node29</title>
<g id="a_Node000029"><a xlink:href="class_p4_1_1_i_r_1_1_vector.html" target="_top" xlink:title=" ">
<polygon fill="white" stroke="#bfbfbf" points="832,-440.5 730,-440.5 730,-410.5 832,-410.5 832,-440.5"/>
<text text-anchor="start" x="738" y="-428.5" font-family="Helvetica,sans-Serif" font-size="10.00">P4::IR::Vector&lt; IR</text>
<text text-anchor="middle" x="781" y="-417.5" font-family="Helvetica,sans-Serif" font-size="10.00">::DpdkSelector &gt;</text>
</a>
</g>
</g>
<!-- Node9&#45;&gt;Node29 -->
<g id="edge28_Node000009_Node000029" class="edge">
<title>Node9&#45;&gt;Node29</title>
<g id="a_edge28_Node000009_Node000029"><a xlink:title=" ">
<path fill="none" stroke="#63b8ff" d="M620.27,-506.21C643.13,-490.6 680.47,-466.33 715,-449.5 721.49,-446.34 728.5,-443.34 735.45,-440.6"/>
<polygon fill="#63b8ff" stroke="#63b8ff" points="618.22,-503.37 611.98,-511.93 622.2,-509.13 618.22,-503.37"/>
</a>
</g>
</g>
<!-- Node31 -->
<g id="Node000031" class="node">
<title>Node31</title>
<g id="a_Node000031"><a xlink:href="class_p4_1_1_i_r_1_1_vector.html" target="_top" xlink:title=" ">
<polygon fill="white" stroke="#bfbfbf" points="832,-392.5 730,-392.5 730,-362.5 832,-362.5 832,-392.5"/>
<text text-anchor="start" x="738" y="-380.5" font-family="Helvetica,sans-Serif" font-size="10.00">P4::IR::Vector&lt; IR</text>
<text text-anchor="middle" x="781" y="-369.5" font-family="Helvetica,sans-Serif" font-size="10.00">::DpdkLearner &gt;</text>
</a>
</g>
</g>
<!-- Node9&#45;&gt;Node31 -->
<g id="edge30_Node000009_Node000031" class="edge">
<title>Node9&#45;&gt;Node31</title>
<g id="a_edge30_Node000009_Node000031"><a xlink:title=" ">
<path fill="none" stroke="#63b8ff" d="M611.69,-503.5C631.48,-477.65 671.24,-429.98 715,-401.5 720.14,-398.15 725.81,-395.19 731.6,-392.58"/>
<polygon fill="#63b8ff" stroke="#63b8ff" points="608.76,-501.58 605.55,-511.67 614.36,-505.78 608.76,-501.58"/>
</a>
</g>
</g>
<!-- Node33 -->
<g id="Node000033" class="node">
<title>Node33</title>
<g id="a_Node000033"><a xlink:href="class_p4_1_1_i_r_1_1_vector.html" target="_top" xlink:title=" ">
<polygon fill="white" stroke="#bfbfbf" points="832,-344.5 730,-344.5 730,-314.5 832,-314.5 832,-344.5"/>
<text text-anchor="start" x="738" y="-332.5" font-family="Helvetica,sans-Serif" font-size="10.00">P4::IR::Vector&lt; IR</text>
<text text-anchor="middle" x="781" y="-321.5" font-family="Helvetica,sans-Serif" font-size="10.00">::DpdkAction &gt;</text>
</a>
</g>
</g>
<!-- Node9&#45;&gt;Node33 -->
<g id="edge32_Node000009_Node000033" class="edge">
<title>Node9&#45;&gt;Node33</title>
<g id="a_edge32_Node000009_Node000033"><a xlink:title=" ">
<path fill="none" stroke="#63b8ff" d="M607.03,-502.16C623.21,-467.57 661.6,-394.87 715,-353.5 719.47,-350.04 724.49,-347.04 729.71,-344.45"/>
<polygon fill="#63b8ff" stroke="#63b8ff" points="603.69,-501.05 602.73,-511.6 610.06,-503.95 603.69,-501.05"/>
</a>
</g>
</g>
<!-- Node35 -->
<g id="Node000035" class="node">
<title>Node35</title>
<g id="a_Node000035"><a xlink:href="class_p4_1_1_i_r_1_1_vector.html" target="_top" xlink:title=" ">
<polygon fill="white" stroke="#bfbfbf" points="832,-296.5 730,-296.5 730,-266.5 832,-266.5 832,-296.5"/>
<text text-anchor="start" x="738" y="-284.5" font-family="Helvetica,sans-Serif" font-size="10.00">P4::IR::Vector&lt; IR</text>
<text text-anchor="middle" x="781" y="-273.5" font-family="Helvetica,sans-Serif" font-size="10.00">::Parameter &gt;</text>
</a>
</g>
</g>
<!-- Node9&#45;&gt;Node35 -->
<g id="edge34_Node000009_Node000035" class="edge">
<title>Node9&#45;&gt;Node35</title>
<g id="a_edge34_Node000009_Node000035"><a xlink:title=" ">
<path fill="none" stroke="#63b8ff" d="M603.87,-501.96C616.34,-460.05 651.21,-360.88 715,-305.5 719.45,-301.64 724.58,-298.37 729.96,-295.62"/>
<polygon fill="#63b8ff" stroke="#63b8ff" points="600.45,-501.17 601.05,-511.75 607.18,-503.1 600.45,-501.17"/>
</a>
</g>
</g>
<!-- Node37 -->
<g id="Node000037" class="node">
<title>Node37</title>
<g id="a_Node000037"><a xlink:href="class_p4_1_1_i_r_1_1_vector.html" target="_top" xlink:title=" ">
<polygon fill="white" stroke="#bfbfbf" points="839,-248.5 723,-248.5 723,-218.5 839,-218.5 839,-248.5"/>
<text text-anchor="start" x="731" y="-236.5" font-family="Helvetica,sans-Serif" font-size="10.00">P4::IR::Vector&lt; IR</text>
<text text-anchor="middle" x="781" y="-225.5" font-family="Helvetica,sans-Serif" font-size="10.00">::DpdkDeclaration &gt;</text>
</a>
</g>
</g>
<!-- Node9&#45;&gt;Node37 -->
<g id="edge36_Node000009_Node000037" class="edge">
<title>Node9&#45;&gt;Node37</title>
<g id="a_edge36_Node000009_Node000037"><a xlink:title=" ">
<path fill="none" stroke="#63b8ff" d="M601.79,-501.68C610.87,-453.17 640.65,-327.38 715,-257.5 718.68,-254.04 722.9,-251.07 727.39,-248.52"/>
<polygon fill="#63b8ff" stroke="#63b8ff" points="598.3,-501.33 600,-511.78 605.19,-502.55 598.3,-501.33"/>
</a>
</g>
</g>
<!-- Node39 -->
<g id="Node000039" class="node">
<title>Node39</title>
<g id="a_Node000039"><a xlink:href="class_p4_1_1_i_r_1_1_vector.html" target="_top" xlink:title=" ">
<polygon fill="white" stroke="#bfbfbf" points="832,-200.5 730,-200.5 730,-170.5 832,-170.5 832,-200.5"/>
<text text-anchor="start" x="738" y="-188.5" font-family="Helvetica,sans-Serif" font-size="10.00">P4::IR::Vector&lt; IR</text>
<text text-anchor="middle" x="781" y="-177.5" font-family="Helvetica,sans-Serif" font-size="10.00">::ParserState &gt;</text>
</a>
</g>
</g>
<!-- Node9&#45;&gt;Node39 -->
<g id="edge38_Node000009_Node000039" class="edge">
<title>Node9&#45;&gt;Node39</title>
<g id="a_edge38_Node000009_Node000039"><a xlink:title=" ">
<path fill="none" stroke="#63b8ff" d="M600.25,-501.81C606.1,-447.58 629.73,-294.46 715,-209.5 719.26,-205.25 724.34,-201.75 729.75,-198.86"/>
<polygon fill="#63b8ff" stroke="#63b8ff" points="596.76,-501.52 599.26,-511.82 603.73,-502.21 596.76,-501.52"/>
</a>
</g>
</g>
<!-- Node41 -->
<g id="Node000041" class="node">
<title>Node41</title>
<g id="a_Node000041"><a xlink:href="class_p4_1_1_i_r_1_1_vector.html" target="_top" xlink:title=" ">
<polygon fill="white" stroke="#bfbfbf" points="832,-152.5 730,-152.5 730,-122.5 832,-122.5 832,-152.5"/>
<text text-anchor="start" x="738" y="-140.5" font-family="Helvetica,sans-Serif" font-size="10.00">P4::IR::Vector&lt; IR</text>
<text text-anchor="middle" x="781" y="-129.5" font-family="Helvetica,sans-Serif" font-size="10.00">::SelectCase &gt;</text>
</a>
</g>
</g>
<!-- Node9&#45;&gt;Node41 -->
<g id="edge40_Node000009_Node000041" class="edge">
<title>Node9&#45;&gt;Node41</title>
<g id="a_edge40_Node000009_Node000041"><a xlink:title=" ">
<path fill="none" stroke="#63b8ff" d="M599.12,-501.65C602.04,-441.9 618.82,-261.68 715,-161.5 719.25,-157.07 724.38,-153.46 729.89,-150.51"/>
<polygon fill="#63b8ff" stroke="#63b8ff" points="595.61,-501.8 598.7,-511.94 602.6,-502.09 595.61,-501.8"/>
</a>
</g>
</g>
<!-- Node42 -->
<g id="Node000042" class="node">
<title>Node42</title>
<g id="a_Node000042"><a xlink:href="class_p4_1_1_i_r_1_1_vector.html" target="_top" xlink:title=" ">
<polygon fill="white" stroke="#bfbfbf" points="832,-104.5 730,-104.5 730,-74.5 832,-74.5 832,-104.5"/>
<text text-anchor="start" x="738" y="-92.5" font-family="Helvetica,sans-Serif" font-size="10.00">P4::IR::Vector&lt; IR</text>
<text text-anchor="middle" x="781" y="-81.5" font-family="Helvetica,sans-Serif" font-size="10.00">::StatOrDecl &gt;</text>
</a>
</g>
</g>
<!-- Node9&#45;&gt;Node42 -->
<g id="edge41_Node000009_Node000042" class="edge">
<title>Node9&#45;&gt;Node42</title>
<g id="a_edge41_Node000009_Node000042"><a xlink:title=" ">
<path fill="none" stroke="#63b8ff" d="M598.22,-501.62C598.41,-436.81 607.75,-229.18 715,-113.5 719.17,-109 724.26,-105.34 729.74,-102.37"/>
<polygon fill="#63b8ff" stroke="#63b8ff" points="594.72,-501.72 598.27,-511.7 601.72,-501.68 594.72,-501.72"/>
</a>
</g>
</g>
<!-- Node44 -->
<g id="Node000044" class="node">
<title>Node44</title>
<g id="a_Node000044"><a xlink:href="class_p4_1_1_i_r_1_1_vector.html" target="_top" xlink:title=" ">
<polygon fill="white" stroke="#bfbfbf" points="836.5,-56 725.5,-56 725.5,-37 836.5,-37 836.5,-56"/>
<text text-anchor="middle" x="781" y="-44" font-family="Helvetica,sans-Serif" font-size="10.00">P4::IR::Vector&lt; N &gt;</text>
</a>
</g>
</g>
<!-- Node9&#45;&gt;Node44 -->
<g id="edge43_Node000009_Node000044" class="edge">
<title>Node9&#45;&gt;Node44</title>
<g id="a_edge43_Node000009_Node000044"><a xlink:title=" ">
<path fill="none" stroke="#63b8ff" d="M600.97,-501.52C611.15,-422.16 652.36,-130.32 715,-65.5 718.76,-61.61 723.26,-58.51 728.13,-56.03"/>
<polygon fill="#63b8ff" stroke="#63b8ff" points="597.47,-501.28 599.69,-511.64 604.42,-502.16 597.47,-501.28"/>
</a>
</g>
</g>
<!-- Node45 -->
<g id="Node000045" class="node">
<title>Node45</title>
<g id="a_Node000045"><a xlink:href="class_p4_1_1_i_r_1_1_vector.html" target="_top" xlink:title=" ">
<polygon fill="white" stroke="#bfbfbf" points="836,-19 726,-19 726,0 836,0 836,-19"/>
<text text-anchor="middle" x="781" y="-7" font-family="Helvetica,sans-Serif" font-size="10.00">P4::IR::Vector&lt; T &gt;</text>
</a>
</g>
</g>
<!-- Node9&#45;&gt;Node45 -->
<g id="edge44_Node000009_Node000045" class="edge">
<title>Node9&#45;&gt;Node45</title>
<g id="a_edge44_Node000009_Node000045"><a xlink:title=" ">
<path fill="none" stroke="#63b8ff" d="M600.52,-501.47C609.36,-417.88 647.17,-98 715,-27.5 718.25,-24.12 722.07,-21.36 726.2,-19.11"/>
<polygon fill="#63b8ff" stroke="#63b8ff" points="597.02,-501.33 599.47,-511.64 603.98,-502.06 597.02,-501.33"/>
</a>
</g>
</g>
<!-- Node14 -->
<g id="Node000014" class="node">
<title>Node14</title>
<g id="a_Node000014"><a xlink:href="class_p4_1_1_i_r_1_1_indexed_vector.html" target="_top" xlink:title=" ">
<polygon fill="white" stroke="#666666" points="1031,-920.5 888,-920.5 888,-890.5 1031,-890.5 1031,-920.5"/>
<text text-anchor="start" x="896" y="-908.5" font-family="Helvetica,sans-Serif" font-size="10.00">P4::IR::IndexedVector</text>
<text text-anchor="middle" x="959.5" y="-897.5" font-family="Helvetica,sans-Serif" font-size="10.00">&lt; IR::NamedExpression &gt;</text>
</a>
</g>
</g>
<!-- Node13&#45;&gt;Node14 -->
<g id="edge13_Node000013_Node000014" class="edge">
<title>Node13&#45;&gt;Node14</title>
<g id="a_edge13_Node000013_Node000014"><a xlink:title=" ">
<path fill="none" stroke="#63b8ff" d="M852.38,-905.5C864.07,-905.5 876.19,-905.5 887.88,-905.5"/>
<polygon fill="#63b8ff" stroke="#63b8ff" points="852.25,-902 842.25,-905.5 852.25,-909 852.25,-902"/>
</a>
</g>
</g>
<!-- Node17 -->
<g id="Node000017" class="node">
<title>Node17</title>
<g id="a_Node000017"><a xlink:href="class_p4_1_1_i_r_1_1_indexed_vector.html" target="_top" xlink:title=" ">
<polygon fill="white" stroke="#666666" points="1019,-824.5 900,-824.5 900,-794.5 1019,-794.5 1019,-824.5"/>
<text text-anchor="start" x="908" y="-812.5" font-family="Helvetica,sans-Serif" font-size="10.00">P4::IR::IndexedVector</text>
<text text-anchor="middle" x="959.5" y="-801.5" font-family="Helvetica,sans-Serif" font-size="10.00">&lt; P4::IR::Node &gt;</text>
</a>
</g>
</g>
<!-- Node16&#45;&gt;Node17 -->
<g id="edge16_Node000016_Node000017" class="edge">
<title>Node16&#45;&gt;Node17</title>
<g id="a_edge16_Node000016_Node000017"><a xlink:title=" ">
<path fill="none" stroke="#63b8ff" d="M843.06,-809.5C861.44,-809.5 881.57,-809.5 899.79,-809.5"/>
<polygon fill="#63b8ff" stroke="#63b8ff" points="843.05,-806 833.05,-809.5 843.05,-813 843.05,-806"/>
</a>
</g>
</g>
<!-- Node19 -->
<g id="Node000019" class="node">
<title>Node19</title>
<g id="a_Node000019"><a xlink:href="class_p4_1_1_i_r_1_1_indexed_vector.html" target="_top" xlink:title=" ">
<polygon fill="white" stroke="#666666" points="1019,-776.5 900,-776.5 900,-746.5 1019,-746.5 1019,-776.5"/>
<text text-anchor="start" x="908" y="-764.5" font-family="Helvetica,sans-Serif" font-size="10.00">P4::IR::IndexedVector</text>
<text text-anchor="middle" x="959.5" y="-753.5" font-family="Helvetica,sans-Serif" font-size="10.00">&lt; IR::StructField &gt;</text>
</a>
</g>
</g>
<!-- Node18&#45;&gt;Node19 -->
<g id="edge18_Node000018_Node000019" class="edge">
<title>Node18&#45;&gt;Node19</title>
<g id="a_edge18_Node000018_Node000019"><a xlink:title=" ">
<path fill="none" stroke="#63b8ff" d="M842.23,-761.5C860.85,-761.5 881.33,-761.5 899.84,-761.5"/>
<polygon fill="#63b8ff" stroke="#63b8ff" points="842.11,-758 832.11,-761.5 842.11,-765 842.11,-758"/>
</a>
</g>
</g>
<!-- Node24 -->
<g id="Node000024" class="node">
<title>Node24</title>
<g id="a_Node000024"><a xlink:href="class_p4_1_1_i_r_1_1_indexed_vector.html" target="_top" xlink:title=" ">
<polygon fill="white" stroke="#666666" points="1019,-584.5 900,-584.5 900,-554.5 1019,-554.5 1019,-584.5"/>
<text text-anchor="start" x="908" y="-572.5" font-family="Helvetica,sans-Serif" font-size="10.00">P4::IR::IndexedVector</text>
<text text-anchor="middle" x="959.5" y="-561.5" font-family="Helvetica,sans-Serif" font-size="10.00">&lt; IR::Declaration &gt;</text>
</a>
</g>
</g>
<!-- Node23&#45;&gt;Node24 -->
<g id="edge23_Node000023_Node000024" class="edge">
<title>Node23&#45;&gt;Node24</title>
<g id="a_edge23_Node000023_Node000024"><a xlink:title=" ">
<path fill="none" stroke="#63b8ff" d="M842.23,-569.5C860.85,-569.5 881.33,-569.5 899.84,-569.5"/>
<polygon fill="#63b8ff" stroke="#63b8ff" points="842.11,-566 832.11,-569.5 842.11,-573 842.11,-566"/>
</a>
</g>
</g>
<!-- Node26 -->
<g id="Node000026" class="node">
<title>Node26</title>
<g id="a_Node000026"><a xlink:href="class_p4_1_1_i_r_1_1_indexed_vector.html" target="_top" xlink:title=" ">
<polygon fill="white" stroke="#666666" points="1036,-536.5 883,-536.5 883,-506.5 1036,-506.5 1036,-536.5"/>
<text text-anchor="start" x="891" y="-524.5" font-family="Helvetica,sans-Serif" font-size="10.00">P4::IR::IndexedVector</text>
<text text-anchor="middle" x="959.5" y="-513.5" font-family="Helvetica,sans-Serif" font-size="10.00">&lt; IR::DpdkAsmStatement &gt;</text>
</a>
</g>
</g>
<!-- Node25&#45;&gt;Node26 -->
<g id="edge25_Node000025_Node000026" class="edge">
<title>Node25&#45;&gt;Node26</title>
<g id="a_edge25_Node000025_Node000026"><a xlink:title=" ">
<path fill="none" stroke="#63b8ff" d="M857.39,-521.5C865.81,-521.5 874.39,-521.5 882.81,-521.5"/>
<polygon fill="#63b8ff" stroke="#63b8ff" points="857.22,-518 847.22,-521.5 857.22,-525 857.22,-518"/>
</a>
</g>
</g>
<!-- Node28 -->
<g id="Node000028" class="node">
<title>Node28</title>
<g id="a_Node000028"><a xlink:href="class_p4_1_1_i_r_1_1_indexed_vector.html" target="_top" xlink:title=" ">
<polygon fill="white" stroke="#666666" points="1019,-488.5 900,-488.5 900,-458.5 1019,-458.5 1019,-488.5"/>
<text text-anchor="start" x="908" y="-476.5" font-family="Helvetica,sans-Serif" font-size="10.00">P4::IR::IndexedVector</text>
<text text-anchor="middle" x="959.5" y="-465.5" font-family="Helvetica,sans-Serif" font-size="10.00">&lt; IR::DpdkTable &gt;</text>
</a>
</g>
</g>
<!-- Node27&#45;&gt;Node28 -->
<g id="edge27_Node000027_Node000028" class="edge">
<title>Node27&#45;&gt;Node28</title>
<g id="a_edge27_Node000027_Node000028"><a xlink:title=" ">
<path fill="none" stroke="#63b8ff" d="M842.23,-473.5C860.85,-473.5 881.33,-473.5 899.84,-473.5"/>
<polygon fill="#63b8ff" stroke="#63b8ff" points="842.11,-470 832.11,-473.5 842.11,-477 842.11,-470"/>
</a>
</g>
</g>
<!-- Node30 -->
<g id="Node000030" class="node">
<title>Node30</title>
<g id="a_Node000030"><a xlink:href="class_p4_1_1_i_r_1_1_indexed_vector.html" target="_top" xlink:title=" ">
<polygon fill="white" stroke="#666666" points="1019.5,-440.5 899.5,-440.5 899.5,-410.5 1019.5,-410.5 1019.5,-440.5"/>
<text text-anchor="start" x="907.5" y="-428.5" font-family="Helvetica,sans-Serif" font-size="10.00">P4::IR::IndexedVector</text>
<text text-anchor="middle" x="959.5" y="-417.5" font-family="Helvetica,sans-Serif" font-size="10.00">&lt; IR::DpdkSelector &gt;</text>
</a>
</g>
</g>
<!-- Node29&#45;&gt;Node30 -->
<g id="edge29_Node000029_Node000030" class="edge">
<title>Node29&#45;&gt;Node30</title>
<g id="a_edge29_Node000029_Node000030"><a xlink:title=" ">
<path fill="none" stroke="#63b8ff" d="M842.13,-425.5C860.57,-425.5 880.83,-425.5 899.2,-425.5"/>
<polygon fill="#63b8ff" stroke="#63b8ff" points="842.11,-422 832.11,-425.5 842.11,-429 842.11,-422"/>
</a>
</g>
</g>
<!-- Node32 -->
<g id="Node000032" class="node">
<title>Node32</title>
<g id="a_Node000032"><a xlink:href="class_p4_1_1_i_r_1_1_indexed_vector.html" target="_top" xlink:title=" ">
<polygon fill="white" stroke="#666666" points="1019,-392.5 900,-392.5 900,-362.5 1019,-362.5 1019,-392.5"/>
<text text-anchor="start" x="908" y="-380.5" font-family="Helvetica,sans-Serif" font-size="10.00">P4::IR::IndexedVector</text>
<text text-anchor="middle" x="959.5" y="-369.5" font-family="Helvetica,sans-Serif" font-size="10.00">&lt; IR::DpdkLearner &gt;</text>
</a>
</g>
</g>
<!-- Node31&#45;&gt;Node32 -->
<g id="edge31_Node000031_Node000032" class="edge">
<title>Node31&#45;&gt;Node32</title>
<g id="a_edge31_Node000031_Node000032"><a xlink:title=" ">
<path fill="none" stroke="#63b8ff" d="M842.23,-377.5C860.85,-377.5 881.33,-377.5 899.84,-377.5"/>
<polygon fill="#63b8ff" stroke="#63b8ff" points="842.11,-374 832.11,-377.5 842.11,-381 842.11,-374"/>
</a>
</g>
</g>
<!-- Node34 -->
<g id="Node000034" class="node">
<title>Node34</title>
<g id="a_Node000034"><a xlink:href="class_p4_1_1_i_r_1_1_indexed_vector.html" target="_top" xlink:title=" ">
<polygon fill="white" stroke="#666666" points="1019,-344.5 900,-344.5 900,-314.5 1019,-314.5 1019,-344.5"/>
<text text-anchor="start" x="908" y="-332.5" font-family="Helvetica,sans-Serif" font-size="10.00">P4::IR::IndexedVector</text>
<text text-anchor="middle" x="959.5" y="-321.5" font-family="Helvetica,sans-Serif" font-size="10.00">&lt; IR::DpdkAction &gt;</text>
</a>
</g>
</g>
<!-- Node33&#45;&gt;Node34 -->
<g id="edge33_Node000033_Node000034" class="edge">
<title>Node33&#45;&gt;Node34</title>
<g id="a_edge33_Node000033_Node000034"><a xlink:title=" ">
<path fill="none" stroke="#63b8ff" d="M842.23,-329.5C860.85,-329.5 881.33,-329.5 899.84,-329.5"/>
<polygon fill="#63b8ff" stroke="#63b8ff" points="842.11,-326 832.11,-329.5 842.11,-333 842.11,-326"/>
</a>
</g>
</g>
<!-- Node36 -->
<g id="Node000036" class="node">
<title>Node36</title>
<g id="a_Node000036"><a xlink:href="class_p4_1_1_i_r_1_1_indexed_vector.html" target="_top" xlink:title=" ">
<polygon fill="white" stroke="#666666" points="1019,-296.5 900,-296.5 900,-266.5 1019,-266.5 1019,-296.5"/>
<text text-anchor="start" x="908" y="-284.5" font-family="Helvetica,sans-Serif" font-size="10.00">P4::IR::IndexedVector</text>
<text text-anchor="middle" x="959.5" y="-273.5" font-family="Helvetica,sans-Serif" font-size="10.00">&lt; IR::Parameter &gt;</text>
</a>
</g>
</g>
<!-- Node35&#45;&gt;Node36 -->
<g id="edge35_Node000035_Node000036" class="edge">
<title>Node35&#45;&gt;Node36</title>
<g id="a_edge35_Node000035_Node000036"><a xlink:title=" ">
<path fill="none" stroke="#63b8ff" d="M842.23,-281.5C860.85,-281.5 881.33,-281.5 899.84,-281.5"/>
<polygon fill="#63b8ff" stroke="#63b8ff" points="842.11,-278 832.11,-281.5 842.11,-285 842.11,-278"/>
</a>
</g>
</g>
<!-- Node38 -->
<g id="Node000038" class="node">
<title>Node38</title>
<g id="a_Node000038"><a xlink:href="class_p4_1_1_i_r_1_1_indexed_vector.html" target="_top" xlink:title=" ">
<polygon fill="white" stroke="#666666" points="1028,-248.5 891,-248.5 891,-218.5 1028,-218.5 1028,-248.5"/>
<text text-anchor="start" x="899" y="-236.5" font-family="Helvetica,sans-Serif" font-size="10.00">P4::IR::IndexedVector</text>
<text text-anchor="middle" x="959.5" y="-225.5" font-family="Helvetica,sans-Serif" font-size="10.00">&lt; IR::DpdkDeclaration &gt;</text>
</a>
</g>
</g>
<!-- Node37&#45;&gt;Node38 -->
<g id="edge37_Node000037_Node000038" class="edge">
<title>Node37&#45;&gt;Node38</title>
<g id="a_edge37_Node000037_Node000038"><a xlink:title=" ">
<path fill="none" stroke="#63b8ff" d="M849.48,-233.5C863,-233.5 877.2,-233.5 890.72,-233.5"/>
<polygon fill="#63b8ff" stroke="#63b8ff" points="849.3,-230 839.3,-233.5 849.3,-237 849.3,-230"/>
</a>
</g>
</g>
<!-- Node40 -->
<g id="Node000040" class="node">
<title>Node40</title>
<g id="a_Node000040"><a xlink:href="class_p4_1_1_i_r_1_1_indexed_vector.html" target="_top" xlink:title=" ">
<polygon fill="white" stroke="#666666" points="1019,-200.5 900,-200.5 900,-170.5 1019,-170.5 1019,-200.5"/>
<text text-anchor="start" x="908" y="-188.5" font-family="Helvetica,sans-Serif" font-size="10.00">P4::IR::IndexedVector</text>
<text text-anchor="middle" x="959.5" y="-177.5" font-family="Helvetica,sans-Serif" font-size="10.00">&lt; IR::ParserState &gt;</text>
</a>
</g>
</g>
<!-- Node39&#45;&gt;Node40 -->
<g id="edge39_Node000039_Node000040" class="edge">
<title>Node39&#45;&gt;Node40</title>
<g id="a_edge39_Node000039_Node000040"><a xlink:title=" ">
<path fill="none" stroke="#63b8ff" d="M842.23,-185.5C860.85,-185.5 881.33,-185.5 899.84,-185.5"/>
<polygon fill="#63b8ff" stroke="#63b8ff" points="842.11,-182 832.11,-185.5 842.11,-189 842.11,-182"/>
</a>
</g>
</g>
<!-- Node43 -->
<g id="Node000043" class="node">
<title>Node43</title>
<g id="a_Node000043"><a xlink:href="class_p4_1_1_i_r_1_1_indexed_vector.html" target="_top" xlink:title=" ">
<polygon fill="white" stroke="#666666" points="1019,-104.5 900,-104.5 900,-74.5 1019,-74.5 1019,-104.5"/>
<text text-anchor="start" x="908" y="-92.5" font-family="Helvetica,sans-Serif" font-size="10.00">P4::IR::IndexedVector</text>
<text text-anchor="middle" x="959.5" y="-81.5" font-family="Helvetica,sans-Serif" font-size="10.00">&lt; IR::StatOrDecl &gt;</text>
</a>
</g>
</g>
<!-- Node42&#45;&gt;Node43 -->
<g id="edge42_Node000042_Node000043" class="edge">
<title>Node42&#45;&gt;Node43</title>
<g id="a_edge42_Node000042_Node000043"><a xlink:title=" ">
<path fill="none" stroke="#63b8ff" d="M842.23,-89.5C860.85,-89.5 881.33,-89.5 899.84,-89.5"/>
<polygon fill="#63b8ff" stroke="#63b8ff" points="842.11,-86 832.11,-89.5 842.11,-93 842.11,-86"/>
</a>
</g>
</g>
<!-- Node46 -->
<g id="Node000046" class="node">
<title>Node46</title>
<g id="a_Node000046"><a xlink:href="class_p4_1_1_i_r_1_1_indexed_vector.html" target="_top" xlink:title=" ">
<polygon fill="white" stroke="#666666" points="1033.5,-19 885.5,-19 885.5,0 1033.5,0 1033.5,-19"/>
<text text-anchor="middle" x="959.5" y="-7" font-family="Helvetica,sans-Serif" font-size="10.00">P4::IR::IndexedVector&lt; T &gt;</text>
</a>
</g>
</g>
<!-- Node45&#45;&gt;Node46 -->
<g id="edge45_Node000045_Node000046" class="edge">
<title>Node45&#45;&gt;Node46</title>
<g id="a_edge45_Node000045_Node000046"><a xlink:title=" ">
<path fill="none" stroke="#63b8ff" d="M846.4,-9.5C859.09,-9.5 872.49,-9.5 885.45,-9.5"/>
<polygon fill="#63b8ff" stroke="#63b8ff" points="846.4,-6 836.4,-9.5 846.4,-13 846.4,-6"/>
</a>
</g>
</g>
</g>
</svg>
