<?xml version="1.0" encoding="UTF-8" standalone="no"?>
<!DOCTYPE svg PUBLIC "-//W3C//DTD SVG 1.1//EN"
 "http://www.w3.org/Graphics/SVG/1.1/DTD/svg11.dtd">
<!-- Generated by graphviz version 2.43.0 (0)
 -->
<!-- Title: P4::IR::VectorBase Pages: 1 -->
<svg width="986pt" height="1062pt"
 viewBox="0.00 0.00 986.00 1062.00" xmlns="http://www.w3.org/2000/svg" xmlns:xlink="http://www.w3.org/1999/xlink">
<g id="graph0" class="graph" transform="scale(1 1) rotate(0) translate(4 1058)">
<title>P4::IR::VectorBase</title>
<!-- Node1 -->
<g id="Node000001" class="node">
<title>Node1</title>
<g id="a_Node000001"><a xlink:title=" ">
<polygon fill="#999999" stroke="#666666" points="621,-531 516,-531 516,-512 621,-512 621,-531"/>
<text text-anchor="middle" x="568.5" y="-519" font-family="Helvetica,sans-Serif" font-size="10.00">P4::IR::VectorBase</text>
</a>
</g>
</g>
<!-- Node8 -->
<g id="Node000008" class="node">
<title>Node8</title>
<g id="a_Node000008"><a xlink:href="class_p4_1_1_i_r_1_1_vector.html" target="_top" xlink:title=" ">
<polygon fill="white" stroke="#bfbfbf" points="780.5,-1054 665.5,-1054 665.5,-1035 780.5,-1035 780.5,-1054"/>
<text text-anchor="middle" x="723" y="-1042" font-family="Helvetica,sans-Serif" font-size="10.00">P4::IR::iterator&lt; T &gt;</text>
</a>
</g>
</g>
<!-- Node1&#45;&gt;Node8 -->
<g id="edge7_Node000001_Node000008" class="edge">
<title>Node1&#45;&gt;Node8</title>
<g id="a_edge7_Node000001_Node000008"><a xlink:title=" ">
<path fill="none" stroke="#63b8ff" d="M570.22,-541.31C573.67,-625.4 591.17,-951.81 657,-1025.5 660.45,-1029.36 664.63,-1032.45 669.19,-1034.93"/>
<polygon fill="#63b8ff" stroke="#63b8ff" points="573.71,-540.96 569.82,-531.11 566.71,-541.23 573.71,-540.96"/>
</a>
</g>
</g>
<!-- Node9 -->
<g id="Node000009" class="node">
<title>Node9</title>
<g id="a_Node000009"><a xlink:href="class_p4_1_1_i_r_1_1_vector.html" target="_top" xlink:title=" ">
<polygon fill="white" stroke="#bfbfbf" points="774,-1016.5 672,-1016.5 672,-986.5 774,-986.5 774,-1016.5"/>
<text text-anchor="start" x="680" y="-1004.5" font-family="Helvetica,sans-Serif" font-size="10.00">P4::IR::Vector&lt; IR</text>
<text text-anchor="middle" x="723" y="-993.5" font-family="Helvetica,sans-Serif" font-size="10.00">::Expression &gt;</text>
</a>
</g>
</g>
<!-- Node1&#45;&gt;Node9 -->
<g id="edge8_Node000001_Node000009" class="edge">
<title>Node1&#45;&gt;Node9</title>
<g id="a_edge8_Node000001_Node000009"><a xlink:title=" ">
<path fill="none" stroke="#63b8ff" d="M570.75,-541.31C576.11,-620.01 599.48,-909.67 657,-977.5 661.12,-982.36 666.33,-986.24 671.98,-989.33"/>
<polygon fill="#63b8ff" stroke="#63b8ff" points="574.24,-541.02 570.09,-531.27 567.26,-541.48 574.24,-541.02"/>
</a>
</g>
</g>
<!-- Node10 -->
<g id="Node000010" class="node">
<title>Node10</title>
<g id="a_Node000010"><a xlink:href="class_p4_1_1_i_r_1_1_vector.html" target="_top" xlink:title=" ">
<polygon fill="white" stroke="#bfbfbf" points="774,-968.5 672,-968.5 672,-938.5 774,-938.5 774,-968.5"/>
<text text-anchor="start" x="680" y="-956.5" font-family="Helvetica,sans-Serif" font-size="10.00">P4::IR::Vector&lt; IR</text>
<text text-anchor="middle" x="723" y="-945.5" font-family="Helvetica,sans-Serif" font-size="10.00">::BFN::Pipe &gt;</text>
</a>
</g>
</g>
<!-- Node1&#45;&gt;Node10 -->
<g id="edge9_Node000001_Node000010" class="edge">
<title>Node1&#45;&gt;Node10</title>
<g id="a_edge9_Node000001_Node000010"><a xlink:title=" ">
<path fill="none" stroke="#63b8ff" d="M571.26,-541.53C578.11,-615.17 605.2,-869.74 657,-929.5 661.1,-934.23 666.21,-938.02 671.76,-941.07"/>
<polygon fill="#63b8ff" stroke="#63b8ff" points="574.73,-540.97 570.34,-531.32 567.75,-541.6 574.73,-540.97"/>
</a>
</g>
</g>
<!-- Node11 -->
<g id="Node000011" class="node">
<title>Node11</title>
<g id="a_Node000011"><a xlink:href="class_p4_1_1_i_r_1_1_vector.html" target="_top" xlink:title=" ">
<polygon fill="white" stroke="#bfbfbf" points="784,-920.5 662,-920.5 662,-890.5 784,-890.5 784,-920.5"/>
<text text-anchor="start" x="670" y="-908.5" font-family="Helvetica,sans-Serif" font-size="10.00">P4::IR::Vector&lt; IR</text>
<text text-anchor="middle" x="723" y="-897.5" font-family="Helvetica,sans-Serif" font-size="10.00">::NamedExpression &gt;</text>
</a>
</g>
</g>
<!-- Node1&#45;&gt;Node11 -->
<g id="edge10_Node000001_Node000011" class="edge">
<title>Node1&#45;&gt;Node11</title>
<g id="a_edge10_Node000001_Node000011"><a xlink:title=" ">
<path fill="none" stroke="#63b8ff" d="M571.86,-541.32C580.27,-608.99 610.79,-829.63 657,-881.5 660.04,-884.91 663.61,-887.84 667.49,-890.35"/>
<polygon fill="#63b8ff" stroke="#63b8ff" points="575.3,-540.67 570.62,-531.17 568.36,-541.52 575.3,-540.67"/>
</a>
</g>
</g>
<!-- Node13 -->
<g id="Node000013" class="node">
<title>Node13</title>
<g id="a_Node000013"><a xlink:href="class_p4_1_1_i_r_1_1_vector.html" target="_top" xlink:title=" ">
<polygon fill="white" stroke="#bfbfbf" points="774,-872.5 672,-872.5 672,-842.5 774,-842.5 774,-872.5"/>
<text text-anchor="start" x="680" y="-860.5" font-family="Helvetica,sans-Serif" font-size="10.00">P4::IR::Vector&lt; IR</text>
<text text-anchor="middle" x="723" y="-849.5" font-family="Helvetica,sans-Serif" font-size="10.00">::Annotation &gt;</text>
</a>
</g>
</g>
<!-- Node1&#45;&gt;Node13 -->
<g id="edge12_Node000001_Node000013" class="edge">
<title>Node1&#45;&gt;Node13</title>
<g id="a_edge12_Node000001_Node000013"><a xlink:title=" ">
<path fill="none" stroke="#63b8ff" d="M569.21,-541.41C569.5,-595.64 577.74,-747.61 657,-833.5 661.16,-838.01 666.24,-841.67 671.72,-844.65"/>
<polygon fill="#63b8ff" stroke="#63b8ff" points="572.71,-541.13 569.25,-531.12 565.71,-541.11 572.71,-541.13"/>
</a>
</g>
</g>
<!-- Node14 -->
<g id="Node000014" class="node">
<title>Node14</title>
<g id="a_Node000014"><a xlink:href="class_p4_1_1_i_r_1_1_vector.html" target="_top" xlink:title=" ">
<polygon fill="white" stroke="#bfbfbf" points="775,-824.5 671,-824.5 671,-794.5 775,-794.5 775,-824.5"/>
<text text-anchor="start" x="679" y="-812.5" font-family="Helvetica,sans-Serif" font-size="10.00">P4::IR::Vector&lt; P4</text>
<text text-anchor="middle" x="723" y="-801.5" font-family="Helvetica,sans-Serif" font-size="10.00">::IR::Node &gt;</text>
</a>
</g>
</g>
<!-- Node1&#45;&gt;Node14 -->
<g id="edge13_Node000001_Node000014" class="edge">
<title>Node1&#45;&gt;Node14</title>
<g id="a_edge13_Node000001_Node000014"><a xlink:title=" ">
<path fill="none" stroke="#63b8ff" d="M570.4,-541.22C573.67,-589.49 588.64,-714.8 657,-785.5 661.01,-789.65 665.81,-793.09 670.95,-795.94"/>
<polygon fill="#63b8ff" stroke="#63b8ff" points="573.89,-540.94 569.82,-531.16 566.91,-541.35 573.89,-540.94"/>
</a>
</g>
</g>
<!-- Node16 -->
<g id="Node000016" class="node">
<title>Node16</title>
<g id="a_Node000016"><a xlink:href="class_p4_1_1_i_r_1_1_vector.html" target="_top" xlink:title=" ">
<polygon fill="white" stroke="#bfbfbf" points="774,-776.5 672,-776.5 672,-746.5 774,-746.5 774,-776.5"/>
<text text-anchor="start" x="680" y="-764.5" font-family="Helvetica,sans-Serif" font-size="10.00">P4::IR::Vector&lt; IR</text>
<text text-anchor="middle" x="723" y="-753.5" font-family="Helvetica,sans-Serif" font-size="10.00">::StructField &gt;</text>
</a>
</g>
</g>
<!-- Node1&#45;&gt;Node16 -->
<g id="edge15_Node000001_Node000016" class="edge">
<title>Node1&#45;&gt;Node16</title>
<g id="a_edge15_Node000001_Node000016"><a xlink:title=" ">
<path fill="none" stroke="#63b8ff" d="M572.09,-541.24C578.62,-583.16 599.52,-681.78 657,-737.5 661.32,-741.69 666.43,-745.15 671.86,-748.02"/>
<polygon fill="#63b8ff" stroke="#63b8ff" points="575.54,-540.61 570.64,-531.22 568.61,-541.62 575.54,-540.61"/>
</a>
</g>
</g>
<!-- Node18 -->
<g id="Node000018" class="node">
<title>Node18</title>
<g id="a_Node000018"><a xlink:href="class_p4_1_1_i_r_1_1_vector.html" target="_top" xlink:title=" ">
<polygon fill="white" stroke="#bfbfbf" points="774,-728.5 672,-728.5 672,-698.5 774,-698.5 774,-728.5"/>
<text text-anchor="start" x="680" y="-716.5" font-family="Helvetica,sans-Serif" font-size="10.00">P4::IR::Vector&lt; IR</text>
<text text-anchor="middle" x="723" y="-705.5" font-family="Helvetica,sans-Serif" font-size="10.00">::MAU::Table &gt;</text>
</a>
</g>
</g>
<!-- Node1&#45;&gt;Node18 -->
<g id="edge17_Node000001_Node000018" class="edge">
<title>Node1&#45;&gt;Node18</title>
<g id="a_edge17_Node000001_Node000018"><a xlink:title=" ">
<path fill="none" stroke="#63b8ff" d="M574.68,-541.28C584.76,-576.05 610.24,-648.31 657,-689.5 661.42,-693.4 666.53,-696.68 671.91,-699.44"/>
<polygon fill="#63b8ff" stroke="#63b8ff" points="577.99,-540.1 571.94,-531.4 571.24,-541.97 577.99,-540.1"/>
</a>
</g>
</g>
<!-- Node19 -->
<g id="Node000019" class="node">
<title>Node19</title>
<g id="a_Node000019"><a xlink:href="class_p4_1_1_i_r_1_1_vector.html" target="_top" xlink:title=" ">
<polygon fill="white" stroke="#bfbfbf" points="774,-680.5 672,-680.5 672,-650.5 774,-650.5 774,-680.5"/>
<text text-anchor="start" x="680" y="-668.5" font-family="Helvetica,sans-Serif" font-size="10.00">P4::IR::Vector&lt; IR</text>
<text text-anchor="middle" x="723" y="-657.5" font-family="Helvetica,sans-Serif" font-size="10.00">::Type &gt;</text>
</a>
</g>
</g>
<!-- Node1&#45;&gt;Node19 -->
<g id="edge18_Node000001_Node000019" class="edge">
<title>Node1&#45;&gt;Node19</title>
<g id="a_edge18_Node000001_Node000019"><a xlink:title=" ">
<path fill="none" stroke="#63b8ff" d="M578.65,-540.28C592.28,-566.45 620.32,-613.78 657,-641.5 661.51,-644.91 666.56,-647.88 671.79,-650.45"/>
<polygon fill="#63b8ff" stroke="#63b8ff" points="581.63,-538.42 573.99,-531.07 575.38,-541.58 581.63,-538.42"/>
</a>
</g>
</g>
<!-- Node20 -->
<g id="Node000020" class="node">
<title>Node20</title>
<g id="a_Node000020"><a xlink:href="class_p4_1_1_i_r_1_1_vector.html" target="_top" xlink:title=" ">
<polygon fill="white" stroke="#bfbfbf" points="774,-632.5 672,-632.5 672,-602.5 774,-602.5 774,-632.5"/>
<text text-anchor="start" x="680" y="-620.5" font-family="Helvetica,sans-Serif" font-size="10.00">P4::IR::Vector&lt; IR</text>
<text text-anchor="middle" x="723" y="-609.5" font-family="Helvetica,sans-Serif" font-size="10.00">::Argument &gt;</text>
</a>
</g>
</g>
<!-- Node1&#45;&gt;Node20 -->
<g id="edge19_Node000001_Node000020" class="edge">
<title>Node1&#45;&gt;Node20</title>
<g id="a_edge19_Node000001_Node000020"><a xlink:title=" ">
<path fill="none" stroke="#63b8ff" d="M586.26,-538.23C602.99,-554.19 630.02,-578.01 657,-593.5 662.74,-596.79 669.01,-599.78 675.32,-602.44"/>
<polygon fill="#63b8ff" stroke="#63b8ff" points="588.53,-535.56 578.92,-531.11 583.66,-540.58 588.53,-535.56"/>
</a>
</g>
</g>
<!-- Node21 -->
<g id="Node000021" class="node">
<title>Node21</title>
<g id="a_Node000021"><a xlink:href="class_p4_1_1_i_r_1_1_vector.html" target="_top" xlink:title=" ">
<polygon fill="white" stroke="#bfbfbf" points="774,-584.5 672,-584.5 672,-554.5 774,-554.5 774,-584.5"/>
<text text-anchor="start" x="680" y="-572.5" font-family="Helvetica,sans-Serif" font-size="10.00">P4::IR::Vector&lt; IR</text>
<text text-anchor="middle" x="723" y="-561.5" font-family="Helvetica,sans-Serif" font-size="10.00">::Declaration &gt;</text>
</a>
</g>
</g>
<!-- Node1&#45;&gt;Node21 -->
<g id="edge20_Node000001_Node000021" class="edge">
<title>Node1&#45;&gt;Node21</title>
<g id="a_edge20_Node000001_Node000021"><a xlink:title=" ">
<path fill="none" stroke="#63b8ff" d="M609.62,-534.13C629.41,-540.36 653.41,-547.91 674.14,-554.44"/>
<polygon fill="#63b8ff" stroke="#63b8ff" points="610.58,-530.76 599.99,-531.1 608.48,-537.44 610.58,-530.76"/>
</a>
</g>
</g>
<!-- Node23 -->
<g id="Node000023" class="node">
<title>Node23</title>
<g id="a_Node000023"><a xlink:href="class_p4_1_1_i_r_1_1_vector.html" target="_top" xlink:title=" ">
<polygon fill="white" stroke="#bfbfbf" points="789,-536.5 657,-536.5 657,-506.5 789,-506.5 789,-536.5"/>
<text text-anchor="start" x="665" y="-524.5" font-family="Helvetica,sans-Serif" font-size="10.00">P4::IR::Vector&lt; IR</text>
<text text-anchor="middle" x="723" y="-513.5" font-family="Helvetica,sans-Serif" font-size="10.00">::DpdkAsmStatement &gt;</text>
</a>
</g>
</g>
<!-- Node1&#45;&gt;Node23 -->
<g id="edge22_Node000001_Node000023" class="edge">
<title>Node1&#45;&gt;Node23</title>
<g id="a_edge22_Node000001_Node000023"><a xlink:title=" ">
<path fill="none" stroke="#63b8ff" d="M631.28,-521.5C639.72,-521.5 648.41,-521.5 656.9,-521.5"/>
<polygon fill="#63b8ff" stroke="#63b8ff" points="631.13,-518 621.13,-521.5 631.13,-525 631.13,-518"/>
</a>
</g>
</g>
<!-- Node25 -->
<g id="Node000025" class="node">
<title>Node25</title>
<g id="a_Node000025"><a xlink:href="class_p4_1_1_i_r_1_1_vector.html" target="_top" xlink:title=" ">
<polygon fill="white" stroke="#bfbfbf" points="774,-488.5 672,-488.5 672,-458.5 774,-458.5 774,-488.5"/>
<text text-anchor="start" x="680" y="-476.5" font-family="Helvetica,sans-Serif" font-size="10.00">P4::IR::Vector&lt; IR</text>
<text text-anchor="middle" x="723" y="-465.5" font-family="Helvetica,sans-Serif" font-size="10.00">::DpdkTable &gt;</text>
</a>
</g>
</g>
<!-- Node1&#45;&gt;Node25 -->
<g id="edge24_Node000001_Node000025" class="edge">
<title>Node1&#45;&gt;Node25</title>
<g id="a_edge24_Node000001_Node000025"><a xlink:title=" ">
<path fill="none" stroke="#63b8ff" d="M609.62,-508.87C629.41,-502.64 653.41,-495.09 674.14,-488.56"/>
<polygon fill="#63b8ff" stroke="#63b8ff" points="608.48,-505.56 599.99,-511.9 610.58,-512.24 608.48,-505.56"/>
</a>
</g>
</g>
<!-- Node27 -->
<g id="Node000027" class="node">
<title>Node27</title>
<g id="a_Node000027"><a xlink:href="class_p4_1_1_i_r_1_1_vector.html" target="_top" xlink:title=" ">
<polygon fill="white" stroke="#bfbfbf" points="774,-440.5 672,-440.5 672,-410.5 774,-410.5 774,-440.5"/>
<text text-anchor="start" x="680" y="-428.5" font-family="Helvetica,sans-Serif" font-size="10.00">P4::IR::Vector&lt; IR</text>
<text text-anchor="middle" x="723" y="-417.5" font-family="Helvetica,sans-Serif" font-size="10.00">::DpdkSelector &gt;</text>
</a>
</g>
</g>
<!-- Node1&#45;&gt;Node27 -->
<g id="edge26_Node000001_Node000027" class="edge">
<title>Node1&#45;&gt;Node27</title>
<g id="a_edge26_Node000001_Node000027"><a xlink:title=" ">
<path fill="none" stroke="#63b8ff" d="M586.26,-504.77C602.99,-488.81 630.02,-464.99 657,-449.5 662.74,-446.21 669.01,-443.22 675.32,-440.56"/>
<polygon fill="#63b8ff" stroke="#63b8ff" points="583.66,-502.42 578.92,-511.89 588.53,-507.44 583.66,-502.42"/>
</a>
</g>
</g>
<!-- Node29 -->
<g id="Node000029" class="node">
<title>Node29</title>
<g id="a_Node000029"><a xlink:href="class_p4_1_1_i_r_1_1_vector.html" target="_top" xlink:title=" ">
<polygon fill="white" stroke="#bfbfbf" points="774,-392.5 672,-392.5 672,-362.5 774,-362.5 774,-392.5"/>
<text text-anchor="start" x="680" y="-380.5" font-family="Helvetica,sans-Serif" font-size="10.00">P4::IR::Vector&lt; IR</text>
<text text-anchor="middle" x="723" y="-369.5" font-family="Helvetica,sans-Serif" font-size="10.00">::DpdkLearner &gt;</text>
</a>
</g>
</g>
<!-- Node1&#45;&gt;Node29 -->
<g id="edge28_Node000001_Node000029" class="edge">
<title>Node1&#45;&gt;Node29</title>
<g id="a_edge28_Node000001_Node000029"><a xlink:title=" ">
<path fill="none" stroke="#63b8ff" d="M578.65,-502.72C592.28,-476.55 620.32,-429.22 657,-401.5 661.51,-398.09 666.56,-395.12 671.79,-392.55"/>
<polygon fill="#63b8ff" stroke="#63b8ff" points="575.38,-501.42 573.99,-511.93 581.63,-504.58 575.38,-501.42"/>
</a>
</g>
</g>
<!-- Node31 -->
<g id="Node000031" class="node">
<title>Node31</title>
<g id="a_Node000031"><a xlink:href="class_p4_1_1_i_r_1_1_vector.html" target="_top" xlink:title=" ">
<polygon fill="white" stroke="#bfbfbf" points="774,-344.5 672,-344.5 672,-314.5 774,-314.5 774,-344.5"/>
<text text-anchor="start" x="680" y="-332.5" font-family="Helvetica,sans-Serif" font-size="10.00">P4::IR::Vector&lt; IR</text>
<text text-anchor="middle" x="723" y="-321.5" font-family="Helvetica,sans-Serif" font-size="10.00">::DpdkAction &gt;</text>
</a>
</g>
</g>
<!-- Node1&#45;&gt;Node31 -->
<g id="edge30_Node000001_Node000031" class="edge">
<title>Node1&#45;&gt;Node31</title>
<g id="a_edge30_Node000001_Node000031"><a xlink:title=" ">
<path fill="none" stroke="#63b8ff" d="M574.68,-501.72C584.76,-466.95 610.24,-394.69 657,-353.5 661.42,-349.6 666.53,-346.32 671.91,-343.56"/>
<polygon fill="#63b8ff" stroke="#63b8ff" points="571.24,-501.03 571.94,-511.6 577.99,-502.9 571.24,-501.03"/>
</a>
</g>
</g>
<!-- Node33 -->
<g id="Node000033" class="node">
<title>Node33</title>
<g id="a_Node000033"><a xlink:href="class_p4_1_1_i_r_1_1_vector.html" target="_top" xlink:title=" ">
<polygon fill="white" stroke="#bfbfbf" points="774,-296.5 672,-296.5 672,-266.5 774,-266.5 774,-296.5"/>
<text text-anchor="start" x="680" y="-284.5" font-family="Helvetica,sans-Serif" font-size="10.00">P4::IR::Vector&lt; IR</text>
<text text-anchor="middle" x="723" y="-273.5" font-family="Helvetica,sans-Serif" font-size="10.00">::Parameter &gt;</text>
</a>
</g>
</g>
<!-- Node1&#45;&gt;Node33 -->
<g id="edge32_Node000001_Node000033" class="edge">
<title>Node1&#45;&gt;Node33</title>
<g id="a_edge32_Node000001_Node000033"><a xlink:title=" ">
<path fill="none" stroke="#63b8ff" d="M572.09,-501.76C578.62,-459.84 599.52,-361.22 657,-305.5 661.32,-301.31 666.43,-297.85 671.86,-294.98"/>
<polygon fill="#63b8ff" stroke="#63b8ff" points="568.61,-501.38 570.64,-511.78 575.54,-502.39 568.61,-501.38"/>
</a>
</g>
</g>
<!-- Node35 -->
<g id="Node000035" class="node">
<title>Node35</title>
<g id="a_Node000035"><a xlink:href="class_p4_1_1_i_r_1_1_vector.html" target="_top" xlink:title=" ">
<polygon fill="white" stroke="#bfbfbf" points="781,-248.5 665,-248.5 665,-218.5 781,-218.5 781,-248.5"/>
<text text-anchor="start" x="673" y="-236.5" font-family="Helvetica,sans-Serif" font-size="10.00">P4::IR::Vector&lt; IR</text>
<text text-anchor="middle" x="723" y="-225.5" font-family="Helvetica,sans-Serif" font-size="10.00">::DpdkDeclaration &gt;</text>
</a>
</g>
</g>
<!-- Node1&#45;&gt;Node35 -->
<g id="edge34_Node000001_Node000035" class="edge">
<title>Node1&#45;&gt;Node35</title>
<g id="a_edge34_Node000001_Node000035"><a xlink:title=" ">
<path fill="none" stroke="#63b8ff" d="M570.4,-501.78C573.67,-453.51 588.64,-328.2 657,-257.5 660.34,-254.04 664.23,-251.08 668.41,-248.54"/>
<polygon fill="#63b8ff" stroke="#63b8ff" points="566.91,-501.65 569.82,-511.84 573.89,-502.06 566.91,-501.65"/>
</a>
</g>
</g>
<!-- Node37 -->
<g id="Node000037" class="node">
<title>Node37</title>
<g id="a_Node000037"><a xlink:href="class_p4_1_1_i_r_1_1_vector.html" target="_top" xlink:title=" ">
<polygon fill="white" stroke="#bfbfbf" points="774,-200.5 672,-200.5 672,-170.5 774,-170.5 774,-200.5"/>
<text text-anchor="start" x="680" y="-188.5" font-family="Helvetica,sans-Serif" font-size="10.00">P4::IR::Vector&lt; IR</text>
<text text-anchor="middle" x="723" y="-177.5" font-family="Helvetica,sans-Serif" font-size="10.00">::ParserState &gt;</text>
</a>
</g>
</g>
<!-- Node1&#45;&gt;Node37 -->
<g id="edge36_Node000001_Node000037" class="edge">
<title>Node1&#45;&gt;Node37</title>
<g id="a_edge36_Node000001_Node000037"><a xlink:title=" ">
<path fill="none" stroke="#63b8ff" d="M569.21,-501.59C569.5,-447.36 577.74,-295.39 657,-209.5 661.16,-204.99 666.24,-201.33 671.72,-198.35"/>
<polygon fill="#63b8ff" stroke="#63b8ff" points="565.71,-501.89 569.25,-511.88 572.71,-501.87 565.71,-501.89"/>
</a>
</g>
</g>
<!-- Node39 -->
<g id="Node000039" class="node">
<title>Node39</title>
<g id="a_Node000039"><a xlink:href="class_p4_1_1_i_r_1_1_vector.html" target="_top" xlink:title=" ">
<polygon fill="white" stroke="#bfbfbf" points="774,-152.5 672,-152.5 672,-122.5 774,-122.5 774,-152.5"/>
<text text-anchor="start" x="680" y="-140.5" font-family="Helvetica,sans-Serif" font-size="10.00">P4::IR::Vector&lt; IR</text>
<text text-anchor="middle" x="723" y="-129.5" font-family="Helvetica,sans-Serif" font-size="10.00">::SelectCase &gt;</text>
</a>
</g>
</g>
<!-- Node1&#45;&gt;Node39 -->
<g id="edge38_Node000001_Node000039" class="edge">
<title>Node1&#45;&gt;Node39</title>
<g id="a_edge38_Node000001_Node000039"><a xlink:title=" ">
<path fill="none" stroke="#63b8ff" d="M571.86,-501.68C580.27,-434.01 610.79,-213.37 657,-161.5 661.16,-156.83 666.31,-153.07 671.88,-150.03"/>
<polygon fill="#63b8ff" stroke="#63b8ff" points="568.36,-501.48 570.62,-511.83 575.3,-502.33 568.36,-501.48"/>
</a>
</g>
</g>
<!-- Node40 -->
<g id="Node000040" class="node">
<title>Node40</title>
<g id="a_Node000040"><a xlink:href="class_p4_1_1_i_r_1_1_vector.html" target="_top" xlink:title=" ">
<polygon fill="white" stroke="#bfbfbf" points="774,-104.5 672,-104.5 672,-74.5 774,-74.5 774,-104.5"/>
<text text-anchor="start" x="680" y="-92.5" font-family="Helvetica,sans-Serif" font-size="10.00">P4::IR::Vector&lt; IR</text>
<text text-anchor="middle" x="723" y="-81.5" font-family="Helvetica,sans-Serif" font-size="10.00">::StatOrDecl &gt;</text>
</a>
</g>
</g>
<!-- Node1&#45;&gt;Node40 -->
<g id="edge39_Node000001_Node000040" class="edge">
<title>Node1&#45;&gt;Node40</title>
<g id="a_edge39_Node000001_Node000040"><a xlink:title=" ">
<path fill="none" stroke="#63b8ff" d="M571.26,-501.47C578.11,-427.83 605.2,-173.26 657,-113.5 661.1,-108.77 666.21,-104.98 671.76,-101.93"/>
<polygon fill="#63b8ff" stroke="#63b8ff" points="567.75,-501.4 570.34,-511.68 574.73,-502.03 567.75,-501.4"/>
</a>
</g>
</g>
<!-- Node42 -->
<g id="Node000042" class="node">
<title>Node42</title>
<g id="a_Node000042"><a xlink:href="class_p4_1_1_i_r_1_1_vector.html" target="_top" xlink:title=" ">
<polygon fill="white" stroke="#bfbfbf" points="778.5,-56 667.5,-56 667.5,-37 778.5,-37 778.5,-56"/>
<text text-anchor="middle" x="723" y="-44" font-family="Helvetica,sans-Serif" font-size="10.00">P4::IR::Vector&lt; N &gt;</text>
</a>
</g>
</g>
<!-- Node1&#45;&gt;Node42 -->
<g id="edge41_Node000001_Node000042" class="edge">
<title>Node1&#45;&gt;Node42</title>
<g id="a_edge41_Node000001_Node000042"><a xlink:title=" ">
<path fill="none" stroke="#63b8ff" d="M570.62,-501.58C575.47,-422.43 597.16,-131.29 657,-65.5 660.48,-61.67 664.68,-58.6 669.26,-56.14"/>
<polygon fill="#63b8ff" stroke="#63b8ff" points="567.12,-501.48 570.03,-511.67 574.11,-501.89 567.12,-501.48"/>
</a>
</g>
</g>
<!-- Node43 -->
<g id="Node000043" class="node">
<title>Node43</title>
<g id="a_Node000043"><a xlink:href="class_p4_1_1_i_r_1_1_vector.html" target="_top" xlink:title=" ">
<polygon fill="white" stroke="#bfbfbf" points="778,-19 668,-19 668,0 778,0 778,-19"/>
<text text-anchor="middle" x="723" y="-7" font-family="Helvetica,sans-Serif" font-size="10.00">P4::IR::Vector&lt; T &gt;</text>
</a>
</g>
</g>
<!-- Node1&#45;&gt;Node43 -->
<g id="edge42_Node000001_Node000043" class="edge">
<title>Node1&#45;&gt;Node43</title>
<g id="a_edge42_Node000001_Node000043"><a xlink:title=" ">
<path fill="none" stroke="#63b8ff" d="M570.28,-501.52C573.91,-418.15 591.94,-99.04 657,-27.5 660.15,-24.03 663.9,-21.21 667.99,-18.92"/>
<polygon fill="#63b8ff" stroke="#63b8ff" points="566.77,-501.53 569.85,-511.67 573.77,-501.82 566.77,-501.53"/>
</a>
</g>
</g>
<!-- Node2 -->
<g id="Node000002" class="node">
<title>Node2</title>
<g id="a_Node000002"><a xlink:href="class_p4_1_1_i_r_1_1_node.html" target="_top" xlink:title=" ">
<polygon fill="white" stroke="#bfbfbf" points="480,-531 404,-531 404,-512 480,-512 480,-531"/>
<text text-anchor="middle" x="442" y="-519" font-family="Helvetica,sans-Serif" font-size="10.00">P4::IR::Node</text>
</a>
</g>
</g>
<!-- Node2&#45;&gt;Node1 -->
<g id="edge1_Node000001_Node000002" class="edge">
<title>Node2&#45;&gt;Node1</title>
<g id="a_edge1_Node000001_Node000002"><a xlink:title=" ">
<path fill="none" stroke="#63b8ff" d="M490.27,-521.5C498.57,-521.5 507.24,-521.5 515.65,-521.5"/>
<polygon fill="#63b8ff" stroke="#63b8ff" points="490.02,-518 480.02,-521.5 490.02,-525 490.02,-518"/>
</a>
</g>
</g>
<!-- Node3 -->
<g id="Node000003" class="node">
<title>Node3</title>
<g id="a_Node000003"><a xlink:href="class_p4_1_1_i_r_1_1_i_node.html" target="_top" xlink:title=" ">
<polygon fill="white" stroke="#bfbfbf" points="368,-531 289,-531 289,-512 368,-512 368,-531"/>
<text text-anchor="middle" x="328.5" y="-519" font-family="Helvetica,sans-Serif" font-size="10.00">P4::IR::INode</text>
</a>
</g>
</g>
<!-- Node3&#45;&gt;Node2 -->
<g id="edge2_Node000002_Node000003" class="edge">
<title>Node3&#45;&gt;Node2</title>
<g id="a_edge2_Node000002_Node000003"><a xlink:title=" ">
<path fill="none" stroke="#63b8ff" d="M378.44,-521.5C386.98,-521.5 395.73,-521.5 403.89,-521.5"/>
<polygon fill="#63b8ff" stroke="#63b8ff" points="378.18,-518 368.18,-521.5 378.18,-525 378.18,-518"/>
</a>
</g>
</g>
<!-- Node4 -->
<g id="Node000004" class="node">
<title>Node4</title>
<g id="a_Node000004"><a xlink:href="class_p4_1_1_util_1_1_i_has_source_info.html" target="_top" xlink:title=" ">
<polygon fill="white" stroke="#bfbfbf" points="253,-568 122,-568 122,-549 253,-549 253,-568"/>
<text text-anchor="middle" x="187.5" y="-556" font-family="Helvetica,sans-Serif" font-size="10.00">P4::Util::IHasSourceInfo</text>
</a>
</g>
</g>
<!-- Node4&#45;&gt;Node3 -->
<g id="edge3_Node000003_Node000004" class="edge">
<title>Node4&#45;&gt;Node3</title>
<g id="a_edge3_Node000003_Node000004"><a xlink:title=" ">
<path fill="none" stroke="#63b8ff" d="M234.03,-546.38C252.63,-541.43 273.84,-535.78 291.34,-531.12"/>
<polygon fill="#63b8ff" stroke="#63b8ff" points="233.06,-543.02 224.3,-548.97 234.86,-549.78 233.06,-543.02"/>
</a>
</g>
</g>
<!-- Node5 -->
<g id="Node000005" class="node">
<title>Node5</title>
<g id="a_Node000005"><a xlink:href="class_p4_1_1_i_has_db_print.html" target="_top" xlink:title=" ">
<polygon fill="white" stroke="#bfbfbf" points="233.5,-531 141.5,-531 141.5,-512 233.5,-512 233.5,-531"/>
<text text-anchor="middle" x="187.5" y="-519" font-family="Helvetica,sans-Serif" font-size="10.00">P4::IHasDbPrint</text>
</a>
</g>
</g>
<!-- Node5&#45;&gt;Node3 -->
<g id="edge4_Node000003_Node000005" class="edge">
<title>Node5&#45;&gt;Node3</title>
<g id="a_edge4_Node000003_Node000005"><a xlink:title=" ">
<path fill="none" stroke="#63b8ff" d="M243.84,-521.5C258.85,-521.5 274.78,-521.5 288.67,-521.5"/>
<polygon fill="#63b8ff" stroke="#63b8ff" points="243.63,-518 233.63,-521.5 243.63,-525 243.63,-518"/>
</a>
</g>
</g>
<!-- Node6 -->
<g id="Node000006" class="node">
<title>Node6</title>
<g id="a_Node000006"><a xlink:href="class_p4_1_1_i_castable.html" target="_top" xlink:title=" ">
<polygon fill="white" stroke="#666666" points="227.5,-494 147.5,-494 147.5,-475 227.5,-475 227.5,-494"/>
<text text-anchor="middle" x="187.5" y="-482" font-family="Helvetica,sans-Serif" font-size="10.00">P4::ICastable</text>
</a>
</g>
</g>
<!-- Node6&#45;&gt;Node3 -->
<g id="edge5_Node000003_Node000006" class="edge">
<title>Node6&#45;&gt;Node3</title>
<g id="a_edge5_Node000003_Node000006"><a xlink:title=" ">
<path fill="none" stroke="#63b8ff" d="M234.03,-496.62C252.63,-501.57 273.84,-507.22 291.34,-511.88"/>
<polygon fill="#63b8ff" stroke="#63b8ff" points="234.86,-493.22 224.3,-494.03 233.06,-499.98 234.86,-493.22"/>
</a>
</g>
</g>
<!-- Node7 -->
<g id="Node000007" class="node">
<title>Node7</title>
<g id="a_Node000007"><a xlink:href="struct_p4_1_1_r_t_t_i_1_1_base.html" target="_top" xlink:title=" ">
<polygon fill="white" stroke="#bfbfbf" points="86,-494 0,-494 0,-475 86,-475 86,-494"/>
<text text-anchor="middle" x="43" y="-482" font-family="Helvetica,sans-Serif" font-size="10.00">P4::RTTI::Base</text>
</a>
</g>
</g>
<!-- Node7&#45;&gt;Node6 -->
<g id="edge6_Node000006_Node000007" class="edge">
<title>Node7&#45;&gt;Node6</title>
<g id="a_edge6_Node000006_Node000007"><a xlink:title=" ">
<path fill="none" stroke="#63b8ff" d="M96.62,-484.5C113.45,-484.5 131.77,-484.5 147.46,-484.5"/>
<polygon fill="#63b8ff" stroke="#63b8ff" points="96.37,-481 86.37,-484.5 96.37,-488 96.37,-481"/>
</a>
</g>
</g>
<!-- Node12 -->
<g id="Node000012" class="node">
<title>Node12</title>
<g id="a_Node000012"><a xlink:href="class_p4_1_1_i_r_1_1_indexed_vector.html" target="_top" xlink:title=" ">
<polygon fill="white" stroke="#666666" points="973,-920.5 830,-920.5 830,-890.5 973,-890.5 973,-920.5"/>
<text text-anchor="start" x="838" y="-908.5" font-family="Helvetica,sans-Serif" font-size="10.00">P4::IR::IndexedVector</text>
<text text-anchor="middle" x="901.5" y="-897.5" font-family="Helvetica,sans-Serif" font-size="10.00">&lt; IR::NamedExpression &gt;</text>
</a>
</g>
</g>
<!-- Node11&#45;&gt;Node12 -->
<g id="edge11_Node000011_Node000012" class="edge">
<title>Node11&#45;&gt;Node12</title>
<g id="a_edge11_Node000011_Node000012"><a xlink:title=" ">
<path fill="none" stroke="#63b8ff" d="M794.38,-905.5C806.07,-905.5 818.19,-905.5 829.88,-905.5"/>
<polygon fill="#63b8ff" stroke="#63b8ff" points="794.25,-902 784.25,-905.5 794.25,-909 794.25,-902"/>
</a>
</g>
</g>
<!-- Node15 -->
<g id="Node000015" class="node">
<title>Node15</title>
<g id="a_Node000015"><a xlink:href="class_p4_1_1_i_r_1_1_indexed_vector.html" target="_top" xlink:title=" ">
<polygon fill="white" stroke="#666666" points="961,-824.5 842,-824.5 842,-794.5 961,-794.5 961,-824.5"/>
<text text-anchor="start" x="850" y="-812.5" font-family="Helvetica,sans-Serif" font-size="10.00">P4::IR::IndexedVector</text>
<text text-anchor="middle" x="901.5" y="-801.5" font-family="Helvetica,sans-Serif" font-size="10.00">&lt; P4::IR::Node &gt;</text>
</a>
</g>
</g>
<!-- Node14&#45;&gt;Node15 -->
<g id="edge14_Node000014_Node000015" class="edge">
<title>Node14&#45;&gt;Node15</title>
<g id="a_edge14_Node000014_Node000015"><a xlink:title=" ">
<path fill="none" stroke="#63b8ff" d="M785.06,-809.5C803.44,-809.5 823.57,-809.5 841.79,-809.5"/>
<polygon fill="#63b8ff" stroke="#63b8ff" points="785.05,-806 775.05,-809.5 785.05,-813 785.05,-806"/>
</a>
</g>
</g>
<!-- Node17 -->
<g id="Node000017" class="node">
<title>Node17</title>
<g id="a_Node000017"><a xlink:href="class_p4_1_1_i_r_1_1_indexed_vector.html" target="_top" xlink:title=" ">
<polygon fill="white" stroke="#666666" points="961,-776.5 842,-776.5 842,-746.5 961,-746.5 961,-776.5"/>
<text text-anchor="start" x="850" y="-764.5" font-family="Helvetica,sans-Serif" font-size="10.00">P4::IR::IndexedVector</text>
<text text-anchor="middle" x="901.5" y="-753.5" font-family="Helvetica,sans-Serif" font-size="10.00">&lt; IR::StructField &gt;</text>
</a>
</g>
</g>
<!-- Node16&#45;&gt;Node17 -->
<g id="edge16_Node000016_Node000017" class="edge">
<title>Node16&#45;&gt;Node17</title>
<g id="a_edge16_Node000016_Node000017"><a xlink:title=" ">
<path fill="none" stroke="#63b8ff" d="M784.23,-761.5C802.85,-761.5 823.33,-761.5 841.84,-761.5"/>
<polygon fill="#63b8ff" stroke="#63b8ff" points="784.11,-758 774.11,-761.5 784.11,-765 784.11,-758"/>
</a>
</g>
</g>
<!-- Node22 -->
<g id="Node000022" class="node">
<title>Node22</title>
<g id="a_Node000022"><a xlink:href="class_p4_1_1_i_r_1_1_indexed_vector.html" target="_top" xlink:title=" ">
<polygon fill="white" stroke="#666666" points="961,-584.5 842,-584.5 842,-554.5 961,-554.5 961,-584.5"/>
<text text-anchor="start" x="850" y="-572.5" font-family="Helvetica,sans-Serif" font-size="10.00">P4::IR::IndexedVector</text>
<text text-anchor="middle" x="901.5" y="-561.5" font-family="Helvetica,sans-Serif" font-size="10.00">&lt; IR::Declaration &gt;</text>
</a>
</g>
</g>
<!-- Node21&#45;&gt;Node22 -->
<g id="edge21_Node000021_Node000022" class="edge">
<title>Node21&#45;&gt;Node22</title>
<g id="a_edge21_Node000021_Node000022"><a xlink:title=" ">
<path fill="none" stroke="#63b8ff" d="M784.23,-569.5C802.85,-569.5 823.33,-569.5 841.84,-569.5"/>
<polygon fill="#63b8ff" stroke="#63b8ff" points="784.11,-566 774.11,-569.5 784.11,-573 784.11,-566"/>
</a>
</g>
</g>
<!-- Node24 -->
<g id="Node000024" class="node">
<title>Node24</title>
<g id="a_Node000024"><a xlink:href="class_p4_1_1_i_r_1_1_indexed_vector.html" target="_top" xlink:title=" ">
<polygon fill="white" stroke="#666666" points="978,-536.5 825,-536.5 825,-506.5 978,-506.5 978,-536.5"/>
<text text-anchor="start" x="833" y="-524.5" font-family="Helvetica,sans-Serif" font-size="10.00">P4::IR::IndexedVector</text>
<text text-anchor="middle" x="901.5" y="-513.5" font-family="Helvetica,sans-Serif" font-size="10.00">&lt; IR::DpdkAsmStatement &gt;</text>
</a>
</g>
</g>
<!-- Node23&#45;&gt;Node24 -->
<g id="edge23_Node000023_Node000024" class="edge">
<title>Node23&#45;&gt;Node24</title>
<g id="a_edge23_Node000023_Node000024"><a xlink:title=" ">
<path fill="none" stroke="#63b8ff" d="M799.39,-521.5C807.81,-521.5 816.39,-521.5 824.81,-521.5"/>
<polygon fill="#63b8ff" stroke="#63b8ff" points="799.22,-518 789.22,-521.5 799.22,-525 799.22,-518"/>
</a>
</g>
</g>
<!-- Node26 -->
<g id="Node000026" class="node">
<title>Node26</title>
<g id="a_Node000026"><a xlink:href="class_p4_1_1_i_r_1_1_indexed_vector.html" target="_top" xlink:title=" ">
<polygon fill="white" stroke="#666666" points="961,-488.5 842,-488.5 842,-458.5 961,-458.5 961,-488.5"/>
<text text-anchor="start" x="850" y="-476.5" font-family="Helvetica,sans-Serif" font-size="10.00">P4::IR::IndexedVector</text>
<text text-anchor="middle" x="901.5" y="-465.5" font-family="Helvetica,sans-Serif" font-size="10.00">&lt; IR::DpdkTable &gt;</text>
</a>
</g>
</g>
<!-- Node25&#45;&gt;Node26 -->
<g id="edge25_Node000025_Node000026" class="edge">
<title>Node25&#45;&gt;Node26</title>
<g id="a_edge25_Node000025_Node000026"><a xlink:title=" ">
<path fill="none" stroke="#63b8ff" d="M784.23,-473.5C802.85,-473.5 823.33,-473.5 841.84,-473.5"/>
<polygon fill="#63b8ff" stroke="#63b8ff" points="784.11,-470 774.11,-473.5 784.11,-477 784.11,-470"/>
</a>
</g>
</g>
<!-- Node28 -->
<g id="Node000028" class="node">
<title>Node28</title>
<g id="a_Node000028"><a xlink:href="class_p4_1_1_i_r_1_1_indexed_vector.html" target="_top" xlink:title=" ">
<polygon fill="white" stroke="#666666" points="961.5,-440.5 841.5,-440.5 841.5,-410.5 961.5,-410.5 961.5,-440.5"/>
<text text-anchor="start" x="849.5" y="-428.5" font-family="Helvetica,sans-Serif" font-size="10.00">P4::IR::IndexedVector</text>
<text text-anchor="middle" x="901.5" y="-417.5" font-family="Helvetica,sans-Serif" font-size="10.00">&lt; IR::DpdkSelector &gt;</text>
</a>
</g>
</g>
<!-- Node27&#45;&gt;Node28 -->
<g id="edge27_Node000027_Node000028" class="edge">
<title>Node27&#45;&gt;Node28</title>
<g id="a_edge27_Node000027_Node000028"><a xlink:title=" ">
<path fill="none" stroke="#63b8ff" d="M784.13,-425.5C802.57,-425.5 822.83,-425.5 841.2,-425.5"/>
<polygon fill="#63b8ff" stroke="#63b8ff" points="784.11,-422 774.11,-425.5 784.11,-429 784.11,-422"/>
</a>
</g>
</g>
<!-- Node30 -->
<g id="Node000030" class="node">
<title>Node30</title>
<g id="a_Node000030"><a xlink:href="class_p4_1_1_i_r_1_1_indexed_vector.html" target="_top" xlink:title=" ">
<polygon fill="white" stroke="#666666" points="961,-392.5 842,-392.5 842,-362.5 961,-362.5 961,-392.5"/>
<text text-anchor="start" x="850" y="-380.5" font-family="Helvetica,sans-Serif" font-size="10.00">P4::IR::IndexedVector</text>
<text text-anchor="middle" x="901.5" y="-369.5" font-family="Helvetica,sans-Serif" font-size="10.00">&lt; IR::DpdkLearner &gt;</text>
</a>
</g>
</g>
<!-- Node29&#45;&gt;Node30 -->
<g id="edge29_Node000029_Node000030" class="edge">
<title>Node29&#45;&gt;Node30</title>
<g id="a_edge29_Node000029_Node000030"><a xlink:title=" ">
<path fill="none" stroke="#63b8ff" d="M784.23,-377.5C802.85,-377.5 823.33,-377.5 841.84,-377.5"/>
<polygon fill="#63b8ff" stroke="#63b8ff" points="784.11,-374 774.11,-377.5 784.11,-381 784.11,-374"/>
</a>
</g>
</g>
<!-- Node32 -->
<g id="Node000032" class="node">
<title>Node32</title>
<g id="a_Node000032"><a xlink:href="class_p4_1_1_i_r_1_1_indexed_vector.html" target="_top" xlink:title=" ">
<polygon fill="white" stroke="#666666" points="961,-344.5 842,-344.5 842,-314.5 961,-314.5 961,-344.5"/>
<text text-anchor="start" x="850" y="-332.5" font-family="Helvetica,sans-Serif" font-size="10.00">P4::IR::IndexedVector</text>
<text text-anchor="middle" x="901.5" y="-321.5" font-family="Helvetica,sans-Serif" font-size="10.00">&lt; IR::DpdkAction &gt;</text>
</a>
</g>
</g>
<!-- Node31&#45;&gt;Node32 -->
<g id="edge31_Node000031_Node000032" class="edge">
<title>Node31&#45;&gt;Node32</title>
<g id="a_edge31_Node000031_Node000032"><a xlink:title=" ">
<path fill="none" stroke="#63b8ff" d="M784.23,-329.5C802.85,-329.5 823.33,-329.5 841.84,-329.5"/>
<polygon fill="#63b8ff" stroke="#63b8ff" points="784.11,-326 774.11,-329.5 784.11,-333 784.11,-326"/>
</a>
</g>
</g>
<!-- Node34 -->
<g id="Node000034" class="node">
<title>Node34</title>
<g id="a_Node000034"><a xlink:href="class_p4_1_1_i_r_1_1_indexed_vector.html" target="_top" xlink:title=" ">
<polygon fill="white" stroke="#666666" points="961,-296.5 842,-296.5 842,-266.5 961,-266.5 961,-296.5"/>
<text text-anchor="start" x="850" y="-284.5" font-family="Helvetica,sans-Serif" font-size="10.00">P4::IR::IndexedVector</text>
<text text-anchor="middle" x="901.5" y="-273.5" font-family="Helvetica,sans-Serif" font-size="10.00">&lt; IR::Parameter &gt;</text>
</a>
</g>
</g>
<!-- Node33&#45;&gt;Node34 -->
<g id="edge33_Node000033_Node000034" class="edge">
<title>Node33&#45;&gt;Node34</title>
<g id="a_edge33_Node000033_Node000034"><a xlink:title=" ">
<path fill="none" stroke="#63b8ff" d="M784.23,-281.5C802.85,-281.5 823.33,-281.5 841.84,-281.5"/>
<polygon fill="#63b8ff" stroke="#63b8ff" points="784.11,-278 774.11,-281.5 784.11,-285 784.11,-278"/>
</a>
</g>
</g>
<!-- Node36 -->
<g id="Node000036" class="node">
<title>Node36</title>
<g id="a_Node000036"><a xlink:href="class_p4_1_1_i_r_1_1_indexed_vector.html" target="_top" xlink:title=" ">
<polygon fill="white" stroke="#666666" points="970,-248.5 833,-248.5 833,-218.5 970,-218.5 970,-248.5"/>
<text text-anchor="start" x="841" y="-236.5" font-family="Helvetica,sans-Serif" font-size="10.00">P4::IR::IndexedVector</text>
<text text-anchor="middle" x="901.5" y="-225.5" font-family="Helvetica,sans-Serif" font-size="10.00">&lt; IR::DpdkDeclaration &gt;</text>
</a>
</g>
</g>
<!-- Node35&#45;&gt;Node36 -->
<g id="edge35_Node000035_Node000036" class="edge">
<title>Node35&#45;&gt;Node36</title>
<g id="a_edge35_Node000035_Node000036"><a xlink:title=" ">
<path fill="none" stroke="#63b8ff" d="M791.48,-233.5C805,-233.5 819.2,-233.5 832.72,-233.5"/>
<polygon fill="#63b8ff" stroke="#63b8ff" points="791.3,-230 781.3,-233.5 791.3,-237 791.3,-230"/>
</a>
</g>
</g>
<!-- Node38 -->
<g id="Node000038" class="node">
<title>Node38</title>
<g id="a_Node000038"><a xlink:href="class_p4_1_1_i_r_1_1_indexed_vector.html" target="_top" xlink:title=" ">
<polygon fill="white" stroke="#666666" points="961,-200.5 842,-200.5 842,-170.5 961,-170.5 961,-200.5"/>
<text text-anchor="start" x="850" y="-188.5" font-family="Helvetica,sans-Serif" font-size="10.00">P4::IR::IndexedVector</text>
<text text-anchor="middle" x="901.5" y="-177.5" font-family="Helvetica,sans-Serif" font-size="10.00">&lt; IR::ParserState &gt;</text>
</a>
</g>
</g>
<!-- Node37&#45;&gt;Node38 -->
<g id="edge37_Node000037_Node000038" class="edge">
<title>Node37&#45;&gt;Node38</title>
<g id="a_edge37_Node000037_Node000038"><a xlink:title=" ">
<path fill="none" stroke="#63b8ff" d="M784.23,-185.5C802.85,-185.5 823.33,-185.5 841.84,-185.5"/>
<polygon fill="#63b8ff" stroke="#63b8ff" points="784.11,-182 774.11,-185.5 784.11,-189 784.11,-182"/>
</a>
</g>
</g>
<!-- Node41 -->
<g id="Node000041" class="node">
<title>Node41</title>
<g id="a_Node000041"><a xlink:href="class_p4_1_1_i_r_1_1_indexed_vector.html" target="_top" xlink:title=" ">
<polygon fill="white" stroke="#666666" points="961,-104.5 842,-104.5 842,-74.5 961,-74.5 961,-104.5"/>
<text text-anchor="start" x="850" y="-92.5" font-family="Helvetica,sans-Serif" font-size="10.00">P4::IR::IndexedVector</text>
<text text-anchor="middle" x="901.5" y="-81.5" font-family="Helvetica,sans-Serif" font-size="10.00">&lt; IR::StatOrDecl &gt;</text>
</a>
</g>
</g>
<!-- Node40&#45;&gt;Node41 -->
<g id="edge40_Node000040_Node000041" class="edge">
<title>Node40&#45;&gt;Node41</title>
<g id="a_edge40_Node000040_Node000041"><a xlink:title=" ">
<path fill="none" stroke="#63b8ff" d="M784.23,-89.5C802.85,-89.5 823.33,-89.5 841.84,-89.5"/>
<polygon fill="#63b8ff" stroke="#63b8ff" points="784.11,-86 774.11,-89.5 784.11,-93 784.11,-86"/>
</a>
</g>
</g>
<!-- Node44 -->
<g id="Node000044" class="node">
<title>Node44</title>
<g id="a_Node000044"><a xlink:href="class_p4_1_1_i_r_1_1_indexed_vector.html" target="_top" xlink:title=" ">
<polygon fill="white" stroke="#666666" points="975.5,-19 827.5,-19 827.5,0 975.5,0 975.5,-19"/>
<text text-anchor="middle" x="901.5" y="-7" font-family="Helvetica,sans-Serif" font-size="10.00">P4::IR::IndexedVector&lt; T &gt;</text>
</a>
</g>
</g>
<!-- Node43&#45;&gt;Node44 -->
<g id="edge43_Node000043_Node000044" class="edge">
<title>Node43&#45;&gt;Node44</title>
<g id="a_edge43_Node000043_Node000044"><a xlink:title=" ">
<path fill="none" stroke="#63b8ff" d="M788.4,-9.5C801.09,-9.5 814.49,-9.5 827.45,-9.5"/>
<polygon fill="#63b8ff" stroke="#63b8ff" points="788.4,-6 778.4,-9.5 788.4,-13 788.4,-6"/>
</a>
</g>
</g>
</g>
</svg>
