<?xml version="1.0" encoding="UTF-8" standalone="no"?>
<!DOCTYPE svg PUBLIC "-//W3C//DTD SVG 1.1//EN"
 "http://www.w3.org/Graphics/SVG/1.1/DTD/svg11.dtd">
<!-- Generated by graphviz version 2.43.0 (0)
 -->
<!-- Title: P4::P4CContext Pages: 1 -->
<svg width="617pt" height="662pt"
 viewBox="0.00 0.00 617.00 662.00" xmlns="http://www.w3.org/2000/svg" xmlns:xlink="http://www.w3.org/1999/xlink">
<g id="graph0" class="graph" transform="scale(1 1) rotate(0) translate(4 658)">
<title>P4::P4CContext</title>
<!-- Node1 -->
<g id="Node000001" class="node">
<title>Node1</title>
<g id="a_Node000001"><a xlink:title=" ">
<polygon fill="#999999" stroke="#666666" points="417,-336.5 325,-336.5 325,-317.5 417,-317.5 417,-336.5"/>
<text text-anchor="middle" x="371" y="-324.5" font-family="Helvetica,sans-Serif" font-size="10.00">P4::P4CContext</text>
</a>
</g>
</g>
<!-- Node4 -->
<g id="Node000004" class="node">
<title>Node4</title>
<g id="a_Node000004"><a xlink:href="class_p4_1_1_p4_c_context_with_options.html" target="_top" xlink:title=" ">
<polygon fill="white" stroke="#666666" points="607,-654 455,-654 455,-624 607,-624 607,-654"/>
<text text-anchor="start" x="463" y="-642" font-family="Helvetica,sans-Serif" font-size="10.00">P4::P4CContextWithOptions</text>
<text text-anchor="middle" x="531" y="-631" font-family="Helvetica,sans-Serif" font-size="10.00">&lt; BMV2Options &gt;</text>
</a>
</g>
</g>
<!-- Node1&#45;&gt;Node4 -->
<g id="edge3_Node000001_Node000004" class="edge">
<title>Node1&#45;&gt;Node4</title>
<g id="a_edge3_Node000001_Node000004"><a xlink:title=" ">
<path fill="none" stroke="#63b8ff" d="M371.53,-346.6C371.39,-398.02 378.27,-538.15 453,-615 456.32,-618.41 460.11,-621.34 464.2,-623.86"/>
<polygon fill="#63b8ff" stroke="#63b8ff" points="375.03,-346.56 371.65,-336.52 368.03,-346.47 375.03,-346.56"/>
</a>
</g>
</g>
<!-- Node5 -->
<g id="Node000005" class="node">
<title>Node5</title>
<g id="a_Node000005"><a xlink:href="class_p4_1_1_p4_c_context_with_options.html" target="_top" xlink:title=" ">
<polygon fill="white" stroke="#666666" points="607,-606 455,-606 455,-576 607,-576 607,-606"/>
<text text-anchor="start" x="463" y="-594" font-family="Helvetica,sans-Serif" font-size="10.00">P4::P4CContextWithOptions</text>
<text text-anchor="middle" x="531" y="-583" font-family="Helvetica,sans-Serif" font-size="10.00">&lt; PnaNicOptions &gt;</text>
</a>
</g>
</g>
<!-- Node1&#45;&gt;Node5 -->
<g id="edge4_Node000001_Node000005" class="edge">
<title>Node1&#45;&gt;Node5</title>
<g id="a_edge4_Node000001_Node000005"><a xlink:title=" ">
<path fill="none" stroke="#63b8ff" d="M372.86,-346.94C375.9,-392.54 389.78,-505.24 453,-567 456.51,-570.42 460.49,-573.36 464.76,-575.88"/>
<polygon fill="#63b8ff" stroke="#63b8ff" points="376.35,-346.65 372.29,-336.87 369.36,-347.05 376.35,-346.65"/>
</a>
</g>
</g>
<!-- Node6 -->
<g id="Node000006" class="node">
<title>Node6</title>
<g id="a_Node000006"><a xlink:href="class_p4_1_1_p4_c_context_with_options.html" target="_top" xlink:title=" ">
<polygon fill="white" stroke="#666666" points="607,-558 455,-558 455,-528 607,-528 607,-558"/>
<text text-anchor="start" x="463" y="-546" font-family="Helvetica,sans-Serif" font-size="10.00">P4::P4CContextWithOptions</text>
<text text-anchor="middle" x="531" y="-535" font-family="Helvetica,sans-Serif" font-size="10.00">&lt; PsaSwitchOptions &gt;</text>
</a>
</g>
</g>
<!-- Node1&#45;&gt;Node6 -->
<g id="edge5_Node000001_Node000006" class="edge">
<title>Node1&#45;&gt;Node6</title>
<g id="a_edge5_Node000001_Node000006"><a xlink:title=" ">
<path fill="none" stroke="#63b8ff" d="M374.73,-346.57C381.15,-385.21 400.81,-471.65 453,-519 456.73,-522.39 460.94,-525.3 465.41,-527.8"/>
<polygon fill="#63b8ff" stroke="#63b8ff" points="378.18,-345.96 373.2,-336.61 371.26,-347.02 378.18,-345.96"/>
</a>
</g>
</g>
<!-- Node7 -->
<g id="Node000007" class="node">
<title>Node7</title>
<g id="a_Node000007"><a xlink:href="class_p4_1_1_p4_c_context_with_options.html" target="_top" xlink:title=" ">
<polygon fill="white" stroke="#666666" points="607,-510 455,-510 455,-480 607,-480 607,-510"/>
<text text-anchor="start" x="463" y="-498" font-family="Helvetica,sans-Serif" font-size="10.00">P4::P4CContextWithOptions</text>
<text text-anchor="middle" x="531" y="-487" font-family="Helvetica,sans-Serif" font-size="10.00">&lt; SimpleSwitchOptions &gt;</text>
</a>
</g>
</g>
<!-- Node1&#45;&gt;Node7 -->
<g id="edge6_Node000001_Node000007" class="edge">
<title>Node1&#45;&gt;Node7</title>
<g id="a_edge6_Node000001_Node000007"><a xlink:title=" ">
<path fill="none" stroke="#63b8ff" d="M377.69,-346.3C387.77,-377.17 411.71,-437.59 453,-471 457.25,-474.43 461.98,-477.38 466.97,-479.91"/>
<polygon fill="#63b8ff" stroke="#63b8ff" points="381.01,-345.21 374.69,-336.7 374.33,-347.29 381.01,-345.21"/>
</a>
</g>
</g>
<!-- Node8 -->
<g id="Node000008" class="node">
<title>Node8</title>
<g id="a_Node000008"><a xlink:href="class_p4_1_1_p4_c_context_with_options.html" target="_top" xlink:title=" ">
<polygon fill="white" stroke="#666666" points="607,-462 455,-462 455,-432 607,-432 607,-462"/>
<text text-anchor="start" x="463" y="-450" font-family="Helvetica,sans-Serif" font-size="10.00">P4::P4CContextWithOptions</text>
<text text-anchor="middle" x="531" y="-439" font-family="Helvetica,sans-Serif" font-size="10.00">&lt; DpdkOptions &gt;</text>
</a>
</g>
</g>
<!-- Node1&#45;&gt;Node8 -->
<g id="edge7_Node000001_Node000008" class="edge">
<title>Node1&#45;&gt;Node8</title>
<g id="a_edge7_Node000001_Node000008"><a xlink:title=" ">
<path fill="none" stroke="#63b8ff" d="M382.86,-345.33C396.57,-366.95 422.14,-402.51 453,-423 458.13,-426.41 463.78,-429.35 469.6,-431.89"/>
<polygon fill="#63b8ff" stroke="#63b8ff" points="385.8,-343.43 377.57,-336.75 379.83,-347.1 385.8,-343.43"/>
</a>
</g>
</g>
<!-- Node9 -->
<g id="Node000009" class="node">
<title>Node9</title>
<g id="a_Node000009"><a xlink:href="class_p4_1_1_p4_c_context_with_options.html" target="_top" xlink:title=" ">
<polygon fill="white" stroke="#666666" points="607,-414 455,-414 455,-384 607,-384 607,-414"/>
<text text-anchor="start" x="463" y="-402" font-family="Helvetica,sans-Serif" font-size="10.00">P4::P4CContextWithOptions</text>
<text text-anchor="middle" x="531" y="-391" font-family="Helvetica,sans-Serif" font-size="10.00">&lt; EbpfOptions &gt;</text>
</a>
</g>
</g>
<!-- Node1&#45;&gt;Node9 -->
<g id="edge8_Node000001_Node000009" class="edge">
<title>Node1&#45;&gt;Node9</title>
<g id="a_edge8_Node000001_Node000009"><a xlink:title=" ">
<path fill="none" stroke="#63b8ff" d="M394.36,-342.18C410.22,-352.45 432.28,-365.78 453,-375 460.29,-378.24 468.15,-381.23 475.97,-383.92"/>
<polygon fill="#63b8ff" stroke="#63b8ff" points="396.08,-339.12 385.8,-336.54 392.23,-344.96 396.08,-339.12"/>
</a>
</g>
</g>
<!-- Node10 -->
<g id="Node000010" class="node">
<title>Node10</title>
<g id="a_Node000010"><a xlink:href="class_p4_1_1_p4_c_context_with_options.html" target="_top" xlink:title=" ">
<polygon fill="white" stroke="#666666" points="607,-366 455,-366 455,-336 607,-336 607,-366"/>
<text text-anchor="start" x="463" y="-354" font-family="Helvetica,sans-Serif" font-size="10.00">P4::P4CContextWithOptions</text>
<text text-anchor="middle" x="531" y="-343" font-family="Helvetica,sans-Serif" font-size="10.00">&lt; Options &gt;</text>
</a>
</g>
</g>
<!-- Node1&#45;&gt;Node10 -->
<g id="edge9_Node000001_Node000010" class="edge">
<title>Node1&#45;&gt;Node10</title>
<g id="a_edge9_Node000001_Node000010"><a xlink:title=" ">
<path fill="none" stroke="#63b8ff" d="M427.17,-335.38C436.13,-336.74 445.55,-338.17 454.89,-339.59"/>
<polygon fill="#63b8ff" stroke="#63b8ff" points="427.69,-331.92 417.28,-333.88 426.64,-338.84 427.69,-331.92"/>
</a>
</g>
</g>
<!-- Node11 -->
<g id="Node000011" class="node">
<title>Node11</title>
<g id="a_Node000011"><a xlink:href="class_p4_1_1_p4_c_context_with_options.html" target="_top" xlink:title=" ">
<polygon fill="white" stroke="#666666" points="607,-318 455,-318 455,-288 607,-288 607,-318"/>
<text text-anchor="start" x="463" y="-306" font-family="Helvetica,sans-Serif" font-size="10.00">P4::P4CContextWithOptions</text>
<text text-anchor="middle" x="531" y="-295" font-family="Helvetica,sans-Serif" font-size="10.00">&lt; P4fmtOptions &gt;</text>
</a>
</g>
</g>
<!-- Node1&#45;&gt;Node11 -->
<g id="edge10_Node000001_Node000011" class="edge">
<title>Node1&#45;&gt;Node11</title>
<g id="a_edge10_Node000001_Node000011"><a xlink:title=" ">
<path fill="none" stroke="#63b8ff" d="M427.17,-318.62C436.13,-317.26 445.55,-315.83 454.89,-314.41"/>
<polygon fill="#63b8ff" stroke="#63b8ff" points="426.64,-315.16 417.28,-320.12 427.69,-322.08 426.64,-315.16"/>
</a>
</g>
</g>
<!-- Node12 -->
<g id="Node000012" class="node">
<title>Node12</title>
<g id="a_Node000012"><a xlink:href="class_p4_1_1_p4_c_context_with_options.html" target="_top" xlink:title=" ">
<polygon fill="white" stroke="#666666" points="607,-270 455,-270 455,-240 607,-240 607,-270"/>
<text text-anchor="start" x="463" y="-258" font-family="Helvetica,sans-Serif" font-size="10.00">P4::P4CContextWithOptions</text>
<text text-anchor="middle" x="531" y="-247" font-family="Helvetica,sans-Serif" font-size="10.00">&lt; P4TestOptions &gt;</text>
</a>
</g>
</g>
<!-- Node1&#45;&gt;Node12 -->
<g id="edge11_Node000001_Node000012" class="edge">
<title>Node1&#45;&gt;Node12</title>
<g id="a_edge11_Node000001_Node000012"><a xlink:title=" ">
<path fill="none" stroke="#63b8ff" d="M394.36,-311.82C410.22,-301.55 432.28,-288.22 453,-279 460.29,-275.76 468.15,-272.77 475.97,-270.08"/>
<polygon fill="#63b8ff" stroke="#63b8ff" points="392.23,-309.04 385.8,-317.46 396.08,-314.88 392.23,-309.04"/>
</a>
</g>
</g>
<!-- Node13 -->
<g id="Node000013" class="node">
<title>Node13</title>
<g id="a_Node000013"><a xlink:href="class_p4_1_1_p4_c_context_with_options.html" target="_top" xlink:title=" ">
<polygon fill="white" stroke="#666666" points="607,-222 455,-222 455,-192 607,-192 607,-222"/>
<text text-anchor="start" x="463" y="-210" font-family="Helvetica,sans-Serif" font-size="10.00">P4::P4CContextWithOptions</text>
<text text-anchor="middle" x="531" y="-199" font-family="Helvetica,sans-Serif" font-size="10.00">&lt; TCOptions &gt;</text>
</a>
</g>
</g>
<!-- Node1&#45;&gt;Node13 -->
<g id="edge12_Node000001_Node000013" class="edge">
<title>Node1&#45;&gt;Node13</title>
<g id="a_edge12_Node000001_Node000013"><a xlink:title=" ">
<path fill="none" stroke="#63b8ff" d="M382.86,-308.67C396.57,-287.05 422.14,-251.49 453,-231 458.13,-227.59 463.78,-224.65 469.6,-222.11"/>
<polygon fill="#63b8ff" stroke="#63b8ff" points="379.83,-306.9 377.57,-317.25 385.8,-310.57 379.83,-306.9"/>
</a>
</g>
</g>
<!-- Node14 -->
<g id="Node000014" class="node">
<title>Node14</title>
<g id="a_Node000014"><a xlink:href="class_p4_1_1_p4_tools_1_1_compile_context.html" target="_top" xlink:title=" ">
<polygon fill="white" stroke="#666666" points="609,-174 453,-174 453,-144 609,-144 609,-174"/>
<text text-anchor="start" x="461" y="-162" font-family="Helvetica,sans-Serif" font-size="10.00">P4::P4Tools::CompileContext</text>
<text text-anchor="middle" x="531" y="-151" font-family="Helvetica,sans-Serif" font-size="10.00">&lt; P4TestOptions &gt;</text>
</a>
</g>
</g>
<!-- Node1&#45;&gt;Node14 -->
<g id="edge13_Node000001_Node000014" class="edge">
<title>Node1&#45;&gt;Node14</title>
<g id="a_edge13_Node000001_Node000014"><a xlink:title=" ">
<path fill="none" stroke="#63b8ff" d="M377.69,-307.7C387.77,-276.83 411.71,-216.41 453,-183 457.25,-179.57 461.98,-176.62 466.97,-174.09"/>
<polygon fill="#63b8ff" stroke="#63b8ff" points="374.33,-306.71 374.69,-317.3 381.01,-308.79 374.33,-306.71"/>
</a>
</g>
</g>
<!-- Node15 -->
<g id="Node000015" class="node">
<title>Node15</title>
<g id="a_Node000015"><a xlink:href="class_p4_1_1_p4_tools_1_1_compile_context.html" target="_top" xlink:title=" ">
<polygon fill="white" stroke="#666666" points="609,-126 453,-126 453,-96 609,-96 609,-126"/>
<text text-anchor="start" x="461" y="-114" font-family="Helvetica,sans-Serif" font-size="10.00">P4::P4Tools::CompileContext</text>
<text text-anchor="middle" x="531" y="-103" font-family="Helvetica,sans-Serif" font-size="10.00">&lt; P4ReachabilityOptions &gt;</text>
</a>
</g>
</g>
<!-- Node1&#45;&gt;Node15 -->
<g id="edge14_Node000001_Node000015" class="edge">
<title>Node1&#45;&gt;Node15</title>
<g id="a_edge14_Node000001_Node000015"><a xlink:title=" ">
<path fill="none" stroke="#63b8ff" d="M374.73,-307.43C381.15,-268.79 400.81,-182.35 453,-135 456.73,-131.61 460.94,-128.7 465.41,-126.2"/>
<polygon fill="#63b8ff" stroke="#63b8ff" points="371.26,-306.98 373.2,-317.39 378.18,-308.04 371.26,-306.98"/>
</a>
</g>
</g>
<!-- Node16 -->
<g id="Node000016" class="node">
<title>Node16</title>
<g id="a_Node000016"><a xlink:href="class_p4_1_1_p4_c_context_with_options.html" target="_top" xlink:title=" ">
<polygon fill="white" stroke="#666666" points="607,-78 455,-78 455,-48 607,-48 607,-78"/>
<text text-anchor="start" x="463" y="-66" font-family="Helvetica,sans-Serif" font-size="10.00">P4::P4CContextWithOptions</text>
<text text-anchor="middle" x="531" y="-55" font-family="Helvetica,sans-Serif" font-size="10.00">&lt; OptionsType &gt;</text>
</a>
</g>
</g>
<!-- Node1&#45;&gt;Node16 -->
<g id="edge15_Node000001_Node000016" class="edge">
<title>Node1&#45;&gt;Node16</title>
<g id="a_edge15_Node000001_Node000016"><a xlink:title=" ">
<path fill="none" stroke="#63b8ff" d="M372.86,-307.06C375.9,-261.46 389.78,-148.76 453,-87 456.51,-83.58 460.49,-80.64 464.76,-78.12"/>
<polygon fill="#63b8ff" stroke="#63b8ff" points="369.36,-306.95 372.29,-317.13 376.35,-307.35 369.36,-306.95"/>
</a>
</g>
</g>
<!-- Node17 -->
<g id="Node000017" class="node">
<title>Node17</title>
<g id="a_Node000017"><a xlink:href="class_p4_1_1_p4_tools_1_1_compile_context.html" target="_top" xlink:title="A compilation context for P4Tools that provides a custom compiler configuration.">
<polygon fill="white" stroke="#666666" points="609,-30 453,-30 453,0 609,0 609,-30"/>
<text text-anchor="start" x="461" y="-18" font-family="Helvetica,sans-Serif" font-size="10.00">P4::P4Tools::CompileContext</text>
<text text-anchor="middle" x="531" y="-7" font-family="Helvetica,sans-Serif" font-size="10.00">&lt; OptionsType &gt;</text>
</a>
</g>
</g>
<!-- Node1&#45;&gt;Node17 -->
<g id="edge16_Node000001_Node000017" class="edge">
<title>Node1&#45;&gt;Node17</title>
<g id="a_edge16_Node000001_Node000017"><a xlink:title=" ">
<path fill="none" stroke="#63b8ff" d="M371.53,-307.4C371.39,-255.98 378.27,-115.85 453,-39 456.32,-35.59 460.11,-32.66 464.2,-30.14"/>
<polygon fill="#63b8ff" stroke="#63b8ff" points="368.03,-307.53 371.65,-317.48 375.03,-307.44 368.03,-307.53"/>
</a>
</g>
</g>
<!-- Node2 -->
<g id="Node000002" class="node">
<title>Node2</title>
<g id="a_Node000002"><a xlink:href="class_p4_1_1_base_compile_context.html" target="_top" xlink:title=" ">
<polygon fill="white" stroke="#666666" points="289,-336.5 152,-336.5 152,-317.5 289,-317.5 289,-336.5"/>
<text text-anchor="middle" x="220.5" y="-324.5" font-family="Helvetica,sans-Serif" font-size="10.00">P4::BaseCompileContext</text>
</a>
</g>
</g>
<!-- Node2&#45;&gt;Node1 -->
<g id="edge1_Node000001_Node000002" class="edge">
<title>Node2&#45;&gt;Node1</title>
<g id="a_edge1_Node000001_Node000002"><a xlink:title=" ">
<path fill="none" stroke="#63b8ff" d="M299.46,-327C308.16,-327 316.8,-327 324.89,-327"/>
<polygon fill="#63b8ff" stroke="#63b8ff" points="299.23,-323.5 289.23,-327 299.23,-330.5 299.23,-323.5"/>
</a>
</g>
</g>
<!-- Node3 -->
<g id="Node000003" class="node">
<title>Node3</title>
<g id="a_Node000003"><a xlink:href="class_p4_1_1_i_compile_context.html" target="_top" xlink:title=" ">
<polygon fill="white" stroke="#666666" points="116,-336.5 0,-336.5 0,-317.5 116,-317.5 116,-336.5"/>
<text text-anchor="middle" x="58" y="-324.5" font-family="Helvetica,sans-Serif" font-size="10.00">P4::ICompileContext</text>
</a>
</g>
</g>
<!-- Node3&#45;&gt;Node2 -->
<g id="edge2_Node000002_Node000003" class="edge">
<title>Node3&#45;&gt;Node2</title>
<g id="a_edge2_Node000002_Node000003"><a xlink:title=" ">
<path fill="none" stroke="#63b8ff" d="M126.27,-327C134.76,-327 143.45,-327 151.94,-327"/>
<polygon fill="#63b8ff" stroke="#63b8ff" points="126.04,-323.5 116.04,-327 126.04,-330.5 126.04,-323.5"/>
</a>
</g>
</g>
</g>
</svg>
