<?xml version="1.0" encoding="UTF-8" standalone="no"?>
<!DOCTYPE svg PUBLIC "-//W3C//DTD SVG 1.1//EN"
 "http://www.w3.org/Graphics/SVG/1.1/DTD/svg11.dtd">
<!-- Generated by graphviz version 2.43.0 (0)
 -->
<!-- Title: ExcludeMAUNotMutexHeaders Pages: 1 -->
<svg width="383pt" height="192pt"
 viewBox="0.00 0.00 382.50 192.00" xmlns="http://www.w3.org/2000/svg" xmlns:xlink="http://www.w3.org/1999/xlink">

<svg id="main" version="1.1" xmlns="http://www.w3.org/2000/svg" xmlns:xlink="http://www.w3.org/1999/xlink" xml:space="preserve">

<style type="text/css"><![CDATA[
.node, .edge {opacity: 0.7;}
.node.selected, .edge.selected {opacity: 1;}
.edge:hover path { stroke: red; }
.edge:hover polygon { stroke: red; fill: red; }
]]></style>
<script type="application/ecmascript" xlink:href="svg.min.js"/>
<svg id="graph" class="graph">
<g id="graph0" class="graph" transform="scale(1 1) rotate(0) translate(4 188)">
<title>ExcludeMAUNotMutexHeaders</title>
<!-- Node1 -->
<g id="Node000001" class="node">
<title>Node1</title>
<g id="a_Node000001"><a xlink:title="Walk through MAU in control flow order and find header level mutually exclusivity in the parser that ...">
<polygon fill="#999999" stroke="#666666" points="257,-19 90,-19 90,0 257,0 257,-19"/>
<text text-anchor="middle" x="173.5" y="-7" font-family="Helvetica,sans-Serif" font-size="10.00">ExcludeMAUNotMutexHeaders</text>
</a>
</g>
</g>
<!-- Node2 -->
<g id="Node000002" class="node">
<title>Node2</title>
<g id="a_Node000002"><a xlink:href="class_mau_inspector.html" target="_top" xlink:title=" ">
<polygon fill="white" stroke="#bfbfbf" points="83,-74 0,-74 0,-55 83,-55 83,-74"/>
<text text-anchor="middle" x="41.5" y="-62" font-family="Helvetica,sans-Serif" font-size="10.00">MauInspector</text>
</a>
</g>
</g>
<!-- Node2&#45;&gt;Node1 -->
<g id="edge1_Node000001_Node000002" class="edge">
<title>Node2&#45;&gt;Node1</title>
<g id="a_edge1_Node000001_Node000002"><a xlink:title=" ">
<path fill="none" stroke="#63b8ff" d="M72.23,-51.16C96.67,-41.35 130.24,-27.87 151.91,-19.17"/>
<polygon fill="#63b8ff" stroke="#63b8ff" points="70.68,-48.01 62.71,-54.98 73.29,-54.51 70.68,-48.01"/>
</a>
</g>
</g>
<!-- Node3 -->
<g id="Node000003" class="node">
<title>Node3</title>
<g id="a_Node000003"><a xlink:href="class_p4_1_1_inspector.html" target="_top" xlink:title=" ">
<polygon fill="white" stroke="#bfbfbf" points="84.5,-129 4.5,-129 4.5,-110 84.5,-110 84.5,-129"/>
<text text-anchor="middle" x="44.5" y="-117" font-family="Helvetica,sans-Serif" font-size="10.00">P4::Inspector</text>
</a>
</g>
</g>
<!-- Node3&#45;&gt;Node2 -->
<g id="edge2_Node000002_Node000003" class="edge">
<title>Node3&#45;&gt;Node2</title>
<g id="a_edge2_Node000002_Node000003"><a xlink:title=" ">
<path fill="none" stroke="#63b8ff" d="M43.43,-99.66C42.94,-90.93 42.38,-80.99 41.99,-74.09"/>
<polygon fill="#63b8ff" stroke="#63b8ff" points="39.94,-99.96 44,-109.75 46.93,-99.57 39.94,-99.96"/>
</a>
</g>
</g>
<!-- Node4 -->
<g id="Node000004" class="node">
<title>Node4</title>
<g id="a_Node000004"><a xlink:href="class_p4_1_1_visitor.html" target="_top" xlink:title=" ">
<polygon fill="white" stroke="#bfbfbf" points="137.5,-184 71.5,-184 71.5,-165 137.5,-165 137.5,-184"/>
<text text-anchor="middle" x="104.5" y="-172" font-family="Helvetica,sans-Serif" font-size="10.00">P4::Visitor</text>
</a>
</g>
</g>
<!-- Node4&#45;&gt;Node3 -->
<g id="edge3_Node000003_Node000004" class="edge">
<title>Node4&#45;&gt;Node3</title>
<g id="a_edge3_Node000003_Node000004"><a xlink:title=" ">
<path fill="none" stroke="#63b8ff" d="M87.32,-158.32C76.62,-148.87 63.24,-137.06 54.32,-129.17"/>
<polygon fill="#63b8ff" stroke="#63b8ff" points="85.05,-160.99 94.86,-164.98 89.68,-155.74 85.05,-160.99"/>
</a>
</g>
</g>
<!-- Node6 -->
<g id="Node000006" class="node">
<title>Node6</title>
<g id="a_Node000006"><a xlink:href="class_p4_1_1_control_flow_visitor.html" target="_top" xlink:title=" ">
<polygon fill="white" stroke="#bfbfbf" points="231,-129 106,-129 106,-110 231,-110 231,-129"/>
<text text-anchor="middle" x="168.5" y="-117" font-family="Helvetica,sans-Serif" font-size="10.00">P4::ControlFlowVisitor</text>
</a>
</g>
</g>
<!-- Node4&#45;&gt;Node6 -->
<g id="edge6_Node000006_Node000004" class="edge">
<title>Node4&#45;&gt;Node6</title>
<g id="a_edge6_Node000006_Node000004"><a xlink:title=" ">
<path fill="none" stroke="#63b8ff" d="M122.49,-158.6C133.96,-149.11 148.41,-137.13 158.03,-129.17"/>
<polygon fill="#63b8ff" stroke="#63b8ff" points="120.25,-155.91 114.78,-164.98 124.72,-161.3 120.25,-155.91"/>
</a>
</g>
</g>
<!-- Node5 -->
<g id="Node000005" class="node">
<title>Node5</title>
<g id="a_Node000005"><a xlink:href="class_b_f_n_1_1_gateway_control_flow.html" target="_top" xlink:title=" ">
<polygon fill="white" stroke="#666666" points="246,-74 101,-74 101,-55 246,-55 246,-74"/>
<text text-anchor="middle" x="173.5" y="-62" font-family="Helvetica,sans-Serif" font-size="10.00">BFN::GatewayControlFlow</text>
</a>
</g>
</g>
<!-- Node5&#45;&gt;Node1 -->
<g id="edge4_Node000001_Node000005" class="edge">
<title>Node5&#45;&gt;Node1</title>
<g id="a_edge4_Node000001_Node000005"><a xlink:title=" ">
<path fill="none" stroke="#63b8ff" d="M173.5,-44.66C173.5,-35.93 173.5,-25.99 173.5,-19.09"/>
<polygon fill="#63b8ff" stroke="#63b8ff" points="170,-44.75 173.5,-54.75 177,-44.75 170,-44.75"/>
</a>
</g>
</g>
<!-- Node6&#45;&gt;Node5 -->
<g id="edge5_Node000005_Node000006" class="edge">
<title>Node6&#45;&gt;Node5</title>
<g id="a_edge5_Node000005_Node000006"><a xlink:title=" ">
<path fill="none" stroke="#63b8ff" d="M170.28,-99.66C171.1,-90.93 172.04,-80.99 172.69,-74.09"/>
<polygon fill="#63b8ff" stroke="#63b8ff" points="166.78,-99.46 169.33,-109.75 173.75,-100.12 166.78,-99.46"/>
</a>
</g>
</g>
<!-- Node7 -->
<g id="Node000007" class="node">
<title>Node7</title>
<g id="a_Node000007"><a xlink:href="class_tofino_write_context.html" target="_top" xlink:title=" ">
<polygon fill="white" stroke="#666666" points="374.5,-74 264.5,-74 264.5,-55 374.5,-55 374.5,-74"/>
<text text-anchor="middle" x="319.5" y="-62" font-family="Helvetica,sans-Serif" font-size="10.00">TofinoWriteContext</text>
</a>
</g>
</g>
<!-- Node7&#45;&gt;Node1 -->
<g id="edge7_Node000001_Node000007" class="edge">
<title>Node7&#45;&gt;Node1</title>
<g id="a_edge7_Node000001_Node000007"><a xlink:title=" ">
<path fill="none" stroke="#63b8ff" d="M286.58,-51.55C259.47,-41.71 221.67,-27.98 197.38,-19.17"/>
<polygon fill="#63b8ff" stroke="#63b8ff" points="285.45,-54.86 296.04,-54.98 287.84,-48.28 285.45,-54.86"/>
</a>
</g>
</g>
<!-- Node8 -->
<g id="Node000008" class="node">
<title>Node8</title>
<g id="a_Node000008"><a xlink:title=" ">
<polygon fill="white" stroke="#bfbfbf" points="366,-129 273,-129 273,-110 366,-110 366,-129"/>
<text text-anchor="middle" x="319.5" y="-117" font-family="Helvetica,sans-Serif" font-size="10.00">P4WriteContext</text>
</a>
</g>
</g>
<!-- Node8&#45;&gt;Node7 -->
<g id="edge8_Node000007_Node000008" class="edge">
<title>Node8&#45;&gt;Node7</title>
<g id="a_edge8_Node000007_Node000008"><a xlink:title=" ">
<path fill="none" stroke="#63b8ff" d="M319.5,-99.66C319.5,-90.93 319.5,-80.99 319.5,-74.09"/>
<polygon fill="#63b8ff" stroke="#63b8ff" points="316,-99.75 319.5,-109.75 323,-99.75 316,-99.75"/>
</a>
</g>
</g>
</g>
</svg>
</svg>

<style type='text/css'>
<![CDATA[
[data-mouse-over-selected='false'] { opacity: 0.7; }
[data-mouse-over-selected='true']  { opacity: 1.0; }
]]>
</style>
<script type="application/ecmascript"><![CDATA[
document.addEventListener('DOMContentLoaded', (event) => {
  highlightEdges();
  highlightAdjacentNodes();
});
]]></script>
</svg>
