<?xml version="1.0" encoding="UTF-8" standalone="no"?>
<!DOCTYPE svg PUBLIC "-//W3C//DTD SVG 1.1//EN"
 "http://www.w3.org/Graphics/SVG/1.1/DTD/svg11.dtd">
<!-- Generated by graphviz version 2.43.0 (0)
 -->
<!-- Title: P4::ResolutionContext Pages: 1 -->
<!--zoomable 1609 -->

<svg id="main" version="1.1" xmlns="http://www.w3.org/2000/svg" xmlns:xlink="http://www.w3.org/1999/xlink" xml:space="preserve" onload="init(evt)">

<style type="text/css"><![CDATA[
.node, .edge {opacity: 0.7;}
.node.selected, .edge.selected {opacity: 1;}
.edge:hover path { stroke: red; }
.edge:hover polygon { stroke: red; fill: red; }
]]></style>

<defs>
  <circle id="rim" cx="0" cy="0" r="7"/>
  <circle id="rim2" cx="0" cy="0" r="3.5"/>
  <g id="zoomPlus">
    <use xlink:href="#rim" fill="#404040"><set attributeName="fill" to="#808080" begin="zoomplus.mouseover" end="zoomplus.mouseout"/></use>
    <path d="M-4,0h8M0,-4v8" fill="none" stroke="white" stroke-width="1.5" pointer-events="none"/>
  </g>
  <g id="zoomMin">
    <use xlink:href="#rim" fill="#404040"><set attributeName="fill" to="#808080" begin="zoomminus.mouseover" end="zoomminus.mouseout"/></use>
    <path d="M-4,0h8" fill="none" stroke="white" stroke-width="1.5" pointer-events="none"/>
  </g>
  <g id="arrowUp" transform="translate(30 24)">
    <use xlink:href="#rim"/>
    <path pointer-events="none" fill="none" stroke="white" stroke-width="1.5" d="M0,-3.0v7 M-2.5,-0.5L0,-3.0L2.5,-0.5"/>
  </g>
  <g id="arrowRight" transform="rotate(90) translate(36 -43)">
    <use xlink:href="#rim"/>
    <path pointer-events="none" fill="none" stroke="white" stroke-width="1.5" d="M0,-3.0v7 M-2.5,-0.5L0,-3.0L2.5,-0.5"/>
  </g>
  <g id="arrowDown" transform="rotate(180) translate(-30 -48)">
    <use xlink:href="#rim"/>
    <path pointer-events="none" fill="none" stroke="white" stroke-width="1.5" d="M0,-3.0v7 M-2.5,-0.5L0,-3.0L2.5,-0.5"/>
  </g>
  <g id="arrowLeft" transform="rotate(270) translate(-36 17)">
    <use xlink:href="#rim"/>
    <path pointer-events="none" fill="none" stroke="white" stroke-width="1.5" d="M0,-3.0v7 M-2.5,-0.5L0,-3.0L2.5,-0.5"/>
  </g>
  <g id="resetDef">
    <use xlink:href="#rim2" fill="#404040"><set attributeName="fill" to="#808080" begin="reset.mouseover" end="reset.mouseout"/></use>
  </g>
</defs>
<script type="application/ecmascript">
var viewWidth = 711;
var viewHeight = 1609;
var sectionId = 'dynsection-0';
</script>
<script type="application/ecmascript" xlink:href="svg.min.js"/>
<svg id="graph" class="graph">
<g id="viewport">
<title>P4::ResolutionContext</title>
<!-- Node1 -->
<g id="Node000001" class="node">
<title>Node1</title>
<g id="a_Node000001"><a xlink:title="Visitor mixin for looking up names in enclosing scopes from the Visitor::Context.">
<polygon fill="#999999" stroke="#666666" points="286,-759 161,-759 161,-740 286,-740 286,-759"/>
<text text-anchor="middle" x="223.5" y="-747" font-family="Helvetica,sans-Serif" font-size="10.00">P4::ResolutionContext</text>
</a>
</g>
</g>
<!-- Node4 -->
<g id="Node000004" class="node">
<title>Node4</title>
<g id="a_Node000004"><a xlink:href="class_p4_1_1_abstract_inliner.html" target="_top" xlink:title=" ">
<polygon fill="white" stroke="#bfbfbf" points="471.5,-1601 360.5,-1601 360.5,-1560 471.5,-1560 471.5,-1601"/>
<text text-anchor="start" x="368.5" y="-1589" font-family="Helvetica,sans-Serif" font-size="10.00">P4::AbstractInliner</text>
<text text-anchor="start" x="368.5" y="-1578" font-family="Helvetica,sans-Serif" font-size="10.00">&lt; ActionsInlineList,</text>
<text text-anchor="middle" x="416" y="-1567" font-family="Helvetica,sans-Serif" font-size="10.00"> AInlineWorkList &gt;</text>
</a>
</g>
</g>
<!-- Node1&#45;&gt;Node4 -->
<g id="edge3_Node000001_Node000004" class="edge">
<title>Node1&#45;&gt;Node4</title>
<g id="a_edge3_Node000001_Node000004"><a xlink:title=" ">
<path fill="none" stroke="#63b8ff" d="M224.11,-769.35C222.31,-880.76 218.91,-1427.79 322,-1551.5 331.64,-1563.06 345.81,-1570.09 360.21,-1574.34"/>
<polygon fill="#63b8ff" stroke="#63b8ff" points="227.61,-769.25 224.29,-759.19 220.61,-769.13 227.61,-769.25"/>
</a>
</g>
</g>
<!-- Node6 -->
<g id="Node000006" class="node">
<title>Node6</title>
<g id="a_Node000006"><a xlink:href="class_p4_1_1_abstract_inliner.html" target="_top" xlink:title=" ">
<polygon fill="white" stroke="#bfbfbf" points="489,-1542 343,-1542 343,-1501 489,-1501 489,-1542"/>
<text text-anchor="start" x="351" y="-1530" font-family="Helvetica,sans-Serif" font-size="10.00">P4::AbstractInliner</text>
<text text-anchor="start" x="351" y="-1519" font-family="Helvetica,sans-Serif" font-size="10.00">&lt; FunctionsInlineList,</text>
<text text-anchor="middle" x="416" y="-1508" font-family="Helvetica,sans-Serif" font-size="10.00"> FunctionsInlineWorkList &gt;</text>
</a>
</g>
</g>
<!-- Node1&#45;&gt;Node6 -->
<g id="edge5_Node000001_Node000006" class="edge">
<title>Node1&#45;&gt;Node6</title>
<g id="a_edge5_Node000001_Node000006"><a xlink:title=" ">
<path fill="none" stroke="#63b8ff" d="M224.34,-769.49C223.91,-876.13 227,-1377.49 322,-1491.5 327.65,-1498.28 334.84,-1503.54 342.71,-1507.62"/>
<polygon fill="#63b8ff" stroke="#63b8ff" points="227.85,-769.22 224.4,-759.2 220.85,-769.18 227.85,-769.22"/>
</a>
</g>
</g>
<!-- Node8 -->
<g id="Node000008" class="node">
<title>Node8</title>
<g id="a_Node000008"><a xlink:href="class_p4_1_1_abstract_inliner.html" target="_top" xlink:title=" ">
<polygon fill="white" stroke="#bfbfbf" points="498,-1482.5 334,-1482.5 334,-1452.5 498,-1452.5 498,-1482.5"/>
<text text-anchor="start" x="342" y="-1470.5" font-family="Helvetica,sans-Serif" font-size="10.00">P4::AbstractInliner</text>
<text text-anchor="middle" x="416" y="-1459.5" font-family="Helvetica,sans-Serif" font-size="10.00">&lt; InlineList, InlineSummary &gt;</text>
</a>
</g>
</g>
<!-- Node1&#45;&gt;Node8 -->
<g id="edge7_Node000001_Node000008" class="edge">
<title>Node1&#45;&gt;Node8</title>
<g id="a_edge7_Node000001_Node000008"><a xlink:title=" ">
<path fill="none" stroke="#63b8ff" d="M224.43,-769.25C224.47,-871.52 229.73,-1340.17 322,-1443.5 325.44,-1447.36 329.42,-1450.63 333.74,-1453.41"/>
<polygon fill="#63b8ff" stroke="#63b8ff" points="227.93,-769.1 224.44,-759.1 220.93,-769.09 227.93,-769.1"/>
</a>
</g>
</g>
<!-- Node10 -->
<g id="Node000010" class="node">
<title>Node10</title>
<g id="a_Node000010"><a xlink:href="class_p4_1_1_abstract_inliner.html" target="_top" xlink:title=" ">
<polygon fill="white" stroke="#bfbfbf" points="490,-1434 342,-1434 342,-1393 490,-1393 490,-1434"/>
<text text-anchor="start" x="350" y="-1422" font-family="Helvetica,sans-Serif" font-size="10.00">P4::AbstractInliner</text>
<text text-anchor="start" x="350" y="-1411" font-family="Helvetica,sans-Serif" font-size="10.00">&lt; P4::InlineList, InlineWork</text>
<text text-anchor="middle" x="416" y="-1400" font-family="Helvetica,sans-Serif" font-size="10.00">List &gt;</text>
</a>
</g>
</g>
<!-- Node1&#45;&gt;Node10 -->
<g id="edge9_Node000001_Node000010" class="edge">
<title>Node1&#45;&gt;Node10</title>
<g id="a_edge9_Node000001_Node000010"><a xlink:title=" ">
<path fill="none" stroke="#63b8ff" d="M224.83,-769.25C226.85,-865.82 240.28,-1287.59 322,-1383.5 327.5,-1389.96 334.4,-1395.04 341.94,-1399.03"/>
<polygon fill="#63b8ff" stroke="#63b8ff" points="228.33,-769.06 224.64,-759.13 221.33,-769.19 228.33,-769.06"/>
</a>
</g>
</g>
<!-- Node11 -->
<g id="Node000011" class="node">
<title>Node11</title>
<g id="a_Node000011"><a xlink:href="class_p4_1_1_abstract_inliner.html" target="_top" xlink:title=" ">
<polygon fill="white" stroke="#bfbfbf" points="495,-1374.5 337,-1374.5 337,-1344.5 495,-1344.5 495,-1374.5"/>
<text text-anchor="start" x="345" y="-1362.5" font-family="Helvetica,sans-Serif" font-size="10.00">P4::AbstractInliner</text>
<text text-anchor="middle" x="416" y="-1351.5" font-family="Helvetica,sans-Serif" font-size="10.00">&lt; InlineList, InlineWorkList &gt;</text>
</a>
</g>
</g>
<!-- Node1&#45;&gt;Node11 -->
<g id="edge10_Node000001_Node000011" class="edge">
<title>Node1&#45;&gt;Node11</title>
<g id="a_edge10_Node000001_Node000011"><a xlink:title=" ">
<path fill="none" stroke="#63b8ff" d="M225,-769.58C227.72,-862.51 243.67,-1249.98 322,-1335.5 326.28,-1340.17 331.34,-1343.99 336.85,-1347.09"/>
<polygon fill="#63b8ff" stroke="#63b8ff" points="228.49,-769.22 224.72,-759.32 221.49,-769.41 228.49,-769.22"/>
</a>
</g>
</g>
<!-- Node12 -->
<g id="Node000012" class="node">
<title>Node12</title>
<g id="a_Node000012"><a xlink:href="class_p4_1_1_compute_def_use.html" target="_top" xlink:title="Compute defuse info within P4Parser and P4Control blocks in the midend.">
<polygon fill="white" stroke="#666666" points="473.5,-1326 358.5,-1326 358.5,-1307 473.5,-1307 473.5,-1326"/>
<text text-anchor="middle" x="416" y="-1314" font-family="Helvetica,sans-Serif" font-size="10.00">P4::ComputeDefUse</text>
</a>
</g>
</g>
<!-- Node1&#45;&gt;Node12 -->
<g id="edge11_Node000001_Node000012" class="edge">
<title>Node1&#45;&gt;Node12</title>
<g id="a_edge11_Node000001_Node000012"><a xlink:title=" ">
<path fill="none" stroke="#63b8ff" d="M225.14,-769.21C228.44,-858 246.39,-1219.94 322,-1297.5 331.55,-1307.29 344.68,-1312.73 358.07,-1315.61"/>
<polygon fill="#63b8ff" stroke="#63b8ff" points="228.64,-769.02 224.79,-759.15 221.64,-769.27 228.64,-769.02"/>
</a>
</g>
</g>
<!-- Node13 -->
<g id="Node000013" class="node">
<title>Node13</title>
<g id="a_Node000013"><a xlink:href="class_p4_1_1_compute_def_use_1_1_setup_join_points.html" target="_top" xlink:title=" ">
<polygon fill="white" stroke="#bfbfbf" points="476.5,-1288.5 355.5,-1288.5 355.5,-1258.5 476.5,-1258.5 476.5,-1288.5"/>
<text text-anchor="start" x="363.5" y="-1276.5" font-family="Helvetica,sans-Serif" font-size="10.00">P4::ComputeDefUse::</text>
<text text-anchor="middle" x="416" y="-1265.5" font-family="Helvetica,sans-Serif" font-size="10.00">SetupJoinPoints</text>
</a>
</g>
</g>
<!-- Node1&#45;&gt;Node13 -->
<g id="edge12_Node000001_Node000013" class="edge">
<title>Node1&#45;&gt;Node13</title>
<g id="a_edge12_Node000001_Node000013"><a xlink:title=" ">
<path fill="none" stroke="#63b8ff" d="M225.6,-769.23C230.69,-852.95 254.53,-1177.86 322,-1249.5 330.8,-1258.85 342.72,-1264.74 355.09,-1268.42"/>
<polygon fill="#63b8ff" stroke="#63b8ff" points="229.09,-768.84 225.01,-759.07 222.1,-769.25 229.09,-768.84"/>
</a>
</g>
</g>
<!-- Node14 -->
<g id="Node000014" class="node">
<title>Node14</title>
<g id="a_Node000014"><a xlink:href="class_p4_1_1_constant_type_substitution.html" target="_top" xlink:title=" ">
<polygon fill="white" stroke="#bfbfbf" points="495.5,-1240 336.5,-1240 336.5,-1221 495.5,-1221 495.5,-1240"/>
<text text-anchor="middle" x="416" y="-1228" font-family="Helvetica,sans-Serif" font-size="10.00">P4::ConstantTypeSubstitution</text>
</a>
</g>
</g>
<!-- Node1&#45;&gt;Node14 -->
<g id="edge13_Node000001_Node000014" class="edge">
<title>Node1&#45;&gt;Node14</title>
<g id="a_edge13_Node000001_Node000014"><a xlink:title=" ">
<path fill="none" stroke="#8b1a1a" d="M225.83,-769.39C231.62,-849.7 257.26,-1148.81 322,-1212.5 326.22,-1216.65 331.09,-1219.99 336.35,-1222.67"/>
<polygon fill="#8b1a1a" stroke="#8b1a1a" points="229.31,-768.92 225.12,-759.18 222.32,-769.4 229.31,-768.92"/>
</a>
</g>
</g>
<!-- Node15 -->
<g id="Node000015" class="node">
<title>Node15</title>
<g id="a_Node000015"><a xlink:href="class_p4_1_1_create_struct_initializers.html" target="_top" xlink:title="Converts some list expressions into struct initializers.">
<polygon fill="white" stroke="#666666" points="489,-1203 343,-1203 343,-1184 489,-1184 489,-1203"/>
<text text-anchor="middle" x="416" y="-1191" font-family="Helvetica,sans-Serif" font-size="10.00">P4::CreateStructInitializers</text>
</a>
</g>
</g>
<!-- Node1&#45;&gt;Node15 -->
<g id="edge14_Node000001_Node000015" class="edge">
<title>Node1&#45;&gt;Node15</title>
<g id="a_edge14_Node000001_Node000015"><a xlink:title=" ">
<path fill="none" stroke="#63b8ff" d="M226.21,-769.25C233.19,-845.27 262.07,-1117.57 322,-1175.5 327.91,-1181.22 335.06,-1185.38 342.74,-1188.39"/>
<polygon fill="#63b8ff" stroke="#63b8ff" points="229.68,-768.8 225.31,-759.15 222.71,-769.42 229.68,-768.8"/>
</a>
</g>
</g>
<!-- Node16 -->
<g id="Node000016" class="node">
<title>Node16</title>
<g id="a_Node000016"><a xlink:href="class_p4_1_1_deprecated.html" target="_top" xlink:title=" ">
<polygon fill="white" stroke="#666666" points="461.5,-1166 370.5,-1166 370.5,-1147 461.5,-1147 461.5,-1166"/>
<text text-anchor="middle" x="416" y="-1154" font-family="Helvetica,sans-Serif" font-size="10.00">P4::Deprecated</text>
</a>
</g>
</g>
<!-- Node1&#45;&gt;Node16 -->
<g id="edge15_Node000001_Node000016" class="edge">
<title>Node1&#45;&gt;Node16</title>
<g id="a_edge15_Node000001_Node000016"><a xlink:title=" ">
<path fill="none" stroke="#63b8ff" d="M226.68,-769.35C234.98,-841.21 266.93,-1086.35 322,-1138.5 334.78,-1150.6 353.12,-1155.73 370.14,-1157.6"/>
<polygon fill="#63b8ff" stroke="#63b8ff" points="230.11,-768.56 225.51,-759.02 223.16,-769.35 230.11,-768.56"/>
</a>
</g>
</g>
<!-- Node17 -->
<g id="Node000017" class="node">
<title>Node17</title>
<g id="a_Node000017"><a xlink:href="class_p4_1_1_discover_actions_inlining.html" target="_top" xlink:title=" ">
<polygon fill="white" stroke="#bfbfbf" points="490.5,-1129 341.5,-1129 341.5,-1110 490.5,-1110 490.5,-1129"/>
<text text-anchor="middle" x="416" y="-1117" font-family="Helvetica,sans-Serif" font-size="10.00">P4::DiscoverActionsInlining</text>
</a>
</g>
</g>
<!-- Node1&#45;&gt;Node17 -->
<g id="edge16_Node000001_Node000017" class="edge">
<title>Node1&#45;&gt;Node17</title>
<g id="a_edge16_Node000001_Node000017"><a xlink:title=" ">
<path fill="none" stroke="#63b8ff" d="M227.24,-769.11C236.98,-836.05 272.05,-1053.91 322,-1100.5 327.54,-1105.67 334.1,-1109.6 341.12,-1112.56"/>
<polygon fill="#63b8ff" stroke="#63b8ff" points="230.68,-768.48 225.8,-759.07 223.75,-769.47 230.68,-768.48"/>
</a>
</g>
</g>
<!-- Node18 -->
<g id="Node000018" class="node">
<title>Node18</title>
<g id="a_Node000018"><a xlink:href="class_p4_1_1_discover_functions_inlining.html" target="_top" xlink:title=" ">
<polygon fill="white" stroke="#bfbfbf" points="496,-1092 336,-1092 336,-1073 496,-1073 496,-1092"/>
<text text-anchor="middle" x="416" y="-1080" font-family="Helvetica,sans-Serif" font-size="10.00">P4::DiscoverFunctionsInlining</text>
</a>
</g>
</g>
<!-- Node1&#45;&gt;Node18 -->
<g id="edge17_Node000001_Node000018" class="edge">
<title>Node1&#45;&gt;Node18</title>
<g id="a_edge17_Node000001_Node000018"><a xlink:title=" ">
<path fill="none" stroke="#63b8ff" d="M224.21,-769.54C224.57,-825.34 233.69,-983.57 322,-1063.5 326.15,-1067.26 330.85,-1070.36 335.86,-1072.9"/>
<polygon fill="#63b8ff" stroke="#63b8ff" points="227.71,-769.27 224.24,-759.26 220.71,-769.25 227.71,-769.27"/>
</a>
</g>
</g>
<!-- Node19 -->
<g id="Node000019" class="node">
<title>Node19</title>
<g id="a_Node000019"><a xlink:href="class_p4_1_1_do_check_constants.html" target="_top" xlink:title=" ">
<polygon fill="white" stroke="#666666" points="479.5,-1055 352.5,-1055 352.5,-1036 479.5,-1036 479.5,-1055"/>
<text text-anchor="middle" x="416" y="-1043" font-family="Helvetica,sans-Serif" font-size="10.00">P4::DoCheckConstants</text>
</a>
</g>
</g>
<!-- Node1&#45;&gt;Node19 -->
<g id="edge18_Node000001_Node000019" class="edge">
<title>Node1&#45;&gt;Node19</title>
<g id="a_edge18_Node000001_Node000019"><a xlink:title=" ">
<path fill="none" stroke="#63b8ff" d="M225.15,-769.23C227.95,-820.28 242.86,-957.52 322,-1026.5 330.57,-1033.97 341.28,-1038.8 352.35,-1041.86"/>
<polygon fill="#63b8ff" stroke="#63b8ff" points="228.64,-769.03 224.7,-759.19 221.65,-769.34 228.64,-769.03"/>
</a>
</g>
</g>
<!-- Node20 -->
<g id="Node000020" class="node">
<title>Node20</title>
<g id="a_Node000020"><a xlink:href="class_p4_1_1_do_check_core_methods.html" target="_top" xlink:title="Check types for arguments of core.p4 methods.">
<polygon fill="white" stroke="#666666" points="487.5,-1018 344.5,-1018 344.5,-999 487.5,-999 487.5,-1018"/>
<text text-anchor="middle" x="416" y="-1006" font-family="Helvetica,sans-Serif" font-size="10.00">P4::DoCheckCoreMethods</text>
</a>
</g>
</g>
<!-- Node1&#45;&gt;Node20 -->
<g id="edge19_Node000001_Node000020" class="edge">
<title>Node1&#45;&gt;Node20</title>
<g id="a_edge19_Node000001_Node000020"><a xlink:title=" ">
<path fill="none" stroke="#63b8ff" d="M226.37,-769.36C231.84,-815.71 252.16,-931.48 322,-989.5 328.46,-994.87 336.04,-998.86 344.04,-1001.79"/>
<polygon fill="#63b8ff" stroke="#63b8ff" points="229.82,-768.72 225.27,-759.15 222.86,-769.46 229.82,-768.72"/>
</a>
</g>
</g>
<!-- Node21 -->
<g id="Node000021" class="node">
<title>Node21</title>
<g id="a_Node000021"><a xlink:href="class_p4_1_1_do_constant_folding.html" target="_top" xlink:title="statically evaluates many constant expressions.">
<polygon fill="white" stroke="#666666" points="479.5,-981 352.5,-981 352.5,-962 479.5,-962 479.5,-981"/>
<text text-anchor="middle" x="416" y="-969" font-family="Helvetica,sans-Serif" font-size="10.00">P4::DoConstantFolding</text>
</a>
</g>
</g>
<!-- Node1&#45;&gt;Node21 -->
<g id="edge20_Node000001_Node000021" class="edge">
<title>Node1&#45;&gt;Node21</title>
<g id="a_edge20_Node000001_Node000021"><a xlink:title=" ">
<path fill="none" stroke="#63b8ff" d="M227.92,-769.06C236.16,-810.04 261.13,-905.03 322,-952.5 330.84,-959.39 341.54,-963.96 352.5,-966.96"/>
<polygon fill="#63b8ff" stroke="#63b8ff" points="231.31,-768.19 226.02,-759.02 224.44,-769.49 231.31,-768.19"/>
</a>
</g>
</g>
<!-- Node22 -->
<g id="Node000022" class="node">
<title>Node22</title>
<g id="a_Node000022"><a xlink:href="class_p4_1_1_do_default_arguments.html" target="_top" xlink:title=" ">
<polygon fill="white" stroke="#666666" points="484.5,-944 347.5,-944 347.5,-925 484.5,-925 484.5,-944"/>
<text text-anchor="middle" x="416" y="-932" font-family="Helvetica,sans-Serif" font-size="10.00">P4::DoDefaultArguments</text>
</a>
</g>
</g>
<!-- Node1&#45;&gt;Node22 -->
<g id="edge21_Node000001_Node000022" class="edge">
<title>Node1&#45;&gt;Node22</title>
<g id="a_edge21_Node000001_Node000022"><a xlink:title=" ">
<path fill="none" stroke="#63b8ff" d="M230.08,-768.87C241.29,-804.07 270.01,-878.33 322,-915.5 329.51,-920.87 338.18,-924.79 347.15,-927.66"/>
<polygon fill="#63b8ff" stroke="#63b8ff" points="233.42,-767.83 227.16,-759.28 226.73,-769.87 233.42,-767.83"/>
</a>
</g>
</g>
<!-- Node23 -->
<g id="Node000023" class="node">
<title>Node23</title>
<g id="a_Node000023"><a xlink:href="class_p4_1_1_do_remove_exits.html" target="_top" xlink:title=" ">
<polygon fill="white" stroke="#666666" points="472.5,-907 359.5,-907 359.5,-888 472.5,-888 472.5,-907"/>
<text text-anchor="middle" x="416" y="-895" font-family="Helvetica,sans-Serif" font-size="10.00">P4::DoRemoveExits</text>
</a>
</g>
</g>
<!-- Node1&#45;&gt;Node23 -->
<g id="edge22_Node000001_Node000023" class="edge">
<title>Node1&#45;&gt;Node23</title>
<g id="a_edge22_Node000001_Node000023"><a xlink:title=" ">
<path fill="none" stroke="#63b8ff" d="M233.26,-768.5C247.54,-797.2 278.64,-851.16 322,-878.5 333.15,-885.53 346.42,-890.02 359.38,-892.88"/>
<polygon fill="#63b8ff" stroke="#63b8ff" points="236.26,-766.66 228.77,-759.16 229.95,-769.69 236.26,-766.66"/>
</a>
</g>
</g>
<!-- Node24 -->
<g id="Node000024" class="node">
<title>Node24</title>
<g id="a_Node000024"><a xlink:href="class_p4_1_1_do_simplify_control_flow.html" target="_top" xlink:title="Replace complex control flow nodes with simpler ones where possible.">
<polygon fill="white" stroke="#666666" points="489,-870 343,-870 343,-851 489,-851 489,-870"/>
<text text-anchor="middle" x="416" y="-858" font-family="Helvetica,sans-Serif" font-size="10.00">P4::DoSimplifyControlFlow</text>
</a>
</g>
</g>
<!-- Node1&#45;&gt;Node24 -->
<g id="edge23_Node000001_Node000024" class="edge">
<title>Node1&#45;&gt;Node24</title>
<g id="a_edge23_Node000001_Node000024"><a xlink:title=" ">
<path fill="none" stroke="#63b8ff" d="M237.81,-766.98C254.9,-788.11 286.6,-823.12 322,-841.5 329.46,-845.37 337.64,-848.46 345.95,-850.91"/>
<polygon fill="#63b8ff" stroke="#63b8ff" points="240.55,-764.8 231.61,-759.12 235.05,-769.14 240.55,-764.8"/>
</a>
</g>
</g>
<!-- Node25 -->
<g id="Node000025" class="node">
<title>Node25</title>
<g id="a_Node000025"><a xlink:href="class_p4_1_1_do_simplify_expressions.html" target="_top" xlink:title="Convert expressions so that each expression contains at most one side effect.">
<polygon fill="white" stroke="#666666" points="489,-833 343,-833 343,-814 489,-814 489,-833"/>
<text text-anchor="middle" x="416" y="-821" font-family="Helvetica,sans-Serif" font-size="10.00">P4::DoSimplifyExpressions</text>
</a>
</g>
</g>
<!-- Node1&#45;&gt;Node25 -->
<g id="edge24_Node000001_Node000025" class="edge">
<title>Node1&#45;&gt;Node25</title>
<g id="a_edge24_Node000001_Node000025"><a xlink:title=" ">
<path fill="none" stroke="#63b8ff" d="M246.94,-764.85C266.09,-777.27 294.78,-794.33 322,-804.5 332.19,-808.31 343.3,-811.41 354.19,-813.93"/>
<polygon fill="#63b8ff" stroke="#63b8ff" points="248.62,-761.77 238.35,-759.17 244.76,-767.61 248.62,-761.77"/>
</a>
</g>
</g>
<!-- Node26 -->
<g id="Node000026" class="node">
<title>Node26</title>
<g id="a_Node000026"><a xlink:href="class_p4_1_1_do_static_assert.html" target="_top" xlink:title=" ">
<polygon fill="white" stroke="#666666" points="469.5,-796 362.5,-796 362.5,-777 469.5,-777 469.5,-796"/>
<text text-anchor="middle" x="416" y="-784" font-family="Helvetica,sans-Serif" font-size="10.00">P4::DoStaticAssert</text>
</a>
</g>
</g>
<!-- Node1&#45;&gt;Node26 -->
<g id="edge25_Node000001_Node000026" class="edge">
<title>Node1&#45;&gt;Node26</title>
<g id="a_edge25_Node000001_Node000026"><a xlink:title=" ">
<path fill="none" stroke="#63b8ff" d="M283.44,-760.95C309.85,-766.08 340.63,-772.06 365.78,-776.94"/>
<polygon fill="#63b8ff" stroke="#63b8ff" points="284.04,-757.5 273.56,-759.03 282.71,-764.37 284.04,-757.5"/>
</a>
</g>
</g>
<!-- Node27 -->
<g id="Node000027" class="node">
<title>Node27</title>
<g id="a_Node000027"><a xlink:href="class_p4_1_1_dontcare_args.html" target="_top" xlink:title=" ">
<polygon fill="white" stroke="#666666" points="466.5,-759 365.5,-759 365.5,-740 466.5,-740 466.5,-759"/>
<text text-anchor="middle" x="416" y="-747" font-family="Helvetica,sans-Serif" font-size="10.00">P4::DontcareArgs</text>
</a>
</g>
</g>
<!-- Node1&#45;&gt;Node27 -->
<g id="edge26_Node000001_Node000027" class="edge">
<title>Node1&#45;&gt;Node27</title>
<g id="a_edge26_Node000001_Node000027"><a xlink:title=" ">
<path fill="none" stroke="#63b8ff" d="M296.18,-749.5C319.23,-749.5 344.26,-749.5 365.37,-749.5"/>
<polygon fill="#63b8ff" stroke="#63b8ff" points="296.09,-746 286.09,-749.5 296.09,-753 296.09,-746"/>
</a>
</g>
</g>
<!-- Node28 -->
<g id="Node000028" class="node">
<title>Node28</title>
<g id="a_Node000028"><a xlink:href="class_p4_1_1_entry_priorities.html" target="_top" xlink:title="Assigns priorities to table entries if they are not &#39;const&#39;.">
<polygon fill="white" stroke="#666666" points="468,-722 364,-722 364,-703 468,-703 468,-722"/>
<text text-anchor="middle" x="416" y="-710" font-family="Helvetica,sans-Serif" font-size="10.00">P4::EntryPriorities</text>
</a>
</g>
</g>
<!-- Node1&#45;&gt;Node28 -->
<g id="edge27_Node000001_Node000028" class="edge">
<title>Node1&#45;&gt;Node28</title>
<g id="a_edge27_Node000001_Node000028"><a xlink:title=" ">
<path fill="none" stroke="#63b8ff" d="M283.59,-737.97C296.26,-735.5 309.58,-732.91 322,-730.5 336.21,-727.74 351.64,-724.75 365.77,-722.02"/>
<polygon fill="#63b8ff" stroke="#63b8ff" points="282.74,-734.57 273.6,-739.92 284.08,-741.44 282.74,-734.57"/>
</a>
</g>
</g>
<!-- Node29 -->
<g id="Node000029" class="node">
<title>Node29</title>
<g id="a_Node000029"><a xlink:href="class_p4_1_1_find_action_parameters.html" target="_top" xlink:title=" ">
<polygon fill="white" stroke="#bfbfbf" points="486.5,-685 345.5,-685 345.5,-666 486.5,-666 486.5,-685"/>
<text text-anchor="middle" x="416" y="-673" font-family="Helvetica,sans-Serif" font-size="10.00">P4::FindActionParameters</text>
</a>
</g>
</g>
<!-- Node1&#45;&gt;Node29 -->
<g id="edge28_Node000001_Node000029" class="edge">
<title>Node1&#45;&gt;Node29</title>
<g id="a_edge28_Node000001_Node000029"><a xlink:title=" ">
<path fill="none" stroke="#63b8ff" d="M246.28,-734.17C265.39,-721.43 294.36,-703.79 322,-693.5 331.09,-690.12 340.94,-687.34 350.7,-685.06"/>
<polygon fill="#63b8ff" stroke="#63b8ff" points="244.29,-731.29 237.99,-739.81 248.23,-737.08 244.29,-731.29"/>
</a>
</g>
</g>
<!-- Node30 -->
<g id="Node000030" class="node">
<title>Node30</title>
<g id="a_Node000030"><a xlink:href="class_p4_1_1_find_function_specializations.html" target="_top" xlink:title=" ">
<polygon fill="white" stroke="#666666" points="501,-648 331,-648 331,-629 501,-629 501,-648"/>
<text text-anchor="middle" x="416" y="-636" font-family="Helvetica,sans-Serif" font-size="10.00">P4::FindFunctionSpecializations</text>
</a>
</g>
</g>
<!-- Node1&#45;&gt;Node30 -->
<g id="edge29_Node000001_Node000030" class="edge">
<title>Node1&#45;&gt;Node30</title>
<g id="a_edge29_Node000001_Node000030"><a xlink:title=" ">
<path fill="none" stroke="#63b8ff" d="M237.74,-731.76C254.75,-710.34 286.37,-674.89 322,-656.5 328.58,-653.11 335.71,-650.35 343.01,-648.11"/>
<polygon fill="#63b8ff" stroke="#63b8ff" points="234.92,-729.69 231.56,-739.74 240.45,-733.97 234.92,-729.69"/>
</a>
</g>
</g>
<!-- Node31 -->
<g id="Node000031" class="node">
<title>Node31</title>
<g id="a_Node000031"><a xlink:href="class_p4_1_1_find_global_action_uses.html" target="_top" xlink:title=" ">
<polygon fill="white" stroke="#bfbfbf" points="486.5,-611 345.5,-611 345.5,-592 486.5,-592 486.5,-611"/>
<text text-anchor="middle" x="416" y="-599" font-family="Helvetica,sans-Serif" font-size="10.00">P4::FindGlobalActionUses</text>
</a>
</g>
</g>
<!-- Node1&#45;&gt;Node31 -->
<g id="edge30_Node000001_Node000031" class="edge">
<title>Node1&#45;&gt;Node31</title>
<g id="a_edge30_Node000001_Node000031"><a xlink:title=" ">
<path fill="none" stroke="#63b8ff" d="M233,-730.68C247.09,-701.78 278.15,-646.95 322,-619.5 329.11,-615.05 337.08,-611.66 345.28,-609.08"/>
<polygon fill="#63b8ff" stroke="#63b8ff" points="229.83,-729.19 228.73,-739.73 236.16,-732.18 229.83,-729.19"/>
</a>
</g>
</g>
<!-- Node32 -->
<g id="Node000032" class="node">
<title>Node32</title>
<g id="a_Node000032"><a xlink:href="class_p4_1_1_find_repeated_action_uses.html" target="_top" xlink:title=" ">
<polygon fill="white" stroke="#bfbfbf" points="494,-574 338,-574 338,-555 494,-555 494,-574"/>
<text text-anchor="middle" x="416" y="-562" font-family="Helvetica,sans-Serif" font-size="10.00">P4::FindRepeatedActionUses</text>
</a>
</g>
</g>
<!-- Node1&#45;&gt;Node32 -->
<g id="edge31_Node000001_Node000032" class="edge">
<title>Node1&#45;&gt;Node32</title>
<g id="a_edge31_Node000001_Node000032"><a xlink:title=" ">
<path fill="none" stroke="#63b8ff" d="M230.01,-729.96C241.1,-694.47 269.63,-619.63 322,-582.5 326.83,-579.08 332.14,-576.26 337.7,-573.95"/>
<polygon fill="#63b8ff" stroke="#63b8ff" points="226.63,-729.05 227.12,-739.63 233.34,-731.05 226.63,-729.05"/>
</a>
</g>
</g>
<!-- Node33 -->
<g id="Node000033" class="node">
<title>Node33</title>
<g id="a_Node000033"><a xlink:href="class_p4_1_1_find_specializations.html" target="_top" xlink:title=" ">
<polygon fill="white" stroke="#666666" points="480,-537 352,-537 352,-518 480,-518 480,-537"/>
<text text-anchor="middle" x="416" y="-525" font-family="Helvetica,sans-Serif" font-size="10.00">P4::FindSpecializations</text>
</a>
</g>
</g>
<!-- Node1&#45;&gt;Node33 -->
<g id="edge32_Node000001_Node000033" class="edge">
<title>Node1&#45;&gt;Node33</title>
<g id="a_edge32_Node000001_Node000033"><a xlink:title=" ">
<path fill="none" stroke="#63b8ff" d="M227.79,-730.06C235.85,-688.94 260.55,-593 322,-545.5 330.59,-538.86 340.93,-534.45 351.55,-531.56"/>
<polygon fill="#63b8ff" stroke="#63b8ff" points="224.35,-729.45 225.98,-739.91 231.23,-730.71 224.35,-729.45"/>
</a>
</g>
</g>
<!-- Node34 -->
<g id="Node000034" class="node">
<title>Node34</title>
<g id="a_Node000034"><a xlink:href="class_p4_1_1_has_table_apply.html" target="_top" xlink:title="Checks to see whether an IR node includes a table.apply() sub&#45;expression.">
<polygon fill="white" stroke="#666666" points="469.5,-500 362.5,-500 362.5,-481 469.5,-481 469.5,-500"/>
<text text-anchor="middle" x="416" y="-488" font-family="Helvetica,sans-Serif" font-size="10.00">P4::HasTableApply</text>
</a>
</g>
</g>
<!-- Node1&#45;&gt;Node34 -->
<g id="edge33_Node000001_Node000034" class="edge">
<title>Node1&#45;&gt;Node34</title>
<g id="a_edge33_Node000001_Node000034"><a xlink:title=" ">
<path fill="none" stroke="#63b8ff" d="M226.26,-729.81C231.54,-683.37 251.5,-566.54 322,-508.5 333.3,-499.2 347.98,-494.19 362.33,-491.61"/>
<polygon fill="#63b8ff" stroke="#63b8ff" points="222.78,-729.48 225.24,-739.79 229.74,-730.2 222.78,-729.48"/>
</a>
</g>
</g>
<!-- Node35 -->
<g id="Node000035" class="node">
<title>Node35</title>
<g id="a_Node000035"><a xlink:href="class_p4_1_1_instantiate_direct_calls.html" target="_top" xlink:title=" ">
<polygon fill="white" stroke="#bfbfbf" points="486,-463 346,-463 346,-444 486,-444 486,-463"/>
<text text-anchor="middle" x="416" y="-451" font-family="Helvetica,sans-Serif" font-size="10.00">P4::InstantiateDirectCalls</text>
</a>
</g>
</g>
<!-- Node1&#45;&gt;Node35 -->
<g id="edge34_Node000001_Node000035" class="edge">
<title>Node1&#45;&gt;Node35</title>
<g id="a_edge34_Node000001_Node000035"><a xlink:title=" ">
<path fill="none" stroke="#63b8ff" d="M225.08,-729.65C227.73,-678.31 242.29,-540.34 322,-471.5 328.85,-465.59 337.04,-461.39 345.69,-458.43"/>
<polygon fill="#63b8ff" stroke="#63b8ff" points="221.58,-729.61 224.66,-739.75 228.58,-729.9 221.58,-729.61"/>
</a>
</g>
</g>
<!-- Node36 -->
<g id="Node000036" class="node">
<title>Node36</title>
<g id="a_Node000036"><a xlink:href="class_p4_1_1_key_side_effect.html" target="_top" xlink:title=" ">
<polygon fill="white" stroke="#666666" points="466.5,-426 365.5,-426 365.5,-407 466.5,-407 466.5,-426"/>
<text text-anchor="middle" x="416" y="-414" font-family="Helvetica,sans-Serif" font-size="10.00">P4::KeySideEffect</text>
</a>
</g>
</g>
<!-- Node1&#45;&gt;Node36 -->
<g id="edge35_Node000001_Node000036" class="edge">
<title>Node1&#45;&gt;Node36</title>
<g id="a_edge35_Node000001_Node000036"><a xlink:title=" ">
<path fill="none" stroke="#63b8ff" d="M224.14,-729.72C224.29,-673.97 232.86,-514.42 322,-434.5 333.76,-423.96 349.77,-418.8 365.2,-416.45"/>
<polygon fill="#63b8ff" stroke="#63b8ff" points="220.65,-730 224.21,-739.98 227.65,-729.95 220.65,-730"/>
</a>
</g>
</g>
<!-- Node38 -->
<g id="Node000038" class="node">
<title>Node38</title>
<g id="a_Node000038"><a xlink:href="class_p4_1_1_localize_actions.html" target="_top" xlink:title=" ">
<polygon fill="white" stroke="#bfbfbf" points="471,-389 361,-389 361,-370 471,-370 471,-389"/>
<text text-anchor="middle" x="416" y="-377" font-family="Helvetica,sans-Serif" font-size="10.00">P4::LocalizeActions</text>
</a>
</g>
</g>
<!-- Node1&#45;&gt;Node38 -->
<g id="edge37_Node000001_Node000038" class="edge">
<title>Node1&#45;&gt;Node38</title>
<g id="a_edge37_Node000001_Node000038"><a xlink:title=" ">
<path fill="none" stroke="#63b8ff" d="M227.21,-729.81C236.87,-662.63 271.7,-443.98 322,-397.5 332.51,-387.79 346.62,-382.6 360.66,-379.98"/>
<polygon fill="#63b8ff" stroke="#63b8ff" points="223.72,-729.5 225.79,-739.89 230.65,-730.48 223.72,-729.5"/>
</a>
</g>
</g>
<!-- Node39 -->
<g id="Node000039" class="node">
<title>Node39</title>
<g id="a_Node000039"><a xlink:href="class_p4_1_1_move_initializers.html" target="_top" xlink:title=" ">
<polygon fill="white" stroke="#666666" points="472.5,-352 359.5,-352 359.5,-333 472.5,-333 472.5,-352"/>
<text text-anchor="middle" x="416" y="-340" font-family="Helvetica,sans-Serif" font-size="10.00">P4::MoveInitializers</text>
</a>
</g>
</g>
<!-- Node1&#45;&gt;Node39 -->
<g id="edge38_Node000001_Node000039" class="edge">
<title>Node1&#45;&gt;Node39</title>
<g id="a_edge38_Node000001_Node000039"><a xlink:title=" ">
<path fill="none" stroke="#63b8ff" d="M226.68,-729.65C234.98,-657.79 266.93,-412.65 322,-360.5 332.03,-351 345.49,-345.8 359.05,-343.09"/>
<polygon fill="#63b8ff" stroke="#63b8ff" points="223.16,-729.65 225.51,-739.98 230.11,-730.44 223.16,-729.65"/>
</a>
</g>
</g>
<!-- Node40 -->
<g id="Node000040" class="node">
<title>Node40</title>
<g id="a_Node000040"><a xlink:href="class_p4_1_1_p4_fmt_1_1_p4_formatter.html" target="_top" xlink:title=" ">
<polygon fill="white" stroke="#666666" points="482,-315 350,-315 350,-296 482,-296 482,-315"/>
<text text-anchor="middle" x="416" y="-303" font-family="Helvetica,sans-Serif" font-size="10.00">P4::P4Fmt::P4Formatter</text>
</a>
</g>
</g>
<!-- Node1&#45;&gt;Node40 -->
<g id="edge39_Node000001_Node000040" class="edge">
<title>Node1&#45;&gt;Node40</title>
<g id="a_edge39_Node000001_Node000040"><a xlink:title=" ">
<path fill="none" stroke="#8b1a1a" d="M226.21,-729.75C233.19,-653.73 262.07,-381.43 322,-323.5 329.69,-316.07 339.46,-311.25 349.78,-308.2"/>
<polygon fill="#8b1a1a" stroke="#8b1a1a" points="222.71,-729.58 225.31,-739.85 229.68,-730.2 222.71,-729.58"/>
</a>
</g>
</g>
<!-- Node41 -->
<g id="Node000041" class="node">
<title>Node41</title>
<g id="a_Node000041"><a xlink:href="class_p4_1_1_p4_tools_1_1_p4_program_d_c_g_creator.html" target="_top" xlink:title="The main class for building control flow DCG.">
<polygon fill="white" stroke="#666666" points="510,-278 322,-278 322,-259 510,-259 510,-278"/>
<text text-anchor="middle" x="416" y="-266" font-family="Helvetica,sans-Serif" font-size="10.00">P4::P4Tools::P4ProgramDCGCreator</text>
</a>
</g>
</g>
<!-- Node1&#45;&gt;Node41 -->
<g id="edge40_Node000001_Node000041" class="edge">
<title>Node1&#45;&gt;Node41</title>
<g id="a_edge40_Node000001_Node000041"><a xlink:title=" ">
<path fill="none" stroke="#8b1a1a" d="M225.83,-729.61C231.62,-649.3 257.26,-350.19 322,-286.5 325.28,-283.27 328.96,-280.53 332.91,-278.22"/>
<polygon fill="#8b1a1a" stroke="#8b1a1a" points="222.32,-729.6 225.12,-739.82 229.31,-730.08 222.32,-729.6"/>
</a>
</g>
</g>
<!-- Node42 -->
<g id="Node000042" class="node">
<title>Node42</title>
<g id="a_Node000042"><a xlink:href="class_p4_1_1_reads_writes.html" target="_top" xlink:title="Computes the SetOfLocations read and written by an expression.">
<polygon fill="white" stroke="#666666" points="464,-241 368,-241 368,-222 464,-222 464,-241"/>
<text text-anchor="middle" x="416" y="-229" font-family="Helvetica,sans-Serif" font-size="10.00">P4::ReadsWrites</text>
</a>
</g>
</g>
<!-- Node1&#45;&gt;Node42 -->
<g id="edge41_Node000001_Node000042" class="edge">
<title>Node1&#45;&gt;Node42</title>
<g id="a_edge41_Node000001_Node000042"><a xlink:title=" ">
<path fill="none" stroke="#63b8ff" d="M225.49,-729.66C230.12,-645.5 252.37,-319.03 322,-249.5 333.99,-237.53 351.38,-232.28 367.89,-230.28"/>
<polygon fill="#63b8ff" stroke="#63b8ff" points="221.99,-729.71 224.95,-739.88 228.98,-730.08 221.99,-729.71"/>
</a>
</g>
</g>
<!-- Node43 -->
<g id="Node000043" class="node">
<title>Node43</title>
<g id="a_Node000043"><a xlink:href="class_p4_1_1_rename_symbols.html" target="_top" xlink:title=" ">
<polygon fill="white" stroke="#bfbfbf" points="474.5,-204 357.5,-204 357.5,-185 474.5,-185 474.5,-204"/>
<text text-anchor="middle" x="416" y="-192" font-family="Helvetica,sans-Serif" font-size="10.00">P4::RenameSymbols</text>
</a>
</g>
</g>
<!-- Node1&#45;&gt;Node43 -->
<g id="edge42_Node000001_Node000043" class="edge">
<title>Node1&#45;&gt;Node43</title>
<g id="a_edge42_Node000001_Node000043"><a xlink:title=" ">
<path fill="none" stroke="#63b8ff" d="M225.21,-729.6C228.75,-641.54 247.5,-287.87 322,-212.5 331.36,-203.03 344.11,-197.75 357.17,-194.95"/>
<polygon fill="#63b8ff" stroke="#63b8ff" points="221.71,-729.48 224.82,-739.61 228.7,-729.75 221.71,-729.48"/>
</a>
</g>
</g>
<!-- Node44 -->
<g id="Node000044" class="node">
<title>Node44</title>
<g id="a_Node000044"><a xlink:href="class_p4_1_1_resolve_references.html" target="_top" xlink:title=" ">
<polygon fill="white" stroke="#666666" points="480,-167 352,-167 352,-148 480,-148 480,-167"/>
<text text-anchor="middle" x="416" y="-155" font-family="Helvetica,sans-Serif" font-size="10.00">P4::ResolveReferences</text>
</a>
</g>
</g>
<!-- Node1&#45;&gt;Node44 -->
<g id="edge43_Node000001_Node000044" class="edge">
<title>Node1&#45;&gt;Node44</title>
<g id="a_edge43_Node000001_Node000044"><a xlink:title=" ">
<path fill="none" stroke="#8b1a1a" d="M224.95,-729.72C227.45,-638.2 242.56,-256.78 322,-175.5 330.05,-167.27 340.65,-162.19 351.8,-159.16"/>
<polygon fill="#8b1a1a" stroke="#8b1a1a" points="221.45,-729.74 224.69,-739.83 228.45,-729.92 221.45,-729.74"/>
</a>
</g>
</g>
<!-- Node45 -->
<g id="Node000045" class="node">
<title>Node45</title>
<g id="a_Node000045"><a xlink:href="class_p4_1_1_substitute_parameters.html" target="_top" xlink:title=" ">
<polygon fill="white" stroke="#bfbfbf" points="486,-130 346,-130 346,-111 486,-111 486,-130"/>
<text text-anchor="middle" x="416" y="-118" font-family="Helvetica,sans-Serif" font-size="10.00">P4::SubstituteParameters</text>
</a>
</g>
</g>
<!-- Node1&#45;&gt;Node45 -->
<g id="edge44_Node000001_Node000045" class="edge">
<title>Node1&#45;&gt;Node45</title>
<g id="a_edge44_Node000001_Node000045"><a xlink:title=" ">
<path fill="none" stroke="#63b8ff" d="M224.73,-729.66C226.25,-634.48 237.66,-225.66 322,-138.5 328.52,-131.76 336.74,-127.13 345.59,-124.01"/>
<polygon fill="#63b8ff" stroke="#63b8ff" points="221.23,-729.62 224.59,-739.67 228.23,-729.72 221.23,-729.62"/>
</a>
</g>
</g>
<!-- Node46 -->
<g id="Node000046" class="node">
<title>Node46</title>
<g id="a_Node000046"><a xlink:href="class_p4_1_1_to_p4.html" target="_top" xlink:title=" ">
<polygon fill="white" stroke="#666666" points="444.5,-93 387.5,-93 387.5,-74 444.5,-74 444.5,-93"/>
<text text-anchor="middle" x="416" y="-81" font-family="Helvetica,sans-Serif" font-size="10.00">P4::ToP4</text>
</a>
</g>
</g>
<!-- Node1&#45;&gt;Node46 -->
<g id="edge45_Node000001_Node000046" class="edge">
<title>Node1&#45;&gt;Node46</title>
<g id="a_edge45_Node000001_Node000046"><a xlink:title=" ">
<path fill="none" stroke="#8b1a1a" d="M224.53,-729.41C225.12,-630.31 232.81,-194.5 322,-101.5 338.62,-84.17 366.53,-80.75 387.45,-81.02"/>
<polygon fill="#8b1a1a" stroke="#8b1a1a" points="221.03,-729.55 224.49,-739.56 228.03,-729.57 221.03,-729.55"/>
</a>
</g>
</g>
<!-- Node47 -->
<g id="Node000047" class="node">
<title>Node47</title>
<g id="a_Node000047"><a xlink:href="class_p4_1_1_type_inference.html" target="_top" xlink:title=" ">
<polygon fill="white" stroke="#bfbfbf" points="467.5,-56 364.5,-56 364.5,-37 467.5,-37 467.5,-56"/>
<text text-anchor="middle" x="416" y="-44" font-family="Helvetica,sans-Serif" font-size="10.00">P4::TypeInference</text>
</a>
</g>
</g>
<!-- Node1&#45;&gt;Node47 -->
<g id="edge46_Node000001_Node000047" class="edge">
<title>Node1&#45;&gt;Node47</title>
<g id="a_edge46_Node000001_Node000047"><a xlink:title=" ">
<path fill="none" stroke="#63b8ff" d="M224.36,-729.9C224.02,-628.42 227.72,-163.59 322,-64.5 332.88,-53.06 348.68,-47.67 364.18,-45.4"/>
<polygon fill="#63b8ff" stroke="#63b8ff" points="220.86,-729.99 224.41,-739.97 227.86,-729.96 220.86,-729.99"/>
</a>
</g>
</g>
<!-- Node48 -->
<g id="Node000048" class="node">
<title>Node48</title>
<g id="a_Node000048"><a xlink:href="class_p4_1_1_unroll_loops.html" target="_top" xlink:title=" ">
<polygon fill="white" stroke="#bfbfbf" points="462,-19 370,-19 370,0 462,0 462,-19"/>
<text text-anchor="middle" x="416" y="-7" font-family="Helvetica,sans-Serif" font-size="10.00">P4::UnrollLoops</text>
</a>
</g>
</g>
<!-- Node1&#45;&gt;Node48 -->
<g id="edge47_Node000001_Node000048" class="edge">
<title>Node1&#45;&gt;Node48</title>
<g id="a_edge47_Node000001_Node000048"><a xlink:title=" ">
<path fill="none" stroke="#63b8ff" d="M224.2,-729.84C223,-625.01 222.8,-132.52 322,-27.5 334.2,-14.59 352.65,-9.37 369.92,-7.65"/>
<polygon fill="#63b8ff" stroke="#63b8ff" points="220.7,-730.01 224.33,-739.96 227.7,-729.91 220.7,-730.01"/>
</a>
</g>
</g>
<!-- Node2 -->
<g id="Node000002" class="node">
<title>Node2</title>
<g id="a_Node000002"><a xlink:href="class_p4_1_1_visitor.html" target="_top" xlink:title=" ">
<polygon fill="white" stroke="#bfbfbf" points="95.5,-778 29.5,-778 29.5,-759 95.5,-759 95.5,-778"/>
<text text-anchor="middle" x="62.5" y="-766" font-family="Helvetica,sans-Serif" font-size="10.00">P4::Visitor</text>
</a>
</g>
</g>
<!-- Node2&#45;&gt;Node1 -->
<g id="edge1_Node000001_Node000002" class="edge">
<title>Node2&#45;&gt;Node1</title>
<g id="a_edge1_Node000001_Node000002"><a xlink:title=" ">
<path fill="none" stroke="#63b8ff" d="M105.76,-763.45C122.62,-761.43 142.37,-759.08 160.78,-756.88"/>
<polygon fill="#63b8ff" stroke="#63b8ff" points="105.19,-759.99 95.68,-764.66 106.02,-766.94 105.19,-759.99"/>
</a>
</g>
</g>
<!-- Node3 -->
<g id="Node000003" class="node">
<title>Node3</title>
<g id="a_Node000003"><a xlink:href="class_p4_1_1_declaration_lookup.html" target="_top" xlink:title=" ">
<polygon fill="white" stroke="#bfbfbf" points="125,-741 0,-741 0,-722 125,-722 125,-741"/>
<text text-anchor="middle" x="62.5" y="-729" font-family="Helvetica,sans-Serif" font-size="10.00">P4::DeclarationLookup</text>
</a>
</g>
</g>
<!-- Node3&#45;&gt;Node1 -->
<g id="edge2_Node000001_Node000003" class="edge">
<title>Node3&#45;&gt;Node1</title>
<g id="a_edge2_Node000001_Node000003"><a xlink:title=" ">
<path fill="none" stroke="#63b8ff" d="M135.59,-739.66C143.99,-740.61 152.5,-741.58 160.74,-742.51"/>
<polygon fill="#63b8ff" stroke="#63b8ff" points="135.76,-736.16 125.43,-738.51 134.97,-743.11 135.76,-736.16"/>
</a>
</g>
</g>
<!-- Node5 -->
<g id="Node000005" class="node">
<title>Node5</title>
<g id="a_Node000005"><a xlink:href="class_p4_1_1_actions_inliner.html" target="_top" xlink:title=" ">
<polygon fill="white" stroke="#bfbfbf" points="675,-1590 574,-1590 574,-1571 675,-1571 675,-1590"/>
<text text-anchor="middle" x="624.5" y="-1578" font-family="Helvetica,sans-Serif" font-size="10.00">P4::ActionsInliner</text>
</a>
</g>
</g>
<!-- Node4&#45;&gt;Node5 -->
<g id="edge4_Node000004_Node000005" class="edge">
<title>Node4&#45;&gt;Node5</title>
<g id="a_edge4_Node000004_Node000005"><a xlink:title=" ">
<path fill="none" stroke="#63b8ff" d="M481.83,-1580.5C511.6,-1580.5 546.35,-1580.5 573.98,-1580.5"/>
<polygon fill="#63b8ff" stroke="#63b8ff" points="481.53,-1577 471.53,-1580.5 481.53,-1584 481.53,-1577"/>
</a>
</g>
</g>
<!-- Node7 -->
<g id="Node000007" class="node">
<title>Node7</title>
<g id="a_Node000007"><a xlink:href="class_p4_1_1_functions_inliner.html" target="_top" xlink:title=" ">
<polygon fill="white" stroke="#666666" points="680.5,-1531 568.5,-1531 568.5,-1512 680.5,-1512 680.5,-1531"/>
<text text-anchor="middle" x="624.5" y="-1519" font-family="Helvetica,sans-Serif" font-size="10.00">P4::FunctionsInliner</text>
</a>
</g>
</g>
<!-- Node6&#45;&gt;Node7 -->
<g id="edge6_Node000006_Node000007" class="edge">
<title>Node6&#45;&gt;Node7</title>
<g id="a_edge6_Node000006_Node000007"><a xlink:title=" ">
<path fill="none" stroke="#63b8ff" d="M499.38,-1521.5C522.51,-1521.5 547.1,-1521.5 568.24,-1521.5"/>
<polygon fill="#63b8ff" stroke="#63b8ff" points="499.22,-1518 489.22,-1521.5 499.22,-1525 499.22,-1518"/>
</a>
</g>
</g>
<!-- Node9 -->
<g id="Node000009" class="node">
<title>Node9</title>
<g id="a_Node000009"><a xlink:href="class_p4_1_1_general_inliner.html" target="_top" xlink:title="Performs actual inlining work.">
<polygon fill="white" stroke="#666666" points="676.5,-1477 572.5,-1477 572.5,-1458 676.5,-1458 676.5,-1477"/>
<text text-anchor="middle" x="624.5" y="-1465" font-family="Helvetica,sans-Serif" font-size="10.00">P4::GeneralInliner</text>
</a>
</g>
</g>
<!-- Node8&#45;&gt;Node9 -->
<g id="edge8_Node000008_Node000009" class="edge">
<title>Node8&#45;&gt;Node9</title>
<g id="a_edge8_Node000008_Node000009"><a xlink:title=" ">
<path fill="none" stroke="#63b8ff" d="M508.1,-1467.5C530.18,-1467.5 553.01,-1467.5 572.48,-1467.5"/>
<polygon fill="#63b8ff" stroke="#63b8ff" points="508.02,-1464 498.02,-1467.5 508.02,-1471 508.02,-1464"/>
</a>
</g>
</g>
<!-- Node37 -->
<g id="Node000037" class="node">
<title>Node37</title>
<g id="a_Node000037"><a xlink:href="class_p4_1_1_d_p_d_k_1_1_copy_match_keys_to_single_struct.html" target="_top" xlink:title=" ">
<polygon fill="white" stroke="#bfbfbf" points="703,-431.5 546,-431.5 546,-401.5 703,-401.5 703,-431.5"/>
<text text-anchor="start" x="554" y="-419.5" font-family="Helvetica,sans-Serif" font-size="10.00">P4::DPDK::CopyMatchKeysTo</text>
<text text-anchor="middle" x="624.5" y="-408.5" font-family="Helvetica,sans-Serif" font-size="10.00">SingleStruct</text>
</a>
</g>
</g>
<!-- Node36&#45;&gt;Node37 -->
<g id="edge36_Node000036_Node000037" class="edge">
<title>Node36&#45;&gt;Node37</title>
<g id="a_edge36_Node000036_Node000037"><a xlink:title=" ">
<path fill="none" stroke="#63b8ff" d="M476.74,-416.5C498.35,-416.5 523.07,-416.5 545.99,-416.5"/>
<polygon fill="#63b8ff" stroke="#63b8ff" points="476.72,-413 466.72,-416.5 476.72,-420 476.72,-413"/>
</a>
</g>
</g>
</g>
</svg>

<g id="navigator" transform="translate(0 0)" fill="#404254">
  <rect fill="#f2f5e9" fill-opacity="0.5" stroke="#606060" stroke-width=".5" x="0" y="0" width="60" height="60"/>
  <use id="zoomplus" xlink:href="#zoomPlus" x="17" y="9" onmousedown="handleZoom(evt,'in')"/>
  <use id="zoomminus" xlink:href="#zoomMin" x="42" y="9" onmousedown="handleZoom(evt,'out')"/>
  <use id="reset" xlink:href="#resetDef" x="30" y="36" onmousedown="handleReset()"/>
   <use id="arrowup" xlink:href="#arrowUp" x="0" y="0" onmousedown="handlePan(0,-1)"/>
  <use id="arrowright" xlink:href="#arrowRight" x="0" y="0" onmousedown="handlePan(1,0)"/>
  <use id="arrowdown" xlink:href="#arrowDown" x="0" y="0" onmousedown="handlePan(0,1)"/>
  <use id="arrowleft" xlink:href="#arrowLeft" x="0" y="0" onmousedown="handlePan(-1,0)"/>
</g>
<svg viewBox="0 0 15 15" width="100%" height="30px" preserveAspectRatio="xMaxYMin meet">
 <g id="arrow_out" transform="scale(0.3 0.3)">
  <a xlink:href="class_p4_1_1_resolution_context__inherit__graph_org.svg" target="_base">
   <rect id="button" ry="5" rx="5" y="6" x="6" height="38" width="38"
        fill="#f2f5e9" fill-opacity="0.5" stroke="#606060" stroke-width="1.0"/>
   <path id="arrow"
     d="M 11.500037,31.436501 C 11.940474,20.09759 22.043105,11.32322 32.158766,21.979434 L 37.068811,17.246167 C 37.068811,17.246167 37.088388,32 37.088388,32 L 22.160133,31.978069 C 22.160133,31.978069 26.997745,27.140456 26.997745,27.140456 C 18.528582,18.264221 13.291696,25.230495 11.500037,31.436501 z"
     style="fill:#404040;"/>
  </a>
 </g>
</svg>

<style type='text/css'>
<![CDATA[
[data-mouse-over-selected='false'] { opacity: 0.7; }
[data-mouse-over-selected='true']  { opacity: 1.0; }
]]>
</style>
<script type="application/ecmascript"><![CDATA[
document.addEventListener('DOMContentLoaded', (event) => {
  highlightEdges();
  highlightAdjacentNodes();
});
]]></script>
</svg>
