<?xml version="1.0" encoding="UTF-8" standalone="no"?>
<!DOCTYPE svg PUBLIC "-//W3C//DTD SVG 1.1//EN"
 "http://www.w3.org/Graphics/SVG/1.1/DTD/svg11.dtd">
<!-- Generated by graphviz version 2.43.0 (0)
 -->
<!-- Title: P4::SymbolicStruct Pages: 1 -->
<svg width="284pt" height="302pt"
 viewBox="0.00 0.00 284.00 302.00" xmlns="http://www.w3.org/2000/svg" xmlns:xlink="http://www.w3.org/1999/xlink">
<g id="graph0" class="graph" transform="scale(1 1) rotate(0) translate(4 298)">
<title>P4::SymbolicStruct</title>
<!-- Node1 -->
<g id="Node000001" class="node">
<title>Node1</title>
<g id="a_Node000001"><a xlink:title=" ">
<polygon fill="#999999" stroke="#666666" points="184.5,-129 76.5,-129 76.5,-110 184.5,-110 184.5,-129"/>
<text text-anchor="middle" x="130.5" y="-117" font-family="Helvetica,sans-Serif" font-size="10.00">P4::SymbolicStruct</text>
</a>
</g>
</g>
<!-- Node6 -->
<g id="Node000006" class="node">
<title>Node6</title>
<g id="a_Node000006"><a xlink:href="class_p4_1_1_symbolic_header.html" target="_top" xlink:title=" ">
<polygon fill="white" stroke="#bfbfbf" points="115,-74 0,-74 0,-55 115,-55 115,-74"/>
<text text-anchor="middle" x="57.5" y="-62" font-family="Helvetica,sans-Serif" font-size="10.00">P4::SymbolicHeader</text>
</a>
</g>
</g>
<!-- Node1&#45;&gt;Node6 -->
<g id="edge5_Node000001_Node000006" class="edge">
<title>Node1&#45;&gt;Node6</title>
<g id="a_edge5_Node000001_Node000006"><a xlink:title=" ">
<path fill="none" stroke="#63b8ff" d="M110.36,-103.88C97.22,-94.34 80.52,-82.21 69.44,-74.17"/>
<polygon fill="#63b8ff" stroke="#63b8ff" points="108.62,-106.94 118.77,-109.98 112.74,-101.28 108.62,-106.94"/>
</a>
</g>
</g>
<!-- Node8 -->
<g id="Node000008" class="node">
<title>Node8</title>
<g id="a_Node000008"><a xlink:href="class_p4_1_1_symbolic_header_union.html" target="_top" xlink:title=" ">
<polygon fill="white" stroke="#bfbfbf" points="276,-74 133,-74 133,-55 276,-55 276,-74"/>
<text text-anchor="middle" x="204.5" y="-62" font-family="Helvetica,sans-Serif" font-size="10.00">P4::SymbolicHeaderUnion</text>
</a>
</g>
</g>
<!-- Node1&#45;&gt;Node8 -->
<g id="edge7_Node000001_Node000008" class="edge">
<title>Node1&#45;&gt;Node8</title>
<g id="a_edge7_Node000001_Node000008"><a xlink:title=" ">
<path fill="none" stroke="#63b8ff" d="M150.53,-104.15C163.91,-94.57 181.06,-82.29 192.39,-74.17"/>
<polygon fill="#63b8ff" stroke="#63b8ff" points="148.48,-101.32 142.39,-109.98 152.56,-107.01 148.48,-101.32"/>
</a>
</g>
</g>
<!-- Node2 -->
<g id="Node000002" class="node">
<title>Node2</title>
<g id="a_Node000002"><a xlink:href="class_p4_1_1_symbolic_value.html" target="_top" xlink:title=" ">
<polygon fill="white" stroke="#bfbfbf" points="184,-184 77,-184 77,-165 184,-165 184,-184"/>
<text text-anchor="middle" x="130.5" y="-172" font-family="Helvetica,sans-Serif" font-size="10.00">P4::SymbolicValue</text>
</a>
</g>
</g>
<!-- Node2&#45;&gt;Node1 -->
<g id="edge1_Node000001_Node000002" class="edge">
<title>Node2&#45;&gt;Node1</title>
<g id="a_edge1_Node000001_Node000002"><a xlink:title=" ">
<path fill="none" stroke="#63b8ff" d="M130.5,-154.66C130.5,-145.93 130.5,-135.99 130.5,-129.09"/>
<polygon fill="#63b8ff" stroke="#63b8ff" points="127,-154.75 130.5,-164.75 134,-154.75 127,-154.75"/>
</a>
</g>
</g>
<!-- Node3 -->
<g id="Node000003" class="node">
<title>Node3</title>
<g id="a_Node000003"><a xlink:href="class_p4_1_1_i_has_db_print.html" target="_top" xlink:title=" ">
<polygon fill="white" stroke="#bfbfbf" points="124.5,-239 32.5,-239 32.5,-220 124.5,-220 124.5,-239"/>
<text text-anchor="middle" x="78.5" y="-227" font-family="Helvetica,sans-Serif" font-size="10.00">P4::IHasDbPrint</text>
</a>
</g>
</g>
<!-- Node3&#45;&gt;Node2 -->
<g id="edge2_Node000002_Node000003" class="edge">
<title>Node3&#45;&gt;Node2</title>
<g id="a_edge2_Node000002_Node000003"><a xlink:title=" ">
<path fill="none" stroke="#63b8ff" d="M94.18,-212.52C103.34,-203.18 114.55,-191.75 122.07,-184.09"/>
<polygon fill="#63b8ff" stroke="#63b8ff" points="91.59,-210.16 87.09,-219.75 96.59,-215.06 91.59,-210.16"/>
</a>
</g>
</g>
<!-- Node4 -->
<g id="Node000004" class="node">
<title>Node4</title>
<g id="a_Node000004"><a xlink:href="class_p4_1_1_i_castable.html" target="_top" xlink:title=" ">
<polygon fill="white" stroke="#666666" points="222.5,-239 142.5,-239 142.5,-220 222.5,-220 222.5,-239"/>
<text text-anchor="middle" x="182.5" y="-227" font-family="Helvetica,sans-Serif" font-size="10.00">P4::ICastable</text>
</a>
</g>
</g>
<!-- Node4&#45;&gt;Node2 -->
<g id="edge3_Node000002_Node000004" class="edge">
<title>Node4&#45;&gt;Node2</title>
<g id="a_edge3_Node000002_Node000004"><a xlink:title=" ">
<path fill="none" stroke="#63b8ff" d="M166.82,-212.52C157.66,-203.18 146.45,-191.75 138.93,-184.09"/>
<polygon fill="#63b8ff" stroke="#63b8ff" points="164.41,-215.06 173.91,-219.75 169.41,-210.16 164.41,-215.06"/>
</a>
</g>
</g>
<!-- Node5 -->
<g id="Node000005" class="node">
<title>Node5</title>
<g id="a_Node000005"><a xlink:href="struct_p4_1_1_r_t_t_i_1_1_base.html" target="_top" xlink:title=" ">
<polygon fill="white" stroke="#bfbfbf" points="225.5,-294 139.5,-294 139.5,-275 225.5,-275 225.5,-294"/>
<text text-anchor="middle" x="182.5" y="-282" font-family="Helvetica,sans-Serif" font-size="10.00">P4::RTTI::Base</text>
</a>
</g>
</g>
<!-- Node5&#45;&gt;Node4 -->
<g id="edge4_Node000004_Node000005" class="edge">
<title>Node5&#45;&gt;Node4</title>
<g id="a_edge4_Node000004_Node000005"><a xlink:title=" ">
<path fill="none" stroke="#63b8ff" d="M182.5,-264.66C182.5,-255.93 182.5,-245.99 182.5,-239.09"/>
<polygon fill="#63b8ff" stroke="#63b8ff" points="179,-264.75 182.5,-274.75 186,-264.75 179,-264.75"/>
</a>
</g>
</g>
<!-- Node7 -->
<g id="Node000007" class="node">
<title>Node7</title>
<g id="a_Node000007"><a xlink:href="class_p4_1_1_any_element.html" target="_top" xlink:title=" ">
<polygon fill="white" stroke="#bfbfbf" points="104.5,-19 10.5,-19 10.5,0 104.5,0 104.5,-19"/>
<text text-anchor="middle" x="57.5" y="-7" font-family="Helvetica,sans-Serif" font-size="10.00">P4::AnyElement</text>
</a>
</g>
</g>
<!-- Node6&#45;&gt;Node7 -->
<g id="edge6_Node000006_Node000007" class="edge">
<title>Node6&#45;&gt;Node7</title>
<g id="a_edge6_Node000006_Node000007"><a xlink:title=" ">
<path fill="none" stroke="#63b8ff" d="M57.5,-44.66C57.5,-35.93 57.5,-25.99 57.5,-19.09"/>
<polygon fill="#63b8ff" stroke="#63b8ff" points="54,-44.75 57.5,-54.75 61,-44.75 54,-44.75"/>
</a>
</g>
</g>
</g>
</svg>
