<?xml version="1.0" encoding="UTF-8" standalone="no"?>
<!DOCTYPE svg PUBLIC "-//W3C//DTD SVG 1.1//EN"
 "http://www.w3.org/Graphics/SVG/1.1/DTD/svg11.dtd">
<!-- Generated by graphviz version 2.43.0 (0)
 -->
<!-- Title: P4::IR::NodeMap&lt; KEY, VALUE, MAP, COMP, ALLOC &gt; Pages: 1 -->
<svg width="351pt" height="258pt"
 viewBox="0.00 0.00 350.50 258.00" xmlns="http://www.w3.org/2000/svg" xmlns:xlink="http://www.w3.org/1999/xlink">
<g id="graph0" class="graph" transform="scale(1 1) rotate(0) translate(4 254)">
<title>P4::IR::NodeMap&lt; KEY, VALUE, MAP, COMP, ALLOC &gt;</title>
<!-- Node1 -->
<g id="Node000001" class="node">
<title>Node1</title>
<g id="a_Node000001"><a xlink:title=" ">
<polygon fill="#999999" stroke="#666666" points="277,-30 114,-30 114,0 277,0 277,-30"/>
<text text-anchor="start" x="122" y="-18" font-family="Helvetica,sans-Serif" font-size="10.00">P4::IR::NodeMap&lt; KEY,</text>
<text text-anchor="middle" x="195.5" y="-7" font-family="Helvetica,sans-Serif" font-size="10.00"> VALUE, MAP, COMP, ALLOC &gt;</text>
</a>
</g>
</g>
<!-- Node2 -->
<g id="Node000002" class="node">
<title>Node2</title>
<g id="a_Node000002"><a xlink:href="class_p4_1_1_i_r_1_1_node.html" target="_top" xlink:title=" ">
<polygon fill="white" stroke="#bfbfbf" points="233.5,-85 157.5,-85 157.5,-66 233.5,-66 233.5,-85"/>
<text text-anchor="middle" x="195.5" y="-73" font-family="Helvetica,sans-Serif" font-size="10.00">P4::IR::Node</text>
</a>
</g>
</g>
<!-- Node2&#45;&gt;Node1 -->
<g id="edge1_Node000001_Node000002" class="edge">
<title>Node2&#45;&gt;Node1</title>
<g id="a_edge1_Node000001_Node000002"><a xlink:title=" ">
<path fill="none" stroke="#63b8ff" d="M195.5,-55.65C195.5,-47.36 195.5,-37.78 195.5,-30.11"/>
<polygon fill="#63b8ff" stroke="#63b8ff" points="192,-55.87 195.5,-65.87 199,-55.87 192,-55.87"/>
</a>
</g>
</g>
<!-- Node3 -->
<g id="Node000003" class="node">
<title>Node3</title>
<g id="a_Node000003"><a xlink:href="class_p4_1_1_i_r_1_1_i_node.html" target="_top" xlink:title=" ">
<polygon fill="white" stroke="#bfbfbf" points="235,-140 156,-140 156,-121 235,-121 235,-140"/>
<text text-anchor="middle" x="195.5" y="-128" font-family="Helvetica,sans-Serif" font-size="10.00">P4::IR::INode</text>
</a>
</g>
</g>
<!-- Node3&#45;&gt;Node2 -->
<g id="edge2_Node000002_Node000003" class="edge">
<title>Node3&#45;&gt;Node2</title>
<g id="a_edge2_Node000002_Node000003"><a xlink:title=" ">
<path fill="none" stroke="#63b8ff" d="M195.5,-110.66C195.5,-101.93 195.5,-91.99 195.5,-85.09"/>
<polygon fill="#63b8ff" stroke="#63b8ff" points="192,-110.75 195.5,-120.75 199,-110.75 192,-110.75"/>
</a>
</g>
</g>
<!-- Node4 -->
<g id="Node000004" class="node">
<title>Node4</title>
<g id="a_Node000004"><a xlink:href="class_p4_1_1_util_1_1_i_has_source_info.html" target="_top" xlink:title=" ">
<polygon fill="white" stroke="#bfbfbf" points="131,-195 0,-195 0,-176 131,-176 131,-195"/>
<text text-anchor="middle" x="65.5" y="-183" font-family="Helvetica,sans-Serif" font-size="10.00">P4::Util::IHasSourceInfo</text>
</a>
</g>
</g>
<!-- Node4&#45;&gt;Node3 -->
<g id="edge3_Node000003_Node000004" class="edge">
<title>Node4&#45;&gt;Node3</title>
<g id="a_edge3_Node000003_Node000004"><a xlink:title=" ">
<path fill="none" stroke="#63b8ff" d="M95.77,-172.16C119.84,-162.35 152.9,-148.87 174.23,-140.17"/>
<polygon fill="#63b8ff" stroke="#63b8ff" points="94.33,-168.97 86.39,-175.98 96.97,-175.45 94.33,-168.97"/>
</a>
</g>
</g>
<!-- Node5 -->
<g id="Node000005" class="node">
<title>Node5</title>
<g id="a_Node000005"><a xlink:href="class_p4_1_1_i_has_db_print.html" target="_top" xlink:title=" ">
<polygon fill="white" stroke="#bfbfbf" points="241.5,-195 149.5,-195 149.5,-176 241.5,-176 241.5,-195"/>
<text text-anchor="middle" x="195.5" y="-183" font-family="Helvetica,sans-Serif" font-size="10.00">P4::IHasDbPrint</text>
</a>
</g>
</g>
<!-- Node5&#45;&gt;Node3 -->
<g id="edge4_Node000003_Node000005" class="edge">
<title>Node5&#45;&gt;Node3</title>
<g id="a_edge4_Node000003_Node000005"><a xlink:title=" ">
<path fill="none" stroke="#63b8ff" d="M195.5,-165.66C195.5,-156.93 195.5,-146.99 195.5,-140.09"/>
<polygon fill="#63b8ff" stroke="#63b8ff" points="192,-165.75 195.5,-175.75 199,-165.75 192,-165.75"/>
</a>
</g>
</g>
<!-- Node6 -->
<g id="Node000006" class="node">
<title>Node6</title>
<g id="a_Node000006"><a xlink:href="class_p4_1_1_i_castable.html" target="_top" xlink:title=" ">
<polygon fill="white" stroke="#666666" points="339.5,-195 259.5,-195 259.5,-176 339.5,-176 339.5,-195"/>
<text text-anchor="middle" x="299.5" y="-183" font-family="Helvetica,sans-Serif" font-size="10.00">P4::ICastable</text>
</a>
</g>
</g>
<!-- Node6&#45;&gt;Node3 -->
<g id="edge5_Node000003_Node000006" class="edge">
<title>Node6&#45;&gt;Node3</title>
<g id="a_edge5_Node000003_Node000006"><a xlink:title=" ">
<path fill="none" stroke="#63b8ff" d="M273.73,-171.37C254.63,-161.63 229.13,-148.64 212.51,-140.17"/>
<polygon fill="#63b8ff" stroke="#63b8ff" points="272.29,-174.56 282.79,-175.98 275.47,-168.33 272.29,-174.56"/>
</a>
</g>
</g>
<!-- Node7 -->
<g id="Node000007" class="node">
<title>Node7</title>
<g id="a_Node000007"><a xlink:href="struct_p4_1_1_r_t_t_i_1_1_base.html" target="_top" xlink:title=" ">
<polygon fill="white" stroke="#bfbfbf" points="342.5,-250 256.5,-250 256.5,-231 342.5,-231 342.5,-250"/>
<text text-anchor="middle" x="299.5" y="-238" font-family="Helvetica,sans-Serif" font-size="10.00">P4::RTTI::Base</text>
</a>
</g>
</g>
<!-- Node7&#45;&gt;Node6 -->
<g id="edge6_Node000006_Node000007" class="edge">
<title>Node7&#45;&gt;Node6</title>
<g id="a_edge6_Node000006_Node000007"><a xlink:title=" ">
<path fill="none" stroke="#63b8ff" d="M299.5,-220.66C299.5,-211.93 299.5,-201.99 299.5,-195.09"/>
<polygon fill="#63b8ff" stroke="#63b8ff" points="296,-220.75 299.5,-230.75 303,-220.75 296,-220.75"/>
</a>
</g>
</g>
</g>
</svg>
