<?xml version="1.0" encoding="UTF-8" standalone="no"?>
<!DOCTYPE svg PUBLIC "-//W3C//DTD SVG 1.1//EN"
 "http://www.w3.org/Graphics/SVG/1.1/DTD/svg11.dtd">
<!-- Generated by graphviz version 2.43.0 (0)
 -->
<!-- Title: P4::Backtrack Pages: 1 -->
<svg width="573pt" height="1723pt"
 viewBox="0.00 0.00 573.00 1723.00" xmlns="http://www.w3.org/2000/svg" xmlns:xlink="http://www.w3.org/1999/xlink">
<g id="graph0" class="graph" transform="scale(1 1) rotate(0) translate(4 1719)">
<title>P4::Backtrack</title>
<!-- Node1 -->
<g id="Node000001" class="node">
<title>Node1</title>
<g id="a_Node000001"><a xlink:title=" ">
<polygon fill="#999999" stroke="#666666" points="185,-851 102,-851 102,-832 185,-832 185,-851"/>
<text text-anchor="middle" x="143.5" y="-839" font-family="Helvetica,sans-Serif" font-size="10.00">P4::Backtrack</text>
</a>
</g>
</g>
<!-- Node3 -->
<g id="Node000003" class="node">
<title>Node3</title>
<g id="a_Node000003"><a xlink:href="class_p4_1_1_on_backtrack.html" target="_top" xlink:title=" ">
<polygon fill="white" stroke="#bfbfbf" points="346,-870 221,-870 221,-851 346,-851 346,-870"/>
<text text-anchor="middle" x="283.5" y="-858" font-family="Helvetica,sans-Serif" font-size="10.00">P4::OnBacktrack&lt; T &gt;</text>
</a>
</g>
</g>
<!-- Node1&#45;&gt;Node3 -->
<g id="edge2_Node000001_Node000003" class="edge">
<title>Node1&#45;&gt;Node3</title>
<g id="a_edge2_Node000001_Node000003"><a xlink:title=" ">
<path fill="none" stroke="#63b8ff" d="M195.15,-848.47C203.52,-849.63 212.29,-850.83 220.9,-852.02"/>
<polygon fill="#63b8ff" stroke="#63b8ff" points="195.54,-844.99 185.16,-847.1 194.59,-851.93 195.54,-844.99"/>
</a>
</g>
</g>
<!-- Node4 -->
<g id="Node000004" class="node">
<title>Node4</title>
<g id="a_Node000004"><a xlink:href="class_p4_1_1_pass_manager.html" target="_top" xlink:title=" ">
<polygon fill="white" stroke="orangered" points="333,-833 234,-833 234,-814 333,-814 333,-833"/>
<text text-anchor="middle" x="283.5" y="-821" font-family="Helvetica,sans-Serif" font-size="10.00">P4::PassManager</text>
</a>
</g>
</g>
<!-- Node1&#45;&gt;Node4 -->
<g id="edge3_Node000001_Node000004" class="edge">
<title>Node1&#45;&gt;Node4</title>
<g id="a_edge3_Node000001_Node000004"><a xlink:title=" ">
<path fill="none" stroke="#63b8ff" d="M195.08,-834.9C207.74,-833.25 221.29,-831.48 233.85,-829.85"/>
<polygon fill="#63b8ff" stroke="#63b8ff" points="194.62,-831.43 185.16,-836.2 195.53,-838.37 194.62,-831.43"/>
</a>
</g>
</g>
<!-- Node2 -->
<g id="Node000002" class="node">
<title>Node2</title>
<g id="a_Node000002"><a xlink:href="class_p4_1_1_visitor.html" target="_top" xlink:title=" ">
<polygon fill="white" stroke="#bfbfbf" points="66,-851 0,-851 0,-832 66,-832 66,-851"/>
<text text-anchor="middle" x="33" y="-839" font-family="Helvetica,sans-Serif" font-size="10.00">P4::Visitor</text>
</a>
</g>
</g>
<!-- Node2&#45;&gt;Node1 -->
<g id="edge1_Node000001_Node000002" class="edge">
<title>Node2&#45;&gt;Node1</title>
<g id="a_edge1_Node000001_Node000002"><a xlink:title=" ">
<path fill="none" stroke="#63b8ff" d="M76.49,-841.5C84.78,-841.5 93.46,-841.5 101.69,-841.5"/>
<polygon fill="#63b8ff" stroke="#63b8ff" points="76.26,-838 66.26,-841.5 76.26,-845 76.26,-838"/>
</a>
</g>
</g>
<!-- Node5 -->
<g id="Node000005" class="node">
<title>Node5</title>
<g id="a_Node000005"><a xlink:href="class_p4_1_1_add_missing_id_annotations.html" target="_top" xlink:title=" ">
<polygon fill="white" stroke="#666666" points="552.5,-1715 394.5,-1715 394.5,-1696 552.5,-1696 552.5,-1715"/>
<text text-anchor="middle" x="473.5" y="-1703" font-family="Helvetica,sans-Serif" font-size="10.00">P4::AddMissingIdAnnotations</text>
</a>
</g>
</g>
<!-- Node4&#45;&gt;Node5 -->
<g id="edge4_Node000004_Node000005" class="edge">
<title>Node4&#45;&gt;Node5</title>
<g id="a_edge4_Node000004_Node000005"><a xlink:title=" ">
<path fill="none" stroke="#63b8ff" d="M341.76,-837.93C343.3,-839.32 344.72,-840.84 346,-842.5 403.38,-916.92 320.85,-1616.14 382,-1687.5 385.54,-1691.64 389.74,-1694.99 394.36,-1697.7"/>
<polygon fill="#63b8ff" stroke="#63b8ff" points="343.46,-834.85 333.25,-832.01 339.46,-840.6 343.46,-834.85"/>
</a>
</g>
</g>
<!-- Node6 -->
<g id="Node000006" class="node">
<title>Node6</title>
<g id="a_Node000006"><a xlink:href="class_p4_1_1_b_m_v2_1_1_mid_end.html" target="_top" xlink:title=" ">
<polygon fill="white" stroke="orangered" points="526,-1678 421,-1678 421,-1659 526,-1659 526,-1678"/>
<text text-anchor="middle" x="473.5" y="-1666" font-family="Helvetica,sans-Serif" font-size="10.00">P4::BMV2::MidEnd</text>
</a>
</g>
</g>
<!-- Node4&#45;&gt;Node6 -->
<g id="edge5_Node000004_Node000006" class="edge">
<title>Node4&#45;&gt;Node6</title>
<g id="a_edge5_Node000004_Node000006"><a xlink:title=" ">
<path fill="none" stroke="#63b8ff" d="M341.76,-837.94C343.3,-839.32 344.72,-840.84 346,-842.5 400.95,-913.61 323.46,-1582.32 382,-1650.5 391.71,-1661.8 406.3,-1667.27 420.96,-1669.65"/>
<polygon fill="#63b8ff" stroke="#63b8ff" points="343.45,-834.85 333.24,-832.02 339.46,-840.6 343.45,-834.85"/>
</a>
</g>
</g>
<!-- Node11 -->
<g id="Node000011" class="node">
<title>Node11</title>
<g id="a_Node000011"><a xlink:href="class_p4_1_1_bind_type_variables.html" target="_top" xlink:title=" ">
<polygon fill="white" stroke="#bfbfbf" points="535.5,-1641 411.5,-1641 411.5,-1622 535.5,-1622 535.5,-1641"/>
<text text-anchor="middle" x="473.5" y="-1629" font-family="Helvetica,sans-Serif" font-size="10.00">P4::BindTypeVariables</text>
</a>
</g>
</g>
<!-- Node4&#45;&gt;Node11 -->
<g id="edge6_Node000004_Node000011" class="edge">
<title>Node4&#45;&gt;Node11</title>
<g id="a_edge6_Node000004_Node000011"><a xlink:title=" ">
<path fill="none" stroke="#63b8ff" d="M341.75,-837.94C343.29,-839.33 344.72,-840.84 346,-842.5 398.51,-910.31 326.06,-1548.49 382,-1613.5 389.52,-1622.24 399.97,-1627.49 411.11,-1630.52"/>
<polygon fill="#63b8ff" stroke="#63b8ff" points="343.44,-834.85 333.23,-832.03 339.45,-840.6 343.44,-834.85"/>
</a>
</g>
</g>
<!-- Node12 -->
<g id="Node000012" class="node">
<title>Node12</title>
<g id="a_Node000012"><a xlink:href="class_p4_1_1_check_constants.html" target="_top" xlink:title=" ">
<polygon fill="white" stroke="#bfbfbf" points="530,-1604 417,-1604 417,-1585 530,-1585 530,-1604"/>
<text text-anchor="middle" x="473.5" y="-1592" font-family="Helvetica,sans-Serif" font-size="10.00">P4::CheckConstants</text>
</a>
</g>
</g>
<!-- Node4&#45;&gt;Node12 -->
<g id="edge7_Node000004_Node000012" class="edge">
<title>Node4&#45;&gt;Node12</title>
<g id="a_edge7_Node000004_Node000012"><a xlink:title=" ">
<path fill="none" stroke="#63b8ff" d="M341.75,-837.94C343.29,-839.33 344.72,-840.84 346,-842.5 396.07,-907 328.67,-1514.67 382,-1576.5 390.79,-1586.69 403.55,-1592.13 416.74,-1594.84"/>
<polygon fill="#63b8ff" stroke="#63b8ff" points="343.44,-834.86 333.22,-832.03 339.45,-840.61 343.44,-834.86"/>
</a>
</g>
</g>
<!-- Node13 -->
<g id="Node000013" class="node">
<title>Node13</title>
<g id="a_Node000013"><a xlink:href="class_p4_1_1_check_core_methods.html" target="_top" xlink:title=" ">
<polygon fill="white" stroke="#bfbfbf" points="538,-1567 409,-1567 409,-1548 538,-1548 538,-1567"/>
<text text-anchor="middle" x="473.5" y="-1555" font-family="Helvetica,sans-Serif" font-size="10.00">P4::CheckCoreMethods</text>
</a>
</g>
</g>
<!-- Node4&#45;&gt;Node13 -->
<g id="edge8_Node000004_Node000013" class="edge">
<title>Node4&#45;&gt;Node13</title>
<g id="a_edge8_Node000004_Node000013"><a xlink:title=" ">
<path fill="none" stroke="#63b8ff" d="M341.74,-837.95C343.28,-839.33 344.71,-840.85 346,-842.5 441.26,-964.89 280.55,-1422.19 382,-1539.5 389.02,-1547.62 398.57,-1552.72 408.83,-1555.83"/>
<polygon fill="#63b8ff" stroke="#63b8ff" points="343.43,-834.86 333.21,-832.04 339.44,-840.61 343.43,-834.86"/>
</a>
</g>
</g>
<!-- Node14 -->
<g id="Node000014" class="node">
<title>Node14</title>
<g id="a_Node000014"><a xlink:href="class_p4_1_1_constant_folding.html" target="_top" xlink:title=" ">
<polygon fill="white" stroke="#666666" points="530,-1530 417,-1530 417,-1511 530,-1511 530,-1530"/>
<text text-anchor="middle" x="473.5" y="-1518" font-family="Helvetica,sans-Serif" font-size="10.00">P4::ConstantFolding</text>
</a>
</g>
</g>
<!-- Node4&#45;&gt;Node14 -->
<g id="edge9_Node000004_Node000014" class="edge">
<title>Node4&#45;&gt;Node14</title>
<g id="a_edge9_Node000004_Node000014"><a xlink:title=" ">
<path fill="none" stroke="#63b8ff" d="M341.74,-837.95C343.28,-839.34 344.71,-840.85 346,-842.5 436.38,-958.28 285.76,-1391.54 382,-1502.5 390.82,-1512.67 403.59,-1518.1 416.78,-1520.81"/>
<polygon fill="#63b8ff" stroke="#63b8ff" points="343.42,-834.86 333.2,-832.05 339.44,-840.62 343.42,-834.86"/>
</a>
</g>
</g>
<!-- Node15 -->
<g id="Node000015" class="node">
<title>Node15</title>
<g id="a_Node000015"><a xlink:href="class_p4_1_1_convert_enums.html" target="_top" xlink:title=" ">
<polygon fill="white" stroke="#bfbfbf" points="526.5,-1493 420.5,-1493 420.5,-1474 526.5,-1474 526.5,-1493"/>
<text text-anchor="middle" x="473.5" y="-1481" font-family="Helvetica,sans-Serif" font-size="10.00">P4::ConvertEnums</text>
</a>
</g>
</g>
<!-- Node4&#45;&gt;Node15 -->
<g id="edge10_Node000004_Node000015" class="edge">
<title>Node4&#45;&gt;Node15</title>
<g id="a_edge10_Node000004_Node000015"><a xlink:title=" ">
<path fill="none" stroke="#63b8ff" d="M341.73,-837.96C343.28,-839.34 344.71,-840.85 346,-842.5 431.51,-951.67 290.97,-1360.89 382,-1465.5 391.57,-1476.5 405.77,-1481.95 420.1,-1484.41"/>
<polygon fill="#63b8ff" stroke="#63b8ff" points="343.4,-834.86 333.19,-832.06 339.43,-840.62 343.4,-834.86"/>
</a>
</g>
</g>
<!-- Node16 -->
<g id="Node000016" class="node">
<title>Node16</title>
<g id="a_Node000016"><a xlink:href="class_p4_1_1_convert_errors.html" target="_top" xlink:title=" ">
<polygon fill="white" stroke="#bfbfbf" points="524,-1456 423,-1456 423,-1437 524,-1437 524,-1456"/>
<text text-anchor="middle" x="473.5" y="-1444" font-family="Helvetica,sans-Serif" font-size="10.00">P4::ConvertErrors</text>
</a>
</g>
</g>
<!-- Node4&#45;&gt;Node16 -->
<g id="edge11_Node000004_Node000016" class="edge">
<title>Node4&#45;&gt;Node16</title>
<g id="a_edge11_Node000004_Node000016"><a xlink:title=" ">
<path fill="none" stroke="#63b8ff" d="M341.72,-837.96C343.27,-839.34 344.7,-840.85 346,-842.5 426.64,-945.07 296.18,-1330.23 382,-1428.5 392.22,-1440.2 407.69,-1445.62 422.96,-1447.84"/>
<polygon fill="#63b8ff" stroke="#63b8ff" points="343.39,-834.86 333.17,-832.08 339.42,-840.63 343.39,-834.86"/>
</a>
</g>
</g>
<!-- Node17 -->
<g id="Node000017" class="node">
<title>Node17</title>
<g id="a_Node000017"><a xlink:href="struct_p4_1_1_d_p_d_k_1_1_byte_alignment.html" target="_top" xlink:title=" ">
<polygon fill="white" stroke="#bfbfbf" points="544,-1419 403,-1419 403,-1400 544,-1400 544,-1419"/>
<text text-anchor="middle" x="473.5" y="-1407" font-family="Helvetica,sans-Serif" font-size="10.00">P4::DPDK::ByteAlignment</text>
</a>
</g>
</g>
<!-- Node4&#45;&gt;Node17 -->
<g id="edge12_Node000004_Node000017" class="edge">
<title>Node4&#45;&gt;Node17</title>
<g id="a_edge12_Node000004_Node000017"><a xlink:title=" ">
<path fill="none" stroke="#63b8ff" d="M341.71,-837.97C343.26,-839.35 344.7,-840.86 346,-842.5 421.63,-938.28 302.01,-1298.33 382,-1390.5 387.68,-1397.05 394.99,-1401.68 402.99,-1404.91"/>
<polygon fill="#63b8ff" stroke="#63b8ff" points="343.38,-834.87 333.15,-832.09 339.41,-840.64 343.38,-834.87"/>
</a>
</g>
</g>
<!-- Node18 -->
<g id="Node000018" class="node">
<title>Node18</title>
<g id="a_Node000018"><a xlink:href="class_p4_1_1_d_p_d_k_1_1_collect_local_struct_and_flatten.html" target="_top" xlink:title=" ">
<polygon fill="white" stroke="#bfbfbf" points="551.5,-1381.5 395.5,-1381.5 395.5,-1351.5 551.5,-1351.5 551.5,-1381.5"/>
<text text-anchor="start" x="403.5" y="-1369.5" font-family="Helvetica,sans-Serif" font-size="10.00">P4::DPDK::CollectLocalStruct</text>
<text text-anchor="middle" x="473.5" y="-1358.5" font-family="Helvetica,sans-Serif" font-size="10.00">AndFlatten</text>
</a>
</g>
</g>
<!-- Node4&#45;&gt;Node18 -->
<g id="edge13_Node000004_Node000018" class="edge">
<title>Node4&#45;&gt;Node18</title>
<g id="a_edge13_Node000004_Node000018"><a xlink:title=" ">
<path fill="none" stroke="#63b8ff" d="M341.7,-837.98C343.25,-839.36 344.7,-840.86 346,-842.5 415.31,-929.71 310.94,-1256.71 382,-1342.5 385.73,-1347.01 390.21,-1350.72 395.14,-1353.78"/>
<polygon fill="#63b8ff" stroke="#63b8ff" points="343.35,-834.87 333.13,-832.11 339.4,-840.65 343.35,-834.87"/>
</a>
</g>
</g>
<!-- Node19 -->
<g id="Node000019" class="node">
<title>Node19</title>
<g id="a_Node000019"><a xlink:href="class_p4_1_1_d_p_d_k_1_1_collect_program_structure.html" target="_top" xlink:title=" ">
<polygon fill="white" stroke="#bfbfbf" points="545,-1333.5 402,-1333.5 402,-1303.5 545,-1303.5 545,-1333.5"/>
<text text-anchor="start" x="410" y="-1321.5" font-family="Helvetica,sans-Serif" font-size="10.00">P4::DPDK::CollectProgram</text>
<text text-anchor="middle" x="473.5" y="-1310.5" font-family="Helvetica,sans-Serif" font-size="10.00">Structure</text>
</a>
</g>
</g>
<!-- Node4&#45;&gt;Node19 -->
<g id="edge14_Node000004_Node000019" class="edge">
<title>Node4&#45;&gt;Node19</title>
<g id="a_edge14_Node000004_Node000019"><a xlink:title=" ">
<path fill="none" stroke="#63b8ff" d="M341.68,-838C343.24,-839.37 344.69,-840.86 346,-842.5 408.99,-921.15 317.43,-1217.14 382,-1294.5 387.31,-1300.86 394.1,-1305.65 401.56,-1309.22"/>
<polygon fill="#63b8ff" stroke="#63b8ff" points="343.33,-834.88 333.09,-832.14 339.38,-840.66 343.33,-834.88"/>
</a>
</g>
</g>
<!-- Node20 -->
<g id="Node000020" class="node">
<title>Node20</title>
<g id="a_Node000020"><a xlink:href="class_p4_1_1_d_p_d_k_1_1_convert_action_selector_and_profile.html" target="_top" xlink:title=" ">
<polygon fill="white" stroke="#666666" points="562,-1285.5 385,-1285.5 385,-1255.5 562,-1255.5 562,-1285.5"/>
<text text-anchor="start" x="393" y="-1273.5" font-family="Helvetica,sans-Serif" font-size="10.00">P4::DPDK::ConvertActionSelector</text>
<text text-anchor="middle" x="473.5" y="-1262.5" font-family="Helvetica,sans-Serif" font-size="10.00">AndProfile</text>
</a>
</g>
</g>
<!-- Node4&#45;&gt;Node20 -->
<g id="edge15_Node000004_Node000020" class="edge">
<title>Node4&#45;&gt;Node20</title>
<g id="a_edge15_Node000004_Node000020"><a xlink:title=" ">
<path fill="none" stroke="#63b8ff" d="M341.66,-838.01C343.23,-839.38 344.68,-840.87 346,-842.5 402.68,-912.58 323.92,-1177.57 382,-1246.5 384.83,-1249.86 388.07,-1252.77 391.6,-1255.3"/>
<polygon fill="#63b8ff" stroke="#63b8ff" points="343.29,-834.89 333.05,-832.17 339.36,-840.68 343.29,-834.89"/>
</a>
</g>
</g>
<!-- Node21 -->
<g id="Node000021" class="node">
<title>Node21</title>
<g id="a_Node000021"><a xlink:href="class_p4_1_1_d_p_d_k_1_1_convert_internet_checksum.html" target="_top" xlink:title=" ">
<polygon fill="white" stroke="#bfbfbf" points="546,-1237.5 401,-1237.5 401,-1207.5 546,-1207.5 546,-1237.5"/>
<text text-anchor="start" x="409" y="-1225.5" font-family="Helvetica,sans-Serif" font-size="10.00">P4::DPDK::ConvertInternet</text>
<text text-anchor="middle" x="473.5" y="-1214.5" font-family="Helvetica,sans-Serif" font-size="10.00">Checksum</text>
</a>
</g>
</g>
<!-- Node4&#45;&gt;Node21 -->
<g id="edge16_Node000004_Node000021" class="edge">
<title>Node4&#45;&gt;Node21</title>
<g id="a_edge16_Node000004_Node000021"><a xlink:title=" ">
<path fill="none" stroke="#63b8ff" d="M341.64,-838.03C343.21,-839.39 344.67,-840.88 346,-842.5 446.73,-965.56 278.8,-1077.5 382,-1198.5 387.17,-1204.56 393.67,-1209.18 400.82,-1212.69"/>
<polygon fill="#63b8ff" stroke="#63b8ff" points="343.25,-834.9 333,-832.21 339.34,-840.7 343.25,-834.9"/>
</a>
</g>
</g>
<!-- Node22 -->
<g id="Node000022" class="node">
<title>Node22</title>
<g id="a_Node000022"><a xlink:href="class_p4_1_1_d_p_d_k_1_1_convert_logical_expression.html" target="_top" xlink:title=" ">
<polygon fill="white" stroke="#bfbfbf" points="544,-1189.5 403,-1189.5 403,-1159.5 544,-1159.5 544,-1189.5"/>
<text text-anchor="start" x="411" y="-1177.5" font-family="Helvetica,sans-Serif" font-size="10.00">P4::DPDK::ConvertLogical</text>
<text text-anchor="middle" x="473.5" y="-1166.5" font-family="Helvetica,sans-Serif" font-size="10.00">Expression</text>
</a>
</g>
</g>
<!-- Node4&#45;&gt;Node22 -->
<g id="edge17_Node000004_Node000022" class="edge">
<title>Node4&#45;&gt;Node22</title>
<g id="a_edge17_Node000004_Node000022"><a xlink:title=" ">
<path fill="none" stroke="#63b8ff" d="M341.7,-838.14C343.25,-839.47 344.69,-840.92 346,-842.5 434.13,-948.46 291.75,-1046.34 382,-1150.5 387.64,-1157.01 394.83,-1161.85 402.67,-1165.44"/>
<polygon fill="#63b8ff" stroke="#63b8ff" points="343.48,-835.12 333.24,-832.42 339.56,-840.92 343.48,-835.12"/>
</a>
</g>
</g>
<!-- Node23 -->
<g id="Node000023" class="node">
<title>Node23</title>
<g id="a_Node000023"><a xlink:href="struct_p4_1_1_d_p_d_k_1_1_convert_lookahead.html" target="_top" xlink:title=" ">
<polygon fill="white" stroke="#666666" points="553,-1141 394,-1141 394,-1122 553,-1122 553,-1141"/>
<text text-anchor="middle" x="473.5" y="-1129" font-family="Helvetica,sans-Serif" font-size="10.00">P4::DPDK::ConvertLookahead</text>
</a>
</g>
</g>
<!-- Node4&#45;&gt;Node23 -->
<g id="edge18_Node000004_Node000023" class="edge">
<title>Node4&#45;&gt;Node23</title>
<g id="a_edge18_Node000004_Node000023"><a xlink:title=" ">
<path fill="none" stroke="#63b8ff" d="M341.67,-838.17C343.22,-839.49 344.67,-840.93 346,-842.5 424.42,-935.3 298.89,-1024.87 382,-1113.5 385.51,-1117.24 389.55,-1120.33 393.94,-1122.86"/>
<polygon fill="#63b8ff" stroke="#63b8ff" points="343.43,-835.13 333.17,-832.47 339.53,-840.95 343.43,-835.13"/>
</a>
</g>
</g>
<!-- Node24 -->
<g id="Node000024" class="node">
<title>Node24</title>
<g id="a_Node000024"><a xlink:href="struct_p4_1_1_d_p_d_k_1_1_dpdk_add_pseudo_header.html" target="_top" xlink:title=" ">
<polygon fill="white" stroke="#bfbfbf" points="565,-1104 382,-1104 382,-1085 565,-1085 565,-1104"/>
<text text-anchor="middle" x="473.5" y="-1092" font-family="Helvetica,sans-Serif" font-size="10.00">P4::DPDK::DpdkAddPseudoHeader</text>
</a>
</g>
</g>
<!-- Node4&#45;&gt;Node24 -->
<g id="edge19_Node000004_Node000024" class="edge">
<title>Node4&#45;&gt;Node24</title>
<g id="a_edge19_Node000004_Node000024"><a xlink:title=" ">
<path fill="none" stroke="#63b8ff" d="M341.63,-838.2C343.19,-839.52 344.66,-840.95 346,-842.5 414.74,-922.17 309.24,-1000.49 382,-1076.5 385.1,-1079.74 388.61,-1082.49 392.39,-1084.81"/>
<polygon fill="#63b8ff" stroke="#63b8ff" points="343.36,-835.15 333.09,-832.55 339.49,-840.99 343.36,-835.15"/>
</a>
</g>
</g>
<!-- Node25 -->
<g id="Node000025" class="node">
<title>Node25</title>
<g id="a_Node000025"><a xlink:href="class_p4_1_1_d_p_d_k_1_1_dpdk_arch_first.html" target="_top" xlink:title=" ">
<polygon fill="white" stroke="#bfbfbf" points="542,-1067 405,-1067 405,-1048 542,-1048 542,-1067"/>
<text text-anchor="middle" x="473.5" y="-1055" font-family="Helvetica,sans-Serif" font-size="10.00">P4::DPDK::DpdkArchFirst</text>
</a>
</g>
</g>
<!-- Node4&#45;&gt;Node25 -->
<g id="edge20_Node000004_Node000025" class="edge">
<title>Node4&#45;&gt;Node25</title>
<g id="a_edge20_Node000004_Node000025"><a xlink:title=" ">
<path fill="none" stroke="#63b8ff" d="M341.67,-838.33C343.21,-839.61 344.66,-841 346,-842.5 405.09,-909.06 319.56,-976.08 382,-1039.5 388.29,-1045.89 396.16,-1050.35 404.62,-1053.41"/>
<polygon fill="#63b8ff" stroke="#63b8ff" points="343.55,-835.38 333.27,-832.8 339.7,-841.22 343.55,-835.38"/>
</a>
</g>
</g>
<!-- Node26 -->
<g id="Node000026" class="node">
<title>Node26</title>
<g id="a_Node000026"><a xlink:href="class_p4_1_1_d_p_d_k_1_1_dpdk_arch_last.html" target="_top" xlink:title=" ">
<polygon fill="white" stroke="#bfbfbf" points="541.5,-1030 405.5,-1030 405.5,-1011 541.5,-1011 541.5,-1030"/>
<text text-anchor="middle" x="473.5" y="-1018" font-family="Helvetica,sans-Serif" font-size="10.00">P4::DPDK::DpdkArchLast</text>
</a>
</g>
</g>
<!-- Node4&#45;&gt;Node26 -->
<g id="edge21_Node000004_Node000026" class="edge">
<title>Node4&#45;&gt;Node26</title>
<g id="a_edge21_Node000004_Node000026"><a xlink:title=" ">
<path fill="none" stroke="#63b8ff" d="M341.59,-838.4C343.16,-839.66 344.63,-841.02 346,-842.5 395.48,-896.02 329.82,-951.61 382,-1002.5 388.54,-1008.88 396.65,-1013.3 405.31,-1016.34"/>
<polygon fill="#63b8ff" stroke="#63b8ff" points="343.42,-835.41 333.11,-832.95 339.63,-841.3 343.42,-835.41"/>
</a>
</g>
</g>
<!-- Node27 -->
<g id="Node000027" class="node">
<title>Node27</title>
<g id="a_Node000027"><a xlink:href="struct_p4_1_1_d_p_d_k_1_1_dpdk_handle_i_p_sec.html" target="_top" xlink:title=" ">
<polygon fill="white" stroke="#bfbfbf" points="551,-993 396,-993 396,-974 551,-974 551,-993"/>
<text text-anchor="middle" x="473.5" y="-981" font-family="Helvetica,sans-Serif" font-size="10.00">P4::DPDK::DpdkHandleIPSec</text>
</a>
</g>
</g>
<!-- Node4&#45;&gt;Node27 -->
<g id="edge22_Node000004_Node000027" class="edge">
<title>Node4&#45;&gt;Node27</title>
<g id="a_edge22_Node000004_Node000027"><a xlink:title=" ">
<path fill="none" stroke="#63b8ff" d="M341.37,-838.44C343.01,-839.69 344.56,-841.04 346,-842.5 385.98,-883.08 339.98,-927.04 382,-965.5 386.14,-969.29 390.83,-972.37 395.86,-974.88"/>
<polygon fill="#63b8ff" stroke="#63b8ff" points="342.92,-835.28 332.57,-833.03 339.25,-841.25 342.92,-835.28"/>
</a>
</g>
</g>
<!-- Node28 -->
<g id="Node000028" class="node">
<title>Node28</title>
<g id="a_Node000028"><a xlink:href="class_p4_1_1_d_p_d_k_1_1_dpdk_mid_end.html" target="_top" xlink:title=" ">
<polygon fill="white" stroke="#bfbfbf" points="538.5,-956 408.5,-956 408.5,-937 538.5,-937 538.5,-956"/>
<text text-anchor="middle" x="473.5" y="-944" font-family="Helvetica,sans-Serif" font-size="10.00">P4::DPDK::DpdkMidEnd</text>
</a>
</g>
</g>
<!-- Node4&#45;&gt;Node28 -->
<g id="edge23_Node000004_Node000028" class="edge">
<title>Node4&#45;&gt;Node28</title>
<g id="a_edge23_Node000004_Node000028"><a xlink:title=" ">
<path fill="none" stroke="#63b8ff" d="M340.4,-838.13C342.37,-839.46 344.25,-840.91 346,-842.5 376.68,-870.35 349.92,-902.27 382,-928.5 389.57,-934.69 398.66,-938.94 408.14,-941.84"/>
<polygon fill="#63b8ff" stroke="#63b8ff" points="341.66,-834.82 331.22,-833.03 338.26,-840.94 341.66,-834.82"/>
</a>
</g>
</g>
<!-- Node29 -->
<g id="Node000029" class="node">
<title>Node29</title>
<g id="a_Node000029"><a xlink:href="class_p4_1_1_d_p_d_k_1_1_eliminate_header_copy.html" target="_top" xlink:title=" ">
<polygon fill="white" stroke="#bfbfbf" points="561,-919 386,-919 386,-900 561,-900 561,-919"/>
<text text-anchor="middle" x="473.5" y="-907" font-family="Helvetica,sans-Serif" font-size="10.00">P4::DPDK::EliminateHeaderCopy</text>
</a>
</g>
</g>
<!-- Node4&#45;&gt;Node29 -->
<g id="edge24_Node000004_Node000029" class="edge">
<title>Node4&#45;&gt;Node29</title>
<g id="a_edge24_Node000004_Node000029"><a xlink:title=" ">
<path fill="none" stroke="#63b8ff" d="M336.97,-837.12C340.13,-838.72 343.17,-840.51 346,-842.5 367.8,-857.85 359.51,-876.17 382,-890.5 388.09,-894.38 394.84,-897.48 401.82,-899.96"/>
<polygon fill="#63b8ff" stroke="#63b8ff" points="338.37,-833.91 327.81,-833.07 335.54,-840.31 338.37,-833.91"/>
</a>
</g>
</g>
<!-- Node30 -->
<g id="Node000030" class="node">
<title>Node30</title>
<g id="a_Node000030"><a xlink:href="class_p4_1_1_d_p_d_k_1_1_eliminate_unused_action.html" target="_top" xlink:title=" ">
<polygon fill="white" stroke="#666666" points="549.5,-881.5 397.5,-881.5 397.5,-851.5 549.5,-851.5 549.5,-881.5"/>
<text text-anchor="start" x="405.5" y="-869.5" font-family="Helvetica,sans-Serif" font-size="10.00">P4::DPDK::EliminateUnused</text>
<text text-anchor="middle" x="473.5" y="-858.5" font-family="Helvetica,sans-Serif" font-size="10.00">Action</text>
</a>
</g>
</g>
<!-- Node4&#45;&gt;Node30 -->
<g id="edge25_Node000004_Node000030" class="edge">
<title>Node4&#45;&gt;Node30</title>
<g id="a_edge25_Node000004_Node000030"><a xlink:title=" ">
<path fill="none" stroke="#63b8ff" d="M335.98,-835.28C357.87,-840.28 383.66,-846.18 406.89,-851.49"/>
<polygon fill="#63b8ff" stroke="#63b8ff" points="336.75,-831.86 326.22,-833.04 335.19,-838.68 336.75,-831.86"/>
</a>
</g>
</g>
<!-- Node31 -->
<g id="Node000031" class="node">
<title>Node31</title>
<g id="a_Node000031"><a xlink:href="class_p4_1_1_default_arguments.html" target="_top" xlink:title=" ">
<polygon fill="white" stroke="#bfbfbf" points="535.5,-833 411.5,-833 411.5,-814 535.5,-814 535.5,-833"/>
<text text-anchor="middle" x="473.5" y="-821" font-family="Helvetica,sans-Serif" font-size="10.00">P4::DefaultArguments</text>
</a>
</g>
</g>
<!-- Node4&#45;&gt;Node31 -->
<g id="edge26_Node000004_Node000031" class="edge">
<title>Node4&#45;&gt;Node31</title>
<g id="a_edge26_Node000004_Node000031"><a xlink:title=" ">
<path fill="none" stroke="#63b8ff" d="M343.44,-823.5C365.06,-823.5 389.58,-823.5 411.39,-823.5"/>
<polygon fill="#63b8ff" stroke="#63b8ff" points="343.4,-820 333.4,-823.5 343.4,-827 343.4,-820"/>
</a>
</g>
</g>
<!-- Node32 -->
<g id="Node000032" class="node">
<title>Node32</title>
<g id="a_Node000032"><a xlink:href="class_p4_1_1_default_values.html" target="_top" xlink:title=" ">
<polygon fill="white" stroke="#bfbfbf" points="525,-796 422,-796 422,-777 525,-777 525,-796"/>
<text text-anchor="middle" x="473.5" y="-784" font-family="Helvetica,sans-Serif" font-size="10.00">P4::DefaultValues</text>
</a>
</g>
</g>
<!-- Node4&#45;&gt;Node32 -->
<g id="edge27_Node000004_Node000032" class="edge">
<title>Node4&#45;&gt;Node32</title>
<g id="a_edge27_Node000004_Node000032"><a xlink:title=" ">
<path fill="none" stroke="#63b8ff" d="M343.01,-811.98C369,-806.87 399.22,-800.92 423.92,-796.06"/>
<polygon fill="#63b8ff" stroke="#63b8ff" points="342.05,-808.61 332.91,-813.97 343.4,-815.47 342.05,-808.61"/>
</a>
</g>
</g>
<!-- Node33 -->
<g id="Node000033" class="node">
<title>Node33</title>
<g id="a_Node000033"><a xlink:href="class_p4_1_1_e_b_p_f_1_1_lower.html" target="_top" xlink:title=" ">
<polygon fill="white" stroke="#bfbfbf" points="520.5,-759 426.5,-759 426.5,-740 520.5,-740 520.5,-759"/>
<text text-anchor="middle" x="473.5" y="-747" font-family="Helvetica,sans-Serif" font-size="10.00">P4::EBPF::Lower</text>
</a>
</g>
</g>
<!-- Node4&#45;&gt;Node33 -->
<g id="edge28_Node000004_Node000033" class="edge">
<title>Node4&#45;&gt;Node33</title>
<g id="a_edge28_Node000004_Node000033"><a xlink:title=" ">
<path fill="none" stroke="#63b8ff" d="M306.3,-808.21C325.41,-795.49 354.39,-777.86 382,-767.5 395.95,-762.27 411.71,-758.46 426.12,-755.74"/>
<polygon fill="#63b8ff" stroke="#63b8ff" points="304.31,-805.32 298,-813.83 308.24,-811.12 304.31,-805.32"/>
</a>
</g>
</g>
<!-- Node34 -->
<g id="Node000034" class="node">
<title>Node34</title>
<g id="a_Node000034"><a xlink:href="class_p4_1_1_eliminate_invalid_headers.html" target="_top" xlink:title=" ">
<polygon fill="white" stroke="#bfbfbf" points="551,-722 396,-722 396,-703 551,-703 551,-722"/>
<text text-anchor="middle" x="473.5" y="-710" font-family="Helvetica,sans-Serif" font-size="10.00">P4::EliminateInvalidHeaders</text>
</a>
</g>
</g>
<!-- Node4&#45;&gt;Node34 -->
<g id="edge29_Node000004_Node000034" class="edge">
<title>Node4&#45;&gt;Node34</title>
<g id="a_edge29_Node000004_Node000034"><a xlink:title=" ">
<path fill="none" stroke="#63b8ff" d="M297.75,-805.79C314.78,-784.4 346.42,-748.98 382,-730.5 388.54,-727.1 395.65,-724.35 402.92,-722.11"/>
<polygon fill="#63b8ff" stroke="#63b8ff" points="294.94,-803.71 291.57,-813.76 300.47,-808 294.94,-803.71"/>
</a>
</g>
</g>
<!-- Node35 -->
<g id="Node000035" class="node">
<title>Node35</title>
<g id="a_Node000035"><a xlink:href="class_p4_1_1_eliminate_newtype.html" target="_top" xlink:title=" ">
<polygon fill="white" stroke="#bfbfbf" points="536,-685 411,-685 411,-666 536,-666 536,-685"/>
<text text-anchor="middle" x="473.5" y="-673" font-family="Helvetica,sans-Serif" font-size="10.00">P4::EliminateNewtype</text>
</a>
</g>
</g>
<!-- Node4&#45;&gt;Node35 -->
<g id="edge30_Node000004_Node000035" class="edge">
<title>Node4&#45;&gt;Node35</title>
<g id="a_edge30_Node000004_Node000035"><a xlink:title=" ">
<path fill="none" stroke="#63b8ff" d="M293.02,-804.7C307.13,-775.84 338.22,-721.06 382,-693.5 390.68,-688.04 400.67,-684.18 410.78,-681.47"/>
<polygon fill="#63b8ff" stroke="#63b8ff" points="289.85,-803.21 288.74,-813.75 296.18,-806.2 289.85,-803.21"/>
</a>
</g>
</g>
<!-- Node36 -->
<g id="Node000036" class="node">
<title>Node36</title>
<g id="a_Node000036"><a xlink:href="class_p4_1_1_eliminate_ser_enums.html" target="_top" xlink:title=" ">
<polygon fill="white" stroke="#bfbfbf" points="538.5,-648 408.5,-648 408.5,-629 538.5,-629 538.5,-648"/>
<text text-anchor="middle" x="473.5" y="-636" font-family="Helvetica,sans-Serif" font-size="10.00">P4::EliminateSerEnums</text>
</a>
</g>
</g>
<!-- Node4&#45;&gt;Node36 -->
<g id="edge31_Node000004_Node000036" class="edge">
<title>Node4&#45;&gt;Node36</title>
<g id="a_edge31_Node000004_Node000036"><a xlink:title=" ">
<path fill="none" stroke="#63b8ff" d="M290.03,-803.99C301.15,-768.54 329.73,-693.77 382,-656.5 389.83,-650.92 398.96,-646.97 408.35,-644.19"/>
<polygon fill="#63b8ff" stroke="#63b8ff" points="286.65,-803.06 287.13,-813.65 293.36,-805.07 286.65,-803.06"/>
</a>
</g>
</g>
<!-- Node37 -->
<g id="Node000037" class="node">
<title>Node37</title>
<g id="a_Node000037"><a xlink:href="class_p4_1_1_eliminate_switch.html" target="_top" xlink:title=" ">
<polygon fill="white" stroke="#bfbfbf" points="530,-611 417,-611 417,-592 530,-592 530,-611"/>
<text text-anchor="middle" x="473.5" y="-599" font-family="Helvetica,sans-Serif" font-size="10.00">P4::EliminateSwitch</text>
</a>
</g>
</g>
<!-- Node4&#45;&gt;Node37 -->
<g id="edge32_Node000004_Node000037" class="edge">
<title>Node4&#45;&gt;Node37</title>
<g id="a_edge32_Node000004_Node000037"><a xlink:title=" ">
<path fill="none" stroke="#63b8ff" d="M287.81,-804.09C295.9,-763.01 320.67,-667.16 382,-619.5 391.99,-611.73 404.44,-607.05 416.87,-604.28"/>
<polygon fill="#63b8ff" stroke="#63b8ff" points="284.37,-803.46 285.99,-813.93 291.25,-804.73 284.37,-803.46"/>
</a>
</g>
</g>
<!-- Node38 -->
<g id="Node000038" class="node">
<title>Node38</title>
<g id="a_Node000038"><a xlink:href="class_p4_1_1_eliminate_tuples.html" target="_top" xlink:title=" ">
<polygon fill="white" stroke="#bfbfbf" points="529.5,-574 417.5,-574 417.5,-555 529.5,-555 529.5,-574"/>
<text text-anchor="middle" x="473.5" y="-562" font-family="Helvetica,sans-Serif" font-size="10.00">P4::EliminateTuples</text>
</a>
</g>
</g>
<!-- Node4&#45;&gt;Node38 -->
<g id="edge33_Node000004_Node000038" class="edge">
<title>Node4&#45;&gt;Node38</title>
<g id="a_edge33_Node000004_Node000038"><a xlink:title=" ">
<path fill="none" stroke="#63b8ff" d="M286.28,-803.83C291.6,-757.44 311.65,-640.72 382,-582.5 392,-574.23 404.73,-569.39 417.46,-566.64"/>
<polygon fill="#63b8ff" stroke="#63b8ff" points="282.8,-803.49 285.25,-813.8 289.76,-804.22 282.8,-803.49"/>
</a>
</g>
</g>
<!-- Node39 -->
<g id="Node000039" class="node">
<title>Node39</title>
<g id="a_Node000039"><a xlink:href="class_p4_1_1_eliminate_typedef.html" target="_top" xlink:title=" ">
<polygon fill="white" stroke="#bfbfbf" points="533,-537 414,-537 414,-518 533,-518 533,-537"/>
<text text-anchor="middle" x="473.5" y="-525" font-family="Helvetica,sans-Serif" font-size="10.00">P4::EliminateTypedef</text>
</a>
</g>
</g>
<!-- Node4&#45;&gt;Node39 -->
<g id="edge34_Node000004_Node000039" class="edge">
<title>Node4&#45;&gt;Node39</title>
<g id="a_edge34_Node000004_Node000039"><a xlink:title=" ">
<path fill="none" stroke="#63b8ff" d="M285.1,-803.68C287.8,-752.39 302.46,-614.54 382,-545.5 390.95,-537.73 402.29,-532.95 413.89,-530.07"/>
<polygon fill="#63b8ff" stroke="#63b8ff" points="281.6,-803.62 284.67,-813.76 288.6,-803.92 281.6,-803.62"/>
</a>
</g>
</g>
<!-- Node40 -->
<g id="Node000040" class="node">
<title>Node40</title>
<g id="a_Node000040"><a xlink:href="class_p4_1_1_evaluator_pass.html" target="_top" xlink:title=" ">
<polygon fill="white" stroke="#666666" points="525,-500 422,-500 422,-481 525,-481 525,-500"/>
<text text-anchor="middle" x="473.5" y="-488" font-family="Helvetica,sans-Serif" font-size="10.00">P4::EvaluatorPass</text>
</a>
</g>
</g>
<!-- Node4&#45;&gt;Node40 -->
<g id="edge35_Node000004_Node000040" class="edge">
<title>Node4&#45;&gt;Node40</title>
<g id="a_edge35_Node000004_Node000040"><a xlink:title=" ">
<path fill="none" stroke="#63b8ff" d="M284.16,-803.75C284.37,-748.06 293.07,-588.65 382,-508.5 392.83,-498.74 407.39,-493.65 421.67,-491.13"/>
<polygon fill="#63b8ff" stroke="#63b8ff" points="280.67,-804.01 284.22,-813.99 287.67,-803.97 280.67,-804.01"/>
</a>
</g>
</g>
<!-- Node41 -->
<g id="Node000041" class="node">
<title>Node41</title>
<g id="a_Node000041"><a xlink:href="class_p4_1_1_expand_emit.html" target="_top" xlink:title=" ">
<polygon fill="white" stroke="#bfbfbf" points="520,-463 427,-463 427,-444 520,-444 520,-463"/>
<text text-anchor="middle" x="473.5" y="-451" font-family="Helvetica,sans-Serif" font-size="10.00">P4::ExpandEmit</text>
</a>
</g>
</g>
<!-- Node4&#45;&gt;Node41 -->
<g id="edge36_Node000004_Node000041" class="edge">
<title>Node4&#45;&gt;Node41</title>
<g id="a_edge36_Node000004_Node000041"><a xlink:title=" ">
<path fill="none" stroke="#63b8ff" d="M287.22,-803.82C296.91,-736.67 331.82,-518.11 382,-471.5 393.97,-460.38 410.77,-455.26 426.65,-453.13"/>
<polygon fill="#63b8ff" stroke="#63b8ff" points="283.73,-803.5 285.8,-813.89 290.66,-804.48 283.73,-803.5"/>
</a>
</g>
</g>
<!-- Node42 -->
<g id="Node000042" class="node">
<title>Node42</title>
<g id="a_Node000042"><a xlink:href="class_p4_1_1_expand_lookahead.html" target="_top" xlink:title=" ">
<polygon fill="white" stroke="#666666" points="535,-426 412,-426 412,-407 535,-407 535,-426"/>
<text text-anchor="middle" x="473.5" y="-414" font-family="Helvetica,sans-Serif" font-size="10.00">P4::ExpandLookahead</text>
</a>
</g>
</g>
<!-- Node4&#45;&gt;Node42 -->
<g id="edge37_Node000004_Node000042" class="edge">
<title>Node4&#45;&gt;Node42</title>
<g id="a_edge37_Node000004_Node000042"><a xlink:title=" ">
<path fill="none" stroke="#63b8ff" d="M286.69,-803.66C295.02,-731.83 327.07,-486.79 382,-434.5 390.24,-426.66 400.87,-421.78 411.93,-418.83"/>
<polygon fill="#63b8ff" stroke="#63b8ff" points="283.17,-803.66 285.52,-813.99 290.12,-804.44 283.17,-803.66"/>
</a>
</g>
</g>
<!-- Node43 -->
<g id="Node000043" class="node">
<title>Node43</title>
<g id="a_Node000043"><a xlink:href="class_p4_1_1_flatten_header_union.html" target="_top" xlink:title=" ">
<polygon fill="white" stroke="#666666" points="540,-389 407,-389 407,-370 540,-370 540,-389"/>
<text text-anchor="middle" x="473.5" y="-377" font-family="Helvetica,sans-Serif" font-size="10.00">P4::FlattenHeaderUnion</text>
</a>
</g>
</g>
<!-- Node4&#45;&gt;Node43 -->
<g id="edge38_Node000004_Node000043" class="edge">
<title>Node4&#45;&gt;Node43</title>
<g id="a_edge38_Node000004_Node000043"><a xlink:title=" ">
<path fill="none" stroke="#63b8ff" d="M286.22,-803.76C293.23,-727.78 322.22,-455.59 382,-397.5 388.89,-390.8 397.53,-386.25 406.71,-383.22"/>
<polygon fill="#63b8ff" stroke="#63b8ff" points="282.72,-803.58 285.31,-813.85 289.69,-804.21 282.72,-803.58"/>
</a>
</g>
</g>
<!-- Node44 -->
<g id="Node000044" class="node">
<title>Node44</title>
<g id="a_Node000044"><a xlink:href="class_p4_1_1_flatten_headers.html" target="_top" xlink:title=" ">
<polygon fill="white" stroke="#bfbfbf" points="528.5,-352 418.5,-352 418.5,-333 528.5,-333 528.5,-352"/>
<text text-anchor="middle" x="473.5" y="-340" font-family="Helvetica,sans-Serif" font-size="10.00">P4::FlattenHeaders</text>
</a>
</g>
</g>
<!-- Node4&#45;&gt;Node44 -->
<g id="edge39_Node000004_Node000044" class="edge">
<title>Node4&#45;&gt;Node44</title>
<g id="a_edge39_Node000004_Node000044"><a xlink:title=" ">
<path fill="none" stroke="#63b8ff" d="M285.84,-803.62C291.66,-723.34 317.42,-424.36 382,-360.5 391.68,-350.93 404.91,-345.72 418.27,-343.05"/>
<polygon fill="#63b8ff" stroke="#63b8ff" points="282.33,-803.6 285.12,-813.82 289.32,-804.09 282.33,-803.6"/>
</a>
</g>
</g>
<!-- Node45 -->
<g id="Node000045" class="node">
<title>Node45</title>
<g id="a_Node000045"><a xlink:href="class_p4_1_1_flatten_interface_structs.html" target="_top" xlink:title=" ">
<polygon fill="white" stroke="#bfbfbf" points="546.5,-315 400.5,-315 400.5,-296 546.5,-296 546.5,-315"/>
<text text-anchor="middle" x="473.5" y="-303" font-family="Helvetica,sans-Serif" font-size="10.00">P4::FlattenInterfaceStructs</text>
</a>
</g>
</g>
<!-- Node4&#45;&gt;Node45 -->
<g id="edge40_Node000004_Node000045" class="edge">
<title>Node4&#45;&gt;Node45</title>
<g id="a_edge40_Node000004_Node000045"><a xlink:title=" ">
<path fill="none" stroke="#63b8ff" d="M285.5,-803.67C290.17,-719.54 312.55,-393.21 382,-323.5 387.2,-318.28 393.45,-314.35 400.22,-311.43"/>
<polygon fill="#63b8ff" stroke="#63b8ff" points="282,-803.71 284.96,-813.88 288.99,-804.09 282,-803.71"/>
</a>
</g>
</g>
<!-- Node46 -->
<g id="Node000046" class="node">
<title>Node46</title>
<g id="a_Node000046"><a xlink:href="class_p4_1_1_flatten_log_msg.html" target="_top" xlink:title=" ">
<polygon fill="white" stroke="#bfbfbf" points="527,-278 420,-278 420,-259 527,-259 527,-278"/>
<text text-anchor="middle" x="473.5" y="-266" font-family="Helvetica,sans-Serif" font-size="10.00">P4::FlattenLogMsg</text>
</a>
</g>
</g>
<!-- Node4&#45;&gt;Node46 -->
<g id="edge41_Node000004_Node000046" class="edge">
<title>Node4&#45;&gt;Node46</title>
<g id="a_edge41_Node000004_Node000046"><a xlink:title=" ">
<path fill="none" stroke="#63b8ff" d="M285.22,-803.61C288.8,-715.59 307.69,-362.06 382,-286.5 392,-276.33 405.98,-271.06 419.97,-268.51"/>
<polygon fill="#63b8ff" stroke="#63b8ff" points="281.72,-803.48 284.83,-813.61 288.71,-803.76 281.72,-803.48"/>
</a>
</g>
</g>
<!-- Node47 -->
<g id="Node000047" class="node">
<title>Node47</title>
<g id="a_Node000047"><a xlink:href="class_p4_1_1_global_copy_propagation.html" target="_top" xlink:title=" ">
<polygon fill="white" stroke="#bfbfbf" points="548,-241 399,-241 399,-222 548,-222 548,-241"/>
<text text-anchor="middle" x="473.5" y="-229" font-family="Helvetica,sans-Serif" font-size="10.00">P4::GlobalCopyPropagation</text>
</a>
</g>
</g>
<!-- Node4&#45;&gt;Node47 -->
<g id="edge42_Node000004_Node000047" class="edge">
<title>Node4&#45;&gt;Node47</title>
<g id="a_edge42_Node000004_Node000047"><a xlink:title=" ">
<path fill="none" stroke="#63b8ff" d="M284.96,-803.73C287.5,-712.25 302.77,-330.99 382,-249.5 386.8,-244.56 392.54,-240.77 398.78,-237.89"/>
<polygon fill="#63b8ff" stroke="#63b8ff" points="281.46,-803.75 284.7,-813.83 288.46,-803.93 281.46,-803.75"/>
</a>
</g>
</g>
<!-- Node48 -->
<g id="Node000048" class="node">
<title>Node48</title>
<g id="a_Node000048"><a xlink:href="class_p4_1_1_h_s_index_simplifier.html" target="_top" xlink:title=" ">
<polygon fill="white" stroke="#bfbfbf" points="534.5,-204 412.5,-204 412.5,-185 534.5,-185 534.5,-204"/>
<text text-anchor="middle" x="473.5" y="-192" font-family="Helvetica,sans-Serif" font-size="10.00">P4::HSIndexSimplifier</text>
</a>
</g>
</g>
<!-- Node4&#45;&gt;Node48 -->
<g id="edge43_Node000004_Node000048" class="edge">
<title>Node4&#45;&gt;Node48</title>
<g id="a_edge43_Node000004_Node000048"><a xlink:title=" ">
<path fill="none" stroke="#63b8ff" d="M284.74,-803.67C286.3,-708.53 297.89,-299.88 382,-212.5 390.11,-204.07 400.95,-198.99 412.31,-196.03"/>
<polygon fill="#63b8ff" stroke="#63b8ff" points="281.24,-803.63 284.59,-813.68 288.24,-803.73 281.24,-803.63"/>
</a>
</g>
</g>
<!-- Node49 -->
<g id="Node000049" class="node">
<title>Node49</title>
<g id="a_Node000049"><a xlink:href="class_p4_1_1_handle_no_match.html" target="_top" xlink:title=" ">
<polygon fill="white" stroke="#bfbfbf" points="530,-167 417,-167 417,-148 530,-148 530,-167"/>
<text text-anchor="middle" x="473.5" y="-155" font-family="Helvetica,sans-Serif" font-size="10.00">P4::HandleNoMatch</text>
</a>
</g>
</g>
<!-- Node4&#45;&gt;Node49 -->
<g id="edge44_Node000004_Node000049" class="edge">
<title>Node4&#45;&gt;Node49</title>
<g id="a_edge44_Node000004_Node000049"><a xlink:title=" ">
<path fill="none" stroke="#63b8ff" d="M284.54,-803.42C285.18,-704.36 293.05,-268.73 382,-175.5 391.18,-165.88 403.92,-160.61 416.95,-157.87"/>
<polygon fill="#63b8ff" stroke="#63b8ff" points="281.04,-803.55 284.5,-813.56 288.04,-803.58 281.04,-803.55"/>
</a>
</g>
</g>
<!-- Node50 -->
<g id="Node000050" class="node">
<title>Node50</title>
<g id="a_Node000050"><a xlink:href="class_p4_1_1_inline_actions.html" target="_top" xlink:title=" ">
<polygon fill="white" stroke="#bfbfbf" points="522.5,-130 424.5,-130 424.5,-111 522.5,-111 522.5,-130"/>
<text text-anchor="middle" x="473.5" y="-118" font-family="Helvetica,sans-Serif" font-size="10.00">P4::InlineActions</text>
</a>
</g>
</g>
<!-- Node4&#45;&gt;Node50 -->
<g id="edge45_Node000004_Node000050" class="edge">
<title>Node4&#45;&gt;Node50</title>
<g id="a_edge45_Node000004_Node000050"><a xlink:title=" ">
<path fill="none" stroke="#63b8ff" d="M284.36,-803.91C284.08,-702.48 287.98,-237.83 382,-138.5 392.9,-126.98 408.91,-121.68 424.44,-119.51"/>
<polygon fill="#63b8ff" stroke="#63b8ff" points="280.86,-803.99 284.41,-813.98 287.86,-803.96 280.86,-803.99"/>
</a>
</g>
</g>
<!-- Node51 -->
<g id="Node000051" class="node">
<title>Node51</title>
<g id="a_Node000051"><a xlink:href="class_p4_1_1_inline_functions.html" target="_top" xlink:title=" ">
<polygon fill="white" stroke="#bfbfbf" points="527.5,-93 419.5,-93 419.5,-74 527.5,-74 527.5,-93"/>
<text text-anchor="middle" x="473.5" y="-81" font-family="Helvetica,sans-Serif" font-size="10.00">P4::InlineFunctions</text>
</a>
</g>
</g>
<!-- Node4&#45;&gt;Node51 -->
<g id="edge46_Node000004_Node000051" class="edge">
<title>Node4&#45;&gt;Node51</title>
<g id="a_edge46_Node000004_Node000051"><a xlink:title=" ">
<path fill="none" stroke="#63b8ff" d="M284.21,-803.85C283.06,-699.07 283.07,-206.78 382,-101.5 391.65,-91.23 405.36,-85.89 419.2,-83.31"/>
<polygon fill="#63b8ff" stroke="#63b8ff" points="280.71,-804.01 284.34,-813.96 287.71,-803.92 280.71,-804.01"/>
</a>
</g>
</g>
<!-- Node52 -->
<g id="Node000052" class="node">
<title>Node52</title>
<g id="a_Node000052"><a xlink:href="class_p4_1_1_inline_pass.html" target="_top" xlink:title="Performs one round of inlining bottoms&#45;up.">
<polygon fill="white" stroke="#666666" points="515,-56 432,-56 432,-37 515,-37 515,-56"/>
<text text-anchor="middle" x="473.5" y="-44" font-family="Helvetica,sans-Serif" font-size="10.00">P4::InlinePass</text>
</a>
</g>
</g>
<!-- Node4&#45;&gt;Node52 -->
<g id="edge47_Node000004_Node000052" class="edge">
<title>Node4&#45;&gt;Node52</title>
<g id="a_edge47_Node000004_Node000052"><a xlink:title=" ">
<path fill="none" stroke="#63b8ff" d="M285.67,-803.84C292.6,-690.18 329.79,-120.42 382,-64.5 394.57,-51.03 414.11,-46.03 431.82,-44.61"/>
<polygon fill="#63b8ff" stroke="#63b8ff" points="282.17,-803.7 285.06,-813.89 289.16,-804.12 282.17,-803.7"/>
</a>
</g>
</g>
<!-- Node53 -->
<g id="Node000053" class="node">
<title>Node53</title>
<g id="a_Node000053"><a xlink:href="class_p4_1_1_local_copy_propagation.html" target="_top" xlink:title=" ">
<polygon fill="white" stroke="#bfbfbf" points="545,-19 402,-19 402,0 545,0 545,-19"/>
<text text-anchor="middle" x="473.5" y="-7" font-family="Helvetica,sans-Serif" font-size="10.00">P4::LocalCopyPropagation</text>
</a>
</g>
</g>
<!-- Node4&#45;&gt;Node53 -->
<g id="edge48_Node000004_Node000053" class="edge">
<title>Node4&#45;&gt;Node53</title>
<g id="a_edge48_Node000004_Node000053"><a xlink:title=" ">
<path fill="none" stroke="#63b8ff" d="M285.54,-803.98C291.91,-687.42 327.29,-86.44 382,-27.5 387.45,-21.63 394.22,-17.37 401.59,-14.3"/>
<polygon fill="#63b8ff" stroke="#63b8ff" points="282.04,-803.8 285,-813.97 289.03,-804.18 282.04,-803.8"/>
</a>
</g>
</g>
</g>
</svg>
