<?xml version="1.0" encoding="UTF-8" standalone="no"?>
<!DOCTYPE svg PUBLIC "-//W3C//DTD SVG 1.1//EN"
 "http://www.w3.org/Graphics/SVG/1.1/DTD/svg11.dtd">
<!-- Generated by graphviz version 2.43.0 (0)
 -->
<!-- Title: Graphical Class Hierarchy Pages: 1 -->
<svg width="331pt" height="516pt"
 viewBox="0.00 0.00 331.00 516.00" xmlns="http://www.w3.org/2000/svg" xmlns:xlink="http://www.w3.org/1999/xlink">
<g id="graph0" class="graph" transform="scale(1 1) rotate(0) translate(4 512)">
<title>Graphical Class Hierarchy</title>
<!-- Node0 -->
<g id="Node000000" class="node">
<title>Node0</title>
<g id="a_Node000000"><a xlink:href="class_p4_1_1hash__vector__base.html" target="_top" xlink:title=" ">
<polygon fill="white" stroke="#666666" points="122,-251.5 0,-251.5 0,-232.5 122,-232.5 122,-251.5"/>
<text text-anchor="middle" x="61" y="-239.5" font-family="Helvetica,sans-Serif" font-size="10.00">P4::hash_vector_base</text>
</a>
</g>
</g>
<!-- Node1 -->
<g id="Node000001" class="node">
<title>Node1</title>
<g id="a_Node000001"><a xlink:href="class_p4_1_1hvec__map.html" target="_top" xlink:title=" ">
<polygon fill="white" stroke="#666666" points="318,-508 163,-508 163,-478 318,-478 318,-508"/>
<text text-anchor="start" x="171" y="-496" font-family="Helvetica,sans-Serif" font-size="10.00">P4::hvec_map&lt; P4::Program</text>
<text text-anchor="middle" x="240.5" y="-485" font-family="Helvetica,sans-Serif" font-size="10.00">Point, P4::Definitions * &gt;</text>
</a>
</g>
</g>
<!-- Node0&#45;&gt;Node1 -->
<g id="edge983_Node000000_Node000001" class="edge">
<title>Node0&#45;&gt;Node1</title>
<g id="a_edge983_Node000000_Node000001"><a xlink:title=" ">
<path fill="none" stroke="#8b1a1a" d="M64.64,-261.9C71.56,-305.92 94.27,-412.13 158,-469 161.85,-472.44 166.17,-475.38 170.77,-477.91"/>
<polygon fill="#8b1a1a" stroke="#8b1a1a" points="68.09,-261.28 63.18,-251.9 61.16,-262.3 68.09,-261.28"/>
</a>
</g>
</g>
<!-- Node2 -->
<g id="Node000002" class="node">
<title>Node2</title>
<g id="a_Node000002"><a xlink:href="class_p4_1_1hvec__map.html" target="_top" xlink:title=" ">
<polygon fill="white" stroke="#666666" points="301.5,-459.5 179.5,-459.5 179.5,-418.5 301.5,-418.5 301.5,-459.5"/>
<text text-anchor="start" x="187.5" y="-447.5" font-family="Helvetica,sans-Serif" font-size="10.00">P4::hvec_map&lt; const</text>
<text text-anchor="start" x="187.5" y="-436.5" font-family="Helvetica,sans-Serif" font-size="10.00"> P4::IR::IDeclaration</text>
<text text-anchor="middle" x="240.5" y="-425.5" font-family="Helvetica,sans-Serif" font-size="10.00"> *, def_info_t &gt;</text>
</a>
</g>
</g>
<!-- Node0&#45;&gt;Node2 -->
<g id="edge984_Node000000_Node000002" class="edge">
<title>Node0&#45;&gt;Node2</title>
<g id="a_edge984_Node000000_Node000002"><a xlink:title=" ">
<path fill="none" stroke="#8b1a1a" d="M68.02,-261.36C79.76,-296.04 108.95,-368.96 158,-410 164.33,-415.3 171.71,-419.66 179.39,-423.24"/>
<polygon fill="#8b1a1a" stroke="#8b1a1a" points="71.24,-259.96 64.82,-251.53 64.59,-262.12 71.24,-259.96"/>
</a>
</g>
</g>
<!-- Node3 -->
<g id="Node000003" class="node">
<title>Node3</title>
<g id="a_Node000003"><a xlink:href="class_p4_1_1hvec__map.html" target="_top" xlink:title=" ">
<polygon fill="white" stroke="#666666" points="301.5,-400.5 179.5,-400.5 179.5,-359.5 301.5,-359.5 301.5,-400.5"/>
<text text-anchor="start" x="187.5" y="-388.5" font-family="Helvetica,sans-Serif" font-size="10.00">P4::hvec_map&lt; const</text>
<text text-anchor="start" x="187.5" y="-377.5" font-family="Helvetica,sans-Serif" font-size="10.00"> P4::IR::Node *, P4</text>
<text text-anchor="middle" x="240.5" y="-366.5" font-family="Helvetica,sans-Serif" font-size="10.00">::hvec_set &gt;</text>
</a>
</g>
</g>
<!-- Node0&#45;&gt;Node3 -->
<g id="edge985_Node000000_Node000003" class="edge">
<title>Node0&#45;&gt;Node3</title>
<g id="a_edge985_Node000000_Node000003"><a xlink:title=" ">
<path fill="none" stroke="#8b1a1a" d="M73.91,-260.25C90.26,-283.98 121.77,-325.3 158,-350 164.6,-354.5 171.96,-358.43 179.49,-361.82"/>
<polygon fill="#8b1a1a" stroke="#8b1a1a" points="76.72,-258.15 68.23,-251.81 70.91,-262.06 76.72,-258.15"/>
</a>
</g>
</g>
<!-- Node4 -->
<g id="Node000004" class="node">
<title>Node4</title>
<g id="a_Node000004"><a xlink:href="class_p4_1_1hvec__map.html" target="_top" xlink:title=" ">
<polygon fill="white" stroke="#666666" points="318,-341 163,-341 163,-311 318,-311 318,-341"/>
<text text-anchor="start" x="171" y="-329" font-family="Helvetica,sans-Serif" font-size="10.00">P4::hvec_map&lt; P4::loc</text>
<text text-anchor="middle" x="240.5" y="-318" font-family="Helvetica,sans-Serif" font-size="10.00">_t, const P4::LocationSet * &gt;</text>
</a>
</g>
</g>
<!-- Node0&#45;&gt;Node4 -->
<g id="edge986_Node000000_Node000004" class="edge">
<title>Node0&#45;&gt;Node4</title>
<g id="a_edge986_Node000000_Node000004"><a xlink:title=" ">
<path fill="none" stroke="#8b1a1a" d="M82.87,-257.39C101.71,-270.7 130.61,-289.69 158,-302 165.4,-305.33 173.38,-308.33 181.35,-311"/>
<polygon fill="#8b1a1a" stroke="#8b1a1a" points="84.88,-254.52 74.72,-251.54 80.8,-260.21 84.88,-254.52"/>
</a>
</g>
</g>
<!-- Node5 -->
<g id="Node000005" class="node">
<title>Node5</title>
<g id="a_Node000005"><a xlink:href="class_p4_1_1hvec__map.html" target="_top" xlink:title=" ">
<polygon fill="white" stroke="#666666" points="319.5,-292.5 161.5,-292.5 161.5,-251.5 319.5,-251.5 319.5,-292.5"/>
<text text-anchor="start" x="169.5" y="-280.5" font-family="Helvetica,sans-Serif" font-size="10.00">P4::hvec_map&lt; const</text>
<text text-anchor="start" x="169.5" y="-269.5" font-family="Helvetica,sans-Serif" font-size="10.00"> P4::BaseLocation *,</text>
<text text-anchor="middle" x="240.5" y="-258.5" font-family="Helvetica,sans-Serif" font-size="10.00"> const P4::ProgramPoints * &gt;</text>
</a>
</g>
</g>
<!-- Node0&#45;&gt;Node5 -->
<g id="edge987_Node000000_Node000005" class="edge">
<title>Node0&#45;&gt;Node5</title>
<g id="a_edge987_Node000000_Node000005"><a xlink:title=" ">
<path fill="none" stroke="#8b1a1a" d="M128.71,-253.28C139.37,-255.08 150.48,-256.96 161.38,-258.8"/>
<polygon fill="#8b1a1a" stroke="#8b1a1a" points="129.09,-249.79 118.65,-251.57 127.93,-256.69 129.09,-249.79"/>
</a>
</g>
</g>
<!-- Node6 -->
<g id="Node000006" class="node">
<title>Node6</title>
<g id="a_Node000006"><a xlink:href="class_p4_1_1hvec__map.html" target="_top" xlink:title=" ">
<polygon fill="white" stroke="#666666" points="314,-233.5 167,-233.5 167,-192.5 314,-192.5 314,-233.5"/>
<text text-anchor="start" x="175" y="-221.5" font-family="Helvetica,sans-Serif" font-size="10.00">P4::hvec_map&lt; const</text>
<text text-anchor="start" x="175" y="-210.5" font-family="Helvetica,sans-Serif" font-size="10.00"> P4::IR::IDeclaration</text>
<text text-anchor="middle" x="240.5" y="-199.5" font-family="Helvetica,sans-Serif" font-size="10.00"> *, P4::StorageLocation * &gt;</text>
</a>
</g>
</g>
<!-- Node0&#45;&gt;Node6 -->
<g id="edge988_Node000000_Node000006" class="edge">
<title>Node0&#45;&gt;Node6</title>
<g id="a_edge988_Node000000_Node000006"><a xlink:title=" ">
<path fill="none" stroke="#8b1a1a" d="M130.8,-230.76C142.57,-228.84 154.83,-226.83 166.7,-224.89"/>
<polygon fill="#8b1a1a" stroke="#8b1a1a" points="129.92,-227.36 120.61,-232.42 131.05,-234.27 129.92,-227.36"/>
</a>
</g>
</g>
<!-- Node7 -->
<g id="Node000007" class="node">
<title>Node7</title>
<g id="a_Node000007"><a xlink:href="class_p4_1_1hvec__map.html" target="_top" xlink:title=" ">
<polygon fill="white" stroke="#666666" points="323,-174 158,-174 158,-144 323,-144 323,-174"/>
<text text-anchor="start" x="166" y="-162" font-family="Helvetica,sans-Serif" font-size="10.00">P4::hvec_map&lt; P4::cstring,</text>
<text text-anchor="middle" x="240.5" y="-151" font-family="Helvetica,sans-Serif" font-size="10.00"> const P4::StorageLocation * &gt;</text>
</a>
</g>
</g>
<!-- Node0&#45;&gt;Node7 -->
<g id="edge989_Node000000_Node000007" class="edge">
<title>Node0&#45;&gt;Node7</title>
<g id="a_edge989_Node000000_Node000007"><a xlink:title=" ">
<path fill="none" stroke="#8b1a1a" d="M83.89,-226.64C102.81,-213.88 131.27,-195.96 158,-184 166.24,-180.31 175.18,-176.97 184.02,-174"/>
<polygon fill="#8b1a1a" stroke="#8b1a1a" points="81.69,-223.9 75.41,-232.43 85.64,-229.68 81.69,-223.9"/>
</a>
</g>
</g>
<!-- Node8 -->
<g id="Node000008" class="node">
<title>Node8</title>
<g id="a_Node000008"><a xlink:href="class_p4_1_1hvec__set.html" target="_top" xlink:title=" ">
<polygon fill="white" stroke="#666666" points="298.5,-126 182.5,-126 182.5,-96 298.5,-96 298.5,-126"/>
<text text-anchor="start" x="190.5" y="-114" font-family="Helvetica,sans-Serif" font-size="10.00">P4::hvec_set&lt; const</text>
<text text-anchor="middle" x="240.5" y="-103" font-family="Helvetica,sans-Serif" font-size="10.00"> loc_t * &gt;</text>
</a>
</g>
</g>
<!-- Node0&#45;&gt;Node8 -->
<g id="edge990_Node000000_Node000008" class="edge">
<title>Node0&#45;&gt;Node8</title>
<g id="a_edge990_Node000000_Node000008"><a xlink:title=" ">
<path fill="none" stroke="#8b1a1a" d="M73.47,-223.92C89.52,-200.07 120.92,-158.4 158,-135 165.48,-130.28 173.94,-126.45 182.49,-123.36"/>
<polygon fill="#8b1a1a" stroke="#8b1a1a" points="70.47,-222.11 67.91,-232.39 76.32,-225.95 70.47,-222.11"/>
</a>
</g>
</g>
<!-- Node9 -->
<g id="Node000009" class="node">
<title>Node9</title>
<g id="a_Node000009"><a xlink:href="class_p4_1_1hvec__map.html" target="_top" xlink:title=" ">
<polygon fill="white" stroke="#666666" points="316.5,-78 164.5,-78 164.5,-48 316.5,-48 316.5,-78"/>
<text text-anchor="start" x="172.5" y="-66" font-family="Helvetica,sans-Serif" font-size="10.00">P4::hvec_map&lt; KEY,</text>
<text text-anchor="middle" x="240.5" y="-55" font-family="Helvetica,sans-Serif" font-size="10.00"> VAL, HASH, PRED, ALLOC &gt;</text>
</a>
</g>
</g>
<!-- Node0&#45;&gt;Node9 -->
<g id="edge991_Node000000_Node000009" class="edge">
<title>Node0&#45;&gt;Node9</title>
<g id="a_edge991_Node000000_Node000009"><a xlink:title=" ">
<path fill="none" stroke="#8b1a1a" d="M68.75,-222.52C81.16,-189.6 110.73,-123.03 158,-87 162.46,-83.6 167.39,-80.68 172.55,-78.18"/>
<polygon fill="#8b1a1a" stroke="#8b1a1a" points="65.32,-221.71 65.2,-232.3 71.9,-224.09 65.32,-221.71"/>
</a>
</g>
</g>
<!-- Node10 -->
<g id="Node000010" class="node">
<title>Node10</title>
<g id="a_Node000010"><a xlink:href="class_p4_1_1hvec__set.html" target="_top" xlink:title=" ">
<polygon fill="white" stroke="#666666" points="304.5,-30 176.5,-30 176.5,0 304.5,0 304.5,-30"/>
<text text-anchor="start" x="184.5" y="-18" font-family="Helvetica,sans-Serif" font-size="10.00">P4::hvec_set&lt; KEY,</text>
<text text-anchor="middle" x="240.5" y="-7" font-family="Helvetica,sans-Serif" font-size="10.00"> HASH, PRED, ALLOC &gt;</text>
</a>
</g>
</g>
<!-- Node0&#45;&gt;Node10 -->
<g id="edge992_Node000000_Node000010" class="edge">
<title>Node0&#45;&gt;Node10</title>
<g id="a_edge992_Node000000_Node000010"><a xlink:title=" ">
<path fill="none" stroke="#8b1a1a" d="M65.71,-222.28C74.38,-181.78 99.78,-88.81 158,-39 163.38,-34.4 169.61,-30.68 176.18,-27.67"/>
<polygon fill="#8b1a1a" stroke="#8b1a1a" points="62.25,-221.74 63.7,-232.24 69.11,-223.13 62.25,-221.74"/>
</a>
</g>
</g>
</g>
</svg>
