<?xml version="1.0" encoding="UTF-8" standalone="no"?>
<!DOCTYPE svg PUBLIC "-//W3C//DTD SVG 1.1//EN"
 "http://www.w3.org/Graphics/SVG/1.1/DTD/svg11.dtd">
<!-- Generated by graphviz version 2.43.0 (0)
 -->
<!-- Title: P4::P4Tools::P4Smith::Tofino::TofinoTnaSmithTarget Pages: 1 -->
<svg width="170pt" height="291pt"
 viewBox="0.00 0.00 170.00 291.00" xmlns="http://www.w3.org/2000/svg" xmlns:xlink="http://www.w3.org/1999/xlink">
<g id="graph0" class="graph" transform="scale(1 1) rotate(0) translate(4 287)">
<title>P4::P4Tools::P4Smith::Tofino::TofinoTnaSmithTarget</title>
<!-- Node1 -->
<g id="Node000001" class="node">
<title>Node1</title>
<g id="a_Node000001"><a xlink:title=" ">
<polygon fill="#999999" stroke="#666666" points="162,-30 0,-30 0,0 162,0 162,-30"/>
<text text-anchor="start" x="8" y="-18" font-family="Helvetica,sans-Serif" font-size="10.00">P4::P4Tools::P4Smith</text>
<text text-anchor="middle" x="81" y="-7" font-family="Helvetica,sans-Serif" font-size="10.00">::Tofino::TofinoTnaSmithTarget</text>
</a>
</g>
</g>
<!-- Node2 -->
<g id="Node000002" class="node">
<title>Node2</title>
<g id="a_Node000002"><a xlink:href="class_p4_1_1_p4_tools_1_1_p4_smith_1_1_tofino_1_1_abstract_tofino_smith_target.html" target="_top" xlink:title=" ">
<polygon fill="white" stroke="#bfbfbf" points="158.5,-107 3.5,-107 3.5,-66 158.5,-66 158.5,-107"/>
<text text-anchor="start" x="11.5" y="-95" font-family="Helvetica,sans-Serif" font-size="10.00">P4::P4Tools::P4Smith</text>
<text text-anchor="start" x="11.5" y="-84" font-family="Helvetica,sans-Serif" font-size="10.00">::Tofino::AbstractTofinoSmith</text>
<text text-anchor="middle" x="81" y="-73" font-family="Helvetica,sans-Serif" font-size="10.00">Target</text>
</a>
</g>
</g>
<!-- Node2&#45;&gt;Node1 -->
<g id="edge1_Node000001_Node000002" class="edge">
<title>Node2&#45;&gt;Node1</title>
<g id="a_edge1_Node000001_Node000002"><a xlink:title=" ">
<path fill="none" stroke="#63b8ff" d="M81,-55.66C81,-46.76 81,-37.42 81,-30.04"/>
<polygon fill="#63b8ff" stroke="#63b8ff" points="77.5,-55.77 81,-65.77 84.5,-55.77 77.5,-55.77"/>
</a>
</g>
</g>
<!-- Node3 -->
<g id="Node000003" class="node">
<title>Node3</title>
<g id="a_Node000003"><a xlink:href="class_p4_1_1_p4_tools_1_1_p4_smith_1_1_smith_target.html" target="_top" xlink:title=" ">
<polygon fill="white" stroke="#bfbfbf" points="140,-173 22,-173 22,-143 140,-143 140,-173"/>
<text text-anchor="start" x="30" y="-161" font-family="Helvetica,sans-Serif" font-size="10.00">P4::P4Tools::P4Smith</text>
<text text-anchor="middle" x="81" y="-150" font-family="Helvetica,sans-Serif" font-size="10.00">::SmithTarget</text>
</a>
</g>
</g>
<!-- Node3&#45;&gt;Node2 -->
<g id="edge2_Node000002_Node000003" class="edge">
<title>Node3&#45;&gt;Node2</title>
<g id="a_edge2_Node000002_Node000003"><a xlink:title=" ">
<path fill="none" stroke="#63b8ff" d="M81,-132.91C81,-124.47 81,-115.1 81,-107.07"/>
<polygon fill="#63b8ff" stroke="#63b8ff" points="77.5,-132.94 81,-142.94 84.5,-132.94 77.5,-132.94"/>
</a>
</g>
</g>
<!-- Node4 -->
<g id="Node000004" class="node">
<title>Node4</title>
<g id="a_Node000004"><a xlink:href="class_p4_1_1_p4_tools_1_1_compiler_target.html" target="_top" xlink:title="Encapsulates the details of invoking the P4 compiler for a target device and architecture.">
<polygon fill="white" stroke="#666666" points="157,-228 5,-228 5,-209 157,-209 157,-228"/>
<text text-anchor="middle" x="81" y="-216" font-family="Helvetica,sans-Serif" font-size="10.00">P4::P4Tools::CompilerTarget</text>
</a>
</g>
</g>
<!-- Node4&#45;&gt;Node3 -->
<g id="edge3_Node000003_Node000004" class="edge">
<title>Node4&#45;&gt;Node3</title>
<g id="a_edge3_Node000003_Node000004"><a xlink:title=" ">
<path fill="none" stroke="#63b8ff" d="M81,-198.65C81,-190.36 81,-180.78 81,-173.11"/>
<polygon fill="#63b8ff" stroke="#63b8ff" points="77.5,-198.87 81,-208.87 84.5,-198.87 77.5,-198.87"/>
</a>
</g>
</g>
<!-- Node5 -->
<g id="Node000005" class="node">
<title>Node5</title>
<g id="a_Node000005"><a xlink:href="class_p4_1_1_p4_tools_1_1_target.html" target="_top" xlink:title=" ">
<polygon fill="white" stroke="#666666" points="134.5,-283 27.5,-283 27.5,-264 134.5,-264 134.5,-283"/>
<text text-anchor="middle" x="81" y="-271" font-family="Helvetica,sans-Serif" font-size="10.00">P4::P4Tools::Target</text>
</a>
</g>
</g>
<!-- Node5&#45;&gt;Node4 -->
<g id="edge4_Node000004_Node000005" class="edge">
<title>Node5&#45;&gt;Node4</title>
<g id="a_edge4_Node000004_Node000005"><a xlink:title=" ">
<path fill="none" stroke="#63b8ff" d="M81,-253.66C81,-244.93 81,-234.99 81,-228.09"/>
<polygon fill="#63b8ff" stroke="#63b8ff" points="77.5,-253.75 81,-263.75 84.5,-253.75 77.5,-253.75"/>
</a>
</g>
</g>
</g>
</svg>
