<?xml version="1.0" encoding="UTF-8" standalone="no"?>
<!DOCTYPE svg PUBLIC "-//W3C//DTD SVG 1.1//EN"
 "http://www.w3.org/Graphics/SVG/1.1/DTD/svg11.dtd">
<!-- Generated by graphviz version 2.43.0 (0)
 -->
<!-- Title: P4::ControlPlaneAPI::Standard::P4RuntimeArchHandlerCommon&lt; arch &gt; Pages: 1 -->
<svg width="853pt" height="344pt"
 viewBox="0.00 0.00 853.00 344.00" xmlns="http://www.w3.org/2000/svg" xmlns:xlink="http://www.w3.org/1999/xlink">
<g id="graph0" class="graph" transform="scale(1 1) rotate(0) translate(4 340)">
<title>P4::ControlPlaneAPI::Standard::P4RuntimeArchHandlerCommon&lt; arch &gt;</title>
<!-- Node1 -->
<g id="Node000001" class="node">
<title>Node1</title>
<g id="a_Node000001"><a xlink:title=" ">
<polygon fill="#999999" stroke="#666666" points="381,-188 196,-188 196,-147 381,-147 381,-188"/>
<text text-anchor="start" x="204" y="-176" font-family="Helvetica,sans-Serif" font-size="10.00">P4::ControlPlaneAPI</text>
<text text-anchor="start" x="204" y="-165" font-family="Helvetica,sans-Serif" font-size="10.00">::Standard::P4RuntimeArchHandler</text>
<text text-anchor="middle" x="288.5" y="-154" font-family="Helvetica,sans-Serif" font-size="10.00">Common&lt; arch &gt;</text>
</a>
</g>
</g>
<!-- Node3 -->
<g id="Node000003" class="node">
<title>Node3</title>
<g id="a_Node000003"><a xlink:href="class_p4_1_1_control_plane_a_p_i_1_1_standard_1_1_b_f_runtime_arch_handler.html" target="_top" xlink:title=" ">
<polygon fill="white" stroke="#bfbfbf" points="603,-336 417,-336 417,-295 603,-295 603,-336"/>
<text text-anchor="start" x="425" y="-324" font-family="Helvetica,sans-Serif" font-size="10.00">P4::ControlPlaneAPI</text>
<text text-anchor="start" x="425" y="-313" font-family="Helvetica,sans-Serif" font-size="10.00">::Standard::BFRuntimeArchHandler</text>
<text text-anchor="middle" x="510" y="-302" font-family="Helvetica,sans-Serif" font-size="10.00">&lt; Arch::PNA &gt;</text>
</a>
</g>
</g>
<!-- Node1&#45;&gt;Node3 -->
<g id="edge2_Node000001_Node000003" class="edge">
<title>Node1&#45;&gt;Node3</title>
<g id="a_edge2_Node000001_Node000003"><a xlink:title=" ">
<path fill="none" stroke="#63b8ff" d="M313.22,-196.03C336.95,-222.87 375.76,-262.44 417,-286.5 422.35,-289.62 428.08,-292.45 433.96,-295"/>
<polygon fill="#63b8ff" stroke="#63b8ff" points="315.56,-193.38 306.36,-188.13 310.28,-197.98 315.56,-193.38"/>
</a>
</g>
</g>
<!-- Node5 -->
<g id="Node000005" class="node">
<title>Node5</title>
<g id="a_Node000005"><a xlink:href="class_p4_1_1_control_plane_a_p_i_1_1_standard_1_1_b_f_runtime_arch_handler.html" target="_top" xlink:title=" ">
<polygon fill="white" stroke="#bfbfbf" points="603,-277 417,-277 417,-236 603,-236 603,-277"/>
<text text-anchor="start" x="425" y="-265" font-family="Helvetica,sans-Serif" font-size="10.00">P4::ControlPlaneAPI</text>
<text text-anchor="start" x="425" y="-254" font-family="Helvetica,sans-Serif" font-size="10.00">::Standard::BFRuntimeArchHandler</text>
<text text-anchor="middle" x="510" y="-243" font-family="Helvetica,sans-Serif" font-size="10.00">&lt; Arch::PSA &gt;</text>
</a>
</g>
</g>
<!-- Node1&#45;&gt;Node5 -->
<g id="edge4_Node000001_Node000005" class="edge">
<title>Node1&#45;&gt;Node5</title>
<g id="a_edge4_Node000001_Node000005"><a xlink:title=" ">
<path fill="none" stroke="#63b8ff" d="M339.89,-192.49C363.1,-203.56 391.16,-216.35 417,-226.5 425.29,-229.76 434.09,-232.95 442.83,-235.97"/>
<polygon fill="#63b8ff" stroke="#63b8ff" points="341.12,-189.2 330.59,-188.02 338.09,-195.51 341.12,-189.2"/>
</a>
</g>
</g>
<!-- Node7 -->
<g id="Node000007" class="node">
<title>Node7</title>
<g id="a_Node000007"><a xlink:href="class_p4_1_1_control_plane_a_p_i_1_1_standard_1_1_p4_runtime_arch_handler_p_s_a_p_n_a.html" target="_top" xlink:title=" ">
<polygon fill="white" stroke="#666666" points="602.5,-218 417.5,-218 417.5,-177 602.5,-177 602.5,-218"/>
<text text-anchor="start" x="425.5" y="-206" font-family="Helvetica,sans-Serif" font-size="10.00">P4::ControlPlaneAPI</text>
<text text-anchor="start" x="425.5" y="-195" font-family="Helvetica,sans-Serif" font-size="10.00">::Standard::P4RuntimeArchHandler</text>
<text text-anchor="middle" x="510" y="-184" font-family="Helvetica,sans-Serif" font-size="10.00">PSAPNA&lt; Arch::PNA &gt;</text>
</a>
</g>
</g>
<!-- Node1&#45;&gt;Node7 -->
<g id="edge6_Node000001_Node000007" class="edge">
<title>Node1&#45;&gt;Node7</title>
<g id="a_edge6_Node000001_Node000007"><a xlink:title=" ">
<path fill="none" stroke="#63b8ff" d="M391.38,-181.42C399.99,-182.6 408.67,-183.79 417.2,-184.95"/>
<polygon fill="#63b8ff" stroke="#63b8ff" points="391.7,-177.94 381.32,-180.05 390.75,-184.87 391.7,-177.94"/>
</a>
</g>
</g>
<!-- Node9 -->
<g id="Node000009" class="node">
<title>Node9</title>
<g id="a_Node000009"><a xlink:href="class_p4_1_1_control_plane_a_p_i_1_1_standard_1_1_p4_runtime_arch_handler_p_s_a_p_n_a.html" target="_top" xlink:title=" ">
<polygon fill="white" stroke="#666666" points="602.5,-159 417.5,-159 417.5,-118 602.5,-118 602.5,-159"/>
<text text-anchor="start" x="425.5" y="-147" font-family="Helvetica,sans-Serif" font-size="10.00">P4::ControlPlaneAPI</text>
<text text-anchor="start" x="425.5" y="-136" font-family="Helvetica,sans-Serif" font-size="10.00">::Standard::P4RuntimeArchHandler</text>
<text text-anchor="middle" x="510" y="-125" font-family="Helvetica,sans-Serif" font-size="10.00">PSAPNA&lt; Arch::PSA &gt;</text>
</a>
</g>
</g>
<!-- Node1&#45;&gt;Node9 -->
<g id="edge8_Node000001_Node000009" class="edge">
<title>Node1&#45;&gt;Node9</title>
<g id="a_edge8_Node000001_Node000009"><a xlink:title=" ">
<path fill="none" stroke="#63b8ff" d="M391.38,-154.04C399.99,-152.9 408.67,-151.76 417.2,-150.63"/>
<polygon fill="#63b8ff" stroke="#63b8ff" points="390.77,-150.59 381.32,-155.37 391.69,-157.53 390.77,-150.59"/>
</a>
</g>
</g>
<!-- Node11 -->
<g id="Node000011" class="node">
<title>Node11</title>
<g id="a_Node000011"><a xlink:href="class_p4_1_1_control_plane_a_p_i_1_1_standard_1_1_b_f_runtime_arch_handler.html" target="_top" xlink:title=" ">
<polygon fill="white" stroke="#bfbfbf" points="603,-100 417,-100 417,-59 603,-59 603,-100"/>
<text text-anchor="start" x="425" y="-88" font-family="Helvetica,sans-Serif" font-size="10.00">P4::ControlPlaneAPI</text>
<text text-anchor="start" x="425" y="-77" font-family="Helvetica,sans-Serif" font-size="10.00">::Standard::BFRuntimeArchHandler</text>
<text text-anchor="middle" x="510" y="-66" font-family="Helvetica,sans-Serif" font-size="10.00">&lt; arch &gt;</text>
</a>
</g>
</g>
<!-- Node1&#45;&gt;Node11 -->
<g id="edge10_Node000001_Node000011" class="edge">
<title>Node1&#45;&gt;Node11</title>
<g id="a_edge10_Node000001_Node000011"><a xlink:title=" ">
<path fill="none" stroke="#63b8ff" d="M339.84,-142.39C363.04,-131.3 391.11,-118.52 417,-108.5 424.5,-105.6 432.42,-102.76 440.34,-100.08"/>
<polygon fill="#63b8ff" stroke="#63b8ff" points="338.04,-139.38 330.55,-146.87 341.08,-145.68 338.04,-139.38"/>
</a>
</g>
</g>
<!-- Node12 -->
<g id="Node000012" class="node">
<title>Node12</title>
<g id="a_Node000012"><a xlink:href="class_p4_1_1_control_plane_a_p_i_1_1_standard_1_1_p4_runtime_arch_handler_p_s_a_p_n_a.html" target="_top" xlink:title=" ">
<polygon fill="white" stroke="#666666" points="602.5,-41 417.5,-41 417.5,0 602.5,0 602.5,-41"/>
<text text-anchor="start" x="425.5" y="-29" font-family="Helvetica,sans-Serif" font-size="10.00">P4::ControlPlaneAPI</text>
<text text-anchor="start" x="425.5" y="-18" font-family="Helvetica,sans-Serif" font-size="10.00">::Standard::P4RuntimeArchHandler</text>
<text text-anchor="middle" x="510" y="-7" font-family="Helvetica,sans-Serif" font-size="10.00">PSAPNA&lt; arch &gt;</text>
</a>
</g>
</g>
<!-- Node1&#45;&gt;Node12 -->
<g id="edge11_Node000001_Node000012" class="edge">
<title>Node1&#45;&gt;Node12</title>
<g id="a_edge11_Node000001_Node000012"><a xlink:title=" ">
<path fill="none" stroke="#63b8ff" d="M313.68,-138.76C337.48,-112.16 376.11,-73.24 417,-49.5 422.36,-46.39 428.09,-43.57 433.97,-41.03"/>
<polygon fill="#63b8ff" stroke="#63b8ff" points="310.77,-136.78 306.79,-146.59 316.02,-141.4 310.77,-136.78"/>
</a>
</g>
</g>
<!-- Node2 -->
<g id="Node000002" class="node">
<title>Node2</title>
<g id="a_Node000002"><a xlink:href="class_p4_1_1_control_plane_a_p_i_1_1_p4_runtime_arch_handler_iface.html" target="_top" xlink:title=" ">
<polygon fill="white" stroke="#666666" points="160,-182.5 0,-182.5 0,-152.5 160,-152.5 160,-182.5"/>
<text text-anchor="start" x="8" y="-170.5" font-family="Helvetica,sans-Serif" font-size="10.00">P4::ControlPlaneAPI</text>
<text text-anchor="middle" x="80" y="-159.5" font-family="Helvetica,sans-Serif" font-size="10.00">::P4RuntimeArchHandlerIface</text>
</a>
</g>
</g>
<!-- Node2&#45;&gt;Node1 -->
<g id="edge1_Node000001_Node000002" class="edge">
<title>Node2&#45;&gt;Node1</title>
<g id="a_edge1_Node000001_Node000002"><a xlink:title=" ">
<path fill="none" stroke="#63b8ff" d="M170.4,-167.5C178.79,-167.5 187.3,-167.5 195.7,-167.5"/>
<polygon fill="#63b8ff" stroke="#63b8ff" points="170.25,-164 160.25,-167.5 170.25,-171 170.25,-164"/>
</a>
</g>
</g>
<!-- Node4 -->
<g id="Node000004" class="node">
<title>Node4</title>
<g id="a_Node000004"><a xlink:href="class_p4_1_1_control_plane_a_p_i_1_1_standard_1_1_b_f_runtime_arch_handler_p_n_a.html" target="_top" xlink:title=" ">
<polygon fill="white" stroke="#bfbfbf" points="845,-330.5 639,-330.5 639,-300.5 845,-300.5 845,-330.5"/>
<text text-anchor="start" x="647" y="-318.5" font-family="Helvetica,sans-Serif" font-size="10.00">P4::ControlPlaneAPI</text>
<text text-anchor="middle" x="742" y="-307.5" font-family="Helvetica,sans-Serif" font-size="10.00">::Standard::BFRuntimeArchHandlerPNA</text>
</a>
</g>
</g>
<!-- Node3&#45;&gt;Node4 -->
<g id="edge3_Node000003_Node000004" class="edge">
<title>Node3&#45;&gt;Node4</title>
<g id="a_edge3_Node000003_Node000004"><a xlink:title=" ">
<path fill="none" stroke="#63b8ff" d="M613.48,-315.5C621.94,-315.5 630.49,-315.5 638.94,-315.5"/>
<polygon fill="#63b8ff" stroke="#63b8ff" points="613.22,-312 603.22,-315.5 613.22,-319 613.22,-312"/>
</a>
</g>
</g>
<!-- Node6 -->
<g id="Node000006" class="node">
<title>Node6</title>
<g id="a_Node000006"><a xlink:href="class_p4_1_1_control_plane_a_p_i_1_1_standard_1_1_b_f_runtime_arch_handler_p_s_a.html" target="_top" xlink:title=" ">
<polygon fill="white" stroke="#bfbfbf" points="845,-271.5 639,-271.5 639,-241.5 845,-241.5 845,-271.5"/>
<text text-anchor="start" x="647" y="-259.5" font-family="Helvetica,sans-Serif" font-size="10.00">P4::ControlPlaneAPI</text>
<text text-anchor="middle" x="742" y="-248.5" font-family="Helvetica,sans-Serif" font-size="10.00">::Standard::BFRuntimeArchHandlerPSA</text>
</a>
</g>
</g>
<!-- Node5&#45;&gt;Node6 -->
<g id="edge5_Node000005_Node000006" class="edge">
<title>Node5&#45;&gt;Node6</title>
<g id="a_edge5_Node000005_Node000006"><a xlink:title=" ">
<path fill="none" stroke="#63b8ff" d="M613.48,-256.5C621.94,-256.5 630.49,-256.5 638.94,-256.5"/>
<polygon fill="#63b8ff" stroke="#63b8ff" points="613.22,-253 603.22,-256.5 613.22,-260 613.22,-253"/>
</a>
</g>
</g>
<!-- Node8 -->
<g id="Node000008" class="node">
<title>Node8</title>
<g id="a_Node000008"><a xlink:href="class_p4_1_1_control_plane_a_p_i_1_1_standard_1_1_p4_runtime_arch_handler_p_n_a.html" target="_top" xlink:title=" ">
<polygon fill="white" stroke="#bfbfbf" points="845,-212.5 639,-212.5 639,-182.5 845,-182.5 845,-212.5"/>
<text text-anchor="start" x="647" y="-200.5" font-family="Helvetica,sans-Serif" font-size="10.00">P4::ControlPlaneAPI</text>
<text text-anchor="middle" x="742" y="-189.5" font-family="Helvetica,sans-Serif" font-size="10.00">::Standard::P4RuntimeArchHandlerPNA</text>
</a>
</g>
</g>
<!-- Node7&#45;&gt;Node8 -->
<g id="edge7_Node000007_Node000008" class="edge">
<title>Node7&#45;&gt;Node8</title>
<g id="a_edge7_Node000007_Node000008"><a xlink:title=" ">
<path fill="none" stroke="#63b8ff" d="M612.68,-197.5C621.34,-197.5 630.11,-197.5 638.78,-197.5"/>
<polygon fill="#63b8ff" stroke="#63b8ff" points="612.56,-194 602.56,-197.5 612.56,-201 612.56,-194"/>
</a>
</g>
</g>
<!-- Node10 -->
<g id="Node000010" class="node">
<title>Node10</title>
<g id="a_Node000010"><a xlink:href="class_p4_1_1_control_plane_a_p_i_1_1_standard_1_1_p4_runtime_arch_handler_p_s_a.html" target="_top" xlink:title=" ">
<polygon fill="white" stroke="#bfbfbf" points="844.5,-153.5 639.5,-153.5 639.5,-123.5 844.5,-123.5 844.5,-153.5"/>
<text text-anchor="start" x="647.5" y="-141.5" font-family="Helvetica,sans-Serif" font-size="10.00">P4::ControlPlaneAPI</text>
<text text-anchor="middle" x="742" y="-130.5" font-family="Helvetica,sans-Serif" font-size="10.00">::Standard::P4RuntimeArchHandlerPSA</text>
</a>
</g>
</g>
<!-- Node9&#45;&gt;Node10 -->
<g id="edge9_Node000009_Node000010" class="edge">
<title>Node9&#45;&gt;Node10</title>
<g id="a_edge9_Node000009_Node000010"><a xlink:title=" ">
<path fill="none" stroke="#63b8ff" d="M612.78,-138.5C621.54,-138.5 630.4,-138.5 639.16,-138.5"/>
<polygon fill="#63b8ff" stroke="#63b8ff" points="612.56,-135 602.56,-138.5 612.56,-142 612.56,-135"/>
</a>
</g>
</g>
</g>
</svg>
