<?xml version="1.0" encoding="UTF-8" standalone="no"?>
<!DOCTYPE svg PUBLIC "-//W3C//DTD SVG 1.1//EN"
 "http://www.w3.org/Graphics/SVG/1.1/DTD/svg11.dtd">
<!-- Generated by graphviz version 2.43.0 (0)
 -->
<!-- Title: P4::Util::IHasSourceInfo Pages: 1 -->
<!--zoomable 1025 -->

<svg id="main" version="1.1" xmlns="http://www.w3.org/2000/svg" xmlns:xlink="http://www.w3.org/1999/xlink" xml:space="preserve" onload="init(evt)">

<style type="text/css"><![CDATA[
.node, .edge {opacity: 0.7;}
.node.selected, .edge.selected {opacity: 1;}
.edge:hover path { stroke: red; }
.edge:hover polygon { stroke: red; fill: red; }
]]></style>

<defs>
  <circle id="rim" cx="0" cy="0" r="7"/>
  <circle id="rim2" cx="0" cy="0" r="3.5"/>
  <g id="zoomPlus">
    <use xlink:href="#rim" fill="#404040"><set attributeName="fill" to="#808080" begin="zoomplus.mouseover" end="zoomplus.mouseout"/></use>
    <path d="M-4,0h8M0,-4v8" fill="none" stroke="white" stroke-width="1.5" pointer-events="none"/>
  </g>
  <g id="zoomMin">
    <use xlink:href="#rim" fill="#404040"><set attributeName="fill" to="#808080" begin="zoomminus.mouseover" end="zoomminus.mouseout"/></use>
    <path d="M-4,0h8" fill="none" stroke="white" stroke-width="1.5" pointer-events="none"/>
  </g>
  <g id="arrowUp" transform="translate(30 24)">
    <use xlink:href="#rim"/>
    <path pointer-events="none" fill="none" stroke="white" stroke-width="1.5" d="M0,-3.0v7 M-2.5,-0.5L0,-3.0L2.5,-0.5"/>
  </g>
  <g id="arrowRight" transform="rotate(90) translate(36 -43)">
    <use xlink:href="#rim"/>
    <path pointer-events="none" fill="none" stroke="white" stroke-width="1.5" d="M0,-3.0v7 M-2.5,-0.5L0,-3.0L2.5,-0.5"/>
  </g>
  <g id="arrowDown" transform="rotate(180) translate(-30 -48)">
    <use xlink:href="#rim"/>
    <path pointer-events="none" fill="none" stroke="white" stroke-width="1.5" d="M0,-3.0v7 M-2.5,-0.5L0,-3.0L2.5,-0.5"/>
  </g>
  <g id="arrowLeft" transform="rotate(270) translate(-36 17)">
    <use xlink:href="#rim"/>
    <path pointer-events="none" fill="none" stroke="white" stroke-width="1.5" d="M0,-3.0v7 M-2.5,-0.5L0,-3.0L2.5,-0.5"/>
  </g>
  <g id="resetDef">
    <use xlink:href="#rim2" fill="#404040"><set attributeName="fill" to="#808080" begin="reset.mouseover" end="reset.mouseout"/></use>
  </g>
</defs>
<script type="application/ecmascript">
var viewWidth = 983;
var viewHeight = 1025;
var sectionId = 'dynsection-0';
</script>
<script type="application/ecmascript" xlink:href="svg.min.js"/>
<svg id="graph" class="graph">
<g id="viewport">
<title>P4::Util::IHasSourceInfo</title>
<!-- Node1 -->
<g id="Node000001" class="node">
<title>Node1</title>
<g id="a_Node000001"><a xlink:title=" ">
<polygon fill="#999999" stroke="#666666" points="131,-569 0,-569 0,-550 131,-550 131,-569"/>
<text text-anchor="middle" x="65.5" y="-557" font-family="Helvetica,sans-Serif" font-size="10.00">P4::Util::IHasSourceInfo</text>
</a>
</g>
</g>
<!-- Node2 -->
<g id="Node000002" class="node">
<title>Node2</title>
<g id="a_Node000002"><a xlink:href="struct_p4_1_1_i_r_1_1_i_d.html" target="_top" xlink:title=" ">
<polygon fill="white" stroke="#bfbfbf" points="250.5,-606 189.5,-606 189.5,-587 250.5,-587 250.5,-606"/>
<text text-anchor="middle" x="220" y="-594" font-family="Helvetica,sans-Serif" font-size="10.00">P4::IR::ID</text>
</a>
</g>
</g>
<!-- Node1&#45;&gt;Node2 -->
<g id="edge1_Node000001_Node000002" class="edge">
<title>Node1&#45;&gt;Node2</title>
<g id="a_edge1_Node000001_Node000002"><a xlink:title=" ">
<path fill="none" stroke="#63b8ff" d="M115.57,-571.4C139.93,-577.31 168.54,-584.26 189.49,-589.34"/>
<polygon fill="#63b8ff" stroke="#63b8ff" points="116.32,-567.98 105.77,-569.03 114.67,-574.79 116.32,-567.98"/>
</a>
</g>
</g>
<!-- Node3 -->
<g id="Node000003" class="node">
<title>Node3</title>
<g id="a_Node000003"><a xlink:href="class_p4_1_1_i_r_1_1_i_node.html" target="_top" xlink:title=" ">
<polygon fill="white" stroke="#bfbfbf" points="259.5,-569 180.5,-569 180.5,-550 259.5,-550 259.5,-569"/>
<text text-anchor="middle" x="220" y="-557" font-family="Helvetica,sans-Serif" font-size="10.00">P4::IR::INode</text>
</a>
</g>
</g>
<!-- Node1&#45;&gt;Node3 -->
<g id="edge2_Node000001_Node000003" class="edge">
<title>Node1&#45;&gt;Node3</title>
<g id="a_edge2_Node000001_Node000003"><a xlink:title=" ">
<path fill="none" stroke="#63b8ff" d="M141.43,-559.5C154.89,-559.5 168.41,-559.5 180.31,-559.5"/>
<polygon fill="#63b8ff" stroke="#63b8ff" points="141.17,-556 131.17,-559.5 141.17,-563 141.17,-556"/>
</a>
</g>
</g>
<!-- Node45 -->
<g id="Node000045" class="node">
<title>Node45</title>
<g id="a_Node000045"><a xlink:href="class_p4_1_1_util_1_1_comment.html" target="_top" xlink:title=" ">
<polygon fill="white" stroke="#bfbfbf" points="273,-532 167,-532 167,-513 273,-513 273,-532"/>
<text text-anchor="middle" x="220" y="-520" font-family="Helvetica,sans-Serif" font-size="10.00">P4::Util::Comment</text>
</a>
</g>
</g>
<!-- Node1&#45;&gt;Node45 -->
<g id="edge44_Node000001_Node000045" class="edge">
<title>Node1&#45;&gt;Node45</title>
<g id="a_edge44_Node000001_Node000045"><a xlink:title=" ">
<path fill="none" stroke="#8b1a1a" d="M115.65,-547.57C136.34,-542.56 160.09,-536.79 179.6,-532.06"/>
<polygon fill="#8b1a1a" stroke="#8b1a1a" points="114.67,-544.21 105.77,-549.97 116.32,-551.02 114.67,-544.21"/>
</a>
</g>
</g>
<!-- Node4 -->
<g id="Node000004" class="node">
<title>Node4</title>
<g id="a_Node000004"><a xlink:href="class_p4_1_1_i_r_1_1_i_declaration.html" target="_top" xlink:title="The Declaration interface, representing objects with names.">
<polygon fill="white" stroke="#666666" points="419,-587 309,-587 309,-568 419,-568 419,-587"/>
<text text-anchor="middle" x="364" y="-575" font-family="Helvetica,sans-Serif" font-size="10.00">P4::IR::IDeclaration</text>
</a>
</g>
</g>
<!-- Node3&#45;&gt;Node4 -->
<g id="edge3_Node000003_Node000004" class="edge">
<title>Node3&#45;&gt;Node4</title>
<g id="a_edge3_Node000003_Node000004"><a xlink:title=" ">
<path fill="none" stroke="#63b8ff" d="M270.03,-565.72C282.54,-567.3 296.06,-569.01 308.81,-570.63"/>
<polygon fill="#63b8ff" stroke="#63b8ff" points="270.16,-562.2 259.8,-564.42 269.28,-569.15 270.16,-562.2"/>
</a>
</g>
</g>
<!-- Node5 -->
<g id="Node000005" class="node">
<title>Node5</title>
<g id="a_Node000005"><a xlink:href="class_p4_1_1_i_r_1_1_node.html" target="_top" xlink:title=" ">
<polygon fill="white" stroke="#bfbfbf" points="402,-550 326,-550 326,-531 402,-531 402,-550"/>
<text text-anchor="middle" x="364" y="-538" font-family="Helvetica,sans-Serif" font-size="10.00">P4::IR::Node</text>
</a>
</g>
</g>
<!-- Node3&#45;&gt;Node5 -->
<g id="edge4_Node000003_Node000005" class="edge">
<title>Node3&#45;&gt;Node5</title>
<g id="a_edge4_Node000003_Node000005"><a xlink:title=" ">
<path fill="none" stroke="#63b8ff" d="M269.72,-552.98C288.05,-550.53 308.59,-547.78 325.71,-545.49"/>
<polygon fill="#63b8ff" stroke="#63b8ff" points="269.25,-549.51 259.8,-554.31 270.18,-556.45 269.25,-549.51"/>
</a>
</g>
</g>
<!-- Node6 -->
<g id="Node000006" class="node">
<title>Node6</title>
<g id="a_Node000006"><a xlink:href="class_p4_1_1_i_r_1_1_name_map.html" target="_top" xlink:title=" ">
<polygon fill="white" stroke="#bfbfbf" points="599,-603.5 474,-603.5 474,-573.5 599,-573.5 599,-603.5"/>
<text text-anchor="start" x="482" y="-591.5" font-family="Helvetica,sans-Serif" font-size="10.00">P4::IR::NameMap&lt; T,</text>
<text text-anchor="middle" x="536.5" y="-580.5" font-family="Helvetica,sans-Serif" font-size="10.00"> MAP, COMP, ALLOC &gt;</text>
</a>
</g>
</g>
<!-- Node5&#45;&gt;Node6 -->
<g id="edge5_Node000005_Node000006" class="edge">
<title>Node5&#45;&gt;Node6</title>
<g id="a_edge5_Node000005_Node000006"><a xlink:title=" ">
<path fill="none" stroke="#63b8ff" d="M408.95,-552.87C431.24,-559.15 458.5,-566.82 481.99,-573.44"/>
<polygon fill="#63b8ff" stroke="#63b8ff" points="409.67,-549.44 399.09,-550.1 407.77,-556.18 409.67,-549.44"/>
</a>
</g>
</g>
<!-- Node7 -->
<g id="Node000007" class="node">
<title>Node7</title>
<g id="a_Node000007"><a xlink:href="class_p4_1_1_i_r_1_1_node_map.html" target="_top" xlink:title=" ">
<polygon fill="white" stroke="#bfbfbf" points="618,-555.5 455,-555.5 455,-525.5 618,-525.5 618,-555.5"/>
<text text-anchor="start" x="463" y="-543.5" font-family="Helvetica,sans-Serif" font-size="10.00">P4::IR::NodeMap&lt; KEY,</text>
<text text-anchor="middle" x="536.5" y="-532.5" font-family="Helvetica,sans-Serif" font-size="10.00"> VALUE, MAP, COMP, ALLOC &gt;</text>
</a>
</g>
</g>
<!-- Node5&#45;&gt;Node7 -->
<g id="edge6_Node000005_Node000007" class="edge">
<title>Node5&#45;&gt;Node7</title>
<g id="a_edge6_Node000005_Node000007"><a xlink:title=" ">
<path fill="none" stroke="#63b8ff" d="M412.6,-540.5C425.74,-540.5 440.37,-540.5 454.83,-540.5"/>
<polygon fill="#63b8ff" stroke="#63b8ff" points="412.42,-537 402.42,-540.5 412.42,-544 412.42,-537"/>
</a>
</g>
</g>
<!-- Node8 -->
<g id="Node000008" class="node">
<title>Node8</title>
<g id="a_Node000008"><a xlink:href="class_p4_1_1_i_r_1_1_vector_base.html" target="_top" xlink:title=" ">
<polygon fill="white" stroke="#bfbfbf" points="589,-507 484,-507 484,-488 589,-488 589,-507"/>
<text text-anchor="middle" x="536.5" y="-495" font-family="Helvetica,sans-Serif" font-size="10.00">P4::IR::VectorBase</text>
</a>
</g>
</g>
<!-- Node5&#45;&gt;Node8 -->
<g id="edge7_Node000005_Node000008" class="edge">
<title>Node5&#45;&gt;Node8</title>
<g id="a_edge7_Node000005_Node000008"><a xlink:title=" ">
<path fill="none" stroke="#63b8ff" d="M409.68,-528.31C424.12,-524.45 440.22,-520.21 455,-516.5 467.67,-513.32 481.51,-509.99 494.08,-507.04"/>
<polygon fill="#63b8ff" stroke="#63b8ff" points="408.74,-524.94 399.99,-530.92 410.55,-531.7 408.74,-524.94"/>
</a>
</g>
</g>
<!-- Node9 -->
<g id="Node000009" class="node">
<title>Node9</title>
<g id="a_Node000009"><a xlink:href="class_p4_1_1_i_r_1_1_vector.html" target="_top" xlink:title=" ">
<polygon fill="white" stroke="#bfbfbf" points="771,-1016.5 669,-1016.5 669,-986.5 771,-986.5 771,-1016.5"/>
<text text-anchor="start" x="677" y="-1004.5" font-family="Helvetica,sans-Serif" font-size="10.00">P4::IR::Vector&lt; IR</text>
<text text-anchor="middle" x="720" y="-993.5" font-family="Helvetica,sans-Serif" font-size="10.00">::Expression &gt;</text>
</a>
</g>
</g>
<!-- Node8&#45;&gt;Node9 -->
<g id="edge8_Node000008_Node000009" class="edge">
<title>Node8&#45;&gt;Node9</title>
<g id="a_edge8_Node000008_Node000009"><a xlink:title=" ">
<path fill="none" stroke="#63b8ff" d="M598.73,-503.06C606.08,-506.12 612.81,-510.44 618,-516.5 684.86,-594.53 592.02,-895.54 654,-977.5 657.92,-982.68 663.08,-986.74 668.78,-989.93"/>
<polygon fill="#63b8ff" stroke="#63b8ff" points="599.74,-499.71 589.15,-499.83 597.51,-506.35 599.74,-499.71"/>
</a>
</g>
</g>
<!-- Node10 -->
<g id="Node000010" class="node">
<title>Node10</title>
<g id="a_Node000010"><a xlink:href="class_p4_1_1_i_r_1_1_vector.html" target="_top" xlink:title=" ">
<polygon fill="white" stroke="#bfbfbf" points="771,-968.5 669,-968.5 669,-938.5 771,-938.5 771,-968.5"/>
<text text-anchor="start" x="677" y="-956.5" font-family="Helvetica,sans-Serif" font-size="10.00">P4::IR::Vector&lt; IR</text>
<text text-anchor="middle" x="720" y="-945.5" font-family="Helvetica,sans-Serif" font-size="10.00">::BFN::Pipe &gt;</text>
</a>
</g>
</g>
<!-- Node8&#45;&gt;Node10 -->
<g id="edge9_Node000008_Node000010" class="edge">
<title>Node8&#45;&gt;Node10</title>
<g id="a_edge9_Node000008_Node000010"><a xlink:title=" ">
<path fill="none" stroke="#63b8ff" d="M598.68,-503.11C606.04,-506.16 612.78,-510.47 618,-516.5 678.26,-586.19 598.1,-856.27 654,-929.5 657.94,-934.66 663.11,-938.72 668.82,-941.9"/>
<polygon fill="#63b8ff" stroke="#63b8ff" points="599.69,-499.75 589.09,-499.88 597.45,-506.39 599.69,-499.75"/>
</a>
</g>
</g>
<!-- Node11 -->
<g id="Node000011" class="node">
<title>Node11</title>
<g id="a_Node000011"><a xlink:href="class_p4_1_1_i_r_1_1_vector.html" target="_top" xlink:title=" ">
<polygon fill="white" stroke="#bfbfbf" points="781,-920.5 659,-920.5 659,-890.5 781,-890.5 781,-920.5"/>
<text text-anchor="start" x="667" y="-908.5" font-family="Helvetica,sans-Serif" font-size="10.00">P4::IR::Vector&lt; IR</text>
<text text-anchor="middle" x="720" y="-897.5" font-family="Helvetica,sans-Serif" font-size="10.00">::NamedExpression &gt;</text>
</a>
</g>
</g>
<!-- Node8&#45;&gt;Node11 -->
<g id="edge10_Node000008_Node000011" class="edge">
<title>Node8&#45;&gt;Node11</title>
<g id="a_edge10_Node000008_Node000011"><a xlink:title=" ">
<path fill="none" stroke="#63b8ff" d="M598.62,-503.16C605.99,-506.2 612.75,-510.5 618,-516.5 671.66,-577.85 604.18,-817 654,-881.5 656.65,-884.93 659.84,-887.87 663.36,-890.38"/>
<polygon fill="#63b8ff" stroke="#63b8ff" points="599.62,-499.81 589.02,-499.94 597.39,-506.44 599.62,-499.81"/>
</a>
</g>
</g>
<!-- Node13 -->
<g id="Node000013" class="node">
<title>Node13</title>
<g id="a_Node000013"><a xlink:href="class_p4_1_1_i_r_1_1_vector.html" target="_top" xlink:title=" ">
<polygon fill="white" stroke="#bfbfbf" points="771,-872.5 669,-872.5 669,-842.5 771,-842.5 771,-872.5"/>
<text text-anchor="start" x="677" y="-860.5" font-family="Helvetica,sans-Serif" font-size="10.00">P4::IR::Vector&lt; IR</text>
<text text-anchor="middle" x="720" y="-849.5" font-family="Helvetica,sans-Serif" font-size="10.00">::Annotation &gt;</text>
</a>
</g>
</g>
<!-- Node8&#45;&gt;Node13 -->
<g id="edge12_Node000008_Node000013" class="edge">
<title>Node8&#45;&gt;Node13</title>
<g id="a_edge12_Node000008_Node000013"><a xlink:title=" ">
<path fill="none" stroke="#63b8ff" d="M599.3,-503.55C606.38,-506.56 612.89,-510.74 618,-516.5 712.14,-622.53 566.49,-721.93 654,-833.5 658.01,-838.61 663.22,-842.63 668.94,-845.8"/>
<polygon fill="#63b8ff" stroke="#63b8ff" points="599.94,-500.07 589.35,-500.14 597.67,-506.69 599.94,-500.07"/>
</a>
</g>
</g>
<!-- Node14 -->
<g id="Node000014" class="node">
<title>Node14</title>
<g id="a_Node000014"><a xlink:href="class_p4_1_1_i_r_1_1_vector.html" target="_top" xlink:title=" ">
<polygon fill="white" stroke="#bfbfbf" points="772,-824.5 668,-824.5 668,-794.5 772,-794.5 772,-824.5"/>
<text text-anchor="start" x="676" y="-812.5" font-family="Helvetica,sans-Serif" font-size="10.00">P4::IR::Vector&lt; P4</text>
<text text-anchor="middle" x="720" y="-801.5" font-family="Helvetica,sans-Serif" font-size="10.00">::IR::Node &gt;</text>
</a>
</g>
</g>
<!-- Node8&#45;&gt;Node14 -->
<g id="edge13_Node000008_Node000014" class="edge">
<title>Node8&#45;&gt;Node14</title>
<g id="a_edge13_Node000008_Node000014"><a xlink:title=" ">
<path fill="none" stroke="#63b8ff" d="M598.71,-503.45C606,-506.46 612.71,-510.66 618,-516.5 698.98,-605.9 578.62,-691.33 654,-785.5 657.76,-790.2 662.53,-793.97 667.77,-797.01"/>
<polygon fill="#63b8ff" stroke="#63b8ff" points="599.82,-500.13 589.23,-500.24 597.58,-506.76 599.82,-500.13"/>
</a>
</g>
</g>
<!-- Node16 -->
<g id="Node000016" class="node">
<title>Node16</title>
<g id="a_Node000016"><a xlink:href="class_p4_1_1_i_r_1_1_vector.html" target="_top" xlink:title=" ">
<polygon fill="white" stroke="#bfbfbf" points="771,-776.5 669,-776.5 669,-746.5 771,-746.5 771,-776.5"/>
<text text-anchor="start" x="677" y="-764.5" font-family="Helvetica,sans-Serif" font-size="10.00">P4::IR::Vector&lt; IR</text>
<text text-anchor="middle" x="720" y="-753.5" font-family="Helvetica,sans-Serif" font-size="10.00">::StructField &gt;</text>
</a>
</g>
</g>
<!-- Node8&#45;&gt;Node16 -->
<g id="edge15_Node000008_Node000016" class="edge">
<title>Node8&#45;&gt;Node16</title>
<g id="a_edge15_Node000008_Node000016"><a xlink:title=" ">
<path fill="none" stroke="#63b8ff" d="M598.55,-503.59C605.87,-506.57 612.63,-510.74 618,-516.5 685.85,-589.3 590.71,-660.7 654,-737.5 658.05,-742.42 663.22,-746.33 668.85,-749.44"/>
<polygon fill="#63b8ff" stroke="#63b8ff" points="599.65,-500.26 589.06,-500.4 597.42,-506.9 599.65,-500.26"/>
</a>
</g>
</g>
<!-- Node18 -->
<g id="Node000018" class="node">
<title>Node18</title>
<g id="a_Node000018"><a xlink:href="class_p4_1_1_i_r_1_1_vector.html" target="_top" xlink:title=" ">
<polygon fill="white" stroke="#bfbfbf" points="771,-728.5 669,-728.5 669,-698.5 771,-698.5 771,-728.5"/>
<text text-anchor="start" x="677" y="-716.5" font-family="Helvetica,sans-Serif" font-size="10.00">P4::IR::Vector&lt; IR</text>
<text text-anchor="middle" x="720" y="-705.5" font-family="Helvetica,sans-Serif" font-size="10.00">::MAU::Table &gt;</text>
</a>
</g>
</g>
<!-- Node8&#45;&gt;Node18 -->
<g id="edge17_Node000008_Node000018" class="edge">
<title>Node8&#45;&gt;Node18</title>
<g id="a_edge17_Node000008_Node000018"><a xlink:title=" ">
<path fill="none" stroke="#63b8ff" d="M599.09,-504.12C606.14,-507.05 612.7,-511.05 618,-516.5 672.79,-572.77 602.74,-630 654,-689.5 658.08,-694.24 663.19,-698.04 668.73,-701.1"/>
<polygon fill="#63b8ff" stroke="#63b8ff" points="599.81,-500.67 589.22,-500.76 597.56,-507.29 599.81,-500.67"/>
</a>
</g>
</g>
<!-- Node19 -->
<g id="Node000019" class="node">
<title>Node19</title>
<g id="a_Node000019"><a xlink:href="class_p4_1_1_i_r_1_1_vector.html" target="_top" xlink:title=" ">
<polygon fill="white" stroke="#bfbfbf" points="771,-680.5 669,-680.5 669,-650.5 771,-650.5 771,-680.5"/>
<text text-anchor="start" x="677" y="-668.5" font-family="Helvetica,sans-Serif" font-size="10.00">P4::IR::Vector&lt; IR</text>
<text text-anchor="middle" x="720" y="-657.5" font-family="Helvetica,sans-Serif" font-size="10.00">::Type &gt;</text>
</a>
</g>
</g>
<!-- Node8&#45;&gt;Node19 -->
<g id="edge18_Node000008_Node000019" class="edge">
<title>Node8&#45;&gt;Node19</title>
<g id="a_edge18_Node000008_Node000019"><a xlink:title=" ">
<path fill="none" stroke="#63b8ff" d="M598.98,-504.61C606,-507.47 612.57,-511.33 618,-516.5 659.86,-556.37 614.64,-599.15 654,-641.5 658.18,-645.99 663.27,-649.65 668.75,-652.62"/>
<polygon fill="#63b8ff" stroke="#63b8ff" points="599.8,-501.2 589.21,-501.31 597.56,-507.83 599.8,-501.2"/>
</a>
</g>
</g>
<!-- Node20 -->
<g id="Node000020" class="node">
<title>Node20</title>
<g id="a_Node000020"><a xlink:href="class_p4_1_1_i_r_1_1_vector.html" target="_top" xlink:title=" ">
<polygon fill="white" stroke="#bfbfbf" points="771,-632.5 669,-632.5 669,-602.5 771,-602.5 771,-632.5"/>
<text text-anchor="start" x="677" y="-620.5" font-family="Helvetica,sans-Serif" font-size="10.00">P4::IR::Vector&lt; IR</text>
<text text-anchor="middle" x="720" y="-609.5" font-family="Helvetica,sans-Serif" font-size="10.00">::Argument &gt;</text>
</a>
</g>
</g>
<!-- Node8&#45;&gt;Node20 -->
<g id="edge19_Node000008_Node000020" class="edge">
<title>Node8&#45;&gt;Node20</title>
<g id="a_edge19_Node000008_Node000020"><a xlink:title=" ">
<path fill="none" stroke="#63b8ff" d="M598.81,-505.67C605.74,-508.36 612.33,-511.89 618,-516.5 647.31,-540.33 626.19,-567.93 654,-593.5 658.34,-597.49 663.4,-600.83 668.74,-603.63"/>
<polygon fill="#63b8ff" stroke="#63b8ff" points="599.8,-502.31 589.21,-502.49 597.6,-508.96 599.8,-502.31"/>
</a>
</g>
</g>
<!-- Node21 -->
<g id="Node000021" class="node">
<title>Node21</title>
<g id="a_Node000021"><a xlink:href="class_p4_1_1_i_r_1_1_vector.html" target="_top" xlink:title=" ">
<polygon fill="white" stroke="#bfbfbf" points="771,-584.5 669,-584.5 669,-554.5 771,-554.5 771,-584.5"/>
<text text-anchor="start" x="677" y="-572.5" font-family="Helvetica,sans-Serif" font-size="10.00">P4::IR::Vector&lt; IR</text>
<text text-anchor="middle" x="720" y="-561.5" font-family="Helvetica,sans-Serif" font-size="10.00">::Declaration &gt;</text>
</a>
</g>
</g>
<!-- Node8&#45;&gt;Node21 -->
<g id="edge20_Node000008_Node000021" class="edge">
<title>Node8&#45;&gt;Node21</title>
<g id="a_edge20_Node000008_Node000021"><a xlink:title=" ">
<path fill="none" stroke="#63b8ff" d="M599.01,-508.97C605.57,-511.09 612.02,-513.57 618,-516.5 636.46,-525.53 636.13,-535.36 654,-545.5 659.76,-548.76 666.04,-551.73 672.36,-554.38"/>
<polygon fill="#63b8ff" stroke="#63b8ff" points="599.94,-505.6 589.36,-506.13 597.97,-512.31 599.94,-505.6"/>
</a>
</g>
</g>
<!-- Node23 -->
<g id="Node000023" class="node">
<title>Node23</title>
<g id="a_Node000023"><a xlink:href="class_p4_1_1_i_r_1_1_vector.html" target="_top" xlink:title=" ">
<polygon fill="white" stroke="#bfbfbf" points="786,-536.5 654,-536.5 654,-506.5 786,-506.5 786,-536.5"/>
<text text-anchor="start" x="662" y="-524.5" font-family="Helvetica,sans-Serif" font-size="10.00">P4::IR::Vector&lt; IR</text>
<text text-anchor="middle" x="720" y="-513.5" font-family="Helvetica,sans-Serif" font-size="10.00">::DpdkAsmStatement &gt;</text>
</a>
</g>
</g>
<!-- Node8&#45;&gt;Node23 -->
<g id="edge22_Node000008_Node000023" class="edge">
<title>Node8&#45;&gt;Node23</title>
<g id="a_edge22_Node000008_Node000023"><a xlink:title=" ">
<path fill="none" stroke="#63b8ff" d="M599.16,-505.65C616.74,-507.98 635.95,-510.52 653.73,-512.87"/>
<polygon fill="#63b8ff" stroke="#63b8ff" points="599.4,-502.15 589.03,-504.31 598.48,-509.09 599.4,-502.15"/>
</a>
</g>
</g>
<!-- Node25 -->
<g id="Node000025" class="node">
<title>Node25</title>
<g id="a_Node000025"><a xlink:href="class_p4_1_1_i_r_1_1_vector.html" target="_top" xlink:title=" ">
<polygon fill="white" stroke="#bfbfbf" points="771,-488.5 669,-488.5 669,-458.5 771,-458.5 771,-488.5"/>
<text text-anchor="start" x="677" y="-476.5" font-family="Helvetica,sans-Serif" font-size="10.00">P4::IR::Vector&lt; IR</text>
<text text-anchor="middle" x="720" y="-465.5" font-family="Helvetica,sans-Serif" font-size="10.00">::DpdkTable &gt;</text>
</a>
</g>
</g>
<!-- Node8&#45;&gt;Node25 -->
<g id="edge24_Node000008_Node000025" class="edge">
<title>Node8&#45;&gt;Node25</title>
<g id="a_edge24_Node000008_Node000025"><a xlink:title=" ">
<path fill="none" stroke="#63b8ff" d="M599.24,-489.34C621.95,-486.33 647.36,-482.97 668.91,-480.12"/>
<polygon fill="#63b8ff" stroke="#63b8ff" points="598.48,-485.91 589.03,-490.69 599.4,-492.85 598.48,-485.91"/>
</a>
</g>
</g>
<!-- Node27 -->
<g id="Node000027" class="node">
<title>Node27</title>
<g id="a_Node000027"><a xlink:href="class_p4_1_1_i_r_1_1_vector.html" target="_top" xlink:title=" ">
<polygon fill="white" stroke="#bfbfbf" points="771,-440.5 669,-440.5 669,-410.5 771,-410.5 771,-440.5"/>
<text text-anchor="start" x="677" y="-428.5" font-family="Helvetica,sans-Serif" font-size="10.00">P4::IR::Vector&lt; IR</text>
<text text-anchor="middle" x="720" y="-417.5" font-family="Helvetica,sans-Serif" font-size="10.00">::DpdkSelector &gt;</text>
</a>
</g>
</g>
<!-- Node8&#45;&gt;Node27 -->
<g id="edge26_Node000008_Node000027" class="edge">
<title>Node8&#45;&gt;Node27</title>
<g id="a_edge26_Node000008_Node000027"><a xlink:title=" ">
<path fill="none" stroke="#63b8ff" d="M569.57,-483.91C592.9,-474.12 625.29,-460.71 654,-449.5 661.62,-446.52 669.78,-443.44 677.65,-440.51"/>
<polygon fill="#63b8ff" stroke="#63b8ff" points="568.03,-480.76 560.17,-487.87 570.74,-487.21 568.03,-480.76"/>
</a>
</g>
</g>
<!-- Node29 -->
<g id="Node000029" class="node">
<title>Node29</title>
<g id="a_Node000029"><a xlink:href="class_p4_1_1_i_r_1_1_vector.html" target="_top" xlink:title=" ">
<polygon fill="white" stroke="#bfbfbf" points="771,-392.5 669,-392.5 669,-362.5 771,-362.5 771,-392.5"/>
<text text-anchor="start" x="677" y="-380.5" font-family="Helvetica,sans-Serif" font-size="10.00">P4::IR::Vector&lt; IR</text>
<text text-anchor="middle" x="720" y="-369.5" font-family="Helvetica,sans-Serif" font-size="10.00">::DpdkLearner &gt;</text>
</a>
</g>
</g>
<!-- Node8&#45;&gt;Node29 -->
<g id="edge28_Node000008_Node000029" class="edge">
<title>Node8&#45;&gt;Node29</title>
<g id="a_edge28_Node000008_Node000029"><a xlink:title=" ">
<path fill="none" stroke="#63b8ff" d="M554.26,-480.54C575.75,-459.58 614.91,-423.96 654,-401.5 659.74,-398.2 666.01,-395.22 672.32,-392.56"/>
<polygon fill="#63b8ff" stroke="#63b8ff" points="551.58,-478.27 546.93,-487.79 556.5,-483.25 551.58,-478.27"/>
</a>
</g>
</g>
<!-- Node31 -->
<g id="Node000031" class="node">
<title>Node31</title>
<g id="a_Node000031"><a xlink:href="class_p4_1_1_i_r_1_1_vector.html" target="_top" xlink:title=" ">
<polygon fill="white" stroke="#bfbfbf" points="771,-344.5 669,-344.5 669,-314.5 771,-314.5 771,-344.5"/>
<text text-anchor="start" x="677" y="-332.5" font-family="Helvetica,sans-Serif" font-size="10.00">P4::IR::Vector&lt; IR</text>
<text text-anchor="middle" x="720" y="-321.5" font-family="Helvetica,sans-Serif" font-size="10.00">::DpdkAction &gt;</text>
</a>
</g>
</g>
<!-- Node8&#45;&gt;Node31 -->
<g id="edge30_Node000008_Node000031" class="edge">
<title>Node8&#45;&gt;Node31</title>
<g id="a_edge30_Node000008_Node000031"><a xlink:title=" ">
<path fill="none" stroke="#63b8ff" d="M547.74,-479.29C565.59,-449.09 605.19,-388.5 654,-353.5 658.69,-350.13 663.91,-347.19 669.29,-344.62"/>
<polygon fill="#63b8ff" stroke="#63b8ff" points="544.7,-477.55 542.73,-487.96 550.76,-481.05 544.7,-477.55"/>
</a>
</g>
</g>
<!-- Node33 -->
<g id="Node000033" class="node">
<title>Node33</title>
<g id="a_Node000033"><a xlink:href="class_p4_1_1_i_r_1_1_vector.html" target="_top" xlink:title=" ">
<polygon fill="white" stroke="#bfbfbf" points="771,-296.5 669,-296.5 669,-266.5 771,-266.5 771,-296.5"/>
<text text-anchor="start" x="677" y="-284.5" font-family="Helvetica,sans-Serif" font-size="10.00">P4::IR::Vector&lt; IR</text>
<text text-anchor="middle" x="720" y="-273.5" font-family="Helvetica,sans-Serif" font-size="10.00">::Parameter &gt;</text>
</a>
</g>
</g>
<!-- Node8&#45;&gt;Node33 -->
<g id="edge32_Node000008_Node000033" class="edge">
<title>Node8&#45;&gt;Node33</title>
<g id="a_edge32_Node000008_Node000033"><a xlink:title=" ">
<path fill="none" stroke="#63b8ff" d="M544.25,-478.1C558.54,-439.75 595.41,-353.81 654,-305.5 658.45,-301.83 663.52,-298.69 668.82,-296.01"/>
<polygon fill="#63b8ff" stroke="#63b8ff" points="540.79,-477.38 540.68,-487.98 547.37,-479.76 540.79,-477.38"/>
</a>
</g>
</g>
<!-- Node35 -->
<g id="Node000035" class="node">
<title>Node35</title>
<g id="a_Node000035"><a xlink:href="class_p4_1_1_i_r_1_1_vector.html" target="_top" xlink:title=" ">
<polygon fill="white" stroke="#bfbfbf" points="778,-248.5 662,-248.5 662,-218.5 778,-218.5 778,-248.5"/>
<text text-anchor="start" x="670" y="-236.5" font-family="Helvetica,sans-Serif" font-size="10.00">P4::IR::Vector&lt; IR</text>
<text text-anchor="middle" x="720" y="-225.5" font-family="Helvetica,sans-Serif" font-size="10.00">::DpdkDeclaration &gt;</text>
</a>
</g>
</g>
<!-- Node8&#45;&gt;Node35 -->
<g id="edge34_Node000008_Node000035" class="edge">
<title>Node8&#45;&gt;Node35</title>
<g id="a_edge34_Node000008_Node000035"><a xlink:title=" ">
<path fill="none" stroke="#63b8ff" d="M541.77,-477.66C552.55,-432.28 585.03,-320.01 654,-257.5 657.74,-254.11 662.01,-251.18 666.52,-248.66"/>
<polygon fill="#63b8ff" stroke="#63b8ff" points="538.3,-477.16 539.49,-487.69 545.12,-478.71 538.3,-477.16"/>
</a>
</g>
</g>
<!-- Node37 -->
<g id="Node000037" class="node">
<title>Node37</title>
<g id="a_Node000037"><a xlink:href="class_p4_1_1_i_r_1_1_vector.html" target="_top" xlink:title=" ">
<polygon fill="white" stroke="#bfbfbf" points="771,-200.5 669,-200.5 669,-170.5 771,-170.5 771,-200.5"/>
<text text-anchor="start" x="677" y="-188.5" font-family="Helvetica,sans-Serif" font-size="10.00">P4::IR::Vector&lt; IR</text>
<text text-anchor="middle" x="720" y="-177.5" font-family="Helvetica,sans-Serif" font-size="10.00">::StatOrDecl &gt;</text>
</a>
</g>
</g>
<!-- Node8&#45;&gt;Node37 -->
<g id="edge36_Node000008_Node000037" class="edge">
<title>Node8&#45;&gt;Node37</title>
<g id="a_edge36_Node000008_Node000037"><a xlink:title=" ">
<path fill="none" stroke="#63b8ff" d="M539.98,-477.63C547.43,-426.1 574.27,-286.82 654,-209.5 658.32,-205.31 663.43,-201.85 668.86,-198.98"/>
<polygon fill="#63b8ff" stroke="#63b8ff" points="536.48,-477.37 538.6,-487.75 543.42,-478.31 536.48,-477.37"/>
</a>
</g>
</g>
<!-- Node39 -->
<g id="Node000039" class="node">
<title>Node39</title>
<g id="a_Node000039"><a xlink:href="class_p4_1_1_i_r_1_1_vector.html" target="_top" xlink:title=" ">
<polygon fill="white" stroke="#bfbfbf" points="771,-152.5 669,-152.5 669,-122.5 771,-122.5 771,-152.5"/>
<text text-anchor="start" x="677" y="-140.5" font-family="Helvetica,sans-Serif" font-size="10.00">P4::IR::Vector&lt; IR</text>
<text text-anchor="middle" x="720" y="-129.5" font-family="Helvetica,sans-Serif" font-size="10.00">::ParserState &gt;</text>
</a>
</g>
</g>
<!-- Node8&#45;&gt;Node39 -->
<g id="edge38_Node000008_Node000039" class="edge">
<title>Node8&#45;&gt;Node39</title>
<g id="a_edge38_Node000008_Node000039"><a xlink:title=" ">
<path fill="none" stroke="#63b8ff" d="M538.64,-477.85C542.98,-420.92 563.23,-254.1 654,-161.5 658.29,-157.12 663.46,-153.53 668.97,-150.59"/>
<polygon fill="#63b8ff" stroke="#63b8ff" points="535.14,-477.77 537.95,-487.99 542.12,-478.25 535.14,-477.77"/>
</a>
</g>
</g>
<!-- Node41 -->
<g id="Node000041" class="node">
<title>Node41</title>
<g id="a_Node000041"><a xlink:href="class_p4_1_1_i_r_1_1_vector.html" target="_top" xlink:title=" ">
<polygon fill="white" stroke="#bfbfbf" points="771,-104.5 669,-104.5 669,-74.5 771,-74.5 771,-104.5"/>
<text text-anchor="start" x="677" y="-92.5" font-family="Helvetica,sans-Serif" font-size="10.00">P4::IR::Vector&lt; IR</text>
<text text-anchor="middle" x="720" y="-81.5" font-family="Helvetica,sans-Serif" font-size="10.00">::SelectCase &gt;</text>
</a>
</g>
</g>
<!-- Node8&#45;&gt;Node41 -->
<g id="edge40_Node000008_Node000041" class="edge">
<title>Node8&#45;&gt;Node41</title>
<g id="a_edge40_Node000008_Node000041"><a xlink:title=" ">
<path fill="none" stroke="#63b8ff" d="M537.65,-477.59C539.18,-415.22 552.32,-221.38 654,-113.5 658.21,-109.04 663.32,-105.4 668.81,-102.43"/>
<polygon fill="#63b8ff" stroke="#63b8ff" points="534.14,-477.9 537.47,-487.95 541.14,-478.01 534.14,-477.9"/>
</a>
</g>
</g>
<!-- Node42 -->
<g id="Node000042" class="node">
<title>Node42</title>
<g id="a_Node000042"><a xlink:href="class_p4_1_1_i_r_1_1_vector.html" target="_top" xlink:title=" ">
<polygon fill="white" stroke="#bfbfbf" points="775.5,-56 664.5,-56 664.5,-37 775.5,-37 775.5,-56"/>
<text text-anchor="middle" x="720" y="-44" font-family="Helvetica,sans-Serif" font-size="10.00">P4::IR::Vector&lt; N &gt;</text>
</a>
</g>
</g>
<!-- Node8&#45;&gt;Node42 -->
<g id="edge41_Node000008_Node000042" class="edge">
<title>Node8&#45;&gt;Node42</title>
<g id="a_edge41_Node000008_Node000042"><a xlink:title=" ">
<path fill="none" stroke="#63b8ff" d="M540.26,-477.6C551.26,-401.02 594.29,-126.47 654,-65.5 657.78,-61.64 662.31,-58.55 667.18,-56.08"/>
<polygon fill="#63b8ff" stroke="#63b8ff" points="536.75,-477.39 538.82,-487.78 543.69,-478.37 536.75,-477.39"/>
</a>
</g>
</g>
<!-- Node43 -->
<g id="Node000043" class="node">
<title>Node43</title>
<g id="a_Node000043"><a xlink:href="class_p4_1_1_i_r_1_1_vector.html" target="_top" xlink:title=" ">
<polygon fill="white" stroke="#bfbfbf" points="775,-19 665,-19 665,0 775,0 775,-19"/>
<text text-anchor="middle" x="720" y="-7" font-family="Helvetica,sans-Serif" font-size="10.00">P4::IR::Vector&lt; T &gt;</text>
</a>
</g>
</g>
<!-- Node8&#45;&gt;Node43 -->
<g id="edge42_Node000008_Node000043" class="edge">
<title>Node8&#45;&gt;Node43</title>
<g id="a_edge42_Node000008_Node000043"><a xlink:title=" ">
<path fill="none" stroke="#63b8ff" d="M539.79,-477.42C549.42,-396.31 589.18,-94.11 654,-27.5 657.27,-24.14 661.1,-21.4 665.24,-19.15"/>
<polygon fill="#63b8ff" stroke="#63b8ff" points="536.27,-477.39 538.59,-487.72 543.22,-478.2 536.27,-477.39"/>
</a>
</g>
</g>
<!-- Node12 -->
<g id="Node000012" class="node">
<title>Node12</title>
<g id="a_Node000012"><a xlink:href="class_p4_1_1_i_r_1_1_indexed_vector.html" target="_top" xlink:title=" ">
<polygon fill="white" stroke="#666666" points="970,-920.5 827,-920.5 827,-890.5 970,-890.5 970,-920.5"/>
<text text-anchor="start" x="835" y="-908.5" font-family="Helvetica,sans-Serif" font-size="10.00">P4::IR::IndexedVector</text>
<text text-anchor="middle" x="898.5" y="-897.5" font-family="Helvetica,sans-Serif" font-size="10.00">&lt; IR::NamedExpression &gt;</text>
</a>
</g>
</g>
<!-- Node11&#45;&gt;Node12 -->
<g id="edge11_Node000011_Node000012" class="edge">
<title>Node11&#45;&gt;Node12</title>
<g id="a_edge11_Node000011_Node000012"><a xlink:title=" ">
<path fill="none" stroke="#63b8ff" d="M791.38,-905.5C803.07,-905.5 815.19,-905.5 826.88,-905.5"/>
<polygon fill="#63b8ff" stroke="#63b8ff" points="791.25,-902 781.25,-905.5 791.25,-909 791.25,-902"/>
</a>
</g>
</g>
<!-- Node15 -->
<g id="Node000015" class="node">
<title>Node15</title>
<g id="a_Node000015"><a xlink:href="class_p4_1_1_i_r_1_1_indexed_vector.html" target="_top" xlink:title=" ">
<polygon fill="white" stroke="#666666" points="958,-824.5 839,-824.5 839,-794.5 958,-794.5 958,-824.5"/>
<text text-anchor="start" x="847" y="-812.5" font-family="Helvetica,sans-Serif" font-size="10.00">P4::IR::IndexedVector</text>
<text text-anchor="middle" x="898.5" y="-801.5" font-family="Helvetica,sans-Serif" font-size="10.00">&lt; P4::IR::Node &gt;</text>
</a>
</g>
</g>
<!-- Node14&#45;&gt;Node15 -->
<g id="edge14_Node000014_Node000015" class="edge">
<title>Node14&#45;&gt;Node15</title>
<g id="a_edge14_Node000014_Node000015"><a xlink:title=" ">
<path fill="none" stroke="#63b8ff" d="M782.06,-809.5C800.44,-809.5 820.57,-809.5 838.79,-809.5"/>
<polygon fill="#63b8ff" stroke="#63b8ff" points="782.05,-806 772.05,-809.5 782.05,-813 782.05,-806"/>
</a>
</g>
</g>
<!-- Node17 -->
<g id="Node000017" class="node">
<title>Node17</title>
<g id="a_Node000017"><a xlink:href="class_p4_1_1_i_r_1_1_indexed_vector.html" target="_top" xlink:title=" ">
<polygon fill="white" stroke="#666666" points="958,-776.5 839,-776.5 839,-746.5 958,-746.5 958,-776.5"/>
<text text-anchor="start" x="847" y="-764.5" font-family="Helvetica,sans-Serif" font-size="10.00">P4::IR::IndexedVector</text>
<text text-anchor="middle" x="898.5" y="-753.5" font-family="Helvetica,sans-Serif" font-size="10.00">&lt; IR::StructField &gt;</text>
</a>
</g>
</g>
<!-- Node16&#45;&gt;Node17 -->
<g id="edge16_Node000016_Node000017" class="edge">
<title>Node16&#45;&gt;Node17</title>
<g id="a_edge16_Node000016_Node000017"><a xlink:title=" ">
<path fill="none" stroke="#63b8ff" d="M781.23,-761.5C799.85,-761.5 820.33,-761.5 838.84,-761.5"/>
<polygon fill="#63b8ff" stroke="#63b8ff" points="781.11,-758 771.11,-761.5 781.11,-765 781.11,-758"/>
</a>
</g>
</g>
<!-- Node22 -->
<g id="Node000022" class="node">
<title>Node22</title>
<g id="a_Node000022"><a xlink:href="class_p4_1_1_i_r_1_1_indexed_vector.html" target="_top" xlink:title=" ">
<polygon fill="white" stroke="#666666" points="958,-584.5 839,-584.5 839,-554.5 958,-554.5 958,-584.5"/>
<text text-anchor="start" x="847" y="-572.5" font-family="Helvetica,sans-Serif" font-size="10.00">P4::IR::IndexedVector</text>
<text text-anchor="middle" x="898.5" y="-561.5" font-family="Helvetica,sans-Serif" font-size="10.00">&lt; IR::Declaration &gt;</text>
</a>
</g>
</g>
<!-- Node21&#45;&gt;Node22 -->
<g id="edge21_Node000021_Node000022" class="edge">
<title>Node21&#45;&gt;Node22</title>
<g id="a_edge21_Node000021_Node000022"><a xlink:title=" ">
<path fill="none" stroke="#63b8ff" d="M781.23,-569.5C799.85,-569.5 820.33,-569.5 838.84,-569.5"/>
<polygon fill="#63b8ff" stroke="#63b8ff" points="781.11,-566 771.11,-569.5 781.11,-573 781.11,-566"/>
</a>
</g>
</g>
<!-- Node24 -->
<g id="Node000024" class="node">
<title>Node24</title>
<g id="a_Node000024"><a xlink:href="class_p4_1_1_i_r_1_1_indexed_vector.html" target="_top" xlink:title=" ">
<polygon fill="white" stroke="#666666" points="975,-536.5 822,-536.5 822,-506.5 975,-506.5 975,-536.5"/>
<text text-anchor="start" x="830" y="-524.5" font-family="Helvetica,sans-Serif" font-size="10.00">P4::IR::IndexedVector</text>
<text text-anchor="middle" x="898.5" y="-513.5" font-family="Helvetica,sans-Serif" font-size="10.00">&lt; IR::DpdkAsmStatement &gt;</text>
</a>
</g>
</g>
<!-- Node23&#45;&gt;Node24 -->
<g id="edge23_Node000023_Node000024" class="edge">
<title>Node23&#45;&gt;Node24</title>
<g id="a_edge23_Node000023_Node000024"><a xlink:title=" ">
<path fill="none" stroke="#63b8ff" d="M796.39,-521.5C804.81,-521.5 813.39,-521.5 821.81,-521.5"/>
<polygon fill="#63b8ff" stroke="#63b8ff" points="796.22,-518 786.22,-521.5 796.22,-525 796.22,-518"/>
</a>
</g>
</g>
<!-- Node26 -->
<g id="Node000026" class="node">
<title>Node26</title>
<g id="a_Node000026"><a xlink:href="class_p4_1_1_i_r_1_1_indexed_vector.html" target="_top" xlink:title=" ">
<polygon fill="white" stroke="#666666" points="958,-488.5 839,-488.5 839,-458.5 958,-458.5 958,-488.5"/>
<text text-anchor="start" x="847" y="-476.5" font-family="Helvetica,sans-Serif" font-size="10.00">P4::IR::IndexedVector</text>
<text text-anchor="middle" x="898.5" y="-465.5" font-family="Helvetica,sans-Serif" font-size="10.00">&lt; IR::DpdkTable &gt;</text>
</a>
</g>
</g>
<!-- Node25&#45;&gt;Node26 -->
<g id="edge25_Node000025_Node000026" class="edge">
<title>Node25&#45;&gt;Node26</title>
<g id="a_edge25_Node000025_Node000026"><a xlink:title=" ">
<path fill="none" stroke="#63b8ff" d="M781.23,-473.5C799.85,-473.5 820.33,-473.5 838.84,-473.5"/>
<polygon fill="#63b8ff" stroke="#63b8ff" points="781.11,-470 771.11,-473.5 781.11,-477 781.11,-470"/>
</a>
</g>
</g>
<!-- Node28 -->
<g id="Node000028" class="node">
<title>Node28</title>
<g id="a_Node000028"><a xlink:href="class_p4_1_1_i_r_1_1_indexed_vector.html" target="_top" xlink:title=" ">
<polygon fill="white" stroke="#666666" points="958.5,-440.5 838.5,-440.5 838.5,-410.5 958.5,-410.5 958.5,-440.5"/>
<text text-anchor="start" x="846.5" y="-428.5" font-family="Helvetica,sans-Serif" font-size="10.00">P4::IR::IndexedVector</text>
<text text-anchor="middle" x="898.5" y="-417.5" font-family="Helvetica,sans-Serif" font-size="10.00">&lt; IR::DpdkSelector &gt;</text>
</a>
</g>
</g>
<!-- Node27&#45;&gt;Node28 -->
<g id="edge27_Node000027_Node000028" class="edge">
<title>Node27&#45;&gt;Node28</title>
<g id="a_edge27_Node000027_Node000028"><a xlink:title=" ">
<path fill="none" stroke="#63b8ff" d="M781.13,-425.5C799.57,-425.5 819.83,-425.5 838.2,-425.5"/>
<polygon fill="#63b8ff" stroke="#63b8ff" points="781.11,-422 771.11,-425.5 781.11,-429 781.11,-422"/>
</a>
</g>
</g>
<!-- Node30 -->
<g id="Node000030" class="node">
<title>Node30</title>
<g id="a_Node000030"><a xlink:href="class_p4_1_1_i_r_1_1_indexed_vector.html" target="_top" xlink:title=" ">
<polygon fill="white" stroke="#666666" points="958,-392.5 839,-392.5 839,-362.5 958,-362.5 958,-392.5"/>
<text text-anchor="start" x="847" y="-380.5" font-family="Helvetica,sans-Serif" font-size="10.00">P4::IR::IndexedVector</text>
<text text-anchor="middle" x="898.5" y="-369.5" font-family="Helvetica,sans-Serif" font-size="10.00">&lt; IR::DpdkLearner &gt;</text>
</a>
</g>
</g>
<!-- Node29&#45;&gt;Node30 -->
<g id="edge29_Node000029_Node000030" class="edge">
<title>Node29&#45;&gt;Node30</title>
<g id="a_edge29_Node000029_Node000030"><a xlink:title=" ">
<path fill="none" stroke="#63b8ff" d="M781.23,-377.5C799.85,-377.5 820.33,-377.5 838.84,-377.5"/>
<polygon fill="#63b8ff" stroke="#63b8ff" points="781.11,-374 771.11,-377.5 781.11,-381 781.11,-374"/>
</a>
</g>
</g>
<!-- Node32 -->
<g id="Node000032" class="node">
<title>Node32</title>
<g id="a_Node000032"><a xlink:href="class_p4_1_1_i_r_1_1_indexed_vector.html" target="_top" xlink:title=" ">
<polygon fill="white" stroke="#666666" points="958,-344.5 839,-344.5 839,-314.5 958,-314.5 958,-344.5"/>
<text text-anchor="start" x="847" y="-332.5" font-family="Helvetica,sans-Serif" font-size="10.00">P4::IR::IndexedVector</text>
<text text-anchor="middle" x="898.5" y="-321.5" font-family="Helvetica,sans-Serif" font-size="10.00">&lt; IR::DpdkAction &gt;</text>
</a>
</g>
</g>
<!-- Node31&#45;&gt;Node32 -->
<g id="edge31_Node000031_Node000032" class="edge">
<title>Node31&#45;&gt;Node32</title>
<g id="a_edge31_Node000031_Node000032"><a xlink:title=" ">
<path fill="none" stroke="#63b8ff" d="M781.23,-329.5C799.85,-329.5 820.33,-329.5 838.84,-329.5"/>
<polygon fill="#63b8ff" stroke="#63b8ff" points="781.11,-326 771.11,-329.5 781.11,-333 781.11,-326"/>
</a>
</g>
</g>
<!-- Node34 -->
<g id="Node000034" class="node">
<title>Node34</title>
<g id="a_Node000034"><a xlink:href="class_p4_1_1_i_r_1_1_indexed_vector.html" target="_top" xlink:title=" ">
<polygon fill="white" stroke="#666666" points="958,-296.5 839,-296.5 839,-266.5 958,-266.5 958,-296.5"/>
<text text-anchor="start" x="847" y="-284.5" font-family="Helvetica,sans-Serif" font-size="10.00">P4::IR::IndexedVector</text>
<text text-anchor="middle" x="898.5" y="-273.5" font-family="Helvetica,sans-Serif" font-size="10.00">&lt; IR::Parameter &gt;</text>
</a>
</g>
</g>
<!-- Node33&#45;&gt;Node34 -->
<g id="edge33_Node000033_Node000034" class="edge">
<title>Node33&#45;&gt;Node34</title>
<g id="a_edge33_Node000033_Node000034"><a xlink:title=" ">
<path fill="none" stroke="#63b8ff" d="M781.23,-281.5C799.85,-281.5 820.33,-281.5 838.84,-281.5"/>
<polygon fill="#63b8ff" stroke="#63b8ff" points="781.11,-278 771.11,-281.5 781.11,-285 781.11,-278"/>
</a>
</g>
</g>
<!-- Node36 -->
<g id="Node000036" class="node">
<title>Node36</title>
<g id="a_Node000036"><a xlink:href="class_p4_1_1_i_r_1_1_indexed_vector.html" target="_top" xlink:title=" ">
<polygon fill="white" stroke="#666666" points="967,-248.5 830,-248.5 830,-218.5 967,-218.5 967,-248.5"/>
<text text-anchor="start" x="838" y="-236.5" font-family="Helvetica,sans-Serif" font-size="10.00">P4::IR::IndexedVector</text>
<text text-anchor="middle" x="898.5" y="-225.5" font-family="Helvetica,sans-Serif" font-size="10.00">&lt; IR::DpdkDeclaration &gt;</text>
</a>
</g>
</g>
<!-- Node35&#45;&gt;Node36 -->
<g id="edge35_Node000035_Node000036" class="edge">
<title>Node35&#45;&gt;Node36</title>
<g id="a_edge35_Node000035_Node000036"><a xlink:title=" ">
<path fill="none" stroke="#63b8ff" d="M788.48,-233.5C802,-233.5 816.2,-233.5 829.72,-233.5"/>
<polygon fill="#63b8ff" stroke="#63b8ff" points="788.3,-230 778.3,-233.5 788.3,-237 788.3,-230"/>
</a>
</g>
</g>
<!-- Node38 -->
<g id="Node000038" class="node">
<title>Node38</title>
<g id="a_Node000038"><a xlink:href="class_p4_1_1_i_r_1_1_indexed_vector.html" target="_top" xlink:title=" ">
<polygon fill="white" stroke="#666666" points="958,-200.5 839,-200.5 839,-170.5 958,-170.5 958,-200.5"/>
<text text-anchor="start" x="847" y="-188.5" font-family="Helvetica,sans-Serif" font-size="10.00">P4::IR::IndexedVector</text>
<text text-anchor="middle" x="898.5" y="-177.5" font-family="Helvetica,sans-Serif" font-size="10.00">&lt; IR::StatOrDecl &gt;</text>
</a>
</g>
</g>
<!-- Node37&#45;&gt;Node38 -->
<g id="edge37_Node000037_Node000038" class="edge">
<title>Node37&#45;&gt;Node38</title>
<g id="a_edge37_Node000037_Node000038"><a xlink:title=" ">
<path fill="none" stroke="#63b8ff" d="M781.23,-185.5C799.85,-185.5 820.33,-185.5 838.84,-185.5"/>
<polygon fill="#63b8ff" stroke="#63b8ff" points="781.11,-182 771.11,-185.5 781.11,-189 781.11,-182"/>
</a>
</g>
</g>
<!-- Node40 -->
<g id="Node000040" class="node">
<title>Node40</title>
<g id="a_Node000040"><a xlink:href="class_p4_1_1_i_r_1_1_indexed_vector.html" target="_top" xlink:title=" ">
<polygon fill="white" stroke="#666666" points="958,-152.5 839,-152.5 839,-122.5 958,-122.5 958,-152.5"/>
<text text-anchor="start" x="847" y="-140.5" font-family="Helvetica,sans-Serif" font-size="10.00">P4::IR::IndexedVector</text>
<text text-anchor="middle" x="898.5" y="-129.5" font-family="Helvetica,sans-Serif" font-size="10.00">&lt; IR::ParserState &gt;</text>
</a>
</g>
</g>
<!-- Node39&#45;&gt;Node40 -->
<g id="edge39_Node000039_Node000040" class="edge">
<title>Node39&#45;&gt;Node40</title>
<g id="a_edge39_Node000039_Node000040"><a xlink:title=" ">
<path fill="none" stroke="#63b8ff" d="M781.23,-137.5C799.85,-137.5 820.33,-137.5 838.84,-137.5"/>
<polygon fill="#63b8ff" stroke="#63b8ff" points="781.11,-134 771.11,-137.5 781.11,-141 781.11,-134"/>
</a>
</g>
</g>
<!-- Node44 -->
<g id="Node000044" class="node">
<title>Node44</title>
<g id="a_Node000044"><a xlink:href="class_p4_1_1_i_r_1_1_indexed_vector.html" target="_top" xlink:title=" ">
<polygon fill="white" stroke="#666666" points="972.5,-19 824.5,-19 824.5,0 972.5,0 972.5,-19"/>
<text text-anchor="middle" x="898.5" y="-7" font-family="Helvetica,sans-Serif" font-size="10.00">P4::IR::IndexedVector&lt; T &gt;</text>
</a>
</g>
</g>
<!-- Node43&#45;&gt;Node44 -->
<g id="edge43_Node000043_Node000044" class="edge">
<title>Node43&#45;&gt;Node44</title>
<g id="a_edge43_Node000043_Node000044"><a xlink:title=" ">
<path fill="none" stroke="#63b8ff" d="M785.4,-9.5C798.09,-9.5 811.49,-9.5 824.45,-9.5"/>
<polygon fill="#63b8ff" stroke="#63b8ff" points="785.4,-6 775.4,-9.5 785.4,-13 785.4,-6"/>
</a>
</g>
</g>
</g>
</svg>

<g id="navigator" transform="translate(0 0)" fill="#404254">
  <rect fill="#f2f5e9" fill-opacity="0.5" stroke="#606060" stroke-width=".5" x="0" y="0" width="60" height="60"/>
  <use id="zoomplus" xlink:href="#zoomPlus" x="17" y="9" onmousedown="handleZoom(evt,'in')"/>
  <use id="zoomminus" xlink:href="#zoomMin" x="42" y="9" onmousedown="handleZoom(evt,'out')"/>
  <use id="reset" xlink:href="#resetDef" x="30" y="36" onmousedown="handleReset()"/>
   <use id="arrowup" xlink:href="#arrowUp" x="0" y="0" onmousedown="handlePan(0,-1)"/>
  <use id="arrowright" xlink:href="#arrowRight" x="0" y="0" onmousedown="handlePan(1,0)"/>
  <use id="arrowdown" xlink:href="#arrowDown" x="0" y="0" onmousedown="handlePan(0,1)"/>
  <use id="arrowleft" xlink:href="#arrowLeft" x="0" y="0" onmousedown="handlePan(-1,0)"/>
</g>
<svg viewBox="0 0 15 15" width="100%" height="30px" preserveAspectRatio="xMaxYMin meet">
 <g id="arrow_out" transform="scale(0.3 0.3)">
  <a xlink:href="class_p4_1_1_util_1_1_i_has_source_info__inherit__graph_org.svg" target="_base">
   <rect id="button" ry="5" rx="5" y="6" x="6" height="38" width="38"
        fill="#f2f5e9" fill-opacity="0.5" stroke="#606060" stroke-width="1.0"/>
   <path id="arrow"
     d="M 11.500037,31.436501 C 11.940474,20.09759 22.043105,11.32322 32.158766,21.979434 L 37.068811,17.246167 C 37.068811,17.246167 37.088388,32 37.088388,32 L 22.160133,31.978069 C 22.160133,31.978069 26.997745,27.140456 26.997745,27.140456 C 18.528582,18.264221 13.291696,25.230495 11.500037,31.436501 z"
     style="fill:#404040;"/>
  </a>
 </g>
</svg>

<style type='text/css'>
<![CDATA[
[data-mouse-over-selected='false'] { opacity: 0.7; }
[data-mouse-over-selected='true']  { opacity: 1.0; }
]]>
</style>
<script type="application/ecmascript"><![CDATA[
document.addEventListener('DOMContentLoaded', (event) => {
  highlightEdges();
  highlightAdjacentNodes();
});
]]></script>
</svg>
