<?xml version="1.0" encoding="UTF-8" standalone="no"?>
<!DOCTYPE svg PUBLIC "-//W3C//DTD SVG 1.1//EN"
 "http://www.w3.org/Graphics/SVG/1.1/DTD/svg11.dtd">
<!-- Generated by graphviz version 2.43.0 (0)
 -->
<!-- Title: P4::P4CContext Pages: 1 -->
<svg width="617pt" height="614pt"
 viewBox="0.00 0.00 617.00 614.00" xmlns="http://www.w3.org/2000/svg" xmlns:xlink="http://www.w3.org/1999/xlink">
<g id="graph0" class="graph" transform="scale(1 1) rotate(0) translate(4 610)">
<title>P4::P4CContext</title>
<!-- Node1 -->
<g id="Node000001" class="node">
<title>Node1</title>
<g id="a_Node000001"><a xlink:title=" ">
<polygon fill="#999999" stroke="#666666" points="417,-312.5 325,-312.5 325,-293.5 417,-293.5 417,-312.5"/>
<text text-anchor="middle" x="371" y="-300.5" font-family="Helvetica,sans-Serif" font-size="10.00">P4::P4CContext</text>
</a>
</g>
</g>
<!-- Node4 -->
<g id="Node000004" class="node">
<title>Node4</title>
<g id="a_Node000004"><a xlink:href="class_p4_1_1_p4_c_context_with_options.html" target="_top" xlink:title=" ">
<polygon fill="white" stroke="#666666" points="607,-606 455,-606 455,-576 607,-576 607,-606"/>
<text text-anchor="start" x="463" y="-594" font-family="Helvetica,sans-Serif" font-size="10.00">P4::P4CContextWithOptions</text>
<text text-anchor="middle" x="531" y="-583" font-family="Helvetica,sans-Serif" font-size="10.00">&lt; BMV2Options &gt;</text>
</a>
</g>
</g>
<!-- Node1&#45;&gt;Node4 -->
<g id="edge3_Node000001_Node000004" class="edge">
<title>Node1&#45;&gt;Node4</title>
<g id="a_edge3_Node000001_Node000004"><a xlink:title=" ">
<path fill="none" stroke="#63b8ff" d="M372.12,-322.58C373.52,-371.03 383.95,-497.64 453,-567 456.46,-570.47 460.41,-573.45 464.65,-575.99"/>
<polygon fill="#63b8ff" stroke="#63b8ff" points="375.62,-322.43 371.94,-312.5 368.62,-322.56 375.62,-322.43"/>
</a>
</g>
</g>
<!-- Node5 -->
<g id="Node000005" class="node">
<title>Node5</title>
<g id="a_Node000005"><a xlink:href="class_p4_1_1_p4_c_context_with_options.html" target="_top" xlink:title=" ">
<polygon fill="white" stroke="#666666" points="607,-558 455,-558 455,-528 607,-528 607,-558"/>
<text text-anchor="start" x="463" y="-546" font-family="Helvetica,sans-Serif" font-size="10.00">P4::P4CContextWithOptions</text>
<text text-anchor="middle" x="531" y="-535" font-family="Helvetica,sans-Serif" font-size="10.00">&lt; PnaNicOptions &gt;</text>
</a>
</g>
</g>
<!-- Node1&#45;&gt;Node5 -->
<g id="edge4_Node000001_Node000005" class="edge">
<title>Node1&#45;&gt;Node5</title>
<g id="a_edge4_Node000001_Node000005"><a xlink:title=" ">
<path fill="none" stroke="#63b8ff" d="M373.72,-322.94C378.45,-365.25 395.4,-464.58 453,-519 456.66,-522.46 460.82,-525.43 465.26,-527.96"/>
<polygon fill="#63b8ff" stroke="#63b8ff" points="377.19,-322.42 372.71,-312.82 370.22,-323.12 377.19,-322.42"/>
</a>
</g>
</g>
<!-- Node6 -->
<g id="Node000006" class="node">
<title>Node6</title>
<g id="a_Node000006"><a xlink:href="class_p4_1_1_p4_c_context_with_options.html" target="_top" xlink:title=" ">
<polygon fill="white" stroke="#666666" points="607,-510 455,-510 455,-480 607,-480 607,-510"/>
<text text-anchor="start" x="463" y="-498" font-family="Helvetica,sans-Serif" font-size="10.00">P4::P4CContextWithOptions</text>
<text text-anchor="middle" x="531" y="-487" font-family="Helvetica,sans-Serif" font-size="10.00">&lt; PsaSwitchOptions &gt;</text>
</a>
</g>
</g>
<!-- Node1&#45;&gt;Node6 -->
<g id="edge5_Node000001_Node000006" class="edge">
<title>Node1&#45;&gt;Node6</title>
<g id="a_edge5_Node000001_Node000006"><a xlink:title=" ">
<path fill="none" stroke="#63b8ff" d="M376.04,-322.51C384.27,-357.43 406.32,-430.73 453,-471 457.03,-474.48 461.56,-477.45 466.35,-479.99"/>
<polygon fill="#63b8ff" stroke="#63b8ff" points="379.42,-321.61 373.83,-312.61 372.59,-323.13 379.42,-321.61"/>
</a>
</g>
</g>
<!-- Node7 -->
<g id="Node000007" class="node">
<title>Node7</title>
<g id="a_Node000007"><a xlink:href="class_p4_1_1_p4_c_context_with_options.html" target="_top" xlink:title=" ">
<polygon fill="white" stroke="#666666" points="607,-462 455,-462 455,-432 607,-432 607,-462"/>
<text text-anchor="start" x="463" y="-450" font-family="Helvetica,sans-Serif" font-size="10.00">P4::P4CContextWithOptions</text>
<text text-anchor="middle" x="531" y="-439" font-family="Helvetica,sans-Serif" font-size="10.00">&lt; SimpleSwitchOptions &gt;</text>
</a>
</g>
</g>
<!-- Node1&#45;&gt;Node7 -->
<g id="edge6_Node000001_Node000007" class="edge">
<title>Node1&#45;&gt;Node7</title>
<g id="a_edge6_Node000001_Node000007"><a xlink:title=" ">
<path fill="none" stroke="#63b8ff" d="M379.91,-322.05C391.87,-348.54 417.04,-396.25 453,-423 457.61,-426.43 462.71,-429.37 468.04,-431.9"/>
<polygon fill="#63b8ff" stroke="#63b8ff" points="383.05,-320.49 375.85,-312.72 376.63,-323.29 383.05,-320.49"/>
</a>
</g>
</g>
<!-- Node8 -->
<g id="Node000008" class="node">
<title>Node8</title>
<g id="a_Node000008"><a xlink:href="class_p4_1_1_p4_c_context_with_options.html" target="_top" xlink:title=" ">
<polygon fill="white" stroke="#666666" points="607,-414 455,-414 455,-384 607,-384 607,-414"/>
<text text-anchor="start" x="463" y="-402" font-family="Helvetica,sans-Serif" font-size="10.00">P4::P4CContextWithOptions</text>
<text text-anchor="middle" x="531" y="-391" font-family="Helvetica,sans-Serif" font-size="10.00">&lt; DpdkOptions &gt;</text>
</a>
</g>
</g>
<!-- Node1&#45;&gt;Node8 -->
<g id="edge7_Node000001_Node000008" class="edge">
<title>Node1&#45;&gt;Node8</title>
<g id="a_edge7_Node000001_Node000008"><a xlink:title=" ">
<path fill="none" stroke="#63b8ff" d="M387.52,-320.55C402.74,-336.77 427.33,-360.5 453,-375 458.97,-378.38 465.48,-381.34 472.1,-383.92"/>
<polygon fill="#63b8ff" stroke="#63b8ff" points="389.8,-317.85 380.47,-312.84 384.64,-322.58 389.8,-317.85"/>
</a>
</g>
</g>
<!-- Node9 -->
<g id="Node000009" class="node">
<title>Node9</title>
<g id="a_Node000009"><a xlink:href="class_p4_1_1_p4_c_context_with_options.html" target="_top" xlink:title=" ">
<polygon fill="white" stroke="#666666" points="607,-366 455,-366 455,-336 607,-336 607,-366"/>
<text text-anchor="start" x="463" y="-354" font-family="Helvetica,sans-Serif" font-size="10.00">P4::P4CContextWithOptions</text>
<text text-anchor="middle" x="531" y="-343" font-family="Helvetica,sans-Serif" font-size="10.00">&lt; EbpfOptions &gt;</text>
</a>
</g>
</g>
<!-- Node1&#45;&gt;Node9 -->
<g id="edge8_Node000001_Node000009" class="edge">
<title>Node1&#45;&gt;Node9</title>
<g id="a_edge8_Node000001_Node000009"><a xlink:title=" ">
<path fill="none" stroke="#63b8ff" d="M413.29,-315.54C433.84,-321.79 458.84,-329.38 480.42,-335.94"/>
<polygon fill="#63b8ff" stroke="#63b8ff" points="414.18,-312.16 403.59,-312.6 412.14,-318.85 414.18,-312.16"/>
</a>
</g>
</g>
<!-- Node10 -->
<g id="Node000010" class="node">
<title>Node10</title>
<g id="a_Node000010"><a xlink:href="class_p4_1_1_p4_c_context_with_options.html" target="_top" xlink:title=" ">
<polygon fill="white" stroke="#666666" points="607,-318 455,-318 455,-288 607,-288 607,-318"/>
<text text-anchor="start" x="463" y="-306" font-family="Helvetica,sans-Serif" font-size="10.00">P4::P4CContextWithOptions</text>
<text text-anchor="middle" x="531" y="-295" font-family="Helvetica,sans-Serif" font-size="10.00">&lt; Options &gt;</text>
</a>
</g>
</g>
<!-- Node1&#45;&gt;Node10 -->
<g id="edge9_Node000001_Node000010" class="edge">
<title>Node1&#45;&gt;Node10</title>
<g id="a_edge9_Node000001_Node000010"><a xlink:title=" ">
<path fill="none" stroke="#63b8ff" d="M427.46,-303C436.34,-303 445.65,-303 454.89,-303"/>
<polygon fill="#63b8ff" stroke="#63b8ff" points="427.28,-299.5 417.28,-303 427.28,-306.5 427.28,-299.5"/>
</a>
</g>
</g>
<!-- Node11 -->
<g id="Node000011" class="node">
<title>Node11</title>
<g id="a_Node000011"><a xlink:href="class_p4_1_1_p4_c_context_with_options.html" target="_top" xlink:title=" ">
<polygon fill="white" stroke="#666666" points="607,-270 455,-270 455,-240 607,-240 607,-270"/>
<text text-anchor="start" x="463" y="-258" font-family="Helvetica,sans-Serif" font-size="10.00">P4::P4CContextWithOptions</text>
<text text-anchor="middle" x="531" y="-247" font-family="Helvetica,sans-Serif" font-size="10.00">&lt; P4fmtOptions &gt;</text>
</a>
</g>
</g>
<!-- Node1&#45;&gt;Node11 -->
<g id="edge10_Node000001_Node000011" class="edge">
<title>Node1&#45;&gt;Node11</title>
<g id="a_edge10_Node000001_Node000011"><a xlink:title=" ">
<path fill="none" stroke="#63b8ff" d="M413.29,-290.46C433.84,-284.21 458.84,-276.62 480.42,-270.06"/>
<polygon fill="#63b8ff" stroke="#63b8ff" points="412.14,-287.15 403.59,-293.4 414.18,-293.84 412.14,-287.15"/>
</a>
</g>
</g>
<!-- Node12 -->
<g id="Node000012" class="node">
<title>Node12</title>
<g id="a_Node000012"><a xlink:href="class_p4_1_1_p4_c_context_with_options.html" target="_top" xlink:title=" ">
<polygon fill="white" stroke="#666666" points="607,-222 455,-222 455,-192 607,-192 607,-222"/>
<text text-anchor="start" x="463" y="-210" font-family="Helvetica,sans-Serif" font-size="10.00">P4::P4CContextWithOptions</text>
<text text-anchor="middle" x="531" y="-199" font-family="Helvetica,sans-Serif" font-size="10.00">&lt; TCOptions &gt;</text>
</a>
</g>
</g>
<!-- Node1&#45;&gt;Node12 -->
<g id="edge11_Node000001_Node000012" class="edge">
<title>Node1&#45;&gt;Node12</title>
<g id="a_edge11_Node000001_Node000012"><a xlink:title=" ">
<path fill="none" stroke="#63b8ff" d="M387.52,-285.45C402.74,-269.23 427.33,-245.5 453,-231 458.97,-227.62 465.48,-224.66 472.1,-222.08"/>
<polygon fill="#63b8ff" stroke="#63b8ff" points="384.64,-283.42 380.47,-293.16 389.8,-288.15 384.64,-283.42"/>
</a>
</g>
</g>
<!-- Node13 -->
<g id="Node000013" class="node">
<title>Node13</title>
<g id="a_Node000013"><a xlink:href="class_p4_1_1_p4_tools_1_1_compile_context.html" target="_top" xlink:title=" ">
<polygon fill="white" stroke="#666666" points="609,-174 453,-174 453,-144 609,-144 609,-174"/>
<text text-anchor="start" x="461" y="-162" font-family="Helvetica,sans-Serif" font-size="10.00">P4::P4Tools::CompileContext</text>
<text text-anchor="middle" x="531" y="-151" font-family="Helvetica,sans-Serif" font-size="10.00">&lt; P4TestOptions &gt;</text>
</a>
</g>
</g>
<!-- Node1&#45;&gt;Node13 -->
<g id="edge12_Node000001_Node000013" class="edge">
<title>Node1&#45;&gt;Node13</title>
<g id="a_edge12_Node000001_Node000013"><a xlink:title=" ">
<path fill="none" stroke="#63b8ff" d="M379.91,-283.95C391.87,-257.46 417.04,-209.75 453,-183 457.61,-179.57 462.71,-176.63 468.04,-174.1"/>
<polygon fill="#63b8ff" stroke="#63b8ff" points="376.63,-282.71 375.85,-293.28 383.05,-285.51 376.63,-282.71"/>
</a>
</g>
</g>
<!-- Node14 -->
<g id="Node000014" class="node">
<title>Node14</title>
<g id="a_Node000014"><a xlink:href="class_p4_1_1_p4_tools_1_1_compile_context.html" target="_top" xlink:title=" ">
<polygon fill="white" stroke="#666666" points="609,-126 453,-126 453,-96 609,-96 609,-126"/>
<text text-anchor="start" x="461" y="-114" font-family="Helvetica,sans-Serif" font-size="10.00">P4::P4Tools::CompileContext</text>
<text text-anchor="middle" x="531" y="-103" font-family="Helvetica,sans-Serif" font-size="10.00">&lt; P4ReachabilityOptions &gt;</text>
</a>
</g>
</g>
<!-- Node1&#45;&gt;Node14 -->
<g id="edge13_Node000001_Node000014" class="edge">
<title>Node1&#45;&gt;Node14</title>
<g id="a_edge13_Node000001_Node000014"><a xlink:title=" ">
<path fill="none" stroke="#63b8ff" d="M376.04,-283.49C384.27,-248.57 406.32,-175.27 453,-135 457.03,-131.52 461.56,-128.55 466.35,-126.01"/>
<polygon fill="#63b8ff" stroke="#63b8ff" points="372.59,-282.87 373.83,-293.39 379.42,-284.39 372.59,-282.87"/>
</a>
</g>
</g>
<!-- Node15 -->
<g id="Node000015" class="node">
<title>Node15</title>
<g id="a_Node000015"><a xlink:href="class_p4_1_1_p4_c_context_with_options.html" target="_top" xlink:title=" ">
<polygon fill="white" stroke="#666666" points="607,-78 455,-78 455,-48 607,-48 607,-78"/>
<text text-anchor="start" x="463" y="-66" font-family="Helvetica,sans-Serif" font-size="10.00">P4::P4CContextWithOptions</text>
<text text-anchor="middle" x="531" y="-55" font-family="Helvetica,sans-Serif" font-size="10.00">&lt; OptionsType &gt;</text>
</a>
</g>
</g>
<!-- Node1&#45;&gt;Node15 -->
<g id="edge14_Node000001_Node000015" class="edge">
<title>Node1&#45;&gt;Node15</title>
<g id="a_edge14_Node000001_Node000015"><a xlink:title=" ">
<path fill="none" stroke="#63b8ff" d="M373.72,-283.06C378.45,-240.75 395.4,-141.42 453,-87 456.66,-83.54 460.82,-80.57 465.26,-78.04"/>
<polygon fill="#63b8ff" stroke="#63b8ff" points="370.22,-282.88 372.71,-293.18 377.19,-283.58 370.22,-282.88"/>
</a>
</g>
</g>
<!-- Node16 -->
<g id="Node000016" class="node">
<title>Node16</title>
<g id="a_Node000016"><a xlink:href="class_p4_1_1_p4_tools_1_1_compile_context.html" target="_top" xlink:title="A compilation context for P4Tools that provides a custom compiler configuration.">
<polygon fill="white" stroke="#666666" points="609,-30 453,-30 453,0 609,0 609,-30"/>
<text text-anchor="start" x="461" y="-18" font-family="Helvetica,sans-Serif" font-size="10.00">P4::P4Tools::CompileContext</text>
<text text-anchor="middle" x="531" y="-7" font-family="Helvetica,sans-Serif" font-size="10.00">&lt; OptionsType &gt;</text>
</a>
</g>
</g>
<!-- Node1&#45;&gt;Node16 -->
<g id="edge15_Node000001_Node000016" class="edge">
<title>Node1&#45;&gt;Node16</title>
<g id="a_edge15_Node000001_Node000016"><a xlink:title=" ">
<path fill="none" stroke="#63b8ff" d="M372.12,-283.42C373.52,-234.97 383.95,-108.36 453,-39 456.46,-35.53 460.41,-32.55 464.65,-30.01"/>
<polygon fill="#63b8ff" stroke="#63b8ff" points="368.62,-283.44 371.94,-293.5 375.62,-283.57 368.62,-283.44"/>
</a>
</g>
</g>
<!-- Node2 -->
<g id="Node000002" class="node">
<title>Node2</title>
<g id="a_Node000002"><a xlink:href="class_p4_1_1_base_compile_context.html" target="_top" xlink:title=" ">
<polygon fill="white" stroke="#666666" points="289,-312.5 152,-312.5 152,-293.5 289,-293.5 289,-312.5"/>
<text text-anchor="middle" x="220.5" y="-300.5" font-family="Helvetica,sans-Serif" font-size="10.00">P4::BaseCompileContext</text>
</a>
</g>
</g>
<!-- Node2&#45;&gt;Node1 -->
<g id="edge1_Node000001_Node000002" class="edge">
<title>Node2&#45;&gt;Node1</title>
<g id="a_edge1_Node000001_Node000002"><a xlink:title=" ">
<path fill="none" stroke="#63b8ff" d="M299.46,-303C308.16,-303 316.8,-303 324.89,-303"/>
<polygon fill="#63b8ff" stroke="#63b8ff" points="299.23,-299.5 289.23,-303 299.23,-306.5 299.23,-299.5"/>
</a>
</g>
</g>
<!-- Node3 -->
<g id="Node000003" class="node">
<title>Node3</title>
<g id="a_Node000003"><a xlink:href="class_p4_1_1_i_compile_context.html" target="_top" xlink:title=" ">
<polygon fill="white" stroke="#666666" points="116,-312.5 0,-312.5 0,-293.5 116,-293.5 116,-312.5"/>
<text text-anchor="middle" x="58" y="-300.5" font-family="Helvetica,sans-Serif" font-size="10.00">P4::ICompileContext</text>
</a>
</g>
</g>
<!-- Node3&#45;&gt;Node2 -->
<g id="edge2_Node000002_Node000003" class="edge">
<title>Node3&#45;&gt;Node2</title>
<g id="a_edge2_Node000002_Node000003"><a xlink:title=" ">
<path fill="none" stroke="#63b8ff" d="M126.27,-303C134.76,-303 143.45,-303 151.94,-303"/>
<polygon fill="#63b8ff" stroke="#63b8ff" points="126.04,-299.5 116.04,-303 126.04,-306.5 126.04,-299.5"/>
</a>
</g>
</g>
</g>
</svg>
