<?xml version="1.0" encoding="UTF-8" standalone="no"?>
<!DOCTYPE svg PUBLIC "-//W3C//DTD SVG 1.1//EN"
 "http://www.w3.org/Graphics/SVG/1.1/DTD/svg11.dtd">
<!-- Generated by graphviz version 2.43.0 (0)
 -->
<!-- Title: Graphical Class Hierarchy Pages: 1 -->
<svg width="342pt" height="98pt"
 viewBox="0.00 0.00 342.00 97.50" xmlns="http://www.w3.org/2000/svg" xmlns:xlink="http://www.w3.org/1999/xlink">
<g id="graph0" class="graph" transform="scale(1 1) rotate(0) translate(4 93.5)">
<title>Graphical Class Hierarchy</title>
<!-- Node0 -->
<g id="Node000000" class="node">
<title>Node0</title>
<g id="a_Node000000"><a xlink:href="class_b_f_n_1_1_alloc1_dbase.html" target="_top" xlink:title=" ">
<polygon fill="white" stroke="#666666" points="139,-51.5 0,-51.5 0,-32.5 139,-32.5 139,-51.5"/>
<text text-anchor="middle" x="69.5" y="-39.5" font-family="Helvetica,sans-Serif" font-size="10.00">BFN::Alloc1Dbase&lt; int &gt;</text>
</a>
</g>
</g>
<!-- Node1 -->
<g id="Node000001" class="node">
<title>Node1</title>
<g id="a_Node000001"><a xlink:href="class_b_f_n_1_1_alloc1_d.html" target="_top" xlink:title=" ">
<polygon fill="white" stroke="#666666" points="318,-89.5 191,-89.5 191,-48.5 318,-48.5 318,-89.5"/>
<text text-anchor="start" x="199" y="-77.5" font-family="Helvetica,sans-Serif" font-size="10.00">BFN::Alloc1D&lt; int,</text>
<text text-anchor="start" x="199" y="-66.5" font-family="Helvetica,sans-Serif" font-size="10.00"> LOGICAL_TABLES_PER</text>
<text text-anchor="middle" x="254.5" y="-55.5" font-family="Helvetica,sans-Serif" font-size="10.00">_STAGE &gt;</text>
</a>
</g>
</g>
<!-- Node0&#45;&gt;Node1 -->
<g id="edge23_Node000000_Node000001" class="edge">
<title>Node0&#45;&gt;Node1</title>
<g id="a_edge23_Node000000_Node000001"><a xlink:title=" ">
<path fill="none" stroke="#63b8ff" d="M144.91,-52.98C160.14,-55.23 176.03,-57.57 190.79,-59.75"/>
<polygon fill="#63b8ff" stroke="#63b8ff" points="145.42,-49.52 135.02,-51.52 144.4,-56.44 145.42,-49.52"/>
</a>
</g>
</g>
<!-- Node2 -->
<g id="Node000002" class="node">
<title>Node2</title>
<g id="a_Node000002"><a xlink:href="class_b_f_n_1_1_alloc1_d.html" target="_top" xlink:title=" ">
<polygon fill="white" stroke="#666666" points="334,-30 175,-30 175,0 334,0 334,-30"/>
<text text-anchor="start" x="183" y="-18" font-family="Helvetica,sans-Serif" font-size="10.00">BFN::Alloc1D&lt; int,</text>
<text text-anchor="middle" x="254.5" y="-7" font-family="Helvetica,sans-Serif" font-size="10.00"> MAX_LONGBRANCH_TAGS &gt;</text>
</a>
</g>
</g>
<!-- Node0&#45;&gt;Node2 -->
<g id="edge24_Node000000_Node000002" class="edge">
<title>Node0&#45;&gt;Node2</title>
<g id="a_edge24_Node000000_Node000002"><a xlink:title=" ">
<path fill="none" stroke="#63b8ff" d="M145.1,-30.99C154.89,-29.55 164.95,-28.06 174.8,-26.61"/>
<polygon fill="#63b8ff" stroke="#63b8ff" points="144.4,-27.56 135.02,-32.48 145.42,-34.48 144.4,-27.56"/>
</a>
</g>
</g>
</g>
</svg>
