<?xml version="1.0" encoding="UTF-8" standalone="no"?>
<!DOCTYPE svg PUBLIC "-//W3C//DTD SVG 1.1//EN"
 "http://www.w3.org/Graphics/SVG/1.1/DTD/svg11.dtd">
<!-- Generated by graphviz version 2.43.0 (0)
 -->
<!-- Title: Graphical Class Hierarchy Pages: 1 -->
<svg width="349pt" height="98pt"
 viewBox="0.00 0.00 349.00 97.50" xmlns="http://www.w3.org/2000/svg" xmlns:xlink="http://www.w3.org/1999/xlink">
<g id="graph0" class="graph" transform="scale(1 1) rotate(0) translate(4 93.5)">
<title>Graphical Class Hierarchy</title>
<!-- Node0 -->
<g id="Node000000" class="node">
<title>Node0</title>
<g id="a_Node000000"><a xlink:href="class_b_f_n_1_1_alloc2_dbase.html" target="_top" xlink:title=" ">
<polygon fill="white" stroke="#666666" points="160,-57 0,-57 0,-38 160,-38 160,-57"/>
<text text-anchor="middle" x="80" y="-45" font-family="Helvetica,sans-Serif" font-size="10.00">BFN::Alloc2Dbase&lt; Table * &gt;</text>
</a>
</g>
</g>
<!-- Node1 -->
<g id="Node000001" class="node">
<title>Node1</title>
<g id="a_Node000001"><a xlink:href="class_b_f_n_1_1_alloc2_d.html" target="_top" xlink:title=" ">
<polygon fill="white" stroke="#666666" points="327.5,-89.5 209.5,-89.5 209.5,-59.5 327.5,-59.5 327.5,-89.5"/>
<text text-anchor="start" x="217.5" y="-77.5" font-family="Helvetica,sans-Serif" font-size="10.00">BFN::Alloc2D&lt; Table</text>
<text text-anchor="middle" x="268.5" y="-66.5" font-family="Helvetica,sans-Serif" font-size="10.00"> *, SRAM_ROWS, 2 &gt;</text>
</a>
</g>
</g>
<!-- Node0&#45;&gt;Node1 -->
<g id="edge67_Node000000_Node000001" class="edge">
<title>Node0&#45;&gt;Node1</title>
<g id="a_edge67_Node000000_Node000001"><a xlink:title=" ">
<path fill="none" stroke="#63b8ff" d="M156.96,-58.5C174.48,-61.03 192.85,-63.69 209.47,-66.1"/>
<polygon fill="#63b8ff" stroke="#63b8ff" points="157.15,-54.99 146.75,-57.02 156.15,-61.92 157.15,-54.99"/>
</a>
</g>
</g>
<!-- Node2 -->
<g id="Node000002" class="node">
<title>Node2</title>
<g id="a_Node000002"><a xlink:href="class_b_f_n_1_1_alloc2_d.html" target="_top" xlink:title=" ">
<polygon fill="white" stroke="#666666" points="341,-41 196,-41 196,0 341,0 341,-41"/>
<text text-anchor="start" x="204" y="-29" font-family="Helvetica,sans-Serif" font-size="10.00">BFN::Alloc2D&lt; Table</text>
<text text-anchor="start" x="204" y="-18" font-family="Helvetica,sans-Serif" font-size="10.00"> *, SRAM_ROWS, MAPRAM</text>
<text text-anchor="middle" x="268.5" y="-7" font-family="Helvetica,sans-Serif" font-size="10.00">_UNITS_PER_ROW &gt;</text>
</a>
</g>
</g>
<!-- Node0&#45;&gt;Node2 -->
<g id="edge68_Node000000_Node000002" class="edge">
<title>Node0&#45;&gt;Node2</title>
<g id="a_edge68_Node000000_Node000002"><a xlink:title=" ">
<path fill="none" stroke="#63b8ff" d="M156.91,-36.51C169.72,-34.66 182.98,-32.74 195.68,-30.9"/>
<polygon fill="#63b8ff" stroke="#63b8ff" points="156.15,-33.08 146.75,-37.98 157.15,-40.01 156.15,-33.08"/>
</a>
</g>
</g>
</g>
</svg>
