<?xml version="1.0" encoding="UTF-8" standalone="no"?>
<!DOCTYPE svg PUBLIC "-//W3C//DTD SVG 1.1//EN"
 "http://www.w3.org/Graphics/SVG/1.1/DTD/svg11.dtd">
<!-- Generated by graphviz version 2.43.0 (0)
 -->
<!-- Title: P4::EBPF::EBPFDeparserPSA Pages: 1 -->
<!--zoomable 138 -->

<svg id="main" version="1.1" xmlns="http://www.w3.org/2000/svg" xmlns:xlink="http://www.w3.org/1999/xlink" xml:space="preserve" onload="init(evt)">

<style type="text/css"><![CDATA[
.node, .edge {opacity: 0.7;}
.node.selected, .edge.selected {opacity: 1;}
.edge:hover path { stroke: red; }
.edge:hover polygon { stroke: red; fill: red; }
]]></style>

<defs>
  <circle id="rim" cx="0" cy="0" r="7"/>
  <circle id="rim2" cx="0" cy="0" r="3.5"/>
  <g id="zoomPlus">
    <use xlink:href="#rim" fill="#404040"><set attributeName="fill" to="#808080" begin="zoomplus.mouseover" end="zoomplus.mouseout"/></use>
    <path d="M-4,0h8M0,-4v8" fill="none" stroke="white" stroke-width="1.5" pointer-events="none"/>
  </g>
  <g id="zoomMin">
    <use xlink:href="#rim" fill="#404040"><set attributeName="fill" to="#808080" begin="zoomminus.mouseover" end="zoomminus.mouseout"/></use>
    <path d="M-4,0h8" fill="none" stroke="white" stroke-width="1.5" pointer-events="none"/>
  </g>
  <g id="arrowUp" transform="translate(30 24)">
    <use xlink:href="#rim"/>
    <path pointer-events="none" fill="none" stroke="white" stroke-width="1.5" d="M0,-3.0v7 M-2.5,-0.5L0,-3.0L2.5,-0.5"/>
  </g>
  <g id="arrowRight" transform="rotate(90) translate(36 -43)">
    <use xlink:href="#rim"/>
    <path pointer-events="none" fill="none" stroke="white" stroke-width="1.5" d="M0,-3.0v7 M-2.5,-0.5L0,-3.0L2.5,-0.5"/>
  </g>
  <g id="arrowDown" transform="rotate(180) translate(-30 -48)">
    <use xlink:href="#rim"/>
    <path pointer-events="none" fill="none" stroke="white" stroke-width="1.5" d="M0,-3.0v7 M-2.5,-0.5L0,-3.0L2.5,-0.5"/>
  </g>
  <g id="arrowLeft" transform="rotate(270) translate(-36 17)">
    <use xlink:href="#rim"/>
    <path pointer-events="none" fill="none" stroke="white" stroke-width="1.5" d="M0,-3.0v7 M-2.5,-0.5L0,-3.0L2.5,-0.5"/>
  </g>
  <g id="resetDef">
    <use xlink:href="#rim2" fill="#404040"><set attributeName="fill" to="#808080" begin="reset.mouseover" end="reset.mouseout"/></use>
  </g>
</defs>
<script type="application/ecmascript">
var viewWidth = 1499;
var viewHeight = 138;
var sectionId = 'dynsection-0';
</script>
<script type="application/ecmascript" xlink:href="svg.min.js"/>
<svg id="graph" class="graph">
<g id="viewport">
<title>P4::EBPF::EBPFDeparserPSA</title>
<!-- Node1 -->
<g id="Node000001" class="node">
<title>Node1</title>
<g id="a_Node000001"><a xlink:title=" ">
<polygon fill="#999999" stroke="#666666" points="879,-56 726,-56 726,-37 879,-37 879,-56"/>
<text text-anchor="middle" x="802.5" y="-44" font-family="Helvetica,sans-Serif" font-size="10.00">P4::EBPF::EBPFDeparserPSA</text>
</a>
</g>
</g>
<!-- Node7 -->
<g id="Node000007" class="node">
<title>Node7</title>
<g id="a_Node000007"><a xlink:href="class_p4_1_1_e_b_p_f_1_1_egress_deparser_p_s_a.html" target="_top" xlink:title=" ">
<polygon fill="white" stroke="#bfbfbf" points="1077.5,-93 916.5,-93 916.5,-74 1077.5,-74 1077.5,-93"/>
<text text-anchor="middle" x="997" y="-81" font-family="Helvetica,sans-Serif" font-size="10.00">P4::EBPF::EgressDeparserPSA</text>
</a>
</g>
</g>
<!-- Node1&#45;&gt;Node7 -->
<g id="edge6_Node000001_Node000007" class="edge">
<title>Node1&#45;&gt;Node7</title>
<g id="a_edge6_Node000001_Node000007"><a xlink:title=" ">
<path fill="none" stroke="#63b8ff" d="M863.06,-57.95C889.74,-63.08 920.85,-69.06 946.26,-73.94"/>
<polygon fill="#63b8ff" stroke="#63b8ff" points="863.55,-54.48 853.07,-56.03 862.23,-61.35 863.55,-54.48"/>
</a>
</g>
</g>
<!-- Node10 -->
<g id="Node000010" class="node">
<title>Node10</title>
<g id="a_Node000010"><a xlink:href="class_p4_1_1_e_b_p_f_1_1_ingress_deparser_p_s_a.html" target="_top" xlink:title=" ">
<polygon fill="white" stroke="#bfbfbf" points="1079,-56 915,-56 915,-37 1079,-37 1079,-56"/>
<text text-anchor="middle" x="997" y="-44" font-family="Helvetica,sans-Serif" font-size="10.00">P4::EBPF::IngressDeparserPSA</text>
</a>
</g>
</g>
<!-- Node1&#45;&gt;Node10 -->
<g id="edge9_Node000001_Node000010" class="edge">
<title>Node1&#45;&gt;Node10</title>
<g id="a_edge9_Node000001_Node000010"><a xlink:title=" ">
<path fill="none" stroke="#63b8ff" d="M889.07,-46.5C897.68,-46.5 906.41,-46.5 914.97,-46.5"/>
<polygon fill="#63b8ff" stroke="#63b8ff" points="889.03,-43 879.03,-46.5 889.03,-50 889.03,-43"/>
</a>
</g>
</g>
<!-- Node14 -->
<g id="Node000014" class="node">
<title>Node14</title>
<g id="a_Node000014"><a xlink:href="class_p4_1_1_t_c_1_1_ingress_deparser_p_n_a.html" target="_top" xlink:title=" ">
<polygon fill="white" stroke="#bfbfbf" points="1073,-19 921,-19 921,0 1073,0 1073,-19"/>
<text text-anchor="middle" x="997" y="-7" font-family="Helvetica,sans-Serif" font-size="10.00">P4::TC::IngressDeparserPNA</text>
</a>
</g>
</g>
<!-- Node1&#45;&gt;Node14 -->
<g id="edge13_Node000001_Node000014" class="edge">
<title>Node1&#45;&gt;Node14</title>
<g id="a_edge13_Node000001_Node000014"><a xlink:title=" ">
<path fill="none" stroke="#63b8ff" d="M863.06,-35.05C889.74,-29.92 920.85,-23.94 946.26,-19.06"/>
<polygon fill="#63b8ff" stroke="#63b8ff" points="862.23,-31.65 853.07,-36.97 863.55,-38.52 862.23,-31.65"/>
</a>
</g>
</g>
<!-- Node2 -->
<g id="Node000002" class="node">
<title>Node2</title>
<g id="a_Node000002"><a xlink:href="class_p4_1_1_e_b_p_f_1_1_e_b_p_f_deparser.html" target="_top" xlink:title=" ">
<polygon fill="white" stroke="#bfbfbf" points="690,-56 556,-56 556,-37 690,-37 690,-56"/>
<text text-anchor="middle" x="623" y="-44" font-family="Helvetica,sans-Serif" font-size="10.00">P4::EBPF::EBPFDeparser</text>
</a>
</g>
</g>
<!-- Node2&#45;&gt;Node1 -->
<g id="edge1_Node000001_Node000002" class="edge">
<title>Node2&#45;&gt;Node1</title>
<g id="a_edge1_Node000001_Node000002"><a xlink:title=" ">
<path fill="none" stroke="#63b8ff" d="M700.3,-46.5C708.74,-46.5 717.34,-46.5 725.78,-46.5"/>
<polygon fill="#63b8ff" stroke="#63b8ff" points="700.09,-43 690.09,-46.5 700.09,-50 700.09,-43"/>
</a>
</g>
</g>
<!-- Node3 -->
<g id="Node000003" class="node">
<title>Node3</title>
<g id="a_Node000003"><a xlink:href="class_p4_1_1_e_b_p_f_1_1_e_b_p_f_control.html" target="_top" xlink:title=" ">
<polygon fill="white" stroke="#bfbfbf" points="520,-56 395,-56 395,-37 520,-37 520,-56"/>
<text text-anchor="middle" x="457.5" y="-44" font-family="Helvetica,sans-Serif" font-size="10.00">P4::EBPF::EBPFControl</text>
</a>
</g>
</g>
<!-- Node3&#45;&gt;Node2 -->
<g id="edge2_Node000002_Node000003" class="edge">
<title>Node3&#45;&gt;Node2</title>
<g id="a_edge2_Node000002_Node000003"><a xlink:title=" ">
<path fill="none" stroke="#63b8ff" d="M530.47,-46.5C538.87,-46.5 547.41,-46.5 555.73,-46.5"/>
<polygon fill="#63b8ff" stroke="#63b8ff" points="530.31,-43 520.31,-46.5 530.31,-50 530.31,-43"/>
</a>
</g>
</g>
<!-- Node4 -->
<g id="Node000004" class="node">
<title>Node4</title>
<g id="a_Node000004"><a xlink:href="class_p4_1_1_e_b_p_f_1_1_e_b_p_f_object.html" target="_top" xlink:title="Base class for EBPF objects.">
<polygon fill="white" stroke="#666666" points="359,-56 238,-56 238,-37 359,-37 359,-56"/>
<text text-anchor="middle" x="298.5" y="-44" font-family="Helvetica,sans-Serif" font-size="10.00">P4::EBPF::EBPFObject</text>
</a>
</g>
</g>
<!-- Node4&#45;&gt;Node3 -->
<g id="edge3_Node000003_Node000004" class="edge">
<title>Node4&#45;&gt;Node3</title>
<g id="a_edge3_Node000003_Node000004"><a xlink:title=" ">
<path fill="none" stroke="#63b8ff" d="M369.49,-46.5C377.92,-46.5 386.48,-46.5 394.78,-46.5"/>
<polygon fill="#63b8ff" stroke="#63b8ff" points="369.3,-43 359.3,-46.5 369.3,-50 369.3,-43"/>
</a>
</g>
</g>
<!-- Node5 -->
<g id="Node000005" class="node">
<title>Node5</title>
<g id="a_Node000005"><a xlink:href="class_p4_1_1_i_castable.html" target="_top" xlink:title=" ">
<polygon fill="white" stroke="#666666" points="202,-56 122,-56 122,-37 202,-37 202,-56"/>
<text text-anchor="middle" x="162" y="-44" font-family="Helvetica,sans-Serif" font-size="10.00">P4::ICastable</text>
</a>
</g>
</g>
<!-- Node5&#45;&gt;Node4 -->
<g id="edge4_Node000004_Node000005" class="edge">
<title>Node5&#45;&gt;Node4</title>
<g id="a_edge4_Node000004_Node000005"><a xlink:title=" ">
<path fill="none" stroke="#63b8ff" d="M212.5,-46.5C220.77,-46.5 229.44,-46.5 237.93,-46.5"/>
<polygon fill="#63b8ff" stroke="#63b8ff" points="212.26,-43 202.26,-46.5 212.26,-50 212.26,-43"/>
</a>
</g>
</g>
<!-- Node6 -->
<g id="Node000006" class="node">
<title>Node6</title>
<g id="a_Node000006"><a xlink:href="struct_p4_1_1_r_t_t_i_1_1_base.html" target="_top" xlink:title=" ">
<polygon fill="white" stroke="#bfbfbf" points="86,-56 0,-56 0,-37 86,-37 86,-56"/>
<text text-anchor="middle" x="43" y="-44" font-family="Helvetica,sans-Serif" font-size="10.00">P4::RTTI::Base</text>
</a>
</g>
</g>
<!-- Node6&#45;&gt;Node5 -->
<g id="edge5_Node000005_Node000006" class="edge">
<title>Node6&#45;&gt;Node5</title>
<g id="a_edge5_Node000005_Node000006"><a xlink:title=" ">
<path fill="none" stroke="#63b8ff" d="M96.25,-46.5C104.88,-46.5 113.7,-46.5 121.94,-46.5"/>
<polygon fill="#63b8ff" stroke="#63b8ff" points="96.24,-43 86.24,-46.5 96.24,-50 96.24,-43"/>
</a>
</g>
</g>
<!-- Node8 -->
<g id="Node000008" class="node">
<title>Node8</title>
<g id="a_Node000008"><a xlink:href="class_p4_1_1_e_b_p_f_1_1_t_c_egress_deparser_p_s_a.html" target="_top" xlink:title=" ">
<polygon fill="white" stroke="#bfbfbf" points="1293.5,-130 1120.5,-130 1120.5,-111 1293.5,-111 1293.5,-130"/>
<text text-anchor="middle" x="1207" y="-118" font-family="Helvetica,sans-Serif" font-size="10.00">P4::EBPF::TCEgressDeparserPSA</text>
</a>
</g>
</g>
<!-- Node7&#45;&gt;Node8 -->
<g id="edge7_Node000007_Node000008" class="edge">
<title>Node7&#45;&gt;Node8</title>
<g id="a_edge7_Node000007_Node000008"><a xlink:title=" ">
<path fill="none" stroke="#63b8ff" d="M1061.6,-94.81C1090.6,-99.97 1124.56,-106.01 1152.26,-110.94"/>
<polygon fill="#63b8ff" stroke="#63b8ff" points="1062.02,-91.33 1051.57,-93.03 1060.8,-98.23 1062.02,-91.33"/>
</a>
</g>
</g>
<!-- Node9 -->
<g id="Node000009" class="node">
<title>Node9</title>
<g id="a_Node000009"><a xlink:href="class_p4_1_1_e_b_p_f_1_1_x_d_p_egress_deparser_p_s_a.html" target="_top" xlink:title=" ">
<polygon fill="white" stroke="#bfbfbf" points="1297.5,-93 1116.5,-93 1116.5,-74 1297.5,-74 1297.5,-93"/>
<text text-anchor="middle" x="1207" y="-81" font-family="Helvetica,sans-Serif" font-size="10.00">P4::EBPF::XDPEgressDeparserPSA</text>
</a>
</g>
</g>
<!-- Node7&#45;&gt;Node9 -->
<g id="edge8_Node000007_Node000009" class="edge">
<title>Node7&#45;&gt;Node9</title>
<g id="a_edge8_Node000007_Node000009"><a xlink:title=" ">
<path fill="none" stroke="#63b8ff" d="M1087.76,-83.5C1097.27,-83.5 1106.94,-83.5 1116.45,-83.5"/>
<polygon fill="#63b8ff" stroke="#63b8ff" points="1087.53,-80 1077.53,-83.5 1087.53,-87 1087.53,-80"/>
</a>
</g>
</g>
<!-- Node11 -->
<g id="Node000011" class="node">
<title>Node11</title>
<g id="a_Node000011"><a xlink:href="class_p4_1_1_e_b_p_f_1_1_t_c_ingress_deparser_p_s_a.html" target="_top" xlink:title=" ">
<polygon fill="white" stroke="#bfbfbf" points="1295,-56 1119,-56 1119,-37 1295,-37 1295,-56"/>
<text text-anchor="middle" x="1207" y="-44" font-family="Helvetica,sans-Serif" font-size="10.00">P4::EBPF::TCIngressDeparserPSA</text>
</a>
</g>
</g>
<!-- Node10&#45;&gt;Node11 -->
<g id="edge10_Node000010_Node000011" class="edge">
<title>Node10&#45;&gt;Node11</title>
<g id="a_edge10_Node000010_Node000011"><a xlink:title=" ">
<path fill="none" stroke="#63b8ff" d="M1089.16,-46.5C1098.96,-46.5 1108.91,-46.5 1118.67,-46.5"/>
<polygon fill="#63b8ff" stroke="#63b8ff" points="1089.01,-43 1079.01,-46.5 1089.01,-50 1089.01,-43"/>
</a>
</g>
</g>
<!-- Node13 -->
<g id="Node000013" class="node">
<title>Node13</title>
<g id="a_Node000013"><a xlink:href="class_p4_1_1_e_b_p_f_1_1_x_d_p_ingress_deparser_p_s_a.html" target="_top" xlink:title=" ">
<polygon fill="white" stroke="#bfbfbf" points="1299,-19 1115,-19 1115,0 1299,0 1299,-19"/>
<text text-anchor="middle" x="1207" y="-7" font-family="Helvetica,sans-Serif" font-size="10.00">P4::EBPF::XDPIngressDeparserPSA</text>
</a>
</g>
</g>
<!-- Node10&#45;&gt;Node13 -->
<g id="edge12_Node000010_Node000013" class="edge">
<title>Node10&#45;&gt;Node13</title>
<g id="a_edge12_Node000010_Node000013"><a xlink:title=" ">
<path fill="none" stroke="#63b8ff" d="M1061.6,-35.19C1090.6,-30.03 1124.56,-23.99 1152.26,-19.06"/>
<polygon fill="#63b8ff" stroke="#63b8ff" points="1060.8,-31.77 1051.57,-36.97 1062.02,-38.67 1060.8,-31.77"/>
</a>
</g>
</g>
<!-- Node12 -->
<g id="Node000012" class="node">
<title>Node12</title>
<g id="a_Node000012"><a xlink:href="class_p4_1_1_e_b_p_f_1_1_t_c_ingress_deparser_for_traffic_manager_p_s_a.html" target="_top" xlink:title=" ">
<polygon fill="white" stroke="#bfbfbf" points="1491,-61.5 1335,-61.5 1335,-31.5 1491,-31.5 1491,-61.5"/>
<text text-anchor="start" x="1343" y="-49.5" font-family="Helvetica,sans-Serif" font-size="10.00">P4::EBPF::TCIngressDeparser</text>
<text text-anchor="middle" x="1413" y="-38.5" font-family="Helvetica,sans-Serif" font-size="10.00">ForTrafficManagerPSA</text>
</a>
</g>
</g>
<!-- Node11&#45;&gt;Node12 -->
<g id="edge11_Node000011_Node000012" class="edge">
<title>Node11&#45;&gt;Node12</title>
<g id="a_edge11_Node000011_Node000012"><a xlink:title=" ">
<path fill="none" stroke="#63b8ff" d="M1305.38,-46.5C1315.27,-46.5 1325.22,-46.5 1334.85,-46.5"/>
<polygon fill="#63b8ff" stroke="#63b8ff" points="1305.11,-43 1295.11,-46.5 1305.11,-50 1305.11,-43"/>
</a>
</g>
</g>
</g>
</svg>

<g id="navigator" transform="translate(0 0)" fill="#404254">
  <rect fill="#f2f5e9" fill-opacity="0.5" stroke="#606060" stroke-width=".5" x="0" y="0" width="60" height="60"/>
  <use id="zoomplus" xlink:href="#zoomPlus" x="17" y="9" onmousedown="handleZoom(evt,'in')"/>
  <use id="zoomminus" xlink:href="#zoomMin" x="42" y="9" onmousedown="handleZoom(evt,'out')"/>
  <use id="reset" xlink:href="#resetDef" x="30" y="36" onmousedown="handleReset()"/>
   <use id="arrowup" xlink:href="#arrowUp" x="0" y="0" onmousedown="handlePan(0,-1)"/>
  <use id="arrowright" xlink:href="#arrowRight" x="0" y="0" onmousedown="handlePan(1,0)"/>
  <use id="arrowdown" xlink:href="#arrowDown" x="0" y="0" onmousedown="handlePan(0,1)"/>
  <use id="arrowleft" xlink:href="#arrowLeft" x="0" y="0" onmousedown="handlePan(-1,0)"/>
</g>
<svg viewBox="0 0 15 15" width="100%" height="30px" preserveAspectRatio="xMaxYMin meet">
 <g id="arrow_out" transform="scale(0.3 0.3)">
  <a xlink:href="class_p4_1_1_e_b_p_f_1_1_e_b_p_f_deparser_p_s_a__inherit__graph_org.svg" target="_base">
   <rect id="button" ry="5" rx="5" y="6" x="6" height="38" width="38"
        fill="#f2f5e9" fill-opacity="0.5" stroke="#606060" stroke-width="1.0"/>
   <path id="arrow"
     d="M 11.500037,31.436501 C 11.940474,20.09759 22.043105,11.32322 32.158766,21.979434 L 37.068811,17.246167 C 37.068811,17.246167 37.088388,32 37.088388,32 L 22.160133,31.978069 C 22.160133,31.978069 26.997745,27.140456 26.997745,27.140456 C 18.528582,18.264221 13.291696,25.230495 11.500037,31.436501 z"
     style="fill:#404040;"/>
  </a>
 </g>
</svg>

<style type='text/css'>
<![CDATA[
[data-mouse-over-selected='false'] { opacity: 0.7; }
[data-mouse-over-selected='true']  { opacity: 1.0; }
]]>
</style>
<script type="application/ecmascript"><![CDATA[
document.addEventListener('DOMContentLoaded', (event) => {
  highlightEdges();
  highlightAdjacentNodes();
});
]]></script>
</svg>
