<?xml version="1.0" encoding="UTF-8" standalone="no"?>
<!DOCTYPE svg PUBLIC "-//W3C//DTD SVG 1.1//EN"
 "http://www.w3.org/Graphics/SVG/1.1/DTD/svg11.dtd">
<!-- Generated by graphviz version 2.43.0 (0)
 -->
<!-- Title: P4::EBPF::EBPFType Pages: 1 -->
<!--zoomable 286 -->

<svg id="main" version="1.1" xmlns="http://www.w3.org/2000/svg" xmlns:xlink="http://www.w3.org/1999/xlink" xml:space="preserve" onload="init(evt)">

<style type="text/css"><![CDATA[
.node, .edge {opacity: 0.7;}
.node.selected, .edge.selected {opacity: 1;}
.edge:hover path { stroke: red; }
.edge:hover polygon { stroke: red; fill: red; }
]]></style>

<defs>
  <circle id="rim" cx="0" cy="0" r="7"/>
  <circle id="rim2" cx="0" cy="0" r="3.5"/>
  <g id="zoomPlus">
    <use xlink:href="#rim" fill="#404040"><set attributeName="fill" to="#808080" begin="zoomplus.mouseover" end="zoomplus.mouseout"/></use>
    <path d="M-4,0h8M0,-4v8" fill="none" stroke="white" stroke-width="1.5" pointer-events="none"/>
  </g>
  <g id="zoomMin">
    <use xlink:href="#rim" fill="#404040"><set attributeName="fill" to="#808080" begin="zoomminus.mouseover" end="zoomminus.mouseout"/></use>
    <path d="M-4,0h8" fill="none" stroke="white" stroke-width="1.5" pointer-events="none"/>
  </g>
  <g id="arrowUp" transform="translate(30 24)">
    <use xlink:href="#rim"/>
    <path pointer-events="none" fill="none" stroke="white" stroke-width="1.5" d="M0,-3.0v7 M-2.5,-0.5L0,-3.0L2.5,-0.5"/>
  </g>
  <g id="arrowRight" transform="rotate(90) translate(36 -43)">
    <use xlink:href="#rim"/>
    <path pointer-events="none" fill="none" stroke="white" stroke-width="1.5" d="M0,-3.0v7 M-2.5,-0.5L0,-3.0L2.5,-0.5"/>
  </g>
  <g id="arrowDown" transform="rotate(180) translate(-30 -48)">
    <use xlink:href="#rim"/>
    <path pointer-events="none" fill="none" stroke="white" stroke-width="1.5" d="M0,-3.0v7 M-2.5,-0.5L0,-3.0L2.5,-0.5"/>
  </g>
  <g id="arrowLeft" transform="rotate(270) translate(-36 17)">
    <use xlink:href="#rim"/>
    <path pointer-events="none" fill="none" stroke="white" stroke-width="1.5" d="M0,-3.0v7 M-2.5,-0.5L0,-3.0L2.5,-0.5"/>
  </g>
  <g id="resetDef">
    <use xlink:href="#rim2" fill="#404040"><set attributeName="fill" to="#808080" begin="reset.mouseover" end="reset.mouseout"/></use>
  </g>
</defs>
<script type="application/ecmascript">
var viewWidth = 873;
var viewHeight = 286;
var sectionId = 'dynsection-0';
</script>
<script type="application/ecmascript" xlink:href="svg.min.js"/>
<svg id="graph" class="graph">
<g id="viewport">
<title>P4::EBPF::EBPFType</title>
<!-- Node1 -->
<g id="Node000001" class="node">
<title>Node1</title>
<g id="a_Node000001"><a xlink:title="Base class for EBPF types.">
<polygon fill="#999999" stroke="#666666" points="506,-148 395,-148 395,-129 506,-129 506,-148"/>
<text text-anchor="middle" x="450.5" y="-136" font-family="Helvetica,sans-Serif" font-size="10.00">P4::EBPF::EBPFType</text>
</a>
</g>
</g>
<!-- Node5 -->
<g id="Node000005" class="node">
<title>Node5</title>
<g id="a_Node000005"><a xlink:href="class_p4_1_1_e_b_p_f_1_1_e_b_p_f_bool_type.html" target="_top" xlink:title=" ">
<polygon fill="white" stroke="#bfbfbf" points="679.5,-278 545.5,-278 545.5,-259 679.5,-259 679.5,-278"/>
<text text-anchor="middle" x="612.5" y="-266" font-family="Helvetica,sans-Serif" font-size="10.00">P4::EBPF::EBPFBoolType</text>
</a>
</g>
</g>
<!-- Node1&#45;&gt;Node5 -->
<g id="edge4_Node000001_Node000005" class="edge">
<title>Node1&#45;&gt;Node5</title>
<g id="a_edge4_Node000001_Node000005"><a xlink:title=" ">
<path fill="none" stroke="#63b8ff" d="M461.3,-156.88C475.63,-181.95 504.71,-226.48 542,-250.5 547.34,-253.94 553.32,-256.73 559.46,-258.98"/>
<polygon fill="#63b8ff" stroke="#63b8ff" points="464.3,-155.07 456.39,-148.02 458.18,-158.46 464.3,-155.07"/>
</a>
</g>
</g>
<!-- Node7 -->
<g id="Node000007" class="node">
<title>Node7</title>
<g id="a_Node000007"><a xlink:href="class_p4_1_1_e_b_p_f_1_1_e_b_p_f_enum_type.html" target="_top" xlink:title=" ">
<polygon fill="white" stroke="#bfbfbf" points="682.5,-241 542.5,-241 542.5,-222 682.5,-222 682.5,-241"/>
<text text-anchor="middle" x="612.5" y="-229" font-family="Helvetica,sans-Serif" font-size="10.00">P4::EBPF::EBPFEnumType</text>
</a>
</g>
</g>
<!-- Node1&#45;&gt;Node7 -->
<g id="edge6_Node000001_Node000007" class="edge">
<title>Node1&#45;&gt;Node7</title>
<g id="a_edge6_Node000001_Node000007"><a xlink:title=" ">
<path fill="none" stroke="#63b8ff" d="M467.65,-155.73C484.6,-172.83 512.8,-198.57 542,-213.5 548.66,-216.91 556.01,-219.7 563.37,-221.99"/>
<polygon fill="#63b8ff" stroke="#63b8ff" points="469.75,-152.87 460.28,-148.12 464.72,-157.74 469.75,-152.87"/>
</a>
</g>
</g>
<!-- Node9 -->
<g id="Node000009" class="node">
<title>Node9</title>
<g id="a_Node000009"><a xlink:href="class_p4_1_1_e_b_p_f_1_1_e_b_p_f_error_type.html" target="_top" xlink:title=" ">
<polygon fill="white" stroke="#bfbfbf" points="680,-204 545,-204 545,-185 680,-185 680,-204"/>
<text text-anchor="middle" x="612.5" y="-192" font-family="Helvetica,sans-Serif" font-size="10.00">P4::EBPF::EBPFErrorType</text>
</a>
</g>
</g>
<!-- Node1&#45;&gt;Node9 -->
<g id="edge8_Node000001_Node000009" class="edge">
<title>Node1&#45;&gt;Node9</title>
<g id="a_edge8_Node000001_Node000009"><a xlink:title=" ">
<path fill="none" stroke="#63b8ff" d="M482.4,-152.22C499.72,-159.64 521.85,-168.65 542,-175.5 552.07,-178.92 563.11,-182.16 573.37,-184.97"/>
<polygon fill="#63b8ff" stroke="#63b8ff" points="483.37,-148.83 472.8,-148.07 480.59,-155.25 483.37,-148.83"/>
</a>
</g>
</g>
<!-- Node11 -->
<g id="Node000011" class="node">
<title>Node11</title>
<g id="a_Node000011"><a xlink:href="class_p4_1_1_e_b_p_f_1_1_e_b_p_f_scalar_type.html" target="_top" xlink:title=" ">
<polygon fill="white" stroke="#bfbfbf" points="683,-167 542,-167 542,-148 683,-148 683,-167"/>
<text text-anchor="middle" x="612.5" y="-155" font-family="Helvetica,sans-Serif" font-size="10.00">P4::EBPF::EBPFScalarType</text>
</a>
</g>
</g>
<!-- Node1&#45;&gt;Node11 -->
<g id="edge10_Node000001_Node000011" class="edge">
<title>Node1&#45;&gt;Node11</title>
<g id="a_edge10_Node000001_Node000011"><a xlink:title=" ">
<path fill="none" stroke="#63b8ff" d="M516.25,-146.19C524.68,-147.19 533.35,-148.22 541.85,-149.23"/>
<polygon fill="#63b8ff" stroke="#63b8ff" points="516.46,-142.69 506.12,-144.99 515.63,-149.64 516.46,-142.69"/>
</a>
</g>
</g>
<!-- Node14 -->
<g id="Node000014" class="node">
<title>Node14</title>
<g id="a_Node000014"><a xlink:href="class_p4_1_1_e_b_p_f_1_1_e_b_p_f_stack_type.html" target="_top" xlink:title=" ">
<polygon fill="white" stroke="#bfbfbf" points="681.5,-130 543.5,-130 543.5,-111 681.5,-111 681.5,-130"/>
<text text-anchor="middle" x="612.5" y="-118" font-family="Helvetica,sans-Serif" font-size="10.00">P4::EBPF::EBPFStackType</text>
</a>
</g>
</g>
<!-- Node1&#45;&gt;Node14 -->
<g id="edge13_Node000001_Node000014" class="edge">
<title>Node1&#45;&gt;Node14</title>
<g id="a_edge13_Node000001_Node000014"><a xlink:title=" ">
<path fill="none" stroke="#63b8ff" d="M516.08,-131.23C525.03,-130.23 534.25,-129.19 543.26,-128.18"/>
<polygon fill="#63b8ff" stroke="#63b8ff" points="515.66,-127.76 506.12,-132.36 516.44,-134.72 515.66,-127.76"/>
</a>
</g>
</g>
<!-- Node15 -->
<g id="Node000015" class="node">
<title>Node15</title>
<g id="a_Node000015"><a xlink:href="class_p4_1_1_e_b_p_f_1_1_e_b_p_f_struct_type.html" target="_top" xlink:title="Also represents headers and unions.">
<polygon fill="white" stroke="#666666" points="682.5,-93 542.5,-93 542.5,-74 682.5,-74 682.5,-93"/>
<text text-anchor="middle" x="612.5" y="-81" font-family="Helvetica,sans-Serif" font-size="10.00">P4::EBPF::EBPFStructType</text>
</a>
</g>
</g>
<!-- Node1&#45;&gt;Node15 -->
<g id="edge14_Node000001_Node000015" class="edge">
<title>Node1&#45;&gt;Node15</title>
<g id="a_edge14_Node000001_Node000015"><a xlink:title=" ">
<path fill="none" stroke="#63b8ff" d="M482.36,-124.67C499.68,-117.22 521.8,-108.21 542,-101.5 551.23,-98.43 561.28,-95.57 570.81,-93.06"/>
<polygon fill="#63b8ff" stroke="#63b8ff" points="480.54,-121.65 472.77,-128.85 483.34,-128.07 480.54,-121.65"/>
</a>
</g>
</g>
<!-- Node17 -->
<g id="Node000017" class="node">
<title>Node17</title>
<g id="a_Node000017"><a xlink:href="class_p4_1_1_e_b_p_f_1_1_e_b_p_f_type_name.html" target="_top" xlink:title="This should not always implement IHasWidth, but it may...">
<polygon fill="white" stroke="#666666" points="682.5,-56 542.5,-56 542.5,-37 682.5,-37 682.5,-56"/>
<text text-anchor="middle" x="612.5" y="-44" font-family="Helvetica,sans-Serif" font-size="10.00">P4::EBPF::EBPFTypeName</text>
</a>
</g>
</g>
<!-- Node1&#45;&gt;Node17 -->
<g id="edge16_Node000001_Node000017" class="edge">
<title>Node1&#45;&gt;Node17</title>
<g id="a_edge16_Node000001_Node000017"><a xlink:title=" ">
<path fill="none" stroke="#63b8ff" d="M467.97,-121.23C484.98,-104.37 513.07,-79.18 542,-64.5 548.67,-61.12 556.03,-58.33 563.39,-56.05"/>
<polygon fill="#63b8ff" stroke="#63b8ff" points="465.08,-119.18 460.55,-128.76 470.06,-124.09 465.08,-119.18"/>
</a>
</g>
</g>
<!-- Node18 -->
<g id="Node000018" class="node">
<title>Node18</title>
<g id="a_Node000018"><a xlink:href="class_p4_1_1_u_b_p_f_1_1_u_b_p_f_list_type.html" target="_top" xlink:title=" ">
<polygon fill="white" stroke="#bfbfbf" points="678.5,-19 546.5,-19 546.5,0 678.5,0 678.5,-19"/>
<text text-anchor="middle" x="612.5" y="-7" font-family="Helvetica,sans-Serif" font-size="10.00">P4::UBPF::UBPFListType</text>
</a>
</g>
</g>
<!-- Node1&#45;&gt;Node18 -->
<g id="edge17_Node000001_Node000018" class="edge">
<title>Node1&#45;&gt;Node18</title>
<g id="a_edge17_Node000001_Node000018"><a xlink:title=" ">
<path fill="none" stroke="#63b8ff" d="M461.56,-119.91C476.01,-95.01 505.04,-51.19 542,-27.5 547.35,-24.07 553.33,-21.29 559.47,-19.04"/>
<polygon fill="#63b8ff" stroke="#63b8ff" points="458.44,-118.31 456.59,-128.74 464.54,-121.75 458.44,-118.31"/>
</a>
</g>
</g>
<!-- Node2 -->
<g id="Node000002" class="node">
<title>Node2</title>
<g id="a_Node000002"><a xlink:href="class_p4_1_1_e_b_p_f_1_1_e_b_p_f_object.html" target="_top" xlink:title="Base class for EBPF objects.">
<polygon fill="white" stroke="#666666" points="359,-148 238,-148 238,-129 359,-129 359,-148"/>
<text text-anchor="middle" x="298.5" y="-136" font-family="Helvetica,sans-Serif" font-size="10.00">P4::EBPF::EBPFObject</text>
</a>
</g>
</g>
<!-- Node2&#45;&gt;Node1 -->
<g id="edge1_Node000001_Node000002" class="edge">
<title>Node2&#45;&gt;Node1</title>
<g id="a_edge1_Node000001_Node000002"><a xlink:title=" ">
<path fill="none" stroke="#63b8ff" d="M369.24,-138.5C377.84,-138.5 386.53,-138.5 394.86,-138.5"/>
<polygon fill="#63b8ff" stroke="#63b8ff" points="369.22,-135 359.21,-138.5 369.21,-142 369.22,-135"/>
</a>
</g>
</g>
<!-- Node3 -->
<g id="Node000003" class="node">
<title>Node3</title>
<g id="a_Node000003"><a xlink:href="class_p4_1_1_i_castable.html" target="_top" xlink:title=" ">
<polygon fill="white" stroke="#666666" points="202,-148 122,-148 122,-129 202,-129 202,-148"/>
<text text-anchor="middle" x="162" y="-136" font-family="Helvetica,sans-Serif" font-size="10.00">P4::ICastable</text>
</a>
</g>
</g>
<!-- Node3&#45;&gt;Node2 -->
<g id="edge2_Node000002_Node000003" class="edge">
<title>Node3&#45;&gt;Node2</title>
<g id="a_edge2_Node000002_Node000003"><a xlink:title=" ">
<path fill="none" stroke="#63b8ff" d="M212.5,-138.5C220.77,-138.5 229.44,-138.5 237.93,-138.5"/>
<polygon fill="#63b8ff" stroke="#63b8ff" points="212.26,-135 202.26,-138.5 212.26,-142 212.26,-135"/>
</a>
</g>
</g>
<!-- Node4 -->
<g id="Node000004" class="node">
<title>Node4</title>
<g id="a_Node000004"><a xlink:href="struct_p4_1_1_r_t_t_i_1_1_base.html" target="_top" xlink:title=" ">
<polygon fill="white" stroke="#bfbfbf" points="86,-148 0,-148 0,-129 86,-129 86,-148"/>
<text text-anchor="middle" x="43" y="-136" font-family="Helvetica,sans-Serif" font-size="10.00">P4::RTTI::Base</text>
</a>
</g>
</g>
<!-- Node4&#45;&gt;Node3 -->
<g id="edge3_Node000003_Node000004" class="edge">
<title>Node4&#45;&gt;Node3</title>
<g id="a_edge3_Node000003_Node000004"><a xlink:title=" ">
<path fill="none" stroke="#63b8ff" d="M96.25,-138.5C104.88,-138.5 113.7,-138.5 121.94,-138.5"/>
<polygon fill="#63b8ff" stroke="#63b8ff" points="96.24,-135 86.24,-138.5 96.24,-142 96.24,-135"/>
</a>
</g>
</g>
<!-- Node6 -->
<g id="Node000006" class="node">
<title>Node6</title>
<g id="a_Node000006"><a xlink:href="class_p4_1_1_u_b_p_f_1_1_u_b_p_f_bool_type.html" target="_top" xlink:title=" ">
<polygon fill="white" stroke="#bfbfbf" points="860.5,-278 723.5,-278 723.5,-259 860.5,-259 860.5,-278"/>
<text text-anchor="middle" x="792" y="-266" font-family="Helvetica,sans-Serif" font-size="10.00">P4::UBPF::UBPFBoolType</text>
</a>
</g>
</g>
<!-- Node5&#45;&gt;Node6 -->
<g id="edge5_Node000005_Node000006" class="edge">
<title>Node5&#45;&gt;Node6</title>
<g id="a_edge5_Node000005_Node000006"><a xlink:title=" ">
<path fill="none" stroke="#63b8ff" d="M689.76,-268.5C700.94,-268.5 712.38,-268.5 723.37,-268.5"/>
<polygon fill="#63b8ff" stroke="#63b8ff" points="689.59,-265 679.59,-268.5 689.59,-272 689.59,-265"/>
</a>
</g>
</g>
<!-- Node8 -->
<g id="Node000008" class="node">
<title>Node8</title>
<g id="a_Node000008"><a xlink:href="class_p4_1_1_u_b_p_f_1_1_u_b_p_f_enum_type.html" target="_top" xlink:title=" ">
<polygon fill="white" stroke="#bfbfbf" points="863.5,-241 720.5,-241 720.5,-222 863.5,-222 863.5,-241"/>
<text text-anchor="middle" x="792" y="-229" font-family="Helvetica,sans-Serif" font-size="10.00">P4::UBPF::UBPFEnumType</text>
</a>
</g>
</g>
<!-- Node7&#45;&gt;Node8 -->
<g id="edge7_Node000007_Node000008" class="edge">
<title>Node7&#45;&gt;Node8</title>
<g id="a_edge7_Node000007_Node000008"><a xlink:title=" ">
<path fill="none" stroke="#63b8ff" d="M692.87,-231.5C702.01,-231.5 711.29,-231.5 720.3,-231.5"/>
<polygon fill="#63b8ff" stroke="#63b8ff" points="692.63,-228 682.63,-231.5 692.63,-235 692.63,-228"/>
</a>
</g>
</g>
<!-- Node10 -->
<g id="Node000010" class="node">
<title>Node10</title>
<g id="a_Node000010"><a xlink:href="class_p4_1_1_u_b_p_f_1_1_u_b_p_f_error_type.html" target="_top" xlink:title=" ">
<polygon fill="white" stroke="#bfbfbf" points="861,-204 723,-204 723,-185 861,-185 861,-204"/>
<text text-anchor="middle" x="792" y="-192" font-family="Helvetica,sans-Serif" font-size="10.00">P4::UBPF::UBPFErrorType</text>
</a>
</g>
</g>
<!-- Node9&#45;&gt;Node10 -->
<g id="edge9_Node000009_Node000010" class="edge">
<title>Node9&#45;&gt;Node10</title>
<g id="a_edge9_Node000009_Node000010"><a xlink:title=" ">
<path fill="none" stroke="#63b8ff" d="M690.36,-194.5C701.17,-194.5 712.22,-194.5 722.84,-194.5"/>
<polygon fill="#63b8ff" stroke="#63b8ff" points="690.1,-191 680.1,-194.5 690.1,-198 690.1,-191"/>
</a>
</g>
</g>
<!-- Node12 -->
<g id="Node000012" class="node">
<title>Node12</title>
<g id="a_Node000012"><a xlink:href="class_p4_1_1_u_b_p_f_1_1_u_b_p_f_extern_type.html" target="_top" xlink:title=" ">
<polygon fill="white" stroke="#bfbfbf" points="865,-167 719,-167 719,-148 865,-148 865,-167"/>
<text text-anchor="middle" x="792" y="-155" font-family="Helvetica,sans-Serif" font-size="10.00">P4::UBPF::UBPFExternType</text>
</a>
</g>
</g>
<!-- Node11&#45;&gt;Node12 -->
<g id="edge11_Node000011_Node000012" class="edge">
<title>Node11&#45;&gt;Node12</title>
<g id="a_edge11_Node000011_Node000012"><a xlink:title=" ">
<path fill="none" stroke="#63b8ff" d="M693.15,-157.5C701.74,-157.5 710.44,-157.5 718.93,-157.5"/>
<polygon fill="#63b8ff" stroke="#63b8ff" points="693.14,-154 683.14,-157.5 693.14,-161 693.14,-154"/>
</a>
</g>
</g>
<!-- Node13 -->
<g id="Node000013" class="node">
<title>Node13</title>
<g id="a_Node000013"><a xlink:href="class_p4_1_1_u_b_p_f_1_1_u_b_p_f_scalar_type.html" target="_top" xlink:title=" ">
<polygon fill="white" stroke="#bfbfbf" points="864,-130 720,-130 720,-111 864,-111 864,-130"/>
<text text-anchor="middle" x="792" y="-118" font-family="Helvetica,sans-Serif" font-size="10.00">P4::UBPF::UBPFScalarType</text>
</a>
</g>
</g>
<!-- Node11&#45;&gt;Node13 -->
<g id="edge12_Node000011_Node000013" class="edge">
<title>Node11&#45;&gt;Node13</title>
<g id="a_edge12_Node000011_Node000013"><a xlink:title=" ">
<path fill="none" stroke="#63b8ff" d="M669.07,-145.92C693.53,-140.82 721.91,-134.9 745.14,-130.06"/>
<polygon fill="#63b8ff" stroke="#63b8ff" points="668.29,-142.5 659.21,-147.97 669.71,-149.36 668.29,-142.5"/>
</a>
</g>
</g>
<!-- Node16 -->
<g id="Node000016" class="node">
<title>Node16</title>
<g id="a_Node000016"><a xlink:href="class_p4_1_1_u_b_p_f_1_1_u_b_p_f_struct_type.html" target="_top" xlink:title=" ">
<polygon fill="white" stroke="#bfbfbf" points="863.5,-93 720.5,-93 720.5,-74 863.5,-74 863.5,-93"/>
<text text-anchor="middle" x="792" y="-81" font-family="Helvetica,sans-Serif" font-size="10.00">P4::UBPF::UBPFStructType</text>
</a>
</g>
</g>
<!-- Node15&#45;&gt;Node16 -->
<g id="edge15_Node000015_Node000016" class="edge">
<title>Node15&#45;&gt;Node16</title>
<g id="a_edge15_Node000015_Node000016"><a xlink:title=" ">
<path fill="none" stroke="#63b8ff" d="M692.87,-83.5C702.01,-83.5 711.29,-83.5 720.3,-83.5"/>
<polygon fill="#63b8ff" stroke="#63b8ff" points="692.63,-80 682.63,-83.5 692.63,-87 692.63,-80"/>
</a>
</g>
</g>
</g>
</svg>

<g id="navigator" transform="translate(0 0)" fill="#404254">
  <rect fill="#f2f5e9" fill-opacity="0.5" stroke="#606060" stroke-width=".5" x="0" y="0" width="60" height="60"/>
  <use id="zoomplus" xlink:href="#zoomPlus" x="17" y="9" onmousedown="handleZoom(evt,'in')"/>
  <use id="zoomminus" xlink:href="#zoomMin" x="42" y="9" onmousedown="handleZoom(evt,'out')"/>
  <use id="reset" xlink:href="#resetDef" x="30" y="36" onmousedown="handleReset()"/>
   <use id="arrowup" xlink:href="#arrowUp" x="0" y="0" onmousedown="handlePan(0,-1)"/>
  <use id="arrowright" xlink:href="#arrowRight" x="0" y="0" onmousedown="handlePan(1,0)"/>
  <use id="arrowdown" xlink:href="#arrowDown" x="0" y="0" onmousedown="handlePan(0,1)"/>
  <use id="arrowleft" xlink:href="#arrowLeft" x="0" y="0" onmousedown="handlePan(-1,0)"/>
</g>
<svg viewBox="0 0 15 15" width="100%" height="30px" preserveAspectRatio="xMaxYMin meet">
 <g id="arrow_out" transform="scale(0.3 0.3)">
  <a xlink:href="class_p4_1_1_e_b_p_f_1_1_e_b_p_f_type__inherit__graph_org.svg" target="_base">
   <rect id="button" ry="5" rx="5" y="6" x="6" height="38" width="38"
        fill="#f2f5e9" fill-opacity="0.5" stroke="#606060" stroke-width="1.0"/>
   <path id="arrow"
     d="M 11.500037,31.436501 C 11.940474,20.09759 22.043105,11.32322 32.158766,21.979434 L 37.068811,17.246167 C 37.068811,17.246167 37.088388,32 37.088388,32 L 22.160133,31.978069 C 22.160133,31.978069 26.997745,27.140456 26.997745,27.140456 C 18.528582,18.264221 13.291696,25.230495 11.500037,31.436501 z"
     style="fill:#404040;"/>
  </a>
 </g>
</svg>

<style type='text/css'>
<![CDATA[
[data-mouse-over-selected='false'] { opacity: 0.7; }
[data-mouse-over-selected='true']  { opacity: 1.0; }
]]>
</style>
<script type="application/ecmascript"><![CDATA[
document.addEventListener('DOMContentLoaded', (event) => {
  highlightEdges();
  highlightAdjacentNodes();
});
]]></script>
</svg>
