<?xml version="1.0" encoding="UTF-8" standalone="no"?>
<!DOCTYPE svg PUBLIC "-//W3C//DTD SVG 1.1//EN"
 "http://www.w3.org/Graphics/SVG/1.1/DTD/svg11.dtd">
<!-- Generated by graphviz version 2.43.0 (0)
 -->
<!-- Title: P4::IHasDbPrint Pages: 1 -->
<svg width="511pt" height="1280pt"
 viewBox="0.00 0.00 511.00 1279.50" xmlns="http://www.w3.org/2000/svg" xmlns:xlink="http://www.w3.org/1999/xlink">
<g id="graph0" class="graph" transform="scale(1 1) rotate(0) translate(4 1275.5)">
<title>P4::IHasDbPrint</title>
<!-- Node1 -->
<g id="Node000001" class="node">
<title>Node1</title>
<g id="a_Node000001"><a xlink:title=" ">
<polygon fill="#999999" stroke="#666666" points="92,-645 0,-645 0,-626 92,-626 92,-645"/>
<text text-anchor="middle" x="46" y="-633" font-family="Helvetica,sans-Serif" font-size="10.00">P4::IHasDbPrint</text>
</a>
</g>
</g>
<!-- Node2 -->
<g id="Node000002" class="node">
<title>Node2</title>
<g id="a_Node000002"><a xlink:href="struct_p4_1_1_struct_type_replacement.html" target="_top" xlink:title=" ">
<polygon fill="white" stroke="#666666" points="292.5,-1271.5 142.5,-1271.5 142.5,-1241.5 292.5,-1241.5 292.5,-1271.5"/>
<text text-anchor="start" x="150.5" y="-1259.5" font-family="Helvetica,sans-Serif" font-size="10.00">P4::StructTypeReplacement</text>
<text text-anchor="middle" x="217.5" y="-1248.5" font-family="Helvetica,sans-Serif" font-size="10.00">&lt; IR::Type_Struct &gt;</text>
</a>
</g>
</g>
<!-- Node1&#45;&gt;Node2 -->
<g id="edge1_Node000001_Node000002" class="edge">
<title>Node1&#45;&gt;Node2</title>
<g id="a_edge1_Node000001_Node000002"><a xlink:title=" ">
<path fill="none" stroke="#63b8ff" d="M46.86,-655.3C46.62,-748.65 50.25,-1143.93 128,-1232.5 132.1,-1237.17 137,-1240.97 142.36,-1244.06"/>
<polygon fill="#63b8ff" stroke="#63b8ff" points="50.36,-655.04 46.91,-645.03 43.36,-655.01 50.36,-655.04"/>
</a>
</g>
</g>
<!-- Node3 -->
<g id="Node000003" class="node">
<title>Node3</title>
<g id="a_Node000003"><a xlink:href="class_p4_1_1_type_substitution.html" target="_top" xlink:title=" ">
<polygon fill="white" stroke="#bfbfbf" points="284.5,-1223.5 150.5,-1223.5 150.5,-1193.5 284.5,-1193.5 284.5,-1223.5"/>
<text text-anchor="start" x="158.5" y="-1211.5" font-family="Helvetica,sans-Serif" font-size="10.00">P4::TypeSubstitution</text>
<text text-anchor="middle" x="217.5" y="-1200.5" font-family="Helvetica,sans-Serif" font-size="10.00">&lt; const IR::ITypeVar * &gt;</text>
</a>
</g>
</g>
<!-- Node1&#45;&gt;Node3 -->
<g id="edge2_Node000001_Node000003" class="edge">
<title>Node1&#45;&gt;Node3</title>
<g id="a_edge2_Node000001_Node000003"><a xlink:title=" ">
<path fill="none" stroke="#63b8ff" d="M47.12,-655.1C48.06,-743.44 56.29,-1103.76 128,-1184.5 134.03,-1191.28 141.76,-1196.24 150.13,-1199.84"/>
<polygon fill="#63b8ff" stroke="#63b8ff" points="50.62,-655.07 47.03,-645.1 43.62,-655.13 50.62,-655.07"/>
</a>
</g>
</g>
<!-- Node5 -->
<g id="Node000005" class="node">
<title>Node5</title>
<g id="a_Node000005"><a xlink:href="class_p4_1_1_all_definitions.html" target="_top" xlink:title=" ">
<polygon fill="white" stroke="#bfbfbf" points="267.5,-1175 167.5,-1175 167.5,-1156 267.5,-1156 267.5,-1175"/>
<text text-anchor="middle" x="217.5" y="-1163" font-family="Helvetica,sans-Serif" font-size="10.00">P4::AllDefinitions</text>
</a>
</g>
</g>
<!-- Node1&#45;&gt;Node5 -->
<g id="edge4_Node000001_Node000005" class="edge">
<title>Node1&#45;&gt;Node5</title>
<g id="a_edge4_Node000001_Node000005"><a xlink:title=" ">
<path fill="none" stroke="#63b8ff" d="M47.24,-655.49C48.67,-741.02 58.69,-1075.09 128,-1147.5 138.19,-1158.15 152.83,-1163.4 167.28,-1165.79"/>
<polygon fill="#63b8ff" stroke="#63b8ff" points="50.73,-655.27 47.09,-645.32 43.73,-655.37 50.73,-655.27"/>
</a>
</g>
</g>
<!-- Node6 -->
<g id="Node000006" class="node">
<title>Node6</title>
<g id="a_Node000006"><a xlink:href="class_p4_1_1_b_m_v2_1_1_c_f_g.html" target="_top" xlink:title=" ">
<polygon fill="white" stroke="#666666" points="262,-1138 173,-1138 173,-1119 262,-1119 262,-1138"/>
<text text-anchor="middle" x="217.5" y="-1126" font-family="Helvetica,sans-Serif" font-size="10.00">P4::BMV2::CFG</text>
</a>
</g>
</g>
<!-- Node1&#45;&gt;Node6 -->
<g id="edge5_Node000001_Node000006" class="edge">
<title>Node1&#45;&gt;Node6</title>
<g id="a_edge5_Node000001_Node000006"><a xlink:title=" ">
<path fill="none" stroke="#63b8ff" d="M47.5,-655.32C49.97,-736.68 63.51,-1043.93 128,-1110.5 139.56,-1122.44 156.72,-1127.57 172.86,-1129.5"/>
<polygon fill="#63b8ff" stroke="#63b8ff" points="50.99,-654.91 47.21,-645.01 43.99,-655.1 50.99,-654.91"/>
</a>
</g>
</g>
<!-- Node7 -->
<g id="Node000007" class="node">
<title>Node7</title>
<g id="a_Node000007"><a xlink:href="class_p4_1_1_b_m_v2_1_1_c_f_g_1_1_edge_set.html" target="_top" xlink:title=" ">
<polygon fill="white" stroke="#bfbfbf" points="285,-1101 150,-1101 150,-1082 285,-1082 285,-1101"/>
<text text-anchor="middle" x="217.5" y="-1089" font-family="Helvetica,sans-Serif" font-size="10.00">P4::BMV2::CFG::EdgeSet</text>
</a>
</g>
</g>
<!-- Node1&#45;&gt;Node7 -->
<g id="edge6_Node000001_Node000007" class="edge">
<title>Node1&#45;&gt;Node7</title>
<g id="a_edge6_Node000001_Node000007"><a xlink:title=" ">
<path fill="none" stroke="#63b8ff" d="M47.81,-655.24C51.38,-732.46 68.33,-1012.76 128,-1073.5 134.04,-1079.65 141.57,-1083.99 149.68,-1087.01"/>
<polygon fill="#63b8ff" stroke="#63b8ff" points="51.3,-654.85 47.36,-645.01 44.3,-655.16 51.3,-654.85"/>
</a>
</g>
</g>
<!-- Node8 -->
<g id="Node000008" class="node">
<title>Node8</title>
<g id="a_Node000008"><a xlink:href="class_p4_1_1_b_m_v2_1_1_c_f_g_1_1_node.html" target="_top" xlink:title=" ">
<polygon fill="white" stroke="#bfbfbf" points="278,-1064 157,-1064 157,-1045 278,-1045 278,-1064"/>
<text text-anchor="middle" x="217.5" y="-1052" font-family="Helvetica,sans-Serif" font-size="10.00">P4::BMV2::CFG::Node</text>
</a>
</g>
</g>
<!-- Node1&#45;&gt;Node8 -->
<g id="edge7_Node000001_Node000008" class="edge">
<title>Node1&#45;&gt;Node8</title>
<g id="a_edge7_Node000001_Node000008"><a xlink:title=" ">
<path fill="none" stroke="#63b8ff" d="M48.19,-655.44C52.96,-728.71 73.21,-981.64 128,-1036.5 135.87,-1044.38 146.18,-1049.27 156.97,-1052.23"/>
<polygon fill="#63b8ff" stroke="#63b8ff" points="51.67,-655.04 47.55,-645.28 44.68,-655.48 51.67,-655.04"/>
</a>
</g>
</g>
<!-- Node12 -->
<g id="Node000012" class="node">
<title>Node12</title>
<g id="a_Node000012"><a xlink:href="struct_p4_1_1_call_info.html" target="_top" xlink:title="Describes information about a caller&#45;callee pair.">
<polygon fill="white" stroke="#666666" points="253.5,-1027 181.5,-1027 181.5,-1008 253.5,-1008 253.5,-1027"/>
<text text-anchor="middle" x="217.5" y="-1015" font-family="Helvetica,sans-Serif" font-size="10.00">P4::CallInfo</text>
</a>
</g>
</g>
<!-- Node1&#45;&gt;Node12 -->
<g id="edge11_Node000001_Node000012" class="edge">
<title>Node1&#45;&gt;Node12</title>
<g id="a_edge11_Node000001_Node000012"><a xlink:title=" ">
<path fill="none" stroke="#63b8ff" d="M48.65,-655.27C54.76,-723.74 78.38,-949.28 128,-998.5 141.83,-1012.22 163.03,-1017.11 181.21,-1018.5"/>
<polygon fill="#63b8ff" stroke="#63b8ff" points="52.11,-654.69 47.76,-645.02 45.14,-655.29 52.11,-654.69"/>
</a>
</g>
</g>
<!-- Node13 -->
<g id="Node000013" class="node">
<title>Node13</title>
<g id="a_Node000013"><a xlink:href="struct_p4_1_1_complex_values_1_1_component.html" target="_top" xlink:title=" ">
<polygon fill="white" stroke="#666666" points="275.5,-989.5 159.5,-989.5 159.5,-959.5 275.5,-959.5 275.5,-989.5"/>
<text text-anchor="start" x="167.5" y="-977.5" font-family="Helvetica,sans-Serif" font-size="10.00">P4::ComplexValues::</text>
<text text-anchor="middle" x="217.5" y="-966.5" font-family="Helvetica,sans-Serif" font-size="10.00">Component</text>
</a>
</g>
</g>
<!-- Node1&#45;&gt;Node13 -->
<g id="edge12_Node000001_Node000013" class="edge">
<title>Node1&#45;&gt;Node13</title>
<g id="a_edge12_Node000001_Node000013"><a xlink:title=" ">
<path fill="none" stroke="#63b8ff" d="M49.49,-655.35C57.67,-717.65 85.71,-907.65 128,-950.5 136.5,-959.11 147.75,-964.72 159.37,-968.36"/>
<polygon fill="#63b8ff" stroke="#63b8ff" points="52.94,-654.74 48.19,-645.27 45.99,-655.64 52.94,-654.74"/>
</a>
</g>
</g>
<!-- Node16 -->
<g id="Node000016" class="node">
<title>Node16</title>
<g id="a_Node000016"><a xlink:href="class_p4_1_1_compute_write_set.html" target="_top" xlink:title=" ">
<polygon fill="white" stroke="#666666" points="278,-941 157,-941 157,-922 278,-922 278,-941"/>
<text text-anchor="middle" x="217.5" y="-929" font-family="Helvetica,sans-Serif" font-size="10.00">P4::ComputeWriteSet</text>
</a>
</g>
</g>
<!-- Node1&#45;&gt;Node16 -->
<g id="edge15_Node000001_Node000016" class="edge">
<title>Node1&#45;&gt;Node16</title>
<g id="a_edge15_Node000001_Node000016"><a xlink:title=" ">
<path fill="none" stroke="#63b8ff" d="M46.34,-655.2C45.79,-706.19 51.83,-843.39 128,-913.5 135.96,-920.83 146.06,-925.51 156.56,-928.45"/>
<polygon fill="#63b8ff" stroke="#63b8ff" points="49.84,-655.25 46.55,-645.18 42.84,-655.1 49.84,-655.25"/>
</a>
</g>
</g>
<!-- Node17 -->
<g id="Node000017" class="node">
<title>Node17</title>
<g id="a_Node000017"><a xlink:href="class_p4_1_1_definitions.html" target="_top" xlink:title="List of definers for each base storage (at a specific program point).">
<polygon fill="white" stroke="#666666" points="261,-904 174,-904 174,-885 261,-885 261,-904"/>
<text text-anchor="middle" x="217.5" y="-892" font-family="Helvetica,sans-Serif" font-size="10.00">P4::Definitions</text>
</a>
</g>
</g>
<!-- Node1&#45;&gt;Node17 -->
<g id="edge16_Node000001_Node000017" class="edge">
<title>Node1&#45;&gt;Node17</title>
<g id="a_edge16_Node000001_Node000017"><a xlink:title=" ">
<path fill="none" stroke="#63b8ff" d="M47.38,-655.34C49.39,-701.67 61.22,-817.5 128,-876.5 140.46,-887.5 157.77,-892.48 173.78,-894.54"/>
<polygon fill="#63b8ff" stroke="#63b8ff" points="50.87,-655.02 47.05,-645.14 43.87,-655.24 50.87,-655.02"/>
</a>
</g>
</g>
<!-- Node18 -->
<g id="Node000018" class="node">
<title>Node18</title>
<g id="a_Node000018"><a xlink:href="struct_p4_1_1_i_r_1_1_i_d.html" target="_top" xlink:title=" ">
<polygon fill="white" stroke="#bfbfbf" points="248,-867 187,-867 187,-848 248,-848 248,-867"/>
<text text-anchor="middle" x="217.5" y="-855" font-family="Helvetica,sans-Serif" font-size="10.00">P4::IR::ID</text>
</a>
</g>
</g>
<!-- Node1&#45;&gt;Node18 -->
<g id="edge17_Node000001_Node000018" class="edge">
<title>Node1&#45;&gt;Node18</title>
<g id="a_edge17_Node000001_Node000018"><a xlink:title=" ">
<path fill="none" stroke="#63b8ff" d="M48.72,-655.06C53.42,-696.07 70.3,-791.22 128,-839.5 144.23,-853.08 167.96,-857.35 186.76,-858.34"/>
<polygon fill="#63b8ff" stroke="#63b8ff" points="52.19,-654.61 47.69,-645.02 45.23,-655.32 52.19,-654.61"/>
</a>
</g>
</g>
<!-- Node19 -->
<g id="Node000019" class="node">
<title>Node19</title>
<g id="a_Node000019"><a xlink:href="class_p4_1_1_i_r_1_1_i_node.html" target="_top" xlink:title=" ">
<polygon fill="white" stroke="#bfbfbf" points="257,-830 178,-830 178,-811 257,-811 257,-830"/>
<text text-anchor="middle" x="217.5" y="-818" font-family="Helvetica,sans-Serif" font-size="10.00">P4::IR::INode</text>
</a>
</g>
</g>
<!-- Node1&#45;&gt;Node19 -->
<g id="edge18_Node000001_Node000019" class="edge">
<title>Node1&#45;&gt;Node19</title>
<g id="a_edge18_Node000001_Node000019"><a xlink:title=" ">
<path fill="none" stroke="#63b8ff" d="M50.68,-655.37C58.35,-690.85 79.53,-764.89 128,-802.5 142,-813.36 160.88,-818.14 177.61,-820.09"/>
<polygon fill="#63b8ff" stroke="#63b8ff" points="54.06,-654.41 48.65,-645.3 47.2,-655.8 54.06,-654.41"/>
</a>
</g>
</g>
<!-- Node57 -->
<g id="Node000057" class="node">
<title>Node57</title>
<g id="a_Node000057"><a xlink:href="struct_p4_1_1_inline_summary.html" target="_top" xlink:title="Summarizes all inline operations to be performed.">
<polygon fill="white" stroke="#666666" points="272,-793 163,-793 163,-774 272,-774 272,-793"/>
<text text-anchor="middle" x="217.5" y="-781" font-family="Helvetica,sans-Serif" font-size="10.00">P4::InlineSummary</text>
</a>
</g>
</g>
<!-- Node1&#45;&gt;Node57 -->
<g id="edge21_Node000001_Node000057" class="edge">
<title>Node1&#45;&gt;Node57</title>
<g id="a_edge21_Node000001_Node000057"><a xlink:title=" ">
<path fill="none" stroke="#63b8ff" d="M53.47,-654.99C64.14,-683.96 88.3,-737.92 128,-765.5 138.17,-772.57 150.5,-776.99 162.67,-779.72"/>
<polygon fill="#63b8ff" stroke="#63b8ff" points="56.65,-653.49 50.03,-645.22 50.05,-655.81 56.65,-653.49"/>
</a>
</g>
</g>
<!-- Node58 -->
<g id="Node000058" class="node">
<title>Node58</title>
<g id="a_Node000058"><a xlink:href="struct_p4_1_1_location_path.html" target="_top" xlink:title=" ">
<polygon fill="white" stroke="#666666" points="266,-756 169,-756 169,-737 266,-737 266,-756"/>
<text text-anchor="middle" x="217.5" y="-744" font-family="Helvetica,sans-Serif" font-size="10.00">P4::LocationPath</text>
</a>
</g>
</g>
<!-- Node1&#45;&gt;Node58 -->
<g id="edge22_Node000001_Node000058" class="edge">
<title>Node1&#45;&gt;Node58</title>
<g id="a_edge22_Node000001_Node000058"><a xlink:title=" ">
<path fill="none" stroke="#63b8ff" d="M57.67,-653.78C71.19,-675.24 96.57,-710.19 128,-728.5 140.33,-735.68 155.08,-740.03 168.96,-742.66"/>
<polygon fill="#63b8ff" stroke="#63b8ff" points="60.65,-651.96 52.46,-645.25 54.68,-655.61 60.65,-651.96"/>
</a>
</g>
</g>
<!-- Node59 -->
<g id="Node000059" class="node">
<title>Node59</title>
<g id="a_Node000059"><a xlink:href="class_p4_1_1_location_set.html" target="_top" xlink:title=" ">
<polygon fill="white" stroke="#666666" points="263.5,-719 171.5,-719 171.5,-700 263.5,-700 263.5,-719"/>
<text text-anchor="middle" x="217.5" y="-707" font-family="Helvetica,sans-Serif" font-size="10.00">P4::LocationSet</text>
</a>
</g>
</g>
<!-- Node1&#45;&gt;Node59 -->
<g id="edge23_Node000001_Node000059" class="edge">
<title>Node1&#45;&gt;Node59</title>
<g id="a_edge23_Node000001_Node000059"><a xlink:title=" ">
<path fill="none" stroke="#63b8ff" d="M65.5,-651.57C81.13,-664.3 104.64,-681.55 128,-691.5 141.56,-697.28 157.09,-701.24 171.32,-703.94"/>
<polygon fill="#63b8ff" stroke="#63b8ff" points="67.6,-648.76 57.68,-645.03 63.11,-654.13 67.6,-648.76"/>
</a>
</g>
</g>
<!-- Node60 -->
<g id="Node000060" class="node">
<title>Node60</title>
<g id="a_Node000060"><a xlink:href="class_p4_1_1_parameter_substitution.html" target="_top" xlink:title=" ">
<polygon fill="white" stroke="#bfbfbf" points="289,-682 146,-682 146,-663 289,-663 289,-682"/>
<text text-anchor="middle" x="217.5" y="-670" font-family="Helvetica,sans-Serif" font-size="10.00">P4::ParameterSubstitution</text>
</a>
</g>
</g>
<!-- Node1&#45;&gt;Node60 -->
<g id="edge24_Node000001_Node000060" class="edge">
<title>Node1&#45;&gt;Node60</title>
<g id="a_edge24_Node000001_Node000060"><a xlink:title=" ">
<path fill="none" stroke="#63b8ff" d="M96.31,-647.31C106.76,-649.75 117.73,-652.25 128,-654.5 141.02,-657.35 155.15,-660.29 168.22,-662.95"/>
<polygon fill="#63b8ff" stroke="#63b8ff" points="97.03,-643.89 86.5,-645.01 95.43,-650.7 97.03,-643.89"/>
</a>
</g>
</g>
<!-- Node61 -->
<g id="Node000061" class="node">
<title>Node61</title>
<g id="a_Node000061"><a xlink:href="class_p4_1_1_program_map.html" target="_top" xlink:title=" ">
<polygon fill="white" stroke="#bfbfbf" points="266,-645 169,-645 169,-626 266,-626 266,-645"/>
<text text-anchor="middle" x="217.5" y="-633" font-family="Helvetica,sans-Serif" font-size="10.00">P4::ProgramMap</text>
</a>
</g>
</g>
<!-- Node1&#45;&gt;Node61 -->
<g id="edge25_Node000001_Node000061" class="edge">
<title>Node1&#45;&gt;Node61</title>
<g id="a_edge25_Node000001_Node000061"><a xlink:title=" ">
<path fill="none" stroke="#63b8ff" d="M102.68,-635.5C124.08,-635.5 148.3,-635.5 168.88,-635.5"/>
<polygon fill="#63b8ff" stroke="#63b8ff" points="102.42,-632 92.42,-635.5 102.42,-639 102.42,-632"/>
</a>
</g>
</g>
<!-- Node64 -->
<g id="Node000064" class="node">
<title>Node64</title>
<g id="a_Node000064"><a xlink:href="class_p4_1_1_program_point.html" target="_top" xlink:title="Indicates a statement in the program.">
<polygon fill="white" stroke="#666666" points="268,-608 167,-608 167,-589 268,-589 268,-608"/>
<text text-anchor="middle" x="217.5" y="-596" font-family="Helvetica,sans-Serif" font-size="10.00">P4::ProgramPoint</text>
</a>
</g>
</g>
<!-- Node1&#45;&gt;Node64 -->
<g id="edge28_Node000001_Node000064" class="edge">
<title>Node1&#45;&gt;Node64</title>
<g id="a_edge28_Node000001_Node000064"><a xlink:title=" ">
<path fill="none" stroke="#63b8ff" d="M99.87,-623.69C109.24,-621.62 118.9,-619.49 128,-617.5 142.28,-614.38 157.86,-611.02 171.92,-608.01"/>
<polygon fill="#63b8ff" stroke="#63b8ff" points="98.87,-620.33 89.87,-625.91 100.39,-627.16 98.87,-620.33"/>
</a>
</g>
</g>
<!-- Node65 -->
<g id="Node000065" class="node">
<title>Node65</title>
<g id="a_Node000065"><a xlink:href="class_p4_1_1_program_points.html" target="_top" xlink:title=" ">
<polygon fill="white" stroke="#bfbfbf" points="270.5,-571 164.5,-571 164.5,-552 270.5,-552 270.5,-571"/>
<text text-anchor="middle" x="217.5" y="-559" font-family="Helvetica,sans-Serif" font-size="10.00">P4::ProgramPoints</text>
</a>
</g>
</g>
<!-- Node1&#45;&gt;Node65 -->
<g id="edge29_Node000001_Node000065" class="edge">
<title>Node1&#45;&gt;Node65</title>
<g id="a_edge29_Node000001_Node000065"><a xlink:title=" ">
<path fill="none" stroke="#63b8ff" d="M65.84,-619.59C81.52,-607.15 104.92,-590.37 128,-580.5 139.42,-575.62 152.21,-571.94 164.45,-569.19"/>
<polygon fill="#63b8ff" stroke="#63b8ff" points="63.53,-616.95 57.98,-625.98 67.95,-622.39 63.53,-616.95"/>
</a>
</g>
</g>
<!-- Node66 -->
<g id="Node000066" class="node">
<title>Node66</title>
<g id="a_Node000066"><a xlink:href="class_p4_1_1_set_of_locations.html" target="_top" xlink:title=" ">
<polygon fill="white" stroke="#666666" points="271.5,-534 163.5,-534 163.5,-515 271.5,-515 271.5,-534"/>
<text text-anchor="middle" x="217.5" y="-522" font-family="Helvetica,sans-Serif" font-size="10.00">P4::SetOfLocations</text>
</a>
</g>
</g>
<!-- Node1&#45;&gt;Node66 -->
<g id="edge30_Node000001_Node000066" class="edge">
<title>Node1&#45;&gt;Node66</title>
<g id="a_edge30_Node000001_Node000066"><a xlink:title=" ">
<path fill="none" stroke="#63b8ff" d="M57.93,-617.19C71.58,-596 96.95,-561.7 128,-543.5 138.71,-537.22 151.24,-533.01 163.44,-530.19"/>
<polygon fill="#63b8ff" stroke="#63b8ff" points="54.82,-615.55 52.51,-625.89 60.77,-619.26 54.82,-615.55"/>
</a>
</g>
</g>
<!-- Node67 -->
<g id="Node000067" class="node">
<title>Node67</title>
<g id="a_Node000067"><a xlink:href="class_p4_1_1_simple_call_info.html" target="_top" xlink:title=" ">
<polygon fill="white" stroke="#bfbfbf" points="284,-497 151,-497 151,-456 284,-456 284,-497"/>
<text text-anchor="start" x="159" y="-485" font-family="Helvetica,sans-Serif" font-size="10.00">P4::SimpleCallInfo</text>
<text text-anchor="start" x="159" y="-474" font-family="Helvetica,sans-Serif" font-size="10.00">&lt; CallableT, CallNodeT,</text>
<text text-anchor="middle" x="217.5" y="-463" font-family="Helvetica,sans-Serif" font-size="10.00"> CallExpressionT &gt;</text>
</a>
</g>
</g>
<!-- Node1&#45;&gt;Node67 -->
<g id="edge31_Node000001_Node000067" class="edge">
<title>Node1&#45;&gt;Node67</title>
<g id="a_edge31_Node000001_Node000067"><a xlink:title=" ">
<path fill="none" stroke="#63b8ff" d="M54.13,-616.36C65.53,-588.31 90.46,-536.15 128,-506.5 134.88,-501.07 142.79,-496.6 150.99,-492.92"/>
<polygon fill="#63b8ff" stroke="#63b8ff" points="50.81,-615.25 50.43,-625.83 57.33,-617.79 50.81,-615.25"/>
</a>
</g>
</g>
<!-- Node68 -->
<g id="Node000068" class="node">
<title>Node68</title>
<g id="a_Node000068"><a xlink:href="class_p4_1_1_simple_inline_work_list.html" target="_top" xlink:title=" ">
<polygon fill="white" stroke="#bfbfbf" points="286,-437.5 149,-437.5 149,-407.5 286,-407.5 286,-437.5"/>
<text text-anchor="start" x="157" y="-425.5" font-family="Helvetica,sans-Serif" font-size="10.00">P4::SimpleInlineWorkList</text>
<text text-anchor="middle" x="217.5" y="-414.5" font-family="Helvetica,sans-Serif" font-size="10.00">&lt; CallInfo &gt;</text>
</a>
</g>
</g>
<!-- Node1&#45;&gt;Node68 -->
<g id="edge32_Node000001_Node000068" class="edge">
<title>Node1&#45;&gt;Node68</title>
<g id="a_edge32_Node000001_Node000068"><a xlink:title=" ">
<path fill="none" stroke="#63b8ff" d="M49.84,-615.68C56.4,-577.36 76.19,-492.91 128,-447.5 134.12,-442.13 141.32,-437.91 148.92,-434.59"/>
<polygon fill="#63b8ff" stroke="#63b8ff" points="46.38,-615.17 48.27,-625.59 53.29,-616.26 46.38,-615.17"/>
</a>
</g>
</g>
<!-- Node69 -->
<g id="Node000069" class="node">
<title>Node69</title>
<g id="a_Node000069"><a xlink:href="class_p4_1_1_storage_location.html" target="_top" xlink:title="Abstraction for something that is has a left value (variable, parameter)">
<polygon fill="white" stroke="#666666" points="274,-389 161,-389 161,-370 274,-370 274,-389"/>
<text text-anchor="middle" x="217.5" y="-377" font-family="Helvetica,sans-Serif" font-size="10.00">P4::StorageLocation</text>
</a>
</g>
</g>
<!-- Node1&#45;&gt;Node69 -->
<g id="edge33_Node000001_Node000069" class="edge">
<title>Node1&#45;&gt;Node69</title>
<g id="a_edge33_Node000001_Node000069"><a xlink:title=" ">
<path fill="none" stroke="#63b8ff" d="M47.56,-615.4C50,-569.51 62.68,-456.55 128,-398.5 137.16,-390.36 148.96,-385.41 160.93,-382.47"/>
<polygon fill="#63b8ff" stroke="#63b8ff" points="44.06,-615.41 47.14,-625.55 51.05,-615.7 44.06,-615.41"/>
</a>
</g>
</g>
<!-- Node76 -->
<g id="Node000076" class="node">
<title>Node76</title>
<g id="a_Node000076"><a xlink:href="class_p4_1_1_storage_map.html" target="_top" xlink:title="Maps a declaration to its associated storage.">
<polygon fill="white" stroke="#666666" points="264,-352 171,-352 171,-333 264,-333 264,-352"/>
<text text-anchor="middle" x="217.5" y="-340" font-family="Helvetica,sans-Serif" font-size="10.00">P4::StorageMap</text>
</a>
</g>
</g>
<!-- Node1&#45;&gt;Node76 -->
<g id="edge37_Node000001_Node000076" class="edge">
<title>Node1&#45;&gt;Node76</title>
<g id="a_edge37_Node000001_Node000076"><a xlink:title=" ">
<path fill="none" stroke="#63b8ff" d="M46.48,-615.8C46.31,-565.39 53.24,-430.79 128,-361.5 139.53,-350.82 155.55,-345.58 170.8,-343.17"/>
<polygon fill="#63b8ff" stroke="#63b8ff" points="42.99,-616.03 46.63,-625.98 49.99,-615.93 42.99,-616.03"/>
</a>
</g>
</g>
<!-- Node77 -->
<g id="Node000077" class="node">
<title>Node77</title>
<g id="a_Node000077"><a xlink:href="struct_p4_1_1_struct_type_replacement.html" target="_top" xlink:title=" ">
<polygon fill="white" stroke="#666666" points="307,-315 128,-315 128,-296 307,-296 307,-315"/>
<text text-anchor="middle" x="217.5" y="-303" font-family="Helvetica,sans-Serif" font-size="10.00">P4::StructTypeReplacement&lt; T &gt;</text>
</a>
</g>
</g>
<!-- Node1&#45;&gt;Node77 -->
<g id="edge38_Node000001_Node000077" class="edge">
<title>Node1&#45;&gt;Node77</title>
<g id="a_edge38_Node000001_Node000077"><a xlink:title=" ">
<path fill="none" stroke="#63b8ff" d="M49.43,-615.8C57.45,-554.01 85.04,-365.64 128,-324.5 131.97,-320.7 136.51,-317.58 141.39,-315.03"/>
<polygon fill="#63b8ff" stroke="#63b8ff" points="45.95,-615.44 48.16,-625.8 52.89,-616.32 45.95,-615.44"/>
</a>
</g>
</g>
<!-- Node78 -->
<g id="Node000078" class="node">
<title>Node78</title>
<g id="a_Node000078"><a xlink:href="class_p4_1_1_symbolic_value.html" target="_top" xlink:title=" ">
<polygon fill="white" stroke="orangered" points="271,-278 164,-278 164,-259 271,-259 271,-278"/>
<text text-anchor="middle" x="217.5" y="-266" font-family="Helvetica,sans-Serif" font-size="10.00">P4::SymbolicValue</text>
</a>
</g>
</g>
<!-- Node1&#45;&gt;Node78 -->
<g id="edge39_Node000001_Node000078" class="edge">
<title>Node1&#45;&gt;Node78</title>
<g id="a_edge39_Node000001_Node000078"><a xlink:title=" ">
<path fill="none" stroke="#63b8ff" d="M48.86,-615.67C55.51,-548.99 80.33,-334.36 128,-287.5 137.53,-278.14 150.48,-272.9 163.54,-270.07"/>
<polygon fill="#63b8ff" stroke="#63b8ff" points="45.37,-615.41 47.89,-625.7 52.33,-616.09 45.37,-615.41"/>
</a>
</g>
</g>
<!-- Node96 -->
<g id="Node000096" class="node">
<title>Node96</title>
<g id="a_Node000096"><a xlink:href="class_p4_1_1_type_constraint.html" target="_top" xlink:title=" ">
<polygon fill="white" stroke="orangered" points="271,-241 164,-241 164,-222 271,-222 271,-241"/>
<text text-anchor="middle" x="217.5" y="-229" font-family="Helvetica,sans-Serif" font-size="10.00">P4::TypeConstraint</text>
</a>
</g>
</g>
<!-- Node1&#45;&gt;Node96 -->
<g id="edge42_Node000001_Node000096" class="edge">
<title>Node1&#45;&gt;Node96</title>
<g id="a_edge42_Node000001_Node000096"><a xlink:title=" ">
<path fill="none" stroke="#63b8ff" d="M48.37,-615.4C53.67,-543.69 75.21,-301.97 128,-249.5 137.56,-239.99 150.69,-234.84 163.91,-232.2"/>
<polygon fill="#63b8ff" stroke="#63b8ff" points="44.85,-615.5 47.63,-625.73 51.83,-616 44.85,-615.5"/>
</a>
</g>
</g>
<!-- Node100 -->
<g id="Node000100" class="node">
<title>Node100</title>
<g id="a_Node000100"><a xlink:href="class_p4_1_1_type_constraints.html" target="_top" xlink:title=" ">
<polygon fill="white" stroke="#bfbfbf" points="274,-204 161,-204 161,-185 274,-185 274,-204"/>
<text text-anchor="middle" x="217.5" y="-192" font-family="Helvetica,sans-Serif" font-size="10.00">P4::TypeConstraints</text>
</a>
</g>
</g>
<!-- Node1&#45;&gt;Node100 -->
<g id="edge43_Node000001_Node000100" class="edge">
<title>Node1&#45;&gt;Node100</title>
<g id="a_edge43_Node000001_Node000100"><a xlink:title=" ">
<path fill="none" stroke="#63b8ff" d="M47.94,-615.94C51.96,-540.66 70.25,-270.92 128,-212.5 136.71,-203.69 148.47,-198.61 160.57,-195.78"/>
<polygon fill="#63b8ff" stroke="#63b8ff" points="44.44,-615.78 47.43,-625.94 51.43,-616.13 44.44,-615.78"/>
</a>
</g>
</g>
<!-- Node101 -->
<g id="Node000101" class="node">
<title>Node101</title>
<g id="a_Node000101"><a xlink:href="struct_p4_1_1_type_specialization.html" target="_top" xlink:title=" ">
<polygon fill="white" stroke="#bfbfbf" points="280,-167 155,-167 155,-148 280,-148 280,-167"/>
<text text-anchor="middle" x="217.5" y="-155" font-family="Helvetica,sans-Serif" font-size="10.00">P4::TypeSpecialization</text>
</a>
</g>
</g>
<!-- Node1&#45;&gt;Node101 -->
<g id="edge44_Node000001_Node000101" class="edge">
<title>Node1&#45;&gt;Node101</title>
<g id="a_edge44_Node000001_Node000101"><a xlink:title=" ">
<path fill="none" stroke="#63b8ff" d="M47.62,-615.79C50.52,-536.2 65.45,-239.73 128,-175.5 135.33,-167.97 144.88,-163.16 155,-160.14"/>
<polygon fill="#63b8ff" stroke="#63b8ff" points="44.12,-615.79 47.27,-625.91 51.11,-616.03 44.12,-615.79"/>
</a>
</g>
</g>
<!-- Node102 -->
<g id="Node000102" class="node">
<title>Node102</title>
<g id="a_Node000102"><a xlink:href="struct_p4_1_1_type_specialization_map.html" target="_top" xlink:title=" ">
<polygon fill="white" stroke="#bfbfbf" points="290.5,-130 144.5,-130 144.5,-111 290.5,-111 290.5,-130"/>
<text text-anchor="middle" x="217.5" y="-118" font-family="Helvetica,sans-Serif" font-size="10.00">P4::TypeSpecializationMap</text>
</a>
</g>
</g>
<!-- Node1&#45;&gt;Node102 -->
<g id="edge45_Node000001_Node000102" class="edge">
<title>Node1&#45;&gt;Node102</title>
<g id="a_edge45_Node000001_Node000102"><a xlink:title=" ">
<path fill="none" stroke="#63b8ff" d="M47.33,-615.83C49.17,-532.38 60.58,-208.61 128,-138.5 132.67,-133.64 138.27,-129.91 144.36,-127.05"/>
<polygon fill="#63b8ff" stroke="#63b8ff" points="43.83,-615.9 47.13,-625.96 50.83,-616.03 43.83,-615.9"/>
</a>
</g>
</g>
<!-- Node103 -->
<g id="Node000103" class="node">
<title>Node103</title>
<g id="a_Node000103"><a xlink:href="class_p4_1_1_type_substitution.html" target="_top" xlink:title=" ">
<polygon fill="white" stroke="#bfbfbf" points="289.5,-93 145.5,-93 145.5,-74 289.5,-74 289.5,-93"/>
<text text-anchor="middle" x="217.5" y="-81" font-family="Helvetica,sans-Serif" font-size="10.00">P4::TypeSubstitution&lt; T &gt;</text>
</a>
</g>
</g>
<!-- Node1&#45;&gt;Node103 -->
<g id="edge46_Node000001_Node000103" class="edge">
<title>Node1&#45;&gt;Node103</title>
<g id="a_edge46_Node000001_Node000103"><a xlink:title=" ">
<path fill="none" stroke="#63b8ff" d="M47.09,-615.5C47.93,-527.7 55.8,-177.42 128,-101.5 132.86,-96.39 138.75,-92.52 145.15,-89.61"/>
<polygon fill="#63b8ff" stroke="#63b8ff" points="43.59,-615.66 47.02,-625.69 50.59,-615.71 43.59,-615.66"/>
</a>
</g>
</g>
<!-- Node104 -->
<g id="Node000104" class="node">
<title>Node104</title>
<g id="a_Node000104"><a xlink:href="class_p4_1_1_util_1_1_comment.html" target="_top" xlink:title=" ">
<polygon fill="white" stroke="#bfbfbf" points="270.5,-56 164.5,-56 164.5,-37 270.5,-37 270.5,-56"/>
<text text-anchor="middle" x="217.5" y="-44" font-family="Helvetica,sans-Serif" font-size="10.00">P4::Util::Comment</text>
</a>
</g>
</g>
<!-- Node1&#45;&gt;Node104 -->
<g id="edge47_Node000001_Node000104" class="edge">
<title>Node1&#45;&gt;Node104</title>
<g id="a_edge47_Node000001_Node000104"><a xlink:title=" ">
<path fill="none" stroke="#8b1a1a" d="M46.88,-615.87C46.73,-525.04 50.81,-146.45 128,-64.5 137.46,-54.46 150.87,-49.19 164.41,-46.61"/>
<polygon fill="#8b1a1a" stroke="#8b1a1a" points="43.38,-615.92 46.91,-625.9 50.38,-615.89 43.38,-615.92"/>
</a>
</g>
</g>
<!-- Node105 -->
<g id="Node000105" class="node">
<title>Node105</title>
<g id="a_Node000105"><a xlink:href="class_p4_1_1_value_map.html" target="_top" xlink:title=" ">
<polygon fill="white" stroke="#bfbfbf" points="259,-19 176,-19 176,0 259,0 259,-19"/>
<text text-anchor="middle" x="217.5" y="-7" font-family="Helvetica,sans-Serif" font-size="10.00">P4::ValueMap</text>
</a>
</g>
</g>
<!-- Node1&#45;&gt;Node105 -->
<g id="edge48_Node000001_Node000105" class="edge">
<title>Node1&#45;&gt;Node105</title>
<g id="a_edge48_Node000001_Node000105"><a xlink:title=" ">
<path fill="none" stroke="#63b8ff" d="M46.69,-615.52C45.62,-520.49 46.01,-115.28 128,-27.5 140.09,-14.55 158.75,-9.53 175.83,-7.95"/>
<polygon fill="#63b8ff" stroke="#63b8ff" points="43.19,-615.79 46.82,-625.74 50.19,-615.7 43.19,-615.79"/>
</a>
</g>
</g>
<!-- Node4 -->
<g id="Node000004" class="node">
<title>Node4</title>
<g id="a_Node000004"><a xlink:href="class_p4_1_1_type_variable_substitution.html" target="_top" xlink:title=" ">
<polygon fill="white" stroke="#bfbfbf" points="500.5,-1218 345.5,-1218 345.5,-1199 500.5,-1199 500.5,-1218"/>
<text text-anchor="middle" x="423" y="-1206" font-family="Helvetica,sans-Serif" font-size="10.00">P4::TypeVariableSubstitution</text>
</a>
</g>
</g>
<!-- Node3&#45;&gt;Node4 -->
<g id="edge3_Node000003_Node000004" class="edge">
<title>Node3&#45;&gt;Node4</title>
<g id="a_edge3_Node000003_Node000004"><a xlink:title=" ">
<path fill="none" stroke="#63b8ff" d="M294.72,-1208.5C311.25,-1208.5 328.75,-1208.5 345.3,-1208.5"/>
<polygon fill="#63b8ff" stroke="#63b8ff" points="294.57,-1205 284.57,-1208.5 294.57,-1212 294.57,-1205"/>
</a>
</g>
</g>
<!-- Node9 -->
<g id="Node000009" class="node">
<title>Node9</title>
<g id="a_Node000009"><a xlink:href="class_p4_1_1_b_m_v2_1_1_c_f_g_1_1_dummy_node.html" target="_top" xlink:title=" ">
<polygon fill="white" stroke="#bfbfbf" points="503,-1101 343,-1101 343,-1082 503,-1082 503,-1101"/>
<text text-anchor="middle" x="423" y="-1089" font-family="Helvetica,sans-Serif" font-size="10.00">P4::BMV2::CFG::DummyNode</text>
</a>
</g>
</g>
<!-- Node8&#45;&gt;Node9 -->
<g id="edge8_Node000008_Node000009" class="edge">
<title>Node8&#45;&gt;Node9</title>
<g id="a_edge8_Node000008_Node000009"><a xlink:title=" ">
<path fill="none" stroke="#63b8ff" d="M281.09,-1065.88C309.38,-1071.02 342.44,-1077.03 369.42,-1081.94"/>
<polygon fill="#63b8ff" stroke="#63b8ff" points="281.37,-1062.37 270.91,-1064.03 280.12,-1069.26 281.37,-1062.37"/>
</a>
</g>
</g>
<!-- Node10 -->
<g id="Node000010" class="node">
<title>Node10</title>
<g id="a_Node000010"><a xlink:href="class_p4_1_1_b_m_v2_1_1_c_f_g_1_1_if_node.html" target="_top" xlink:title=" ">
<polygon fill="white" stroke="#bfbfbf" points="487,-1064 359,-1064 359,-1045 487,-1045 487,-1064"/>
<text text-anchor="middle" x="423" y="-1052" font-family="Helvetica,sans-Serif" font-size="10.00">P4::BMV2::CFG::IfNode</text>
</a>
</g>
</g>
<!-- Node8&#45;&gt;Node10 -->
<g id="edge9_Node000008_Node000010" class="edge">
<title>Node8&#45;&gt;Node10</title>
<g id="a_edge9_Node000008_Node000010"><a xlink:title=" ">
<path fill="none" stroke="#63b8ff" d="M288.48,-1054.5C311.3,-1054.5 336.48,-1054.5 358.77,-1054.5"/>
<polygon fill="#63b8ff" stroke="#63b8ff" points="288.18,-1051 278.18,-1054.5 288.18,-1058 288.18,-1051"/>
</a>
</g>
</g>
<!-- Node11 -->
<g id="Node000011" class="node">
<title>Node11</title>
<g id="a_Node000011"><a xlink:href="class_p4_1_1_b_m_v2_1_1_c_f_g_1_1_table_node.html" target="_top" xlink:title=" ">
<polygon fill="white" stroke="#bfbfbf" points="496,-1027 350,-1027 350,-1008 496,-1008 496,-1027"/>
<text text-anchor="middle" x="423" y="-1015" font-family="Helvetica,sans-Serif" font-size="10.00">P4::BMV2::CFG::TableNode</text>
</a>
</g>
</g>
<!-- Node8&#45;&gt;Node11 -->
<g id="edge10_Node000008_Node000011" class="edge">
<title>Node8&#45;&gt;Node11</title>
<g id="a_edge10_Node000008_Node000011"><a xlink:title=" ">
<path fill="none" stroke="#63b8ff" d="M281.09,-1043.12C309.38,-1037.98 342.44,-1031.97 369.42,-1027.06"/>
<polygon fill="#63b8ff" stroke="#63b8ff" points="280.12,-1039.74 270.91,-1044.97 281.37,-1046.63 280.12,-1039.74"/>
</a>
</g>
</g>
<!-- Node14 -->
<g id="Node000014" class="node">
<title>Node14</title>
<g id="a_Node000014"><a xlink:href="struct_p4_1_1_complex_values_1_1_fields_map.html" target="_top" xlink:title=" ">
<polygon fill="white" stroke="#bfbfbf" points="481,-989.5 365,-989.5 365,-959.5 481,-959.5 481,-989.5"/>
<text text-anchor="start" x="373" y="-977.5" font-family="Helvetica,sans-Serif" font-size="10.00">P4::ComplexValues::</text>
<text text-anchor="middle" x="423" y="-966.5" font-family="Helvetica,sans-Serif" font-size="10.00">FieldsMap</text>
</a>
</g>
</g>
<!-- Node13&#45;&gt;Node14 -->
<g id="edge13_Node000013_Node000014" class="edge">
<title>Node13&#45;&gt;Node14</title>
<g id="a_edge13_Node000013_Node000014"><a xlink:title=" ">
<path fill="none" stroke="#63b8ff" d="M285.73,-974.5C311.34,-974.5 340.26,-974.5 364.85,-974.5"/>
<polygon fill="#63b8ff" stroke="#63b8ff" points="285.73,-971 275.73,-974.5 285.73,-978 285.73,-971"/>
</a>
</g>
</g>
<!-- Node15 -->
<g id="Node000015" class="node">
<title>Node15</title>
<g id="a_Node000015"><a xlink:href="struct_p4_1_1_complex_values_1_1_final_name.html" target="_top" xlink:title=" ">
<polygon fill="white" stroke="#bfbfbf" points="481,-941.5 365,-941.5 365,-911.5 481,-911.5 481,-941.5"/>
<text text-anchor="start" x="373" y="-929.5" font-family="Helvetica,sans-Serif" font-size="10.00">P4::ComplexValues::</text>
<text text-anchor="middle" x="423" y="-918.5" font-family="Helvetica,sans-Serif" font-size="10.00">FinalName</text>
</a>
</g>
</g>
<!-- Node13&#45;&gt;Node15 -->
<g id="edge14_Node000013_Node000015" class="edge">
<title>Node13&#45;&gt;Node15</title>
<g id="a_edge14_Node000013_Node000015"><a xlink:title=" ">
<path fill="none" stroke="#63b8ff" d="M285.73,-958.64C311.34,-952.6 340.26,-945.78 364.85,-939.98"/>
<polygon fill="#63b8ff" stroke="#63b8ff" points="284.66,-955.3 275.73,-961 286.26,-962.11 284.66,-955.3"/>
</a>
</g>
</g>
<!-- Node20 -->
<g id="Node000020" class="node">
<title>Node20</title>
<g id="a_Node000020"><a xlink:href="class_p4_1_1_i_r_1_1_i_declaration.html" target="_top" xlink:title="The Declaration interface, representing objects with names.">
<polygon fill="white" stroke="#666666" points="478,-848 368,-848 368,-829 478,-829 478,-848"/>
<text text-anchor="middle" x="423" y="-836" font-family="Helvetica,sans-Serif" font-size="10.00">P4::IR::IDeclaration</text>
</a>
</g>
</g>
<!-- Node19&#45;&gt;Node20 -->
<g id="edge19_Node000019_Node000020" class="edge">
<title>Node19&#45;&gt;Node20</title>
<g id="a_edge19_Node000019_Node000020"><a xlink:title=" ">
<path fill="none" stroke="#63b8ff" d="M267.55,-824.84C297.75,-827.51 336.5,-830.94 367.63,-833.69"/>
<polygon fill="#63b8ff" stroke="#63b8ff" points="267.53,-821.32 257.26,-823.93 266.91,-828.3 267.53,-821.32"/>
</a>
</g>
</g>
<!-- Node21 -->
<g id="Node000021" class="node">
<title>Node21</title>
<g id="a_Node000021"><a xlink:href="class_p4_1_1_i_r_1_1_node.html" target="_top" xlink:title=" ">
<polygon fill="white" stroke="orangered" points="461,-811 385,-811 385,-792 461,-792 461,-811"/>
<text text-anchor="middle" x="423" y="-799" font-family="Helvetica,sans-Serif" font-size="10.00">P4::IR::Node</text>
</a>
</g>
</g>
<!-- Node19&#45;&gt;Node21 -->
<g id="edge20_Node000019_Node000021" class="edge">
<title>Node19&#45;&gt;Node21</title>
<g id="a_edge20_Node000019_Node000021"><a xlink:title=" ">
<path fill="none" stroke="#63b8ff" d="M267.55,-815.92C303.6,-812.55 351.85,-808.05 384.76,-804.98"/>
<polygon fill="#63b8ff" stroke="#63b8ff" points="266.89,-812.47 257.26,-816.88 267.54,-819.44 266.89,-812.47"/>
</a>
</g>
</g>
<!-- Node62 -->
<g id="Node000062" class="node">
<title>Node62</title>
<g id="a_Node000062"><a xlink:href="class_p4_1_1_reference_map.html" target="_top" xlink:title="Class used to encode maps from paths to declarations.">
<polygon fill="white" stroke="#666666" points="475.5,-663 370.5,-663 370.5,-644 475.5,-644 475.5,-663"/>
<text text-anchor="middle" x="423" y="-651" font-family="Helvetica,sans-Serif" font-size="10.00">P4::ReferenceMap</text>
</a>
</g>
</g>
<!-- Node61&#45;&gt;Node62 -->
<g id="edge26_Node000061_Node000062" class="edge">
<title>Node61&#45;&gt;Node62</title>
<g id="a_edge26_Node000061_Node000062"><a xlink:title=" ">
<path fill="none" stroke="#63b8ff" d="M276.4,-640.62C305.98,-643.24 341.67,-646.39 370.31,-648.93"/>
<polygon fill="#63b8ff" stroke="#63b8ff" points="276.48,-637.11 266.21,-639.72 275.86,-644.09 276.48,-637.11"/>
</a>
</g>
</g>
<!-- Node63 -->
<g id="Node000063" class="node">
<title>Node63</title>
<g id="a_Node000063"><a xlink:href="class_p4_1_1_type_map.html" target="_top" xlink:title=" ">
<polygon fill="white" stroke="#666666" points="462,-626 384,-626 384,-607 462,-607 462,-626"/>
<text text-anchor="middle" x="423" y="-614" font-family="Helvetica,sans-Serif" font-size="10.00">P4::TypeMap</text>
</a>
</g>
</g>
<!-- Node61&#45;&gt;Node63 -->
<g id="edge27_Node000061_Node000063" class="edge">
<title>Node61&#45;&gt;Node63</title>
<g id="a_edge27_Node000061_Node000063"><a xlink:title=" ">
<path fill="none" stroke="#63b8ff" d="M276.6,-630.08C310.99,-626.86 353.59,-622.89 383.77,-620.07"/>
<polygon fill="#63b8ff" stroke="#63b8ff" points="275.84,-626.63 266.21,-631.05 276.49,-633.6 275.84,-626.63"/>
</a>
</g>
</g>
<!-- Node70 -->
<g id="Node000070" class="node">
<title>Node70</title>
<g id="a_Node000070"><a xlink:href="class_p4_1_1_base_location.html" target="_top" xlink:title=" ">
<polygon fill="white" stroke="#666666" points="473,-426 373,-426 373,-407 473,-407 473,-426"/>
<text text-anchor="middle" x="423" y="-414" font-family="Helvetica,sans-Serif" font-size="10.00">P4::BaseLocation</text>
</a>
</g>
</g>
<!-- Node69&#45;&gt;Node70 -->
<g id="edge34_Node000069_Node000070" class="edge">
<title>Node69&#45;&gt;Node70</title>
<g id="a_edge34_Node000069_Node000070"><a xlink:title=" ">
<path fill="none" stroke="#63b8ff" d="M281.11,-390.88C310.63,-396.25 345.34,-402.56 372.92,-407.58"/>
<polygon fill="#63b8ff" stroke="#63b8ff" points="281.37,-387.37 270.91,-389.03 280.12,-394.26 281.37,-387.37"/>
</a>
</g>
</g>
<!-- Node71 -->
<g id="Node000071" class="node">
<title>Node71</title>
<g id="a_Node000071"><a xlink:href="class_p4_1_1_indexed_location.html" target="_top" xlink:title="Interface for locations that support an index operation.">
<polygon fill="#fff0f0" stroke="red" points="480,-389 366,-389 366,-370 480,-370 480,-389"/>
<text text-anchor="middle" x="423" y="-377" font-family="Helvetica,sans-Serif" font-size="10.00">P4::IndexedLocation</text>
</a>
</g>
</g>
<!-- Node69&#45;&gt;Node71 -->
<g id="edge35_Node000069_Node000071" class="edge">
<title>Node69&#45;&gt;Node71</title>
<g id="a_edge35_Node000069_Node000071"><a xlink:title=" ">
<path fill="none" stroke="#63b8ff" d="M284.35,-379.5C310.61,-379.5 340.53,-379.5 365.75,-379.5"/>
<polygon fill="#63b8ff" stroke="#63b8ff" points="284.11,-376 274.11,-379.5 284.11,-383 284.11,-376"/>
</a>
</g>
</g>
<!-- Node74 -->
<g id="Node000074" class="node">
<title>Node74</title>
<g id="a_Node000074"><a xlink:href="class_p4_1_1_with_fields_location.html" target="_top" xlink:title="Base class for location sets that contain fields.">
<polygon fill="#fff0f0" stroke="red" points="486.5,-352 359.5,-352 359.5,-333 486.5,-333 486.5,-352"/>
<text text-anchor="middle" x="423" y="-340" font-family="Helvetica,sans-Serif" font-size="10.00">P4::WithFieldsLocation</text>
</a>
</g>
</g>
<!-- Node69&#45;&gt;Node74 -->
<g id="edge36_Node000069_Node000074" class="edge">
<title>Node69&#45;&gt;Node74</title>
<g id="a_edge36_Node000069_Node000074"><a xlink:title=" ">
<path fill="none" stroke="#63b8ff" d="M281.09,-368.12C309.38,-362.98 342.44,-356.97 369.42,-352.06"/>
<polygon fill="#63b8ff" stroke="#63b8ff" points="280.12,-364.74 270.91,-369.97 281.37,-371.63 280.12,-364.74"/>
</a>
</g>
</g>
<!-- Node79 -->
<g id="Node000079" class="node">
<title>Node79</title>
<g id="a_Node000079"><a xlink:href="class_p4_1_1_scalar_value.html" target="_top" xlink:title=" ">
<polygon fill="white" stroke="orangered" points="469,-296 377,-296 377,-277 469,-277 469,-296"/>
<text text-anchor="middle" x="423" y="-284" font-family="Helvetica,sans-Serif" font-size="10.00">P4::ScalarValue</text>
</a>
</g>
</g>
<!-- Node78&#45;&gt;Node79 -->
<g id="edge40_Node000078_Node000079" class="edge">
<title>Node78&#45;&gt;Node79</title>
<g id="a_edge40_Node000078_Node000079"><a xlink:title=" ">
<path fill="none" stroke="#63b8ff" d="M281.4,-274.06C312.26,-276.79 348.74,-280.02 376.8,-282.5"/>
<polygon fill="#63b8ff" stroke="#63b8ff" points="281.44,-270.55 271.17,-273.16 280.82,-277.53 281.44,-270.55"/>
</a>
</g>
</g>
<!-- Node84 -->
<g id="Node000084" class="node">
<title>Node84</title>
<g id="a_Node000084"><a xlink:href="class_p4_1_1_symbolic_array.html" target="_top" xlink:title=" ">
<polygon fill="white" stroke="#bfbfbf" points="476,-259 370,-259 370,-240 476,-240 476,-259"/>
<text text-anchor="middle" x="423" y="-247" font-family="Helvetica,sans-Serif" font-size="10.00">P4::SymbolicArray</text>
</a>
</g>
</g>
<!-- Node78&#45;&gt;Node84 -->
<g id="edge41_Node000078_Node000084" class="edge">
<title>Node78&#45;&gt;Node84</title>
<g id="a_edge41_Node000078_Node000084"><a xlink:title=" ">
<path fill="none" stroke="#63b8ff" d="M281.4,-262.63C309.79,-259.98 342.93,-256.88 369.9,-254.36"/>
<polygon fill="#63b8ff" stroke="#63b8ff" points="280.8,-259.17 271.17,-263.58 281.45,-266.14 280.8,-259.17"/>
</a>
</g>
</g>
</g>
</svg>
