<?xml version="1.0" encoding="UTF-8" standalone="no"?>
<!DOCTYPE svg PUBLIC "-//W3C//DTD SVG 1.1//EN"
 "http://www.w3.org/Graphics/SVG/1.1/DTD/svg11.dtd">
<!-- Generated by graphviz version 2.43.0 (0)
 -->
<!-- Title: P4::EBPF::IHasWidth Pages: 1 -->
<svg width="720pt" height="286pt"
 viewBox="0.00 0.00 720.00 286.00" xmlns="http://www.w3.org/2000/svg" xmlns:xlink="http://www.w3.org/1999/xlink">
<g id="graph0" class="graph" transform="scale(1 1) rotate(0) translate(4 282)">
<title>P4::EBPF::IHasWidth</title>
<!-- Node1 -->
<g id="Node000001" class="node">
<title>Node1</title>
<g id="a_Node000001"><a xlink:title=" ">
<polygon fill="#999999" stroke="#666666" points="353,-148 238,-148 238,-129 353,-129 353,-148"/>
<text text-anchor="middle" x="295.5" y="-136" font-family="Helvetica,sans-Serif" font-size="10.00">P4::EBPF::IHasWidth</text>
</a>
</g>
</g>
<!-- Node4 -->
<g id="Node000004" class="node">
<title>Node4</title>
<g id="a_Node000004"><a xlink:href="class_p4_1_1_e_b_p_f_1_1_e_b_p_f_bool_type.html" target="_top" xlink:title=" ">
<polygon fill="white" stroke="#bfbfbf" points="526.5,-278 392.5,-278 392.5,-259 526.5,-259 526.5,-278"/>
<text text-anchor="middle" x="459.5" y="-266" font-family="Helvetica,sans-Serif" font-size="10.00">P4::EBPF::EBPFBoolType</text>
</a>
</g>
</g>
<!-- Node1&#45;&gt;Node4 -->
<g id="edge3_Node000001_Node000004" class="edge">
<title>Node1&#45;&gt;Node4</title>
<g id="a_edge3_Node000001_Node000004"><a xlink:title=" ">
<path fill="none" stroke="#63b8ff" d="M306.62,-156.88C321.39,-181.94 351.25,-226.47 389,-250.5 394.36,-253.91 400.35,-256.68 406.49,-258.93"/>
<polygon fill="#63b8ff" stroke="#63b8ff" points="309.56,-154.96 301.55,-148.02 303.48,-158.44 309.56,-154.96"/>
</a>
</g>
</g>
<!-- Node6 -->
<g id="Node000006" class="node">
<title>Node6</title>
<g id="a_Node000006"><a xlink:href="class_p4_1_1_e_b_p_f_1_1_e_b_p_f_enum_type.html" target="_top" xlink:title=" ">
<polygon fill="white" stroke="#bfbfbf" points="529.5,-241 389.5,-241 389.5,-222 529.5,-222 529.5,-241"/>
<text text-anchor="middle" x="459.5" y="-229" font-family="Helvetica,sans-Serif" font-size="10.00">P4::EBPF::EBPFEnumType</text>
</a>
</g>
</g>
<!-- Node1&#45;&gt;Node6 -->
<g id="edge5_Node000001_Node000006" class="edge">
<title>Node1&#45;&gt;Node6</title>
<g id="a_edge5_Node000001_Node000006"><a xlink:title=" ">
<path fill="none" stroke="#63b8ff" d="M312.61,-155.25C329.94,-172.33 359.07,-198.4 389,-213.5 395.68,-216.87 403.04,-219.65 410.4,-221.93"/>
<polygon fill="#63b8ff" stroke="#63b8ff" points="315.05,-152.74 305.51,-148.11 310.08,-157.67 315.05,-152.74"/>
</a>
</g>
</g>
<!-- Node8 -->
<g id="Node000008" class="node">
<title>Node8</title>
<g id="a_Node000008"><a xlink:href="class_p4_1_1_e_b_p_f_1_1_e_b_p_f_error_type.html" target="_top" xlink:title=" ">
<polygon fill="white" stroke="#bfbfbf" points="527,-204 392,-204 392,-185 527,-185 527,-204"/>
<text text-anchor="middle" x="459.5" y="-192" font-family="Helvetica,sans-Serif" font-size="10.00">P4::EBPF::EBPFErrorType</text>
</a>
</g>
</g>
<!-- Node1&#45;&gt;Node8 -->
<g id="edge7_Node000001_Node000008" class="edge">
<title>Node1&#45;&gt;Node8</title>
<g id="a_edge7_Node000001_Node000008"><a xlink:title=" ">
<path fill="none" stroke="#63b8ff" d="M327.61,-151.97C345.4,-159.42 368.25,-168.54 389,-175.5 399.08,-178.88 410.13,-182.11 420.39,-184.92"/>
<polygon fill="#63b8ff" stroke="#63b8ff" points="328.87,-148.7 318.29,-148.03 326.14,-155.15 328.87,-148.7"/>
</a>
</g>
</g>
<!-- Node10 -->
<g id="Node000010" class="node">
<title>Node10</title>
<g id="a_Node000010"><a xlink:href="class_p4_1_1_e_b_p_f_1_1_e_b_p_f_scalar_type.html" target="_top" xlink:title=" ">
<polygon fill="white" stroke="#bfbfbf" points="530,-167 389,-167 389,-148 530,-148 530,-167"/>
<text text-anchor="middle" x="459.5" y="-155" font-family="Helvetica,sans-Serif" font-size="10.00">P4::EBPF::EBPFScalarType</text>
</a>
</g>
</g>
<!-- Node1&#45;&gt;Node10 -->
<g id="edge9_Node000001_Node000010" class="edge">
<title>Node1&#45;&gt;Node10</title>
<g id="a_edge9_Node000001_Node000010"><a xlink:title=" ">
<path fill="none" stroke="#63b8ff" d="M363.28,-146.33C371.69,-147.32 380.31,-148.33 388.76,-149.32"/>
<polygon fill="#63b8ff" stroke="#63b8ff" points="363.5,-142.83 353.16,-145.15 362.68,-149.79 363.5,-142.83"/>
</a>
</g>
</g>
<!-- Node13 -->
<g id="Node000013" class="node">
<title>Node13</title>
<g id="a_Node000013"><a xlink:href="class_p4_1_1_e_b_p_f_1_1_e_b_p_f_stack_type.html" target="_top" xlink:title=" ">
<polygon fill="white" stroke="#bfbfbf" points="528.5,-130 390.5,-130 390.5,-111 528.5,-111 528.5,-130"/>
<text text-anchor="middle" x="459.5" y="-118" font-family="Helvetica,sans-Serif" font-size="10.00">P4::EBPF::EBPFStackType</text>
</a>
</g>
</g>
<!-- Node1&#45;&gt;Node13 -->
<g id="edge12_Node000001_Node000013" class="edge">
<title>Node1&#45;&gt;Node13</title>
<g id="a_edge12_Node000001_Node000013"><a xlink:title=" ">
<path fill="none" stroke="#63b8ff" d="M363.19,-131.09C372.19,-130.09 381.43,-129.06 390.46,-128.06"/>
<polygon fill="#63b8ff" stroke="#63b8ff" points="362.71,-127.62 353.16,-132.2 363.49,-134.58 362.71,-127.62"/>
</a>
</g>
</g>
<!-- Node14 -->
<g id="Node000014" class="node">
<title>Node14</title>
<g id="a_Node000014"><a xlink:href="class_p4_1_1_e_b_p_f_1_1_e_b_p_f_struct_type.html" target="_top" xlink:title="Also represents headers and unions.">
<polygon fill="white" stroke="#666666" points="529.5,-93 389.5,-93 389.5,-74 529.5,-74 529.5,-93"/>
<text text-anchor="middle" x="459.5" y="-81" font-family="Helvetica,sans-Serif" font-size="10.00">P4::EBPF::EBPFStructType</text>
</a>
</g>
</g>
<!-- Node1&#45;&gt;Node14 -->
<g id="edge13_Node000001_Node000014" class="edge">
<title>Node1&#45;&gt;Node14</title>
<g id="a_edge13_Node000001_Node000014"><a xlink:title=" ">
<path fill="none" stroke="#63b8ff" d="M327.58,-124.92C345.36,-117.44 368.2,-108.32 389,-101.5 398.36,-98.43 408.56,-95.54 418.19,-93.01"/>
<polygon fill="#63b8ff" stroke="#63b8ff" points="326.1,-121.75 318.26,-128.88 328.84,-128.19 326.1,-121.75"/>
</a>
</g>
</g>
<!-- Node16 -->
<g id="Node000016" class="node">
<title>Node16</title>
<g id="a_Node000016"><a xlink:href="class_p4_1_1_e_b_p_f_1_1_e_b_p_f_type_name.html" target="_top" xlink:title="This should not always implement IHasWidth, but it may...">
<polygon fill="white" stroke="#666666" points="529.5,-56 389.5,-56 389.5,-37 529.5,-37 529.5,-56"/>
<text text-anchor="middle" x="459.5" y="-44" font-family="Helvetica,sans-Serif" font-size="10.00">P4::EBPF::EBPFTypeName</text>
</a>
</g>
</g>
<!-- Node1&#45;&gt;Node16 -->
<g id="edge15_Node000001_Node000016" class="edge">
<title>Node1&#45;&gt;Node16</title>
<g id="a_edge15_Node000001_Node000016"><a xlink:title=" ">
<path fill="none" stroke="#63b8ff" d="M312.93,-121.71C330.33,-104.86 359.34,-79.35 389,-64.5 395.69,-61.15 403.06,-58.39 410.42,-56.11"/>
<polygon fill="#63b8ff" stroke="#63b8ff" points="310.44,-119.25 305.79,-128.77 315.36,-124.22 310.44,-119.25"/>
</a>
</g>
</g>
<!-- Node17 -->
<g id="Node000017" class="node">
<title>Node17</title>
<g id="a_Node000017"><a xlink:href="class_p4_1_1_u_b_p_f_1_1_u_b_p_f_list_type.html" target="_top" xlink:title=" ">
<polygon fill="white" stroke="#bfbfbf" points="525.5,-19 393.5,-19 393.5,0 525.5,0 525.5,-19"/>
<text text-anchor="middle" x="459.5" y="-7" font-family="Helvetica,sans-Serif" font-size="10.00">P4::UBPF::UBPFListType</text>
</a>
</g>
</g>
<!-- Node1&#45;&gt;Node17 -->
<g id="edge16_Node000001_Node000017" class="edge">
<title>Node1&#45;&gt;Node17</title>
<g id="a_edge16_Node000001_Node000017"><a xlink:title=" ">
<path fill="none" stroke="#63b8ff" d="M306.88,-119.92C321.78,-95.01 351.59,-51.2 389,-27.5 394.37,-24.1 400.36,-21.34 406.51,-19.1"/>
<polygon fill="#63b8ff" stroke="#63b8ff" points="303.75,-118.34 301.76,-128.74 309.81,-121.85 303.75,-118.34"/>
</a>
</g>
</g>
<!-- Node2 -->
<g id="Node000002" class="node">
<title>Node2</title>
<g id="a_Node000002"><a xlink:href="class_p4_1_1_i_castable.html" target="_top" xlink:title=" ">
<polygon fill="white" stroke="#666666" points="202,-148 122,-148 122,-129 202,-129 202,-148"/>
<text text-anchor="middle" x="162" y="-136" font-family="Helvetica,sans-Serif" font-size="10.00">P4::ICastable</text>
</a>
</g>
</g>
<!-- Node2&#45;&gt;Node1 -->
<g id="edge1_Node000001_Node000002" class="edge">
<title>Node2&#45;&gt;Node1</title>
<g id="a_edge1_Node000001_Node000002"><a xlink:title=" ">
<path fill="none" stroke="#63b8ff" d="M212.36,-138.5C220.66,-138.5 229.32,-138.5 237.79,-138.5"/>
<polygon fill="#63b8ff" stroke="#63b8ff" points="212.1,-135 202.1,-138.5 212.1,-142 212.1,-135"/>
</a>
</g>
</g>
<!-- Node3 -->
<g id="Node000003" class="node">
<title>Node3</title>
<g id="a_Node000003"><a xlink:href="struct_p4_1_1_r_t_t_i_1_1_base.html" target="_top" xlink:title=" ">
<polygon fill="white" stroke="#bfbfbf" points="86,-148 0,-148 0,-129 86,-129 86,-148"/>
<text text-anchor="middle" x="43" y="-136" font-family="Helvetica,sans-Serif" font-size="10.00">P4::RTTI::Base</text>
</a>
</g>
</g>
<!-- Node3&#45;&gt;Node2 -->
<g id="edge2_Node000002_Node000003" class="edge">
<title>Node3&#45;&gt;Node2</title>
<g id="a_edge2_Node000002_Node000003"><a xlink:title=" ">
<path fill="none" stroke="#63b8ff" d="M96.25,-138.5C104.88,-138.5 113.7,-138.5 121.94,-138.5"/>
<polygon fill="#63b8ff" stroke="#63b8ff" points="96.24,-135 86.24,-138.5 96.24,-142 96.24,-135"/>
</a>
</g>
</g>
<!-- Node5 -->
<g id="Node000005" class="node">
<title>Node5</title>
<g id="a_Node000005"><a xlink:href="class_p4_1_1_u_b_p_f_1_1_u_b_p_f_bool_type.html" target="_top" xlink:title=" ">
<polygon fill="white" stroke="#bfbfbf" points="707.5,-278 570.5,-278 570.5,-259 707.5,-259 707.5,-278"/>
<text text-anchor="middle" x="639" y="-266" font-family="Helvetica,sans-Serif" font-size="10.00">P4::UBPF::UBPFBoolType</text>
</a>
</g>
</g>
<!-- Node4&#45;&gt;Node5 -->
<g id="edge4_Node000004_Node000005" class="edge">
<title>Node4&#45;&gt;Node5</title>
<g id="a_edge4_Node000004_Node000005"><a xlink:title=" ">
<path fill="none" stroke="#63b8ff" d="M536.76,-268.5C547.94,-268.5 559.38,-268.5 570.37,-268.5"/>
<polygon fill="#63b8ff" stroke="#63b8ff" points="536.59,-265 526.59,-268.5 536.59,-272 536.59,-265"/>
</a>
</g>
</g>
<!-- Node7 -->
<g id="Node000007" class="node">
<title>Node7</title>
<g id="a_Node000007"><a xlink:href="class_p4_1_1_u_b_p_f_1_1_u_b_p_f_enum_type.html" target="_top" xlink:title=" ">
<polygon fill="white" stroke="#bfbfbf" points="710.5,-241 567.5,-241 567.5,-222 710.5,-222 710.5,-241"/>
<text text-anchor="middle" x="639" y="-229" font-family="Helvetica,sans-Serif" font-size="10.00">P4::UBPF::UBPFEnumType</text>
</a>
</g>
</g>
<!-- Node6&#45;&gt;Node7 -->
<g id="edge6_Node000006_Node000007" class="edge">
<title>Node6&#45;&gt;Node7</title>
<g id="a_edge6_Node000006_Node000007"><a xlink:title=" ">
<path fill="none" stroke="#63b8ff" d="M539.87,-231.5C549.01,-231.5 558.29,-231.5 567.3,-231.5"/>
<polygon fill="#63b8ff" stroke="#63b8ff" points="539.63,-228 529.63,-231.5 539.63,-235 539.63,-228"/>
</a>
</g>
</g>
<!-- Node9 -->
<g id="Node000009" class="node">
<title>Node9</title>
<g id="a_Node000009"><a xlink:href="class_p4_1_1_u_b_p_f_1_1_u_b_p_f_error_type.html" target="_top" xlink:title=" ">
<polygon fill="white" stroke="#bfbfbf" points="708,-204 570,-204 570,-185 708,-185 708,-204"/>
<text text-anchor="middle" x="639" y="-192" font-family="Helvetica,sans-Serif" font-size="10.00">P4::UBPF::UBPFErrorType</text>
</a>
</g>
</g>
<!-- Node8&#45;&gt;Node9 -->
<g id="edge8_Node000008_Node000009" class="edge">
<title>Node8&#45;&gt;Node9</title>
<g id="a_edge8_Node000008_Node000009"><a xlink:title=" ">
<path fill="none" stroke="#63b8ff" d="M537.36,-194.5C548.17,-194.5 559.22,-194.5 569.84,-194.5"/>
<polygon fill="#63b8ff" stroke="#63b8ff" points="537.1,-191 527.1,-194.5 537.1,-198 537.1,-191"/>
</a>
</g>
</g>
<!-- Node11 -->
<g id="Node000011" class="node">
<title>Node11</title>
<g id="a_Node000011"><a xlink:href="class_p4_1_1_u_b_p_f_1_1_u_b_p_f_extern_type.html" target="_top" xlink:title=" ">
<polygon fill="white" stroke="#bfbfbf" points="712,-167 566,-167 566,-148 712,-148 712,-167"/>
<text text-anchor="middle" x="639" y="-155" font-family="Helvetica,sans-Serif" font-size="10.00">P4::UBPF::UBPFExternType</text>
</a>
</g>
</g>
<!-- Node10&#45;&gt;Node11 -->
<g id="edge10_Node000010_Node000011" class="edge">
<title>Node10&#45;&gt;Node11</title>
<g id="a_edge10_Node000010_Node000011"><a xlink:title=" ">
<path fill="none" stroke="#63b8ff" d="M540.15,-157.5C548.74,-157.5 557.44,-157.5 565.93,-157.5"/>
<polygon fill="#63b8ff" stroke="#63b8ff" points="540.14,-154 530.14,-157.5 540.14,-161 540.14,-154"/>
</a>
</g>
</g>
<!-- Node12 -->
<g id="Node000012" class="node">
<title>Node12</title>
<g id="a_Node000012"><a xlink:href="class_p4_1_1_u_b_p_f_1_1_u_b_p_f_scalar_type.html" target="_top" xlink:title=" ">
<polygon fill="white" stroke="#bfbfbf" points="711,-130 567,-130 567,-111 711,-111 711,-130"/>
<text text-anchor="middle" x="639" y="-118" font-family="Helvetica,sans-Serif" font-size="10.00">P4::UBPF::UBPFScalarType</text>
</a>
</g>
</g>
<!-- Node10&#45;&gt;Node12 -->
<g id="edge11_Node000010_Node000012" class="edge">
<title>Node10&#45;&gt;Node12</title>
<g id="a_edge11_Node000010_Node000012"><a xlink:title=" ">
<path fill="none" stroke="#63b8ff" d="M516.07,-145.92C540.53,-140.82 568.91,-134.9 592.14,-130.06"/>
<polygon fill="#63b8ff" stroke="#63b8ff" points="515.29,-142.5 506.21,-147.97 516.71,-149.36 515.29,-142.5"/>
</a>
</g>
</g>
<!-- Node15 -->
<g id="Node000015" class="node">
<title>Node15</title>
<g id="a_Node000015"><a xlink:href="class_p4_1_1_u_b_p_f_1_1_u_b_p_f_struct_type.html" target="_top" xlink:title=" ">
<polygon fill="white" stroke="#bfbfbf" points="710.5,-93 567.5,-93 567.5,-74 710.5,-74 710.5,-93"/>
<text text-anchor="middle" x="639" y="-81" font-family="Helvetica,sans-Serif" font-size="10.00">P4::UBPF::UBPFStructType</text>
</a>
</g>
</g>
<!-- Node14&#45;&gt;Node15 -->
<g id="edge14_Node000014_Node000015" class="edge">
<title>Node14&#45;&gt;Node15</title>
<g id="a_edge14_Node000014_Node000015"><a xlink:title=" ">
<path fill="none" stroke="#63b8ff" d="M539.87,-83.5C549.01,-83.5 558.29,-83.5 567.3,-83.5"/>
<polygon fill="#63b8ff" stroke="#63b8ff" points="539.63,-80 529.63,-83.5 539.63,-87 539.63,-80"/>
</a>
</g>
</g>
</g>
</svg>
