<?xml version="1.0" encoding="UTF-8" standalone="no"?>
<!DOCTYPE svg PUBLIC "-//W3C//DTD SVG 1.1//EN"
 "http://www.w3.org/Graphics/SVG/1.1/DTD/svg11.dtd">
<!-- Generated by graphviz version 2.43.0 (0)
 -->
<!-- Title: EBPF::CodeBuilder Pages: 1 -->
<svg width="140pt" height="137pt"
 viewBox="0.00 0.00 140.00 137.00" xmlns="http://www.w3.org/2000/svg" xmlns:xlink="http://www.w3.org/1999/xlink">
<g id="graph0" class="graph" transform="scale(1 1) rotate(0) translate(4 133)">
<title>EBPF::CodeBuilder</title>
<!-- Node1 -->
<g id="Node000001" class="node">
<title>Node1</title>
<g id="a_Node000001"><a xlink:title=" ">
<polygon fill="#999999" stroke="#666666" points="119,-74 13,-74 13,-55 119,-55 119,-74"/>
<text text-anchor="middle" x="66" y="-62" font-family="Helvetica,sans-Serif" font-size="10.00">EBPF::CodeBuilder</text>
</a>
</g>
</g>
<!-- Node3 -->
<g id="Node000003" class="node">
<title>Node3</title>
<g id="a_Node000003"><a xlink:href="class_u_b_p_f_1_1_ubpf_code_builder.html" target="_top" xlink:title=" ">
<polygon fill="white" stroke="#bfbfbf" points="131.5,-19 0.5,-19 0.5,0 131.5,0 131.5,-19"/>
<text text-anchor="middle" x="66" y="-7" font-family="Helvetica,sans-Serif" font-size="10.00">UBPF::UbpfCodeBuilder</text>
</a>
</g>
</g>
<!-- Node1&#45;&gt;Node3 -->
<g id="edge2_Node000001_Node000003" class="edge">
<title>Node1&#45;&gt;Node3</title>
<g id="a_edge2_Node000001_Node000003"><a xlink:title=" ">
<path fill="none" stroke="#63b8ff" d="M66,-44.66C66,-35.93 66,-25.99 66,-19.09"/>
<polygon fill="#63b8ff" stroke="#63b8ff" points="62.5,-44.75 66,-54.75 69.5,-44.75 62.5,-44.75"/>
</a>
</g>
</g>
<!-- Node2 -->
<g id="Node000002" class="node">
<title>Node2</title>
<g id="a_Node000002"><a xlink:href="class_util_1_1_source_code_builder.html" target="_top" xlink:title=" ">
<polygon fill="white" stroke="#bfbfbf" points="132,-129 0,-129 0,-110 132,-110 132,-129"/>
<text text-anchor="middle" x="66" y="-117" font-family="Helvetica,sans-Serif" font-size="10.00">Util::SourceCodeBuilder</text>
</a>
</g>
</g>
<!-- Node2&#45;&gt;Node1 -->
<g id="edge1_Node000001_Node000002" class="edge">
<title>Node2&#45;&gt;Node1</title>
<g id="a_edge1_Node000001_Node000002"><a xlink:title=" ">
<path fill="none" stroke="#63b8ff" d="M66,-99.66C66,-90.93 66,-80.99 66,-74.09"/>
<polygon fill="#63b8ff" stroke="#63b8ff" points="62.5,-99.75 66,-109.75 69.5,-99.75 62.5,-99.75"/>
</a>
</g>
</g>
</g>
</svg>
