<?xml version="1.0" encoding="UTF-8" standalone="no"?>
<!DOCTYPE svg PUBLIC "-//W3C//DTD SVG 1.1//EN"
 "http://www.w3.org/Graphics/SVG/1.1/DTD/svg11.dtd">
<!-- Generated by graphviz version 2.43.0 (0)
 -->
<!-- Title: EBPF::EBPFProgram Pages: 1 -->
<!--zoomable 156 -->

<svg id="main" version="1.1" xmlns="http://www.w3.org/2000/svg" xmlns:xlink="http://www.w3.org/1999/xlink" xml:space="preserve" onload="init(evt)">
<style type="text/css"><![CDATA[
.node, .edge {opacity: 0.7;}
.node.selected, .edge.selected {opacity: 1;}
.edge:hover path { stroke: red; }
.edge:hover polygon { stroke: red; fill: red; }
]]></style>

<defs>
  <circle id="rim" cx="0" cy="0" r="7"/>
  <circle id="rim2" cx="0" cy="0" r="3.5"/>
  <g id="zoomPlus">
    <use xlink:href="#rim" fill="#404040"><set attributeName="fill" to="#808080" begin="zoomplus.mouseover" end="zoomplus.mouseout"/></use>
    <path d="M-4,0h8M0,-4v8" fill="none" stroke="white" stroke-width="1.5" pointer-events="none"/>
  </g>
  <g id="zoomMin">
    <use xlink:href="#rim" fill="#404040"><set attributeName="fill" to="#808080" begin="zoomminus.mouseover" end="zoomminus.mouseout"/></use>
    <path d="M-4,0h8" fill="none" stroke="white" stroke-width="1.5" pointer-events="none"/>
  </g>
  <g id="arrowUp" transform="translate(30 24)">
    <use xlink:href="#rim"/>
    <path pointer-events="none" fill="none" stroke="white" stroke-width="1.5" d="M0,-3.0v7 M-2.5,-0.5L0,-3.0L2.5,-0.5"/>
  </g>
  <g id="arrowRight" transform="rotate(90) translate(36 -43)">
    <use xlink:href="#rim"/>
    <path pointer-events="none" fill="none" stroke="white" stroke-width="1.5" d="M0,-3.0v7 M-2.5,-0.5L0,-3.0L2.5,-0.5"/>
  </g>
  <g id="arrowDown" transform="rotate(180) translate(-30 -48)">
    <use xlink:href="#rim"/>
    <path pointer-events="none" fill="none" stroke="white" stroke-width="1.5" d="M0,-3.0v7 M-2.5,-0.5L0,-3.0L2.5,-0.5"/>
  </g>
  <g id="arrowLeft" transform="rotate(270) translate(-36 17)">
    <use xlink:href="#rim"/>
    <path pointer-events="none" fill="none" stroke="white" stroke-width="1.5" d="M0,-3.0v7 M-2.5,-0.5L0,-3.0L2.5,-0.5"/>
  </g>
  <g id="resetDef">
    <use xlink:href="#rim2" fill="#404040"><set attributeName="fill" to="#808080" begin="reset.mouseover" end="reset.mouseout"/></use>
  </g>
</defs>
<script type="application/ecmascript">
var viewWidth = 1190;
var viewHeight = 156;
var sectionId = 'dynsection-0';
</script>
<script type="application/ecmascript" xlink:href="svg.min.js"/>
<svg id="graph" class="graph">
<g id="viewport">
<title>EBPF::EBPFProgram</title>
<!-- Node1 -->
<g id="Node000001" class="node">
<title>Node1</title>
<g id="a_Node000001"><a xlink:title=" ">
<polygon fill="#999999" stroke="#666666" points="454,-56 341,-56 341,-37 454,-37 454,-56"/>
<text text-anchor="middle" x="397.5" y="-44" font-family="Helvetica,sans-Serif" font-size="10.00">EBPF::EBPFProgram</text>
</a>
</g>
</g>
<!-- Node5 -->
<g id="Node000005" class="node">
<title>Node5</title>
<g id="a_Node000005"><a xlink:href="class_e_b_p_f_1_1_e_b_p_f_pipeline.html" target="_top" xlink:title="EBPFPipeline represents a single eBPF program in the TC/XDP hook.">
<polygon fill="white" stroke="#666666" points="610.5,-93 500.5,-93 500.5,-74 610.5,-74 610.5,-93"/>
<text text-anchor="middle" x="555.5" y="-81" font-family="Helvetica,sans-Serif" font-size="10.00">EBPF::EBPFPipeline</text>
</a>
</g>
</g>
<!-- Node1&#45;&gt;Node5 -->
<g id="edge4_Node000001_Node000005" class="edge">
<title>Node1&#45;&gt;Node5</title>
<g id="a_edge4_Node000001_Node000005"><a xlink:title=" ">
<path fill="none" stroke="#63b8ff" d="M448.49,-58.36C469.72,-63.39 494.14,-69.18 514.19,-73.94"/>
<polygon fill="#63b8ff" stroke="#63b8ff" points="449.21,-54.93 438.67,-56.03 447.6,-61.74 449.21,-54.93"/>
</a>
</g>
</g>
<!-- Node14 -->
<g id="Node000014" class="node">
<title>Node14</title>
<g id="a_Node000014"><a xlink:href="class_e_b_p_f_1_1_x_d_p_help_program.html" target="_top" xlink:title=" ">
<polygon fill="white" stroke="#bfbfbf" points="621,-56 490,-56 490,-37 621,-37 621,-56"/>
<text text-anchor="middle" x="555.5" y="-44" font-family="Helvetica,sans-Serif" font-size="10.00">EBPF::XDPHelpProgram</text>
</a>
</g>
</g>
<!-- Node1&#45;&gt;Node14 -->
<g id="edge13_Node000001_Node000014" class="edge">
<title>Node1&#45;&gt;Node14</title>
<g id="a_edge13_Node000001_Node000014"><a xlink:title=" ">
<path fill="none" stroke="#63b8ff" d="M464.54,-46.5C472.96,-46.5 481.58,-46.5 489.98,-46.5"/>
<polygon fill="#63b8ff" stroke="#63b8ff" points="464.38,-43 454.38,-46.5 464.38,-50 464.38,-43"/>
</a>
</g>
</g>
<!-- Node15 -->
<g id="Node000015" class="node">
<title>Node15</title>
<g id="a_Node000015"><a xlink:href="class_u_b_p_f_1_1_u_b_p_f_program.html" target="_top" xlink:title=" ">
<polygon fill="white" stroke="#bfbfbf" points="613.5,-19 497.5,-19 497.5,0 613.5,0 613.5,-19"/>
<text text-anchor="middle" x="555.5" y="-7" font-family="Helvetica,sans-Serif" font-size="10.00">UBPF::UBPFProgram</text>
</a>
</g>
</g>
<!-- Node1&#45;&gt;Node15 -->
<g id="edge14_Node000001_Node000015" class="edge">
<title>Node1&#45;&gt;Node15</title>
<g id="a_edge14_Node000001_Node000015"><a xlink:title=" ">
<path fill="none" stroke="#63b8ff" d="M448.49,-34.64C469.72,-29.61 494.14,-23.82 514.19,-19.06"/>
<polygon fill="#63b8ff" stroke="#63b8ff" points="447.6,-31.26 438.67,-36.97 449.21,-38.07 447.6,-31.26"/>
</a>
</g>
</g>
<!-- Node2 -->
<g id="Node000002" class="node">
<title>Node2</title>
<g id="a_Node000002"><a xlink:href="class_e_b_p_f_1_1_e_b_p_f_object.html" target="_top" xlink:title="Base class for EBPF objects.">
<polygon fill="white" stroke="#666666" points="305,-56 202,-56 202,-37 305,-37 305,-56"/>
<text text-anchor="middle" x="253.5" y="-44" font-family="Helvetica,sans-Serif" font-size="10.00">EBPF::EBPFObject</text>
</a>
</g>
</g>
<!-- Node2&#45;&gt;Node1 -->
<g id="edge1_Node000001_Node000002" class="edge">
<title>Node2&#45;&gt;Node1</title>
<g id="a_edge1_Node000001_Node000002"><a xlink:title=" ">
<path fill="none" stroke="#63b8ff" d="M315.46,-46.5C323.84,-46.5 332.41,-46.5 340.7,-46.5"/>
<polygon fill="#63b8ff" stroke="#63b8ff" points="315.36,-43 305.36,-46.5 315.36,-50 315.36,-43"/>
</a>
</g>
</g>
<!-- Node3 -->
<g id="Node000003" class="node">
<title>Node3</title>
<g id="a_Node000003"><a xlink:href="class_i_castable.html" target="_top" xlink:title=" ">
<polygon fill="white" stroke="#666666" points="166,-56 104,-56 104,-37 166,-37 166,-56"/>
<text text-anchor="middle" x="135" y="-44" font-family="Helvetica,sans-Serif" font-size="10.00">ICastable</text>
</a>
</g>
</g>
<!-- Node3&#45;&gt;Node2 -->
<g id="edge2_Node000002_Node000003" class="edge">
<title>Node3&#45;&gt;Node2</title>
<g id="a_edge2_Node000002_Node000003"><a xlink:title=" ">
<path fill="none" stroke="#63b8ff" d="M176.13,-46.5C184.41,-46.5 193.22,-46.5 201.81,-46.5"/>
<polygon fill="#63b8ff" stroke="#63b8ff" points="176,-43 166,-46.5 176,-50 176,-43"/>
</a>
</g>
</g>
<!-- Node4 -->
<g id="Node000004" class="node">
<title>Node4</title>
<g id="a_Node000004"><a xlink:href="struct_r_t_t_i_1_1_base.html" target="_top" xlink:title=" ">
<polygon fill="white" stroke="#bfbfbf" points="68,-56 0,-56 0,-37 68,-37 68,-56"/>
<text text-anchor="middle" x="34" y="-44" font-family="Helvetica,sans-Serif" font-size="10.00">RTTI::Base</text>
</a>
</g>
</g>
<!-- Node4&#45;&gt;Node3 -->
<g id="edge3_Node000003_Node000004" class="edge">
<title>Node4&#45;&gt;Node3</title>
<g id="a_edge3_Node000003_Node000004"><a xlink:title=" ">
<path fill="none" stroke="#63b8ff" d="M78.44,-46.5C86.95,-46.5 95.71,-46.5 103.68,-46.5"/>
<polygon fill="#63b8ff" stroke="#63b8ff" points="78.24,-43 68.24,-46.5 78.24,-50 78.24,-43"/>
</a>
</g>
</g>
<!-- Node6 -->
<g id="Node000006" class="node">
<title>Node6</title>
<g id="a_Node000006"><a xlink:href="class_e_b_p_f_1_1_e_b_p_f_egress_pipeline.html" target="_top" xlink:title=" ">
<polygon fill="white" stroke="#666666" points="801.5,-111 658.5,-111 658.5,-92 801.5,-92 801.5,-111"/>
<text text-anchor="middle" x="730" y="-99" font-family="Helvetica,sans-Serif" font-size="10.00">EBPF::EBPFEgressPipeline</text>
</a>
</g>
</g>
<!-- Node5&#45;&gt;Node6 -->
<g id="edge5_Node000005_Node000006" class="edge">
<title>Node5&#45;&gt;Node6</title>
<g id="a_edge5_Node000005_Node000006"><a xlink:title=" ">
<path fill="none" stroke="#63b8ff" d="M620.72,-90.2C632.98,-91.48 645.86,-92.82 658.3,-94.12"/>
<polygon fill="#63b8ff" stroke="#63b8ff" points="620.92,-86.7 610.61,-89.15 620.19,-93.66 620.92,-86.7"/>
</a>
</g>
</g>
<!-- Node9 -->
<g id="Node000009" class="node">
<title>Node9</title>
<g id="a_Node000009"><a xlink:href="class_e_b_p_f_1_1_e_b_p_f_ingress_pipeline.html" target="_top" xlink:title=" ">
<polygon fill="white" stroke="#666666" points="803,-74 657,-74 657,-55 803,-55 803,-74"/>
<text text-anchor="middle" x="730" y="-62" font-family="Helvetica,sans-Serif" font-size="10.00">EBPF::EBPFIngressPipeline</text>
</a>
</g>
</g>
<!-- Node5&#45;&gt;Node9 -->
<g id="edge8_Node000005_Node000009" class="edge">
<title>Node5&#45;&gt;Node9</title>
<g id="a_edge8_Node000005_Node000009"><a xlink:title=" ">
<path fill="none" stroke="#63b8ff" d="M620.74,-76.42C632.48,-75.13 644.79,-73.78 656.74,-72.46"/>
<polygon fill="#63b8ff" stroke="#63b8ff" points="620.16,-72.97 610.61,-77.54 620.93,-79.92 620.16,-72.97"/>
</a>
</g>
</g>
<!-- Node7 -->
<g id="Node000007" class="node">
<title>Node7</title>
<g id="a_Node000007"><a xlink:href="class_e_b_p_f_1_1_t_c_egress_pipeline.html" target="_top" xlink:title=" ">
<polygon fill="white" stroke="#bfbfbf" points="974.5,-148 844.5,-148 844.5,-129 974.5,-129 974.5,-148"/>
<text text-anchor="middle" x="909.5" y="-136" font-family="Helvetica,sans-Serif" font-size="10.00">EBPF::TCEgressPipeline</text>
</a>
</g>
</g>
<!-- Node6&#45;&gt;Node7 -->
<g id="edge6_Node000006_Node000007" class="edge">
<title>Node6&#45;&gt;Node7</title>
<g id="a_edge6_Node000006_Node000007"><a xlink:title=" ">
<path fill="none" stroke="#63b8ff" d="M786.57,-113.08C811.03,-118.18 839.41,-124.1 862.64,-128.94"/>
<polygon fill="#63b8ff" stroke="#63b8ff" points="787.21,-109.64 776.71,-111.03 785.79,-116.5 787.21,-109.64"/>
</a>
</g>
</g>
<!-- Node8 -->
<g id="Node000008" class="node">
<title>Node8</title>
<g id="a_Node000008"><a xlink:href="class_e_b_p_f_1_1_x_d_p_egress_pipeline.html" target="_top" xlink:title=" ">
<polygon fill="white" stroke="#bfbfbf" points="978.5,-111 840.5,-111 840.5,-92 978.5,-92 978.5,-111"/>
<text text-anchor="middle" x="909.5" y="-99" font-family="Helvetica,sans-Serif" font-size="10.00">EBPF::XDPEgressPipeline</text>
</a>
</g>
</g>
<!-- Node6&#45;&gt;Node8 -->
<g id="edge7_Node000006_Node000008" class="edge">
<title>Node6&#45;&gt;Node8</title>
<g id="a_edge7_Node000006_Node000008"><a xlink:title=" ">
<path fill="none" stroke="#63b8ff" d="M811.92,-101.5C821.44,-101.5 831.08,-101.5 840.39,-101.5"/>
<polygon fill="#63b8ff" stroke="#63b8ff" points="811.66,-98 801.66,-101.5 811.66,-105 811.66,-98"/>
</a>
</g>
</g>
<!-- Node10 -->
<g id="Node000010" class="node">
<title>Node10</title>
<g id="a_Node000010"><a xlink:href="class_e_b_p_f_1_1_t_c_ingress_pipeline.html" target="_top" xlink:title=" ">
<polygon fill="white" stroke="#bfbfbf" points="976,-74 843,-74 843,-55 976,-55 976,-74"/>
<text text-anchor="middle" x="909.5" y="-62" font-family="Helvetica,sans-Serif" font-size="10.00">EBPF::TCIngressPipeline</text>
</a>
</g>
</g>
<!-- Node9&#45;&gt;Node10 -->
<g id="edge9_Node000009_Node000010" class="edge">
<title>Node9&#45;&gt;Node10</title>
<g id="a_edge9_Node000009_Node000010"><a xlink:title=" ">
<path fill="none" stroke="#63b8ff" d="M813.45,-64.5C823.34,-64.5 833.33,-64.5 842.94,-64.5"/>
<polygon fill="#63b8ff" stroke="#63b8ff" points="813.2,-61 803.2,-64.5 813.2,-68 813.2,-61"/>
</a>
</g>
</g>
<!-- Node13 -->
<g id="Node000013" class="node">
<title>Node13</title>
<g id="a_Node000013"><a xlink:href="class_e_b_p_f_1_1_x_d_p_ingress_pipeline.html" target="_top" xlink:title=" ">
<polygon fill="white" stroke="#bfbfbf" points="980,-37 839,-37 839,-18 980,-18 980,-37"/>
<text text-anchor="middle" x="909.5" y="-25" font-family="Helvetica,sans-Serif" font-size="10.00">EBPF::XDPIngressPipeline</text>
</a>
</g>
</g>
<!-- Node9&#45;&gt;Node13 -->
<g id="edge12_Node000009_Node000013" class="edge">
<title>Node9&#45;&gt;Node13</title>
<g id="a_edge12_Node000009_Node000013"><a xlink:title=" ">
<path fill="none" stroke="#63b8ff" d="M786.57,-52.92C811.03,-47.82 839.41,-41.9 862.64,-37.06"/>
<polygon fill="#63b8ff" stroke="#63b8ff" points="785.79,-49.5 776.71,-54.97 787.21,-56.36 785.79,-49.5"/>
</a>
</g>
</g>
<!-- Node11 -->
<g id="Node000011" class="node">
<title>Node11</title>
<g id="a_Node000011"><a xlink:href="class_e_b_p_f_1_1_t_c_traffic_manager_for_x_d_p.html" target="_top" xlink:title=" ">
<polygon fill="white" stroke="#bfbfbf" points="1182,-92 1016,-92 1016,-73 1182,-73 1182,-92"/>
<text text-anchor="middle" x="1099" y="-80" font-family="Helvetica,sans-Serif" font-size="10.00">EBPF::TCTrafficManagerForXDP</text>
</a>
</g>
</g>
<!-- Node10&#45;&gt;Node11 -->
<g id="edge10_Node000010_Node000011" class="edge">
<title>Node10&#45;&gt;Node11</title>
<g id="a_edge10_Node000010_Node000011"><a xlink:title=" ">
<path fill="none" stroke="#63b8ff" d="M986.18,-71.77C995.99,-72.71 1006.07,-73.67 1015.97,-74.63"/>
<polygon fill="#63b8ff" stroke="#63b8ff" points="986.37,-68.27 976.08,-70.8 985.7,-75.24 986.37,-68.27"/>
</a>
</g>
</g>
<!-- Node12 -->
<g id="Node000012" class="node">
<title>Node12</title>
<g id="a_Node000012"><a xlink:href="class_t_c_1_1_t_c_ingress_pipeline_p_n_a.html" target="_top" xlink:title=" ">
<polygon fill="white" stroke="#bfbfbf" points="1169.5,-55 1028.5,-55 1028.5,-36 1169.5,-36 1169.5,-55"/>
<text text-anchor="middle" x="1099" y="-43" font-family="Helvetica,sans-Serif" font-size="10.00">TC::TCIngressPipelinePNA</text>
</a>
</g>
</g>
<!-- Node10&#45;&gt;Node12 -->
<g id="edge11_Node000010_Node000012" class="edge">
<title>Node10&#45;&gt;Node12</title>
<g id="a_edge11_Node000010_Node000012"><a xlink:title=" ">
<path fill="none" stroke="#63b8ff" d="M986.11,-56.84C1000.06,-55.42 1014.56,-53.96 1028.32,-52.56"/>
<polygon fill="#63b8ff" stroke="#63b8ff" points="985.67,-53.36 976.08,-57.85 986.38,-60.33 985.67,-53.36"/>
</a>
</g>
</g>
</g>
</svg>

<g id="navigator" transform="translate(0 0)" fill="#404254">
  <rect fill="#f2f5e9" fill-opacity="0.5" stroke="#606060" stroke-width=".5" x="0" y="0" width="60" height="60"/>
  <use id="zoomplus" xlink:href="#zoomPlus" x="17" y="9" onmousedown="handleZoom(evt,'in')"/>
  <use id="zoomminus" xlink:href="#zoomMin" x="42" y="9" onmousedown="handleZoom(evt,'out')"/>
  <use id="reset" xlink:href="#resetDef" x="30" y="36" onmousedown="handleReset()"/>
   <use id="arrowup" xlink:href="#arrowUp" x="0" y="0" onmousedown="handlePan(0,-1)"/>
  <use id="arrowright" xlink:href="#arrowRight" x="0" y="0" onmousedown="handlePan(1,0)"/>
  <use id="arrowdown" xlink:href="#arrowDown" x="0" y="0" onmousedown="handlePan(0,1)"/>
  <use id="arrowleft" xlink:href="#arrowLeft" x="0" y="0" onmousedown="handlePan(-1,0)"/>
</g>
<svg viewBox="0 0 15 15" width="100%" height="30px" preserveAspectRatio="xMaxYMin meet">
 <g id="arrow_out" transform="scale(0.3 0.3)">
  <a xlink:href="class_e_b_p_f_1_1_e_b_p_f_program__inherit__graph_org.svg" target="_base">
   <rect id="button" ry="5" rx="5" y="6" x="6" height="38" width="38"
        fill="#f2f5e9" fill-opacity="0.5" stroke="#606060" stroke-width="1.0"/>
   <path id="arrow"
     d="M 11.500037,31.436501 C 11.940474,20.09759 22.043105,11.32322 32.158766,21.979434 L 37.068811,17.246167 C 37.068811,17.246167 37.088388,32 37.088388,32 L 22.160133,31.978069 C 22.160133,31.978069 26.997745,27.140456 26.997745,27.140456 C 18.528582,18.264221 13.291696,25.230495 11.500037,31.436501 z"
     style="fill:#404040;"/>
  </a>
 </g>
</svg>

<style type='text/css'>
<![CDATA[
[data-mouse-over-selected='false'] { opacity: 0.7; }
[data-mouse-over-selected='true']  { opacity: 1.0; }
]]>
</style>
<script type="application/ecmascript"><![CDATA[
document.addEventListener('DOMContentLoaded', (event) => {
  highlightEdges();
  highlightAdjacentNodes();
});
]]></script>
</svg>
