<?xml version="1.0" encoding="UTF-8" standalone="no"?>
<!DOCTYPE svg PUBLIC "-//W3C//DTD SVG 1.1//EN"
 "http://www.w3.org/Graphics/SVG/1.1/DTD/svg11.dtd">
<!-- Generated by graphviz version 2.43.0 (0)
 -->
<!-- Title: P4::ResolutionContext Pages: 1 -->
<svg width="711pt" height="1572pt"
 viewBox="0.00 0.00 711.00 1572.00" xmlns="http://www.w3.org/2000/svg" xmlns:xlink="http://www.w3.org/1999/xlink">
<g id="graph0" class="graph" transform="scale(1 1) rotate(0) translate(4 1568)">
<title>P4::ResolutionContext</title>
<!-- Node1 -->
<g id="Node000001" class="node">
<title>Node1</title>
<g id="a_Node000001"><a xlink:title="Visitor mixin for looking up names in enclosing scopes from the Visitor::Context.">
<polygon fill="#999999" stroke="#666666" points="286,-740 161,-740 161,-721 286,-721 286,-740"/>
<text text-anchor="middle" x="223.5" y="-728" font-family="Helvetica,sans-Serif" font-size="10.00">P4::ResolutionContext</text>
</a>
</g>
</g>
<!-- Node4 -->
<g id="Node000004" class="node">
<title>Node4</title>
<g id="a_Node000004"><a xlink:href="class_p4_1_1_abstract_inliner.html" target="_top" xlink:title=" ">
<polygon fill="white" stroke="#bfbfbf" points="471.5,-1564 360.5,-1564 360.5,-1523 471.5,-1523 471.5,-1564"/>
<text text-anchor="start" x="368.5" y="-1552" font-family="Helvetica,sans-Serif" font-size="10.00">P4::AbstractInliner</text>
<text text-anchor="start" x="368.5" y="-1541" font-family="Helvetica,sans-Serif" font-size="10.00">&lt; ActionsInlineList,</text>
<text text-anchor="middle" x="416" y="-1530" font-family="Helvetica,sans-Serif" font-size="10.00"> AInlineWorkList &gt;</text>
</a>
</g>
</g>
<!-- Node1&#45;&gt;Node4 -->
<g id="edge3_Node000001_Node000004" class="edge">
<title>Node1&#45;&gt;Node4</title>
<g id="a_edge3_Node000001_Node000004"><a xlink:title=" ">
<path fill="none" stroke="#63b8ff" d="M224.17,-750.25C222.74,-859.96 221.13,-1393.79 322,-1514.5 331.65,-1526.05 345.83,-1533.07 360.23,-1537.32"/>
<polygon fill="#63b8ff" stroke="#63b8ff" points="227.67,-750.28 224.32,-740.23 220.67,-750.18 227.67,-750.28"/>
</a>
</g>
</g>
<!-- Node6 -->
<g id="Node000006" class="node">
<title>Node6</title>
<g id="a_Node000006"><a xlink:href="class_p4_1_1_abstract_inliner.html" target="_top" xlink:title=" ">
<polygon fill="white" stroke="#bfbfbf" points="489,-1505 343,-1505 343,-1464 489,-1464 489,-1505"/>
<text text-anchor="start" x="351" y="-1493" font-family="Helvetica,sans-Serif" font-size="10.00">P4::AbstractInliner</text>
<text text-anchor="start" x="351" y="-1482" font-family="Helvetica,sans-Serif" font-size="10.00">&lt; FunctionsInlineList,</text>
<text text-anchor="middle" x="416" y="-1471" font-family="Helvetica,sans-Serif" font-size="10.00"> FunctionsInlineWorkList &gt;</text>
</a>
</g>
</g>
<!-- Node1&#45;&gt;Node6 -->
<g id="edge5_Node000001_Node000006" class="edge">
<title>Node1&#45;&gt;Node6</title>
<g id="a_edge5_Node000001_Node000006"><a xlink:title=" ">
<path fill="none" stroke="#63b8ff" d="M224.42,-750.67C224.38,-856.14 229.28,-1343.59 322,-1454.5 327.66,-1461.27 334.85,-1466.52 342.73,-1470.6"/>
<polygon fill="#63b8ff" stroke="#63b8ff" points="227.92,-750.47 224.44,-740.46 220.92,-750.45 227.92,-750.47"/>
</a>
</g>
</g>
<!-- Node8 -->
<g id="Node000008" class="node">
<title>Node8</title>
<g id="a_Node000008"><a xlink:href="class_p4_1_1_abstract_inliner.html" target="_top" xlink:title=" ">
<polygon fill="white" stroke="#bfbfbf" points="498,-1445.5 334,-1445.5 334,-1415.5 498,-1415.5 498,-1445.5"/>
<text text-anchor="start" x="342" y="-1433.5" font-family="Helvetica,sans-Serif" font-size="10.00">P4::AbstractInliner</text>
<text text-anchor="middle" x="416" y="-1422.5" font-family="Helvetica,sans-Serif" font-size="10.00">&lt; InlineList, InlineSummary &gt;</text>
</a>
</g>
</g>
<!-- Node1&#45;&gt;Node8 -->
<g id="edge7_Node000001_Node000008" class="edge">
<title>Node1&#45;&gt;Node8</title>
<g id="a_edge7_Node000001_Node000008"><a xlink:title=" ">
<path fill="none" stroke="#63b8ff" d="M224.51,-750.38C224.97,-851.31 232.08,-1306.17 322,-1406.5 325.45,-1410.35 329.43,-1413.62 333.76,-1416.39"/>
<polygon fill="#63b8ff" stroke="#63b8ff" points="228.01,-750.32 224.48,-740.33 221.01,-750.34 228.01,-750.32"/>
</a>
</g>
</g>
<!-- Node10 -->
<g id="Node000010" class="node">
<title>Node10</title>
<g id="a_Node000010"><a xlink:href="class_p4_1_1_abstract_inliner.html" target="_top" xlink:title=" ">
<polygon fill="white" stroke="#bfbfbf" points="490,-1397 342,-1397 342,-1356 490,-1356 490,-1397"/>
<text text-anchor="start" x="350" y="-1385" font-family="Helvetica,sans-Serif" font-size="10.00">P4::AbstractInliner</text>
<text text-anchor="start" x="350" y="-1374" font-family="Helvetica,sans-Serif" font-size="10.00">&lt; P4::InlineList, InlineWork</text>
<text text-anchor="middle" x="416" y="-1363" font-family="Helvetica,sans-Serif" font-size="10.00">List &gt;</text>
</a>
</g>
</g>
<!-- Node1&#45;&gt;Node10 -->
<g id="edge9_Node000001_Node000010" class="edge">
<title>Node1&#45;&gt;Node10</title>
<g id="a_edge9_Node000001_Node000010"><a xlink:title=" ">
<path fill="none" stroke="#63b8ff" d="M224.94,-750.58C227.42,-846.11 242.59,-1253.71 322,-1346.5 327.52,-1352.94 334.42,-1358.02 341.97,-1362.01"/>
<polygon fill="#63b8ff" stroke="#63b8ff" points="228.43,-750.22 224.69,-740.3 221.43,-750.39 228.43,-750.22"/>
</a>
</g>
</g>
<!-- Node11 -->
<g id="Node000011" class="node">
<title>Node11</title>
<g id="a_Node000011"><a xlink:href="class_p4_1_1_abstract_inliner.html" target="_top" xlink:title=" ">
<polygon fill="white" stroke="#bfbfbf" points="495,-1337.5 337,-1337.5 337,-1307.5 495,-1307.5 495,-1337.5"/>
<text text-anchor="start" x="345" y="-1325.5" font-family="Helvetica,sans-Serif" font-size="10.00">P4::AbstractInliner</text>
<text text-anchor="middle" x="416" y="-1314.5" font-family="Helvetica,sans-Serif" font-size="10.00">&lt; InlineList, InlineWorkList &gt;</text>
</a>
</g>
</g>
<!-- Node1&#45;&gt;Node11 -->
<g id="edge10_Node000001_Node000011" class="edge">
<title>Node1&#45;&gt;Node11</title>
<g id="a_edge10_Node000001_Node000011"><a xlink:title=" ">
<path fill="none" stroke="#63b8ff" d="M225.1,-750.24C228.27,-840.84 245.88,-1215.82 322,-1298.5 326.29,-1303.16 331.36,-1306.97 336.88,-1310.07"/>
<polygon fill="#63b8ff" stroke="#63b8ff" points="228.59,-749.9 224.77,-740.02 221.6,-750.13 228.59,-749.9"/>
</a>
</g>
</g>
<!-- Node12 -->
<g id="Node000012" class="node">
<title>Node12</title>
<g id="a_Node000012"><a xlink:href="class_p4_1_1_compute_def_use.html" target="_top" xlink:title="Compute defuse info within P4Parser and P4Control blocks in the midend.">
<polygon fill="white" stroke="#666666" points="473.5,-1289 358.5,-1289 358.5,-1270 473.5,-1270 473.5,-1289"/>
<text text-anchor="middle" x="416" y="-1277" font-family="Helvetica,sans-Serif" font-size="10.00">P4::ComputeDefUse</text>
</a>
</g>
</g>
<!-- Node1&#45;&gt;Node12 -->
<g id="edge11_Node000001_Node000012" class="edge">
<title>Node1&#45;&gt;Node12</title>
<g id="a_edge11_Node000001_Node000012"><a xlink:title=" ">
<path fill="none" stroke="#63b8ff" d="M225.28,-750.39C229.1,-837.68 248.81,-1185.86 322,-1260.5 331.58,-1270.27 344.72,-1275.7 358.11,-1278.58"/>
<polygon fill="#63b8ff" stroke="#63b8ff" points="228.77,-750.1 224.85,-740.26 221.77,-750.39 228.77,-750.1"/>
</a>
</g>
</g>
<!-- Node13 -->
<g id="Node000013" class="node">
<title>Node13</title>
<g id="a_Node000013"><a xlink:href="class_p4_1_1_compute_def_use_1_1_setup_join_points.html" target="_top" xlink:title=" ">
<polygon fill="white" stroke="#bfbfbf" points="476.5,-1251.5 355.5,-1251.5 355.5,-1221.5 476.5,-1221.5 476.5,-1251.5"/>
<text text-anchor="start" x="363.5" y="-1239.5" font-family="Helvetica,sans-Serif" font-size="10.00">P4::ComputeDefUse::</text>
<text text-anchor="middle" x="416" y="-1228.5" font-family="Helvetica,sans-Serif" font-size="10.00">SetupJoinPoints</text>
</a>
</g>
</g>
<!-- Node1&#45;&gt;Node13 -->
<g id="edge12_Node000001_Node000013" class="edge">
<title>Node1&#45;&gt;Node13</title>
<g id="a_edge12_Node000001_Node000013"><a xlink:title=" ">
<path fill="none" stroke="#63b8ff" d="M225.78,-750.55C231.45,-832.88 256.9,-1143.86 322,-1212.5 330.84,-1221.82 342.77,-1227.7 355.14,-1231.37"/>
<polygon fill="#63b8ff" stroke="#63b8ff" points="229.24,-749.86 225.09,-740.12 222.26,-750.33 229.24,-749.86"/>
</a>
</g>
</g>
<!-- Node14 -->
<g id="Node000014" class="node">
<title>Node14</title>
<g id="a_Node000014"><a xlink:href="class_p4_1_1_constant_type_substitution.html" target="_top" xlink:title=" ">
<polygon fill="white" stroke="#bfbfbf" points="495.5,-1203 336.5,-1203 336.5,-1184 495.5,-1184 495.5,-1203"/>
<text text-anchor="middle" x="416" y="-1191" font-family="Helvetica,sans-Serif" font-size="10.00">P4::ConstantTypeSubstitution</text>
</a>
</g>
</g>
<!-- Node1&#45;&gt;Node14 -->
<g id="edge13_Node000001_Node000014" class="edge">
<title>Node1&#45;&gt;Node14</title>
<g id="a_edge13_Node000001_Node000014"><a xlink:title=" ">
<path fill="none" stroke="#8b1a1a" d="M226.03,-750.61C232.43,-829.26 259.68,-1114.69 322,-1175.5 326.24,-1179.63 331.12,-1182.96 336.39,-1185.63"/>
<polygon fill="#8b1a1a" stroke="#8b1a1a" points="229.48,-749.88 225.21,-740.19 222.51,-750.44 229.48,-749.88"/>
</a>
</g>
</g>
<!-- Node15 -->
<g id="Node000015" class="node">
<title>Node15</title>
<g id="a_Node000015"><a xlink:href="class_p4_1_1_create_struct_initializers.html" target="_top" xlink:title="Converts some list expressions into struct initializers.">
<polygon fill="white" stroke="#666666" points="489,-1166 343,-1166 343,-1147 489,-1147 489,-1166"/>
<text text-anchor="middle" x="416" y="-1154" font-family="Helvetica,sans-Serif" font-size="10.00">P4::CreateStructInitializers</text>
</a>
</g>
</g>
<!-- Node1&#45;&gt;Node15 -->
<g id="edge14_Node000001_Node000015" class="edge">
<title>Node1&#45;&gt;Node15</title>
<g id="a_edge14_Node000001_Node000015"><a xlink:title=" ">
<path fill="none" stroke="#63b8ff" d="M226.43,-750.36C234.05,-824.46 264.45,-1083.4 322,-1138.5 327.94,-1144.19 335.11,-1148.34 342.79,-1151.34"/>
<polygon fill="#63b8ff" stroke="#63b8ff" points="229.89,-749.71 225.4,-740.11 222.92,-750.41 229.89,-749.71"/>
</a>
</g>
</g>
<!-- Node16 -->
<g id="Node000016" class="node">
<title>Node16</title>
<g id="a_Node000016"><a xlink:href="class_p4_1_1_deprecated.html" target="_top" xlink:title=" ">
<polygon fill="white" stroke="#666666" points="461.5,-1129 370.5,-1129 370.5,-1110 461.5,-1110 461.5,-1129"/>
<text text-anchor="middle" x="416" y="-1117" font-family="Helvetica,sans-Serif" font-size="10.00">P4::Deprecated</text>
</a>
</g>
</g>
<!-- Node1&#45;&gt;Node16 -->
<g id="edge15_Node000001_Node000016" class="edge">
<title>Node1&#45;&gt;Node16</title>
<g id="a_edge15_Node000001_Node000016"><a xlink:title=" ">
<path fill="none" stroke="#63b8ff" d="M226.94,-750.34C235.9,-820.04 269.27,-1052.13 322,-1101.5 334.85,-1113.53 353.2,-1118.64 370.21,-1120.53"/>
<polygon fill="#63b8ff" stroke="#63b8ff" points="230.39,-749.76 225.67,-740.27 223.44,-750.63 230.39,-749.76"/>
</a>
</g>
</g>
<!-- Node17 -->
<g id="Node000017" class="node">
<title>Node17</title>
<g id="a_Node000017"><a xlink:href="class_p4_1_1_discover_actions_inlining.html" target="_top" xlink:title=" ">
<polygon fill="white" stroke="#bfbfbf" points="490.5,-1092 341.5,-1092 341.5,-1073 490.5,-1073 490.5,-1092"/>
<text text-anchor="middle" x="416" y="-1080" font-family="Helvetica,sans-Serif" font-size="10.00">P4::DiscoverActionsInlining</text>
</a>
</g>
</g>
<!-- Node1&#45;&gt;Node17 -->
<g id="edge16_Node000001_Node000017" class="edge">
<title>Node1&#45;&gt;Node17</title>
<g id="a_edge16_Node000001_Node000017"><a xlink:title=" ">
<path fill="none" stroke="#63b8ff" d="M223.8,-750.57C222.93,-808.59 228.89,-977.84 322,-1063.5 327.58,-1068.63 334.16,-1072.53 341.19,-1075.48"/>
<polygon fill="#63b8ff" stroke="#63b8ff" points="227.3,-750.31 224.04,-740.23 220.3,-750.14 227.3,-750.31"/>
</a>
</g>
</g>
<!-- Node18 -->
<g id="Node000018" class="node">
<title>Node18</title>
<g id="a_Node000018"><a xlink:href="class_p4_1_1_discover_functions_inlining.html" target="_top" xlink:title=" ">
<polygon fill="white" stroke="#bfbfbf" points="496,-1055 336,-1055 336,-1036 496,-1036 496,-1055"/>
<text text-anchor="middle" x="416" y="-1043" font-family="Helvetica,sans-Serif" font-size="10.00">P4::DiscoverFunctionsInlining</text>
</a>
</g>
</g>
<!-- Node1&#45;&gt;Node18 -->
<g id="edge17_Node000001_Node000018" class="edge">
<title>Node1&#45;&gt;Node18</title>
<g id="a_edge17_Node000001_Node000018"><a xlink:title=" ">
<path fill="none" stroke="#63b8ff" d="M224.65,-750.47C226.19,-804.06 238.21,-951.95 322,-1026.5 326.19,-1030.22 330.9,-1033.29 335.93,-1035.82"/>
<polygon fill="#63b8ff" stroke="#63b8ff" points="228.14,-750.2 224.45,-740.27 221.14,-750.33 228.14,-750.2"/>
</a>
</g>
</g>
<!-- Node19 -->
<g id="Node000019" class="node">
<title>Node19</title>
<g id="a_Node000019"><a xlink:href="class_p4_1_1_do_check_constants.html" target="_top" xlink:title=" ">
<polygon fill="white" stroke="#666666" points="479.5,-1018 352.5,-1018 352.5,-999 479.5,-999 479.5,-1018"/>
<text text-anchor="middle" x="416" y="-1006" font-family="Helvetica,sans-Serif" font-size="10.00">P4::DoCheckConstants</text>
</a>
</g>
</g>
<!-- Node1&#45;&gt;Node19 -->
<g id="edge18_Node000001_Node000019" class="edge">
<title>Node1&#45;&gt;Node19</title>
<g id="a_edge18_Node000001_Node000019"><a xlink:title=" ">
<path fill="none" stroke="#63b8ff" d="M225.7,-750.25C229.77,-799.03 247.38,-925.86 322,-989.5 330.65,-996.88 341.4,-1001.66 352.48,-1004.71"/>
<polygon fill="#63b8ff" stroke="#63b8ff" points="229.17,-749.81 224.95,-740.09 222.19,-750.32 229.17,-749.81"/>
</a>
</g>
</g>
<!-- Node20 -->
<g id="Node000020" class="node">
<title>Node20</title>
<g id="a_Node000020"><a xlink:href="class_p4_1_1_do_check_core_methods.html" target="_top" xlink:title="Check types for arguments of core.p4 methods.">
<polygon fill="white" stroke="#666666" points="487.5,-981 344.5,-981 344.5,-962 487.5,-962 487.5,-981"/>
<text text-anchor="middle" x="416" y="-969" font-family="Helvetica,sans-Serif" font-size="10.00">P4::DoCheckCoreMethods</text>
</a>
</g>
</g>
<!-- Node1&#45;&gt;Node20 -->
<g id="edge19_Node000001_Node000020" class="edge">
<title>Node1&#45;&gt;Node20</title>
<g id="a_edge19_Node000001_Node000020"><a xlink:title=" ">
<path fill="none" stroke="#63b8ff" d="M227.09,-750.38C233.92,-794.26 256.62,-899.71 322,-952.5 328.54,-957.78 336.16,-961.71 344.18,-964.62"/>
<polygon fill="#63b8ff" stroke="#63b8ff" points="230.54,-749.79 225.65,-740.39 223.61,-750.79 230.54,-749.79"/>
</a>
</g>
</g>
<!-- Node21 -->
<g id="Node000021" class="node">
<title>Node21</title>
<g id="a_Node000021"><a xlink:href="class_p4_1_1_do_constant_folding.html" target="_top" xlink:title="statically evaluates many constant expressions.">
<polygon fill="white" stroke="#666666" points="479.5,-944 352.5,-944 352.5,-925 479.5,-925 479.5,-944"/>
<text text-anchor="middle" x="416" y="-932" font-family="Helvetica,sans-Serif" font-size="10.00">P4::DoConstantFolding</text>
</a>
</g>
</g>
<!-- Node1&#45;&gt;Node21 -->
<g id="edge20_Node000001_Node000021" class="edge">
<title>Node1&#45;&gt;Node21</title>
<g id="a_edge20_Node000001_Node000021"><a xlink:title=" ">
<path fill="none" stroke="#63b8ff" d="M228.86,-749.9C238.5,-788.11 265.44,-873.06 322,-915.5 330.83,-922.13 341.41,-926.59 352.22,-929.56"/>
<polygon fill="#63b8ff" stroke="#63b8ff" points="232.23,-748.95 226.49,-740.04 225.42,-750.58 232.23,-748.95"/>
</a>
</g>
</g>
<!-- Node22 -->
<g id="Node000022" class="node">
<title>Node22</title>
<g id="a_Node000022"><a xlink:href="class_p4_1_1_do_default_arguments.html" target="_top" xlink:title=" ">
<polygon fill="white" stroke="#666666" points="484.5,-907 347.5,-907 347.5,-888 484.5,-888 484.5,-907"/>
<text text-anchor="middle" x="416" y="-895" font-family="Helvetica,sans-Serif" font-size="10.00">P4::DoDefaultArguments</text>
</a>
</g>
</g>
<!-- Node1&#45;&gt;Node22 -->
<g id="edge21_Node000001_Node000022" class="edge">
<title>Node1&#45;&gt;Node22</title>
<g id="a_edge21_Node000001_Node000022"><a xlink:title=" ">
<path fill="none" stroke="#63b8ff" d="M231.57,-750C244.33,-782.23 274.38,-846.28 322,-878.5 329.64,-883.67 338.39,-887.49 347.4,-890.3"/>
<polygon fill="#63b8ff" stroke="#63b8ff" points="234.74,-748.48 227.91,-740.38 228.2,-750.97 234.74,-748.48"/>
</a>
</g>
</g>
<!-- Node23 -->
<g id="Node000023" class="node">
<title>Node23</title>
<g id="a_Node000023"><a xlink:href="class_p4_1_1_do_remove_exits.html" target="_top" xlink:title=" ">
<polygon fill="white" stroke="#666666" points="472.5,-870 359.5,-870 359.5,-851 472.5,-851 472.5,-870"/>
<text text-anchor="middle" x="416" y="-858" font-family="Helvetica,sans-Serif" font-size="10.00">P4::DoRemoveExits</text>
</a>
</g>
</g>
<!-- Node1&#45;&gt;Node23 -->
<g id="edge22_Node000001_Node000023" class="edge">
<title>Node1&#45;&gt;Node23</title>
<g id="a_edge22_Node000001_Node000023"><a xlink:title=" ">
<path fill="none" stroke="#63b8ff" d="M235.08,-748.66C250.72,-773.76 282.46,-818.56 322,-841.5 333.26,-848.03 346.43,-852.34 359.25,-855.18"/>
<polygon fill="#63b8ff" stroke="#63b8ff" points="238.07,-746.83 229.89,-740.09 232.08,-750.45 238.07,-746.83"/>
</a>
</g>
</g>
<!-- Node24 -->
<g id="Node000024" class="node">
<title>Node24</title>
<g id="a_Node000024"><a xlink:href="class_p4_1_1_do_simplify_control_flow.html" target="_top" xlink:title="Replace complex control flow nodes with simpler ones where possible.">
<polygon fill="white" stroke="#666666" points="489,-833 343,-833 343,-814 489,-814 489,-833"/>
<text text-anchor="middle" x="416" y="-821" font-family="Helvetica,sans-Serif" font-size="10.00">P4::DoSimplifyControlFlow</text>
</a>
</g>
</g>
<!-- Node1&#45;&gt;Node24 -->
<g id="edge23_Node000001_Node000024" class="edge">
<title>Node1&#45;&gt;Node24</title>
<g id="a_edge23_Node000001_Node000024"><a xlink:title=" ">
<path fill="none" stroke="#63b8ff" d="M241.54,-747.31C259.87,-764.38 290.61,-790.28 322,-804.5 330.56,-808.38 339.91,-811.47 349.29,-813.93"/>
<polygon fill="#63b8ff" stroke="#63b8ff" points="243.7,-744.52 234.04,-740.16 238.87,-749.59 243.7,-744.52"/>
</a>
</g>
</g>
<!-- Node25 -->
<g id="Node000025" class="node">
<title>Node25</title>
<g id="a_Node000025"><a xlink:href="class_p4_1_1_do_simplify_expressions.html" target="_top" xlink:title="Convert expressions so that each expression contains at most one side effect.">
<polygon fill="white" stroke="#666666" points="489,-796 343,-796 343,-777 489,-777 489,-796"/>
<text text-anchor="middle" x="416" y="-784" font-family="Helvetica,sans-Serif" font-size="10.00">P4::DoSimplifyExpressions</text>
</a>
</g>
</g>
<!-- Node1&#45;&gt;Node25 -->
<g id="edge24_Node000001_Node000025" class="edge">
<title>Node1&#45;&gt;Node25</title>
<g id="a_edge24_Node000001_Node000025"><a xlink:title=" ">
<path fill="none" stroke="#63b8ff" d="M255.92,-743.9C274.82,-751.59 299.49,-760.98 322,-767.5 334.35,-771.08 347.8,-774.24 360.55,-776.91"/>
<polygon fill="#63b8ff" stroke="#63b8ff" points="257.19,-740.64 246.61,-740.06 254.52,-747.11 257.19,-740.64"/>
</a>
</g>
</g>
<!-- Node26 -->
<g id="Node000026" class="node">
<title>Node26</title>
<g id="a_Node000026"><a xlink:href="class_p4_1_1_do_static_assert.html" target="_top" xlink:title=" ">
<polygon fill="white" stroke="#666666" points="469.5,-759 362.5,-759 362.5,-740 469.5,-740 469.5,-759"/>
<text text-anchor="middle" x="416" y="-747" font-family="Helvetica,sans-Serif" font-size="10.00">P4::DoStaticAssert</text>
</a>
</g>
</g>
<!-- Node1&#45;&gt;Node26 -->
<g id="edge25_Node000001_Node000026" class="edge">
<title>Node1&#45;&gt;Node26</title>
<g id="a_edge25_Node000001_Node000026"><a xlink:title=" ">
<path fill="none" stroke="#63b8ff" d="M296.04,-737.64C318.01,-739.83 341.79,-742.2 362.26,-744.24"/>
<polygon fill="#63b8ff" stroke="#63b8ff" points="296.38,-734.15 286.09,-736.64 295.69,-741.12 296.38,-734.15"/>
</a>
</g>
</g>
<!-- Node27 -->
<g id="Node000027" class="node">
<title>Node27</title>
<g id="a_Node000027"><a xlink:href="class_p4_1_1_dontcare_args.html" target="_top" xlink:title=" ">
<polygon fill="white" stroke="#666666" points="466.5,-722 365.5,-722 365.5,-703 466.5,-703 466.5,-722"/>
<text text-anchor="middle" x="416" y="-710" font-family="Helvetica,sans-Serif" font-size="10.00">P4::DontcareArgs</text>
</a>
</g>
</g>
<!-- Node1&#45;&gt;Node27 -->
<g id="edge26_Node000001_Node000027" class="edge">
<title>Node1&#45;&gt;Node27</title>
<g id="a_edge26_Node000001_Node000027"><a xlink:title=" ">
<path fill="none" stroke="#63b8ff" d="M296.18,-723.73C319.23,-721.55 344.26,-719.18 365.37,-717.19"/>
<polygon fill="#63b8ff" stroke="#63b8ff" points="295.71,-720.26 286.09,-724.68 296.37,-727.22 295.71,-720.26"/>
</a>
</g>
</g>
<!-- Node28 -->
<g id="Node000028" class="node">
<title>Node28</title>
<g id="a_Node000028"><a xlink:href="class_p4_1_1_entry_priorities.html" target="_top" xlink:title="Assigns priorities to table entries if they are not &#39;const&#39;.">
<polygon fill="white" stroke="#666666" points="468,-685 364,-685 364,-666 468,-666 468,-685"/>
<text text-anchor="middle" x="416" y="-673" font-family="Helvetica,sans-Serif" font-size="10.00">P4::EntryPriorities</text>
</a>
</g>
</g>
<!-- Node1&#45;&gt;Node28 -->
<g id="edge27_Node000001_Node000028" class="edge">
<title>Node1&#45;&gt;Node28</title>
<g id="a_edge27_Node000001_Node000028"><a xlink:title=" ">
<path fill="none" stroke="#63b8ff" d="M255.9,-717.01C274.79,-709.29 299.46,-699.91 322,-693.5 335.45,-689.68 350.22,-686.41 363.95,-683.75"/>
<polygon fill="#63b8ff" stroke="#63b8ff" points="254.49,-713.81 246.59,-720.87 257.17,-720.27 254.49,-713.81"/>
</a>
</g>
</g>
<!-- Node29 -->
<g id="Node000029" class="node">
<title>Node29</title>
<g id="a_Node000029"><a xlink:href="class_p4_1_1_find_action_parameters.html" target="_top" xlink:title=" ">
<polygon fill="white" stroke="#bfbfbf" points="486.5,-648 345.5,-648 345.5,-629 486.5,-629 486.5,-648"/>
<text text-anchor="middle" x="416" y="-636" font-family="Helvetica,sans-Serif" font-size="10.00">P4::FindActionParameters</text>
</a>
</g>
</g>
<!-- Node1&#45;&gt;Node29 -->
<g id="edge28_Node000001_Node000029" class="edge">
<title>Node1&#45;&gt;Node29</title>
<g id="a_edge28_Node000001_Node000029"><a xlink:title=" ">
<path fill="none" stroke="#63b8ff" d="M241.51,-713.63C259.81,-696.5 290.54,-670.56 322,-656.5 329.66,-653.08 337.96,-650.31 346.33,-648.06"/>
<polygon fill="#63b8ff" stroke="#63b8ff" points="238.82,-711.36 234.02,-720.8 243.67,-716.41 238.82,-711.36"/>
</a>
</g>
</g>
<!-- Node30 -->
<g id="Node000030" class="node">
<title>Node30</title>
<g id="a_Node000030"><a xlink:href="class_p4_1_1_find_function_specializations.html" target="_top" xlink:title=" ">
<polygon fill="white" stroke="#666666" points="501,-611 331,-611 331,-592 501,-592 501,-611"/>
<text text-anchor="middle" x="416" y="-599" font-family="Helvetica,sans-Serif" font-size="10.00">P4::FindFunctionSpecializations</text>
</a>
</g>
</g>
<!-- Node1&#45;&gt;Node30 -->
<g id="edge29_Node000001_Node000030" class="edge">
<title>Node1&#45;&gt;Node30</title>
<g id="a_edge29_Node000001_Node000030"><a xlink:title=" ">
<path fill="none" stroke="#63b8ff" d="M235.05,-712.29C250.65,-687.12 282.34,-642.24 322,-619.5 327.99,-616.06 334.52,-613.27 341.25,-611"/>
<polygon fill="#63b8ff" stroke="#63b8ff" points="232.03,-710.51 229.87,-720.88 238.03,-714.12 232.03,-710.51"/>
</a>
</g>
</g>
<!-- Node31 -->
<g id="Node000031" class="node">
<title>Node31</title>
<g id="a_Node000031"><a xlink:href="class_p4_1_1_find_global_action_uses.html" target="_top" xlink:title=" ">
<polygon fill="white" stroke="#bfbfbf" points="486.5,-574 345.5,-574 345.5,-555 486.5,-555 486.5,-574"/>
<text text-anchor="middle" x="416" y="-562" font-family="Helvetica,sans-Serif" font-size="10.00">P4::FindGlobalActionUses</text>
</a>
</g>
</g>
<!-- Node1&#45;&gt;Node31 -->
<g id="edge30_Node000001_Node000031" class="edge">
<title>Node1&#45;&gt;Node31</title>
<g id="a_edge30_Node000001_Node000031"><a xlink:title=" ">
<path fill="none" stroke="#63b8ff" d="M231.35,-711.41C243.95,-679.25 273.98,-614.63 322,-582.5 329.11,-577.74 337.16,-574.18 345.49,-571.51"/>
<polygon fill="#63b8ff" stroke="#63b8ff" points="228,-710.39 227.75,-720.98 234.55,-712.86 228,-710.39"/>
</a>
</g>
</g>
<!-- Node32 -->
<g id="Node000032" class="node">
<title>Node32</title>
<g id="a_Node000032"><a xlink:href="class_p4_1_1_find_repeated_action_uses.html" target="_top" xlink:title=" ">
<polygon fill="white" stroke="#bfbfbf" points="494,-537 338,-537 338,-518 494,-518 494,-537"/>
<text text-anchor="middle" x="416" y="-525" font-family="Helvetica,sans-Serif" font-size="10.00">P4::FindRepeatedActionUses</text>
</a>
</g>
</g>
<!-- Node1&#45;&gt;Node32 -->
<g id="edge31_Node000001_Node000032" class="edge">
<title>Node1&#45;&gt;Node32</title>
<g id="a_edge31_Node000001_Node000032"><a xlink:title=" ">
<path fill="none" stroke="#63b8ff" d="M228.82,-711.05C238.4,-672.75 265.22,-587.64 322,-545.5 326.89,-541.87 332.3,-538.92 337.99,-536.52"/>
<polygon fill="#63b8ff" stroke="#63b8ff" points="225.38,-710.4 226.47,-720.93 232.19,-712.01 225.38,-710.4"/>
</a>
</g>
</g>
<!-- Node33 -->
<g id="Node000033" class="node">
<title>Node33</title>
<g id="a_Node000033"><a xlink:href="class_p4_1_1_find_specializations.html" target="_top" xlink:title=" ">
<polygon fill="white" stroke="#666666" points="480,-500 352,-500 352,-481 480,-481 480,-500"/>
<text text-anchor="middle" x="416" y="-488" font-family="Helvetica,sans-Serif" font-size="10.00">P4::FindSpecializations</text>
</a>
</g>
</g>
<!-- Node1&#45;&gt;Node33 -->
<g id="edge32_Node000001_Node000033" class="edge">
<title>Node1&#45;&gt;Node33</title>
<g id="a_edge32_Node000001_Node000033"><a xlink:title=" ">
<path fill="none" stroke="#63b8ff" d="M227.05,-710.57C233.8,-666.59 256.35,-560.95 322,-508.5 330.61,-501.62 341.08,-497.11 351.85,-494.2"/>
<polygon fill="#63b8ff" stroke="#63b8ff" points="223.57,-710.19 225.63,-720.58 230.5,-711.17 223.57,-710.19"/>
</a>
</g>
</g>
<!-- Node34 -->
<g id="Node000034" class="node">
<title>Node34</title>
<g id="a_Node000034"><a xlink:href="class_p4_1_1_has_table_apply.html" target="_top" xlink:title="Checks to see whether an IR node includes a table.apply() sub&#45;expression.">
<polygon fill="white" stroke="#666666" points="469.5,-463 362.5,-463 362.5,-444 469.5,-444 469.5,-463"/>
<text text-anchor="middle" x="416" y="-451" font-family="Helvetica,sans-Serif" font-size="10.00">P4::HasTableApply</text>
</a>
</g>
</g>
<!-- Node1&#45;&gt;Node34 -->
<g id="edge33_Node000001_Node000034" class="edge">
<title>Node1&#45;&gt;Node34</title>
<g id="a_edge33_Node000001_Node000034"><a xlink:title=" ">
<path fill="none" stroke="#63b8ff" d="M225.65,-710.7C229.63,-661.82 247.05,-534.76 322,-471.5 333.19,-462.06 347.83,-457.01 362.19,-454.43"/>
<polygon fill="#63b8ff" stroke="#63b8ff" points="222.15,-710.66 224.93,-720.88 229.13,-711.15 222.15,-710.66"/>
</a>
</g>
</g>
<!-- Node35 -->
<g id="Node000035" class="node">
<title>Node35</title>
<g id="a_Node000035"><a xlink:href="class_p4_1_1_instantiate_direct_calls.html" target="_top" xlink:title=" ">
<polygon fill="white" stroke="#bfbfbf" points="486,-426 346,-426 346,-407 486,-407 486,-426"/>
<text text-anchor="middle" x="416" y="-414" font-family="Helvetica,sans-Serif" font-size="10.00">P4::InstantiateDirectCalls</text>
</a>
</g>
</g>
<!-- Node1&#45;&gt;Node35 -->
<g id="edge34_Node000001_Node000035" class="edge">
<title>Node1&#45;&gt;Node35</title>
<g id="a_edge34_Node000001_Node000035"><a xlink:title=" ">
<path fill="none" stroke="#63b8ff" d="M224.59,-710.84C225.99,-657.44 237.63,-508.78 322,-434.5 328.79,-428.52 336.95,-424.28 345.59,-421.31"/>
<polygon fill="#63b8ff" stroke="#63b8ff" points="221.09,-710.93 224.43,-720.99 228.09,-711.05 221.09,-710.93"/>
</a>
</g>
</g>
<!-- Node36 -->
<g id="Node000036" class="node">
<title>Node36</title>
<g id="a_Node000036"><a xlink:href="class_p4_1_1_key_side_effect.html" target="_top" xlink:title=" ">
<polygon fill="white" stroke="#666666" points="466.5,-389 365.5,-389 365.5,-370 466.5,-370 466.5,-389"/>
<text text-anchor="middle" x="416" y="-377" font-family="Helvetica,sans-Serif" font-size="10.00">P4::KeySideEffect</text>
</a>
</g>
</g>
<!-- Node1&#45;&gt;Node36 -->
<g id="edge35_Node000001_Node000036" class="edge">
<title>Node1&#45;&gt;Node36</title>
<g id="a_edge35_Node000001_Node000036"><a xlink:title=" ">
<path fill="none" stroke="#63b8ff" d="M223.76,-710.75C222.75,-652.94 228.25,-482.86 322,-397.5 333.67,-386.87 349.67,-381.68 365.11,-379.35"/>
<polygon fill="#63b8ff" stroke="#63b8ff" points="220.26,-710.85 224.02,-720.75 227.26,-710.66 220.26,-710.85"/>
</a>
</g>
</g>
<!-- Node38 -->
<g id="Node000038" class="node">
<title>Node38</title>
<g id="a_Node000038"><a xlink:href="class_p4_1_1_localize_actions.html" target="_top" xlink:title=" ">
<polygon fill="white" stroke="#bfbfbf" points="471,-352 361,-352 361,-333 471,-333 471,-352"/>
<text text-anchor="middle" x="416" y="-340" font-family="Helvetica,sans-Serif" font-size="10.00">P4::LocalizeActions</text>
</a>
</g>
</g>
<!-- Node1&#45;&gt;Node38 -->
<g id="edge37_Node000001_Node000038" class="edge">
<title>Node1&#45;&gt;Node38</title>
<g id="a_edge37_Node000001_Node000038"><a xlink:title=" ">
<path fill="none" stroke="#63b8ff" d="M226.94,-710.71C235.93,-641.19 269.39,-409.73 322,-360.5 332.45,-350.72 346.53,-345.51 360.58,-342.9"/>
<polygon fill="#63b8ff" stroke="#63b8ff" points="223.46,-710.39 225.67,-720.76 230.4,-711.27 223.46,-710.39"/>
</a>
</g>
</g>
<!-- Node39 -->
<g id="Node000039" class="node">
<title>Node39</title>
<g id="a_Node000039"><a xlink:href="class_p4_1_1_move_initializers.html" target="_top" xlink:title=" ">
<polygon fill="white" stroke="#666666" points="472.5,-315 359.5,-315 359.5,-296 472.5,-296 472.5,-315"/>
<text text-anchor="middle" x="416" y="-303" font-family="Helvetica,sans-Serif" font-size="10.00">P4::MoveInitializers</text>
</a>
</g>
</g>
<!-- Node1&#45;&gt;Node39 -->
<g id="edge38_Node000001_Node000039" class="edge">
<title>Node1&#45;&gt;Node39</title>
<g id="a_edge38_Node000001_Node000039"><a xlink:title=" ">
<path fill="none" stroke="#63b8ff" d="M226.44,-710.69C234.09,-636.77 264.57,-378.46 322,-323.5 332.1,-313.84 345.74,-308.6 359.47,-305.93"/>
<polygon fill="#63b8ff" stroke="#63b8ff" points="222.93,-710.61 225.41,-720.91 229.9,-711.32 222.93,-710.61"/>
</a>
</g>
</g>
<!-- Node40 -->
<g id="Node000040" class="node">
<title>Node40</title>
<g id="a_Node000040"><a xlink:href="class_p4_1_1_p4_tools_1_1_p4_program_d_c_g_creator.html" target="_top" xlink:title="The main class for building control flow DCG.">
<polygon fill="white" stroke="#666666" points="510,-278 322,-278 322,-259 510,-259 510,-278"/>
<text text-anchor="middle" x="416" y="-266" font-family="Helvetica,sans-Serif" font-size="10.00">P4::P4Tools::P4ProgramDCGCreator</text>
</a>
</g>
</g>
<!-- Node1&#45;&gt;Node40 -->
<g id="edge39_Node000001_Node000040" class="edge">
<title>Node1&#45;&gt;Node40</title>
<g id="a_edge39_Node000001_Node000040"><a xlink:title=" ">
<path fill="none" stroke="#8b1a1a" d="M226.04,-710.43C232.47,-631.96 259.8,-347.17 322,-286.5 325.41,-283.17 329.25,-280.36 333.36,-278"/>
<polygon fill="#8b1a1a" stroke="#8b1a1a" points="222.51,-710.59 225.21,-720.83 229.49,-711.14 222.51,-710.59"/>
</a>
</g>
</g>
<!-- Node41 -->
<g id="Node000041" class="node">
<title>Node41</title>
<g id="a_Node000041"><a xlink:href="class_p4_1_1_reads_writes.html" target="_top" xlink:title="Computes the SetOfLocations read and written by an expression.">
<polygon fill="white" stroke="#666666" points="464,-241 368,-241 368,-222 464,-222 464,-241"/>
<text text-anchor="middle" x="416" y="-229" font-family="Helvetica,sans-Serif" font-size="10.00">P4::ReadsWrites</text>
</a>
</g>
</g>
<!-- Node1&#45;&gt;Node41 -->
<g id="edge40_Node000001_Node000041" class="edge">
<title>Node1&#45;&gt;Node41</title>
<g id="a_edge40_Node000001_Node000041"><a xlink:title=" ">
<path fill="none" stroke="#63b8ff" d="M225.68,-710.38C230.92,-627.78 254.95,-315.96 322,-249.5 334.03,-237.58 351.43,-232.33 367.94,-230.32"/>
<polygon fill="#63b8ff" stroke="#63b8ff" points="222.15,-710.65 225.04,-720.85 229.14,-711.08 222.15,-710.65"/>
</a>
</g>
</g>
<!-- Node42 -->
<g id="Node000042" class="node">
<title>Node42</title>
<g id="a_Node000042"><a xlink:href="class_p4_1_1_rename_symbols.html" target="_top" xlink:title=" ">
<polygon fill="white" stroke="#bfbfbf" points="474.5,-204 357.5,-204 357.5,-185 474.5,-185 474.5,-204"/>
<text text-anchor="middle" x="416" y="-192" font-family="Helvetica,sans-Serif" font-size="10.00">P4::RenameSymbols</text>
</a>
</g>
</g>
<!-- Node1&#45;&gt;Node42 -->
<g id="edge41_Node000001_Node000042" class="edge">
<title>Node1&#45;&gt;Node42</title>
<g id="a_edge41_Node000001_Node000042"><a xlink:title=" ">
<path fill="none" stroke="#63b8ff" d="M225.34,-710.78C229.42,-624.94 249.96,-284.91 322,-212.5 331.4,-203.06 344.16,-197.79 357.21,-195"/>
<polygon fill="#63b8ff" stroke="#63b8ff" points="221.84,-710.81 224.88,-720.95 228.83,-711.12 221.84,-710.81"/>
</a>
</g>
</g>
<!-- Node43 -->
<g id="Node000043" class="node">
<title>Node43</title>
<g id="a_Node000043"><a xlink:href="class_p4_1_1_resolve_references.html" target="_top" xlink:title=" ">
<polygon fill="white" stroke="#666666" points="480,-167 352,-167 352,-148 480,-148 480,-167"/>
<text text-anchor="middle" x="416" y="-155" font-family="Helvetica,sans-Serif" font-size="10.00">P4::ResolveReferences</text>
</a>
</g>
</g>
<!-- Node1&#45;&gt;Node43 -->
<g id="edge42_Node000001_Node000043" class="edge">
<title>Node1&#45;&gt;Node43</title>
<g id="a_edge42_Node000001_Node000043"><a xlink:title=" ">
<path fill="none" stroke="#8b1a1a" d="M225.08,-710.53C228.12,-620.53 245.14,-253.7 322,-175.5 330.07,-167.29 340.68,-162.22 351.84,-159.2"/>
<polygon fill="#8b1a1a" stroke="#8b1a1a" points="221.58,-710.61 224.76,-720.72 228.57,-710.83 221.58,-710.61"/>
</a>
</g>
</g>
<!-- Node44 -->
<g id="Node000044" class="node">
<title>Node44</title>
<g id="a_Node000044"><a xlink:href="class_p4_1_1_substitute_parameters.html" target="_top" xlink:title=" ">
<polygon fill="white" stroke="#bfbfbf" points="486,-130 346,-130 346,-111 486,-111 486,-130"/>
<text text-anchor="middle" x="416" y="-118" font-family="Helvetica,sans-Serif" font-size="10.00">P4::SubstituteParameters</text>
</a>
</g>
</g>
<!-- Node1&#45;&gt;Node44 -->
<g id="edge43_Node000001_Node000044" class="edge">
<title>Node1&#45;&gt;Node44</title>
<g id="a_edge43_Node000001_Node000044"><a xlink:title=" ">
<path fill="none" stroke="#63b8ff" d="M224.84,-710.71C226.86,-617.42 240.17,-222.65 322,-138.5 328.54,-131.78 336.77,-127.16 345.63,-124.04"/>
<polygon fill="#63b8ff" stroke="#63b8ff" points="221.33,-710.91 224.64,-720.97 228.33,-711.04 221.33,-710.91"/>
</a>
</g>
</g>
<!-- Node45 -->
<g id="Node000045" class="node">
<title>Node45</title>
<g id="a_Node000045"><a xlink:href="class_p4_1_1_to_p4.html" target="_top" xlink:title=" ">
<polygon fill="white" stroke="#666666" points="444.5,-93 387.5,-93 387.5,-74 444.5,-74 444.5,-93"/>
<text text-anchor="middle" x="416" y="-81" font-family="Helvetica,sans-Serif" font-size="10.00">P4::ToP4</text>
</a>
</g>
</g>
<!-- Node1&#45;&gt;Node45 -->
<g id="edge44_Node000001_Node000045" class="edge">
<title>Node1&#45;&gt;Node45</title>
<g id="a_edge44_Node000001_Node000045"><a xlink:title=" ">
<path fill="none" stroke="#8b1a1a" d="M224.63,-710.7C225.68,-613.92 235.25,-191.55 322,-101.5 338.66,-84.21 366.56,-80.78 387.47,-81.04"/>
<polygon fill="#8b1a1a" stroke="#8b1a1a" points="221.13,-710.82 224.54,-720.85 228.13,-710.88 221.13,-710.82"/>
</a>
</g>
</g>
<!-- Node46 -->
<g id="Node000046" class="node">
<title>Node46</title>
<g id="a_Node000046"><a xlink:href="class_p4_1_1_type_inference.html" target="_top" xlink:title=" ">
<polygon fill="white" stroke="#bfbfbf" points="467.5,-56 364.5,-56 364.5,-37 467.5,-37 467.5,-56"/>
<text text-anchor="middle" x="416" y="-44" font-family="Helvetica,sans-Serif" font-size="10.00">P4::TypeInference</text>
</a>
</g>
</g>
<!-- Node1&#45;&gt;Node46 -->
<g id="edge45_Node000001_Node000046" class="edge">
<title>Node1&#45;&gt;Node46</title>
<g id="a_edge45_Node000001_Node000046"><a xlink:title=" ">
<path fill="none" stroke="#63b8ff" d="M224.44,-710.5C224.58,-609.93 230.38,-160.41 322,-64.5 332.9,-53.08 348.71,-47.7 364.2,-45.43"/>
<polygon fill="#63b8ff" stroke="#63b8ff" points="220.94,-710.77 224.45,-720.77 227.94,-710.76 220.94,-710.77"/>
</a>
</g>
</g>
<!-- Node47 -->
<g id="Node000047" class="node">
<title>Node47</title>
<g id="a_Node000047"><a xlink:href="class_p4_1_1_unroll_loops.html" target="_top" xlink:title=" ">
<polygon fill="white" stroke="#bfbfbf" points="462,-19 370,-19 370,0 462,0 462,-19"/>
<text text-anchor="middle" x="416" y="-7" font-family="Helvetica,sans-Serif" font-size="10.00">P4::UnrollLoops</text>
</a>
</g>
</g>
<!-- Node1&#45;&gt;Node47 -->
<g id="edge46_Node000001_Node000047" class="edge">
<title>Node1&#45;&gt;Node47</title>
<g id="a_edge46_Node000001_Node000047"><a xlink:title=" ">
<path fill="none" stroke="#63b8ff" d="M224.28,-710.71C223.52,-607.24 225.38,-129.42 322,-27.5 334.22,-14.61 352.68,-9.39 369.94,-7.67"/>
<polygon fill="#63b8ff" stroke="#63b8ff" points="220.78,-710.76 224.37,-720.73 227.78,-710.69 220.78,-710.76"/>
</a>
</g>
</g>
<!-- Node2 -->
<g id="Node000002" class="node">
<title>Node2</title>
<g id="a_Node000002"><a xlink:href="class_p4_1_1_visitor.html" target="_top" xlink:title=" ">
<polygon fill="white" stroke="#bfbfbf" points="95.5,-759 29.5,-759 29.5,-740 95.5,-740 95.5,-759"/>
<text text-anchor="middle" x="62.5" y="-747" font-family="Helvetica,sans-Serif" font-size="10.00">P4::Visitor</text>
</a>
</g>
</g>
<!-- Node2&#45;&gt;Node1 -->
<g id="edge1_Node000001_Node000002" class="edge">
<title>Node2&#45;&gt;Node1</title>
<g id="a_edge1_Node000001_Node000002"><a xlink:title=" ">
<path fill="none" stroke="#63b8ff" d="M105.76,-744.45C122.62,-742.43 142.37,-740.08 160.78,-737.88"/>
<polygon fill="#63b8ff" stroke="#63b8ff" points="105.19,-740.99 95.68,-745.66 106.02,-747.94 105.19,-740.99"/>
</a>
</g>
</g>
<!-- Node3 -->
<g id="Node000003" class="node">
<title>Node3</title>
<g id="a_Node000003"><a xlink:href="class_p4_1_1_declaration_lookup.html" target="_top" xlink:title=" ">
<polygon fill="white" stroke="#bfbfbf" points="125,-722 0,-722 0,-703 125,-703 125,-722"/>
<text text-anchor="middle" x="62.5" y="-710" font-family="Helvetica,sans-Serif" font-size="10.00">P4::DeclarationLookup</text>
</a>
</g>
</g>
<!-- Node3&#45;&gt;Node1 -->
<g id="edge2_Node000001_Node000003" class="edge">
<title>Node3&#45;&gt;Node1</title>
<g id="a_edge2_Node000001_Node000003"><a xlink:title=" ">
<path fill="none" stroke="#63b8ff" d="M135.59,-720.66C143.99,-721.61 152.5,-722.58 160.74,-723.51"/>
<polygon fill="#63b8ff" stroke="#63b8ff" points="135.76,-717.16 125.43,-719.51 134.97,-724.11 135.76,-717.16"/>
</a>
</g>
</g>
<!-- Node5 -->
<g id="Node000005" class="node">
<title>Node5</title>
<g id="a_Node000005"><a xlink:href="class_p4_1_1_actions_inliner.html" target="_top" xlink:title=" ">
<polygon fill="white" stroke="#bfbfbf" points="675,-1553 574,-1553 574,-1534 675,-1534 675,-1553"/>
<text text-anchor="middle" x="624.5" y="-1541" font-family="Helvetica,sans-Serif" font-size="10.00">P4::ActionsInliner</text>
</a>
</g>
</g>
<!-- Node4&#45;&gt;Node5 -->
<g id="edge4_Node000004_Node000005" class="edge">
<title>Node4&#45;&gt;Node5</title>
<g id="a_edge4_Node000004_Node000005"><a xlink:title=" ">
<path fill="none" stroke="#63b8ff" d="M481.83,-1543.5C511.6,-1543.5 546.35,-1543.5 573.98,-1543.5"/>
<polygon fill="#63b8ff" stroke="#63b8ff" points="481.53,-1540 471.53,-1543.5 481.53,-1547 481.53,-1540"/>
</a>
</g>
</g>
<!-- Node7 -->
<g id="Node000007" class="node">
<title>Node7</title>
<g id="a_Node000007"><a xlink:href="class_p4_1_1_functions_inliner.html" target="_top" xlink:title=" ">
<polygon fill="white" stroke="#666666" points="680.5,-1494 568.5,-1494 568.5,-1475 680.5,-1475 680.5,-1494"/>
<text text-anchor="middle" x="624.5" y="-1482" font-family="Helvetica,sans-Serif" font-size="10.00">P4::FunctionsInliner</text>
</a>
</g>
</g>
<!-- Node6&#45;&gt;Node7 -->
<g id="edge6_Node000006_Node000007" class="edge">
<title>Node6&#45;&gt;Node7</title>
<g id="a_edge6_Node000006_Node000007"><a xlink:title=" ">
<path fill="none" stroke="#63b8ff" d="M499.38,-1484.5C522.51,-1484.5 547.1,-1484.5 568.24,-1484.5"/>
<polygon fill="#63b8ff" stroke="#63b8ff" points="499.22,-1481 489.22,-1484.5 499.22,-1488 499.22,-1481"/>
</a>
</g>
</g>
<!-- Node9 -->
<g id="Node000009" class="node">
<title>Node9</title>
<g id="a_Node000009"><a xlink:href="class_p4_1_1_general_inliner.html" target="_top" xlink:title="Performs actual inlining work.">
<polygon fill="white" stroke="#666666" points="676.5,-1440 572.5,-1440 572.5,-1421 676.5,-1421 676.5,-1440"/>
<text text-anchor="middle" x="624.5" y="-1428" font-family="Helvetica,sans-Serif" font-size="10.00">P4::GeneralInliner</text>
</a>
</g>
</g>
<!-- Node8&#45;&gt;Node9 -->
<g id="edge8_Node000008_Node000009" class="edge">
<title>Node8&#45;&gt;Node9</title>
<g id="a_edge8_Node000008_Node000009"><a xlink:title=" ">
<path fill="none" stroke="#63b8ff" d="M508.1,-1430.5C530.18,-1430.5 553.01,-1430.5 572.48,-1430.5"/>
<polygon fill="#63b8ff" stroke="#63b8ff" points="508.02,-1427 498.02,-1430.5 508.02,-1434 508.02,-1427"/>
</a>
</g>
</g>
<!-- Node37 -->
<g id="Node000037" class="node">
<title>Node37</title>
<g id="a_Node000037"><a xlink:href="class_p4_1_1_d_p_d_k_1_1_copy_match_keys_to_single_struct.html" target="_top" xlink:title=" ">
<polygon fill="white" stroke="#bfbfbf" points="703,-394.5 546,-394.5 546,-364.5 703,-364.5 703,-394.5"/>
<text text-anchor="start" x="554" y="-382.5" font-family="Helvetica,sans-Serif" font-size="10.00">P4::DPDK::CopyMatchKeysTo</text>
<text text-anchor="middle" x="624.5" y="-371.5" font-family="Helvetica,sans-Serif" font-size="10.00">SingleStruct</text>
</a>
</g>
</g>
<!-- Node36&#45;&gt;Node37 -->
<g id="edge36_Node000036_Node000037" class="edge">
<title>Node36&#45;&gt;Node37</title>
<g id="a_edge36_Node000036_Node000037"><a xlink:title=" ">
<path fill="none" stroke="#63b8ff" d="M476.74,-379.5C498.35,-379.5 523.07,-379.5 545.99,-379.5"/>
<polygon fill="#63b8ff" stroke="#63b8ff" points="476.72,-376 466.72,-379.5 476.72,-383 476.72,-376"/>
</a>
</g>
</g>
</g>
</svg>
