<?xml version="1.0" encoding="UTF-8" standalone="no"?>
<!DOCTYPE svg PUBLIC "-//W3C//DTD SVG 1.1//EN"
 "http://www.w3.org/Graphics/SVG/1.1/DTD/svg11.dtd">
<!-- Generated by graphviz version 2.43.0 (0)
 -->
<!-- Title: P4Tools::TraceEvent Pages: 1 -->
<!--zoomable 470 -->

<svg id="main" version="1.1" xmlns="http://www.w3.org/2000/svg" xmlns:xlink="http://www.w3.org/1999/xlink" xml:space="preserve" onload="init(evt)">
<style type="text/css"><![CDATA[
.node, .edge {opacity: 0.7;}
.node.selected, .edge.selected {opacity: 1;}
.edge:hover path { stroke: red; }
.edge:hover polygon { stroke: red; fill: red; }
]]></style>

<defs>
  <circle id="rim" cx="0" cy="0" r="7"/>
  <circle id="rim2" cx="0" cy="0" r="3.5"/>
  <g id="zoomPlus">
    <use xlink:href="#rim" fill="#404040"><set attributeName="fill" to="#808080" begin="zoomplus.mouseover" end="zoomplus.mouseout"/></use>
    <path d="M-4,0h8M0,-4v8" fill="none" stroke="white" stroke-width="1.5" pointer-events="none"/>
  </g>
  <g id="zoomMin">
    <use xlink:href="#rim" fill="#404040"><set attributeName="fill" to="#808080" begin="zoomminus.mouseover" end="zoomminus.mouseout"/></use>
    <path d="M-4,0h8" fill="none" stroke="white" stroke-width="1.5" pointer-events="none"/>
  </g>
  <g id="arrowUp" transform="translate(30 24)">
    <use xlink:href="#rim"/>
    <path pointer-events="none" fill="none" stroke="white" stroke-width="1.5" d="M0,-3.0v7 M-2.5,-0.5L0,-3.0L2.5,-0.5"/>
  </g>
  <g id="arrowRight" transform="rotate(90) translate(36 -43)">
    <use xlink:href="#rim"/>
    <path pointer-events="none" fill="none" stroke="white" stroke-width="1.5" d="M0,-3.0v7 M-2.5,-0.5L0,-3.0L2.5,-0.5"/>
  </g>
  <g id="arrowDown" transform="rotate(180) translate(-30 -48)">
    <use xlink:href="#rim"/>
    <path pointer-events="none" fill="none" stroke="white" stroke-width="1.5" d="M0,-3.0v7 M-2.5,-0.5L0,-3.0L2.5,-0.5"/>
  </g>
  <g id="arrowLeft" transform="rotate(270) translate(-36 17)">
    <use xlink:href="#rim"/>
    <path pointer-events="none" fill="none" stroke="white" stroke-width="1.5" d="M0,-3.0v7 M-2.5,-0.5L0,-3.0L2.5,-0.5"/>
  </g>
  <g id="resetDef">
    <use xlink:href="#rim2" fill="#404040"><set attributeName="fill" to="#808080" begin="reset.mouseover" end="reset.mouseout"/></use>
  </g>
</defs>
<script type="application/ecmascript">
var viewWidth = 644;
var viewHeight = 470;
var sectionId = 'dynsection-0';
</script>
<script type="application/ecmascript" xlink:href="svg.min.js"/>
<svg id="graph" class="graph">
<g id="viewport">
<title>P4Tools::TraceEvent</title>
<!-- Node1 -->
<g id="Node000001" class="node">
<title>Node1</title>
<g id="a_Node000001"><a xlink:title="An event in a trace of the execution of a P4 program.">
<polygon fill="#999999" stroke="#666666" points="315,-240.5 202,-240.5 202,-221.5 315,-221.5 315,-240.5"/>
<text text-anchor="middle" x="258.5" y="-228.5" font-family="Helvetica,sans-Serif" font-size="10.00">P4Tools::TraceEvent</text>
</a>
</g>
</g>
<!-- Node4 -->
<g id="Node000004" class="node">
<title>Node4</title>
<g id="a_Node000004"><a xlink:href="class_p4_tools_1_1_trace_events_1_1_assignment_statement.html" target="_top" xlink:title="Represents an assignment statement.">
<polygon fill="white" stroke="#666666" points="482,-462 351,-462 351,-432 482,-432 482,-462"/>
<text text-anchor="start" x="359" y="-450" font-family="Helvetica,sans-Serif" font-size="10.00">P4Tools::TraceEvents</text>
<text text-anchor="middle" x="416.5" y="-439" font-family="Helvetica,sans-Serif" font-size="10.00">::AssignmentStatement</text>
</a>
</g>
</g>
<!-- Node1&#45;&gt;Node4 -->
<g id="edge3_Node000001_Node000004" class="edge">
<title>Node1&#45;&gt;Node4</title>
<g id="a_edge3_Node000001_Node000004"><a xlink:title=" ">
<path fill="none" stroke="#63b8ff" d="M263.59,-250.36C272.66,-288.63 297.94,-374.44 351,-423 354.7,-426.39 358.93,-429.31 363.4,-431.83"/>
<polygon fill="#63b8ff" stroke="#63b8ff" points="266.98,-249.49 261.37,-240.5 260.16,-251.02 266.98,-249.49"/>
</a>
</g>
</g>
<!-- Node5 -->
<g id="Node000005" class="node">
<title>Node5</title>
<g id="a_Node000005"><a xlink:href="class_p4_tools_1_1_trace_events_1_1_emit.html" target="_top" xlink:title="A field being emitted by a deparser.">
<polygon fill="white" stroke="#666666" points="475.5,-414 357.5,-414 357.5,-384 475.5,-384 475.5,-414"/>
<text text-anchor="start" x="365.5" y="-402" font-family="Helvetica,sans-Serif" font-size="10.00">P4Tools::TraceEvents</text>
<text text-anchor="middle" x="416.5" y="-391" font-family="Helvetica,sans-Serif" font-size="10.00">::Emit</text>
</a>
</g>
</g>
<!-- Node1&#45;&gt;Node5 -->
<g id="edge4_Node000001_Node000005" class="edge">
<title>Node1&#45;&gt;Node5</title>
<g id="a_edge4_Node000001_Node000005"><a xlink:title=" ">
<path fill="none" stroke="#63b8ff" d="M266.85,-250.05C279.54,-280.57 308.37,-340.49 351,-375 355.18,-378.38 359.88,-381.32 364.8,-383.86"/>
<polygon fill="#63b8ff" stroke="#63b8ff" points="270.01,-248.54 263.04,-240.57 263.52,-251.15 270.01,-248.54"/>
</a>
</g>
</g>
<!-- Node6 -->
<g id="Node000006" class="node">
<title>Node6</title>
<g id="a_Node000006"><a xlink:href="class_p4_tools_1_1_trace_events_1_1_extract_failure.html" target="_top" xlink:title=" ">
<polygon fill="white" stroke="#666666" points="475.5,-366 357.5,-366 357.5,-336 475.5,-336 475.5,-366"/>
<text text-anchor="start" x="365.5" y="-354" font-family="Helvetica,sans-Serif" font-size="10.00">P4Tools::TraceEvents</text>
<text text-anchor="middle" x="416.5" y="-343" font-family="Helvetica,sans-Serif" font-size="10.00">::ExtractFailure</text>
</a>
</g>
</g>
<!-- Node1&#45;&gt;Node6 -->
<g id="edge5_Node000001_Node000006" class="edge">
<title>Node1&#45;&gt;Node6</title>
<g id="a_edge5_Node000001_Node000006"><a xlink:title=" ">
<path fill="none" stroke="#63b8ff" d="M272.3,-248.7C288.48,-269.93 318.2,-305.38 351,-327 356.09,-330.35 361.71,-333.32 367.45,-335.93"/>
<polygon fill="#63b8ff" stroke="#63b8ff" points="275.01,-246.47 266.22,-240.55 269.39,-250.66 275.01,-246.47"/>
</a>
</g>
</g>
<!-- Node7 -->
<g id="Node000007" class="node">
<title>Node7</title>
<g id="a_Node000007"><a xlink:href="class_p4_tools_1_1_trace_events_1_1_extract_success.html" target="_top" xlink:title=" ">
<polygon fill="white" stroke="#666666" points="475.5,-318 357.5,-318 357.5,-288 475.5,-288 475.5,-318"/>
<text text-anchor="start" x="365.5" y="-306" font-family="Helvetica,sans-Serif" font-size="10.00">P4Tools::TraceEvents</text>
<text text-anchor="middle" x="416.5" y="-295" font-family="Helvetica,sans-Serif" font-size="10.00">::ExtractSuccess</text>
</a>
</g>
</g>
<!-- Node1&#45;&gt;Node7 -->
<g id="edge6_Node000001_Node000007" class="edge">
<title>Node1&#45;&gt;Node7</title>
<g id="a_edge6_Node000001_Node000007"><a xlink:title=" ">
<path fill="none" stroke="#63b8ff" d="M285.17,-245.59C303.28,-255.6 328.26,-268.85 351,-279 357.87,-282.07 365.27,-285.08 372.52,-287.87"/>
<polygon fill="#63b8ff" stroke="#63b8ff" points="286.82,-242.5 276.38,-240.68 283.41,-248.61 286.82,-242.5"/>
</a>
</g>
</g>
<!-- Node8 -->
<g id="Node000008" class="node">
<title>Node8</title>
<g id="a_Node000008"><a xlink:href="class_p4_tools_1_1_trace_events_1_1_generic.html" target="_top" xlink:title="A generic event that only takes in a string as label.">
<polygon fill="white" stroke="#666666" points="475.5,-270 357.5,-270 357.5,-240 475.5,-240 475.5,-270"/>
<text text-anchor="start" x="365.5" y="-258" font-family="Helvetica,sans-Serif" font-size="10.00">P4Tools::TraceEvents</text>
<text text-anchor="middle" x="416.5" y="-247" font-family="Helvetica,sans-Serif" font-size="10.00">::Generic</text>
</a>
</g>
</g>
<!-- Node1&#45;&gt;Node8 -->
<g id="edge7_Node000001_Node000008" class="edge">
<title>Node1&#45;&gt;Node8</title>
<g id="a_edge7_Node000001_Node000008"><a xlink:title=" ">
<path fill="none" stroke="#63b8ff" d="M325.43,-241.14C336.05,-242.78 346.97,-244.46 357.38,-246.06"/>
<polygon fill="#63b8ff" stroke="#63b8ff" points="325.79,-237.66 315.38,-239.6 324.73,-244.58 325.79,-237.66"/>
</a>
</g>
</g>
<!-- Node11 -->
<g id="Node000011" class="node">
<title>Node11</title>
<g id="a_Node000011"><a xlink:href="class_p4_tools_1_1_trace_events_1_1_if_statement_condition.html" target="_top" xlink:title="Represents an if statement condition.">
<polygon fill="white" stroke="#666666" points="480,-222 353,-222 353,-192 480,-192 480,-222"/>
<text text-anchor="start" x="361" y="-210" font-family="Helvetica,sans-Serif" font-size="10.00">P4Tools::TraceEvents</text>
<text text-anchor="middle" x="416.5" y="-199" font-family="Helvetica,sans-Serif" font-size="10.00">::IfStatementCondition</text>
</a>
</g>
</g>
<!-- Node1&#45;&gt;Node11 -->
<g id="edge10_Node000001_Node000011" class="edge">
<title>Node1&#45;&gt;Node11</title>
<g id="a_edge10_Node000001_Node000011"><a xlink:title=" ">
<path fill="none" stroke="#63b8ff" d="M325.5,-220.85C334.56,-219.45 343.85,-218.02 352.86,-216.64"/>
<polygon fill="#63b8ff" stroke="#63b8ff" points="324.73,-217.42 315.38,-222.4 325.79,-224.34 324.73,-217.42"/>
</a>
</g>
</g>
<!-- Node12 -->
<g id="Node000012" class="node">
<title>Node12</title>
<g id="a_Node000012"><a xlink:href="class_p4_tools_1_1_trace_events_1_1_method_call.html" target="_top" xlink:title="Label dedicated to method call expression.">
<polygon fill="white" stroke="#666666" points="475.5,-174 357.5,-174 357.5,-144 475.5,-144 475.5,-174"/>
<text text-anchor="start" x="365.5" y="-162" font-family="Helvetica,sans-Serif" font-size="10.00">P4Tools::TraceEvents</text>
<text text-anchor="middle" x="416.5" y="-151" font-family="Helvetica,sans-Serif" font-size="10.00">::MethodCall</text>
</a>
</g>
</g>
<!-- Node1&#45;&gt;Node12 -->
<g id="edge11_Node000001_Node000012" class="edge">
<title>Node1&#45;&gt;Node12</title>
<g id="a_edge11_Node000001_Node000012"><a xlink:title=" ">
<path fill="none" stroke="#63b8ff" d="M285.17,-216.41C303.28,-206.4 328.26,-193.15 351,-183 357.87,-179.93 365.27,-176.92 372.52,-174.13"/>
<polygon fill="#63b8ff" stroke="#63b8ff" points="283.41,-213.39 276.38,-221.32 286.82,-219.5 283.41,-213.39"/>
</a>
</g>
</g>
<!-- Node13 -->
<g id="Node000013" class="node">
<title>Node13</title>
<g id="a_Node000013"><a xlink:href="class_p4_tools_1_1_trace_events_1_1_packet.html" target="_top" xlink:title="A packet that is either presented to a parser or emitted from a deparser.">
<polygon fill="white" stroke="#666666" points="475.5,-126 357.5,-126 357.5,-96 475.5,-96 475.5,-126"/>
<text text-anchor="start" x="365.5" y="-114" font-family="Helvetica,sans-Serif" font-size="10.00">P4Tools::TraceEvents</text>
<text text-anchor="middle" x="416.5" y="-103" font-family="Helvetica,sans-Serif" font-size="10.00">::Packet</text>
</a>
</g>
</g>
<!-- Node1&#45;&gt;Node13 -->
<g id="edge12_Node000001_Node000013" class="edge">
<title>Node1&#45;&gt;Node13</title>
<g id="a_edge12_Node000001_Node000013"><a xlink:title=" ">
<path fill="none" stroke="#63b8ff" d="M272.3,-213.3C288.48,-192.07 318.2,-156.62 351,-135 356.09,-131.65 361.71,-128.68 367.45,-126.07"/>
<polygon fill="#63b8ff" stroke="#63b8ff" points="269.39,-211.34 266.22,-221.45 275.01,-215.53 269.39,-211.34"/>
</a>
</g>
</g>
<!-- Node14 -->
<g id="Node000014" class="node">
<title>Node14</title>
<g id="a_Node000014"><a xlink:href="class_p4_tools_1_1_trace_events_1_1_parser_start.html" target="_top" xlink:title="Marks the start of a parser.">
<polygon fill="white" stroke="#666666" points="475.5,-78 357.5,-78 357.5,-48 475.5,-48 475.5,-78"/>
<text text-anchor="start" x="365.5" y="-66" font-family="Helvetica,sans-Serif" font-size="10.00">P4Tools::TraceEvents</text>
<text text-anchor="middle" x="416.5" y="-55" font-family="Helvetica,sans-Serif" font-size="10.00">::ParserStart</text>
</a>
</g>
</g>
<!-- Node1&#45;&gt;Node14 -->
<g id="edge13_Node000001_Node000014" class="edge">
<title>Node1&#45;&gt;Node14</title>
<g id="a_edge13_Node000001_Node000014"><a xlink:title=" ">
<path fill="none" stroke="#63b8ff" d="M266.85,-211.95C279.54,-181.43 308.37,-121.51 351,-87 355.18,-83.62 359.88,-80.68 364.8,-78.14"/>
<polygon fill="#63b8ff" stroke="#63b8ff" points="263.52,-210.85 263.04,-221.43 270.01,-213.46 263.52,-210.85"/>
</a>
</g>
</g>
<!-- Node15 -->
<g id="Node000015" class="node">
<title>Node15</title>
<g id="a_Node000015"><a xlink:href="class_p4_tools_1_1_trace_events_1_1_parser_state.html" target="_top" xlink:title="Marks the entry into a parser state.">
<polygon fill="white" stroke="#666666" points="475.5,-30 357.5,-30 357.5,0 475.5,0 475.5,-30"/>
<text text-anchor="start" x="365.5" y="-18" font-family="Helvetica,sans-Serif" font-size="10.00">P4Tools::TraceEvents</text>
<text text-anchor="middle" x="416.5" y="-7" font-family="Helvetica,sans-Serif" font-size="10.00">::ParserState</text>
</a>
</g>
</g>
<!-- Node1&#45;&gt;Node15 -->
<g id="edge14_Node000001_Node000015" class="edge">
<title>Node1&#45;&gt;Node15</title>
<g id="a_edge14_Node000001_Node000015"><a xlink:title=" ">
<path fill="none" stroke="#63b8ff" d="M263.59,-211.64C272.66,-173.37 297.94,-87.56 351,-39 354.7,-35.61 358.93,-32.69 363.4,-30.17"/>
<polygon fill="#63b8ff" stroke="#63b8ff" points="260.16,-210.98 261.37,-221.5 266.98,-212.51 260.16,-210.98"/>
</a>
</g>
</g>
<!-- Node2 -->
<g id="Node000002" class="node">
<title>Node2</title>
<g id="a_Node000002"><a xlink:href="class_i_castable.html" target="_top" xlink:title=" ">
<polygon fill="white" stroke="#666666" points="166,-240.5 104,-240.5 104,-221.5 166,-221.5 166,-240.5"/>
<text text-anchor="middle" x="135" y="-228.5" font-family="Helvetica,sans-Serif" font-size="10.00">ICastable</text>
</a>
</g>
</g>
<!-- Node2&#45;&gt;Node1 -->
<g id="edge1_Node000001_Node000002" class="edge">
<title>Node2&#45;&gt;Node1</title>
<g id="a_edge1_Node000001_Node000002"><a xlink:title=" ">
<path fill="none" stroke="#63b8ff" d="M176.09,-231C184.3,-231 193.1,-231 201.75,-231"/>
<polygon fill="#63b8ff" stroke="#63b8ff" points="176.03,-227.5 166.03,-231 176.03,-234.5 176.03,-227.5"/>
</a>
</g>
</g>
<!-- Node3 -->
<g id="Node000003" class="node">
<title>Node3</title>
<g id="a_Node000003"><a xlink:href="struct_r_t_t_i_1_1_base.html" target="_top" xlink:title=" ">
<polygon fill="white" stroke="#bfbfbf" points="68,-240.5 0,-240.5 0,-221.5 68,-221.5 68,-240.5"/>
<text text-anchor="middle" x="34" y="-228.5" font-family="Helvetica,sans-Serif" font-size="10.00">RTTI::Base</text>
</a>
</g>
</g>
<!-- Node3&#45;&gt;Node2 -->
<g id="edge2_Node000002_Node000003" class="edge">
<title>Node3&#45;&gt;Node2</title>
<g id="a_edge2_Node000002_Node000003"><a xlink:title=" ">
<path fill="none" stroke="#63b8ff" d="M78.44,-231C86.95,-231 95.71,-231 103.68,-231"/>
<polygon fill="#63b8ff" stroke="#63b8ff" points="78.24,-227.5 68.24,-231 78.24,-234.5 78.24,-227.5"/>
</a>
</g>
</g>
<!-- Node9 -->
<g id="Node000009" class="node">
<title>Node9</title>
<g id="a_Node000009"><a xlink:href="class_p4_tools_1_1_trace_events_1_1_expression.html" target="_top" xlink:title="A simple event that stores the provided expression.">
<polygon fill="white" stroke="#666666" points="636,-294 518,-294 518,-264 636,-264 636,-294"/>
<text text-anchor="start" x="526" y="-282" font-family="Helvetica,sans-Serif" font-size="10.00">P4Tools::TraceEvents</text>
<text text-anchor="middle" x="577" y="-271" font-family="Helvetica,sans-Serif" font-size="10.00">::Expression</text>
</a>
</g>
</g>
<!-- Node8&#45;&gt;Node9 -->
<g id="edge8_Node000008_Node000009" class="edge">
<title>Node8&#45;&gt;Node9</title>
<g id="a_edge8_Node000008_Node000009"><a xlink:title=" ">
<path fill="none" stroke="#63b8ff" d="M485.77,-265.34C496.47,-266.96 507.44,-268.62 517.89,-270.2"/>
<polygon fill="#63b8ff" stroke="#63b8ff" points="486.03,-261.84 475.62,-263.8 484.98,-268.76 486.03,-261.84"/>
</a>
</g>
</g>
<!-- Node10 -->
<g id="Node000010" class="node">
<title>Node10</title>
<g id="a_Node000010"><a xlink:href="class_p4_tools_1_1_trace_events_1_1_generic_description.html" target="_top" xlink:title=" ">
<polygon fill="white" stroke="#666666" points="636,-246 518,-246 518,-216 636,-216 636,-246"/>
<text text-anchor="start" x="526" y="-234" font-family="Helvetica,sans-Serif" font-size="10.00">P4Tools::TraceEvents</text>
<text text-anchor="middle" x="577" y="-223" font-family="Helvetica,sans-Serif" font-size="10.00">::GenericDescription</text>
</a>
</g>
</g>
<!-- Node8&#45;&gt;Node10 -->
<g id="edge9_Node000008_Node000010" class="edge">
<title>Node8&#45;&gt;Node10</title>
<g id="a_edge9_Node000008_Node000010"><a xlink:title=" ">
<path fill="none" stroke="#63b8ff" d="M485.77,-244.66C496.47,-243.04 507.44,-241.38 517.89,-239.8"/>
<polygon fill="#63b8ff" stroke="#63b8ff" points="484.98,-241.24 475.62,-246.2 486.03,-248.16 484.98,-241.24"/>
</a>
</g>
</g>
</g>
</svg>

<g id="navigator" transform="translate(0 0)" fill="#404254">
  <rect fill="#f2f5e9" fill-opacity="0.5" stroke="#606060" stroke-width=".5" x="0" y="0" width="60" height="60"/>
  <use id="zoomplus" xlink:href="#zoomPlus" x="17" y="9" onmousedown="handleZoom(evt,'in')"/>
  <use id="zoomminus" xlink:href="#zoomMin" x="42" y="9" onmousedown="handleZoom(evt,'out')"/>
  <use id="reset" xlink:href="#resetDef" x="30" y="36" onmousedown="handleReset()"/>
   <use id="arrowup" xlink:href="#arrowUp" x="0" y="0" onmousedown="handlePan(0,-1)"/>
  <use id="arrowright" xlink:href="#arrowRight" x="0" y="0" onmousedown="handlePan(1,0)"/>
  <use id="arrowdown" xlink:href="#arrowDown" x="0" y="0" onmousedown="handlePan(0,1)"/>
  <use id="arrowleft" xlink:href="#arrowLeft" x="0" y="0" onmousedown="handlePan(-1,0)"/>
</g>
<svg viewBox="0 0 15 15" width="100%" height="30px" preserveAspectRatio="xMaxYMin meet">
 <g id="arrow_out" transform="scale(0.3 0.3)">
  <a xlink:href="class_p4_tools_1_1_trace_event__inherit__graph_org.svg" target="_base">
   <rect id="button" ry="5" rx="5" y="6" x="6" height="38" width="38"
        fill="#f2f5e9" fill-opacity="0.5" stroke="#606060" stroke-width="1.0"/>
   <path id="arrow"
     d="M 11.500037,31.436501 C 11.940474,20.09759 22.043105,11.32322 32.158766,21.979434 L 37.068811,17.246167 C 37.068811,17.246167 37.088388,32 37.088388,32 L 22.160133,31.978069 C 22.160133,31.978069 26.997745,27.140456 26.997745,27.140456 C 18.528582,18.264221 13.291696,25.230495 11.500037,31.436501 z"
     style="fill:#404040;"/>
  </a>
 </g>
</svg>

<style type='text/css'>
<![CDATA[
[data-mouse-over-selected='false'] { opacity: 0.7; }
[data-mouse-over-selected='true']  { opacity: 1.0; }
]]>
</style>
<script type="application/ecmascript"><![CDATA[
document.addEventListener('DOMContentLoaded', (event) => {
  highlightEdges();
  highlightAdjacentNodes();
});
]]></script>
</svg>
