<?xml version="1.0" encoding="UTF-8" standalone="no"?>
<!DOCTYPE svg PUBLIC "-//W3C//DTD SVG 1.1//EN"
 "http://www.w3.org/Graphics/SVG/1.1/DTD/svg11.dtd">
<!-- Generated by graphviz version 2.43.0 (0)
 -->
<!-- Title: P4::P4Tools::P4Testgen::Pna::SharedPnaTableStepper Pages: 1 -->
<svg width="169pt" height="170pt"
 viewBox="0.00 0.00 169.00 170.00" xmlns="http://www.w3.org/2000/svg" xmlns:xlink="http://www.w3.org/1999/xlink">
<g id="graph0" class="graph" transform="scale(1 1) rotate(0) translate(4 166)">
<title>P4::P4Tools::P4Testgen::Pna::SharedPnaTableStepper</title>
<!-- Node1 -->
<g id="Node000001" class="node">
<title>Node1</title>
<g id="a_Node000001"><a xlink:title=" ">
<polygon fill="#999999" stroke="#666666" points="161,-96 0,-96 0,-66 161,-66 161,-96"/>
<text text-anchor="start" x="8" y="-84" font-family="Helvetica,sans-Serif" font-size="10.00">P4::P4Tools::P4Testgen</text>
<text text-anchor="middle" x="80.5" y="-73" font-family="Helvetica,sans-Serif" font-size="10.00">::Pna::SharedPnaTableStepper</text>
</a>
</g>
</g>
<!-- Node3 -->
<g id="Node000003" class="node">
<title>Node3</title>
<g id="a_Node000003"><a xlink:href="class_p4_1_1_p4_tools_1_1_p4_testgen_1_1_pna_1_1_pna_dpdk_table_stepper.html" target="_top" xlink:title=" ">
<polygon fill="white" stroke="#bfbfbf" points="157,-30 4,-30 4,0 157,0 157,-30"/>
<text text-anchor="start" x="12" y="-18" font-family="Helvetica,sans-Serif" font-size="10.00">P4::P4Tools::P4Testgen</text>
<text text-anchor="middle" x="80.5" y="-7" font-family="Helvetica,sans-Serif" font-size="10.00">::Pna::PnaDpdkTableStepper</text>
</a>
</g>
</g>
<!-- Node1&#45;&gt;Node3 -->
<g id="edge2_Node000001_Node000003" class="edge">
<title>Node1&#45;&gt;Node3</title>
<g id="a_edge2_Node000001_Node000003"><a xlink:title=" ">
<path fill="none" stroke="#63b8ff" d="M80.5,-55.54C80.5,-46.96 80.5,-37.61 80.5,-30.16"/>
<polygon fill="#63b8ff" stroke="#63b8ff" points="77,-55.8 80.5,-65.8 84,-55.8 77,-55.8"/>
</a>
</g>
</g>
<!-- Node2 -->
<g id="Node000002" class="node">
<title>Node2</title>
<g id="a_Node000002"><a xlink:href="class_p4_1_1_p4_tools_1_1_p4_testgen_1_1_table_stepper.html" target="_top" xlink:title="Implements small&#45;step operational semantics for tables.">
<polygon fill="white" stroke="#666666" points="144,-162 17,-162 17,-132 144,-132 144,-162"/>
<text text-anchor="start" x="25" y="-150" font-family="Helvetica,sans-Serif" font-size="10.00">P4::P4Tools::P4Testgen</text>
<text text-anchor="middle" x="80.5" y="-139" font-family="Helvetica,sans-Serif" font-size="10.00">::TableStepper</text>
</a>
</g>
</g>
<!-- Node2&#45;&gt;Node1 -->
<g id="edge1_Node000001_Node000002" class="edge">
<title>Node2&#45;&gt;Node1</title>
<g id="a_edge1_Node000001_Node000002"><a xlink:title=" ">
<path fill="none" stroke="#63b8ff" d="M80.5,-121.54C80.5,-112.96 80.5,-103.61 80.5,-96.16"/>
<polygon fill="#63b8ff" stroke="#63b8ff" points="77,-121.8 80.5,-131.8 84,-121.8 77,-121.8"/>
</a>
</g>
</g>
</g>
</svg>
