<?xml version="1.0" encoding="UTF-8" standalone="no"?>
<!DOCTYPE svg PUBLIC "-//W3C//DTD SVG 1.1//EN"
 "http://www.w3.org/Graphics/SVG/1.1/DTD/svg11.dtd">
<!-- Generated by graphviz version 2.43.0 (0)
 -->
<!-- Title: P4::DeclarationLookup Pages: 1 -->
<svg width="711pt" height="1572pt"
 viewBox="0.00 0.00 711.00 1572.00" xmlns="http://www.w3.org/2000/svg" xmlns:xlink="http://www.w3.org/1999/xlink">
<g id="graph0" class="graph" transform="scale(1 1) rotate(0) translate(4 1568)">
<title>P4::DeclarationLookup</title>
<!-- Node1 -->
<g id="Node000001" class="node">
<title>Node1</title>
<g id="a_Node000001"><a xlink:title=" ">
<polygon fill="#999999" stroke="#666666" points="125,-758 0,-758 0,-739 125,-739 125,-758"/>
<text text-anchor="middle" x="62.5" y="-746" font-family="Helvetica,sans-Serif" font-size="10.00">P4::DeclarationLookup</text>
</a>
</g>
</g>
<!-- Node2 -->
<g id="Node000002" class="node">
<title>Node2</title>
<g id="a_Node000002"><a xlink:href="class_p4_1_1_reference_map.html" target="_top" xlink:title="Class used to encode maps from paths to declarations.">
<polygon fill="white" stroke="#666666" points="276,-777 171,-777 171,-758 276,-758 276,-777"/>
<text text-anchor="middle" x="223.5" y="-765" font-family="Helvetica,sans-Serif" font-size="10.00">P4::ReferenceMap</text>
</a>
</g>
</g>
<!-- Node1&#45;&gt;Node2 -->
<g id="edge1_Node000001_Node000002" class="edge">
<title>Node1&#45;&gt;Node2</title>
<g id="a_edge1_Node000001_Node000002"><a xlink:title=" ">
<path fill="none" stroke="#63b8ff" d="M135.37,-757.09C147.31,-758.51 159.47,-759.97 170.77,-761.32"/>
<polygon fill="#63b8ff" stroke="#63b8ff" points="135.77,-753.61 125.43,-755.9 134.94,-760.56 135.77,-753.61"/>
</a>
</g>
</g>
<!-- Node3 -->
<g id="Node000003" class="node">
<title>Node3</title>
<g id="a_Node000003"><a xlink:href="class_p4_1_1_resolution_context.html" target="_top" xlink:title="Visitor mixin for looking up names in enclosing scopes from the Visitor::Context.">
<polygon fill="white" stroke="#666666" points="286,-740 161,-740 161,-721 286,-721 286,-740"/>
<text text-anchor="middle" x="223.5" y="-728" font-family="Helvetica,sans-Serif" font-size="10.00">P4::ResolutionContext</text>
</a>
</g>
</g>
<!-- Node1&#45;&gt;Node3 -->
<g id="edge2_Node000001_Node000003" class="edge">
<title>Node1&#45;&gt;Node3</title>
<g id="a_edge2_Node000001_Node000003"><a xlink:title=" ">
<path fill="none" stroke="#63b8ff" d="M135.59,-740.34C143.99,-739.39 152.5,-738.42 160.74,-737.49"/>
<polygon fill="#63b8ff" stroke="#63b8ff" points="134.97,-736.89 125.43,-741.49 135.76,-743.84 134.97,-736.89"/>
</a>
</g>
</g>
<!-- Node4 -->
<g id="Node000004" class="node">
<title>Node4</title>
<g id="a_Node000004"><a xlink:href="class_p4_1_1_abstract_inliner.html" target="_top" xlink:title=" ">
<polygon fill="white" stroke="#bfbfbf" points="471.5,-1564 360.5,-1564 360.5,-1523 471.5,-1523 471.5,-1564"/>
<text text-anchor="start" x="368.5" y="-1552" font-family="Helvetica,sans-Serif" font-size="10.00">P4::AbstractInliner</text>
<text text-anchor="start" x="368.5" y="-1541" font-family="Helvetica,sans-Serif" font-size="10.00">&lt; ActionsInlineList,</text>
<text text-anchor="middle" x="416" y="-1530" font-family="Helvetica,sans-Serif" font-size="10.00"> AInlineWorkList &gt;</text>
</a>
</g>
</g>
<!-- Node3&#45;&gt;Node4 -->
<g id="edge3_Node000003_Node000004" class="edge">
<title>Node3&#45;&gt;Node4</title>
<g id="a_edge3_Node000003_Node000004"><a xlink:title=" ">
<path fill="none" stroke="#63b8ff" d="M282.96,-746.08C284.04,-747.15 285.06,-748.29 286,-749.5 390.22,-884.04 217.95,-1379.82 322,-1514.5 331.31,-1526.55 345.56,-1533.71 360.14,-1537.93"/>
<polygon fill="#63b8ff" stroke="#63b8ff" points="285.06,-743.28 274.98,-740.01 280.82,-748.85 285.06,-743.28"/>
</a>
</g>
</g>
<!-- Node6 -->
<g id="Node000006" class="node">
<title>Node6</title>
<g id="a_Node000006"><a xlink:href="class_p4_1_1_abstract_inliner.html" target="_top" xlink:title=" ">
<polygon fill="white" stroke="#bfbfbf" points="489,-1505 343,-1505 343,-1464 489,-1464 489,-1505"/>
<text text-anchor="start" x="351" y="-1493" font-family="Helvetica,sans-Serif" font-size="10.00">P4::AbstractInliner</text>
<text text-anchor="start" x="351" y="-1482" font-family="Helvetica,sans-Serif" font-size="10.00">&lt; FunctionsInlineList,</text>
<text text-anchor="middle" x="416" y="-1471" font-family="Helvetica,sans-Serif" font-size="10.00"> FunctionsInlineWorkList &gt;</text>
</a>
</g>
</g>
<!-- Node3&#45;&gt;Node6 -->
<g id="edge5_Node000003_Node000006" class="edge">
<title>Node3&#45;&gt;Node6</title>
<g id="a_edge5_Node000003_Node000006"><a xlink:title=" ">
<path fill="none" stroke="#63b8ff" d="M282.95,-746.08C284.04,-747.15 285.06,-748.29 286,-749.5 382.31,-873.32 226.45,-1330.08 322,-1454.5 327.48,-1461.63 334.67,-1467.1 342.64,-1471.28"/>
<polygon fill="#63b8ff" stroke="#63b8ff" points="285.05,-743.28 274.96,-740.02 280.82,-748.86 285.05,-743.28"/>
</a>
</g>
</g>
<!-- Node8 -->
<g id="Node000008" class="node">
<title>Node8</title>
<g id="a_Node000008"><a xlink:href="class_p4_1_1_abstract_inliner.html" target="_top" xlink:title=" ">
<polygon fill="white" stroke="#bfbfbf" points="498,-1445.5 334,-1445.5 334,-1415.5 498,-1415.5 498,-1445.5"/>
<text text-anchor="start" x="342" y="-1433.5" font-family="Helvetica,sans-Serif" font-size="10.00">P4::AbstractInliner</text>
<text text-anchor="middle" x="416" y="-1422.5" font-family="Helvetica,sans-Serif" font-size="10.00">&lt; InlineList, InlineSummary &gt;</text>
</a>
</g>
</g>
<!-- Node3&#45;&gt;Node8 -->
<g id="edge7_Node000003_Node000008" class="edge">
<title>Node3&#45;&gt;Node8</title>
<g id="a_edge7_Node000003_Node000008"><a xlink:title=" ">
<path fill="none" stroke="#63b8ff" d="M282.95,-746.09C284.03,-747.15 285.05,-748.29 286,-749.5 375.99,-864.75 229.32,-1293.4 322,-1406.5 325.38,-1410.63 329.37,-1414.1 333.76,-1417.01"/>
<polygon fill="#63b8ff" stroke="#63b8ff" points="285.03,-743.28 274.95,-740.04 280.81,-748.86 285.03,-743.28"/>
</a>
</g>
</g>
<!-- Node10 -->
<g id="Node000010" class="node">
<title>Node10</title>
<g id="a_Node000010"><a xlink:href="class_p4_1_1_abstract_inliner.html" target="_top" xlink:title=" ">
<polygon fill="white" stroke="#bfbfbf" points="490,-1397 342,-1397 342,-1356 490,-1356 490,-1397"/>
<text text-anchor="start" x="350" y="-1385" font-family="Helvetica,sans-Serif" font-size="10.00">P4::AbstractInliner</text>
<text text-anchor="start" x="350" y="-1374" font-family="Helvetica,sans-Serif" font-size="10.00">&lt; P4::InlineList, InlineWork</text>
<text text-anchor="middle" x="416" y="-1363" font-family="Helvetica,sans-Serif" font-size="10.00">List &gt;</text>
</a>
</g>
</g>
<!-- Node3&#45;&gt;Node10 -->
<g id="edge9_Node000003_Node000010" class="edge">
<title>Node3&#45;&gt;Node10</title>
<g id="a_edge9_Node000003_Node000010"><a xlink:title=" ">
<path fill="none" stroke="#63b8ff" d="M282.94,-746.09C284.03,-747.16 285.05,-748.29 286,-749.5 368.08,-854.03 240.57,-1241.46 322,-1346.5 327.3,-1353.34 334.18,-1358.64 341.8,-1362.75"/>
<polygon fill="#63b8ff" stroke="#63b8ff" points="285.02,-743.28 274.93,-740.05 280.8,-748.87 285.02,-743.28"/>
</a>
</g>
</g>
<!-- Node11 -->
<g id="Node000011" class="node">
<title>Node11</title>
<g id="a_Node000011"><a xlink:href="class_p4_1_1_abstract_inliner.html" target="_top" xlink:title=" ">
<polygon fill="white" stroke="#bfbfbf" points="495,-1337.5 337,-1337.5 337,-1307.5 495,-1307.5 495,-1337.5"/>
<text text-anchor="start" x="345" y="-1325.5" font-family="Helvetica,sans-Serif" font-size="10.00">P4::AbstractInliner</text>
<text text-anchor="middle" x="416" y="-1314.5" font-family="Helvetica,sans-Serif" font-size="10.00">&lt; InlineList, InlineWorkList &gt;</text>
</a>
</g>
</g>
<!-- Node3&#45;&gt;Node11 -->
<g id="edge10_Node000003_Node000011" class="edge">
<title>Node3&#45;&gt;Node11</title>
<g id="a_edge10_Node000003_Node000011"><a xlink:title=" ">
<path fill="none" stroke="#63b8ff" d="M282.93,-746.1C284.02,-747.16 285.05,-748.29 286,-749.5 361.76,-845.46 244,-1204.35 322,-1298.5 326.15,-1303.51 331.19,-1307.55 336.76,-1310.8"/>
<polygon fill="#63b8ff" stroke="#63b8ff" points="285,-743.28 274.91,-740.07 280.8,-748.88 285,-743.28"/>
</a>
</g>
</g>
<!-- Node12 -->
<g id="Node000012" class="node">
<title>Node12</title>
<g id="a_Node000012"><a xlink:href="class_p4_1_1_compute_def_use.html" target="_top" xlink:title="Compute defuse info within P4Parser and P4Control blocks in the midend.">
<polygon fill="white" stroke="#666666" points="473.5,-1289 358.5,-1289 358.5,-1270 473.5,-1270 473.5,-1289"/>
<text text-anchor="middle" x="416" y="-1277" font-family="Helvetica,sans-Serif" font-size="10.00">P4::ComputeDefUse</text>
</a>
</g>
</g>
<!-- Node3&#45;&gt;Node12 -->
<g id="edge11_Node000003_Node000012" class="edge">
<title>Node3&#45;&gt;Node12</title>
<g id="a_edge11_Node000003_Node000012"><a xlink:title=" ">
<path fill="none" stroke="#63b8ff" d="M282.92,-746.11C284.02,-747.17 285.04,-748.3 286,-749.5 356.76,-838.68 246.95,-1174.9 322,-1260.5 331.23,-1271.03 344.59,-1276.67 358.31,-1279.49"/>
<polygon fill="#63b8ff" stroke="#63b8ff" points="284.99,-743.28 274.89,-740.08 280.79,-748.88 284.99,-743.28"/>
</a>
</g>
</g>
<!-- Node13 -->
<g id="Node000013" class="node">
<title>Node13</title>
<g id="a_Node000013"><a xlink:href="class_p4_1_1_compute_def_use_1_1_setup_join_points.html" target="_top" xlink:title=" ">
<polygon fill="white" stroke="#bfbfbf" points="476.5,-1251.5 355.5,-1251.5 355.5,-1221.5 476.5,-1221.5 476.5,-1251.5"/>
<text text-anchor="start" x="363.5" y="-1239.5" font-family="Helvetica,sans-Serif" font-size="10.00">P4::ComputeDefUse::</text>
<text text-anchor="middle" x="416" y="-1228.5" font-family="Helvetica,sans-Serif" font-size="10.00">SetupJoinPoints</text>
</a>
</g>
</g>
<!-- Node3&#45;&gt;Node13 -->
<g id="edge12_Node000003_Node000013" class="edge">
<title>Node3&#45;&gt;Node13</title>
<g id="a_edge12_Node000003_Node000013"><a xlink:title=" ">
<path fill="none" stroke="#63b8ff" d="M282.91,-746.12C284.01,-747.17 285.04,-748.3 286,-749.5 350.44,-830.11 255.68,-1133.43 322,-1212.5 330.47,-1222.59 342.56,-1228.74 355.24,-1232.42"/>
<polygon fill="#63b8ff" stroke="#63b8ff" points="284.96,-743.28 274.86,-740.11 280.78,-748.89 284.96,-743.28"/>
</a>
</g>
</g>
<!-- Node14 -->
<g id="Node000014" class="node">
<title>Node14</title>
<g id="a_Node000014"><a xlink:href="class_p4_1_1_constant_type_substitution.html" target="_top" xlink:title=" ">
<polygon fill="white" stroke="#bfbfbf" points="495.5,-1203 336.5,-1203 336.5,-1184 495.5,-1184 495.5,-1203"/>
<text text-anchor="middle" x="416" y="-1191" font-family="Helvetica,sans-Serif" font-size="10.00">P4::ConstantTypeSubstitution</text>
</a>
</g>
</g>
<!-- Node3&#45;&gt;Node14 -->
<g id="edge13_Node000003_Node000014" class="edge">
<title>Node3&#45;&gt;Node14</title>
<g id="a_edge13_Node000003_Node000014"><a xlink:title=" ">
<path fill="none" stroke="#8b1a1a" d="M282.9,-746.13C284,-747.18 285.04,-748.3 286,-749.5 345.57,-823.51 258.51,-1104.83 322,-1175.5 326.07,-1180.03 330.9,-1183.62 336.19,-1186.46"/>
<polygon fill="#8b1a1a" stroke="#8b1a1a" points="284.94,-743.29 274.83,-740.13 280.77,-748.9 284.94,-743.29"/>
</a>
</g>
</g>
<!-- Node15 -->
<g id="Node000015" class="node">
<title>Node15</title>
<g id="a_Node000015"><a xlink:href="class_p4_1_1_create_struct_initializers.html" target="_top" xlink:title="Converts some list expressions into struct initializers.">
<polygon fill="white" stroke="#666666" points="489,-1166 343,-1166 343,-1147 489,-1147 489,-1166"/>
<text text-anchor="middle" x="416" y="-1154" font-family="Helvetica,sans-Serif" font-size="10.00">P4::CreateStructInitializers</text>
</a>
</g>
</g>
<!-- Node3&#45;&gt;Node15 -->
<g id="edge14_Node000003_Node000015" class="edge">
<title>Node3&#45;&gt;Node15</title>
<g id="a_edge14_Node000003_Node000015"><a xlink:title=" ">
<path fill="none" stroke="#63b8ff" d="M282.89,-746.14C283.99,-747.19 285.03,-748.31 286,-749.5 340.7,-816.91 263.72,-1074.15 322,-1138.5 327.74,-1144.84 334.99,-1149.34 342.89,-1152.5"/>
<polygon fill="#63b8ff" stroke="#63b8ff" points="284.92,-743.29 274.8,-740.15 280.76,-748.92 284.92,-743.29"/>
</a>
</g>
</g>
<!-- Node16 -->
<g id="Node000016" class="node">
<title>Node16</title>
<g id="a_Node000016"><a xlink:href="class_p4_1_1_deprecated.html" target="_top" xlink:title=" ">
<polygon fill="white" stroke="#666666" points="461.5,-1129 370.5,-1129 370.5,-1110 461.5,-1110 461.5,-1129"/>
<text text-anchor="middle" x="416" y="-1117" font-family="Helvetica,sans-Serif" font-size="10.00">P4::Deprecated</text>
</a>
</g>
</g>
<!-- Node3&#45;&gt;Node16 -->
<g id="edge15_Node000003_Node000016" class="edge">
<title>Node3&#45;&gt;Node16</title>
<g id="a_edge15_Node000003_Node000016"><a xlink:title=" ">
<path fill="none" stroke="#63b8ff" d="M282.79,-746.08C283.93,-747.15 285,-748.28 286,-749.5 335.84,-810.32 268.94,-1043.47 322,-1101.5 334.1,-1114.73 352.75,-1119.95 370.19,-1121.6"/>
<polygon fill="#63b8ff" stroke="#63b8ff" points="284.62,-743.07 274.47,-740.02 280.5,-748.73 284.62,-743.07"/>
</a>
</g>
</g>
<!-- Node17 -->
<g id="Node000017" class="node">
<title>Node17</title>
<g id="a_Node000017"><a xlink:href="class_p4_1_1_discover_actions_inlining.html" target="_top" xlink:title=" ">
<polygon fill="white" stroke="#bfbfbf" points="490.5,-1092 341.5,-1092 341.5,-1073 490.5,-1073 490.5,-1092"/>
<text text-anchor="middle" x="416" y="-1080" font-family="Helvetica,sans-Serif" font-size="10.00">P4::DiscoverActionsInlining</text>
</a>
</g>
</g>
<!-- Node3&#45;&gt;Node17 -->
<g id="edge16_Node000003_Node000017" class="edge">
<title>Node3&#45;&gt;Node17</title>
<g id="a_edge16_Node000003_Node000017"><a xlink:title=" ">
<path fill="none" stroke="#63b8ff" d="M282.78,-746.09C283.92,-747.16 285,-748.29 286,-749.5 375.96,-857.96 226.29,-961.08 322,-1064.5 327.36,-1070.29 333.98,-1074.55 341.2,-1077.64"/>
<polygon fill="#63b8ff" stroke="#63b8ff" points="284.58,-743.08 274.42,-740.06 280.48,-748.75 284.58,-743.08"/>
</a>
</g>
</g>
<!-- Node18 -->
<g id="Node000018" class="node">
<title>Node18</title>
<g id="a_Node000018"><a xlink:href="class_p4_1_1_discover_functions_inlining.html" target="_top" xlink:title=" ">
<polygon fill="white" stroke="#bfbfbf" points="496,-1055 336,-1055 336,-1036 496,-1036 496,-1055"/>
<text text-anchor="middle" x="416" y="-1043" font-family="Helvetica,sans-Serif" font-size="10.00">P4::DiscoverFunctionsInlining</text>
</a>
</g>
</g>
<!-- Node3&#45;&gt;Node18 -->
<g id="edge17_Node000003_Node000018" class="edge">
<title>Node3&#45;&gt;Node18</title>
<g id="a_edge17_Node000003_Node000018"><a xlink:title=" ">
<path fill="none" stroke="#63b8ff" d="M282.75,-746.11C283.9,-747.17 284.99,-748.3 286,-749.5 366.26,-844.79 236.69,-936.7 322,-1027.5 326.05,-1031.81 330.81,-1035.27 335.98,-1038.03"/>
<polygon fill="#63b8ff" stroke="#63b8ff" points="284.53,-743.08 274.37,-740.11 280.46,-748.78 284.53,-743.08"/>
</a>
</g>
</g>
<!-- Node19 -->
<g id="Node000019" class="node">
<title>Node19</title>
<g id="a_Node000019"><a xlink:href="class_p4_1_1_do_check_constants.html" target="_top" xlink:title=" ">
<polygon fill="white" stroke="#666666" points="479.5,-1018 352.5,-1018 352.5,-999 479.5,-999 479.5,-1018"/>
<text text-anchor="middle" x="416" y="-1006" font-family="Helvetica,sans-Serif" font-size="10.00">P4::DoCheckConstants</text>
</a>
</g>
</g>
<!-- Node3&#45;&gt;Node19 -->
<g id="edge18_Node000003_Node000019" class="edge">
<title>Node3&#45;&gt;Node19</title>
<g id="a_edge18_Node000003_Node000019"><a xlink:title=" ">
<path fill="none" stroke="#63b8ff" d="M282.28,-745.75C283.6,-746.91 284.85,-748.16 286,-749.5 356.57,-831.65 247.08,-912.3 322,-990.5 330.08,-998.93 340.83,-1004.07 352.15,-1007.1"/>
<polygon fill="#63b8ff" stroke="#63b8ff" points="284.21,-742.83 273.99,-740.01 280.22,-748.58 284.21,-742.83"/>
</a>
</g>
</g>
<!-- Node20 -->
<g id="Node000020" class="node">
<title>Node20</title>
<g id="a_Node000020"><a xlink:href="class_p4_1_1_do_check_core_methods.html" target="_top" xlink:title="Check types for arguments of core.p4 methods.">
<polygon fill="white" stroke="#666666" points="487.5,-981 344.5,-981 344.5,-962 487.5,-962 487.5,-981"/>
<text text-anchor="middle" x="416" y="-969" font-family="Helvetica,sans-Serif" font-size="10.00">P4::DoCheckCoreMethods</text>
</a>
</g>
</g>
<!-- Node3&#45;&gt;Node20 -->
<g id="edge19_Node000003_Node000020" class="edge">
<title>Node3&#45;&gt;Node20</title>
<g id="a_edge19_Node000003_Node000020"><a xlink:title=" ">
<path fill="none" stroke="#63b8ff" d="M282.24,-745.79C283.57,-746.94 284.83,-748.17 286,-749.5 346.91,-818.54 257.44,-887.86 322,-953.5 328.23,-959.83 335.97,-964.29 344.3,-967.39"/>
<polygon fill="#63b8ff" stroke="#63b8ff" points="284.12,-742.84 273.89,-740.1 280.18,-748.63 284.12,-742.84"/>
</a>
</g>
</g>
<!-- Node21 -->
<g id="Node000021" class="node">
<title>Node21</title>
<g id="a_Node000021"><a xlink:href="class_p4_1_1_do_constant_folding.html" target="_top" xlink:title="statically evaluates many constant expressions.">
<polygon fill="white" stroke="#666666" points="479.5,-944 352.5,-944 352.5,-925 479.5,-925 479.5,-944"/>
<text text-anchor="middle" x="416" y="-932" font-family="Helvetica,sans-Serif" font-size="10.00">P4::DoConstantFolding</text>
</a>
</g>
</g>
<!-- Node3&#45;&gt;Node21 -->
<g id="edge20_Node000003_Node000021" class="edge">
<title>Node3&#45;&gt;Node21</title>
<g id="a_edge20_Node000003_Node000021"><a xlink:title=" ">
<path fill="none" stroke="#63b8ff" d="M282.08,-745.78C283.47,-746.93 284.78,-748.17 286,-749.5 337.29,-805.48 267.75,-863.38 322,-916.5 330.23,-924.55 340.91,-929.55 352.08,-932.56"/>
<polygon fill="#63b8ff" stroke="#63b8ff" points="283.72,-742.66 273.45,-740.07 279.86,-748.5 283.72,-742.66"/>
</a>
</g>
</g>
<!-- Node22 -->
<g id="Node000022" class="node">
<title>Node22</title>
<g id="a_Node000022"><a xlink:href="class_p4_1_1_do_default_arguments.html" target="_top" xlink:title=" ">
<polygon fill="white" stroke="#666666" points="484.5,-907 347.5,-907 347.5,-888 484.5,-888 484.5,-907"/>
<text text-anchor="middle" x="416" y="-895" font-family="Helvetica,sans-Serif" font-size="10.00">P4::DoDefaultArguments</text>
</a>
</g>
</g>
<!-- Node3&#45;&gt;Node22 -->
<g id="edge21_Node000003_Node000022" class="edge">
<title>Node3&#45;&gt;Node22</title>
<g id="a_edge21_Node000003_Node000022"><a xlink:title=" ">
<path fill="none" stroke="#63b8ff" d="M281.5,-745.49C283.09,-746.72 284.6,-748.06 286,-749.5 327.76,-792.51 277.97,-838.81 322,-879.5 329.13,-886.08 337.91,-890.59 347.2,-893.63"/>
<polygon fill="#63b8ff" stroke="#63b8ff" points="283.26,-742.46 272.92,-740.12 279.54,-748.4 283.26,-742.46"/>
</a>
</g>
</g>
<!-- Node23 -->
<g id="Node000023" class="node">
<title>Node23</title>
<g id="a_Node000023"><a xlink:href="class_p4_1_1_do_remove_exits.html" target="_top" xlink:title=" ">
<polygon fill="white" stroke="#666666" points="472.5,-870 359.5,-870 359.5,-851 472.5,-851 472.5,-870"/>
<text text-anchor="middle" x="416" y="-858" font-family="Helvetica,sans-Serif" font-size="10.00">P4::DoRemoveExits</text>
</a>
</g>
</g>
<!-- Node3&#45;&gt;Node23 -->
<g id="edge22_Node000003_Node000023" class="edge">
<title>Node3&#45;&gt;Node23</title>
<g id="a_edge22_Node000003_Node000023"><a xlink:title=" ">
<path fill="none" stroke="#63b8ff" d="M280.57,-745.15C282.48,-746.47 284.31,-747.92 286,-749.5 318.41,-779.73 288,-814.07 322,-842.5 332.47,-851.25 345.93,-856.23 359.34,-858.94"/>
<polygon fill="#63b8ff" stroke="#63b8ff" points="282.05,-741.97 271.63,-740.06 278.59,-748.05 282.05,-741.97"/>
</a>
</g>
</g>
<!-- Node24 -->
<g id="Node000024" class="node">
<title>Node24</title>
<g id="a_Node000024"><a xlink:href="class_p4_1_1_do_simplify_control_flow.html" target="_top" xlink:title="Replace complex control flow nodes with simpler ones where possible.">
<polygon fill="white" stroke="#666666" points="489,-833 343,-833 343,-814 489,-814 489,-833"/>
<text text-anchor="middle" x="416" y="-821" font-family="Helvetica,sans-Serif" font-size="10.00">P4::DoSimplifyControlFlow</text>
</a>
</g>
</g>
<!-- Node3&#45;&gt;Node24 -->
<g id="edge23_Node000003_Node000024" class="edge">
<title>Node3&#45;&gt;Node24</title>
<g id="a_edge23_Node000003_Node000024"><a xlink:title=" ">
<path fill="none" stroke="#63b8ff" d="M278.14,-744.43C280.9,-745.95 283.54,-747.63 286,-749.5 309.56,-767.4 297.5,-788.91 322,-805.5 328.26,-809.74 335.28,-813.04 342.57,-815.6"/>
<polygon fill="#63b8ff" stroke="#63b8ff" points="279.55,-741.22 269.02,-740.11 276.56,-747.55 279.55,-741.22"/>
</a>
</g>
</g>
<!-- Node25 -->
<g id="Node000025" class="node">
<title>Node25</title>
<g id="a_Node000025"><a xlink:href="class_p4_1_1_do_simplify_expressions.html" target="_top" xlink:title="Convert expressions so that each expression contains at most one side effect.">
<polygon fill="white" stroke="#666666" points="489,-796 343,-796 343,-777 489,-777 489,-796"/>
<text text-anchor="middle" x="416" y="-784" font-family="Helvetica,sans-Serif" font-size="10.00">P4::DoSimplifyExpressions</text>
</a>
</g>
</g>
<!-- Node3&#45;&gt;Node25 -->
<g id="edge24_Node000003_Node000025" class="edge">
<title>Node3&#45;&gt;Node25</title>
<g id="a_edge24_Node000003_Node000025"><a xlink:title=" ">
<path fill="none" stroke="#63b8ff" d="M269.02,-743.17C274.79,-745.13 280.58,-747.25 286,-749.5 302.71,-756.42 304.93,-762.49 322,-768.5 331.62,-771.88 342.03,-774.69 352.29,-776.99"/>
<polygon fill="#63b8ff" stroke="#63b8ff" points="269.97,-739.8 259.38,-740.04 267.81,-746.46 269.97,-739.8"/>
</a>
</g>
</g>
<!-- Node26 -->
<g id="Node000026" class="node">
<title>Node26</title>
<g id="a_Node000026"><a xlink:href="class_p4_1_1_do_static_assert.html" target="_top" xlink:title=" ">
<polygon fill="white" stroke="#666666" points="469.5,-759 362.5,-759 362.5,-740 469.5,-740 469.5,-759"/>
<text text-anchor="middle" x="416" y="-747" font-family="Helvetica,sans-Serif" font-size="10.00">P4::DoStaticAssert</text>
</a>
</g>
</g>
<!-- Node3&#45;&gt;Node26 -->
<g id="edge25_Node000003_Node000026" class="edge">
<title>Node3&#45;&gt;Node26</title>
<g id="a_edge25_Node000003_Node000026"><a xlink:title=" ">
<path fill="none" stroke="#63b8ff" d="M296.04,-737.64C318.01,-739.83 341.79,-742.2 362.26,-744.24"/>
<polygon fill="#63b8ff" stroke="#63b8ff" points="296.38,-734.15 286.09,-736.64 295.69,-741.12 296.38,-734.15"/>
</a>
</g>
</g>
<!-- Node27 -->
<g id="Node000027" class="node">
<title>Node27</title>
<g id="a_Node000027"><a xlink:href="class_p4_1_1_dontcare_args.html" target="_top" xlink:title=" ">
<polygon fill="white" stroke="#666666" points="466.5,-722 365.5,-722 365.5,-703 466.5,-703 466.5,-722"/>
<text text-anchor="middle" x="416" y="-710" font-family="Helvetica,sans-Serif" font-size="10.00">P4::DontcareArgs</text>
</a>
</g>
</g>
<!-- Node3&#45;&gt;Node27 -->
<g id="edge26_Node000003_Node000027" class="edge">
<title>Node3&#45;&gt;Node27</title>
<g id="a_edge26_Node000003_Node000027"><a xlink:title=" ">
<path fill="none" stroke="#63b8ff" d="M296.18,-723.73C319.23,-721.55 344.26,-719.18 365.37,-717.19"/>
<polygon fill="#63b8ff" stroke="#63b8ff" points="295.71,-720.26 286.09,-724.68 296.37,-727.22 295.71,-720.26"/>
</a>
</g>
</g>
<!-- Node28 -->
<g id="Node000028" class="node">
<title>Node28</title>
<g id="a_Node000028"><a xlink:href="class_p4_1_1_entry_priorities.html" target="_top" xlink:title="Assigns priorities to table entries if they are not &#39;const&#39;.">
<polygon fill="white" stroke="#666666" points="468,-685 364,-685 364,-666 468,-666 468,-685"/>
<text text-anchor="middle" x="416" y="-673" font-family="Helvetica,sans-Serif" font-size="10.00">P4::EntryPriorities</text>
</a>
</g>
</g>
<!-- Node3&#45;&gt;Node28 -->
<g id="edge27_Node000003_Node000028" class="edge">
<title>Node3&#45;&gt;Node28</title>
<g id="a_edge27_Node000003_Node000028"><a xlink:title=" ">
<path fill="none" stroke="#63b8ff" d="M256.71,-717.2C275.51,-709.79 299.83,-700.82 322,-694.5 335.47,-690.66 350.25,-687.28 363.98,-684.47"/>
<polygon fill="#63b8ff" stroke="#63b8ff" points="255.41,-713.95 247.42,-720.91 258,-720.45 255.41,-713.95"/>
</a>
</g>
</g>
<!-- Node29 -->
<g id="Node000029" class="node">
<title>Node29</title>
<g id="a_Node000029"><a xlink:href="class_p4_1_1_find_action_parameters.html" target="_top" xlink:title=" ">
<polygon fill="white" stroke="#bfbfbf" points="486.5,-648 345.5,-648 345.5,-629 486.5,-629 486.5,-648"/>
<text text-anchor="middle" x="416" y="-636" font-family="Helvetica,sans-Serif" font-size="10.00">P4::FindActionParameters</text>
</a>
</g>
</g>
<!-- Node3&#45;&gt;Node29 -->
<g id="edge28_Node000003_Node000029" class="edge">
<title>Node3&#45;&gt;Node29</title>
<g id="a_edge28_Node000003_Node000029"><a xlink:title=" ">
<path fill="none" stroke="#63b8ff" d="M241.59,-713.93C259.94,-697.09 290.72,-671.55 322,-657.5 330.57,-653.65 339.93,-650.58 349.31,-648.12"/>
<polygon fill="#63b8ff" stroke="#63b8ff" points="238.97,-711.59 234.07,-720.98 243.76,-716.69 238.97,-711.59"/>
</a>
</g>
</g>
<!-- Node30 -->
<g id="Node000030" class="node">
<title>Node30</title>
<g id="a_Node000030"><a xlink:href="class_p4_1_1_find_function_specializations.html" target="_top" xlink:title=" ">
<polygon fill="white" stroke="#666666" points="501,-611 331,-611 331,-592 501,-592 501,-611"/>
<text text-anchor="middle" x="416" y="-599" font-family="Helvetica,sans-Serif" font-size="10.00">P4::FindFunctionSpecializations</text>
</a>
</g>
</g>
<!-- Node3&#45;&gt;Node30 -->
<g id="edge29_Node000003_Node000030" class="edge">
<title>Node3&#45;&gt;Node30</title>
<g id="a_edge29_Node000003_Node000030"><a xlink:title=" ">
<path fill="none" stroke="#63b8ff" d="M235.36,-712.14C251.12,-687.19 282.81,-643.13 322,-620.5 328.71,-616.63 336.09,-613.54 343.67,-611.07"/>
<polygon fill="#63b8ff" stroke="#63b8ff" points="232.36,-710.32 230.11,-720.67 238.33,-713.99 232.36,-710.32"/>
</a>
</g>
</g>
<!-- Node31 -->
<g id="Node000031" class="node">
<title>Node31</title>
<g id="a_Node000031"><a xlink:href="class_p4_1_1_find_global_action_uses.html" target="_top" xlink:title=" ">
<polygon fill="white" stroke="#bfbfbf" points="486.5,-574 345.5,-574 345.5,-555 486.5,-555 486.5,-574"/>
<text text-anchor="middle" x="416" y="-562" font-family="Helvetica,sans-Serif" font-size="10.00">P4::FindGlobalActionUses</text>
</a>
</g>
</g>
<!-- Node3&#45;&gt;Node31 -->
<g id="edge30_Node000003_Node000031" class="edge">
<title>Node3&#45;&gt;Node31</title>
<g id="a_edge30_Node000003_Node000031"><a xlink:title=" ">
<path fill="none" stroke="#63b8ff" d="M231.61,-711.13C244.42,-679.11 274.55,-615.5 322,-583.5 329.1,-578.71 337.16,-575.08 345.49,-572.34"/>
<polygon fill="#63b8ff" stroke="#63b8ff" points="228.26,-710.1 227.93,-720.69 234.79,-712.62 228.26,-710.1"/>
</a>
</g>
</g>
<!-- Node32 -->
<g id="Node000032" class="node">
<title>Node32</title>
<g id="a_Node000032"><a xlink:href="class_p4_1_1_find_repeated_action_uses.html" target="_top" xlink:title=" ">
<polygon fill="white" stroke="#bfbfbf" points="494,-537 338,-537 338,-518 494,-518 494,-537"/>
<text text-anchor="middle" x="416" y="-525" font-family="Helvetica,sans-Serif" font-size="10.00">P4::FindRepeatedActionUses</text>
</a>
</g>
</g>
<!-- Node3&#45;&gt;Node32 -->
<g id="edge31_Node000003_Node000032" class="edge">
<title>Node3&#45;&gt;Node32</title>
<g id="a_edge31_Node000003_Node000032"><a xlink:title=" ">
<path fill="none" stroke="#63b8ff" d="M229.03,-710.66C238.85,-672.41 265.89,-588.5 322,-546.5 327.15,-542.65 332.88,-539.53 338.91,-537.01"/>
<polygon fill="#63b8ff" stroke="#63b8ff" points="225.58,-710.03 226.61,-720.58 232.38,-711.69 225.58,-710.03"/>
</a>
</g>
</g>
<!-- Node33 -->
<g id="Node000033" class="node">
<title>Node33</title>
<g id="a_Node000033"><a xlink:href="class_p4_1_1_find_specializations.html" target="_top" xlink:title=" ">
<polygon fill="white" stroke="#666666" points="480,-500 352,-500 352,-481 480,-481 480,-500"/>
<text text-anchor="middle" x="416" y="-488" font-family="Helvetica,sans-Serif" font-size="10.00">P4::FindSpecializations</text>
</a>
</g>
</g>
<!-- Node3&#45;&gt;Node33 -->
<g id="edge32_Node000003_Node000033" class="edge">
<title>Node3&#45;&gt;Node33</title>
<g id="a_edge32_Node000003_Node000033"><a xlink:title=" ">
<path fill="none" stroke="#63b8ff" d="M227.12,-710.71C234.01,-667.02 256.82,-562.04 322,-509.5 330.6,-502.57 341.06,-497.97 351.83,-494.95"/>
<polygon fill="#63b8ff" stroke="#63b8ff" points="223.65,-710.25 225.67,-720.65 230.58,-711.26 223.65,-710.25"/>
</a>
</g>
</g>
<!-- Node34 -->
<g id="Node000034" class="node">
<title>Node34</title>
<g id="a_Node000034"><a xlink:href="class_p4_1_1_has_table_apply.html" target="_top" xlink:title="Checks to see whether an IR node includes a table.apply() sub&#45;expression.">
<polygon fill="white" stroke="#666666" points="469.5,-463 362.5,-463 362.5,-444 469.5,-444 469.5,-463"/>
<text text-anchor="middle" x="416" y="-451" font-family="Helvetica,sans-Serif" font-size="10.00">P4::HasTableApply</text>
</a>
</g>
</g>
<!-- Node3&#45;&gt;Node34 -->
<g id="edge33_Node000003_Node000034" class="edge">
<title>Node3&#45;&gt;Node34</title>
<g id="a_edge33_Node000003_Node000034"><a xlink:title=" ">
<path fill="none" stroke="#63b8ff" d="M225.72,-710.83C229.85,-662.23 247.59,-535.88 322,-472.5 333.17,-462.99 347.81,-457.8 362.16,-455.07"/>
<polygon fill="#63b8ff" stroke="#63b8ff" points="222.22,-710.71 224.97,-720.94 229.2,-711.23 222.22,-710.71"/>
</a>
</g>
</g>
<!-- Node35 -->
<g id="Node000035" class="node">
<title>Node35</title>
<g id="a_Node000035"><a xlink:href="class_p4_1_1_instantiate_direct_calls.html" target="_top" xlink:title=" ">
<polygon fill="white" stroke="#bfbfbf" points="486,-426 346,-426 346,-407 486,-407 486,-426"/>
<text text-anchor="middle" x="416" y="-414" font-family="Helvetica,sans-Serif" font-size="10.00">P4::InstantiateDirectCalls</text>
</a>
</g>
</g>
<!-- Node3&#45;&gt;Node35 -->
<g id="edge34_Node000003_Node000035" class="edge">
<title>Node3&#45;&gt;Node35</title>
<g id="a_edge34_Node000003_Node000035"><a xlink:title=" ">
<path fill="none" stroke="#63b8ff" d="M224.67,-710.59C226.27,-657.18 238.42,-509.78 322,-435.5 328.77,-429.48 336.93,-425.17 345.56,-422.11"/>
<polygon fill="#63b8ff" stroke="#63b8ff" points="221.17,-710.69 224.46,-720.76 228.16,-710.84 221.17,-710.69"/>
</a>
</g>
</g>
<!-- Node36 -->
<g id="Node000036" class="node">
<title>Node36</title>
<g id="a_Node000036"><a xlink:href="class_p4_1_1_key_side_effect.html" target="_top" xlink:title=" ">
<polygon fill="white" stroke="#666666" points="466.5,-389 365.5,-389 365.5,-370 466.5,-370 466.5,-389"/>
<text text-anchor="middle" x="416" y="-377" font-family="Helvetica,sans-Serif" font-size="10.00">P4::KeySideEffect</text>
</a>
</g>
</g>
<!-- Node3&#45;&gt;Node36 -->
<g id="edge35_Node000003_Node000036" class="edge">
<title>Node3&#45;&gt;Node36</title>
<g id="a_edge35_Node000003_Node000036"><a xlink:title=" ">
<path fill="none" stroke="#63b8ff" d="M223.76,-710.75C222.75,-652.94 228.25,-482.86 322,-397.5 333.67,-386.87 349.67,-381.68 365.11,-379.35"/>
<polygon fill="#63b8ff" stroke="#63b8ff" points="220.26,-710.85 224.02,-720.75 227.26,-710.66 220.26,-710.85"/>
</a>
</g>
</g>
<!-- Node38 -->
<g id="Node000038" class="node">
<title>Node38</title>
<g id="a_Node000038"><a xlink:href="class_p4_1_1_localize_actions.html" target="_top" xlink:title=" ">
<polygon fill="white" stroke="#bfbfbf" points="471,-352 361,-352 361,-333 471,-333 471,-352"/>
<text text-anchor="middle" x="416" y="-340" font-family="Helvetica,sans-Serif" font-size="10.00">P4::LocalizeActions</text>
</a>
</g>
</g>
<!-- Node3&#45;&gt;Node38 -->
<g id="edge37_Node000003_Node000038" class="edge">
<title>Node3&#45;&gt;Node38</title>
<g id="a_edge37_Node000003_Node000038"><a xlink:title=" ">
<path fill="none" stroke="#63b8ff" d="M226.94,-710.71C235.93,-641.19 269.39,-409.73 322,-360.5 332.45,-350.72 346.53,-345.51 360.58,-342.9"/>
<polygon fill="#63b8ff" stroke="#63b8ff" points="223.46,-710.39 225.67,-720.76 230.4,-711.27 223.46,-710.39"/>
</a>
</g>
</g>
<!-- Node39 -->
<g id="Node000039" class="node">
<title>Node39</title>
<g id="a_Node000039"><a xlink:href="class_p4_1_1_move_initializers.html" target="_top" xlink:title=" ">
<polygon fill="white" stroke="#666666" points="472.5,-315 359.5,-315 359.5,-296 472.5,-296 472.5,-315"/>
<text text-anchor="middle" x="416" y="-303" font-family="Helvetica,sans-Serif" font-size="10.00">P4::MoveInitializers</text>
</a>
</g>
</g>
<!-- Node3&#45;&gt;Node39 -->
<g id="edge38_Node000003_Node000039" class="edge">
<title>Node3&#45;&gt;Node39</title>
<g id="a_edge38_Node000003_Node000039"><a xlink:title=" ">
<path fill="none" stroke="#63b8ff" d="M226.44,-710.69C234.09,-636.77 264.57,-378.46 322,-323.5 332.1,-313.84 345.74,-308.6 359.47,-305.93"/>
<polygon fill="#63b8ff" stroke="#63b8ff" points="222.93,-710.61 225.41,-720.91 229.9,-711.32 222.93,-710.61"/>
</a>
</g>
</g>
<!-- Node40 -->
<g id="Node000040" class="node">
<title>Node40</title>
<g id="a_Node000040"><a xlink:href="class_p4_1_1_p4_tools_1_1_p4_program_d_c_g_creator.html" target="_top" xlink:title="The main class for building control flow DCG.">
<polygon fill="white" stroke="#666666" points="510,-278 322,-278 322,-259 510,-259 510,-278"/>
<text text-anchor="middle" x="416" y="-266" font-family="Helvetica,sans-Serif" font-size="10.00">P4::P4Tools::P4ProgramDCGCreator</text>
</a>
</g>
</g>
<!-- Node3&#45;&gt;Node40 -->
<g id="edge39_Node000003_Node000040" class="edge">
<title>Node3&#45;&gt;Node40</title>
<g id="a_edge39_Node000003_Node000040"><a xlink:title=" ">
<path fill="none" stroke="#8b1a1a" d="M226.04,-710.43C232.47,-631.96 259.8,-347.17 322,-286.5 325.41,-283.17 329.25,-280.36 333.36,-278"/>
<polygon fill="#8b1a1a" stroke="#8b1a1a" points="222.51,-710.59 225.21,-720.83 229.49,-711.14 222.51,-710.59"/>
</a>
</g>
</g>
<!-- Node41 -->
<g id="Node000041" class="node">
<title>Node41</title>
<g id="a_Node000041"><a xlink:href="class_p4_1_1_reads_writes.html" target="_top" xlink:title="Computes the SetOfLocations read and written by an expression.">
<polygon fill="white" stroke="#666666" points="464,-241 368,-241 368,-222 464,-222 464,-241"/>
<text text-anchor="middle" x="416" y="-229" font-family="Helvetica,sans-Serif" font-size="10.00">P4::ReadsWrites</text>
</a>
</g>
</g>
<!-- Node3&#45;&gt;Node41 -->
<g id="edge40_Node000003_Node000041" class="edge">
<title>Node3&#45;&gt;Node41</title>
<g id="a_edge40_Node000003_Node000041"><a xlink:title=" ">
<path fill="none" stroke="#63b8ff" d="M225.68,-710.38C230.92,-627.78 254.95,-315.96 322,-249.5 334.03,-237.58 351.43,-232.33 367.94,-230.32"/>
<polygon fill="#63b8ff" stroke="#63b8ff" points="222.15,-710.65 225.04,-720.85 229.14,-711.08 222.15,-710.65"/>
</a>
</g>
</g>
<!-- Node42 -->
<g id="Node000042" class="node">
<title>Node42</title>
<g id="a_Node000042"><a xlink:href="class_p4_1_1_rename_symbols.html" target="_top" xlink:title=" ">
<polygon fill="white" stroke="#bfbfbf" points="474.5,-204 357.5,-204 357.5,-185 474.5,-185 474.5,-204"/>
<text text-anchor="middle" x="416" y="-192" font-family="Helvetica,sans-Serif" font-size="10.00">P4::RenameSymbols</text>
</a>
</g>
</g>
<!-- Node3&#45;&gt;Node42 -->
<g id="edge41_Node000003_Node000042" class="edge">
<title>Node3&#45;&gt;Node42</title>
<g id="a_edge41_Node000003_Node000042"><a xlink:title=" ">
<path fill="none" stroke="#63b8ff" d="M225.34,-710.78C229.42,-624.94 249.96,-284.91 322,-212.5 331.4,-203.06 344.16,-197.79 357.21,-195"/>
<polygon fill="#63b8ff" stroke="#63b8ff" points="221.84,-710.81 224.88,-720.95 228.83,-711.12 221.84,-710.81"/>
</a>
</g>
</g>
<!-- Node43 -->
<g id="Node000043" class="node">
<title>Node43</title>
<g id="a_Node000043"><a xlink:href="class_p4_1_1_resolve_references.html" target="_top" xlink:title=" ">
<polygon fill="white" stroke="#666666" points="480,-167 352,-167 352,-148 480,-148 480,-167"/>
<text text-anchor="middle" x="416" y="-155" font-family="Helvetica,sans-Serif" font-size="10.00">P4::ResolveReferences</text>
</a>
</g>
</g>
<!-- Node3&#45;&gt;Node43 -->
<g id="edge42_Node000003_Node000043" class="edge">
<title>Node3&#45;&gt;Node43</title>
<g id="a_edge42_Node000003_Node000043"><a xlink:title=" ">
<path fill="none" stroke="#8b1a1a" d="M225.08,-710.53C228.12,-620.53 245.14,-253.7 322,-175.5 330.07,-167.29 340.68,-162.22 351.84,-159.2"/>
<polygon fill="#8b1a1a" stroke="#8b1a1a" points="221.58,-710.61 224.76,-720.72 228.57,-710.83 221.58,-710.61"/>
</a>
</g>
</g>
<!-- Node44 -->
<g id="Node000044" class="node">
<title>Node44</title>
<g id="a_Node000044"><a xlink:href="class_p4_1_1_substitute_parameters.html" target="_top" xlink:title=" ">
<polygon fill="white" stroke="#bfbfbf" points="486,-130 346,-130 346,-111 486,-111 486,-130"/>
<text text-anchor="middle" x="416" y="-118" font-family="Helvetica,sans-Serif" font-size="10.00">P4::SubstituteParameters</text>
</a>
</g>
</g>
<!-- Node3&#45;&gt;Node44 -->
<g id="edge43_Node000003_Node000044" class="edge">
<title>Node3&#45;&gt;Node44</title>
<g id="a_edge43_Node000003_Node000044"><a xlink:title=" ">
<path fill="none" stroke="#63b8ff" d="M224.84,-710.71C226.86,-617.42 240.17,-222.65 322,-138.5 328.54,-131.78 336.77,-127.16 345.63,-124.04"/>
<polygon fill="#63b8ff" stroke="#63b8ff" points="221.33,-710.91 224.64,-720.97 228.33,-711.04 221.33,-710.91"/>
</a>
</g>
</g>
<!-- Node45 -->
<g id="Node000045" class="node">
<title>Node45</title>
<g id="a_Node000045"><a xlink:href="class_p4_1_1_to_p4.html" target="_top" xlink:title=" ">
<polygon fill="white" stroke="#666666" points="444.5,-93 387.5,-93 387.5,-74 444.5,-74 444.5,-93"/>
<text text-anchor="middle" x="416" y="-81" font-family="Helvetica,sans-Serif" font-size="10.00">P4::ToP4</text>
</a>
</g>
</g>
<!-- Node3&#45;&gt;Node45 -->
<g id="edge44_Node000003_Node000045" class="edge">
<title>Node3&#45;&gt;Node45</title>
<g id="a_edge44_Node000003_Node000045"><a xlink:title=" ">
<path fill="none" stroke="#8b1a1a" d="M224.63,-710.7C225.68,-613.92 235.25,-191.55 322,-101.5 338.66,-84.21 366.56,-80.78 387.47,-81.04"/>
<polygon fill="#8b1a1a" stroke="#8b1a1a" points="221.13,-710.82 224.54,-720.85 228.13,-710.88 221.13,-710.82"/>
</a>
</g>
</g>
<!-- Node46 -->
<g id="Node000046" class="node">
<title>Node46</title>
<g id="a_Node000046"><a xlink:href="class_p4_1_1_type_inference.html" target="_top" xlink:title=" ">
<polygon fill="white" stroke="#bfbfbf" points="467.5,-56 364.5,-56 364.5,-37 467.5,-37 467.5,-56"/>
<text text-anchor="middle" x="416" y="-44" font-family="Helvetica,sans-Serif" font-size="10.00">P4::TypeInference</text>
</a>
</g>
</g>
<!-- Node3&#45;&gt;Node46 -->
<g id="edge45_Node000003_Node000046" class="edge">
<title>Node3&#45;&gt;Node46</title>
<g id="a_edge45_Node000003_Node000046"><a xlink:title=" ">
<path fill="none" stroke="#63b8ff" d="M224.44,-710.5C224.58,-609.93 230.38,-160.41 322,-64.5 332.9,-53.08 348.71,-47.7 364.2,-45.43"/>
<polygon fill="#63b8ff" stroke="#63b8ff" points="220.94,-710.77 224.45,-720.77 227.94,-710.76 220.94,-710.77"/>
</a>
</g>
</g>
<!-- Node47 -->
<g id="Node000047" class="node">
<title>Node47</title>
<g id="a_Node000047"><a xlink:href="class_p4_1_1_unroll_loops.html" target="_top" xlink:title=" ">
<polygon fill="white" stroke="#bfbfbf" points="462,-19 370,-19 370,0 462,0 462,-19"/>
<text text-anchor="middle" x="416" y="-7" font-family="Helvetica,sans-Serif" font-size="10.00">P4::UnrollLoops</text>
</a>
</g>
</g>
<!-- Node3&#45;&gt;Node47 -->
<g id="edge46_Node000003_Node000047" class="edge">
<title>Node3&#45;&gt;Node47</title>
<g id="a_edge46_Node000003_Node000047"><a xlink:title=" ">
<path fill="none" stroke="#63b8ff" d="M224.28,-710.71C223.52,-607.24 225.38,-129.42 322,-27.5 334.22,-14.61 352.68,-9.39 369.94,-7.67"/>
<polygon fill="#63b8ff" stroke="#63b8ff" points="220.78,-710.76 224.37,-720.73 227.78,-710.69 220.78,-710.76"/>
</a>
</g>
</g>
<!-- Node5 -->
<g id="Node000005" class="node">
<title>Node5</title>
<g id="a_Node000005"><a xlink:href="class_p4_1_1_actions_inliner.html" target="_top" xlink:title=" ">
<polygon fill="white" stroke="#bfbfbf" points="675,-1553 574,-1553 574,-1534 675,-1534 675,-1553"/>
<text text-anchor="middle" x="624.5" y="-1541" font-family="Helvetica,sans-Serif" font-size="10.00">P4::ActionsInliner</text>
</a>
</g>
</g>
<!-- Node4&#45;&gt;Node5 -->
<g id="edge4_Node000004_Node000005" class="edge">
<title>Node4&#45;&gt;Node5</title>
<g id="a_edge4_Node000004_Node000005"><a xlink:title=" ">
<path fill="none" stroke="#63b8ff" d="M481.83,-1543.5C511.6,-1543.5 546.35,-1543.5 573.98,-1543.5"/>
<polygon fill="#63b8ff" stroke="#63b8ff" points="481.53,-1540 471.53,-1543.5 481.53,-1547 481.53,-1540"/>
</a>
</g>
</g>
<!-- Node7 -->
<g id="Node000007" class="node">
<title>Node7</title>
<g id="a_Node000007"><a xlink:href="class_p4_1_1_functions_inliner.html" target="_top" xlink:title=" ">
<polygon fill="white" stroke="#666666" points="680.5,-1494 568.5,-1494 568.5,-1475 680.5,-1475 680.5,-1494"/>
<text text-anchor="middle" x="624.5" y="-1482" font-family="Helvetica,sans-Serif" font-size="10.00">P4::FunctionsInliner</text>
</a>
</g>
</g>
<!-- Node6&#45;&gt;Node7 -->
<g id="edge6_Node000006_Node000007" class="edge">
<title>Node6&#45;&gt;Node7</title>
<g id="a_edge6_Node000006_Node000007"><a xlink:title=" ">
<path fill="none" stroke="#63b8ff" d="M499.38,-1484.5C522.51,-1484.5 547.1,-1484.5 568.24,-1484.5"/>
<polygon fill="#63b8ff" stroke="#63b8ff" points="499.22,-1481 489.22,-1484.5 499.22,-1488 499.22,-1481"/>
</a>
</g>
</g>
<!-- Node9 -->
<g id="Node000009" class="node">
<title>Node9</title>
<g id="a_Node000009"><a xlink:href="class_p4_1_1_general_inliner.html" target="_top" xlink:title="Performs actual inlining work.">
<polygon fill="white" stroke="#666666" points="676.5,-1440 572.5,-1440 572.5,-1421 676.5,-1421 676.5,-1440"/>
<text text-anchor="middle" x="624.5" y="-1428" font-family="Helvetica,sans-Serif" font-size="10.00">P4::GeneralInliner</text>
</a>
</g>
</g>
<!-- Node8&#45;&gt;Node9 -->
<g id="edge8_Node000008_Node000009" class="edge">
<title>Node8&#45;&gt;Node9</title>
<g id="a_edge8_Node000008_Node000009"><a xlink:title=" ">
<path fill="none" stroke="#63b8ff" d="M508.1,-1430.5C530.18,-1430.5 553.01,-1430.5 572.48,-1430.5"/>
<polygon fill="#63b8ff" stroke="#63b8ff" points="508.02,-1427 498.02,-1430.5 508.02,-1434 508.02,-1427"/>
</a>
</g>
</g>
<!-- Node37 -->
<g id="Node000037" class="node">
<title>Node37</title>
<g id="a_Node000037"><a xlink:href="class_p4_1_1_d_p_d_k_1_1_copy_match_keys_to_single_struct.html" target="_top" xlink:title=" ">
<polygon fill="white" stroke="#bfbfbf" points="703,-394.5 546,-394.5 546,-364.5 703,-364.5 703,-394.5"/>
<text text-anchor="start" x="554" y="-382.5" font-family="Helvetica,sans-Serif" font-size="10.00">P4::DPDK::CopyMatchKeysTo</text>
<text text-anchor="middle" x="624.5" y="-371.5" font-family="Helvetica,sans-Serif" font-size="10.00">SingleStruct</text>
</a>
</g>
</g>
<!-- Node36&#45;&gt;Node37 -->
<g id="edge36_Node000036_Node000037" class="edge">
<title>Node36&#45;&gt;Node37</title>
<g id="a_edge36_Node000036_Node000037"><a xlink:title=" ">
<path fill="none" stroke="#63b8ff" d="M476.74,-379.5C498.35,-379.5 523.07,-379.5 545.99,-379.5"/>
<polygon fill="#63b8ff" stroke="#63b8ff" points="476.72,-376 466.72,-379.5 476.72,-383 476.72,-376"/>
</a>
</g>
</g>
</g>
</svg>
