<?xml version="1.0" encoding="UTF-8" standalone="no"?>
<!DOCTYPE svg PUBLIC "-//W3C//DTD SVG 1.1//EN"
 "http://www.w3.org/Graphics/SVG/1.1/DTD/svg11.dtd">
<!-- Generated by graphviz version 2.43.0 (0)
 -->
<!-- Title: Graphical Class Hierarchy Pages: 1 -->
<svg width="496pt" height="261pt"
 viewBox="0.00 0.00 496.00 261.00" xmlns="http://www.w3.org/2000/svg" xmlns:xlink="http://www.w3.org/1999/xlink">
<g id="graph0" class="graph" transform="scale(1 1) rotate(0) translate(4 257)">
<title>Graphical Class Hierarchy</title>
<!-- Node0 -->
<g id="Node000000" class="node">
<title>Node0</title>
<g id="a_Node000000"><a xlink:title=" ">
<polygon fill="#e0e0e0" stroke="#999999" points="86,-136 0,-136 0,-117 86,-117 86,-136"/>
<text text-anchor="middle" x="43" y="-124" font-family="Helvetica,sans-Serif" font-size="10.00">std::exception</text>
</a>
</g>
</g>
<!-- Node1 -->
<g id="Node000001" class="node">
<title>Node1</title>
<g id="a_Node000001"><a xlink:href="class_p4_1_1_util_1_1_p4_c_exception_base.html" target="_top" xlink:title=" ">
<polygon fill="white" stroke="#666666" points="271,-197 122,-197 122,-178 271,-178 271,-197"/>
<text text-anchor="middle" x="196.5" y="-185" font-family="Helvetica,sans-Serif" font-size="10.00">P4::Util::P4CExceptionBase</text>
</a>
</g>
</g>
<!-- Node0&#45;&gt;Node1 -->
<g id="edge1161_Node000000_Node000001" class="edge">
<title>Node0&#45;&gt;Node1</title>
<g id="a_edge1161_Node000000_Node000001"><a xlink:title=" ">
<path fill="none" stroke="#63b8ff" d="M77.21,-139.87C105.69,-151.34 146.05,-167.59 171.49,-177.83"/>
<polygon fill="#63b8ff" stroke="#63b8ff" points="78.26,-136.52 67.67,-136.03 75.64,-143.01 78.26,-136.52"/>
</a>
</g>
</g>
<!-- Node5 -->
<g id="Node000005" class="node">
<title>Node5</title>
<g id="a_Node000005"><a xlink:href="class_util_1_1_p4_c_exception_base.html" target="_top" xlink:title=" ">
<polygon fill="white" stroke="#666666" points="262,-93 131,-93 131,-74 262,-74 262,-93"/>
<text text-anchor="middle" x="196.5" y="-81" font-family="Helvetica,sans-Serif" font-size="10.00">Util::P4CExceptionBase</text>
</a>
</g>
</g>
<!-- Node0&#45;&gt;Node5 -->
<g id="edge1165_Node000000_Node000005" class="edge">
<title>Node0&#45;&gt;Node5</title>
<g id="a_edge1165_Node000000_Node000005"><a xlink:title=" ">
<path fill="none" stroke="#63b8ff" d="M87.43,-114.17C111.13,-107.45 140.02,-99.25 161.97,-93.02"/>
<polygon fill="#63b8ff" stroke="#63b8ff" points="86.29,-110.86 77.62,-116.96 88.2,-117.59 86.29,-110.86"/>
</a>
</g>
</g>
<!-- Node2 -->
<g id="Node000002" class="node">
<title>Node2</title>
<g id="a_Node000002"><a xlink:href="class_p4_1_1_util_1_1_compilation_error.html" target="_top" xlink:title=" ">
<polygon fill="white" stroke="#666666" points="467.5,-253 327.5,-253 327.5,-234 467.5,-234 467.5,-253"/>
<text text-anchor="middle" x="397.5" y="-241" font-family="Helvetica,sans-Serif" font-size="10.00">P4::Util::CompilationError</text>
</a>
</g>
</g>
<!-- Node1&#45;&gt;Node2 -->
<g id="edge1162_Node000001_Node000002" class="edge">
<title>Node1&#45;&gt;Node2</title>
<g id="a_edge1162_Node000001_Node000002"><a xlink:title=" ">
<path fill="none" stroke="#63b8ff" d="M231.61,-200.68C253.03,-208.61 281.36,-218.51 307,-225.5 318.47,-228.63 330.9,-231.47 342.74,-233.92"/>
<polygon fill="#63b8ff" stroke="#63b8ff" points="232.58,-197.3 221.99,-197.07 230.12,-203.86 232.58,-197.3"/>
</a>
</g>
</g>
<!-- Node3 -->
<g id="Node000003" class="node">
<title>Node3</title>
<g id="a_Node000003"><a xlink:href="class_p4_1_1_util_1_1_compiler_bug.html" target="_top" xlink:title="This class indicates a bug in the compiler.">
<polygon fill="white" stroke="#666666" points="458,-216 337,-216 337,-197 458,-197 458,-216"/>
<text text-anchor="middle" x="397.5" y="-204" font-family="Helvetica,sans-Serif" font-size="10.00">P4::Util::CompilerBug</text>
</a>
</g>
</g>
<!-- Node1&#45;&gt;Node3 -->
<g id="edge1163_Node000001_Node000003" class="edge">
<title>Node1&#45;&gt;Node3</title>
<g id="a_edge1163_Node000001_Node000003"><a xlink:title=" ">
<path fill="none" stroke="#63b8ff" d="M281.06,-195.48C299.82,-197.27 319.36,-199.14 336.92,-200.81"/>
<polygon fill="#63b8ff" stroke="#63b8ff" points="281.32,-191.99 271.03,-194.52 280.66,-198.96 281.32,-191.99"/>
</a>
</g>
</g>
<!-- Node4 -->
<g id="Node000004" class="node">
<title>Node4</title>
<g id="a_Node000004"><a xlink:href="class_p4_1_1_util_1_1_compiler_unimplemented.html" target="_top" xlink:title="This class indicates an unimplemented feature in the compiler.">
<polygon fill="white" stroke="#666666" points="488,-179 307,-179 307,-160 488,-160 488,-179"/>
<text text-anchor="middle" x="397.5" y="-167" font-family="Helvetica,sans-Serif" font-size="10.00">P4::Util::CompilerUnimplemented</text>
</a>
</g>
</g>
<!-- Node1&#45;&gt;Node4 -->
<g id="edge1164_Node000001_Node000004" class="edge">
<title>Node1&#45;&gt;Node4</title>
<g id="a_edge1164_Node000001_Node000004"><a xlink:title=" ">
<path fill="none" stroke="#63b8ff" d="M281.23,-179.93C289.66,-179.16 298.25,-178.39 306.74,-177.62"/>
<polygon fill="#63b8ff" stroke="#63b8ff" points="280.68,-176.46 271.03,-180.85 281.31,-183.43 280.68,-176.46"/>
</a>
</g>
</g>
<!-- Node6 -->
<g id="Node000006" class="node">
<title>Node6</title>
<g id="a_Node000006"><a xlink:href="class_p4_tools_1_1_p4_testgen_1_1_testgen_unimplemented.html" target="_top" xlink:title=" ">
<polygon fill="white" stroke="#666666" points="467,-141.5 328,-141.5 328,-111.5 467,-111.5 467,-141.5"/>
<text text-anchor="start" x="336" y="-129.5" font-family="Helvetica,sans-Serif" font-size="10.00">P4Tools::P4Testgen</text>
<text text-anchor="middle" x="397.5" y="-118.5" font-family="Helvetica,sans-Serif" font-size="10.00">::TestgenUnimplemented</text>
</a>
</g>
</g>
<!-- Node5&#45;&gt;Node6 -->
<g id="edge1166_Node000005_Node000006" class="edge">
<title>Node5&#45;&gt;Node6</title>
<g id="a_edge1166_Node000005_Node000006"><a xlink:title=" ">
<path fill="none" stroke="#63b8ff" d="M251.46,-95.16C274.99,-100.24 302.85,-106.26 327.83,-111.66"/>
<polygon fill="#63b8ff" stroke="#63b8ff" points="252.18,-91.73 241.66,-93.04 250.7,-98.58 252.18,-91.73"/>
</a>
</g>
</g>
<!-- Node7 -->
<g id="Node000007" class="node">
<title>Node7</title>
<g id="a_Node000007"><a xlink:href="class_util_1_1_compilation_error.html" target="_top" xlink:title=" ">
<polygon fill="white" stroke="#666666" points="458.5,-93 336.5,-93 336.5,-74 458.5,-74 458.5,-93"/>
<text text-anchor="middle" x="397.5" y="-81" font-family="Helvetica,sans-Serif" font-size="10.00">Util::CompilationError</text>
</a>
</g>
</g>
<!-- Node5&#45;&gt;Node7 -->
<g id="edge1167_Node000005_Node000007" class="edge">
<title>Node5&#45;&gt;Node7</title>
<g id="a_edge1167_Node000005_Node000007"><a xlink:title=" ">
<path fill="none" stroke="#63b8ff" d="M272.33,-83.5C293.44,-83.5 316.13,-83.5 336.26,-83.5"/>
<polygon fill="#63b8ff" stroke="#63b8ff" points="272.11,-80 262.11,-83.5 272.11,-87 272.11,-80"/>
</a>
</g>
</g>
<!-- Node8 -->
<g id="Node000008" class="node">
<title>Node8</title>
<g id="a_Node000008"><a xlink:href="class_util_1_1_compiler_bug.html" target="_top" xlink:title="This class indicates a bug in the compiler.">
<polygon fill="white" stroke="#666666" points="449,-56 346,-56 346,-37 449,-37 449,-56"/>
<text text-anchor="middle" x="397.5" y="-44" font-family="Helvetica,sans-Serif" font-size="10.00">Util::CompilerBug</text>
</a>
</g>
</g>
<!-- Node5&#45;&gt;Node8 -->
<g id="edge1168_Node000005_Node000008" class="edge">
<title>Node5&#45;&gt;Node8</title>
<g id="a_edge1168_Node000005_Node000008"><a xlink:title=" ">
<path fill="none" stroke="#63b8ff" d="M258.79,-72.1C286.68,-66.92 319.29,-60.86 345.77,-55.93"/>
<polygon fill="#63b8ff" stroke="#63b8ff" points="257.94,-68.7 248.75,-73.97 259.22,-75.58 257.94,-68.7"/>
</a>
</g>
</g>
<!-- Node9 -->
<g id="Node000009" class="node">
<title>Node9</title>
<g id="a_Node000009"><a xlink:href="class_util_1_1_compiler_unimplemented.html" target="_top" xlink:title="This class indicates an unimplemented feature in the compiler.">
<polygon fill="white" stroke="#666666" points="479,-19 316,-19 316,0 479,0 479,-19"/>
<text text-anchor="middle" x="397.5" y="-7" font-family="Helvetica,sans-Serif" font-size="10.00">Util::CompilerUnimplemented</text>
</a>
</g>
</g>
<!-- Node5&#45;&gt;Node9 -->
<g id="edge1169_Node000005_Node000009" class="edge">
<title>Node5&#45;&gt;Node9</title>
<g id="a_edge1169_Node000005_Node000009"><a xlink:title=" ">
<path fill="none" stroke="#63b8ff" d="M221.67,-68.69C243.31,-56.03 276.27,-38.22 307,-27.5 316.58,-24.16 326.96,-21.36 337.15,-19.05"/>
<polygon fill="#63b8ff" stroke="#63b8ff" points="219.66,-65.81 212.85,-73.92 223.24,-71.83 219.66,-65.81"/>
</a>
</g>
</g>
</g>
</svg>
