<?xml version="1.0" encoding="UTF-8" standalone="no"?>
<!DOCTYPE svg PUBLIC "-//W3C//DTD SVG 1.1//EN"
 "http://www.w3.org/Graphics/SVG/1.1/DTD/svg11.dtd">
<!-- Generated by graphviz version 2.43.0 (0)
 -->
<!-- Title: Graphical Class Hierarchy Pages: 1 -->
<svg width="231pt" height="138pt"
 viewBox="0.00 0.00 231.00 138.00" xmlns="http://www.w3.org/2000/svg" xmlns:xlink="http://www.w3.org/1999/xlink">
<g id="graph0" class="graph" transform="scale(1 1) rotate(0) translate(4 134)">
<title>Graphical Class Hierarchy</title>
<!-- Node0 -->
<g id="Node000000" class="node">
<title>Node0</title>
<g id="a_Node000000"><a xlink:href="class_model_1_1_model.html" target="_top" xlink:title=" ">
<polygon fill="white" stroke="#666666" points="83,-74 0,-74 0,-55 83,-55 83,-74"/>
<text text-anchor="middle" x="41.5" y="-62" font-family="Helvetica,sans-Serif" font-size="10.00">Model::Model</text>
</a>
</g>
</g>
<!-- Node1 -->
<g id="Node000001" class="node">
<title>Node1</title>
<g id="a_Node000001"><a xlink:href="class_e_b_p_f_1_1_e_b_p_f_model.html" target="_top" xlink:title="Keep this in sync with ebpf_model.p4 and xdp_model.p4.">
<polygon fill="white" stroke="#666666" points="221.5,-130 120.5,-130 120.5,-111 221.5,-111 221.5,-130"/>
<text text-anchor="middle" x="171" y="-118" font-family="Helvetica,sans-Serif" font-size="10.00">EBPF::EBPFModel</text>
</a>
</g>
</g>
<!-- Node0&#45;&gt;Node1 -->
<g id="edge354_Node000000_Node000001" class="edge">
<title>Node0&#45;&gt;Node1</title>
<g id="a_edge354_Node000000_Node000001"><a xlink:title=" ">
<path fill="none" stroke="#63b8ff" d="M69.08,-78.7C83.63,-86.22 102.08,-95.34 119,-102.5 126,-105.46 133.68,-108.35 140.91,-110.92"/>
<polygon fill="#63b8ff" stroke="#63b8ff" points="70.63,-75.56 60.14,-74.03 67.39,-81.76 70.63,-75.56"/>
</a>
</g>
</g>
<!-- Node2 -->
<g id="Node000002" class="node">
<title>Node2</title>
<g id="a_Node000002"><a xlink:href="class_p4_1_1_p4_core_library.html" target="_top" xlink:title=" ">
<polygon fill="white" stroke="#666666" points="222.5,-93 119.5,-93 119.5,-74 222.5,-74 222.5,-93"/>
<text text-anchor="middle" x="171" y="-81" font-family="Helvetica,sans-Serif" font-size="10.00">P4::P4CoreLibrary</text>
</a>
</g>
</g>
<!-- Node0&#45;&gt;Node2 -->
<g id="edge355_Node000000_Node000002" class="edge">
<title>Node0&#45;&gt;Node2</title>
<g id="a_edge355_Node000000_Node000002"><a xlink:title=" ">
<path fill="none" stroke="#63b8ff" d="M93.14,-72.05C101.79,-73.33 110.76,-74.67 119.4,-75.96"/>
<polygon fill="#63b8ff" stroke="#63b8ff" points="93.6,-68.58 83.19,-70.56 92.57,-75.5 93.6,-68.58"/>
</a>
</g>
</g>
<!-- Node3 -->
<g id="Node000003" class="node">
<title>Node3</title>
<g id="a_Node000003"><a xlink:href="class_p4_v1_1_1_v1_model.html" target="_top" xlink:title=" ">
<polygon fill="white" stroke="#666666" points="216,-56 126,-56 126,-37 216,-37 216,-56"/>
<text text-anchor="middle" x="171" y="-44" font-family="Helvetica,sans-Serif" font-size="10.00">P4V1::V1Model</text>
</a>
</g>
</g>
<!-- Node0&#45;&gt;Node3 -->
<g id="edge356_Node000000_Node000003" class="edge">
<title>Node0&#45;&gt;Node3</title>
<g id="a_edge356_Node000000_Node000003"><a xlink:title=" ">
<path fill="none" stroke="#63b8ff" d="M93.28,-57.33C104.01,-55.82 115.26,-54.23 125.72,-52.75"/>
<polygon fill="#63b8ff" stroke="#63b8ff" points="92.6,-53.89 83.19,-58.76 93.58,-60.82 92.6,-53.89"/>
</a>
</g>
</g>
<!-- Node4 -->
<g id="Node000004" class="node">
<title>Node4</title>
<g id="a_Node000004"><a xlink:href="class_u_b_p_f_1_1_u_b_p_f_model.html" target="_top" xlink:title=" ">
<polygon fill="white" stroke="#666666" points="223,-19 119,-19 119,0 223,0 223,-19"/>
<text text-anchor="middle" x="171" y="-7" font-family="Helvetica,sans-Serif" font-size="10.00">UBPF::UBPFModel</text>
</a>
</g>
</g>
<!-- Node0&#45;&gt;Node4 -->
<g id="edge357_Node000000_Node000004" class="edge">
<title>Node0&#45;&gt;Node4</title>
<g id="a_edge357_Node000000_Node000004"><a xlink:title=" ">
<path fill="none" stroke="#63b8ff" d="M71.08,-50.36C85.35,-43.48 102.95,-35.25 119,-28.5 126.75,-25.24 135.28,-21.95 143.1,-19.04"/>
<polygon fill="#63b8ff" stroke="#63b8ff" points="69.26,-47.35 61.79,-54.87 72.32,-53.65 69.26,-47.35"/>
</a>
</g>
</g>
</g>
</svg>
