<?xml version="1.0" encoding="UTF-8" standalone="no"?>
<!DOCTYPE svg PUBLIC "-//W3C//DTD SVG 1.1//EN"
 "http://www.w3.org/Graphics/SVG/1.1/DTD/svg11.dtd">
<!-- Generated by graphviz version 2.43.0 (0)
 -->
<!-- Title: RTTI::Base Pages: 1 -->
<svg width="729pt" height="1091pt"
 viewBox="0.00 0.00 729.00 1091.00" xmlns="http://www.w3.org/2000/svg" xmlns:xlink="http://www.w3.org/1999/xlink">
<g id="graph0" class="graph" transform="scale(1 1) rotate(0) translate(4 1087)">
<title>RTTI::Base</title>
<!-- Node1 -->
<g id="Node000001" class="node">
<title>Node1</title>
<g id="a_Node000001"><a xlink:title=" ">
<polygon fill="#999999" stroke="#666666" points="68,-318 0,-318 0,-299 68,-299 68,-318"/>
<text text-anchor="middle" x="34" y="-306" font-family="Helvetica,sans-Serif" font-size="10.00">RTTI::Base</text>
</a>
</g>
</g>
<!-- Node2 -->
<g id="Node000002" class="node">
<title>Node2</title>
<g id="a_Node000002"><a xlink:href="class_i_castable.html" target="_top" xlink:title=" ">
<polygon fill="white" stroke="#666666" points="166,-318 104,-318 104,-299 166,-299 166,-318"/>
<text text-anchor="middle" x="135" y="-306" font-family="Helvetica,sans-Serif" font-size="10.00">ICastable</text>
</a>
</g>
</g>
<!-- Node1&#45;&gt;Node2 -->
<g id="edge1_Node000001_Node000002" class="edge">
<title>Node1&#45;&gt;Node2</title>
<g id="a_edge1_Node000001_Node000002"><a xlink:title=" ">
<path fill="none" stroke="#63b8ff" d="M78.44,-308.5C86.95,-308.5 95.71,-308.5 103.68,-308.5"/>
<polygon fill="#63b8ff" stroke="#63b8ff" points="78.24,-305 68.24,-308.5 78.24,-312 78.24,-305"/>
</a>
</g>
</g>
<!-- Node3 -->
<g id="Node000003" class="node">
<title>Node3</title>
<g id="a_Node000003"><a xlink:href="class_abstract_solver.html" target="_top" xlink:title="Provides a higher&#45;level interface for an SMT solver.">
<polygon fill="white" stroke="#666666" points="326,-1064 238,-1064 238,-1045 326,-1045 326,-1064"/>
<text text-anchor="middle" x="282" y="-1052" font-family="Helvetica,sans-Serif" font-size="10.00">AbstractSolver</text>
</a>
</g>
</g>
<!-- Node2&#45;&gt;Node3 -->
<g id="edge2_Node000002_Node000003" class="edge">
<title>Node2&#45;&gt;Node3</title>
<g id="a_edge2_Node000002_Node000003"><a xlink:title=" ">
<path fill="none" stroke="#63b8ff" d="M135.69,-328.53C134.47,-429.39 132.98,-881.4 202,-999.5 214.56,-1021 239.27,-1036.1 257.72,-1044.97"/>
<polygon fill="#63b8ff" stroke="#63b8ff" points="139.2,-328.29 135.83,-318.25 132.2,-328.2 139.2,-328.29"/>
</a>
</g>
</g>
<!-- Node5 -->
<g id="Node000005" class="node">
<title>Node5</title>
<g id="a_Node000005"><a xlink:href="class_b_m_v2_1_1_c_f_g_1_1_node.html" target="_top" xlink:title=" ">
<polygon fill="white" stroke="#bfbfbf" points="333.5,-990 230.5,-990 230.5,-971 333.5,-971 333.5,-990"/>
<text text-anchor="middle" x="282" y="-978" font-family="Helvetica,sans-Serif" font-size="10.00">BMV2::CFG::Node</text>
</a>
</g>
</g>
<!-- Node2&#45;&gt;Node5 -->
<g id="edge4_Node000002_Node000005" class="edge">
<title>Node2&#45;&gt;Node5</title>
<g id="a_edge4_Node000002_Node000005"><a xlink:title=" ">
<path fill="none" stroke="#63b8ff" d="M138.15,-328.19C144.9,-388 167.28,-572.62 202,-722.5 224.83,-821.07 265.38,-936.98 277.49,-970.79"/>
<polygon fill="#63b8ff" stroke="#63b8ff" points="141.63,-327.78 137.04,-318.22 134.67,-328.55 141.63,-327.78"/>
</a>
</g>
</g>
<!-- Node9 -->
<g id="Node000009" class="node">
<title>Node9</title>
<g id="a_Node000009"><a xlink:href="struct_backtrack_1_1trigger.html" target="_top" xlink:title=" ">
<polygon fill="white" stroke="#bfbfbf" points="334,-713 230,-713 230,-694 334,-694 334,-713"/>
<text text-anchor="middle" x="282" y="-701" font-family="Helvetica,sans-Serif" font-size="10.00">Backtrack::trigger</text>
</a>
</g>
</g>
<!-- Node2&#45;&gt;Node9 -->
<g id="edge8_Node000002_Node000009" class="edge">
<title>Node2&#45;&gt;Node9</title>
<g id="a_edge8_Node000002_Node000009"><a xlink:title=" ">
<path fill="none" stroke="#63b8ff" d="M136.66,-328.06C139.4,-397.84 152.24,-633.15 202,-685.5 209.37,-693.25 219.32,-697.98 229.68,-700.81"/>
<polygon fill="#63b8ff" stroke="#63b8ff" points="140.15,-327.87 136.29,-318.01 133.16,-328.13 140.15,-327.87"/>
</a>
</g>
</g>
<!-- Node10 -->
<g id="Node000010" class="node">
<title>Node10</title>
<g id="a_Node000010"><a xlink:href="class_e_b_p_f_1_1_e_b_p_f_object.html" target="_top" xlink:title="Base class for EBPF objects.">
<polygon fill="white" stroke="#666666" points="333.5,-676 230.5,-676 230.5,-657 333.5,-657 333.5,-676"/>
<text text-anchor="middle" x="282" y="-664" font-family="Helvetica,sans-Serif" font-size="10.00">EBPF::EBPFObject</text>
</a>
</g>
</g>
<!-- Node2&#45;&gt;Node10 -->
<g id="edge9_Node000002_Node000010" class="edge">
<title>Node2&#45;&gt;Node10</title>
<g id="a_edge9_Node000002_Node000010"><a xlink:title=" ">
<path fill="none" stroke="#63b8ff" d="M143.73,-327.6C170.32,-393.24 257.4,-608.24 277.04,-656.73"/>
<polygon fill="#63b8ff" stroke="#63b8ff" points="146.88,-326.03 139.88,-318.08 140.39,-328.66 146.88,-326.03"/>
</a>
</g>
</g>
<!-- Node94 -->
<g id="Node000094" class="node">
<title>Node94</title>
<g id="a_Node000094"><a xlink:href="class_e_b_p_f_1_1_i_has_width.html" target="_top" xlink:title=" ">
<polygon fill="white" stroke="#bfbfbf" points="528.5,-454 431.5,-454 431.5,-435 528.5,-435 528.5,-454"/>
<text text-anchor="middle" x="480" y="-442" font-family="Helvetica,sans-Serif" font-size="10.00">EBPF::IHasWidth</text>
</a>
</g>
</g>
<!-- Node2&#45;&gt;Node94 -->
<g id="edge31_Node000002_Node000094" class="edge">
<title>Node2&#45;&gt;Node94</title>
<g id="a_edge31_Node000002_Node000094"><a xlink:title=" ">
<path fill="none" stroke="#63b8ff" d="M142.97,-327.53C152.49,-350.6 171.91,-388.73 202,-407.5 272.6,-451.54 372.92,-453.18 431.46,-449.46"/>
<polygon fill="#63b8ff" stroke="#63b8ff" points="146.19,-326.15 139.28,-318.11 139.67,-328.7 146.19,-326.15"/>
</a>
</g>
</g>
<!-- Node95 -->
<g id="Node000095" class="node">
<title>Node95</title>
<g id="a_Node000095"><a xlink:href="class_i_r_1_1_i_node.html" target="_top" xlink:title=" ">
<polygon fill="white" stroke="#bfbfbf" points="312.5,-398 251.5,-398 251.5,-379 312.5,-379 312.5,-398"/>
<text text-anchor="middle" x="282" y="-386" font-family="Helvetica,sans-Serif" font-size="10.00">IR::INode</text>
</a>
</g>
</g>
<!-- Node2&#45;&gt;Node95 -->
<g id="edge40_Node000002_Node000095" class="edge">
<title>Node2&#45;&gt;Node95</title>
<g id="a_edge40_Node000002_Node000095"><a xlink:title=" ">
<path fill="none" stroke="#63b8ff" d="M150.1,-326.15C162.34,-340.28 181.31,-359.49 202,-370.5 217.15,-378.56 235.8,-383.03 251.18,-385.5"/>
<polygon fill="#63b8ff" stroke="#63b8ff" points="152.49,-323.56 143.39,-318.13 147.12,-328.05 152.49,-323.56"/>
</a>
</g>
</g>
<!-- Node133 -->
<g id="Node000133" class="node">
<title>Node133</title>
<g id="a_Node000133"><a xlink:href="class_json_data.html" target="_top" xlink:title=" ">
<polygon fill="white" stroke="orangered" points="312,-361 252,-361 252,-342 312,-342 312,-361"/>
<text text-anchor="middle" x="282" y="-349" font-family="Helvetica,sans-Serif" font-size="10.00">JsonData</text>
</a>
</g>
</g>
<!-- Node2&#45;&gt;Node133 -->
<g id="edge43_Node000002_Node000133" class="edge">
<title>Node2&#45;&gt;Node133</title>
<g id="a_edge43_Node000002_Node000133"><a xlink:title=" ">
<path fill="none" stroke="#63b8ff" d="M169.69,-321.58C179.98,-325.35 191.38,-329.3 202,-332.5 218.34,-337.42 236.89,-341.93 251.9,-345.33"/>
<polygon fill="#63b8ff" stroke="#63b8ff" points="170.82,-318.27 160.23,-318.05 168.38,-324.83 170.82,-318.27"/>
</a>
</g>
</g>
<!-- Node140 -->
<g id="Node000140" class="node">
<title>Node140</title>
<g id="a_Node000140"><a xlink:href="class_p4_tools_1_1_abstract_rep_checked_node.html" target="_top" xlink:title=" ">
<polygon fill="white" stroke="#666666" points="362,-323.5 202,-323.5 202,-293.5 362,-293.5 362,-323.5"/>
<text text-anchor="start" x="210" y="-311.5" font-family="Helvetica,sans-Serif" font-size="10.00">P4Tools::AbstractRepChecked</text>
<text text-anchor="middle" x="282" y="-300.5" font-family="Helvetica,sans-Serif" font-size="10.00">Node&lt; Self, Node &gt;</text>
</a>
</g>
</g>
<!-- Node2&#45;&gt;Node140 -->
<g id="edge49_Node000002_Node000140" class="edge">
<title>Node2&#45;&gt;Node140</title>
<g id="a_edge49_Node000002_Node000140"><a xlink:title=" ">
<path fill="none" stroke="#63b8ff" d="M176.23,-308.5C184.3,-308.5 193.05,-308.5 201.92,-308.5"/>
<polygon fill="#63b8ff" stroke="#63b8ff" points="176.04,-305 166.04,-308.5 176.04,-312 176.04,-305"/>
</a>
</g>
</g>
<!-- Node141 -->
<g id="Node000141" class="node">
<title>Node141</title>
<g id="a_Node000141"><a xlink:href="class_p4_tools_1_1_compiler_result.html" target="_top" xlink:title=" ">
<polygon fill="#fff0f0" stroke="red" points="349,-275 215,-275 215,-256 349,-256 349,-275"/>
<text text-anchor="middle" x="282" y="-263" font-family="Helvetica,sans-Serif" font-size="10.00">P4Tools::CompilerResult</text>
</a>
</g>
</g>
<!-- Node2&#45;&gt;Node141 -->
<g id="edge50_Node000002_Node000141" class="edge">
<title>Node2&#45;&gt;Node141</title>
<g id="a_edge50_Node000002_Node000141"><a xlink:title=" ">
<path fill="none" stroke="#63b8ff" d="M169.69,-295.42C179.98,-291.65 191.38,-287.7 202,-284.5 213.35,-281.08 225.75,-277.86 237.3,-275.08"/>
<polygon fill="#63b8ff" stroke="#63b8ff" points="168.38,-292.17 160.23,-298.95 170.82,-298.73 168.38,-292.17"/>
</a>
</g>
</g>
<!-- Node144 -->
<g id="Node000144" class="node">
<title>Node144</title>
<g id="a_Node000144"><a xlink:href="struct_p4_tools_1_1_p4_testgen_1_1_abstract_test.html" target="_top" xlink:title="Type definitions for abstract tests.">
<polygon fill="#fff0f0" stroke="red" points="336.5,-237.5 227.5,-237.5 227.5,-207.5 336.5,-207.5 336.5,-237.5"/>
<text text-anchor="start" x="235.5" y="-225.5" font-family="Helvetica,sans-Serif" font-size="10.00">P4Tools::P4Testgen</text>
<text text-anchor="middle" x="282" y="-214.5" font-family="Helvetica,sans-Serif" font-size="10.00">::AbstractTest</text>
</a>
</g>
</g>
<!-- Node2&#45;&gt;Node144 -->
<g id="edge51_Node000002_Node000144" class="edge">
<title>Node2&#45;&gt;Node144</title>
<g id="a_edge51_Node000002_Node000144"><a xlink:title=" ">
<path fill="none" stroke="#63b8ff" d="M150.82,-291.12C163.25,-277.53 182.11,-259.05 202,-247.5 209.84,-242.95 218.6,-239.12 227.36,-235.94"/>
<polygon fill="#63b8ff" stroke="#63b8ff" points="147.98,-289.04 143.96,-298.85 153.21,-293.69 147.98,-289.04"/>
</a>
</g>
</g>
<!-- Node147 -->
<g id="Node000147" class="node">
<title>Node147</title>
<g id="a_Node000147"><a xlink:href="class_p4_tools_1_1_p4_testgen_1_1_program_info.html" target="_top" xlink:title="Stores target&#45;specific information about a P4 program.">
<polygon fill="#fff0f0" stroke="red" points="336.5,-189.5 227.5,-189.5 227.5,-159.5 336.5,-159.5 336.5,-189.5"/>
<text text-anchor="start" x="235.5" y="-177.5" font-family="Helvetica,sans-Serif" font-size="10.00">P4Tools::P4Testgen</text>
<text text-anchor="middle" x="282" y="-166.5" font-family="Helvetica,sans-Serif" font-size="10.00">::ProgramInfo</text>
</a>
</g>
</g>
<!-- Node2&#45;&gt;Node147 -->
<g id="edge52_Node000002_Node000147" class="edge">
<title>Node2&#45;&gt;Node147</title>
<g id="a_edge52_Node000002_Node000147"><a xlink:title=" ">
<path fill="none" stroke="#63b8ff" d="M142.54,-289.3C151.89,-264.7 171.41,-222.37 202,-198.5 209.46,-192.68 218.32,-188.27 227.37,-184.92"/>
<polygon fill="#63b8ff" stroke="#63b8ff" points="139.16,-288.35 139.05,-298.95 145.74,-290.73 139.16,-288.35"/>
</a>
</g>
</g>
<!-- Node152 -->
<g id="Node000152" class="node">
<title>Node152</title>
<g id="a_Node000152"><a xlink:href="class_p4_tools_1_1_p4_testgen_1_1_test_object.html" target="_top" xlink:title=" ">
<polygon fill="white" stroke="orangered" points="336.5,-141.5 227.5,-141.5 227.5,-111.5 336.5,-111.5 336.5,-141.5"/>
<text text-anchor="start" x="235.5" y="-129.5" font-family="Helvetica,sans-Serif" font-size="10.00">P4Tools::P4Testgen</text>
<text text-anchor="middle" x="282" y="-118.5" font-family="Helvetica,sans-Serif" font-size="10.00">::TestObject</text>
</a>
</g>
</g>
<!-- Node2&#45;&gt;Node152 -->
<g id="edge53_Node000002_Node000152" class="edge">
<title>Node2&#45;&gt;Node152</title>
<g id="a_edge53_Node000002_Node000152"><a xlink:title=" ">
<path fill="none" stroke="#63b8ff" d="M138.74,-288.79C144.42,-255.46 160.59,-187.93 202,-150.5 209.23,-143.96 218.19,-139.21 227.46,-135.74"/>
<polygon fill="#63b8ff" stroke="#63b8ff" points="135.28,-288.27 137.2,-298.69 142.2,-289.35 135.28,-288.27"/>
</a>
</g>
</g>
<!-- Node180 -->
<g id="Node000180" class="node">
<title>Node180</title>
<g id="a_Node000180"><a xlink:href="class_p4_tools_1_1_trace_event.html" target="_top" xlink:title="An event in a trace of the execution of a P4 program.">
<polygon fill="#fff0f0" stroke="red" points="338.5,-93 225.5,-93 225.5,-74 338.5,-74 338.5,-93"/>
<text text-anchor="middle" x="282" y="-81" font-family="Helvetica,sans-Serif" font-size="10.00">P4Tools::TraceEvent</text>
</a>
</g>
</g>
<!-- Node2&#45;&gt;Node180 -->
<g id="edge54_Node000002_Node000180" class="edge">
<title>Node2&#45;&gt;Node180</title>
<g id="a_edge54_Node000002_Node000180"><a xlink:title=" ">
<path fill="none" stroke="#63b8ff" d="M136.27,-288.44C137.98,-247.23 147.92,-152.72 202,-102.5 208.51,-96.45 216.6,-92.23 225.1,-89.3"/>
<polygon fill="#63b8ff" stroke="#63b8ff" points="132.77,-288.47 135.98,-298.57 139.77,-288.67 132.77,-288.47"/>
</a>
</g>
</g>
<!-- Node193 -->
<g id="Node000193" class="node">
<title>Node193</title>
<g id="a_Node000193"><a xlink:href="class_util_1_1_i_json.html" target="_top" xlink:title=" ">
<polygon fill="white" stroke="orangered" points="313.5,-56 250.5,-56 250.5,-37 313.5,-37 313.5,-56"/>
<text text-anchor="middle" x="282" y="-44" font-family="Helvetica,sans-Serif" font-size="10.00">Util::IJson</text>
</a>
</g>
</g>
<!-- Node2&#45;&gt;Node193 -->
<g id="edge55_Node000002_Node000193" class="edge">
<title>Node2&#45;&gt;Node193</title>
<g id="a_edge55_Node000002_Node000193"><a xlink:title=" ">
<path fill="none" stroke="#63b8ff" d="M138.7,-288.78C146.24,-236.47 169.2,-96.01 202,-64.5 214.78,-52.22 234.12,-47.67 250.46,-46.21"/>
<polygon fill="#63b8ff" stroke="#63b8ff" points="135.22,-288.41 137.29,-298.8 142.15,-289.38 135.22,-288.41"/>
</a>
</g>
</g>
<!-- Node197 -->
<g id="Node000197" class="node">
<title>Node197</title>
<g id="a_Node000197"><a xlink:href="class_util_1_1_named_symbol.html" target="_top" xlink:title=" ">
<polygon fill="white" stroke="orangered" points="338,-19 226,-19 226,0 338,0 338,-19"/>
<text text-anchor="middle" x="282" y="-7" font-family="Helvetica,sans-Serif" font-size="10.00">Util::NamedSymbol</text>
</a>
</g>
</g>
<!-- Node2&#45;&gt;Node197 -->
<g id="edge56_Node000002_Node000197" class="edge">
<title>Node2&#45;&gt;Node197</title>
<g id="a_edge56_Node000002_Node000197"><a xlink:title=" ">
<path fill="none" stroke="#63b8ff" d="M137.93,-288.91C143.99,-231.39 164.5,-64.75 202,-27.5 208.59,-20.96 217.03,-16.59 225.93,-13.72"/>
<polygon fill="#63b8ff" stroke="#63b8ff" points="134.44,-288.58 136.91,-298.88 141.41,-289.29 134.44,-288.58"/>
</a>
</g>
</g>
<!-- Node4 -->
<g id="Node000004" class="node">
<title>Node4</title>
<g id="a_Node000004"><a xlink:href="class_p4_tools_1_1_z3_solver.html" target="_top" xlink:title="A Z3&#45;based implementation of AbstractSolver. Encapsulates a z3::solver and a z3::context.">
<polygon fill="white" stroke="#666666" points="531.5,-1083 428.5,-1083 428.5,-1064 531.5,-1064 531.5,-1083"/>
<text text-anchor="middle" x="480" y="-1071" font-family="Helvetica,sans-Serif" font-size="10.00">P4Tools::Z3Solver</text>
</a>
</g>
</g>
<!-- Node3&#45;&gt;Node4 -->
<g id="edge3_Node000003_Node000004" class="edge">
<title>Node3&#45;&gt;Node4</title>
<g id="a_edge3_Node000003_Node000004"><a xlink:title=" ">
<path fill="none" stroke="#63b8ff" d="M336.27,-1059.66C364.97,-1062.45 400.19,-1065.86 428.46,-1068.6"/>
<polygon fill="#63b8ff" stroke="#63b8ff" points="336.3,-1056.15 326.01,-1058.67 335.63,-1063.12 336.3,-1056.15"/>
</a>
</g>
</g>
<!-- Node6 -->
<g id="Node000006" class="node">
<title>Node6</title>
<g id="a_Node000006"><a xlink:href="class_b_m_v2_1_1_c_f_g_1_1_dummy_node.html" target="_top" xlink:title=" ">
<polygon fill="white" stroke="#bfbfbf" points="551,-1046 409,-1046 409,-1027 551,-1027 551,-1046"/>
<text text-anchor="middle" x="480" y="-1034" font-family="Helvetica,sans-Serif" font-size="10.00">BMV2::CFG::DummyNode</text>
</a>
</g>
</g>
<!-- Node5&#45;&gt;Node6 -->
<g id="edge5_Node000005_Node000006" class="edge">
<title>Node5&#45;&gt;Node6</title>
<g id="a_edge5_Node000005_Node000006"><a xlink:title=" ">
<path fill="none" stroke="#63b8ff" d="M318.76,-993.35C341.32,-1001.19 371.16,-1011.1 398,-1018.5 408.97,-1021.52 420.89,-1024.4 432.11,-1026.92"/>
<polygon fill="#63b8ff" stroke="#63b8ff" points="319.86,-990.02 309.26,-990.01 317.54,-996.63 319.86,-990.02"/>
</a>
</g>
</g>
<!-- Node7 -->
<g id="Node000007" class="node">
<title>Node7</title>
<g id="a_Node000007"><a xlink:href="class_b_m_v2_1_1_c_f_g_1_1_if_node.html" target="_top" xlink:title=" ">
<polygon fill="white" stroke="#bfbfbf" points="535,-1009 425,-1009 425,-990 535,-990 535,-1009"/>
<text text-anchor="middle" x="480" y="-997" font-family="Helvetica,sans-Serif" font-size="10.00">BMV2::CFG::IfNode</text>
</a>
</g>
</g>
<!-- Node5&#45;&gt;Node7 -->
<g id="edge6_Node000005_Node000007" class="edge">
<title>Node5&#45;&gt;Node7</title>
<g id="a_edge6_Node000005_Node000007"><a xlink:title=" ">
<path fill="none" stroke="#63b8ff" d="M343.8,-986.39C369.66,-988.9 399.59,-991.8 424.71,-994.24"/>
<polygon fill="#63b8ff" stroke="#63b8ff" points="344.02,-982.9 333.73,-985.42 343.35,-989.87 344.02,-982.9"/>
</a>
</g>
</g>
<!-- Node8 -->
<g id="Node000008" class="node">
<title>Node8</title>
<g id="a_Node000008"><a xlink:href="class_b_m_v2_1_1_c_f_g_1_1_table_node.html" target="_top" xlink:title=" ">
<polygon fill="white" stroke="#bfbfbf" points="544,-972 416,-972 416,-953 544,-953 544,-972"/>
<text text-anchor="middle" x="480" y="-960" font-family="Helvetica,sans-Serif" font-size="10.00">BMV2::CFG::TableNode</text>
</a>
</g>
</g>
<!-- Node5&#45;&gt;Node8 -->
<g id="edge7_Node000005_Node000008" class="edge">
<title>Node5&#45;&gt;Node8</title>
<g id="a_edge7_Node000005_Node000008"><a xlink:title=" ">
<path fill="none" stroke="#63b8ff" d="M343.98,-974.9C366.83,-972.8 392.82,-970.41 415.85,-968.3"/>
<polygon fill="#63b8ff" stroke="#63b8ff" points="343.37,-971.44 333.73,-975.84 344.01,-978.41 343.37,-971.44"/>
</a>
</g>
</g>
<!-- Node11 -->
<g id="Node000011" class="node">
<title>Node11</title>
<g id="a_Node000011"><a xlink:href="class_e_b_p_f_1_1_e_b_p_f_checksum_p_s_a.html" target="_top" xlink:title=" ">
<polygon fill="white" stroke="orangered" points="551,-602 409,-602 409,-583 551,-583 551,-602"/>
<text text-anchor="middle" x="480" y="-590" font-family="Helvetica,sans-Serif" font-size="10.00">EBPF::EBPFChecksumPSA</text>
</a>
</g>
</g>
<!-- Node10&#45;&gt;Node11 -->
<g id="edge10_Node000010_Node000011" class="edge">
<title>Node10&#45;&gt;Node11</title>
<g id="a_edge10_Node000010_Node000011"><a xlink:title=" ">
<path fill="none" stroke="#63b8ff" d="M309.09,-652.02C331.96,-639.82 366.4,-622.62 398,-611.5 408.36,-607.86 419.7,-604.7 430.54,-602.07"/>
<polygon fill="#63b8ff" stroke="#63b8ff" points="307.17,-649.08 300.04,-656.91 310.5,-655.24 307.17,-649.08"/>
</a>
</g>
</g>
<!-- Node16 -->
<g id="Node000016" class="node">
<title>Node16</title>
<g id="a_Node000016"><a xlink:href="class_e_b_p_f_1_1_e_b_p_f_control.html" target="_top" xlink:title=" ">
<polygon fill="white" stroke="orangered" points="533.5,-565 426.5,-565 426.5,-546 533.5,-546 533.5,-565"/>
<text text-anchor="middle" x="480" y="-553" font-family="Helvetica,sans-Serif" font-size="10.00">EBPF::EBPFControl</text>
</a>
</g>
</g>
<!-- Node10&#45;&gt;Node16 -->
<g id="edge11_Node000010_Node000016" class="edge">
<title>Node10&#45;&gt;Node16</title>
<g id="a_edge11_Node000010_Node000016"><a xlink:title=" ">
<path fill="none" stroke="#63b8ff" d="M299.24,-649.5C320.12,-628.66 358.44,-593.73 398,-574.5 406.83,-570.21 416.69,-566.85 426.4,-564.24"/>
<polygon fill="#63b8ff" stroke="#63b8ff" points="296.64,-647.16 292.12,-656.74 301.63,-652.07 296.64,-647.16"/>
</a>
</g>
</g>
<!-- Node30 -->
<g id="Node000030" class="node">
<title>Node30</title>
<g id="a_Node000030"><a xlink:href="class_e_b_p_f_1_1_e_b_p_f_digest_p_s_a.html" target="_top" xlink:title=" ">
<polygon fill="white" stroke="orangered" points="541,-528 419,-528 419,-509 541,-509 541,-528"/>
<text text-anchor="middle" x="480" y="-516" font-family="Helvetica,sans-Serif" font-size="10.00">EBPF::EBPFDigestPSA</text>
</a>
</g>
</g>
<!-- Node10&#45;&gt;Node30 -->
<g id="edge12_Node000010_Node000030" class="edge">
<title>Node10&#45;&gt;Node30</title>
<g id="a_edge12_Node000010_Node000030"><a xlink:title=" ">
<path fill="none" stroke="#63b8ff" d="M293.86,-648.41C311.83,-620.12 350.51,-565.75 398,-537.5 404.58,-533.59 411.91,-530.48 419.39,-528.01"/>
<polygon fill="#63b8ff" stroke="#63b8ff" points="290.88,-646.58 288.58,-656.92 296.82,-650.27 290.88,-646.58"/>
</a>
</g>
</g>
<!-- Node32 -->
<g id="Node000032" class="node">
<title>Node32</title>
<g id="a_Node000032"><a xlink:href="class_e_b_p_f_1_1_e_b_p_f_hash_algorithm_p_s_a.html" target="_top" xlink:title=" ">
<polygon fill="white" stroke="orangered" points="562,-935 398,-935 398,-916 562,-916 562,-935"/>
<text text-anchor="middle" x="480" y="-923" font-family="Helvetica,sans-Serif" font-size="10.00">EBPF::EBPFHashAlgorithmPSA</text>
</a>
</g>
</g>
<!-- Node10&#45;&gt;Node32 -->
<g id="edge13_Node000010_Node000032" class="edge">
<title>Node10&#45;&gt;Node32</title>
<g id="a_edge13_Node000010_Node000032"><a xlink:title=" ">
<path fill="none" stroke="#63b8ff" d="M343.41,-672.95C350.4,-675.9 356.86,-679.95 362,-685.5 429.97,-758.79 329.4,-834.8 398,-907.5 401.16,-910.85 404.8,-913.65 408.75,-915.97"/>
<polygon fill="#63b8ff" stroke="#63b8ff" points="344.21,-669.52 333.62,-669.58 341.93,-676.14 344.21,-669.52"/>
</a>
</g>
</g>
<!-- Node41 -->
<g id="Node000041" class="node">
<title>Node41</title>
<g id="a_Node000041"><a xlink:href="class_e_b_p_f_1_1_e_b_p_f_method_declaration.html" target="_top" xlink:title="Methods are function signatures.">
<polygon fill="white" stroke="#666666" points="562,-898 398,-898 398,-879 562,-879 562,-898"/>
<text text-anchor="middle" x="480" y="-886" font-family="Helvetica,sans-Serif" font-size="10.00">EBPF::EBPFMethodDeclaration</text>
</a>
</g>
</g>
<!-- Node10&#45;&gt;Node41 -->
<g id="edge14_Node000010_Node000041" class="edge">
<title>Node10&#45;&gt;Node41</title>
<g id="a_edge14_Node000010_Node000041"><a xlink:title=" ">
<path fill="none" stroke="#63b8ff" d="M343.52,-673.22C350.43,-676.13 356.84,-680.11 362,-685.5 419.92,-746.01 339.56,-810.49 398,-870.5 401.22,-873.8 404.89,-876.56 408.87,-878.86"/>
<polygon fill="#63b8ff" stroke="#63b8ff" points="344.44,-669.83 333.84,-669.87 342.15,-676.45 344.44,-669.83"/>
</a>
</g>
</g>
<!-- Node42 -->
<g id="Node000042" class="node">
<title>Node42</title>
<g id="a_Node000042"><a xlink:href="class_e_b_p_f_1_1_e_b_p_f_parser.html" target="_top" xlink:title=" ">
<polygon fill="white" stroke="orangered" points="530.5,-861 429.5,-861 429.5,-842 530.5,-842 530.5,-861"/>
<text text-anchor="middle" x="480" y="-849" font-family="Helvetica,sans-Serif" font-size="10.00">EBPF::EBPFParser</text>
</a>
</g>
</g>
<!-- Node10&#45;&gt;Node42 -->
<g id="edge15_Node000010_Node000042" class="edge">
<title>Node10&#45;&gt;Node42</title>
<g id="a_edge15_Node000010_Node000042"><a xlink:title=" ">
<path fill="none" stroke="#63b8ff" d="M343.28,-673.44C350.23,-676.32 356.71,-680.23 362,-685.5 409.93,-733.31 349.66,-786.11 398,-833.5 406.44,-841.77 417.78,-846.59 429.3,-849.32"/>
<polygon fill="#63b8ff" stroke="#63b8ff" points="344.17,-670.05 333.58,-670.13 341.91,-676.67 344.17,-670.05"/>
</a>
</g>
</g>
<!-- Node46 -->
<g id="Node000046" class="node">
<title>Node46</title>
<g id="a_Node000046"><a xlink:href="class_e_b_p_f_1_1_e_b_p_f_parser_state.html" target="_top" xlink:title=" ">
<polygon fill="white" stroke="orangered" points="543.5,-824 416.5,-824 416.5,-805 543.5,-805 543.5,-824"/>
<text text-anchor="middle" x="480" y="-812" font-family="Helvetica,sans-Serif" font-size="10.00">EBPF::EBPFParserState</text>
</a>
</g>
</g>
<!-- Node10&#45;&gt;Node46 -->
<g id="edge16_Node000010_Node000046" class="edge">
<title>Node10&#45;&gt;Node46</title>
<g id="a_edge16_Node000010_Node000046"><a xlink:title=" ">
<path fill="none" stroke="#63b8ff" d="M343.19,-673.94C350.1,-676.74 356.59,-680.49 362,-685.5 400.07,-720.72 359.63,-761.61 398,-796.5 403.33,-801.35 409.67,-804.99 416.41,-807.7"/>
<polygon fill="#63b8ff" stroke="#63b8ff" points="344.17,-670.57 333.58,-670.67 341.92,-677.2 344.17,-670.57"/>
</a>
</g>
</g>
<!-- Node48 -->
<g id="Node000048" class="node">
<title>Node48</title>
<g id="a_Node000048"><a xlink:href="class_e_b_p_f_1_1_e_b_p_f_program.html" target="_top" xlink:title=" ">
<polygon fill="white" stroke="orangered" points="536.5,-787 423.5,-787 423.5,-768 536.5,-768 536.5,-787"/>
<text text-anchor="middle" x="480" y="-775" font-family="Helvetica,sans-Serif" font-size="10.00">EBPF::EBPFProgram</text>
</a>
</g>
</g>
<!-- Node10&#45;&gt;Node48 -->
<g id="edge17_Node000010_Node000048" class="edge">
<title>Node10&#45;&gt;Node48</title>
<g id="a_edge17_Node000010_Node000048"><a xlink:title=" ">
<path fill="none" stroke="#63b8ff" d="M343.57,-675.07C350.21,-677.7 356.53,-681.11 362,-685.5 390.51,-708.41 369.29,-736.84 398,-759.5 405.35,-765.3 414.19,-769.32 423.29,-772.08"/>
<polygon fill="#63b8ff" stroke="#63b8ff" points="344.27,-671.61 333.68,-671.74 342.04,-678.25 344.27,-671.61"/>
</a>
</g>
</g>
<!-- Node60 -->
<g id="Node000060" class="node">
<title>Node60</title>
<g id="a_Node000060"><a xlink:href="class_e_b_p_f_1_1_e_b_p_f_random_p_s_a.html" target="_top" xlink:title=" ">
<polygon fill="white" stroke="#bfbfbf" points="545.5,-750 414.5,-750 414.5,-731 545.5,-731 545.5,-750"/>
<text text-anchor="middle" x="480" y="-738" font-family="Helvetica,sans-Serif" font-size="10.00">EBPF::EBPFRandomPSA</text>
</a>
</g>
</g>
<!-- Node10&#45;&gt;Node60 -->
<g id="edge18_Node000010_Node000060" class="edge">
<title>Node10&#45;&gt;Node60</title>
<g id="a_edge18_Node000010_Node000060"><a xlink:title=" ">
<path fill="none" stroke="#63b8ff" d="M343.18,-677.15C349.74,-679.42 356.15,-682.17 362,-685.5 381.94,-696.85 377.96,-711.32 398,-722.5 404.16,-725.94 410.94,-728.72 417.86,-730.97"/>
<polygon fill="#63b8ff" stroke="#63b8ff" points="344.09,-673.77 333.5,-674.16 342.02,-680.46 344.09,-673.77"/>
</a>
</g>
</g>
<!-- Node61 -->
<g id="Node000061" class="node">
<title>Node61</title>
<g id="a_Node000061"><a xlink:href="class_e_b_p_f_1_1_e_b_p_f_table_base.html" target="_top" xlink:title="Also used to represent counters.">
<polygon fill="#fff0f0" stroke="red" points="540,-713 420,-713 420,-694 540,-694 540,-713"/>
<text text-anchor="middle" x="480" y="-701" font-family="Helvetica,sans-Serif" font-size="10.00">EBPF::EBPFTableBase</text>
</a>
</g>
</g>
<!-- Node10&#45;&gt;Node61 -->
<g id="edge19_Node000010_Node000061" class="edge">
<title>Node10&#45;&gt;Node61</title>
<g id="a_edge19_Node000010_Node000061"><a xlink:title=" ">
<path fill="none" stroke="#63b8ff" d="M343.64,-677.95C370.81,-683.08 402.48,-689.06 428.36,-693.94"/>
<polygon fill="#63b8ff" stroke="#63b8ff" points="343.95,-674.44 333.47,-676.03 342.65,-681.32 343.95,-674.44"/>
</a>
</g>
</g>
<!-- Node75 -->
<g id="Node000075" class="node">
<title>Node75</title>
<g id="a_Node000075"><a xlink:href="class_e_b_p_f_1_1_e_b_p_f_type.html" target="_top" xlink:title="Base class for EBPF types.">
<polygon fill="white" stroke="#666666" points="526.5,-491 433.5,-491 433.5,-472 526.5,-472 526.5,-491"/>
<text text-anchor="middle" x="480" y="-479" font-family="Helvetica,sans-Serif" font-size="10.00">EBPF::EBPFType</text>
</a>
</g>
</g>
<!-- Node10&#45;&gt;Node75 -->
<g id="edge20_Node000010_Node000075" class="edge">
<title>Node10&#45;&gt;Node75</title>
<g id="a_edge20_Node000010_Node000075"><a xlink:title=" ">
<path fill="none" stroke="#63b8ff" d="M290.72,-647.24C305.79,-612.21 342.58,-538.22 398,-500.5 408.39,-493.43 421.07,-488.97 433.29,-486.16"/>
<polygon fill="#63b8ff" stroke="#63b8ff" points="287.36,-646.2 286.74,-656.77 293.82,-648.89 287.36,-646.2"/>
</a>
</g>
</g>
<!-- Node90 -->
<g id="Node000090" class="node">
<title>Node90</title>
<g id="a_Node000090"><a xlink:href="class_u_b_p_f_1_1_u_b_p_f_deparser.html" target="_top" xlink:title=" ">
<polygon fill="white" stroke="#bfbfbf" points="539.5,-676 420.5,-676 420.5,-657 539.5,-657 539.5,-676"/>
<text text-anchor="middle" x="480" y="-664" font-family="Helvetica,sans-Serif" font-size="10.00">UBPF::UBPFDeparser</text>
</a>
</g>
</g>
<!-- Node10&#45;&gt;Node90 -->
<g id="edge29_Node000010_Node000090" class="edge">
<title>Node10&#45;&gt;Node90</title>
<g id="a_edge29_Node000010_Node000090"><a xlink:title=" ">
<path fill="none" stroke="#63b8ff" d="M343.95,-666.5C368.35,-666.5 396.35,-666.5 420.5,-666.5"/>
<polygon fill="#63b8ff" stroke="#63b8ff" points="343.73,-663 333.73,-666.5 343.73,-670 343.73,-663"/>
</a>
</g>
</g>
<!-- Node91 -->
<g id="Node000091" class="node">
<title>Node91</title>
<g id="a_Node000091"><a xlink:href="class_u_b_p_f_1_1_u_b_p_f_table_base.html" target="_top" xlink:title=" ">
<polygon fill="white" stroke="orangered" points="541.5,-639 418.5,-639 418.5,-620 541.5,-620 541.5,-639"/>
<text text-anchor="middle" x="480" y="-627" font-family="Helvetica,sans-Serif" font-size="10.00">UBPF::UBPFTableBase</text>
</a>
</g>
</g>
<!-- Node10&#45;&gt;Node91 -->
<g id="edge30_Node000010_Node000091" class="edge">
<title>Node10&#45;&gt;Node91</title>
<g id="a_edge30_Node000010_Node000091"><a xlink:title=" ">
<path fill="none" stroke="#63b8ff" d="M343.64,-655.05C370.81,-649.92 402.48,-643.94 428.36,-639.06"/>
<polygon fill="#63b8ff" stroke="#63b8ff" points="342.65,-651.68 333.47,-656.97 343.95,-658.56 342.65,-651.68"/>
</a>
</g>
</g>
<!-- Node76 -->
<g id="Node000076" class="node">
<title>Node76</title>
<g id="a_Node000076"><a xlink:href="class_e_b_p_f_1_1_e_b_p_f_bool_type.html" target="_top" xlink:title=" ">
<polygon fill="white" stroke="orangered" points="717.5,-380 601.5,-380 601.5,-361 717.5,-361 717.5,-380"/>
<text text-anchor="middle" x="659.5" y="-368" font-family="Helvetica,sans-Serif" font-size="10.00">EBPF::EBPFBoolType</text>
</a>
</g>
</g>
<!-- Node75&#45;&gt;Node76 -->
<g id="edge21_Node000075_Node000076" class="edge">
<title>Node75&#45;&gt;Node76</title>
<g id="a_edge21_Node000075_Node000076"><a xlink:title=" ">
<path fill="none" stroke="#63b8ff" d="M536.56,-476.13C545.71,-473.36 554.61,-469.33 562,-463.5 590.71,-440.84 570.29,-413.37 598,-389.5 602.5,-385.62 607.8,-382.53 613.35,-380.07"/>
<polygon fill="#63b8ff" stroke="#63b8ff" points="535.42,-472.81 526.59,-478.66 537.14,-479.59 535.42,-472.81"/>
</a>
</g>
</g>
<!-- Node78 -->
<g id="Node000078" class="node">
<title>Node78</title>
<g id="a_Node000078"><a xlink:href="class_e_b_p_f_1_1_e_b_p_f_enum_type.html" target="_top" xlink:title=" ">
<polygon fill="white" stroke="orangered" points="720.5,-343 598.5,-343 598.5,-324 720.5,-324 720.5,-343"/>
<text text-anchor="middle" x="659.5" y="-331" font-family="Helvetica,sans-Serif" font-size="10.00">EBPF::EBPFEnumType</text>
</a>
</g>
</g>
<!-- Node75&#45;&gt;Node78 -->
<g id="edge22_Node000075_Node000078" class="edge">
<title>Node75&#45;&gt;Node78</title>
<g id="a_edge22_Node000075_Node000078"><a xlink:title=" ">
<path fill="none" stroke="#63b8ff" d="M536.67,-477.15C545.96,-474.29 554.88,-469.97 562,-463.5 600.37,-428.61 561.16,-389 598,-352.5 601.91,-348.63 606.6,-345.54 611.62,-343.08"/>
<polygon fill="#63b8ff" stroke="#63b8ff" points="535.74,-473.77 526.91,-479.61 537.46,-480.56 535.74,-473.77"/>
</a>
</g>
</g>
<!-- Node80 -->
<g id="Node000080" class="node">
<title>Node80</title>
<g id="a_Node000080"><a xlink:href="class_e_b_p_f_1_1_e_b_p_f_error_type.html" target="_top" xlink:title=" ">
<polygon fill="white" stroke="orangered" points="718,-602 601,-602 601,-583 718,-583 718,-602"/>
<text text-anchor="middle" x="659.5" y="-590" font-family="Helvetica,sans-Serif" font-size="10.00">EBPF::EBPFErrorType</text>
</a>
</g>
</g>
<!-- Node75&#45;&gt;Node80 -->
<g id="edge23_Node000075_Node000080" class="edge">
<title>Node75&#45;&gt;Node80</title>
<g id="a_edge23_Node000075_Node000080"><a xlink:title=" ">
<path fill="none" stroke="#63b8ff" d="M536.29,-487.52C545.55,-490.4 554.55,-494.54 562,-500.5 590.57,-523.33 570.11,-550.84 598,-574.5 602.01,-577.9 606.64,-580.66 611.53,-582.9"/>
<polygon fill="#63b8ff" stroke="#63b8ff" points="537.18,-484.13 526.62,-484.96 535.39,-490.9 537.18,-484.13"/>
</a>
</g>
</g>
<!-- Node82 -->
<g id="Node000082" class="node">
<title>Node82</title>
<g id="a_Node000082"><a xlink:href="class_e_b_p_f_1_1_e_b_p_f_scalar_type.html" target="_top" xlink:title=" ">
<polygon fill="white" stroke="orangered" points="721,-565 598,-565 598,-546 721,-546 721,-565"/>
<text text-anchor="middle" x="659.5" y="-553" font-family="Helvetica,sans-Serif" font-size="10.00">EBPF::EBPFScalarType</text>
</a>
</g>
</g>
<!-- Node75&#45;&gt;Node82 -->
<g id="edge24_Node000075_Node000082" class="edge">
<title>Node75&#45;&gt;Node82</title>
<g id="a_edge24_Node000075_Node000082"><a xlink:title=" ">
<path fill="none" stroke="#63b8ff" d="M536.72,-490.13C545.5,-492.73 554.24,-496.11 562,-500.5 581.97,-511.8 578.37,-525.62 598,-537.5 603.63,-540.9 609.94,-543.7 616.3,-545.99"/>
<polygon fill="#63b8ff" stroke="#63b8ff" points="537.4,-486.69 526.84,-487.52 535.61,-493.46 537.4,-486.69"/>
</a>
</g>
</g>
<!-- Node85 -->
<g id="Node000085" class="node">
<title>Node85</title>
<g id="a_Node000085"><a xlink:href="class_e_b_p_f_1_1_e_b_p_f_stack_type.html" target="_top" xlink:title=" ">
<polygon fill="white" stroke="#bfbfbf" points="719.5,-528 599.5,-528 599.5,-509 719.5,-509 719.5,-528"/>
<text text-anchor="middle" x="659.5" y="-516" font-family="Helvetica,sans-Serif" font-size="10.00">EBPF::EBPFStackType</text>
</a>
</g>
</g>
<!-- Node75&#45;&gt;Node85 -->
<g id="edge25_Node000075_Node000085" class="edge">
<title>Node75&#45;&gt;Node85</title>
<g id="a_edge25_Node000075_Node000085"><a xlink:title=" ">
<path fill="none" stroke="#63b8ff" d="M536.57,-493.08C561.03,-498.18 589.41,-504.1 612.64,-508.94"/>
<polygon fill="#63b8ff" stroke="#63b8ff" points="537.21,-489.64 526.71,-491.03 535.79,-496.5 537.21,-489.64"/>
</a>
</g>
</g>
<!-- Node86 -->
<g id="Node000086" class="node">
<title>Node86</title>
<g id="a_Node000086"><a xlink:href="class_e_b_p_f_1_1_e_b_p_f_struct_type.html" target="_top" xlink:title="Also represents headers and unions.">
<polygon fill="#fff0f0" stroke="red" points="720.5,-491 598.5,-491 598.5,-472 720.5,-472 720.5,-491"/>
<text text-anchor="middle" x="659.5" y="-479" font-family="Helvetica,sans-Serif" font-size="10.00">EBPF::EBPFStructType</text>
</a>
</g>
</g>
<!-- Node75&#45;&gt;Node86 -->
<g id="edge26_Node000075_Node000086" class="edge">
<title>Node75&#45;&gt;Node86</title>
<g id="a_edge26_Node000075_Node000086"><a xlink:title=" ">
<path fill="none" stroke="#63b8ff" d="M536.95,-481.5C556.44,-481.5 578.39,-481.5 598.21,-481.5"/>
<polygon fill="#63b8ff" stroke="#63b8ff" points="536.71,-478 526.71,-481.5 536.71,-485 536.71,-478"/>
</a>
</g>
</g>
<!-- Node88 -->
<g id="Node000088" class="node">
<title>Node88</title>
<g id="a_Node000088"><a xlink:href="class_e_b_p_f_1_1_e_b_p_f_type_name.html" target="_top" xlink:title="This should not always implement IHasWidth, but it may...">
<polygon fill="white" stroke="#666666" points="720.5,-454 598.5,-454 598.5,-435 720.5,-435 720.5,-454"/>
<text text-anchor="middle" x="659.5" y="-442" font-family="Helvetica,sans-Serif" font-size="10.00">EBPF::EBPFTypeName</text>
</a>
</g>
</g>
<!-- Node75&#45;&gt;Node88 -->
<g id="edge27_Node000075_Node000088" class="edge">
<title>Node75&#45;&gt;Node88</title>
<g id="a_edge27_Node000075_Node000088"><a xlink:title=" ">
<path fill="none" stroke="#63b8ff" d="M536.57,-469.92C561.03,-464.82 589.41,-458.9 612.64,-454.06"/>
<polygon fill="#63b8ff" stroke="#63b8ff" points="535.79,-466.5 526.71,-471.97 537.21,-473.36 535.79,-466.5"/>
</a>
</g>
</g>
<!-- Node89 -->
<g id="Node000089" class="node">
<title>Node89</title>
<g id="a_Node000089"><a xlink:href="class_u_b_p_f_1_1_u_b_p_f_list_type.html" target="_top" xlink:title=" ">
<polygon fill="white" stroke="#bfbfbf" points="716.5,-417 602.5,-417 602.5,-398 716.5,-398 716.5,-417"/>
<text text-anchor="middle" x="659.5" y="-405" font-family="Helvetica,sans-Serif" font-size="10.00">UBPF::UBPFListType</text>
</a>
</g>
</g>
<!-- Node75&#45;&gt;Node89 -->
<g id="edge28_Node000075_Node000089" class="edge">
<title>Node75&#45;&gt;Node89</title>
<g id="a_edge28_Node000075_Node000089"><a xlink:title=" ">
<path fill="none" stroke="#63b8ff" d="M536.71,-473.62C545.5,-471.13 554.23,-467.83 562,-463.5 582.04,-452.32 578.46,-438.53 598,-426.5 604.19,-422.69 611.21,-419.58 618.22,-417.07"/>
<polygon fill="#63b8ff" stroke="#63b8ff" points="535.67,-470.28 526.83,-476.12 537.38,-477.07 535.67,-470.28"/>
</a>
</g>
</g>
<!-- Node94&#45;&gt;Node76 -->
<g id="edge32_Node000094_Node000076" class="edge">
<title>Node94&#45;&gt;Node76</title>
<g id="a_edge32_Node000094_Node000076"><a xlink:title=" ">
<path fill="none" stroke="#63b8ff" d="M538.22,-436.19C546.49,-433.74 554.68,-430.59 562,-426.5 582.04,-415.32 578.46,-401.53 598,-389.5 604.19,-385.69 611.21,-382.58 618.22,-380.07"/>
<polygon fill="#63b8ff" stroke="#63b8ff" points="537.3,-432.81 528.52,-438.74 539.08,-439.58 537.3,-432.81"/>
</a>
</g>
</g>
<!-- Node94&#45;&gt;Node78 -->
<g id="edge33_Node000094_Node000078" class="edge">
<title>Node94&#45;&gt;Node78</title>
<g id="a_edge33_Node000094_Node000078"><a xlink:title=" ">
<path fill="none" stroke="#63b8ff" d="M538.38,-438.56C546.89,-435.82 555.1,-431.95 562,-426.5 590.71,-403.84 570.29,-376.37 598,-352.5 602.5,-348.62 607.8,-345.53 613.35,-343.07"/>
<polygon fill="#63b8ff" stroke="#63b8ff" points="537.43,-435.19 528.7,-441.2 539.27,-441.95 537.43,-435.19"/>
</a>
</g>
</g>
<!-- Node94&#45;&gt;Node80 -->
<g id="edge34_Node000094_Node000080" class="edge">
<title>Node94&#45;&gt;Node80</title>
<g id="a_edge34_Node000094_Node000080"><a xlink:title=" ">
<path fill="none" stroke="#63b8ff" d="M538.49,-450.18C547.13,-453.13 555.36,-457.39 562,-463.5 600.17,-498.62 560.88,-538.28 598,-574.5 601.53,-577.94 605.69,-580.73 610.14,-582.99"/>
<polygon fill="#63b8ff" stroke="#63b8ff" points="539.2,-446.74 528.62,-447.38 537.29,-453.48 539.2,-446.74"/>
</a>
</g>
</g>
<!-- Node94&#45;&gt;Node82 -->
<g id="edge35_Node000094_Node000082" class="edge">
<title>Node94&#45;&gt;Node82</title>
<g id="a_edge35_Node000094_Node000082"><a xlink:title=" ">
<path fill="none" stroke="#63b8ff" d="M538.4,-451.2C546.91,-454.04 555.11,-458 562,-463.5 590.57,-486.33 570.11,-513.84 598,-537.5 602.01,-540.9 606.64,-543.66 611.53,-545.9"/>
<polygon fill="#63b8ff" stroke="#63b8ff" points="539.3,-447.82 528.72,-448.45 537.39,-454.55 539.3,-447.82"/>
</a>
</g>
</g>
<!-- Node94&#45;&gt;Node85 -->
<g id="edge36_Node000094_Node000085" class="edge">
<title>Node94&#45;&gt;Node85</title>
<g id="a_edge36_Node000094_Node000085"><a xlink:title=" ">
<path fill="none" stroke="#63b8ff" d="M538.23,-453.59C546.5,-456.12 554.68,-459.36 562,-463.5 581.97,-474.8 578.37,-488.62 598,-500.5 603.63,-503.9 609.94,-506.7 616.3,-508.99"/>
<polygon fill="#63b8ff" stroke="#63b8ff" points="539.1,-450.19 528.53,-450.92 537.24,-456.94 539.1,-450.19"/>
</a>
</g>
</g>
<!-- Node94&#45;&gt;Node86 -->
<g id="edge37_Node000094_Node000086" class="edge">
<title>Node94&#45;&gt;Node86</title>
<g id="a_edge37_Node000094_Node000086"><a xlink:title=" ">
<path fill="none" stroke="#63b8ff" d="M536.57,-456.08C561.03,-461.18 589.41,-467.1 612.64,-471.94"/>
<polygon fill="#63b8ff" stroke="#63b8ff" points="537.21,-452.64 526.71,-454.03 535.79,-459.5 537.21,-452.64"/>
</a>
</g>
</g>
<!-- Node94&#45;&gt;Node88 -->
<g id="edge38_Node000094_Node000088" class="edge">
<title>Node94&#45;&gt;Node88</title>
<g id="a_edge38_Node000094_Node000088"><a xlink:title=" ">
<path fill="none" stroke="#63b8ff" d="M538.64,-444.5C557.76,-444.5 579.09,-444.5 598.39,-444.5"/>
<polygon fill="#63b8ff" stroke="#63b8ff" points="538.57,-441 528.57,-444.5 538.57,-448 538.57,-441"/>
</a>
</g>
</g>
<!-- Node94&#45;&gt;Node89 -->
<g id="edge39_Node000094_Node000089" class="edge">
<title>Node94&#45;&gt;Node89</title>
<g id="a_edge39_Node000094_Node000089"><a xlink:title=" ">
<path fill="none" stroke="#63b8ff" d="M536.57,-432.92C561.03,-427.82 589.41,-421.9 612.64,-417.06"/>
<polygon fill="#63b8ff" stroke="#63b8ff" points="535.79,-429.5 526.71,-434.97 537.21,-436.36 535.79,-429.5"/>
</a>
</g>
</g>
<!-- Node96 -->
<g id="Node000096" class="node">
<title>Node96</title>
<g id="a_Node000096"><a xlink:href="class_i_r_1_1_i_declaration.html" target="_top" xlink:title="The Declaration interface, representing objects with names.">
<polygon fill="white" stroke="#666666" points="526,-380 434,-380 434,-361 526,-361 526,-380"/>
<text text-anchor="middle" x="480" y="-368" font-family="Helvetica,sans-Serif" font-size="10.00">IR::IDeclaration</text>
</a>
</g>
</g>
<!-- Node95&#45;&gt;Node96 -->
<g id="edge41_Node000095_Node000096" class="edge">
<title>Node95&#45;&gt;Node96</title>
<g id="a_edge41_Node000095_Node000096"><a xlink:title=" ">
<path fill="none" stroke="#63b8ff" d="M322.74,-384.85C354.98,-381.89 400.42,-377.72 434,-374.63"/>
<polygon fill="#63b8ff" stroke="#63b8ff" points="322.41,-381.37 312.77,-385.77 323.05,-388.34 322.41,-381.37"/>
</a>
</g>
</g>
<!-- Node97 -->
<g id="Node000097" class="node">
<title>Node97</title>
<g id="a_Node000097"><a xlink:href="class_i_r_1_1_node.html" target="_top" xlink:title=" ">
<polygon fill="white" stroke="orangered" points="509,-417 451,-417 451,-398 509,-398 509,-417"/>
<text text-anchor="middle" x="480" y="-405" font-family="Helvetica,sans-Serif" font-size="10.00">IR::Node</text>
</a>
</g>
</g>
<!-- Node95&#45;&gt;Node97 -->
<g id="edge42_Node000095_Node000097" class="edge">
<title>Node95&#45;&gt;Node97</title>
<g id="a_edge42_Node000095_Node000097"><a xlink:title=" ">
<path fill="none" stroke="#63b8ff" d="M322.98,-392.38C361.03,-396.06 417.32,-401.52 450.86,-404.77"/>
<polygon fill="#63b8ff" stroke="#63b8ff" points="323.06,-388.87 312.77,-391.39 322.38,-395.83 323.06,-388.87"/>
</a>
</g>
</g>
<!-- Node134 -->
<g id="Node000134" class="node">
<title>Node134</title>
<g id="a_Node000134"><a xlink:href="class_json_boolean.html" target="_top" xlink:title=" ">
<polygon fill="white" stroke="#bfbfbf" points="518.5,-343 441.5,-343 441.5,-324 518.5,-324 518.5,-343"/>
<text text-anchor="middle" x="480" y="-331" font-family="Helvetica,sans-Serif" font-size="10.00">JsonBoolean</text>
</a>
</g>
</g>
<!-- Node133&#45;&gt;Node134 -->
<g id="edge44_Node000133_Node000134" class="edge">
<title>Node133&#45;&gt;Node134</title>
<g id="a_edge44_Node000133_Node000134"><a xlink:title=" ">
<path fill="none" stroke="#63b8ff" d="M322.58,-347.87C357.26,-344.68 407.31,-340.08 441.39,-336.95"/>
<polygon fill="#63b8ff" stroke="#63b8ff" points="321.98,-344.41 312.34,-348.81 322.62,-351.38 321.98,-344.41"/>
</a>
</g>
</g>
<!-- Node135 -->
<g id="Node000135" class="node">
<title>Node135</title>
<g id="a_Node000135"><a xlink:href="class_json_null.html" target="_top" xlink:title=" ">
<polygon fill="white" stroke="#bfbfbf" points="508,-306 452,-306 452,-287 508,-287 508,-306"/>
<text text-anchor="middle" x="480" y="-294" font-family="Helvetica,sans-Serif" font-size="10.00">JsonNull</text>
</a>
</g>
</g>
<!-- Node133&#45;&gt;Node135 -->
<g id="edge45_Node000133_Node000135" class="edge">
<title>Node133&#45;&gt;Node135</title>
<g id="a_edge45_Node000133_Node000135"><a xlink:title=" ">
<path fill="none" stroke="#63b8ff" d="M322.25,-343.73C335.08,-340.75 349.3,-336.97 362,-332.5 378.69,-326.62 381.29,-321.33 398,-315.5 415.59,-309.36 436.02,-304.58 451.96,-301.36"/>
<polygon fill="#63b8ff" stroke="#63b8ff" points="321.3,-340.36 312.31,-345.95 322.83,-347.19 321.3,-340.36"/>
</a>
</g>
</g>
<!-- Node136 -->
<g id="Node000136" class="node">
<title>Node136</title>
<g id="a_Node000136"><a xlink:href="class_json_number.html" target="_top" xlink:title=" ">
<polygon fill="white" stroke="#bfbfbf" points="518,-269 442,-269 442,-250 518,-250 518,-269"/>
<text text-anchor="middle" x="480" y="-257" font-family="Helvetica,sans-Serif" font-size="10.00">JsonNumber</text>
</a>
</g>
</g>
<!-- Node133&#45;&gt;Node136 -->
<g id="edge46_Node000133_Node000136" class="edge">
<title>Node133&#45;&gt;Node136</title>
<g id="a_edge46_Node000133_Node000136"><a xlink:title=" ">
<path fill="none" stroke="#63b8ff" d="M322.2,-347.96C335.73,-345.28 350.39,-340.61 362,-332.5 385.65,-315.99 374.3,-294.94 398,-278.5 410.82,-269.61 427.24,-264.84 441.94,-262.29"/>
<polygon fill="#63b8ff" stroke="#63b8ff" points="321.43,-344.54 312.15,-349.65 322.59,-351.44 321.43,-344.54"/>
</a>
</g>
</g>
<!-- Node137 -->
<g id="Node000137" class="node">
<title>Node137</title>
<g id="a_Node000137"><a xlink:href="class_json_object.html" target="_top" xlink:title=" ">
<polygon fill="white" stroke="#bfbfbf" points="514,-232 446,-232 446,-213 514,-213 514,-232"/>
<text text-anchor="middle" x="480" y="-220" font-family="Helvetica,sans-Serif" font-size="10.00">JsonObject</text>
</a>
</g>
</g>
<!-- Node133&#45;&gt;Node137 -->
<g id="edge47_Node000133_Node000137" class="edge">
<title>Node133&#45;&gt;Node137</title>
<g id="a_edge47_Node000133_Node000137"><a xlink:title=" ">
<path fill="none" stroke="#63b8ff" d="M322.58,-349.39C336.39,-346.87 351.14,-341.93 362,-332.5 394.84,-303.98 365.08,-269.92 398,-241.5 411.12,-230.17 429.74,-225.29 445.82,-223.3"/>
<polygon fill="#63b8ff" stroke="#63b8ff" points="321.67,-345.98 312.27,-350.88 322.67,-352.91 321.67,-345.98"/>
</a>
</g>
</g>
<!-- Node138 -->
<g id="Node000138" class="node">
<title>Node138</title>
<g id="a_Node000138"><a xlink:href="class_json_string.html" target="_top" xlink:title=" ">
<polygon fill="white" stroke="#bfbfbf" points="512.5,-195 447.5,-195 447.5,-176 512.5,-176 512.5,-195"/>
<text text-anchor="middle" x="480" y="-183" font-family="Helvetica,sans-Serif" font-size="10.00">JsonString</text>
</a>
</g>
</g>
<!-- Node133&#45;&gt;Node138 -->
<g id="edge48_Node000133_Node000138" class="edge">
<title>Node133&#45;&gt;Node138</title>
<g id="a_edge48_Node000133_Node000138"><a xlink:title=" ">
<path fill="none" stroke="#63b8ff" d="M322.39,-350.12C336.48,-347.71 351.46,-342.67 362,-332.5 404.84,-291.18 354.8,-244.45 398,-203.5 411.07,-191.11 430.69,-186.53 447.34,-185.08"/>
<polygon fill="#63b8ff" stroke="#63b8ff" points="321.82,-346.66 312.37,-351.44 322.74,-353.6 321.82,-346.66"/>
</a>
</g>
</g>
</g>
</svg>
