<?xml version="1.0" encoding="UTF-8" standalone="no"?>
<!DOCTYPE svg PUBLIC "-//W3C//DTD SVG 1.1//EN"
 "http://www.w3.org/Graphics/SVG/1.1/DTD/svg11.dtd">
<!-- Generated by graphviz version 2.43.0 (0)
 -->
<!-- Title: UBPF::Register_Model Pages: 1 -->
<svg width="132pt" height="192pt"
 viewBox="0.00 0.00 132.00 192.00" xmlns="http://www.w3.org/2000/svg" xmlns:xlink="http://www.w3.org/1999/xlink">

<svg id="main" version="1.1" xmlns="http://www.w3.org/2000/svg" xmlns:xlink="http://www.w3.org/1999/xlink" xml:space="preserve">

<style type="text/css"><![CDATA[
.node, .edge {opacity: 0.7;}
.node.selected, .edge.selected {opacity: 1;}
.edge:hover path { stroke: red; }
.edge:hover polygon { stroke: red; fill: red; }
]]></style>
<script type="application/ecmascript" xlink:href="svg.min.js"/>
<svg id="graph" class="graph">
<g id="graph0" class="graph" transform="scale(1 1) rotate(0) translate(4 188)">
<title>UBPF::Register_Model</title>
<!-- Node1 -->
<g id="Node000001" class="node">
<title>Node1</title>
<g id="a_Node000001"><a xlink:title=" ">
<polygon fill="#999999" stroke="#666666" points="124,-19 0,-19 0,0 124,0 124,-19"/>
<text text-anchor="middle" x="62" y="-7" font-family="Helvetica,sans-Serif" font-size="10.00">UBPF::Register_Model</text>
</a>
</g>
</g>
<!-- Node2 -->
<g id="Node000002" class="node">
<title>Node2</title>
<g id="a_Node000002"><a xlink:href="struct_model_1_1_extern___model.html" target="_top" xlink:title="Extern_Model : Type_Model.">
<polygon fill="white" stroke="#666666" points="121.5,-74 2.5,-74 2.5,-55 121.5,-55 121.5,-74"/>
<text text-anchor="middle" x="62" y="-62" font-family="Helvetica,sans-Serif" font-size="10.00">Model::Extern_Model</text>
</a>
</g>
</g>
<!-- Node2&#45;&gt;Node1 -->
<g id="edge1_Node000001_Node000002" class="edge">
<title>Node2&#45;&gt;Node1</title>
<g id="a_edge1_Node000001_Node000002"><a xlink:title=" ">
<path fill="none" stroke="#63b8ff" d="M62,-44.66C62,-35.93 62,-25.99 62,-19.09"/>
<polygon fill="#63b8ff" stroke="#63b8ff" points="58.5,-44.75 62,-54.75 65.5,-44.75 58.5,-44.75"/>
</a>
</g>
</g>
<!-- Node3 -->
<g id="Node000003" class="node">
<title>Node3</title>
<g id="a_Node000003"><a xlink:href="struct_model_1_1_type___model.html" target="_top" xlink:title=" ">
<polygon fill="white" stroke="#bfbfbf" points="117,-129 7,-129 7,-110 117,-110 117,-129"/>
<text text-anchor="middle" x="62" y="-117" font-family="Helvetica,sans-Serif" font-size="10.00">Model::Type_Model</text>
</a>
</g>
</g>
<!-- Node3&#45;&gt;Node2 -->
<g id="edge2_Node000002_Node000003" class="edge">
<title>Node3&#45;&gt;Node2</title>
<g id="a_edge2_Node000002_Node000003"><a xlink:title=" ">
<path fill="none" stroke="#63b8ff" d="M62,-99.66C62,-90.93 62,-80.99 62,-74.09"/>
<polygon fill="#63b8ff" stroke="#63b8ff" points="58.5,-99.75 62,-109.75 65.5,-99.75 58.5,-99.75"/>
</a>
</g>
</g>
<!-- Node4 -->
<g id="Node000004" class="node">
<title>Node4</title>
<g id="a_Node000004"><a xlink:href="struct_model_1_1_elem.html" target="_top" xlink:title=" ">
<polygon fill="white" stroke="#bfbfbf" points="100.5,-184 23.5,-184 23.5,-165 100.5,-165 100.5,-184"/>
<text text-anchor="middle" x="62" y="-172" font-family="Helvetica,sans-Serif" font-size="10.00">Model::Elem</text>
</a>
</g>
</g>
<!-- Node4&#45;&gt;Node3 -->
<g id="edge3_Node000003_Node000004" class="edge">
<title>Node4&#45;&gt;Node3</title>
<g id="a_edge3_Node000003_Node000004"><a xlink:title=" ">
<path fill="none" stroke="#63b8ff" d="M62,-154.66C62,-145.93 62,-135.99 62,-129.09"/>
<polygon fill="#63b8ff" stroke="#63b8ff" points="58.5,-154.75 62,-164.75 65.5,-154.75 58.5,-154.75"/>
</a>
</g>
</g>
</g>
</svg>
</svg>

<style type='text/css'>
<![CDATA[
[data-mouse-over-selected='false'] { opacity: 0.7; }
[data-mouse-over-selected='true']  { opacity: 1.0; }
]]>
</style>
<script type="application/ecmascript"><![CDATA[
document.addEventListener('DOMContentLoaded', (event) => {
  highlightEdges();
  highlightAdjacentNodes();
});
]]></script>
</svg>
