<?xml version="1.0" encoding="UTF-8" standalone="no"?>
<!DOCTYPE svg PUBLIC "-//W3C//DTD SVG 1.1//EN"
 "http://www.w3.org/Graphics/SVG/1.1/DTD/svg11.dtd">
<!-- Generated by graphviz version 2.43.0 (0)
 -->
<!-- Title: P4::ControlFlowVisitor Pages: 1 -->
<!--zoomable 471 -->

<svg id="main" version="1.1" xmlns="http://www.w3.org/2000/svg" xmlns:xlink="http://www.w3.org/1999/xlink" xml:space="preserve" onload="init(evt)">

<style type="text/css"><![CDATA[
.node, .edge {opacity: 0.7;}
.node.selected, .edge.selected {opacity: 1;}
.edge:hover path { stroke: red; }
.edge:hover polygon { stroke: red; fill: red; }
]]></style>

<defs>
  <circle id="rim" cx="0" cy="0" r="7"/>
  <circle id="rim2" cx="0" cy="0" r="3.5"/>
  <g id="zoomPlus">
    <use xlink:href="#rim" fill="#404040"><set attributeName="fill" to="#808080" begin="zoomplus.mouseover" end="zoomplus.mouseout"/></use>
    <path d="M-4,0h8M0,-4v8" fill="none" stroke="white" stroke-width="1.5" pointer-events="none"/>
  </g>
  <g id="zoomMin">
    <use xlink:href="#rim" fill="#404040"><set attributeName="fill" to="#808080" begin="zoomminus.mouseover" end="zoomminus.mouseout"/></use>
    <path d="M-4,0h8" fill="none" stroke="white" stroke-width="1.5" pointer-events="none"/>
  </g>
  <g id="arrowUp" transform="translate(30 24)">
    <use xlink:href="#rim"/>
    <path pointer-events="none" fill="none" stroke="white" stroke-width="1.5" d="M0,-3.0v7 M-2.5,-0.5L0,-3.0L2.5,-0.5"/>
  </g>
  <g id="arrowRight" transform="rotate(90) translate(36 -43)">
    <use xlink:href="#rim"/>
    <path pointer-events="none" fill="none" stroke="white" stroke-width="1.5" d="M0,-3.0v7 M-2.5,-0.5L0,-3.0L2.5,-0.5"/>
  </g>
  <g id="arrowDown" transform="rotate(180) translate(-30 -48)">
    <use xlink:href="#rim"/>
    <path pointer-events="none" fill="none" stroke="white" stroke-width="1.5" d="M0,-3.0v7 M-2.5,-0.5L0,-3.0L2.5,-0.5"/>
  </g>
  <g id="arrowLeft" transform="rotate(270) translate(-36 17)">
    <use xlink:href="#rim"/>
    <path pointer-events="none" fill="none" stroke="white" stroke-width="1.5" d="M0,-3.0v7 M-2.5,-0.5L0,-3.0L2.5,-0.5"/>
  </g>
  <g id="resetDef">
    <use xlink:href="#rim2" fill="#404040"><set attributeName="fill" to="#808080" begin="reset.mouseover" end="reset.mouseout"/></use>
  </g>
</defs>
<script type="application/ecmascript">
var viewWidth = 632;
var viewHeight = 471;
var sectionId = 'dynsection-0';
</script>
<script type="application/ecmascript" xlink:href="svg.min.js"/>
<svg id="graph" class="graph">
<g id="viewport">
<title>P4::ControlFlowVisitor</title>
<!-- Node1 -->
<g id="Node000001" class="node">
<title>Node1</title>
<g id="a_Node000001"><a xlink:title=" ">
<polygon fill="#999999" stroke="#666666" points="227,-241 102,-241 102,-222 227,-222 227,-241"/>
<text text-anchor="middle" x="164.5" y="-229" font-family="Helvetica,sans-Serif" font-size="10.00">P4::ControlFlowVisitor</text>
</a>
</g>
</g>
<!-- Node3 -->
<g id="Node000003" class="node">
<title>Node3</title>
<g id="a_Node000003"><a xlink:href="struct_b_f_n_1_1_collect_bridged_fields.html" target="_top" xlink:title=" ">
<polygon fill="white" stroke="#bfbfbf" points="413.5,-463 270.5,-463 270.5,-444 413.5,-444 413.5,-463"/>
<text text-anchor="middle" x="342" y="-451" font-family="Helvetica,sans-Serif" font-size="10.00">BFN::CollectBridgedFields</text>
</a>
</g>
</g>
<!-- Node1&#45;&gt;Node3 -->
<g id="edge2_Node000001_Node000003" class="edge">
<title>Node1&#45;&gt;Node3</title>
<g id="a_edge2_Node000001_Node000003"><a xlink:title=" ">
<path fill="none" stroke="darkgreen" d="M169.18,-251.45C177.8,-292.39 203.3,-386.13 263,-434.5 267.76,-438.36 273.2,-441.46 278.92,-443.93"/>
<polygon fill="darkgreen" stroke="darkgreen" points="172.56,-250.51 167.18,-241.38 165.69,-251.87 172.56,-250.51"/>
</a>
</g>
</g>
<!-- Node4 -->
<g id="Node000004" class="node">
<title>Node4</title>
<g id="a_Node000004"><a xlink:href="class_b_f_n_1_1_control_flow_visitor.html" target="_top" xlink:title=" ">
<polygon fill="white" stroke="#bfbfbf" points="408.5,-426 275.5,-426 275.5,-407 408.5,-407 408.5,-426"/>
<text text-anchor="middle" x="342" y="-414" font-family="Helvetica,sans-Serif" font-size="10.00">BFN::ControlFlowVisitor</text>
</a>
</g>
</g>
<!-- Node1&#45;&gt;Node4 -->
<g id="edge3_Node000001_Node000004" class="edge">
<title>Node1&#45;&gt;Node4</title>
<g id="a_edge3_Node000001_Node000004"><a xlink:title=" ">
<path fill="none" stroke="#63b8ff" d="M171.37,-251.14C182.9,-286.22 211.93,-359.53 263,-397.5 268.15,-401.33 273.96,-404.39 280.04,-406.84"/>
<polygon fill="#63b8ff" stroke="#63b8ff" points="174.57,-249.67 168.23,-241.18 167.9,-251.77 174.57,-249.67"/>
</a>
</g>
</g>
<!-- Node5 -->
<g id="Node000005" class="node">
<title>Node5</title>
<g id="a_Node000005"><a xlink:href="class_b_f_n_1_1_gateway_control_flow.html" target="_top" xlink:title=" ">
<polygon fill="white" stroke="#666666" points="414.5,-389 269.5,-389 269.5,-370 414.5,-370 414.5,-389"/>
<text text-anchor="middle" x="342" y="-377" font-family="Helvetica,sans-Serif" font-size="10.00">BFN::GatewayControlFlow</text>
</a>
</g>
</g>
<!-- Node1&#45;&gt;Node5 -->
<g id="edge4_Node000001_Node000005" class="edge">
<title>Node1&#45;&gt;Node5</title>
<g id="a_edge4_Node000001_Node000005"><a xlink:title=" ">
<path fill="none" stroke="#63b8ff" d="M174.39,-250.3C188.83,-278.74 220.16,-332.36 263,-360.5 268.94,-364.4 275.61,-367.5 282.48,-369.97"/>
<polygon fill="#63b8ff" stroke="#63b8ff" points="177.4,-248.48 169.84,-241.06 171.11,-251.57 177.4,-248.48"/>
</a>
</g>
</g>
<!-- Node7 -->
<g id="Node000007" class="node">
<title>Node7</title>
<g id="a_Node000007"><a xlink:href="class_build_mutex.html" target="_top" xlink:title=" ">
<polygon fill="white" stroke="#666666" points="378,-352 306,-352 306,-333 378,-333 378,-352"/>
<text text-anchor="middle" x="342" y="-340" font-family="Helvetica,sans-Serif" font-size="10.00">BuildMutex</text>
</a>
</g>
</g>
<!-- Node1&#45;&gt;Node7 -->
<g id="edge6_Node000001_Node000007" class="edge">
<title>Node1&#45;&gt;Node7</title>
<g id="a_edge6_Node000001_Node000007"><a xlink:title=" ">
<path fill="none" stroke="#63b8ff" d="M179.19,-249.09C196.46,-270.03 228.13,-304.56 263,-323.5 276.1,-330.62 291.88,-335.11 305.81,-337.92"/>
<polygon fill="#63b8ff" stroke="#63b8ff" points="181.9,-246.88 172.91,-241.28 176.45,-251.27 181.9,-246.88"/>
</a>
</g>
</g>
<!-- Node11 -->
<g id="Node000011" class="node">
<title>Node11</title>
<g id="a_Node000011"><a xlink:href="group___deparser_copy_opt.html#class_collect_weak_fields" target="_top" xlink:title=" ">
<polygon fill="white" stroke="#666666" points="395,-315 289,-315 289,-296 395,-296 395,-315"/>
<text text-anchor="middle" x="342" y="-303" font-family="Helvetica,sans-Serif" font-size="10.00">CollectWeakFields</text>
</a>
</g>
</g>
<!-- Node1&#45;&gt;Node11 -->
<g id="edge10_Node000001_Node000011" class="edge">
<title>Node1&#45;&gt;Node11</title>
<g id="a_edge10_Node000001_Node000011"><a xlink:title=" ">
<path fill="none" stroke="#8b1a1a" d="M188.37,-246.8C207.58,-259.05 236.13,-275.88 263,-286.5 272.46,-290.24 282.87,-293.39 292.92,-295.99"/>
<polygon fill="#8b1a1a" stroke="#8b1a1a" points="190.03,-243.7 179.74,-241.2 186.23,-249.58 190.03,-243.7"/>
</a>
</g>
</g>
<!-- Node12 -->
<g id="Node000012" class="node">
<title>Node12</title>
<g id="a_Node000012"><a xlink:href="class_default_next.html" target="_top" xlink:title=" ">
<polygon fill="white" stroke="#bfbfbf" points="380,-278 304,-278 304,-259 380,-259 380,-278"/>
<text text-anchor="middle" x="342" y="-266" font-family="Helvetica,sans-Serif" font-size="10.00">DefaultNext</text>
</a>
</g>
</g>
<!-- Node1&#45;&gt;Node12 -->
<g id="edge11_Node000001_Node000012" class="edge">
<title>Node1&#45;&gt;Node12</title>
<g id="a_edge11_Node000001_Node000012"><a xlink:title=" ">
<path fill="none" stroke="#8b1a1a" d="M220.82,-243.16C247.92,-248.88 279.82,-255.6 303.94,-260.69"/>
<polygon fill="#8b1a1a" stroke="#8b1a1a" points="221.2,-239.67 210.7,-241.03 219.76,-246.52 221.2,-239.67"/>
</a>
</g>
</g>
<!-- Node13 -->
<g id="Node000013" class="node">
<title>Node13</title>
<g id="a_Node000013"><a xlink:href="group__parde.html#class_field_def_use" target="_top" xlink:title=" ">
<polygon fill="white" stroke="#bfbfbf" points="380,-241 304,-241 304,-222 380,-222 380,-241"/>
<text text-anchor="middle" x="342" y="-229" font-family="Helvetica,sans-Serif" font-size="10.00">FieldDefUse</text>
</a>
</g>
</g>
<!-- Node1&#45;&gt;Node13 -->
<g id="edge12_Node000001_Node000013" class="edge">
<title>Node1&#45;&gt;Node13</title>
<g id="a_edge12_Node000001_Node000013"><a xlink:title=" ">
<path fill="none" stroke="#63b8ff" d="M237.4,-231.5C260.24,-231.5 284.57,-231.5 303.91,-231.5"/>
<polygon fill="#63b8ff" stroke="#63b8ff" points="237.37,-228 227.37,-231.5 237.37,-235 237.37,-228"/>
</a>
</g>
</g>
<!-- Node14 -->
<g id="Node000014" class="node">
<title>Node14</title>
<g id="a_Node000014"><a xlink:href="class_find_data_dependency_graph.html" target="_top" xlink:title=" ">
<polygon fill="white" stroke="#bfbfbf" points="417,-204 267,-204 267,-185 417,-185 417,-204"/>
<text text-anchor="middle" x="342" y="-192" font-family="Helvetica,sans-Serif" font-size="10.00">FindDataDependencyGraph</text>
</a>
</g>
</g>
<!-- Node1&#45;&gt;Node14 -->
<g id="edge13_Node000001_Node000014" class="edge">
<title>Node1&#45;&gt;Node14</title>
<g id="a_edge13_Node000001_Node000014"><a xlink:title=" ">
<path fill="none" stroke="#8b1a1a" d="M220.77,-219.85C244.88,-214.77 272.79,-208.88 295.65,-204.06"/>
<polygon fill="#8b1a1a" stroke="#8b1a1a" points="219.76,-216.48 210.7,-221.97 221.2,-223.33 219.76,-216.48"/>
</a>
</g>
</g>
<!-- Node15 -->
<g id="Node000015" class="node">
<title>Node15</title>
<g id="a_Node000015"><a xlink:href="class_mau_power_1_1_build_power_graph.html" target="_top" xlink:title=" ">
<polygon fill="white" stroke="#666666" points="421,-167 263,-167 263,-148 421,-148 421,-167"/>
<text text-anchor="middle" x="342" y="-155" font-family="Helvetica,sans-Serif" font-size="10.00">MauPower::BuildPowerGraph</text>
</a>
</g>
</g>
<!-- Node1&#45;&gt;Node15 -->
<g id="edge14_Node000001_Node000015" class="edge">
<title>Node1&#45;&gt;Node15</title>
<g id="a_edge14_Node000001_Node000015"><a xlink:title=" ">
<path fill="none" stroke="#8b1a1a" d="M187.38,-216.42C206.54,-203.84 235.55,-186.28 263,-175.5 271.41,-172.2 280.58,-169.41 289.57,-167.1"/>
<polygon fill="#8b1a1a" stroke="#8b1a1a" points="185.43,-213.51 179.06,-221.98 189.32,-219.33 185.43,-213.51"/>
</a>
</g>
</g>
<!-- Node16 -->
<g id="Node000016" class="node">
<title>Node16</title>
<g id="a_Node000016"><a xlink:href="class_p4_1_1_compute_def_use.html" target="_top" xlink:title="Compute defuse info within P4Parser and P4Control blocks in the midend.">
<polygon fill="white" stroke="#666666" points="399.5,-130 284.5,-130 284.5,-111 399.5,-111 399.5,-130"/>
<text text-anchor="middle" x="342" y="-118" font-family="Helvetica,sans-Serif" font-size="10.00">P4::ComputeDefUse</text>
</a>
</g>
</g>
<!-- Node1&#45;&gt;Node16 -->
<g id="edge15_Node000001_Node000016" class="edge">
<title>Node1&#45;&gt;Node16</title>
<g id="a_edge15_Node000001_Node000016"><a xlink:title=" ">
<path fill="none" stroke="#63b8ff" d="M178.85,-213.97C195.97,-192.76 227.71,-157.52 263,-138.5 269.61,-134.94 276.9,-132.08 284.29,-129.79"/>
<polygon fill="#63b8ff" stroke="#63b8ff" points="176.07,-211.84 172.63,-221.86 181.57,-216.17 176.07,-211.84"/>
</a>
</g>
</g>
<!-- Node17 -->
<g id="Node000017" class="node">
<title>Node17</title>
<g id="a_Node000017"><a xlink:href="class_p4_1_1_do_local_copy_propagation.html" target="_top" xlink:title=" ">
<polygon fill="white" stroke="#666666" points="420.5,-93 263.5,-93 263.5,-74 420.5,-74 420.5,-93"/>
<text text-anchor="middle" x="342" y="-81" font-family="Helvetica,sans-Serif" font-size="10.00">P4::DoLocalCopyPropagation</text>
</a>
</g>
</g>
<!-- Node1&#45;&gt;Node17 -->
<g id="edge16_Node000001_Node000017" class="edge">
<title>Node1&#45;&gt;Node17</title>
<g id="a_edge16_Node000001_Node000017"><a xlink:title=" ">
<path fill="none" stroke="#63b8ff" d="M174.31,-212.49C188.65,-183.74 219.83,-129.6 263,-101.5 268.24,-98.09 274.05,-95.32 280.06,-93.07"/>
<polygon fill="#63b8ff" stroke="#63b8ff" points="170.99,-211.31 169.8,-221.83 177.3,-214.35 170.99,-211.31"/>
</a>
</g>
</g>
<!-- Node18 -->
<g id="Node000018" class="node">
<title>Node18</title>
<g id="a_Node000018"><a xlink:href="class_parser_critical_path.html" target="_top" xlink:title=" ">
<polygon fill="white" stroke="#666666" points="393,-56 291,-56 291,-37 393,-37 393,-56"/>
<text text-anchor="middle" x="342" y="-44" font-family="Helvetica,sans-Serif" font-size="10.00">ParserCriticalPath</text>
</a>
</g>
</g>
<!-- Node1&#45;&gt;Node18 -->
<g id="edge17_Node000001_Node000018" class="edge">
<title>Node1&#45;&gt;Node18</title>
<g id="a_edge17_Node000001_Node000018"><a xlink:title=" ">
<path fill="none" stroke="#63b8ff" d="M171.14,-212.14C182.44,-176.94 211.3,-102.56 263,-64.5 271.17,-58.49 281.02,-54.44 290.94,-51.72"/>
<polygon fill="#63b8ff" stroke="#63b8ff" points="167.79,-211.14 168.19,-221.73 174.48,-213.2 167.79,-211.14"/>
</a>
</g>
</g>
<!-- Node19 -->
<g id="Node000019" class="node">
<title>Node19</title>
<g id="a_Node000019"><a xlink:href="class_parser_header_sequences.html" target="_top" xlink:title="Identify parsed header sequences.">
<polygon fill="white" stroke="#666666" points="409,-19 275,-19 275,0 409,0 409,-19"/>
<text text-anchor="middle" x="342" y="-7" font-family="Helvetica,sans-Serif" font-size="10.00">ParserHeaderSequences</text>
</a>
</g>
</g>
<!-- Node1&#45;&gt;Node19 -->
<g id="edge18_Node000001_Node000019" class="edge">
<title>Node1&#45;&gt;Node19</title>
<g id="a_edge18_Node000001_Node000019"><a xlink:title=" ">
<path fill="none" stroke="#63b8ff" d="M168.98,-211.97C177.34,-171.02 202.54,-75.98 263,-27.5 267.23,-24.11 271.98,-21.33 276.99,-19.07"/>
<polygon fill="#63b8ff" stroke="#63b8ff" points="165.5,-211.52 167.05,-222 172.38,-212.84 165.5,-211.52"/>
</a>
</g>
</g>
<!-- Node2 -->
<g id="Node000002" class="node">
<title>Node2</title>
<g id="a_Node000002"><a xlink:href="class_p4_1_1_visitor.html" target="_top" xlink:title=" ">
<polygon fill="white" stroke="#bfbfbf" points="66,-241 0,-241 0,-222 66,-222 66,-241"/>
<text text-anchor="middle" x="33" y="-229" font-family="Helvetica,sans-Serif" font-size="10.00">P4::Visitor</text>
</a>
</g>
</g>
<!-- Node2&#45;&gt;Node1 -->
<g id="edge1_Node000001_Node000002" class="edge">
<title>Node2&#45;&gt;Node1</title>
<g id="a_edge1_Node000001_Node000002"><a xlink:title=" ">
<path fill="none" stroke="#63b8ff" d="M76.08,-231.5C84.3,-231.5 93.08,-231.5 101.78,-231.5"/>
<polygon fill="#63b8ff" stroke="#63b8ff" points="76.01,-228 66.01,-231.5 76.01,-235 76.01,-228"/>
</a>
</g>
</g>
<!-- Node6 -->
<g id="Node000006" class="node">
<title>Node6</title>
<g id="a_Node000006"><a xlink:href="class_exclude_m_a_u_not_mutex_headers.html" target="_top" xlink:title="Walk through MAU in control flow order and find header level mutually exclusivity in the parser that ...">
<polygon fill="white" stroke="#666666" points="624,-416 457,-416 457,-397 624,-397 624,-416"/>
<text text-anchor="middle" x="540.5" y="-404" font-family="Helvetica,sans-Serif" font-size="10.00">ExcludeMAUNotMutexHeaders</text>
</a>
</g>
</g>
<!-- Node5&#45;&gt;Node6 -->
<g id="edge5_Node000005_Node000006" class="edge">
<title>Node5&#45;&gt;Node6</title>
<g id="a_edge5_Node000005_Node000006"><a xlink:title=" ">
<path fill="none" stroke="#63b8ff" d="M422.54,-390.43C438.32,-392.6 454.77,-394.86 470.18,-396.98"/>
<polygon fill="#63b8ff" stroke="#63b8ff" points="422.66,-386.91 412.28,-389.02 421.71,-393.85 422.66,-386.91"/>
</a>
</g>
</g>
<!-- Node8 -->
<g id="Node000008" class="node">
<title>Node8</title>
<g id="a_Node000008"><a xlink:href="class_add_parser_headers_to_header_mutex_matrix.html" target="_top" xlink:title="Collect every header encountered in the parser and insert them into HeaderInfo. Addtionally,...">
<polygon fill="white" stroke="#666666" points="616.5,-378.5 464.5,-378.5 464.5,-348.5 616.5,-348.5 616.5,-378.5"/>
<text text-anchor="start" x="472.5" y="-366.5" font-family="Helvetica,sans-Serif" font-size="10.00">AddParserHeadersToHeader</text>
<text text-anchor="middle" x="540.5" y="-355.5" font-family="Helvetica,sans-Serif" font-size="10.00">MutexMatrix</text>
</a>
</g>
</g>
<!-- Node7&#45;&gt;Node8 -->
<g id="edge7_Node000007_Node000008" class="edge">
<title>Node7&#45;&gt;Node8</title>
<g id="a_edge7_Node000007_Node000008"><a xlink:title=" ">
<path fill="none" stroke="#63b8ff" d="M388.11,-347.32C410.7,-349.74 438.66,-352.72 464.38,-355.47"/>
<polygon fill="#63b8ff" stroke="#63b8ff" points="388.45,-343.84 378.13,-346.25 387.7,-350.8 388.45,-343.84"/>
</a>
</g>
</g>
<!-- Node9 -->
<g id="Node000009" class="node">
<title>Node9</title>
<g id="a_Node000009"><a xlink:href="class_build_metadata_overlay.html" target="_top" xlink:title=" ">
<polygon fill="white" stroke="#bfbfbf" points="603.5,-330 477.5,-330 477.5,-311 603.5,-311 603.5,-330"/>
<text text-anchor="middle" x="540.5" y="-318" font-family="Helvetica,sans-Serif" font-size="10.00">BuildMetadataOverlay</text>
</a>
</g>
</g>
<!-- Node7&#45;&gt;Node9 -->
<g id="edge8_Node000007_Node000009" class="edge">
<title>Node7&#45;&gt;Node9</title>
<g id="a_edge8_Node000007_Node000009"><a xlink:title=" ">
<path fill="none" stroke="#63b8ff" d="M388.24,-337.44C414.65,-334.48 448.37,-330.7 477.27,-327.47"/>
<polygon fill="#63b8ff" stroke="#63b8ff" points="387.68,-333.98 378.13,-338.57 388.46,-340.93 387.68,-333.98"/>
</a>
</g>
</g>
<!-- Node10 -->
<g id="Node000010" class="node">
<title>Node10</title>
<g id="a_Node000010"><a xlink:href="class_build_parser_overlay.html" target="_top" xlink:title=" ">
<polygon fill="white" stroke="#bfbfbf" points="595.5,-293 485.5,-293 485.5,-274 595.5,-274 595.5,-293"/>
<text text-anchor="middle" x="540.5" y="-281" font-family="Helvetica,sans-Serif" font-size="10.00">BuildParserOverlay</text>
</a>
</g>
</g>
<!-- Node7&#45;&gt;Node10 -->
<g id="edge9_Node000007_Node000010" class="edge">
<title>Node7&#45;&gt;Node10</title>
<g id="a_edge9_Node000007_Node000010"><a xlink:title=" ">
<path fill="none" stroke="#63b8ff" d="M388.15,-334.01C399.11,-331.27 410.65,-327.8 421,-323.5 438.32,-316.31 439.6,-308.48 457,-301.5 465.98,-297.9 475.81,-294.95 485.46,-292.57"/>
<polygon fill="#63b8ff" stroke="#63b8ff" points="387.23,-330.63 378.29,-336.33 388.83,-337.45 387.23,-330.63"/>
</a>
</g>
</g>
</g>
</svg>

<g id="navigator" transform="translate(0 0)" fill="#404254">
  <rect fill="#f2f5e9" fill-opacity="0.5" stroke="#606060" stroke-width=".5" x="0" y="0" width="60" height="60"/>
  <use id="zoomplus" xlink:href="#zoomPlus" x="17" y="9" onmousedown="handleZoom(evt,'in')"/>
  <use id="zoomminus" xlink:href="#zoomMin" x="42" y="9" onmousedown="handleZoom(evt,'out')"/>
  <use id="reset" xlink:href="#resetDef" x="30" y="36" onmousedown="handleReset()"/>
   <use id="arrowup" xlink:href="#arrowUp" x="0" y="0" onmousedown="handlePan(0,-1)"/>
  <use id="arrowright" xlink:href="#arrowRight" x="0" y="0" onmousedown="handlePan(1,0)"/>
  <use id="arrowdown" xlink:href="#arrowDown" x="0" y="0" onmousedown="handlePan(0,1)"/>
  <use id="arrowleft" xlink:href="#arrowLeft" x="0" y="0" onmousedown="handlePan(-1,0)"/>
</g>
<svg viewBox="0 0 15 15" width="100%" height="30px" preserveAspectRatio="xMaxYMin meet">
 <g id="arrow_out" transform="scale(0.3 0.3)">
  <a xlink:href="class_p4_1_1_control_flow_visitor__inherit__graph_org.svg" target="_base">
   <rect id="button" ry="5" rx="5" y="6" x="6" height="38" width="38"
        fill="#f2f5e9" fill-opacity="0.5" stroke="#606060" stroke-width="1.0"/>
   <path id="arrow"
     d="M 11.500037,31.436501 C 11.940474,20.09759 22.043105,11.32322 32.158766,21.979434 L 37.068811,17.246167 C 37.068811,17.246167 37.088388,32 37.088388,32 L 22.160133,31.978069 C 22.160133,31.978069 26.997745,27.140456 26.997745,27.140456 C 18.528582,18.264221 13.291696,25.230495 11.500037,31.436501 z"
     style="fill:#404040;"/>
  </a>
 </g>
</svg>

<style type='text/css'>
<![CDATA[
[data-mouse-over-selected='false'] { opacity: 0.7; }
[data-mouse-over-selected='true']  { opacity: 1.0; }
]]>
</style>
<script type="application/ecmascript"><![CDATA[
document.addEventListener('DOMContentLoaded', (event) => {
  highlightEdges();
  highlightAdjacentNodes();
});
]]></script>
</svg>
