<?xml version="1.0" encoding="UTF-8" standalone="no"?>
<!DOCTYPE svg PUBLIC "-//W3C//DTD SVG 1.1//EN"
 "http://www.w3.org/Graphics/SVG/1.1/DTD/svg11.dtd">
<!-- Generated by graphviz version 2.43.0 (0)
 -->
<!-- Title: Midend Pages: 1 -->
<svg width="409pt" height="507pt"
 viewBox="0.00 0.00 409.00 506.53" xmlns="http://www.w3.org/2000/svg" xmlns:xlink="http://www.w3.org/1999/xlink">
<g id="graph0" class="graph" transform="scale(1 1) rotate(0) translate(4 502.53)">
<title>Midend</title>
<!-- Node3 -->
<g id="Node000003" class="node">
<title>Node3</title>
<g id="a_Node000003"><a xlink:href="group___annotate_with_in_hash.html" target="_top" xlink:title="Set of passes that annotate specific assignment statements with the @in_hash annotation.">
<polygon fill="white" stroke="#666666" points="387.5,-498.53 244.5,-498.53 244.5,-479.53 387.5,-479.53 387.5,-498.53"/>
<text text-anchor="middle" x="316" y="-486.53" font-family="Helvetica,sans-Serif" font-size="10.00">BFN::AnnotateWithInHash</text>
</a>
</g>
</g>
<!-- Node4 -->
<g id="Node000004" class="node">
<title>Node4</title>
<g id="a_Node000004"><a xlink:href="group___arch_translation.html" target="_top" xlink:title="Set of passes that normalize variations in the architectures.">
<polygon fill="white" stroke="#666666" points="375,-461.53 257,-461.53 257,-442.53 375,-442.53 375,-461.53"/>
<text text-anchor="middle" x="316" y="-449.53" font-family="Helvetica,sans-Serif" font-size="10.00">BFN::ArchTranslation</text>
</a>
</g>
</g>
<!-- Node5 -->
<g id="Node000005" class="node">
<title>Node5</title>
<g id="a_Node000005"><a xlink:href="group___check_design_pattern.html" target="_top" xlink:title="Set of passes that check for design patterns.">
<polygon fill="white" stroke="#666666" points="386.5,-424.53 245.5,-424.53 245.5,-405.53 386.5,-405.53 386.5,-424.53"/>
<text text-anchor="middle" x="316" y="-412.53" font-family="Helvetica,sans-Serif" font-size="10.00">BFN::CheckDesignPattern</text>
</a>
</g>
</g>
<!-- Node11 -->
<g id="Node000011" class="node">
<title>Node11</title>
<g id="a_Node000011"><a xlink:href="group___desugar_varbit_extract.html" target="_top" xlink:title="Set of passes that rewrite usage of varbit.">
<polygon fill="white" stroke="#666666" points="376,-387.53 256,-387.53 256,-368.53 376,-368.53 376,-387.53"/>
<text text-anchor="middle" x="316" y="-375.53" font-family="Helvetica,sans-Serif" font-size="10.00">DesugarVarbitExtract</text>
</a>
</g>
</g>
<!-- Node6 -->
<g id="Node000006" class="node">
<title>Node6</title>
<g id="a_Node000006"><a xlink:href="group___elim_casts.html" target="_top" xlink:title="Set of passes that simplify the complex expressions with multiple casts into simpler expressions.">
<polygon fill="white" stroke="#666666" points="362,-350.53 270,-350.53 270,-331.53 362,-331.53 362,-350.53"/>
<text text-anchor="middle" x="316" y="-338.53" font-family="Helvetica,sans-Serif" font-size="10.00">BFN::ElimCasts</text>
</a>
</g>
</g>
<!-- Node7 -->
<g id="Node000007" class="node">
<title>Node7</title>
<g id="a_Node000007"><a xlink:href="group___remove_action_parameters.html" target="_top" xlink:title="Set of passes that specialize the p4c/frontends/RemoveActionParameters class.">
<polygon fill="white" stroke="#666666" points="401,-313.53 231,-313.53 231,-294.53 401,-294.53 401,-313.53"/>
<text text-anchor="middle" x="316" y="-301.53" font-family="Helvetica,sans-Serif" font-size="10.00">BFN::RemoveActionParameters</text>
</a>
</g>
</g>
<!-- Node8 -->
<g id="Node000008" class="node">
<title>Node8</title>
<g id="a_Node000008"><a xlink:href="group___remove_select_booleans.html" target="_top" xlink:title="Set of passes that convert boolean values in select statements to bit&lt;1&gt; values. The node is also tra...">
<polygon fill="white" stroke="#666666" points="395,-276.53 237,-276.53 237,-257.53 395,-257.53 395,-276.53"/>
<text text-anchor="middle" x="316" y="-264.53" font-family="Helvetica,sans-Serif" font-size="10.00">BFN::RemoveSelectBooleans</text>
</a>
</g>
</g>
<!-- Node9 -->
<g id="Node000009" class="node">
<title>Node9</title>
<g id="a_Node000009"><a xlink:href="group___rewrite_flexible_struct.html" target="_top" xlink:title="Set of passes that moves flexible annotation from structure to its fields.">
<polygon fill="white" stroke="#666666" points="390,-239.53 242,-239.53 242,-220.53 390,-220.53 390,-239.53"/>
<text text-anchor="middle" x="316" y="-227.53" font-family="Helvetica,sans-Serif" font-size="10.00">BFN::RewriteFlexibleStruct</text>
</a>
</g>
</g>
<!-- Node10 -->
<g id="Node000010" class="node">
<title>Node10</title>
<g id="a_Node000010"><a xlink:href="group___simplify_emit_args.html" target="_top" xlink:title="Set of passes that simplify headers and emits.">
<polygon fill="white" stroke="#666666" points="379.5,-202.53 252.5,-202.53 252.5,-183.53 379.5,-183.53 379.5,-202.53"/>
<text text-anchor="middle" x="316" y="-190.53" font-family="Helvetica,sans-Serif" font-size="10.00">BFN::SimplifyEmitArgs</text>
</a>
</g>
</g>
<!-- Node12 -->
<g id="Node000012" class="node">
<title>Node12</title>
<g id="a_Node000012"><a xlink:href="group___simplify_if_statement.html" target="_top" xlink:title="Set of passes that simplify if statements.">
<polygon fill="white" stroke="#666666" points="382,-165.53 250,-165.53 250,-146.53 382,-146.53 382,-165.53"/>
<text text-anchor="middle" x="316" y="-153.53" font-family="Helvetica,sans-Serif" font-size="10.00">P4::SimplifyIfStatement</text>
</a>
</g>
</g>
<!-- Node13 -->
<g id="Node000013" class="node">
<title>Node13</title>
<g id="a_Node000013"><a xlink:href="group___simplify_nested_if.html" target="_top" xlink:title="Set of passes that simplify nested if statements in the deparser control block.">
<polygon fill="white" stroke="#666666" points="374,-128.53 258,-128.53 258,-109.53 374,-109.53 374,-128.53"/>
<text text-anchor="middle" x="316" y="-116.53" font-family="Helvetica,sans-Serif" font-size="10.00">P4::SimplifyNestedIf</text>
</a>
</g>
</g>
<!-- Node2 -->
<g id="Node000002" class="node">
<title>Node2</title>
<g id="a_Node000002"><a xlink:href="group__alpm.html" target="_top" xlink:title="Set of passes that implement ALPM.">
<polygon fill="white" stroke="#666666" points="389,-91.53 243,-91.53 243,-72.53 389,-72.53 389,-91.53"/>
<text text-anchor="middle" x="316" y="-79.53" font-family="Helvetica,sans-Serif" font-size="10.00">BFN::AlpmImplementation</text>
</a>
</g>
</g>
<!-- Node1 -->
<g id="Node000001" class="node">
<title>Node1</title>
<g id="a_Node000001"><a xlink:title="Overview of midend passes.">
<polygon fill="#999999" stroke="#666666" points="53,-276.53 0,-276.53 0,-257.53 53,-257.53 53,-276.53"/>
<text text-anchor="middle" x="26.5" y="-264.53" font-family="Helvetica,sans-Serif" font-size="10.00">Midend</text>
</a>
</g>
</g>
<!-- Node1&#45;&gt;Node3 -->
<g id="edge2" class="edge">
<title>Node1&#45;&gt;Node3</title>
<path fill="none" stroke="black" d="M29.66,-287.07C34.6,-328.91 48.07,-423.47 71,-445.03 116.94,-488.24 190.2,-496.4 244.48,-495.48"/>
<polygon fill="black" stroke="black" points="33.13,-286.53 28.52,-276.99 26.17,-287.32 33.13,-286.53"/>
</g>
<!-- Node1&#45;&gt;Node4 -->
<g id="edge3" class="edge">
<title>Node1&#45;&gt;Node4</title>
<path fill="none" stroke="black" d="M27.59,-286.87C28.86,-317.51 36.06,-376.02 71,-407.03 121.74,-452.07 202.4,-458.72 256.96,-457.18"/>
<polygon fill="black" stroke="black" points="31.08,-286.53 27.34,-276.61 24.08,-286.69 31.08,-286.53"/>
</g>
<!-- Node1&#45;&gt;Node5 -->
<g id="edge4" class="edge">
<title>Node1&#45;&gt;Node5</title>
<path fill="none" stroke="black" d="M30.15,-286.71C34.42,-310.3 45.13,-349.25 71,-370.03 119.94,-409.35 192.25,-418.49 245.45,-419.06"/>
<polygon fill="black" stroke="black" points="33.6,-286.12 28.57,-276.79 26.69,-287.22 33.6,-286.12"/>
</g>
<!-- Node1&#45;&gt;Node11 -->
<g id="edge10" class="edge">
<title>Node1&#45;&gt;Node11</title>
<path fill="none" stroke="black" d="M34.57,-286.06C41.43,-301.76 53.4,-323.3 71,-335.03 126.11,-371.78 203.22,-379.88 255.91,-380.49"/>
<polygon fill="black" stroke="black" points="37.8,-284.7 30.8,-276.75 31.31,-287.33 37.8,-284.7"/>
</g>
<!-- Node1&#45;&gt;Node6 -->
<g id="edge5" class="edge">
<title>Node1&#45;&gt;Node6</title>
<path fill="none" stroke="black" d="M43.2,-284.12C50.87,-291.42 60.66,-299.32 71,-304.03 135.72,-333.53 219.1,-340.33 269.73,-341.47"/>
<polygon fill="black" stroke="black" points="45.3,-281.27 35.78,-276.62 40.33,-286.19 45.3,-281.27"/>
</g>
<!-- Node1&#45;&gt;Node7 -->
<g id="edge6" class="edge">
<title>Node1&#45;&gt;Node7</title>
<path fill="none" stroke="black" d="M62.84,-279.1C65.58,-279.83 68.32,-280.48 71,-281.03 123.51,-291.82 183.44,-297.56 230.77,-300.61"/>
<polygon fill="black" stroke="black" points="63.59,-275.68 53.02,-276.26 61.65,-282.4 63.59,-275.68"/>
</g>
<!-- Node1&#45;&gt;Node8 -->
<g id="edge7" class="edge">
<title>Node1&#45;&gt;Node8</title>
<path fill="none" stroke="black" d="M63.02,-267.03C106.15,-267.03 180.12,-267.03 236.8,-267.03"/>
<polygon fill="black" stroke="black" points="63.01,-263.53 53.01,-267.03 63.01,-270.53 63.01,-263.53"/>
</g>
<!-- Node1&#45;&gt;Node9 -->
<g id="edge8" class="edge">
<title>Node1&#45;&gt;Node9</title>
<path fill="none" stroke="black" d="M63.03,-262.46C107.41,-256.75 184.46,-246.83 241.71,-239.46"/>
<polygon fill="black" stroke="black" points="62.49,-259 53.01,-263.75 63.38,-265.94 62.49,-259"/>
</g>
<!-- Node1&#45;&gt;Node10 -->
<g id="edge9" class="edge">
<title>Node1&#45;&gt;Node10</title>
<path fill="none" stroke="black" d="M48.78,-251.67C55.6,-247.35 63.37,-243.02 71,-240.03 130.16,-216.89 201.99,-204.82 252.34,-198.74"/>
<polygon fill="black" stroke="black" points="46.53,-248.97 40.16,-257.44 50.42,-254.79 46.53,-248.97"/>
</g>
<!-- Node1&#45;&gt;Node12 -->
<g id="edge11" class="edge">
<title>Node1&#45;&gt;Node12</title>
<path fill="none" stroke="black" d="M35.17,-247.66C42.2,-232.52 54.08,-212.24 71,-201.03 124.14,-165.82 197.39,-156.28 249.74,-154.5"/>
<polygon fill="black" stroke="black" points="31.83,-246.57 31.08,-257.13 38.26,-249.34 31.83,-246.57"/>
</g>
<!-- Node1&#45;&gt;Node13 -->
<g id="edge12" class="edge">
<title>Node1&#45;&gt;Node13</title>
<path fill="none" stroke="black" d="M29.05,-247.38C32.21,-221.41 41.84,-176.25 71,-153.03 123.7,-111.08 203.91,-107.88 257.84,-111.63"/>
<polygon fill="black" stroke="black" points="25.54,-247.21 28.02,-257.51 32.51,-247.92 25.54,-247.21"/>
</g>
<!-- Node1&#45;&gt;Node2 -->
<g id="edge1" class="edge">
<title>Node1&#45;&gt;Node2</title>
<path fill="none" stroke="black" d="M30.01,-247.48C35.39,-208.73 49.38,-124.34 71,-106.03 96.18,-84.72 180.32,-80.42 242.79,-80.34"/>
<polygon fill="black" stroke="black" points="26.52,-247.14 28.66,-257.51 33.46,-248.07 26.52,-247.14"/>
</g>
<!-- Node14 -->
<g id="Node000014" class="node">
<title>Node14</title>
<g id="a_Node000014"><a xlink:href="group__parde.html" target="_top" xlink:title="Content related to parser and deparser.">
<polygon fill="white" stroke="#666666" points="367.5,-38.53 264.5,-38.53 264.5,-19.53 367.5,-19.53 367.5,-38.53"/>
<text text-anchor="middle" x="316" y="-26.53" font-family="Helvetica,sans-Serif" font-size="10.00">Parser &amp; deparser</text>
</a>
</g>
</g>
<!-- Node1&#45;&gt;Node14 -->
<g id="edge13" class="edge">
<title>Node1&#45;&gt;Node14</title>
<path fill="none" stroke="orange" stroke-dasharray="5,2" d="M27.73,-257.27C28.93,-216.64 35.78,-61.7 71,-32.03 132.89,20.1 238.25,-3.89 287.77,-19.43"/>
<text text-anchor="middle" x="142" y="-68.03" font-family="Helvetica,sans-Serif" font-size="10.00">DoCopyHeaders</text>
<text text-anchor="middle" x="142" y="-57.03" font-family="Helvetica,sans-Serif" font-size="10.00">BFN::InitializeMirrorIOSelect</text>
<text text-anchor="middle" x="142" y="-46.03" font-family="Helvetica,sans-Serif" font-size="10.00">BFN::ParserEnforceDepthReq</text>
<text text-anchor="middle" x="142" y="-35.03" font-family="Helvetica,sans-Serif" font-size="10.00">ComputeDefUse</text>
</g>
</g>
</svg>
