<?xml version="1.0" encoding="UTF-8" standalone="no"?>
<!DOCTYPE svg PUBLIC "-//W3C//DTD SVG 1.1//EN"
 "http://www.w3.org/Graphics/SVG/1.1/DTD/svg11.dtd">
<!-- Generated by graphviz version 2.43.0 (0)
 -->
<!-- Title: BFN::ArchTranslation Pages: 1 -->
<svg width="420pt" height="138pt"
 viewBox="0.00 0.00 420.00 138.00" xmlns="http://www.w3.org/2000/svg" xmlns:xlink="http://www.w3.org/1999/xlink">

<svg id="main" version="1.1" xmlns="http://www.w3.org/2000/svg" xmlns:xlink="http://www.w3.org/1999/xlink" xml:space="preserve">

<style type="text/css"><![CDATA[
.node, .edge {opacity: 0.7;}
.node.selected, .edge.selected {opacity: 1;}
.edge:hover path { stroke: red; }
.edge:hover polygon { stroke: red; fill: red; }
]]></style>
<script type="application/ecmascript" xlink:href="svg.min.js"/>
<svg id="graph" class="graph">
<g id="graph0" class="graph" transform="scale(1 1) rotate(0) translate(4 134)">
<title>BFN::ArchTranslation</title>
<!-- Node1 -->
<g id="Node000001" class="node">
<title>Node1</title>
<g id="a_Node000001"><a xlink:title="Set of passes that normalize variations in the architectures.">
<polygon fill="#999999" stroke="#666666" points="207,-74 89,-74 89,-55 207,-55 207,-74"/>
<text text-anchor="middle" x="148" y="-62" font-family="Helvetica,sans-Serif" font-size="10.00">BFN::ArchTranslation</text>
</a>
</g>
</g>
<!-- Node3 -->
<g id="Node000003" class="node">
<title>Node3</title>
<g id="a_Node000003"><a xlink:href="group___portable_switch_translation.html" target="_top" xlink:title="Set of passes that translate PSA architecture.">
<polygon fill="white" stroke="#666666" points="412,-130 243,-130 243,-111 412,-111 412,-130"/>
<text text-anchor="middle" x="327.5" y="-118" font-family="Helvetica,sans-Serif" font-size="10.00">BFN::PortableSwitchTranslation</text>
</a>
</g>
</g>
<!-- Node1&#45;&gt;Node3 -->
<g id="edge2" class="edge">
<title>Node1&#45;&gt;Node3</title>
<path fill="none" stroke="black" d="M179.13,-78.22C197.34,-86.13 221.18,-95.79 243,-102.5 253.35,-105.68 264.58,-108.51 275.36,-110.93"/>
<polygon fill="black" stroke="black" points="180.47,-74.99 169.9,-74.16 177.65,-81.39 180.47,-74.99"/>
</g>
<!-- Node4 -->
<g id="Node000004" class="node">
<title>Node4</title>
<g id="a_Node000004"><a xlink:href="group___simple_switch_translation.html" target="_top" xlink:title="Set of passes that translate v1model architecture.">
<polygon fill="white" stroke="#666666" points="408.5,-93 246.5,-93 246.5,-74 408.5,-74 408.5,-93"/>
<text text-anchor="middle" x="327.5" y="-81" font-family="Helvetica,sans-Serif" font-size="10.00">BFN::SimpleSwitchTranslation</text>
</a>
</g>
</g>
<!-- Node1&#45;&gt;Node4 -->
<g id="edge3" class="edge">
<title>Node1&#45;&gt;Node4</title>
<path fill="none" stroke="black" d="M217.29,-71.81C226.79,-72.83 236.63,-73.88 246.33,-74.92"/>
<polygon fill="black" stroke="black" points="217.44,-68.31 207.12,-70.72 216.69,-75.27 217.44,-68.31"/>
</g>
<!-- Node5 -->
<g id="Node000005" class="node">
<title>Node5</title>
<g id="a_Node000005"><a xlink:href="group___t2na_arch_translation.html" target="_top" xlink:title="Set of passes that translate T2NA architecture.">
<polygon fill="white" stroke="#666666" points="398.5,-56 256.5,-56 256.5,-37 398.5,-37 398.5,-56"/>
<text text-anchor="middle" x="327.5" y="-44" font-family="Helvetica,sans-Serif" font-size="10.00">BFN::T2naArchTranslation</text>
</a>
</g>
</g>
<!-- Node1&#45;&gt;Node5 -->
<g id="edge4" class="edge">
<title>Node1&#45;&gt;Node5</title>
<path fill="none" stroke="black" d="M217.28,-57.58C230.13,-56.27 243.59,-54.91 256.49,-53.6"/>
<polygon fill="black" stroke="black" points="216.72,-54.11 207.12,-58.61 217.42,-61.08 216.72,-54.11"/>
</g>
<!-- Node6 -->
<g id="Node000006" class="node">
<title>Node6</title>
<g id="a_Node000006"><a xlink:href="group___tna_arch_translation.html" target="_top" xlink:title="Set of passes that translate TNA architecture.">
<polygon fill="white" stroke="#666666" points="395.5,-19 259.5,-19 259.5,0 395.5,0 395.5,-19"/>
<text text-anchor="middle" x="327.5" y="-7" font-family="Helvetica,sans-Serif" font-size="10.00">BFN::TnaArchTranslation</text>
</a>
</g>
</g>
<!-- Node1&#45;&gt;Node6 -->
<g id="edge5" class="edge">
<title>Node1&#45;&gt;Node6</title>
<path fill="none" stroke="black" d="M179.78,-50.92C197.92,-43.28 221.47,-34.01 243,-27.5 253.5,-24.32 264.91,-21.48 275.82,-19.04"/>
<polygon fill="black" stroke="black" points="178.13,-47.82 170.3,-54.96 180.87,-54.26 178.13,-47.82"/>
</g>
<!-- Node2 -->
<g id="Node000002" class="node">
<title>Node2</title>
<g id="a_Node000002"><a xlink:href="group__midend.html" target="_top" xlink:title="Overview of midend passes.">
<polygon fill="white" stroke="#666666" points="53,-74 0,-74 0,-55 53,-55 53,-74"/>
<text text-anchor="middle" x="26.5" y="-62" font-family="Helvetica,sans-Serif" font-size="10.00">Midend</text>
</a>
</g>
</g>
<!-- Node2&#45;&gt;Node1 -->
<g id="edge1" class="edge">
<title>Node2&#45;&gt;Node1</title>
<path fill="none" stroke="black" d="M63.32,-64.5C71.43,-64.5 80.23,-64.5 88.99,-64.5"/>
<polygon fill="black" stroke="black" points="63.14,-61 53.14,-64.5 63.14,-68 63.14,-61"/>
</g>
</g>
</svg>
</svg>

<style type='text/css'>
<![CDATA[
[data-mouse-over-selected='false'] { opacity: 0.7; }
[data-mouse-over-selected='true']  { opacity: 1.0; }
]]>
</style>
<script type="application/ecmascript"><![CDATA[
document.addEventListener('DOMContentLoaded', (event) => {
  highlightEdges();
  highlightAdjacentNodes();
});
]]></script>
</svg>
