<?xml version="1.0" encoding="UTF-8" standalone="no"?>
<!DOCTYPE svg PUBLIC "-//W3C//DTD SVG 1.1//EN"
 "http://www.w3.org/Graphics/SVG/1.1/DTD/svg11.dtd">
<!-- Generated by graphviz version 2.43.0 (0)
 -->
<!-- Title: P4::ControlPlaneAPI::P4RuntimeArchHandlerIface Pages: 1 -->
<!--zoomable 459 -->

<svg id="main" version="1.1" xmlns="http://www.w3.org/2000/svg" xmlns:xlink="http://www.w3.org/1999/xlink" xml:space="preserve" onload="init(evt)">

<style type="text/css"><![CDATA[
.node, .edge {opacity: 0.7;}
.node.selected, .edge.selected {opacity: 1;}
.edge:hover path { stroke: red; }
.edge:hover polygon { stroke: red; fill: red; }
]]></style>

<defs>
  <circle id="rim" cx="0" cy="0" r="7"/>
  <circle id="rim2" cx="0" cy="0" r="3.5"/>
  <g id="zoomPlus">
    <use xlink:href="#rim" fill="#404040"><set attributeName="fill" to="#808080" begin="zoomplus.mouseover" end="zoomplus.mouseout"/></use>
    <path d="M-4,0h8M0,-4v8" fill="none" stroke="white" stroke-width="1.5" pointer-events="none"/>
  </g>
  <g id="zoomMin">
    <use xlink:href="#rim" fill="#404040"><set attributeName="fill" to="#808080" begin="zoomminus.mouseover" end="zoomminus.mouseout"/></use>
    <path d="M-4,0h8" fill="none" stroke="white" stroke-width="1.5" pointer-events="none"/>
  </g>
  <g id="arrowUp" transform="translate(30 24)">
    <use xlink:href="#rim"/>
    <path pointer-events="none" fill="none" stroke="white" stroke-width="1.5" d="M0,-3.0v7 M-2.5,-0.5L0,-3.0L2.5,-0.5"/>
  </g>
  <g id="arrowRight" transform="rotate(90) translate(36 -43)">
    <use xlink:href="#rim"/>
    <path pointer-events="none" fill="none" stroke="white" stroke-width="1.5" d="M0,-3.0v7 M-2.5,-0.5L0,-3.0L2.5,-0.5"/>
  </g>
  <g id="arrowDown" transform="rotate(180) translate(-30 -48)">
    <use xlink:href="#rim"/>
    <path pointer-events="none" fill="none" stroke="white" stroke-width="1.5" d="M0,-3.0v7 M-2.5,-0.5L0,-3.0L2.5,-0.5"/>
  </g>
  <g id="arrowLeft" transform="rotate(270) translate(-36 17)">
    <use xlink:href="#rim"/>
    <path pointer-events="none" fill="none" stroke="white" stroke-width="1.5" d="M0,-3.0v7 M-2.5,-0.5L0,-3.0L2.5,-0.5"/>
  </g>
  <g id="resetDef">
    <use xlink:href="#rim2" fill="#404040"><set attributeName="fill" to="#808080" begin="reset.mouseover" end="reset.mouseout"/></use>
  </g>
</defs>
<script type="application/ecmascript">
var viewWidth = 879;
var viewHeight = 459;
var sectionId = 'dynsection-0';
</script>
<script type="application/ecmascript" xlink:href="svg.min.js"/>
<svg id="graph" class="graph">
<g id="viewport">
<title>P4::ControlPlaneAPI::P4RuntimeArchHandlerIface</title>
<!-- Node1 -->
<g id="Node000001" class="node">
<title>Node1</title>
<g id="a_Node000001"><a xlink:title=" ">
<polygon fill="#999999" stroke="#666666" points="160,-386.5 0,-386.5 0,-356.5 160,-356.5 160,-386.5"/>
<text text-anchor="start" x="8" y="-374.5" font-family="Helvetica,sans-Serif" font-size="10.00">P4::ControlPlaneAPI</text>
<text text-anchor="middle" x="80" y="-363.5" font-family="Helvetica,sans-Serif" font-size="10.00">::P4RuntimeArchHandlerIface</text>
</a>
</g>
</g>
<!-- Node2 -->
<g id="Node000002" class="node">
<title>Node2</title>
<g id="a_Node000002"><a xlink:href="class_p4_1_1_control_plane_a_p_i_1_1_standard_1_1_p4_runtime_arch_handler_common.html" target="_top" xlink:title=" ">
<polygon fill="white" stroke="#666666" points="381,-451 196,-451 196,-410 381,-410 381,-451"/>
<text text-anchor="start" x="204" y="-439" font-family="Helvetica,sans-Serif" font-size="10.00">P4::ControlPlaneAPI</text>
<text text-anchor="start" x="204" y="-428" font-family="Helvetica,sans-Serif" font-size="10.00">::Standard::P4RuntimeArchHandler</text>
<text text-anchor="middle" x="288.5" y="-417" font-family="Helvetica,sans-Serif" font-size="10.00">Common&lt; Arch::PSA &gt;</text>
</a>
</g>
</g>
<!-- Node1&#45;&gt;Node2 -->
<g id="edge1_Node000001_Node000002" class="edge">
<title>Node1&#45;&gt;Node2</title>
<g id="a_edge1_Node000001_Node000002"><a xlink:title=" ">
<path fill="none" stroke="#63b8ff" d="M143.5,-389.36C166.19,-395.84 192.02,-403.22 215.48,-409.92"/>
<polygon fill="#63b8ff" stroke="#63b8ff" points="144.22,-385.92 133.64,-386.54 142.3,-392.65 144.22,-385.92"/>
</a>
</g>
</g>
<!-- Node4 -->
<g id="Node000004" class="node">
<title>Node4</title>
<g id="a_Node000004"><a xlink:href="class_p4_1_1_control_plane_a_p_i_1_1_standard_1_1_p4_runtime_arch_handler_common.html" target="_top" xlink:title=" ">
<polygon fill="white" stroke="#666666" points="381,-392 196,-392 196,-351 381,-351 381,-392"/>
<text text-anchor="start" x="204" y="-380" font-family="Helvetica,sans-Serif" font-size="10.00">P4::ControlPlaneAPI</text>
<text text-anchor="start" x="204" y="-369" font-family="Helvetica,sans-Serif" font-size="10.00">::Standard::P4RuntimeArchHandler</text>
<text text-anchor="middle" x="288.5" y="-358" font-family="Helvetica,sans-Serif" font-size="10.00">Common&lt; Arch::V1MODEL &gt;</text>
</a>
</g>
</g>
<!-- Node1&#45;&gt;Node4 -->
<g id="edge3_Node000001_Node000004" class="edge">
<title>Node1&#45;&gt;Node4</title>
<g id="a_edge3_Node000001_Node000004"><a xlink:title=" ">
<path fill="none" stroke="#63b8ff" d="M170.4,-371.5C178.79,-371.5 187.3,-371.5 195.7,-371.5"/>
<polygon fill="#63b8ff" stroke="#63b8ff" points="170.25,-368 160.25,-371.5 170.25,-375 170.25,-368"/>
</a>
</g>
</g>
<!-- Node6 -->
<g id="Node000006" class="node">
<title>Node6</title>
<g id="a_Node000006"><a xlink:href="class_p4_1_1_control_plane_a_p_i_1_1_standard_1_1_p4_runtime_arch_handler_common.html" target="_top" xlink:title=" ">
<polygon fill="white" stroke="#666666" points="381,-218 196,-218 196,-177 381,-177 381,-218"/>
<text text-anchor="start" x="204" y="-206" font-family="Helvetica,sans-Serif" font-size="10.00">P4::ControlPlaneAPI</text>
<text text-anchor="start" x="204" y="-195" font-family="Helvetica,sans-Serif" font-size="10.00">::Standard::P4RuntimeArchHandler</text>
<text text-anchor="middle" x="288.5" y="-184" font-family="Helvetica,sans-Serif" font-size="10.00">Common&lt; arch &gt;</text>
</a>
</g>
</g>
<!-- Node1&#45;&gt;Node6 -->
<g id="edge5_Node000001_Node000006" class="edge">
<title>Node1&#45;&gt;Node6</title>
<g id="a_edge5_Node000001_Node000006"><a xlink:title=" ">
<path fill="none" stroke="#63b8ff" d="M106.71,-349.84C146.84,-316.02 223.85,-251.13 263.14,-218.03"/>
<polygon fill="#63b8ff" stroke="#63b8ff" points="104.36,-347.24 98.96,-356.36 108.87,-352.6 104.36,-347.24"/>
</a>
</g>
</g>
<!-- Node3 -->
<g id="Node000003" class="node">
<title>Node3</title>
<g id="a_Node000003"><a xlink:href="class_p4_1_1_control_plane_a_p_i_1_1_standard_1_1_p4_runtime_arch_handler_u_b_p_f.html" target="_top" xlink:title=" ">
<polygon fill="white" stroke="#666666" points="629,-445.5 417,-445.5 417,-415.5 629,-415.5 629,-445.5"/>
<text text-anchor="start" x="425" y="-433.5" font-family="Helvetica,sans-Serif" font-size="10.00">P4::ControlPlaneAPI</text>
<text text-anchor="middle" x="523" y="-422.5" font-family="Helvetica,sans-Serif" font-size="10.00">::Standard::P4RuntimeArchHandlerUBPF</text>
</a>
</g>
</g>
<!-- Node2&#45;&gt;Node3 -->
<g id="edge2_Node000002_Node000003" class="edge">
<title>Node2&#45;&gt;Node3</title>
<g id="a_edge2_Node000002_Node000003"><a xlink:title=" ">
<path fill="none" stroke="#63b8ff" d="M391.27,-430.5C399.7,-430.5 408.22,-430.5 416.67,-430.5"/>
<polygon fill="#63b8ff" stroke="#63b8ff" points="391.06,-427 381.06,-430.5 391.06,-434 391.06,-427"/>
</a>
</g>
</g>
<!-- Node5 -->
<g id="Node000005" class="node">
<title>Node5</title>
<g id="a_Node000005"><a xlink:href="class_p4_1_1_control_plane_a_p_i_1_1_standard_1_1_p4_runtime_arch_handler_v1_model.html" target="_top" xlink:title=" ">
<polygon fill="white" stroke="#666666" points="615.5,-395 430.5,-395 430.5,-354 615.5,-354 615.5,-395"/>
<text text-anchor="start" x="438.5" y="-383" font-family="Helvetica,sans-Serif" font-size="10.00">P4::ControlPlaneAPI</text>
<text text-anchor="start" x="438.5" y="-372" font-family="Helvetica,sans-Serif" font-size="10.00">::Standard::P4RuntimeArchHandler</text>
<text text-anchor="middle" x="523" y="-361" font-family="Helvetica,sans-Serif" font-size="10.00">V1Model</text>
</a>
</g>
</g>
<!-- Node4&#45;&gt;Node5 -->
<g id="edge4_Node000004_Node000005" class="edge">
<title>Node4&#45;&gt;Node5</title>
<g id="a_edge4_Node000004_Node000005"><a xlink:title=" ">
<path fill="none" stroke="#63b8ff" d="M391.35,-372.81C404.25,-372.98 417.4,-373.15 430.15,-373.31"/>
<polygon fill="#63b8ff" stroke="#63b8ff" points="391.1,-369.31 381.06,-372.68 391.01,-376.31 391.1,-369.31"/>
</a>
</g>
</g>
<!-- Node7 -->
<g id="Node000007" class="node">
<title>Node7</title>
<g id="a_Node000007"><a xlink:href="class_p4_1_1_control_plane_a_p_i_1_1_standard_1_1_b_f_runtime_arch_handler.html" target="_top" xlink:title=" ">
<polygon fill="white" stroke="#bfbfbf" points="616,-336 430,-336 430,-295 616,-295 616,-336"/>
<text text-anchor="start" x="438" y="-324" font-family="Helvetica,sans-Serif" font-size="10.00">P4::ControlPlaneAPI</text>
<text text-anchor="start" x="438" y="-313" font-family="Helvetica,sans-Serif" font-size="10.00">::Standard::BFRuntimeArchHandler</text>
<text text-anchor="middle" x="523" y="-302" font-family="Helvetica,sans-Serif" font-size="10.00">&lt; Arch::PNA &gt;</text>
</a>
</g>
</g>
<!-- Node6&#45;&gt;Node7 -->
<g id="edge6_Node000006_Node000007" class="edge">
<title>Node6&#45;&gt;Node7</title>
<g id="a_edge6_Node000006_Node000007"><a xlink:title=" ">
<path fill="none" stroke="#63b8ff" d="M321.75,-224.68C346.45,-244.28 382.1,-270.09 417,-286.5 423.59,-289.6 430.57,-292.42 437.68,-294.98"/>
<polygon fill="#63b8ff" stroke="#63b8ff" points="323.8,-221.83 313.81,-218.29 319.41,-227.28 323.8,-221.83"/>
</a>
</g>
</g>
<!-- Node9 -->
<g id="Node000009" class="node">
<title>Node9</title>
<g id="a_Node000009"><a xlink:href="class_p4_1_1_control_plane_a_p_i_1_1_standard_1_1_b_f_runtime_arch_handler.html" target="_top" xlink:title=" ">
<polygon fill="white" stroke="#bfbfbf" points="616,-277 430,-277 430,-236 616,-236 616,-277"/>
<text text-anchor="start" x="438" y="-265" font-family="Helvetica,sans-Serif" font-size="10.00">P4::ControlPlaneAPI</text>
<text text-anchor="start" x="438" y="-254" font-family="Helvetica,sans-Serif" font-size="10.00">::Standard::BFRuntimeArchHandler</text>
<text text-anchor="middle" x="523" y="-243" font-family="Helvetica,sans-Serif" font-size="10.00">&lt; Arch::PSA &gt;</text>
</a>
</g>
</g>
<!-- Node6&#45;&gt;Node9 -->
<g id="edge8_Node000006_Node000009" class="edge">
<title>Node6&#45;&gt;Node9</title>
<g id="a_edge8_Node000006_Node000009"><a xlink:title=" ">
<path fill="none" stroke="#63b8ff" d="M380.22,-220.52C400.23,-225.6 421.3,-230.95 440.91,-235.92"/>
<polygon fill="#63b8ff" stroke="#63b8ff" points="381.04,-217.12 370.49,-218.05 379.32,-223.9 381.04,-217.12"/>
</a>
</g>
</g>
<!-- Node11 -->
<g id="Node000011" class="node">
<title>Node11</title>
<g id="a_Node000011"><a xlink:href="class_p4_1_1_control_plane_a_p_i_1_1_standard_1_1_p4_runtime_arch_handler_p_s_a_p_n_a.html" target="_top" xlink:title=" ">
<polygon fill="white" stroke="#666666" points="615.5,-218 430.5,-218 430.5,-177 615.5,-177 615.5,-218"/>
<text text-anchor="start" x="438.5" y="-206" font-family="Helvetica,sans-Serif" font-size="10.00">P4::ControlPlaneAPI</text>
<text text-anchor="start" x="438.5" y="-195" font-family="Helvetica,sans-Serif" font-size="10.00">::Standard::P4RuntimeArchHandler</text>
<text text-anchor="middle" x="523" y="-184" font-family="Helvetica,sans-Serif" font-size="10.00">PSAPNA&lt; Arch::PNA &gt;</text>
</a>
</g>
</g>
<!-- Node6&#45;&gt;Node11 -->
<g id="edge10_Node000006_Node000011" class="edge">
<title>Node6&#45;&gt;Node11</title>
<g id="a_edge10_Node000006_Node000011"><a xlink:title=" ">
<path fill="none" stroke="#63b8ff" d="M391.35,-197.5C404.25,-197.5 417.4,-197.5 430.15,-197.5"/>
<polygon fill="#63b8ff" stroke="#63b8ff" points="391.06,-194 381.06,-197.5 391.06,-201 391.06,-194"/>
</a>
</g>
</g>
<!-- Node13 -->
<g id="Node000013" class="node">
<title>Node13</title>
<g id="a_Node000013"><a xlink:href="class_p4_1_1_control_plane_a_p_i_1_1_standard_1_1_p4_runtime_arch_handler_p_s_a_p_n_a.html" target="_top" xlink:title=" ">
<polygon fill="white" stroke="#666666" points="615.5,-159 430.5,-159 430.5,-118 615.5,-118 615.5,-159"/>
<text text-anchor="start" x="438.5" y="-147" font-family="Helvetica,sans-Serif" font-size="10.00">P4::ControlPlaneAPI</text>
<text text-anchor="start" x="438.5" y="-136" font-family="Helvetica,sans-Serif" font-size="10.00">::Standard::P4RuntimeArchHandler</text>
<text text-anchor="middle" x="523" y="-125" font-family="Helvetica,sans-Serif" font-size="10.00">PSAPNA&lt; Arch::PSA &gt;</text>
</a>
</g>
</g>
<!-- Node6&#45;&gt;Node13 -->
<g id="edge12_Node000006_Node000013" class="edge">
<title>Node6&#45;&gt;Node13</title>
<g id="a_edge12_Node000006_Node000013"><a xlink:title=" ">
<path fill="none" stroke="#63b8ff" d="M380.22,-174.48C400.23,-169.4 421.3,-164.05 440.91,-159.08"/>
<polygon fill="#63b8ff" stroke="#63b8ff" points="379.32,-171.1 370.49,-176.95 381.04,-177.88 379.32,-171.1"/>
</a>
</g>
</g>
<!-- Node15 -->
<g id="Node000015" class="node">
<title>Node15</title>
<g id="a_Node000015"><a xlink:href="class_p4_1_1_control_plane_a_p_i_1_1_standard_1_1_b_f_runtime_arch_handler.html" target="_top" xlink:title=" ">
<polygon fill="white" stroke="#bfbfbf" points="616,-100 430,-100 430,-59 616,-59 616,-100"/>
<text text-anchor="start" x="438" y="-88" font-family="Helvetica,sans-Serif" font-size="10.00">P4::ControlPlaneAPI</text>
<text text-anchor="start" x="438" y="-77" font-family="Helvetica,sans-Serif" font-size="10.00">::Standard::BFRuntimeArchHandler</text>
<text text-anchor="middle" x="523" y="-66" font-family="Helvetica,sans-Serif" font-size="10.00">&lt; arch &gt;</text>
</a>
</g>
</g>
<!-- Node6&#45;&gt;Node15 -->
<g id="edge14_Node000006_Node000015" class="edge">
<title>Node6&#45;&gt;Node15</title>
<g id="a_edge14_Node000006_Node000015"><a xlink:title=" ">
<path fill="none" stroke="#63b8ff" d="M321.75,-170.32C346.45,-150.72 382.1,-124.91 417,-108.5 423.59,-105.4 430.57,-102.58 437.68,-100.02"/>
<polygon fill="#63b8ff" stroke="#63b8ff" points="319.41,-167.72 313.81,-176.71 323.8,-173.17 319.41,-167.72"/>
</a>
</g>
</g>
<!-- Node16 -->
<g id="Node000016" class="node">
<title>Node16</title>
<g id="a_Node000016"><a xlink:href="class_p4_1_1_control_plane_a_p_i_1_1_standard_1_1_p4_runtime_arch_handler_p_s_a_p_n_a.html" target="_top" xlink:title=" ">
<polygon fill="white" stroke="#666666" points="615.5,-41 430.5,-41 430.5,0 615.5,0 615.5,-41"/>
<text text-anchor="start" x="438.5" y="-29" font-family="Helvetica,sans-Serif" font-size="10.00">P4::ControlPlaneAPI</text>
<text text-anchor="start" x="438.5" y="-18" font-family="Helvetica,sans-Serif" font-size="10.00">::Standard::P4RuntimeArchHandler</text>
<text text-anchor="middle" x="523" y="-7" font-family="Helvetica,sans-Serif" font-size="10.00">PSAPNA&lt; arch &gt;</text>
</a>
</g>
</g>
<!-- Node6&#45;&gt;Node16 -->
<g id="edge15_Node000006_Node000016" class="edge">
<title>Node6&#45;&gt;Node16</title>
<g id="a_edge15_Node000006_Node000016"><a xlink:title=" ">
<path fill="none" stroke="#63b8ff" d="M306.93,-168.41C328.57,-134.78 368.61,-80.15 417,-49.5 421.95,-46.36 427.25,-43.56 432.72,-41.06"/>
<polygon fill="#63b8ff" stroke="#63b8ff" points="303.95,-166.56 301.57,-176.89 309.87,-170.3 303.95,-166.56"/>
</a>
</g>
</g>
<!-- Node8 -->
<g id="Node000008" class="node">
<title>Node8</title>
<g id="a_Node000008"><a xlink:href="class_p4_1_1_control_plane_a_p_i_1_1_standard_1_1_b_f_runtime_arch_handler_p_n_a.html" target="_top" xlink:title=" ">
<polygon fill="white" stroke="#bfbfbf" points="871,-330.5 665,-330.5 665,-300.5 871,-300.5 871,-330.5"/>
<text text-anchor="start" x="673" y="-318.5" font-family="Helvetica,sans-Serif" font-size="10.00">P4::ControlPlaneAPI</text>
<text text-anchor="middle" x="768" y="-307.5" font-family="Helvetica,sans-Serif" font-size="10.00">::Standard::BFRuntimeArchHandlerPNA</text>
</a>
</g>
</g>
<!-- Node7&#45;&gt;Node8 -->
<g id="edge7_Node000007_Node000008" class="edge">
<title>Node7&#45;&gt;Node8</title>
<g id="a_edge7_Node000007_Node000008"><a xlink:title=" ">
<path fill="none" stroke="#63b8ff" d="M626.32,-315.5C639.02,-315.5 652,-315.5 664.7,-315.5"/>
<polygon fill="#63b8ff" stroke="#63b8ff" points="626.21,-312 616.21,-315.5 626.21,-319 626.21,-312"/>
</a>
</g>
</g>
<!-- Node10 -->
<g id="Node000010" class="node">
<title>Node10</title>
<g id="a_Node000010"><a xlink:href="class_p4_1_1_control_plane_a_p_i_1_1_standard_1_1_b_f_runtime_arch_handler_p_s_a.html" target="_top" xlink:title=" ">
<polygon fill="white" stroke="#bfbfbf" points="871,-271.5 665,-271.5 665,-241.5 871,-241.5 871,-271.5"/>
<text text-anchor="start" x="673" y="-259.5" font-family="Helvetica,sans-Serif" font-size="10.00">P4::ControlPlaneAPI</text>
<text text-anchor="middle" x="768" y="-248.5" font-family="Helvetica,sans-Serif" font-size="10.00">::Standard::BFRuntimeArchHandlerPSA</text>
</a>
</g>
</g>
<!-- Node9&#45;&gt;Node10 -->
<g id="edge9_Node000009_Node000010" class="edge">
<title>Node9&#45;&gt;Node10</title>
<g id="a_edge9_Node000009_Node000010"><a xlink:title=" ">
<path fill="none" stroke="#63b8ff" d="M626.32,-256.5C639.02,-256.5 652,-256.5 664.7,-256.5"/>
<polygon fill="#63b8ff" stroke="#63b8ff" points="626.21,-253 616.21,-256.5 626.21,-260 626.21,-253"/>
</a>
</g>
</g>
<!-- Node12 -->
<g id="Node000012" class="node">
<title>Node12</title>
<g id="a_Node000012"><a xlink:href="class_p4_1_1_control_plane_a_p_i_1_1_standard_1_1_p4_runtime_arch_handler_p_n_a.html" target="_top" xlink:title=" ">
<polygon fill="white" stroke="#bfbfbf" points="871,-212.5 665,-212.5 665,-182.5 871,-182.5 871,-212.5"/>
<text text-anchor="start" x="673" y="-200.5" font-family="Helvetica,sans-Serif" font-size="10.00">P4::ControlPlaneAPI</text>
<text text-anchor="middle" x="768" y="-189.5" font-family="Helvetica,sans-Serif" font-size="10.00">::Standard::P4RuntimeArchHandlerPNA</text>
</a>
</g>
</g>
<!-- Node11&#45;&gt;Node12 -->
<g id="edge11_Node000011_Node000012" class="edge">
<title>Node11&#45;&gt;Node12</title>
<g id="a_edge11_Node000011_Node000012"><a xlink:title=" ">
<path fill="none" stroke="#63b8ff" d="M625.83,-197.5C638.77,-197.5 652.03,-197.5 664.97,-197.5"/>
<polygon fill="#63b8ff" stroke="#63b8ff" points="625.52,-194 615.52,-197.5 625.52,-201 625.52,-194"/>
</a>
</g>
</g>
<!-- Node14 -->
<g id="Node000014" class="node">
<title>Node14</title>
<g id="a_Node000014"><a xlink:href="class_p4_1_1_control_plane_a_p_i_1_1_standard_1_1_p4_runtime_arch_handler_p_s_a.html" target="_top" xlink:title=" ">
<polygon fill="white" stroke="#bfbfbf" points="870.5,-153.5 665.5,-153.5 665.5,-123.5 870.5,-123.5 870.5,-153.5"/>
<text text-anchor="start" x="673.5" y="-141.5" font-family="Helvetica,sans-Serif" font-size="10.00">P4::ControlPlaneAPI</text>
<text text-anchor="middle" x="768" y="-130.5" font-family="Helvetica,sans-Serif" font-size="10.00">::Standard::P4RuntimeArchHandlerPSA</text>
</a>
</g>
</g>
<!-- Node13&#45;&gt;Node14 -->
<g id="edge13_Node000013_Node000014" class="edge">
<title>Node13&#45;&gt;Node14</title>
<g id="a_edge13_Node000013_Node000014"><a xlink:title=" ">
<path fill="none" stroke="#63b8ff" d="M625.53,-138.5C638.7,-138.5 652.21,-138.5 665.39,-138.5"/>
<polygon fill="#63b8ff" stroke="#63b8ff" points="625.52,-135 615.52,-138.5 625.52,-142 625.52,-135"/>
</a>
</g>
</g>
</g>
</svg>

<g id="navigator" transform="translate(0 0)" fill="#404254">
  <rect fill="#f2f5e9" fill-opacity="0.5" stroke="#606060" stroke-width=".5" x="0" y="0" width="60" height="60"/>
  <use id="zoomplus" xlink:href="#zoomPlus" x="17" y="9" onmousedown="handleZoom(evt,'in')"/>
  <use id="zoomminus" xlink:href="#zoomMin" x="42" y="9" onmousedown="handleZoom(evt,'out')"/>
  <use id="reset" xlink:href="#resetDef" x="30" y="36" onmousedown="handleReset()"/>
   <use id="arrowup" xlink:href="#arrowUp" x="0" y="0" onmousedown="handlePan(0,-1)"/>
  <use id="arrowright" xlink:href="#arrowRight" x="0" y="0" onmousedown="handlePan(1,0)"/>
  <use id="arrowdown" xlink:href="#arrowDown" x="0" y="0" onmousedown="handlePan(0,1)"/>
  <use id="arrowleft" xlink:href="#arrowLeft" x="0" y="0" onmousedown="handlePan(-1,0)"/>
</g>
<svg viewBox="0 0 15 15" width="100%" height="30px" preserveAspectRatio="xMaxYMin meet">
 <g id="arrow_out" transform="scale(0.3 0.3)">
  <a xlink:href="class_p4_1_1_control_plane_a_p_i_1_1_p4_runtime_arch_handler_iface__inherit__graph_org.svg" target="_base">
   <rect id="button" ry="5" rx="5" y="6" x="6" height="38" width="38"
        fill="#f2f5e9" fill-opacity="0.5" stroke="#606060" stroke-width="1.0"/>
   <path id="arrow"
     d="M 11.500037,31.436501 C 11.940474,20.09759 22.043105,11.32322 32.158766,21.979434 L 37.068811,17.246167 C 37.068811,17.246167 37.088388,32 37.088388,32 L 22.160133,31.978069 C 22.160133,31.978069 26.997745,27.140456 26.997745,27.140456 C 18.528582,18.264221 13.291696,25.230495 11.500037,31.436501 z"
     style="fill:#404040;"/>
  </a>
 </g>
</svg>

<style type='text/css'>
<![CDATA[
[data-mouse-over-selected='false'] { opacity: 0.7; }
[data-mouse-over-selected='true']  { opacity: 1.0; }
]]>
</style>
<script type="application/ecmascript"><![CDATA[
document.addEventListener('DOMContentLoaded', (event) => {
  highlightEdges();
  highlightAdjacentNodes();
});
]]></script>
</svg>
