<?xml version="1.0" encoding="UTF-8" standalone="no"?>
<!DOCTYPE svg PUBLIC "-//W3C//DTD SVG 1.1//EN"
 "http://www.w3.org/Graphics/SVG/1.1/DTD/svg11.dtd">
<!-- Generated by graphviz version 2.43.0 (0)
 -->
<!-- Title: P4::DeclarationLookup Pages: 1 -->
<svg width="500pt" height="1817pt"
 viewBox="0.00 0.00 500.00 1817.00" xmlns="http://www.w3.org/2000/svg" xmlns:xlink="http://www.w3.org/1999/xlink">
<g id="graph0" class="graph" transform="scale(1 1) rotate(0) translate(4 1813)">
<title>P4::DeclarationLookup</title>
<!-- Node1 -->
<g id="Node000001" class="node">
<title>Node1</title>
<g id="a_Node000001"><a xlink:title=" ">
<polygon fill="#999999" stroke="#666666" points="125,-881 0,-881 0,-862 125,-862 125,-881"/>
<text text-anchor="middle" x="62.5" y="-869" font-family="Helvetica,sans-Serif" font-size="10.00">P4::DeclarationLookup</text>
</a>
</g>
</g>
<!-- Node2 -->
<g id="Node000002" class="node">
<title>Node2</title>
<g id="a_Node000002"><a xlink:href="class_p4_1_1_reference_map.html" target="_top" xlink:title="Class used to encode maps from paths to declarations.">
<polygon fill="white" stroke="#666666" points="276,-900 171,-900 171,-881 276,-881 276,-900"/>
<text text-anchor="middle" x="223.5" y="-888" font-family="Helvetica,sans-Serif" font-size="10.00">P4::ReferenceMap</text>
</a>
</g>
</g>
<!-- Node1&#45;&gt;Node2 -->
<g id="edge1_Node000001_Node000002" class="edge">
<title>Node1&#45;&gt;Node2</title>
<g id="a_edge1_Node000001_Node000002"><a xlink:title=" ">
<path fill="none" stroke="#63b8ff" d="M135.37,-880.09C147.31,-881.51 159.47,-882.97 170.77,-884.32"/>
<polygon fill="#63b8ff" stroke="#63b8ff" points="135.77,-876.61 125.43,-878.9 134.94,-883.56 135.77,-876.61"/>
</a>
</g>
</g>
<!-- Node3 -->
<g id="Node000003" class="node">
<title>Node3</title>
<g id="a_Node000003"><a xlink:href="class_p4_1_1_resolution_context.html" target="_top" xlink:title="Visitor mixin for looking up names in enclosing scopes from the Visitor::Context.">
<polygon fill="#fff0f0" stroke="red" points="286,-863 161,-863 161,-844 286,-844 286,-863"/>
<text text-anchor="middle" x="223.5" y="-851" font-family="Helvetica,sans-Serif" font-size="10.00">P4::ResolutionContext</text>
</a>
</g>
</g>
<!-- Node1&#45;&gt;Node3 -->
<g id="edge2_Node000001_Node000003" class="edge">
<title>Node1&#45;&gt;Node3</title>
<g id="a_edge2_Node000001_Node000003"><a xlink:title=" ">
<path fill="none" stroke="#63b8ff" d="M135.59,-863.34C143.99,-862.39 152.5,-861.42 160.74,-860.49"/>
<polygon fill="#63b8ff" stroke="#63b8ff" points="134.97,-859.89 125.43,-864.49 135.76,-866.84 134.97,-859.89"/>
</a>
</g>
</g>
<!-- Node4 -->
<g id="Node000004" class="node">
<title>Node4</title>
<g id="a_Node000004"><a xlink:href="class_p4_1_1_abstract_inliner.html" target="_top" xlink:title=" ">
<polygon fill="white" stroke="orangered" points="462.5,-1809 351.5,-1809 351.5,-1768 462.5,-1768 462.5,-1809"/>
<text text-anchor="start" x="359.5" y="-1797" font-family="Helvetica,sans-Serif" font-size="10.00">P4::AbstractInliner</text>
<text text-anchor="start" x="359.5" y="-1786" font-family="Helvetica,sans-Serif" font-size="10.00">&lt; ActionsInlineList,</text>
<text text-anchor="middle" x="407" y="-1775" font-family="Helvetica,sans-Serif" font-size="10.00"> AInlineWorkList &gt;</text>
</a>
</g>
</g>
<!-- Node3&#45;&gt;Node4 -->
<g id="edge3_Node000003_Node000004" class="edge">
<title>Node3&#45;&gt;Node4</title>
<g id="a_edge3_Node000003_Node000004"><a xlink:title=" ">
<path fill="none" stroke="#63b8ff" d="M283.36,-869.46C284.29,-870.42 285.18,-871.43 286,-872.5 346.15,-950.67 263.14,-1680.35 322,-1759.5 329.27,-1769.28 340.06,-1775.79 351.49,-1780.11"/>
<polygon fill="#63b8ff" stroke="#63b8ff" points="285.33,-866.56 275.29,-863.16 281.02,-872.08 285.33,-866.56"/>
</a>
</g>
</g>
<!-- Node6 -->
<g id="Node000006" class="node">
<title>Node6</title>
<g id="a_Node000006"><a xlink:href="class_p4_1_1_abstract_inliner.html" target="_top" xlink:title=" ">
<polygon fill="white" stroke="orangered" points="480,-1750 334,-1750 334,-1709 480,-1709 480,-1750"/>
<text text-anchor="start" x="342" y="-1738" font-family="Helvetica,sans-Serif" font-size="10.00">P4::AbstractInliner</text>
<text text-anchor="start" x="342" y="-1727" font-family="Helvetica,sans-Serif" font-size="10.00">&lt; FunctionsInlineList,</text>
<text text-anchor="middle" x="407" y="-1716" font-family="Helvetica,sans-Serif" font-size="10.00"> FunctionsInlineWorkList &gt;</text>
</a>
</g>
</g>
<!-- Node3&#45;&gt;Node6 -->
<g id="edge4_Node000003_Node000006" class="edge">
<title>Node3&#45;&gt;Node6</title>
<g id="a_edge4_Node000003_Node000006"><a xlink:title=" ">
<path fill="none" stroke="#63b8ff" d="M282.96,-869.07C284.05,-870.14 285.06,-871.28 286,-872.5 342.2,-945.31 267.39,-1625.49 322,-1699.5 325.31,-1703.99 329.35,-1707.8 333.85,-1711.05"/>
<polygon fill="#63b8ff" stroke="#63b8ff" points="285.07,-866.28 274.99,-863 280.83,-871.85 285.07,-866.28"/>
</a>
</g>
</g>
<!-- Node8 -->
<g id="Node000008" class="node">
<title>Node8</title>
<g id="a_Node000008"><a xlink:href="class_p4_1_1_abstract_inliner.html" target="_top" xlink:title=" ">
<polygon fill="white" stroke="orangered" points="489,-1690.5 325,-1690.5 325,-1660.5 489,-1660.5 489,-1690.5"/>
<text text-anchor="start" x="333" y="-1678.5" font-family="Helvetica,sans-Serif" font-size="10.00">P4::AbstractInliner</text>
<text text-anchor="middle" x="407" y="-1667.5" font-family="Helvetica,sans-Serif" font-size="10.00">&lt; InlineList, InlineSummary &gt;</text>
</a>
</g>
</g>
<!-- Node3&#45;&gt;Node8 -->
<g id="edge5_Node000003_Node000008" class="edge">
<title>Node3&#45;&gt;Node8</title>
<g id="a_edge5_Node000003_Node000008"><a xlink:title=" ">
<path fill="none" stroke="#63b8ff" d="M282.96,-869.08C284.04,-870.15 285.06,-871.28 286,-872.5 339.03,-941.02 268.24,-1583.55 322,-1651.5 324.73,-1654.95 327.92,-1657.93 331.43,-1660.49"/>
<polygon fill="#63b8ff" stroke="#63b8ff" points="285.06,-866.28 274.98,-863.01 280.82,-871.85 285.06,-866.28"/>
</a>
</g>
</g>
<!-- Node10 -->
<g id="Node000010" class="node">
<title>Node10</title>
<g id="a_Node000010"><a xlink:href="class_p4_1_1_abstract_inliner.html" target="_top" xlink:title=" ">
<polygon fill="white" stroke="#bfbfbf" points="481,-1642 333,-1642 333,-1601 481,-1601 481,-1642"/>
<text text-anchor="start" x="341" y="-1630" font-family="Helvetica,sans-Serif" font-size="10.00">P4::AbstractInliner</text>
<text text-anchor="start" x="341" y="-1619" font-family="Helvetica,sans-Serif" font-size="10.00">&lt; P4::InlineList, InlineWork</text>
<text text-anchor="middle" x="407" y="-1608" font-family="Helvetica,sans-Serif" font-size="10.00">List &gt;</text>
</a>
</g>
</g>
<!-- Node3&#45;&gt;Node10 -->
<g id="edge6_Node000003_Node000010" class="edge">
<title>Node3&#45;&gt;Node10</title>
<g id="a_edge6_Node000003_Node000010"><a xlink:title=" ">
<path fill="none" stroke="#63b8ff" d="M282.95,-869.08C284.04,-870.15 285.06,-871.29 286,-872.5 384.16,-998.82 226.6,-1463.08 322,-1591.5 325.05,-1595.6 328.7,-1599.15 332.76,-1602.21"/>
<polygon fill="#63b8ff" stroke="#63b8ff" points="285.05,-866.28 274.97,-863.02 280.82,-871.85 285.05,-866.28"/>
</a>
</g>
</g>
<!-- Node11 -->
<g id="Node000011" class="node">
<title>Node11</title>
<g id="a_Node000011"><a xlink:href="class_p4_1_1_abstract_inliner.html" target="_top" xlink:title=" ">
<polygon fill="white" stroke="#bfbfbf" points="486,-1582.5 328,-1582.5 328,-1552.5 486,-1552.5 486,-1582.5"/>
<text text-anchor="start" x="336" y="-1570.5" font-family="Helvetica,sans-Serif" font-size="10.00">P4::AbstractInliner</text>
<text text-anchor="middle" x="407" y="-1559.5" font-family="Helvetica,sans-Serif" font-size="10.00">&lt; InlineList, InlineWorkList &gt;</text>
</a>
</g>
</g>
<!-- Node3&#45;&gt;Node11 -->
<g id="edge7_Node000003_Node000011" class="edge">
<title>Node3&#45;&gt;Node11</title>
<g id="a_edge7_Node000003_Node000011"><a xlink:title=" ">
<path fill="none" stroke="#63b8ff" d="M282.95,-869.09C284.03,-870.15 285.06,-871.29 286,-872.5 377.83,-990.25 228.91,-1426.74 322,-1543.5 324.74,-1546.94 327.94,-1549.91 331.46,-1552.47"/>
<polygon fill="#63b8ff" stroke="#63b8ff" points="285.04,-866.28 274.95,-863.03 280.81,-871.86 285.04,-866.28"/>
</a>
</g>
</g>
<!-- Node12 -->
<g id="Node000012" class="node">
<title>Node12</title>
<g id="a_Node000012"><a xlink:href="class_p4_1_1_check_extern_invocation_common.html" target="_top" xlink:title="Base class which can be used to prepare classes for checking constraints for invocations of externs (...">
<polygon fill="#fff0f0" stroke="red" points="480.5,-1534.5 333.5,-1534.5 333.5,-1504.5 480.5,-1504.5 480.5,-1534.5"/>
<text text-anchor="start" x="341.5" y="-1522.5" font-family="Helvetica,sans-Serif" font-size="10.00">P4::CheckExternInvocation</text>
<text text-anchor="middle" x="407" y="-1511.5" font-family="Helvetica,sans-Serif" font-size="10.00">Common</text>
</a>
</g>
</g>
<!-- Node3&#45;&gt;Node12 -->
<g id="edge8_Node000003_Node000012" class="edge">
<title>Node3&#45;&gt;Node12</title>
<g id="a_edge8_Node000003_Node000012"><a xlink:title=" ">
<path fill="none" stroke="#63b8ff" d="M282.94,-869.09C284.03,-870.16 285.05,-871.29 286,-872.5 371.51,-981.67 235.33,-1387.24 322,-1495.5 325.22,-1499.53 329.07,-1502.91 333.32,-1505.74"/>
<polygon fill="#63b8ff" stroke="#63b8ff" points="285.03,-866.28 274.94,-863.05 280.81,-871.87 285.03,-866.28"/>
</a>
</g>
</g>
<!-- Node14 -->
<g id="Node000014" class="node">
<title>Node14</title>
<g id="a_Node000014"><a xlink:href="class_p4_1_1_collect_used_declarations.html" target="_top" xlink:title="Collects all used declarations into @used set.">
<polygon fill="white" stroke="#666666" points="484.5,-1486 329.5,-1486 329.5,-1467 484.5,-1467 484.5,-1486"/>
<text text-anchor="middle" x="407" y="-1474" font-family="Helvetica,sans-Serif" font-size="10.00">P4::CollectUsedDeclarations</text>
</a>
</g>
</g>
<!-- Node3&#45;&gt;Node14 -->
<g id="edge9_Node000003_Node000014" class="edge">
<title>Node3&#45;&gt;Node14</title>
<g id="a_edge9_Node000003_Node000014"><a xlink:title=" ">
<path fill="none" stroke="#8b1a1a" d="M282.94,-869.1C284.03,-870.16 285.05,-871.29 286,-872.5 366.64,-975.07 236.9,-1359.6 322,-1458.5 324.82,-1461.78 328.08,-1464.55 331.64,-1466.87"/>
<polygon fill="#8b1a1a" stroke="#8b1a1a" points="285.01,-866.28 274.92,-863.06 280.8,-871.87 285.01,-866.28"/>
</a>
</g>
</g>
<!-- Node15 -->
<g id="Node000015" class="node">
<title>Node15</title>
<g id="a_Node000015"><a xlink:href="class_p4_1_1_compute_def_use.html" target="_top" xlink:title="Compute defuse info within P4Parser and P4Control blocks in the midend.">
<polygon fill="white" stroke="#666666" points="464.5,-1449 349.5,-1449 349.5,-1430 464.5,-1430 464.5,-1449"/>
<text text-anchor="middle" x="407" y="-1437" font-family="Helvetica,sans-Serif" font-size="10.00">P4::ComputeDefUse</text>
</a>
</g>
</g>
<!-- Node3&#45;&gt;Node15 -->
<g id="edge10_Node000003_Node000015" class="edge">
<title>Node3&#45;&gt;Node15</title>
<g id="a_edge10_Node000003_Node000015"><a xlink:title=" ">
<path fill="none" stroke="#63b8ff" d="M282.93,-869.1C284.02,-870.16 285.05,-871.29 286,-872.5 361.63,-968.28 242.73,-1327.71 322,-1420.5 329.09,-1428.8 338.97,-1433.91 349.46,-1436.98"/>
<polygon fill="#63b8ff" stroke="#63b8ff" points="285,-866.28 274.91,-863.07 280.8,-871.88 285,-866.28"/>
</a>
</g>
</g>
<!-- Node16 -->
<g id="Node000016" class="node">
<title>Node16</title>
<g id="a_Node000016"><a xlink:href="class_p4_1_1_compute_def_use_1_1_setup_join_points.html" target="_top" xlink:title=" ">
<polygon fill="white" stroke="#bfbfbf" points="467.5,-1411.5 346.5,-1411.5 346.5,-1381.5 467.5,-1381.5 467.5,-1411.5"/>
<text text-anchor="start" x="354.5" y="-1399.5" font-family="Helvetica,sans-Serif" font-size="10.00">P4::ComputeDefUse::</text>
<text text-anchor="middle" x="407" y="-1388.5" font-family="Helvetica,sans-Serif" font-size="10.00">SetupJoinPoints</text>
</a>
</g>
</g>
<!-- Node3&#45;&gt;Node16 -->
<g id="edge11_Node000003_Node000016" class="edge">
<title>Node3&#45;&gt;Node16</title>
<g id="a_edge11_Node000003_Node000016"><a xlink:title=" ">
<path fill="none" stroke="#63b8ff" d="M282.92,-869.11C284.01,-870.17 285.04,-871.3 286,-872.5 355.31,-959.71 251.76,-1286.03 322,-1372.5 328.31,-1380.27 336.95,-1385.63 346.3,-1389.3"/>
<polygon fill="#63b8ff" stroke="#63b8ff" points="284.98,-866.28 274.88,-863.09 280.79,-871.89 284.98,-866.28"/>
</a>
</g>
</g>
<!-- Node17 -->
<g id="Node000017" class="node">
<title>Node17</title>
<g id="a_Node000017"><a xlink:href="class_p4_1_1_compute_parser_c_g.html" target="_top" xlink:title="Builds a CallGraph of ParserState nodes.">
<polygon fill="white" stroke="#666666" points="468.5,-1363 345.5,-1363 345.5,-1344 468.5,-1344 468.5,-1363"/>
<text text-anchor="middle" x="407" y="-1351" font-family="Helvetica,sans-Serif" font-size="10.00">P4::ComputeParserCG</text>
</a>
</g>
</g>
<!-- Node3&#45;&gt;Node17 -->
<g id="edge12_Node000003_Node000017" class="edge">
<title>Node3&#45;&gt;Node17</title>
<g id="a_edge12_Node000003_Node000017"><a xlink:title=" ">
<path fill="none" stroke="#63b8ff" d="M282.91,-869.12C284.01,-870.17 285.04,-871.3 286,-872.5 350.44,-953.11 254.06,-1257.82 322,-1335.5 328.19,-1342.57 336.41,-1347.25 345.31,-1350.29"/>
<polygon fill="#63b8ff" stroke="#63b8ff" points="284.96,-866.28 274.86,-863.11 280.78,-871.89 284.96,-866.28"/>
</a>
</g>
</g>
<!-- Node18 -->
<g id="Node000018" class="node">
<title>Node18</title>
<g id="a_Node000018"><a xlink:href="class_p4_1_1_constant_type_substitution.html" target="_top" xlink:title=" ">
<polygon fill="white" stroke="#bfbfbf" points="486.5,-1326 327.5,-1326 327.5,-1307 486.5,-1307 486.5,-1326"/>
<text text-anchor="middle" x="407" y="-1314" font-family="Helvetica,sans-Serif" font-size="10.00">P4::ConstantTypeSubstitution</text>
</a>
</g>
</g>
<!-- Node3&#45;&gt;Node18 -->
<g id="edge13_Node000003_Node000018" class="edge">
<title>Node3&#45;&gt;Node18</title>
<g id="a_edge13_Node000003_Node000018"><a xlink:title=" ">
<path fill="none" stroke="#8b1a1a" d="M282.9,-869.13C284,-870.18 285.04,-871.3 286,-872.5 345.57,-946.51 259.21,-1227.2 322,-1298.5 324.86,-1301.75 328.15,-1304.49 331.73,-1306.8"/>
<polygon fill="#8b1a1a" stroke="#8b1a1a" points="284.94,-866.29 274.83,-863.13 280.77,-871.9 284.94,-866.29"/>
</a>
</g>
</g>
<!-- Node19 -->
<g id="Node000019" class="node">
<title>Node19</title>
<g id="a_Node000019"><a xlink:href="class_p4_1_1_create_struct_initializers.html" target="_top" xlink:title="Converts some list expressions into struct initializers.">
<polygon fill="white" stroke="#666666" points="480,-1289 334,-1289 334,-1270 480,-1270 480,-1289"/>
<text text-anchor="middle" x="407" y="-1277" font-family="Helvetica,sans-Serif" font-size="10.00">P4::CreateStructInitializers</text>
</a>
</g>
</g>
<!-- Node3&#45;&gt;Node19 -->
<g id="edge14_Node000003_Node000019" class="edge">
<title>Node3&#45;&gt;Node19</title>
<g id="a_edge14_Node000003_Node000019"><a xlink:title=" ">
<path fill="none" stroke="#63b8ff" d="M282.89,-869.14C283.99,-870.19 285.03,-871.31 286,-872.5 340.7,-939.91 264.37,-1196.58 322,-1261.5 325.37,-1265.29 329.32,-1268.39 333.65,-1270.92"/>
<polygon fill="#63b8ff" stroke="#63b8ff" points="284.92,-866.29 274.8,-863.15 280.76,-871.92 284.92,-866.29"/>
</a>
</g>
</g>
<!-- Node20 -->
<g id="Node000020" class="node">
<title>Node20</title>
<g id="a_Node000020"><a xlink:href="class_p4_1_1_deprecated.html" target="_top" xlink:title=" ">
<polygon fill="white" stroke="#666666" points="452.5,-1252 361.5,-1252 361.5,-1233 452.5,-1233 452.5,-1252"/>
<text text-anchor="middle" x="407" y="-1240" font-family="Helvetica,sans-Serif" font-size="10.00">P4::Deprecated</text>
</a>
</g>
</g>
<!-- Node3&#45;&gt;Node20 -->
<g id="edge15_Node000003_Node000020" class="edge">
<title>Node3&#45;&gt;Node20</title>
<g id="a_edge15_Node000003_Node000020"><a xlink:title=" ">
<path fill="none" stroke="#63b8ff" d="M282.79,-869.08C283.93,-870.15 285,-871.28 286,-872.5 385.68,-994.13 217.03,-1107.4 322,-1224.5 331.86,-1235.49 346.65,-1240.68 361.09,-1242.9"/>
<polygon fill="#63b8ff" stroke="#63b8ff" points="284.62,-866.07 274.47,-863.02 280.5,-871.73 284.62,-866.07"/>
</a>
</g>
</g>
<!-- Node21 -->
<g id="Node000021" class="node">
<title>Node21</title>
<g id="a_Node000021"><a xlink:href="class_p4_1_1_discover_actions_inlining.html" target="_top" xlink:title=" ">
<polygon fill="white" stroke="#bfbfbf" points="481.5,-1215 332.5,-1215 332.5,-1196 481.5,-1196 481.5,-1215"/>
<text text-anchor="middle" x="407" y="-1203" font-family="Helvetica,sans-Serif" font-size="10.00">P4::DiscoverActionsInlining</text>
</a>
</g>
</g>
<!-- Node3&#45;&gt;Node21 -->
<g id="edge16_Node000003_Node000021" class="edge">
<title>Node3&#45;&gt;Node21</title>
<g id="a_edge16_Node000003_Node000021"><a xlink:title=" ">
<path fill="none" stroke="#63b8ff" d="M282.78,-869.09C283.92,-870.16 285,-871.29 286,-872.5 375.96,-980.96 227.32,-1083.13 322,-1187.5 325.01,-1190.81 328.46,-1193.6 332.22,-1195.93"/>
<polygon fill="#63b8ff" stroke="#63b8ff" points="284.58,-866.08 274.42,-863.06 280.48,-871.75 284.58,-866.08"/>
</a>
</g>
</g>
<!-- Node22 -->
<g id="Node000022" class="node">
<title>Node22</title>
<g id="a_Node000022"><a xlink:href="class_p4_1_1_discover_functions_inlining.html" target="_top" xlink:title=" ">
<polygon fill="white" stroke="#bfbfbf" points="487,-1178 327,-1178 327,-1159 487,-1159 487,-1178"/>
<text text-anchor="middle" x="407" y="-1166" font-family="Helvetica,sans-Serif" font-size="10.00">P4::DiscoverFunctionsInlining</text>
</a>
</g>
</g>
<!-- Node3&#45;&gt;Node22 -->
<g id="edge17_Node000003_Node000022" class="edge">
<title>Node3&#45;&gt;Node22</title>
<g id="a_edge17_Node000003_Node000022"><a xlink:title=" ">
<path fill="none" stroke="#63b8ff" d="M282.75,-869.11C283.9,-870.17 284.99,-871.3 286,-872.5 366.26,-967.79 237.6,-1058.85 322,-1150.5 325.03,-1153.79 328.51,-1156.56 332.28,-1158.88"/>
<polygon fill="#63b8ff" stroke="#63b8ff" points="284.53,-866.08 274.37,-863.11 280.46,-871.78 284.53,-866.08"/>
</a>
</g>
</g>
<!-- Node23 -->
<g id="Node000023" class="node">
<title>Node23</title>
<g id="a_Node000023"><a xlink:href="class_p4_1_1_do_check_constants.html" target="_top" xlink:title=" ">
<polygon fill="white" stroke="#666666" points="470.5,-1141 343.5,-1141 343.5,-1122 470.5,-1122 470.5,-1141"/>
<text text-anchor="middle" x="407" y="-1129" font-family="Helvetica,sans-Serif" font-size="10.00">P4::DoCheckConstants</text>
</a>
</g>
</g>
<!-- Node3&#45;&gt;Node23 -->
<g id="edge18_Node000003_Node000023" class="edge">
<title>Node3&#45;&gt;Node23</title>
<g id="a_edge18_Node000003_Node000023"><a xlink:title=" ">
<path fill="none" stroke="#63b8ff" d="M282.28,-868.75C283.6,-869.91 284.85,-871.16 286,-872.5 356.57,-954.65 247.86,-1034.55 322,-1113.5 327.82,-1119.7 335.21,-1124.03 343.19,-1127.01"/>
<polygon fill="#63b8ff" stroke="#63b8ff" points="284.21,-865.83 273.99,-863.01 280.22,-871.58 284.21,-865.83"/>
</a>
</g>
</g>
<!-- Node24 -->
<g id="Node000024" class="node">
<title>Node24</title>
<g id="a_Node000024"><a xlink:href="class_p4_1_1_do_check_core_methods.html" target="_top" xlink:title="Check types for arguments of core.p4 methods.">
<polygon fill="white" stroke="#666666" points="478.5,-1104 335.5,-1104 335.5,-1085 478.5,-1085 478.5,-1104"/>
<text text-anchor="middle" x="407" y="-1092" font-family="Helvetica,sans-Serif" font-size="10.00">P4::DoCheckCoreMethods</text>
</a>
</g>
</g>
<!-- Node3&#45;&gt;Node24 -->
<g id="edge19_Node000003_Node000024" class="edge">
<title>Node3&#45;&gt;Node24</title>
<g id="a_edge19_Node000003_Node000024"><a xlink:title=" ">
<path fill="none" stroke="#63b8ff" d="M282.24,-868.79C283.57,-869.94 284.83,-871.17 286,-872.5 346.91,-941.54 258.09,-1010.22 322,-1076.5 325.83,-1080.47 330.31,-1083.67 335.17,-1086.24"/>
<polygon fill="#63b8ff" stroke="#63b8ff" points="284.12,-865.84 273.89,-863.1 280.18,-871.63 284.12,-865.84"/>
</a>
</g>
</g>
<!-- Node25 -->
<g id="Node000025" class="node">
<title>Node25</title>
<g id="a_Node000025"><a xlink:href="class_p4_1_1_do_constant_folding.html" target="_top" xlink:title="statically evaluates many constant expressions.">
<polygon fill="white" stroke="#666666" points="470.5,-1067 343.5,-1067 343.5,-1048 470.5,-1048 470.5,-1067"/>
<text text-anchor="middle" x="407" y="-1055" font-family="Helvetica,sans-Serif" font-size="10.00">P4::DoConstantFolding</text>
</a>
</g>
</g>
<!-- Node3&#45;&gt;Node25 -->
<g id="edge20_Node000003_Node000025" class="edge">
<title>Node3&#45;&gt;Node25</title>
<g id="a_edge20_Node000003_Node000025"><a xlink:title=" ">
<path fill="none" stroke="#63b8ff" d="M282.08,-868.78C283.47,-869.93 284.78,-871.17 286,-872.5 337.29,-928.48 268.28,-985.84 322,-1039.5 327.91,-1045.4 335.25,-1049.58 343.12,-1052.51"/>
<polygon fill="#63b8ff" stroke="#63b8ff" points="283.72,-865.66 273.45,-863.07 279.86,-871.5 283.72,-865.66"/>
</a>
</g>
</g>
<!-- Node26 -->
<g id="Node000026" class="node">
<title>Node26</title>
<g id="a_Node000026"><a xlink:href="class_p4_1_1_do_default_arguments.html" target="_top" xlink:title=" ">
<polygon fill="white" stroke="#666666" points="475.5,-1030 338.5,-1030 338.5,-1011 475.5,-1011 475.5,-1030"/>
<text text-anchor="middle" x="407" y="-1018" font-family="Helvetica,sans-Serif" font-size="10.00">P4::DoDefaultArguments</text>
</a>
</g>
</g>
<!-- Node3&#45;&gt;Node26 -->
<g id="edge21_Node000003_Node000026" class="edge">
<title>Node3&#45;&gt;Node26</title>
<g id="a_edge21_Node000003_Node000026"><a xlink:title=" ">
<path fill="none" stroke="#63b8ff" d="M281.5,-868.49C283.09,-869.72 284.6,-871.06 286,-872.5 327.76,-915.51 278.37,-961.38 322,-1002.5 326.78,-1007 332.39,-1010.49 338.42,-1013.17"/>
<polygon fill="#63b8ff" stroke="#63b8ff" points="283.26,-865.46 272.92,-863.12 279.54,-871.4 283.26,-865.46"/>
</a>
</g>
</g>
<!-- Node27 -->
<g id="Node000027" class="node">
<title>Node27</title>
<g id="a_Node000027"><a xlink:href="class_p4_1_1_do_expand_emit.html" target="_top" xlink:title=" ">
<polygon fill="white" stroke="#666666" points="460.5,-993 353.5,-993 353.5,-974 460.5,-974 460.5,-993"/>
<text text-anchor="middle" x="407" y="-981" font-family="Helvetica,sans-Serif" font-size="10.00">P4::DoExpandEmit</text>
</a>
</g>
</g>
<!-- Node3&#45;&gt;Node27 -->
<g id="edge22_Node000003_Node000027" class="edge">
<title>Node3&#45;&gt;Node27</title>
<g id="a_edge22_Node000003_Node000027"><a xlink:title=" ">
<path fill="none" stroke="#63b8ff" d="M280.57,-868.15C282.48,-869.47 284.31,-870.92 286,-872.5 318.41,-902.73 288.28,-936.73 322,-965.5 330.85,-973.05 342.11,-977.67 353.48,-980.45"/>
<polygon fill="#63b8ff" stroke="#63b8ff" points="282.05,-864.97 271.63,-863.06 278.59,-871.05 282.05,-864.97"/>
</a>
</g>
</g>
<!-- Node28 -->
<g id="Node000028" class="node">
<title>Node28</title>
<g id="a_Node000028"><a xlink:href="class_p4_1_1_do_expand_lookahead.html" target="_top" xlink:title=" ">
<polygon fill="white" stroke="#666666" points="475.5,-956 338.5,-956 338.5,-937 475.5,-937 475.5,-956"/>
<text text-anchor="middle" x="407" y="-944" font-family="Helvetica,sans-Serif" font-size="10.00">P4::DoExpandLookahead</text>
</a>
</g>
</g>
<!-- Node3&#45;&gt;Node28 -->
<g id="edge23_Node000003_Node000028" class="edge">
<title>Node3&#45;&gt;Node28</title>
<g id="a_edge23_Node000003_Node000028"><a xlink:title=" ">
<path fill="none" stroke="#63b8ff" d="M278.14,-867.43C280.9,-868.95 283.54,-870.63 286,-872.5 309.56,-890.4 297.67,-911.66 322,-928.5 327.03,-931.98 332.6,-934.81 338.41,-937.1"/>
<polygon fill="#63b8ff" stroke="#63b8ff" points="279.55,-864.22 269.02,-863.11 276.56,-870.55 279.55,-864.22"/>
</a>
</g>
</g>
<!-- Node29 -->
<g id="Node000029" class="node">
<title>Node29</title>
<g id="a_Node000029"><a xlink:href="class_p4_1_1_do_local_copy_propagation.html" target="_top" xlink:title=" ">
<polygon fill="white" stroke="#666666" points="485.5,-919 328.5,-919 328.5,-900 485.5,-900 485.5,-919"/>
<text text-anchor="middle" x="407" y="-907" font-family="Helvetica,sans-Serif" font-size="10.00">P4::DoLocalCopyPropagation</text>
</a>
</g>
</g>
<!-- Node3&#45;&gt;Node29 -->
<g id="edge24_Node000003_Node000029" class="edge">
<title>Node3&#45;&gt;Node29</title>
<g id="a_edge24_Node000003_Node000029"><a xlink:title=" ">
<path fill="none" stroke="#8b1a1a" d="M269.02,-866.17C274.79,-868.13 280.58,-870.25 286,-872.5 302.71,-879.42 305,-885.32 322,-891.5 331.11,-894.81 341.01,-897.6 350.71,-899.92"/>
<polygon fill="#8b1a1a" stroke="#8b1a1a" points="269.97,-862.8 259.38,-863.04 267.81,-869.46 269.97,-862.8"/>
</a>
</g>
</g>
<!-- Node30 -->
<g id="Node000030" class="node">
<title>Node30</title>
<g id="a_Node000030"><a xlink:href="class_p4_1_1_do_order_arguments.html" target="_top" xlink:title=" ">
<polygon fill="white" stroke="#666666" points="471,-882 343,-882 343,-863 471,-863 471,-882"/>
<text text-anchor="middle" x="407" y="-870" font-family="Helvetica,sans-Serif" font-size="10.00">P4::DoOrderArguments</text>
</a>
</g>
</g>
<!-- Node3&#45;&gt;Node30 -->
<g id="edge25_Node000003_Node000030" class="edge">
<title>Node3&#45;&gt;Node30</title>
<g id="a_edge25_Node000003_Node000030"><a xlink:title=" ">
<path fill="none" stroke="#63b8ff" d="M296.21,-861.01C311.65,-862.62 327.85,-864.32 342.93,-865.9"/>
<polygon fill="#63b8ff" stroke="#63b8ff" points="296.51,-857.52 286.2,-859.96 295.78,-864.48 296.51,-857.52"/>
</a>
</g>
</g>
<!-- Node31 -->
<g id="Node000031" class="node">
<title>Node31</title>
<g id="a_Node000031"><a xlink:href="class_p4_1_1_do_remove_assert_assume.html" target="_top" xlink:title=" ">
<polygon fill="white" stroke="#bfbfbf" points="486,-845 328,-845 328,-826 486,-826 486,-845"/>
<text text-anchor="middle" x="407" y="-833" font-family="Helvetica,sans-Serif" font-size="10.00">P4::DoRemoveAssertAssume</text>
</a>
</g>
</g>
<!-- Node3&#45;&gt;Node31 -->
<g id="edge26_Node000003_Node000031" class="edge">
<title>Node3&#45;&gt;Node31</title>
<g id="a_edge26_Node000003_Node000031"><a xlink:title=" ">
<path fill="none" stroke="#63b8ff" d="M296.38,-846.37C306.69,-845.35 317.33,-844.29 327.76,-843.26"/>
<polygon fill="#63b8ff" stroke="#63b8ff" points="295.81,-842.91 286.2,-847.38 296.5,-849.88 295.81,-842.91"/>
</a>
</g>
</g>
<!-- Node32 -->
<g id="Node000032" class="node">
<title>Node32</title>
<g id="a_Node000032"><a xlink:href="class_p4_1_1_do_remove_exits.html" target="_top" xlink:title=" ">
<polygon fill="white" stroke="#666666" points="463.5,-808 350.5,-808 350.5,-789 463.5,-789 463.5,-808"/>
<text text-anchor="middle" x="407" y="-796" font-family="Helvetica,sans-Serif" font-size="10.00">P4::DoRemoveExits</text>
</a>
</g>
</g>
<!-- Node3&#45;&gt;Node32 -->
<g id="edge27_Node000003_Node000032" class="edge">
<title>Node3&#45;&gt;Node32</title>
<g id="a_edge27_Node000003_Node000032"><a xlink:title=" ">
<path fill="none" stroke="#63b8ff" d="M257.39,-840.13C276.13,-832.82 300.15,-823.97 322,-817.5 333.76,-814.02 346.6,-810.82 358.63,-808.07"/>
<polygon fill="#63b8ff" stroke="#63b8ff" points="255.87,-836.97 247.85,-843.89 258.44,-843.48 255.87,-836.97"/>
</a>
</g>
</g>
<!-- Node33 -->
<g id="Node000033" class="node">
<title>Node33</title>
<g id="a_Node000033"><a xlink:href="class_p4_1_1_do_remove_miss.html" target="_top" xlink:title=" ">
<polygon fill="white" stroke="#666666" points="462.5,-771 351.5,-771 351.5,-752 462.5,-752 462.5,-771"/>
<text text-anchor="middle" x="407" y="-759" font-family="Helvetica,sans-Serif" font-size="10.00">P4::DoRemoveMiss</text>
</a>
</g>
</g>
<!-- Node3&#45;&gt;Node33 -->
<g id="edge28_Node000003_Node000033" class="edge">
<title>Node3&#45;&gt;Node33</title>
<g id="a_edge28_Node000003_Node000033"><a xlink:title=" ">
<path fill="none" stroke="#63b8ff" d="M241.94,-836.79C260.38,-820.06 291.03,-794.8 322,-780.5 331.09,-776.3 341.18,-773 351.12,-770.41"/>
<polygon fill="#63b8ff" stroke="#63b8ff" points="239.33,-834.44 234.37,-843.81 244.09,-839.58 239.33,-834.44"/>
</a>
</g>
</g>
<!-- Node34 -->
<g id="Node000034" class="node">
<title>Node34</title>
<g id="a_Node000034"><a xlink:href="class_p4_1_1_do_replace_typedef.html" target="_top" xlink:title=" ">
<polygon fill="white" stroke="#666666" points="469.5,-734 344.5,-734 344.5,-715 469.5,-715 469.5,-734"/>
<text text-anchor="middle" x="407" y="-722" font-family="Helvetica,sans-Serif" font-size="10.00">P4::DoReplaceTypedef</text>
</a>
</g>
</g>
<!-- Node3&#45;&gt;Node34 -->
<g id="edge29_Node000003_Node000034" class="edge">
<title>Node3&#45;&gt;Node34</title>
<g id="a_edge29_Node000003_Node000034"><a xlink:title=" ">
<path fill="none" stroke="#63b8ff" d="M235.63,-834.92C251.55,-810.06 283.22,-766.43 322,-743.5 328.82,-739.47 336.42,-736.29 344.18,-733.79"/>
<polygon fill="#63b8ff" stroke="#63b8ff" points="232.46,-833.4 230.15,-843.74 238.4,-837.1 232.46,-833.4"/>
</a>
</g>
</g>
<!-- Node35 -->
<g id="Node000035" class="node">
<title>Node35</title>
<g id="a_Node000035"><a xlink:href="class_p4_1_1_do_simplify_control_flow.html" target="_top" xlink:title="Replace complex control flow nodes with simpler ones where possible.">
<polygon fill="white" stroke="#666666" points="480,-697 334,-697 334,-678 480,-678 480,-697"/>
<text text-anchor="middle" x="407" y="-685" font-family="Helvetica,sans-Serif" font-size="10.00">P4::DoSimplifyControlFlow</text>
</a>
</g>
</g>
<!-- Node3&#45;&gt;Node35 -->
<g id="edge30_Node000003_Node000035" class="edge">
<title>Node3&#45;&gt;Node35</title>
<g id="a_edge30_Node000003_Node000035"><a xlink:title=" ">
<path fill="none" stroke="#63b8ff" d="M231.68,-834.24C244.6,-802.38 274.89,-738.99 322,-706.5 327.54,-702.68 333.73,-699.62 340.16,-697.16"/>
<polygon fill="#63b8ff" stroke="#63b8ff" points="228.35,-833.16 227.97,-843.75 234.87,-835.71 228.35,-833.16"/>
</a>
</g>
</g>
<!-- Node36 -->
<g id="Node000036" class="node">
<title>Node36</title>
<g id="a_Node000036"><a xlink:href="class_p4_1_1_do_simplify_expressions.html" target="_top" xlink:title="Convert expressions so that each expression contains at most one side effect.">
<polygon fill="white" stroke="#666666" points="480,-660 334,-660 334,-641 480,-641 480,-660"/>
<text text-anchor="middle" x="407" y="-648" font-family="Helvetica,sans-Serif" font-size="10.00">P4::DoSimplifyExpressions</text>
</a>
</g>
</g>
<!-- Node3&#45;&gt;Node36 -->
<g id="edge31_Node000003_Node000036" class="edge">
<title>Node3&#45;&gt;Node36</title>
<g id="a_edge31_Node000003_Node000036"><a xlink:title=" ">
<path fill="none" stroke="#63b8ff" d="M229.11,-833.77C239.06,-795.69 266.33,-712.08 322,-669.5 326.99,-665.68 332.6,-662.61 338.5,-660.14"/>
<polygon fill="#63b8ff" stroke="#63b8ff" points="225.67,-833.08 226.65,-843.63 232.46,-834.77 225.67,-833.08"/>
</a>
</g>
</g>
<!-- Node37 -->
<g id="Node000037" class="node">
<title>Node37</title>
<g id="a_Node000037"><a xlink:href="class_p4_1_1_do_static_assert.html" target="_top" xlink:title=" ">
<polygon fill="white" stroke="#666666" points="460.5,-623 353.5,-623 353.5,-604 460.5,-604 460.5,-623"/>
<text text-anchor="middle" x="407" y="-611" font-family="Helvetica,sans-Serif" font-size="10.00">P4::DoStaticAssert</text>
</a>
</g>
</g>
<!-- Node3&#45;&gt;Node37 -->
<g id="edge32_Node000003_Node000037" class="edge">
<title>Node3&#45;&gt;Node37</title>
<g id="a_edge32_Node000003_Node000037"><a xlink:title=" ">
<path fill="none" stroke="#63b8ff" d="M227.2,-833.81C234.25,-790.32 257.38,-685.71 322,-632.5 330.89,-625.18 342.03,-620.55 353.26,-617.64"/>
<polygon fill="#63b8ff" stroke="#63b8ff" points="223.74,-833.29 225.71,-843.7 230.66,-834.34 223.74,-833.29"/>
</a>
</g>
</g>
<!-- Node38 -->
<g id="Node000038" class="node">
<title>Node38</title>
<g id="a_Node000038"><a xlink:href="class_p4_1_1_do_table_hit.html" target="_top" xlink:title=" ">
<polygon fill="white" stroke="#666666" points="451,-586 363,-586 363,-567 451,-567 451,-586"/>
<text text-anchor="middle" x="407" y="-574" font-family="Helvetica,sans-Serif" font-size="10.00">P4::DoTableHit</text>
</a>
</g>
</g>
<!-- Node3&#45;&gt;Node38 -->
<g id="edge33_Node000003_Node000038" class="edge">
<title>Node3&#45;&gt;Node38</title>
<g id="a_edge33_Node000003_Node000038"><a xlink:title=" ">
<path fill="none" stroke="#63b8ff" d="M225.8,-833.92C230.12,-785.54 248.25,-659.66 322,-595.5 333.17,-585.78 348.26,-580.74 362.57,-578.21"/>
<polygon fill="#63b8ff" stroke="#63b8ff" points="222.31,-833.75 225.01,-843.99 229.28,-834.3 222.31,-833.75"/>
</a>
</g>
</g>
<!-- Node39 -->
<g id="Node000039" class="node">
<title>Node39</title>
<g id="a_Node000039"><a xlink:href="class_p4_1_1_dontcare_args.html" target="_top" xlink:title=" ">
<polygon fill="white" stroke="#666666" points="457.5,-549 356.5,-549 356.5,-530 457.5,-530 457.5,-549"/>
<text text-anchor="middle" x="407" y="-537" font-family="Helvetica,sans-Serif" font-size="10.00">P4::DontcareArgs</text>
</a>
</g>
</g>
<!-- Node3&#45;&gt;Node39 -->
<g id="edge34_Node000003_Node000039" class="edge">
<title>Node3&#45;&gt;Node39</title>
<g id="a_edge34_Node000003_Node000039"><a xlink:title=" ">
<path fill="none" stroke="#63b8ff" d="M224.75,-833.69C226.57,-780.52 239.21,-633.65 322,-558.5 331.41,-549.96 343.83,-544.99 356.23,-542.17"/>
<polygon fill="#63b8ff" stroke="#63b8ff" points="221.25,-833.73 224.51,-843.81 228.25,-833.9 221.25,-833.73"/>
</a>
</g>
</g>
<!-- Node40 -->
<g id="Node000040" class="node">
<title>Node40</title>
<g id="a_Node000040"><a xlink:href="class_p4_1_1_eliminate_subparser_calls.html" target="_top" xlink:title=" ">
<polygon fill="white" stroke="#666666" points="484,-512 330,-512 330,-493 484,-493 484,-512"/>
<text text-anchor="middle" x="407" y="-500" font-family="Helvetica,sans-Serif" font-size="10.00">P4::EliminateSubparserCalls</text>
</a>
</g>
</g>
<!-- Node3&#45;&gt;Node40 -->
<g id="edge35_Node000003_Node000040" class="edge">
<title>Node3&#45;&gt;Node40</title>
<g id="a_edge35_Node000003_Node000040"><a xlink:title=" ">
<path fill="none" stroke="#63b8ff" d="M223.9,-833.58C223.33,-775.98 230.01,-607.85 322,-521.5 326.03,-517.71 330.66,-514.63 335.61,-512.11"/>
<polygon fill="#63b8ff" stroke="#63b8ff" points="220.41,-833.92 224.1,-843.85 227.41,-833.78 220.41,-833.92"/>
</a>
</g>
</g>
<!-- Node41 -->
<g id="Node000041" class="node">
<title>Node41</title>
<g id="a_Node000041"><a xlink:href="class_p4_1_1_entry_priorities.html" target="_top" xlink:title="Assigns priorities to table entries if they are not &#39;const&#39;.">
<polygon fill="white" stroke="#666666" points="459,-475 355,-475 355,-456 459,-456 459,-475"/>
<text text-anchor="middle" x="407" y="-463" font-family="Helvetica,sans-Serif" font-size="10.00">P4::EntryPriorities</text>
</a>
</g>
</g>
<!-- Node3&#45;&gt;Node41 -->
<g id="edge36_Node000003_Node000041" class="edge">
<title>Node3&#45;&gt;Node41</title>
<g id="a_edge36_Node000003_Node000041"><a xlink:title=" ">
<path fill="none" stroke="#63b8ff" d="M227.01,-833.82C236.2,-764.68 270.28,-534.4 322,-484.5 330.82,-475.99 342.61,-470.98 354.56,-468.1"/>
<polygon fill="#63b8ff" stroke="#63b8ff" points="223.53,-833.44 225.7,-843.81 230.47,-834.35 223.53,-833.44"/>
</a>
</g>
</g>
<!-- Node42 -->
<g id="Node000042" class="node">
<title>Node42</title>
<g id="a_Node000042"><a xlink:href="class_p4_1_1_find_action_parameters.html" target="_top" xlink:title=" ">
<polygon fill="white" stroke="#bfbfbf" points="477.5,-438 336.5,-438 336.5,-419 477.5,-419 477.5,-438"/>
<text text-anchor="middle" x="407" y="-426" font-family="Helvetica,sans-Serif" font-size="10.00">P4::FindActionParameters</text>
</a>
</g>
</g>
<!-- Node3&#45;&gt;Node42 -->
<g id="edge37_Node000003_Node000042" class="edge">
<title>Node3&#45;&gt;Node42</title>
<g id="a_edge37_Node000003_Node000042"><a xlink:title=" ">
<path fill="none" stroke="#63b8ff" d="M226.5,-833.8C234.37,-760.26 265.55,-503.2 322,-447.5 326.15,-443.4 330.99,-440.12 336.2,-437.48"/>
<polygon fill="#63b8ff" stroke="#63b8ff" points="223,-833.65 225.44,-843.96 229.96,-834.38 223,-833.65"/>
</a>
</g>
</g>
<!-- Node43 -->
<g id="Node000043" class="node">
<title>Node43</title>
<g id="a_Node000043"><a xlink:href="class_p4_1_1_find_function_specializations.html" target="_top" xlink:title=" ">
<polygon fill="white" stroke="#666666" points="492,-401 322,-401 322,-382 492,-382 492,-401"/>
<text text-anchor="middle" x="407" y="-389" font-family="Helvetica,sans-Serif" font-size="10.00">P4::FindFunctionSpecializations</text>
</a>
</g>
</g>
<!-- Node3&#45;&gt;Node43 -->
<g id="edge38_Node000003_Node000043" class="edge">
<title>Node3&#45;&gt;Node43</title>
<g id="a_edge38_Node000003_Node000043"><a xlink:title=" ">
<path fill="none" stroke="#63b8ff" d="M226.1,-833.54C232.77,-755.45 260.87,-471.99 322,-410.5 325.8,-406.68 330.18,-403.56 334.92,-401.02"/>
<polygon fill="#63b8ff" stroke="#63b8ff" points="222.58,-833.63 225.24,-843.88 229.56,-834.2 222.58,-833.63"/>
</a>
</g>
</g>
<!-- Node44 -->
<g id="Node000044" class="node">
<title>Node44</title>
<g id="a_Node000044"><a xlink:href="class_p4_1_1_find_global_action_uses.html" target="_top" xlink:title=" ">
<polygon fill="white" stroke="#bfbfbf" points="477.5,-364 336.5,-364 336.5,-345 477.5,-345 477.5,-364"/>
<text text-anchor="middle" x="407" y="-352" font-family="Helvetica,sans-Serif" font-size="10.00">P4::FindGlobalActionUses</text>
</a>
</g>
</g>
<!-- Node3&#45;&gt;Node44 -->
<g id="edge39_Node000003_Node000044" class="edge">
<title>Node3&#45;&gt;Node44</title>
<g id="a_edge39_Node000003_Node000044"><a xlink:title=" ">
<path fill="none" stroke="#63b8ff" d="M225.74,-833.48C231.24,-751.27 256.12,-440.85 322,-373.5 326.18,-369.22 331.11,-365.82 336.44,-363.12"/>
<polygon fill="#63b8ff" stroke="#63b8ff" points="222.22,-833.69 225.07,-843.89 229.2,-834.14 222.22,-833.69"/>
</a>
</g>
</g>
<!-- Node45 -->
<g id="Node000045" class="node">
<title>Node45</title>
<g id="a_Node000045"><a xlink:href="class_p4_1_1_find_repeated_action_uses.html" target="_top" xlink:title=" ">
<polygon fill="white" stroke="#bfbfbf" points="485,-327 329,-327 329,-308 485,-308 485,-327"/>
<text text-anchor="middle" x="407" y="-315" font-family="Helvetica,sans-Serif" font-size="10.00">P4::FindRepeatedActionUses</text>
</a>
</g>
</g>
<!-- Node3&#45;&gt;Node45 -->
<g id="edge40_Node000003_Node000045" class="edge">
<title>Node3&#45;&gt;Node45</title>
<g id="a_edge40_Node000003_Node000045"><a xlink:title=" ">
<path fill="none" stroke="#63b8ff" d="M225.4,-833.87C229.74,-748.42 251.22,-409.88 322,-336.5 325.63,-332.73 329.84,-329.64 334.4,-327.11"/>
<polygon fill="#63b8ff" stroke="#63b8ff" points="221.9,-833.84 224.91,-844 228.89,-834.18 221.9,-833.84"/>
</a>
</g>
</g>
<!-- Node46 -->
<g id="Node000046" class="node">
<title>Node46</title>
<g id="a_Node000046"><a xlink:href="class_p4_1_1_find_specializations.html" target="_top" xlink:title=" ">
<polygon fill="white" stroke="#666666" points="471,-290 343,-290 343,-271 471,-271 471,-290"/>
<text text-anchor="middle" x="407" y="-278" font-family="Helvetica,sans-Serif" font-size="10.00">P4::FindSpecializations</text>
</a>
</g>
</g>
<!-- Node3&#45;&gt;Node46 -->
<g id="edge41_Node000003_Node000046" class="edge">
<title>Node3&#45;&gt;Node46</title>
<g id="a_edge41_Node000003_Node000046"><a xlink:title=" ">
<path fill="none" stroke="#63b8ff" d="M225.14,-833.62C228.46,-744.02 246.49,-378.75 322,-299.5 327.78,-293.44 335.04,-289.12 342.88,-286.07"/>
<polygon fill="#63b8ff" stroke="#63b8ff" points="221.64,-833.65 224.79,-843.76 228.64,-833.89 221.64,-833.65"/>
</a>
</g>
</g>
<!-- Node47 -->
<g id="Node000047" class="node">
<title>Node47</title>
<g id="a_Node000047"><a xlink:href="class_p4_1_1_functions_inliner_1_1is_local_expression.html" target="_top" xlink:title=" ">
<polygon fill="white" stroke="#bfbfbf" points="463,-252.5 351,-252.5 351,-222.5 463,-222.5 463,-252.5"/>
<text text-anchor="start" x="359" y="-240.5" font-family="Helvetica,sans-Serif" font-size="10.00">P4::FunctionsInliner</text>
<text text-anchor="middle" x="407" y="-229.5" font-family="Helvetica,sans-Serif" font-size="10.00">::isLocalExpression</text>
</a>
</g>
</g>
<!-- Node3&#45;&gt;Node47 -->
<g id="edge42_Node000003_Node000047" class="edge">
<title>Node3&#45;&gt;Node47</title>
<g id="a_edge42_Node000003_Node000047"><a xlink:title=" ">
<path fill="none" stroke="#8b1a1a" d="M225.04,-833.6C227.93,-740.67 244.6,-350.3 322,-262.5 329.55,-253.94 339.88,-248.25 350.72,-244.48"/>
<polygon fill="#8b1a1a" stroke="#8b1a1a" points="221.54,-833.53 224.74,-843.63 228.53,-833.74 221.54,-833.53"/>
</a>
</g>
</g>
<!-- Node48 -->
<g id="Node000048" class="node">
<title>Node48</title>
<g id="a_Node000048"><a xlink:href="class_p4_1_1_has_table_apply.html" target="_top" xlink:title="Checks to see whether an IR node includes a table.apply() sub&#45;expression.">
<polygon fill="white" stroke="#666666" points="460.5,-204 353.5,-204 353.5,-185 460.5,-185 460.5,-204"/>
<text text-anchor="middle" x="407" y="-192" font-family="Helvetica,sans-Serif" font-size="10.00">P4::HasTableApply</text>
</a>
</g>
</g>
<!-- Node3&#45;&gt;Node48 -->
<g id="edge43_Node000003_Node000048" class="edge">
<title>Node3&#45;&gt;Node48</title>
<g id="a_edge43_Node000003_Node000048"><a xlink:title=" ">
<path fill="none" stroke="#63b8ff" d="M224.63,-833.42C225.7,-735.21 235.34,-306.57 322,-213.5 330.25,-204.64 341.69,-199.48 353.48,-196.57"/>
<polygon fill="#63b8ff" stroke="#63b8ff" points="221.13,-833.68 224.54,-843.71 228.13,-833.74 221.13,-833.68"/>
</a>
</g>
</g>
<!-- Node49 -->
<g id="Node000049" class="node">
<title>Node49</title>
<g id="a_Node000049"><a xlink:href="class_p4_1_1_instantiate_direct_calls.html" target="_top" xlink:title=" ">
<polygon fill="white" stroke="#bfbfbf" points="477,-167 337,-167 337,-148 477,-148 477,-167"/>
<text text-anchor="middle" x="407" y="-155" font-family="Helvetica,sans-Serif" font-size="10.00">P4::InstantiateDirectCalls</text>
</a>
</g>
</g>
<!-- Node3&#45;&gt;Node49 -->
<g id="edge44_Node000003_Node000049" class="edge">
<title>Node3&#45;&gt;Node49</title>
<g id="a_edge44_Node000003_Node000049"><a xlink:title=" ">
<path fill="none" stroke="#63b8ff" d="M224.45,-833.54C224.61,-732.21 230.46,-275.62 322,-176.5 326.26,-171.89 331.38,-168.28 336.97,-165.46"/>
<polygon fill="#63b8ff" stroke="#63b8ff" points="220.95,-833.64 224.45,-843.63 227.95,-833.63 220.95,-833.64"/>
</a>
</g>
</g>
<!-- Node50 -->
<g id="Node000050" class="node">
<title>Node50</title>
<g id="a_Node000050"><a xlink:href="class_p4_1_1_is_valid.html" target="_top" xlink:title=" ">
<polygon fill="white" stroke="#666666" points="440.5,-130 373.5,-130 373.5,-111 440.5,-111 440.5,-130"/>
<text text-anchor="middle" x="407" y="-118" font-family="Helvetica,sans-Serif" font-size="10.00">P4::IsValid</text>
</a>
</g>
</g>
<!-- Node3&#45;&gt;Node50 -->
<g id="edge45_Node000003_Node000050" class="edge">
<title>Node3&#45;&gt;Node50</title>
<g id="a_edge45_Node000003_Node000050"><a xlink:title=" ">
<path fill="none" stroke="#63b8ff" d="M224.28,-833.45C223.58,-728.66 225.64,-244.61 322,-139.5 334.83,-125.5 355.61,-120.72 373.28,-119.45"/>
<polygon fill="#63b8ff" stroke="#63b8ff" points="220.79,-833.63 224.37,-843.6 227.79,-833.57 220.79,-833.63"/>
</a>
</g>
</g>
<!-- Node51 -->
<g id="Node000051" class="node">
<title>Node51</title>
<g id="a_Node000051"><a xlink:href="class_p4_1_1_key_side_effect.html" target="_top" xlink:title=" ">
<polygon fill="#fff0f0" stroke="red" points="457.5,-93 356.5,-93 356.5,-74 457.5,-74 457.5,-93"/>
<text text-anchor="middle" x="407" y="-81" font-family="Helvetica,sans-Serif" font-size="10.00">P4::KeySideEffect</text>
</a>
</g>
</g>
<!-- Node3&#45;&gt;Node51 -->
<g id="edge46_Node000003_Node000051" class="edge">
<title>Node3&#45;&gt;Node51</title>
<g id="a_edge46_Node000003_Node000051"><a xlink:title=" ">
<path fill="none" stroke="#63b8ff" d="M224.14,-833.79C222.6,-726.51 220.67,-213.75 322,-102.5 330.86,-92.77 343.55,-87.49 356.4,-84.74"/>
<polygon fill="#63b8ff" stroke="#63b8ff" points="220.64,-833.92 224.3,-843.86 227.64,-833.8 220.64,-833.92"/>
</a>
</g>
</g>
<!-- Node53 -->
<g id="Node000053" class="node">
<title>Node53</title>
<g id="a_Node000053"><a xlink:href="class_p4_1_1_localize_actions.html" target="_top" xlink:title=" ">
<polygon fill="white" stroke="#bfbfbf" points="462,-56 352,-56 352,-37 462,-37 462,-56"/>
<text text-anchor="middle" x="407" y="-44" font-family="Helvetica,sans-Serif" font-size="10.00">P4::LocalizeActions</text>
</a>
</g>
</g>
<!-- Node3&#45;&gt;Node53 -->
<g id="edge47_Node000003_Node000053" class="edge">
<title>Node3&#45;&gt;Node53</title>
<g id="a_edge47_Node000003_Node000053"><a xlink:title=" ">
<path fill="none" stroke="#63b8ff" d="M225.62,-833.48C232.31,-716.48 268.67,-124.41 322,-65.5 329.83,-56.85 340.68,-51.71 351.99,-48.74"/>
<polygon fill="#63b8ff" stroke="#63b8ff" points="222.1,-833.63 225.03,-843.81 229.09,-834.02 222.1,-833.63"/>
</a>
</g>
</g>
<!-- Node54 -->
<g id="Node000054" class="node">
<title>Node54</title>
<g id="a_Node000054"><a xlink:href="class_p4_1_1_move_initializers.html" target="_top" xlink:title=" ">
<polygon fill="white" stroke="#666666" points="463.5,-19 350.5,-19 350.5,0 463.5,0 463.5,-19"/>
<text text-anchor="middle" x="407" y="-7" font-family="Helvetica,sans-Serif" font-size="10.00">P4::MoveInitializers</text>
</a>
</g>
</g>
<!-- Node3&#45;&gt;Node54 -->
<g id="edge48_Node000003_Node000054" class="edge">
<title>Node3&#45;&gt;Node54</title>
<g id="a_edge48_Node000003_Node000054"><a xlink:title=" ">
<path fill="none" stroke="#63b8ff" d="M225.49,-833.67C231.64,-713.93 266.2,-90.48 322,-28.5 329.4,-20.28 339.55,-15.22 350.22,-12.19"/>
<polygon fill="#63b8ff" stroke="#63b8ff" points="221.98,-833.75 224.97,-843.92 228.97,-834.11 221.98,-833.75"/>
</a>
</g>
</g>
</g>
</svg>
