<?xml version="1.0" encoding="UTF-8" standalone="no"?>
<!DOCTYPE svg PUBLIC "-//W3C//DTD SVG 1.1//EN"
 "http://www.w3.org/Graphics/SVG/1.1/DTD/svg11.dtd">
<!-- Generated by graphviz version 2.43.0 (0)
 -->
<!-- Title: P4::Model::Elem Pages: 1 -->
<svg width="825pt" height="935pt"
 viewBox="0.00 0.00 825.00 935.00" xmlns="http://www.w3.org/2000/svg" xmlns:xlink="http://www.w3.org/1999/xlink">
<g id="graph0" class="graph" transform="scale(1 1) rotate(0) translate(4 931)">
<title>P4::Model::Elem</title>
<!-- Node1 -->
<g id="Node000001" class="node">
<title>Node1</title>
<g id="a_Node000001"><a xlink:title=" ">
<polygon fill="#999999" stroke="#666666" points="95,-307.5 0,-307.5 0,-288.5 95,-288.5 95,-307.5"/>
<text text-anchor="middle" x="47.5" y="-295.5" font-family="Helvetica,sans-Serif" font-size="10.00">P4::Model::Elem</text>
</a>
</g>
</g>
<!-- Node2 -->
<g id="Node000002" class="node">
<title>Node2</title>
<g id="a_Node000002"><a xlink:href="struct_p4_1_1_e_b_p_f_1_1_filter___model.html" target="_top" xlink:title=" ">
<polygon fill="white" stroke="#bfbfbf" points="264,-583.5 139,-583.5 139,-564.5 264,-564.5 264,-583.5"/>
<text text-anchor="middle" x="201.5" y="-571.5" font-family="Helvetica,sans-Serif" font-size="10.00">P4::EBPF::Filter_Model</text>
</a>
</g>
</g>
<!-- Node1&#45;&gt;Node2 -->
<g id="edge1_Node000001_Node000002" class="edge">
<title>Node1&#45;&gt;Node2</title>
<g id="a_edge1_Node000001_Node000002"><a xlink:title=" ">
<path fill="none" stroke="#63b8ff" d="M48.71,-317.68C50.33,-365.79 61.4,-490.2 131,-556 134.62,-559.43 138.81,-562.22 143.3,-564.5"/>
<polygon fill="#63b8ff" stroke="#63b8ff" points="52.21,-317.57 48.48,-307.65 45.21,-317.73 52.21,-317.57"/>
</a>
</g>
</g>
<!-- Node3 -->
<g id="Node000003" class="node">
<title>Node3</title>
<g id="a_Node000003"><a xlink:href="struct_p4_1_1_e_b_p_f_1_1_xdp___model.html" target="_top" xlink:title=" ">
<polygon fill="white" stroke="#bfbfbf" points="261,-546.5 142,-546.5 142,-527.5 261,-527.5 261,-546.5"/>
<text text-anchor="middle" x="201.5" y="-534.5" font-family="Helvetica,sans-Serif" font-size="10.00">P4::EBPF::Xdp_Model</text>
</a>
</g>
</g>
<!-- Node1&#45;&gt;Node3 -->
<g id="edge2_Node000001_Node000003" class="edge">
<title>Node1&#45;&gt;Node3</title>
<g id="a_edge2_Node000001_Node000003"><a xlink:title=" ">
<path fill="none" stroke="#63b8ff" d="M49.93,-317.75C54.16,-360.95 70.4,-464.39 131,-519 134.8,-522.42 139.16,-525.21 143.81,-527.48"/>
<polygon fill="#63b8ff" stroke="#63b8ff" points="53.41,-317.34 49.06,-307.68 46.44,-317.95 53.41,-317.34"/>
</a>
</g>
</g>
<!-- Node4 -->
<g id="Node000004" class="node">
<title>Node4</title>
<g id="a_Node000004"><a xlink:href="struct_p4_1_1_model_1_1_param___model.html" target="_top" xlink:title="Param_Model : Elem.">
<polygon fill="white" stroke="#666666" points="270,-509.5 133,-509.5 133,-490.5 270,-490.5 270,-509.5"/>
<text text-anchor="middle" x="201.5" y="-497.5" font-family="Helvetica,sans-Serif" font-size="10.00">P4::Model::Param_Model</text>
</a>
</g>
</g>
<!-- Node1&#45;&gt;Node4 -->
<g id="edge3_Node000001_Node000004" class="edge">
<title>Node1&#45;&gt;Node4</title>
<g id="a_edge3_Node000001_Node000004"><a xlink:title=" ">
<path fill="none" stroke="#63b8ff" d="M51.65,-318.01C58.7,-355.93 79.37,-438.4 131,-482 135,-485.38 139.56,-488.13 144.38,-490.38"/>
<polygon fill="#63b8ff" stroke="#63b8ff" points="55.03,-317.02 49.88,-307.76 48.13,-318.21 55.03,-317.02"/>
</a>
</g>
</g>
<!-- Node5 -->
<g id="Node000005" class="node">
<title>Node5</title>
<g id="a_Node000005"><a xlink:href="struct_p4_1_1_model_1_1_type___model.html" target="_top" xlink:title=" ">
<polygon fill="white" stroke="#bfbfbf" points="265.5,-472.5 137.5,-472.5 137.5,-453.5 265.5,-453.5 265.5,-472.5"/>
<text text-anchor="middle" x="201.5" y="-460.5" font-family="Helvetica,sans-Serif" font-size="10.00">P4::Model::Type_Model</text>
</a>
</g>
</g>
<!-- Node1&#45;&gt;Node5 -->
<g id="edge4_Node000001_Node000005" class="edge">
<title>Node1&#45;&gt;Node5</title>
<g id="a_edge4_Node000001_Node000005"><a xlink:title=" ">
<path fill="none" stroke="#63b8ff" d="M53.95,-317.48C63.85,-349.19 87.86,-411.77 131,-445 135.44,-448.42 140.47,-451.2 145.74,-453.45"/>
<polygon fill="#63b8ff" stroke="#63b8ff" points="57.23,-316.24 51.03,-307.65 50.52,-318.23 57.23,-316.24"/>
</a>
</g>
</g>
<!-- Node29 -->
<g id="Node000029" class="node">
<title>Node29</title>
<g id="a_Node000029"><a xlink:href="class_p4_1_1_p4_exception___model.html" target="_top" xlink:title=" ">
<polygon fill="white" stroke="#bfbfbf" points="266.5,-435.5 136.5,-435.5 136.5,-416.5 266.5,-416.5 266.5,-435.5"/>
<text text-anchor="middle" x="201.5" y="-423.5" font-family="Helvetica,sans-Serif" font-size="10.00">P4::P4Exception_Model</text>
</a>
</g>
</g>
<!-- Node1&#45;&gt;Node29 -->
<g id="edge28_Node000001_Node000029" class="edge">
<title>Node1&#45;&gt;Node29</title>
<g id="a_edge28_Node000001_Node000029"><a xlink:title=" ">
<path fill="none" stroke="#63b8ff" d="M57.55,-316.51C70.45,-340.96 96.45,-383.62 131,-407 136.7,-410.86 143.16,-413.93 149.78,-416.38"/>
<polygon fill="#63b8ff" stroke="#63b8ff" points="60.64,-314.86 52.97,-307.55 54.4,-318.05 60.64,-314.86"/>
</a>
</g>
</g>
<!-- Node30 -->
<g id="Node000030" class="node">
<title>Node30</title>
<g id="a_Node000030"><a xlink:href="struct_p4_1_1_p4_v1_1_1_control___model.html" target="_top" xlink:title=" ">
<polygon fill="white" stroke="#bfbfbf" points="269.5,-398.5 133.5,-398.5 133.5,-379.5 269.5,-379.5 269.5,-398.5"/>
<text text-anchor="middle" x="201.5" y="-386.5" font-family="Helvetica,sans-Serif" font-size="10.00">P4::P4V1::Control_Model</text>
</a>
</g>
</g>
<!-- Node1&#45;&gt;Node30 -->
<g id="edge29_Node000001_Node000030" class="edge">
<title>Node1&#45;&gt;Node30</title>
<g id="a_edge29_Node000001_Node000030"><a xlink:title=" ">
<path fill="none" stroke="#63b8ff" d="M64.26,-315.74C79.73,-332.11 104.75,-355.92 131,-370 138.17,-373.84 146.17,-376.96 154.13,-379.47"/>
<polygon fill="#63b8ff" stroke="#63b8ff" points="66.44,-312.94 57.09,-307.96 61.29,-317.69 66.44,-312.94"/>
</a>
</g>
</g>
<!-- Node31 -->
<g id="Node000031" class="node">
<title>Node31</title>
<g id="a_Node000031"><a xlink:href="struct_p4_1_1_p4_v1_1_1_deparser___model.html" target="_top" xlink:title=" ">
<polygon fill="white" stroke="#bfbfbf" points="256.5,-361 146.5,-361 146.5,-331 256.5,-331 256.5,-361"/>
<text text-anchor="start" x="154.5" y="-349" font-family="Helvetica,sans-Serif" font-size="10.00">P4::P4V1::Deparser</text>
<text text-anchor="middle" x="201.5" y="-338" font-family="Helvetica,sans-Serif" font-size="10.00">_Model</text>
</a>
</g>
</g>
<!-- Node1&#45;&gt;Node31 -->
<g id="edge30_Node000001_Node000031" class="edge">
<title>Node1&#45;&gt;Node31</title>
<g id="a_edge30_Node000001_Node000031"><a xlink:title=" ">
<path fill="none" stroke="#63b8ff" d="M88.49,-310.63C108.21,-316.86 132.13,-324.41 152.8,-330.94"/>
<polygon fill="#63b8ff" stroke="#63b8ff" points="89.48,-307.27 78.89,-307.6 87.38,-313.95 89.48,-307.27"/>
</a>
</g>
</g>
<!-- Node32 -->
<g id="Node000032" class="node">
<title>Node32</title>
<g id="a_Node000032"><a xlink:href="struct_p4_1_1_p4_v1_1_1_digest_receiver___model.html" target="_top" xlink:title=" ">
<polygon fill="white" stroke="#bfbfbf" points="271.5,-313 131.5,-313 131.5,-283 271.5,-283 271.5,-313"/>
<text text-anchor="start" x="139.5" y="-301" font-family="Helvetica,sans-Serif" font-size="10.00">P4::P4V1::DigestReceiver</text>
<text text-anchor="middle" x="201.5" y="-290" font-family="Helvetica,sans-Serif" font-size="10.00">_Model</text>
</a>
</g>
</g>
<!-- Node1&#45;&gt;Node32 -->
<g id="edge31_Node000001_Node000032" class="edge">
<title>Node1&#45;&gt;Node32</title>
<g id="a_edge31_Node000001_Node000032"><a xlink:title=" ">
<path fill="none" stroke="#63b8ff" d="M105.48,-298C113.96,-298 122.77,-298 131.46,-298"/>
<polygon fill="#63b8ff" stroke="#63b8ff" points="105.35,-294.5 95.35,-298 105.35,-301.5 105.35,-294.5"/>
</a>
</g>
</g>
<!-- Node33 -->
<g id="Node000033" class="node">
<title>Node33</title>
<g id="a_Node000033"><a xlink:href="struct_p4_1_1_p4_v1_1_1_hash___model.html" target="_top" xlink:title=" ">
<polygon fill="white" stroke="#bfbfbf" points="264,-264.5 139,-264.5 139,-245.5 264,-245.5 264,-264.5"/>
<text text-anchor="middle" x="201.5" y="-252.5" font-family="Helvetica,sans-Serif" font-size="10.00">P4::P4V1::Hash_Model</text>
</a>
</g>
</g>
<!-- Node1&#45;&gt;Node33 -->
<g id="edge32_Node000001_Node000033" class="edge">
<title>Node1&#45;&gt;Node33</title>
<g id="a_edge32_Node000001_Node000033"><a xlink:title=" ">
<path fill="none" stroke="#63b8ff" d="M90.97,-285.5C103.82,-281.76 117.97,-277.68 131,-274 142.08,-270.88 154.17,-267.54 165.11,-264.55"/>
<polygon fill="#63b8ff" stroke="#63b8ff" points="89.61,-282.25 80.99,-288.42 91.57,-288.97 89.61,-282.25"/>
</a>
</g>
</g>
<!-- Node34 -->
<g id="Node000034" class="node">
<title>Node34</title>
<g id="a_Node000034"><a xlink:href="struct_p4_1_1_p4_v1_1_1_parser___model.html" target="_top" xlink:title=" ">
<polygon fill="white" stroke="#bfbfbf" points="267,-227.5 136,-227.5 136,-208.5 267,-208.5 267,-227.5"/>
<text text-anchor="middle" x="201.5" y="-215.5" font-family="Helvetica,sans-Serif" font-size="10.00">P4::P4V1::Parser_Model</text>
</a>
</g>
</g>
<!-- Node1&#45;&gt;Node34 -->
<g id="edge33_Node000001_Node000034" class="edge">
<title>Node1&#45;&gt;Node34</title>
<g id="a_edge33_Node000001_Node000034"><a xlink:title=" ">
<path fill="none" stroke="#63b8ff" d="M66.27,-281.35C82.12,-267.35 106.53,-247.79 131,-236 137.96,-232.65 145.63,-229.86 153.25,-227.57"/>
<polygon fill="#63b8ff" stroke="#63b8ff" points="63.88,-278.79 58.81,-288.1 68.57,-283.99 63.88,-278.79"/>
</a>
</g>
</g>
<!-- Node35 -->
<g id="Node000035" class="node">
<title>Node35</title>
<g id="a_Node000035"><a xlink:href="struct_p4_1_1_p4_v1_1_1_random___model.html" target="_top" xlink:title=" ">
<polygon fill="white" stroke="#bfbfbf" points="272,-190.5 131,-190.5 131,-171.5 272,-171.5 272,-190.5"/>
<text text-anchor="middle" x="201.5" y="-178.5" font-family="Helvetica,sans-Serif" font-size="10.00">P4::P4V1::Random_Model</text>
</a>
</g>
</g>
<!-- Node1&#45;&gt;Node35 -->
<g id="edge34_Node000001_Node000035" class="edge">
<title>Node1&#45;&gt;Node35</title>
<g id="a_edge34_Node000001_Node000035"><a xlink:title=" ">
<path fill="none" stroke="#63b8ff" d="M58.91,-279.52C72.55,-257.03 98.57,-219.55 131,-199 136.37,-195.6 142.36,-192.84 148.51,-190.6"/>
<polygon fill="#63b8ff" stroke="#63b8ff" points="55.74,-278.01 53.69,-288.41 61.77,-281.55 55.74,-278.01"/>
</a>
</g>
</g>
<!-- Node36 -->
<g id="Node000036" class="node">
<title>Node36</title>
<g id="a_Node000036"><a xlink:href="struct_p4_1_1_p4_v1_1_1_switch___model.html" target="_top" xlink:title=" ">
<polygon fill="white" stroke="#bfbfbf" points="268,-153.5 135,-153.5 135,-134.5 268,-134.5 268,-153.5"/>
<text text-anchor="middle" x="201.5" y="-141.5" font-family="Helvetica,sans-Serif" font-size="10.00">P4::P4V1::Switch_Model</text>
</a>
</g>
</g>
<!-- Node1&#45;&gt;Node36 -->
<g id="edge35_Node000001_Node000036" class="edge">
<title>Node1&#45;&gt;Node36</title>
<g id="a_edge35_Node000001_Node000036"><a xlink:title=" ">
<path fill="none" stroke="#63b8ff" d="M54.82,-278.72C65.59,-248.99 90.34,-192.24 131,-162 135.6,-158.58 140.79,-155.81 146.21,-153.56"/>
<polygon fill="#63b8ff" stroke="#63b8ff" points="51.45,-277.75 51.49,-288.35 58.07,-280.04 51.45,-277.75"/>
</a>
</g>
</g>
<!-- Node37 -->
<g id="Node000037" class="node">
<title>Node37</title>
<g id="a_Node000037"><a xlink:href="struct_p4_1_1_p4_v1_1_1_verify_update___model.html" target="_top" xlink:title=" ">
<polygon fill="white" stroke="#bfbfbf" points="265.5,-116 137.5,-116 137.5,-86 265.5,-86 265.5,-116"/>
<text text-anchor="start" x="145.5" y="-104" font-family="Helvetica,sans-Serif" font-size="10.00">P4::P4V1::VerifyUpdate</text>
<text text-anchor="middle" x="201.5" y="-93" font-family="Helvetica,sans-Serif" font-size="10.00">_Model</text>
</a>
</g>
</g>
<!-- Node1&#45;&gt;Node37 -->
<g id="edge36_Node000001_Node000037" class="edge">
<title>Node1&#45;&gt;Node37</title>
<g id="a_edge36_Node000001_Node000037"><a xlink:title=" ">
<path fill="none" stroke="#63b8ff" d="M52.67,-278.05C61.15,-242.33 83.75,-167.21 131,-125 134.81,-121.6 139.12,-118.67 143.69,-116.16"/>
<polygon fill="#63b8ff" stroke="#63b8ff" points="49.17,-277.66 50.4,-288.18 56,-279.19 49.17,-277.66"/>
</a>
</g>
</g>
<!-- Node38 -->
<g id="Node000038" class="node">
<title>Node38</title>
<g id="a_Node000038"><a xlink:href="struct_p4_1_1_u_b_p_f_1_1_hash___model.html" target="_top" xlink:title=" ">
<polygon fill="white" stroke="#bfbfbf" points="264.5,-67.5 138.5,-67.5 138.5,-48.5 264.5,-48.5 264.5,-67.5"/>
<text text-anchor="middle" x="201.5" y="-55.5" font-family="Helvetica,sans-Serif" font-size="10.00">P4::UBPF::Hash_Model</text>
</a>
</g>
</g>
<!-- Node1&#45;&gt;Node38 -->
<g id="edge37_Node000001_Node000038" class="edge">
<title>Node1&#45;&gt;Node38</title>
<g id="a_edge37_Node000001_Node000038"><a xlink:title=" ">
<path fill="none" stroke="#63b8ff" d="M49.99,-278.31C54.32,-235.23 70.77,-132.02 131,-77 135.25,-73.12 140.21,-70.02 145.5,-67.55"/>
<polygon fill="#63b8ff" stroke="#63b8ff" points="46.49,-278.08 49.09,-288.35 53.47,-278.7 46.49,-278.08"/>
</a>
</g>
</g>
<!-- Node39 -->
<g id="Node000039" class="node">
<title>Node39</title>
<g id="a_Node000039"><a xlink:href="struct_p4_1_1_u_b_p_f_1_1_pipeline___model.html" target="_top" xlink:title=" ">
<polygon fill="white" stroke="#bfbfbf" points="254,-30 149,-30 149,0 254,0 254,-30"/>
<text text-anchor="start" x="157" y="-18" font-family="Helvetica,sans-Serif" font-size="10.00">P4::UBPF::Pipeline</text>
<text text-anchor="middle" x="201.5" y="-7" font-family="Helvetica,sans-Serif" font-size="10.00">_Model</text>
</a>
</g>
</g>
<!-- Node1&#45;&gt;Node39 -->
<g id="edge38_Node000001_Node000039" class="edge">
<title>Node1&#45;&gt;Node39</title>
<g id="a_edge38_Node000001_Node000039"><a xlink:title=" ">
<path fill="none" stroke="#63b8ff" d="M49.03,-278.28C51.39,-230.54 64,-107.63 131,-39 135.99,-33.88 142.13,-29.86 148.67,-26.69"/>
<polygon fill="#63b8ff" stroke="#63b8ff" points="45.53,-278.35 48.63,-288.48 52.52,-278.63 45.53,-278.35"/>
</a>
</g>
</g>
<!-- Node6 -->
<g id="Node000006" class="node">
<title>Node6</title>
<g id="a_Node000006"><a xlink:href="struct_p4_1_1_model_1_1_enum___model.html" target="_top" xlink:title="Enum_Model : Type_Model.">
<polygon fill="white" stroke="#666666" points="452.5,-801.5 318.5,-801.5 318.5,-782.5 452.5,-782.5 452.5,-801.5"/>
<text text-anchor="middle" x="385.5" y="-789.5" font-family="Helvetica,sans-Serif" font-size="10.00">P4::Model::Enum_Model</text>
</a>
</g>
</g>
<!-- Node5&#45;&gt;Node6 -->
<g id="edge5_Node000005_Node000006" class="edge">
<title>Node5&#45;&gt;Node6</title>
<g id="a_edge5_Node000005_Node000006"><a xlink:title=" ">
<path fill="none" stroke="#63b8ff" d="M266.51,-477.63C268.44,-478.96 270.28,-480.42 272,-482 366.08,-568.73 381.64,-740.31 384.07,-782.47"/>
<polygon fill="#63b8ff" stroke="#63b8ff" points="267.95,-474.42 257.53,-472.51 264.49,-480.5 267.95,-474.42"/>
</a>
</g>
</g>
<!-- Node12 -->
<g id="Node000012" class="node">
<title>Node12</title>
<g id="a_Node000012"><a xlink:href="struct_p4_1_1_model_1_1_extern___model.html" target="_top" xlink:title="Extern_Model : Type_Model.">
<polygon fill="white" stroke="#666666" points="454,-472.5 317,-472.5 317,-453.5 454,-453.5 454,-472.5"/>
<text text-anchor="middle" x="385.5" y="-460.5" font-family="Helvetica,sans-Serif" font-size="10.00">P4::Model::Extern_Model</text>
</a>
</g>
</g>
<!-- Node5&#45;&gt;Node12 -->
<g id="edge11_Node000005_Node000012" class="edge">
<title>Node5&#45;&gt;Node12</title>
<g id="a_edge11_Node000005_Node000012"><a xlink:title=" ">
<path fill="none" stroke="#63b8ff" d="M275.86,-463C289.39,-463 303.46,-463 316.82,-463"/>
<polygon fill="#63b8ff" stroke="#63b8ff" points="275.64,-459.5 265.64,-463 275.64,-466.5 275.64,-459.5"/>
</a>
</g>
</g>
<!-- Node28 -->
<g id="Node000028" class="node">
<title>Node28</title>
<g id="a_Node000028"><a xlink:href="struct_p4_1_1_p4_v1_1_1_standard_metadata_type___model.html" target="_top" xlink:title=" ">
<polygon fill="white" stroke="#bfbfbf" points="463,-435 308,-435 308,-405 463,-405 463,-435"/>
<text text-anchor="start" x="316" y="-423" font-family="Helvetica,sans-Serif" font-size="10.00">P4::P4V1::StandardMetadata</text>
<text text-anchor="middle" x="385.5" y="-412" font-family="Helvetica,sans-Serif" font-size="10.00">Type_Model</text>
</a>
</g>
</g>
<!-- Node5&#45;&gt;Node28 -->
<g id="edge27_Node000005_Node000028" class="edge">
<title>Node5&#45;&gt;Node28</title>
<g id="a_edge27_Node000005_Node000028"><a xlink:title=" ">
<path fill="none" stroke="#63b8ff" d="M252.63,-451.16C273.76,-446.16 298.6,-440.3 320.98,-435.01"/>
<polygon fill="#63b8ff" stroke="#63b8ff" points="251.82,-447.75 242.89,-453.46 253.43,-454.56 251.82,-447.75"/>
</a>
</g>
</g>
<!-- Node7 -->
<g id="Node000007" class="node">
<title>Node7</title>
<g id="a_Node000007"><a xlink:href="struct_p4_1_1_p4_v1_1_1_algorithm___model.html" target="_top" xlink:title=" ">
<polygon fill="white" stroke="#bfbfbf" points="627,-927 514,-927 514,-897 627,-897 627,-927"/>
<text text-anchor="start" x="522" y="-915" font-family="Helvetica,sans-Serif" font-size="10.00">P4::P4V1::Algorithm</text>
<text text-anchor="middle" x="570.5" y="-904" font-family="Helvetica,sans-Serif" font-size="10.00">_Model</text>
</a>
</g>
</g>
<!-- Node6&#45;&gt;Node7 -->
<g id="edge6_Node000006_Node000007" class="edge">
<title>Node6&#45;&gt;Node7</title>
<g id="a_edge6_Node000006_Node000007"><a xlink:title=" ">
<path fill="none" stroke="#63b8ff" d="M402.17,-808.84C422.63,-829.95 460.41,-866.05 499,-888 504.84,-891.32 511.22,-894.29 517.68,-896.9"/>
<polygon fill="#63b8ff" stroke="#63b8ff" points="404.64,-806.36 395.21,-801.54 399.57,-811.19 404.64,-806.36"/>
</a>
</g>
</g>
<!-- Node8 -->
<g id="Node000008" class="node">
<title>Node8</title>
<g id="a_Node000008"><a xlink:href="struct_p4_1_1_p4_v1_1_1_clone_type___model.html" target="_top" xlink:title=" ">
<polygon fill="white" stroke="#bfbfbf" points="628.5,-879 512.5,-879 512.5,-849 628.5,-849 628.5,-879"/>
<text text-anchor="start" x="520.5" y="-867" font-family="Helvetica,sans-Serif" font-size="10.00">P4::P4V1::CloneType</text>
<text text-anchor="middle" x="570.5" y="-856" font-family="Helvetica,sans-Serif" font-size="10.00">_Model</text>
</a>
</g>
</g>
<!-- Node6&#45;&gt;Node8 -->
<g id="edge7_Node000006_Node000008" class="edge">
<title>Node6&#45;&gt;Node8</title>
<g id="a_edge7_Node000006_Node000008"><a xlink:title=" ">
<path fill="none" stroke="#63b8ff" d="M416.81,-805.67C439.31,-815.63 470.84,-829.22 499,-840 506.85,-843.01 515.26,-846.03 523.43,-848.87"/>
<polygon fill="#63b8ff" stroke="#63b8ff" points="418.02,-802.37 407.46,-801.5 415.17,-808.77 418.02,-802.37"/>
</a>
</g>
</g>
<!-- Node9 -->
<g id="Node000009" class="node">
<title>Node9</title>
<g id="a_Node000009"><a xlink:href="struct_p4_1_1_p4_v1_1_1_counter_type___model.html" target="_top" xlink:title=" ">
<polygon fill="white" stroke="#bfbfbf" points="633.5,-831 507.5,-831 507.5,-801 633.5,-801 633.5,-831"/>
<text text-anchor="start" x="515.5" y="-819" font-family="Helvetica,sans-Serif" font-size="10.00">P4::P4V1::CounterType</text>
<text text-anchor="middle" x="570.5" y="-808" font-family="Helvetica,sans-Serif" font-size="10.00">_Model</text>
</a>
</g>
</g>
<!-- Node6&#45;&gt;Node9 -->
<g id="edge8_Node000006_Node000009" class="edge">
<title>Node6&#45;&gt;Node9</title>
<g id="a_edge8_Node000006_Node000009"><a xlink:title=" ">
<path fill="none" stroke="#63b8ff" d="M462.77,-802C477.67,-803.96 493.13,-805.98 507.5,-807.87"/>
<polygon fill="#63b8ff" stroke="#63b8ff" points="462.94,-798.49 452.57,-800.66 462.03,-805.44 462.94,-798.49"/>
</a>
</g>
</g>
<!-- Node10 -->
<g id="Node000010" class="node">
<title>Node10</title>
<g id="a_Node000010"><a xlink:href="struct_p4_1_1_p4_v1_1_1_meter_type___model.html" target="_top" xlink:title=" ">
<polygon fill="white" stroke="#bfbfbf" points="628.5,-783 512.5,-783 512.5,-753 628.5,-753 628.5,-783"/>
<text text-anchor="start" x="520.5" y="-771" font-family="Helvetica,sans-Serif" font-size="10.00">P4::P4V1::MeterType</text>
<text text-anchor="middle" x="570.5" y="-760" font-family="Helvetica,sans-Serif" font-size="10.00">_Model</text>
</a>
</g>
</g>
<!-- Node6&#45;&gt;Node10 -->
<g id="edge9_Node000006_Node000010" class="edge">
<title>Node6&#45;&gt;Node10</title>
<g id="a_edge9_Node000006_Node000010"><a xlink:title=" ">
<path fill="none" stroke="#63b8ff" d="M462.78,-782C479.35,-779.82 496.62,-777.56 512.3,-775.5"/>
<polygon fill="#63b8ff" stroke="#63b8ff" points="462.03,-778.56 452.57,-783.34 462.94,-785.51 462.03,-778.56"/>
</a>
</g>
</g>
<!-- Node11 -->
<g id="Node000011" class="node">
<title>Node11</title>
<g id="a_Node000011"><a xlink:href="struct_p4_1_1_u_b_p_f_1_1_algorithm___model.html" target="_top" xlink:title=" ">
<polygon fill="white" stroke="#bfbfbf" points="627.5,-735 513.5,-735 513.5,-705 627.5,-705 627.5,-735"/>
<text text-anchor="start" x="521.5" y="-723" font-family="Helvetica,sans-Serif" font-size="10.00">P4::UBPF::Algorithm</text>
<text text-anchor="middle" x="570.5" y="-712" font-family="Helvetica,sans-Serif" font-size="10.00">_Model</text>
</a>
</g>
</g>
<!-- Node6&#45;&gt;Node11 -->
<g id="edge10_Node000006_Node000011" class="edge">
<title>Node6&#45;&gt;Node11</title>
<g id="a_edge10_Node000006_Node000011"><a xlink:title=" ">
<path fill="none" stroke="#63b8ff" d="M416.81,-778.33C439.31,-768.37 470.84,-754.78 499,-744 506.85,-740.99 515.26,-737.97 523.43,-735.13"/>
<polygon fill="#63b8ff" stroke="#63b8ff" points="415.17,-775.23 407.46,-782.5 418.02,-781.63 415.17,-775.23"/>
</a>
</g>
</g>
<!-- Node13 -->
<g id="Node000013" class="node">
<title>Node13</title>
<g id="a_Node000013"><a xlink:href="struct_p4_1_1_e_b_p_f_1_1_counter_array___model.html" target="_top" xlink:title=" ">
<polygon fill="white" stroke="#bfbfbf" points="635,-687 506,-687 506,-657 635,-657 635,-687"/>
<text text-anchor="start" x="514" y="-675" font-family="Helvetica,sans-Serif" font-size="10.00">P4::EBPF::CounterArray</text>
<text text-anchor="middle" x="570.5" y="-664" font-family="Helvetica,sans-Serif" font-size="10.00">_Model</text>
</a>
</g>
</g>
<!-- Node12&#45;&gt;Node13 -->
<g id="edge12_Node000012_Node000013" class="edge">
<title>Node12&#45;&gt;Node13</title>
<g id="a_edge12_Node000012_Node000013"><a xlink:title=" ">
<path fill="none" stroke="#63b8ff" d="M393.12,-482.34C406.89,-519.77 442.17,-602.39 499,-648 503.24,-651.4 507.98,-654.33 512.95,-656.85"/>
<polygon fill="#63b8ff" stroke="#63b8ff" points="396.32,-480.91 389.67,-472.66 389.73,-483.26 396.32,-480.91"/>
</a>
</g>
</g>
<!-- Node14 -->
<g id="Node000014" class="node">
<title>Node14</title>
<g id="a_Node000014"><a xlink:href="struct_p4_1_1_e_b_p_f_1_1_table_impl___model.html" target="_top" xlink:title=" ">
<polygon fill="white" stroke="#bfbfbf" points="626.5,-639 514.5,-639 514.5,-609 626.5,-609 626.5,-639"/>
<text text-anchor="start" x="522.5" y="-627" font-family="Helvetica,sans-Serif" font-size="10.00">P4::EBPF::TableImpl</text>
<text text-anchor="middle" x="570.5" y="-616" font-family="Helvetica,sans-Serif" font-size="10.00">_Model</text>
</a>
</g>
</g>
<!-- Node12&#45;&gt;Node14 -->
<g id="edge13_Node000012_Node000014" class="edge">
<title>Node12&#45;&gt;Node14</title>
<g id="a_edge13_Node000012_Node000014"><a xlink:title=" ">
<path fill="none" stroke="#63b8ff" d="M396.84,-481.25C414.25,-510.43 452.17,-567.57 499,-600 503.89,-603.39 509.3,-606.33 514.88,-608.88"/>
<polygon fill="#63b8ff" stroke="#63b8ff" points="399.8,-479.38 391.73,-472.51 393.75,-482.91 399.8,-479.38"/>
</a>
</g>
</g>
<!-- Node15 -->
<g id="Node000015" class="node">
<title>Node15</title>
<g id="a_Node000015"><a xlink:href="struct_p4_1_1_p4_v1_1_1_action_profile___model.html" target="_top" xlink:title=" ">
<polygon fill="white" stroke="#bfbfbf" points="634,-591 507,-591 507,-561 634,-561 634,-591"/>
<text text-anchor="start" x="515" y="-579" font-family="Helvetica,sans-Serif" font-size="10.00">P4::P4V1::ActionProfile</text>
<text text-anchor="middle" x="570.5" y="-568" font-family="Helvetica,sans-Serif" font-size="10.00">_Model</text>
</a>
</g>
</g>
<!-- Node12&#45;&gt;Node15 -->
<g id="edge14_Node000012_Node000015" class="edge">
<title>Node12&#45;&gt;Node15</title>
<g id="a_edge14_Node000012_Node000015"><a xlink:title=" ">
<path fill="none" stroke="#63b8ff" d="M403.66,-479.7C424.63,-499.34 461.93,-531.81 499,-552 505.13,-555.34 511.81,-558.34 518.54,-560.99"/>
<polygon fill="#63b8ff" stroke="#63b8ff" points="405.86,-476.97 396.2,-472.62 401.04,-482.04 405.86,-476.97"/>
</a>
</g>
</g>
<!-- Node16 -->
<g id="Node000016" class="node">
<title>Node16</title>
<g id="a_Node000016"><a xlink:href="struct_p4_1_1_p4_v1_1_1_action_selector___model.html" target="_top" xlink:title=" ">
<polygon fill="white" stroke="#bfbfbf" points="638.5,-543 502.5,-543 502.5,-513 638.5,-513 638.5,-543"/>
<text text-anchor="start" x="510.5" y="-531" font-family="Helvetica,sans-Serif" font-size="10.00">P4::P4V1::ActionSelector</text>
<text text-anchor="middle" x="570.5" y="-520" font-family="Helvetica,sans-Serif" font-size="10.00">_Model</text>
</a>
</g>
</g>
<!-- Node12&#45;&gt;Node16 -->
<g id="edge15_Node000012_Node000016" class="edge">
<title>Node12&#45;&gt;Node16</title>
<g id="a_edge15_Node000012_Node000016"><a xlink:title=" ">
<path fill="none" stroke="#63b8ff" d="M421.99,-476.15C444.1,-484.29 473.16,-494.89 499,-504 507.29,-506.92 516.15,-509.99 524.7,-512.91"/>
<polygon fill="#63b8ff" stroke="#63b8ff" points="422.95,-472.78 412.36,-472.6 420.53,-479.35 422.95,-472.78"/>
</a>
</g>
</g>
<!-- Node17 -->
<g id="Node000017" class="node">
<title>Node17</title>
<g id="a_Node000017"><a xlink:href="struct_p4_1_1_p4_v1_1_1_cloner___model.html" target="_top" xlink:title=" ">
<polygon fill="white" stroke="#bfbfbf" points="636.5,-494.5 504.5,-494.5 504.5,-475.5 636.5,-475.5 636.5,-494.5"/>
<text text-anchor="middle" x="570.5" y="-482.5" font-family="Helvetica,sans-Serif" font-size="10.00">P4::P4V1::Cloner_Model</text>
</a>
</g>
</g>
<!-- Node12&#45;&gt;Node17 -->
<g id="edge16_Node000012_Node000017" class="edge">
<title>Node12&#45;&gt;Node17</title>
<g id="a_edge16_Node000012_Node000017"><a xlink:title=" ">
<path fill="none" stroke="#63b8ff" d="M464.23,-472.34C477.57,-473.95 491.31,-475.6 504.29,-477.16"/>
<polygon fill="#63b8ff" stroke="#63b8ff" points="464.47,-468.85 454.12,-471.13 463.63,-475.8 464.47,-468.85"/>
</a>
</g>
</g>
<!-- Node18 -->
<g id="Node000018" class="node">
<title>Node18</title>
<g id="a_Node000018"><a xlink:href="struct_p4_1_1_p4_v1_1_1_counter_or_meter___model.html" target="_top" xlink:title=" ">
<polygon fill="white" stroke="#bfbfbf" points="642,-457 499,-457 499,-427 642,-427 642,-457"/>
<text text-anchor="start" x="507" y="-445" font-family="Helvetica,sans-Serif" font-size="10.00">P4::P4V1::CounterOrMeter</text>
<text text-anchor="middle" x="570.5" y="-434" font-family="Helvetica,sans-Serif" font-size="10.00">_Model</text>
</a>
</g>
</g>
<!-- Node12&#45;&gt;Node18 -->
<g id="edge17_Node000012_Node000018" class="edge">
<title>Node12&#45;&gt;Node18</title>
<g id="a_edge17_Node000012_Node000018"><a xlink:title=" ">
<path fill="none" stroke="#63b8ff" d="M464.13,-454.09C475.63,-452.77 487.43,-451.42 498.78,-450.12"/>
<polygon fill="#63b8ff" stroke="#63b8ff" points="463.66,-450.62 454.12,-455.24 464.46,-457.58 463.66,-450.62"/>
</a>
</g>
</g>
<!-- Node23 -->
<g id="Node000023" class="node">
<title>Node23</title>
<g id="a_Node000023"><a xlink:href="struct_p4_1_1_p4_v1_1_1_register___model.html" target="_top" xlink:title=" ">
<polygon fill="white" stroke="#bfbfbf" points="623.5,-409 517.5,-409 517.5,-379 623.5,-379 623.5,-409"/>
<text text-anchor="start" x="525.5" y="-397" font-family="Helvetica,sans-Serif" font-size="10.00">P4::P4V1::Register</text>
<text text-anchor="middle" x="570.5" y="-386" font-family="Helvetica,sans-Serif" font-size="10.00">_Model</text>
</a>
</g>
</g>
<!-- Node12&#45;&gt;Node23 -->
<g id="edge22_Node000012_Node000023" class="edge">
<title>Node12&#45;&gt;Node23</title>
<g id="a_edge22_Node000012_Node000023"><a xlink:title=" ">
<path fill="none" stroke="#63b8ff" d="M446.45,-450.48C452.15,-448.58 457.75,-446.44 463,-444 480.9,-435.69 481.46,-427.06 499,-418 505.32,-414.74 512.18,-411.77 519.05,-409.12"/>
<polygon fill="#63b8ff" stroke="#63b8ff" points="445.37,-447.15 436.83,-453.42 447.42,-453.84 445.37,-447.15"/>
</a>
</g>
</g>
<!-- Node24 -->
<g id="Node000024" class="node">
<title>Node24</title>
<g id="a_Node000024"><a xlink:href="class_p4_1_1_p4_v1_1_1_truncate.html" target="_top" xlink:title=" ">
<polygon fill="white" stroke="#bfbfbf" points="624,-360.5 517,-360.5 517,-341.5 624,-341.5 624,-360.5"/>
<text text-anchor="middle" x="570.5" y="-348.5" font-family="Helvetica,sans-Serif" font-size="10.00">P4::P4V1::Truncate</text>
</a>
</g>
</g>
<!-- Node12&#45;&gt;Node24 -->
<g id="edge23_Node000012_Node000024" class="edge">
<title>Node12&#45;&gt;Node24</title>
<g id="a_edge23_Node000012_Node000024"><a xlink:title=" ">
<path fill="none" stroke="#63b8ff" d="M456.36,-448.65C458.68,-447.24 460.91,-445.7 463,-444 491.42,-420.98 470.81,-393.3 499,-370 504.28,-365.64 510.46,-362.27 516.94,-359.68"/>
<polygon fill="#63b8ff" stroke="#63b8ff" points="454.29,-445.78 446.99,-453.45 457.48,-452.01 454.29,-445.78"/>
</a>
</g>
</g>
<!-- Node25 -->
<g id="Node000025" class="node">
<title>Node25</title>
<g id="a_Node000025"><a xlink:href="class_p4_1_1_packet_in.html" target="_top" xlink:title=" ">
<polygon fill="white" stroke="#bfbfbf" points="608,-323.5 533,-323.5 533,-304.5 608,-304.5 608,-323.5"/>
<text text-anchor="middle" x="570.5" y="-311.5" font-family="Helvetica,sans-Serif" font-size="10.00">P4::PacketIn</text>
</a>
</g>
</g>
<!-- Node12&#45;&gt;Node25 -->
<g id="edge24_Node000012_Node000025" class="edge">
<title>Node12&#45;&gt;Node25</title>
<g id="a_edge24_Node000012_Node000025"><a xlink:title=" ">
<path fill="none" stroke="#63b8ff" d="M457.7,-448.31C459.56,-446.99 461.33,-445.56 463,-444 501.2,-408.3 460.92,-367.83 499,-332 508.11,-323.43 520.72,-318.8 532.75,-316.34"/>
<polygon fill="#63b8ff" stroke="#63b8ff" points="455.9,-445.31 449.07,-453.41 459.46,-451.34 455.9,-445.31"/>
</a>
</g>
</g>
<!-- Node26 -->
<g id="Node000026" class="node">
<title>Node26</title>
<g id="a_Node000026"><a xlink:href="class_p4_1_1_packet_out.html" target="_top" xlink:title=" ">
<polygon fill="white" stroke="#bfbfbf" points="612,-286.5 529,-286.5 529,-267.5 612,-267.5 612,-286.5"/>
<text text-anchor="middle" x="570.5" y="-274.5" font-family="Helvetica,sans-Serif" font-size="10.00">P4::PacketOut</text>
</a>
</g>
</g>
<!-- Node12&#45;&gt;Node26 -->
<g id="edge25_Node000012_Node000026" class="edge">
<title>Node12&#45;&gt;Node26</title>
<g id="a_edge25_Node000012_Node000026"><a xlink:title=" ">
<path fill="none" stroke="#63b8ff" d="M458.91,-447.66C460.34,-446.52 461.71,-445.3 463,-444 511.02,-395.67 451.14,-343.48 499,-295 506.9,-287 517.83,-282.39 528.72,-279.77"/>
<polygon fill="#63b8ff" stroke="#63b8ff" points="456.6,-444.98 450.11,-453.35 460.4,-450.86 456.6,-444.98"/>
</a>
</g>
</g>
<!-- Node27 -->
<g id="Node000027" class="node">
<title>Node27</title>
<g id="a_Node000027"><a xlink:href="struct_p4_1_1_u_b_p_f_1_1_register___model.html" target="_top" xlink:title=" ">
<polygon fill="white" stroke="#bfbfbf" points="624,-249 517,-249 517,-219 624,-219 624,-249"/>
<text text-anchor="start" x="525" y="-237" font-family="Helvetica,sans-Serif" font-size="10.00">P4::UBPF::Register</text>
<text text-anchor="middle" x="570.5" y="-226" font-family="Helvetica,sans-Serif" font-size="10.00">_Model</text>
</a>
</g>
</g>
<!-- Node12&#45;&gt;Node27 -->
<g id="edge26_Node000012_Node000027" class="edge">
<title>Node12&#45;&gt;Node27</title>
<g id="a_edge26_Node000012_Node000027"><a xlink:title=" ">
<path fill="none" stroke="#63b8ff" d="M459.1,-447.65C460.47,-446.51 461.77,-445.3 463,-444 520.96,-382.93 443.67,-321.47 499,-258 503.84,-252.44 510.02,-248.17 516.71,-244.89"/>
<polygon fill="#63b8ff" stroke="#63b8ff" points="456.99,-444.85 450.66,-453.34 460.9,-450.65 456.99,-444.85"/>
</a>
</g>
</g>
<!-- Node19 -->
<g id="Node000019" class="node">
<title>Node19</title>
<g id="a_Node000019"><a xlink:href="struct_p4_1_1_p4_v1_1_1_counter___model.html" target="_top" xlink:title=" ">
<polygon fill="white" stroke="#bfbfbf" points="817,-518.5 678,-518.5 678,-499.5 817,-499.5 817,-518.5"/>
<text text-anchor="middle" x="747.5" y="-506.5" font-family="Helvetica,sans-Serif" font-size="10.00">P4::P4V1::Counter_Model</text>
</a>
</g>
</g>
<!-- Node18&#45;&gt;Node19 -->
<g id="edge18_Node000018_Node000019" class="edge">
<title>Node18&#45;&gt;Node19</title>
<g id="a_edge18_Node000018_Node000019"><a xlink:title=" ">
<path fill="none" stroke="#63b8ff" d="M628.38,-460.89C633.04,-462.82 637.64,-464.87 642,-467 659.06,-475.34 660.66,-482.27 678,-490 686.34,-493.72 695.58,-496.88 704.51,-499.49"/>
<polygon fill="#63b8ff" stroke="#63b8ff" points="629.35,-457.51 618.76,-457.08 626.77,-464.01 629.35,-457.51"/>
</a>
</g>
</g>
<!-- Node20 -->
<g id="Node000020" class="node">
<title>Node20</title>
<g id="a_Node000020"><a xlink:href="struct_p4_1_1_p4_v1_1_1_direct_counter___model.html" target="_top" xlink:title=" ">
<polygon fill="white" stroke="#bfbfbf" points="814,-481 681,-481 681,-451 814,-451 814,-481"/>
<text text-anchor="start" x="689" y="-469" font-family="Helvetica,sans-Serif" font-size="10.00">P4::P4V1::DirectCounter</text>
<text text-anchor="middle" x="747.5" y="-458" font-family="Helvetica,sans-Serif" font-size="10.00">_Model</text>
</a>
</g>
</g>
<!-- Node18&#45;&gt;Node20 -->
<g id="edge19_Node000018_Node000020" class="edge">
<title>Node18&#45;&gt;Node20</title>
<g id="a_edge19_Node000018_Node000020"><a xlink:title=" ">
<path fill="none" stroke="#63b8ff" d="M652.16,-453.06C661.8,-454.38 671.55,-455.72 680.94,-457.01"/>
<polygon fill="#63b8ff" stroke="#63b8ff" points="652.56,-449.58 642.17,-451.69 651.61,-456.52 652.56,-449.58"/>
</a>
</g>
</g>
<!-- Node21 -->
<g id="Node000021" class="node">
<title>Node21</title>
<g id="a_Node000021"><a xlink:href="struct_p4_1_1_p4_v1_1_1_direct_meter___model.html" target="_top" xlink:title=" ">
<polygon fill="white" stroke="#bfbfbf" points="809,-433 686,-433 686,-403 809,-403 809,-433"/>
<text text-anchor="start" x="694" y="-421" font-family="Helvetica,sans-Serif" font-size="10.00">P4::P4V1::DirectMeter</text>
<text text-anchor="middle" x="747.5" y="-410" font-family="Helvetica,sans-Serif" font-size="10.00">_Model</text>
</a>
</g>
</g>
<!-- Node18&#45;&gt;Node21 -->
<g id="edge20_Node000018_Node000021" class="edge">
<title>Node18&#45;&gt;Node21</title>
<g id="a_edge20_Node000018_Node000021"><a xlink:title=" ">
<path fill="none" stroke="#63b8ff" d="M652.12,-430.94C663.5,-429.38 675.04,-427.8 685.96,-426.3"/>
<polygon fill="#63b8ff" stroke="#63b8ff" points="651.61,-427.48 642.17,-432.31 652.56,-434.42 651.61,-427.48"/>
</a>
</g>
</g>
<!-- Node22 -->
<g id="Node000022" class="node">
<title>Node22</title>
<g id="a_Node000022"><a xlink:href="struct_p4_1_1_p4_v1_1_1_meter___model.html" target="_top" xlink:title=" ">
<polygon fill="white" stroke="#bfbfbf" points="812,-384.5 683,-384.5 683,-365.5 812,-365.5 812,-384.5"/>
<text text-anchor="middle" x="747.5" y="-372.5" font-family="Helvetica,sans-Serif" font-size="10.00">P4::P4V1::Meter_Model</text>
</a>
</g>
</g>
<!-- Node18&#45;&gt;Node22 -->
<g id="edge21_Node000018_Node000022" class="edge">
<title>Node18&#45;&gt;Node22</title>
<g id="a_edge21_Node000018_Node000022"><a xlink:title=" ">
<path fill="none" stroke="#63b8ff" d="M630.42,-423.24C634.39,-421.58 638.28,-419.83 642,-418 659.25,-409.5 660.52,-402 678,-394 686.08,-390.3 695.03,-387.18 703.73,-384.6"/>
<polygon fill="#63b8ff" stroke="#63b8ff" points="629.09,-420.01 621.09,-426.95 631.67,-426.51 629.09,-420.01"/>
</a>
</g>
</g>
</g>
</svg>
