<?xml version="1.0" encoding="UTF-8" standalone="no"?>
<!DOCTYPE svg PUBLIC "-//W3C//DTD SVG 1.1//EN"
 "http://www.w3.org/Graphics/SVG/1.1/DTD/svg11.dtd">
<!-- Generated by graphviz version 2.43.0 (0)
 -->
<!-- Title: P4::P4Tools::P4Testgen::Tofino::AbstractTofinoTestgenTarget Pages: 1 -->
<svg width="878pt" height="86pt"
 viewBox="0.00 0.00 878.00 86.00" xmlns="http://www.w3.org/2000/svg" xmlns:xlink="http://www.w3.org/1999/xlink">
<g id="graph0" class="graph" transform="scale(1 1) rotate(0) translate(4 82)">
<title>P4::P4Tools::P4Testgen::Tofino::AbstractTofinoTestgenTarget</title>
<!-- Node1 -->
<g id="Node000001" class="node">
<title>Node1</title>
<g id="a_Node000001"><a xlink:title=" ">
<polygon fill="#999999" stroke="#666666" points="658,-59.5 494,-59.5 494,-18.5 658,-18.5 658,-59.5"/>
<text text-anchor="start" x="502" y="-47.5" font-family="Helvetica,sans-Serif" font-size="10.00">P4::P4Tools::P4Testgen</text>
<text text-anchor="start" x="502" y="-36.5" font-family="Helvetica,sans-Serif" font-size="10.00">::Tofino::AbstractTofinoTestgen</text>
<text text-anchor="middle" x="576" y="-25.5" font-family="Helvetica,sans-Serif" font-size="10.00">Target</text>
</a>
</g>
</g>
<!-- Node5 -->
<g id="Node000005" class="node">
<title>Node5</title>
<g id="a_Node000005"><a xlink:href="class_p4_1_1_p4_tools_1_1_p4_testgen_1_1_tofino_1_1_j_bay___t2na_testgen_target.html" target="_top" xlink:title=" ">
<polygon fill="white" stroke="#bfbfbf" points="870,-78 694,-78 694,-48 870,-48 870,-78"/>
<text text-anchor="start" x="702" y="-66" font-family="Helvetica,sans-Serif" font-size="10.00">P4::P4Tools::P4Testgen</text>
<text text-anchor="middle" x="782" y="-55" font-family="Helvetica,sans-Serif" font-size="10.00">::Tofino::JBay_T2naTestgenTarget</text>
</a>
</g>
</g>
<!-- Node1&#45;&gt;Node5 -->
<g id="edge4_Node000001_Node000005" class="edge">
<title>Node1&#45;&gt;Node5</title>
<g id="a_edge4_Node000001_Node000005"><a xlink:title=" ">
<path fill="none" stroke="#63b8ff" d="M668.41,-49.75C676.82,-50.74 685.33,-51.74 693.7,-52.73"/>
<polygon fill="#63b8ff" stroke="#63b8ff" points="668.55,-46.25 658.21,-48.55 667.73,-53.2 668.55,-46.25"/>
</a>
</g>
</g>
<!-- Node6 -->
<g id="Node000006" class="node">
<title>Node6</title>
<g id="a_Node000006"><a xlink:href="class_p4_1_1_p4_tools_1_1_p4_testgen_1_1_tofino_1_1_tofino___tna_testgen_target.html" target="_top" xlink:title=" ">
<polygon fill="white" stroke="#bfbfbf" points="870,-30 694,-30 694,0 870,0 870,-30"/>
<text text-anchor="start" x="702" y="-18" font-family="Helvetica,sans-Serif" font-size="10.00">P4::P4Tools::P4Testgen</text>
<text text-anchor="middle" x="782" y="-7" font-family="Helvetica,sans-Serif" font-size="10.00">::Tofino::Tofino_TnaTestgenTarget</text>
</a>
</g>
</g>
<!-- Node1&#45;&gt;Node6 -->
<g id="edge5_Node000001_Node000006" class="edge">
<title>Node1&#45;&gt;Node6</title>
<g id="a_edge5_Node000001_Node000006"><a xlink:title=" ">
<path fill="none" stroke="#63b8ff" d="M668.41,-28.25C676.82,-27.26 685.33,-26.26 693.7,-25.27"/>
<polygon fill="#63b8ff" stroke="#63b8ff" points="667.73,-24.8 658.21,-29.45 668.55,-31.75 667.73,-24.8"/>
</a>
</g>
</g>
<!-- Node2 -->
<g id="Node000002" class="node">
<title>Node2</title>
<g id="a_Node000002"><a xlink:href="class_p4_1_1_p4_tools_1_1_p4_testgen_1_1_testgen_target.html" target="_top" xlink:title=" ">
<polygon fill="white" stroke="#bfbfbf" points="458,-54 331,-54 331,-24 458,-24 458,-54"/>
<text text-anchor="start" x="339" y="-42" font-family="Helvetica,sans-Serif" font-size="10.00">P4::P4Tools::P4Testgen</text>
<text text-anchor="middle" x="394.5" y="-31" font-family="Helvetica,sans-Serif" font-size="10.00">::TestgenTarget</text>
</a>
</g>
</g>
<!-- Node2&#45;&gt;Node1 -->
<g id="edge1_Node000001_Node000002" class="edge">
<title>Node2&#45;&gt;Node1</title>
<g id="a_edge1_Node000001_Node000002"><a xlink:title=" ">
<path fill="none" stroke="#63b8ff" d="M468.18,-39C476.6,-39 485.23,-39 493.75,-39"/>
<polygon fill="#63b8ff" stroke="#63b8ff" points="468.03,-35.5 458.03,-39 468.03,-42.5 468.03,-35.5"/>
</a>
</g>
</g>
<!-- Node3 -->
<g id="Node000003" class="node">
<title>Node3</title>
<g id="a_Node000003"><a xlink:href="class_p4_1_1_p4_tools_1_1_compiler_target.html" target="_top" xlink:title="Encapsulates the details of invoking the P4 compiler for a target device and architecture.">
<polygon fill="white" stroke="#666666" points="295,-48.5 143,-48.5 143,-29.5 295,-29.5 295,-48.5"/>
<text text-anchor="middle" x="219" y="-36.5" font-family="Helvetica,sans-Serif" font-size="10.00">P4::P4Tools::CompilerTarget</text>
</a>
</g>
</g>
<!-- Node3&#45;&gt;Node2 -->
<g id="edge2_Node000002_Node000003" class="edge">
<title>Node3&#45;&gt;Node2</title>
<g id="a_edge2_Node000002_Node000003"><a xlink:title=" ">
<path fill="none" stroke="#63b8ff" d="M305.19,-39C313.81,-39 322.46,-39 330.78,-39"/>
<polygon fill="#63b8ff" stroke="#63b8ff" points="305.09,-35.5 295.09,-39 305.09,-42.5 305.09,-35.5"/>
</a>
</g>
</g>
<!-- Node4 -->
<g id="Node000004" class="node">
<title>Node4</title>
<g id="a_Node000004"><a xlink:href="class_p4_1_1_p4_tools_1_1_target.html" target="_top" xlink:title=" ">
<polygon fill="white" stroke="#666666" points="107,-48.5 0,-48.5 0,-29.5 107,-29.5 107,-48.5"/>
<text text-anchor="middle" x="53.5" y="-36.5" font-family="Helvetica,sans-Serif" font-size="10.00">P4::P4Tools::Target</text>
</a>
</g>
</g>
<!-- Node4&#45;&gt;Node3 -->
<g id="edge3_Node000003_Node000004" class="edge">
<title>Node4&#45;&gt;Node3</title>
<g id="a_edge3_Node000003_Node000004"><a xlink:title=" ">
<path fill="none" stroke="#63b8ff" d="M117.2,-39C125.59,-39 134.26,-39 142.84,-39"/>
<polygon fill="#63b8ff" stroke="#63b8ff" points="117.13,-35.5 107.13,-39 117.13,-42.5 117.13,-35.5"/>
</a>
</g>
</g>
</g>
</svg>
