<?xml version="1.0" encoding="UTF-8" standalone="no"?>
<!DOCTYPE svg PUBLIC "-//W3C//DTD SVG 1.1//EN"
 "http://www.w3.org/Graphics/SVG/1.1/DTD/svg11.dtd">
<!-- Generated by graphviz version 2.43.0 (0)
 -->
<!-- Title: phv Pages: 1 -->
<!--zoomable 94 -->

<svg id="main" version="1.1" xmlns="http://www.w3.org/2000/svg" xmlns:xlink="http://www.w3.org/1999/xlink" xml:space="preserve" onload="init(evt)">

<style type="text/css"><![CDATA[
.node, .edge {opacity: 0.7;}
.node.selected, .edge.selected {opacity: 1;}
.edge:hover path { stroke: red; }
.edge:hover polygon { stroke: red; fill: red; }
]]></style>

<defs>
  <circle id="rim" cx="0" cy="0" r="7"/>
  <circle id="rim2" cx="0" cy="0" r="3.5"/>
  <g id="zoomPlus">
    <use xlink:href="#rim" fill="#404040"><set attributeName="fill" to="#808080" begin="zoomplus.mouseover" end="zoomplus.mouseout"/></use>
    <path d="M-4,0h8M0,-4v8" fill="none" stroke="white" stroke-width="1.5" pointer-events="none"/>
  </g>
  <g id="zoomMin">
    <use xlink:href="#rim" fill="#404040"><set attributeName="fill" to="#808080" begin="zoomminus.mouseover" end="zoomminus.mouseout"/></use>
    <path d="M-4,0h8" fill="none" stroke="white" stroke-width="1.5" pointer-events="none"/>
  </g>
  <g id="arrowUp" transform="translate(30 24)">
    <use xlink:href="#rim"/>
    <path pointer-events="none" fill="none" stroke="white" stroke-width="1.5" d="M0,-3.0v7 M-2.5,-0.5L0,-3.0L2.5,-0.5"/>
  </g>
  <g id="arrowRight" transform="rotate(90) translate(36 -43)">
    <use xlink:href="#rim"/>
    <path pointer-events="none" fill="none" stroke="white" stroke-width="1.5" d="M0,-3.0v7 M-2.5,-0.5L0,-3.0L2.5,-0.5"/>
  </g>
  <g id="arrowDown" transform="rotate(180) translate(-30 -48)">
    <use xlink:href="#rim"/>
    <path pointer-events="none" fill="none" stroke="white" stroke-width="1.5" d="M0,-3.0v7 M-2.5,-0.5L0,-3.0L2.5,-0.5"/>
  </g>
  <g id="arrowLeft" transform="rotate(270) translate(-36 17)">
    <use xlink:href="#rim"/>
    <path pointer-events="none" fill="none" stroke="white" stroke-width="1.5" d="M0,-3.0v7 M-2.5,-0.5L0,-3.0L2.5,-0.5"/>
  </g>
  <g id="resetDef">
    <use xlink:href="#rim2" fill="#404040"><set attributeName="fill" to="#808080" begin="reset.mouseover" end="reset.mouseout"/></use>
  </g>
</defs>
<script type="application/ecmascript">
var viewWidth = 652;
var viewHeight = 94;
var sectionId = 'dynsection-0';
</script>
<script type="application/ecmascript" xlink:href="svg.min.js"/>
<svg id="graph" class="graph">
<g id="viewport">
<title>phv</title>
<g id="clust1" class="cluster">
<title>clusterdir_cfcd49738e4a3dfd100d5c3f88ec2338</title>
<g id="a_clust1"><a xlink:href="dir_cfcd49738e4a3dfd100d5c3f88ec2338.html" target="_top" xlink:title="bf&#45;p4c">
<polygon fill="#edf0f7" stroke="#7f7f7f" stroke-dasharray="5,2" points="8,-8 8,-78 636,-78 636,-8 8,-8"/>
<text text-anchor="middle" x="322" y="-66" font-family="Helvetica,sans-Serif" font-size="10.00">bf&#45;p4c</text>
</a>
</g>
</g>
<g id="clust2" class="cluster">
<title>clusterdir_44803a37bb937697b251a472bd5d1435</title>
<g id="a_clust2"><a xlink:href="dir_44803a37bb937697b251a472bd5d1435.html" target="_top">
<polygon fill="#edf0f7" stroke="#404040" stroke-width="2" points="16,-16 16,-51 628,-51 628,-16 16,-16"/>
</a>
</g>
</g>
<!-- dir_44803a37bb937697b251a472bd5d1435 -->
<g id="node1" class="node">
<title>dir_44803a37bb937697b251a472bd5d1435</title>
<text text-anchor="middle" x="602" y="-31" font-family="Helvetica,sans-Serif" font-size="10.00">phv</text>
</g>
<!-- dir_813fe54c44d91ee8c59d406fc2002d03 -->
<g id="node2" class="node">
<title>dir_813fe54c44d91ee8c59d406fc2002d03</title>
<g id="a_node2"><a xlink:href="dir_813fe54c44d91ee8c59d406fc2002d03.html" target="_top" xlink:title="analysis">
<polygon fill="#a2b4d6" stroke="#404040" points="566.5,-43 509.5,-43 509.5,-24 566.5,-24 566.5,-43"/>
<text text-anchor="middle" x="538" y="-31" font-family="Helvetica,sans-Serif" font-size="10.00">analysis</text>
</a>
</g>
</g>
<!-- dir_5fa56224c50c6f3f4a2d5fd1d477eb84 -->
<g id="node3" class="node">
<title>dir_5fa56224c50c6f3f4a2d5fd1d477eb84</title>
<g id="a_node3"><a xlink:href="dir_5fa56224c50c6f3f4a2d5fd1d477eb84.html" target="_top" xlink:title="constraints">
<polygon fill="#a2b4d6" stroke="#404040" points="491.5,-43 420.5,-43 420.5,-24 491.5,-24 491.5,-43"/>
<text text-anchor="middle" x="456" y="-31" font-family="Helvetica,sans-Serif" font-size="10.00">constraints</text>
</a>
</g>
</g>
<!-- dir_6d575bd4c7937254a3ce7afb9d2f0452 -->
<g id="node4" class="node">
<title>dir_6d575bd4c7937254a3ce7afb9d2f0452</title>
<g id="a_node4"><a xlink:href="dir_6d575bd4c7937254a3ce7afb9d2f0452.html" target="_top" xlink:title="pragma">
<polygon fill="#a2b4d6" stroke="#404040" points="402,-43 348,-43 348,-24 402,-24 402,-43"/>
<text text-anchor="middle" x="375" y="-31" font-family="Helvetica,sans-Serif" font-size="10.00">pragma</text>
</a>
</g>
</g>
<!-- dir_e2e478e1009f2cd61210c23a3fe9c3bc -->
<g id="node5" class="node">
<title>dir_e2e478e1009f2cd61210c23a3fe9c3bc</title>
<g id="a_node5"><a xlink:href="dir_e2e478e1009f2cd61210c23a3fe9c3bc.html" target="_top" xlink:title="slicing">
<polygon fill="#a2b4d6" stroke="#404040" points="330,-43 282,-43 282,-24 330,-24 330,-43"/>
<text text-anchor="middle" x="306" y="-31" font-family="Helvetica,sans-Serif" font-size="10.00">slicing</text>
</a>
</g>
</g>
<!-- dir_403ef138be5dfc0eb13d398caa2af310 -->
<g id="node6" class="node">
<title>dir_403ef138be5dfc0eb13d398caa2af310</title>
<g id="a_node6"><a xlink:href="dir_403ef138be5dfc0eb13d398caa2af310.html" target="_top" xlink:title="solver">
<polygon fill="#a2b4d6" stroke="#404040" points="263.5,-43 216.5,-43 216.5,-24 263.5,-24 263.5,-43"/>
<text text-anchor="middle" x="240" y="-31" font-family="Helvetica,sans-Serif" font-size="10.00">solver</text>
</a>
</g>
</g>
<!-- dir_20e4979c2d45c6a54f5c2dd241ba030f -->
<g id="node7" class="node">
<title>dir_20e4979c2d45c6a54f5c2dd241ba030f</title>
<g id="a_node7"><a xlink:href="dir_20e4979c2d45c6a54f5c2dd241ba030f.html" target="_top" xlink:title="transforms">
<polygon fill="#a2b4d6" stroke="#404040" points="198,-43 128,-43 128,-24 198,-24 198,-43"/>
<text text-anchor="middle" x="163" y="-31" font-family="Helvetica,sans-Serif" font-size="10.00">transforms</text>
</a>
</g>
</g>
<!-- dir_08a99760deeafd5f4e301d5ef1e34abb -->
<g id="node8" class="node">
<title>dir_08a99760deeafd5f4e301d5ef1e34abb</title>
<g id="a_node8"><a xlink:href="dir_08a99760deeafd5f4e301d5ef1e34abb.html" target="_top" xlink:title="utils">
<polygon fill="#a2b4d6" stroke="#404040" points="110,-43 72,-43 72,-24 110,-24 110,-43"/>
<text text-anchor="middle" x="91" y="-31" font-family="Helvetica,sans-Serif" font-size="10.00">utils</text>
</a>
</g>
</g>
<!-- dir_c8308dc4bf8b2eee46499da4d74c50ae -->
<g id="node9" class="node">
<title>dir_c8308dc4bf8b2eee46499da4d74c50ae</title>
<g id="a_node9"><a xlink:href="dir_c8308dc4bf8b2eee46499da4d74c50ae.html" target="_top" xlink:title="v2">
<polygon fill="#a2b4d6" stroke="#404040" points="53.5,-43 24.5,-43 24.5,-24 53.5,-24 53.5,-43"/>
<text text-anchor="middle" x="39" y="-31" font-family="Helvetica,sans-Serif" font-size="10.00">v2</text>
</a>
</g>
</g>
</g>
</svg>

<g id="navigator" transform="translate(0 0)" fill="#404254">
  <rect fill="#f2f5e9" fill-opacity="0.5" stroke="#606060" stroke-width=".5" x="0" y="0" width="60" height="60"/>
  <use id="zoomplus" xlink:href="#zoomPlus" x="17" y="9" onmousedown="handleZoom(evt,'in')"/>
  <use id="zoomminus" xlink:href="#zoomMin" x="42" y="9" onmousedown="handleZoom(evt,'out')"/>
  <use id="reset" xlink:href="#resetDef" x="30" y="36" onmousedown="handleReset()"/>
   <use id="arrowup" xlink:href="#arrowUp" x="0" y="0" onmousedown="handlePan(0,-1)"/>
  <use id="arrowright" xlink:href="#arrowRight" x="0" y="0" onmousedown="handlePan(1,0)"/>
  <use id="arrowdown" xlink:href="#arrowDown" x="0" y="0" onmousedown="handlePan(0,1)"/>
  <use id="arrowleft" xlink:href="#arrowLeft" x="0" y="0" onmousedown="handlePan(-1,0)"/>
</g>
<svg viewBox="0 0 15 15" width="100%" height="30px" preserveAspectRatio="xMaxYMin meet">
 <g id="arrow_out" transform="scale(0.3 0.3)">
  <a xlink:href="dir_44803a37bb937697b251a472bd5d1435_dep_org.svg" target="_base">
   <rect id="button" ry="5" rx="5" y="6" x="6" height="38" width="38"
        fill="#f2f5e9" fill-opacity="0.5" stroke="#606060" stroke-width="1.0"/>
   <path id="arrow"
     d="M 11.500037,31.436501 C 11.940474,20.09759 22.043105,11.32322 32.158766,21.979434 L 37.068811,17.246167 C 37.068811,17.246167 37.088388,32 37.088388,32 L 22.160133,31.978069 C 22.160133,31.978069 26.997745,27.140456 26.997745,27.140456 C 18.528582,18.264221 13.291696,25.230495 11.500037,31.436501 z"
     style="fill:#404040;"/>
  </a>
 </g>
</svg>

<style type='text/css'>
<![CDATA[
[data-mouse-over-selected='false'] { opacity: 0.7; }
[data-mouse-over-selected='true']  { opacity: 1.0; }
]]>
</style>
<script type="application/ecmascript"><![CDATA[
document.addEventListener('DOMContentLoaded', (event) => {
  highlightEdges();
  highlightAdjacentNodes();
});
]]></script>
</svg>
