<?xml version="1.0" encoding="UTF-8" standalone="no"?>
<!DOCTYPE svg PUBLIC "-//W3C//DTD SVG 1.1//EN"
 "http://www.w3.org/Graphics/SVG/1.1/DTD/svg11.dtd">
<!-- Generated by graphviz version 2.43.0 (0)
 -->
<!-- Title: IR::INode Pages: 1 -->
<svg width="1052pt" height="754pt"
 viewBox="0.00 0.00 1052.00 753.50" xmlns="http://www.w3.org/2000/svg" xmlns:xlink="http://www.w3.org/1999/xlink">
<g id="graph0" class="graph" transform="scale(1 1) rotate(0) translate(4 749.5)">
<title>IR::INode</title>
<!-- Node1 -->
<g id="Node000001" class="node">
<title>Node1</title>
<g id="a_Node000001"><a xlink:title=" ">
<polygon fill="#999999" stroke="#666666" points="314,-413 253,-413 253,-394 314,-394 314,-413"/>
<text text-anchor="middle" x="283.5" y="-401" font-family="Helvetica,sans-Serif" font-size="10.00">IR::INode</text>
</a>
</g>
</g>
<!-- Node6 -->
<g id="Node000006" class="node">
<title>Node6</title>
<g id="a_Node000006"><a xlink:href="class_i_r_1_1_i_declaration.html" target="_top" xlink:title="The Declaration interface, representing objects with names.">
<polygon fill="white" stroke="#666666" points="442,-432 350,-432 350,-413 442,-413 442,-432"/>
<text text-anchor="middle" x="396" y="-420" font-family="Helvetica,sans-Serif" font-size="10.00">IR::IDeclaration</text>
</a>
</g>
</g>
<!-- Node1&#45;&gt;Node6 -->
<g id="edge5_Node000001_Node000006" class="edge">
<title>Node1&#45;&gt;Node6</title>
<g id="a_edge5_Node000001_Node000006"><a xlink:title=" ">
<path fill="none" stroke="#63b8ff" d="M324.03,-410.3C332.42,-411.74 341.33,-413.27 349.91,-414.75"/>
<polygon fill="#63b8ff" stroke="#63b8ff" points="324.56,-406.84 314.11,-408.59 323.37,-413.74 324.56,-406.84"/>
</a>
</g>
</g>
<!-- Node7 -->
<g id="Node000007" class="node">
<title>Node7</title>
<g id="a_Node000007"><a xlink:href="class_i_r_1_1_node.html" target="_top" xlink:title=" ">
<polygon fill="white" stroke="#bfbfbf" points="425,-395 367,-395 367,-376 425,-376 425,-395"/>
<text text-anchor="middle" x="396" y="-383" font-family="Helvetica,sans-Serif" font-size="10.00">IR::Node</text>
</a>
</g>
</g>
<!-- Node1&#45;&gt;Node7 -->
<g id="edge6_Node000001_Node000007" class="edge">
<title>Node1&#45;&gt;Node7</title>
<g id="a_edge6_Node000001_Node000007"><a xlink:title=" ">
<path fill="none" stroke="#63b8ff" d="M324.08,-397.05C338.22,-394.75 353.85,-392.2 366.83,-390.09"/>
<polygon fill="#63b8ff" stroke="#63b8ff" points="323.42,-393.61 314.11,-398.68 324.54,-400.52 323.42,-393.61"/>
</a>
</g>
</g>
<!-- Node2 -->
<g id="Node000002" class="node">
<title>Node2</title>
<g id="a_Node000002"><a xlink:href="class_util_1_1_i_has_source_info.html" target="_top" xlink:title=" ">
<polygon fill="white" stroke="#bfbfbf" points="217,-450 104,-450 104,-431 217,-431 217,-450"/>
<text text-anchor="middle" x="160.5" y="-438" font-family="Helvetica,sans-Serif" font-size="10.00">Util::IHasSourceInfo</text>
</a>
</g>
</g>
<!-- Node2&#45;&gt;Node1 -->
<g id="edge1_Node000001_Node000002" class="edge">
<title>Node2&#45;&gt;Node1</title>
<g id="a_edge1_Node000001_Node000002"><a xlink:title=" ">
<path fill="none" stroke="#63b8ff" d="M202.57,-427.94C219.01,-422.91 237.59,-417.23 252.7,-412.61"/>
<polygon fill="#63b8ff" stroke="#63b8ff" points="201.2,-424.7 192.66,-430.97 203.25,-431.39 201.2,-424.7"/>
</a>
</g>
</g>
<!-- Node3 -->
<g id="Node000003" class="node">
<title>Node3</title>
<g id="a_Node000003"><a xlink:href="class_i_has_db_print.html" target="_top" xlink:title=" ">
<polygon fill="white" stroke="#bfbfbf" points="197.5,-413 123.5,-413 123.5,-394 197.5,-394 197.5,-413"/>
<text text-anchor="middle" x="160.5" y="-401" font-family="Helvetica,sans-Serif" font-size="10.00">IHasDbPrint</text>
</a>
</g>
</g>
<!-- Node3&#45;&gt;Node1 -->
<g id="edge2_Node000001_Node000003" class="edge">
<title>Node3&#45;&gt;Node1</title>
<g id="a_edge2_Node000001_Node000003"><a xlink:title=" ">
<path fill="none" stroke="#63b8ff" d="M207.97,-403.5C223,-403.5 239.25,-403.5 252.73,-403.5"/>
<polygon fill="#63b8ff" stroke="#63b8ff" points="207.8,-400 197.8,-403.5 207.8,-407 207.8,-400"/>
</a>
</g>
</g>
<!-- Node4 -->
<g id="Node000004" class="node">
<title>Node4</title>
<g id="a_Node000004"><a xlink:href="class_i_castable.html" target="_top" xlink:title=" ">
<polygon fill="white" stroke="#666666" points="191.5,-376 129.5,-376 129.5,-357 191.5,-357 191.5,-376"/>
<text text-anchor="middle" x="160.5" y="-364" font-family="Helvetica,sans-Serif" font-size="10.00">ICastable</text>
</a>
</g>
</g>
<!-- Node4&#45;&gt;Node1 -->
<g id="edge3_Node000001_Node000004" class="edge">
<title>Node4&#45;&gt;Node1</title>
<g id="a_edge3_Node000001_Node000004"><a xlink:title=" ">
<path fill="none" stroke="#63b8ff" d="M201.73,-378.8C218.36,-383.89 237.3,-389.68 252.66,-394.38"/>
<polygon fill="#63b8ff" stroke="#63b8ff" points="202.31,-375.32 191.72,-375.74 200.26,-382.01 202.31,-375.32"/>
</a>
</g>
</g>
<!-- Node5 -->
<g id="Node000005" class="node">
<title>Node5</title>
<g id="a_Node000005"><a xlink:href="struct_r_t_t_i_1_1_base.html" target="_top" xlink:title=" ">
<polygon fill="white" stroke="#bfbfbf" points="68,-376 0,-376 0,-357 68,-357 68,-376"/>
<text text-anchor="middle" x="34" y="-364" font-family="Helvetica,sans-Serif" font-size="10.00">RTTI::Base</text>
</a>
</g>
</g>
<!-- Node5&#45;&gt;Node4 -->
<g id="edge4_Node000004_Node000005" class="edge">
<title>Node5&#45;&gt;Node4</title>
<g id="a_edge4_Node000004_Node000005"><a xlink:title=" ">
<path fill="none" stroke="#63b8ff" d="M78.21,-366.5C95.06,-366.5 113.96,-366.5 129.3,-366.5"/>
<polygon fill="#63b8ff" stroke="#63b8ff" points="78.04,-363 68.04,-366.5 78.04,-370 78.04,-363"/>
</a>
</g>
</g>
<!-- Node8 -->
<g id="Node000008" class="node">
<title>Node8</title>
<g id="a_Node000008"><a xlink:href="class_i_r_1_1_name_map.html" target="_top" xlink:title=" ">
<polygon fill="white" stroke="#bfbfbf" points="618,-448.5 487,-448.5 487,-418.5 618,-418.5 618,-448.5"/>
<text text-anchor="start" x="495" y="-436.5" font-family="Helvetica,sans-Serif" font-size="10.00">IR::NameMap&lt; T, MAP,</text>
<text text-anchor="middle" x="552.5" y="-425.5" font-family="Helvetica,sans-Serif" font-size="10.00"> COMP, ALLOC &gt;</text>
</a>
</g>
</g>
<!-- Node7&#45;&gt;Node8 -->
<g id="edge7_Node000007_Node000008" class="edge">
<title>Node7&#45;&gt;Node8</title>
<g id="a_edge7_Node000007_Node000008"><a xlink:title=" ">
<path fill="none" stroke="#63b8ff" d="M434.97,-397.3C455.49,-403.67 481.05,-411.61 503,-418.43"/>
<polygon fill="#63b8ff" stroke="#63b8ff" points="435.93,-393.93 425.34,-394.3 433.85,-400.61 435.93,-393.93"/>
</a>
</g>
</g>
<!-- Node9 -->
<g id="Node000009" class="node">
<title>Node9</title>
<g id="a_Node000009"><a xlink:href="class_i_r_1_1_node_map.html" target="_top" xlink:title=" ">
<polygon fill="white" stroke="#bfbfbf" points="627,-400.5 478,-400.5 478,-370.5 627,-370.5 627,-400.5"/>
<text text-anchor="start" x="486" y="-388.5" font-family="Helvetica,sans-Serif" font-size="10.00">IR::NodeMap&lt; KEY, VALUE,</text>
<text text-anchor="middle" x="552.5" y="-377.5" font-family="Helvetica,sans-Serif" font-size="10.00"> MAP, COMP, ALLOC &gt;</text>
</a>
</g>
</g>
<!-- Node7&#45;&gt;Node9 -->
<g id="edge8_Node000007_Node000009" class="edge">
<title>Node7&#45;&gt;Node9</title>
<g id="a_edge8_Node000007_Node000009"><a xlink:title=" ">
<path fill="none" stroke="#63b8ff" d="M435.66,-385.5C448.54,-385.5 463.35,-385.5 477.98,-385.5"/>
<polygon fill="#63b8ff" stroke="#63b8ff" points="435.34,-382 425.34,-385.5 435.34,-389 435.34,-382"/>
</a>
</g>
</g>
<!-- Node10 -->
<g id="Node000010" class="node">
<title>Node10</title>
<g id="a_Node000010"><a xlink:href="class_i_r_1_1_vector_base.html" target="_top" xlink:title=" ">
<polygon fill="white" stroke="#bfbfbf" points="596,-352 509,-352 509,-333 596,-333 596,-352"/>
<text text-anchor="middle" x="552.5" y="-340" font-family="Helvetica,sans-Serif" font-size="10.00">IR::VectorBase</text>
</a>
</g>
</g>
<!-- Node7&#45;&gt;Node10 -->
<g id="edge9_Node000007_Node000010" class="edge">
<title>Node7&#45;&gt;Node10</title>
<g id="a_edge9_Node000007_Node000010"><a xlink:title=" ">
<path fill="none" stroke="#63b8ff" d="M434.99,-373.94C448.54,-369.9 463.92,-365.4 478,-361.5 489.56,-358.3 502.19,-354.97 513.66,-352.01"/>
<polygon fill="#63b8ff" stroke="#63b8ff" points="433.62,-370.7 425.05,-376.93 435.63,-377.41 433.62,-370.7"/>
</a>
</g>
</g>
<!-- Node11 -->
<g id="Node000011" class="node">
<title>Node11</title>
<g id="a_Node000011"><a xlink:href="class_i_r_1_1_vector.html" target="_top" xlink:title=" ">
<polygon fill="white" stroke="#bfbfbf" points="863,-735 663,-735 663,-716 863,-716 863,-735"/>
<text text-anchor="middle" x="763" y="-723" font-family="Helvetica,sans-Serif" font-size="10.00">IR::Vector&lt; IR::DpdkAsmStatement &gt;</text>
</a>
</g>
</g>
<!-- Node10&#45;&gt;Node11 -->
<g id="edge10_Node000010_Node000011" class="edge">
<title>Node10&#45;&gt;Node11</title>
<g id="a_edge10_Node000010_Node000011"><a xlink:title=" ">
<path fill="none" stroke="#63b8ff" d="M605.96,-347.66C613.98,-350.64 621.43,-355.05 627,-361.5 724.89,-474.82 566.94,-581.63 663,-696.5 670.41,-705.36 680.37,-711.6 691.13,-715.97"/>
<polygon fill="#63b8ff" stroke="#63b8ff" points="606.94,-344.3 596.35,-344.78 604.93,-351.01 606.94,-344.3"/>
</a>
</g>
</g>
<!-- Node13 -->
<g id="Node000013" class="node">
<title>Node13</title>
<g id="a_Node000013"><a xlink:href="class_i_r_1_1_vector.html" target="_top" xlink:title=" ">
<polygon fill="white" stroke="#bfbfbf" points="826.5,-687 699.5,-687 699.5,-668 826.5,-668 826.5,-687"/>
<text text-anchor="middle" x="763" y="-675" font-family="Helvetica,sans-Serif" font-size="10.00">IR::Vector&lt; IR::Node &gt;</text>
</a>
</g>
</g>
<!-- Node10&#45;&gt;Node13 -->
<g id="edge12_Node000010_Node000013" class="edge">
<title>Node10&#45;&gt;Node13</title>
<g id="a_edge12_Node000010_Node000013"><a xlink:title=" ">
<path fill="none" stroke="#63b8ff" d="M605.86,-347.75C613.89,-350.72 621.37,-355.1 627,-361.5 711.89,-458.04 579.66,-550.62 663,-648.5 672.35,-659.48 685.6,-666.42 699.39,-670.78"/>
<polygon fill="#63b8ff" stroke="#63b8ff" points="606.84,-344.39 596.25,-344.87 604.83,-351.09 606.84,-344.39"/>
</a>
</g>
</g>
<!-- Node15 -->
<g id="Node000015" class="node">
<title>Node15</title>
<g id="a_Node000015"><a xlink:href="class_i_r_1_1_vector.html" target="_top" xlink:title=" ">
<polygon fill="white" stroke="#bfbfbf" points="842,-639 684,-639 684,-620 842,-620 842,-639"/>
<text text-anchor="middle" x="763" y="-627" font-family="Helvetica,sans-Serif" font-size="10.00">IR::Vector&lt; IR::Declaration &gt;</text>
</a>
</g>
</g>
<!-- Node10&#45;&gt;Node15 -->
<g id="edge14_Node000010_Node000015" class="edge">
<title>Node10&#45;&gt;Node15</title>
<g id="a_edge14_Node000010_Node000015"><a xlink:title=" ">
<path fill="none" stroke="#63b8ff" d="M605.73,-347.86C613.77,-350.82 621.29,-355.17 627,-361.5 698.93,-441.28 592.36,-519.58 663,-600.5 670.71,-609.34 680.96,-615.55 691.94,-619.9"/>
<polygon fill="#63b8ff" stroke="#63b8ff" points="606.7,-344.5 596.12,-344.99 604.7,-351.21 606.7,-344.5"/>
</a>
</g>
</g>
<!-- Node17 -->
<g id="Node000017" class="node">
<title>Node17</title>
<g id="a_Node000017"><a xlink:href="class_i_r_1_1_vector.html" target="_top" xlink:title=" ">
<polygon fill="white" stroke="#bfbfbf" points="840,-591 686,-591 686,-572 840,-572 840,-591"/>
<text text-anchor="middle" x="763" y="-579" font-family="Helvetica,sans-Serif" font-size="10.00">IR::Vector&lt; IR::StatOrDecl &gt;</text>
</a>
</g>
</g>
<!-- Node10&#45;&gt;Node17 -->
<g id="edge16_Node000010_Node000017" class="edge">
<title>Node10&#45;&gt;Node17</title>
<g id="a_edge16_Node000010_Node000017"><a xlink:title=" ">
<path fill="none" stroke="#63b8ff" d="M606.06,-348.24C613.93,-351.17 621.3,-355.41 627,-361.5 686.01,-424.58 605,-488.48 663,-552.5 671.06,-561.39 681.68,-567.62 692.97,-571.96"/>
<polygon fill="#63b8ff" stroke="#63b8ff" points="606.88,-344.83 596.3,-345.27 604.85,-351.53 606.88,-344.83"/>
</a>
</g>
</g>
<!-- Node19 -->
<g id="Node000019" class="node">
<title>Node19</title>
<g id="a_Node000019"><a xlink:href="class_i_r_1_1_vector.html" target="_top" xlink:title=" ">
<polygon fill="white" stroke="#bfbfbf" points="839,-543 687,-543 687,-524 839,-524 839,-543"/>
<text text-anchor="middle" x="763" y="-531" font-family="Helvetica,sans-Serif" font-size="10.00">IR::Vector&lt; IR::DpdkTable &gt;</text>
</a>
</g>
</g>
<!-- Node10&#45;&gt;Node19 -->
<g id="edge18_Node000010_Node000019" class="edge">
<title>Node10&#45;&gt;Node19</title>
<g id="a_edge18_Node000010_Node000019"><a xlink:title=" ">
<path fill="none" stroke="#63b8ff" d="M605.8,-348.49C613.7,-351.4 621.15,-355.56 627,-361.5 674.52,-409.71 615.11,-461.65 663,-509.5 669.76,-516.25 678.07,-521.22 686.97,-524.86"/>
<polygon fill="#63b8ff" stroke="#63b8ff" points="606.6,-345.08 596.01,-345.54 604.58,-351.78 606.6,-345.08"/>
</a>
</g>
</g>
<!-- Node21 -->
<g id="Node000021" class="node">
<title>Node21</title>
<g id="a_Node000021"><a xlink:href="class_i_r_1_1_vector.html" target="_top" xlink:title=" ">
<polygon fill="white" stroke="#bfbfbf" points="846.5,-500 679.5,-500 679.5,-481 846.5,-481 846.5,-500"/>
<text text-anchor="middle" x="763" y="-488" font-family="Helvetica,sans-Serif" font-size="10.00">IR::Vector&lt; IR::DpdkSelector &gt;</text>
</a>
</g>
</g>
<!-- Node10&#45;&gt;Node21 -->
<g id="edge20_Node000010_Node000021" class="edge">
<title>Node10&#45;&gt;Node21</title>
<g id="a_edge20_Node000010_Node000021"><a xlink:title=" ">
<path fill="none" stroke="#63b8ff" d="M605.69,-348.97C613.54,-351.83 621,-355.85 627,-361.5 664.77,-397.04 623.96,-438.36 663,-472.5 667.87,-476.75 673.39,-480.16 679.29,-482.86"/>
<polygon fill="#63b8ff" stroke="#63b8ff" points="606.59,-345.59 596,-346.04 604.56,-352.29 606.59,-345.59"/>
</a>
</g>
</g>
<!-- Node23 -->
<g id="Node000023" class="node">
<title>Node23</title>
<g id="a_Node000023"><a xlink:href="class_i_r_1_1_vector.html" target="_top" xlink:title=" ">
<polygon fill="white" stroke="#bfbfbf" points="845,-463 681,-463 681,-444 845,-444 845,-463"/>
<text text-anchor="middle" x="763" y="-451" font-family="Helvetica,sans-Serif" font-size="10.00">IR::Vector&lt; IR::DpdkLearner &gt;</text>
</a>
</g>
</g>
<!-- Node10&#45;&gt;Node23 -->
<g id="edge22_Node000010_Node000023" class="edge">
<title>Node10&#45;&gt;Node23</title>
<g id="a_edge22_Node000010_Node000023"><a xlink:title=" ">
<path fill="none" stroke="#63b8ff" d="M605.84,-349.99C613.47,-352.73 620.83,-356.45 627,-361.5 655.31,-384.65 633.86,-413.4 663,-435.5 668.43,-439.62 674.5,-442.9 680.89,-445.5"/>
<polygon fill="#63b8ff" stroke="#63b8ff" points="606.67,-346.58 596.08,-347.02 604.63,-353.28 606.67,-346.58"/>
</a>
</g>
</g>
<!-- Node25 -->
<g id="Node000025" class="node">
<title>Node25</title>
<g id="a_Node000025"><a xlink:href="class_i_r_1_1_vector.html" target="_top" xlink:title=" ">
<polygon fill="white" stroke="#bfbfbf" points="842,-426 684,-426 684,-407 842,-407 842,-426"/>
<text text-anchor="middle" x="763" y="-414" font-family="Helvetica,sans-Serif" font-size="10.00">IR::Vector&lt; IR::DpdkAction &gt;</text>
</a>
</g>
</g>
<!-- Node10&#45;&gt;Node25 -->
<g id="edge24_Node000010_Node000025" class="edge">
<title>Node10&#45;&gt;Node25</title>
<g id="a_edge24_Node000010_Node000025"><a xlink:title=" ">
<path fill="none" stroke="#63b8ff" d="M606.11,-352.42C613.37,-354.83 620.55,-357.81 627,-361.5 646.65,-372.73 643.01,-386.9 663,-397.5 670.34,-401.39 678.37,-404.5 686.58,-406.97"/>
<polygon fill="#63b8ff" stroke="#63b8ff" points="606.79,-348.97 596.2,-349.47 604.79,-355.68 606.79,-348.97"/>
</a>
</g>
</g>
<!-- Node27 -->
<g id="Node000027" class="node">
<title>Node27</title>
<g id="a_Node000027"><a xlink:href="class_i_r_1_1_vector.html" target="_top" xlink:title=" ">
<polygon fill="white" stroke="#bfbfbf" points="839,-389 687,-389 687,-370 839,-370 839,-389"/>
<text text-anchor="middle" x="763" y="-377" font-family="Helvetica,sans-Serif" font-size="10.00">IR::Vector&lt; IR::Parameter &gt;</text>
</a>
</g>
</g>
<!-- Node10&#45;&gt;Node27 -->
<g id="edge26_Node000010_Node000027" class="edge">
<title>Node10&#45;&gt;Node27</title>
<g id="a_edge26_Node000010_Node000027"><a xlink:title=" ">
<path fill="none" stroke="#63b8ff" d="M606.43,-351.89C637.59,-357.42 676.91,-364.4 708.22,-369.96"/>
<polygon fill="#63b8ff" stroke="#63b8ff" points="606.65,-348.38 596.2,-350.08 605.43,-355.27 606.65,-348.38"/>
</a>
</g>
</g>
<!-- Node29 -->
<g id="Node000029" class="node">
<title>Node29</title>
<g id="a_Node000029"><a xlink:href="class_i_r_1_1_vector.html" target="_top" xlink:title=" ">
<polygon fill="white" stroke="#bfbfbf" points="854.5,-352 671.5,-352 671.5,-333 854.5,-333 854.5,-352"/>
<text text-anchor="middle" x="763" y="-340" font-family="Helvetica,sans-Serif" font-size="10.00">IR::Vector&lt; IR::DpdkDeclaration &gt;</text>
</a>
</g>
</g>
<!-- Node10&#45;&gt;Node29 -->
<g id="edge28_Node000010_Node000029" class="edge">
<title>Node10&#45;&gt;Node29</title>
<g id="a_edge28_Node000010_Node000029"><a xlink:title=" ">
<path fill="none" stroke="#63b8ff" d="M606.47,-342.5C626.15,-342.5 649.07,-342.5 671.18,-342.5"/>
<polygon fill="#63b8ff" stroke="#63b8ff" points="606.2,-339 596.2,-342.5 606.2,-346 606.2,-339"/>
</a>
</g>
</g>
<!-- Node31 -->
<g id="Node000031" class="node">
<title>Node31</title>
<g id="a_Node000031"><a xlink:href="class_i_r_1_1_vector.html" target="_top" xlink:title=" ">
<polygon fill="white" stroke="#bfbfbf" points="839.5,-315 686.5,-315 686.5,-296 839.5,-296 839.5,-315"/>
<text text-anchor="middle" x="763" y="-303" font-family="Helvetica,sans-Serif" font-size="10.00">IR::Vector&lt; IR::StructField &gt;</text>
</a>
</g>
</g>
<!-- Node10&#45;&gt;Node31 -->
<g id="edge30_Node000010_Node000031" class="edge">
<title>Node10&#45;&gt;Node31</title>
<g id="a_edge30_Node000010_Node000031"><a xlink:title=" ">
<path fill="none" stroke="#63b8ff" d="M606.43,-333.11C637.59,-327.58 676.91,-320.6 708.22,-315.04"/>
<polygon fill="#63b8ff" stroke="#63b8ff" points="605.43,-329.73 596.2,-334.92 606.65,-336.62 605.43,-329.73"/>
</a>
</g>
</g>
<!-- Node33 -->
<g id="Node000033" class="node">
<title>Node33</title>
<g id="a_Node000033"><a xlink:href="class_i_r_1_1_vector.html" target="_top" xlink:title=" ">
<polygon fill="white" stroke="#bfbfbf" points="825,-278 701,-278 701,-259 825,-259 825,-278"/>
<text text-anchor="middle" x="763" y="-266" font-family="Helvetica,sans-Serif" font-size="10.00">IR::Vector&lt; IR::Type &gt;</text>
</a>
</g>
</g>
<!-- Node10&#45;&gt;Node33 -->
<g id="edge32_Node000010_Node000033" class="edge">
<title>Node10&#45;&gt;Node33</title>
<g id="a_edge32_Node000010_Node000033"><a xlink:title=" ">
<path fill="none" stroke="#63b8ff" d="M577.62,-327.54C599.23,-314.8 632.17,-296.93 663,-286.5 675,-282.44 688.14,-279.24 700.82,-276.73"/>
<polygon fill="#63b8ff" stroke="#63b8ff" points="575.59,-324.68 568.82,-332.83 579.2,-330.68 575.59,-324.68"/>
</a>
</g>
</g>
<!-- Node34 -->
<g id="Node000034" class="node">
<title>Node34</title>
<g id="a_Node000034"><a xlink:href="class_i_r_1_1_vector.html" target="_top" xlink:title=" ">
<polygon fill="white" stroke="#bfbfbf" points="837.5,-241 688.5,-241 688.5,-222 837.5,-222 837.5,-241"/>
<text text-anchor="middle" x="763" y="-229" font-family="Helvetica,sans-Serif" font-size="10.00">IR::Vector&lt; IR::Argument &gt;</text>
</a>
</g>
</g>
<!-- Node10&#45;&gt;Node34 -->
<g id="edge33_Node000010_Node000034" class="edge">
<title>Node10&#45;&gt;Node34</title>
<g id="a_edge33_Node000010_Node000034"><a xlink:title=" ">
<path fill="none" stroke="#63b8ff" d="M568.56,-325.01C588.06,-303.58 624.19,-267.87 663,-249.5 670.97,-245.73 679.65,-242.74 688.45,-240.38"/>
<polygon fill="#63b8ff" stroke="#63b8ff" points="565.73,-322.92 561.7,-332.72 570.96,-327.57 565.73,-322.92"/>
</a>
</g>
</g>
<!-- Node35 -->
<g id="Node000035" class="node">
<title>Node35</title>
<g id="a_Node000035"><a xlink:href="class_i_r_1_1_vector.html" target="_top" xlink:title=" ">
<polygon fill="white" stroke="#bfbfbf" points="841.5,-204 684.5,-204 684.5,-185 841.5,-185 841.5,-204"/>
<text text-anchor="middle" x="763" y="-192" font-family="Helvetica,sans-Serif" font-size="10.00">IR::Vector&lt; IR::ParserState &gt;</text>
</a>
</g>
</g>
<!-- Node10&#45;&gt;Node35 -->
<g id="edge34_Node000010_Node000035" class="edge">
<title>Node10&#45;&gt;Node35</title>
<g id="a_edge34_Node000010_Node000035"><a xlink:title=" ">
<path fill="none" stroke="#63b8ff" d="M563.63,-323.6C580.25,-294.6 616.18,-239.64 663,-212.5 669.65,-208.65 676.94,-205.58 684.45,-203.16"/>
<polygon fill="#63b8ff" stroke="#63b8ff" points="560.38,-322.25 558.57,-332.69 566.5,-325.65 560.38,-322.25"/>
</a>
</g>
</g>
<!-- Node37 -->
<g id="Node000037" class="node">
<title>Node37</title>
<g id="a_Node000037"><a xlink:href="class_i_r_1_1_vector.html" target="_top" xlink:title=" ">
<polygon fill="white" stroke="#bfbfbf" points="840.5,-167 685.5,-167 685.5,-148 840.5,-148 840.5,-167"/>
<text text-anchor="middle" x="763" y="-155" font-family="Helvetica,sans-Serif" font-size="10.00">IR::Vector&lt; IR::SelectCase &gt;</text>
</a>
</g>
</g>
<!-- Node10&#45;&gt;Node37 -->
<g id="edge36_Node000010_Node000037" class="edge">
<title>Node10&#45;&gt;Node37</title>
<g id="a_edge36_Node000010_Node000037"><a xlink:title=" ">
<path fill="none" stroke="#63b8ff" d="M560.18,-323.37C573.62,-287.92 607.47,-212.29 663,-175.5 669.84,-170.97 677.51,-167.49 685.47,-164.83"/>
<polygon fill="#63b8ff" stroke="#63b8ff" points="556.81,-322.4 556.66,-332.99 563.38,-324.8 556.81,-322.4"/>
</a>
</g>
</g>
<!-- Node38 -->
<g id="Node000038" class="node">
<title>Node38</title>
<g id="a_Node000038"><a xlink:href="class_i_r_1_1_vector.html" target="_top" xlink:title=" ">
<polygon fill="white" stroke="#bfbfbf" points="840.5,-130 685.5,-130 685.5,-111 840.5,-111 840.5,-130"/>
<text text-anchor="middle" x="763" y="-118" font-family="Helvetica,sans-Serif" font-size="10.00">IR::Vector&lt; IR::Expression &gt;</text>
</a>
</g>
</g>
<!-- Node10&#45;&gt;Node38 -->
<g id="edge37_Node000010_Node000038" class="edge">
<title>Node10&#45;&gt;Node38</title>
<g id="a_edge37_Node000010_Node000038"><a xlink:title=" ">
<path fill="none" stroke="#63b8ff" d="M557.93,-322.95C568.38,-281.61 598.69,-185.29 663,-138.5 669.71,-133.62 677.34,-129.93 685.31,-127.16"/>
<polygon fill="#63b8ff" stroke="#63b8ff" points="554.48,-322.31 555.54,-332.86 561.29,-323.95 554.48,-322.31"/>
</a>
</g>
</g>
<!-- Node39 -->
<g id="Node000039" class="node">
<title>Node39</title>
<g id="a_Node000039"><a xlink:href="class_i_r_1_1_vector.html" target="_top" xlink:title=" ">
<polygon fill="white" stroke="#bfbfbf" points="809.5,-93 716.5,-93 716.5,-74 809.5,-74 809.5,-93"/>
<text text-anchor="middle" x="763" y="-81" font-family="Helvetica,sans-Serif" font-size="10.00">IR::Vector&lt; N &gt;</text>
</a>
</g>
</g>
<!-- Node10&#45;&gt;Node39 -->
<g id="edge38_Node000010_Node000039" class="edge">
<title>Node10&#45;&gt;Node39</title>
<g id="a_edge38_Node000010_Node000039"><a xlink:title=" ">
<path fill="none" stroke="#63b8ff" d="M556.2,-323.01C563.74,-276.53 589.5,-158.79 663,-101.5 678.02,-89.79 698.2,-84.79 716.42,-82.91"/>
<polygon fill="#63b8ff" stroke="#63b8ff" points="552.73,-322.57 554.69,-332.98 559.65,-323.62 552.73,-322.57"/>
</a>
</g>
</g>
<!-- Node40 -->
<g id="Node000040" class="node">
<title>Node40</title>
<g id="a_Node000040"><a xlink:href="class_i_r_1_1_vector.html" target="_top" xlink:title=" ">
<polygon fill="white" stroke="#bfbfbf" points="840.5,-56 685.5,-56 685.5,-37 840.5,-37 840.5,-56"/>
<text text-anchor="middle" x="763" y="-44" font-family="Helvetica,sans-Serif" font-size="10.00">IR::Vector&lt; IR::Annotation &gt;</text>
</a>
</g>
</g>
<!-- Node10&#45;&gt;Node40 -->
<g id="edge39_Node000010_Node000040" class="edge">
<title>Node10&#45;&gt;Node40</title>
<g id="a_edge39_Node000010_Node000040"><a xlink:title=" ">
<path fill="none" stroke="#63b8ff" d="M554.92,-322.88C559.76,-271.53 580.27,-132.46 663,-64.5 669.61,-59.07 677.32,-55.05 685.47,-52.12"/>
<polygon fill="#63b8ff" stroke="#63b8ff" points="551.43,-322.7 554.07,-332.96 558.4,-323.29 551.43,-322.7"/>
</a>
</g>
</g>
<!-- Node41 -->
<g id="Node000041" class="node">
<title>Node41</title>
<g id="a_Node000041"><a xlink:href="class_i_r_1_1_vector.html" target="_top" xlink:title=" ">
<polygon fill="white" stroke="#bfbfbf" points="809,-19 717,-19 717,0 809,0 809,-19"/>
<text text-anchor="middle" x="763" y="-7" font-family="Helvetica,sans-Serif" font-size="10.00">IR::Vector&lt; T &gt;</text>
</a>
</g>
</g>
<!-- Node10&#45;&gt;Node41 -->
<g id="edge40_Node000010_Node000041" class="edge">
<title>Node10&#45;&gt;Node41</title>
<g id="a_edge40_Node000010_Node000041"><a xlink:title=" ">
<path fill="none" stroke="#63b8ff" d="M553.92,-322.6C556.25,-266.54 571.03,-106.24 663,-27.5 677.73,-14.89 698.3,-9.83 716.87,-8.15"/>
<polygon fill="#63b8ff" stroke="#63b8ff" points="550.41,-322.81 553.59,-332.92 557.41,-323.04 550.41,-322.81"/>
</a>
</g>
</g>
<!-- Node12 -->
<g id="Node000012" class="node">
<title>Node12</title>
<g id="a_Node000012"><a xlink:href="class_i_r_1_1_indexed_vector.html" target="_top" xlink:title=" ">
<polygon fill="white" stroke="#666666" points="1044,-745.5 899,-745.5 899,-715.5 1044,-715.5 1044,-745.5"/>
<text text-anchor="start" x="907" y="-733.5" font-family="Helvetica,sans-Serif" font-size="10.00">IR::IndexedVector&lt;</text>
<text text-anchor="middle" x="971.5" y="-722.5" font-family="Helvetica,sans-Serif" font-size="10.00"> IR::DpdkAsmStatement &gt;</text>
</a>
</g>
</g>
<!-- Node11&#45;&gt;Node12 -->
<g id="edge11_Node000011_Node000012" class="edge">
<title>Node11&#45;&gt;Node12</title>
<g id="a_edge11_Node000011_Node000012"><a xlink:title=" ">
<path fill="none" stroke="#63b8ff" d="M873.24,-728.14C881.94,-728.36 890.58,-728.56 898.91,-728.77"/>
<polygon fill="#63b8ff" stroke="#63b8ff" points="873.1,-724.64 863.02,-727.9 872.93,-731.64 873.1,-724.64"/>
</a>
</g>
</g>
<!-- Node14 -->
<g id="Node000014" class="node">
<title>Node14</title>
<g id="a_Node000014"><a xlink:href="class_i_r_1_1_indexed_vector.html" target="_top" xlink:title=" ">
<polygon fill="white" stroke="#666666" points="1026.5,-697.5 916.5,-697.5 916.5,-667.5 1026.5,-667.5 1026.5,-697.5"/>
<text text-anchor="start" x="924.5" y="-685.5" font-family="Helvetica,sans-Serif" font-size="10.00">IR::IndexedVector&lt;</text>
<text text-anchor="middle" x="971.5" y="-674.5" font-family="Helvetica,sans-Serif" font-size="10.00"> IR::Node &gt;</text>
</a>
</g>
</g>
<!-- Node13&#45;&gt;Node14 -->
<g id="edge13_Node000013_Node000014" class="edge">
<title>Node13&#45;&gt;Node14</title>
<g id="a_edge13_Node000013_Node000014"><a xlink:title=" ">
<path fill="none" stroke="#63b8ff" d="M836.76,-679.26C862.91,-679.89 891.93,-680.6 916.23,-681.19"/>
<polygon fill="#63b8ff" stroke="#63b8ff" points="836.6,-675.76 826.52,-679.01 836.43,-682.75 836.6,-675.76"/>
</a>
</g>
</g>
<!-- Node16 -->
<g id="Node000016" class="node">
<title>Node16</title>
<g id="a_Node000016"><a xlink:href="class_i_r_1_1_indexed_vector.html" target="_top" xlink:title=" ">
<polygon fill="white" stroke="#666666" points="1026.5,-649.5 916.5,-649.5 916.5,-619.5 1026.5,-619.5 1026.5,-649.5"/>
<text text-anchor="start" x="924.5" y="-637.5" font-family="Helvetica,sans-Serif" font-size="10.00">IR::IndexedVector&lt;</text>
<text text-anchor="middle" x="971.5" y="-626.5" font-family="Helvetica,sans-Serif" font-size="10.00"> IR::Declaration &gt;</text>
</a>
</g>
</g>
<!-- Node15&#45;&gt;Node16 -->
<g id="edge15_Node000015_Node000016" class="edge">
<title>Node15&#45;&gt;Node16</title>
<g id="a_edge15_Node000015_Node000016"><a xlink:title=" ">
<path fill="none" stroke="#63b8ff" d="M852.33,-631.64C874.12,-632.17 896.8,-632.72 916.41,-633.19"/>
<polygon fill="#63b8ff" stroke="#63b8ff" points="852.15,-628.13 842.07,-631.39 851.98,-635.13 852.15,-628.13"/>
</a>
</g>
</g>
<!-- Node18 -->
<g id="Node000018" class="node">
<title>Node18</title>
<g id="a_Node000018"><a xlink:href="class_i_r_1_1_indexed_vector.html" target="_top" xlink:title=" ">
<polygon fill="white" stroke="#666666" points="1026.5,-601.5 916.5,-601.5 916.5,-571.5 1026.5,-571.5 1026.5,-601.5"/>
<text text-anchor="start" x="924.5" y="-589.5" font-family="Helvetica,sans-Serif" font-size="10.00">IR::IndexedVector&lt;</text>
<text text-anchor="middle" x="971.5" y="-578.5" font-family="Helvetica,sans-Serif" font-size="10.00"> IR::StatOrDecl &gt;</text>
</a>
</g>
</g>
<!-- Node17&#45;&gt;Node18 -->
<g id="edge17_Node000017_Node000018" class="edge">
<title>Node17&#45;&gt;Node18</title>
<g id="a_edge17_Node000017_Node000018"><a xlink:title=" ">
<path fill="none" stroke="#63b8ff" d="M850.2,-583.59C872.58,-584.13 896.06,-584.7 916.27,-585.19"/>
<polygon fill="#63b8ff" stroke="#63b8ff" points="850.1,-580.08 840.01,-583.34 849.93,-587.08 850.1,-580.08"/>
</a>
</g>
</g>
<!-- Node20 -->
<g id="Node000020" class="node">
<title>Node20</title>
<g id="a_Node000020"><a xlink:href="class_i_r_1_1_indexed_vector.html" target="_top" xlink:title=" ">
<polygon fill="white" stroke="#666666" points="1026.5,-553.5 916.5,-553.5 916.5,-523.5 1026.5,-523.5 1026.5,-553.5"/>
<text text-anchor="start" x="924.5" y="-541.5" font-family="Helvetica,sans-Serif" font-size="10.00">IR::IndexedVector&lt;</text>
<text text-anchor="middle" x="971.5" y="-530.5" font-family="Helvetica,sans-Serif" font-size="10.00"> IR::DpdkTable &gt;</text>
</a>
</g>
</g>
<!-- Node19&#45;&gt;Node20 -->
<g id="edge19_Node000019_Node000020" class="edge">
<title>Node19&#45;&gt;Node20</title>
<g id="a_edge19_Node000019_Node000020"><a xlink:title=" ">
<path fill="none" stroke="#63b8ff" d="M849.15,-535.56C871.91,-536.11 895.88,-536.69 916.45,-537.19"/>
<polygon fill="#63b8ff" stroke="#63b8ff" points="849.22,-532.06 839.14,-535.32 849.05,-539.06 849.22,-532.06"/>
</a>
</g>
</g>
<!-- Node22 -->
<g id="Node000022" class="node">
<title>Node22</title>
<g id="a_Node000022"><a xlink:href="class_i_r_1_1_indexed_vector.html" target="_top" xlink:title=" ">
<polygon fill="white" stroke="#666666" points="1027.5,-505.5 915.5,-505.5 915.5,-475.5 1027.5,-475.5 1027.5,-505.5"/>
<text text-anchor="start" x="923.5" y="-493.5" font-family="Helvetica,sans-Serif" font-size="10.00">IR::IndexedVector&lt;</text>
<text text-anchor="middle" x="971.5" y="-482.5" font-family="Helvetica,sans-Serif" font-size="10.00"> IR::DpdkSelector &gt;</text>
</a>
</g>
</g>
<!-- Node21&#45;&gt;Node22 -->
<g id="edge21_Node000021_Node000022" class="edge">
<title>Node21&#45;&gt;Node22</title>
<g id="a_edge21_Node000021_Node000022"><a xlink:title=" ">
<path fill="none" stroke="#63b8ff" d="M856.61,-490.5C876.68,-490.5 897.29,-490.5 915.37,-490.5"/>
<polygon fill="#63b8ff" stroke="#63b8ff" points="856.5,-487 846.5,-490.5 856.5,-494 856.5,-487"/>
</a>
</g>
</g>
<!-- Node24 -->
<g id="Node000024" class="node">
<title>Node24</title>
<g id="a_Node000024"><a xlink:href="class_i_r_1_1_indexed_vector.html" target="_top" xlink:title=" ">
<polygon fill="white" stroke="#666666" points="1026.5,-457.5 916.5,-457.5 916.5,-427.5 1026.5,-427.5 1026.5,-457.5"/>
<text text-anchor="start" x="924.5" y="-445.5" font-family="Helvetica,sans-Serif" font-size="10.00">IR::IndexedVector&lt;</text>
<text text-anchor="middle" x="971.5" y="-434.5" font-family="Helvetica,sans-Serif" font-size="10.00"> IR::DpdkLearner &gt;</text>
</a>
</g>
</g>
<!-- Node23&#45;&gt;Node24 -->
<g id="edge23_Node000023_Node000024" class="edge">
<title>Node23&#45;&gt;Node24</title>
<g id="a_edge23_Node000023_Node000024"><a xlink:title=" ">
<path fill="none" stroke="#63b8ff" d="M855.21,-448.64C876.11,-447.53 897.67,-446.38 916.42,-445.38"/>
<polygon fill="#63b8ff" stroke="#63b8ff" points="854.82,-445.16 845.02,-449.18 855.19,-452.15 854.82,-445.16"/>
</a>
</g>
</g>
<!-- Node26 -->
<g id="Node000026" class="node">
<title>Node26</title>
<g id="a_Node000026"><a xlink:href="class_i_r_1_1_indexed_vector.html" target="_top" xlink:title=" ">
<polygon fill="white" stroke="#666666" points="1026.5,-409.5 916.5,-409.5 916.5,-379.5 1026.5,-379.5 1026.5,-409.5"/>
<text text-anchor="start" x="924.5" y="-397.5" font-family="Helvetica,sans-Serif" font-size="10.00">IR::IndexedVector&lt;</text>
<text text-anchor="middle" x="971.5" y="-386.5" font-family="Helvetica,sans-Serif" font-size="10.00"> IR::DpdkAction &gt;</text>
</a>
</g>
</g>
<!-- Node25&#45;&gt;Node26 -->
<g id="edge25_Node000025_Node000026" class="edge">
<title>Node25&#45;&gt;Node26</title>
<g id="a_edge25_Node000025_Node000026"><a xlink:title=" ">
<path fill="none" stroke="#63b8ff" d="M852.04,-407.12C873.91,-404.79 896.71,-402.36 916.41,-400.26"/>
<polygon fill="#63b8ff" stroke="#63b8ff" points="851.64,-403.64 842.07,-408.18 852.38,-410.6 851.64,-403.64"/>
</a>
</g>
</g>
<!-- Node28 -->
<g id="Node000028" class="node">
<title>Node28</title>
<g id="a_Node000028"><a xlink:href="class_i_r_1_1_indexed_vector.html" target="_top" xlink:title=" ">
<polygon fill="white" stroke="#666666" points="1026.5,-361.5 916.5,-361.5 916.5,-331.5 1026.5,-331.5 1026.5,-361.5"/>
<text text-anchor="start" x="924.5" y="-349.5" font-family="Helvetica,sans-Serif" font-size="10.00">IR::IndexedVector&lt;</text>
<text text-anchor="middle" x="971.5" y="-338.5" font-family="Helvetica,sans-Serif" font-size="10.00"> IR::Parameter &gt;</text>
</a>
</g>
</g>
<!-- Node27&#45;&gt;Node28 -->
<g id="edge27_Node000027_Node000028" class="edge">
<title>Node27&#45;&gt;Node28</title>
<g id="a_edge27_Node000027_Node000028"><a xlink:title=" ">
<path fill="none" stroke="#63b8ff" d="M833.62,-368.37C860.63,-364.06 891.09,-359.19 916.4,-355.14"/>
<polygon fill="#63b8ff" stroke="#63b8ff" points="832.77,-364.97 823.45,-370 833.88,-371.88 832.77,-364.97"/>
</a>
</g>
</g>
<!-- Node30 -->
<g id="Node000030" class="node">
<title>Node30</title>
<g id="a_Node000030"><a xlink:href="class_i_r_1_1_indexed_vector.html" target="_top" xlink:title=" ">
<polygon fill="white" stroke="#666666" points="1035.5,-313.5 907.5,-313.5 907.5,-283.5 1035.5,-283.5 1035.5,-313.5"/>
<text text-anchor="start" x="915.5" y="-301.5" font-family="Helvetica,sans-Serif" font-size="10.00">IR::IndexedVector&lt;</text>
<text text-anchor="middle" x="971.5" y="-290.5" font-family="Helvetica,sans-Serif" font-size="10.00"> IR::DpdkDeclaration &gt;</text>
</a>
</g>
</g>
<!-- Node29&#45;&gt;Node30 -->
<g id="edge29_Node000029_Node000030" class="edge">
<title>Node29&#45;&gt;Node30</title>
<g id="a_edge29_Node000029_Node000030"><a xlink:title=" ">
<path fill="none" stroke="#63b8ff" d="M825.54,-331.08C837.96,-328.66 850.91,-326.07 863,-323.5 877.53,-320.42 893.11,-316.91 907.78,-313.52"/>
<polygon fill="#63b8ff" stroke="#63b8ff" points="824.87,-327.64 815.71,-332.97 826.2,-334.51 824.87,-327.64"/>
</a>
</g>
</g>
<!-- Node32 -->
<g id="Node000032" class="node">
<title>Node32</title>
<g id="a_Node000032"><a xlink:href="class_i_r_1_1_indexed_vector.html" target="_top" xlink:title=" ">
<polygon fill="white" stroke="#666666" points="1026.5,-265.5 916.5,-265.5 916.5,-235.5 1026.5,-235.5 1026.5,-265.5"/>
<text text-anchor="start" x="924.5" y="-253.5" font-family="Helvetica,sans-Serif" font-size="10.00">IR::IndexedVector&lt;</text>
<text text-anchor="middle" x="971.5" y="-242.5" font-family="Helvetica,sans-Serif" font-size="10.00"> IR::StructField &gt;</text>
</a>
</g>
</g>
<!-- Node31&#45;&gt;Node32 -->
<g id="edge31_Node000031_Node000032" class="edge">
<title>Node31&#45;&gt;Node32</title>
<g id="a_edge31_Node000031_Node000032"><a xlink:title=" ">
<path fill="none" stroke="#63b8ff" d="M830.5,-294C841.42,-291.75 852.57,-289.24 863,-286.5 863.84,-286.28 896.6,-275.3 925.73,-265.53"/>
<polygon fill="#63b8ff" stroke="#63b8ff" points="829.69,-290.6 820.57,-295.99 831.07,-297.46 829.69,-290.6"/>
</a>
</g>
</g>
<!-- Node36 -->
<g id="Node000036" class="node">
<title>Node36</title>
<g id="a_Node000036"><a xlink:href="class_i_r_1_1_indexed_vector.html" target="_top" xlink:title=" ">
<polygon fill="white" stroke="#666666" points="1026.5,-209.5 916.5,-209.5 916.5,-179.5 1026.5,-179.5 1026.5,-209.5"/>
<text text-anchor="start" x="924.5" y="-197.5" font-family="Helvetica,sans-Serif" font-size="10.00">IR::IndexedVector&lt;</text>
<text text-anchor="middle" x="971.5" y="-186.5" font-family="Helvetica,sans-Serif" font-size="10.00"> IR::ParserState &gt;</text>
</a>
</g>
</g>
<!-- Node35&#45;&gt;Node36 -->
<g id="edge35_Node000035_Node000036" class="edge">
<title>Node35&#45;&gt;Node36</title>
<g id="a_edge35_Node000035_Node000036"><a xlink:title=" ">
<path fill="none" stroke="#63b8ff" d="M852.05,-194.5C873.86,-194.5 896.6,-194.5 916.25,-194.5"/>
<polygon fill="#63b8ff" stroke="#63b8ff" points="851.77,-191 841.77,-194.5 851.77,-198 851.77,-191"/>
</a>
</g>
</g>
<!-- Node42 -->
<g id="Node000042" class="node">
<title>Node42</title>
<g id="a_Node000042"><a xlink:href="class_i_r_1_1_indexed_vector.html" target="_top" xlink:title=" ">
<polygon fill="white" stroke="#666666" points="1036.5,-19 906.5,-19 906.5,0 1036.5,0 1036.5,-19"/>
<text text-anchor="middle" x="971.5" y="-7" font-family="Helvetica,sans-Serif" font-size="10.00">IR::IndexedVector&lt; T &gt;</text>
</a>
</g>
</g>
<!-- Node41&#45;&gt;Node42 -->
<g id="edge41_Node000041_Node000042" class="edge">
<title>Node41&#45;&gt;Node42</title>
<g id="a_edge41_Node000041_Node000042"><a xlink:title=" ">
<path fill="none" stroke="#63b8ff" d="M819.41,-9.5C846.2,-9.5 878.49,-9.5 906.34,-9.5"/>
<polygon fill="#63b8ff" stroke="#63b8ff" points="819.06,-6 809.06,-9.5 819.06,-13 819.06,-6"/>
</a>
</g>
</g>
</g>
</svg>
