<?xml version="1.0" encoding="UTF-8" standalone="no"?>
<!DOCTYPE svg PUBLIC "-//W3C//DTD SVG 1.1//EN"
 "http://www.w3.org/Graphics/SVG/1.1/DTD/svg11.dtd">
<!-- Generated by graphviz version 2.43.0 (0)
 -->
<!-- Title: P4::ReplaceSelectRange Pages: 1 -->
<svg width="142pt" height="192pt"
 viewBox="0.00 0.00 142.00 192.00" xmlns="http://www.w3.org/2000/svg" xmlns:xlink="http://www.w3.org/1999/xlink">
<g id="graph0" class="graph" transform="scale(1 1) rotate(0) translate(4 188)">
<title>P4::ReplaceSelectRange</title>
<!-- Node1 -->
<g id="Node000001" class="node">
<title>Node1</title>
<g id="a_Node000001"><a xlink:title=" ">
<polygon fill="#999999" stroke="#666666" points="134,-19 0,-19 0,0 134,0 134,-19"/>
<text text-anchor="middle" x="67" y="-7" font-family="Helvetica,sans-Serif" font-size="10.00">P4::ReplaceSelectRange</text>
</a>
</g>
</g>
<!-- Node2 -->
<g id="Node000002" class="node">
<title>Node2</title>
<g id="a_Node000002"><a xlink:href="class_pass_manager.html" target="_top" xlink:title=" ">
<polygon fill="white" stroke="#bfbfbf" points="107.5,-74 26.5,-74 26.5,-55 107.5,-55 107.5,-74"/>
<text text-anchor="middle" x="67" y="-62" font-family="Helvetica,sans-Serif" font-size="10.00">PassManager</text>
</a>
</g>
</g>
<!-- Node2&#45;&gt;Node1 -->
<g id="edge1_Node000001_Node000002" class="edge">
<title>Node2&#45;&gt;Node1</title>
<g id="a_edge1_Node000001_Node000002"><a xlink:title=" ">
<path fill="none" stroke="#63b8ff" d="M67,-44.66C67,-35.93 67,-25.99 67,-19.09"/>
<polygon fill="#63b8ff" stroke="#63b8ff" points="63.5,-44.75 67,-54.75 70.5,-44.75 63.5,-44.75"/>
</a>
</g>
</g>
<!-- Node3 -->
<g id="Node000003" class="node">
<title>Node3</title>
<g id="a_Node000003"><a xlink:href="class_visitor.html" target="_top" xlink:title=" ">
<polygon fill="white" stroke="#bfbfbf" points="91,-184 43,-184 43,-165 91,-165 91,-184"/>
<text text-anchor="middle" x="67" y="-172" font-family="Helvetica,sans-Serif" font-size="10.00">Visitor</text>
</a>
</g>
</g>
<!-- Node3&#45;&gt;Node2 -->
<g id="edge2_Node000002_Node000003" class="edge">
<title>Node3&#45;&gt;Node2</title>
<g id="a_edge2_Node000002_Node000003"><a xlink:title=" ">
<path fill="none" stroke="#63b8ff" d="M61.38,-155.07C59.24,-147.13 57.06,-137.69 56,-129 53.59,-109.23 59.85,-86.25 63.89,-74.09"/>
<polygon fill="#63b8ff" stroke="#63b8ff" points="58.04,-156.11 64.17,-164.75 64.77,-154.17 58.04,-156.11"/>
</a>
</g>
</g>
<!-- Node4 -->
<g id="Node000004" class="node">
<title>Node4</title>
<g id="a_Node000004"><a xlink:href="class_backtrack.html" target="_top" xlink:title=" ">
<polygon fill="white" stroke="#bfbfbf" points="130.5,-129 65.5,-129 65.5,-110 130.5,-110 130.5,-129"/>
<text text-anchor="middle" x="98" y="-117" font-family="Helvetica,sans-Serif" font-size="10.00">Backtrack</text>
</a>
</g>
</g>
<!-- Node3&#45;&gt;Node4 -->
<g id="edge4_Node000004_Node000003" class="edge">
<title>Node3&#45;&gt;Node4</title>
<g id="a_edge4_Node000004_Node000003"><a xlink:title=" ">
<path fill="none" stroke="#63b8ff" d="M77.18,-156.1C82.47,-147.04 88.72,-136.37 92.98,-129.09"/>
<polygon fill="#63b8ff" stroke="#63b8ff" points="74.15,-154.35 72.12,-164.75 80.19,-157.88 74.15,-154.35"/>
</a>
</g>
</g>
<!-- Node4&#45;&gt;Node2 -->
<g id="edge3_Node000002_Node000004" class="edge">
<title>Node4&#45;&gt;Node2</title>
<g id="a_edge3_Node000002_Node000004"><a xlink:title=" ">
<path fill="none" stroke="#63b8ff" d="M87.82,-101.1C82.53,-92.04 76.28,-81.37 72.02,-74.09"/>
<polygon fill="#63b8ff" stroke="#63b8ff" points="84.81,-102.88 92.88,-109.75 90.85,-99.35 84.81,-102.88"/>
</a>
</g>
</g>
</g>
</svg>
