<?xml version="1.0" encoding="UTF-8" standalone="no"?>
<!DOCTYPE svg PUBLIC "-//W3C//DTD SVG 1.1//EN"
 "http://www.w3.org/Graphics/SVG/1.1/DTD/svg11.dtd">
<!-- Generated by graphviz version 2.43.0 (0)
 -->
<!-- Title: P4::MethodInstance Pages: 1 -->
<svg width="602pt" height="212pt"
 viewBox="0.00 0.00 602.00 212.00" xmlns="http://www.w3.org/2000/svg" xmlns:xlink="http://www.w3.org/1999/xlink">
<g id="graph0" class="graph" transform="scale(1 1) rotate(0) translate(4 208)">
<title>P4::MethodInstance</title>
<!-- Node1 -->
<g id="Node000001" class="node">
<title>Node1</title>
<g id="a_Node000001"><a xlink:title=" ">
<polygon fill="#999999" stroke="#666666" points="451,-111 338,-111 338,-92 451,-92 451,-111"/>
<text text-anchor="middle" x="394.5" y="-99" font-family="Helvetica,sans-Serif" font-size="10.00">P4::MethodInstance</text>
</a>
</g>
</g>
<!-- Node5 -->
<g id="Node000005" class="node">
<title>Node5</title>
<g id="a_Node000005"><a xlink:href="class_p4_1_1_action_call.html" target="_top" xlink:title=" ">
<polygon fill="white" stroke="#666666" points="582.5,-204 498.5,-204 498.5,-185 582.5,-185 582.5,-204"/>
<text text-anchor="middle" x="540.5" y="-192" font-family="Helvetica,sans-Serif" font-size="10.00">P4::ActionCall</text>
</a>
</g>
</g>
<!-- Node1&#45;&gt;Node5 -->
<g id="edge4_Node000001_Node000005" class="edge">
<title>Node1&#45;&gt;Node5</title>
<g id="a_edge4_Node000001_Node000005"><a xlink:title=" ">
<path fill="none" stroke="#63b8ff" d="M412.39,-118.53C429.78,-135.25 458.32,-160.52 487,-176.5 492.81,-179.74 499.3,-182.54 505.68,-184.9"/>
<polygon fill="#63b8ff" stroke="#63b8ff" points="414.39,-115.59 404.8,-111.08 409.49,-120.58 414.39,-115.59"/>
</a>
</g>
</g>
<!-- Node6 -->
<g id="Node000006" class="node">
<title>Node6</title>
<g id="a_Node000006"><a xlink:href="class_p4_1_1_apply_method.html" target="_top" xlink:title=" ">
<polygon fill="white" stroke="#666666" points="590,-167 491,-167 491,-148 590,-148 590,-167"/>
<text text-anchor="middle" x="540.5" y="-155" font-family="Helvetica,sans-Serif" font-size="10.00">P4::ApplyMethod</text>
</a>
</g>
</g>
<!-- Node1&#45;&gt;Node6 -->
<g id="edge5_Node000001_Node000006" class="edge">
<title>Node1&#45;&gt;Node6</title>
<g id="a_edge5_Node000001_Node000006"><a xlink:title=" ">
<path fill="none" stroke="#63b8ff" d="M426.76,-115.06C444.35,-122.54 466.78,-131.84 487,-139.5 494.57,-142.37 502.82,-145.29 510.5,-147.92"/>
<polygon fill="#63b8ff" stroke="#63b8ff" points="428.1,-111.83 417.53,-111.11 425.35,-118.26 428.1,-111.83"/>
</a>
</g>
</g>
<!-- Node7 -->
<g id="Node000007" class="node">
<title>Node7</title>
<g id="a_Node000007"><a xlink:href="class_p4_1_1_built_in_method.html" target="_top" xlink:title=" ">
<polygon fill="white" stroke="#666666" points="592,-130 489,-130 489,-111 592,-111 592,-130"/>
<text text-anchor="middle" x="540.5" y="-118" font-family="Helvetica,sans-Serif" font-size="10.00">P4::BuiltInMethod</text>
</a>
</g>
</g>
<!-- Node1&#45;&gt;Node7 -->
<g id="edge6_Node000001_Node000007" class="edge">
<title>Node1&#45;&gt;Node7</title>
<g id="a_edge6_Node000001_Node000007"><a xlink:title=" ">
<path fill="none" stroke="#63b8ff" d="M461.13,-110.16C470.38,-111.38 479.77,-112.62 488.68,-113.8"/>
<polygon fill="#63b8ff" stroke="#63b8ff" points="461.55,-106.68 451.17,-108.85 460.63,-113.62 461.55,-106.68"/>
</a>
</g>
</g>
<!-- Node8 -->
<g id="Node000008" class="node">
<title>Node8</title>
<g id="a_Node000008"><a xlink:href="class_p4_1_1_extern_function.html" target="_top" xlink:title=" ">
<polygon fill="white" stroke="#666666" points="594,-93 487,-93 487,-74 594,-74 594,-93"/>
<text text-anchor="middle" x="540.5" y="-81" font-family="Helvetica,sans-Serif" font-size="10.00">P4::ExternFunction</text>
</a>
</g>
</g>
<!-- Node1&#45;&gt;Node8 -->
<g id="edge7_Node000001_Node000008" class="edge">
<title>Node1&#45;&gt;Node8</title>
<g id="a_edge7_Node000001_Node000008"><a xlink:title=" ">
<path fill="none" stroke="#63b8ff" d="M461.17,-93.29C469.76,-92.22 478.47,-91.13 486.81,-90.09"/>
<polygon fill="#63b8ff" stroke="#63b8ff" points="460.66,-89.83 451.17,-94.54 461.53,-96.77 460.66,-89.83"/>
</a>
</g>
</g>
<!-- Node9 -->
<g id="Node000009" class="node">
<title>Node9</title>
<g id="a_Node000009"><a xlink:href="class_p4_1_1_extern_method.html" target="_top" xlink:title=" ">
<polygon fill="white" stroke="#666666" points="592,-56 489,-56 489,-37 592,-37 592,-56"/>
<text text-anchor="middle" x="540.5" y="-44" font-family="Helvetica,sans-Serif" font-size="10.00">P4::ExternMethod</text>
</a>
</g>
</g>
<!-- Node1&#45;&gt;Node9 -->
<g id="edge8_Node000001_Node000009" class="edge">
<title>Node1&#45;&gt;Node9</title>
<g id="a_edge8_Node000001_Node000009"><a xlink:title=" ">
<path fill="none" stroke="#63b8ff" d="M427.99,-87.86C445.4,-80.68 467.27,-71.86 487,-64.5 494.67,-61.64 503.04,-58.69 510.79,-56.03"/>
<polygon fill="#63b8ff" stroke="#63b8ff" points="426.2,-84.82 418.3,-91.88 428.88,-91.28 426.2,-84.82"/>
</a>
</g>
</g>
<!-- Node10 -->
<g id="Node000010" class="node">
<title>Node10</title>
<g id="a_Node000010"><a xlink:href="class_p4_1_1_function_call.html" target="_top" xlink:title=" ">
<polygon fill="white" stroke="#666666" points="588,-19 493,-19 493,0 588,0 588,-19"/>
<text text-anchor="middle" x="540.5" y="-7" font-family="Helvetica,sans-Serif" font-size="10.00">P4::FunctionCall</text>
</a>
</g>
</g>
<!-- Node1&#45;&gt;Node10 -->
<g id="edge9_Node000001_Node000010" class="edge">
<title>Node1&#45;&gt;Node10</title>
<g id="a_edge9_Node000001_Node000010"><a xlink:title=" ">
<path fill="none" stroke="#63b8ff" d="M413,-84.18C430.47,-67.69 458.73,-43.13 487,-27.5 492.9,-24.24 499.5,-21.41 505.98,-19.03"/>
<polygon fill="#63b8ff" stroke="#63b8ff" points="410.12,-82.09 405.34,-91.55 414.97,-87.14 410.12,-82.09"/>
</a>
</g>
</g>
<!-- Node2 -->
<g id="Node000002" class="node">
<title>Node2</title>
<g id="a_Node000002"><a xlink:href="class_p4_1_1_instance_base.html" target="_top" xlink:title=" ">
<polygon fill="white" stroke="#bfbfbf" points="302,-111 202,-111 202,-92 302,-92 302,-111"/>
<text text-anchor="middle" x="252" y="-99" font-family="Helvetica,sans-Serif" font-size="10.00">P4::InstanceBase</text>
</a>
</g>
</g>
<!-- Node2&#45;&gt;Node1 -->
<g id="edge1_Node000001_Node000002" class="edge">
<title>Node2&#45;&gt;Node1</title>
<g id="a_edge1_Node000001_Node000002"><a xlink:title=" ">
<path fill="none" stroke="#63b8ff" d="M312.34,-101.5C320.81,-101.5 329.5,-101.5 337.9,-101.5"/>
<polygon fill="#63b8ff" stroke="#63b8ff" points="312.14,-98 302.14,-101.5 312.14,-105 312.14,-98"/>
</a>
</g>
</g>
<!-- Node3 -->
<g id="Node000003" class="node">
<title>Node3</title>
<g id="a_Node000003"><a xlink:href="class_i_castable.html" target="_top" xlink:title=" ">
<polygon fill="white" stroke="#666666" points="166,-111 104,-111 104,-92 166,-92 166,-111"/>
<text text-anchor="middle" x="135" y="-99" font-family="Helvetica,sans-Serif" font-size="10.00">ICastable</text>
</a>
</g>
</g>
<!-- Node3&#45;&gt;Node2 -->
<g id="edge2_Node000002_Node000003" class="edge">
<title>Node3&#45;&gt;Node2</title>
<g id="a_edge2_Node000002_Node000003"><a xlink:title=" ">
<path fill="none" stroke="#63b8ff" d="M176.33,-101.5C184.58,-101.5 193.35,-101.5 201.86,-101.5"/>
<polygon fill="#63b8ff" stroke="#63b8ff" points="176.21,-98 166.21,-101.5 176.21,-105 176.21,-98"/>
</a>
</g>
</g>
<!-- Node4 -->
<g id="Node000004" class="node">
<title>Node4</title>
<g id="a_Node000004"><a xlink:href="struct_r_t_t_i_1_1_base.html" target="_top" xlink:title=" ">
<polygon fill="white" stroke="#bfbfbf" points="68,-111 0,-111 0,-92 68,-92 68,-111"/>
<text text-anchor="middle" x="34" y="-99" font-family="Helvetica,sans-Serif" font-size="10.00">RTTI::Base</text>
</a>
</g>
</g>
<!-- Node4&#45;&gt;Node3 -->
<g id="edge3_Node000003_Node000004" class="edge">
<title>Node4&#45;&gt;Node3</title>
<g id="a_edge3_Node000003_Node000004"><a xlink:title=" ">
<path fill="none" stroke="#63b8ff" d="M78.44,-101.5C86.95,-101.5 95.71,-101.5 103.68,-101.5"/>
<polygon fill="#63b8ff" stroke="#63b8ff" points="78.24,-98 68.24,-101.5 78.24,-105 78.24,-98"/>
</a>
</g>
</g>
</g>
</svg>
