<?xml version="1.0" encoding="UTF-8" standalone="no"?>
<!DOCTYPE svg PUBLIC "-//W3C//DTD SVG 1.1//EN"
 "http://www.w3.org/Graphics/SVG/1.1/DTD/svg11.dtd">
<!-- Generated by graphviz version 2.43.0 (0)
 -->
<!-- Title: P4::BMV2::PortableCodeGenerator Pages: 1 -->
<svg width="348pt" height="82pt"
 viewBox="0.00 0.00 347.50 82.00" xmlns="http://www.w3.org/2000/svg" xmlns:xlink="http://www.w3.org/1999/xlink">
<g id="graph0" class="graph" transform="scale(1 1) rotate(0) translate(4 78)">
<title>P4::BMV2::PortableCodeGenerator</title>
<!-- Node1 -->
<g id="Node000001" class="node">
<title>Node1</title>
<g id="a_Node000001"><a xlink:title=" ">
<polygon fill="#999999" stroke="#666666" points="261,-74 78,-74 78,-55 261,-55 261,-74"/>
<text text-anchor="middle" x="169.5" y="-62" font-family="Helvetica,sans-Serif" font-size="10.00">P4::BMV2::PortableCodeGenerator</text>
</a>
</g>
</g>
<!-- Node2 -->
<g id="Node000002" class="node">
<title>Node2</title>
<g id="a_Node000002"><a xlink:href="class_p4_1_1_b_m_v2_1_1_pna_code_generator.html" target="_top" xlink:title=" ">
<polygon fill="white" stroke="#bfbfbf" points="161,-19 0,-19 0,0 161,0 161,-19"/>
<text text-anchor="middle" x="80.5" y="-7" font-family="Helvetica,sans-Serif" font-size="10.00">P4::BMV2::PnaCodeGenerator</text>
</a>
</g>
</g>
<!-- Node1&#45;&gt;Node2 -->
<g id="edge1_Node000001_Node000002" class="edge">
<title>Node1&#45;&gt;Node2</title>
<g id="a_edge1_Node000001_Node000002"><a xlink:title=" ">
<path fill="none" stroke="#63b8ff" d="M146.32,-49.7C130.11,-40.04 108.95,-27.44 95.06,-19.17"/>
<polygon fill="#63b8ff" stroke="#63b8ff" points="144.82,-52.88 155.2,-54.98 148.4,-46.86 144.82,-52.88"/>
</a>
</g>
</g>
<!-- Node3 -->
<g id="Node000003" class="node">
<title>Node3</title>
<g id="a_Node000003"><a xlink:href="class_p4_1_1_b_m_v2_1_1_psa_code_generator.html" target="_top" xlink:title=" ">
<polygon fill="white" stroke="#bfbfbf" points="339.5,-19 179.5,-19 179.5,0 339.5,0 339.5,-19"/>
<text text-anchor="middle" x="259.5" y="-7" font-family="Helvetica,sans-Serif" font-size="10.00">P4::BMV2::PsaCodeGenerator</text>
</a>
</g>
</g>
<!-- Node1&#45;&gt;Node3 -->
<g id="edge2_Node000001_Node000003" class="edge">
<title>Node1&#45;&gt;Node3</title>
<g id="a_edge2_Node000001_Node000003"><a xlink:title=" ">
<path fill="none" stroke="#63b8ff" d="M192.94,-49.7C209.34,-40.04 230.73,-27.44 244.78,-19.17"/>
<polygon fill="#63b8ff" stroke="#63b8ff" points="190.8,-46.89 183.96,-54.98 194.35,-52.93 190.8,-46.89"/>
</a>
</g>
</g>
</g>
</svg>
