<?xml version="1.0" encoding="UTF-8" standalone="no"?>
<!DOCTYPE svg PUBLIC "-//W3C//DTD SVG 1.1//EN"
 "http://www.w3.org/Graphics/SVG/1.1/DTD/svg11.dtd">
<!-- Generated by graphviz version 2.43.0 (0)
 -->
<!-- Title: P4::AbstractParserDriver Pages: 1 -->
<svg width="260pt" height="82pt"
 viewBox="0.00 0.00 259.50 82.00" xmlns="http://www.w3.org/2000/svg" xmlns:xlink="http://www.w3.org/1999/xlink">
<g id="graph0" class="graph" transform="scale(1 1) rotate(0) translate(4 78)">
<title>P4::AbstractParserDriver</title>
<!-- Node1 -->
<g id="Node000001" class="node">
<title>Node1</title>
<g id="a_Node000001"><a xlink:title=" ">
<polygon fill="#999999" stroke="#666666" points="188,-74 53,-74 53,-55 188,-55 188,-74"/>
<text text-anchor="middle" x="120.5" y="-62" font-family="Helvetica,sans-Serif" font-size="10.00">P4::AbstractParserDriver</text>
</a>
</g>
</g>
<!-- Node2 -->
<g id="Node000002" class="node">
<title>Node2</title>
<g id="a_Node000002"><a xlink:href="class_p4_1_1_p4_parser_driver.html" target="_top" xlink:title="A ParserDriver that can parse P4&#45;16 programs.">
<polygon fill="white" stroke="#666666" points="107,-19 0,-19 0,0 107,0 107,-19"/>
<text text-anchor="middle" x="53.5" y="-7" font-family="Helvetica,sans-Serif" font-size="10.00">P4::P4ParserDriver</text>
</a>
</g>
</g>
<!-- Node1&#45;&gt;Node2 -->
<g id="edge1_Node000001_Node000002" class="edge">
<title>Node1&#45;&gt;Node2</title>
<g id="a_edge1_Node000001_Node000002"><a xlink:title=" ">
<path fill="none" stroke="#63b8ff" d="M101.67,-48.6C89.66,-39.11 74.53,-27.13 64.46,-19.17"/>
<polygon fill="#63b8ff" stroke="#63b8ff" points="99.72,-51.53 109.74,-54.98 104.06,-46.04 99.72,-51.53"/>
</a>
</g>
</g>
<!-- Node3 -->
<g id="Node000003" class="node">
<title>Node3</title>
<g id="a_Node000003"><a xlink:href="class_p4_1_1_v1_1_1_v1_parser_driver.html" target="_top" xlink:title="A ParserDriver that can parse P4&#45;14 programs.">
<polygon fill="white" stroke="#666666" points="251.5,-19 125.5,-19 125.5,0 251.5,0 251.5,-19"/>
<text text-anchor="middle" x="188.5" y="-7" font-family="Helvetica,sans-Serif" font-size="10.00">P4::V1::V1ParserDriver</text>
</a>
</g>
</g>
<!-- Node1&#45;&gt;Node3 -->
<g id="edge2_Node000001_Node000003" class="edge">
<title>Node1&#45;&gt;Node3</title>
<g id="a_edge2_Node000001_Node000003"><a xlink:title=" ">
<path fill="none" stroke="#63b8ff" d="M139.62,-48.6C151.8,-39.11 167.16,-27.13 177.38,-19.17"/>
<polygon fill="#63b8ff" stroke="#63b8ff" points="137.16,-46.08 131.43,-54.98 141.46,-51.6 137.16,-46.08"/>
</a>
</g>
</g>
</g>
</svg>
