<?xml version="1.0" encoding="UTF-8" standalone="no"?>
<!DOCTYPE svg PUBLIC "-//W3C//DTD SVG 1.1//EN"
 "http://www.w3.org/Graphics/SVG/1.1/DTD/svg11.dtd">
<!-- Generated by graphviz version 2.43.0 (0)
 -->
<!-- Title: P4::DeclarationLookup Pages: 1 -->
<!--zoomable 1828 -->

<svg id="main" version="1.1" xmlns="http://www.w3.org/2000/svg" xmlns:xlink="http://www.w3.org/1999/xlink" xml:space="preserve" onload="init(evt)">

<style type="text/css"><![CDATA[
.node, .edge {opacity: 0.7;}
.node.selected, .edge.selected {opacity: 1;}
.edge:hover path { stroke: red; }
.edge:hover polygon { stroke: red; fill: red; }
]]></style>

<defs>
  <circle id="rim" cx="0" cy="0" r="7"/>
  <circle id="rim2" cx="0" cy="0" r="3.5"/>
  <g id="zoomPlus">
    <use xlink:href="#rim" fill="#404040"><set attributeName="fill" to="#808080" begin="zoomplus.mouseover" end="zoomplus.mouseout"/></use>
    <path d="M-4,0h8M0,-4v8" fill="none" stroke="white" stroke-width="1.5" pointer-events="none"/>
  </g>
  <g id="zoomMin">
    <use xlink:href="#rim" fill="#404040"><set attributeName="fill" to="#808080" begin="zoomminus.mouseover" end="zoomminus.mouseout"/></use>
    <path d="M-4,0h8" fill="none" stroke="white" stroke-width="1.5" pointer-events="none"/>
  </g>
  <g id="arrowUp" transform="translate(30 24)">
    <use xlink:href="#rim"/>
    <path pointer-events="none" fill="none" stroke="white" stroke-width="1.5" d="M0,-3.0v7 M-2.5,-0.5L0,-3.0L2.5,-0.5"/>
  </g>
  <g id="arrowRight" transform="rotate(90) translate(36 -43)">
    <use xlink:href="#rim"/>
    <path pointer-events="none" fill="none" stroke="white" stroke-width="1.5" d="M0,-3.0v7 M-2.5,-0.5L0,-3.0L2.5,-0.5"/>
  </g>
  <g id="arrowDown" transform="rotate(180) translate(-30 -48)">
    <use xlink:href="#rim"/>
    <path pointer-events="none" fill="none" stroke="white" stroke-width="1.5" d="M0,-3.0v7 M-2.5,-0.5L0,-3.0L2.5,-0.5"/>
  </g>
  <g id="arrowLeft" transform="rotate(270) translate(-36 17)">
    <use xlink:href="#rim"/>
    <path pointer-events="none" fill="none" stroke="white" stroke-width="1.5" d="M0,-3.0v7 M-2.5,-0.5L0,-3.0L2.5,-0.5"/>
  </g>
  <g id="resetDef">
    <use xlink:href="#rim2" fill="#404040"><set attributeName="fill" to="#808080" begin="reset.mouseover" end="reset.mouseout"/></use>
  </g>
</defs>
<script type="application/ecmascript">
var viewWidth = 500;
var viewHeight = 1828;
var sectionId = 'dynsection-0';
</script>
<script type="application/ecmascript" xlink:href="svg.min.js"/>
<svg id="graph" class="graph">
<g id="viewport">
<title>P4::DeclarationLookup</title>
<!-- Node1 -->
<g id="Node000001" class="node">
<title>Node1</title>
<g id="a_Node000001"><a xlink:title=" ">
<polygon fill="#999999" stroke="#666666" points="125,-880.5 0,-880.5 0,-861.5 125,-861.5 125,-880.5"/>
<text text-anchor="middle" x="62.5" y="-868.5" font-family="Helvetica,sans-Serif" font-size="10.00">P4::DeclarationLookup</text>
</a>
</g>
</g>
<!-- Node2 -->
<g id="Node000002" class="node">
<title>Node2</title>
<g id="a_Node000002"><a xlink:href="class_p4_1_1_reference_map.html" target="_top" xlink:title="Class used to encode maps from paths to declarations.">
<polygon fill="white" stroke="#666666" points="276,-899.5 171,-899.5 171,-880.5 276,-880.5 276,-899.5"/>
<text text-anchor="middle" x="223.5" y="-887.5" font-family="Helvetica,sans-Serif" font-size="10.00">P4::ReferenceMap</text>
</a>
</g>
</g>
<!-- Node1&#45;&gt;Node2 -->
<g id="edge1_Node000001_Node000002" class="edge">
<title>Node1&#45;&gt;Node2</title>
<g id="a_edge1_Node000001_Node000002"><a xlink:title=" ">
<path fill="none" stroke="#63b8ff" d="M135.37,-879.59C147.31,-881.01 159.47,-882.47 170.77,-883.82"/>
<polygon fill="#63b8ff" stroke="#63b8ff" points="135.77,-876.11 125.43,-878.4 134.94,-883.06 135.77,-876.11"/>
</a>
</g>
</g>
<!-- Node3 -->
<g id="Node000003" class="node">
<title>Node3</title>
<g id="a_Node000003"><a xlink:href="class_p4_1_1_resolution_context.html" target="_top" xlink:title="Visitor mixin for looking up names in enclosing scopes from the Visitor::Context.">
<polygon fill="#fff0f0" stroke="red" points="286,-862.5 161,-862.5 161,-843.5 286,-843.5 286,-862.5"/>
<text text-anchor="middle" x="223.5" y="-850.5" font-family="Helvetica,sans-Serif" font-size="10.00">P4::ResolutionContext</text>
</a>
</g>
</g>
<!-- Node1&#45;&gt;Node3 -->
<g id="edge2_Node000001_Node000003" class="edge">
<title>Node1&#45;&gt;Node3</title>
<g id="a_edge2_Node000001_Node000003"><a xlink:title=" ">
<path fill="none" stroke="#63b8ff" d="M135.59,-862.84C143.99,-861.89 152.5,-860.92 160.74,-859.99"/>
<polygon fill="#63b8ff" stroke="#63b8ff" points="134.97,-859.39 125.43,-863.99 135.76,-866.34 134.97,-859.39"/>
</a>
</g>
</g>
<!-- Node4 -->
<g id="Node000004" class="node">
<title>Node4</title>
<g id="a_Node000004"><a xlink:href="class_p4_1_1_abstract_inliner.html" target="_top" xlink:title=" ">
<polygon fill="white" stroke="orangered" points="462.5,-1819.5 351.5,-1819.5 351.5,-1778.5 462.5,-1778.5 462.5,-1819.5"/>
<text text-anchor="start" x="359.5" y="-1807.5" font-family="Helvetica,sans-Serif" font-size="10.00">P4::AbstractInliner</text>
<text text-anchor="start" x="359.5" y="-1796.5" font-family="Helvetica,sans-Serif" font-size="10.00">&lt; ActionsInlineList,</text>
<text text-anchor="middle" x="407" y="-1785.5" font-family="Helvetica,sans-Serif" font-size="10.00"> AInlineWorkList &gt;</text>
</a>
</g>
</g>
<!-- Node3&#45;&gt;Node4 -->
<g id="edge3_Node000003_Node000004" class="edge">
<title>Node3&#45;&gt;Node4</title>
<g id="a_edge3_Node000003_Node000004"><a xlink:title=" ">
<path fill="none" stroke="#63b8ff" d="M283.36,-868.96C284.29,-869.92 285.18,-870.93 286,-872 346.88,-951.15 262.43,-1689.86 322,-1770 329.27,-1779.78 340.05,-1786.29 351.49,-1790.61"/>
<polygon fill="#63b8ff" stroke="#63b8ff" points="285.33,-866.06 275.29,-862.66 281.02,-871.58 285.33,-866.06"/>
</a>
</g>
</g>
<!-- Node6 -->
<g id="Node000006" class="node">
<title>Node6</title>
<g id="a_Node000006"><a xlink:href="class_p4_1_1_abstract_inliner.html" target="_top" xlink:title=" ">
<polygon fill="white" stroke="orangered" points="480,-1760.5 334,-1760.5 334,-1719.5 480,-1719.5 480,-1760.5"/>
<text text-anchor="start" x="342" y="-1748.5" font-family="Helvetica,sans-Serif" font-size="10.00">P4::AbstractInliner</text>
<text text-anchor="start" x="342" y="-1737.5" font-family="Helvetica,sans-Serif" font-size="10.00">&lt; FunctionsInlineList,</text>
<text text-anchor="middle" x="407" y="-1726.5" font-family="Helvetica,sans-Serif" font-size="10.00"> FunctionsInlineWorkList &gt;</text>
</a>
</g>
</g>
<!-- Node3&#45;&gt;Node6 -->
<g id="edge4_Node000003_Node000006" class="edge">
<title>Node3&#45;&gt;Node6</title>
<g id="a_edge4_Node000003_Node000006"><a xlink:title=" ">
<path fill="none" stroke="#63b8ff" d="M283.35,-868.96C284.29,-869.92 285.17,-870.93 286,-872 342.92,-945.79 266.69,-1634.99 322,-1710 325.31,-1714.49 329.35,-1718.31 333.85,-1721.55"/>
<polygon fill="#63b8ff" stroke="#63b8ff" points="285.32,-866.06 275.28,-862.67 281.02,-871.58 285.32,-866.06"/>
</a>
</g>
</g>
<!-- Node8 -->
<g id="Node000008" class="node">
<title>Node8</title>
<g id="a_Node000008"><a xlink:href="class_p4_1_1_abstract_inliner.html" target="_top" xlink:title=" ">
<polygon fill="white" stroke="orangered" points="489,-1701 325,-1701 325,-1671 489,-1671 489,-1701"/>
<text text-anchor="start" x="333" y="-1689" font-family="Helvetica,sans-Serif" font-size="10.00">P4::AbstractInliner</text>
<text text-anchor="middle" x="407" y="-1678" font-family="Helvetica,sans-Serif" font-size="10.00">&lt; InlineList, InlineSummary &gt;</text>
</a>
</g>
</g>
<!-- Node3&#45;&gt;Node8 -->
<g id="edge5_Node000003_Node000008" class="edge">
<title>Node3&#45;&gt;Node8</title>
<g id="a_edge5_Node000003_Node000008"><a xlink:title=" ">
<path fill="none" stroke="#63b8ff" d="M282.96,-868.58C284.04,-869.64 285.06,-870.78 286,-872 339.76,-941.5 267.5,-1593.07 322,-1662 324.73,-1665.45 327.92,-1668.43 331.42,-1670.99"/>
<polygon fill="#63b8ff" stroke="#63b8ff" points="285.06,-865.78 274.99,-862.51 280.82,-871.35 285.06,-865.78"/>
</a>
</g>
</g>
<!-- Node10 -->
<g id="Node000010" class="node">
<title>Node10</title>
<g id="a_Node000010"><a xlink:href="class_p4_1_1_abstract_inliner.html" target="_top" xlink:title=" ">
<polygon fill="white" stroke="#bfbfbf" points="481,-1652.5 333,-1652.5 333,-1611.5 481,-1611.5 481,-1652.5"/>
<text text-anchor="start" x="341" y="-1640.5" font-family="Helvetica,sans-Serif" font-size="10.00">P4::AbstractInliner</text>
<text text-anchor="start" x="341" y="-1629.5" font-family="Helvetica,sans-Serif" font-size="10.00">&lt; P4::InlineList, InlineWork</text>
<text text-anchor="middle" x="407" y="-1618.5" font-family="Helvetica,sans-Serif" font-size="10.00">List &gt;</text>
</a>
</g>
</g>
<!-- Node3&#45;&gt;Node10 -->
<g id="edge6_Node000003_Node000010" class="edge">
<title>Node3&#45;&gt;Node10</title>
<g id="a_edge6_Node000003_Node000010"><a xlink:title=" ">
<path fill="none" stroke="#63b8ff" d="M282.96,-868.58C284.04,-869.65 285.06,-870.79 286,-872 385.74,-1000.47 224.38,-1472.92 322,-1603 325.06,-1607.07 328.72,-1610.58 332.78,-1613.59"/>
<polygon fill="#63b8ff" stroke="#63b8ff" points="285.05,-865.78 274.97,-862.52 280.82,-871.35 285.05,-865.78"/>
</a>
</g>
</g>
<!-- Node11 -->
<g id="Node000011" class="node">
<title>Node11</title>
<g id="a_Node000011"><a xlink:href="class_b_f_n_1_1_control_flow_visitor.html" target="_top" xlink:title=" ">
<polygon fill="white" stroke="#bfbfbf" points="473.5,-1593.5 340.5,-1593.5 340.5,-1574.5 473.5,-1574.5 473.5,-1593.5"/>
<text text-anchor="middle" x="407" y="-1581.5" font-family="Helvetica,sans-Serif" font-size="10.00">BFN::ControlFlowVisitor</text>
</a>
</g>
</g>
<!-- Node3&#45;&gt;Node11 -->
<g id="edge7_Node000003_Node000011" class="edge">
<title>Node3&#45;&gt;Node11</title>
<g id="a_edge7_Node000003_Node000011"><a xlink:title=" ">
<path fill="none" stroke="#63b8ff" d="M282.95,-868.58C284.04,-869.65 285.06,-870.79 286,-872 380.87,-993.86 221.83,-1448.46 322,-1566 326.93,-1571.79 333.24,-1575.99 340.16,-1579"/>
<polygon fill="#63b8ff" stroke="#63b8ff" points="285.04,-865.78 274.96,-862.53 280.81,-871.36 285.04,-865.78"/>
</a>
</g>
</g>
<!-- Node12 -->
<g id="Node000012" class="node">
<title>Node12</title>
<g id="a_Node000012"><a xlink:href="group__midend.html#class_compute_def_use" target="_top" xlink:title="Compute defuse info within P4Parser and P4Control blocks in the midend.">
<polygon fill="white" stroke="#666666" points="455.5,-1556.5 358.5,-1556.5 358.5,-1537.5 455.5,-1537.5 455.5,-1556.5"/>
<text text-anchor="middle" x="407" y="-1544.5" font-family="Helvetica,sans-Serif" font-size="10.00">ComputeDefUse</text>
</a>
</g>
</g>
<!-- Node3&#45;&gt;Node12 -->
<g id="edge8_Node000003_Node000012" class="edge">
<title>Node3&#45;&gt;Node12</title>
<g id="a_edge8_Node000003_Node000012"><a xlink:title=" ">
<path fill="none" stroke="#63b8ff" d="M282.95,-868.59C284.03,-869.65 285.05,-870.79 286,-872 375.86,-987.07 227.77,-1416.48 322,-1528 330.97,-1538.62 344.51,-1544.03 358.12,-1546.62"/>
<polygon fill="#63b8ff" stroke="#63b8ff" points="285.03,-865.78 274.95,-862.54 280.81,-871.36 285.03,-865.78"/>
</a>
</g>
</g>
<!-- Node13 -->
<g id="Node000013" class="node">
<title>Node13</title>
<g id="a_Node000013"><a xlink:href="class_compute_def_use_1_1_setup_join_points.html" target="_top" xlink:title=" ">
<polygon fill="white" stroke="#bfbfbf" points="481.5,-1519 332.5,-1519 332.5,-1489 481.5,-1489 481.5,-1519"/>
<text text-anchor="start" x="340.5" y="-1507" font-family="Helvetica,sans-Serif" font-size="10.00">ComputeDefUse::SetupJoin</text>
<text text-anchor="middle" x="407" y="-1496" font-family="Helvetica,sans-Serif" font-size="10.00">Points</text>
</a>
</g>
</g>
<!-- Node3&#45;&gt;Node13 -->
<g id="edge9_Node000003_Node000013" class="edge">
<title>Node3&#45;&gt;Node13</title>
<g id="a_edge9_Node000003_Node000013"><a xlink:title=" ">
<path fill="none" stroke="#63b8ff" d="M282.94,-868.59C284.03,-869.66 285.05,-870.79 286,-872 369.53,-978.5 237.34,-1374.4 322,-1480 324.94,-1483.67 328.4,-1486.8 332.21,-1489.47"/>
<polygon fill="#63b8ff" stroke="#63b8ff" points="285.02,-865.78 274.93,-862.55 280.8,-871.37 285.02,-865.78"/>
</a>
</g>
</g>
<!-- Node14 -->
<g id="Node000014" class="node">
<title>Node14</title>
<g id="a_Node000014"><a xlink:href="class_p4_1_1_abstract_inliner.html" target="_top" xlink:title=" ">
<polygon fill="white" stroke="#bfbfbf" points="486,-1471 328,-1471 328,-1441 486,-1441 486,-1471"/>
<text text-anchor="start" x="336" y="-1459" font-family="Helvetica,sans-Serif" font-size="10.00">P4::AbstractInliner</text>
<text text-anchor="middle" x="407" y="-1448" font-family="Helvetica,sans-Serif" font-size="10.00">&lt; InlineList, InlineWorkList &gt;</text>
</a>
</g>
</g>
<!-- Node3&#45;&gt;Node14 -->
<g id="edge10_Node000003_Node000014" class="edge">
<title>Node3&#45;&gt;Node14</title>
<g id="a_edge10_Node000003_Node000014"><a xlink:title=" ">
<path fill="none" stroke="#63b8ff" d="M282.93,-868.6C284.02,-869.66 285.05,-870.79 286,-872 363.21,-969.92 243.75,-1334.91 322,-1432 324.76,-1435.42 327.97,-1438.38 331.5,-1440.93"/>
<polygon fill="#63b8ff" stroke="#63b8ff" points="285.01,-865.78 274.91,-862.57 280.8,-871.37 285.01,-865.78"/>
</a>
</g>
</g>
<!-- Node15 -->
<g id="Node000015" class="node">
<title>Node15</title>
<g id="a_Node000015"><a xlink:href="class_p4_1_1_check_extern_invocation_common.html" target="_top" xlink:title="Base class which can be used to prepare classes for checking constraints for invocations of externs (...">
<polygon fill="#fff0f0" stroke="red" points="480.5,-1423 333.5,-1423 333.5,-1393 480.5,-1393 480.5,-1423"/>
<text text-anchor="start" x="341.5" y="-1411" font-family="Helvetica,sans-Serif" font-size="10.00">P4::CheckExternInvocation</text>
<text text-anchor="middle" x="407" y="-1400" font-family="Helvetica,sans-Serif" font-size="10.00">Common</text>
</a>
</g>
</g>
<!-- Node3&#45;&gt;Node15 -->
<g id="edge11_Node000003_Node000015" class="edge">
<title>Node3&#45;&gt;Node15</title>
<g id="a_edge11_Node000003_Node000015"><a xlink:title=" ">
<path fill="none" stroke="#63b8ff" d="M282.92,-868.61C284.02,-869.67 285.05,-870.8 286,-872 356.89,-961.35 250.16,-1295.41 322,-1384 325.25,-1388.01 329.11,-1391.37 333.38,-1394.19"/>
<polygon fill="#63b8ff" stroke="#63b8ff" points="284.99,-865.78 274.89,-862.58 280.79,-871.38 284.99,-865.78"/>
</a>
</g>
</g>
<!-- Node20 -->
<g id="Node000020" class="node">
<title>Node20</title>
<g id="a_Node000020"><a xlink:href="class_p4_1_1_collect_used_declarations.html" target="_top" xlink:title="Collects all used declarations into @used set.">
<polygon fill="white" stroke="#666666" points="484.5,-1374.5 329.5,-1374.5 329.5,-1355.5 484.5,-1355.5 484.5,-1374.5"/>
<text text-anchor="middle" x="407" y="-1362.5" font-family="Helvetica,sans-Serif" font-size="10.00">P4::CollectUsedDeclarations</text>
</a>
</g>
</g>
<!-- Node3&#45;&gt;Node20 -->
<g id="edge12_Node000003_Node000020" class="edge">
<title>Node3&#45;&gt;Node20</title>
<g id="a_edge12_Node000003_Node000020"><a xlink:title=" ">
<path fill="none" stroke="#8b1a1a" d="M282.91,-868.61C284.01,-869.67 285.04,-870.8 286,-872 352.02,-954.75 252.38,-1267.25 322,-1347 324.84,-1350.26 328.12,-1353.01 331.7,-1355.33"/>
<polygon fill="#8b1a1a" stroke="#8b1a1a" points="284.97,-865.78 274.87,-862.6 280.78,-871.39 284.97,-865.78"/>
</a>
</g>
</g>
<!-- Node21 -->
<g id="Node000021" class="node">
<title>Node21</title>
<g id="a_Node000021"><a xlink:href="class_p4_1_1_compute_def_use.html" target="_top" xlink:title="Compute defuse info within P4Parser and P4Control blocks in the midend.">
<polygon fill="white" stroke="#666666" points="464.5,-1337.5 349.5,-1337.5 349.5,-1318.5 464.5,-1318.5 464.5,-1337.5"/>
<text text-anchor="middle" x="407" y="-1325.5" font-family="Helvetica,sans-Serif" font-size="10.00">P4::ComputeDefUse</text>
</a>
</g>
</g>
<!-- Node3&#45;&gt;Node21 -->
<g id="edge13_Node000003_Node000021" class="edge">
<title>Node3&#45;&gt;Node21</title>
<g id="a_edge13_Node000003_Node000021"><a xlink:title=" ">
<path fill="none" stroke="#63b8ff" d="M282.9,-868.62C284,-869.68 285.04,-870.8 286,-872 347.02,-947.97 258.1,-1235.44 322,-1309 329.06,-1317.13 338.79,-1322.19 349.14,-1325.26"/>
<polygon fill="#63b8ff" stroke="#63b8ff" points="284.95,-865.79 274.84,-862.62 280.77,-871.4 284.95,-865.79"/>
</a>
</g>
</g>
<!-- Node22 -->
<g id="Node000022" class="node">
<title>Node22</title>
<g id="a_Node000022"><a xlink:href="class_p4_1_1_compute_def_use_1_1_setup_join_points.html" target="_top" xlink:title=" ">
<polygon fill="white" stroke="#bfbfbf" points="467.5,-1300 346.5,-1300 346.5,-1270 467.5,-1270 467.5,-1300"/>
<text text-anchor="start" x="354.5" y="-1288" font-family="Helvetica,sans-Serif" font-size="10.00">P4::ComputeDefUse::</text>
<text text-anchor="middle" x="407" y="-1277" font-family="Helvetica,sans-Serif" font-size="10.00">SetupJoinPoints</text>
</a>
</g>
</g>
<!-- Node3&#45;&gt;Node22 -->
<g id="edge14_Node000003_Node000022" class="edge">
<title>Node3&#45;&gt;Node22</title>
<g id="a_edge14_Node000003_Node000022"><a xlink:title=" ">
<path fill="none" stroke="#63b8ff" d="M282.89,-868.64C283.99,-869.69 285.03,-870.81 286,-872 340.7,-939.41 266.58,-1194.18 322,-1261 328.39,-1268.71 337.07,-1274.03 346.43,-1277.7"/>
<polygon fill="#63b8ff" stroke="#63b8ff" points="284.92,-865.79 274.8,-862.65 280.76,-871.42 284.92,-865.79"/>
</a>
</g>
</g>
<!-- Node23 -->
<g id="Node000023" class="node">
<title>Node23</title>
<g id="a_Node000023"><a xlink:href="class_p4_1_1_compute_parser_c_g.html" target="_top" xlink:title="Builds a CallGraph of ParserState nodes.">
<polygon fill="white" stroke="#666666" points="468.5,-1251.5 345.5,-1251.5 345.5,-1232.5 468.5,-1232.5 468.5,-1251.5"/>
<text text-anchor="middle" x="407" y="-1239.5" font-family="Helvetica,sans-Serif" font-size="10.00">P4::ComputeParserCG</text>
</a>
</g>
</g>
<!-- Node3&#45;&gt;Node23 -->
<g id="edge15_Node000003_Node000023" class="edge">
<title>Node3&#45;&gt;Node23</title>
<g id="a_edge15_Node000003_Node000023"><a xlink:title=" ">
<path fill="none" stroke="#63b8ff" d="M282.79,-868.58C283.93,-869.65 285,-870.78 286,-872 385.68,-993.63 217.03,-1106.9 322,-1224 328.27,-1231 336.54,-1235.64 345.45,-1238.66"/>
<polygon fill="#63b8ff" stroke="#63b8ff" points="284.62,-865.57 274.47,-862.52 280.5,-871.23 284.62,-865.57"/>
</a>
</g>
</g>
<!-- Node24 -->
<g id="Node000024" class="node">
<title>Node24</title>
<g id="a_Node000024"><a xlink:href="class_p4_1_1_constant_type_substitution.html" target="_top" xlink:title=" ">
<polygon fill="white" stroke="#bfbfbf" points="486.5,-1214.5 327.5,-1214.5 327.5,-1195.5 486.5,-1195.5 486.5,-1214.5"/>
<text text-anchor="middle" x="407" y="-1202.5" font-family="Helvetica,sans-Serif" font-size="10.00">P4::ConstantTypeSubstitution</text>
</a>
</g>
</g>
<!-- Node3&#45;&gt;Node24 -->
<g id="edge16_Node000003_Node000024" class="edge">
<title>Node3&#45;&gt;Node24</title>
<g id="a_edge16_Node000003_Node000024"><a xlink:title=" ">
<path fill="none" stroke="#8b1a1a" d="M282.78,-868.59C283.92,-869.66 285,-870.79 286,-872 375.96,-980.46 227.32,-1082.63 322,-1187 325.01,-1190.31 328.46,-1193.1 332.22,-1195.43"/>
<polygon fill="#8b1a1a" stroke="#8b1a1a" points="284.58,-865.58 274.42,-862.56 280.48,-871.25 284.58,-865.58"/>
</a>
</g>
</g>
<!-- Node25 -->
<g id="Node000025" class="node">
<title>Node25</title>
<g id="a_Node000025"><a xlink:href="class_p4_1_1_create_specialized_types.html" target="_top" xlink:title=" ">
<polygon fill="white" stroke="#666666" points="482,-1177.5 332,-1177.5 332,-1158.5 482,-1158.5 482,-1177.5"/>
<text text-anchor="middle" x="407" y="-1165.5" font-family="Helvetica,sans-Serif" font-size="10.00">P4::CreateSpecializedTypes</text>
</a>
</g>
</g>
<!-- Node3&#45;&gt;Node25 -->
<g id="edge17_Node000003_Node000025" class="edge">
<title>Node3&#45;&gt;Node25</title>
<g id="a_edge17_Node000003_Node000025"><a xlink:title=" ">
<path fill="none" stroke="#63b8ff" d="M282.75,-868.61C283.9,-869.67 284.99,-870.8 286,-872 366.26,-967.29 237.6,-1058.35 322,-1150 325.03,-1153.29 328.51,-1156.06 332.28,-1158.38"/>
<polygon fill="#63b8ff" stroke="#63b8ff" points="284.53,-865.58 274.37,-862.61 280.46,-871.28 284.53,-865.58"/>
</a>
</g>
</g>
<!-- Node26 -->
<g id="Node000026" class="node">
<title>Node26</title>
<g id="a_Node000026"><a xlink:href="class_p4_1_1_create_struct_initializers.html" target="_top" xlink:title="Converts some list expressions into struct initializers.">
<polygon fill="white" stroke="#666666" points="480,-1140.5 334,-1140.5 334,-1121.5 480,-1121.5 480,-1140.5"/>
<text text-anchor="middle" x="407" y="-1128.5" font-family="Helvetica,sans-Serif" font-size="10.00">P4::CreateStructInitializers</text>
</a>
</g>
</g>
<!-- Node3&#45;&gt;Node26 -->
<g id="edge18_Node000003_Node000026" class="edge">
<title>Node3&#45;&gt;Node26</title>
<g id="a_edge18_Node000003_Node000026"><a xlink:title=" ">
<path fill="none" stroke="#63b8ff" d="M282.28,-868.25C283.6,-869.41 284.85,-870.66 286,-872 356.57,-954.15 247.86,-1034.05 322,-1113 325.47,-1116.7 329.5,-1119.73 333.88,-1122.21"/>
<polygon fill="#63b8ff" stroke="#63b8ff" points="284.21,-865.33 273.99,-862.51 280.22,-871.08 284.21,-865.33"/>
</a>
</g>
</g>
<!-- Node27 -->
<g id="Node000027" class="node">
<title>Node27</title>
<g id="a_Node000027"><a xlink:href="class_p4_1_1_deprecated.html" target="_top" xlink:title=" ">
<polygon fill="white" stroke="#666666" points="452.5,-1103.5 361.5,-1103.5 361.5,-1084.5 452.5,-1084.5 452.5,-1103.5"/>
<text text-anchor="middle" x="407" y="-1091.5" font-family="Helvetica,sans-Serif" font-size="10.00">P4::Deprecated</text>
</a>
</g>
</g>
<!-- Node3&#45;&gt;Node27 -->
<g id="edge19_Node000003_Node000027" class="edge">
<title>Node3&#45;&gt;Node27</title>
<g id="a_edge19_Node000003_Node000027"><a xlink:title=" ">
<path fill="none" stroke="#63b8ff" d="M282.24,-868.29C283.57,-869.44 284.83,-870.67 286,-872 346.91,-941.04 258.09,-1009.72 322,-1076 332.15,-1086.52 346.83,-1091.63 361.1,-1093.92"/>
<polygon fill="#63b8ff" stroke="#63b8ff" points="284.12,-865.34 273.89,-862.6 280.18,-871.13 284.12,-865.34"/>
</a>
</g>
</g>
<!-- Node28 -->
<g id="Node000028" class="node">
<title>Node28</title>
<g id="a_Node000028"><a xlink:href="class_p4_1_1_discover_actions_inlining.html" target="_top" xlink:title=" ">
<polygon fill="white" stroke="#bfbfbf" points="481.5,-1066.5 332.5,-1066.5 332.5,-1047.5 481.5,-1047.5 481.5,-1066.5"/>
<text text-anchor="middle" x="407" y="-1054.5" font-family="Helvetica,sans-Serif" font-size="10.00">P4::DiscoverActionsInlining</text>
</a>
</g>
</g>
<!-- Node3&#45;&gt;Node28 -->
<g id="edge20_Node000003_Node000028" class="edge">
<title>Node3&#45;&gt;Node28</title>
<g id="a_edge20_Node000003_Node000028"><a xlink:title=" ">
<path fill="none" stroke="#63b8ff" d="M282.08,-868.28C283.47,-869.43 284.78,-870.67 286,-872 337.29,-927.98 268.28,-985.34 322,-1039 325.27,-1042.27 328.98,-1045.01 332.98,-1047.3"/>
<polygon fill="#63b8ff" stroke="#63b8ff" points="283.72,-865.16 273.45,-862.57 279.86,-871 283.72,-865.16"/>
</a>
</g>
</g>
<!-- Node29 -->
<g id="Node000029" class="node">
<title>Node29</title>
<g id="a_Node000029"><a xlink:href="class_p4_1_1_discover_functions_inlining.html" target="_top" xlink:title=" ">
<polygon fill="white" stroke="#bfbfbf" points="487,-1029.5 327,-1029.5 327,-1010.5 487,-1010.5 487,-1029.5"/>
<text text-anchor="middle" x="407" y="-1017.5" font-family="Helvetica,sans-Serif" font-size="10.00">P4::DiscoverFunctionsInlining</text>
</a>
</g>
</g>
<!-- Node3&#45;&gt;Node29 -->
<g id="edge21_Node000003_Node000029" class="edge">
<title>Node3&#45;&gt;Node29</title>
<g id="a_edge21_Node000003_Node000029"><a xlink:title=" ">
<path fill="none" stroke="#63b8ff" d="M281.5,-867.99C283.09,-869.22 284.6,-870.56 286,-872 327.76,-915.01 278.37,-960.88 322,-1002 325.47,-1005.27 329.39,-1008.01 333.59,-1010.29"/>
<polygon fill="#63b8ff" stroke="#63b8ff" points="283.26,-864.96 272.92,-862.62 279.54,-870.9 283.26,-864.96"/>
</a>
</g>
</g>
<!-- Node30 -->
<g id="Node000030" class="node">
<title>Node30</title>
<g id="a_Node000030"><a xlink:href="class_p4_1_1_do_check_constants.html" target="_top" xlink:title=" ">
<polygon fill="white" stroke="#666666" points="470.5,-992.5 343.5,-992.5 343.5,-973.5 470.5,-973.5 470.5,-992.5"/>
<text text-anchor="middle" x="407" y="-980.5" font-family="Helvetica,sans-Serif" font-size="10.00">P4::DoCheckConstants</text>
</a>
</g>
</g>
<!-- Node3&#45;&gt;Node30 -->
<g id="edge22_Node000003_Node000030" class="edge">
<title>Node3&#45;&gt;Node30</title>
<g id="a_edge22_Node000003_Node000030"><a xlink:title=" ">
<path fill="none" stroke="#63b8ff" d="M280.57,-867.65C282.48,-868.97 284.31,-870.42 286,-872 318.41,-902.23 288.28,-936.23 322,-965 328.13,-970.23 335.41,-974.05 343.08,-976.83"/>
<polygon fill="#63b8ff" stroke="#63b8ff" points="282.05,-864.47 271.63,-862.56 278.59,-870.55 282.05,-864.47"/>
</a>
</g>
</g>
<!-- Node31 -->
<g id="Node000031" class="node">
<title>Node31</title>
<g id="a_Node000031"><a xlink:href="class_p4_1_1_do_check_core_methods.html" target="_top" xlink:title="Check types for arguments of core.p4 methods.">
<polygon fill="white" stroke="#666666" points="478.5,-955.5 335.5,-955.5 335.5,-936.5 478.5,-936.5 478.5,-955.5"/>
<text text-anchor="middle" x="407" y="-943.5" font-family="Helvetica,sans-Serif" font-size="10.00">P4::DoCheckCoreMethods</text>
</a>
</g>
</g>
<!-- Node3&#45;&gt;Node31 -->
<g id="edge23_Node000003_Node000031" class="edge">
<title>Node3&#45;&gt;Node31</title>
<g id="a_edge23_Node000003_Node000031"><a xlink:title=" ">
<path fill="none" stroke="#63b8ff" d="M278.14,-866.93C280.9,-868.45 283.54,-870.13 286,-872 309.56,-889.9 297.67,-911.16 322,-928 326.91,-931.39 332.33,-934.17 337.99,-936.43"/>
<polygon fill="#63b8ff" stroke="#63b8ff" points="279.55,-863.72 269.02,-862.61 276.56,-870.05 279.55,-863.72"/>
</a>
</g>
</g>
<!-- Node32 -->
<g id="Node000032" class="node">
<title>Node32</title>
<g id="a_Node000032"><a xlink:href="class_p4_1_1_do_constant_folding.html" target="_top" xlink:title="statically evaluates many constant expressions.">
<polygon fill="white" stroke="#666666" points="470.5,-918.5 343.5,-918.5 343.5,-899.5 470.5,-899.5 470.5,-918.5"/>
<text text-anchor="middle" x="407" y="-906.5" font-family="Helvetica,sans-Serif" font-size="10.00">P4::DoConstantFolding</text>
</a>
</g>
</g>
<!-- Node3&#45;&gt;Node32 -->
<g id="edge24_Node000003_Node000032" class="edge">
<title>Node3&#45;&gt;Node32</title>
<g id="a_edge24_Node000003_Node000032"><a xlink:title=" ">
<path fill="none" stroke="#63b8ff" d="M269.02,-865.67C274.79,-867.63 280.58,-869.75 286,-872 302.71,-878.92 305,-884.82 322,-891 331.11,-894.31 341.01,-897.1 350.71,-899.42"/>
<polygon fill="#63b8ff" stroke="#63b8ff" points="269.97,-862.3 259.38,-862.54 267.81,-868.96 269.97,-862.3"/>
</a>
</g>
</g>
<!-- Node33 -->
<g id="Node000033" class="node">
<title>Node33</title>
<g id="a_Node000033"><a xlink:href="class_p4_1_1_do_default_arguments.html" target="_top" xlink:title=" ">
<polygon fill="white" stroke="#666666" points="475.5,-881.5 338.5,-881.5 338.5,-862.5 475.5,-862.5 475.5,-881.5"/>
<text text-anchor="middle" x="407" y="-869.5" font-family="Helvetica,sans-Serif" font-size="10.00">P4::DoDefaultArguments</text>
</a>
</g>
</g>
<!-- Node3&#45;&gt;Node33 -->
<g id="edge25_Node000003_Node000033" class="edge">
<title>Node3&#45;&gt;Node33</title>
<g id="a_edge25_Node000003_Node000033"><a xlink:title=" ">
<path fill="none" stroke="#63b8ff" d="M296.17,-860.5C310.03,-861.95 324.51,-863.47 338.25,-864.91"/>
<polygon fill="#63b8ff" stroke="#63b8ff" points="296.51,-857.02 286.2,-859.46 295.78,-863.98 296.51,-857.02"/>
</a>
</g>
</g>
<!-- Node34 -->
<g id="Node000034" class="node">
<title>Node34</title>
<g id="a_Node000034"><a xlink:href="class_p4_1_1_do_expand_emit.html" target="_top" xlink:title=" ">
<polygon fill="white" stroke="#666666" points="460.5,-844.5 353.5,-844.5 353.5,-825.5 460.5,-825.5 460.5,-844.5"/>
<text text-anchor="middle" x="407" y="-832.5" font-family="Helvetica,sans-Serif" font-size="10.00">P4::DoExpandEmit</text>
</a>
</g>
</g>
<!-- Node3&#45;&gt;Node34 -->
<g id="edge26_Node000003_Node000034" class="edge">
<title>Node3&#45;&gt;Node34</title>
<g id="a_edge26_Node000003_Node000034"><a xlink:title=" ">
<path fill="none" stroke="#63b8ff" d="M296.31,-845.88C315.31,-843.99 335.47,-841.99 353.25,-840.23"/>
<polygon fill="#63b8ff" stroke="#63b8ff" points="295.81,-842.41 286.2,-846.88 296.5,-849.38 295.81,-842.41"/>
</a>
</g>
</g>
<!-- Node35 -->
<g id="Node000035" class="node">
<title>Node35</title>
<g id="a_Node000035"><a xlink:href="class_p4_1_1_do_expand_lookahead.html" target="_top" xlink:title=" ">
<polygon fill="white" stroke="#666666" points="475.5,-807.5 338.5,-807.5 338.5,-788.5 475.5,-788.5 475.5,-807.5"/>
<text text-anchor="middle" x="407" y="-795.5" font-family="Helvetica,sans-Serif" font-size="10.00">P4::DoExpandLookahead</text>
</a>
</g>
</g>
<!-- Node3&#45;&gt;Node35 -->
<g id="edge27_Node000003_Node000035" class="edge">
<title>Node3&#45;&gt;Node35</title>
<g id="a_edge27_Node000003_Node000035"><a xlink:title=" ">
<path fill="none" stroke="#63b8ff" d="M257.39,-839.63C276.13,-832.32 300.15,-823.47 322,-817 333.76,-813.52 346.6,-810.32 358.63,-807.57"/>
<polygon fill="#63b8ff" stroke="#63b8ff" points="255.87,-836.47 247.85,-843.39 258.44,-842.98 255.87,-836.47"/>
</a>
</g>
</g>
<!-- Node36 -->
<g id="Node000036" class="node">
<title>Node36</title>
<g id="a_Node000036"><a xlink:href="class_p4_1_1_do_local_copy_propagation.html" target="_top" xlink:title=" ">
<polygon fill="white" stroke="#666666" points="485.5,-770.5 328.5,-770.5 328.5,-751.5 485.5,-751.5 485.5,-770.5"/>
<text text-anchor="middle" x="407" y="-758.5" font-family="Helvetica,sans-Serif" font-size="10.00">P4::DoLocalCopyPropagation</text>
</a>
</g>
</g>
<!-- Node3&#45;&gt;Node36 -->
<g id="edge28_Node000003_Node000036" class="edge">
<title>Node3&#45;&gt;Node36</title>
<g id="a_edge28_Node000003_Node000036"><a xlink:title=" ">
<path fill="none" stroke="#8b1a1a" d="M241.94,-836.29C260.38,-819.56 291.03,-794.3 322,-780 330.42,-776.11 339.68,-773 348.89,-770.5"/>
<polygon fill="#8b1a1a" stroke="#8b1a1a" points="239.33,-833.94 234.37,-843.31 244.09,-839.08 239.33,-833.94"/>
</a>
</g>
</g>
<!-- Node37 -->
<g id="Node000037" class="node">
<title>Node37</title>
<g id="a_Node000037"><a xlink:href="class_p4_1_1_do_order_arguments.html" target="_top" xlink:title=" ">
<polygon fill="white" stroke="#666666" points="471,-733.5 343,-733.5 343,-714.5 471,-714.5 471,-733.5"/>
<text text-anchor="middle" x="407" y="-721.5" font-family="Helvetica,sans-Serif" font-size="10.00">P4::DoOrderArguments</text>
</a>
</g>
</g>
<!-- Node3&#45;&gt;Node37 -->
<g id="edge29_Node000003_Node000037" class="edge">
<title>Node3&#45;&gt;Node37</title>
<g id="a_edge29_Node000003_Node000037"><a xlink:title=" ">
<path fill="none" stroke="#63b8ff" d="M235.63,-834.42C251.55,-809.56 283.22,-765.93 322,-743 328.56,-739.12 335.85,-736.03 343.3,-733.57"/>
<polygon fill="#63b8ff" stroke="#63b8ff" points="232.46,-832.9 230.15,-843.24 238.4,-836.6 232.46,-832.9"/>
</a>
</g>
</g>
<!-- Node38 -->
<g id="Node000038" class="node">
<title>Node38</title>
<g id="a_Node000038"><a xlink:href="class_p4_1_1_do_remove_assert_assume.html" target="_top" xlink:title=" ">
<polygon fill="white" stroke="#bfbfbf" points="486,-696.5 328,-696.5 328,-677.5 486,-677.5 486,-696.5"/>
<text text-anchor="middle" x="407" y="-684.5" font-family="Helvetica,sans-Serif" font-size="10.00">P4::DoRemoveAssertAssume</text>
</a>
</g>
</g>
<!-- Node3&#45;&gt;Node38 -->
<g id="edge30_Node000003_Node000038" class="edge">
<title>Node3&#45;&gt;Node38</title>
<g id="a_edge30_Node000003_Node000038"><a xlink:title=" ">
<path fill="none" stroke="#63b8ff" d="M231.68,-833.74C244.6,-801.88 274.89,-738.49 322,-706 327.54,-702.18 333.73,-699.12 340.16,-696.66"/>
<polygon fill="#63b8ff" stroke="#63b8ff" points="228.35,-832.66 227.97,-843.25 234.87,-835.21 228.35,-832.66"/>
</a>
</g>
</g>
<!-- Node39 -->
<g id="Node000039" class="node">
<title>Node39</title>
<g id="a_Node000039"><a xlink:href="class_p4_1_1_do_remove_exits.html" target="_top" xlink:title=" ">
<polygon fill="white" stroke="#666666" points="463.5,-659.5 350.5,-659.5 350.5,-640.5 463.5,-640.5 463.5,-659.5"/>
<text text-anchor="middle" x="407" y="-647.5" font-family="Helvetica,sans-Serif" font-size="10.00">P4::DoRemoveExits</text>
</a>
</g>
</g>
<!-- Node3&#45;&gt;Node39 -->
<g id="edge31_Node000003_Node000039" class="edge">
<title>Node3&#45;&gt;Node39</title>
<g id="a_edge31_Node000003_Node000039"><a xlink:title=" ">
<path fill="none" stroke="#63b8ff" d="M229.11,-833.27C239.06,-795.19 266.33,-711.58 322,-669 330.19,-662.73 340.07,-658.46 350.13,-655.57"/>
<polygon fill="#63b8ff" stroke="#63b8ff" points="225.67,-832.58 226.65,-843.13 232.46,-834.27 225.67,-832.58"/>
</a>
</g>
</g>
<!-- Node40 -->
<g id="Node000040" class="node">
<title>Node40</title>
<g id="a_Node000040"><a xlink:href="class_p4_1_1_do_remove_miss.html" target="_top" xlink:title=" ">
<polygon fill="white" stroke="#666666" points="462.5,-622.5 351.5,-622.5 351.5,-603.5 462.5,-603.5 462.5,-622.5"/>
<text text-anchor="middle" x="407" y="-610.5" font-family="Helvetica,sans-Serif" font-size="10.00">P4::DoRemoveMiss</text>
</a>
</g>
</g>
<!-- Node3&#45;&gt;Node40 -->
<g id="edge32_Node000003_Node000040" class="edge">
<title>Node3&#45;&gt;Node40</title>
<g id="a_edge32_Node000003_Node000040"><a xlink:title=" ">
<path fill="none" stroke="#63b8ff" d="M227.2,-833.31C234.25,-789.82 257.38,-685.21 322,-632 330.31,-625.16 340.59,-620.66 351.08,-617.73"/>
<polygon fill="#63b8ff" stroke="#63b8ff" points="223.74,-832.79 225.71,-843.2 230.66,-833.84 223.74,-832.79"/>
</a>
</g>
</g>
<!-- Node41 -->
<g id="Node000041" class="node">
<title>Node41</title>
<g id="a_Node000041"><a xlink:href="class_p4_1_1_do_replace_typedef.html" target="_top" xlink:title=" ">
<polygon fill="white" stroke="#666666" points="469.5,-585.5 344.5,-585.5 344.5,-566.5 469.5,-566.5 469.5,-585.5"/>
<text text-anchor="middle" x="407" y="-573.5" font-family="Helvetica,sans-Serif" font-size="10.00">P4::DoReplaceTypedef</text>
</a>
</g>
</g>
<!-- Node3&#45;&gt;Node41 -->
<g id="edge33_Node000003_Node000041" class="edge">
<title>Node3&#45;&gt;Node41</title>
<g id="a_edge33_Node000003_Node000041"><a xlink:title=" ">
<path fill="none" stroke="#63b8ff" d="M225.8,-833.42C230.12,-785.04 248.25,-659.16 322,-595 328.43,-589.41 336.16,-585.36 344.29,-582.45"/>
<polygon fill="#63b8ff" stroke="#63b8ff" points="222.31,-833.25 225.01,-843.49 229.28,-833.8 222.31,-833.25"/>
</a>
</g>
</g>
<!-- Node42 -->
<g id="Node000042" class="node">
<title>Node42</title>
<g id="a_Node000042"><a xlink:href="class_p4_1_1_do_simplify_control_flow.html" target="_top" xlink:title="Replace complex control flow nodes with simpler ones where possible.">
<polygon fill="white" stroke="#666666" points="480,-548.5 334,-548.5 334,-529.5 480,-529.5 480,-548.5"/>
<text text-anchor="middle" x="407" y="-536.5" font-family="Helvetica,sans-Serif" font-size="10.00">P4::DoSimplifyControlFlow</text>
</a>
</g>
</g>
<!-- Node3&#45;&gt;Node42 -->
<g id="edge34_Node000003_Node000042" class="edge">
<title>Node3&#45;&gt;Node42</title>
<g id="a_edge34_Node000003_Node000042"><a xlink:title=" ">
<path fill="none" stroke="#63b8ff" d="M224.75,-833.19C226.57,-780.02 239.21,-633.15 322,-558 326.21,-554.18 331.02,-551.08 336.16,-548.56"/>
<polygon fill="#63b8ff" stroke="#63b8ff" points="221.25,-833.23 224.51,-843.31 228.25,-833.4 221.25,-833.23"/>
</a>
</g>
</g>
<!-- Node43 -->
<g id="Node000043" class="node">
<title>Node43</title>
<g id="a_Node000043"><a xlink:href="class_p4_1_1_do_simplify_expressions.html" target="_top" xlink:title="Convert expressions so that each expression contains at most one side effect.">
<polygon fill="white" stroke="#666666" points="480,-511.5 334,-511.5 334,-492.5 480,-492.5 480,-511.5"/>
<text text-anchor="middle" x="407" y="-499.5" font-family="Helvetica,sans-Serif" font-size="10.00">P4::DoSimplifyExpressions</text>
</a>
</g>
</g>
<!-- Node3&#45;&gt;Node43 -->
<g id="edge35_Node000003_Node000043" class="edge">
<title>Node3&#45;&gt;Node43</title>
<g id="a_edge35_Node000003_Node000043"><a xlink:title=" ">
<path fill="none" stroke="#63b8ff" d="M223.9,-833.08C223.33,-775.48 230.01,-607.35 322,-521 326.03,-517.21 330.66,-514.13 335.61,-511.61"/>
<polygon fill="#63b8ff" stroke="#63b8ff" points="220.41,-833.42 224.1,-843.35 227.41,-833.28 220.41,-833.42"/>
</a>
</g>
</g>
<!-- Node44 -->
<g id="Node000044" class="node">
<title>Node44</title>
<g id="a_Node000044"><a xlink:href="class_p4_1_1_do_simplify_select_cases.html" target="_top" xlink:title=" ">
<polygon fill="white" stroke="#666666" points="480.5,-474.5 333.5,-474.5 333.5,-455.5 480.5,-455.5 480.5,-474.5"/>
<text text-anchor="middle" x="407" y="-462.5" font-family="Helvetica,sans-Serif" font-size="10.00">P4::DoSimplifySelectCases</text>
</a>
</g>
</g>
<!-- Node3&#45;&gt;Node44 -->
<g id="edge36_Node000003_Node000044" class="edge">
<title>Node3&#45;&gt;Node44</title>
<g id="a_edge36_Node000003_Node000044"><a xlink:title=" ">
<path fill="none" stroke="#8b1a1a" d="M227.01,-833.32C236.2,-764.18 270.28,-533.9 322,-484 325.87,-480.26 330.32,-477.2 335.1,-474.7"/>
<polygon fill="#8b1a1a" stroke="#8b1a1a" points="223.53,-832.94 225.7,-843.31 230.47,-833.85 223.53,-832.94"/>
</a>
</g>
</g>
<!-- Node45 -->
<g id="Node000045" class="node">
<title>Node45</title>
<g id="a_Node000045"><a xlink:href="class_p4_1_1_do_static_assert.html" target="_top" xlink:title=" ">
<polygon fill="white" stroke="#666666" points="460.5,-437.5 353.5,-437.5 353.5,-418.5 460.5,-418.5 460.5,-437.5"/>
<text text-anchor="middle" x="407" y="-425.5" font-family="Helvetica,sans-Serif" font-size="10.00">P4::DoStaticAssert</text>
</a>
</g>
</g>
<!-- Node3&#45;&gt;Node45 -->
<g id="edge37_Node000003_Node000045" class="edge">
<title>Node3&#45;&gt;Node45</title>
<g id="a_edge37_Node000003_Node000045"><a xlink:title=" ">
<path fill="none" stroke="#63b8ff" d="M226.5,-833.3C234.37,-759.76 265.55,-502.7 322,-447 330.41,-438.7 341.63,-433.72 353.12,-430.79"/>
<polygon fill="#63b8ff" stroke="#63b8ff" points="223,-833.15 225.44,-843.46 229.96,-833.88 223,-833.15"/>
</a>
</g>
</g>
<!-- Node46 -->
<g id="Node000046" class="node">
<title>Node46</title>
<g id="a_Node000046"><a xlink:href="class_p4_1_1_do_table_hit.html" target="_top" xlink:title=" ">
<polygon fill="white" stroke="#666666" points="451,-400.5 363,-400.5 363,-381.5 451,-381.5 451,-400.5"/>
<text text-anchor="middle" x="407" y="-388.5" font-family="Helvetica,sans-Serif" font-size="10.00">P4::DoTableHit</text>
</a>
</g>
</g>
<!-- Node3&#45;&gt;Node46 -->
<g id="edge38_Node000003_Node000046" class="edge">
<title>Node3&#45;&gt;Node46</title>
<g id="a_edge38_Node000003_Node000046"><a xlink:title=" ">
<path fill="none" stroke="#63b8ff" d="M226.1,-833.04C232.77,-754.95 260.87,-471.49 322,-410 332.65,-399.29 347.97,-394.07 362.62,-391.68"/>
<polygon fill="#63b8ff" stroke="#63b8ff" points="222.58,-833.13 225.24,-843.38 229.56,-833.7 222.58,-833.13"/>
</a>
</g>
</g>
<!-- Node47 -->
<g id="Node000047" class="node">
<title>Node47</title>
<g id="a_Node000047"><a xlink:href="class_p4_1_1_dontcare_args.html" target="_top" xlink:title=" ">
<polygon fill="white" stroke="#666666" points="457.5,-363.5 356.5,-363.5 356.5,-344.5 457.5,-344.5 457.5,-363.5"/>
<text text-anchor="middle" x="407" y="-351.5" font-family="Helvetica,sans-Serif" font-size="10.00">P4::DontcareArgs</text>
</a>
</g>
</g>
<!-- Node3&#45;&gt;Node47 -->
<g id="edge39_Node000003_Node000047" class="edge">
<title>Node3&#45;&gt;Node47</title>
<g id="a_edge39_Node000003_Node000047"><a xlink:title=" ">
<path fill="none" stroke="#63b8ff" d="M225.74,-832.98C231.24,-750.77 256.12,-440.35 322,-373 331.1,-363.7 343.71,-358.53 356.4,-355.75"/>
<polygon fill="#63b8ff" stroke="#63b8ff" points="222.22,-833.19 225.07,-843.39 229.2,-833.64 222.22,-833.19"/>
</a>
</g>
</g>
<!-- Node48 -->
<g id="Node000048" class="node">
<title>Node48</title>
<g id="a_Node000048"><a xlink:href="class_p4_1_1_eliminate_subparser_calls.html" target="_top" xlink:title=" ">
<polygon fill="white" stroke="#666666" points="484,-326.5 330,-326.5 330,-307.5 484,-307.5 484,-326.5"/>
<text text-anchor="middle" x="407" y="-314.5" font-family="Helvetica,sans-Serif" font-size="10.00">P4::EliminateSubparserCalls</text>
</a>
</g>
</g>
<!-- Node3&#45;&gt;Node48 -->
<g id="edge40_Node000003_Node000048" class="edge">
<title>Node3&#45;&gt;Node48</title>
<g id="a_edge40_Node000003_Node000048"><a xlink:title=" ">
<path fill="none" stroke="#63b8ff" d="M225.4,-833.37C229.74,-747.92 251.22,-409.38 322,-336 325.63,-332.23 329.84,-329.14 334.4,-326.61"/>
<polygon fill="#63b8ff" stroke="#63b8ff" points="221.9,-833.34 224.91,-843.5 228.89,-833.68 221.9,-833.34"/>
</a>
</g>
</g>
<!-- Node49 -->
<g id="Node000049" class="node">
<title>Node49</title>
<g id="a_Node000049"><a xlink:href="class_p4_1_1_entry_priorities.html" target="_top" xlink:title="Assigns priorities to table entries if they are not &#39;const&#39;.">
<polygon fill="white" stroke="#666666" points="459,-289.5 355,-289.5 355,-270.5 459,-270.5 459,-289.5"/>
<text text-anchor="middle" x="407" y="-277.5" font-family="Helvetica,sans-Serif" font-size="10.00">P4::EntryPriorities</text>
</a>
</g>
</g>
<!-- Node3&#45;&gt;Node49 -->
<g id="edge41_Node000003_Node000049" class="edge">
<title>Node3&#45;&gt;Node49</title>
<g id="a_edge41_Node000003_Node000049"><a xlink:title=" ">
<path fill="none" stroke="#63b8ff" d="M225.14,-833.12C228.46,-743.52 246.49,-378.25 322,-299 330.66,-289.91 342.69,-284.74 354.93,-281.89"/>
<polygon fill="#63b8ff" stroke="#63b8ff" points="221.64,-833.15 224.79,-843.26 228.64,-833.39 221.64,-833.15"/>
</a>
</g>
</g>
<!-- Node50 -->
<g id="Node000050" class="node">
<title>Node50</title>
<g id="a_Node000050"><a xlink:href="class_p4_1_1_find_action_parameters.html" target="_top" xlink:title=" ">
<polygon fill="white" stroke="#bfbfbf" points="477.5,-252.5 336.5,-252.5 336.5,-233.5 477.5,-233.5 477.5,-252.5"/>
<text text-anchor="middle" x="407" y="-240.5" font-family="Helvetica,sans-Serif" font-size="10.00">P4::FindActionParameters</text>
</a>
</g>
</g>
<!-- Node3&#45;&gt;Node50 -->
<g id="edge42_Node000003_Node000050" class="edge">
<title>Node3&#45;&gt;Node50</title>
<g id="a_edge42_Node000003_Node000050"><a xlink:title=" ">
<path fill="none" stroke="#63b8ff" d="M224.91,-832.98C227.23,-739.54 241.71,-347.17 322,-262 326.1,-257.65 330.97,-254.19 336.27,-251.46"/>
<polygon fill="#63b8ff" stroke="#63b8ff" points="221.41,-832.99 224.68,-843.07 228.41,-833.15 221.41,-832.99"/>
</a>
</g>
</g>
<!-- Node51 -->
<g id="Node000051" class="node">
<title>Node51</title>
<g id="a_Node000051"><a xlink:href="class_p4_1_1_find_function_specializations.html" target="_top" xlink:title=" ">
<polygon fill="white" stroke="#666666" points="492,-215.5 322,-215.5 322,-196.5 492,-196.5 492,-215.5"/>
<text text-anchor="middle" x="407" y="-203.5" font-family="Helvetica,sans-Serif" font-size="10.00">P4::FindFunctionSpecializations</text>
</a>
</g>
</g>
<!-- Node3&#45;&gt;Node51 -->
<g id="edge43_Node000003_Node000051" class="edge">
<title>Node3&#45;&gt;Node51</title>
<g id="a_edge43_Node000003_Node000051"><a xlink:title=" ">
<path fill="none" stroke="#63b8ff" d="M224.69,-833.29C226.04,-736.91 236.79,-316.25 322,-225 325.47,-221.28 329.5,-218.22 333.88,-215.7"/>
<polygon fill="#63b8ff" stroke="#63b8ff" points="221.19,-833.35 224.57,-843.39 228.19,-833.43 221.19,-833.35"/>
</a>
</g>
</g>
<!-- Node52 -->
<g id="Node000052" class="node">
<title>Node52</title>
<g id="a_Node000052"><a xlink:href="class_p4_1_1_find_global_action_uses.html" target="_top" xlink:title=" ">
<polygon fill="white" stroke="#bfbfbf" points="477.5,-178.5 336.5,-178.5 336.5,-159.5 477.5,-159.5 477.5,-178.5"/>
<text text-anchor="middle" x="407" y="-166.5" font-family="Helvetica,sans-Serif" font-size="10.00">P4::FindGlobalActionUses</text>
</a>
</g>
</g>
<!-- Node3&#45;&gt;Node52 -->
<g id="edge44_Node000003_Node000052" class="edge">
<title>Node3&#45;&gt;Node52</title>
<g id="a_edge44_Node000003_Node000052"><a xlink:title=" ">
<path fill="none" stroke="#63b8ff" d="M224.51,-833.09C224.95,-732.93 232.01,-285.18 322,-188 326.06,-183.61 330.91,-180.13 336.19,-177.38"/>
<polygon fill="#63b8ff" stroke="#63b8ff" points="221.01,-833.3 224.48,-843.31 228.01,-833.32 221.01,-833.3"/>
</a>
</g>
</g>
<!-- Node53 -->
<g id="Node000053" class="node">
<title>Node53</title>
<g id="a_Node000053"><a xlink:href="class_p4_1_1_find_repeated_action_uses.html" target="_top" xlink:title=" ">
<polygon fill="white" stroke="#bfbfbf" points="485,-141.5 329,-141.5 329,-122.5 485,-122.5 485,-141.5"/>
<text text-anchor="middle" x="407" y="-129.5" font-family="Helvetica,sans-Serif" font-size="10.00">P4::FindRepeatedActionUses</text>
</a>
</g>
</g>
<!-- Node3&#45;&gt;Node53 -->
<g id="edge45_Node000003_Node000053" class="edge">
<title>Node3&#45;&gt;Node53</title>
<g id="a_edge45_Node000003_Node000053"><a xlink:title=" ">
<path fill="none" stroke="#63b8ff" d="M224.34,-832.97C223.91,-729.28 227.2,-254.16 322,-151 325.44,-147.26 329.45,-144.17 333.81,-141.64"/>
<polygon fill="#63b8ff" stroke="#63b8ff" points="220.84,-833.29 224.4,-843.27 227.84,-833.25 220.84,-833.29"/>
</a>
</g>
</g>
<!-- Node54 -->
<g id="Node000054" class="node">
<title>Node54</title>
<g id="a_Node000054"><a xlink:href="class_p4_1_1_find_specializations.html" target="_top" xlink:title=" ">
<polygon fill="white" stroke="#666666" points="471,-104.5 343,-104.5 343,-85.5 471,-85.5 471,-104.5"/>
<text text-anchor="middle" x="407" y="-92.5" font-family="Helvetica,sans-Serif" font-size="10.00">P4::FindSpecializations</text>
</a>
</g>
</g>
<!-- Node3&#45;&gt;Node54 -->
<g id="edge46_Node000003_Node000054" class="edge">
<title>Node3&#45;&gt;Node54</title>
<g id="a_edge46_Node000003_Node000054"><a xlink:title=" ">
<path fill="none" stroke="#63b8ff" d="M224.19,-833.26C222.91,-726.96 222.26,-223.29 322,-114 327.64,-107.82 334.84,-103.43 342.64,-100.35"/>
<polygon fill="#63b8ff" stroke="#63b8ff" points="220.69,-833.31 224.32,-843.26 227.69,-833.22 220.69,-833.31"/>
</a>
</g>
</g>
<!-- Node55 -->
<g id="Node000055" class="node">
<title>Node55</title>
<g id="a_Node000055"><a xlink:href="class_p4_1_1_find_type_specializations.html" target="_top" xlink:title=" ">
<polygon fill="white" stroke="#666666" points="482.5,-67.5 331.5,-67.5 331.5,-48.5 482.5,-48.5 482.5,-67.5"/>
<text text-anchor="middle" x="407" y="-55.5" font-family="Helvetica,sans-Serif" font-size="10.00">P4::FindTypeSpecializations</text>
</a>
</g>
</g>
<!-- Node3&#45;&gt;Node55 -->
<g id="edge47_Node000003_Node000055" class="edge">
<title>Node3&#45;&gt;Node55</title>
<g id="a_edge47_Node000003_Node000055"><a xlink:title=" ">
<path fill="none" stroke="#8b1a1a" d="M225.64,-833.28C232.46,-718.06 269.42,-134.98 322,-77 325.42,-73.23 329.41,-70.13 333.76,-67.59"/>
<polygon fill="#8b1a1a" stroke="#8b1a1a" points="222.13,-833.27 225.04,-843.46 229.12,-833.68 222.13,-833.27"/>
</a>
</g>
</g>
<!-- Node56 -->
<g id="Node000056" class="node">
<title>Node56</title>
<g id="a_Node000056"><a xlink:href="class_p4_1_1_functions_inliner_1_1is_local_expression.html" target="_top" xlink:title=" ">
<polygon fill="white" stroke="#bfbfbf" points="463,-30 351,-30 351,0 463,0 463,-30"/>
<text text-anchor="start" x="359" y="-18" font-family="Helvetica,sans-Serif" font-size="10.00">P4::FunctionsInliner</text>
<text text-anchor="middle" x="407" y="-7" font-family="Helvetica,sans-Serif" font-size="10.00">::isLocalExpression</text>
</a>
</g>
</g>
<!-- Node3&#45;&gt;Node56 -->
<g id="edge48_Node000003_Node000056" class="edge">
<title>Node3&#45;&gt;Node56</title>
<g id="a_edge48_Node000003_Node000056"><a xlink:title=" ">
<path fill="none" stroke="#8b1a1a" d="M225.59,-833.14C232.26,-714.52 269.07,-102.78 322,-40 329.45,-31.16 339.88,-25.36 350.87,-21.59"/>
<polygon fill="#8b1a1a" stroke="#8b1a1a" points="222.08,-833.13 225.02,-843.31 229.07,-833.52 222.08,-833.13"/>
</a>
</g>
</g>
</g>
</svg>

<g id="navigator" transform="translate(0 0)" fill="#404254">
  <rect fill="#f2f5e9" fill-opacity="0.5" stroke="#606060" stroke-width=".5" x="0" y="0" width="60" height="60"/>
  <use id="zoomplus" xlink:href="#zoomPlus" x="17" y="9" onmousedown="handleZoom(evt,'in')"/>
  <use id="zoomminus" xlink:href="#zoomMin" x="42" y="9" onmousedown="handleZoom(evt,'out')"/>
  <use id="reset" xlink:href="#resetDef" x="30" y="36" onmousedown="handleReset()"/>
   <use id="arrowup" xlink:href="#arrowUp" x="0" y="0" onmousedown="handlePan(0,-1)"/>
  <use id="arrowright" xlink:href="#arrowRight" x="0" y="0" onmousedown="handlePan(1,0)"/>
  <use id="arrowdown" xlink:href="#arrowDown" x="0" y="0" onmousedown="handlePan(0,1)"/>
  <use id="arrowleft" xlink:href="#arrowLeft" x="0" y="0" onmousedown="handlePan(-1,0)"/>
</g>
<svg viewBox="0 0 15 15" width="100%" height="30px" preserveAspectRatio="xMaxYMin meet">
 <g id="arrow_out" transform="scale(0.3 0.3)">
  <a xlink:href="class_p4_1_1_declaration_lookup__inherit__graph_org.svg" target="_base">
   <rect id="button" ry="5" rx="5" y="6" x="6" height="38" width="38"
        fill="#f2f5e9" fill-opacity="0.5" stroke="#606060" stroke-width="1.0"/>
   <path id="arrow"
     d="M 11.500037,31.436501 C 11.940474,20.09759 22.043105,11.32322 32.158766,21.979434 L 37.068811,17.246167 C 37.068811,17.246167 37.088388,32 37.088388,32 L 22.160133,31.978069 C 22.160133,31.978069 26.997745,27.140456 26.997745,27.140456 C 18.528582,18.264221 13.291696,25.230495 11.500037,31.436501 z"
     style="fill:#404040;"/>
  </a>
 </g>
</svg>

<style type='text/css'>
<![CDATA[
[data-mouse-over-selected='false'] { opacity: 0.7; }
[data-mouse-over-selected='true']  { opacity: 1.0; }
]]>
</style>
<script type="application/ecmascript"><![CDATA[
document.addEventListener('DOMContentLoaded', (event) => {
  highlightEdges();
  highlightAdjacentNodes();
});
]]></script>
</svg>
