<?xml version="1.0" encoding="UTF-8" standalone="no"?>
<!DOCTYPE svg PUBLIC "-//W3C//DTD SVG 1.1//EN"
 "http://www.w3.org/Graphics/SVG/1.1/DTD/svg11.dtd">
<!-- Generated by graphviz version 2.43.0 (0)
 -->
<!-- Title: P4::P4Tools::Target Pages: 1 -->
<!--zoomable 476 -->

<svg id="main" version="1.1" xmlns="http://www.w3.org/2000/svg" xmlns:xlink="http://www.w3.org/1999/xlink" xml:space="preserve" onload="init(evt)">

<style type="text/css"><![CDATA[
.node, .edge {opacity: 0.7;}
.node.selected, .edge.selected {opacity: 1;}
.edge:hover path { stroke: red; }
.edge:hover polygon { stroke: red; fill: red; }
]]></style>

<defs>
  <circle id="rim" cx="0" cy="0" r="7"/>
  <circle id="rim2" cx="0" cy="0" r="3.5"/>
  <g id="zoomPlus">
    <use xlink:href="#rim" fill="#404040"><set attributeName="fill" to="#808080" begin="zoomplus.mouseover" end="zoomplus.mouseout"/></use>
    <path d="M-4,0h8M0,-4v8" fill="none" stroke="white" stroke-width="1.5" pointer-events="none"/>
  </g>
  <g id="zoomMin">
    <use xlink:href="#rim" fill="#404040"><set attributeName="fill" to="#808080" begin="zoomminus.mouseover" end="zoomminus.mouseout"/></use>
    <path d="M-4,0h8" fill="none" stroke="white" stroke-width="1.5" pointer-events="none"/>
  </g>
  <g id="arrowUp" transform="translate(30 24)">
    <use xlink:href="#rim"/>
    <path pointer-events="none" fill="none" stroke="white" stroke-width="1.5" d="M0,-3.0v7 M-2.5,-0.5L0,-3.0L2.5,-0.5"/>
  </g>
  <g id="arrowRight" transform="rotate(90) translate(36 -43)">
    <use xlink:href="#rim"/>
    <path pointer-events="none" fill="none" stroke="white" stroke-width="1.5" d="M0,-3.0v7 M-2.5,-0.5L0,-3.0L2.5,-0.5"/>
  </g>
  <g id="arrowDown" transform="rotate(180) translate(-30 -48)">
    <use xlink:href="#rim"/>
    <path pointer-events="none" fill="none" stroke="white" stroke-width="1.5" d="M0,-3.0v7 M-2.5,-0.5L0,-3.0L2.5,-0.5"/>
  </g>
  <g id="arrowLeft" transform="rotate(270) translate(-36 17)">
    <use xlink:href="#rim"/>
    <path pointer-events="none" fill="none" stroke="white" stroke-width="1.5" d="M0,-3.0v7 M-2.5,-0.5L0,-3.0L2.5,-0.5"/>
  </g>
  <g id="resetDef">
    <use xlink:href="#rim2" fill="#404040"><set attributeName="fill" to="#808080" begin="reset.mouseover" end="reset.mouseout"/></use>
  </g>
</defs>
<script type="application/ecmascript">
var viewWidth = 921;
var viewHeight = 476;
var sectionId = 'dynsection-0';
</script>
<script type="application/ecmascript" xlink:href="svg.min.js"/>
<svg id="graph" class="graph">
<g id="viewport">
<title>P4::P4Tools::Target</title>
<!-- Node1 -->
<g id="Node000001" class="node">
<title>Node1</title>
<g id="a_Node000001"><a xlink:title=" ">
<polygon fill="#999999" stroke="#666666" points="107,-228.5 0,-228.5 0,-209.5 107,-209.5 107,-228.5"/>
<text text-anchor="middle" x="53.5" y="-216.5" font-family="Helvetica,sans-Serif" font-size="10.00">P4::P4Tools::Target</text>
</a>
</g>
</g>
<!-- Node2 -->
<g id="Node000002" class="node">
<title>Node2</title>
<g id="a_Node000002"><a xlink:href="class_p4_1_1_p4_tools_1_1_compiler_target.html" target="_top" xlink:title="Encapsulates the details of invoking the P4 compiler for a target device and architecture.">
<polygon fill="white" stroke="#666666" points="295,-228.5 143,-228.5 143,-209.5 295,-209.5 295,-228.5"/>
<text text-anchor="middle" x="219" y="-216.5" font-family="Helvetica,sans-Serif" font-size="10.00">P4::P4Tools::CompilerTarget</text>
</a>
</g>
</g>
<!-- Node1&#45;&gt;Node2 -->
<g id="edge1_Node000001_Node000002" class="edge">
<title>Node1&#45;&gt;Node2</title>
<g id="a_edge1_Node000001_Node000002"><a xlink:title=" ">
<path fill="none" stroke="#63b8ff" d="M117.2,-219C125.59,-219 134.26,-219 142.84,-219"/>
<polygon fill="#63b8ff" stroke="#63b8ff" points="117.13,-215.5 107.13,-219 117.13,-222.5 117.13,-215.5"/>
</a>
</g>
</g>
<!-- Node3 -->
<g id="Node000003" class="node">
<title>Node3</title>
<g id="a_Node000003"><a xlink:href="class_p4_1_1_p4_tools_1_1_p4_smith_1_1_smith_target.html" target="_top" xlink:title=" ">
<polygon fill="white" stroke="#bfbfbf" points="453.5,-312 335.5,-312 335.5,-282 453.5,-282 453.5,-312"/>
<text text-anchor="start" x="343.5" y="-300" font-family="Helvetica,sans-Serif" font-size="10.00">P4::P4Tools::P4Smith</text>
<text text-anchor="middle" x="394.5" y="-289" font-family="Helvetica,sans-Serif" font-size="10.00">::SmithTarget</text>
</a>
</g>
</g>
<!-- Node2&#45;&gt;Node3 -->
<g id="edge2_Node000002_Node000003" class="edge">
<title>Node2&#45;&gt;Node3</title>
<g id="a_edge2_Node000002_Node000003"><a xlink:title=" ">
<path fill="none" stroke="#63b8ff" d="M250.6,-232.76C281.21,-246.52 328.18,-267.63 359.83,-281.86"/>
<polygon fill="#63b8ff" stroke="#63b8ff" points="251.83,-229.47 241.27,-228.56 248.96,-235.86 251.83,-229.47"/>
</a>
</g>
</g>
<!-- Node13 -->
<g id="Node000013" class="node">
<title>Node13</title>
<g id="a_Node000013"><a xlink:href="class_p4_1_1_p4_tools_1_1_p4_testgen_1_1_testgen_target.html" target="_top" xlink:title=" ">
<polygon fill="white" stroke="#bfbfbf" points="458,-156 331,-156 331,-126 458,-126 458,-156"/>
<text text-anchor="start" x="339" y="-144" font-family="Helvetica,sans-Serif" font-size="10.00">P4::P4Tools::P4Testgen</text>
<text text-anchor="middle" x="394.5" y="-133" font-family="Helvetica,sans-Serif" font-size="10.00">::TestgenTarget</text>
</a>
</g>
</g>
<!-- Node2&#45;&gt;Node13 -->
<g id="edge12_Node000002_Node000013" class="edge">
<title>Node2&#45;&gt;Node13</title>
<g id="a_edge12_Node000002_Node000013"><a xlink:title=" ">
<path fill="none" stroke="#63b8ff" d="M250.6,-205.24C281.21,-191.48 328.18,-170.37 359.83,-156.14"/>
<polygon fill="#63b8ff" stroke="#63b8ff" points="248.96,-202.14 241.27,-209.44 251.83,-208.53 248.96,-202.14"/>
</a>
</g>
</g>
<!-- Node4 -->
<g id="Node000004" class="node">
<title>Node4</title>
<g id="a_Node000004"><a xlink:href="class_p4_1_1_p4_tools_1_1_p4_smith_1_1_b_mv2_1_1_abstract_b_mv2_smith_target.html" target="_top" xlink:title=" ">
<polygon fill="white" stroke="#bfbfbf" points="683.5,-420 500.5,-420 500.5,-390 683.5,-390 683.5,-420"/>
<text text-anchor="start" x="508.5" y="-408" font-family="Helvetica,sans-Serif" font-size="10.00">P4::P4Tools::P4Smith</text>
<text text-anchor="middle" x="592" y="-397" font-family="Helvetica,sans-Serif" font-size="10.00">::BMv2::AbstractBMv2SmithTarget</text>
</a>
</g>
</g>
<!-- Node3&#45;&gt;Node4 -->
<g id="edge3_Node000003_Node000004" class="edge">
<title>Node3&#45;&gt;Node4</title>
<g id="a_edge3_Node000003_Node000004"><a xlink:title=" ">
<path fill="none" stroke="#63b8ff" d="M416,-319.58C434.56,-338.69 463.6,-365.39 494,-381 500.71,-384.45 507.95,-387.42 515.33,-389.97"/>
<polygon fill="#63b8ff" stroke="#63b8ff" points="418.37,-317 408.94,-312.16 413.3,-321.82 418.37,-317"/>
</a>
</g>
</g>
<!-- Node7 -->
<g id="Node000007" class="node">
<title>Node7</title>
<g id="a_Node000007"><a xlink:href="class_p4_1_1_p4_tools_1_1_p4_smith_1_1_generic_1_1_abstract_generic_smith_target.html" target="_top" xlink:title=" ">
<polygon fill="white" stroke="#bfbfbf" points="678.5,-371.5 505.5,-371.5 505.5,-330.5 678.5,-330.5 678.5,-371.5"/>
<text text-anchor="start" x="513.5" y="-359.5" font-family="Helvetica,sans-Serif" font-size="10.00">P4::P4Tools::P4Smith</text>
<text text-anchor="start" x="513.5" y="-348.5" font-family="Helvetica,sans-Serif" font-size="10.00">::Generic::AbstractGenericSmith</text>
<text text-anchor="middle" x="592" y="-337.5" font-family="Helvetica,sans-Serif" font-size="10.00">Target</text>
</a>
</g>
</g>
<!-- Node3&#45;&gt;Node7 -->
<g id="edge6_Node000003_Node000007" class="edge">
<title>Node3&#45;&gt;Node7</title>
<g id="a_edge6_Node000003_Node000007"><a xlink:title=" ">
<path fill="none" stroke="#63b8ff" d="M459.62,-314.71C477.88,-319.75 497.93,-325.29 516.74,-330.49"/>
<polygon fill="#63b8ff" stroke="#63b8ff" points="460.53,-311.33 449.96,-312.04 458.66,-318.08 460.53,-311.33"/>
</a>
</g>
</g>
<!-- Node9 -->
<g id="Node000009" class="node">
<title>Node9</title>
<g id="a_Node000009"><a xlink:href="class_p4_1_1_p4_tools_1_1_p4_smith_1_1_nic_1_1_abstract_nic_smith_target.html" target="_top" xlink:title=" ">
<polygon fill="white" stroke="#bfbfbf" points="671.5,-312 512.5,-312 512.5,-282 671.5,-282 671.5,-312"/>
<text text-anchor="start" x="520.5" y="-300" font-family="Helvetica,sans-Serif" font-size="10.00">P4::P4Tools::P4Smith</text>
<text text-anchor="middle" x="592" y="-289" font-family="Helvetica,sans-Serif" font-size="10.00">::Nic::AbstractNicSmithTarget</text>
</a>
</g>
</g>
<!-- Node3&#45;&gt;Node9 -->
<g id="edge8_Node000003_Node000009" class="edge">
<title>Node3&#45;&gt;Node9</title>
<g id="a_edge8_Node000003_Node000009"><a xlink:title=" ">
<path fill="none" stroke="#63b8ff" d="M463.78,-297C479.5,-297 496.35,-297 512.46,-297"/>
<polygon fill="#63b8ff" stroke="#63b8ff" points="463.63,-293.5 453.63,-297 463.63,-300.5 463.63,-293.5"/>
</a>
</g>
</g>
<!-- Node11 -->
<g id="Node000011" class="node">
<title>Node11</title>
<g id="a_Node000011"><a xlink:href="class_p4_1_1_p4_tools_1_1_p4_smith_1_1_tofino_1_1_abstract_tofino_smith_target.html" target="_top" xlink:title=" ">
<polygon fill="white" stroke="#bfbfbf" points="669.5,-263.5 514.5,-263.5 514.5,-222.5 669.5,-222.5 669.5,-263.5"/>
<text text-anchor="start" x="522.5" y="-251.5" font-family="Helvetica,sans-Serif" font-size="10.00">P4::P4Tools::P4Smith</text>
<text text-anchor="start" x="522.5" y="-240.5" font-family="Helvetica,sans-Serif" font-size="10.00">::Tofino::AbstractTofinoSmith</text>
<text text-anchor="middle" x="592" y="-229.5" font-family="Helvetica,sans-Serif" font-size="10.00">Target</text>
</a>
</g>
</g>
<!-- Node3&#45;&gt;Node11 -->
<g id="edge10_Node000003_Node000011" class="edge">
<title>Node3&#45;&gt;Node11</title>
<g id="a_edge10_Node000003_Node000011"><a xlink:title=" ">
<path fill="none" stroke="#63b8ff" d="M459.62,-279.29C477.88,-274.25 497.93,-268.71 516.74,-263.51"/>
<polygon fill="#63b8ff" stroke="#63b8ff" points="458.66,-275.92 449.96,-281.96 460.53,-282.67 458.66,-275.92"/>
</a>
</g>
</g>
<!-- Node5 -->
<g id="Node000005" class="node">
<title>Node5</title>
<g id="a_Node000005"><a xlink:href="class_p4_1_1_p4_tools_1_1_p4_smith_1_1_b_mv2_1_1_bmv2_psa_smith_target.html" target="_top" xlink:title=" ">
<polygon fill="white" stroke="#bfbfbf" points="900,-468 739,-468 739,-438 900,-438 900,-468"/>
<text text-anchor="start" x="747" y="-456" font-family="Helvetica,sans-Serif" font-size="10.00">P4::P4Tools::P4Smith</text>
<text text-anchor="middle" x="819.5" y="-445" font-family="Helvetica,sans-Serif" font-size="10.00">::BMv2::Bmv2PsaSmithTarget</text>
</a>
</g>
</g>
<!-- Node4&#45;&gt;Node5 -->
<g id="edge4_Node000004_Node000005" class="edge">
<title>Node4&#45;&gt;Node5</title>
<g id="a_edge4_Node000004_Node000005"><a xlink:title=" ">
<path fill="none" stroke="#63b8ff" d="M673.64,-422.17C697.95,-427.34 724.43,-432.98 748.02,-438"/>
<polygon fill="#63b8ff" stroke="#63b8ff" points="674.24,-418.71 663.73,-420.06 672.78,-425.56 674.24,-418.71"/>
</a>
</g>
</g>
<!-- Node6 -->
<g id="Node000006" class="node">
<title>Node6</title>
<g id="a_Node000006"><a xlink:href="class_p4_1_1_p4_tools_1_1_p4_smith_1_1_b_mv2_1_1_bmv2_v1model_smith_target.html" target="_top" xlink:title=" ">
<polygon fill="white" stroke="#bfbfbf" points="913,-420 726,-420 726,-390 913,-390 913,-420"/>
<text text-anchor="start" x="734" y="-408" font-family="Helvetica,sans-Serif" font-size="10.00">P4::P4Tools::P4Smith</text>
<text text-anchor="middle" x="819.5" y="-397" font-family="Helvetica,sans-Serif" font-size="10.00">::BMv2::Bmv2V1modelSmithTarget</text>
</a>
</g>
</g>
<!-- Node4&#45;&gt;Node6 -->
<g id="edge5_Node000004_Node000006" class="edge">
<title>Node4&#45;&gt;Node6</title>
<g id="a_edge5_Node000004_Node000006"><a xlink:title=" ">
<path fill="none" stroke="#63b8ff" d="M693.86,-405C704.47,-405 715.22,-405 725.73,-405"/>
<polygon fill="#63b8ff" stroke="#63b8ff" points="693.74,-401.5 683.74,-405 693.74,-408.5 693.74,-401.5"/>
</a>
</g>
</g>
<!-- Node8 -->
<g id="Node000008" class="node">
<title>Node8</title>
<g id="a_Node000008"><a xlink:href="class_p4_1_1_p4_tools_1_1_p4_smith_1_1_generic_1_1_generic_core_smith_target.html" target="_top" xlink:title=" ">
<polygon fill="white" stroke="#bfbfbf" points="897,-371.5 742,-371.5 742,-330.5 897,-330.5 897,-371.5"/>
<text text-anchor="start" x="750" y="-359.5" font-family="Helvetica,sans-Serif" font-size="10.00">P4::P4Tools::P4Smith</text>
<text text-anchor="start" x="750" y="-348.5" font-family="Helvetica,sans-Serif" font-size="10.00">::Generic::GenericCoreSmith</text>
<text text-anchor="middle" x="819.5" y="-337.5" font-family="Helvetica,sans-Serif" font-size="10.00">Target</text>
</a>
</g>
</g>
<!-- Node7&#45;&gt;Node8 -->
<g id="edge7_Node000007_Node000008" class="edge">
<title>Node7&#45;&gt;Node8</title>
<g id="a_edge7_Node000007_Node000008"><a xlink:title=" ">
<path fill="none" stroke="#63b8ff" d="M688.91,-351C706.59,-351 724.84,-351 741.86,-351"/>
<polygon fill="#63b8ff" stroke="#63b8ff" points="688.57,-347.5 678.57,-351 688.57,-354.5 688.57,-347.5"/>
</a>
</g>
</g>
<!-- Node10 -->
<g id="Node000010" class="node">
<title>Node10</title>
<g id="a_Node000010"><a xlink:href="class_p4_1_1_p4_tools_1_1_p4_smith_1_1_nic_1_1_dpdk_pna_smith_target.html" target="_top" xlink:title=" ">
<polygon fill="white" stroke="#bfbfbf" points="892.5,-312 746.5,-312 746.5,-282 892.5,-282 892.5,-312"/>
<text text-anchor="start" x="754.5" y="-300" font-family="Helvetica,sans-Serif" font-size="10.00">P4::P4Tools::P4Smith</text>
<text text-anchor="middle" x="819.5" y="-289" font-family="Helvetica,sans-Serif" font-size="10.00">::Nic::DpdkPnaSmithTarget</text>
</a>
</g>
</g>
<!-- Node9&#45;&gt;Node10 -->
<g id="edge9_Node000009_Node000010" class="edge">
<title>Node9&#45;&gt;Node10</title>
<g id="a_edge9_Node000009_Node000010"><a xlink:title=" ">
<path fill="none" stroke="#63b8ff" d="M681.63,-297C703.06,-297 725.7,-297 746.27,-297"/>
<polygon fill="#63b8ff" stroke="#63b8ff" points="681.55,-293.5 671.55,-297 681.55,-300.5 681.55,-293.5"/>
</a>
</g>
</g>
<!-- Node12 -->
<g id="Node000012" class="node">
<title>Node12</title>
<g id="a_Node000012"><a xlink:href="class_p4_1_1_p4_tools_1_1_p4_smith_1_1_tofino_1_1_tofino_tna_smith_target.html" target="_top" xlink:title=" ">
<polygon fill="white" stroke="#bfbfbf" points="900.5,-258 738.5,-258 738.5,-228 900.5,-228 900.5,-258"/>
<text text-anchor="start" x="746.5" y="-246" font-family="Helvetica,sans-Serif" font-size="10.00">P4::P4Tools::P4Smith</text>
<text text-anchor="middle" x="819.5" y="-235" font-family="Helvetica,sans-Serif" font-size="10.00">::Tofino::TofinoTnaSmithTarget</text>
</a>
</g>
</g>
<!-- Node11&#45;&gt;Node12 -->
<g id="edge11_Node000011_Node000012" class="edge">
<title>Node11&#45;&gt;Node12</title>
<g id="a_edge11_Node000011_Node000012"><a xlink:title=" ">
<path fill="none" stroke="#63b8ff" d="M679.88,-243C699.06,-243 719.3,-243 738.21,-243"/>
<polygon fill="#63b8ff" stroke="#63b8ff" points="679.66,-239.5 669.66,-243 679.66,-246.5 679.66,-239.5"/>
</a>
</g>
</g>
<!-- Node14 -->
<g id="Node000014" class="node">
<title>Node14</title>
<g id="a_Node000014"><a xlink:href="class_p4_1_1_p4_tools_1_1_p4_testgen_1_1_bmv2_1_1_bmv2_v1_model_testgen_target.html" target="_top" xlink:title=" ">
<polygon fill="white" stroke="#bfbfbf" points="690,-204 494,-204 494,-174 690,-174 690,-204"/>
<text text-anchor="start" x="502" y="-192" font-family="Helvetica,sans-Serif" font-size="10.00">P4::P4Tools::P4Testgen</text>
<text text-anchor="middle" x="592" y="-181" font-family="Helvetica,sans-Serif" font-size="10.00">::Bmv2::Bmv2V1ModelTestgenTarget</text>
</a>
</g>
</g>
<!-- Node13&#45;&gt;Node14 -->
<g id="edge13_Node000013_Node000014" class="edge">
<title>Node13&#45;&gt;Node14</title>
<g id="a_edge13_Node000013_Node000014"><a xlink:title=" ">
<path fill="none" stroke="#63b8ff" d="M466.54,-158.44C487.3,-163.54 509.81,-169.07 529.9,-174"/>
<polygon fill="#63b8ff" stroke="#63b8ff" points="467.37,-155.04 456.82,-156.06 465.7,-161.84 467.37,-155.04"/>
</a>
</g>
</g>
<!-- Node15 -->
<g id="Node000015" class="node">
<title>Node15</title>
<g id="a_Node000015"><a xlink:href="class_p4_1_1_p4_tools_1_1_p4_testgen_1_1_e_b_p_f_1_1_e_b_p_f_testgen_target.html" target="_top" xlink:title=" ">
<polygon fill="white" stroke="#bfbfbf" points="664,-156 520,-156 520,-126 664,-126 664,-156"/>
<text text-anchor="start" x="528" y="-144" font-family="Helvetica,sans-Serif" font-size="10.00">P4::P4Tools::P4Testgen</text>
<text text-anchor="middle" x="592" y="-133" font-family="Helvetica,sans-Serif" font-size="10.00">::EBPF::EBPFTestgenTarget</text>
</a>
</g>
</g>
<!-- Node13&#45;&gt;Node15 -->
<g id="edge14_Node000013_Node000015" class="edge">
<title>Node13&#45;&gt;Node15</title>
<g id="a_edge14_Node000013_Node000015"><a xlink:title=" ">
<path fill="none" stroke="#63b8ff" d="M468.47,-141C485.28,-141 503.13,-141 519.86,-141"/>
<polygon fill="#63b8ff" stroke="#63b8ff" points="468.16,-137.5 458.16,-141 468.16,-144.5 468.16,-137.5"/>
</a>
</g>
</g>
<!-- Node16 -->
<g id="Node000016" class="node">
<title>Node16</title>
<g id="a_Node000016"><a xlink:href="class_p4_1_1_p4_tools_1_1_p4_testgen_1_1_pna_1_1_pna_dpdk_testgen_target.html" target="_top" xlink:title=" ">
<polygon fill="white" stroke="#bfbfbf" points="671,-108 513,-108 513,-78 671,-78 671,-108"/>
<text text-anchor="start" x="521" y="-96" font-family="Helvetica,sans-Serif" font-size="10.00">P4::P4Tools::P4Testgen</text>
<text text-anchor="middle" x="592" y="-85" font-family="Helvetica,sans-Serif" font-size="10.00">::Pna::PnaDpdkTestgenTarget</text>
</a>
</g>
</g>
<!-- Node13&#45;&gt;Node16 -->
<g id="edge15_Node000013_Node000016" class="edge">
<title>Node13&#45;&gt;Node16</title>
<g id="a_edge15_Node000013_Node000016"><a xlink:title=" ">
<path fill="none" stroke="#63b8ff" d="M466.54,-123.56C487.3,-118.46 509.81,-112.93 529.9,-108"/>
<polygon fill="#63b8ff" stroke="#63b8ff" points="465.7,-120.16 456.82,-125.94 467.37,-126.96 465.7,-120.16"/>
</a>
</g>
</g>
<!-- Node17 -->
<g id="Node000017" class="node">
<title>Node17</title>
<g id="a_Node000017"><a xlink:href="class_p4_1_1_p4_tools_1_1_p4_testgen_1_1_tofino_1_1_abstract_tofino_testgen_target.html" target="_top" xlink:title=" ">
<polygon fill="white" stroke="#bfbfbf" points="674,-59.5 510,-59.5 510,-18.5 674,-18.5 674,-59.5"/>
<text text-anchor="start" x="518" y="-47.5" font-family="Helvetica,sans-Serif" font-size="10.00">P4::P4Tools::P4Testgen</text>
<text text-anchor="start" x="518" y="-36.5" font-family="Helvetica,sans-Serif" font-size="10.00">::Tofino::AbstractTofinoTestgen</text>
<text text-anchor="middle" x="592" y="-25.5" font-family="Helvetica,sans-Serif" font-size="10.00">Target</text>
</a>
</g>
</g>
<!-- Node13&#45;&gt;Node17 -->
<g id="edge16_Node000013_Node000017" class="edge">
<title>Node13&#45;&gt;Node17</title>
<g id="a_edge16_Node000013_Node000017"><a xlink:title=" ">
<path fill="none" stroke="#63b8ff" d="M420.37,-119.2C439.42,-103.43 466.96,-82.59 494,-69 500.85,-65.56 508.18,-62.42 515.61,-59.58"/>
<polygon fill="#63b8ff" stroke="#63b8ff" points="417.89,-116.71 412.49,-125.83 422.4,-122.07 417.89,-116.71"/>
</a>
</g>
</g>
<!-- Node18 -->
<g id="Node000018" class="node">
<title>Node18</title>
<g id="a_Node000018"><a xlink:href="class_p4_1_1_p4_tools_1_1_p4_testgen_1_1_tofino_1_1_j_bay___t2na_testgen_target.html" target="_top" xlink:title=" ">
<polygon fill="white" stroke="#bfbfbf" points="907.5,-78 731.5,-78 731.5,-48 907.5,-48 907.5,-78"/>
<text text-anchor="start" x="739.5" y="-66" font-family="Helvetica,sans-Serif" font-size="10.00">P4::P4Tools::P4Testgen</text>
<text text-anchor="middle" x="819.5" y="-55" font-family="Helvetica,sans-Serif" font-size="10.00">::Tofino::JBay_T2naTestgenTarget</text>
</a>
</g>
</g>
<!-- Node17&#45;&gt;Node18 -->
<g id="edge17_Node000017_Node000018" class="edge">
<title>Node17&#45;&gt;Node18</title>
<g id="a_edge17_Node000017_Node000018"><a xlink:title=" ">
<path fill="none" stroke="#63b8ff" d="M684.21,-48.71C699.74,-50.36 715.84,-52.07 731.27,-53.72"/>
<polygon fill="#63b8ff" stroke="#63b8ff" points="684.41,-45.21 674.09,-47.63 683.67,-52.17 684.41,-45.21"/>
</a>
</g>
</g>
<!-- Node19 -->
<g id="Node000019" class="node">
<title>Node19</title>
<g id="a_Node000019"><a xlink:href="class_p4_1_1_p4_tools_1_1_p4_testgen_1_1_tofino_1_1_tofino___tna_testgen_target.html" target="_top" xlink:title=" ">
<polygon fill="white" stroke="#bfbfbf" points="907.5,-30 731.5,-30 731.5,0 907.5,0 907.5,-30"/>
<text text-anchor="start" x="739.5" y="-18" font-family="Helvetica,sans-Serif" font-size="10.00">P4::P4Tools::P4Testgen</text>
<text text-anchor="middle" x="819.5" y="-7" font-family="Helvetica,sans-Serif" font-size="10.00">::Tofino::Tofino_TnaTestgenTarget</text>
</a>
</g>
</g>
<!-- Node17&#45;&gt;Node19 -->
<g id="edge18_Node000017_Node000019" class="edge">
<title>Node17&#45;&gt;Node19</title>
<g id="a_edge18_Node000017_Node000019"><a xlink:title=" ">
<path fill="none" stroke="#63b8ff" d="M684.21,-29.29C699.74,-27.64 715.84,-25.93 731.27,-24.28"/>
<polygon fill="#63b8ff" stroke="#63b8ff" points="683.67,-25.83 674.09,-30.37 684.41,-32.79 683.67,-25.83"/>
</a>
</g>
</g>
</g>
</svg>

<g id="navigator" transform="translate(0 0)" fill="#404254">
  <rect fill="#f2f5e9" fill-opacity="0.5" stroke="#606060" stroke-width=".5" x="0" y="0" width="60" height="60"/>
  <use id="zoomplus" xlink:href="#zoomPlus" x="17" y="9" onmousedown="handleZoom(evt,'in')"/>
  <use id="zoomminus" xlink:href="#zoomMin" x="42" y="9" onmousedown="handleZoom(evt,'out')"/>
  <use id="reset" xlink:href="#resetDef" x="30" y="36" onmousedown="handleReset()"/>
   <use id="arrowup" xlink:href="#arrowUp" x="0" y="0" onmousedown="handlePan(0,-1)"/>
  <use id="arrowright" xlink:href="#arrowRight" x="0" y="0" onmousedown="handlePan(1,0)"/>
  <use id="arrowdown" xlink:href="#arrowDown" x="0" y="0" onmousedown="handlePan(0,1)"/>
  <use id="arrowleft" xlink:href="#arrowLeft" x="0" y="0" onmousedown="handlePan(-1,0)"/>
</g>
<svg viewBox="0 0 15 15" width="100%" height="30px" preserveAspectRatio="xMaxYMin meet">
 <g id="arrow_out" transform="scale(0.3 0.3)">
  <a xlink:href="class_p4_1_1_p4_tools_1_1_target__inherit__graph_org.svg" target="_base">
   <rect id="button" ry="5" rx="5" y="6" x="6" height="38" width="38"
        fill="#f2f5e9" fill-opacity="0.5" stroke="#606060" stroke-width="1.0"/>
   <path id="arrow"
     d="M 11.500037,31.436501 C 11.940474,20.09759 22.043105,11.32322 32.158766,21.979434 L 37.068811,17.246167 C 37.068811,17.246167 37.088388,32 37.088388,32 L 22.160133,31.978069 C 22.160133,31.978069 26.997745,27.140456 26.997745,27.140456 C 18.528582,18.264221 13.291696,25.230495 11.500037,31.436501 z"
     style="fill:#404040;"/>
  </a>
 </g>
</svg>

<style type='text/css'>
<![CDATA[
[data-mouse-over-selected='false'] { opacity: 0.7; }
[data-mouse-over-selected='true']  { opacity: 1.0; }
]]>
</style>
<script type="application/ecmascript"><![CDATA[
document.addEventListener('DOMContentLoaded', (event) => {
  highlightEdges();
  highlightAdjacentNodes();
});
]]></script>
</svg>
