<?xml version="1.0" encoding="UTF-8" standalone="no"?>
<!DOCTYPE svg PUBLIC "-//W3C//DTD SVG 1.1//EN"
 "http://www.w3.org/Graphics/SVG/1.1/DTD/svg11.dtd">
<!-- Generated by graphviz version 2.43.0 (0)
 -->
<!-- Title: MauModifier Pages: 1 -->
<!--zoomable 483 -->

<svg id="main" version="1.1" xmlns="http://www.w3.org/2000/svg" xmlns:xlink="http://www.w3.org/1999/xlink" xml:space="preserve" onload="init(evt)">

<style type="text/css"><![CDATA[
.node, .edge {opacity: 0.7;}
.node.selected, .edge.selected {opacity: 1;}
.edge:hover path { stroke: red; }
.edge:hover polygon { stroke: red; fill: red; }
]]></style>

<defs>
  <circle id="rim" cx="0" cy="0" r="7"/>
  <circle id="rim2" cx="0" cy="0" r="3.5"/>
  <g id="zoomPlus">
    <use xlink:href="#rim" fill="#404040"><set attributeName="fill" to="#808080" begin="zoomplus.mouseover" end="zoomplus.mouseout"/></use>
    <path d="M-4,0h8M0,-4v8" fill="none" stroke="white" stroke-width="1.5" pointer-events="none"/>
  </g>
  <g id="zoomMin">
    <use xlink:href="#rim" fill="#404040"><set attributeName="fill" to="#808080" begin="zoomminus.mouseover" end="zoomminus.mouseout"/></use>
    <path d="M-4,0h8" fill="none" stroke="white" stroke-width="1.5" pointer-events="none"/>
  </g>
  <g id="arrowUp" transform="translate(30 24)">
    <use xlink:href="#rim"/>
    <path pointer-events="none" fill="none" stroke="white" stroke-width="1.5" d="M0,-3.0v7 M-2.5,-0.5L0,-3.0L2.5,-0.5"/>
  </g>
  <g id="arrowRight" transform="rotate(90) translate(36 -43)">
    <use xlink:href="#rim"/>
    <path pointer-events="none" fill="none" stroke="white" stroke-width="1.5" d="M0,-3.0v7 M-2.5,-0.5L0,-3.0L2.5,-0.5"/>
  </g>
  <g id="arrowDown" transform="rotate(180) translate(-30 -48)">
    <use xlink:href="#rim"/>
    <path pointer-events="none" fill="none" stroke="white" stroke-width="1.5" d="M0,-3.0v7 M-2.5,-0.5L0,-3.0L2.5,-0.5"/>
  </g>
  <g id="arrowLeft" transform="rotate(270) translate(-36 17)">
    <use xlink:href="#rim"/>
    <path pointer-events="none" fill="none" stroke="white" stroke-width="1.5" d="M0,-3.0v7 M-2.5,-0.5L0,-3.0L2.5,-0.5"/>
  </g>
  <g id="resetDef">
    <use xlink:href="#rim2" fill="#404040"><set attributeName="fill" to="#808080" begin="reset.mouseover" end="reset.mouseout"/></use>
  </g>
</defs>
<script type="application/ecmascript">
var viewWidth = 489;
var viewHeight = 483;
var sectionId = 'dynsection-0';
</script>
<script type="application/ecmascript" xlink:href="svg.min.js"/>
<svg id="graph" class="graph">
<g id="viewport">
<title>MauModifier</title>
<!-- Node1 -->
<g id="Node000001" class="node">
<title>Node1</title>
<g id="a_Node000001"><a xlink:title=" ">
<polygon fill="#999999" stroke="#666666" points="289,-241 212,-241 212,-222 289,-222 289,-241"/>
<text text-anchor="middle" x="250.5" y="-229" font-family="Helvetica,sans-Serif" font-size="10.00">MauModifier</text>
</a>
</g>
</g>
<!-- Node4 -->
<g id="Node000004" class="node">
<title>Node4</title>
<g id="a_Node000004"><a xlink:href="class_add_empty_table_seqs.html" target="_top" xlink:title=" ">
<polygon fill="white" stroke="#666666" points="461,-475 345,-475 345,-456 461,-456 461,-475"/>
<text text-anchor="middle" x="403" y="-463" font-family="Helvetica,sans-Serif" font-size="10.00">AddEmptyTableSeqs</text>
</a>
</g>
</g>
<!-- Node1&#45;&gt;Node4 -->
<g id="edge3_Node000001_Node000004" class="edge">
<title>Node1&#45;&gt;Node4</title>
<g id="a_edge3_Node000001_Node000004"><a xlink:title=" ">
<path fill="none" stroke="#63b8ff" d="M252.16,-251.72C254.71,-294.57 266.92,-394.87 325,-447.5 330.7,-452.66 337.59,-456.43 344.87,-459.16"/>
<polygon fill="#63b8ff" stroke="#63b8ff" points="255.65,-251.29 251.68,-241.46 248.66,-251.62 255.65,-251.29"/>
</a>
</g>
</g>
<!-- Node5 -->
<g id="Node000005" class="node">
<title>Node5</title>
<g id="a_Node000005"><a xlink:href="class_adjust_i_x_bar_expression.html" target="_top" xlink:title=" ">
<polygon fill="white" stroke="#bfbfbf" points="466.5,-438 339.5,-438 339.5,-419 466.5,-419 466.5,-438"/>
<text text-anchor="middle" x="403" y="-426" font-family="Helvetica,sans-Serif" font-size="10.00">AdjustIXBarExpression</text>
</a>
</g>
</g>
<!-- Node1&#45;&gt;Node5 -->
<g id="edge4_Node000001_Node000005" class="edge">
<title>Node1&#45;&gt;Node5</title>
<g id="a_edge4_Node000001_Node000005"><a xlink:title=" ">
<path fill="none" stroke="#63b8ff" d="M253.85,-251.39C259.31,-288.34 276.31,-367.6 325,-409.5 329.49,-413.36 334.64,-416.46 340.11,-418.95"/>
<polygon fill="#63b8ff" stroke="#63b8ff" points="257.3,-250.82 252.51,-241.37 250.37,-251.75 257.3,-250.82"/>
</a>
</g>
</g>
<!-- Node6 -->
<g id="Node000006" class="node">
<title>Node6</title>
<g id="a_Node000006"><a xlink:href="class_assign_counter_l_r_t_values_1_1_compute_l_r_t.html" target="_top" xlink:title=" ">
<polygon fill="white" stroke="#bfbfbf" points="471.5,-400.5 334.5,-400.5 334.5,-370.5 471.5,-370.5 471.5,-400.5"/>
<text text-anchor="start" x="342.5" y="-388.5" font-family="Helvetica,sans-Serif" font-size="10.00">AssignCounterLRTValues</text>
<text text-anchor="middle" x="403" y="-377.5" font-family="Helvetica,sans-Serif" font-size="10.00">::ComputeLRT</text>
</a>
</g>
</g>
<!-- Node1&#45;&gt;Node6 -->
<g id="edge5_Node000001_Node000006" class="edge">
<title>Node1&#45;&gt;Node6</title>
<g id="a_edge5_Node000001_Node000006"><a xlink:title=" ">
<path fill="none" stroke="#63b8ff" d="M257.34,-250.9C266.89,-279.31 288.51,-332.04 325,-361.5 329.25,-364.93 333.99,-367.87 338.98,-370.4"/>
<polygon fill="#63b8ff" stroke="#63b8ff" points="260.65,-249.76 254.27,-241.3 253.99,-251.89 260.65,-249.76"/>
</a>
</g>
</g>
<!-- Node7 -->
<g id="Node000007" class="node">
<title>Node7</title>
<g id="a_Node000007"><a xlink:href="class_b_f_n_1_1_setup_action_properties.html" target="_top" xlink:title=" ">
<polygon fill="white" stroke="#666666" points="478.5,-352 327.5,-352 327.5,-333 478.5,-333 478.5,-352"/>
<text text-anchor="middle" x="403" y="-340" font-family="Helvetica,sans-Serif" font-size="10.00">BFN::SetupActionProperties</text>
</a>
</g>
</g>
<!-- Node1&#45;&gt;Node7 -->
<g id="edge6_Node000001_Node000007" class="edge">
<title>Node1&#45;&gt;Node7</title>
<g id="a_edge6_Node000001_Node000007"><a xlink:title=" ">
<path fill="none" stroke="#63b8ff" d="M261.17,-250.21C273.19,-271.57 295.76,-305.93 325,-324.5 330.33,-327.89 336.23,-330.64 342.33,-332.87"/>
<polygon fill="#63b8ff" stroke="#63b8ff" points="264.1,-248.29 256.26,-241.16 257.95,-251.62 264.1,-248.29"/>
</a>
</g>
</g>
<!-- Node8 -->
<g id="Node000008" class="node">
<title>Node8</title>
<g id="a_Node000008"><a xlink:href="class_check_stateful_alu.html" target="_top" xlink:title=" ">
<polygon fill="white" stroke="#666666" points="453.5,-315 352.5,-315 352.5,-296 453.5,-296 453.5,-315"/>
<text text-anchor="middle" x="403" y="-303" font-family="Helvetica,sans-Serif" font-size="10.00">CheckStatefulAlu</text>
</a>
</g>
</g>
<!-- Node1&#45;&gt;Node8 -->
<g id="edge7_Node000001_Node000008" class="edge">
<title>Node1&#45;&gt;Node8</title>
<g id="a_edge7_Node000001_Node000008"><a xlink:title=" ">
<path fill="none" stroke="#63b8ff" d="M268.97,-248.24C283.04,-260.83 303.89,-277.55 325,-287.5 333.57,-291.54 343.11,-294.71 352.48,-297.18"/>
<polygon fill="#63b8ff" stroke="#63b8ff" points="271.25,-245.59 261.52,-241.39 266.51,-250.74 271.25,-245.59"/>
</a>
</g>
</g>
<!-- Node9 -->
<g id="Node000009" class="node">
<title>Node9</title>
<g id="a_Node000009"><a xlink:href="class_do_table_layout.html" target="_top" xlink:title=" ">
<polygon fill="white" stroke="#666666" points="447.5,-278 358.5,-278 358.5,-259 447.5,-259 447.5,-278"/>
<text text-anchor="middle" x="403" y="-266" font-family="Helvetica,sans-Serif" font-size="10.00">DoTableLayout</text>
</a>
</g>
</g>
<!-- Node1&#45;&gt;Node9 -->
<g id="edge8_Node000001_Node000009" class="edge">
<title>Node1&#45;&gt;Node9</title>
<g id="a_edge8_Node000001_Node000009"><a xlink:title=" ">
<path fill="none" stroke="#63b8ff" d="M297.42,-243.55C306.55,-245.89 316.07,-248.3 325,-250.5 336.46,-253.32 348.92,-256.28 360.4,-258.96"/>
<polygon fill="#63b8ff" stroke="#63b8ff" points="298.28,-240.15 287.72,-241.04 296.53,-246.93 298.28,-240.15"/>
</a>
</g>
</g>
<!-- Node10 -->
<g id="Node000010" class="node">
<title>Node10</title>
<g id="a_Node000010"><a xlink:href="class_gateway_range_match.html" target="_top" xlink:title=" ">
<polygon fill="white" stroke="#bfbfbf" points="463.5,-241 342.5,-241 342.5,-222 463.5,-222 463.5,-241"/>
<text text-anchor="middle" x="403" y="-229" font-family="Helvetica,sans-Serif" font-size="10.00">GatewayRangeMatch</text>
</a>
</g>
</g>
<!-- Node1&#45;&gt;Node10 -->
<g id="edge9_Node000001_Node000010" class="edge">
<title>Node1&#45;&gt;Node10</title>
<g id="a_edge9_Node000001_Node000010"><a xlink:title=" ">
<path fill="none" stroke="#63b8ff" d="M299.25,-231.5C312.95,-231.5 328.05,-231.5 342.37,-231.5"/>
<polygon fill="#63b8ff" stroke="#63b8ff" points="299.09,-228 289.09,-231.5 299.09,-235 299.09,-228"/>
</a>
</g>
</g>
<!-- Node11 -->
<g id="Node000011" class="node">
<title>Node11</title>
<g id="a_Node000011"><a xlink:href="class_i_x_bar_verify.html" target="_top" xlink:title=" ">
<polygon fill="white" stroke="#bfbfbf" points="438.5,-204 367.5,-204 367.5,-185 438.5,-185 438.5,-204"/>
<text text-anchor="middle" x="403" y="-192" font-family="Helvetica,sans-Serif" font-size="10.00">IXBarVerify</text>
</a>
</g>
</g>
<!-- Node1&#45;&gt;Node11 -->
<g id="edge10_Node000001_Node000011" class="edge">
<title>Node1&#45;&gt;Node11</title>
<g id="a_edge10_Node000001_Node000011"><a xlink:title=" ">
<path fill="none" stroke="#63b8ff" d="M297.42,-219.45C306.55,-217.11 316.07,-214.7 325,-212.5 338.86,-209.09 354.17,-205.48 367.46,-202.39"/>
<polygon fill="#63b8ff" stroke="#63b8ff" points="296.53,-216.07 287.72,-221.96 298.28,-222.85 296.53,-216.07"/>
</a>
</g>
</g>
<!-- Node12 -->
<g id="Node000012" class="node">
<title>Node12</title>
<g id="a_Node000012"><a xlink:href="class_nullify_all_stateful_call_prim.html" target="_top" xlink:title=" ">
<polygon fill="white" stroke="#bfbfbf" points="473,-167 333,-167 333,-148 473,-148 473,-167"/>
<text text-anchor="middle" x="403" y="-155" font-family="Helvetica,sans-Serif" font-size="10.00">NullifyAllStatefulCallPrim</text>
</a>
</g>
</g>
<!-- Node1&#45;&gt;Node12 -->
<g id="edge11_Node000001_Node000012" class="edge">
<title>Node1&#45;&gt;Node12</title>
<g id="a_edge11_Node000001_Node000012"><a xlink:title=" ">
<path fill="none" stroke="#63b8ff" d="M268.97,-214.76C283.04,-202.17 303.89,-185.45 325,-175.5 332.2,-172.11 340.09,-169.33 347.99,-167.06"/>
<polygon fill="#63b8ff" stroke="#63b8ff" points="266.51,-212.26 261.52,-221.61 271.25,-217.41 266.51,-212.26"/>
</a>
</g>
</g>
<!-- Node13 -->
<g id="Node000013" class="node">
<title>Node13</title>
<g id="a_Node000013"><a xlink:href="class_rewrite_reduction_or.html" target="_top" xlink:title=" ">
<polygon fill="white" stroke="#bfbfbf" points="460,-130 346,-130 346,-111 460,-111 460,-130"/>
<text text-anchor="middle" x="403" y="-118" font-family="Helvetica,sans-Serif" font-size="10.00">RewriteReductionOr</text>
</a>
</g>
</g>
<!-- Node1&#45;&gt;Node13 -->
<g id="edge12_Node000001_Node000013" class="edge">
<title>Node1&#45;&gt;Node13</title>
<g id="a_edge12_Node000001_Node000013"><a xlink:title=" ">
<path fill="none" stroke="#63b8ff" d="M261.17,-212.79C273.19,-191.43 295.76,-157.07 325,-138.5 331.37,-134.45 338.56,-131.31 345.92,-128.88"/>
<polygon fill="#63b8ff" stroke="#63b8ff" points="257.95,-211.38 256.26,-221.84 264.1,-214.71 257.95,-211.38"/>
</a>
</g>
</g>
<!-- Node14 -->
<g id="Node000014" class="node">
<title>Node14</title>
<g id="a_Node000014"><a xlink:href="class_static_entries_const_prop.html" target="_top" xlink:title=" ">
<polygon fill="white" stroke="#bfbfbf" points="467,-93 339,-93 339,-74 467,-74 467,-93"/>
<text text-anchor="middle" x="403" y="-81" font-family="Helvetica,sans-Serif" font-size="10.00">StaticEntriesConstProp</text>
</a>
</g>
</g>
<!-- Node1&#45;&gt;Node14 -->
<g id="edge13_Node000001_Node000014" class="edge">
<title>Node1&#45;&gt;Node14</title>
<g id="a_edge13_Node000001_Node000014"><a xlink:title=" ">
<path fill="none" stroke="#63b8ff" d="M256.94,-212.18C266.07,-183.43 287.28,-129.76 325,-101.5 329.5,-98.13 334.54,-95.37 339.82,-93.12"/>
<polygon fill="#63b8ff" stroke="#63b8ff" points="253.55,-211.29 254.02,-221.87 260.26,-213.3 253.55,-211.29"/>
</a>
</g>
</g>
<!-- Node15 -->
<g id="Node000015" class="node">
<title>Node15</title>
<g id="a_Node000015"><a xlink:href="class_table_find_seq_dependencies.html" target="_top" xlink:title=" ">
<polygon fill="white" stroke="#bfbfbf" points="477.5,-56 328.5,-56 328.5,-37 477.5,-37 477.5,-56"/>
<text text-anchor="middle" x="403" y="-44" font-family="Helvetica,sans-Serif" font-size="10.00">TableFindSeqDependencies</text>
</a>
</g>
</g>
<!-- Node1&#45;&gt;Node15 -->
<g id="edge14_Node000001_Node000015" class="edge">
<title>Node1&#45;&gt;Node15</title>
<g id="a_edge14_Node000001_Node000015"><a xlink:title=" ">
<path fill="none" stroke="#63b8ff" d="M254.36,-211.81C260.56,-176.62 278.6,-103.03 325,-64.5 329.12,-61.08 333.77,-58.28 338.7,-56"/>
<polygon fill="#63b8ff" stroke="#63b8ff" points="250.89,-211.36 252.75,-221.79 257.8,-212.48 250.89,-211.36"/>
</a>
</g>
</g>
<!-- Node16 -->
<g id="Node000016" class="node">
<title>Node16</title>
<g id="a_Node000016"><a xlink:href="class_ternary_match_key_constraints.html" target="_top" xlink:title=" ">
<polygon fill="white" stroke="#666666" points="481,-19 325,-19 325,0 481,0 481,-19"/>
<text text-anchor="middle" x="403" y="-7" font-family="Helvetica,sans-Serif" font-size="10.00">TernaryMatchKeyConstraints</text>
</a>
</g>
</g>
<!-- Node1&#45;&gt;Node16 -->
<g id="edge15_Node000001_Node000016" class="edge">
<title>Node1&#45;&gt;Node16</title>
<g id="a_edge15_Node000001_Node000016"><a xlink:title=" ">
<path fill="none" stroke="#63b8ff" d="M252.61,-211.55C256.01,-170.58 269.74,-76.69 325,-27.5 328.79,-24.12 333.1,-21.35 337.69,-19.07"/>
<polygon fill="#63b8ff" stroke="#63b8ff" points="249.11,-211.4 251.9,-221.62 256.09,-211.89 249.11,-211.4"/>
</a>
</g>
</g>
<!-- Node2 -->
<g id="Node000002" class="node">
<title>Node2</title>
<g id="a_Node000002"><a xlink:href="class_p4_1_1_modifier.html" target="_top" xlink:title=" ">
<polygon fill="white" stroke="#bfbfbf" points="176,-241 102,-241 102,-222 176,-222 176,-241"/>
<text text-anchor="middle" x="139" y="-229" font-family="Helvetica,sans-Serif" font-size="10.00">P4::Modifier</text>
</a>
</g>
</g>
<!-- Node2&#45;&gt;Node1 -->
<g id="edge1_Node000001_Node000002" class="edge">
<title>Node2&#45;&gt;Node1</title>
<g id="a_edge1_Node000001_Node000002"><a xlink:title=" ">
<path fill="none" stroke="#63b8ff" d="M186.35,-231.5C194.87,-231.5 203.66,-231.5 211.88,-231.5"/>
<polygon fill="#63b8ff" stroke="#63b8ff" points="186.16,-228 176.16,-231.5 186.16,-235 186.16,-228"/>
</a>
</g>
</g>
<!-- Node3 -->
<g id="Node000003" class="node">
<title>Node3</title>
<g id="a_Node000003"><a xlink:href="class_p4_1_1_visitor.html" target="_top" xlink:title=" ">
<polygon fill="white" stroke="#bfbfbf" points="66,-241 0,-241 0,-222 66,-222 66,-241"/>
<text text-anchor="middle" x="33" y="-229" font-family="Helvetica,sans-Serif" font-size="10.00">P4::Visitor</text>
</a>
</g>
</g>
<!-- Node3&#45;&gt;Node2 -->
<g id="edge2_Node000002_Node000003" class="edge">
<title>Node3&#45;&gt;Node2</title>
<g id="a_edge2_Node000002_Node000003"><a xlink:title=" ">
<path fill="none" stroke="#63b8ff" d="M76.2,-231.5C84.71,-231.5 93.59,-231.5 101.88,-231.5"/>
<polygon fill="#63b8ff" stroke="#63b8ff" points="76.05,-228 66.05,-231.5 76.05,-235 76.05,-228"/>
</a>
</g>
</g>
</g>
</svg>

<g id="navigator" transform="translate(0 0)" fill="#404254">
  <rect fill="#f2f5e9" fill-opacity="0.5" stroke="#606060" stroke-width=".5" x="0" y="0" width="60" height="60"/>
  <use id="zoomplus" xlink:href="#zoomPlus" x="17" y="9" onmousedown="handleZoom(evt,'in')"/>
  <use id="zoomminus" xlink:href="#zoomMin" x="42" y="9" onmousedown="handleZoom(evt,'out')"/>
  <use id="reset" xlink:href="#resetDef" x="30" y="36" onmousedown="handleReset()"/>
   <use id="arrowup" xlink:href="#arrowUp" x="0" y="0" onmousedown="handlePan(0,-1)"/>
  <use id="arrowright" xlink:href="#arrowRight" x="0" y="0" onmousedown="handlePan(1,0)"/>
  <use id="arrowdown" xlink:href="#arrowDown" x="0" y="0" onmousedown="handlePan(0,1)"/>
  <use id="arrowleft" xlink:href="#arrowLeft" x="0" y="0" onmousedown="handlePan(-1,0)"/>
</g>
<svg viewBox="0 0 15 15" width="100%" height="30px" preserveAspectRatio="xMaxYMin meet">
 <g id="arrow_out" transform="scale(0.3 0.3)">
  <a xlink:href="class_mau_modifier__inherit__graph_org.svg" target="_base">
   <rect id="button" ry="5" rx="5" y="6" x="6" height="38" width="38"
        fill="#f2f5e9" fill-opacity="0.5" stroke="#606060" stroke-width="1.0"/>
   <path id="arrow"
     d="M 11.500037,31.436501 C 11.940474,20.09759 22.043105,11.32322 32.158766,21.979434 L 37.068811,17.246167 C 37.068811,17.246167 37.088388,32 37.088388,32 L 22.160133,31.978069 C 22.160133,31.978069 26.997745,27.140456 26.997745,27.140456 C 18.528582,18.264221 13.291696,25.230495 11.500037,31.436501 z"
     style="fill:#404040;"/>
  </a>
 </g>
</svg>

<style type='text/css'>
<![CDATA[
[data-mouse-over-selected='false'] { opacity: 0.7; }
[data-mouse-over-selected='true']  { opacity: 1.0; }
]]>
</style>
<script type="application/ecmascript"><![CDATA[
document.addEventListener('DOMContentLoaded', (event) => {
  highlightEdges();
  highlightAdjacentNodes();
});
]]></script>
</svg>
