<?xml version="1.0" encoding="UTF-8" standalone="no"?>
<!DOCTYPE svg PUBLIC "-//W3C//DTD SVG 1.1//EN"
 "http://www.w3.org/Graphics/SVG/1.1/DTD/svg11.dtd">
<!-- Generated by graphviz version 2.43.0 (0)
 -->
<!-- Title: BuildMutex Pages: 1 -->
<svg width="432pt" height="203pt"
 viewBox="0.00 0.00 432.00 203.00" xmlns="http://www.w3.org/2000/svg" xmlns:xlink="http://www.w3.org/1999/xlink">
<g id="graph0" class="graph" transform="scale(1 1) rotate(0) translate(4 199)">
<title>BuildMutex</title>
<!-- Node1 -->
<g id="Node000001" class="node">
<title>Node1</title>
<g id="a_Node000001"><a xlink:title=" ">
<polygon fill="#999999" stroke="#666666" points="269,-85 197,-85 197,-66 269,-66 269,-85"/>
<text text-anchor="middle" x="233" y="-73" font-family="Helvetica,sans-Serif" font-size="10.00">BuildMutex</text>
</a>
</g>
</g>
<!-- Node5 -->
<g id="Node000005" class="node">
<title>Node5</title>
<g id="a_Node000005"><a xlink:href="class_add_parser_headers_to_header_mutex_matrix.html" target="_top" xlink:title="Collect every header encountered in the parser and insert them into HeaderInfo. Addtionally,...">
<polygon fill="white" stroke="#666666" points="152,-30 0,-30 0,0 152,0 152,-30"/>
<text text-anchor="start" x="8" y="-18" font-family="Helvetica,sans-Serif" font-size="10.00">AddParserHeadersToHeader</text>
<text text-anchor="middle" x="76" y="-7" font-family="Helvetica,sans-Serif" font-size="10.00">MutexMatrix</text>
</a>
</g>
</g>
<!-- Node1&#45;&gt;Node5 -->
<g id="edge5_Node000001_Node000005" class="edge">
<title>Node1&#45;&gt;Node5</title>
<g id="a_edge5_Node000001_Node000005"><a xlink:title=" ">
<path fill="none" stroke="#63b8ff" d="M200.68,-62.46C175.43,-53.05 140.29,-39.95 113.75,-30.06"/>
<polygon fill="#63b8ff" stroke="#63b8ff" points="199.58,-65.78 210.17,-65.99 202.02,-59.22 199.58,-65.78"/>
</a>
</g>
</g>
<!-- Node6 -->
<g id="Node000006" class="node">
<title>Node6</title>
<g id="a_Node000006"><a xlink:href="class_build_metadata_overlay.html" target="_top" xlink:title=" ">
<polygon fill="white" stroke="#bfbfbf" points="296,-24.5 170,-24.5 170,-5.5 296,-5.5 296,-24.5"/>
<text text-anchor="middle" x="233" y="-12.5" font-family="Helvetica,sans-Serif" font-size="10.00">BuildMetadataOverlay</text>
</a>
</g>
</g>
<!-- Node1&#45;&gt;Node6 -->
<g id="edge6_Node000001_Node000006" class="edge">
<title>Node1&#45;&gt;Node6</title>
<g id="a_edge6_Node000001_Node000006"><a xlink:title=" ">
<path fill="none" stroke="#63b8ff" d="M233,-55.66C233,-45.24 233,-32.8 233,-24.67"/>
<polygon fill="#63b8ff" stroke="#63b8ff" points="229.5,-55.87 233,-65.87 236.5,-55.87 229.5,-55.87"/>
</a>
</g>
</g>
<!-- Node7 -->
<g id="Node000007" class="node">
<title>Node7</title>
<g id="a_Node000007"><a xlink:href="class_build_parser_overlay.html" target="_top" xlink:title=" ">
<polygon fill="white" stroke="#bfbfbf" points="424,-24.5 314,-24.5 314,-5.5 424,-5.5 424,-24.5"/>
<text text-anchor="middle" x="369" y="-12.5" font-family="Helvetica,sans-Serif" font-size="10.00">BuildParserOverlay</text>
</a>
</g>
</g>
<!-- Node1&#45;&gt;Node7 -->
<g id="edge7_Node000001_Node000007" class="edge">
<title>Node1&#45;&gt;Node7</title>
<g id="a_edge7_Node000001_Node000007"><a xlink:title=" ">
<path fill="none" stroke="#63b8ff" d="M262.22,-61.93C288.48,-50.64 326.33,-34.36 349.2,-24.52"/>
<polygon fill="#63b8ff" stroke="#63b8ff" points="260.58,-58.83 252.78,-65.99 263.34,-65.26 260.58,-58.83"/>
</a>
</g>
</g>
<!-- Node2 -->
<g id="Node000002" class="node">
<title>Node2</title>
<g id="a_Node000002"><a xlink:href="class_p4_1_1_control_flow_visitor.html" target="_top" xlink:title=" ">
<polygon fill="white" stroke="#bfbfbf" points="235.5,-140 110.5,-140 110.5,-121 235.5,-121 235.5,-140"/>
<text text-anchor="middle" x="173" y="-128" font-family="Helvetica,sans-Serif" font-size="10.00">P4::ControlFlowVisitor</text>
</a>
</g>
</g>
<!-- Node2&#45;&gt;Node1 -->
<g id="edge1_Node000001_Node000002" class="edge">
<title>Node2&#45;&gt;Node1</title>
<g id="a_edge1_Node000001_Node000002"><a xlink:title=" ">
<path fill="none" stroke="#63b8ff" d="M190.18,-114.32C200.88,-104.87 214.26,-93.06 223.18,-85.17"/>
<polygon fill="#63b8ff" stroke="#63b8ff" points="187.82,-111.74 182.64,-120.98 192.45,-116.99 187.82,-111.74"/>
</a>
</g>
</g>
<!-- Node3 -->
<g id="Node000003" class="node">
<title>Node3</title>
<g id="a_Node000003"><a xlink:href="class_p4_1_1_visitor.html" target="_top" xlink:title=" ">
<polygon fill="white" stroke="#bfbfbf" points="266,-195 200,-195 200,-176 266,-176 266,-195"/>
<text text-anchor="middle" x="233" y="-183" font-family="Helvetica,sans-Serif" font-size="10.00">P4::Visitor</text>
</a>
</g>
</g>
<!-- Node3&#45;&gt;Node2 -->
<g id="edge2_Node000002_Node000003" class="edge">
<title>Node3&#45;&gt;Node2</title>
<g id="a_edge2_Node000002_Node000003"><a xlink:title=" ">
<path fill="none" stroke="#63b8ff" d="M215.82,-169.32C205.12,-159.87 191.74,-148.06 182.82,-140.17"/>
<polygon fill="#63b8ff" stroke="#63b8ff" points="213.55,-171.99 223.36,-175.98 218.18,-166.74 213.55,-171.99"/>
</a>
</g>
</g>
<!-- Node4 -->
<g id="Node000004" class="node">
<title>Node4</title>
<g id="a_Node000004"><a xlink:href="class_p4_1_1_inspector.html" target="_top" xlink:title=" ">
<polygon fill="white" stroke="#bfbfbf" points="334,-140 254,-140 254,-121 334,-121 334,-140"/>
<text text-anchor="middle" x="294" y="-128" font-family="Helvetica,sans-Serif" font-size="10.00">P4::Inspector</text>
</a>
</g>
</g>
<!-- Node3&#45;&gt;Node4 -->
<g id="edge4_Node000004_Node000003" class="edge">
<title>Node3&#45;&gt;Node4</title>
<g id="a_edge4_Node000004_Node000003"><a xlink:title=" ">
<path fill="none" stroke="#63b8ff" d="M250.47,-169.32C261.34,-159.87 274.94,-148.06 284.02,-140.17"/>
<polygon fill="#63b8ff" stroke="#63b8ff" points="248.05,-166.78 242.8,-175.98 252.65,-172.07 248.05,-166.78"/>
</a>
</g>
</g>
<!-- Node4&#45;&gt;Node1 -->
<g id="edge3_Node000001_Node000004" class="edge">
<title>Node4&#45;&gt;Node1</title>
<g id="a_edge3_Node000001_Node000004"><a xlink:title=" ">
<path fill="none" stroke="#63b8ff" d="M276.53,-114.32C265.66,-104.87 252.06,-93.06 242.98,-85.17"/>
<polygon fill="#63b8ff" stroke="#63b8ff" points="274.35,-117.07 284.2,-120.98 278.95,-111.78 274.35,-117.07"/>
</a>
</g>
</g>
</g>
</svg>
