<?xml version="1.0" encoding="UTF-8" standalone="no"?>
<!DOCTYPE svg PUBLIC "-//W3C//DTD SVG 1.1//EN"
 "http://www.w3.org/Graphics/SVG/1.1/DTD/svg11.dtd">
<!-- Generated by graphviz version 2.43.0 (0)
 -->
<!-- Title: P4::Backtrack Pages: 1 -->
<!--zoomable 1543 -->

<svg id="main" version="1.1" xmlns="http://www.w3.org/2000/svg" xmlns:xlink="http://www.w3.org/1999/xlink" xml:space="preserve" onload="init(evt)">

<style type="text/css"><![CDATA[
.node, .edge {opacity: 0.7;}
.node.selected, .edge.selected {opacity: 1;}
.edge:hover path { stroke: red; }
.edge:hover polygon { stroke: red; fill: red; }
]]></style>

<defs>
  <circle id="rim" cx="0" cy="0" r="7"/>
  <circle id="rim2" cx="0" cy="0" r="3.5"/>
  <g id="zoomPlus">
    <use xlink:href="#rim" fill="#404040"><set attributeName="fill" to="#808080" begin="zoomplus.mouseover" end="zoomplus.mouseout"/></use>
    <path d="M-4,0h8M0,-4v8" fill="none" stroke="white" stroke-width="1.5" pointer-events="none"/>
  </g>
  <g id="zoomMin">
    <use xlink:href="#rim" fill="#404040"><set attributeName="fill" to="#808080" begin="zoomminus.mouseover" end="zoomminus.mouseout"/></use>
    <path d="M-4,0h8" fill="none" stroke="white" stroke-width="1.5" pointer-events="none"/>
  </g>
  <g id="arrowUp" transform="translate(30 24)">
    <use xlink:href="#rim"/>
    <path pointer-events="none" fill="none" stroke="white" stroke-width="1.5" d="M0,-3.0v7 M-2.5,-0.5L0,-3.0L2.5,-0.5"/>
  </g>
  <g id="arrowRight" transform="rotate(90) translate(36 -43)">
    <use xlink:href="#rim"/>
    <path pointer-events="none" fill="none" stroke="white" stroke-width="1.5" d="M0,-3.0v7 M-2.5,-0.5L0,-3.0L2.5,-0.5"/>
  </g>
  <g id="arrowDown" transform="rotate(180) translate(-30 -48)">
    <use xlink:href="#rim"/>
    <path pointer-events="none" fill="none" stroke="white" stroke-width="1.5" d="M0,-3.0v7 M-2.5,-0.5L0,-3.0L2.5,-0.5"/>
  </g>
  <g id="arrowLeft" transform="rotate(270) translate(-36 17)">
    <use xlink:href="#rim"/>
    <path pointer-events="none" fill="none" stroke="white" stroke-width="1.5" d="M0,-3.0v7 M-2.5,-0.5L0,-3.0L2.5,-0.5"/>
  </g>
  <g id="resetDef">
    <use xlink:href="#rim2" fill="#404040"><set attributeName="fill" to="#808080" begin="reset.mouseover" end="reset.mouseout"/></use>
  </g>
</defs>
<script type="application/ecmascript">
var viewWidth = 591;
var viewHeight = 1543;
var sectionId = 'dynsection-0';
</script>
<script type="application/ecmascript" xlink:href="svg.min.js"/>
<svg id="graph" class="graph">
<g id="viewport">
<title>P4::Backtrack</title>
<!-- Node1 -->
<g id="Node000001" class="node">
<title>Node1</title>
<g id="a_Node000001"><a xlink:title=" ">
<polygon fill="#999999" stroke="#666666" points="185,-850 102,-850 102,-831 185,-831 185,-850"/>
<text text-anchor="middle" x="143.5" y="-838" font-family="Helvetica,sans-Serif" font-size="10.00">P4::Backtrack</text>
</a>
</g>
</g>
<!-- Node3 -->
<g id="Node000003" class="node">
<title>Node3</title>
<g id="a_Node000003"><a xlink:href="class_catch_backtrack.html" target="_top" xlink:title=" ">
<polygon fill="white" stroke="#bfbfbf" points="357,-943 229,-943 229,-924 357,-924 357,-943"/>
<text text-anchor="middle" x="293" y="-931" font-family="Helvetica,sans-Serif" font-size="10.00">CatchBacktrack&lt; BT &gt;</text>
</a>
</g>
</g>
<!-- Node1&#45;&gt;Node3 -->
<g id="edge2_Node000001_Node000003" class="edge">
<title>Node1&#45;&gt;Node3</title>
<g id="a_edge2_Node000001_Node000003"><a xlink:title=" ">
<path fill="none" stroke="#63b8ff" d="M157.96,-858.33C171.88,-875.51 195.18,-900.99 221,-915.5 227.1,-918.93 233.85,-921.71 240.7,-923.97"/>
<polygon fill="#63b8ff" stroke="#63b8ff" points="160.5,-855.9 151.57,-850.2 155,-860.22 160.5,-855.9"/>
</a>
</g>
</g>
<!-- Node4 -->
<g id="Node000004" class="node">
<title>Node4</title>
<g id="a_Node000004"><a xlink:href="class_do_table_layout.html" target="_top" xlink:title=" ">
<polygon fill="white" stroke="#666666" points="337.5,-906 248.5,-906 248.5,-887 337.5,-887 337.5,-906"/>
<text text-anchor="middle" x="293" y="-894" font-family="Helvetica,sans-Serif" font-size="10.00">DoTableLayout</text>
</a>
</g>
</g>
<!-- Node1&#45;&gt;Node4 -->
<g id="edge3_Node000001_Node000004" class="edge">
<title>Node1&#45;&gt;Node4</title>
<g id="a_edge3_Node000001_Node000004"><a xlink:title=" ">
<path fill="none" stroke="#8b1a1a" d="M169.98,-854.86C184.57,-862.66 203.43,-871.99 221,-878.5 229.71,-881.72 239.22,-884.57 248.37,-887"/>
<polygon fill="#8b1a1a" stroke="#8b1a1a" points="171.51,-851.72 161.06,-850.01 168.17,-857.87 171.51,-851.72"/>
</a>
</g>
</g>
<!-- Node5 -->
<g id="Node000005" class="node">
<title>Node5</title>
<g id="a_Node000005"><a xlink:href="class_mau_backtracker.html" target="_top" xlink:title=" ">
<polygon fill="white" stroke="#666666" points="340.5,-869 245.5,-869 245.5,-850 340.5,-850 340.5,-869"/>
<text text-anchor="middle" x="293" y="-857" font-family="Helvetica,sans-Serif" font-size="10.00">MauBacktracker</text>
</a>
</g>
</g>
<!-- Node1&#45;&gt;Node5 -->
<g id="edge4_Node000001_Node000005" class="edge">
<title>Node1&#45;&gt;Node5</title>
<g id="a_edge4_Node000001_Node000005"><a xlink:title=" ">
<path fill="none" stroke="#63b8ff" d="M195.57,-847.08C211.77,-849.17 229.58,-851.46 245.45,-853.5"/>
<polygon fill="#63b8ff" stroke="#63b8ff" points="195.56,-843.55 185.2,-845.74 194.67,-850.49 195.56,-843.55"/>
</a>
</g>
</g>
<!-- Node6 -->
<g id="Node000006" class="node">
<title>Node6</title>
<g id="a_Node000006"><a xlink:href="class_p4_1_1_on_backtrack.html" target="_top" xlink:title=" ">
<polygon fill="white" stroke="#bfbfbf" points="355.5,-832 230.5,-832 230.5,-813 355.5,-813 355.5,-832"/>
<text text-anchor="middle" x="293" y="-820" font-family="Helvetica,sans-Serif" font-size="10.00">P4::OnBacktrack&lt; T &gt;</text>
</a>
</g>
</g>
<!-- Node1&#45;&gt;Node6 -->
<g id="edge5_Node000001_Node000006" class="edge">
<title>Node1&#45;&gt;Node6</title>
<g id="a_edge5_Node000001_Node000006"><a xlink:title=" ">
<path fill="none" stroke="#63b8ff" d="M195.32,-834.3C206.63,-832.92 218.74,-831.44 230.43,-830.01"/>
<polygon fill="#63b8ff" stroke="#63b8ff" points="194.7,-830.85 185.2,-835.53 195.55,-837.8 194.7,-830.85"/>
</a>
</g>
</g>
<!-- Node7 -->
<g id="Node000007" class="node">
<title>Node7</title>
<g id="a_Node000007"><a xlink:href="class_p4_1_1_pass_manager.html" target="_top" xlink:title=" ">
<polygon fill="white" stroke="orangered" points="342.5,-795 243.5,-795 243.5,-776 342.5,-776 342.5,-795"/>
<text text-anchor="middle" x="293" y="-783" font-family="Helvetica,sans-Serif" font-size="10.00">P4::PassManager</text>
</a>
</g>
</g>
<!-- Node1&#45;&gt;Node7 -->
<g id="edge6_Node000001_Node000007" class="edge">
<title>Node1&#45;&gt;Node7</title>
<g id="a_edge6_Node000001_Node000007"><a xlink:title=" ">
<path fill="none" stroke="#63b8ff" d="M170.59,-826.25C185.12,-818.74 203.72,-809.8 221,-803.5 229.72,-800.32 239.24,-797.49 248.4,-795.07"/>
<polygon fill="#63b8ff" stroke="#63b8ff" points="168.9,-823.19 161.69,-830.94 172.17,-829.38 168.9,-823.19"/>
</a>
</g>
</g>
<!-- Node274 -->
<g id="Node000274" class="node">
<title>Node274</title>
<g id="a_Node000274"><a xlink:href="class_spread_gateway_across_seq.html" target="_top" xlink:title=" ">
<polygon fill="white" stroke="#bfbfbf" points="365,-758 221,-758 221,-739 365,-739 365,-758"/>
<text text-anchor="middle" x="293" y="-746" font-family="Helvetica,sans-Serif" font-size="10.00">SpreadGatewayAcrossSeq</text>
</a>
</g>
</g>
<!-- Node1&#45;&gt;Node274 -->
<g id="edge48_Node000001_Node000274" class="edge">
<title>Node1&#45;&gt;Node274</title>
<g id="a_edge48_Node000001_Node000274"><a xlink:title=" ">
<path fill="none" stroke="#63b8ff" d="M158.01,-822.92C171.97,-805.96 195.3,-780.83 221,-766.5 227.11,-763.09 233.87,-760.32 240.72,-758.07"/>
<polygon fill="#63b8ff" stroke="#63b8ff" points="155.11,-820.94 151.6,-830.94 160.58,-825.31 155.11,-820.94"/>
</a>
</g>
</g>
<!-- Node2 -->
<g id="Node000002" class="node">
<title>Node2</title>
<g id="a_Node000002"><a xlink:href="class_p4_1_1_visitor.html" target="_top" xlink:title=" ">
<polygon fill="white" stroke="#bfbfbf" points="66,-850 0,-850 0,-831 66,-831 66,-850"/>
<text text-anchor="middle" x="33" y="-838" font-family="Helvetica,sans-Serif" font-size="10.00">P4::Visitor</text>
</a>
</g>
</g>
<!-- Node2&#45;&gt;Node1 -->
<g id="edge1_Node000001_Node000002" class="edge">
<title>Node2&#45;&gt;Node1</title>
<g id="a_edge1_Node000001_Node000002"><a xlink:title=" ">
<path fill="none" stroke="#63b8ff" d="M76.49,-840.5C84.78,-840.5 93.46,-840.5 101.69,-840.5"/>
<polygon fill="#63b8ff" stroke="#63b8ff" points="76.26,-837 66.26,-840.5 76.26,-844 76.26,-837"/>
</a>
</g>
</g>
<!-- Node8 -->
<g id="Node000008" class="node">
<title>Node8</title>
<g id="a_Node000008"><a xlink:href="class_add_always_run.html" target="_top" xlink:title=" ">
<polygon fill="white" stroke="#666666" points="536.5,-1535 447.5,-1535 447.5,-1516 536.5,-1516 536.5,-1535"/>
<text text-anchor="middle" x="492" y="-1523" font-family="Helvetica,sans-Serif" font-size="10.00">AddAlwaysRun</text>
</a>
</g>
</g>
<!-- Node7&#45;&gt;Node8 -->
<g id="edge7_Node000007_Node000008" class="edge">
<title>Node7&#45;&gt;Node8</title>
<g id="a_edge7_Node000007_Node000008"><a xlink:title=" ">
<path fill="none" stroke="#63b8ff" d="M352,-793.12C356.95,-795.74 361.42,-799.14 365,-803.5 464.33,-924.63 298.62,-1388.93 401,-1507.5 412.35,-1520.65 430.35,-1525.86 447.28,-1527.51"/>
<polygon fill="#63b8ff" stroke="#63b8ff" points="353.25,-789.85 342.68,-789.18 350.52,-796.29 353.25,-789.85"/>
</a>
</g>
</g>
<!-- Node9 -->
<g id="Node000009" class="node">
<title>Node9</title>
<g id="a_Node000009"><a xlink:href="class_add_inits_in_m_a_u.html" target="_top" xlink:title=" ">
<polygon fill="white" stroke="#bfbfbf" points="536.5,-1498 447.5,-1498 447.5,-1479 536.5,-1479 536.5,-1498"/>
<text text-anchor="middle" x="492" y="-1486" font-family="Helvetica,sans-Serif" font-size="10.00">AddInitsInMAU</text>
</a>
</g>
</g>
<!-- Node7&#45;&gt;Node9 -->
<g id="edge8_Node000007_Node000009" class="edge">
<title>Node7&#45;&gt;Node9</title>
<g id="a_edge8_Node000007_Node000009"><a xlink:title=" ">
<path fill="none" stroke="#63b8ff" d="M351.99,-793.13C356.94,-795.75 361.42,-799.14 365,-803.5 459.28,-918.15 303.83,-1358.29 401,-1470.5 412.37,-1483.63 430.37,-1488.84 447.3,-1490.5"/>
<polygon fill="#63b8ff" stroke="#63b8ff" points="353.23,-789.86 342.66,-789.19 350.51,-796.3 353.23,-789.86"/>
</a>
</g>
</g>
<!-- Node10 -->
<g id="Node000010" class="node">
<title>Node10</title>
<g id="a_Node000010"><a xlink:href="class_add_selector_salu.html" target="_top" xlink:title=" ">
<polygon fill="white" stroke="#666666" points="540,-1461 444,-1461 444,-1442 540,-1442 540,-1461"/>
<text text-anchor="middle" x="492" y="-1449" font-family="Helvetica,sans-Serif" font-size="10.00">AddSelectorSalu</text>
</a>
</g>
</g>
<!-- Node7&#45;&gt;Node10 -->
<g id="edge9_Node000007_Node000010" class="edge">
<title>Node7&#45;&gt;Node10</title>
<g id="a_edge9_Node000007_Node000010"><a xlink:title=" ">
<path fill="none" stroke="#63b8ff" d="M351.98,-793.14C356.93,-795.76 361.41,-799.15 365,-803.5 454.24,-911.67 309.04,-1327.64 401,-1433.5 411.55,-1445.65 427.79,-1451.01 443.58,-1453.06"/>
<polygon fill="#63b8ff" stroke="#63b8ff" points="353.22,-789.87 342.64,-789.2 350.5,-796.32 353.22,-789.87"/>
</a>
</g>
</g>
<!-- Node11 -->
<g id="Node000011" class="node">
<title>Node11</title>
<g id="a_Node000011"><a xlink:href="class_add_slice_initialization.html" target="_top" xlink:title=" ">
<polygon fill="white" stroke="#666666" points="551.5,-1424 432.5,-1424 432.5,-1405 551.5,-1405 551.5,-1424"/>
<text text-anchor="middle" x="492" y="-1412" font-family="Helvetica,sans-Serif" font-size="10.00">AddSliceInitialization</text>
</a>
</g>
</g>
<!-- Node7&#45;&gt;Node11 -->
<g id="edge10_Node000007_Node000011" class="edge">
<title>Node7&#45;&gt;Node11</title>
<g id="a_edge10_Node000007_Node000011"><a xlink:title=" ">
<path fill="none" stroke="#63b8ff" d="M351.96,-793.15C356.92,-795.77 361.4,-799.15 365,-803.5 449.2,-905.19 314.24,-1296.99 401,-1396.5 409.06,-1405.75 420.42,-1411.06 432.35,-1413.97"/>
<polygon fill="#63b8ff" stroke="#63b8ff" points="353.2,-789.88 342.62,-789.22 350.48,-796.33 353.2,-789.88"/>
</a>
</g>
</g>
<!-- Node12 -->
<g id="Node000012" class="node">
<title>Node12</title>
<g id="a_Node000012"><a xlink:href="class_allocate_clot.html" target="_top" xlink:title=" ">
<polygon fill="white" stroke="#bfbfbf" points="530,-1387 454,-1387 454,-1368 530,-1368 530,-1387"/>
<text text-anchor="middle" x="492" y="-1375" font-family="Helvetica,sans-Serif" font-size="10.00">AllocateClot</text>
</a>
</g>
</g>
<!-- Node7&#45;&gt;Node12 -->
<g id="edge11_Node000007_Node000012" class="edge">
<title>Node7&#45;&gt;Node12</title>
<g id="a_edge11_Node000007_Node000012"><a xlink:title=" ">
<path fill="none" stroke="#63b8ff" d="M351.94,-793.17C356.9,-795.79 361.39,-799.16 365,-803.5 444.15,-898.71 319.45,-1266.34 401,-1359.5 413.91,-1374.25 435.19,-1378.98 453.82,-1379.91"/>
<polygon fill="#63b8ff" stroke="#63b8ff" points="353.18,-789.89 342.6,-789.24 350.46,-796.34 353.18,-789.89"/>
</a>
</g>
</g>
<!-- Node13 -->
<g id="Node000013" class="node">
<title>Node13</title>
<g id="a_Node000013"><a xlink:href="group___lower_parser_i_r.html#struct_allocate_parser_match_registers" target="_top" xlink:title="This pass performs the parser match register allocation.">
<polygon fill="white" stroke="#666666" points="573,-1350 411,-1350 411,-1331 573,-1331 573,-1350"/>
<text text-anchor="middle" x="492" y="-1338" font-family="Helvetica,sans-Serif" font-size="10.00">AllocateParserMatchRegisters</text>
</a>
</g>
</g>
<!-- Node7&#45;&gt;Node13 -->
<g id="edge12_Node000007_Node000013" class="edge">
<title>Node7&#45;&gt;Node13</title>
<g id="a_edge12_Node000007_Node000013"><a xlink:title=" ">
<path fill="none" stroke="#63b8ff" d="M351.92,-793.19C356.89,-795.8 361.38,-799.17 365,-803.5 439.11,-892.23 324.65,-1235.68 401,-1322.5 403.84,-1325.73 407.08,-1328.48 410.61,-1330.81"/>
<polygon fill="#63b8ff" stroke="#63b8ff" points="353.15,-789.91 342.58,-789.26 350.44,-796.36 353.15,-789.91"/>
</a>
</g>
</g>
<!-- Node14 -->
<g id="Node000014" class="node">
<title>Node14</title>
<g id="a_Node000014"><a xlink:href="class_arith_compare_adjustment.html" target="_top" xlink:title=" ">
<polygon fill="white" stroke="#666666" points="562,-1313 422,-1313 422,-1294 562,-1294 562,-1313"/>
<text text-anchor="middle" x="492" y="-1301" font-family="Helvetica,sans-Serif" font-size="10.00">ArithCompareAdjustment</text>
</a>
</g>
</g>
<!-- Node7&#45;&gt;Node14 -->
<g id="edge13_Node000007_Node000014" class="edge">
<title>Node7&#45;&gt;Node14</title>
<g id="a_edge13_Node000007_Node000014"><a xlink:title=" ">
<path fill="none" stroke="#63b8ff" d="M351.9,-793.21C356.87,-795.81 361.37,-799.18 365,-803.5 434.07,-885.75 329.86,-1205.03 401,-1285.5 406.7,-1291.95 414,-1296.47 421.97,-1299.61"/>
<polygon fill="#63b8ff" stroke="#63b8ff" points="353.12,-789.92 342.55,-789.28 350.42,-796.38 353.12,-789.92"/>
</a>
</g>
</g>
<!-- Node15 -->
<g id="Node000015" class="node">
<title>Node15</title>
<g id="a_Node000015"><a xlink:href="class_assign_action_handle.html" target="_top" xlink:title=" ">
<polygon fill="white" stroke="#666666" points="549,-1276 435,-1276 435,-1257 549,-1257 549,-1276"/>
<text text-anchor="middle" x="492" y="-1264" font-family="Helvetica,sans-Serif" font-size="10.00">AssignActionHandle</text>
</a>
</g>
</g>
<!-- Node7&#45;&gt;Node15 -->
<g id="edge14_Node000007_Node000015" class="edge">
<title>Node7&#45;&gt;Node15</title>
<g id="a_edge14_Node000007_Node000015"><a xlink:title=" ">
<path fill="none" stroke="#63b8ff" d="M351.87,-793.23C356.84,-795.83 361.36,-799.19 365,-803.5 429.04,-879.28 335.06,-1174.38 401,-1248.5 409.68,-1258.26 422.04,-1263.62 434.82,-1266.39"/>
<polygon fill="#63b8ff" stroke="#63b8ff" points="353.09,-789.94 342.52,-789.31 350.39,-796.4 353.09,-789.94"/>
</a>
</g>
</g>
<!-- Node16 -->
<g id="Node000016" class="node">
<title>Node16</title>
<g id="a_Node000016"><a xlink:href="class_assign_counter_l_r_t_values.html" target="_top" xlink:title=" ">
<polygon fill="white" stroke="#666666" points="560.5,-1239 423.5,-1239 423.5,-1220 560.5,-1220 560.5,-1239"/>
<text text-anchor="middle" x="492" y="-1227" font-family="Helvetica,sans-Serif" font-size="10.00">AssignCounterLRTValues</text>
</a>
</g>
</g>
<!-- Node7&#45;&gt;Node16 -->
<g id="edge15_Node000007_Node000016" class="edge">
<title>Node7&#45;&gt;Node16</title>
<g id="a_edge15_Node000007_Node000016"><a xlink:title=" ">
<path fill="none" stroke="#63b8ff" d="M352.05,-793.37C356.95,-795.95 361.39,-799.26 365,-803.5 424,-872.81 340.25,-1143.72 401,-1211.5 407.06,-1218.26 414.89,-1222.91 423.39,-1226.04"/>
<polygon fill="#63b8ff" stroke="#63b8ff" points="353.41,-790.14 342.84,-789.46 350.68,-796.59 353.41,-790.14"/>
</a>
</g>
</g>
<!-- Node17 -->
<g id="Node000017" class="node">
<title>Node17</title>
<g id="a_Node000017"><a xlink:href="class_auto_alias.html" target="_top" xlink:title=" ">
<polygon fill="white" stroke="#bfbfbf" points="523.5,-1202 460.5,-1202 460.5,-1183 523.5,-1183 523.5,-1202"/>
<text text-anchor="middle" x="492" y="-1190" font-family="Helvetica,sans-Serif" font-size="10.00">AutoAlias</text>
</a>
</g>
</g>
<!-- Node7&#45;&gt;Node17 -->
<g id="edge16_Node000007_Node000017" class="edge">
<title>Node7&#45;&gt;Node17</title>
<g id="a_edge16_Node000007_Node000017"><a xlink:title=" ">
<path fill="none" stroke="#63b8ff" d="M352.01,-793.4C356.92,-795.98 361.38,-799.28 365,-803.5 418.97,-866.34 345.45,-1113.06 401,-1174.5 415.64,-1190.69 440.39,-1194.71 460.23,-1194.94"/>
<polygon fill="#63b8ff" stroke="#63b8ff" points="353.37,-790.17 342.79,-789.5 350.64,-796.62 353.37,-790.17"/>
</a>
</g>
</g>
<!-- Node18 -->
<g id="Node000018" class="node">
<title>Node18</title>
<g id="a_Node000018"><a xlink:href="class_b_f_n_1_1_action_function_setup.html" target="_top" xlink:title=" ">
<polygon fill="white" stroke="#666666" points="563.5,-1165 420.5,-1165 420.5,-1146 563.5,-1146 563.5,-1165"/>
<text text-anchor="middle" x="492" y="-1153" font-family="Helvetica,sans-Serif" font-size="10.00">BFN::ActionFunctionSetup</text>
</a>
</g>
</g>
<!-- Node7&#45;&gt;Node18 -->
<g id="edge17_Node000007_Node000018" class="edge">
<title>Node7&#45;&gt;Node18</title>
<g id="a_edge17_Node000007_Node000018"><a xlink:title=" ">
<path fill="none" stroke="#63b8ff" d="M351.97,-793.44C356.88,-796.01 361.35,-799.3 365,-803.5 462.88,-916.24 300.28,-1027.28 401,-1137.5 406.37,-1143.38 413.08,-1147.65 420.4,-1150.72"/>
<polygon fill="#63b8ff" stroke="#63b8ff" points="353.31,-790.21 342.74,-789.55 350.59,-796.66 353.31,-790.21"/>
</a>
</g>
</g>
<!-- Node19 -->
<g id="Node000019" class="node">
<title>Node19</title>
<g id="a_Node000019"><a xlink:href="class_b_f_n_1_1_add_intrinsic_metadata.html" target="_top" xlink:title=" ">
<polygon fill="white" stroke="#bfbfbf" points="565.5,-1128 418.5,-1128 418.5,-1109 565.5,-1109 565.5,-1128"/>
<text text-anchor="middle" x="492" y="-1116" font-family="Helvetica,sans-Serif" font-size="10.00">BFN::AddIntrinsicMetadata</text>
</a>
</g>
</g>
<!-- Node7&#45;&gt;Node19 -->
<g id="edge18_Node000007_Node000019" class="edge">
<title>Node7&#45;&gt;Node19</title>
<g id="a_edge18_Node000007_Node000019"><a xlink:title=" ">
<path fill="none" stroke="#63b8ff" d="M351.91,-793.49C356.83,-796.05 361.33,-799.32 365,-803.5 452.83,-903.33 310.66,-1002.94 401,-1100.5 405.87,-1105.76 411.81,-1109.73 418.29,-1112.7"/>
<polygon fill="#63b8ff" stroke="#63b8ff" points="353.24,-790.25 342.67,-789.61 350.54,-796.71 353.24,-790.25"/>
</a>
</g>
</g>
<!-- Node20 -->
<g id="Node000020" class="node">
<title>Node20</title>
<g id="a_Node000020"><a xlink:href="struct_b_f_n_1_1_add_metadata_parser_states.html" target="_top" xlink:title=" ">
<polygon fill="white" stroke="#666666" points="576.5,-1091 407.5,-1091 407.5,-1072 576.5,-1072 576.5,-1091"/>
<text text-anchor="middle" x="492" y="-1079" font-family="Helvetica,sans-Serif" font-size="10.00">BFN::AddMetadataParserStates</text>
</a>
</g>
</g>
<!-- Node7&#45;&gt;Node20 -->
<g id="edge19_Node000007_Node000020" class="edge">
<title>Node7&#45;&gt;Node20</title>
<g id="a_edge19_Node000007_Node000020"><a xlink:title=" ">
<path fill="none" stroke="#63b8ff" d="M351.84,-793.55C356.77,-796.1 361.29,-799.35 365,-803.5 442.8,-890.43 321.01,-978.58 401,-1063.5 404.06,-1066.75 407.53,-1069.5 411.27,-1071.83"/>
<polygon fill="#63b8ff" stroke="#63b8ff" points="353.15,-790.31 342.58,-789.69 350.46,-796.77 353.15,-790.31"/>
</a>
</g>
</g>
<!-- Node21 -->
<g id="Node000021" class="node">
<title>Node21</title>
<g id="a_Node000021"><a xlink:href="struct_b_f_n_1_1_add_psa_bridge_metadata.html" target="_top" xlink:title=" ">
<polygon fill="white" stroke="#bfbfbf" points="570.5,-1054 413.5,-1054 413.5,-1035 570.5,-1035 570.5,-1054"/>
<text text-anchor="middle" x="492" y="-1042" font-family="Helvetica,sans-Serif" font-size="10.00">BFN::AddPsaBridgeMetadata</text>
</a>
</g>
</g>
<!-- Node7&#45;&gt;Node21 -->
<g id="edge20_Node000007_Node000021" class="edge">
<title>Node7&#45;&gt;Node21</title>
<g id="a_edge20_Node000007_Node000021"><a xlink:title=" ">
<path fill="none" stroke="#63b8ff" d="M352.32,-793.94C357.05,-796.42 361.39,-799.56 365,-803.5 432.79,-877.55 331.35,-954.2 401,-1026.5 404.65,-1030.29 408.85,-1033.4 413.41,-1035.94"/>
<polygon fill="#63b8ff" stroke="#63b8ff" points="353.4,-790.59 342.82,-789.92 350.67,-797.04 353.4,-790.59"/>
</a>
</g>
</g>
<!-- Node22 -->
<g id="Node000022" class="node">
<title>Node22</title>
<g id="a_Node000022"><a xlink:href="struct_b_f_n_1_1_add_tna_bridge_metadata.html" target="_top" xlink:title=" ">
<polygon fill="white" stroke="#bfbfbf" points="571,-1017 413,-1017 413,-998 571,-998 571,-1017"/>
<text text-anchor="middle" x="492" y="-1005" font-family="Helvetica,sans-Serif" font-size="10.00">BFN::AddTnaBridgeMetadata</text>
</a>
</g>
</g>
<!-- Node7&#45;&gt;Node22 -->
<g id="edge21_Node000007_Node000022" class="edge">
<title>Node7&#45;&gt;Node22</title>
<g id="a_edge21_Node000007_Node000022"><a xlink:title=" ">
<path fill="none" stroke="#63b8ff" d="M352.19,-794.06C356.95,-796.52 361.33,-799.61 365,-803.5 422.81,-864.71 341.65,-929.78 401,-989.5 404.48,-993 408.44,-995.92 412.71,-998.35"/>
<polygon fill="#63b8ff" stroke="#63b8ff" points="353.24,-790.7 342.66,-790.07 350.54,-797.16 353.24,-790.7"/>
</a>
</g>
</g>
<!-- Node23 -->
<g id="Node000023" class="node">
<title>Node23</title>
<g id="a_Node000023"><a xlink:href="class_b_f_n_1_1_adjust_byte_count_setup.html" target="_top" xlink:title=" ">
<polygon fill="white" stroke="#bfbfbf" points="568,-980 416,-980 416,-961 568,-961 568,-980"/>
<text text-anchor="middle" x="492" y="-968" font-family="Helvetica,sans-Serif" font-size="10.00">BFN::AdjustByteCountSetup</text>
</a>
</g>
</g>
<!-- Node7&#45;&gt;Node23 -->
<g id="edge22_Node000007_Node000023" class="edge">
<title>Node7&#45;&gt;Node23</title>
<g id="a_edge22_Node000007_Node000023"><a xlink:title=" ">
<path fill="none" stroke="#63b8ff" d="M352.21,-794.34C356.93,-796.75 361.29,-799.75 365,-803.5 412.9,-851.94 351.88,-905.29 401,-952.5 405.37,-956.7 410.42,-960.04 415.86,-962.7"/>
<polygon fill="#63b8ff" stroke="#63b8ff" points="353.37,-791.03 342.8,-790.42 350.68,-797.49 353.37,-791.03"/>
</a>
</g>
</g>
<!-- Node24 -->
<g id="Node000024" class="node">
<title>Node24</title>
<g id="a_Node000024"><a xlink:href="group__alpm.html#class_b_f_n_1_1_alpm_implementation" target="_top" xlink:title="Top level PassManager that governs the ALPM implementation.">
<polygon fill="white" stroke="#666666" points="565,-943 419,-943 419,-924 565,-924 565,-943"/>
<text text-anchor="middle" x="492" y="-931" font-family="Helvetica,sans-Serif" font-size="10.00">BFN::AlpmImplementation</text>
</a>
</g>
</g>
<!-- Node7&#45;&gt;Node24 -->
<g id="edge23_Node000007_Node000024" class="edge">
<title>Node7&#45;&gt;Node24</title>
<g id="a_edge23_Node000007_Node000024"><a xlink:title=" ">
<path fill="none" stroke="#63b8ff" d="M352.14,-794.74C356.83,-797.07 361.22,-799.95 365,-803.5 403.11,-839.29 361.99,-880.69 401,-915.5 406.23,-920.17 412.32,-923.76 418.82,-926.52"/>
<polygon fill="#63b8ff" stroke="#63b8ff" points="353.38,-791.47 342.8,-790.91 350.72,-797.94 353.38,-791.47"/>
</a>
</g>
</g>
<!-- Node25 -->
<g id="Node000025" class="node">
<title>Node25</title>
<g id="a_Node000025"><a xlink:href="group___annotate_with_in_hash.html#class_b_f_n_1_1_annotate_with_in_hash" target="_top" xlink:title="Top level PassManager that governs annotation of specific assignment statements with the @in_hash ann...">
<polygon fill="white" stroke="#666666" points="563.5,-906 420.5,-906 420.5,-887 563.5,-887 563.5,-906"/>
<text text-anchor="middle" x="492" y="-894" font-family="Helvetica,sans-Serif" font-size="10.00">BFN::AnnotateWithInHash</text>
</a>
</g>
</g>
<!-- Node7&#45;&gt;Node25 -->
<g id="edge24_Node000007_Node000025" class="edge">
<title>Node7&#45;&gt;Node25</title>
<g id="a_edge24_Node000007_Node000025"><a xlink:title=" ">
<path fill="none" stroke="#63b8ff" d="M351.86,-795.4C356.58,-797.6 361.04,-800.26 365,-803.5 393.62,-826.92 371.8,-855.82 401,-878.5 406.79,-883 413.4,-886.46 420.36,-889.11"/>
<polygon fill="#63b8ff" stroke="#63b8ff" points="353.13,-792.14 342.54,-791.74 350.57,-798.66 353.13,-792.14"/>
</a>
</g>
</g>
<!-- Node26 -->
<g id="Node000026" class="node">
<title>Node26</title>
<g id="a_Node000026"><a xlink:href="group___arch_translation.html#class_b_f_n_1_1_apply_evaluator" target="_top" xlink:title=" ">
<polygon fill="white" stroke="#bfbfbf" points="550.5,-869 433.5,-869 433.5,-850 550.5,-850 550.5,-869"/>
<text text-anchor="middle" x="492" y="-857" font-family="Helvetica,sans-Serif" font-size="10.00">BFN::ApplyEvaluator</text>
</a>
</g>
</g>
<!-- Node7&#45;&gt;Node26 -->
<g id="edge25_Node000007_Node000026" class="edge">
<title>Node7&#45;&gt;Node26</title>
<g id="a_edge25_Node000007_Node000026"><a xlink:title=" ">
<path fill="none" stroke="#63b8ff" d="M352.49,-797.42C356.85,-799.18 361.07,-801.19 365,-803.5 385.07,-815.27 380.64,-830.25 401,-841.5 410.9,-846.97 422.23,-850.79 433.44,-853.46"/>
<polygon fill="#63b8ff" stroke="#63b8ff" points="353.4,-794.03 342.81,-793.97 351.05,-800.63 353.4,-794.03"/>
</a>
</g>
</g>
<!-- Node27 -->
<g id="Node000027" class="node">
<title>Node27</title>
<g id="a_Node000027"><a xlink:href="group___arch_translation.html#class_b_f_n_1_1_arch_translation" target="_top" xlink:title="PassManager that governs the normalization of variations in the architectures.">
<polygon fill="white" stroke="#666666" points="551,-832 433,-832 433,-813 551,-813 551,-832"/>
<text text-anchor="middle" x="492" y="-820" font-family="Helvetica,sans-Serif" font-size="10.00">BFN::ArchTranslation</text>
</a>
</g>
</g>
<!-- Node7&#45;&gt;Node27 -->
<g id="edge26_Node000007_Node000027" class="edge">
<title>Node7&#45;&gt;Node27</title>
<g id="a_edge26_Node000007_Node000027"><a xlink:title=" ">
<path fill="none" stroke="#63b8ff" d="M352.69,-796.52C380.49,-801.74 413.38,-807.92 440.12,-812.94"/>
<polygon fill="#63b8ff" stroke="#63b8ff" points="353.17,-793.05 342.7,-794.65 351.88,-799.93 353.17,-793.05"/>
</a>
</g>
</g>
<!-- Node28 -->
<g id="Node000028" class="node">
<title>Node28</title>
<g id="a_Node000028"><a xlink:href="class_b_f_n_1_1_attach_tables.html" target="_top" xlink:title=" ">
<polygon fill="white" stroke="#bfbfbf" points="544.5,-795 439.5,-795 439.5,-776 544.5,-776 544.5,-795"/>
<text text-anchor="middle" x="492" y="-783" font-family="Helvetica,sans-Serif" font-size="10.00">BFN::AttachTables</text>
</a>
</g>
</g>
<!-- Node7&#45;&gt;Node28 -->
<g id="edge27_Node000007_Node000028" class="edge">
<title>Node7&#45;&gt;Node28</title>
<g id="a_edge27_Node000007_Node000028"><a xlink:title=" ">
<path fill="none" stroke="#63b8ff" d="M352.97,-785.5C380.48,-785.5 412.91,-785.5 439.42,-785.5"/>
<polygon fill="#63b8ff" stroke="#63b8ff" points="352.7,-782 342.7,-785.5 352.7,-789 352.7,-782"/>
</a>
</g>
</g>
<!-- Node29 -->
<g id="Node000029" class="node">
<title>Node29</title>
<g id="a_Node000029"><a xlink:href="class_b_f_n_1_1_backend.html" target="_top" xlink:title=" ">
<polygon fill="white" stroke="#bfbfbf" points="534,-758 450,-758 450,-739 534,-739 534,-758"/>
<text text-anchor="middle" x="492" y="-746" font-family="Helvetica,sans-Serif" font-size="10.00">BFN::Backend</text>
</a>
</g>
</g>
<!-- Node7&#45;&gt;Node29 -->
<g id="edge28_Node000007_Node000029" class="edge">
<title>Node7&#45;&gt;Node29</title>
<g id="a_edge28_Node000007_Node000029"><a xlink:title=" ">
<path fill="none" stroke="#63b8ff" d="M352.61,-774.49C383.91,-768.61 421.68,-761.52 449.85,-756.23"/>
<polygon fill="#63b8ff" stroke="#63b8ff" points="351.88,-771.07 342.7,-776.35 353.17,-777.95 351.88,-771.07"/>
</a>
</g>
</g>
<!-- Node30 -->
<g id="Node000030" class="node">
<title>Node30</title>
<g id="a_Node000030"><a xlink:href="group___check_design_pattern.html#class_b_f_n_1_1_check_design_pattern" target="_top" xlink:title="Top level PassManager that governs checking for design patterns.">
<polygon fill="white" stroke="#666666" points="562.5,-721 421.5,-721 421.5,-702 562.5,-702 562.5,-721"/>
<text text-anchor="middle" x="492" y="-709" font-family="Helvetica,sans-Serif" font-size="10.00">BFN::CheckDesignPattern</text>
</a>
</g>
</g>
<!-- Node7&#45;&gt;Node30 -->
<g id="edge29_Node000007_Node000030" class="edge">
<title>Node7&#45;&gt;Node30</title>
<g id="a_edge29_Node000007_Node000030"><a xlink:title=" ">
<path fill="none" stroke="#63b8ff" d="M352.46,-772.65C356.82,-770.85 361.05,-768.81 365,-766.5 384.79,-754.9 380.85,-740.46 401,-729.5 407.3,-726.07 414.16,-723.3 421.2,-721.04"/>
<polygon fill="#63b8ff" stroke="#63b8ff" points="350.95,-769.47 342.77,-776.2 353.36,-776.04 350.95,-769.47"/>
</a>
</g>
</g>
<!-- Node31 -->
<g id="Node000031" class="node">
<title>Node31</title>
<g id="a_Node000031"><a xlink:href="group___check_design_pattern.html#class_b_f_n_1_1_check_direct_resource_invocation" target="_top" xlink:title=" ">
<polygon fill="white" stroke="#666666" points="565.5,-683.5 418.5,-683.5 418.5,-653.5 565.5,-653.5 565.5,-683.5"/>
<text text-anchor="start" x="426.5" y="-671.5" font-family="Helvetica,sans-Serif" font-size="10.00">BFN::CheckDirectResource</text>
<text text-anchor="middle" x="492" y="-660.5" font-family="Helvetica,sans-Serif" font-size="10.00">Invocation</text>
</a>
</g>
</g>
<!-- Node7&#45;&gt;Node31 -->
<g id="edge30_Node000007_Node000031" class="edge">
<title>Node7&#45;&gt;Node31</title>
<g id="a_edge30_Node000007_Node000031"><a xlink:title=" ">
<path fill="none" stroke="#63b8ff" d="M351.86,-774.72C356.57,-772.47 361.04,-769.77 365,-766.5 393.21,-743.23 372.78,-715.76 401,-692.5 406.24,-688.18 412.19,-684.63 418.46,-681.72"/>
<polygon fill="#63b8ff" stroke="#63b8ff" points="350.49,-771.5 342.54,-778.49 353.12,-777.98 350.49,-771.5"/>
</a>
</g>
</g>
<!-- Node32 -->
<g id="Node000032" class="node">
<title>Node32</title>
<g id="a_Node000032"><a xlink:href="group___desugar_varbit_extract.html#class_b_f_n_1_1_check_varbit_access" target="_top" xlink:title="Checks that varbit accesses in pipeline are valid.">
<polygon fill="white" stroke="#666666" points="559.5,-635 424.5,-635 424.5,-616 559.5,-616 559.5,-635"/>
<text text-anchor="middle" x="492" y="-623" font-family="Helvetica,sans-Serif" font-size="10.00">BFN::CheckVarbitAccess</text>
</a>
</g>
</g>
<!-- Node7&#45;&gt;Node32 -->
<g id="edge31_Node000007_Node000032" class="edge">
<title>Node7&#45;&gt;Node32</title>
<g id="a_edge31_Node000007_Node000032"><a xlink:title=" ">
<path fill="none" stroke="#63b8ff" d="M352.04,-775.61C356.79,-773.18 361.21,-770.19 365,-766.5 405.48,-727.04 359.48,-682.87 401,-644.5 407.57,-638.43 415.57,-634.11 424.06,-631.06"/>
<polygon fill="#63b8ff" stroke="#63b8ff" points="350.43,-772.49 342.58,-779.61 353.15,-778.94 350.43,-772.49"/>
</a>
</g>
</g>
<!-- Node33 -->
<g id="Node000033" class="node">
<title>Node33</title>
<g id="a_Node000033"><a xlink:href="class_b_f_n_1_1_collect_hardware_constrained_fields.html" target="_top" xlink:title=" ">
<polygon fill="white" stroke="#bfbfbf" points="583,-597.5 401,-597.5 401,-567.5 583,-567.5 583,-597.5"/>
<text text-anchor="start" x="409" y="-585.5" font-family="Helvetica,sans-Serif" font-size="10.00">BFN::CollectHardwareConstrained</text>
<text text-anchor="middle" x="492" y="-574.5" font-family="Helvetica,sans-Serif" font-size="10.00">Fields</text>
</a>
</g>
</g>
<!-- Node7&#45;&gt;Node33 -->
<g id="edge32_Node000007_Node000033" class="edge">
<title>Node7&#45;&gt;Node33</title>
<g id="a_edge32_Node000007_Node000033"><a xlink:title=" ">
<path fill="none" stroke="#63b8ff" d="M352.09,-775.98C356.87,-773.48 361.28,-770.37 365,-766.5 415.49,-713.94 350.48,-659.04 401,-606.5 404.25,-603.12 407.92,-600.2 411.87,-597.67"/>
<polygon fill="#63b8ff" stroke="#63b8ff" points="350.36,-772.91 342.54,-780.06 353.11,-779.35 350.36,-772.91"/>
</a>
</g>
</g>
<!-- Node34 -->
<g id="Node000034" class="node">
<title>Node34</title>
<g id="a_Node000034"><a xlink:href="class_b_f_n_1_1_convert_phase0.html" target="_top" xlink:title=" ">
<polygon fill="white" stroke="#bfbfbf" points="550,-549 434,-549 434,-530 550,-530 550,-549"/>
<text text-anchor="middle" x="492" y="-537" font-family="Helvetica,sans-Serif" font-size="10.00">BFN::ConvertPhase0</text>
</a>
</g>
</g>
<!-- Node7&#45;&gt;Node34 -->
<g id="edge33_Node000007_Node000034" class="edge">
<title>Node7&#45;&gt;Node34</title>
<g id="a_edge33_Node000007_Node000034"><a xlink:title=" ">
<path fill="none" stroke="#63b8ff" d="M352.3,-776.17C357.04,-773.63 361.38,-770.46 365,-766.5 428.29,-697.24 335.89,-626.05 401,-558.5 409.76,-549.42 421.68,-544.13 433.98,-541.16"/>
<polygon fill="#63b8ff" stroke="#63b8ff" points="350.57,-773.1 342.8,-780.3 353.37,-779.52 350.57,-773.1"/>
</a>
</g>
</g>
<!-- Node35 -->
<g id="Node000035" class="node">
<title>Node35</title>
<g id="a_Node000035"><a xlink:href="group___desugar_varbit_extract.html#class_b_f_n_1_1_desugar_varbit_extract" target="_top" xlink:title="Top level PassManager that governs the rewrite of varbit usage.">
<polygon fill="white" stroke="#666666" points="565,-512 419,-512 419,-493 565,-493 565,-512"/>
<text text-anchor="middle" x="492" y="-500" font-family="Helvetica,sans-Serif" font-size="10.00">BFN::DesugarVarbitExtract</text>
</a>
</g>
</g>
<!-- Node7&#45;&gt;Node35 -->
<g id="edge34_Node000007_Node000035" class="edge">
<title>Node7&#45;&gt;Node35</title>
<g id="a_edge34_Node000007_Node000035"><a xlink:title=" ">
<path fill="none" stroke="#63b8ff" d="M351.83,-776.57C356.77,-773.97 361.29,-770.67 365,-766.5 438.47,-683.96 324.93,-600.64 401,-520.5 406.05,-515.18 412.18,-511.2 418.86,-508.23"/>
<polygon fill="#63b8ff" stroke="#63b8ff" points="350.38,-773.39 342.57,-780.55 353.14,-779.82 350.38,-773.39"/>
</a>
</g>
</g>
<!-- Node36 -->
<g id="Node000036" class="node">
<title>Node36</title>
<g id="a_Node000036"><a xlink:href="class_b_f_n_1_1_drop_packet_with_mirror_engine.html" target="_top" xlink:title=" ">
<polygon fill="white" stroke="#bfbfbf" points="566.5,-474.5 417.5,-474.5 417.5,-444.5 566.5,-444.5 566.5,-474.5"/>
<text text-anchor="start" x="425.5" y="-462.5" font-family="Helvetica,sans-Serif" font-size="10.00">BFN::DropPacketWithMirror</text>
<text text-anchor="middle" x="492" y="-451.5" font-family="Helvetica,sans-Serif" font-size="10.00">Engine</text>
</a>
</g>
</g>
<!-- Node7&#45;&gt;Node36 -->
<g id="edge35_Node000007_Node000036" class="edge">
<title>Node7&#45;&gt;Node36</title>
<g id="a_edge35_Node000007_Node000036"><a xlink:title=" ">
<path fill="none" stroke="#63b8ff" d="M351.91,-776.65C356.84,-774.03 361.33,-770.7 365,-766.5 448.41,-671 317.55,-578.96 401,-483.5 405.58,-478.26 411.15,-474.11 417.27,-470.82"/>
<polygon fill="#63b8ff" stroke="#63b8ff" points="350.46,-773.46 342.67,-780.64 353.24,-779.89 350.46,-773.46"/>
</a>
</g>
</g>
<!-- Node37 -->
<g id="Node000037" class="node">
<title>Node37</title>
<g id="a_Node000037"><a xlink:href="class_b_f_n_1_1_dynamic_hash_json.html" target="_top" xlink:title=" ">
<polygon fill="white" stroke="#bfbfbf" points="557.5,-426 426.5,-426 426.5,-407 557.5,-407 557.5,-426"/>
<text text-anchor="middle" x="492" y="-414" font-family="Helvetica,sans-Serif" font-size="10.00">BFN::DynamicHashJson</text>
</a>
</g>
</g>
<!-- Node7&#45;&gt;Node37 -->
<g id="edge36_Node000007_Node000037" class="edge">
<title>Node7&#45;&gt;Node37</title>
<g id="a_edge36_Node000007_Node000037"><a xlink:title=" ">
<path fill="none" stroke="#63b8ff" d="M351.99,-776.71C356.9,-774.08 361.37,-770.74 365,-766.5 461.33,-654.17 301.71,-545.22 401,-435.5 407.75,-428.04 416.63,-423.1 426.18,-419.89"/>
<polygon fill="#63b8ff" stroke="#63b8ff" points="350.55,-773.53 342.77,-780.72 353.34,-779.95 350.55,-773.53"/>
</a>
</g>
</g>
<!-- Node38 -->
<g id="Node000038" class="node">
<title>Node38</title>
<g id="a_Node000038"><a xlink:href="group___elim_casts.html#class_b_f_n_1_1_elim_casts" target="_top" xlink:title="Top level PassManager that simplifies complex expression with multiple casts into simpler expression ...">
<polygon fill="white" stroke="#666666" points="538,-389 446,-389 446,-370 538,-370 538,-389"/>
<text text-anchor="middle" x="492" y="-377" font-family="Helvetica,sans-Serif" font-size="10.00">BFN::ElimCasts</text>
</a>
</g>
</g>
<!-- Node7&#45;&gt;Node38 -->
<g id="edge37_Node000007_Node000038" class="edge">
<title>Node7&#45;&gt;Node38</title>
<g id="a_edge37_Node000007_Node000038"><a xlink:title=" ">
<path fill="none" stroke="#63b8ff" d="M352.04,-776.76C356.94,-774.12 361.39,-770.76 365,-766.5 418.28,-703.66 345.73,-458.6 401,-397.5 412.22,-385.09 429.38,-379.83 445.72,-377.95"/>
<polygon fill="#63b8ff" stroke="#63b8ff" points="350.6,-773.57 342.83,-780.77 353.39,-779.98 350.6,-773.57"/>
</a>
</g>
</g>
<!-- Node39 -->
<g id="Node000039" class="node">
<title>Node39</title>
<g id="a_Node000039"><a xlink:href="class_b_f_n_1_1_eliminate_tuples.html" target="_top" xlink:title=" ">
<polygon fill="white" stroke="#666666" points="552,-352 432,-352 432,-333 552,-333 552,-352"/>
<text text-anchor="middle" x="492" y="-340" font-family="Helvetica,sans-Serif" font-size="10.00">BFN::EliminateTuples</text>
</a>
</g>
</g>
<!-- Node7&#45;&gt;Node39 -->
<g id="edge38_Node000007_Node000039" class="edge">
<title>Node7&#45;&gt;Node39</title>
<g id="a_edge38_Node000007_Node000039"><a xlink:title=" ">
<path fill="none" stroke="#63b8ff" d="M351.87,-776.9C356.84,-774.24 361.36,-770.83 365,-766.5 423.27,-697.16 340.54,-427.94 401,-360.5 408.98,-351.6 420.01,-346.37 431.61,-343.43"/>
<polygon fill="#63b8ff" stroke="#63b8ff" points="350.31,-773.76 342.51,-780.94 353.08,-780.19 350.31,-773.76"/>
</a>
</g>
</g>
<!-- Node40 -->
<g id="Node000040" class="node">
<title>Node40</title>
<g id="a_Node000040"><a xlink:href="struct_b_f_n_1_1_evaluate_for_var.html" target="_top" xlink:title=" ">
<polygon fill="white" stroke="#bfbfbf" points="550,-315 434,-315 434,-296 550,-296 550,-315"/>
<text text-anchor="middle" x="492" y="-303" font-family="Helvetica,sans-Serif" font-size="10.00">BFN::EvaluateForVar</text>
</a>
</g>
</g>
<!-- Node7&#45;&gt;Node40 -->
<g id="edge39_Node000007_Node000040" class="edge">
<title>Node7&#45;&gt;Node40</title>
<g id="a_edge39_Node000007_Node000040"><a xlink:title=" ">
<path fill="none" stroke="#63b8ff" d="M351.9,-776.93C356.87,-774.26 361.37,-770.85 365,-766.5 428.27,-690.65 335.34,-397.28 401,-323.5 409.47,-313.98 421.44,-308.65 433.89,-305.82"/>
<polygon fill="#63b8ff" stroke="#63b8ff" points="350.34,-773.79 342.55,-780.97 353.12,-780.22 350.34,-773.79"/>
</a>
</g>
</g>
<!-- Node41 -->
<g id="Node000041" class="node">
<title>Node41</title>
<g id="a_Node000041"><a xlink:href="group__midend.html#class_b_f_n_1_1_evaluator_pass" target="_top" xlink:title="A modified version of P4::EvaluatorPass that uses BFN::TypeChecking.">
<polygon fill="white" stroke="#666666" points="547.5,-278 436.5,-278 436.5,-259 547.5,-259 547.5,-278"/>
<text text-anchor="middle" x="492" y="-266" font-family="Helvetica,sans-Serif" font-size="10.00">BFN::EvaluatorPass</text>
</a>
</g>
</g>
<!-- Node7&#45;&gt;Node41 -->
<g id="edge40_Node000007_Node000041" class="edge">
<title>Node7&#45;&gt;Node41</title>
<g id="a_edge40_Node000007_Node000041"><a xlink:title=" ">
<path fill="none" stroke="#63b8ff" d="M351.93,-776.95C356.89,-774.28 361.39,-770.86 365,-766.5 433.26,-684.15 330.14,-366.63 401,-286.5 409.97,-276.35 422.91,-270.96 436.19,-268.28"/>
<polygon fill="#63b8ff" stroke="#63b8ff" points="350.37,-773.81 342.59,-781 353.15,-780.24 350.37,-773.81"/>
</a>
</g>
</g>
<!-- Node42 -->
<g id="Node000042" class="node">
<title>Node42</title>
<g id="a_Node000042"><a xlink:href="struct_b_f_n_1_1_find_architecture.html" target="_top" xlink:title=" ">
<polygon fill="white" stroke="#bfbfbf" points="553,-241 431,-241 431,-222 553,-222 553,-241"/>
<text text-anchor="middle" x="492" y="-229" font-family="Helvetica,sans-Serif" font-size="10.00">BFN::FindArchitecture</text>
</a>
</g>
</g>
<!-- Node7&#45;&gt;Node42 -->
<g id="edge41_Node000007_Node000042" class="edge">
<title>Node7&#45;&gt;Node42</title>
<g id="a_edge41_Node000007_Node000042"><a xlink:title=" ">
<path fill="none" stroke="#63b8ff" d="M351.96,-776.97C356.91,-774.29 361.4,-770.87 365,-766.5 438.26,-677.64 324.93,-335.97 401,-249.5 408.68,-240.77 419.3,-235.55 430.56,-232.55"/>
<polygon fill="#63b8ff" stroke="#63b8ff" points="350.4,-773.83 342.62,-781.03 353.18,-780.25 350.4,-773.83"/>
</a>
</g>
</g>
<!-- Node43 -->
<g id="Node000043" class="node">
<title>Node43</title>
<g id="a_Node000043"><a xlink:href="class_b_f_n_1_1_fixup_mirror_metadata.html" target="_top" xlink:title=" ">
<polygon fill="white" stroke="#666666" points="564.5,-204 419.5,-204 419.5,-185 564.5,-185 564.5,-204"/>
<text text-anchor="middle" x="492" y="-192" font-family="Helvetica,sans-Serif" font-size="10.00">BFN::FixupMirrorMetadata</text>
</a>
</g>
</g>
<!-- Node7&#45;&gt;Node43 -->
<g id="edge42_Node000007_Node000043" class="edge">
<title>Node7&#45;&gt;Node43</title>
<g id="a_edge42_Node000007_Node000043"><a xlink:title=" ">
<path fill="none" stroke="#63b8ff" d="M351.98,-776.99C356.93,-774.31 361.41,-770.88 365,-766.5 443.25,-671.12 319.73,-305.32 401,-212.5 406.04,-206.75 412.35,-202.52 419.28,-199.44"/>
<polygon fill="#63b8ff" stroke="#63b8ff" points="350.42,-773.85 342.64,-781.05 353.21,-780.27 350.42,-773.85"/>
</a>
</g>
</g>
<!-- Node44 -->
<g id="Node000044" class="node">
<title>Node44</title>
<g id="a_Node000044"><a xlink:href="class_b_f_n_1_1_fixup_resubmit_metadata.html" target="_top" xlink:title=" ">
<polygon fill="white" stroke="#bfbfbf" points="573,-167 411,-167 411,-148 573,-148 573,-167"/>
<text text-anchor="middle" x="492" y="-155" font-family="Helvetica,sans-Serif" font-size="10.00">BFN::FixupResubmitMetadata</text>
</a>
</g>
</g>
<!-- Node7&#45;&gt;Node44 -->
<g id="edge43_Node000007_Node000044" class="edge">
<title>Node7&#45;&gt;Node44</title>
<g id="a_edge43_Node000007_Node000044"><a xlink:title=" ">
<path fill="none" stroke="#63b8ff" d="M351.99,-777C356.94,-774.32 361.42,-770.88 365,-766.5 448.25,-664.61 314.53,-274.67 401,-175.5 403.93,-172.14 407.3,-169.29 410.97,-166.9"/>
<polygon fill="#63b8ff" stroke="#63b8ff" points="350.44,-773.86 342.66,-781.06 353.23,-780.28 350.44,-773.86"/>
</a>
</g>
</g>
<!-- Node45 -->
<g id="Node000045" class="node">
<title>Node45</title>
<g id="a_Node000045"><a xlink:href="group__midend.html#class_b_f_n_1_1_fold_constant_hashes" target="_top" xlink:title="PassManager that substitutes the calls of the get methods of the Hash externs whose inputs are consta...">
<polygon fill="white" stroke="#666666" points="563.5,-130 420.5,-130 420.5,-111 563.5,-111 563.5,-130"/>
<text text-anchor="middle" x="492" y="-118" font-family="Helvetica,sans-Serif" font-size="10.00">BFN::FoldConstantHashes</text>
</a>
</g>
</g>
<!-- Node7&#45;&gt;Node45 -->
<g id="edge44_Node000007_Node000045" class="edge">
<title>Node7&#45;&gt;Node45</title>
<g id="a_edge44_Node000007_Node000045"><a xlink:title=" ">
<path fill="none" stroke="#63b8ff" d="M352.01,-777.02C356.96,-774.33 361.43,-770.89 365,-766.5 453.25,-658.1 309.32,-244.02 401,-138.5 406.23,-132.49 412.84,-128.13 420.11,-125.03"/>
<polygon fill="#63b8ff" stroke="#63b8ff" points="350.45,-773.88 342.68,-781.08 353.25,-780.29 350.45,-773.88"/>
</a>
</g>
</g>
<!-- Node46 -->
<g id="Node000046" class="node">
<title>Node46</title>
<g id="a_Node000046"><a xlink:href="group__midend.html#class_b_f_n_1_1_initialize_mirror_i_o_select" target="_top" xlink:title="Initializes eg_intr_md_for_dprsr.mirror_io_select on devices except Tofino1.">
<polygon fill="white" stroke="#666666" points="569.5,-93 414.5,-93 414.5,-74 569.5,-74 569.5,-93"/>
<text text-anchor="middle" x="492" y="-81" font-family="Helvetica,sans-Serif" font-size="10.00">BFN::InitializeMirrorIOSelect</text>
</a>
</g>
</g>
<!-- Node7&#45;&gt;Node46 -->
<g id="edge45_Node000007_Node000046" class="edge">
<title>Node7&#45;&gt;Node46</title>
<g id="a_edge45_Node000007_Node000046"><a xlink:title=" ">
<path fill="none" stroke="#63b8ff" d="M352.03,-777.03C356.97,-774.34 361.43,-770.9 365,-766.5 458.25,-651.58 304.11,-213.37 401,-101.5 404.76,-97.16 409.23,-93.69 414.16,-90.92"/>
<polygon fill="#63b8ff" stroke="#63b8ff" points="350.47,-773.89 342.7,-781.1 353.27,-780.31 350.47,-773.89"/>
</a>
</g>
</g>
<!-- Node47 -->
<g id="Node000047" class="node">
<title>Node47</title>
<g id="a_Node000047"><a xlink:href="group___simplify_emit_args.html#struct_b_f_n_1_1_inject_tmp_var" target="_top" xlink:title="PassManager which controls injecting of temporary variables to be used instead of nested structures w...">
<polygon fill="white" stroke="#666666" points="545.5,-56 438.5,-56 438.5,-37 545.5,-37 545.5,-56"/>
<text text-anchor="middle" x="492" y="-44" font-family="Helvetica,sans-Serif" font-size="10.00">BFN::InjectTmpVar</text>
</a>
</g>
</g>
<!-- Node7&#45;&gt;Node47 -->
<g id="edge46_Node000007_Node000047" class="edge">
<title>Node7&#45;&gt;Node47</title>
<g id="a_edge46_Node000007_Node000047"><a xlink:title=" ">
<path fill="none" stroke="#63b8ff" d="M352.04,-777.04C356.98,-774.35 361.44,-770.9 365,-766.5 463.25,-645.07 298.91,-182.72 401,-64.5 410.37,-53.65 424.28,-48.2 438.37,-45.7"/>
<polygon fill="#63b8ff" stroke="#63b8ff" points="350.48,-773.9 342.72,-781.11 353.28,-780.31 350.48,-773.9"/>
</a>
</g>
</g>
<!-- Node48 -->
<g id="Node000048" class="node">
<title>Node48</title>
<g id="a_Node000048"><a xlink:href="class_b_f_n_1_1_merge_pov_bits.html" target="_top" xlink:title="Merge POV bits where a single POV bit could be shared between multiple headers.">
<polygon fill="white" stroke="#666666" points="547,-19 437,-19 437,0 547,0 547,-19"/>
<text text-anchor="middle" x="492" y="-7" font-family="Helvetica,sans-Serif" font-size="10.00">BFN::MergePovBits</text>
</a>
</g>
</g>
<!-- Node7&#45;&gt;Node48 -->
<g id="edge47_Node000007_Node000048" class="edge">
<title>Node7&#45;&gt;Node48</title>
<g id="a_edge47_Node000007_Node000048"><a xlink:title=" ">
<path fill="none" stroke="#63b8ff" d="M352.05,-777.05C356.99,-774.36 361.44,-770.91 365,-766.5 416.63,-702.53 347.35,-89.79 401,-27.5 410.05,-17 423.34,-11.55 436.95,-8.94"/>
<polygon fill="#63b8ff" stroke="#63b8ff" points="350.49,-773.91 342.73,-781.12 353.3,-780.32 350.49,-773.91"/>
</a>
</g>
</g>
</g>
</svg>

<g id="navigator" transform="translate(0 0)" fill="#404254">
  <rect fill="#f2f5e9" fill-opacity="0.5" stroke="#606060" stroke-width=".5" x="0" y="0" width="60" height="60"/>
  <use id="zoomplus" xlink:href="#zoomPlus" x="17" y="9" onmousedown="handleZoom(evt,'in')"/>
  <use id="zoomminus" xlink:href="#zoomMin" x="42" y="9" onmousedown="handleZoom(evt,'out')"/>
  <use id="reset" xlink:href="#resetDef" x="30" y="36" onmousedown="handleReset()"/>
   <use id="arrowup" xlink:href="#arrowUp" x="0" y="0" onmousedown="handlePan(0,-1)"/>
  <use id="arrowright" xlink:href="#arrowRight" x="0" y="0" onmousedown="handlePan(1,0)"/>
  <use id="arrowdown" xlink:href="#arrowDown" x="0" y="0" onmousedown="handlePan(0,1)"/>
  <use id="arrowleft" xlink:href="#arrowLeft" x="0" y="0" onmousedown="handlePan(-1,0)"/>
</g>
<svg viewBox="0 0 15 15" width="100%" height="30px" preserveAspectRatio="xMaxYMin meet">
 <g id="arrow_out" transform="scale(0.3 0.3)">
  <a xlink:href="class_p4_1_1_backtrack__inherit__graph_org.svg" target="_base">
   <rect id="button" ry="5" rx="5" y="6" x="6" height="38" width="38"
        fill="#f2f5e9" fill-opacity="0.5" stroke="#606060" stroke-width="1.0"/>
   <path id="arrow"
     d="M 11.500037,31.436501 C 11.940474,20.09759 22.043105,11.32322 32.158766,21.979434 L 37.068811,17.246167 C 37.068811,17.246167 37.088388,32 37.088388,32 L 22.160133,31.978069 C 22.160133,31.978069 26.997745,27.140456 26.997745,27.140456 C 18.528582,18.264221 13.291696,25.230495 11.500037,31.436501 z"
     style="fill:#404040;"/>
  </a>
 </g>
</svg>

<style type='text/css'>
<![CDATA[
[data-mouse-over-selected='false'] { opacity: 0.7; }
[data-mouse-over-selected='true']  { opacity: 1.0; }
]]>
</style>
<script type="application/ecmascript"><![CDATA[
document.addEventListener('DOMContentLoaded', (event) => {
  highlightEdges();
  highlightAdjacentNodes();
});
]]></script>
</svg>
