<?xml version="1.0" encoding="UTF-8" standalone="no"?>
<!DOCTYPE svg PUBLIC "-//W3C//DTD SVG 1.1//EN"
 "http://www.w3.org/Graphics/SVG/1.1/DTD/svg11.dtd">
<!-- Generated by graphviz version 2.43.0 (0)
 -->
<!-- Title: P4::TypeChecking Pages: 1 -->
<svg width="140pt" height="247pt"
 viewBox="0.00 0.00 139.50 247.00" xmlns="http://www.w3.org/2000/svg" xmlns:xlink="http://www.w3.org/1999/xlink">
<g id="graph0" class="graph" transform="scale(1 1) rotate(0) translate(4 243)">
<title>P4::TypeChecking</title>
<!-- Node1 -->
<g id="Node000001" class="node">
<title>Node1</title>
<g id="a_Node000001"><a xlink:title=" ">
<polygon fill="#999999" stroke="#666666" points="106,-74 4,-74 4,-55 106,-55 106,-74"/>
<text text-anchor="middle" x="55" y="-62" font-family="Helvetica,sans-Serif" font-size="10.00">P4::TypeChecking</text>
</a>
</g>
</g>
<!-- Node5 -->
<g id="Node000005" class="node">
<title>Node5</title>
<g id="a_Node000005"><a xlink:href="group__midend.html#class_b_f_n_1_1_type_checking" target="_top" xlink:title="A TypeChecking pass in BFN namespace that uses the extended TypeInference pass. This should be used i...">
<polygon fill="white" stroke="#666666" points="110,-19 0,-19 0,0 110,0 110,-19"/>
<text text-anchor="middle" x="55" y="-7" font-family="Helvetica,sans-Serif" font-size="10.00">BFN::TypeChecking</text>
</a>
</g>
</g>
<!-- Node1&#45;&gt;Node5 -->
<g id="edge5_Node000001_Node000005" class="edge">
<title>Node1&#45;&gt;Node5</title>
<g id="a_edge5_Node000001_Node000005"><a xlink:title=" ">
<path fill="none" stroke="#63b8ff" d="M55,-44.66C55,-35.93 55,-25.99 55,-19.09"/>
<polygon fill="#63b8ff" stroke="#63b8ff" points="51.5,-44.75 55,-54.75 58.5,-44.75 51.5,-44.75"/>
</a>
</g>
</g>
<!-- Node2 -->
<g id="Node000002" class="node">
<title>Node2</title>
<g id="a_Node000002"><a xlink:href="class_p4_1_1_pass_manager.html" target="_top" xlink:title=" ">
<polygon fill="white" stroke="#bfbfbf" points="104.5,-129 5.5,-129 5.5,-110 104.5,-110 104.5,-129"/>
<text text-anchor="middle" x="55" y="-117" font-family="Helvetica,sans-Serif" font-size="10.00">P4::PassManager</text>
</a>
</g>
</g>
<!-- Node2&#45;&gt;Node1 -->
<g id="edge1_Node000001_Node000002" class="edge">
<title>Node2&#45;&gt;Node1</title>
<g id="a_edge1_Node000001_Node000002"><a xlink:title=" ">
<path fill="none" stroke="#63b8ff" d="M55,-99.66C55,-90.93 55,-80.99 55,-74.09"/>
<polygon fill="#63b8ff" stroke="#63b8ff" points="51.5,-99.75 55,-109.75 58.5,-99.75 51.5,-99.75"/>
</a>
</g>
</g>
<!-- Node3 -->
<g id="Node000003" class="node">
<title>Node3</title>
<g id="a_Node000003"><a xlink:href="class_p4_1_1_visitor.html" target="_top" xlink:title=" ">
<polygon fill="white" stroke="#bfbfbf" points="88,-239 22,-239 22,-220 88,-220 88,-239"/>
<text text-anchor="middle" x="55" y="-227" font-family="Helvetica,sans-Serif" font-size="10.00">P4::Visitor</text>
</a>
</g>
</g>
<!-- Node3&#45;&gt;Node2 -->
<g id="edge2_Node000002_Node000003" class="edge">
<title>Node3&#45;&gt;Node2</title>
<g id="a_edge2_Node000002_Node000003"><a xlink:title=" ">
<path fill="none" stroke="#63b8ff" d="M46.94,-210.54C43.8,-202.58 40.57,-193 39,-184 35.52,-164.06 44.62,-141.15 50.48,-129.04"/>
<polygon fill="#63b8ff" stroke="#63b8ff" points="43.77,-212.03 50.89,-219.88 50.22,-209.31 43.77,-212.03"/>
</a>
</g>
</g>
<!-- Node4 -->
<g id="Node000004" class="node">
<title>Node4</title>
<g id="a_Node000004"><a xlink:href="class_p4_1_1_backtrack.html" target="_top" xlink:title=" ">
<polygon fill="white" stroke="#bfbfbf" points="131.5,-184 48.5,-184 48.5,-165 131.5,-165 131.5,-184"/>
<text text-anchor="middle" x="90" y="-172" font-family="Helvetica,sans-Serif" font-size="10.00">P4::Backtrack</text>
</a>
</g>
</g>
<!-- Node3&#45;&gt;Node4 -->
<g id="edge4_Node000004_Node000003" class="edge">
<title>Node3&#45;&gt;Node4</title>
<g id="a_edge4_Node000004_Node000003"><a xlink:title=" ">
<path fill="none" stroke="#63b8ff" d="M66.3,-211.39C72.32,-202.27 79.47,-191.45 84.33,-184.09"/>
<polygon fill="#63b8ff" stroke="#63b8ff" points="63.37,-209.47 60.78,-219.75 69.21,-213.33 63.37,-209.47"/>
</a>
</g>
</g>
<!-- Node4&#45;&gt;Node2 -->
<g id="edge3_Node000002_Node000004" class="edge">
<title>Node4&#45;&gt;Node2</title>
<g id="a_edge3_Node000002_Node000004"><a xlink:title=" ">
<path fill="none" stroke="#63b8ff" d="M78.7,-156.39C72.68,-147.27 65.53,-136.45 60.67,-129.09"/>
<polygon fill="#63b8ff" stroke="#63b8ff" points="75.79,-158.33 84.22,-164.75 81.63,-154.47 75.79,-158.33"/>
</a>
</g>
</g>
</g>
</svg>
