<?xml version="1.0" encoding="UTF-8" standalone="no"?>
<!DOCTYPE svg PUBLIC "-//W3C//DTD SVG 1.1//EN"
 "http://www.w3.org/Graphics/SVG/1.1/DTD/svg11.dtd">
<!-- Generated by graphviz version 2.43.0 (0)
 -->
<!-- Title: P4::UBPF::UBPFControlBodyTranslator Pages: 1 -->
<svg width="181pt" height="258pt"
 viewBox="0.00 0.00 181.00 258.00" xmlns="http://www.w3.org/2000/svg" xmlns:xlink="http://www.w3.org/1999/xlink">

<svg id="main" version="1.1" xmlns="http://www.w3.org/2000/svg" xmlns:xlink="http://www.w3.org/1999/xlink" xml:space="preserve">

<style type="text/css"><![CDATA[
.node, .edge {opacity: 0.7;}
.node.selected, .edge.selected {opacity: 1;}
.edge:hover path { stroke: red; }
.edge:hover polygon { stroke: red; fill: red; }
]]></style>
<script type="application/ecmascript" xlink:href="svg.min.js"/>
<svg id="graph" class="graph">
<g id="graph0" class="graph" transform="scale(1 1) rotate(0) translate(4 254)">
<title>P4::UBPF::UBPFControlBodyTranslator</title>
<!-- Node1 -->
<g id="Node000001" class="node">
<title>Node1</title>
<g id="a_Node000001"><a xlink:title=" ">
<polygon fill="#999999" stroke="#666666" points="162.5,-30 10.5,-30 10.5,0 162.5,0 162.5,-30"/>
<text text-anchor="start" x="18.5" y="-18" font-family="Helvetica,sans-Serif" font-size="10.00">P4::UBPF::UBPFControlBody</text>
<text text-anchor="middle" x="86.5" y="-7" font-family="Helvetica,sans-Serif" font-size="10.00">Translator</text>
</a>
</g>
</g>
<!-- Node2 -->
<g id="Node000002" class="node">
<title>Node2</title>
<g id="a_Node000002"><a xlink:href="class_p4_1_1_e_b_p_f_1_1_control_body_translator.html" target="_top" xlink:title=" ">
<polygon fill="white" stroke="#bfbfbf" points="173,-85 0,-85 0,-66 173,-66 173,-85"/>
<text text-anchor="middle" x="86.5" y="-73" font-family="Helvetica,sans-Serif" font-size="10.00">P4::EBPF::ControlBodyTranslator</text>
</a>
</g>
</g>
<!-- Node2&#45;&gt;Node1 -->
<g id="edge1_Node000001_Node000002" class="edge">
<title>Node2&#45;&gt;Node1</title>
<g id="a_edge1_Node000001_Node000002"><a xlink:title=" ">
<path fill="none" stroke="#63b8ff" d="M86.5,-55.65C86.5,-47.36 86.5,-37.78 86.5,-30.11"/>
<polygon fill="#63b8ff" stroke="#63b8ff" points="83,-55.87 86.5,-65.87 90,-55.87 83,-55.87"/>
</a>
</g>
</g>
<!-- Node3 -->
<g id="Node000003" class="node">
<title>Node3</title>
<g id="a_Node000003"><a xlink:href="class_p4_1_1_e_b_p_f_1_1_code_gen_inspector.html" target="_top" xlink:title=" ">
<polygon fill="white" stroke="#666666" points="163.5,-140 9.5,-140 9.5,-121 163.5,-121 163.5,-140"/>
<text text-anchor="middle" x="86.5" y="-128" font-family="Helvetica,sans-Serif" font-size="10.00">P4::EBPF::CodeGenInspector</text>
</a>
</g>
</g>
<!-- Node3&#45;&gt;Node2 -->
<g id="edge2_Node000002_Node000003" class="edge">
<title>Node3&#45;&gt;Node2</title>
<g id="a_edge2_Node000002_Node000003"><a xlink:title=" ">
<path fill="none" stroke="#63b8ff" d="M86.5,-110.66C86.5,-101.93 86.5,-91.99 86.5,-85.09"/>
<polygon fill="#63b8ff" stroke="#63b8ff" points="83,-110.75 86.5,-120.75 90,-110.75 83,-110.75"/>
</a>
</g>
</g>
<!-- Node4 -->
<g id="Node000004" class="node">
<title>Node4</title>
<g id="a_Node000004"><a xlink:href="class_p4_1_1_inspector.html" target="_top" xlink:title=" ">
<polygon fill="white" stroke="#bfbfbf" points="126.5,-195 46.5,-195 46.5,-176 126.5,-176 126.5,-195"/>
<text text-anchor="middle" x="86.5" y="-183" font-family="Helvetica,sans-Serif" font-size="10.00">P4::Inspector</text>
</a>
</g>
</g>
<!-- Node4&#45;&gt;Node3 -->
<g id="edge3_Node000003_Node000004" class="edge">
<title>Node4&#45;&gt;Node3</title>
<g id="a_edge3_Node000003_Node000004"><a xlink:title=" ">
<path fill="none" stroke="#63b8ff" d="M86.5,-165.66C86.5,-156.93 86.5,-146.99 86.5,-140.09"/>
<polygon fill="#63b8ff" stroke="#63b8ff" points="83,-165.75 86.5,-175.75 90,-165.75 83,-165.75"/>
</a>
</g>
</g>
<!-- Node5 -->
<g id="Node000005" class="node">
<title>Node5</title>
<g id="a_Node000005"><a xlink:href="class_p4_1_1_visitor.html" target="_top" xlink:title=" ">
<polygon fill="white" stroke="#bfbfbf" points="119.5,-250 53.5,-250 53.5,-231 119.5,-231 119.5,-250"/>
<text text-anchor="middle" x="86.5" y="-238" font-family="Helvetica,sans-Serif" font-size="10.00">P4::Visitor</text>
</a>
</g>
</g>
<!-- Node5&#45;&gt;Node4 -->
<g id="edge4_Node000004_Node000005" class="edge">
<title>Node5&#45;&gt;Node4</title>
<g id="a_edge4_Node000004_Node000005"><a xlink:title=" ">
<path fill="none" stroke="#63b8ff" d="M86.5,-220.66C86.5,-211.93 86.5,-201.99 86.5,-195.09"/>
<polygon fill="#63b8ff" stroke="#63b8ff" points="83,-220.75 86.5,-230.75 90,-220.75 83,-220.75"/>
</a>
</g>
</g>
</g>
</svg>
</svg>

<style type='text/css'>
<![CDATA[
[data-mouse-over-selected='false'] { opacity: 0.7; }
[data-mouse-over-selected='true']  { opacity: 1.0; }
]]>
</style>
<script type="application/ecmascript"><![CDATA[
document.addEventListener('DOMContentLoaded', (event) => {
  highlightEdges();
  highlightAdjacentNodes();
});
]]></script>
</svg>
