<?xml version="1.0" encoding="UTF-8" standalone="no"?>
<!DOCTYPE svg PUBLIC "-//W3C//DTD SVG 1.1//EN"
 "http://www.w3.org/Graphics/SVG/1.1/DTD/svg11.dtd">
<!-- Generated by graphviz version 2.43.0 (0)
 -->
<!-- Title: Graphical Class Hierarchy Pages: 1 -->
<svg width="307pt" height="323pt"
 viewBox="0.00 0.00 307.00 323.00" xmlns="http://www.w3.org/2000/svg" xmlns:xlink="http://www.w3.org/1999/xlink">
<g id="graph0" class="graph" transform="scale(1 1) rotate(0) translate(4 319)">
<title>Graphical Class Hierarchy</title>
<!-- Node0 -->
<g id="Node000000" class="node">
<title>Node0</title>
<g id="a_Node000000"><a xlink:title=" ">
<polygon fill="#e0e0e0" stroke="#999999" points="81,-167 0,-167 0,-148 81,-148 81,-167"/>
<text text-anchor="middle" x="40.5" y="-155" font-family="Helvetica,sans-Serif" font-size="10.00">PassManager</text>
</a>
</g>
</g>
<!-- Node1 -->
<g id="Node000001" class="node">
<title>Node1</title>
<g id="a_Node000001"><a xlink:href="class_adjust_egress_packet_length.html" target="_top" xlink:title=" ">
<polygon fill="white" stroke="#666666" points="280,-315 136,-315 136,-296 280,-296 280,-315"/>
<text text-anchor="middle" x="208" y="-303" font-family="Helvetica,sans-Serif" font-size="10.00">AdjustEgressPacketLength</text>
</a>
</g>
</g>
<!-- Node0&#45;&gt;Node1 -->
<g id="edge2634_Node000000_Node000001" class="edge">
<title>Node0&#45;&gt;Node1</title>
<g id="a_edge2634_Node000000_Node000001"><a xlink:title=" ">
<path fill="none" stroke="#63b8ff" d="M47.13,-176.99C56.56,-205.95 78.42,-259.89 117,-287.5 122.7,-291.58 129.1,-294.79 135.79,-297.31"/>
<polygon fill="#63b8ff" stroke="#63b8ff" points="50.41,-175.74 44.11,-167.22 43.72,-177.8 50.41,-175.74"/>
</a>
</g>
</g>
<!-- Node2 -->
<g id="Node000002" class="node">
<title>Node2</title>
<g id="a_Node000002"><a xlink:href="class_check_for_unimplemented_features.html" target="_top" xlink:title=" ">
<polygon fill="white" stroke="#666666" points="299,-278 117,-278 117,-259 299,-259 299,-278"/>
<text text-anchor="middle" x="208" y="-266" font-family="Helvetica,sans-Serif" font-size="10.00">CheckForUnimplementedFeatures</text>
</a>
</g>
</g>
<!-- Node0&#45;&gt;Node2 -->
<g id="edge2635_Node000000_Node000002" class="edge">
<title>Node0&#45;&gt;Node2</title>
<g id="a_edge2635_Node000000_Node000002"><a xlink:title=" ">
<path fill="none" stroke="#63b8ff" d="M51.29,-176.09C63.62,-197.58 86.89,-232.32 117,-250.5 122.59,-253.88 128.7,-256.63 135.02,-258.88"/>
<polygon fill="#63b8ff" stroke="#63b8ff" points="54.3,-174.31 46.4,-167.25 48.18,-177.7 54.3,-174.31"/>
</a>
</g>
</g>
<!-- Node3 -->
<g id="Node000003" class="node">
<title>Node3</title>
<g id="a_Node000003"><a xlink:href="group__midend.html#class_copy_block_pragmas" target="_top" xlink:title="Pass that copies block annotations to the block&#39;s tables.">
<polygon fill="white" stroke="#666666" points="263.5,-241 152.5,-241 152.5,-222 263.5,-222 263.5,-241"/>
<text text-anchor="middle" x="208" y="-229" font-family="Helvetica,sans-Serif" font-size="10.00">CopyBlockPragmas</text>
</a>
</g>
</g>
<!-- Node0&#45;&gt;Node3 -->
<g id="edge2636_Node000000_Node000003" class="edge">
<title>Node0&#45;&gt;Node3</title>
<g id="a_edge2636_Node000000_Node000003"><a xlink:title=" ">
<path fill="none" stroke="#63b8ff" d="M58.94,-173.99C73.4,-186.72 95.05,-203.76 117,-213.5 127.92,-218.35 140.17,-221.9 152.03,-224.5"/>
<polygon fill="#63b8ff" stroke="#63b8ff" points="61.08,-171.2 51.32,-167.07 56.38,-176.38 61.08,-171.2"/>
</a>
</g>
</g>
<!-- Node4 -->
<g id="Node000004" class="node">
<title>Node4</title>
<g id="a_Node000004"><a xlink:href="struct_create_thread_local_instances.html" target="_top" xlink:title=" ">
<polygon fill="white" stroke="#666666" points="285.5,-204 130.5,-204 130.5,-185 285.5,-185 285.5,-204"/>
<text text-anchor="middle" x="208" y="-192" font-family="Helvetica,sans-Serif" font-size="10.00">CreateThreadLocalInstances</text>
</a>
</g>
</g>
<!-- Node0&#45;&gt;Node4 -->
<g id="edge2637_Node000000_Node000004" class="edge">
<title>Node0&#45;&gt;Node4</title>
<g id="a_edge2637_Node000000_Node000004"><a xlink:title=" ">
<path fill="none" stroke="#63b8ff" d="M87.73,-169.52C97.38,-171.92 107.51,-174.36 117,-176.5 129.9,-179.41 143.9,-182.33 156.92,-184.94"/>
<polygon fill="#63b8ff" stroke="#63b8ff" points="88.45,-166.09 77.9,-167.04 86.74,-172.88 88.45,-166.09"/>
</a>
</g>
</g>
<!-- Node5 -->
<g id="Node000005" class="node">
<title>Node5</title>
<g id="a_Node000005"><a xlink:href="group__parde.html#struct_merge_parser_states" target="_top" xlink:title="Merges a chain of states into a large state (before parser lowering). Find the longest chain that: Fo...">
<polygon fill="white" stroke="#666666" points="262,-167 154,-167 154,-148 262,-148 262,-167"/>
<text text-anchor="middle" x="208" y="-155" font-family="Helvetica,sans-Serif" font-size="10.00">MergeParserStates</text>
</a>
</g>
</g>
<!-- Node0&#45;&gt;Node5 -->
<g id="edge2638_Node000000_Node000005" class="edge">
<title>Node0&#45;&gt;Node5</title>
<g id="a_edge2638_Node000000_Node000005"><a xlink:title=" ">
<path fill="none" stroke="#63b8ff" d="M91.19,-157.5C110.98,-157.5 133.79,-157.5 153.91,-157.5"/>
<polygon fill="#63b8ff" stroke="#63b8ff" points="91.14,-154 81.14,-157.5 91.14,-161 91.14,-154"/>
</a>
</g>
</g>
<!-- Node6 -->
<g id="Node000006" class="node">
<title>Node6</title>
<g id="a_Node000006"><a xlink:href="class_move_to_egress.html" target="_top" xlink:title=" ">
<polygon fill="white" stroke="#666666" points="251,-130 165,-130 165,-111 251,-111 251,-130"/>
<text text-anchor="middle" x="208" y="-118" font-family="Helvetica,sans-Serif" font-size="10.00">MoveToEgress</text>
</a>
</g>
</g>
<!-- Node0&#45;&gt;Node6 -->
<g id="edge2639_Node000000_Node000006" class="edge">
<title>Node0&#45;&gt;Node6</title>
<g id="a_edge2639_Node000000_Node000006"><a xlink:title=" ">
<path fill="none" stroke="#63b8ff" d="M90.44,-145.64C99.27,-143.55 108.4,-141.43 117,-139.5 132.58,-136 149.72,-132.33 164.83,-129.17"/>
<polygon fill="#63b8ff" stroke="#63b8ff" points="89.56,-142.25 80.64,-147.96 91.18,-149.06 89.56,-142.25"/>
</a>
</g>
</g>
<!-- Node7 -->
<g id="Node000007" class="node">
<title>Node7</title>
<g id="a_Node000007"><a xlink:href="class_normalize_hash_list.html" target="_top" xlink:title="Normalize field lists in hashing expression (Hash.get primitive)">
<polygon fill="white" stroke="#666666" points="262.5,-93 153.5,-93 153.5,-74 262.5,-74 262.5,-93"/>
<text text-anchor="middle" x="208" y="-81" font-family="Helvetica,sans-Serif" font-size="10.00">NormalizeHashList</text>
</a>
</g>
</g>
<!-- Node0&#45;&gt;Node7 -->
<g id="edge2640_Node000000_Node000007" class="edge">
<title>Node0&#45;&gt;Node7</title>
<g id="a_edge2640_Node000000_Node000007"><a xlink:title=" ">
<path fill="none" stroke="#63b8ff" d="M59.52,-140.96C74.02,-128.54 95.45,-112.09 117,-102.5 128.38,-97.43 141.18,-93.69 153.48,-90.94"/>
<polygon fill="#63b8ff" stroke="#63b8ff" points="57.03,-138.48 51.84,-147.72 61.66,-143.74 57.03,-138.48"/>
</a>
</g>
</g>
<!-- Node8 -->
<g id="Node000008" class="node">
<title>Node8</title>
<g id="a_Node000008"><a xlink:href="group__bridged__packing.html#class_rename_arch_params" target="_top" xlink:title="Pass that governs replacement of the user&#45;supplied parameter names with the corresponding parameter n...">
<polygon fill="white" stroke="#666666" points="265.5,-56 150.5,-56 150.5,-37 265.5,-37 265.5,-56"/>
<text text-anchor="middle" x="208" y="-44" font-family="Helvetica,sans-Serif" font-size="10.00">RenameArchParams</text>
</a>
</g>
</g>
<!-- Node0&#45;&gt;Node8 -->
<g id="edge2641_Node000000_Node000008" class="edge">
<title>Node0&#45;&gt;Node8</title>
<g id="a_edge2641_Node000000_Node000008"><a xlink:title=" ">
<path fill="none" stroke="#63b8ff" d="M51.37,-139.16C63.78,-117.96 87.14,-83.64 117,-65.5 126.96,-59.45 138.56,-55.3 150.06,-52.47"/>
<polygon fill="#63b8ff" stroke="#63b8ff" points="48.32,-137.45 46.45,-147.88 54.41,-140.89 48.32,-137.45"/>
</a>
</g>
</g>
<!-- Node9 -->
<g id="Node000009" class="node">
<title>Node9</title>
<g id="a_Node000009"><a xlink:href="struct_simplify_references.html" target="_top" xlink:title=" ">
<polygon fill="white" stroke="#666666" points="263.5,-19 152.5,-19 152.5,0 263.5,0 263.5,-19"/>
<text text-anchor="middle" x="208" y="-7" font-family="Helvetica,sans-Serif" font-size="10.00">SimplifyReferences</text>
</a>
</g>
</g>
<!-- Node0&#45;&gt;Node9 -->
<g id="edge2642_Node000000_Node000009" class="edge">
<title>Node0&#45;&gt;Node9</title>
<g id="a_edge2642_Node000000_Node000009"><a xlink:title=" ">
<path fill="none" stroke="#63b8ff" d="M47.21,-138.21C56.75,-109.54 78.74,-56.09 117,-28.5 127.23,-21.12 139.72,-16.49 152.1,-13.61"/>
<polygon fill="#63b8ff" stroke="#63b8ff" points="43.83,-137.3 44.16,-147.88 50.51,-139.4 43.83,-137.3"/>
</a>
</g>
</g>
</g>
</svg>
