<?xml version="1.0" encoding="UTF-8" standalone="no"?>
<!DOCTYPE svg PUBLIC "-//W3C//DTD SVG 1.1//EN"
 "http://www.w3.org/Graphics/SVG/1.1/DTD/svg11.dtd">
<!-- Generated by graphviz version 2.43.0 (0)
 -->
<!-- Title: VLIW::Operand::Base Pages: 1 -->
<svg width="316pt" height="249pt"
 viewBox="0.00 0.00 316.00 249.00" xmlns="http://www.w3.org/2000/svg" xmlns:xlink="http://www.w3.org/1999/xlink">
<g id="graph0" class="graph" transform="scale(1 1) rotate(0) translate(4 245)">
<title>VLIW::Operand::Base</title>
<!-- Node1 -->
<g id="Node000001" class="node">
<title>Node1</title>
<g id="a_Node000001"><a xlink:title=" ">
<polygon fill="#999999" stroke="#666666" points="118,-130 0,-130 0,-111 118,-111 118,-130"/>
<text text-anchor="middle" x="59" y="-118" font-family="Helvetica,sans-Serif" font-size="10.00">VLIW::Operand::Base</text>
</a>
</g>
</g>
<!-- Node2 -->
<g id="Node000002" class="node">
<title>Node2</title>
<g id="a_Node000002"><a xlink:href="struct_v_l_i_w_1_1_operand_1_1_action.html" target="_top" xlink:title=" ">
<polygon fill="white" stroke="#bfbfbf" points="293.5,-241 168.5,-241 168.5,-222 293.5,-222 293.5,-241"/>
<text text-anchor="middle" x="231" y="-229" font-family="Helvetica,sans-Serif" font-size="10.00">VLIW::Operand::Action</text>
</a>
</g>
</g>
<!-- Node1&#45;&gt;Node2 -->
<g id="edge1_Node000001_Node000002" class="edge">
<title>Node1&#45;&gt;Node2</title>
<g id="a_edge1_Node000001_Node000002"><a xlink:title=" ">
<path fill="none" stroke="#63b8ff" d="M72.96,-138.29C89.39,-159.52 119.74,-194.5 154,-213.5 160.17,-216.92 166.96,-219.69 173.88,-221.94"/>
<polygon fill="#63b8ff" stroke="#63b8ff" points="75.62,-136 66.8,-130.13 70.03,-140.22 75.62,-136"/>
</a>
</g>
</g>
<!-- Node3 -->
<g id="Node000003" class="node">
<title>Node3</title>
<g id="a_Node000003"><a xlink:href="struct_v_l_i_w_1_1_operand_1_1_const.html" target="_top" xlink:title=" ">
<polygon fill="white" stroke="#bfbfbf" points="292,-204 170,-204 170,-185 292,-185 292,-204"/>
<text text-anchor="middle" x="231" y="-192" font-family="Helvetica,sans-Serif" font-size="10.00">VLIW::Operand::Const</text>
</a>
</g>
</g>
<!-- Node1&#45;&gt;Node3 -->
<g id="edge2_Node000001_Node000003" class="edge">
<title>Node1&#45;&gt;Node3</title>
<g id="a_edge2_Node000001_Node000003"><a xlink:title=" ">
<path fill="none" stroke="#63b8ff" d="M81.27,-135.75C99.71,-148.32 127.52,-165.77 154,-176.5 162.17,-179.81 171.09,-182.6 179.85,-184.92"/>
<polygon fill="#63b8ff" stroke="#63b8ff" points="83.23,-132.85 73.02,-130.02 79.24,-138.6 83.23,-132.85"/>
</a>
</g>
</g>
<!-- Node4 -->
<g id="Node000004" class="node">
<title>Node4</title>
<g id="a_Node000004"><a xlink:href="struct_v_l_i_w_1_1_operand_1_1_hash_dist.html" target="_top" xlink:title=" ">
<polygon fill="white" stroke="#bfbfbf" points="300,-167 162,-167 162,-148 300,-148 300,-167"/>
<text text-anchor="middle" x="231" y="-155" font-family="Helvetica,sans-Serif" font-size="10.00">VLIW::Operand::HashDist</text>
</a>
</g>
</g>
<!-- Node1&#45;&gt;Node4 -->
<g id="edge3_Node000001_Node000004" class="edge">
<title>Node1&#45;&gt;Node4</title>
<g id="a_edge3_Node000001_Node000004"><a xlink:title=" ">
<path fill="none" stroke="#63b8ff" d="M113.85,-132.22C137.13,-137.29 164.03,-143.14 186.07,-147.94"/>
<polygon fill="#63b8ff" stroke="#63b8ff" points="114.29,-128.74 103.78,-130.03 112.81,-135.58 114.29,-128.74"/>
</a>
</g>
</g>
<!-- Node5 -->
<g id="Node000005" class="node">
<title>Node5</title>
<g id="a_Node000005"><a xlink:href="struct_v_l_i_w_1_1_operand_1_1_named.html" target="_top" xlink:title=" ">
<polygon fill="white" stroke="#bfbfbf" points="295.5,-130 166.5,-130 166.5,-111 295.5,-111 295.5,-130"/>
<text text-anchor="middle" x="231" y="-118" font-family="Helvetica,sans-Serif" font-size="10.00">VLIW::Operand::Named</text>
</a>
</g>
</g>
<!-- Node1&#45;&gt;Node5 -->
<g id="edge4_Node000001_Node000005" class="edge">
<title>Node1&#45;&gt;Node5</title>
<g id="a_edge4_Node000001_Node000005"><a xlink:title=" ">
<path fill="none" stroke="#63b8ff" d="M128.05,-120.5C140.71,-120.5 153.89,-120.5 166.41,-120.5"/>
<polygon fill="#63b8ff" stroke="#63b8ff" points="128.03,-117 118.03,-120.5 128.03,-124 128.03,-117"/>
</a>
</g>
</g>
<!-- Node6 -->
<g id="Node000006" class="node">
<title>Node6</title>
<g id="a_Node000006"><a xlink:href="struct_v_l_i_w_1_1_operand_1_1_phv.html" target="_top" xlink:title=" ">
<polygon fill="white" stroke="#bfbfbf" points="287,-93 175,-93 175,-74 287,-74 287,-93"/>
<text text-anchor="middle" x="231" y="-81" font-family="Helvetica,sans-Serif" font-size="10.00">VLIW::Operand::Phv</text>
</a>
</g>
</g>
<!-- Node1&#45;&gt;Node6 -->
<g id="edge5_Node000001_Node000006" class="edge">
<title>Node1&#45;&gt;Node6</title>
<g id="a_edge5_Node000001_Node000006"><a xlink:title=" ">
<path fill="none" stroke="#63b8ff" d="M113.85,-108.78C137.13,-103.71 164.03,-97.86 186.07,-93.06"/>
<polygon fill="#63b8ff" stroke="#63b8ff" points="112.81,-105.42 103.78,-110.97 114.29,-112.26 112.81,-105.42"/>
</a>
</g>
</g>
<!-- Node7 -->
<g id="Node000007" class="node">
<title>Node7</title>
<g id="a_Node000007"><a xlink:href="struct_v_l_i_w_1_1_operand_1_1_random_gen.html" target="_top" xlink:title=" ">
<polygon fill="white" stroke="#bfbfbf" points="308,-56 154,-56 154,-37 308,-37 308,-56"/>
<text text-anchor="middle" x="231" y="-44" font-family="Helvetica,sans-Serif" font-size="10.00">VLIW::Operand::RandomGen</text>
</a>
</g>
</g>
<!-- Node1&#45;&gt;Node7 -->
<g id="edge6_Node000001_Node000007" class="edge">
<title>Node1&#45;&gt;Node7</title>
<g id="a_edge6_Node000001_Node000007"><a xlink:title=" ">
<path fill="none" stroke="#63b8ff" d="M81.99,-105.2C100.47,-92.95 127.97,-76.11 154,-65.5 163.07,-61.8 173.05,-58.68 182.71,-56.11"/>
<polygon fill="#63b8ff" stroke="#63b8ff" points="80.02,-102.31 73.68,-110.8 83.93,-108.11 80.02,-102.31"/>
</a>
</g>
</g>
<!-- Node8 -->
<g id="Node000008" class="node">
<title>Node8</title>
<g id="a_Node000008"><a xlink:href="struct_v_l_i_w_1_1_operand_1_1_raw_action.html" target="_top" xlink:title=" ">
<polygon fill="white" stroke="#bfbfbf" points="304,-19 158,-19 158,0 304,0 304,-19"/>
<text text-anchor="middle" x="231" y="-7" font-family="Helvetica,sans-Serif" font-size="10.00">VLIW::Operand::RawAction</text>
</a>
</g>
</g>
<!-- Node1&#45;&gt;Node8 -->
<g id="edge7_Node000001_Node000008" class="edge">
<title>Node1&#45;&gt;Node8</title>
<g id="a_edge7_Node000001_Node000008"><a xlink:title=" ">
<path fill="none" stroke="#63b8ff" d="M73.3,-102.65C89.87,-81.7 120.17,-47.42 154,-28.5 160.89,-24.65 168.55,-21.57 176.29,-19.11"/>
<polygon fill="#63b8ff" stroke="#63b8ff" points="70.4,-100.67 67.07,-110.73 75.95,-104.95 70.4,-100.67"/>
</a>
</g>
</g>
</g>
</svg>
