<?xml version="1.0" encoding="UTF-8" standalone="no"?>
<!DOCTYPE svg PUBLIC "-//W3C//DTD SVG 1.1//EN"
 "http://www.w3.org/Graphics/SVG/1.1/DTD/svg11.dtd">
<!-- Generated by graphviz version 2.43.0 (0)
 -->
<!-- Title: P4::Backtrack::trigger Pages: 1 -->
<svg width="559pt" height="198pt"
 viewBox="0.00 0.00 559.00 197.50" xmlns="http://www.w3.org/2000/svg" xmlns:xlink="http://www.w3.org/1999/xlink">
<g id="graph0" class="graph" transform="scale(1 1) rotate(0) translate(4 193.5)">
<title>P4::Backtrack::trigger</title>
<!-- Node1 -->
<g id="Node000001" class="node">
<title>Node1</title>
<g id="a_Node000001"><a xlink:title=" ">
<polygon fill="#999999" stroke="#666666" points="360,-115.5 238,-115.5 238,-96.5 360,-96.5 360,-115.5"/>
<text text-anchor="middle" x="299" y="-103.5" font-family="Helvetica,sans-Serif" font-size="10.00">P4::Backtrack::trigger</text>
</a>
</g>
</g>
<!-- Node4 -->
<g id="Node000004" class="node">
<title>Node4</title>
<g id="a_Node000004"><a xlink:href="struct_i_x_bar_1_1failure.html" target="_top" xlink:title=" ">
<polygon fill="white" stroke="#bfbfbf" points="513.5,-189.5 433.5,-189.5 433.5,-170.5 513.5,-170.5 513.5,-189.5"/>
<text text-anchor="middle" x="473.5" y="-177.5" font-family="Helvetica,sans-Serif" font-size="10.00">IXBar::failure</text>
</a>
</g>
</g>
<!-- Node1&#45;&gt;Node4 -->
<g id="edge3_Node000001_Node000004" class="edge">
<title>Node1&#45;&gt;Node4</title>
<g id="a_edge3_Node000001_Node000004"><a xlink:title=" ">
<path fill="none" stroke="#63b8ff" d="M321.77,-121.24C340.63,-133.8 369.05,-151.25 396,-162 407.79,-166.7 421.1,-170.36 433.29,-173.12"/>
<polygon fill="#63b8ff" stroke="#63b8ff" points="323.57,-118.23 313.33,-115.51 319.64,-124.02 323.57,-118.23"/>
</a>
</g>
</g>
<!-- Node5 -->
<g id="Node000005" class="node">
<title>Node5</title>
<g id="a_Node000005"><a xlink:href="struct_long_branch_alloc_failed.html" target="_top" xlink:title=" ">
<polygon fill="white" stroke="#bfbfbf" points="536.5,-152.5 410.5,-152.5 410.5,-133.5 536.5,-133.5 536.5,-152.5"/>
<text text-anchor="middle" x="473.5" y="-140.5" font-family="Helvetica,sans-Serif" font-size="10.00">LongBranchAllocFailed</text>
</a>
</g>
</g>
<!-- Node1&#45;&gt;Node5 -->
<g id="edge4_Node000001_Node000005" class="edge">
<title>Node1&#45;&gt;Node5</title>
<g id="a_edge4_Node000001_Node000005"><a xlink:title=" ">
<path fill="none" stroke="#63b8ff" d="M354.32,-117.65C378.02,-122.73 405.46,-128.62 427.93,-133.44"/>
<polygon fill="#63b8ff" stroke="#63b8ff" points="354.93,-114.2 344.42,-115.53 353.47,-121.05 354.93,-114.2"/>
</a>
</g>
</g>
<!-- Node6 -->
<g id="Node000006" class="node">
<title>Node6</title>
<g id="a_Node000006"><a xlink:href="struct_p_h_v_trigger_1_1failure.html" target="_top" xlink:title=" ">
<polygon fill="white" stroke="#bfbfbf" points="527,-115.5 420,-115.5 420,-96.5 527,-96.5 527,-115.5"/>
<text text-anchor="middle" x="473.5" y="-103.5" font-family="Helvetica,sans-Serif" font-size="10.00">PHVTrigger::failure</text>
</a>
</g>
</g>
<!-- Node1&#45;&gt;Node6 -->
<g id="edge5_Node000001_Node000006" class="edge">
<title>Node1&#45;&gt;Node6</title>
<g id="a_edge5_Node000001_Node000006"><a xlink:title=" ">
<path fill="none" stroke="#63b8ff" d="M370.5,-106C387.03,-106 404.36,-106 419.95,-106"/>
<polygon fill="#63b8ff" stroke="#63b8ff" points="370.33,-102.5 360.33,-106 370.33,-109.5 370.33,-102.5"/>
</a>
</g>
</g>
<!-- Node7 -->
<g id="Node000007" class="node">
<title>Node7</title>
<g id="a_Node000007"><a xlink:href="struct_rerun_table_placement_trigger_1_1failure.html" target="_top" xlink:title=" ">
<polygon fill="white" stroke="#bfbfbf" points="551,-78 396,-78 396,-48 551,-48 551,-78"/>
<text text-anchor="start" x="404" y="-66" font-family="Helvetica,sans-Serif" font-size="10.00">RerunTablePlacementTrigger</text>
<text text-anchor="middle" x="473.5" y="-55" font-family="Helvetica,sans-Serif" font-size="10.00">::failure</text>
</a>
</g>
</g>
<!-- Node1&#45;&gt;Node7 -->
<g id="edge6_Node000001_Node000007" class="edge">
<title>Node1&#45;&gt;Node7</title>
<g id="a_edge6_Node000001_Node000007"><a xlink:title=" ">
<path fill="none" stroke="#63b8ff" d="M348.05,-94.02C367.96,-89.06 391.27,-83.25 412.3,-78.01"/>
<polygon fill="#63b8ff" stroke="#63b8ff" points="347.14,-90.64 338.28,-96.46 348.83,-97.43 347.14,-90.64"/>
</a>
</g>
</g>
<!-- Node8 -->
<g id="Node000008" class="node">
<title>Node8</title>
<g id="a_Node000008"><a xlink:href="struct_table_placement_1_1_final_rerun_table_placement_trigger.html" target="_top" xlink:title=" ">
<polygon fill="white" stroke="#bfbfbf" points="549.5,-30 397.5,-30 397.5,0 549.5,0 549.5,-30"/>
<text text-anchor="start" x="405.5" y="-18" font-family="Helvetica,sans-Serif" font-size="10.00">TablePlacement::FinalRerun</text>
<text text-anchor="middle" x="473.5" y="-7" font-family="Helvetica,sans-Serif" font-size="10.00">TablePlacementTrigger</text>
</a>
</g>
</g>
<!-- Node1&#45;&gt;Node8 -->
<g id="edge7_Node000001_Node000008" class="edge">
<title>Node1&#45;&gt;Node8</title>
<g id="a_edge7_Node000001_Node000008"><a xlink:title=" ">
<path fill="none" stroke="#63b8ff" d="M319.38,-89.79C338.02,-74.87 367.5,-53 396,-39 402.75,-35.69 410.05,-32.7 417.38,-30.06"/>
<polygon fill="#63b8ff" stroke="#63b8ff" points="316.94,-87.27 311.39,-96.29 321.36,-92.7 316.94,-87.27"/>
</a>
</g>
</g>
<!-- Node2 -->
<g id="Node000002" class="node">
<title>Node2</title>
<g id="a_Node000002"><a xlink:href="class_p4_1_1_i_castable.html" target="_top" xlink:title=" ">
<polygon fill="white" stroke="#666666" points="202,-115.5 122,-115.5 122,-96.5 202,-96.5 202,-115.5"/>
<text text-anchor="middle" x="162" y="-103.5" font-family="Helvetica,sans-Serif" font-size="10.00">P4::ICastable</text>
</a>
</g>
</g>
<!-- Node2&#45;&gt;Node1 -->
<g id="edge1_Node000001_Node000002" class="edge">
<title>Node2&#45;&gt;Node1</title>
<g id="a_edge1_Node000001_Node000002"><a xlink:title=" ">
<path fill="none" stroke="#63b8ff" d="M212.05,-106C220.46,-106 229.28,-106 237.93,-106"/>
<polygon fill="#63b8ff" stroke="#63b8ff" points="212.05,-102.5 202.05,-106 212.05,-109.5 212.05,-102.5"/>
</a>
</g>
</g>
<!-- Node3 -->
<g id="Node000003" class="node">
<title>Node3</title>
<g id="a_Node000003"><a xlink:href="struct_p4_1_1_r_t_t_i_1_1_base.html" target="_top" xlink:title=" ">
<polygon fill="white" stroke="#bfbfbf" points="86,-115.5 0,-115.5 0,-96.5 86,-96.5 86,-115.5"/>
<text text-anchor="middle" x="43" y="-103.5" font-family="Helvetica,sans-Serif" font-size="10.00">P4::RTTI::Base</text>
</a>
</g>
</g>
<!-- Node3&#45;&gt;Node2 -->
<g id="edge2_Node000002_Node000003" class="edge">
<title>Node3&#45;&gt;Node2</title>
<g id="a_edge2_Node000002_Node000003"><a xlink:title=" ">
<path fill="none" stroke="#63b8ff" d="M96.25,-106C104.88,-106 113.7,-106 121.94,-106"/>
<polygon fill="#63b8ff" stroke="#63b8ff" points="96.24,-102.5 86.24,-106 96.24,-109.5 96.24,-102.5"/>
</a>
</g>
</g>
</g>
</svg>
