<?xml version="1.0" encoding="UTF-8" standalone="no"?>
<!DOCTYPE svg PUBLIC "-//W3C//DTD SVG 1.1//EN"
 "http://www.w3.org/Graphics/SVG/1.1/DTD/svg11.dtd">
<!-- Generated by graphviz version 2.43.0 (0)
 -->
<!-- Title: BaseAsmParser Pages: 1 -->
<svg width="160pt" height="192pt"
 viewBox="0.00 0.00 160.00 192.00" xmlns="http://www.w3.org/2000/svg" xmlns:xlink="http://www.w3.org/1999/xlink">
<g id="graph0" class="graph" transform="scale(1 1) rotate(0) translate(4 188)">
<title>BaseAsmParser</title>
<!-- Node1 -->
<g id="Node000001" class="node">
<title>Node1</title>
<g id="a_Node000001"><a xlink:title="Base class of parser assembly section.">
<polygon fill="#999999" stroke="#666666" points="117,-74 25,-74 25,-55 117,-55 117,-74"/>
<text text-anchor="middle" x="71" y="-62" font-family="Helvetica,sans-Serif" font-size="10.00">BaseAsmParser</text>
</a>
</g>
</g>
<!-- Node5 -->
<g id="Node000005" class="node">
<title>Node5</title>
<g id="a_Node000005"><a xlink:href="class_asm_parser.html" target="_top" xlink:title=" ">
<polygon fill="white" stroke="#bfbfbf" points="105,-19 37,-19 37,0 105,0 105,-19"/>
<text text-anchor="middle" x="71" y="-7" font-family="Helvetica,sans-Serif" font-size="10.00">AsmParser</text>
</a>
</g>
</g>
<!-- Node1&#45;&gt;Node5 -->
<g id="edge4_Node000001_Node000005" class="edge">
<title>Node1&#45;&gt;Node5</title>
<g id="a_edge4_Node000001_Node000005"><a xlink:title=" ">
<path fill="none" stroke="#63b8ff" d="M71,-44.66C71,-35.93 71,-25.99 71,-19.09"/>
<polygon fill="#63b8ff" stroke="#63b8ff" points="67.5,-44.75 71,-54.75 74.5,-44.75 67.5,-44.75"/>
</a>
</g>
</g>
<!-- Node2 -->
<g id="Node000002" class="node">
<title>Node2</title>
<g id="a_Node000002"><a xlink:href="class_section.html" target="_top" xlink:title=" ">
<polygon fill="white" stroke="#666666" points="97.5,-129 44.5,-129 44.5,-110 97.5,-110 97.5,-129"/>
<text text-anchor="middle" x="71" y="-117" font-family="Helvetica,sans-Serif" font-size="10.00">Section</text>
</a>
</g>
</g>
<!-- Node2&#45;&gt;Node1 -->
<g id="edge1_Node000001_Node000002" class="edge">
<title>Node2&#45;&gt;Node1</title>
<g id="a_edge1_Node000001_Node000002"><a xlink:title=" ">
<path fill="none" stroke="#63b8ff" d="M71,-99.66C71,-90.93 71,-80.99 71,-74.09"/>
<polygon fill="#63b8ff" stroke="#63b8ff" points="67.5,-99.75 71,-109.75 74.5,-99.75 67.5,-99.75"/>
</a>
</g>
</g>
<!-- Node3 -->
<g id="Node000003" class="node">
<title>Node3</title>
<g id="a_Node000003"><a xlink:title=" ">
<polygon fill="white" stroke="#bfbfbf" points="58,-184 0,-184 0,-165 58,-165 58,-184"/>
<text text-anchor="middle" x="29" y="-172" font-family="Helvetica,sans-Serif" font-size="10.00">Parsable</text>
</a>
</g>
</g>
<!-- Node3&#45;&gt;Node2 -->
<g id="edge2_Node000002_Node000003" class="edge">
<title>Node3&#45;&gt;Node2</title>
<g id="a_edge2_Node000002_Node000003"><a xlink:title=" ">
<path fill="none" stroke="#63b8ff" d="M42.33,-156.67C49.61,-147.5 58.3,-136.52 64.19,-129.09"/>
<polygon fill="#63b8ff" stroke="#63b8ff" points="39.4,-154.74 35.94,-164.75 44.89,-159.08 39.4,-154.74"/>
</a>
</g>
</g>
<!-- Node4 -->
<g id="Node000004" class="node">
<title>Node4</title>
<g id="a_Node000004"><a xlink:title=" ">
<polygon fill="white" stroke="#bfbfbf" points="152,-184 76,-184 76,-165 152,-165 152,-184"/>
<text text-anchor="middle" x="114" y="-172" font-family="Helvetica,sans-Serif" font-size="10.00">Contextable</text>
</a>
</g>
</g>
<!-- Node4&#45;&gt;Node2 -->
<g id="edge3_Node000002_Node000004" class="edge">
<title>Node4&#45;&gt;Node2</title>
<g id="a_edge3_Node000002_Node000004"><a xlink:title=" ">
<path fill="none" stroke="#63b8ff" d="M100.58,-156.96C93.09,-147.72 84.06,-136.6 77.97,-129.09"/>
<polygon fill="#63b8ff" stroke="#63b8ff" points="97.88,-159.19 106.9,-164.75 103.32,-154.78 97.88,-159.19"/>
</a>
</g>
</g>
</g>
</svg>
