<?xml version="1.0" encoding="UTF-8" standalone="no"?>
<!DOCTYPE svg PUBLIC "-//W3C//DTD SVG 1.1//EN"
 "http://www.w3.org/Graphics/SVG/1.1/DTD/svg11.dtd">
<!-- Generated by graphviz version 2.43.0 (0)
 -->
<!-- Title: P4::Instantiation Pages: 1 -->
<svg width="650pt" height="138pt"
 viewBox="0.00 0.00 650.00 138.00" xmlns="http://www.w3.org/2000/svg" xmlns:xlink="http://www.w3.org/1999/xlink">
<g id="graph0" class="graph" transform="scale(1 1) rotate(0) translate(4 134)">
<title>P4::Instantiation</title>
<!-- Node1 -->
<g id="Node000001" class="node">
<title>Node1</title>
<g id="a_Node000001"><a xlink:title="Used to resolve a Declaration_Instance.">
<polygon fill="#999999" stroke="#666666" points="470,-74 374,-74 374,-55 470,-55 470,-74"/>
<text text-anchor="middle" x="422" y="-62" font-family="Helvetica,sans-Serif" font-size="10.00">P4::Instantiation</text>
</a>
</g>
</g>
<!-- Node5 -->
<g id="Node000005" class="node">
<title>Node5</title>
<g id="a_Node000005"><a xlink:href="class_p4_1_1_control_instantiation.html" target="_top" xlink:title=" ">
<polygon fill="white" stroke="#bfbfbf" points="639.5,-130 508.5,-130 508.5,-111 639.5,-111 639.5,-130"/>
<text text-anchor="middle" x="574" y="-118" font-family="Helvetica,sans-Serif" font-size="10.00">P4::ControlInstantiation</text>
</a>
</g>
</g>
<!-- Node1&#45;&gt;Node5 -->
<g id="edge4_Node000001_Node000005" class="edge">
<title>Node1&#45;&gt;Node5</title>
<g id="a_edge4_Node000001_Node000005"><a xlink:title=" ">
<path fill="none" stroke="#63b8ff" d="M450.67,-78.58C466.59,-86.31 487.11,-95.69 506,-102.5 514.61,-105.6 524.02,-108.45 532.98,-110.92"/>
<polygon fill="#63b8ff" stroke="#63b8ff" points="451.93,-75.3 441.42,-74.01 448.84,-81.58 451.93,-75.3"/>
</a>
</g>
</g>
<!-- Node6 -->
<g id="Node000006" class="node">
<title>Node6</title>
<g id="a_Node000006"><a xlink:href="class_p4_1_1_extern_instantiation.html" target="_top" xlink:title=" ">
<polygon fill="white" stroke="#bfbfbf" points="638,-93 510,-93 510,-74 638,-74 638,-93"/>
<text text-anchor="middle" x="574" y="-81" font-family="Helvetica,sans-Serif" font-size="10.00">P4::ExternInstantiation</text>
</a>
</g>
</g>
<!-- Node1&#45;&gt;Node6 -->
<g id="edge5_Node000001_Node000006" class="edge">
<title>Node1&#45;&gt;Node6</title>
<g id="a_edge5_Node000001_Node000006"><a xlink:title=" ">
<path fill="none" stroke="#63b8ff" d="M480.03,-71.72C489.79,-72.96 499.98,-74.25 509.89,-75.51"/>
<polygon fill="#63b8ff" stroke="#63b8ff" points="480.41,-68.24 470.05,-70.46 479.53,-75.19 480.41,-68.24"/>
</a>
</g>
</g>
<!-- Node7 -->
<g id="Node000007" class="node">
<title>Node7</title>
<g id="a_Node000007"><a xlink:href="class_p4_1_1_package_instantiation.html" target="_top" xlink:title=" ">
<polygon fill="white" stroke="#bfbfbf" points="642,-56 506,-56 506,-37 642,-37 642,-56"/>
<text text-anchor="middle" x="574" y="-44" font-family="Helvetica,sans-Serif" font-size="10.00">P4::PackageInstantiation</text>
</a>
</g>
</g>
<!-- Node1&#45;&gt;Node7 -->
<g id="edge6_Node000001_Node000007" class="edge">
<title>Node1&#45;&gt;Node7</title>
<g id="a_edge6_Node000001_Node000007"><a xlink:title=" ">
<path fill="none" stroke="#63b8ff" d="M480.1,-57.65C488.5,-56.64 497.21,-55.59 505.79,-54.57"/>
<polygon fill="#63b8ff" stroke="#63b8ff" points="479.56,-54.19 470.05,-58.85 480.4,-61.14 479.56,-54.19"/>
</a>
</g>
</g>
<!-- Node8 -->
<g id="Node000008" class="node">
<title>Node8</title>
<g id="a_Node000008"><a xlink:href="class_p4_1_1_parser_instantiation.html" target="_top" xlink:title=" ">
<polygon fill="white" stroke="#bfbfbf" points="637,-19 511,-19 511,0 637,0 637,-19"/>
<text text-anchor="middle" x="574" y="-7" font-family="Helvetica,sans-Serif" font-size="10.00">P4::ParserInstantiation</text>
</a>
</g>
</g>
<!-- Node1&#45;&gt;Node8 -->
<g id="edge7_Node000001_Node000008" class="edge">
<title>Node1&#45;&gt;Node8</title>
<g id="a_edge7_Node000001_Node000008"><a xlink:title=" ">
<path fill="none" stroke="#63b8ff" d="M451.34,-50.54C467.17,-43.08 487.41,-34.1 506,-27.5 514.74,-24.4 524.28,-21.54 533.36,-19.05"/>
<polygon fill="#63b8ff" stroke="#63b8ff" points="449.62,-47.48 442.1,-54.95 452.64,-53.8 449.62,-47.48"/>
</a>
</g>
</g>
<!-- Node2 -->
<g id="Node000002" class="node">
<title>Node2</title>
<g id="a_Node000002"><a xlink:href="class_p4_1_1_instance_base.html" target="_top" xlink:title=" ">
<polygon fill="white" stroke="#bfbfbf" points="338,-74 238,-74 238,-55 338,-55 338,-74"/>
<text text-anchor="middle" x="288" y="-62" font-family="Helvetica,sans-Serif" font-size="10.00">P4::InstanceBase</text>
</a>
</g>
</g>
<!-- Node2&#45;&gt;Node1 -->
<g id="edge1_Node000001_Node000002" class="edge">
<title>Node2&#45;&gt;Node1</title>
<g id="a_edge1_Node000001_Node000002"><a xlink:title=" ">
<path fill="none" stroke="#63b8ff" d="M348.19,-64.5C356.84,-64.5 365.64,-64.5 374,-64.5"/>
<polygon fill="#63b8ff" stroke="#63b8ff" points="348.15,-61 338.15,-64.5 348.15,-68 348.15,-61"/>
</a>
</g>
</g>
<!-- Node3 -->
<g id="Node000003" class="node">
<title>Node3</title>
<g id="a_Node000003"><a xlink:href="class_p4_1_1_i_castable.html" target="_top" xlink:title=" ">
<polygon fill="white" stroke="#666666" points="202,-74 122,-74 122,-55 202,-55 202,-74"/>
<text text-anchor="middle" x="162" y="-62" font-family="Helvetica,sans-Serif" font-size="10.00">P4::ICastable</text>
</a>
</g>
</g>
<!-- Node3&#45;&gt;Node2 -->
<g id="edge2_Node000002_Node000003" class="edge">
<title>Node3&#45;&gt;Node2</title>
<g id="a_edge2_Node000002_Node000003"><a xlink:title=" ">
<path fill="none" stroke="#63b8ff" d="M212.33,-64.5C220.78,-64.5 229.55,-64.5 237.99,-64.5"/>
<polygon fill="#63b8ff" stroke="#63b8ff" points="212.23,-61 202.23,-64.5 212.23,-68 212.23,-61"/>
</a>
</g>
</g>
<!-- Node4 -->
<g id="Node000004" class="node">
<title>Node4</title>
<g id="a_Node000004"><a xlink:href="struct_p4_1_1_r_t_t_i_1_1_base.html" target="_top" xlink:title=" ">
<polygon fill="white" stroke="#bfbfbf" points="86,-74 0,-74 0,-55 86,-55 86,-74"/>
<text text-anchor="middle" x="43" y="-62" font-family="Helvetica,sans-Serif" font-size="10.00">P4::RTTI::Base</text>
</a>
</g>
</g>
<!-- Node4&#45;&gt;Node3 -->
<g id="edge3_Node000003_Node000004" class="edge">
<title>Node4&#45;&gt;Node3</title>
<g id="a_edge3_Node000003_Node000004"><a xlink:title=" ">
<path fill="none" stroke="#63b8ff" d="M96.25,-64.5C104.88,-64.5 113.7,-64.5 121.94,-64.5"/>
<polygon fill="#63b8ff" stroke="#63b8ff" points="96.24,-61 86.24,-64.5 96.24,-68 96.24,-61"/>
</a>
</g>
</g>
</g>
</svg>
