<?xml version="1.0" encoding="UTF-8" standalone="no"?>
<!DOCTYPE svg PUBLIC "-//W3C//DTD SVG 1.1//EN"
 "http://www.w3.org/Graphics/SVG/1.1/DTD/svg11.dtd">
<!-- Generated by graphviz version 2.43.0 (0)
 -->
<!-- Title: P4::P4V1::ProgramStructure Pages: 1 -->
<svg width="371pt" height="82pt"
 viewBox="0.00 0.00 370.50 82.00" xmlns="http://www.w3.org/2000/svg" xmlns:xlink="http://www.w3.org/1999/xlink">
<g id="graph0" class="graph" transform="scale(1 1) rotate(0) translate(4 78)">
<title>P4::P4V1::ProgramStructure</title>
<!-- Node1 -->
<g id="Node000001" class="node">
<title>Node1</title>
<g id="a_Node000001"><a xlink:title="Information about the structure of a P4&#45;14 program, used to convert it to a P4&#45;16 program.">
<polygon fill="#999999" stroke="#666666" points="258.5,-74 107.5,-74 107.5,-55 258.5,-55 258.5,-74"/>
<text text-anchor="middle" x="183" y="-62" font-family="Helvetica,sans-Serif" font-size="10.00">P4::P4V1::ProgramStructure</text>
</a>
</g>
</g>
<!-- Node2 -->
<g id="Node000002" class="node">
<title>Node2</title>
<g id="a_Node000002"><a xlink:href="class_p4_1_1_p4_v1_1_1_t_n_a___program_structure.html" target="_top" xlink:title=" ">
<polygon fill="white" stroke="#bfbfbf" points="176,-19 0,-19 0,0 176,0 176,-19"/>
<text text-anchor="middle" x="88" y="-7" font-family="Helvetica,sans-Serif" font-size="10.00">P4::P4V1::TNA_ProgramStructure</text>
</a>
</g>
</g>
<!-- Node1&#45;&gt;Node2 -->
<g id="edge1_Node000001_Node000002" class="edge">
<title>Node1&#45;&gt;Node2</title>
<g id="a_edge1_Node000001_Node000002"><a xlink:title=" ">
<path fill="none" stroke="#63b8ff" d="M158.74,-49.97C141.37,-40.28 118.51,-27.52 103.54,-19.17"/>
<polygon fill="#63b8ff" stroke="#63b8ff" points="157.3,-53.17 167.74,-54.98 160.71,-47.06 157.3,-53.17"/>
</a>
</g>
</g>
<!-- Node3 -->
<g id="Node000003" class="node">
<title>Node3</title>
<g id="a_Node000003"><a xlink:href="class_p4_1_1_p4_v1_1_1_tna_program_structure.html" target="_top" xlink:title=" ">
<polygon fill="white" stroke="#666666" points="362.5,-19 193.5,-19 193.5,0 362.5,0 362.5,-19"/>
<text text-anchor="middle" x="278" y="-7" font-family="Helvetica,sans-Serif" font-size="10.00">P4::P4V1::TnaProgramStructure</text>
</a>
</g>
</g>
<!-- Node1&#45;&gt;Node3 -->
<g id="edge2_Node000001_Node000003" class="edge">
<title>Node1&#45;&gt;Node3</title>
<g id="a_edge2_Node000001_Node000003"><a xlink:title=" ">
<path fill="none" stroke="#63b8ff" d="M207.26,-49.97C224.63,-40.28 247.49,-27.52 262.46,-19.17"/>
<polygon fill="#63b8ff" stroke="#63b8ff" points="205.29,-47.06 198.26,-54.98 208.7,-53.17 205.29,-47.06"/>
</a>
</g>
</g>
</g>
</svg>
