<?xml version="1.0" encoding="UTF-8" standalone="no"?>
<!DOCTYPE svg PUBLIC "-//W3C//DTD SVG 1.1//EN"
 "http://www.w3.org/Graphics/SVG/1.1/DTD/svg11.dtd">
<!-- Generated by graphviz version 2.43.0 (0)
 -->
<!-- Title: BFN::V1::TranslateParserChecksums Pages: 1 -->
<svg width="153pt" height="203pt"
 viewBox="0.00 0.00 152.50 203.00" xmlns="http://www.w3.org/2000/svg" xmlns:xlink="http://www.w3.org/1999/xlink">
<g id="graph0" class="graph" transform="scale(1 1) rotate(0) translate(4 199)">
<title>BFN::V1::TranslateParserChecksums</title>
<!-- Node1 -->
<g id="Node000001" class="node">
<title>Node1</title>
<g id="a_Node000001"><a xlink:title=" ">
<polygon fill="#999999" stroke="#666666" points="136,-30 0,-30 0,0 136,0 136,-30"/>
<text text-anchor="start" x="8" y="-18" font-family="Helvetica,sans-Serif" font-size="10.00">BFN::V1::TranslateParser</text>
<text text-anchor="middle" x="68" y="-7" font-family="Helvetica,sans-Serif" font-size="10.00">Checksums</text>
</a>
</g>
</g>
<!-- Node2 -->
<g id="Node000002" class="node">
<title>Node2</title>
<g id="a_Node000002"><a xlink:href="class_p4_1_1_pass_manager.html" target="_top" xlink:title=" ">
<polygon fill="white" stroke="#bfbfbf" points="117.5,-85 18.5,-85 18.5,-66 117.5,-66 117.5,-85"/>
<text text-anchor="middle" x="68" y="-73" font-family="Helvetica,sans-Serif" font-size="10.00">P4::PassManager</text>
</a>
</g>
</g>
<!-- Node2&#45;&gt;Node1 -->
<g id="edge1_Node000001_Node000002" class="edge">
<title>Node2&#45;&gt;Node1</title>
<g id="a_edge1_Node000001_Node000002"><a xlink:title=" ">
<path fill="none" stroke="#63b8ff" d="M68,-55.65C68,-47.36 68,-37.78 68,-30.11"/>
<polygon fill="#63b8ff" stroke="#63b8ff" points="64.5,-55.87 68,-65.87 71.5,-55.87 64.5,-55.87"/>
</a>
</g>
</g>
<!-- Node3 -->
<g id="Node000003" class="node">
<title>Node3</title>
<g id="a_Node000003"><a xlink:href="class_p4_1_1_visitor.html" target="_top" xlink:title=" ">
<polygon fill="white" stroke="#bfbfbf" points="101,-195 35,-195 35,-176 101,-176 101,-195"/>
<text text-anchor="middle" x="68" y="-183" font-family="Helvetica,sans-Serif" font-size="10.00">P4::Visitor</text>
</a>
</g>
</g>
<!-- Node3&#45;&gt;Node2 -->
<g id="edge2_Node000002_Node000003" class="edge">
<title>Node3&#45;&gt;Node2</title>
<g id="a_edge2_Node000002_Node000003"><a xlink:title=" ">
<path fill="none" stroke="#63b8ff" d="M59.94,-166.54C56.8,-158.58 53.57,-149 52,-140 48.52,-120.06 57.62,-97.15 63.48,-85.04"/>
<polygon fill="#63b8ff" stroke="#63b8ff" points="56.77,-168.03 63.89,-175.88 63.22,-165.31 56.77,-168.03"/>
</a>
</g>
</g>
<!-- Node4 -->
<g id="Node000004" class="node">
<title>Node4</title>
<g id="a_Node000004"><a xlink:href="class_p4_1_1_backtrack.html" target="_top" xlink:title=" ">
<polygon fill="white" stroke="#bfbfbf" points="144.5,-140 61.5,-140 61.5,-121 144.5,-121 144.5,-140"/>
<text text-anchor="middle" x="103" y="-128" font-family="Helvetica,sans-Serif" font-size="10.00">P4::Backtrack</text>
</a>
</g>
</g>
<!-- Node3&#45;&gt;Node4 -->
<g id="edge4_Node000004_Node000003" class="edge">
<title>Node3&#45;&gt;Node4</title>
<g id="a_edge4_Node000004_Node000003"><a xlink:title=" ">
<path fill="none" stroke="#63b8ff" d="M79.3,-167.39C85.32,-158.27 92.47,-147.45 97.33,-140.09"/>
<polygon fill="#63b8ff" stroke="#63b8ff" points="76.37,-165.47 73.78,-175.75 82.21,-169.33 76.37,-165.47"/>
</a>
</g>
</g>
<!-- Node4&#45;&gt;Node2 -->
<g id="edge3_Node000002_Node000004" class="edge">
<title>Node4&#45;&gt;Node2</title>
<g id="a_edge3_Node000002_Node000004"><a xlink:title=" ">
<path fill="none" stroke="#63b8ff" d="M91.7,-112.39C85.68,-103.27 78.53,-92.45 73.67,-85.09"/>
<polygon fill="#63b8ff" stroke="#63b8ff" points="88.79,-114.33 97.22,-120.75 94.63,-110.47 88.79,-114.33"/>
</a>
</g>
</g>
</g>
</svg>
