<?xml version="1.0" encoding="UTF-8" standalone="no"?>
<!DOCTYPE svg PUBLIC "-//W3C//DTD SVG 1.1//EN"
 "http://www.w3.org/Graphics/SVG/1.1/DTD/svg11.dtd">
<!-- Generated by graphviz version 2.43.0 (0)
 -->
<!-- Title: P4::P4Tools::P4Testgen::AbstractStepper Pages: 1 -->
<!--zoomable 470 -->

<svg id="main" version="1.1" xmlns="http://www.w3.org/2000/svg" xmlns:xlink="http://www.w3.org/1999/xlink" xml:space="preserve" onload="init(evt)">

<style type="text/css"><![CDATA[
.node, .edge {opacity: 0.7;}
.node.selected, .edge.selected {opacity: 1;}
.edge:hover path { stroke: red; }
.edge:hover polygon { stroke: red; fill: red; }
]]></style>

<defs>
  <circle id="rim" cx="0" cy="0" r="7"/>
  <circle id="rim2" cx="0" cy="0" r="3.5"/>
  <g id="zoomPlus">
    <use xlink:href="#rim" fill="#404040"><set attributeName="fill" to="#808080" begin="zoomplus.mouseover" end="zoomplus.mouseout"/></use>
    <path d="M-4,0h8M0,-4v8" fill="none" stroke="white" stroke-width="1.5" pointer-events="none"/>
  </g>
  <g id="zoomMin">
    <use xlink:href="#rim" fill="#404040"><set attributeName="fill" to="#808080" begin="zoomminus.mouseover" end="zoomminus.mouseout"/></use>
    <path d="M-4,0h8" fill="none" stroke="white" stroke-width="1.5" pointer-events="none"/>
  </g>
  <g id="arrowUp" transform="translate(30 24)">
    <use xlink:href="#rim"/>
    <path pointer-events="none" fill="none" stroke="white" stroke-width="1.5" d="M0,-3.0v7 M-2.5,-0.5L0,-3.0L2.5,-0.5"/>
  </g>
  <g id="arrowRight" transform="rotate(90) translate(36 -43)">
    <use xlink:href="#rim"/>
    <path pointer-events="none" fill="none" stroke="white" stroke-width="1.5" d="M0,-3.0v7 M-2.5,-0.5L0,-3.0L2.5,-0.5"/>
  </g>
  <g id="arrowDown" transform="rotate(180) translate(-30 -48)">
    <use xlink:href="#rim"/>
    <path pointer-events="none" fill="none" stroke="white" stroke-width="1.5" d="M0,-3.0v7 M-2.5,-0.5L0,-3.0L2.5,-0.5"/>
  </g>
  <g id="arrowLeft" transform="rotate(270) translate(-36 17)">
    <use xlink:href="#rim"/>
    <path pointer-events="none" fill="none" stroke="white" stroke-width="1.5" d="M0,-3.0v7 M-2.5,-0.5L0,-3.0L2.5,-0.5"/>
  </g>
  <g id="resetDef">
    <use xlink:href="#rim2" fill="#404040"><set attributeName="fill" to="#808080" begin="reset.mouseover" end="reset.mouseout"/></use>
  </g>
</defs>
<script type="application/ecmascript">
var viewWidth = 927;
var viewHeight = 470;
var sectionId = 'dynsection-0';
</script>
<script type="application/ecmascript" xlink:href="svg.min.js"/>
<svg id="graph" class="graph">
<g id="viewport">
<title>P4::P4Tools::P4Testgen::AbstractStepper</title>
<!-- Node1 -->
<g id="Node000001" class="node">
<title>Node1</title>
<g id="a_Node000001"><a xlink:title=" ">
<polygon fill="#999999" stroke="#666666" points="345,-246 218,-246 218,-216 345,-216 345,-246"/>
<text text-anchor="start" x="226" y="-234" font-family="Helvetica,sans-Serif" font-size="10.00">P4::P4Tools::P4Testgen</text>
<text text-anchor="middle" x="281.5" y="-223" font-family="Helvetica,sans-Serif" font-size="10.00">::AbstractStepper</text>
</a>
</g>
</g>
<!-- Node4 -->
<g id="Node000004" class="node">
<title>Node4</title>
<g id="a_Node000004"><a xlink:href="class_p4_1_1_p4_tools_1_1_p4_testgen_1_1_cmd_stepper.html" target="_top" xlink:title="Implements small&#45;step operational semantics for commands.">
<polygon fill="white" stroke="#666666" points="508,-342 381,-342 381,-312 508,-312 508,-342"/>
<text text-anchor="start" x="389" y="-330" font-family="Helvetica,sans-Serif" font-size="10.00">P4::P4Tools::P4Testgen</text>
<text text-anchor="middle" x="444.5" y="-319" font-family="Helvetica,sans-Serif" font-size="10.00">::CmdStepper</text>
</a>
</g>
</g>
<!-- Node1&#45;&gt;Node4 -->
<g id="edge3_Node000001_Node000004" class="edge">
<title>Node1&#45;&gt;Node4</title>
<g id="a_edge3_Node000001_Node000004"><a xlink:title=" ">
<path fill="none" stroke="#63b8ff" d="M316.63,-251.35C347.06,-269.49 390.89,-295.63 418.26,-311.95"/>
<polygon fill="#63b8ff" stroke="#63b8ff" points="318.04,-248.12 307.66,-246 314.45,-254.13 318.04,-248.12"/>
</a>
</g>
</g>
<!-- Node11 -->
<g id="Node000011" class="node">
<title>Node11</title>
<g id="a_Node000011"><a xlink:href="class_p4_1_1_p4_tools_1_1_p4_testgen_1_1_expr_stepper.html" target="_top" xlink:title="Implements small&#45;step operational semantics for expressions.">
<polygon fill="white" stroke="#666666" points="508,-174 381,-174 381,-144 508,-144 508,-174"/>
<text text-anchor="start" x="389" y="-162" font-family="Helvetica,sans-Serif" font-size="10.00">P4::P4Tools::P4Testgen</text>
<text text-anchor="middle" x="444.5" y="-151" font-family="Helvetica,sans-Serif" font-size="10.00">::ExprStepper</text>
</a>
</g>
</g>
<!-- Node1&#45;&gt;Node11 -->
<g id="edge10_Node000001_Node000011" class="edge">
<title>Node1&#45;&gt;Node11</title>
<g id="a_edge10_Node000001_Node000011"><a xlink:title=" ">
<path fill="none" stroke="#63b8ff" d="M325.64,-211.71C352.04,-199.9 385.33,-185.01 409.79,-174.07"/>
<polygon fill="#63b8ff" stroke="#63b8ff" points="323.95,-208.63 316.25,-215.91 326.81,-215.02 323.95,-208.63"/>
</a>
</g>
</g>
<!-- Node2 -->
<g id="Node000002" class="node">
<title>Node2</title>
<g id="a_Node000002"><a xlink:href="class_p4_1_1_inspector.html" target="_top" xlink:title=" ">
<polygon fill="white" stroke="#bfbfbf" points="182,-240.5 102,-240.5 102,-221.5 182,-221.5 182,-240.5"/>
<text text-anchor="middle" x="142" y="-228.5" font-family="Helvetica,sans-Serif" font-size="10.00">P4::Inspector</text>
</a>
</g>
</g>
<!-- Node2&#45;&gt;Node1 -->
<g id="edge1_Node000001_Node000002" class="edge">
<title>Node2&#45;&gt;Node1</title>
<g id="a_edge1_Node000001_Node000002"><a xlink:title=" ">
<path fill="none" stroke="#63b8ff" d="M192.31,-231C200.63,-231 209.36,-231 217.96,-231"/>
<polygon fill="#63b8ff" stroke="#63b8ff" points="192.03,-227.5 182.03,-231 192.03,-234.5 192.03,-227.5"/>
</a>
</g>
</g>
<!-- Node3 -->
<g id="Node000003" class="node">
<title>Node3</title>
<g id="a_Node000003"><a xlink:href="class_p4_1_1_visitor.html" target="_top" xlink:title=" ">
<polygon fill="white" stroke="#bfbfbf" points="66,-240.5 0,-240.5 0,-221.5 66,-221.5 66,-240.5"/>
<text text-anchor="middle" x="33" y="-228.5" font-family="Helvetica,sans-Serif" font-size="10.00">P4::Visitor</text>
</a>
</g>
</g>
<!-- Node3&#45;&gt;Node2 -->
<g id="edge2_Node000002_Node000003" class="edge">
<title>Node3&#45;&gt;Node2</title>
<g id="a_edge2_Node000002_Node000003"><a xlink:title=" ">
<path fill="none" stroke="#63b8ff" d="M76.13,-231C84.57,-231 93.4,-231 101.73,-231"/>
<polygon fill="#63b8ff" stroke="#63b8ff" points="76.1,-227.5 66.1,-231 76.1,-234.5 76.1,-227.5"/>
</a>
</g>
</g>
<!-- Node5 -->
<g id="Node000005" class="node">
<title>Node5</title>
<g id="a_Node000005"><a xlink:href="class_p4_1_1_p4_tools_1_1_p4_testgen_1_1_bmv2_1_1_bmv2_v1_model_cmd_stepper.html" target="_top" xlink:title=" ">
<polygon fill="white" stroke="#bfbfbf" points="732,-462 544,-462 544,-432 732,-432 732,-462"/>
<text text-anchor="start" x="552" y="-450" font-family="Helvetica,sans-Serif" font-size="10.00">P4::P4Tools::P4Testgen</text>
<text text-anchor="middle" x="638" y="-439" font-family="Helvetica,sans-Serif" font-size="10.00">::Bmv2::Bmv2V1ModelCmdStepper</text>
</a>
</g>
</g>
<!-- Node4&#45;&gt;Node5 -->
<g id="edge4_Node000004_Node000005" class="edge">
<title>Node4&#45;&gt;Node5</title>
<g id="a_edge4_Node000004_Node000005"><a xlink:title=" ">
<path fill="none" stroke="#63b8ff" d="M463.05,-350C481.03,-371.97 510.97,-404.41 544,-423 550.1,-426.43 556.71,-429.39 563.48,-431.93"/>
<polygon fill="#63b8ff" stroke="#63b8ff" points="465.74,-347.76 456.76,-342.14 460.28,-352.14 465.74,-347.76"/>
</a>
</g>
</g>
<!-- Node6 -->
<g id="Node000006" class="node">
<title>Node6</title>
<g id="a_Node000006"><a xlink:href="class_p4_1_1_p4_tools_1_1_p4_testgen_1_1_e_b_p_f_1_1_e_b_p_f_cmd_stepper.html" target="_top" xlink:title=" ">
<polygon fill="white" stroke="#bfbfbf" points="706.5,-414 569.5,-414 569.5,-384 706.5,-384 706.5,-414"/>
<text text-anchor="start" x="577.5" y="-402" font-family="Helvetica,sans-Serif" font-size="10.00">P4::P4Tools::P4Testgen</text>
<text text-anchor="middle" x="638" y="-391" font-family="Helvetica,sans-Serif" font-size="10.00">::EBPF::EBPFCmdStepper</text>
</a>
</g>
</g>
<!-- Node4&#45;&gt;Node6 -->
<g id="edge5_Node000004_Node000006" class="edge">
<title>Node4&#45;&gt;Node6</title>
<g id="a_edge5_Node000004_Node000006"><a xlink:title=" ">
<path fill="none" stroke="#63b8ff" d="M481.98,-346.95C500.22,-356.37 522.87,-367.22 544,-375 552.92,-378.29 562.48,-381.3 571.95,-384"/>
<polygon fill="#63b8ff" stroke="#63b8ff" points="483.35,-343.72 472.87,-342.19 480.11,-349.92 483.35,-343.72"/>
</a>
</g>
</g>
<!-- Node7 -->
<g id="Node000007" class="node">
<title>Node7</title>
<g id="a_Node000007"><a xlink:href="class_p4_1_1_p4_tools_1_1_p4_testgen_1_1_pna_1_1_shared_pna_cmd_stepper.html" target="_top" xlink:title=" ">
<polygon fill="white" stroke="#bfbfbf" points="717,-366 559,-366 559,-336 717,-336 717,-366"/>
<text text-anchor="start" x="567" y="-354" font-family="Helvetica,sans-Serif" font-size="10.00">P4::P4Tools::P4Testgen</text>
<text text-anchor="middle" x="638" y="-343" font-family="Helvetica,sans-Serif" font-size="10.00">::Pna::SharedPnaCmdStepper</text>
</a>
</g>
</g>
<!-- Node4&#45;&gt;Node7 -->
<g id="edge6_Node000004_Node000007" class="edge">
<title>Node4&#45;&gt;Node7</title>
<g id="a_edge6_Node000004_Node000007"><a xlink:title=" ">
<path fill="none" stroke="#63b8ff" d="M518.2,-336.11C531.46,-337.77 545.34,-339.51 558.75,-341.19"/>
<polygon fill="#63b8ff" stroke="#63b8ff" points="518.56,-332.63 508.2,-334.86 517.69,-339.57 518.56,-332.63"/>
</a>
</g>
</g>
<!-- Node9 -->
<g id="Node000009" class="node">
<title>Node9</title>
<g id="a_Node000009"><a xlink:href="class_p4_1_1_p4_tools_1_1_p4_testgen_1_1_tofino_1_1_j_bay_cmd_stepper.html" target="_top" xlink:title=" ">
<polygon fill="white" stroke="#bfbfbf" points="707.5,-318 568.5,-318 568.5,-288 707.5,-288 707.5,-318"/>
<text text-anchor="start" x="576.5" y="-306" font-family="Helvetica,sans-Serif" font-size="10.00">P4::P4Tools::P4Testgen</text>
<text text-anchor="middle" x="638" y="-295" font-family="Helvetica,sans-Serif" font-size="10.00">::Tofino::JBayCmdStepper</text>
</a>
</g>
</g>
<!-- Node4&#45;&gt;Node9 -->
<g id="edge8_Node000004_Node000009" class="edge">
<title>Node4&#45;&gt;Node9</title>
<g id="a_edge8_Node000004_Node000009"><a xlink:title=" ">
<path fill="none" stroke="#63b8ff" d="M518.26,-317.88C534.65,-315.83 551.99,-313.65 568.2,-311.62"/>
<polygon fill="#63b8ff" stroke="#63b8ff" points="517.69,-314.43 508.2,-319.14 518.56,-321.37 517.69,-314.43"/>
</a>
</g>
</g>
<!-- Node10 -->
<g id="Node000010" class="node">
<title>Node10</title>
<g id="a_Node000010"><a xlink:href="class_p4_1_1_p4_tools_1_1_p4_testgen_1_1_tofino_1_1_tofino_cmd_stepper.html" target="_top" xlink:title=" ">
<polygon fill="white" stroke="#bfbfbf" points="711,-270 565,-270 565,-240 711,-240 711,-270"/>
<text text-anchor="start" x="573" y="-258" font-family="Helvetica,sans-Serif" font-size="10.00">P4::P4Tools::P4Testgen</text>
<text text-anchor="middle" x="638" y="-247" font-family="Helvetica,sans-Serif" font-size="10.00">::Tofino::TofinoCmdStepper</text>
</a>
</g>
</g>
<!-- Node4&#45;&gt;Node10 -->
<g id="edge9_Node000004_Node000010" class="edge">
<title>Node4&#45;&gt;Node10</title>
<g id="a_edge9_Node000004_Node000010"><a xlink:title=" ">
<path fill="none" stroke="#63b8ff" d="M481.98,-307.05C500.22,-297.63 522.87,-286.78 544,-279 552.92,-275.71 562.48,-272.7 571.95,-270"/>
<polygon fill="#63b8ff" stroke="#63b8ff" points="480.11,-304.08 472.87,-311.81 483.35,-310.28 480.11,-304.08"/>
</a>
</g>
</g>
<!-- Node8 -->
<g id="Node000008" class="node">
<title>Node8</title>
<g id="a_Node000008"><a xlink:href="class_p4_1_1_p4_tools_1_1_p4_testgen_1_1_pna_1_1_pna_dpdk_cmd_stepper.html" target="_top" xlink:title=" ">
<polygon fill="white" stroke="#bfbfbf" points="918.5,-366 768.5,-366 768.5,-336 918.5,-336 918.5,-366"/>
<text text-anchor="start" x="776.5" y="-354" font-family="Helvetica,sans-Serif" font-size="10.00">P4::P4Tools::P4Testgen</text>
<text text-anchor="middle" x="843.5" y="-343" font-family="Helvetica,sans-Serif" font-size="10.00">::Pna::PnaDpdkCmdStepper</text>
</a>
</g>
</g>
<!-- Node7&#45;&gt;Node8 -->
<g id="edge7_Node000007_Node000008" class="edge">
<title>Node7&#45;&gt;Node8</title>
<g id="a_edge7_Node000007_Node000008"><a xlink:title=" ">
<path fill="none" stroke="#63b8ff" d="M727.44,-351C741.07,-351 755.02,-351 768.29,-351"/>
<polygon fill="#63b8ff" stroke="#63b8ff" points="727.1,-347.5 717.1,-351 727.1,-354.5 727.1,-347.5"/>
</a>
</g>
</g>
<!-- Node12 -->
<g id="Node000012" class="node">
<title>Node12</title>
<g id="a_Node000012"><a xlink:href="class_p4_1_1_p4_tools_1_1_p4_testgen_1_1_bmv2_1_1_bmv2_v1_model_expr_stepper.html" target="_top" xlink:title=" ">
<polygon fill="white" stroke="#bfbfbf" points="732,-222 544,-222 544,-192 732,-192 732,-222"/>
<text text-anchor="start" x="552" y="-210" font-family="Helvetica,sans-Serif" font-size="10.00">P4::P4Tools::P4Testgen</text>
<text text-anchor="middle" x="638" y="-199" font-family="Helvetica,sans-Serif" font-size="10.00">::Bmv2::Bmv2V1ModelExprStepper</text>
</a>
</g>
</g>
<!-- Node11&#45;&gt;Node12 -->
<g id="edge11_Node000011_Node000012" class="edge">
<title>Node11&#45;&gt;Node12</title>
<g id="a_edge11_Node000011_Node000012"><a xlink:title=" ">
<path fill="none" stroke="#63b8ff" d="M515.36,-176.51C535.62,-181.59 557.56,-187.09 577.15,-192"/>
<polygon fill="#63b8ff" stroke="#63b8ff" points="516.12,-173.09 505.57,-174.06 514.42,-179.88 516.12,-173.09"/>
</a>
</g>
</g>
<!-- Node13 -->
<g id="Node000013" class="node">
<title>Node13</title>
<g id="a_Node000013"><a xlink:href="class_p4_1_1_p4_tools_1_1_p4_testgen_1_1_e_b_p_f_1_1_e_b_p_f_expr_stepper.html" target="_top" xlink:title=" ">
<polygon fill="white" stroke="#bfbfbf" points="706.5,-174 569.5,-174 569.5,-144 706.5,-144 706.5,-174"/>
<text text-anchor="start" x="577.5" y="-162" font-family="Helvetica,sans-Serif" font-size="10.00">P4::P4Tools::P4Testgen</text>
<text text-anchor="middle" x="638" y="-151" font-family="Helvetica,sans-Serif" font-size="10.00">::EBPF::EBPFExprStepper</text>
</a>
</g>
</g>
<!-- Node11&#45;&gt;Node13 -->
<g id="edge12_Node000011_Node000013" class="edge">
<title>Node11&#45;&gt;Node13</title>
<g id="a_edge12_Node000011_Node000013"><a xlink:title=" ">
<path fill="none" stroke="#63b8ff" d="M518.44,-159C535.11,-159 552.76,-159 569.2,-159"/>
<polygon fill="#63b8ff" stroke="#63b8ff" points="518.2,-155.5 508.2,-159 518.2,-162.5 518.2,-155.5"/>
</a>
</g>
</g>
<!-- Node14 -->
<g id="Node000014" class="node">
<title>Node14</title>
<g id="a_Node000014"><a xlink:href="class_p4_1_1_p4_tools_1_1_p4_testgen_1_1_pna_1_1_shared_pna_expr_stepper.html" target="_top" xlink:title=" ">
<polygon fill="white" stroke="#bfbfbf" points="717,-126 559,-126 559,-96 717,-96 717,-126"/>
<text text-anchor="start" x="567" y="-114" font-family="Helvetica,sans-Serif" font-size="10.00">P4::P4Tools::P4Testgen</text>
<text text-anchor="middle" x="638" y="-103" font-family="Helvetica,sans-Serif" font-size="10.00">::Pna::SharedPnaExprStepper</text>
</a>
</g>
</g>
<!-- Node11&#45;&gt;Node14 -->
<g id="edge13_Node000011_Node000014" class="edge">
<title>Node11&#45;&gt;Node14</title>
<g id="a_edge13_Node000011_Node000014"><a xlink:title=" ">
<path fill="none" stroke="#63b8ff" d="M515.36,-141.49C535.62,-136.41 557.56,-130.91 577.15,-126"/>
<polygon fill="#63b8ff" stroke="#63b8ff" points="514.42,-138.12 505.57,-143.94 516.12,-144.91 514.42,-138.12"/>
</a>
</g>
</g>
<!-- Node16 -->
<g id="Node000016" class="node">
<title>Node16</title>
<g id="a_Node000016"><a xlink:href="class_p4_1_1_p4_tools_1_1_p4_testgen_1_1_tofino_1_1_shared_tofino_expr_stepper.html" target="_top" xlink:title=" ">
<polygon fill="white" stroke="#bfbfbf" points="727.5,-78 548.5,-78 548.5,-48 727.5,-48 727.5,-78"/>
<text text-anchor="start" x="556.5" y="-66" font-family="Helvetica,sans-Serif" font-size="10.00">P4::P4Tools::P4Testgen</text>
<text text-anchor="middle" x="638" y="-55" font-family="Helvetica,sans-Serif" font-size="10.00">::Tofino::SharedTofinoExprStepper</text>
</a>
</g>
</g>
<!-- Node11&#45;&gt;Node16 -->
<g id="edge15_Node000011_Node000016" class="edge">
<title>Node11&#45;&gt;Node16</title>
<g id="a_edge15_Node000011_Node000016"><a xlink:title=" ">
<path fill="none" stroke="#63b8ff" d="M469.84,-137.12C488.81,-121.12 516.48,-100.02 544,-87 551.24,-83.58 559.03,-80.59 566.91,-78.01"/>
<polygon fill="#63b8ff" stroke="#63b8ff" points="467.32,-134.67 462.01,-143.84 471.88,-139.98 467.32,-134.67"/>
</a>
</g>
</g>
<!-- Node15 -->
<g id="Node000015" class="node">
<title>Node15</title>
<g id="a_Node000015"><a xlink:href="class_p4_1_1_p4_tools_1_1_p4_testgen_1_1_pna_1_1_pna_dpdk_expr_stepper.html" target="_top" xlink:title=" ">
<polygon fill="white" stroke="#bfbfbf" points="918,-126 769,-126 769,-96 918,-96 918,-126"/>
<text text-anchor="start" x="777" y="-114" font-family="Helvetica,sans-Serif" font-size="10.00">P4::P4Tools::P4Testgen</text>
<text text-anchor="middle" x="843.5" y="-103" font-family="Helvetica,sans-Serif" font-size="10.00">::Pna::PnaDpdkExprStepper</text>
</a>
</g>
</g>
<!-- Node14&#45;&gt;Node15 -->
<g id="edge14_Node000014_Node000015" class="edge">
<title>Node14&#45;&gt;Node15</title>
<g id="a_edge14_Node000014_Node000015"><a xlink:title=" ">
<path fill="none" stroke="#63b8ff" d="M727.17,-111C741.11,-111 755.4,-111 768.96,-111"/>
<polygon fill="#63b8ff" stroke="#63b8ff" points="727.1,-107.5 717.1,-111 727.1,-114.5 727.1,-107.5"/>
</a>
</g>
</g>
<!-- Node17 -->
<g id="Node000017" class="node">
<title>Node17</title>
<g id="a_Node000017"><a xlink:href="class_p4_1_1_p4_tools_1_1_p4_testgen_1_1_tofino_1_1_j_bay_expr_stepper.html" target="_top" xlink:title=" ">
<polygon fill="white" stroke="#bfbfbf" points="912.5,-78 774.5,-78 774.5,-48 912.5,-48 912.5,-78"/>
<text text-anchor="start" x="782.5" y="-66" font-family="Helvetica,sans-Serif" font-size="10.00">P4::P4Tools::P4Testgen</text>
<text text-anchor="middle" x="843.5" y="-55" font-family="Helvetica,sans-Serif" font-size="10.00">::Tofino::JBayExprStepper</text>
</a>
</g>
</g>
<!-- Node16&#45;&gt;Node17 -->
<g id="edge16_Node000016_Node000017" class="edge">
<title>Node16&#45;&gt;Node17</title>
<g id="a_edge16_Node000016_Node000017"><a xlink:title=" ">
<path fill="none" stroke="#63b8ff" d="M737.97,-63C750.28,-63 762.63,-63 774.33,-63"/>
<polygon fill="#63b8ff" stroke="#63b8ff" points="737.67,-59.5 727.67,-63 737.67,-66.5 737.67,-59.5"/>
</a>
</g>
</g>
<!-- Node18 -->
<g id="Node000018" class="node">
<title>Node18</title>
<g id="a_Node000018"><a xlink:href="class_p4_1_1_p4_tools_1_1_p4_testgen_1_1_tofino_1_1_tofino1_expr_stepper.html" target="_top" xlink:title=" ">
<polygon fill="white" stroke="#bfbfbf" points="919,-30 768,-30 768,0 919,0 919,-30"/>
<text text-anchor="start" x="776" y="-18" font-family="Helvetica,sans-Serif" font-size="10.00">P4::P4Tools::P4Testgen</text>
<text text-anchor="middle" x="843.5" y="-7" font-family="Helvetica,sans-Serif" font-size="10.00">::Tofino::Tofino1ExprStepper</text>
</a>
</g>
</g>
<!-- Node16&#45;&gt;Node18 -->
<g id="edge17_Node000016_Node000018" class="edge">
<title>Node16&#45;&gt;Node18</title>
<g id="a_edge17_Node000016_Node000018"><a xlink:title=" ">
<path fill="none" stroke="#63b8ff" d="M712.65,-45.63C734.35,-40.51 757.89,-34.96 778.9,-30"/>
<polygon fill="#63b8ff" stroke="#63b8ff" points="711.76,-42.24 702.83,-47.94 713.37,-49.05 711.76,-42.24"/>
</a>
</g>
</g>
</g>
</svg>

<g id="navigator" transform="translate(0 0)" fill="#404254">
  <rect fill="#f2f5e9" fill-opacity="0.5" stroke="#606060" stroke-width=".5" x="0" y="0" width="60" height="60"/>
  <use id="zoomplus" xlink:href="#zoomPlus" x="17" y="9" onmousedown="handleZoom(evt,'in')"/>
  <use id="zoomminus" xlink:href="#zoomMin" x="42" y="9" onmousedown="handleZoom(evt,'out')"/>
  <use id="reset" xlink:href="#resetDef" x="30" y="36" onmousedown="handleReset()"/>
   <use id="arrowup" xlink:href="#arrowUp" x="0" y="0" onmousedown="handlePan(0,-1)"/>
  <use id="arrowright" xlink:href="#arrowRight" x="0" y="0" onmousedown="handlePan(1,0)"/>
  <use id="arrowdown" xlink:href="#arrowDown" x="0" y="0" onmousedown="handlePan(0,1)"/>
  <use id="arrowleft" xlink:href="#arrowLeft" x="0" y="0" onmousedown="handlePan(-1,0)"/>
</g>
<svg viewBox="0 0 15 15" width="100%" height="30px" preserveAspectRatio="xMaxYMin meet">
 <g id="arrow_out" transform="scale(0.3 0.3)">
  <a xlink:href="class_p4_1_1_p4_tools_1_1_p4_testgen_1_1_abstract_stepper__inherit__graph_org.svg" target="_base">
   <rect id="button" ry="5" rx="5" y="6" x="6" height="38" width="38"
        fill="#f2f5e9" fill-opacity="0.5" stroke="#606060" stroke-width="1.0"/>
   <path id="arrow"
     d="M 11.500037,31.436501 C 11.940474,20.09759 22.043105,11.32322 32.158766,21.979434 L 37.068811,17.246167 C 37.068811,17.246167 37.088388,32 37.088388,32 L 22.160133,31.978069 C 22.160133,31.978069 26.997745,27.140456 26.997745,27.140456 C 18.528582,18.264221 13.291696,25.230495 11.500037,31.436501 z"
     style="fill:#404040;"/>
  </a>
 </g>
</svg>

<style type='text/css'>
<![CDATA[
[data-mouse-over-selected='false'] { opacity: 0.7; }
[data-mouse-over-selected='true']  { opacity: 1.0; }
]]>
</style>
<script type="application/ecmascript"><![CDATA[
document.addEventListener('DOMContentLoaded', (event) => {
  highlightEdges();
  highlightAdjacentNodes();
});
]]></script>
</svg>
