<?xml version="1.0" encoding="UTF-8" standalone="no"?>
<!DOCTYPE svg PUBLIC "-//W3C//DTD SVG 1.1//EN"
 "http://www.w3.org/Graphics/SVG/1.1/DTD/svg11.dtd">
<!-- Generated by graphviz version 2.43.0 (0)
 -->
<!-- Title: ParserHeaderSequences Pages: 1 -->
<svg width="240pt" height="137pt"
 viewBox="0.00 0.00 240.00 137.00" xmlns="http://www.w3.org/2000/svg" xmlns:xlink="http://www.w3.org/1999/xlink">
<g id="graph0" class="graph" transform="scale(1 1) rotate(0) translate(4 133)">
<title>ParserHeaderSequences</title>
<!-- Node1 -->
<g id="Node000001" class="node">
<title>Node1</title>
<g id="a_Node000001"><a xlink:title="Identify parsed header sequences.">
<polygon fill="#999999" stroke="#666666" points="191.5,-19 57.5,-19 57.5,0 191.5,0 191.5,-19"/>
<text text-anchor="middle" x="124.5" y="-7" font-family="Helvetica,sans-Serif" font-size="10.00">ParserHeaderSequences</text>
</a>
</g>
</g>
<!-- Node2 -->
<g id="Node000002" class="node">
<title>Node2</title>
<g id="a_Node000002"><a xlink:href="class_p4_1_1_control_flow_visitor.html" target="_top" xlink:title=" ">
<polygon fill="white" stroke="#bfbfbf" points="125,-74 0,-74 0,-55 125,-55 125,-74"/>
<text text-anchor="middle" x="62.5" y="-62" font-family="Helvetica,sans-Serif" font-size="10.00">P4::ControlFlowVisitor</text>
</a>
</g>
</g>
<!-- Node2&#45;&gt;Node1 -->
<g id="edge1_Node000001_Node000002" class="edge">
<title>Node2&#45;&gt;Node1</title>
<g id="a_edge1_Node000001_Node000002"><a xlink:title=" ">
<path fill="none" stroke="#63b8ff" d="M80.25,-48.32C91.31,-38.87 105.13,-27.06 114.36,-19.17"/>
<polygon fill="#63b8ff" stroke="#63b8ff" points="77.79,-45.83 72.46,-54.98 82.34,-51.15 77.79,-45.83"/>
</a>
</g>
</g>
<!-- Node3 -->
<g id="Node000003" class="node">
<title>Node3</title>
<g id="a_Node000003"><a xlink:href="class_p4_1_1_visitor.html" target="_top" xlink:title=" ">
<polygon fill="white" stroke="#bfbfbf" points="95.5,-129 29.5,-129 29.5,-110 95.5,-110 95.5,-129"/>
<text text-anchor="middle" x="62.5" y="-117" font-family="Helvetica,sans-Serif" font-size="10.00">P4::Visitor</text>
</a>
</g>
</g>
<!-- Node3&#45;&gt;Node2 -->
<g id="edge2_Node000002_Node000003" class="edge">
<title>Node3&#45;&gt;Node2</title>
<g id="a_edge2_Node000002_Node000003"><a xlink:title=" ">
<path fill="none" stroke="#63b8ff" d="M62.5,-99.66C62.5,-90.93 62.5,-80.99 62.5,-74.09"/>
<polygon fill="#63b8ff" stroke="#63b8ff" points="59,-99.75 62.5,-109.75 66,-99.75 59,-99.75"/>
</a>
</g>
</g>
<!-- Node4 -->
<g id="Node000004" class="node">
<title>Node4</title>
<g id="a_Node000004"><a xlink:href="group__parde.html#class_parde_inspector" target="_top" xlink:title=" ">
<polygon fill="white" stroke="#666666" points="232,-74 143,-74 143,-55 232,-55 232,-74"/>
<text text-anchor="middle" x="187.5" y="-62" font-family="Helvetica,sans-Serif" font-size="10.00">PardeInspector</text>
</a>
</g>
</g>
<!-- Node4&#45;&gt;Node1 -->
<g id="edge3_Node000001_Node000004" class="edge">
<title>Node4&#45;&gt;Node1</title>
<g id="a_edge3_Node000001_Node000004"><a xlink:title=" ">
<path fill="none" stroke="#63b8ff" d="M169.46,-48.32C158.23,-38.87 144.18,-27.06 134.81,-19.17"/>
<polygon fill="#63b8ff" stroke="#63b8ff" points="167.47,-51.23 177.38,-54.98 171.98,-45.87 167.47,-51.23"/>
</a>
</g>
</g>
<!-- Node5 -->
<g id="Node000005" class="node">
<title>Node5</title>
<g id="a_Node000005"><a xlink:title=" ">
<polygon fill="white" stroke="#bfbfbf" points="218.5,-129 156.5,-129 156.5,-110 218.5,-110 218.5,-129"/>
<text text-anchor="middle" x="187.5" y="-117" font-family="Helvetica,sans-Serif" font-size="10.00">Inspector</text>
</a>
</g>
</g>
<!-- Node5&#45;&gt;Node4 -->
<g id="edge4_Node000004_Node000005" class="edge">
<title>Node5&#45;&gt;Node4</title>
<g id="a_edge4_Node000004_Node000005"><a xlink:title=" ">
<path fill="none" stroke="#63b8ff" d="M187.5,-99.66C187.5,-90.93 187.5,-80.99 187.5,-74.09"/>
<polygon fill="#63b8ff" stroke="#63b8ff" points="184,-99.75 187.5,-109.75 191,-99.75 184,-99.75"/>
</a>
</g>
</g>
</g>
</svg>
