<?xml version="1.0" encoding="UTF-8" standalone="no"?>
<!DOCTYPE svg PUBLIC "-//W3C//DTD SVG 1.1//EN"
 "http://www.w3.org/Graphics/SVG/1.1/DTD/svg11.dtd">
<!-- Generated by graphviz version 2.43.0 (0)
 -->
<!-- Title: P4::EBPF::EBPFHashAlgorithmPSA Pages: 1 -->
<svg width="1037pt" height="179pt"
 viewBox="0.00 0.00 1037.00 178.50" xmlns="http://www.w3.org/2000/svg" xmlns:xlink="http://www.w3.org/1999/xlink">
<g id="graph0" class="graph" transform="scale(1 1) rotate(0) translate(4 174.5)">
<title>P4::EBPF::EBPFHashAlgorithmPSA</title>
<!-- Node1 -->
<g id="Node000001" class="node">
<title>Node1</title>
<g id="a_Node000001"><a xlink:title=" ">
<polygon fill="#999999" stroke="#666666" points="577,-72.5 395,-72.5 395,-53.5 577,-53.5 577,-72.5"/>
<text text-anchor="middle" x="486" y="-60.5" font-family="Helvetica,sans-Serif" font-size="10.00">P4::EBPF::EBPFHashAlgorithmPSA</text>
</a>
</g>
</g>
<!-- Node5 -->
<g id="Node000005" class="node">
<title>Node5</title>
<g id="a_Node000005"><a xlink:href="class_p4_1_1_e_b_p_f_1_1_c_r_c_checksum_algorithm.html" target="_top" xlink:title=" ">
<polygon fill="white" stroke="#bfbfbf" points="797,-115.5 613,-115.5 613,-96.5 797,-96.5 797,-115.5"/>
<text text-anchor="middle" x="705" y="-103.5" font-family="Helvetica,sans-Serif" font-size="10.00">P4::EBPF::CRCChecksumAlgorithm</text>
</a>
</g>
</g>
<!-- Node1&#45;&gt;Node5 -->
<g id="edge4_Node000001_Node000005" class="edge">
<title>Node1&#45;&gt;Node5</title>
<g id="a_edge4_Node000001_Node000005"><a xlink:title=" ">
<path fill="none" stroke="#63b8ff" d="M545.15,-74.52C579.81,-81.39 623.28,-90 655.98,-96.48"/>
<polygon fill="#63b8ff" stroke="#63b8ff" points="545.65,-71.05 535.16,-72.54 544.29,-77.92 545.65,-71.05"/>
</a>
</g>
</g>
<!-- Node10 -->
<g id="Node000010" class="node">
<title>Node10</title>
<g id="a_Node000010"><a xlink:href="class_p4_1_1_e_b_p_f_1_1_internet_checksum_algorithm.html" target="_top" xlink:title=" ">
<polygon fill="white" stroke="#bfbfbf" points="782,-78 628,-78 628,-48 782,-48 782,-78"/>
<text text-anchor="start" x="636" y="-66" font-family="Helvetica,sans-Serif" font-size="10.00">P4::EBPF::InternetChecksum</text>
<text text-anchor="middle" x="705" y="-55" font-family="Helvetica,sans-Serif" font-size="10.00">Algorithm</text>
</a>
</g>
</g>
<!-- Node1&#45;&gt;Node10 -->
<g id="edge9_Node000001_Node000010" class="edge">
<title>Node1&#45;&gt;Node10</title>
<g id="a_edge9_Node000001_Node000010"><a xlink:title=" ">
<path fill="none" stroke="#63b8ff" d="M587.49,-63C601.09,-63 614.86,-63 627.93,-63"/>
<polygon fill="#63b8ff" stroke="#63b8ff" points="587.14,-59.5 577.14,-63 587.14,-66.5 587.14,-59.5"/>
</a>
</g>
</g>
<!-- Node11 -->
<g id="Node000011" class="node">
<title>Node11</title>
<g id="a_Node000011"><a xlink:href="class_p4_1_1_t_c_1_1_internet_checksum_algorithm_p_n_a.html" target="_top" xlink:title=" ">
<polygon fill="white" stroke="#bfbfbf" points="776,-30 634,-30 634,0 776,0 776,-30"/>
<text text-anchor="start" x="642" y="-18" font-family="Helvetica,sans-Serif" font-size="10.00">P4::TC::InternetChecksum</text>
<text text-anchor="middle" x="705" y="-7" font-family="Helvetica,sans-Serif" font-size="10.00">AlgorithmPNA</text>
</a>
</g>
</g>
<!-- Node1&#45;&gt;Node11 -->
<g id="edge10_Node000001_Node000011" class="edge">
<title>Node1&#45;&gt;Node11</title>
<g id="a_edge10_Node000001_Node000011"><a xlink:title=" ">
<path fill="none" stroke="#63b8ff" d="M540.05,-51.26C569.01,-44.86 605.18,-36.86 636.17,-30"/>
<polygon fill="#63b8ff" stroke="#63b8ff" points="539.14,-47.88 530.13,-53.46 540.65,-54.72 539.14,-47.88"/>
</a>
</g>
</g>
<!-- Node2 -->
<g id="Node000002" class="node">
<title>Node2</title>
<g id="a_Node000002"><a xlink:href="class_p4_1_1_e_b_p_f_1_1_e_b_p_f_object.html" target="_top" xlink:title="Base class for EBPF objects.">
<polygon fill="white" stroke="#666666" points="359,-72.5 238,-72.5 238,-53.5 359,-53.5 359,-72.5"/>
<text text-anchor="middle" x="298.5" y="-60.5" font-family="Helvetica,sans-Serif" font-size="10.00">P4::EBPF::EBPFObject</text>
</a>
</g>
</g>
<!-- Node2&#45;&gt;Node1 -->
<g id="edge1_Node000001_Node000002" class="edge">
<title>Node2&#45;&gt;Node1</title>
<g id="a_edge1_Node000001_Node000002"><a xlink:title=" ">
<path fill="none" stroke="#63b8ff" d="M369.49,-63C377.72,-63 386.21,-63 394.67,-63"/>
<polygon fill="#63b8ff" stroke="#63b8ff" points="369.21,-59.5 359.21,-63 369.21,-66.5 369.21,-59.5"/>
</a>
</g>
</g>
<!-- Node3 -->
<g id="Node000003" class="node">
<title>Node3</title>
<g id="a_Node000003"><a xlink:href="class_p4_1_1_i_castable.html" target="_top" xlink:title=" ">
<polygon fill="white" stroke="#666666" points="202,-72.5 122,-72.5 122,-53.5 202,-53.5 202,-72.5"/>
<text text-anchor="middle" x="162" y="-60.5" font-family="Helvetica,sans-Serif" font-size="10.00">P4::ICastable</text>
</a>
</g>
</g>
<!-- Node3&#45;&gt;Node2 -->
<g id="edge2_Node000002_Node000003" class="edge">
<title>Node3&#45;&gt;Node2</title>
<g id="a_edge2_Node000002_Node000003"><a xlink:title=" ">
<path fill="none" stroke="#63b8ff" d="M212.5,-63C220.77,-63 229.44,-63 237.93,-63"/>
<polygon fill="#63b8ff" stroke="#63b8ff" points="212.26,-59.5 202.26,-63 212.26,-66.5 212.26,-59.5"/>
</a>
</g>
</g>
<!-- Node4 -->
<g id="Node000004" class="node">
<title>Node4</title>
<g id="a_Node000004"><a xlink:href="struct_p4_1_1_r_t_t_i_1_1_base.html" target="_top" xlink:title=" ">
<polygon fill="white" stroke="#bfbfbf" points="86,-72.5 0,-72.5 0,-53.5 86,-53.5 86,-72.5"/>
<text text-anchor="middle" x="43" y="-60.5" font-family="Helvetica,sans-Serif" font-size="10.00">P4::RTTI::Base</text>
</a>
</g>
</g>
<!-- Node4&#45;&gt;Node3 -->
<g id="edge3_Node000003_Node000004" class="edge">
<title>Node4&#45;&gt;Node3</title>
<g id="a_edge3_Node000003_Node000004"><a xlink:title=" ">
<path fill="none" stroke="#63b8ff" d="M96.25,-63C104.88,-63 113.7,-63 121.94,-63"/>
<polygon fill="#63b8ff" stroke="#63b8ff" points="96.24,-59.5 86.24,-63 96.24,-66.5 96.24,-59.5"/>
</a>
</g>
</g>
<!-- Node6 -->
<g id="Node000006" class="node">
<title>Node6</title>
<g id="a_Node000006"><a xlink:href="class_p4_1_1_e_b_p_f_1_1_c_r_c16_checksum_algorithm.html" target="_top" xlink:title=" ">
<polygon fill="white" stroke="#666666" points="1029,-170.5 833,-170.5 833,-151.5 1029,-151.5 1029,-170.5"/>
<text text-anchor="middle" x="931" y="-158.5" font-family="Helvetica,sans-Serif" font-size="10.00">P4::EBPF::CRC16ChecksumAlgorithm</text>
</a>
</g>
</g>
<!-- Node5&#45;&gt;Node6 -->
<g id="edge5_Node000005_Node000006" class="edge">
<title>Node5&#45;&gt;Node6</title>
<g id="a_edge5_Node000005_Node000006"><a xlink:title=" ">
<path fill="none" stroke="#63b8ff" d="M745.36,-118.57C770.31,-126.26 803.35,-135.95 833,-143 846,-146.09 860.08,-148.97 873.38,-151.48"/>
<polygon fill="#63b8ff" stroke="#63b8ff" points="746.13,-115.15 735.54,-115.52 744.05,-121.83 746.13,-115.15"/>
</a>
</g>
</g>
<!-- Node7 -->
<g id="Node000007" class="node">
<title>Node7</title>
<g id="a_Node000007"><a xlink:href="class_p4_1_1_e_b_p_f_1_1_c_r_c32_checksum_algorithm.html" target="_top" xlink:title=" ">
<polygon fill="white" stroke="#666666" points="1029,-133.5 833,-133.5 833,-114.5 1029,-114.5 1029,-133.5"/>
<text text-anchor="middle" x="931" y="-121.5" font-family="Helvetica,sans-Serif" font-size="10.00">P4::EBPF::CRC32ChecksumAlgorithm</text>
</a>
</g>
</g>
<!-- Node5&#45;&gt;Node7 -->
<g id="edge6_Node000005_Node000007" class="edge">
<title>Node5&#45;&gt;Node7</title>
<g id="a_edge6_Node000005_Node000007"><a xlink:title=" ">
<path fill="none" stroke="#63b8ff" d="M807.09,-114.12C815.63,-114.81 824.26,-115.5 832.77,-116.19"/>
<polygon fill="#63b8ff" stroke="#63b8ff" points="807.36,-110.63 797.11,-113.32 806.8,-117.61 807.36,-110.63"/>
</a>
</g>
</g>
<!-- Node8 -->
<g id="Node000008" class="node">
<title>Node8</title>
<g id="a_Node000008"><a xlink:href="class_p4_1_1_t_c_1_1_c_r_c_checksum_algorithm_p_n_a.html" target="_top" xlink:title=" ">
<polygon fill="white" stroke="#bfbfbf" points="1027,-96.5 835,-96.5 835,-77.5 1027,-77.5 1027,-96.5"/>
<text text-anchor="middle" x="931" y="-84.5" font-family="Helvetica,sans-Serif" font-size="10.00">P4::TC::CRCChecksumAlgorithmPNA</text>
</a>
</g>
</g>
<!-- Node5&#45;&gt;Node8 -->
<g id="edge7_Node000005_Node000008" class="edge">
<title>Node5&#45;&gt;Node8</title>
<g id="a_edge7_Node000005_Node000008"><a xlink:title=" ">
<path fill="none" stroke="#63b8ff" d="M807.11,-97.42C816.38,-96.64 825.75,-95.84 834.96,-95.06"/>
<polygon fill="#63b8ff" stroke="#63b8ff" points="806.78,-93.94 797.11,-98.27 807.37,-100.91 806.78,-93.94"/>
</a>
</g>
</g>
<!-- Node9 -->
<g id="Node000009" class="node">
<title>Node9</title>
<g id="a_Node000009"><a xlink:href="class_p4_1_1_t_c_1_1_hash_algorithm_p_n_a.html" target="_top" xlink:title=" ">
<polygon fill="white" stroke="#bfbfbf" points="1004,-59.5 858,-59.5 858,-40.5 1004,-40.5 1004,-59.5"/>
<text text-anchor="middle" x="931" y="-47.5" font-family="Helvetica,sans-Serif" font-size="10.00">P4::TC::HashAlgorithmPNA</text>
</a>
</g>
</g>
<!-- Node5&#45;&gt;Node9 -->
<g id="edge8_Node000005_Node000009" class="edge">
<title>Node5&#45;&gt;Node9</title>
<g id="a_edge8_Node000005_Node000009"><a xlink:title=" ">
<path fill="none" stroke="#63b8ff" d="M773.92,-94.02C781.79,-91.98 789.63,-89.65 797,-87 814.02,-80.87 815.91,-73.94 833,-68 842.79,-64.6 853.37,-61.8 863.82,-59.51"/>
<polygon fill="#63b8ff" stroke="#63b8ff" points="772.85,-90.67 763.96,-96.44 774.5,-97.48 772.85,-90.67"/>
</a>
</g>
</g>
</g>
</svg>
