<?xml version="1.0" encoding="UTF-8" standalone="no"?>
<!DOCTYPE svg PUBLIC "-//W3C//DTD SVG 1.1//EN"
 "http://www.w3.org/Graphics/SVG/1.1/DTD/svg11.dtd">
<!-- Generated by graphviz version 2.43.0 (0)
 -->
<!-- Title: P4::NameGenerator Pages: 1 -->
<svg width="284pt" height="82pt"
 viewBox="0.00 0.00 283.50 82.00" xmlns="http://www.w3.org/2000/svg" xmlns:xlink="http://www.w3.org/1999/xlink">
<g id="graph0" class="graph" transform="scale(1 1) rotate(0) translate(4 78)">
<title>P4::NameGenerator</title>
<!-- Node1 -->
<g id="Node000001" class="node">
<title>Node1</title>
<g id="a_Node000001"><a xlink:title=" ">
<polygon fill="#999999" stroke="#666666" points="205.5,-74 92.5,-74 92.5,-55 205.5,-55 205.5,-74"/>
<text text-anchor="middle" x="149" y="-62" font-family="Helvetica,sans-Serif" font-size="10.00">P4::NameGenerator</text>
</a>
</g>
</g>
<!-- Node2 -->
<g id="Node000002" class="node">
<title>Node2</title>
<g id="a_Node000002"><a xlink:href="class_p4_1_1_minimal_name_generator.html" target="_top" xlink:title=" ">
<polygon fill="white" stroke="#bfbfbf" points="152,-19 0,-19 0,0 152,0 152,-19"/>
<text text-anchor="middle" x="76" y="-7" font-family="Helvetica,sans-Serif" font-size="10.00">P4::MinimalNameGenerator</text>
</a>
</g>
</g>
<!-- Node1&#45;&gt;Node2 -->
<g id="edge1_Node000001_Node000002" class="edge">
<title>Node1&#45;&gt;Node2</title>
<g id="a_edge1_Node000001_Node000002"><a xlink:title=" ">
<path fill="none" stroke="#63b8ff" d="M128.86,-48.88C115.72,-39.34 99.02,-27.21 87.94,-19.17"/>
<polygon fill="#63b8ff" stroke="#63b8ff" points="127.12,-51.94 137.27,-54.98 131.24,-46.28 127.12,-51.94"/>
</a>
</g>
</g>
<!-- Node3 -->
<g id="Node000003" class="node">
<title>Node3</title>
<g id="a_Node000003"><a xlink:href="class_p4_1_1_reference_map.html" target="_top" xlink:title="Class used to encode maps from paths to declarations.">
<polygon fill="white" stroke="#666666" points="275.5,-19 170.5,-19 170.5,0 275.5,0 275.5,-19"/>
<text text-anchor="middle" x="223" y="-7" font-family="Helvetica,sans-Serif" font-size="10.00">P4::ReferenceMap</text>
</a>
</g>
</g>
<!-- Node1&#45;&gt;Node3 -->
<g id="edge2_Node000001_Node000003" class="edge">
<title>Node1&#45;&gt;Node3</title>
<g id="a_edge2_Node000001_Node000003"><a xlink:title=" ">
<path fill="none" stroke="#63b8ff" d="M169.03,-49.15C182.41,-39.57 199.56,-27.29 210.89,-19.17"/>
<polygon fill="#63b8ff" stroke="#63b8ff" points="166.98,-46.32 160.89,-54.98 171.06,-52.01 166.98,-46.32"/>
</a>
</g>
</g>
</g>
</svg>
