<?xml version="1.0" encoding="UTF-8" standalone="no"?>
<!DOCTYPE svg PUBLIC "-//W3C//DTD SVG 1.1//EN"
 "http://www.w3.org/Graphics/SVG/1.1/DTD/svg11.dtd">
<!-- Generated by graphviz version 2.43.0 (0)
 -->
<!-- Title: Graphical Class Hierarchy Pages: 1 -->
<svg width="505pt" height="38pt"
 viewBox="0.00 0.00 505.00 38.00" xmlns="http://www.w3.org/2000/svg" xmlns:xlink="http://www.w3.org/1999/xlink">
<g id="graph0" class="graph" transform="scale(1 1) rotate(0) translate(4 34)">
<title>Graphical Class Hierarchy</title>
<!-- Node0 -->
<g id="Node000000" class="node">
<title>Node0</title>
<g id="a_Node000000"><a xlink:href="class_p4_1_1_control_plane_a_p_i_1_1_p4_runtime_symbol_type.html" target="_top" xlink:title=" ">
<polygon fill="white" stroke="#666666" points="135,-30 0,-30 0,0 135,0 135,-30"/>
<text text-anchor="start" x="8" y="-18" font-family="Helvetica,sans-Serif" font-size="10.00">P4::ControlPlaneAPI</text>
<text text-anchor="middle" x="67.5" y="-7" font-family="Helvetica,sans-Serif" font-size="10.00">::P4RuntimeSymbolType</text>
</a>
</g>
</g>
<!-- Node1 -->
<g id="Node000001" class="node">
<title>Node1</title>
<g id="a_Node000001"><a xlink:href="class_p4_1_1_control_plane_a_p_i_1_1_standard_1_1_symbol_type.html" target="_top" xlink:title=" ">
<polygon fill="white" stroke="#666666" points="302,-30 171,-30 171,0 302,0 302,-30"/>
<text text-anchor="start" x="179" y="-18" font-family="Helvetica,sans-Serif" font-size="10.00">P4::ControlPlaneAPI</text>
<text text-anchor="middle" x="236.5" y="-7" font-family="Helvetica,sans-Serif" font-size="10.00">::Standard::SymbolType</text>
</a>
</g>
</g>
<!-- Node0&#45;&gt;Node1 -->
<g id="edge55_Node000000_Node000001" class="edge">
<title>Node0&#45;&gt;Node1</title>
<g id="a_edge55_Node000000_Node000001"><a xlink:title=" ">
<path fill="none" stroke="#63b8ff" d="M145.7,-15C154.15,-15 162.69,-15 170.97,-15"/>
<polygon fill="#63b8ff" stroke="#63b8ff" points="145.46,-11.5 135.46,-15 145.46,-18.5 145.46,-11.5"/>
</a>
</g>
</g>
<!-- Node2 -->
<g id="Node000002" class="node">
<title>Node2</title>
<g id="a_Node000002"><a xlink:href="class_p4_1_1_control_plane_a_p_i_1_1_standard_1_1_symbol_type_d_p_d_k.html" target="_top" xlink:title="Extends P4RuntimeSymbolType for the DPDK extern types.">
<polygon fill="white" stroke="#666666" points="497,-30 338,-30 338,0 497,0 497,-30"/>
<text text-anchor="start" x="346" y="-18" font-family="Helvetica,sans-Serif" font-size="10.00">P4::ControlPlaneAPI</text>
<text text-anchor="middle" x="417.5" y="-7" font-family="Helvetica,sans-Serif" font-size="10.00">::Standard::SymbolTypeDPDK</text>
</a>
</g>
</g>
<!-- Node1&#45;&gt;Node2 -->
<g id="edge56_Node000001_Node000002" class="edge">
<title>Node1&#45;&gt;Node2</title>
<g id="a_edge56_Node000001_Node000002"><a xlink:title=" ">
<path fill="none" stroke="#63b8ff" d="M312.33,-15C320.78,-15 329.42,-15 337.92,-15"/>
<polygon fill="#63b8ff" stroke="#63b8ff" points="312.12,-11.5 302.12,-15 312.12,-18.5 312.12,-11.5"/>
</a>
</g>
</g>
</g>
</svg>
