<?xml version="1.0" encoding="UTF-8" standalone="no"?>
<!DOCTYPE svg PUBLIC "-//W3C//DTD SVG 1.1//EN"
 "http://www.w3.org/Graphics/SVG/1.1/DTD/svg11.dtd">
<!-- Generated by graphviz version 2.43.0 (0)
 -->
<!-- Title: Graphical Class Hierarchy Pages: 1 -->
<svg width="551pt" height="134pt"
 viewBox="0.00 0.00 551.00 134.00" xmlns="http://www.w3.org/2000/svg" xmlns:xlink="http://www.w3.org/1999/xlink">
<g id="graph0" class="graph" transform="scale(1 1) rotate(0) translate(4 130)">
<title>Graphical Class Hierarchy</title>
<!-- Node0 -->
<g id="Node000000" class="node">
<title>Node0</title>
<g id="a_Node000000"><a xlink:href="class_p4_1_1_p4_tools_1_1_p4_testgen_1_1_table_stepper.html" target="_top" xlink:title="Implements small&#45;step operational semantics for tables.">
<polygon fill="white" stroke="#666666" points="127,-78 0,-78 0,-48 127,-48 127,-78"/>
<text text-anchor="start" x="8" y="-66" font-family="Helvetica,sans-Serif" font-size="10.00">P4::P4Tools::P4Testgen</text>
<text text-anchor="middle" x="63.5" y="-55" font-family="Helvetica,sans-Serif" font-size="10.00">::TableStepper</text>
</a>
</g>
</g>
<!-- Node1 -->
<g id="Node000001" class="node">
<title>Node1</title>
<g id="a_Node000001"><a xlink:href="class_p4_1_1_p4_tools_1_1_p4_testgen_1_1_bmv2_1_1_bmv2_v1_model_table_stepper.html" target="_top" xlink:title=" ">
<polygon fill="white" stroke="#666666" points="354,-126 163,-126 163,-96 354,-96 354,-126"/>
<text text-anchor="start" x="171" y="-114" font-family="Helvetica,sans-Serif" font-size="10.00">P4::P4Tools::P4Testgen</text>
<text text-anchor="middle" x="258.5" y="-103" font-family="Helvetica,sans-Serif" font-size="10.00">::Bmv2::Bmv2V1ModelTableStepper</text>
</a>
</g>
</g>
<!-- Node0&#45;&gt;Node1 -->
<g id="edge1089_Node000000_Node000001" class="edge">
<title>Node0&#45;&gt;Node1</title>
<g id="a_edge1089_Node000000_Node000001"><a xlink:title=" ">
<path fill="none" stroke="#63b8ff" d="M134.91,-80.51C155.33,-85.59 177.43,-91.09 197.18,-96"/>
<polygon fill="#63b8ff" stroke="#63b8ff" points="135.59,-77.07 125.04,-78.06 133.9,-83.87 135.59,-77.07"/>
</a>
</g>
</g>
<!-- Node2 -->
<g id="Node000002" class="node">
<title>Node2</title>
<g id="a_Node000002"><a xlink:href="class_p4_1_1_p4_tools_1_1_p4_testgen_1_1_e_b_p_f_1_1_e_b_p_f_table_stepper.html" target="_top" xlink:title=" ">
<polygon fill="white" stroke="#666666" points="328.5,-78 188.5,-78 188.5,-48 328.5,-48 328.5,-78"/>
<text text-anchor="start" x="196.5" y="-66" font-family="Helvetica,sans-Serif" font-size="10.00">P4::P4Tools::P4Testgen</text>
<text text-anchor="middle" x="258.5" y="-55" font-family="Helvetica,sans-Serif" font-size="10.00">::EBPF::EBPFTableStepper</text>
</a>
</g>
</g>
<!-- Node0&#45;&gt;Node2 -->
<g id="edge1090_Node000000_Node000002" class="edge">
<title>Node0&#45;&gt;Node2</title>
<g id="a_edge1090_Node000000_Node000002"><a xlink:title=" ">
<path fill="none" stroke="#63b8ff" d="M137.43,-63C154.17,-63 171.91,-63 188.48,-63"/>
<polygon fill="#63b8ff" stroke="#63b8ff" points="137.16,-59.5 127.16,-63 137.16,-66.5 137.16,-59.5"/>
</a>
</g>
</g>
<!-- Node3 -->
<g id="Node000003" class="node">
<title>Node3</title>
<g id="a_Node000003"><a xlink:href="class_p4_1_1_p4_tools_1_1_p4_testgen_1_1_pna_1_1_shared_pna_table_stepper.html" target="_top" xlink:title=" ">
<polygon fill="white" stroke="#666666" points="339,-30 178,-30 178,0 339,0 339,-30"/>
<text text-anchor="start" x="186" y="-18" font-family="Helvetica,sans-Serif" font-size="10.00">P4::P4Tools::P4Testgen</text>
<text text-anchor="middle" x="258.5" y="-7" font-family="Helvetica,sans-Serif" font-size="10.00">::Pna::SharedPnaTableStepper</text>
</a>
</g>
</g>
<!-- Node0&#45;&gt;Node3 -->
<g id="edge1091_Node000000_Node000003" class="edge">
<title>Node0&#45;&gt;Node3</title>
<g id="a_edge1091_Node000000_Node000003"><a xlink:title=" ">
<path fill="none" stroke="#63b8ff" d="M134.91,-45.49C155.33,-40.41 177.43,-34.91 197.18,-30"/>
<polygon fill="#63b8ff" stroke="#63b8ff" points="133.9,-42.13 125.04,-47.94 135.59,-48.93 133.9,-42.13"/>
</a>
</g>
</g>
<!-- Node4 -->
<g id="Node000004" class="node">
<title>Node4</title>
<g id="a_Node000004"><a xlink:href="class_p4_1_1_p4_tools_1_1_p4_testgen_1_1_pna_1_1_pna_dpdk_table_stepper.html" target="_top" xlink:title=" ">
<polygon fill="white" stroke="#666666" points="543,-30 390,-30 390,0 543,0 543,-30"/>
<text text-anchor="start" x="398" y="-18" font-family="Helvetica,sans-Serif" font-size="10.00">P4::P4Tools::P4Testgen</text>
<text text-anchor="middle" x="466.5" y="-7" font-family="Helvetica,sans-Serif" font-size="10.00">::Pna::PnaDpdkTableStepper</text>
</a>
</g>
</g>
<!-- Node3&#45;&gt;Node4 -->
<g id="edge1092_Node000003_Node000004" class="edge">
<title>Node3&#45;&gt;Node4</title>
<g id="a_edge1092_Node000003_Node000004"><a xlink:title=" ">
<path fill="none" stroke="#63b8ff" d="M349.38,-15C362.86,-15 376.64,-15 389.79,-15"/>
<polygon fill="#63b8ff" stroke="#63b8ff" points="349.15,-11.5 339.14,-15 349.14,-18.5 349.15,-11.5"/>
</a>
</g>
</g>
</g>
</svg>
